<svg width="71" height="60" viewBox="0 0 71 60" fill="none" xmlns="http://www.w3.org/2000/svg">
<path d="M29.6539 59.7328C29.1142 59.7637 28.5797 59.6123 28.1364 59.303C27.8477 59.0704 27.6602 58.7351 27.6136 58.3674C27.3798 58.037 27.2777 57.6313 27.3271 57.2295C27.3474 57.0708 27.3869 56.915 27.445 56.7659C27.4158 56.6043 27.4158 56.4387 27.445 56.2771C27.5208 55.963 27.6745 55.6731 27.8919 55.4342V55.4342C27.6961 55.4464 27.4996 55.4264 27.3102 55.3751C27.1527 55.3325 27.0022 55.2672 26.8634 55.1813H26.7201L26.248 55.1055C26.013 55.1661 25.7663 55.1661 25.5313 55.1055C25.0686 54.9593 24.6154 54.7848 24.1741 54.5829C23.5901 54.3096 22.9835 54.0868 22.3614 53.917C22.0722 53.8422 21.8059 53.6975 21.5859 53.4955C21.5495 53.4635 21.5099 53.4353 21.4678 53.4113C21.3722 53.3653 21.2737 53.3259 21.1728 53.2933C20.8804 53.1972 20.5981 53.073 20.3298 52.9223C20.1262 52.7941 19.9392 52.6413 19.7732 52.4673V52.4673C19.5833 52.4027 19.4105 52.2961 19.2675 52.1554C19.1081 52.0984 18.9576 52.0189 18.8207 51.9194C18.8207 51.9194 17.0503 50.4865 16.9913 49.5087C16.9757 49.2676 17.0314 49.0272 17.1515 48.8175C17.1605 48.7593 17.1776 48.7026 17.2021 48.649C17.0086 48.4624 16.7967 48.2959 16.5698 48.1517C16.0815 47.8104 15.6491 47.3952 15.2884 46.9211C15.0945 46.6935 14.8922 46.4575 14.6898 46.2468C14.5156 46.0799 14.3326 45.9223 14.1417 45.7748C13.6577 45.4475 13.2706 44.9964 13.0206 44.4684C12.9044 44.0922 12.9044 43.6898 13.0206 43.3136L12.8518 43.1787C12.6041 42.9908 12.373 42.7822 12.1607 42.555C12.0098 42.3769 11.89 42.1746 11.8065 41.9566L11.5031 41.6194L11.3934 41.493C11.2669 41.3581 11.0984 41.1727 11.0141 41.0631C10.8862 40.9043 10.7813 40.7284 10.7022 40.5405C10.5815 40.259 10.5293 39.9527 10.5503 39.647L10.2048 39.3352C10.0867 39.234 9.96879 39.1329 9.85919 39.0233L9.60624 38.7789C9.40868 38.5768 9.28407 38.3146 9.25202 38.0338C9.21996 37.753 9.28231 37.4694 9.42923 37.228C9.52586 37.0833 9.64212 36.9528 9.7748 36.8403L10.0951 36.5706C10.1372 36.5706 10.1879 36.4863 10.2216 36.4442L10.4155 35.281C10.4177 34.9796 10.4007 34.6783 10.3649 34.379C10.2816 33.9178 10.11 33.4771 9.85919 33.0811C9.70938 32.8735 9.54893 32.6737 9.3786 32.4826C9.25214 32.373 9.09193 32.2382 8.92332 32.1118C8.80578 32.013 8.67534 31.9307 8.53555 31.8673C8.31875 31.9023 8.09684 31.8879 7.88639 31.8252C7.66906 31.7534 7.46429 31.6482 7.27942 31.5133C6.86632 31.5133 6.17503 31.6481 5.59332 31.7408L5.18868 31.7999C5.06874 31.8208 4.94756 31.8349 4.82602 31.8421C4.7258 31.8594 4.62725 31.8848 4.53108 31.9179L4.23593 32.0022C3.9935 32.0731 3.7355 32.0698 3.49497 31.9927C3.25443 31.9156 3.04237 31.7682 2.88635 31.5696C2.73034 31.371 2.63751 31.1302 2.61961 30.8783C2.6017 30.6264 2.65956 30.375 2.78591 30.1563C2.85364 30.0445 2.93276 29.9399 3.02199 29.8444C3.08323 29.7817 3.14795 29.7227 3.21587 29.6674C3.24097 29.5893 3.27206 29.5132 3.3087 29.4398L3.35913 29.3387C3.42201 29.2218 3.49242 29.1092 3.56989 29.0015C3.60374 28.9557 3.6348 28.9079 3.66271 28.8583C3.69957 28.7517 3.72508 28.6415 3.73866 28.5295V28.5295C3.66971 28.4452 3.61278 28.3516 3.56989 28.2514L3.39288 27.8384C3.12164 27.7068 2.9064 27.4826 2.78591 27.2063L1.09982 23.2194C0.984767 22.953 0.966817 22.6547 1.04918 22.3765L0.872178 21.9635C0.797286 21.7965 0.758564 21.6155 0.758564 21.4325C0.758564 21.2494 0.797286 21.0685 0.872178 20.9014L0.914371 20.8256L0.467532 19.7973C0.367369 19.5576 0.340878 19.2935 0.391583 19.0387L0.298963 18.8196C0.223824 18.6436 0.189353 18.4529 0.198111 18.2617C0.206868 18.0705 0.258679 17.8839 0.349596 17.7154C0.439204 17.5471 0.566312 17.4017 0.72131 17.2906C0.876308 17.1795 1.05486 17.1057 1.24307 17.0749C2.23817 16.8944 3.2577 16.8944 4.2528 17.0749C4.72131 17.1637 5.18123 17.2934 5.62708 17.4625C5.83074 17.5367 6.03048 17.6211 6.22561 17.7154C6.39422 17.7913 6.5627 17.884 6.73131 17.9767C7.06175 18.1611 7.38006 18.3666 7.68406 18.592L8.08027 18.9123C8.07053 18.8378 8.05354 18.7644 8.02964 18.6931C7.96913 18.4849 7.93803 18.2693 7.93702 18.0525V17.9514V17.6311C7.94349 17.47 7.96023 17.3096 7.98744 17.1507C7.98431 17.0973 7.98431 17.0438 7.98744 16.9905L8.05495 16.7714C8.07974 16.6602 8.11079 16.5505 8.14778 16.4427C8.08998 16.1224 8.15303 15.7919 8.32479 15.5154C8.39768 15.3904 8.48864 15.2769 8.59462 15.1784C8.7323 14.8776 8.93703 14.6123 9.19315 14.4029L9.40391 14.268C9.62793 14.1639 9.86675 14.0957 10.1119 14.0657L10.1963 14.0152L10.3311 13.9225C10.8376 13.5554 11.4101 13.2892 12.0172 13.1386C12.3039 13.0459 12.6158 12.9447 12.8603 12.8267C12.8862 12.7806 12.9088 12.7327 12.9278 12.6834L12.9784 12.5991C12.9292 12.343 12.9292 12.0799 12.9784 11.8237C13.0481 11.5726 13.156 11.3337 13.2987 11.1157L13.3578 11.0145C13.4421 10.6605 13.5853 10.1716 13.6611 9.94404C13.7283 9.67352 13.8304 9.41292 13.9647 9.16866C14.1066 8.92084 14.2859 8.69623 14.4959 8.50276C14.5508 8.45356 14.6015 8.40005 14.6476 8.34266C14.7127 8.27169 14.7719 8.19557 14.8246 8.11507C15.1124 7.66155 15.5094 7.28762 15.9795 7.02772C16.2953 6.89154 16.6373 6.82626 16.981 6.83645C17.3248 6.84664 17.662 6.93202 17.9692 7.08668C18.1755 7.21778 18.3579 7.38317 18.5087 7.57561C18.583 7.50731 18.6651 7.44794 18.7532 7.39864C18.8188 7.31805 18.8954 7.24711 18.9808 7.18792C19.0613 7.12674 19.1491 7.07573 19.2422 7.03616C19.2964 6.96463 19.3555 6.89704 19.4192 6.83388C19.524 6.73474 19.6434 6.65227 19.7732 6.58941C19.8364 6.51784 19.9042 6.45028 19.9758 6.38713C20.1173 6.26966 20.2729 6.17056 20.4393 6.09214C20.524 5.94614 20.6357 5.81749 20.7682 5.71289C20.908 5.61021 21.0651 5.53314 21.2319 5.4853L21.2908 5.42624C21.3792 5.30434 21.4911 5.20121 21.6197 5.12281C21.6158 5.08639 21.6158 5.04966 21.6197 5.01324C21.6197 4.6508 21.6197 4.27156 21.6197 3.90912V3.4455C21.6197 3.33592 21.6197 3.23477 21.6197 3.1252V2.93979C21.6197 2.93979 21.6197 2.88081 21.6197 2.85552V2.50148L21.5268 1.5659C21.5268 1.5659 21.5268 1.52379 21.5268 1.4985C21.5139 1.33939 21.5311 1.17922 21.5775 1.02644V1.02644C21.6259 0.870249 21.7031 0.724458 21.8051 0.596568C21.9459 0.423897 22.1287 0.290405 22.3361 0.208878V0.208878C22.4282 0.173612 22.5247 0.150865 22.6228 0.141382V0.141382C22.7993 0.122062 22.9777 0.142274 23.1454 0.200441V0.200441C23.2734 0.244851 23.3933 0.310361 23.4996 0.394286V0.394286C23.665 0.526418 23.7952 0.697177 23.879 0.891555V0.891555C23.9208 0.991289 23.9493 1.09617 23.9634 1.20342V1.20342C23.9634 1.26242 23.9634 1.35516 23.9634 1.43945C23.9621 1.46472 23.9621 1.49 23.9634 1.51528V1.59965C24.0627 1.85171 24.0831 2.12791 24.0222 2.3919V2.3919L24.1826 4.07765C24.4164 4.13625 24.6366 4.23926 24.8315 4.38108C24.9629 4.48679 25.0744 4.61533 25.1604 4.76043C25.2783 4.75329 25.3965 4.75329 25.5144 4.76043H25.6326C25.844 4.68853 26.0671 4.65699 26.2902 4.66763H26.4503C26.8527 4.68303 27.2491 4.76865 27.622 4.92053L28.0858 5.10594H28.1701C28.3778 5.215 28.5681 5.35417 28.7349 5.51894C28.7529 5.54549 28.7759 5.56844 28.8024 5.58644C29.0584 5.96747 29.2946 6.36135 29.5105 6.76649C29.416 7.3788 29.5543 8.00425 29.8982 8.51963C29.9065 8.58963 29.9065 8.66035 29.8982 8.73035C29.9839 8.84455 30.0547 8.96912 30.109 9.10117C30.1332 9.14303 30.1503 9.18862 30.1596 9.23606C30.227 9.46939 30.2668 9.70985 30.2778 9.95248V10.0536C30.3199 10.2728 30.362 10.4414 30.4041 10.6184C30.4463 10.7954 30.5052 10.9471 30.5558 11.0988C30.6064 11.2505 30.6907 11.4697 30.7497 11.6804C30.8861 12.1561 30.9904 12.6404 31.0617 13.1301C31.0954 13.5312 31.0954 13.9344 31.0617 14.3355C31.0279 14.6859 31.0279 15.0387 31.0617 15.3891C31.146 15.9454 31.3905 16.8136 31.6434 17.7239C31.7361 18.0358 31.8205 18.356 31.9048 18.6679L31.9639 18.7606C32.6552 18.6426 33.4137 18.4909 34.1135 18.356L35.5215 18.0863C35.7528 18.0442 35.9897 18.0442 36.2211 18.0863C36.7489 17.9707 37.2843 17.8918 37.823 17.8502L38.0675 17.7744C38.2815 17.7035 38.5017 17.6527 38.7251 17.6226C38.9722 17.6071 39.2198 17.6071 39.4669 17.6226H39.7367H40.487C40.61 17.6062 40.7347 17.6062 40.8578 17.6226C40.9427 17.5941 41.0303 17.5743 41.1192 17.5637C41.4092 17.3617 41.7627 17.2718 42.114 17.3108C42.3455 17.3461 42.5666 17.4317 42.7617 17.5612C42.9568 17.6908 43.1213 17.8613 43.2437 18.061L43.7159 17.4963C43.8753 17.3027 44.0886 17.1609 44.3288 17.0888C44.569 17.0168 44.825 17.0179 45.0646 17.0917C45.2952 17.1746 45.4973 17.3219 45.6467 17.5162C45.7961 17.7104 45.8867 17.9433 45.9077 18.1874C45.937 18.4084 45.937 18.6323 45.9077 18.8533C45.8835 18.9949 45.844 19.1334 45.7897 19.2663C46.1343 19.3294 46.4487 19.5038 46.6847 19.7626C46.9207 20.0214 47.0654 20.3503 47.0965 20.6992C47.2015 20.728 47.301 20.7735 47.3915 20.8341C47.5393 20.9196 47.6708 21.031 47.7794 21.1628C48.0492 21.3482 48.361 21.6011 48.6898 21.8792L48.9765 22.1152C49.2138 22.1733 49.4318 22.2925 49.6088 22.4609C49.7457 22.5929 49.8673 22.7398 49.9712 22.8991V22.9497C50.2035 23.1292 50.3982 23.3526 50.5444 23.6072C50.5444 23.6577 50.612 23.7167 50.6541 23.7841C50.8263 23.8838 50.978 24.0154 51.101 24.1718C51.3865 24.55 51.6217 24.9638 51.8008 25.4025L52.2643 26.5741C52.3998 26.7568 52.5078 26.9584 52.5848 27.1725C52.7052 27.5181 52.7955 27.8734 52.8546 28.2345C52.8546 28.2345 52.8546 28.3188 52.8546 28.3526C52.8747 28.7161 52.8549 29.0806 52.7955 29.4398C52.7522 29.8317 52.6017 30.2041 52.3608 30.5163C52.1199 30.8285 51.7978 31.0685 51.4297 31.2099V31.3278C51.4325 31.6375 51.3216 31.9374 51.1179 32.1707V32.1707V32.2213L51.3117 32.3393C51.7754 32.6934 53.2507 34.1937 52.9219 35.5001C52.8651 35.7169 52.7517 35.9147 52.5932 36.0732C52.3258 36.4094 51.9738 36.6683 51.5731 36.8234C51.3013 36.9142 51.0097 36.9288 50.7301 36.8656C50.5515 36.8862 50.3704 36.8689 50.1989 36.815L50.0472 36.7644C50.1148 36.9033 50.163 37.0508 50.1904 37.2028C50.3258 37.2783 50.4458 37.3783 50.5444 37.4977C50.6322 37.6013 50.7033 37.7179 50.7552 37.8434C50.8911 38.0056 51.0152 38.1774 51.1263 38.3575L51.2442 38.5007C51.7248 39.0992 52.6859 40.3129 52.5257 41.3834H52.5848C52.871 41.4688 53.1177 41.6527 53.2813 41.9027C53.4448 42.1526 53.5148 42.4524 53.4784 42.7489V42.7489C53.5331 42.9589 53.5331 43.1794 53.4784 43.3894L53.3772 43.6507L53.2843 44.4093C53.2566 44.6581 53.1551 44.893 52.9929 45.0837C52.8307 45.2745 52.6152 45.4124 52.374 45.4798V45.5556C52.4699 45.6689 52.5467 45.7971 52.6016 45.935L52.6521 46.0445C52.7388 46.2839 52.852 46.5128 52.9894 46.7272C53.0633 46.8266 53.1514 46.9146 53.2508 46.9886C53.4376 47.1329 53.5998 47.3065 53.7312 47.5027C53.8068 47.6249 53.8689 47.7549 53.9166 47.8904C54.1226 48.0326 54.2909 48.2228 54.4069 48.4446C54.5229 48.6663 54.5832 48.9129 54.5827 49.1631C54.582 49.3051 54.5652 49.4465 54.5322 49.5846C55.0321 49.7795 55.4793 50.0883 55.8388 50.4865C55.953 50.6271 56.0468 50.7831 56.1171 50.95H56.4795C56.6262 50.976 56.7701 51.0155 56.9095 51.068L57.0698 51.127H57.1624C57.6179 51.1793 58.0367 51.4022 58.3344 51.7508H58.8063H58.9667C59.1774 51.7508 59.3798 51.7508 59.5821 51.7508C59.7261 51.7569 59.8696 51.7709 60.012 51.7929H60.13L60.3998 51.7086C60.7062 51.6217 61.0191 51.5597 61.3355 51.5232C61.4892 51.5004 61.6455 51.5004 61.7992 51.5232H62.1701C62.316 51.5345 62.4626 51.5345 62.6085 51.5232C62.7617 51.4939 62.919 51.4939 63.0722 51.5232C63.375 51.4581 63.6884 51.4581 63.9912 51.5232V51.5232H64.0669C64.5111 51.3449 64.9987 51.3038 65.4665 51.4052H65.7026C66.2079 51.3694 66.7155 51.4034 67.2115 51.5064L67.6752 51.5738C67.9262 51.5421 68.1811 51.5594 68.4256 51.6244C68.6351 51.6799 68.8285 51.7838 68.9904 51.9278H69.1168C69.6444 52.1174 70.0968 52.4721 70.4067 52.9392C70.5261 53.1123 70.6013 53.312 70.6259 53.5208C70.6511 53.7275 70.6294 53.937 70.5623 54.1341C70.4951 54.3311 70.3843 54.5105 70.2381 54.6587C70.1511 54.7447 70.0549 54.8211 69.9514 54.8863L69.901 54.9453C69.653 55.2259 69.3049 55.3984 68.9313 55.4258C68.5135 55.4199 68.1042 55.3067 67.7427 55.097L67.4645 54.9874L67.2031 54.8863C67.0435 54.9057 66.8823 54.9057 66.7227 54.8863C66.5372 54.8863 66.3516 54.8189 66.1661 54.7936H66.0904C65.9478 54.8145 65.803 54.8145 65.6604 54.7936H65.3231C65.1972 54.8104 65.0696 54.8104 64.9437 54.7936L64.6235 54.7177C64.3708 54.7951 64.1005 54.7951 63.8477 54.7177V54.7177H63.772C63.6118 54.7177 63.4431 54.7177 63.2577 54.7177H63.0975H62.9374C62.7181 54.8056 62.4782 54.829 62.246 54.7852C62.1537 54.7978 62.0601 54.7978 61.9678 54.7852C61.8583 54.7926 61.7485 54.7926 61.6391 54.7852C61.4421 54.8845 61.2321 54.9555 61.0152 54.9959C60.7931 55.0448 60.5629 55.0448 60.3407 54.9959C60.2032 55.034 60.0618 55.0566 59.9192 55.0633H59.7591H59.599C59.3407 55.0807 59.0815 55.0807 58.8232 55.0633C58.6381 55.0477 58.452 55.0477 58.2669 55.0633H58.1068C57.863 55.1358 57.6106 55.1755 57.3563 55.1813C57.1108 55.1773 56.8693 55.1198 56.6483 55.0128H56.9686C56.7078 55.0371 56.4454 55.0371 56.1846 55.0128C55.9804 54.9787 55.78 54.925 55.5861 54.8526C55.3908 54.8801 55.1917 54.8628 55.0042 54.802C54.8951 54.7692 54.7882 54.7298 54.6839 54.684C54.6499 54.6622 54.6129 54.6451 54.5742 54.6334C54.2517 54.5961 53.9331 54.5313 53.6217 54.4396L53.4278 54.389C53.1579 54.3224 52.8954 54.2292 52.6438 54.1108C52.5174 54.0518 52.3823 53.9929 52.239 53.9423L52.0198 53.8832C51.6519 53.8174 51.3118 53.6444 51.0419 53.386C50.7736 53.0969 50.5798 52.7469 50.4771 52.3661C50.4771 52.3071 50.4349 52.248 50.4181 52.189C50.1947 51.9326 49.9553 51.6905 49.7014 51.4642C49.309 51.1119 48.9429 50.7316 48.6056 50.3263C48.4926 50.1712 48.3964 50.0046 48.3189 49.829L48.2514 49.7026C48.048 49.4662 47.87 49.2091 47.7204 48.9355L47.6613 48.8344C47.4074 48.3467 47.1931 47.8394 47.0206 47.3173C46.9663 47.1415 46.9297 46.9608 46.9111 46.7778C46.9111 46.7778 46.9111 46.7272 46.9111 46.7019C46.636 46.0495 46.5091 45.3442 46.54 44.6369C46.6077 44.1777 46.7592 43.7349 46.9868 43.3304C47.0126 43.2418 47.0495 43.1569 47.0965 43.0776V43.0776L47.0037 42.9596C46.9447 42.8921 46.8941 42.8163 46.8436 42.7657L46.6581 42.6055C46.2034 42.265 45.9006 41.7596 45.8151 41.198C45.7961 41.0002 45.8251 40.8006 45.8995 40.6164L46.1691 39.9673C46.2185 39.8521 46.2837 39.7443 46.363 39.647L46.321 39.5965C46.2459 39.6426 46.1669 39.6821 46.0849 39.7145C45.958 39.7643 45.8245 39.7955 45.6887 39.8072H45.5115C45.2923 39.8072 45.1575 39.8662 45.0311 39.8746C45.0356 39.9392 45.0356 40.0039 45.0311 40.0685C45.0746 40.1682 45.1057 40.273 45.1237 40.3803C45.1749 40.6079 45.1749 40.844 45.1237 41.0715C45.1595 41.1928 45.1849 41.3168 45.1997 41.4424C45.216 41.5598 45.216 41.679 45.1997 41.7964C45.3035 42.0422 45.3387 42.3115 45.3015 42.5757C45.2644 42.8399 45.1565 43.0891 44.9889 43.2967C44.859 43.4664 44.6877 43.5999 44.4914 43.6844C44.3916 43.728 44.287 43.7591 44.1796 43.7771H44.1374C43.9608 43.9536 43.7342 44.0713 43.4882 44.1143C43.3902 44.1245 43.2912 44.1245 43.1931 44.1143V44.1143C43.1931 44.2997 43.1931 44.4936 43.2353 44.7043C43.2477 44.8012 43.2675 44.897 43.2944 44.9909C43.3636 45.2906 43.4115 45.5948 43.4376 45.9012V46.1035C43.4797 46.5633 43.4797 47.026 43.4376 47.4858C43.4376 47.4858 43.4376 47.5786 43.4376 47.6291V47.7472C43.484 47.9468 43.484 48.1544 43.4376 48.354C43.4552 48.5754 43.4325 48.7982 43.3703 49.0115C43.4202 49.1809 43.4344 49.3588 43.4123 49.5341C43.3826 49.7242 43.3433 49.9126 43.2944 50.0987C43.2697 50.1732 43.25 50.2492 43.2353 50.3263C43.2353 50.478 43.1679 50.6045 43.1258 50.7393C43.0836 50.8742 43.0667 50.9416 43.0498 51.0343C43.033 51.127 42.9823 51.3378 42.957 51.481C42.8438 52.181 42.6338 52.8618 42.3332 53.504C42.2487 53.6909 42.1217 53.8553 41.9623 53.9844C41.5753 54.7252 41.0212 55.3659 40.3437 55.8556C39.9804 56.108 39.5606 56.2672 39.1213 56.3192C38.5614 56.367 38.0048 56.1947 37.57 55.8388C37.4187 55.7188 37.2776 55.5863 37.1485 55.4426V55.4426C37.0895 55.8051 36.9462 56.1338 36.1116 56.9851C36.051 57.1032 35.9805 57.216 35.9008 57.3222C35.8599 57.3864 35.8119 57.4458 35.7576 57.4992C35.679 57.6446 35.5763 57.7757 35.454 57.8869C35.2731 58.0408 35.0641 58.1581 34.8386 58.2325C34.7055 58.4075 34.5356 58.5514 34.3411 58.6539C34.0943 58.7838 33.8191 58.8504 33.5403 58.8478L33.3548 58.9489C33.0871 59.0986 32.8046 59.2201 32.5118 59.3114C32.166 59.3881 31.812 59.4221 31.4579 59.4125H31.1208H30.598C30.2905 59.5395 29.9752 59.6464 29.6539 59.7328V59.7328ZM30.497 52.8718C30.9188 53.4991 31.1394 54.2401 31.1293 54.9959C31.1188 55.3319 31.0384 55.662 30.8932 55.9652C30.8932 56.0158 30.8931 56.0663 30.8257 56.1253C30.8237 56.2112 30.8095 56.2964 30.7835 56.3782C31.0123 56.2883 31.2545 56.237 31.5001 56.2264C31.6375 56.2118 31.7759 56.2118 31.9132 56.2264L32.0734 56.1169C32.23 55.9409 32.4154 55.7927 32.6215 55.6786C32.8187 55.5728 33.0325 55.5016 33.2537 55.4678V55.4678L33.3211 55.392L33.4054 55.2824C33.4275 55.0247 33.5114 54.776 33.65 54.5576C33.8418 54.2457 34.101 53.9807 34.4086 53.7821C34.3891 53.6508 34.3891 53.5173 34.4086 53.386C34.4599 53.2189 34.5398 53.062 34.6447 52.9223C34.6853 52.8261 34.7332 52.7332 34.7879 52.6442C34.9882 52.2635 35.2761 51.9357 35.6279 51.6881C35.9797 51.4404 36.3854 51.2799 36.8114 51.2198C37.1783 51.1965 37.5453 51.2608 37.8825 51.4074C38.2196 51.5539 38.517 51.7786 38.7502 52.0627C38.8514 52.1807 38.9273 52.2818 38.9947 52.3745L39.0707 52.4673C39.0707 52.4673 39.0707 52.4672 39.0707 52.4082C39.1354 52.1956 39.2202 51.9896 39.3236 51.7929C39.5195 51.4745 39.6646 51.1276 39.7536 50.7646V50.5877C39.7585 50.5485 39.7585 50.5088 39.7536 50.4696C39.7193 50.266 39.7193 50.058 39.7536 49.8544C39.8295 49.4498 39.9221 49.0114 40.0064 48.708C40.0582 48.5249 40.1005 48.3392 40.1329 48.1517C40.1329 48.1517 40.1329 48.0759 40.0907 48.0337C39.9666 47.7698 39.9005 47.4824 39.8969 47.1908C39.9037 47.0081 39.9436 46.8282 40.0148 46.6598C39.975 46.4794 39.975 46.2924 40.0148 46.1119V46.0614C39.9504 45.8428 39.9333 45.6129 39.9644 45.3871V45.3364C39.8077 45.1441 39.6954 44.9197 39.6355 44.6791C39.6107 44.5171 39.6107 44.3522 39.6355 44.1901C39.6083 44.0938 39.5913 43.995 39.5848 43.8952C39.5741 43.7059 39.5883 43.516 39.627 43.3304C39.6012 43.2305 39.5703 43.1321 39.5344 43.0354C39.4407 42.7614 39.373 42.4792 39.3321 42.1925C39.2151 41.788 39.2089 41.3595 39.3142 40.9518C39.4195 40.544 39.6324 40.172 39.9306 39.8746C40.0596 39.7637 40.2097 39.6804 40.3721 39.6296C40.5345 39.5789 40.7055 39.5618 40.8747 39.5796C41.0235 39.526 41.1803 39.4975 41.3384 39.4954V39.428C41.2879 39.2425 41.2373 39.074 41.2036 38.897C41.1838 38.7544 41.1838 38.6097 41.2036 38.4671C41.1771 38.3879 41.16 38.3058 41.153 38.2226C41.1219 38.0555 41.1219 37.884 41.153 37.7169C41.1071 37.3454 41.1564 36.9683 41.2962 36.6211V36.5284C41.3379 36.3133 41.4251 36.1095 41.5517 35.9306C41.6783 35.7518 41.8414 35.6019 42.0304 35.4911C42.2195 35.3802 42.4299 35.3109 42.6479 35.2878C42.8658 35.2646 43.0862 35.2882 43.2944 35.3568C43.6217 35.4529 43.9278 35.6103 44.1965 35.8204L44.3482 35.694C44.5071 35.4713 44.7265 35.2987 44.9805 35.1967C44.9805 35.1461 44.9045 35.0955 44.8708 35.0365C44.7889 34.8895 44.732 34.7301 44.7022 34.5646C44.4552 34.3455 44.2677 34.0675 44.1572 33.7566C44.0466 33.4456 44.0166 33.1118 44.0699 32.7861C44.121 32.537 44.2442 32.3084 44.4241 32.1286C44.5084 31.8675 44.6774 31.642 44.9045 31.488C45.2605 31.2688 45.6761 31.1657 46.0933 31.193C46.0467 30.8552 46.1213 30.5117 46.3041 30.2237V30.2237C46.1439 30.1226 45.9753 30.0215 45.8235 29.9456C45.0689 29.5724 44.3542 29.1233 43.6906 28.6054C43.4774 28.4513 43.3179 28.2341 43.2347 27.9846C43.1515 27.7351 43.1487 27.4658 43.2269 27.2146C43.2875 27.0209 43.3849 26.8406 43.5136 26.6836H43.4123C43.216 26.5893 43.0343 26.4673 42.8728 26.3212H42.8138C42.721 26.3212 42.5947 26.2453 42.4682 26.2032L42.249 26.1358H42.072C41.7101 26.0854 41.3688 25.9367 41.0855 25.7059H40.9844C40.311 25.3081 39.8136 24.6694 39.5933 23.919V23.8263C39.5485 23.6359 39.5489 23.4377 39.5943 23.2474C39.6397 23.0572 39.7288 22.8802 39.8547 22.7305L40.9929 21.3566C41.0399 21.2516 41.0993 21.1526 41.1699 21.0616L41.2289 20.9941H41.0182C40.8478 21.0204 40.6742 21.0204 40.5038 20.9941C40.241 21.0605 39.9658 21.0605 39.703 20.9941L38.8599 21.1122L38.177 21.2049L37.334 21.3313C36.3054 21.4915 35.1589 21.677 33.9618 21.9383C33.6751 22.0057 33.3885 22.0899 33.1187 22.1826C32.7113 22.3101 32.2977 22.417 31.8795 22.5029C31.5675 22.5535 31.264 22.6041 30.9774 22.6378C30.6692 22.676 30.3578 22.6003 30.1016 22.4248C29.8454 22.2494 29.6622 21.9864 29.5864 21.6854C29.4347 21.0701 29.3167 20.4632 29.1986 19.89C29.0819 19.22 28.9213 18.5584 28.718 17.9093L28.5917 17.6817C28.3846 17.348 28.231 16.9839 28.1364 16.6028C28.0818 16.353 28.0994 16.0928 28.187 15.8526C28.187 15.8526 28.187 15.8527 28.187 15.7937C28.0879 15.4259 28.0592 15.0427 28.1026 14.6642C28.1112 14.5396 28.1282 14.4157 28.1533 14.2933C28.1899 14.104 28.1899 13.9095 28.1533 13.7202C28.1027 13.5095 28.0437 13.3072 27.9763 13.0881C27.9482 12.9906 27.9143 12.8949 27.875 12.8014C27.816 12.6413 27.7655 12.4896 27.7149 12.3126C27.6563 12.0599 27.6139 11.8037 27.5883 11.5455C27.5971 11.4333 27.5971 11.3206 27.5883 11.2084C27.5883 11.1578 27.5884 11.1325 27.4872 11.0314C27.3719 10.8793 27.2729 10.7155 27.1921 10.5426C27.1322 10.3969 27.0926 10.2438 27.0741 10.0874L26.9476 9.88509C26.8603 9.73523 26.8058 9.56868 26.7874 9.39626C26.6423 9.14078 26.5888 8.84342 26.6357 8.55338C26.6274 8.46648 26.6274 8.37894 26.6357 8.29204L26.526 8.23308H26.3068H26.1636C26.0356 8.22003 25.9089 8.19743 25.7843 8.16559H25.7421C25.6517 8.18648 25.564 8.21757 25.4807 8.25829L25.3205 8.31735C25.0342 8.46268 24.7123 8.52321 24.3927 8.49185C24.0731 8.4605 23.7691 8.33849 23.5165 8.14028V8.14028C23.3724 8.21325 23.2193 8.26714 23.0612 8.30048C22.9729 8.42144 22.8678 8.52928 22.7492 8.62077C22.5755 8.73756 22.3888 8.8337 22.1929 8.90732C22.1683 8.93071 22.1457 8.95605 22.1254 8.98315L21.9568 9.16866C21.9105 9.22339 21.8598 9.27408 21.8051 9.32032C21.7167 9.49523 21.5933 9.65018 21.4426 9.77551C21.3583 9.84294 21.274 9.89347 21.1981 9.94404C21.0459 10.1784 20.8207 10.3562 20.5574 10.4499L20.3213 10.5678C20.0949 10.704 19.8509 10.8089 19.5962 10.8796C19.1934 10.9704 18.7717 10.923 18.3992 10.7448L18.2306 10.6773C17.9322 10.5861 17.6483 10.4527 17.3875 10.2812V10.2812C17.3454 10.3739 17.3031 10.4919 17.2694 10.5846C17.2357 10.6774 17.1852 10.8207 17.1346 10.9387C17.1061 11.0141 17.0722 11.0873 17.0333 11.1578C16.8907 11.4278 16.7723 11.7099 16.6793 12.0007C16.6477 12.1447 16.6307 12.2916 16.6287 12.439C16.6166 12.7237 16.5743 13.0062 16.5023 13.2819C16.4156 13.5836 16.2789 13.8685 16.0977 14.1248C16.0592 14.172 16.0252 14.2228 15.9964 14.2764C15.9964 14.3692 15.9291 14.4787 15.8953 14.5967C15.8459 14.7658 15.7619 14.9228 15.6488 15.0577C15.5356 15.1926 15.3956 15.3026 15.2377 15.3807L14.8753 15.5492L14.6308 15.6503C14.4562 15.8956 14.2126 16.0834 13.931 16.1898C13.6168 16.2999 13.2859 16.3541 12.9531 16.35H12.8856C12.7945 16.4121 12.7072 16.4796 12.6242 16.5523L12.3208 16.7882L12.1354 16.9315C11.9492 17.1319 11.7137 17.2801 11.4525 17.3614C11.4571 17.4091 11.4571 17.4571 11.4525 17.5047C11.456 17.6469 11.4389 17.7889 11.4018 17.9262C11.3298 18.4439 11.3761 18.9712 11.5368 19.4686C11.5453 19.6943 11.5138 19.9197 11.444 20.1345V20.1345C11.5556 20.4165 11.6156 20.7162 11.621 21.0195C11.6162 21.2341 11.5705 21.4458 11.4862 21.6432C11.5225 21.8007 11.5395 21.9621 11.5368 22.1237C11.5284 22.3577 11.4915 22.5897 11.4271 22.8148C11.4224 22.8512 11.4224 22.888 11.4271 22.9244C11.4271 23.0845 11.4271 23.3627 11.4271 23.6156C11.4426 23.8485 11.4426 24.0822 11.4271 24.3151C11.565 24.8929 11.6441 25.4831 11.6632 26.0767V26.7173C11.6632 26.7173 11.6632 26.7174 11.6632 26.7848C11.6635 27.1205 11.5336 27.4432 11.301 27.6852C11.0683 27.9272 10.751 28.0697 10.4155 28.0828H10.2807H10.1204H9.97713L9.7748 28.4199C9.93955 28.4759 10.0979 28.5494 10.247 28.6391C10.557 28.8182 10.8408 29.0395 11.09 29.2966L11.3934 29.5662L11.5368 29.6758C11.6925 29.8002 11.8414 29.9324 11.9835 30.072C12.1858 30.2827 12.3799 30.4934 12.5569 30.7125C12.7523 30.9472 12.9351 31.192 13.1048 31.4458L13.1554 31.5301C13.4886 32.1291 13.7489 32.7658 13.931 33.4266C14.0001 33.7686 14.0453 34.1151 14.066 34.4634C14.0871 34.7777 14.0871 35.0931 14.066 35.4074C14.066 35.4074 14.066 35.4749 14.066 35.5086C14.0372 35.7066 13.9891 35.9014 13.9225 36.0901L13.8299 36.3514C13.8299 36.402 13.8299 36.461 13.7708 36.52C13.7118 36.579 13.7708 36.5874 13.7708 36.6127C13.7967 36.9746 13.705 37.3353 13.5094 37.641C13.7252 37.7811 13.9048 37.9703 14.0337 38.1929C14.1626 38.4155 14.2373 38.6653 14.2514 38.9222C14.2601 39.0231 14.2601 39.1246 14.2514 39.2256L14.4453 39.4027C14.7151 39.6555 14.9849 39.9084 15.1198 40.0601C15.2547 40.2118 15.3474 40.3382 15.4738 40.4983L15.7521 40.8608C15.8785 41.0041 16.0218 41.139 16.1567 41.2738C16.6512 41.6399 16.9836 42.1841 17.084 42.791C17.0963 43.0899 17.0136 43.3849 16.8479 43.6339L17.0502 43.8614C17.2815 43.9993 17.4825 44.1828 17.6405 44.4009V44.4009C17.8243 44.4729 17.9928 44.5787 18.1378 44.7127C18.3325 44.9072 18.513 45.1157 18.6774 45.3364C18.758 45.4534 18.8481 45.5634 18.9471 45.6652L19.0652 45.7158C19.2565 45.8053 19.4374 45.9156 19.6047 46.0445C19.7523 46.1644 19.8802 46.3066 19.984 46.466C20.1987 46.567 20.391 46.7103 20.549 46.8874V46.8874C20.8156 47.2312 21.013 47.6233 21.1306 48.0421C21.1559 48.173 21.1559 48.3074 21.1306 48.4383C21.1306 48.7754 21.0464 48.9946 21.0127 49.1547C21.1754 49.2682 21.3155 49.4112 21.4258 49.5761C21.5865 49.6263 21.7376 49.7032 21.8726 49.8037C22.0177 49.9188 22.153 50.0457 22.2773 50.183C22.4308 50.1991 22.5797 50.2449 22.7157 50.3179C22.8399 50.3858 22.9558 50.4679 23.0612 50.5623C23.1998 50.5981 23.333 50.6519 23.4574 50.7224C23.6076 50.7935 23.7539 50.8723 23.8958 50.9585C24.0626 51.0628 24.2407 51.1477 24.4269 51.2114H24.545C24.7385 51.231 24.9283 51.2763 25.1098 51.3462H25.2026L25.3881 51.4557C25.5143 51.4664 25.6387 51.4919 25.7589 51.5317C25.8567 51.5691 25.95 51.6171 26.0372 51.6749V51.6749C26.1601 51.6882 26.2798 51.7224 26.3912 51.776C26.5088 51.7781 26.6252 51.7981 26.7368 51.8351C26.8241 51.8677 26.9087 51.9072 26.9898 51.9531C27.1894 51.9553 27.3867 51.9953 27.5714 52.0711C27.7547 52.0151 27.9448 51.9838 28.1364 51.9783C28.469 51.9714 28.7993 52.0346 29.1058 52.1638L29.3081 52.2228C29.4281 52.2421 29.5466 52.2703 29.6624 52.3071C29.9868 52.3416 30.287 52.4947 30.5054 52.7369V52.7369L30.497 52.8718ZM63.7973 54.6756H63.7551H63.7973ZM52.8377 51.6412L53.0736 51.7086L53.6301 51.9362C53.7445 51.9926 53.8628 52.0405 53.9841 52.0795H54.0348C53.765 51.9446 53.4025 51.7929 53.1917 51.7086L52.7786 51.5317C52.806 51.5649 52.8288 51.6018 52.8462 51.6412H52.8377ZM50.6457 48.9946C50.6418 49.0141 50.6418 49.0341 50.6457 49.0536C50.699 48.7315 50.8559 48.4356 51.0925 48.2107L51.1601 48.1602C50.9802 47.8585 50.8251 47.5428 50.6963 47.2161C50.4925 46.9994 50.3449 46.7361 50.2664 46.4491C50.2069 46.2181 50.1869 45.9788 50.2073 45.7411V45.7411C50.0535 45.8346 49.8805 45.8922 49.7014 45.9096C49.619 46.0908 49.4913 46.2476 49.3305 46.3648C49.3548 46.4561 49.3717 46.549 49.3811 46.6429C49.3811 46.6429 49.3811 46.7188 49.3811 46.761C49.5098 47.1487 49.6736 47.5239 49.8702 47.8819L49.9122 47.9747C49.9797 48.0892 50.0588 48.1965 50.1482 48.2949L50.3001 48.4805C50.4124 48.6405 50.5057 48.813 50.5782 48.9946H50.6457ZM13.4673 36.9836C13.4709 36.9472 13.4709 36.9105 13.4673 36.874C13.4816 36.9066 13.4929 36.9405 13.501 36.9752L13.4673 36.9836ZM48.614 25.8491C48.7093 26.0112 48.7777 26.1877 48.8164 26.3717C48.8519 26.588 48.8432 26.8094 48.791 27.0223C48.7389 27.2352 48.6443 27.4354 48.5128 27.6108L48.4706 27.7035C48.7859 27.4843 49.1457 27.3375 49.5244 27.2736C49.4738 27.2062 49.4148 27.1472 49.3643 27.0882C49.2274 26.9448 49.1112 26.7831 49.0187 26.6077C48.9206 26.4204 48.8442 26.2224 48.791 26.0178L48.614 25.8491ZM47.105 24.6523H47.2313C47.3984 24.6946 47.5598 24.7569 47.7119 24.8377L47.5938 24.7028L47.282 24.45C46.9785 24.2393 46.6413 24.0286 46.2703 23.8094C46.2335 23.792 46.1994 23.7692 46.1691 23.7419C46.0432 23.7515 45.9169 23.7343 45.7982 23.6914C45.5768 23.6304 45.376 23.511 45.2165 23.3458C45.1849 23.3119 45.1478 23.2834 45.1068 23.2615L44.9551 23.1941C44.5359 23.0141 44.1444 22.7756 43.7918 22.4861C43.6854 22.3958 43.5892 22.294 43.5051 22.1826L43.3785 22.3428C43.3658 22.4231 43.3462 22.502 43.3197 22.5788C43.3397 22.7185 43.3397 22.8604 43.3197 23.0002V23.0002C43.5661 23.0833 43.8079 23.1791 44.0446 23.2869C44.1922 23.3606 44.3357 23.4421 44.4745 23.5312C44.7801 23.5502 45.0733 23.6587 45.3176 23.8431L45.5621 23.8937C45.7545 23.9025 45.9434 23.9484 46.1184 24.0286C46.2708 24.101 46.4105 24.1978 46.5317 24.3151C46.6109 24.3333 46.6872 24.3616 46.7592 24.3994C46.8969 24.462 47.0248 24.5443 47.1387 24.6439L47.105 24.6523ZM50.2326 23.0086L50.3001 23.0593L50.2326 23.0086ZM11.5453 17.2096L11.444 17.2687L11.5453 17.2096Z" fill="white"/>
</svg>
