<svg width="56" height="49" viewBox="0 0 56 49" fill="none" xmlns="http://www.w3.org/2000/svg">
<path d="M23.036 48.0081C22.6085 48.0258 22.1873 47.9001 21.8402 47.651C21.6146 47.4644 21.4703 47.198 21.4378 46.9078C21.2568 46.6447 21.1809 46.3239 21.2248 46.0081C21.2428 45.8833 21.276 45.7612 21.3238 45.6444C21.3026 45.5167 21.3046 45.3863 21.3297 45.2594C21.3934 45.013 21.5186 44.7865 21.6935 44.6009V44.6009C21.5384 44.6082 21.3832 44.5901 21.2339 44.5474C21.1097 44.5118 20.9914 44.4586 20.8826 44.3893L20.7692 44.3875L20.3965 44.322C20.2098 44.367 20.0146 44.364 19.8293 44.3133C19.4649 44.1926 19.1083 44.0497 18.7615 43.8852C18.3026 43.6629 17.8253 43.48 17.335 43.3387C17.1071 43.2763 16.8981 43.1591 16.7264 42.9974C16.698 42.9717 16.6669 42.949 16.6339 42.9296C16.5588 42.8922 16.4814 42.8599 16.4019 42.833C16.1717 42.7539 15.9497 42.6526 15.7392 42.5306C15.5797 42.4272 15.4335 42.3046 15.3042 42.1654V42.1654C15.1547 42.1123 15.0192 42.0262 14.9078 41.9137C14.7823 41.8668 14.6642 41.8024 14.557 41.7223C14.557 41.7223 13.1733 40.5723 13.1384 39.8015C13.129 39.6114 13.1759 39.4227 13.2735 39.259C13.2814 39.2132 13.2956 39.1688 13.3156 39.1269C13.1647 38.9776 12.9991 38.8438 12.8212 38.7275C12.4389 38.4527 12.1018 38.1204 11.822 37.7426C11.6713 37.561 11.514 37.3727 11.3565 37.2043C11.2206 37.0707 11.0777 36.9444 10.9284 36.8259C10.5493 36.5622 10.2484 36.2022 10.0569 35.7833C9.96948 35.4856 9.97435 35.1686 10.0709 34.8738L9.93897 34.7655C9.7452 34.6145 9.56481 34.4473 9.39953 34.2658C9.28228 34.1237 9.18988 33.9629 9.12644 33.7902L8.89042 33.521L8.80513 33.42C8.70668 33.3123 8.57552 33.1642 8.51013 33.0768C8.41085 32.9502 8.32997 32.8104 8.26967 32.6615C8.17749 32.4382 8.13991 32.1963 8.16027 31.9559L7.89055 31.706C7.79837 31.6249 7.70624 31.5439 7.62083 31.4562L7.4236 31.2607C7.26969 31.099 7.17425 30.8911 7.15228 30.6695C7.1303 30.4479 7.18308 30.2253 7.30227 30.037C7.38049 29.9242 7.47408 29.8228 7.58045 29.7358L7.83717 29.5273C7.87053 29.5278 7.91168 29.462 7.93888 29.4292L8.10639 28.5154C8.11174 28.2781 8.10197 28.0406 8.07723 27.8044C8.0169 27.4401 7.88639 27.0909 7.69271 26.776C7.57665 26.6107 7.45209 26.4514 7.3196 26.2988C7.22085 26.2109 7.09569 26.1028 6.96378 26.0012C6.87195 25.922 6.76972 25.8556 6.65985 25.8039C6.48785 25.8288 6.3124 25.8148 6.14661 25.7629C5.97549 25.7037 5.8147 25.6183 5.67002 25.5099C5.3431 25.5048 4.79437 25.6026 4.33288 25.6685L4.01193 25.7101C3.91676 25.7252 3.82068 25.7348 3.72441 25.739C3.64488 25.7514 3.56658 25.7702 3.49007 25.7951L3.25547 25.8579C3.06275 25.9108 2.85861 25.9051 2.66918 25.8414C2.47976 25.7778 2.31371 25.6591 2.19264 25.5008C2.07157 25.3425 2.00102 25.1517 1.9899 24.9531C1.97877 24.7544 2.0276 24.5571 2.13024 24.3864C2.18519 24.2992 2.24908 24.2178 2.32085 24.1436C2.37007 24.095 2.42201 24.0493 2.47643 24.0066C2.49724 23.9454 2.52277 23.8858 2.55265 23.8284L2.59378 23.7494C2.64496 23.6581 2.70204 23.5703 2.76466 23.4864C2.792 23.4507 2.81716 23.4135 2.83985 23.3747C2.87031 23.2912 2.89183 23.2047 2.90394 23.1167V23.1167C2.85038 23.0494 2.80647 22.975 2.77373 22.8956L2.63864 22.5682C2.42557 22.4612 2.25794 22.282 2.16593 22.0629L0.879769 18.9022C0.791939 18.691 0.781341 18.4559 0.849893 18.2378L0.714805 17.9103C0.657555 17.7779 0.629099 17.6349 0.631313 17.4907C0.633527 17.3465 0.666361 17.2045 0.727651 17.0738L0.761961 17.0146L0.420767 16.1993C0.344397 16.0093 0.326627 15.8009 0.369837 15.6009L0.299188 15.4271C0.241851 15.2876 0.216877 15.137 0.22612 14.9865C0.235364 14.8361 0.278625 14.6897 0.352614 14.5581C0.425567 14.4266 0.52792 14.3137 0.65193 14.228C0.775941 14.1424 0.918139 14.0864 1.06746 14.0644C1.85718 13.9344 2.66404 13.9468 3.44939 14.101C3.81909 14.1767 4.18151 14.2845 4.53231 14.4231C4.69259 14.484 4.84965 14.5529 5.00293 14.6296C5.13545 14.6913 5.26767 14.7664 5.39999 14.8415C5.65927 14.9907 5.9087 15.1565 6.14656 15.3376L6.45625 15.5947C6.44944 15.5359 6.43688 15.4779 6.41883 15.4215C6.37346 15.2568 6.35146 15.0866 6.35327 14.9158L6.3545 14.8362L6.35837 14.5839C6.36544 14.4571 6.38063 14.331 6.40409 14.2061C6.40226 14.1641 6.4029 14.1219 6.40603 14.08L6.46211 13.9083C6.48306 13.821 6.50897 13.7349 6.53955 13.6505C6.49768 13.3975 6.55157 13.138 6.69085 12.9223C6.75005 12.8247 6.82341 12.7364 6.90847 12.6601C7.02107 12.4249 7.1863 12.2184 7.39153 12.0566L7.55996 11.9529C7.73851 11.8737 7.92834 11.8228 8.12275 11.8022L8.19014 11.7634L8.29796 11.692C8.70324 11.4091 9.1595 11.2064 9.64182 11.0951C9.86979 11.0256 10.1179 10.9497 10.3128 10.8597C10.3339 10.8238 10.3523 10.7863 10.368 10.7477L10.409 10.6819C10.3732 10.4796 10.3764 10.2723 10.4184 10.0712C10.4766 9.87428 10.5649 9.68743 10.6804 9.51739L10.7284 9.43844C10.7994 9.16064 10.9187 8.77733 10.9815 8.59901C11.0379 8.38675 11.1219 8.18274 11.2311 7.99199C11.3464 7.79852 11.491 7.6238 11.6596 7.47397C11.7036 7.43588 11.7443 7.39435 11.7816 7.34971C11.8339 7.29461 11.8816 7.23537 11.9244 7.17261C12.1576 6.81891 12.4763 6.52922 12.8515 6.33023C13.1031 6.22681 13.3745 6.17955 13.6464 6.19175C13.9184 6.20396 14.1842 6.2753 14.4255 6.40085C14.5872 6.50661 14.7295 6.6391 14.8465 6.7925C14.9061 6.73961 14.9718 6.69384 15.0421 6.65609C15.095 6.5934 15.1565 6.53846 15.2248 6.49289C15.2893 6.44567 15.3594 6.40657 15.4335 6.37653C15.4773 6.32085 15.5249 6.26833 15.5761 6.21936C15.6602 6.14255 15.7557 6.07905 15.8592 6.03112C15.91 5.97551 15.9645 5.92313 16.0219 5.87426C16.1353 5.78346 16.2597 5.70729 16.3923 5.64755C16.4611 5.53359 16.5511 5.43362 16.6572 5.35284C16.7691 5.27367 16.8943 5.21488 17.0269 5.17922L17.0742 5.13342C17.1457 5.03849 17.2355 4.95862 17.3382 4.89844C17.3356 4.8697 17.3361 4.84077 17.3395 4.81213C17.3439 4.52667 17.3485 4.22797 17.3529 3.94251L17.3585 3.57735C17.3598 3.49104 17.361 3.41138 17.3624 3.32507L17.3646 3.17904C17.3646 3.17904 17.3653 3.13259 17.3656 3.11267L17.3699 2.83382L17.3078 2.09581C17.3078 2.09581 17.3083 2.06264 17.3086 2.04273C17.3003 1.91725 17.3159 1.7913 17.3544 1.67154V1.67154C17.3946 1.54911 17.4575 1.43522 17.5397 1.33573C17.6533 1.20144 17.7995 1.09852 17.9647 1.03683V1.03683C18.038 1.01017 18.1146 0.993428 18.1924 0.987152V0.987152C18.3323 0.97408 18.4732 0.992167 18.6052 1.04002V1.04002C18.706 1.07655 18.8001 1.12961 18.8832 1.197V1.197C19.0125 1.30308 19.1135 1.43916 19.1774 1.59327V1.59327C19.2094 1.67233 19.2306 1.75528 19.2404 1.83992V1.83992C19.2397 1.88639 19.2386 1.95944 19.2376 2.02583C19.2363 2.04572 19.236 2.06563 19.2367 2.08555L19.2356 2.152C19.3112 2.35174 19.324 2.56953 19.2726 2.77671V2.77671L19.3791 4.1064C19.5635 4.15539 19.7365 4.2392 19.8891 4.35327C19.9918 4.43813 20.0785 4.54072 20.1448 4.65605C20.2382 4.65186 20.3317 4.65329 20.4249 4.66036L20.5184 4.66179C20.6866 4.60773 20.8636 4.5856 21.04 4.59669L21.1667 4.59864C21.485 4.61566 21.7977 4.68791 22.091 4.81207L22.4557 4.96374L22.5225 4.96476C22.6855 5.05318 22.8344 5.16511 22.9645 5.29692C22.9784 5.31805 22.9963 5.3364 23.0171 5.3509C23.2151 5.65412 23.3973 5.96722 23.5632 6.28893C23.481 6.77006 23.5829 7.26436 23.8488 7.67446C23.8545 7.72969 23.8537 7.7854 23.8463 7.84043C23.9127 7.93142 23.9673 8.03039 24.0086 8.13505C24.0272 8.16831 24.0402 8.20443 24.047 8.24191C24.0976 8.42651 24.1261 8.61638 24.1319 8.80762L24.1306 8.88728C24.1614 9.06039 24.1926 9.19371 24.2238 9.33363C24.2551 9.47356 24.2999 9.59373 24.3381 9.71384C24.3763 9.83396 24.4403 10.0076 24.4845 10.1743C24.5867 10.5506 24.6634 10.9334 24.7139 11.3199C24.7357 11.6362 24.7308 11.9538 24.6993 12.2693C24.6683 12.5449 24.664 12.8228 24.6866 13.0991C24.7465 13.5383 24.9295 14.2251 25.1186 14.9451C25.1883 15.1919 25.2511 15.4452 25.3141 15.6918L25.3597 15.7656C25.9082 15.681 26.5104 15.5708 27.0658 15.4731L28.1834 15.2777C28.367 15.2474 28.5545 15.2503 28.7371 15.2862C29.1562 15.2016 29.5808 15.1459 30.0077 15.1198L30.2021 15.063C30.3723 15.0098 30.5472 14.9724 30.7244 14.9515C30.9201 14.9422 31.1161 14.9452 31.3114 14.9605L31.525 14.9638L32.1187 14.9729C32.2163 14.9614 32.315 14.9629 32.4122 14.9774C32.4797 14.9559 32.5493 14.9414 32.6198 14.9341C32.8518 14.7785 33.1326 14.712 33.4101 14.747C33.5929 14.7777 33.7669 14.8477 33.9197 14.9521C34.0725 15.0566 34.2007 15.1929 34.2951 15.3516L34.6756 14.9126C34.8041 14.7621 34.9747 14.653 35.1657 14.5991C35.3566 14.5453 35.5592 14.5493 35.7479 14.6104C35.9295 14.6785 36.0876 14.7969 36.2035 14.9517C36.3194 15.1065 36.3882 15.2911 36.4019 15.4836C36.4224 15.658 36.4197 15.8344 36.3938 16.0081C36.373 16.1193 36.3401 16.2279 36.2955 16.3319C36.5674 16.3858 36.8141 16.5269 36.9977 16.7336C37.1814 16.9403 37.2919 17.2012 37.3124 17.4763C37.3951 17.5003 37.4733 17.5374 37.5441 17.5862C37.6601 17.6554 37.7628 17.7447 37.8472 17.8498C38.0585 17.9991 38.3022 18.2021 38.559 18.4251L38.783 18.6145C38.9702 18.6631 39.1412 18.7596 39.2793 18.8944C39.386 19 39.4805 19.1173 39.5608 19.244L39.5602 19.2838C39.7419 19.428 39.8933 19.6064 40.0059 19.8086C40.0053 19.8485 40.058 19.8957 40.0906 19.9494C40.2256 20.03 40.3441 20.1354 40.4395 20.2601C40.6609 20.5615 40.8421 20.8902 40.9784 21.2379L41.3311 22.1664C41.4361 22.312 41.5192 22.472 41.5775 22.6416C41.6686 22.9152 41.7358 23.1962 41.7782 23.4813C41.7782 23.4813 41.7772 23.5477 41.7768 23.5743C41.7883 23.8608 41.7682 24.1477 41.7169 24.4299C41.6778 24.738 41.5542 25.0296 41.3598 25.2725C41.1654 25.5155 40.9076 25.7006 40.6145 25.8075L40.6131 25.9004C40.6115 26.1443 40.5202 26.3792 40.3561 26.5604V26.5604L40.3555 26.6003L40.5075 26.6956C40.8702 26.9801 42.0196 28.1797 41.7436 29.2047C41.696 29.3748 41.6038 29.5291 41.4765 29.6521C41.2608 29.9136 40.9791 30.1133 40.6601 30.2305C40.4439 30.2988 40.2129 30.3067 39.9924 30.2535C39.8508 30.2676 39.7077 30.2517 39.5726 30.2072L39.4532 30.1656C39.505 30.2757 39.5414 30.3925 39.5613 30.5125C39.6675 30.5736 39.7612 30.6539 39.8379 30.7492C39.9061 30.8318 39.961 30.9245 40.0005 31.0239C40.106 31.1534 40.2022 31.2902 40.288 31.4334L40.3796 31.5476C40.7526 32.0248 41.4986 32.9925 41.3588 33.8337L41.4056 33.8344C41.6311 33.9051 41.8241 34.053 41.9505 34.2518C42.077 34.4507 42.1287 34.6876 42.0963 34.9207V34.9207C42.137 35.0868 42.1344 35.2605 42.0886 35.4252L42.0053 35.6298L41.9226 36.2261C41.8977 36.4218 41.8145 36.6055 41.6838 36.7538C41.5531 36.9021 41.3809 37.0081 41.1892 37.0582L41.1883 37.1179C41.2628 37.2083 41.3221 37.3102 41.3639 37.4195L41.4025 37.5064C41.4682 37.696 41.555 37.8777 41.6612 38.0482C41.7185 38.1273 41.7872 38.1978 41.8649 38.2572C42.011 38.3732 42.1372 38.5119 42.2389 38.668C42.2972 38.7652 42.3448 38.8683 42.3809 38.9756C42.5422 39.0901 42.6731 39.242 42.7622 39.418C42.8514 39.5941 42.8961 39.789 42.8926 39.9861C42.8904 40.0979 42.8754 40.2091 42.8476 40.3175C43.2408 40.477 43.5911 40.7257 43.8707 41.0437C43.9594 41.1558 44.0317 41.2799 44.0854 41.4122L44.3722 41.4166C44.488 41.4388 44.6014 41.4717 44.7111 41.5148L44.8372 41.5631L44.9105 41.5643C45.2704 41.611 45.5991 41.7917 45.8305 42.0699L46.204 42.0756L46.3309 42.0775C46.4977 42.0801 46.6578 42.0826 46.8179 42.085C46.9318 42.0916 47.0452 42.1044 47.1577 42.1234L47.251 42.1248L47.4656 42.0617C47.7091 41.997 47.9575 41.9519 48.2083 41.9271C48.3302 41.9109 48.4539 41.9128 48.5753 41.9327L48.8688 41.9372C48.9842 41.9478 49.1002 41.9496 49.2158 41.9425C49.3374 41.9213 49.4619 41.9232 49.5828 41.9482C49.8232 41.9005 50.0712 41.9043 50.3101 41.9594V41.9594L50.37 41.9603C50.7237 41.8252 51.1101 41.7988 51.4791 41.8843L51.6659 41.8872C52.0662 41.8651 52.4676 41.8981 52.8588 41.9852L53.225 42.0439C53.4241 42.0221 53.6256 42.0387 53.8183 42.0929C53.9834 42.1392 54.1352 42.2234 54.2616 42.3388L54.3616 42.3403C54.7769 42.496 55.1306 42.7809 55.3702 43.1526C55.4626 43.2904 55.5197 43.4486 55.5366 43.6134C55.5541 43.7764 55.5344 43.9412 55.4789 44.0956C55.4234 44.2499 55.3335 44.3899 55.216 44.5048C55.1461 44.5715 55.0691 44.6305 54.9863 44.6806L54.9457 44.7264C54.7461 44.9445 54.4685 45.0761 54.1725 45.0931C53.8419 45.0834 53.5194 44.9893 53.2358 44.8197L53.0169 44.7301L52.8113 44.6472C52.6847 44.6606 52.5572 44.6586 52.4311 44.6414C52.2843 44.6391 52.1382 44.5838 51.9918 44.5616L51.9318 44.5607C51.8187 44.5754 51.7041 44.5736 51.5915 44.5554L51.3246 44.5513C51.2247 44.5631 51.1238 44.5615 51.0244 44.5467L50.7718 44.483C50.5709 44.541 50.357 44.5377 50.1579 44.4736V44.4736L50.098 44.4727C49.9712 44.4707 49.8377 44.4687 49.6909 44.4664L49.5642 44.4645L49.4374 44.4625C49.2628 44.5291 49.0727 44.5447 48.8895 44.5073C48.8163 44.5161 48.7422 44.515 48.6693 44.5039C48.5825 44.5085 48.4957 44.5071 48.4091 44.4999C48.2521 44.5758 48.085 44.6291 47.9129 44.6583C47.7365 44.6941 47.5543 44.6913 47.3791 44.6501C47.2697 44.6785 47.1576 44.6945 47.0447 44.6981L46.9179 44.6961L46.7912 44.6942C46.5866 44.7047 46.3814 44.7016 46.1773 44.6847C46.0309 44.6702 45.8837 44.668 45.737 44.678L45.6103 44.676C45.4165 44.7302 45.2162 44.7584 45.0149 44.7599C44.8207 44.7538 44.6302 44.7055 44.4566 44.6185L44.7101 44.6224C44.5034 44.6384 44.2957 44.6352 44.0897 44.6129C43.9285 44.5836 43.7705 44.5389 43.6179 44.4794C43.4631 44.4987 43.3057 44.4827 43.158 44.4326C43.0721 44.4054 42.988 44.373 42.906 44.3357C42.8793 44.3181 42.8503 44.3042 42.8198 44.2945C42.565 44.2612 42.3136 44.2063 42.0683 44.1303L41.9155 44.0881C41.7027 44.0324 41.496 43.9557 41.2984 43.8595C41.199 43.8115 41.0928 43.7634 40.98 43.7218L40.8073 43.6726C40.5169 43.6163 40.2498 43.4759 40.0394 43.2691C39.8305 43.0382 39.6814 42.7601 39.6048 42.459C39.6055 42.4125 39.5728 42.3655 39.5601 42.3188C39.3865 42.1141 39.1999 41.9205 39.0017 41.7392C38.6955 41.4569 38.4103 41.153 38.1483 40.8296C38.0607 40.7061 37.9866 40.5737 37.9274 40.4345L37.8755 40.3341C37.7174 40.1454 37.5797 39.9408 37.4645 39.7235L37.419 39.6431C37.224 39.2559 37.0605 38.8537 36.9303 38.4404C36.8894 38.3013 36.8626 38.1585 36.8501 38.0142C36.8501 38.0142 36.8508 37.9743 36.8511 37.9544C36.6412 37.4372 36.5494 36.8801 36.5823 36.3234C36.6415 35.9626 36.7667 35.6156 36.9518 35.2998C36.9732 35.2304 37.0035 35.164 37.0417 35.102V35.102L36.9696 35.008C36.9237 34.9541 36.8847 34.8938 36.8452 34.8533L36.7004 34.7249C36.3446 34.4512 36.1112 34.0494 36.0502 33.6061C36.0376 33.45 36.063 33.2932 36.1241 33.149L36.3453 32.6411C36.3858 32.5509 36.4388 32.4668 36.5026 32.3911L36.47 32.3508C36.41 32.3863 36.347 32.4164 36.2817 32.4409C36.1807 32.4786 36.0747 32.5016 35.9671 32.5091L35.8268 32.507C35.6533 32.5043 35.546 32.5491 35.4458 32.5542C35.4486 32.6051 35.4478 32.6561 35.4435 32.7069C35.4767 32.786 35.5 32.8689 35.513 32.9536C35.5507 33.1335 35.5479 33.3195 35.5046 33.4981C35.5315 33.594 35.5501 33.692 35.5603 33.791C35.5718 33.8837 35.5704 33.9776 35.556 34.0699C35.6352 34.2647 35.6597 34.4773 35.6272 34.6849C35.5946 34.8926 35.5061 35.0875 35.371 35.249C35.2662 35.3811 35.129 35.4842 34.9726 35.5484C34.8931 35.5814 34.8099 35.6047 34.7247 35.6176L34.6913 35.6171C34.5495 35.7539 34.3686 35.8439 34.1735 35.8747C34.0958 35.8816 34.0174 35.8804 33.9399 35.8711V35.8711C33.9377 36.0172 33.9354 36.1699 33.9662 36.3363C33.9748 36.4128 33.9893 36.4885 34.0095 36.5628C34.0607 36.7997 34.0948 37.0398 34.1118 37.2815L34.1094 37.4408C34.1371 37.8035 34.1315 38.1679 34.0927 38.5296C34.0927 38.5296 34.0915 38.6026 34.0909 38.6425L34.0895 38.7354C34.1238 38.8932 34.1213 39.0567 34.0822 39.2134C34.0934 39.388 34.0728 39.5632 34.0209 39.7304C34.0584 39.8645 34.0675 40.0048 34.0478 40.1425C34.022 40.2919 33.9886 40.4398 33.9477 40.5858C33.9273 40.6442 33.9107 40.7038 33.8982 40.7644C33.8963 40.8839 33.8415 40.9826 33.8065 41.0883C33.7715 41.194 33.7573 41.2469 33.7429 41.3197C33.7284 41.3926 33.6857 41.5579 33.664 41.6705C33.5659 42.2204 33.3915 42.7541 33.1458 43.2562C33.0767 43.4023 32.9742 43.5304 32.8465 43.63C32.5312 44.2089 32.0849 44.7067 31.5429 45.0842C31.2523 45.2786 30.9182 45.3988 30.5699 45.4344C30.1262 45.4653 29.6878 45.3229 29.348 45.0372C29.2296 44.9409 29.1196 44.8348 29.0192 44.7201V44.7201C28.9681 45.0048 28.8507 45.262 28.1799 45.9223C28.1305 46.0146 28.0733 46.1026 28.009 46.1853C27.9758 46.2354 27.9371 46.2816 27.8935 46.323C27.8295 46.4366 27.7467 46.5385 27.6485 46.6247C27.5035 46.7436 27.3367 46.8336 27.1573 46.8894C27.0499 47.0256 26.9137 47.1369 26.7585 47.2153C26.5616 47.3145 26.3431 47.3636 26.1224 47.3582L25.9744 47.4356C25.7607 47.5502 25.5356 47.6425 25.3028 47.7109C25.0282 47.7671 24.7477 47.7896 24.4676 47.7777L24.2008 47.7736L23.7871 47.7673C23.5421 47.8635 23.2913 47.9439 23.036 48.0081V48.0081ZM23.7862 42.6144C24.1125 43.1136 24.2781 43.6999 24.2609 44.2951C24.2485 44.5596 24.1809 44.8186 24.0623 45.0557C24.0617 45.0955 24.0611 45.1353 24.007 45.1809C24.0044 45.2485 23.9921 45.3155 23.9705 45.3796C24.1527 45.3116 24.345 45.2741 24.5395 45.2688C24.6484 45.2589 24.758 45.2606 24.8665 45.2738L24.9945 45.1895C25.1206 45.0528 25.2691 44.9383 25.4336 44.8509C25.5909 44.77 25.761 44.7165 25.9365 44.6926V44.6926L25.9907 44.6337L26.0588 44.5484C26.0794 44.3457 26.1488 44.1509 26.2611 43.9805C26.4167 43.7372 26.625 43.5316 26.8709 43.3789C26.857 43.2752 26.8587 43.1701 26.8757 43.0669C26.9183 42.936 26.9834 42.8134 27.0681 42.7046C27.1014 42.6293 27.1404 42.5567 27.1849 42.4873C27.3479 42.1899 27.5798 41.9352 27.8612 41.7444C28.1426 41.5536 28.4656 41.4322 28.8034 41.39C29.0941 41.3761 29.3838 41.4312 29.6489 41.5508C29.9139 41.6703 30.1465 41.8508 30.3277 42.0775C30.4063 42.1716 30.4652 42.2522 30.5174 42.3261L30.5764 42.4C30.5764 42.4 30.5764 42.3999 30.5771 42.3535C30.6309 42.1868 30.7005 42.0256 30.7847 41.8719C30.9436 41.6236 31.0626 41.3521 31.1375 41.0673L31.1396 40.9279C31.1439 40.8971 31.1444 40.8659 31.141 40.8349C31.1164 40.6741 31.1189 40.5103 31.1485 40.3503C31.2134 40.0326 31.292 39.6884 31.3624 39.4505C31.4056 39.3069 31.4414 39.1612 31.4693 39.0139C31.4693 39.0139 31.4701 38.9541 31.4373 38.9204C31.3422 38.7111 31.2934 38.4839 31.2941 38.2542C31.3017 38.1104 31.3354 37.9692 31.3938 37.8374C31.3645 37.6948 31.3668 37.5475 31.4004 37.4059L31.401 37.3661C31.3527 37.1931 31.342 37.0118 31.3693 36.8344L31.3699 36.7945C31.2483 36.6411 31.1621 36.463 31.1176 36.2727C31.0999 36.1448 31.1019 36.0149 31.1235 35.8876C31.1032 35.8115 31.0909 35.7334 31.087 35.6547C31.0808 35.5055 31.0943 35.3561 31.1272 35.2104C31.108 35.1314 31.0847 35.0535 31.0575 34.9769C30.9866 34.76 30.9364 34.5369 30.9075 34.3106C30.8199 33.9905 30.8201 33.653 30.9084 33.3331C30.9966 33.0133 31.1697 32.7228 31.4093 32.4922C31.5127 32.4064 31.6325 32.3426 31.7616 32.3046C31.8907 32.2667 32.0263 32.2553 32.16 32.2714C32.2784 32.2309 32.4028 32.2104 32.528 32.2106L32.5288 32.1575C32.491 32.0109 32.4531 31.8775 32.4286 31.7377C32.4146 31.6251 32.4163 31.5112 32.4338 31.3991C32.4137 31.3364 32.4012 31.2715 32.3966 31.2059C32.374 31.0739 32.3761 30.9389 32.4028 30.8076C32.3709 30.5145 32.4145 30.2181 32.5294 29.9463L32.5305 29.8733C32.5661 29.7044 32.6375 29.5449 32.7399 29.4056C32.8422 29.2662 32.9731 29.1502 33.1241 29.0652C33.275 28.9802 33.4425 28.9281 33.6152 28.9126C33.788 28.897 33.9621 28.9182 34.126 28.9748C34.3839 29.0545 34.6243 29.1821 34.8343 29.3509L34.9559 29.2532C35.0844 29.0797 35.2601 28.9464 35.4623 28.8692C35.4629 28.8294 35.4034 28.7886 35.3774 28.7417C35.3144 28.6249 35.2713 28.4987 35.2497 28.3679C35.057 28.1924 34.9119 27.9712 34.8282 27.7249C34.7445 27.4786 34.7248 27.2154 34.7709 26.9595C34.8143 26.7639 34.9146 26.5853 35.0591 26.4459C35.129 26.2413 35.2655 26.0658 35.4471 25.9472C35.7315 25.7789 36.0616 25.7027 36.3915 25.7293C36.3586 25.4627 36.4219 25.1931 36.57 24.9684V24.9684C36.4445 24.8868 36.3122 24.8051 36.193 24.7436C35.6004 24.4404 35.0402 24.078 34.5212 23.662C34.3544 23.5381 34.2308 23.3651 34.1679 23.1676C34.1051 22.97 34.1062 22.7579 34.1711 22.561C34.2214 22.4091 34.3007 22.2683 34.4044 22.1462L34.3243 22.145C34.17 22.0684 34.0278 21.9701 33.9017 21.853L33.855 21.8523C33.7816 21.8512 33.6825 21.7899 33.5829 21.7552L33.4102 21.6994L33.2701 21.6973C32.9843 21.6532 32.716 21.5319 32.4946 21.3467L32.4146 21.3455C31.8865 21.024 31.5006 20.5149 31.3353 19.9212L31.3364 19.8481C31.3033 19.6977 31.306 19.5415 31.3442 19.3922C31.3824 19.243 31.4551 19.1046 31.5565 18.9883L32.4739 17.92C32.5124 17.8378 32.5606 17.7606 32.6176 17.6898L32.6651 17.6374L32.4983 17.6348C32.3632 17.6534 32.2258 17.6513 32.0913 17.6285C31.8825 17.6776 31.6647 17.6743 31.4575 17.6188L30.7889 17.7015L30.2473 17.7662L29.5786 17.8556C28.7626 17.9692 27.853 18.1014 26.9024 18.2926C26.6748 18.3423 26.4469 18.4051 26.2323 18.4749C25.9083 18.5703 25.5797 18.6495 25.2477 18.7121C25.0002 18.7481 24.7593 18.7843 24.5321 18.8074C24.2878 18.8337 24.0422 18.7702 23.8416 18.629C23.6409 18.4877 23.4991 18.2783 23.4428 18.0403C23.3302 17.5538 23.2441 17.0744 23.1576 16.6215C23.0733 16.0924 22.9542 15.5693 22.8013 15.0556L22.704 14.8748C22.5442 14.6095 22.427 14.3209 22.3567 14.0195C22.3165 13.8221 22.3336 13.6174 22.4059 13.4293C22.4059 13.4293 22.4059 13.4293 22.4066 13.3828C22.3326 13.092 22.3145 12.7898 22.3535 12.4923C22.3618 12.3942 22.3767 12.2968 22.398 12.2007C22.4293 12.0521 22.4317 11.8989 22.405 11.7493C22.3675 11.5828 22.3232 11.4227 22.2725 11.2493C22.2515 11.1722 22.2258 11.0964 22.1958 11.0223C22.1511 10.8954 22.1129 10.7754 22.075 10.6353C22.0317 10.4356 22.0013 10.2333 21.9841 10.0296C21.9924 9.94137 21.9938 9.85257 21.9882 9.76408C21.9888 9.72425 21.9892 9.70436 21.9104 9.62347C21.8209 9.5023 21.7445 9.37206 21.6827 9.23487C21.6371 9.11944 21.6076 8.99832 21.5949 8.87492L21.4971 8.71406C21.4299 8.59497 21.3888 8.46312 21.3763 8.3271C21.2646 8.12412 21.2258 7.88926 21.2665 7.66139C21.261 7.59284 21.262 7.52389 21.2696 7.45555L21.1835 7.40778L21.0101 7.40512L20.8967 7.40338C20.7956 7.39154 20.6955 7.3722 20.5973 7.3456L20.5639 7.34509C20.4921 7.36045 20.4223 7.38387 20.3559 7.41493L20.2285 7.4595C20.0001 7.57049 19.7446 7.61425 19.4921 7.58566C19.2395 7.55708 19.0004 7.4573 18.8029 7.29811V7.29811C18.6879 7.35383 18.5661 7.39442 18.4406 7.41875C18.3693 7.51295 18.2848 7.59661 18.1898 7.66723C18.0509 7.7571 17.9021 7.83056 17.7461 7.88616C17.7264 7.90428 17.7082 7.92397 17.6917 7.94507L17.5561 8.08913C17.5188 8.13167 17.4781 8.17098 17.4342 8.20674C17.3621 8.34342 17.2626 8.46396 17.1418 8.56084C17.0743 8.61293 17.0069 8.6517 16.9463 8.69061C16.823 8.87332 16.6426 9.01062 16.4331 9.08121L16.2448 9.17121C16.064 9.27575 15.8696 9.35541 15.6672 9.40803C15.3473 9.47464 15.0142 9.43216 14.7215 9.28732L14.5889 9.23211C14.3538 9.15659 14.1308 9.0481 13.9265 8.90986V8.90986C13.892 8.98238 13.8571 9.07479 13.8293 9.14741C13.8015 9.22002 13.7598 9.3323 13.7183 9.42462C13.6949 9.48364 13.6672 9.54092 13.6356 9.596C13.5194 9.80693 13.4223 10.0276 13.3452 10.2556C13.3184 10.3686 13.3032 10.4841 13.2998 10.6002C13.2868 10.8242 13.2499 11.0463 13.1896 11.2625C13.1174 11.499 13.0057 11.7218 12.8592 11.9215C12.8281 11.9582 12.8006 11.9977 12.7772 12.0397C12.7761 12.1127 12.7215 12.1982 12.6933 12.2907C12.6522 12.4233 12.5838 12.5459 12.4926 12.6508C12.4014 12.7557 12.2893 12.8406 12.1634 12.9002L11.8745 13.0285L11.6798 13.1052C11.5387 13.2962 11.3436 13.4412 11.1195 13.5216C10.8695 13.6044 10.607 13.6432 10.3436 13.6359L10.2902 13.635C10.2173 13.6828 10.1474 13.735 10.0809 13.7912L9.83794 13.9733L9.68944 14.0839C9.53965 14.2395 9.3515 14.3534 9.14378 14.4142C9.14686 14.4518 9.14628 14.4896 9.14204 14.5271C9.14313 14.6391 9.12789 14.7507 9.09688 14.8584C9.03362 15.2653 9.06385 15.6812 9.18507 16.0749C9.18904 16.2528 9.1614 16.43 9.10356 16.5983V16.5983C9.18848 16.8217 9.23229 17.0585 9.23294 17.2974C9.22651 17.4664 9.18778 17.6326 9.1187 17.7871C9.14547 17.9116 9.157 18.0389 9.15296 18.1661C9.14347 18.3503 9.11146 18.5326 9.05778 18.7091C9.05356 18.7377 9.05312 18.7667 9.05645 18.7954C9.05452 18.9216 9.05115 19.1407 9.04809 19.3398C9.0575 19.5235 9.05468 19.7075 9.03963 19.8908C9.14177 20.3475 9.19724 20.8133 9.20516 21.2812L9.19741 21.7857C9.19741 21.7857 9.19741 21.7857 9.19659 21.8389C9.19273 22.1032 9.08606 22.3558 8.89901 22.5436C8.71197 22.7314 8.45912 22.8398 8.19346 22.846L8.08676 22.8444L7.95987 22.8424L7.8465 22.8407L7.68231 23.1038C7.81201 23.1499 7.93642 23.2097 8.05332 23.2821C8.29656 23.4269 8.51843 23.6047 8.71256 23.8102L8.9494 24.0263L9.06161 24.1143C9.18325 24.2142 9.29953 24.3201 9.41028 24.4318C9.56786 24.6002 9.71888 24.7685 9.85634 24.9433C10.0081 25.1305 10.1499 25.3255 10.2811 25.5275L10.3201 25.5945C10.5765 26.0703 10.7749 26.575 10.911 27.0976C10.9616 27.3678 10.9931 27.6413 11.0053 27.9159C11.0182 28.1637 11.0143 28.4121 10.9939 28.6594C10.9939 28.6594 10.993 28.7125 10.9926 28.7391C10.9675 28.8947 10.927 29.0475 10.8721 29.1954L10.7956 29.4001C10.795 29.4399 10.7942 29.4863 10.7468 29.5321C10.6994 29.5778 10.746 29.5852 10.7457 29.6051C10.7618 29.8905 10.6848 30.1734 10.5264 30.4118C10.6954 30.5248 10.8353 30.676 10.9346 30.8529C11.0339 31.0298 11.09 31.2275 11.0981 31.4299C11.1038 31.5096 11.1025 31.5895 11.0944 31.6689L11.2457 31.8107C11.4562 32.0132 11.6667 32.2156 11.7716 32.3368C11.8765 32.4579 11.9483 32.5586 12.0464 32.6862L12.2623 32.9751C12.3606 33.0895 12.4724 33.1975 12.5775 33.3053C12.9644 33.5997 13.2209 34.0323 13.293 34.5116C13.2991 34.7471 13.2301 34.9785 13.096 35.1726L13.2533 35.3542C13.4347 35.4656 13.5916 35.6126 13.714 35.7863V35.7863C13.8585 35.8453 13.9907 35.9306 14.1037 36.0379C14.2555 36.1935 14.3958 36.3599 14.5233 36.5358C14.5856 36.6288 14.6556 36.7166 14.7327 36.7979L14.8256 36.8393C14.9759 36.9121 15.1177 37.0011 15.2485 37.1047C15.3639 37.201 15.4634 37.3145 15.5436 37.4413C15.7124 37.5234 15.8628 37.6387 15.9857 37.7801V37.7801C16.1925 38.0541 16.344 38.3653 16.432 38.6966C16.4504 38.8 16.4488 38.9059 16.4272 39.0086C16.4232 39.2742 16.3539 39.4458 16.3252 39.5715C16.4527 39.6629 16.5618 39.7772 16.6471 39.9084C16.7736 39.9499 16.8923 40.0123 16.9979 40.0931C17.1114 40.1855 17.2169 40.2871 17.3136 40.3967C17.4349 40.4113 17.5522 40.4492 17.6589 40.5083C17.7564 40.5633 17.8471 40.6294 17.9294 40.7051C18.0387 40.7349 18.1434 40.7789 18.2411 40.836C18.359 40.8937 18.4739 40.9576 18.5852 41.0272C18.7159 41.1114 18.8558 41.1804 19.0024 41.2329L19.0959 41.2343C19.2487 41.2521 19.3984 41.2901 19.5412 41.3473L19.6147 41.3484L19.7601 41.437C19.8598 41.4469 19.958 41.4685 20.0527 41.5013C20.1296 41.532 20.2029 41.5709 20.2712 41.6175V41.6175C20.3683 41.6295 20.4626 41.6579 20.5501 41.7015C20.6431 41.7045 20.7351 41.7217 20.8229 41.7522C20.8916 41.7789 20.9581 41.811 21.0217 41.8482C21.1796 41.8523 21.3353 41.8863 21.4806 41.9482C21.6263 41.9063 21.7771 41.884 21.9288 41.882C22.1921 41.8806 22.4527 41.9344 22.6938 42.0399L22.8532 42.0888C22.9479 42.1055 23.0413 42.1291 23.1325 42.1595C23.3888 42.1906 23.6246 42.3148 23.7945 42.5083V42.5083L23.7862 42.6144ZM50.1185 44.4399L50.0851 44.4393L50.1185 44.4399ZM41.4817 41.9167L41.6676 41.9727L42.1053 42.1587C42.1951 42.2045 42.2881 42.2436 42.3837 42.2758L42.4238 42.2764C42.2119 42.1669 41.9268 42.0431 41.7611 41.9741L41.4363 41.8297C41.4575 41.8563 41.4751 41.8856 41.4884 41.9168L41.4817 41.9167ZM39.7789 39.8055C39.7757 39.8208 39.7754 39.8366 39.7782 39.852C39.8243 39.599 39.952 39.3678 40.1421 39.1935L40.1961 39.1546C40.0574 38.9148 39.9385 38.6643 39.8405 38.4054C39.6818 38.2322 39.5682 38.023 39.5095 37.796C39.4653 37.6134 39.4523 37.4246 39.4713 37.2377V37.2377C39.3485 37.3095 39.2109 37.3527 39.0689 37.3643C39.0016 37.506 38.8986 37.6279 38.7699 37.7183C38.788 37.7904 38.8003 37.8639 38.8066 37.938C38.8066 37.938 38.8057 37.9977 38.8052 38.0309C38.9023 38.3378 39.0274 38.6353 39.1786 38.9198L39.2107 38.9933C39.2628 39.0843 39.3241 39.1698 39.3937 39.2484L39.5117 39.3964C39.5986 39.5238 39.6703 39.6608 39.7255 39.8047L39.7789 39.8055ZM10.5009 29.8936C10.5043 29.8649 10.5047 29.836 10.5023 29.8073C10.5132 29.8331 10.5218 29.8599 10.5278 29.8873L10.5009 29.8936ZM38.451 21.551C38.5245 21.6798 38.5764 21.8197 38.6048 21.9651C38.6303 22.1359 38.6208 22.3101 38.5769 22.4772C38.5331 22.6442 38.4558 22.8007 38.3496 22.9373L38.3151 23.0098C38.5672 22.841 38.8538 22.7298 39.1543 22.684C39.115 22.6303 39.0691 22.5832 39.0298 22.5361C38.9232 22.4214 38.8332 22.2926 38.7621 22.1534C38.6868 22.0046 38.6287 21.8478 38.5891 21.686L38.451 21.551ZM37.2712 20.59L37.3712 20.5916C37.5029 20.6269 37.6299 20.6779 37.7493 20.7434L37.6575 20.6358L37.4137 20.4329C37.1761 20.2632 36.9118 20.0931 36.6209 19.916C36.592 19.9018 36.5652 19.8834 36.5416 19.8616C36.4419 19.8676 36.3421 19.8525 36.2487 19.8173C36.0742 19.7666 35.9167 19.6701 35.7925 19.538C35.7679 19.5109 35.7388 19.4881 35.7067 19.4703L35.5875 19.4154C35.2579 19.2685 34.9509 19.0759 34.6754 18.8436C34.5923 18.7712 34.5174 18.6899 34.4522 18.6011L34.35 18.7257C34.339 18.7888 34.3226 18.8507 34.3006 18.9108C34.3148 19.0212 34.3131 19.1329 34.2955 19.2428V19.2428C34.4895 19.3113 34.6798 19.3896 34.8657 19.4774C34.9817 19.5372 35.0943 19.6032 35.2031 19.6751C35.4446 19.6937 35.6754 19.7827 35.8665 19.9309L36.0594 19.9738C36.2115 19.9831 36.3604 20.0215 36.498 20.0868C36.6177 20.1457 36.7272 20.2236 36.8216 20.3175C36.8841 20.3328 36.9441 20.356 37.0006 20.3866C37.1088 20.4376 37.2091 20.504 37.298 20.5838L37.2712 20.59ZM39.7664 19.3334L39.8192 19.3741L39.7664 19.3334ZM9.21908 14.2958L9.13822 14.3411L9.21908 14.2958Z" fill="white"/>
</svg>
