<svg width="881" height="861" viewBox="0 0 881 861" fill="none" xmlns="http://www.w3.org/2000/svg">
<path d="M878.483 28.5783C878.456 27.4779 878.004 26.4306 877.223 25.6555C876.441 24.8805 875.39 24.4377 874.289 24.4199C762.89 22.6653 648.351 22.0513 537.584 21.3845C480.121 21.0511 421.254 20.6827 362.703 20.1914C340.596 19.9926 318.57 19.7819 296.626 19.5597C265.815 19.2614 233.601 18.8578 200.878 18.349C200.295 18.3345 199.716 18.4426 199.178 18.6663C198.64 18.89 198.155 19.2243 197.754 19.6475C197.352 20.0656 197.038 20.5611 196.833 21.104C196.628 21.647 196.536 22.2259 196.561 22.8057C209.58 287.907 216.388 556.956 216.774 822.478C216.77 823.037 216.876 823.593 217.088 824.111C217.299 824.629 217.611 825.1 218.006 825.497C218.401 825.893 218.871 826.208 219.389 826.421C219.906 826.635 220.461 826.744 221.02 826.741V826.741L316.874 825.794L362.668 825.355L860.656 820.548C861.742 820.536 862.783 820.109 863.566 819.356C864.348 818.603 864.814 817.58 864.867 816.495C878.887 521.952 883.361 264.22 878.483 28.5783ZM312.785 817.337L225.266 818.197C224.828 555.412 218.108 289.275 205.282 26.8764C235.11 27.315 264.464 27.6835 292.695 27.9818C317.55 290.324 324.263 554.07 312.785 817.337V817.337ZM856.586 812.073L362.704 816.828L321.313 817.249C332.737 554.058 326.037 290.393 301.258 28.1221C321.646 28.3326 342.116 28.5257 362.668 28.7011C421.202 29.1924 480.051 29.5258 537.496 29.8942C646.877 30.5434 759.943 31.2102 870.026 32.8595C874.746 266.132 870.342 521.109 856.586 812.073Z" fill="#60C9EB" stroke="#60C9EB" stroke-width="0.270018"/>
<path d="M832.446 123.362L359.654 123.362C359.542 123.365 359.431 123.345 359.326 123.303C359.222 123.262 359.127 123.2 359.047 123.122C358.967 123.044 358.904 122.95 358.86 122.847C358.817 122.743 358.794 122.632 358.794 122.52C358.794 122.292 358.885 122.073 359.046 121.912C359.207 121.751 359.426 121.66 359.654 121.66L832.446 121.66C832.674 121.66 832.893 121.751 833.054 121.912C833.215 122.073 833.306 122.292 833.306 122.52C833.306 122.632 833.284 122.743 833.24 122.847C833.197 122.95 833.133 123.044 833.053 123.122C832.973 123.2 832.878 123.262 832.774 123.303C832.67 123.345 832.558 123.365 832.446 123.362V123.362Z" fill="#60C9EB" stroke="#60C9EB" stroke-width="5.40036"/>
<path d="M832.451 211.826L359.659 211.826C359.547 211.829 359.436 211.809 359.331 211.767C359.227 211.726 359.132 211.664 359.052 211.586C358.972 211.508 358.908 211.414 358.865 211.311C358.822 211.207 358.799 211.096 358.799 210.984C358.799 210.871 358.822 210.759 358.865 210.655C358.908 210.551 358.971 210.456 359.051 210.376C359.131 210.296 359.226 210.233 359.33 210.19C359.434 210.147 359.546 210.124 359.659 210.124L832.451 210.124C832.564 210.124 832.676 210.147 832.78 210.19C832.884 210.233 832.979 210.296 833.059 210.376C833.139 210.456 833.202 210.551 833.245 210.655C833.289 210.759 833.311 210.871 833.311 210.984C833.311 211.096 833.289 211.207 833.245 211.311C833.202 211.414 833.138 211.508 833.058 211.586C832.978 211.664 832.883 211.726 832.779 211.767C832.675 211.809 832.563 211.829 832.451 211.826V211.826Z" fill="#60C9EB" stroke="#60C9EB" stroke-width="5.40036"/>
<path d="M832.451 300.293L359.659 300.293C359.547 300.296 359.435 300.276 359.331 300.235C359.227 300.193 359.132 300.132 359.052 300.053C358.972 299.975 358.908 299.881 358.865 299.778C358.821 299.674 358.799 299.563 358.799 299.451C358.799 299.223 358.889 299.005 359.051 298.843C359.212 298.682 359.431 298.592 359.659 298.592L832.451 298.592C832.679 298.592 832.897 298.682 833.059 298.843C833.22 299.005 833.31 299.223 833.31 299.451C833.31 299.563 833.288 299.674 833.245 299.778C833.201 299.881 833.138 299.975 833.058 300.053C832.977 300.132 832.883 300.193 832.778 300.235C832.674 300.276 832.563 300.296 832.451 300.293V300.293Z" fill="#60C9EB" stroke="#60C9EB" stroke-width="5.40036"/>
<path d="M832.445 388.762L359.653 388.762C359.541 388.764 359.43 388.744 359.326 388.703C359.221 388.662 359.126 388.6 359.046 388.522C358.966 388.443 358.903 388.349 358.859 388.246C358.816 388.143 358.793 388.032 358.793 387.92C358.793 387.692 358.884 387.473 359.045 387.312C359.207 387.151 359.425 387.06 359.653 387.06L832.445 387.06C832.673 387.06 832.892 387.151 833.053 387.312C833.214 387.473 833.305 387.692 833.305 387.92C833.305 388.032 833.283 388.143 833.239 388.246C833.196 388.349 833.132 388.443 833.052 388.522C832.972 388.6 832.877 388.662 832.773 388.703C832.669 388.744 832.557 388.764 832.445 388.762V388.762Z" fill="#60C9EB" stroke="#60C9EB" stroke-width="5.40036"/>
<path d="M832.451 477.227L359.659 477.227C359.547 477.23 359.435 477.21 359.331 477.168C359.227 477.127 359.132 477.065 359.052 476.987C358.972 476.908 358.908 476.815 358.865 476.711C358.821 476.608 358.799 476.497 358.799 476.385C358.799 476.157 358.889 475.938 359.051 475.777C359.212 475.616 359.431 475.525 359.659 475.525L832.451 475.525C832.679 475.525 832.897 475.616 833.059 475.777C833.22 475.938 833.31 476.157 833.31 476.385C833.31 476.497 833.288 476.608 833.245 476.711C833.201 476.815 833.138 476.908 833.058 476.987C832.977 477.065 832.883 477.127 832.778 477.168C832.674 477.21 832.563 477.23 832.451 477.227V477.227Z" fill="#60C9EB" stroke="#60C9EB" stroke-width="5.40036"/>
<path d="M832.443 565.694H359.651C359.539 565.697 359.428 565.677 359.324 565.635C359.219 565.594 359.124 565.533 359.044 565.454C358.964 565.376 358.901 565.282 358.857 565.179C358.814 565.075 358.791 564.964 358.792 564.852C358.792 564.624 358.882 564.406 359.043 564.244C359.205 564.083 359.423 563.992 359.651 563.992H832.443C832.671 563.992 832.89 564.083 833.051 564.244C833.212 564.406 833.303 564.624 833.303 564.852C833.303 564.964 833.281 565.075 833.237 565.179C833.194 565.282 833.13 565.376 833.05 565.454C832.97 565.533 832.875 565.594 832.771 565.635C832.667 565.677 832.555 565.697 832.443 565.694V565.694Z" fill="#60C9EB" stroke="#60C9EB" stroke-width="5.40036"/>
<path d="M832.45 654.157H359.658C359.546 654.159 359.435 654.139 359.33 654.098C359.226 654.057 359.131 653.995 359.051 653.917C358.971 653.838 358.908 653.745 358.864 653.641C358.821 653.538 358.798 653.427 358.798 653.315C358.798 653.087 358.889 652.868 359.05 652.707C359.211 652.546 359.43 652.455 359.658 652.455H832.45C832.678 652.455 832.897 652.546 833.058 652.707C833.219 652.868 833.31 653.087 833.31 653.315C833.31 653.427 833.288 653.538 833.244 653.641C833.201 653.745 833.137 653.838 833.057 653.917C832.977 653.995 832.882 654.057 832.778 654.098C832.674 654.139 832.562 654.159 832.45 654.157V654.157Z" fill="#60C9EB" stroke="#60C9EB" stroke-width="5.40036"/>
<path d="M832.447 742.625H359.655C359.543 742.627 359.431 742.607 359.327 742.566C359.223 742.524 359.128 742.463 359.048 742.384C358.968 742.306 358.904 742.212 358.861 742.109C358.817 742.005 358.795 741.894 358.795 741.782C358.795 741.554 358.886 741.336 359.047 741.175C359.208 741.013 359.427 740.923 359.655 740.923H832.447C832.675 740.923 832.893 741.013 833.055 741.175C833.216 741.336 833.306 741.554 833.306 741.782C833.306 741.894 833.284 742.005 833.241 742.109C833.197 742.212 833.134 742.306 833.054 742.384C832.974 742.463 832.879 742.524 832.774 742.566C832.67 742.607 832.559 742.627 832.447 742.625Z" fill="#60C9EB" stroke="#60C9EB" stroke-width="5.40036"/>
<path d="M222.894 830.244L205.595 26.2699L298.086 28.1258L322.17 414.461L321.31 834.119L222.894 830.244Z" fill="#60C9EB"/>
</svg>
