<svg width="881" height="861" viewBox="0 0 881 861" fill="none" xmlns="http://www.w3.org/2000/svg">
<path d="M864.025 822.351L320.243 827.615L224.389 828.545C224.027 561.847 217.289 295.225 204.177 28.6794C236.005 29.1473 267.927 29.5509 299.942 29.8901C491.947 31.9254 686.706 31.8377 877.588 34.7328C882.993 296.307 876.43 560.987 864.025 822.351Z" fill="white"/>
<path d="M863.496 750.334L840.163 753.829L841.084 759.978L864.417 756.484L863.496 750.334Z" fill="#FFE600"/>
<path d="M860.563 585.188L837.23 588.682L838.152 594.832L861.484 591.338L860.563 585.188Z" fill="#60C9EB"/>
<path d="M582.817 614.104L573.522 635.789L579.237 638.239L588.532 616.554L582.817 614.104Z" fill="#FFE600"/>
<path d="M567.24 609.28L561.583 611.863L583.589 660.066L589.246 657.483L567.24 609.28Z" fill="#FFE600"/>
<path d="M554.13 627.382L552.365 633.344L575.536 640.204L577.301 634.242L554.13 627.382Z" fill="#FFE600"/>
<path d="M627.18 661.062L603.847 664.557L604.768 670.707L628.101 667.212L627.18 661.062Z" fill="#FFE600"/>
<path d="M616.671 644.89L587.463 689.209L592.664 692.637L621.872 648.317L616.671 644.89Z" fill="#FFE600"/>
<path d="M601.066 643.403L595.065 645.036L601.409 668.354L607.409 666.721L601.066 643.403Z" fill="#FFE600"/>
<path d="M743.201 618.032L733.906 639.717L739.622 642.167L748.917 620.482L743.201 618.032Z" fill="#E9AD62"/>
<path d="M727.62 613.21L721.963 615.793L743.969 663.996L749.626 661.413L727.62 613.21Z" fill="#E9AD62"/>
<path d="M714.498 631.302L712.733 637.265L735.904 644.125L737.67 638.162L714.498 631.302Z" fill="#E9AD62"/>
<path d="M787.552 664.977L764.219 668.471L765.14 674.621L788.473 671.127L787.552 664.977Z" fill="#E9AD62"/>
<path d="M776.361 648.03L747.152 692.35L752.354 695.777L781.562 651.458L776.361 648.03Z" fill="#E9AD62"/>
<path d="M761.463 647.32L755.463 648.952L761.806 672.27L767.807 670.638L761.463 647.32Z" fill="#E9AD62"/>
<path d="M423.696 611.918L414.401 633.603L420.116 636.053L429.411 614.368L423.696 611.918Z" fill="#60C9EB"/>
<path d="M408.119 607.092L402.462 609.674L424.468 657.877L430.125 655.294L408.119 607.092Z" fill="#60C9EB"/>
<path d="M395.018 625.202L393.253 631.165L416.424 638.025L418.189 632.062L395.018 625.202Z" fill="#60C9EB"/>
<path d="M468.06 658.884L444.727 662.379L445.648 668.529L468.981 665.034L468.06 658.884Z" fill="#60C9EB"/>
<path d="M458.238 643.475L429.03 687.794L434.231 691.222L463.439 646.903L458.238 643.475Z" fill="#60C9EB"/>
<path d="M441.959 641.195L435.959 642.827L442.302 666.145L448.303 664.513L441.959 641.195Z" fill="#60C9EB"/>
<path d="M366.624 690.06L357.329 711.745L363.045 714.195L372.34 692.51L366.624 690.06Z" fill="#E96262"/>
<path d="M351.05 685.225L345.394 687.807L367.4 736.01L373.057 733.427L351.05 685.225Z" fill="#E96262"/>
<path d="M337.941 703.288L336.175 709.251L359.346 716.111L361.112 710.148L337.941 703.288Z" fill="#E96262"/>
<path d="M410.992 737.016L387.659 740.511L388.58 746.661L411.913 743.166L410.992 737.016Z" fill="#E96262"/>
<path d="M401.797 721.535L372.589 765.855L377.79 769.282L406.998 724.963L401.797 721.535Z" fill="#E96262"/>
<path d="M384.887 719.328L378.886 720.96L385.229 744.278L391.23 742.645L384.887 719.328Z" fill="#E96262"/>
<path d="M515.718 695.567L506.423 717.252L512.139 719.702L521.434 698.017L515.718 695.567Z" fill="#E9AD62"/>
<path d="M500.137 690.74L494.48 693.323L516.486 741.526L522.143 738.943L500.137 690.74Z" fill="#E9AD62"/>
<path d="M487.039 708.852L485.274 714.814L508.445 721.674L510.211 715.712L487.039 708.852Z" fill="#E9AD62"/>
<path d="M560.085 742.525L536.752 746.019L537.673 752.169L561.006 748.674L560.085 742.525Z" fill="#E9AD62"/>
<path d="M550.256 726.311L521.048 770.63L526.249 774.058L555.457 729.739L550.256 726.311Z" fill="#E9AD62"/>
<path d="M533.983 724.844L527.982 726.477L534.326 749.794L540.326 748.162L533.983 724.844Z" fill="#E9AD62"/>
<path d="M666.412 699.545L657.117 721.23L662.833 723.68L672.128 701.995L666.412 699.545Z" fill="#60C9EB"/>
<path d="M650.836 694.709L645.179 697.292L667.185 745.495L672.842 742.912L650.836 694.709Z" fill="#60C9EB"/>
<path d="M637.723 712.812L635.958 718.774L659.129 725.634L660.894 719.672L637.723 712.812Z" fill="#60C9EB"/>
<path d="M710.775 746.497L687.443 749.992L688.364 756.142L711.697 752.647L710.775 746.497Z" fill="#60C9EB"/>
<path d="M700.303 729.548L671.095 773.867L676.296 777.295L705.504 732.976L700.303 729.548Z" fill="#60C9EB"/>
<path d="M684.672 728.83L678.671 730.462L685.014 753.78L691.015 752.148L684.672 728.83Z" fill="#60C9EB"/>
<path d="M819.145 703.394L809.85 725.079L815.565 727.529L824.86 705.843L819.145 703.394Z" fill="#FFE600"/>
<path d="M803.555 698.567L797.898 701.15L819.904 749.353L825.561 746.77L803.555 698.567Z" fill="#FFE600"/>
<path d="M790.432 716.652L788.667 722.615L811.838 729.475L813.603 723.512L790.432 716.652Z" fill="#FFE600"/>
<path d="M852.376 732.648L823.168 776.968L828.369 780.395L857.577 736.076L852.376 732.648Z" fill="#FFE600"/>
<path d="M837.399 732.678L831.399 734.31L837.742 757.628L843.743 755.996L837.399 732.678Z" fill="#FFE600"/>
<path d="M579.728 449.044L570.433 470.729L576.148 473.179L585.443 451.494L579.728 449.044Z" fill="#FFE600"/>
<path d="M564.146 444.222L558.489 446.805L580.495 495.007L586.152 492.425L564.146 444.222Z" fill="#FFE600"/>
<path d="M551.02 462.281L549.255 468.243L572.426 475.103L574.192 469.141L551.02 462.281Z" fill="#FFE600"/>
<path d="M624.248 495.892L600.915 499.387L601.836 505.537L625.169 502.042L624.248 495.892Z" fill="#FFE600"/>
<path d="M612.804 480.566L583.596 524.885L588.797 528.313L618.005 483.994L612.804 480.566Z" fill="#FFE600"/>
<path d="M597.963 478.354L591.963 479.986L598.306 503.304L604.307 501.672L597.963 478.354Z" fill="#FFE600"/>
<path d="M740.107 452.967L730.812 474.652L736.528 477.102L745.823 455.417L740.107 452.967Z" fill="#E96262"/>
<path d="M724.537 448.134L718.88 450.717L740.886 498.919L746.543 496.337L724.537 448.134Z" fill="#E96262"/>
<path d="M711.398 466.257L709.633 472.22L732.804 479.08L734.569 473.117L711.398 466.257Z" fill="#E96262"/>
<path d="M784.461 499.922L761.128 503.416L762.049 509.566L785.382 506.072L784.461 499.922Z" fill="#E96262"/>
<path d="M772.496 483.709L743.288 528.028L748.489 531.455L777.697 487.136L772.496 483.709Z" fill="#E96262"/>
<path d="M758.366 482.27L752.366 483.903L758.709 507.221L764.71 505.588L758.366 482.27Z" fill="#E96262"/>
<path d="M420.6 446.856L411.305 468.541L417.021 470.991L426.316 449.306L420.6 446.856Z" fill="#E9AD62"/>
<path d="M405.038 442.024L399.381 444.607L421.387 492.809L427.044 490.227L405.038 442.024Z" fill="#E9AD62"/>
<path d="M391.908 460.102L390.143 466.065L413.314 472.925L415.079 466.962L391.908 460.102Z" fill="#E9AD62"/>
<path d="M465.697 495.576L442.364 499.07L443.285 505.22L466.618 501.726L465.697 495.576Z" fill="#E9AD62"/>
<path d="M454.37 479.153L425.162 523.472L430.363 526.9L459.571 482.581L454.37 479.153Z" fill="#E9AD62"/>
<path d="M439.442 478.026L433.442 479.658L439.785 502.976L445.785 501.344L439.442 478.026Z" fill="#E9AD62"/>
<path d="M363.529 525L354.234 546.685L359.949 549.135L369.244 527.45L363.529 525Z" fill="#FFE600"/>
<path d="M347.962 520.154L342.305 522.737L364.311 570.94L369.968 568.357L347.962 520.154Z" fill="#FFE600"/>
<path d="M334.858 538.286L333.093 544.249L356.264 551.109L358.029 545.146L334.858 538.286Z" fill="#FFE600"/>
<path d="M408.469 573.841L385.136 577.336L386.057 583.486L409.39 579.991L408.469 573.841Z" fill="#FFE600"/>
<path d="M397.922 557.218L368.714 601.537L373.915 604.965L403.123 560.646L397.922 557.218Z" fill="#FFE600"/>
<path d="M382.37 556.147L376.369 557.779L382.712 581.097L388.713 579.465L382.37 556.147Z" fill="#FFE600"/>
<path d="M512.623 530.506L503.328 552.191L509.044 554.641L518.339 532.956L512.623 530.506Z" fill="#E96262"/>
<path d="M497.043 525.682L491.386 528.265L513.392 576.467L519.049 573.885L497.043 525.682Z" fill="#E96262"/>
<path d="M483.932 543.738L482.166 549.701L505.337 556.561L507.103 550.598L483.932 543.738Z" fill="#E96262"/>
<path d="M557.141 577.348L533.808 580.843L534.729 586.992L558.062 583.498L557.141 577.348Z" fill="#E96262"/>
<path d="M546.389 561.995L517.181 606.314L522.382 609.742L551.59 565.423L546.389 561.995Z" fill="#E96262"/>
<path d="M530.879 559.795L524.878 561.427L531.222 584.745L537.222 583.113L530.879 559.795Z" fill="#E96262"/>
<path d="M663.327 534.479L654.032 556.164L659.748 558.614L669.043 536.929L663.327 534.479Z" fill="#60C9EB"/>
<path d="M647.741 529.654L642.084 532.236L664.09 580.439L669.747 577.857L647.741 529.654Z" fill="#60C9EB"/>
<path d="M634.613 547.71L632.848 553.673L656.019 560.533L657.784 554.57L634.613 547.71Z" fill="#60C9EB"/>
<path d="M707.836 581.333L684.503 584.828L685.424 590.978L708.757 587.483L707.836 581.333Z" fill="#60C9EB"/>
<path d="M696.436 565.232L667.228 609.551L672.429 612.979L701.637 568.66L696.436 565.232Z" fill="#60C9EB"/>
<path d="M681.563 563.792L675.562 565.424L681.905 588.742L687.906 587.11L681.563 563.792Z" fill="#60C9EB"/>
<path d="M816.05 538.326L806.755 560.011L812.47 562.461L821.765 540.776L816.05 538.326Z" fill="#60C9EB"/>
<path d="M800.467 533.497L794.81 536.079L816.816 584.282L822.473 581.699L800.467 533.497Z" fill="#60C9EB"/>
<path d="M787.329 551.553L785.564 557.515L808.735 564.375L810.501 558.413L787.329 551.553Z" fill="#60C9EB"/>
<path d="M848.508 568.327L819.3 612.646L824.501 616.074L853.709 571.755L848.508 568.327Z" fill="#60C9EB"/>
<path d="M834.303 567.624L828.302 569.256L834.646 592.574L840.646 590.942L834.303 567.624Z" fill="#60C9EB"/>
<path d="M360.025 363.822L350.73 385.508L356.445 387.957L365.74 366.272L360.025 363.822Z" fill="#E96262"/>
<path d="M344.455 359.004L338.798 361.587L360.805 409.789L366.461 407.207L344.455 359.004Z" fill="#E96262"/>
<path d="M331.338 377.07L329.573 383.033L352.744 389.893L354.509 383.93L331.338 377.07Z" fill="#E96262"/>
<path d="M404.966 412.674L381.633 416.169L382.554 422.319L405.887 418.824L404.966 412.674Z" fill="#E96262"/>
<path d="M393.671 396.775L364.463 441.094L369.664 444.522L398.872 400.203L393.671 396.775Z" fill="#E96262"/>
<path d="M378.882 394.976L372.882 396.608L379.225 419.926L385.225 418.294L378.882 394.976Z" fill="#E96262"/>
<path d="M509.12 369.328L499.825 391.013L505.541 393.463L514.836 371.778L509.12 369.328Z" fill="#E9AD62"/>
<path d="M493.542 364.514L487.885 367.097L509.891 415.299L515.548 412.717L493.542 364.514Z" fill="#E9AD62"/>
<path d="M480.43 382.634L478.665 388.597L501.836 395.457L503.601 389.494L480.43 382.634Z" fill="#E9AD62"/>
<path d="M553.478 416.296L530.145 419.791L531.066 425.941L554.399 422.446L553.478 416.296Z" fill="#E9AD62"/>
<path d="M542.126 401.548L512.918 445.867L518.12 449.295L547.328 404.976L542.126 401.548Z" fill="#E9AD62"/>
<path d="M527.378 398.628L521.378 400.26L527.721 423.578L533.721 421.946L527.378 398.628Z" fill="#E9AD62"/>
<path d="M659.826 373.311L650.531 394.996L656.247 397.446L665.542 375.761L659.826 373.311Z" fill="#60C9EB"/>
<path d="M644.247 368.481L638.591 371.064L660.597 419.267L666.254 416.684L644.247 368.481Z" fill="#60C9EB"/>
<path d="M631.113 386.6L629.348 392.563L652.519 399.423L654.285 393.46L631.113 386.6Z" fill="#60C9EB"/>
<path d="M704.173 420.269L680.841 423.764L681.762 429.914L705.095 426.419L704.173 420.269Z" fill="#60C9EB"/>
<path d="M692.177 404.787L662.969 449.106L668.17 452.534L697.378 408.215L692.177 404.787Z" fill="#60C9EB"/>
<path d="M678.096 402.603L672.095 404.235L678.439 427.553L684.439 425.921L678.096 402.603Z" fill="#60C9EB"/>
<path d="M812.553 377.153L803.258 398.838L808.973 401.288L818.268 379.603L812.553 377.153Z" fill="#FFE600"/>
<path d="M796.96 372.334L791.303 374.917L813.309 423.119L818.966 420.537L796.96 372.334Z" fill="#FFE600"/>
<path d="M783.824 390.449L782.058 396.411L805.23 403.271L806.995 397.309L783.824 390.449Z" fill="#FFE600"/>
<path d="M856.889 424.113L833.556 427.608L834.478 433.758L857.81 430.263L856.889 424.113Z" fill="#FFE600"/>
<path d="M844.247 407.887L815.038 452.207L820.24 455.634L849.448 411.315L844.247 407.887Z" fill="#FFE600"/>
<path d="M830.803 406.469L824.803 408.101L831.146 431.419L837.146 429.787L830.803 406.469Z" fill="#FFE600"/>
<path d="M857.048 423.974L833.715 427.468L834.636 433.618L857.969 430.124L857.048 423.974Z" fill="#FFE600"/>
<path d="M854.115 258.828L830.782 262.323L831.704 268.472L855.036 264.978L854.115 258.828Z" fill="#60C9EB"/>
<path d="M576.369 287.744L567.074 309.429L572.789 311.879L582.084 290.194L576.369 287.744Z" fill="#FFE600"/>
<path d="M560.792 282.92L555.135 285.503L577.141 333.705L582.798 331.123L560.792 282.92Z" fill="#FFE600"/>
<path d="M547.682 301.022L545.917 306.985L569.088 313.845L570.853 307.882L547.682 301.022Z" fill="#FFE600"/>
<path d="M620.732 334.703L597.399 338.197L598.32 344.347L621.653 340.853L620.732 334.703Z" fill="#FFE600"/>
<path d="M610.223 318.53L581.015 362.849L586.216 366.277L615.424 321.957L610.223 318.53Z" fill="#FFE600"/>
<path d="M594.618 317.043L588.618 318.675L594.961 341.993L600.962 340.361L594.618 317.043Z" fill="#FFE600"/>
<path d="M736.754 291.672L727.459 313.358L733.174 315.807L742.469 294.122L736.754 291.672Z" fill="#E9AD62"/>
<path d="M721.172 286.85L715.515 289.433L737.521 337.635L743.178 335.053L721.172 286.85Z" fill="#E9AD62"/>
<path d="M708.051 304.942L706.285 310.905L729.457 317.765L731.222 311.802L708.051 304.942Z" fill="#E9AD62"/>
<path d="M781.104 338.616L757.772 342.111L758.693 348.261L782.026 344.766L781.104 338.616Z" fill="#E9AD62"/>
<path d="M769.913 321.67L740.705 365.99L745.906 369.417L775.114 325.098L769.913 321.67Z" fill="#E9AD62"/>
<path d="M755.015 320.959L749.015 322.591L755.358 345.909L761.358 344.277L755.015 320.959Z" fill="#E9AD62"/>
<path d="M417.248 285.558L407.953 307.243L413.669 309.693L422.964 288.008L417.248 285.558Z" fill="#60C9EB"/>
<path d="M401.671 280.731L396.014 283.313L418.02 331.516L423.677 328.933L401.671 280.731Z" fill="#60C9EB"/>
<path d="M388.57 298.842L386.805 304.805L409.976 311.665L411.741 305.702L388.57 298.842Z" fill="#60C9EB"/>
<path d="M461.612 332.524L438.279 336.018L439.2 342.168L462.533 338.673L461.612 332.524Z" fill="#60C9EB"/>
<path d="M451.791 317.115L422.583 361.434L427.784 364.862L456.992 320.542L451.791 317.115Z" fill="#60C9EB"/>
<path d="M435.511 314.835L429.511 316.467L435.854 339.785L441.855 338.153L435.511 314.835Z" fill="#60C9EB"/>
<path d="M360.176 363.7L350.881 385.385L356.597 387.835L365.892 366.15L360.176 363.7Z" fill="#E96262"/>
<path d="M344.602 358.865L338.945 361.447L360.951 409.65L366.608 407.067L344.602 358.865Z" fill="#E96262"/>
<path d="M331.493 376.927L329.727 382.89L352.899 389.75L354.664 383.787L331.493 376.927Z" fill="#E96262"/>
<path d="M404.544 410.655L381.211 414.15L382.132 420.3L405.465 416.805L404.544 410.655Z" fill="#E96262"/>
<path d="M395.349 395.176L366.141 439.495L371.342 442.923L400.55 398.604L395.349 395.176Z" fill="#E96262"/>
<path d="M378.439 392.968L372.438 394.6L378.782 417.918L384.782 416.286L378.439 392.968Z" fill="#E96262"/>
<path d="M509.271 369.207L499.976 390.892L505.691 393.342L514.986 371.657L509.271 369.207Z" fill="#E9AD62"/>
<path d="M493.689 364.381L488.032 366.963L510.038 415.166L515.695 412.583L493.689 364.381Z" fill="#E9AD62"/>
<path d="M480.592 382.492L478.826 388.454L501.998 395.314L503.763 389.352L480.592 382.492Z" fill="#E9AD62"/>
<path d="M553.637 416.164L530.304 419.659L531.226 425.809L554.559 422.314L553.637 416.164Z" fill="#E9AD62"/>
<path d="M543.808 399.951L514.6 444.27L519.801 447.698L549.01 403.379L543.808 399.951Z" fill="#E9AD62"/>
<path d="M527.535 398.484L521.535 400.116L527.878 423.434L533.878 421.801L527.535 398.484Z" fill="#E9AD62"/>
<path d="M659.964 373.184L650.669 394.87L656.385 397.319L665.68 375.634L659.964 373.184Z" fill="#60C9EB"/>
<path d="M644.388 368.349L638.731 370.932L660.737 419.134L666.394 416.552L644.388 368.349Z" fill="#60C9EB"/>
<path d="M631.275 386.452L629.51 392.415L652.681 399.275L654.446 393.312L631.275 386.452Z" fill="#60C9EB"/>
<path d="M704.327 420.137L680.995 423.632L681.916 429.782L705.249 426.287L704.327 420.137Z" fill="#60C9EB"/>
<path d="M693.855 403.188L664.647 447.507L669.848 450.935L699.056 406.616L693.855 403.188Z" fill="#60C9EB"/>
<path d="M678.224 402.47L672.223 404.103L678.567 427.421L684.567 425.788L678.224 402.47Z" fill="#60C9EB"/>
<path d="M812.697 377.034L803.402 398.719L809.118 401.169L818.413 379.484L812.697 377.034Z" fill="#FFE600"/>
<path d="M797.107 372.207L791.45 374.789L813.456 422.992L819.113 420.409L797.107 372.207Z" fill="#FFE600"/>
<path d="M783.984 390.292L782.219 396.255L805.39 403.115L807.156 397.152L783.984 390.292Z" fill="#FFE600"/>
<path d="M845.928 406.289L816.72 450.608L821.921 454.036L851.129 409.716L845.928 406.289Z" fill="#FFE600"/>
<path d="M830.951 406.317L824.951 407.949L831.294 431.267L837.295 429.635L830.951 406.317Z" fill="#FFE600"/>
<path d="M573.28 122.684L563.985 144.369L569.7 146.819L578.995 125.134L573.28 122.684Z" fill="#FFE600"/>
<path d="M557.698 117.862L552.041 120.444L574.047 168.647L579.704 166.064L557.698 117.862Z" fill="#FFE600"/>
<path d="M544.573 135.92L542.808 141.883L565.979 148.743L567.744 142.78L544.573 135.92Z" fill="#FFE600"/>
<path d="M617.8 169.532L594.467 173.027L595.388 179.177L618.721 175.682L617.8 169.532Z" fill="#FFE600"/>
<path d="M606.356 154.206L577.148 198.525L582.349 201.953L611.557 157.634L606.356 154.206Z" fill="#FFE600"/>
<path d="M591.515 151.994L585.515 153.626L591.858 176.944L597.859 175.312L591.515 151.994Z" fill="#FFE600"/>
<path d="M733.66 126.606L724.365 148.291L730.081 150.741L739.376 129.056L733.66 126.606Z" fill="#E96262"/>
<path d="M718.089 121.774L712.433 124.357L734.439 172.559L740.096 169.977L718.089 121.774Z" fill="#E96262"/>
<path d="M704.95 139.897L703.185 145.859L726.356 152.719L728.121 146.757L704.95 139.897Z" fill="#E96262"/>
<path d="M778.013 173.562L754.68 177.056L755.601 183.206L778.934 179.712L778.013 173.562Z" fill="#E96262"/>
<path d="M766.048 157.349L736.84 201.668L742.041 205.096L771.249 160.777L766.048 157.349Z" fill="#E96262"/>
<path d="M751.919 155.91L745.918 157.543L752.261 180.86L758.262 179.228L751.919 155.91Z" fill="#E96262"/>
<path d="M414.152 120.496L404.857 142.181L410.573 144.631L419.868 122.946L414.152 120.496Z" fill="#E9AD62"/>
<path d="M398.59 115.664L392.933 118.246L414.939 166.449L420.596 163.867L398.59 115.664Z" fill="#E9AD62"/>
<path d="M385.46 133.742L383.695 139.704L406.866 146.564L408.631 140.601L385.46 133.742Z" fill="#E9AD62"/>
<path d="M459.249 169.216L435.916 172.71L436.837 178.86L460.17 175.366L459.249 169.216Z" fill="#E9AD62"/>
<path d="M447.922 152.793L418.714 197.112L423.915 200.54L453.123 156.22L447.922 152.793Z" fill="#E9AD62"/>
<path d="M432.994 151.666L426.994 153.298L433.337 176.616L439.337 174.984L432.994 151.666Z" fill="#E9AD62"/>
<path d="M357.081 198.64L347.786 220.325L353.501 222.775L362.796 201.09L357.081 198.64Z" fill="#FFE600"/>
<path d="M341.515 193.795L335.858 196.377L357.864 244.58L363.521 241.997L341.515 193.795Z" fill="#FFE600"/>
<path d="M328.411 211.926L326.645 217.889L349.817 224.749L351.582 218.786L328.411 211.926Z" fill="#FFE600"/>
<path d="M402.021 247.481L378.688 250.975L379.609 257.125L402.942 253.63L402.021 247.481Z" fill="#FFE600"/>
<path d="M391.475 230.858L362.266 275.177L367.468 278.605L396.676 234.286L391.475 230.858Z" fill="#FFE600"/>
<path d="M375.922 229.786L369.921 231.419L376.265 254.737L382.265 253.104L375.922 229.786Z" fill="#FFE600"/>
<path d="M506.175 204.147L496.88 225.832L502.596 228.282L511.891 206.597L506.175 204.147Z" fill="#E96262"/>
<path d="M490.595 199.323L484.939 201.905L506.945 250.108L512.601 247.525L490.595 199.323Z" fill="#E96262"/>
<path d="M477.483 217.377L475.718 223.34L498.889 230.2L500.654 224.237L477.483 217.377Z" fill="#E96262"/>
<path d="M550.693 250.988L527.361 254.483L528.282 260.633L551.615 257.138L550.693 250.988Z" fill="#E96262"/>
<path d="M539.941 235.635L510.733 279.954L515.934 283.382L545.142 239.063L539.941 235.635Z" fill="#E96262"/>
<path d="M524.431 233.435L518.431 235.067L524.774 258.385L530.775 256.753L524.431 233.435Z" fill="#E96262"/>
<path d="M656.879 208.12L647.584 229.805L653.3 232.254L662.595 210.569L656.879 208.12Z" fill="#60C9EB"/>
<path d="M641.293 203.294L635.636 205.877L657.642 254.08L663.299 251.497L641.293 203.294Z" fill="#60C9EB"/>
<path d="M628.165 221.35L626.4 227.313L649.571 234.173L651.336 228.21L628.165 221.35Z" fill="#60C9EB"/>
<path d="M701.388 254.973L678.055 258.468L678.976 264.618L702.309 261.123L701.388 254.973Z" fill="#60C9EB"/>
<path d="M689.988 238.872L660.779 283.192L665.981 286.619L695.189 242.3L689.988 238.872Z" fill="#60C9EB"/>
<path d="M675.115 237.432L669.115 239.064L675.458 262.382L681.458 260.75L675.115 237.432Z" fill="#60C9EB"/>
<path d="M809.602 211.966L800.307 233.651L806.022 236.101L815.317 214.416L809.602 211.966Z" fill="#60C9EB"/>
<path d="M794.019 207.136L788.362 209.719L810.369 257.921L816.025 255.339L794.019 207.136Z" fill="#60C9EB"/>
<path d="M780.882 225.193L779.116 231.156L802.288 238.016L804.053 232.053L780.882 225.193Z" fill="#60C9EB"/>
<path d="M842.06 241.967L812.852 286.286L818.053 289.713L847.261 245.394L842.06 241.967Z" fill="#60C9EB"/>
<path d="M827.855 241.264L821.854 242.896L828.197 266.214L834.198 264.582L827.855 241.264Z" fill="#60C9EB"/>
<path d="M353.577 37.4629L344.282 59.1479L349.998 61.5979L359.293 39.9128L353.577 37.4629Z" fill="#E96262"/>
<path d="M338.008 32.6441L332.351 35.2266L354.357 83.4292L360.014 80.8466L338.008 32.6441Z" fill="#E96262"/>
<path d="M324.891 50.7101L323.125 56.6729L346.296 63.5328L348.062 57.5701L324.891 50.7101Z" fill="#E96262"/>
<path d="M398.518 86.3138L375.185 89.8085L376.106 95.9585L399.439 92.4638L398.518 86.3138Z" fill="#E96262"/>
<path d="M387.223 70.4148L358.015 114.734L363.216 118.162L392.424 73.8426L387.223 70.4148Z" fill="#E96262"/>
<path d="M372.435 68.6159L366.434 70.2482L372.777 93.5662L378.778 91.9338L372.435 68.6159Z" fill="#E96262"/>
<path d="M502.673 42.9684L493.378 64.6535L499.093 67.1034L508.388 45.4184L502.673 42.9684Z" fill="#E9AD62"/>
<path d="M487.094 38.1544L481.438 40.7369L503.444 88.9395L509.101 86.3569L487.094 38.1544Z" fill="#E9AD62"/>
<path d="M473.982 56.274L472.217 62.2368L495.388 69.0967L497.153 63.134L473.982 56.274Z" fill="#E9AD62"/>
<path d="M547.03 89.9352L523.697 93.4299L524.618 99.5799L547.951 96.0852L547.03 89.9352Z" fill="#E9AD62"/>
<path d="M535.679 75.1876L506.471 119.507L511.672 122.935L540.88 78.6154L535.679 75.1876Z" fill="#E9AD62"/>
<path d="M520.931 72.2681L514.93 73.9005L521.274 97.2184L527.274 95.586L520.931 72.2681Z" fill="#E9AD62"/>
<path d="M653.378 46.9505L644.083 68.6355L649.799 71.0854L659.094 49.4004L653.378 46.9505Z" fill="#60C9EB"/>
<path d="M637.8 42.1206L632.143 44.7031L654.149 92.9057L659.806 90.3231L637.8 42.1206Z" fill="#60C9EB"/>
<path d="M624.666 60.2403L622.9 66.2031L646.072 73.0631L647.837 67.1003L624.666 60.2403Z" fill="#60C9EB"/>
<path d="M697.726 93.9084L674.393 97.4031L675.314 103.553L698.647 100.058L697.726 93.9084Z" fill="#60C9EB"/>
<path d="M685.729 78.4274L656.521 122.747L661.722 126.174L690.931 81.8552L685.729 78.4274Z" fill="#60C9EB"/>
<path d="M671.648 76.2433L665.647 77.8757L671.991 101.194L677.991 99.5613L671.648 76.2433Z" fill="#60C9EB"/>
<path d="M806.105 50.793L796.81 72.478L802.525 74.9279L811.82 53.2429L806.105 50.793Z" fill="#FFE600"/>
<path d="M790.513 45.9743L784.856 48.5569L806.862 96.7594L812.519 94.1769L790.513 45.9743Z" fill="#FFE600"/>
<path d="M777.376 64.0883L775.611 70.051L798.782 76.911L800.547 70.9483L777.376 64.0883Z" fill="#FFE600"/>
<path d="M850.441 97.752L827.108 101.247L828.029 107.397L851.362 103.902L850.441 97.752Z" fill="#FFE600"/>
<path d="M837.798 81.5275L808.59 125.847L813.791 129.274L842.999 84.9553L837.798 81.5275Z" fill="#FFE600"/>
<path d="M824.356 80.1092L818.355 81.7415L824.698 105.059L830.699 103.427L824.356 80.1092Z" fill="#FFE600"/>
<path d="M878.722 28.5782C878.695 27.4778 878.243 26.4305 877.462 25.6554C876.68 24.8804 875.629 24.4376 874.528 24.4198C763.129 22.6652 648.59 22.0511 537.823 21.3844C480.36 21.051 421.493 20.6826 362.942 20.1913C340.835 19.9924 318.809 19.7818 296.865 19.5595C266.054 19.2613 233.84 18.8577 201.117 18.3489C200.534 18.3344 199.955 18.4425 199.417 18.6662C198.879 18.8899 198.394 19.2242 197.993 19.6474C197.591 20.0654 197.278 20.561 197.072 21.1039C196.867 21.6468 196.775 22.2258 196.8 22.8056C209.819 287.907 216.627 556.955 217.013 822.478C217.009 823.037 217.115 823.592 217.327 824.111C217.538 824.629 217.85 825.1 218.245 825.497C218.64 825.893 219.11 826.207 219.628 826.421C220.145 826.635 220.7 826.744 221.259 826.741V826.741L317.113 825.794L362.907 825.355L860.895 820.548C861.981 820.535 863.022 820.109 863.805 819.356C864.587 818.603 865.053 817.579 865.106 816.495C879.126 521.952 883.6 264.22 878.722 28.5782ZM313.024 817.337L225.505 818.196C225.067 555.411 218.347 289.275 205.521 26.8763C235.349 27.3149 264.703 27.6834 292.934 27.9817C317.789 290.324 324.502 554.07 313.024 817.337V817.337ZM856.825 812.073L362.943 816.828L321.552 817.249C332.976 554.058 326.276 290.393 301.497 28.122C321.885 28.3325 342.355 28.5255 362.907 28.701C421.441 29.1923 480.29 29.5256 537.735 29.8941C647.116 30.5433 760.182 31.2101 870.265 32.8594C874.985 266.132 870.581 521.109 856.825 812.073Z" fill="#60C9EB"/>
<path fill-rule="evenodd" clip-rule="evenodd" d="M199.365 18.5415C199.921 18.3107 200.518 18.1991 201.119 18.2139C233.842 18.7227 266.056 19.1263 296.866 19.4245C318.81 19.6468 340.836 19.8574 362.944 20.0563C421.494 20.5476 480.361 20.916 537.823 21.2494C544.573 21.29 551.336 21.3304 558.112 21.3709C662.537 21.9952 769.919 22.6371 874.531 24.2848C875.666 24.3032 876.75 24.76 877.557 25.5596C878.363 26.3592 878.829 27.4396 878.857 28.5754C883.735 264.221 879.26 521.956 865.241 816.501C865.186 817.62 864.706 818.676 863.898 819.453C863.091 820.23 862.017 820.67 860.897 820.683L221.261 826.876C220.682 826.879 220.11 826.766 219.576 826.546C219.042 826.325 218.557 826.001 218.15 825.592C217.742 825.183 217.42 824.697 217.202 824.162C216.983 823.627 216.873 823.055 216.878 822.477C216.492 556.957 209.684 287.911 196.665 22.8122C196.639 22.2141 196.735 21.6163 196.946 21.0562C197.158 20.4963 197.481 19.9853 197.896 19.5541C198.309 19.1174 198.81 18.7724 199.365 18.5415ZM201.113 18.4838C200.55 18.4698 199.989 18.5744 199.469 18.7909C198.948 19.0073 198.479 19.3308 198.091 19.7402L198.091 19.741C197.701 20.1459 197.397 20.6258 197.199 21.1516C197 21.6773 196.91 22.2379 196.935 22.7993C209.954 287.902 216.762 556.953 217.148 822.477L217.148 822.479C217.144 823.021 217.247 823.558 217.452 824.06C217.656 824.561 217.959 825.018 218.341 825.401C218.723 825.785 219.178 826.089 219.679 826.296C220.18 826.503 220.717 826.609 221.258 826.606L860.894 820.413C861.946 820.401 862.953 819.988 863.711 819.259C864.469 818.529 864.92 817.538 864.971 816.488C878.991 521.947 883.465 264.219 878.587 28.5815C878.561 27.5159 878.124 26.5018 877.367 25.7513C876.61 25.0008 875.592 24.572 874.526 24.5548C769.916 22.9071 662.536 22.2652 558.11 21.641C551.334 21.6005 544.571 21.56 537.822 21.5194C480.359 21.186 421.492 20.8176 362.941 20.3263C340.833 20.1274 318.807 19.9168 296.863 19.6946C266.052 19.3963 233.838 18.9927 201.114 18.4839L201.113 18.4838ZM205.379 26.7392L205.523 26.7413C235.35 27.1799 264.705 27.5484 292.936 27.8467L293.057 27.8479L293.069 27.9689C317.924 290.318 324.637 554.069 313.159 817.343L313.024 817.337L313.026 817.472L225.371 818.333L225.37 818.197C224.932 555.414 218.212 289.28 205.386 26.8829L205.379 26.7392ZM312.895 817.203C324.363 554.025 317.652 290.369 292.811 28.1154C264.663 27.8178 235.398 27.4505 205.662 27.0134C218.482 289.323 225.2 555.365 225.64 818.06L312.895 817.203ZM301.348 27.9854L301.498 27.987C321.886 28.1975 342.357 28.3905 362.909 28.566C408.838 28.9515 454.962 29.2398 500.451 29.524C512.933 29.6021 525.367 29.6798 537.736 29.7591L539.147 29.7675C648.089 30.4141 760.656 31.0821 870.267 32.7244L870.397 32.7263L870.4 32.8566C875.12 266.133 870.716 521.113 856.96 812.079L856.954 812.207L321.411 817.385L321.417 817.243C332.841 554.058 326.141 290.399 301.362 28.1347L301.348 27.9854ZM301.645 28.2585C326.409 290.439 333.107 554.013 321.693 817.112L856.696 811.939C870.444 521.085 874.847 266.192 870.132 32.9924C760.564 31.3516 648.044 30.6838 539.145 30.0375L537.734 30.0291C525.365 29.9498 512.931 29.8721 500.448 29.7941C454.96 29.5098 408.836 29.2215 362.906 28.836C342.404 28.661 321.984 28.4685 301.645 28.2585Z" fill="#60C9EB"/>
<path d="M832.685 123.362L359.893 123.362C359.781 123.365 359.67 123.344 359.566 123.303C359.461 123.262 359.366 123.2 359.286 123.122C359.206 123.043 359.143 122.95 359.099 122.846C359.056 122.743 359.033 122.632 359.033 122.52C359.033 122.292 359.124 122.073 359.285 121.912C359.447 121.751 359.665 121.66 359.893 121.66L832.685 121.66C832.913 121.66 833.132 121.751 833.293 121.912C833.454 122.073 833.545 122.292 833.545 122.52C833.545 122.632 833.523 122.743 833.479 122.846C833.436 122.95 833.372 123.043 833.292 123.122C833.212 123.2 833.117 123.262 833.013 123.303C832.909 123.344 832.797 123.365 832.685 123.362V123.362Z" fill="#60C9EB"/>
<path fill-rule="evenodd" clip-rule="evenodd" d="M359.912 126.062C359.453 126.067 358.998 125.983 358.571 125.814C358.134 125.64 357.734 125.381 357.397 125.051C357.06 124.721 356.792 124.327 356.61 123.892C356.427 123.458 356.333 122.991 356.333 122.52M359.912 126.062L832.667 126.062ZM832.667 126.062C833.125 126.067 833.581 125.983 834.007 125.814C834.444 125.641 834.844 125.382 835.182 125.051C835.519 124.721 835.786 124.327 835.969 123.892C836.151 123.458 836.245 122.991 836.245 122.52M832.685 123.362L832.703 122.52L832.741 120.663C832.723 120.662 832.704 120.662 832.685 120.662L832.685 123.362ZM357.376 120.003C358.044 119.335 358.949 118.96 359.893 118.96L832.685 118.96C833.629 118.96 834.535 119.335 835.202 120.003C835.87 120.67 836.245 121.576 836.245 122.52M357.376 120.003C356.708 120.67 356.333 121.576 356.333 122.52Z" fill="#60C9EB"/>
<path d="M832.69 211.826L359.898 211.826C359.786 211.829 359.675 211.809 359.57 211.767C359.466 211.726 359.371 211.664 359.291 211.586C359.211 211.507 359.148 211.414 359.104 211.31C359.061 211.207 359.038 211.096 359.038 210.984C359.038 210.871 359.061 210.759 359.104 210.655C359.147 210.551 359.21 210.456 359.29 210.376C359.37 210.296 359.465 210.233 359.569 210.19C359.673 210.147 359.785 210.124 359.898 210.124L832.69 210.124C832.803 210.124 832.915 210.147 833.019 210.19C833.123 210.233 833.218 210.296 833.298 210.376C833.378 210.456 833.441 210.551 833.484 210.655C833.528 210.759 833.55 210.871 833.55 210.984C833.55 211.096 833.528 211.207 833.484 211.31C833.441 211.414 833.377 211.507 833.297 211.586C833.217 211.664 833.122 211.726 833.018 211.767C832.914 211.809 832.802 211.829 832.69 211.826V211.826Z" fill="#60C9EB"/>
<path d="M832.69 300.293L359.898 300.293C359.786 300.296 359.674 300.276 359.57 300.234C359.466 300.193 359.371 300.131 359.291 300.053C359.211 299.975 359.147 299.881 359.104 299.778C359.06 299.674 359.038 299.563 359.038 299.451C359.038 299.223 359.128 299.005 359.29 298.843C359.451 298.682 359.67 298.591 359.898 298.591L832.69 298.591C832.918 298.591 833.136 298.682 833.298 298.843C833.459 299.005 833.549 299.223 833.549 299.451C833.549 299.563 833.527 299.674 833.484 299.778C833.44 299.881 833.377 299.975 833.297 300.053C833.216 300.131 833.122 300.193 833.017 300.234C832.913 300.276 832.802 300.296 832.69 300.293V300.293Z" fill="#60C9EB"/>
<path fill-rule="evenodd" clip-rule="evenodd" d="M359.916 302.993C359.459 302.998 359.004 302.914 358.576 302.745C358.137 302.571 357.738 302.312 357.401 301.982C357.064 301.652 356.797 301.258 356.614 300.823C356.432 300.389 356.338 299.923 356.338 299.451M359.916 302.993L832.671 302.993ZM832.671 302.993C833.128 302.998 833.584 302.914 834.012 302.745C834.45 302.571 834.849 302.312 835.186 301.982C835.523 301.652 835.791 301.258 835.973 300.823C836.156 300.389 836.25 299.923 836.25 299.451M832.69 300.293L832.707 299.451L832.746 297.594C832.727 297.593 832.708 297.593 832.69 297.593L832.69 300.293ZM357.38 296.934C358.048 296.267 358.953 295.891 359.898 295.891L832.69 295.891C833.634 295.891 834.54 296.267 835.207 296.934C835.874 297.601 836.249 298.507 836.25 299.451M357.38 296.934C356.713 297.601 356.338 298.507 356.338 299.451Z" fill="#60C9EB"/>
<path d="M832.684 388.762L359.892 388.762C359.78 388.764 359.669 388.744 359.565 388.703C359.46 388.662 359.365 388.6 359.285 388.521C359.205 388.443 359.142 388.349 359.098 388.246C359.055 388.143 359.032 388.032 359.032 387.92C359.032 387.692 359.123 387.473 359.284 387.312C359.446 387.15 359.664 387.06 359.892 387.06L832.684 387.06C832.912 387.06 833.131 387.15 833.292 387.312C833.453 387.473 833.544 387.692 833.544 387.92C833.544 388.032 833.522 388.143 833.478 388.246C833.435 388.349 833.371 388.443 833.291 388.521C833.211 388.6 833.116 388.662 833.012 388.703C832.908 388.744 832.796 388.764 832.684 388.762V388.762Z" fill="#60C9EB"/>
<path fill-rule="evenodd" clip-rule="evenodd" d="M359.911 391.462C359.454 391.467 358.998 391.383 358.57 391.213C358.131 391.039 357.732 390.78 357.396 390.45C357.059 390.12 356.791 389.726 356.609 389.292C356.426 388.857 356.332 388.391 356.332 387.92M359.911 391.462L832.666 391.462ZM832.666 391.462C833.123 391.467 833.578 391.383 834.006 391.213C834.445 391.04 834.844 390.78 835.181 390.45C835.518 390.12 835.785 389.726 835.968 389.292C836.15 388.857 836.244 388.391 836.244 387.92M832.684 388.762L832.702 387.92L832.74 386.062C832.722 386.062 832.703 386.062 832.684 386.062L832.684 388.762ZM357.375 385.402C358.042 384.735 358.948 384.36 359.892 384.36L832.684 384.36C833.629 384.36 834.534 384.735 835.201 385.402C835.869 386.07 836.244 386.975 836.244 387.92M357.375 385.402C356.708 386.07 356.332 386.975 356.332 387.92Z" fill="#60C9EB"/>
<path d="M832.69 477.227L359.898 477.227C359.786 477.23 359.674 477.209 359.57 477.168C359.466 477.127 359.371 477.065 359.291 476.987C359.211 476.908 359.147 476.815 359.104 476.711C359.06 476.608 359.038 476.497 359.038 476.385C359.038 476.157 359.128 475.938 359.29 475.777C359.451 475.616 359.67 475.525 359.898 475.525L832.69 475.525C832.918 475.525 833.136 475.616 833.298 475.777C833.459 475.938 833.549 476.157 833.549 476.385C833.549 476.497 833.527 476.608 833.484 476.711C833.44 476.815 833.377 476.908 833.297 476.987C833.216 477.065 833.122 477.127 833.017 477.168C832.913 477.209 832.802 477.23 832.69 477.227V477.227Z" fill="#60C9EB"/>
<path fill-rule="evenodd" clip-rule="evenodd" d="M359.916 479.927C359.456 479.932 359.001 479.847 358.576 479.679C358.137 479.505 357.738 479.245 357.401 478.916C357.064 478.585 356.797 478.192 356.614 477.757C356.432 477.323 356.338 476.857 356.338 476.385M359.916 479.927L832.671 479.927ZM832.671 479.927C833.131 479.932 833.587 479.847 834.012 479.679C834.45 479.505 834.849 479.245 835.186 478.916C835.523 478.585 835.791 478.192 835.973 477.757C836.155 477.323 836.25 476.857 836.25 476.385M832.69 477.227L832.707 476.385L832.746 474.528C832.727 474.527 832.708 474.527 832.69 474.527L832.69 477.227ZM357.38 473.868C358.048 473.2 358.953 472.825 359.898 472.825L832.69 472.825C833.634 472.825 834.54 473.2 835.207 473.868C835.875 474.535 836.249 475.442 836.25 476.385M357.38 473.868C356.713 474.535 356.338 475.442 356.338 476.385Z" fill="#60C9EB"/>
<path d="M832.682 565.694H359.89C359.778 565.697 359.667 565.677 359.563 565.635C359.458 565.594 359.363 565.532 359.283 565.454C359.203 565.376 359.14 565.282 359.096 565.179C359.053 565.075 359.03 564.964 359.031 564.852C359.031 564.624 359.121 564.405 359.282 564.244C359.444 564.083 359.662 563.992 359.89 563.992H832.682C832.91 563.992 833.129 564.083 833.29 564.244C833.451 564.405 833.542 564.624 833.542 564.852C833.542 564.964 833.52 565.075 833.476 565.179C833.433 565.282 833.369 565.376 833.289 565.454C833.209 565.532 833.114 565.594 833.01 565.635C832.906 565.677 832.794 565.697 832.682 565.694V565.694Z" fill="#60C9EB"/>
<path fill-rule="evenodd" clip-rule="evenodd" d="M359.909 568.394C359.452 568.399 358.996 568.315 358.568 568.146C358.129 567.972 357.73 567.712 357.394 567.383C357.057 567.053 356.789 566.659 356.607 566.224C356.424 565.79 356.33 565.323 356.33 564.852M359.909 568.394H832.664ZM832.664 568.394C833.121 568.399 833.576 568.315 834.004 568.146C834.443 567.972 834.842 567.713 835.179 567.383C835.516 567.053 835.783 566.659 835.966 566.224C836.148 565.79 836.242 565.323 836.242 564.852M832.682 565.694L832.7 564.852L832.738 562.995C832.72 562.994 832.701 562.994 832.682 562.994L832.682 565.694ZM357.373 562.335C358.04 561.668 358.946 561.292 359.89 561.292H832.682C833.627 561.292 834.532 561.668 835.2 562.335C835.867 563.002 836.242 563.908 836.242 564.852M357.373 562.335C356.706 563.002 356.33 563.908 356.33 564.852Z" fill="#60C9EB"/>
<path d="M832.689 654.157H359.897C359.785 654.159 359.674 654.139 359.569 654.098C359.465 654.057 359.37 653.995 359.29 653.917C359.21 653.838 359.147 653.745 359.103 653.641C359.06 653.538 359.037 653.427 359.037 653.315C359.037 653.087 359.128 652.868 359.289 652.707C359.45 652.546 359.669 652.455 359.897 652.455H832.689C832.917 652.455 833.136 652.546 833.297 652.707C833.458 652.868 833.549 653.087 833.549 653.315C833.549 653.427 833.527 653.538 833.483 653.641C833.44 653.745 833.376 653.838 833.296 653.917C833.216 653.995 833.121 654.057 833.017 654.098C832.913 654.139 832.801 654.159 832.689 654.157V654.157Z" fill="#60C9EB"/>
<path fill-rule="evenodd" clip-rule="evenodd" d="M359.916 656.857C359.459 656.862 359.003 656.778 358.575 656.608C358.136 656.435 357.737 656.175 357.401 655.846C357.064 655.515 356.796 655.121 356.614 654.687C356.431 654.253 356.337 653.786 356.337 653.315M359.916 656.857H832.671ZM832.671 656.857C833.128 656.862 833.583 656.778 834.011 656.608C834.45 656.435 834.849 656.175 835.186 655.846C835.523 655.515 835.79 655.121 835.973 654.687C836.155 654.253 836.249 653.786 836.249 653.315M832.689 654.157L832.707 653.315L832.745 651.457C832.727 651.457 832.708 651.457 832.689 651.457L832.689 654.157ZM357.38 650.797C358.048 650.129 358.954 649.755 359.897 649.755H832.689C833.632 649.755 834.538 650.129 835.206 650.797C835.874 651.465 836.249 652.371 836.249 653.315M357.38 650.797C356.712 651.465 356.337 652.371 356.337 653.315Z" fill="#60C9EB"/>
<path d="M832.686 742.625H359.894C359.782 742.627 359.67 742.607 359.566 742.566C359.462 742.524 359.367 742.463 359.287 742.384C359.207 742.306 359.143 742.212 359.1 742.109C359.056 742.005 359.034 741.894 359.034 741.782C359.034 741.554 359.125 741.336 359.286 741.174C359.447 741.013 359.666 740.923 359.894 740.923H832.686C832.914 740.923 833.132 741.013 833.294 741.174C833.455 741.336 833.545 741.554 833.545 741.782C833.545 741.894 833.523 742.005 833.48 742.109C833.436 742.212 833.373 742.306 833.293 742.384C833.213 742.463 833.118 742.524 833.013 742.566C832.909 742.607 832.798 742.627 832.686 742.625Z" fill="#60C9EB"/>
<path fill-rule="evenodd" clip-rule="evenodd" d="M359.912 745.325H832.667C833.128 745.329 833.583 745.244 834.008 745.076C834.446 744.902 834.845 744.643 835.182 744.313C835.519 743.983 835.787 743.589 835.969 743.155C836.152 742.72 836.246 742.254 836.246 741.782M359.912 745.325C359.452 745.329 358.997 745.244 358.572 745.076C358.133 744.902 357.734 744.643 357.397 744.313C357.06 743.983 356.793 743.589 356.61 743.155C356.428 742.72 356.334 742.254 356.334 741.782M357.376 739.265C358.044 738.598 358.949 738.222 359.894 738.222H832.686C833.63 738.222 834.536 738.598 835.203 739.265C835.87 739.932 836.245 740.837 836.246 741.782M357.376 739.265C356.709 739.932 356.334 740.837 356.334 741.782Z" fill="#60C9EB"/>
<path d="M223.133 830.244L205.834 26.2698L298.325 28.1257L322.409 414.461L321.549 834.119L223.133 830.244Z" fill="#60C9EB"/>
</svg>
