<svg width="881" height="861" viewBox="0 0 881 861" fill="none" xmlns="http://www.w3.org/2000/svg">
<path d="M864.124 822.351L320.342 827.615L224.489 828.545C224.126 561.847 217.388 295.225 204.276 28.6794C236.104 29.1473 268.026 29.5509 300.041 29.8901C492.046 31.9254 686.806 31.8377 877.688 34.7328C883.092 296.307 876.529 560.987 864.124 822.351Z" fill="white"/>
<path d="M863.595 750.334L840.262 753.829L841.183 759.978L864.516 756.484L863.595 750.334Z" fill="#E9AD62"/>
<path d="M860.663 585.188L837.33 588.682L838.251 594.832L861.584 591.338L860.663 585.188Z" fill="#60C9EB"/>
<path d="M582.916 614.104L573.621 635.789L579.336 638.239L588.631 616.554L582.916 614.104Z" fill="#E9AD62"/>
<path d="M567.339 609.28L561.682 611.863L583.688 660.066L589.345 657.483L567.339 609.28Z" fill="#E9AD62"/>
<path d="M554.229 627.382L552.464 633.344L575.635 640.204L577.4 634.242L554.229 627.382Z" fill="#E9AD62"/>
<path d="M627.279 661.062L603.946 664.557L604.867 670.707L628.2 667.212L627.279 661.062Z" fill="#E9AD62"/>
<path d="M616.77 644.89L587.562 689.209L592.763 692.637L621.971 648.317L616.77 644.89Z" fill="#E9AD62"/>
<path d="M601.165 643.403L595.165 645.036L601.508 668.354L607.508 666.721L601.165 643.403Z" fill="#E9AD62"/>
<path d="M743.3 618.032L734.005 639.717L739.721 642.167L749.016 620.482L743.3 618.032Z" fill="#FFE600"/>
<path d="M727.719 613.21L722.062 615.793L744.068 663.996L749.725 661.413L727.719 613.21Z" fill="#FFE600"/>
<path d="M714.598 631.302L712.832 637.265L736.003 644.125L737.769 638.162L714.598 631.302Z" fill="#FFE600"/>
<path d="M787.651 664.977L764.318 668.471L765.24 674.621L788.572 671.127L787.651 664.977Z" fill="#FFE600"/>
<path d="M776.46 648.03L747.252 692.35L752.453 695.777L781.661 651.458L776.46 648.03Z" fill="#FFE600"/>
<path d="M761.562 647.32L755.562 648.952L761.905 672.27L767.906 670.638L761.562 647.32Z" fill="#FFE600"/>
<path d="M423.795 611.918L414.5 633.603L420.215 636.053L429.511 614.368L423.795 611.918Z" fill="#60C9EB"/>
<path d="M408.218 607.092L402.561 609.674L424.567 657.877L430.224 655.294L408.218 607.092Z" fill="#60C9EB"/>
<path d="M395.117 625.202L393.352 631.165L416.523 638.025L418.288 632.062L395.117 625.202Z" fill="#60C9EB"/>
<path d="M468.159 658.884L444.826 662.379L445.747 668.529L469.08 665.034L468.159 658.884Z" fill="#60C9EB"/>
<path d="M458.337 643.475L429.129 687.794L434.33 691.222L463.539 646.903L458.337 643.475Z" fill="#60C9EB"/>
<path d="M442.058 641.195L436.058 642.827L442.401 666.145L448.402 664.513L442.058 641.195Z" fill="#60C9EB"/>
<path d="M366.723 690.06L357.428 711.745L363.144 714.195L372.439 692.51L366.723 690.06Z" fill="#E96262"/>
<path d="M351.15 685.225L345.493 687.807L367.499 736.01L373.156 733.427L351.15 685.225Z" fill="#E96262"/>
<path d="M338.04 703.288L336.274 709.251L359.446 716.111L361.211 710.148L338.04 703.288Z" fill="#E96262"/>
<path d="M411.091 737.016L387.759 740.511L388.68 746.661L412.013 743.166L411.091 737.016Z" fill="#E96262"/>
<path d="M401.896 721.535L372.688 765.855L377.889 769.282L407.097 724.963L401.896 721.535Z" fill="#E96262"/>
<path d="M384.986 719.328L378.985 720.96L385.329 744.278L391.329 742.645L384.986 719.328Z" fill="#E96262"/>
<path d="M515.818 695.567L506.523 717.252L512.238 719.702L521.533 698.017L515.818 695.567Z" fill="#FFE600"/>
<path d="M500.236 690.74L494.579 693.323L516.586 741.526L522.242 738.943L500.236 690.74Z" fill="#FFE600"/>
<path d="M487.139 708.852L485.373 714.814L508.544 721.674L510.31 715.712L487.139 708.852Z" fill="#FFE600"/>
<path d="M560.184 742.525L536.851 746.019L537.772 752.169L561.105 748.674L560.184 742.525Z" fill="#FFE600"/>
<path d="M550.355 726.311L521.147 770.63L526.348 774.058L555.557 729.739L550.355 726.311Z" fill="#FFE600"/>
<path d="M534.082 724.844L528.081 726.477L534.425 749.794L540.425 748.162L534.082 724.844Z" fill="#FFE600"/>
<path d="M666.511 699.545L657.216 721.23L662.932 723.68L672.227 701.995L666.511 699.545Z" fill="#60C9EB"/>
<path d="M650.935 694.709L645.278 697.292L667.284 745.495L672.941 742.912L650.935 694.709Z" fill="#60C9EB"/>
<path d="M637.822 712.812L636.057 718.774L659.228 725.634L660.993 719.672L637.822 712.812Z" fill="#60C9EB"/>
<path d="M710.875 746.497L687.542 749.992L688.463 756.142L711.796 752.647L710.875 746.497Z" fill="#60C9EB"/>
<path d="M700.402 729.548L671.194 773.867L676.395 777.295L705.603 732.976L700.402 729.548Z" fill="#60C9EB"/>
<path d="M684.771 728.83L678.77 730.462L685.114 753.78L691.114 752.148L684.771 728.83Z" fill="#60C9EB"/>
<path d="M819.244 703.394L809.949 725.079L815.665 727.529L824.96 705.843L819.244 703.394Z" fill="#E9AD62"/>
<path d="M803.654 698.567L797.997 701.15L820.003 749.353L825.66 746.77L803.654 698.567Z" fill="#E9AD62"/>
<path d="M790.531 716.652L788.766 722.615L811.937 729.475L813.702 723.512L790.531 716.652Z" fill="#E9AD62"/>
<path d="M852.475 732.648L823.267 776.968L828.468 780.395L857.676 736.076L852.475 732.648Z" fill="#E9AD62"/>
<path d="M837.499 732.678L831.498 734.31L837.841 757.628L843.842 755.996L837.499 732.678Z" fill="#E9AD62"/>
<path d="M579.827 449.044L570.532 470.729L576.248 473.179L585.543 451.494L579.827 449.044Z" fill="#E9AD62"/>
<path d="M564.245 444.222L558.589 446.805L580.595 495.007L586.251 492.425L564.245 444.222Z" fill="#E9AD62"/>
<path d="M551.12 462.281L549.354 468.243L572.525 475.103L574.291 469.141L551.12 462.281Z" fill="#E9AD62"/>
<path d="M624.347 495.892L601.014 499.387L601.935 505.537L625.268 502.042L624.347 495.892Z" fill="#E9AD62"/>
<path d="M612.903 480.566L583.695 524.885L588.896 528.313L618.104 483.994L612.903 480.566Z" fill="#E9AD62"/>
<path d="M598.062 478.354L592.062 479.986L598.405 503.304L604.406 501.672L598.062 478.354Z" fill="#E9AD62"/>
<path d="M740.207 452.967L730.912 474.652L736.627 477.102L745.922 455.417L740.207 452.967Z" fill="#E96262"/>
<path d="M724.636 448.134L718.979 450.717L740.985 498.919L746.642 496.337L724.636 448.134Z" fill="#E96262"/>
<path d="M711.497 466.257L709.732 472.22L732.903 479.08L734.668 473.117L711.497 466.257Z" fill="#E96262"/>
<path d="M784.56 499.922L761.227 503.416L762.148 509.566L785.481 506.072L784.56 499.922Z" fill="#E96262"/>
<path d="M772.595 483.709L743.387 528.028L748.588 531.455L777.796 487.136L772.595 483.709Z" fill="#E96262"/>
<path d="M758.466 482.27L752.465 483.903L758.808 507.221L764.809 505.588L758.466 482.27Z" fill="#E96262"/>
<path d="M420.7 446.856L411.405 468.541L417.12 470.991L426.415 449.306L420.7 446.856Z" fill="#FFE600"/>
<path d="M405.137 442.024L399.48 444.607L421.486 492.809L427.143 490.227L405.137 442.024Z" fill="#FFE600"/>
<path d="M392.007 460.102L390.242 466.065L413.413 472.925L415.178 466.962L392.007 460.102Z" fill="#FFE600"/>
<path d="M465.796 495.576L442.463 499.07L443.384 505.22L466.717 501.726L465.796 495.576Z" fill="#FFE600"/>
<path d="M454.469 479.153L425.261 523.472L430.463 526.9L459.671 482.581L454.469 479.153Z" fill="#FFE600"/>
<path d="M439.541 478.026L433.541 479.658L439.884 502.976L445.885 501.344L439.541 478.026Z" fill="#FFE600"/>
<path d="M363.628 525L354.333 546.685L360.048 549.135L369.343 527.45L363.628 525Z" fill="#E9AD62"/>
<path d="M348.061 520.154L342.405 522.737L364.411 570.94L370.068 568.357L348.061 520.154Z" fill="#E9AD62"/>
<path d="M334.957 538.286L333.192 544.249L356.363 551.109L358.128 545.146L334.957 538.286Z" fill="#E9AD62"/>
<path d="M408.568 573.841L385.235 577.336L386.156 583.486L409.489 579.991L408.568 573.841Z" fill="#E9AD62"/>
<path d="M398.021 557.218L368.813 601.537L374.015 604.965L403.223 560.646L398.021 557.218Z" fill="#E9AD62"/>
<path d="M382.469 556.147L376.468 557.779L382.812 581.097L388.812 579.465L382.469 556.147Z" fill="#E9AD62"/>
<path d="M512.722 530.506L503.427 552.191L509.143 554.641L518.438 532.956L512.722 530.506Z" fill="#E96262"/>
<path d="M497.142 525.682L491.485 528.265L513.491 576.467L519.148 573.885L497.142 525.682Z" fill="#E96262"/>
<path d="M484.031 543.738L482.265 549.701L505.436 556.561L507.202 550.598L484.031 543.738Z" fill="#E96262"/>
<path d="M557.24 577.348L533.907 580.843L534.828 586.992L558.161 583.498L557.24 577.348Z" fill="#E96262"/>
<path d="M546.488 561.995L517.28 606.314L522.481 609.742L551.689 565.423L546.488 561.995Z" fill="#E96262"/>
<path d="M530.978 559.795L524.977 561.427L531.321 584.745L537.321 583.113L530.978 559.795Z" fill="#E96262"/>
<path d="M663.426 534.479L654.131 556.164L659.847 558.614L669.142 536.929L663.426 534.479Z" fill="#60C9EB"/>
<path d="M647.84 529.654L642.183 532.236L664.189 580.439L669.846 577.857L647.84 529.654Z" fill="#60C9EB"/>
<path d="M634.712 547.71L632.947 553.673L656.118 560.533L657.883 554.57L634.712 547.71Z" fill="#60C9EB"/>
<path d="M707.935 581.333L684.602 584.828L685.523 590.978L708.856 587.483L707.935 581.333Z" fill="#60C9EB"/>
<path d="M696.535 565.232L667.327 609.551L672.528 612.979L701.736 568.66L696.535 565.232Z" fill="#60C9EB"/>
<path d="M681.662 563.792L675.661 565.424L682.005 588.742L688.005 587.11L681.662 563.792Z" fill="#60C9EB"/>
<path d="M816.149 538.326L806.854 560.011L812.569 562.461L821.864 540.776L816.149 538.326Z" fill="#60C9EB"/>
<path d="M800.566 533.497L794.909 536.079L816.916 584.282L822.573 581.699L800.566 533.497Z" fill="#60C9EB"/>
<path d="M787.429 551.553L785.663 557.515L808.834 564.375L810.6 558.413L787.429 551.553Z" fill="#60C9EB"/>
<path d="M848.607 568.327L819.399 612.646L824.6 616.074L853.808 571.755L848.607 568.327Z" fill="#60C9EB"/>
<path d="M834.402 567.624L828.401 569.256L834.745 592.574L840.745 590.942L834.402 567.624Z" fill="#60C9EB"/>
<path d="M360.124 363.822L350.829 385.508L356.544 387.957L365.839 366.272L360.124 363.822Z" fill="#E96262"/>
<path d="M344.555 359.004L338.898 361.587L360.904 409.789L366.561 407.207L344.555 359.004Z" fill="#E96262"/>
<path d="M331.438 377.07L329.672 383.033L352.843 389.893L354.609 383.93L331.438 377.07Z" fill="#E96262"/>
<path d="M405.065 412.674L381.732 416.169L382.653 422.319L405.986 418.824L405.065 412.674Z" fill="#E96262"/>
<path d="M393.77 396.775L364.562 441.094L369.763 444.522L398.971 400.203L393.77 396.775Z" fill="#E96262"/>
<path d="M378.981 394.976L372.981 396.608L379.324 419.926L385.325 418.294L378.981 394.976Z" fill="#E96262"/>
<path d="M509.22 369.328L499.925 391.013L505.64 393.463L514.935 371.778L509.22 369.328Z" fill="#FFE600"/>
<path d="M493.642 364.514L487.985 367.097L509.991 415.299L515.648 412.717L493.642 364.514Z" fill="#FFE600"/>
<path d="M480.529 382.634L478.764 388.597L501.935 395.457L503.701 389.494L480.529 382.634Z" fill="#FFE600"/>
<path d="M553.577 416.296L530.244 419.791L531.166 425.941L554.498 422.446L553.577 416.296Z" fill="#FFE600"/>
<path d="M542.226 401.548L513.018 445.867L518.219 449.295L547.427 404.976L542.226 401.548Z" fill="#FFE600"/>
<path d="M527.477 398.628L521.477 400.26L527.82 423.578L533.821 421.946L527.477 398.628Z" fill="#FFE600"/>
<path d="M659.926 373.311L650.631 394.996L656.346 397.446L665.641 375.761L659.926 373.311Z" fill="#60C9EB"/>
<path d="M644.347 368.481L638.69 371.064L660.696 419.267L666.353 416.684L644.347 368.481Z" fill="#60C9EB"/>
<path d="M631.213 386.6L629.447 392.563L652.618 399.423L654.384 393.46L631.213 386.6Z" fill="#60C9EB"/>
<path d="M704.273 420.269L680.94 423.764L681.861 429.914L705.194 426.419L704.273 420.269Z" fill="#60C9EB"/>
<path d="M692.276 404.787L663.068 449.106L668.269 452.534L697.478 408.215L692.276 404.787Z" fill="#60C9EB"/>
<path d="M678.195 402.603L672.194 404.235L678.538 427.553L684.538 425.921L678.195 402.603Z" fill="#60C9EB"/>
<path d="M812.652 377.153L803.357 398.838L809.073 401.288L818.368 379.603L812.652 377.153Z" fill="#E9AD62"/>
<path d="M797.059 372.334L791.402 374.917L813.408 423.119L819.065 420.537L797.059 372.334Z" fill="#E9AD62"/>
<path d="M783.923 390.449L782.158 396.411L805.329 403.271L807.094 397.309L783.923 390.449Z" fill="#E9AD62"/>
<path d="M856.988 424.113L833.656 427.608L834.577 433.758L857.91 430.263L856.988 424.113Z" fill="#E9AD62"/>
<path d="M844.346 407.887L815.138 452.207L820.339 455.634L849.547 411.315L844.346 407.887Z" fill="#E9AD62"/>
<path d="M830.902 406.469L824.902 408.101L831.245 431.419L837.246 429.787L830.902 406.469Z" fill="#E9AD62"/>
<path d="M857.147 423.974L833.814 427.468L834.735 433.618L858.068 430.124L857.147 423.974Z" fill="#E9AD62"/>
<path d="M854.214 258.828L830.882 262.323L831.803 268.472L855.136 264.978L854.214 258.828Z" fill="#60C9EB"/>
<path d="M576.468 287.744L567.173 309.429L572.889 311.879L582.184 290.194L576.468 287.744Z" fill="#E9AD62"/>
<path d="M560.891 282.92L555.234 285.503L577.24 333.705L582.897 331.123L560.891 282.92Z" fill="#E9AD62"/>
<path d="M547.781 301.022L546.016 306.985L569.187 313.845L570.952 307.882L547.781 301.022Z" fill="#E9AD62"/>
<path d="M620.831 334.703L597.498 338.197L598.419 344.347L621.752 340.853L620.831 334.703Z" fill="#E9AD62"/>
<path d="M610.322 318.53L581.114 362.849L586.315 366.277L615.523 321.957L610.322 318.53Z" fill="#E9AD62"/>
<path d="M594.717 317.043L588.717 318.675L595.06 341.993L601.061 340.361L594.717 317.043Z" fill="#E9AD62"/>
<path d="M736.853 291.672L727.558 313.358L733.273 315.807L742.568 294.122L736.853 291.672Z" fill="#FFE600"/>
<path d="M721.271 286.85L715.614 289.433L737.62 337.635L743.277 335.053L721.271 286.85Z" fill="#FFE600"/>
<path d="M708.15 304.942L706.384 310.905L729.556 317.765L731.321 311.802L708.15 304.942Z" fill="#FFE600"/>
<path d="M781.204 338.616L757.871 342.111L758.792 348.261L782.125 344.766L781.204 338.616Z" fill="#FFE600"/>
<path d="M770.012 321.67L740.804 365.99L746.005 369.417L775.213 325.098L770.012 321.67Z" fill="#FFE600"/>
<path d="M755.114 320.959L749.114 322.591L755.457 345.909L761.458 344.277L755.114 320.959Z" fill="#FFE600"/>
<path d="M417.347 285.558L408.052 307.243L413.768 309.693L423.063 288.008L417.347 285.558Z" fill="#60C9EB"/>
<path d="M401.77 280.731L396.113 283.313L418.119 331.516L423.776 328.933L401.77 280.731Z" fill="#60C9EB"/>
<path d="M388.669 298.842L386.904 304.805L410.075 311.665L411.84 305.702L388.669 298.842Z" fill="#60C9EB"/>
<path d="M461.711 332.524L438.378 336.018L439.299 342.168L462.632 338.673L461.711 332.524Z" fill="#60C9EB"/>
<path d="M451.89 317.115L422.682 361.434L427.883 364.862L457.091 320.542L451.89 317.115Z" fill="#60C9EB"/>
<path d="M435.61 314.835L429.61 316.467L435.953 339.785L441.954 338.153L435.61 314.835Z" fill="#60C9EB"/>
<path d="M360.275 363.7L350.98 385.385L356.696 387.835L365.991 366.15L360.275 363.7Z" fill="#E96262"/>
<path d="M344.701 358.865L339.045 361.447L361.051 409.65L366.708 407.067L344.701 358.865Z" fill="#E96262"/>
<path d="M331.592 376.927L329.827 382.89L352.998 389.75L354.763 383.787L331.592 376.927Z" fill="#E96262"/>
<path d="M404.643 410.655L381.31 414.15L382.231 420.3L405.564 416.805L404.643 410.655Z" fill="#E96262"/>
<path d="M395.448 395.176L366.24 439.495L371.441 442.923L400.649 398.604L395.448 395.176Z" fill="#E96262"/>
<path d="M378.538 392.968L372.538 394.6L378.881 417.918L384.881 416.286L378.538 392.968Z" fill="#E96262"/>
<path d="M509.37 369.207L500.075 390.892L505.79 393.342L515.085 371.657L509.37 369.207Z" fill="#FFE600"/>
<path d="M493.788 364.381L488.131 366.963L510.137 415.166L515.794 412.583L493.788 364.381Z" fill="#FFE600"/>
<path d="M480.691 382.492L478.926 388.454L502.097 395.314L503.862 389.352L480.691 382.492Z" fill="#FFE600"/>
<path d="M553.737 416.164L530.404 419.659L531.325 425.809L554.658 422.314L553.737 416.164Z" fill="#FFE600"/>
<path d="M543.907 399.951L514.699 444.27L519.901 447.698L549.109 403.379L543.907 399.951Z" fill="#FFE600"/>
<path d="M527.634 398.484L521.634 400.116L527.977 423.434L533.978 421.801L527.634 398.484Z" fill="#FFE600"/>
<path d="M660.064 373.184L650.768 394.87L656.484 397.319L665.779 375.634L660.064 373.184Z" fill="#60C9EB"/>
<path d="M644.487 368.349L638.83 370.932L660.836 419.134L666.493 416.552L644.487 368.349Z" fill="#60C9EB"/>
<path d="M631.374 386.452L629.609 392.415L652.78 399.275L654.545 393.312L631.374 386.452Z" fill="#60C9EB"/>
<path d="M704.427 420.137L681.094 423.632L682.015 429.782L705.348 426.287L704.427 420.137Z" fill="#60C9EB"/>
<path d="M693.954 403.188L664.746 447.507L669.947 450.935L699.155 406.616L693.954 403.188Z" fill="#60C9EB"/>
<path d="M678.323 402.47L672.322 404.103L678.666 427.421L684.666 425.788L678.323 402.47Z" fill="#60C9EB"/>
<path d="M812.796 377.034L803.501 398.719L809.217 401.169L818.512 379.484L812.796 377.034Z" fill="#E9AD62"/>
<path d="M797.206 372.207L791.549 374.789L813.556 422.992L819.212 420.409L797.206 372.207Z" fill="#E9AD62"/>
<path d="M784.084 390.292L782.318 396.255L805.489 403.115L807.255 397.152L784.084 390.292Z" fill="#E9AD62"/>
<path d="M846.027 406.289L816.819 450.608L822.02 454.036L851.228 409.716L846.027 406.289Z" fill="#E9AD62"/>
<path d="M831.05 406.317L825.05 407.949L831.393 431.267L837.394 429.635L831.05 406.317Z" fill="#E9AD62"/>
<path d="M573.379 122.684L564.084 144.369L569.8 146.819L579.095 125.134L573.379 122.684Z" fill="#E9AD62"/>
<path d="M557.797 117.862L552.14 120.444L574.146 168.647L579.803 166.064L557.797 117.862Z" fill="#E9AD62"/>
<path d="M544.672 135.92L542.907 141.883L566.078 148.743L567.843 142.78L544.672 135.92Z" fill="#E9AD62"/>
<path d="M617.899 169.532L594.566 173.027L595.487 179.177L618.82 175.682L617.899 169.532Z" fill="#E9AD62"/>
<path d="M606.455 154.206L577.247 198.525L582.448 201.953L611.656 157.634L606.455 154.206Z" fill="#E9AD62"/>
<path d="M591.615 151.994L585.614 153.626L591.957 176.944L597.958 175.312L591.615 151.994Z" fill="#E9AD62"/>
<path d="M733.759 126.606L724.464 148.291L730.18 150.741L739.475 129.056L733.759 126.606Z" fill="#E96262"/>
<path d="M718.189 121.774L712.532 124.357L734.538 172.559L740.195 169.977L718.189 121.774Z" fill="#E96262"/>
<path d="M705.049 139.897L703.284 145.859L726.455 152.719L728.22 146.757L705.049 139.897Z" fill="#E96262"/>
<path d="M778.112 173.562L754.779 177.056L755.7 183.206L779.033 179.712L778.112 173.562Z" fill="#E96262"/>
<path d="M766.147 157.349L736.939 201.668L742.14 205.096L771.349 160.777L766.147 157.349Z" fill="#E96262"/>
<path d="M752.018 155.91L746.017 157.543L752.361 180.86L758.361 179.228L752.018 155.91Z" fill="#E96262"/>
<path d="M414.252 120.496L404.957 142.181L410.672 144.631L419.967 122.946L414.252 120.496Z" fill="#FFE600"/>
<path d="M398.689 115.664L393.032 118.246L415.038 166.449L420.695 163.867L398.689 115.664Z" fill="#FFE600"/>
<path d="M385.559 133.742L383.794 139.704L406.965 146.564L408.73 140.601L385.559 133.742Z" fill="#FFE600"/>
<path d="M459.348 169.216L436.015 172.71L436.936 178.86L460.269 175.366L459.348 169.216Z" fill="#FFE600"/>
<path d="M448.021 152.793L418.813 197.112L424.014 200.54L453.223 156.22L448.021 152.793Z" fill="#FFE600"/>
<path d="M433.093 151.666L427.093 153.298L433.436 176.616L439.437 174.984L433.093 151.666Z" fill="#FFE600"/>
<path d="M357.18 198.64L347.885 220.325L353.601 222.775L362.896 201.09L357.18 198.64Z" fill="#E9AD62"/>
<path d="M341.614 193.795L335.957 196.377L357.963 244.58L363.62 241.997L341.614 193.795Z" fill="#E9AD62"/>
<path d="M328.51 211.926L326.744 217.889L349.916 224.749L351.681 218.786L328.51 211.926Z" fill="#E9AD62"/>
<path d="M402.12 247.481L378.787 250.975L379.709 257.125L403.041 253.63L402.12 247.481Z" fill="#E9AD62"/>
<path d="M391.574 230.858L362.366 275.177L367.567 278.605L396.775 234.286L391.574 230.858Z" fill="#E9AD62"/>
<path d="M376.021 229.786L370.02 231.419L376.364 254.737L382.364 253.104L376.021 229.786Z" fill="#E9AD62"/>
<path d="M506.275 204.147L496.98 225.832L502.695 228.282L511.99 206.597L506.275 204.147Z" fill="#E96262"/>
<path d="M490.695 199.323L485.038 201.905L507.044 250.108L512.701 247.525L490.695 199.323Z" fill="#E96262"/>
<path d="M477.582 217.377L475.817 223.34L498.988 230.2L500.753 224.237L477.582 217.377Z" fill="#E96262"/>
<path d="M550.793 250.988L527.46 254.483L528.381 260.633L551.714 257.138L550.793 250.988Z" fill="#E96262"/>
<path d="M540.04 235.635L510.832 279.954L516.033 283.382L545.241 239.063L540.04 235.635Z" fill="#E96262"/>
<path d="M524.53 233.435L518.53 235.067L524.873 258.385L530.874 256.753L524.53 233.435Z" fill="#E96262"/>
<path d="M656.978 208.12L647.683 229.805L653.399 232.254L662.694 210.569L656.978 208.12Z" fill="#60C9EB"/>
<path d="M641.392 203.294L635.735 205.877L657.741 254.08L663.398 251.497L641.392 203.294Z" fill="#60C9EB"/>
<path d="M628.264 221.35L626.499 227.313L649.67 234.173L651.435 228.21L628.264 221.35Z" fill="#60C9EB"/>
<path d="M701.487 254.973L678.154 258.468L679.075 264.618L702.408 261.123L701.487 254.973Z" fill="#60C9EB"/>
<path d="M690.087 238.872L660.878 283.192L666.08 286.619L695.288 242.3L690.087 238.872Z" fill="#60C9EB"/>
<path d="M675.214 237.432L669.214 239.064L675.557 262.382L681.558 260.75L675.214 237.432Z" fill="#60C9EB"/>
<path d="M809.701 211.966L800.406 233.651L806.121 236.101L815.416 214.416L809.701 211.966Z" fill="#60C9EB"/>
<path d="M794.118 207.136L788.462 209.719L810.468 257.921L816.125 255.339L794.118 207.136Z" fill="#60C9EB"/>
<path d="M780.981 225.193L779.216 231.156L802.387 238.016L804.152 232.053L780.981 225.193Z" fill="#60C9EB"/>
<path d="M842.159 241.967L812.951 286.286L818.152 289.713L847.36 245.394L842.159 241.967Z" fill="#60C9EB"/>
<path d="M827.954 241.264L821.953 242.896L828.297 266.214L834.297 264.582L827.954 241.264Z" fill="#60C9EB"/>
<path d="M353.676 37.4629L344.381 59.1479L350.097 61.5979L359.392 39.9128L353.676 37.4629Z" fill="#E96262"/>
<path d="M338.107 32.6441L332.45 35.2266L354.456 83.4292L360.113 80.8466L338.107 32.6441Z" fill="#E96262"/>
<path d="M324.99 50.7101L323.224 56.6729L346.396 63.5328L348.161 57.5701L324.99 50.7101Z" fill="#E96262"/>
<path d="M398.617 86.3138L375.284 89.8085L376.205 95.9585L399.538 92.4638L398.617 86.3138Z" fill="#E96262"/>
<path d="M387.322 70.4148L358.114 114.734L363.315 118.162L392.523 73.8426L387.322 70.4148Z" fill="#E96262"/>
<path d="M372.534 68.6159L366.533 70.2482L372.877 93.5662L378.877 91.9338L372.534 68.6159Z" fill="#E96262"/>
<path d="M502.772 42.9684L493.477 64.6535L499.192 67.1034L508.487 45.4184L502.772 42.9684Z" fill="#FFE600"/>
<path d="M487.194 38.1544L481.537 40.7369L503.543 88.9395L509.2 86.3569L487.194 38.1544Z" fill="#FFE600"/>
<path d="M474.081 56.274L472.316 62.2368L495.487 69.0967L497.252 63.134L474.081 56.274Z" fill="#FFE600"/>
<path d="M547.129 89.9352L523.796 93.4299L524.718 99.5799L548.05 96.0852L547.129 89.9352Z" fill="#FFE600"/>
<path d="M535.778 75.1876L506.57 119.507L511.771 122.935L540.979 78.6154L535.778 75.1876Z" fill="#FFE600"/>
<path d="M521.03 72.2681L515.029 73.9005L521.373 97.2184L527.373 95.586L521.03 72.2681Z" fill="#FFE600"/>
<path d="M653.478 46.9505L644.183 68.6355L649.898 71.0854L659.193 49.4004L653.478 46.9505Z" fill="#60C9EB"/>
<path d="M637.899 42.1206L632.242 44.7031L654.248 92.9057L659.905 90.3231L637.899 42.1206Z" fill="#60C9EB"/>
<path d="M624.765 60.2403L622.999 66.2031L646.171 73.0631L647.936 67.1003L624.765 60.2403Z" fill="#60C9EB"/>
<path d="M697.825 93.9084L674.492 97.4031L675.413 103.553L698.746 100.058L697.825 93.9084Z" fill="#60C9EB"/>
<path d="M685.829 78.4274L656.62 122.747L661.822 126.174L691.03 81.8552L685.829 78.4274Z" fill="#60C9EB"/>
<path d="M671.747 76.2433L665.746 77.8757L672.09 101.194L678.09 99.5613L671.747 76.2433Z" fill="#60C9EB"/>
<path d="M806.204 50.793L796.909 72.478L802.624 74.9279L811.919 53.2429L806.204 50.793Z" fill="#E9AD62"/>
<path d="M790.612 45.9743L784.955 48.5569L806.961 96.7594L812.618 94.1769L790.612 45.9743Z" fill="#E9AD62"/>
<path d="M777.475 64.0883L775.71 70.051L798.881 76.911L800.646 70.9483L777.475 64.0883Z" fill="#E9AD62"/>
<path d="M850.54 97.752L827.207 101.247L828.128 107.397L851.461 103.902L850.54 97.752Z" fill="#E9AD62"/>
<path d="M837.897 81.5275L808.689 125.847L813.89 129.274L843.099 84.9553L837.897 81.5275Z" fill="#E9AD62"/>
<path d="M824.455 80.1092L818.454 81.7415L824.798 105.059L830.798 103.427L824.455 80.1092Z" fill="#E9AD62"/>
<path d="M878.821 28.5782C878.794 27.4778 878.342 26.4305 877.561 25.6554C876.779 24.8804 875.728 24.4376 874.628 24.4198C763.229 22.6652 648.689 22.0511 537.922 21.3844C480.459 21.051 421.592 20.6826 363.042 20.1913C340.934 19.9924 318.908 19.7818 296.964 19.5595C266.153 19.2613 233.939 18.8577 201.216 18.3489C200.633 18.3344 200.054 18.4425 199.516 18.6662C198.978 18.8899 198.493 19.2242 198.093 19.6474C197.69 20.0654 197.377 20.561 197.172 21.1039C196.966 21.6468 196.874 22.2258 196.899 22.8056C209.919 287.907 216.726 556.955 217.112 822.478C217.108 823.037 217.214 823.592 217.426 824.111C217.637 824.629 217.95 825.1 218.345 825.497C218.74 825.893 219.209 826.207 219.727 826.421C220.244 826.635 220.799 826.744 221.358 826.741V826.741L317.212 825.794L363.007 825.355L860.994 820.548C862.081 820.535 863.121 820.109 863.904 819.356C864.686 818.603 865.152 817.579 865.205 816.495C879.225 521.952 883.699 264.22 878.821 28.5782ZM313.124 817.337L225.605 818.196C225.166 555.411 218.446 289.275 205.62 26.8763C235.448 27.3149 264.802 27.6834 293.033 27.9817C317.888 290.324 324.601 554.07 313.124 817.337V817.337ZM856.924 812.073L363.042 816.828L321.651 817.249C333.076 554.058 326.375 290.393 301.596 28.122C321.984 28.3325 342.454 28.5255 363.007 28.701C421.54 29.1923 480.389 29.5256 537.834 29.8941C647.215 30.5433 760.281 31.2101 870.364 32.8594C875.084 266.132 870.68 521.109 856.924 812.073Z" fill="#60C9EB"/>
<path fill-rule="evenodd" clip-rule="evenodd" d="M199.464 18.5415C200.02 18.3107 200.617 18.1991 201.218 18.2139C233.941 18.7227 266.155 19.1263 296.965 19.4245C318.909 19.6468 340.935 19.8574 363.043 20.0563C421.593 20.5476 480.46 20.916 537.922 21.2494C544.672 21.29 551.435 21.3304 558.211 21.3709C662.637 21.9952 770.018 22.6371 874.63 24.2848C875.765 24.3032 876.85 24.76 877.656 25.5596C878.462 26.3592 878.928 27.4396 878.956 28.5754C883.834 264.221 879.36 521.956 865.34 816.501C865.285 817.62 864.805 818.676 863.997 819.453C863.19 820.23 862.116 820.67 860.996 820.683L221.36 826.876C220.781 826.879 220.209 826.766 219.675 826.546C219.141 826.325 218.656 826.001 218.249 825.592C217.841 825.183 217.519 824.697 217.301 824.162C217.083 823.627 216.973 823.055 216.977 822.477C216.591 556.957 209.784 287.911 196.765 22.8122C196.738 22.2141 196.834 21.6163 197.045 21.0562C197.257 20.4963 197.58 19.9853 197.995 19.5541C198.408 19.1174 198.909 18.7724 199.464 18.5415ZM201.212 18.4838C200.649 18.4698 200.089 18.5744 199.568 18.7909C199.047 19.0073 198.578 19.3308 198.191 19.7402L198.19 19.741C197.8 20.1459 197.496 20.6258 197.298 21.1516C197.099 21.6773 197.01 22.2379 197.034 22.7993C210.053 287.902 216.861 556.953 217.247 822.477L217.247 822.479C217.243 823.021 217.346 823.558 217.551 824.06C217.755 824.561 218.058 825.018 218.44 825.401C218.823 825.785 219.277 826.089 219.778 826.296C220.279 826.503 220.816 826.609 221.357 826.606L860.993 820.413C862.045 820.401 863.052 819.988 863.81 819.259C864.568 818.529 865.019 817.538 865.071 816.488C879.09 521.947 883.564 264.219 878.686 28.5815C878.66 27.5159 878.223 26.5018 877.466 25.7513C876.709 25.0008 875.691 24.572 874.625 24.5548C770.015 22.9071 662.635 22.2652 558.209 21.641C551.433 21.6005 544.67 21.56 537.921 21.5194C480.458 21.186 421.591 20.8176 363.04 20.3263C340.933 20.1274 318.906 19.9168 296.962 19.6946C266.152 19.3963 233.937 18.9927 201.214 18.4839L201.212 18.4838ZM205.478 26.7392L205.622 26.7413C235.45 27.1799 264.804 27.5484 293.035 27.8467L293.156 27.8479L293.168 27.9689C318.023 290.318 324.736 554.069 313.258 817.343L313.124 817.337L313.125 817.472L225.47 818.333L225.47 818.197C225.031 555.414 218.311 289.28 205.485 26.8829L205.478 26.7392ZM312.994 817.203C324.462 554.025 317.751 290.369 292.91 28.1154C264.762 27.8178 235.498 27.4505 205.762 27.0134C218.581 289.323 225.299 555.365 225.739 818.06L312.994 817.203ZM301.447 27.9854L301.597 27.987C321.985 28.1975 342.456 28.3905 363.008 28.566C408.937 28.9515 455.062 29.2398 500.55 29.524C513.032 29.6021 525.466 29.6798 537.835 29.7591L539.246 29.7675C648.188 30.4141 760.755 31.0821 870.366 32.7244L870.496 32.7263L870.499 32.8566C875.219 266.133 870.815 521.113 857.059 812.079L857.053 812.207L321.51 817.385L321.516 817.243C332.94 554.058 326.24 290.399 301.461 28.1347L301.447 27.9854ZM301.744 28.2585C326.508 290.439 333.206 554.013 321.792 817.112L856.795 811.939C870.543 521.085 874.946 266.192 870.232 32.9924C760.663 31.3516 648.143 30.6838 539.244 30.0375L537.833 30.0291C525.464 29.9498 513.03 29.8721 500.547 29.7941C455.06 29.5098 408.935 29.2215 363.005 28.836C342.504 28.661 322.083 28.4685 301.744 28.2585Z" fill="#60C9EB"/>
<path d="M832.784 123.362L359.992 123.362C359.88 123.365 359.769 123.344 359.665 123.303C359.56 123.262 359.465 123.2 359.385 123.122C359.305 123.043 359.242 122.95 359.198 122.846C359.155 122.743 359.133 122.632 359.133 122.52C359.133 122.292 359.223 122.073 359.384 121.912C359.546 121.751 359.764 121.66 359.992 121.66L832.784 121.66C833.012 121.66 833.231 121.751 833.392 121.912C833.554 122.073 833.644 122.292 833.644 122.52C833.644 122.632 833.622 122.743 833.578 122.846C833.535 122.95 833.471 123.043 833.391 123.122C833.311 123.2 833.216 123.262 833.112 123.303C833.008 123.344 832.896 123.365 832.784 123.362V123.362Z" fill="#60C9EB"/>
<path fill-rule="evenodd" clip-rule="evenodd" d="M360.011 126.062C359.552 126.067 359.097 125.983 358.67 125.814C358.233 125.64 357.833 125.381 357.496 125.051C357.159 124.721 356.891 124.327 356.709 123.892C356.526 123.458 356.432 122.991 356.432 122.52M360.011 126.062L832.766 126.062ZM832.766 126.062C833.225 126.067 833.68 125.983 834.106 125.814C834.543 125.641 834.943 125.382 835.281 125.051C835.618 124.721 835.885 124.327 836.068 123.892C836.25 123.458 836.344 122.991 836.344 122.52M832.784 123.362L832.802 122.52L832.841 120.663C832.822 120.662 832.803 120.662 832.784 120.662L832.784 123.362ZM357.475 120.003C358.143 119.335 359.048 118.96 359.992 118.96L832.784 118.96C833.728 118.96 834.634 119.335 835.302 120.003C835.969 120.67 836.344 121.576 836.344 122.52M357.475 120.003C356.808 120.67 356.433 121.576 356.432 122.52Z" fill="#60C9EB"/>
<path d="M832.789 211.826L359.997 211.826C359.885 211.829 359.774 211.809 359.67 211.767C359.565 211.726 359.47 211.664 359.39 211.586C359.31 211.507 359.247 211.414 359.203 211.31C359.16 211.207 359.137 211.096 359.137 210.984C359.137 210.871 359.16 210.759 359.203 210.655C359.246 210.551 359.309 210.456 359.389 210.376C359.469 210.296 359.564 210.233 359.668 210.19C359.773 210.146 359.884 210.124 359.997 210.124L832.789 210.124C832.902 210.124 833.014 210.146 833.118 210.19C833.223 210.233 833.317 210.296 833.397 210.376C833.477 210.456 833.54 210.551 833.584 210.655C833.627 210.759 833.649 210.871 833.649 210.984C833.649 211.096 833.627 211.207 833.583 211.31C833.54 211.414 833.476 211.507 833.396 211.586C833.316 211.664 833.221 211.726 833.117 211.767C833.013 211.809 832.901 211.829 832.789 211.826V211.826Z" fill="#60C9EB"/>
<path d="M832.789 300.293L359.997 300.293C359.885 300.296 359.773 300.276 359.669 300.234C359.565 300.193 359.47 300.131 359.39 300.053C359.31 299.975 359.246 299.881 359.203 299.778C359.159 299.674 359.137 299.563 359.137 299.451C359.137 299.223 359.228 299.005 359.389 298.843C359.55 298.682 359.769 298.591 359.997 298.591L832.789 298.591C833.017 298.591 833.235 298.682 833.397 298.843C833.558 299.005 833.648 299.223 833.648 299.451C833.649 299.563 833.626 299.674 833.583 299.778C833.539 299.881 833.476 299.975 833.396 300.053C833.316 300.131 833.221 300.193 833.116 300.234C833.012 300.276 832.901 300.296 832.789 300.293V300.293Z" fill="#60C9EB"/>
<path fill-rule="evenodd" clip-rule="evenodd" d="M360.015 302.993C359.558 302.998 359.103 302.914 358.675 302.745C358.236 302.571 357.837 302.312 357.5 301.982C357.163 301.652 356.896 301.258 356.713 300.823C356.531 300.389 356.437 299.923 356.437 299.451M360.015 302.993L832.77 302.993ZM832.77 302.993C833.227 302.998 833.683 302.914 834.111 302.745C834.549 302.571 834.948 302.312 835.285 301.982C835.622 301.652 835.89 301.258 836.072 300.823C836.255 300.389 836.349 299.923 836.349 299.451M832.789 300.293L832.806 299.451L832.845 297.594C832.826 297.593 832.807 297.593 832.789 297.593L832.789 300.293ZM357.479 296.934C358.147 296.267 359.052 295.891 359.997 295.891L832.789 295.891C833.733 295.891 834.639 296.267 835.306 296.934C835.973 297.601 836.349 298.507 836.349 299.451M357.479 296.934C356.812 297.601 356.437 298.507 356.437 299.451Z" fill="#60C9EB"/>
<path d="M832.783 388.762L359.991 388.762C359.879 388.764 359.768 388.744 359.664 388.703C359.559 388.662 359.465 388.6 359.384 388.521C359.304 388.443 359.241 388.349 359.197 388.246C359.154 388.143 359.132 388.032 359.132 387.92C359.132 387.692 359.222 387.473 359.383 387.312C359.545 387.15 359.763 387.06 359.991 387.06L832.783 387.06C833.011 387.06 833.23 387.15 833.391 387.312C833.553 387.473 833.643 387.692 833.643 387.92C833.643 388.032 833.621 388.143 833.577 388.246C833.534 388.349 833.47 388.443 833.39 388.521C833.31 388.6 833.215 388.662 833.111 388.703C833.007 388.744 832.895 388.764 832.783 388.762V388.762Z" fill="#60C9EB"/>
<path fill-rule="evenodd" clip-rule="evenodd" d="M360.01 391.462C359.553 391.467 359.097 391.383 358.669 391.213C358.231 391.039 357.831 390.78 357.495 390.45C357.158 390.12 356.89 389.726 356.708 389.292C356.525 388.857 356.431 388.391 356.431 387.92M360.01 391.462L832.765 391.462ZM832.765 391.462C833.222 391.467 833.677 391.383 834.105 391.213C834.544 391.04 834.943 390.78 835.28 390.45C835.617 390.12 835.884 389.726 836.067 389.292C836.249 388.857 836.343 388.391 836.343 387.92M832.783 388.762L832.801 387.92L832.84 386.062C832.821 386.062 832.802 386.062 832.783 386.062L832.783 388.762ZM357.474 385.402C358.141 384.735 359.047 384.36 359.991 384.36L832.783 384.36C833.728 384.36 834.633 384.735 835.301 385.402C835.968 386.07 836.343 386.975 836.343 387.92M357.474 385.402C356.807 386.07 356.432 386.975 356.431 387.92Z" fill="#60C9EB"/>
<path d="M832.789 477.227L359.997 477.227C359.885 477.23 359.773 477.209 359.669 477.168C359.565 477.127 359.47 477.065 359.39 476.987C359.31 476.908 359.246 476.815 359.203 476.711C359.159 476.608 359.137 476.497 359.137 476.385C359.137 476.157 359.228 475.938 359.389 475.777C359.55 475.616 359.769 475.525 359.997 475.525L832.789 475.525C833.017 475.525 833.235 475.616 833.397 475.777C833.558 475.938 833.648 476.157 833.648 476.385C833.649 476.497 833.626 476.608 833.583 476.711C833.539 476.815 833.476 476.908 833.396 476.987C833.316 477.065 833.221 477.127 833.116 477.168C833.012 477.209 832.901 477.23 832.789 477.227V477.227Z" fill="#60C9EB"/>
<path fill-rule="evenodd" clip-rule="evenodd" d="M360.015 479.927C359.555 479.932 359.1 479.847 358.675 479.679C358.236 479.505 357.837 479.245 357.5 478.916C357.163 478.585 356.896 478.192 356.713 477.757C356.531 477.323 356.437 476.857 356.437 476.385M360.015 479.927L832.77 479.927ZM832.77 479.927C833.231 479.932 833.686 479.847 834.111 479.679C834.549 479.505 834.948 479.245 835.285 478.916C835.622 478.585 835.89 478.192 836.072 477.757C836.254 477.323 836.349 476.857 836.349 476.385M832.789 477.227L832.806 476.385L832.845 474.528C832.826 474.527 832.807 474.527 832.789 474.527L832.789 477.227ZM357.479 473.868C358.147 473.201 359.052 472.825 359.997 472.825L832.789 472.825C833.733 472.825 834.639 473.2 835.306 473.868C835.974 474.535 836.349 475.442 836.349 476.385M357.479 473.868C356.812 474.535 356.437 475.442 356.437 476.385Z" fill="#60C9EB"/>
<path d="M832.781 565.694H359.989C359.877 565.697 359.766 565.677 359.662 565.635C359.557 565.594 359.463 565.532 359.382 565.454C359.302 565.376 359.239 565.282 359.195 565.179C359.152 565.075 359.13 564.964 359.13 564.852C359.13 564.624 359.22 564.405 359.381 564.244C359.543 564.083 359.761 563.992 359.989 563.992H832.781C833.009 563.992 833.228 564.083 833.389 564.244C833.551 564.405 833.641 564.624 833.641 564.852C833.641 564.964 833.619 565.075 833.575 565.179C833.532 565.282 833.468 565.376 833.388 565.454C833.308 565.532 833.213 565.594 833.109 565.635C833.005 565.677 832.893 565.697 832.781 565.694V565.694Z" fill="#60C9EB"/>
<path fill-rule="evenodd" clip-rule="evenodd" d="M360.008 568.394C359.551 568.399 359.095 568.315 358.667 568.146C358.229 567.972 357.829 567.712 357.493 567.383C357.156 567.053 356.888 566.659 356.706 566.224C356.523 565.79 356.429 565.323 356.429 564.852M360.008 568.394H832.763ZM832.763 568.394C833.22 568.399 833.675 568.315 834.103 568.146C834.542 567.972 834.941 567.713 835.278 567.383C835.615 567.053 835.882 566.659 836.065 566.224C836.247 565.79 836.341 565.323 836.341 564.852M832.781 565.694L832.799 564.852L832.838 562.995C832.819 562.994 832.8 562.994 832.781 562.994L832.781 565.694ZM357.472 562.335C358.139 561.668 359.045 561.292 359.989 561.292H832.781C833.726 561.292 834.631 561.668 835.299 562.335C835.966 563.002 836.341 563.908 836.341 564.852M357.472 562.335C356.805 563.002 356.43 563.908 356.429 564.852Z" fill="#60C9EB"/>
<path d="M832.788 654.157H359.996C359.884 654.159 359.773 654.139 359.669 654.098C359.564 654.057 359.469 653.995 359.389 653.917C359.309 653.838 359.246 653.745 359.202 653.641C359.159 653.538 359.136 653.427 359.136 653.315C359.136 653.087 359.227 652.868 359.388 652.707C359.55 652.546 359.768 652.455 359.996 652.455H832.788C833.016 652.455 833.235 652.546 833.396 652.707C833.557 652.868 833.648 653.087 833.648 653.315C833.648 653.427 833.626 653.538 833.582 653.641C833.539 653.745 833.475 653.838 833.395 653.917C833.315 653.995 833.22 654.057 833.116 654.098C833.012 654.139 832.9 654.159 832.788 654.157V654.157Z" fill="#60C9EB"/>
<path fill-rule="evenodd" clip-rule="evenodd" d="M360.015 656.857C359.558 656.862 359.102 656.778 358.674 656.608C358.235 656.435 357.836 656.175 357.5 655.846C357.163 655.515 356.895 655.121 356.713 654.687C356.53 654.253 356.436 653.786 356.436 653.315M360.015 656.857H832.77ZM832.77 656.857C833.227 656.862 833.682 656.778 834.11 656.608C834.549 656.435 834.948 656.175 835.285 655.846C835.622 655.515 835.889 655.121 836.072 654.687C836.254 654.253 836.348 653.786 836.348 653.315M832.788 654.157L832.806 653.315L832.844 651.457C832.826 651.457 832.807 651.457 832.788 651.457L832.788 654.157ZM357.479 650.797C358.147 650.129 359.053 649.755 359.996 649.755H832.788C833.731 649.755 834.637 650.129 835.305 650.797C835.973 651.465 836.348 652.371 836.348 653.315M357.479 650.797C356.811 651.465 356.436 652.371 356.436 653.315Z" fill="#60C9EB"/>
<path d="M832.785 742.625H359.993C359.881 742.627 359.769 742.607 359.665 742.566C359.561 742.524 359.466 742.463 359.386 742.384C359.306 742.306 359.242 742.212 359.199 742.109C359.155 742.005 359.133 741.894 359.133 741.782C359.133 741.554 359.224 741.336 359.385 741.174C359.546 741.013 359.765 740.923 359.993 740.923H832.785C833.013 740.923 833.232 741.013 833.393 741.174C833.554 741.336 833.645 741.554 833.645 741.782C833.645 741.894 833.622 742.005 833.579 742.109C833.535 742.212 833.472 742.306 833.392 742.384C833.312 742.463 833.217 742.524 833.113 742.566C833.008 742.607 832.897 742.627 832.785 742.625Z" fill="#60C9EB"/>
<path fill-rule="evenodd" clip-rule="evenodd" d="M360.011 745.325H832.766C833.227 745.329 833.682 745.244 834.107 745.076C834.545 744.902 834.945 744.643 835.281 744.313C835.618 743.983 835.886 743.589 836.068 743.155C836.251 742.72 836.345 742.254 836.345 741.782M360.011 745.325C359.551 745.329 359.096 745.244 358.671 745.076C358.232 744.902 357.833 744.643 357.496 744.313C357.159 743.983 356.892 743.589 356.709 743.155C356.527 742.72 356.433 742.254 356.433 741.782M357.476 739.265C358.143 738.598 359.048 738.222 359.993 738.222H832.785C833.729 738.222 834.635 738.598 835.302 739.265C835.969 739.932 836.345 740.837 836.345 741.782M357.476 739.265C356.808 739.932 356.433 740.837 356.433 741.782Z" fill="#60C9EB"/>
<path d="M223.232 830.244L205.933 26.2698L298.424 28.1257L322.508 414.461L321.649 834.119L223.232 830.244Z" fill="#60C9EB"/>
</svg>
