<svg width="881" height="861" viewBox="0 0 881 861" fill="none" xmlns="http://www.w3.org/2000/svg">
<path d="M864.075 822.351L320.292 827.615L224.439 828.545C224.076 561.847 217.339 295.225 204.226 28.6794C236.054 29.1473 267.976 29.5509 299.992 29.8901C491.996 31.9254 686.756 31.8377 877.638 34.7328C883.042 296.307 876.48 560.987 864.075 822.351Z" fill="white"/>
<path d="M863.545 750.334L840.213 753.829L841.134 759.978L864.467 756.484L863.545 750.334Z" fill="#E96262"/>
<path d="M860.613 585.188L837.28 588.682L838.201 594.832L861.534 591.338L860.613 585.188Z" fill="#E9AD62"/>
<path d="M582.866 614.104L573.571 635.789L579.287 638.239L588.582 616.554L582.866 614.104Z" fill="#E96262"/>
<path d="M567.289 609.28L561.633 611.863L583.639 660.066L589.296 657.483L567.289 609.28Z" fill="#E96262"/>
<path d="M554.179 627.382L552.414 633.344L575.585 640.204L577.35 634.242L554.179 627.382Z" fill="#E96262"/>
<path d="M627.229 661.062L603.897 664.557L604.818 670.707L628.151 667.212L627.229 661.062Z" fill="#E96262"/>
<path d="M616.72 644.89L587.512 689.209L592.713 692.637L621.922 648.317L616.72 644.89Z" fill="#E96262"/>
<path d="M601.115 643.403L595.115 645.036L601.458 668.354L607.459 666.721L601.115 643.403Z" fill="#E96262"/>
<path d="M743.251 618.032L733.956 639.717L739.671 642.167L748.966 620.482L743.251 618.032Z" fill="#60C9EB"/>
<path d="M727.669 613.21L722.012 615.793L744.018 663.996L749.675 661.413L727.669 613.21Z" fill="#60C9EB"/>
<path d="M714.548 631.302L712.783 637.265L735.954 644.125L737.719 638.162L714.548 631.302Z" fill="#60C9EB"/>
<path d="M787.602 664.977L764.269 668.471L765.19 674.621L788.523 671.127L787.602 664.977Z" fill="#60C9EB"/>
<path d="M776.41 648.03L747.202 692.35L752.403 695.777L781.611 651.458L776.41 648.03Z" fill="#60C9EB"/>
<path d="M761.513 647.32L755.512 648.952L761.856 672.27L767.856 670.638L761.513 647.32Z" fill="#60C9EB"/>
<path d="M423.745 611.918L414.45 633.603L420.166 636.053L429.461 614.368L423.745 611.918Z" fill="#E9AD62"/>
<path d="M408.169 607.092L402.512 609.674L424.518 657.877L430.175 655.294L408.169 607.092Z" fill="#E9AD62"/>
<path d="M395.068 625.202L393.302 631.165L416.473 638.025L418.239 632.062L395.068 625.202Z" fill="#E9AD62"/>
<path d="M468.109 658.884L444.776 662.379L445.697 668.529L469.03 665.034L468.109 658.884Z" fill="#E9AD62"/>
<path d="M458.288 643.475L429.08 687.794L434.281 691.222L463.489 646.903L458.288 643.475Z" fill="#E9AD62"/>
<path d="M442.009 641.195L436.008 642.827L442.352 666.145L448.352 664.513L442.009 641.195Z" fill="#E9AD62"/>
<path d="M366.674 690.06L357.379 711.745L363.094 714.195L372.389 692.51L366.674 690.06Z" fill="#FFE600"/>
<path d="M351.1 685.225L345.443 687.807L367.449 736.01L373.106 733.427L351.1 685.225Z" fill="#FFE600"/>
<path d="M337.99 703.288L336.225 709.251L359.396 716.111L361.161 710.148L337.99 703.288Z" fill="#FFE600"/>
<path d="M411.042 737.016L387.709 740.511L388.63 746.661L411.963 743.166L411.042 737.016Z" fill="#FFE600"/>
<path d="M401.846 721.535L372.638 765.855L377.839 769.282L407.048 724.963L401.846 721.535Z" fill="#FFE600"/>
<path d="M384.936 719.328L378.936 720.96L385.279 744.278L391.279 742.645L384.936 719.328Z" fill="#FFE600"/>
<path d="M515.768 695.567L506.473 717.252L512.189 719.702L521.484 698.017L515.768 695.567Z" fill="#60C9EB"/>
<path d="M500.187 690.74L494.53 693.323L516.536 741.526L522.193 738.943L500.187 690.74Z" fill="#60C9EB"/>
<path d="M487.089 708.852L485.324 714.814L508.495 721.674L510.26 715.712L487.089 708.852Z" fill="#60C9EB"/>
<path d="M560.135 742.525L536.802 746.019L537.723 752.169L561.056 748.674L560.135 742.525Z" fill="#60C9EB"/>
<path d="M550.306 726.311L521.098 770.63L526.299 774.058L555.507 729.739L550.306 726.311Z" fill="#60C9EB"/>
<path d="M534.032 724.844L528.032 726.477L534.375 749.794L540.376 748.162L534.032 724.844Z" fill="#60C9EB"/>
<path d="M666.462 699.545L657.167 721.23L662.882 723.68L672.177 701.995L666.462 699.545Z" fill="#E9AD62"/>
<path d="M650.885 694.709L645.228 697.292L667.234 745.495L672.891 742.912L650.885 694.709Z" fill="#E9AD62"/>
<path d="M637.773 712.812L636.007 718.774L659.178 725.634L660.944 719.672L637.773 712.812Z" fill="#E9AD62"/>
<path d="M710.825 746.497L687.492 749.992L688.413 756.142L711.746 752.647L710.825 746.497Z" fill="#E9AD62"/>
<path d="M700.353 729.548L671.144 773.867L676.346 777.295L705.554 732.976L700.353 729.548Z" fill="#E9AD62"/>
<path d="M684.721 728.83L678.721 730.462L685.064 753.78L691.065 752.148L684.721 728.83Z" fill="#E9AD62"/>
<path d="M819.194 703.394L809.899 725.079L815.615 727.529L824.91 705.843L819.194 703.394Z" fill="#E96262"/>
<path d="M803.604 698.567L797.947 701.15L819.953 749.353L825.61 746.77L803.604 698.567Z" fill="#E96262"/>
<path d="M790.482 716.652L788.716 722.615L811.888 729.475L813.653 723.512L790.482 716.652Z" fill="#E96262"/>
<path d="M852.426 732.648L823.217 776.968L828.419 780.395L857.627 736.076L852.426 732.648Z" fill="#E96262"/>
<path d="M837.449 732.678L831.448 734.31L837.792 757.628L843.792 755.996L837.449 732.678Z" fill="#E96262"/>
<path d="M579.777 449.044L570.482 470.729L576.198 473.179L585.493 451.494L579.777 449.044Z" fill="#E96262"/>
<path d="M564.196 444.222L558.539 446.805L580.545 495.007L586.202 492.425L564.196 444.222Z" fill="#E96262"/>
<path d="M551.07 462.281L549.305 468.243L572.476 475.103L574.241 469.141L551.07 462.281Z" fill="#E96262"/>
<path d="M624.297 495.892L600.964 499.387L601.886 505.537L625.218 502.042L624.297 495.892Z" fill="#E96262"/>
<path d="M612.853 480.566L583.645 524.885L588.846 528.313L618.055 483.994L612.853 480.566Z" fill="#E96262"/>
<path d="M598.013 478.354L592.012 479.986L598.356 503.304L604.356 501.672L598.013 478.354Z" fill="#E96262"/>
<path d="M740.157 452.967L730.862 474.652L736.578 477.102L745.873 455.417L740.157 452.967Z" fill="#FFE600"/>
<path d="M724.587 448.134L718.93 450.717L740.936 498.919L746.593 496.337L724.587 448.134Z" fill="#FFE600"/>
<path d="M711.448 466.257L709.682 472.22L732.854 479.08L734.619 473.117L711.448 466.257Z" fill="#FFE600"/>
<path d="M784.51 499.922L761.177 503.416L762.099 509.566L785.432 506.072L784.51 499.922Z" fill="#FFE600"/>
<path d="M772.546 483.709L743.338 528.028L748.539 531.455L777.747 487.136L772.546 483.709Z" fill="#FFE600"/>
<path d="M758.416 482.27L752.415 483.903L758.759 507.221L764.759 505.588L758.416 482.27Z" fill="#FFE600"/>
<path d="M420.65 446.856L411.355 468.541L417.071 470.991L426.366 449.306L420.65 446.856Z" fill="#60C9EB"/>
<path d="M405.087 442.024L399.43 444.607L421.436 492.809L427.093 490.227L405.087 442.024Z" fill="#60C9EB"/>
<path d="M391.958 460.102L390.192 466.065L413.363 472.925L415.129 466.962L391.958 460.102Z" fill="#60C9EB"/>
<path d="M465.746 495.576L442.413 499.07L443.334 505.22L466.667 501.726L465.746 495.576Z" fill="#60C9EB"/>
<path d="M454.42 479.153L425.212 523.472L430.413 526.9L459.621 482.581L454.42 479.153Z" fill="#60C9EB"/>
<path d="M439.492 478.026L433.491 479.658L439.834 502.976L445.835 501.344L439.492 478.026Z" fill="#60C9EB"/>
<path d="M363.578 525L354.283 546.685L359.999 549.135L369.294 527.45L363.578 525Z" fill="#E96262"/>
<path d="M348.012 520.154L342.355 522.737L364.361 570.94L370.018 568.357L348.012 520.154Z" fill="#E96262"/>
<path d="M334.908 538.286L333.142 544.249L356.313 551.109L358.079 545.146L334.908 538.286Z" fill="#E96262"/>
<path d="M408.518 573.841L385.185 577.336L386.107 583.486L409.439 579.991L408.518 573.841Z" fill="#E96262"/>
<path d="M397.972 557.218L368.764 601.537L373.965 604.965L403.173 560.646L397.972 557.218Z" fill="#E96262"/>
<path d="M382.419 556.147L376.419 557.779L382.762 581.097L388.762 579.465L382.419 556.147Z" fill="#E96262"/>
<path d="M512.673 530.506L503.378 552.191L509.093 554.641L518.388 532.956L512.673 530.506Z" fill="#FFE600"/>
<path d="M497.092 525.682L491.435 528.265L513.441 576.467L519.098 573.885L497.092 525.682Z" fill="#FFE600"/>
<path d="M483.981 543.738L482.216 549.701L505.387 556.561L507.152 550.598L483.981 543.738Z" fill="#FFE600"/>
<path d="M557.19 577.348L533.858 580.843L534.779 586.992L558.112 583.498L557.19 577.348Z" fill="#FFE600"/>
<path d="M546.439 561.995L517.23 606.314L522.432 609.742L551.64 565.423L546.439 561.995Z" fill="#FFE600"/>
<path d="M530.928 559.795L524.928 561.427L531.271 584.745L537.272 583.113L530.928 559.795Z" fill="#FFE600"/>
<path d="M663.377 534.479L654.082 556.164L659.797 558.614L669.092 536.929L663.377 534.479Z" fill="#E9AD62"/>
<path d="M647.79 529.654L642.133 532.236L664.139 580.439L669.796 577.857L647.79 529.654Z" fill="#E9AD62"/>
<path d="M634.663 547.71L632.897 553.673L656.068 560.533L657.834 554.57L634.663 547.71Z" fill="#E9AD62"/>
<path d="M707.886 581.333L684.553 584.828L685.474 590.978L708.807 587.483L707.886 581.333Z" fill="#E9AD62"/>
<path d="M696.485 565.232L667.277 609.551L672.478 612.979L701.686 568.66L696.485 565.232Z" fill="#E9AD62"/>
<path d="M681.612 563.792L675.612 565.424L681.955 588.742L687.956 587.11L681.612 563.792Z" fill="#E9AD62"/>
<path d="M816.099 538.326L806.804 560.011L812.52 562.461L821.815 540.776L816.099 538.326Z" fill="#E9AD62"/>
<path d="M800.517 533.497L794.86 536.079L816.866 584.282L822.523 581.699L800.517 533.497Z" fill="#E9AD62"/>
<path d="M787.379 551.553L785.614 557.515L808.785 564.375L810.55 558.413L787.379 551.553Z" fill="#E9AD62"/>
<path d="M848.557 568.327L819.349 612.646L824.55 616.074L853.758 571.755L848.557 568.327Z" fill="#E9AD62"/>
<path d="M834.352 567.624L828.352 569.256L834.695 592.574L840.696 590.942L834.352 567.624Z" fill="#E9AD62"/>
<path d="M360.074 363.822L350.779 385.508L356.495 387.957L365.79 366.272L360.074 363.822Z" fill="#FFE600"/>
<path d="M344.505 359.004L338.848 361.587L360.854 409.789L366.511 407.207L344.505 359.004Z" fill="#FFE600"/>
<path d="M331.388 377.07L329.623 383.033L352.794 389.893L354.559 383.93L331.388 377.07Z" fill="#FFE600"/>
<path d="M405.015 412.674L381.682 416.169L382.603 422.319L405.936 418.824L405.015 412.674Z" fill="#FFE600"/>
<path d="M393.72 396.775L364.512 441.094L369.713 444.522L398.921 400.203L393.72 396.775Z" fill="#FFE600"/>
<path d="M378.932 394.976L372.931 396.608L379.274 419.926L385.275 418.294L378.932 394.976Z" fill="#FFE600"/>
<path d="M509.17 369.328L499.875 391.013L505.591 393.463L514.886 371.778L509.17 369.328Z" fill="#60C9EB"/>
<path d="M493.592 364.514L487.935 367.097L509.941 415.299L515.598 412.717L493.592 364.514Z" fill="#60C9EB"/>
<path d="M480.48 382.634L478.715 388.597L501.886 395.457L503.651 389.494L480.48 382.634Z" fill="#60C9EB"/>
<path d="M553.528 416.296L530.195 419.791L531.116 425.941L554.449 422.446L553.528 416.296Z" fill="#60C9EB"/>
<path d="M542.176 401.548L512.968 445.867L518.169 449.295L547.377 404.976L542.176 401.548Z" fill="#60C9EB"/>
<path d="M527.428 398.628L521.427 400.26L527.77 423.578L533.771 421.946L527.428 398.628Z" fill="#60C9EB"/>
<path d="M659.876 373.311L650.581 394.996L656.297 397.446L665.592 375.761L659.876 373.311Z" fill="#E9AD62"/>
<path d="M644.297 368.481L638.64 371.064L660.646 419.267L666.303 416.684L644.297 368.481Z" fill="#E9AD62"/>
<path d="M631.163 386.6L629.398 392.563L652.569 399.423L654.334 393.46L631.163 386.6Z" fill="#E9AD62"/>
<path d="M704.223 420.269L680.89 423.764L681.811 429.914L705.144 426.419L704.223 420.269Z" fill="#E9AD62"/>
<path d="M692.227 404.787L663.019 449.106L668.22 452.534L697.428 408.215L692.227 404.787Z" fill="#E9AD62"/>
<path d="M678.145 402.603L672.145 404.235L678.488 427.553L684.489 425.921L678.145 402.603Z" fill="#E9AD62"/>
<path d="M812.602 377.153L803.307 398.838L809.023 401.288L818.318 379.603L812.602 377.153Z" fill="#E96262"/>
<path d="M797.01 372.334L791.353 374.917L813.359 423.119L819.016 420.537L797.01 372.334Z" fill="#E96262"/>
<path d="M783.873 390.449L782.108 396.411L805.279 403.271L807.044 397.309L783.873 390.449Z" fill="#E96262"/>
<path d="M856.939 424.113L833.606 427.608L834.527 433.758L857.86 430.263L856.939 424.113Z" fill="#E96262"/>
<path d="M844.296 407.887L815.088 452.207L820.289 455.634L849.497 411.315L844.296 407.887Z" fill="#E96262"/>
<path d="M830.853 406.469L824.852 408.101L831.195 431.419L837.196 429.787L830.853 406.469Z" fill="#E96262"/>
<path d="M857.098 423.974L833.765 427.468L834.686 433.618L858.019 430.124L857.098 423.974Z" fill="#E96262"/>
<path d="M854.165 258.828L830.832 262.323L831.753 268.472L855.086 264.978L854.165 258.828Z" fill="#E9AD62"/>
<path d="M576.418 287.744L567.123 309.429L572.839 311.879L582.134 290.194L576.418 287.744Z" fill="#E96262"/>
<path d="M560.842 282.92L555.185 285.503L577.191 333.705L582.848 331.123L560.842 282.92Z" fill="#E96262"/>
<path d="M547.732 301.022L545.966 306.985L569.137 313.845L570.903 307.882L547.732 301.022Z" fill="#E96262"/>
<path d="M620.781 334.703L597.449 338.197L598.37 344.347L621.703 340.853L620.781 334.703Z" fill="#E96262"/>
<path d="M610.272 318.53L581.064 362.849L586.266 366.277L615.474 321.957L610.272 318.53Z" fill="#E96262"/>
<path d="M594.668 317.043L588.667 318.675L595.011 341.993L601.011 340.361L594.668 317.043Z" fill="#E96262"/>
<path d="M736.803 291.672L727.508 313.358L733.224 315.807L742.519 294.122L736.803 291.672Z" fill="#60C9EB"/>
<path d="M721.221 286.85L715.565 289.433L737.571 337.635L743.228 335.053L721.221 286.85Z" fill="#60C9EB"/>
<path d="M708.1 304.942L706.335 310.905L729.506 317.765L731.271 311.802L708.1 304.942Z" fill="#60C9EB"/>
<path d="M781.154 338.616L757.821 342.111L758.742 348.261L782.075 344.766L781.154 338.616Z" fill="#60C9EB"/>
<path d="M769.962 321.67L740.754 365.99L745.955 369.417L775.164 325.098L769.962 321.67Z" fill="#60C9EB"/>
<path d="M755.065 320.959L749.064 322.591L755.408 345.909L761.408 344.277L755.065 320.959Z" fill="#60C9EB"/>
<path d="M417.298 285.558L408.003 307.243L413.718 309.693L423.013 288.008L417.298 285.558Z" fill="#E9AD62"/>
<path d="M401.721 280.731L396.064 283.313L418.07 331.516L423.727 328.933L401.721 280.731Z" fill="#E9AD62"/>
<path d="M388.62 298.842L386.854 304.805L410.025 311.665L411.791 305.702L388.62 298.842Z" fill="#E9AD62"/>
<path d="M461.661 332.524L438.329 336.018L439.25 342.168L462.583 338.673L461.661 332.524Z" fill="#E9AD62"/>
<path d="M451.84 317.115L422.632 361.434L427.833 364.862L457.041 320.542L451.84 317.115Z" fill="#E9AD62"/>
<path d="M435.561 314.835L429.56 316.467L435.904 339.785L441.904 338.153L435.561 314.835Z" fill="#E9AD62"/>
<path d="M360.226 363.7L350.931 385.385L356.646 387.835L365.941 366.15L360.226 363.7Z" fill="#FFE600"/>
<path d="M344.652 358.865L338.995 361.447L361.001 409.65L366.658 407.067L344.652 358.865Z" fill="#FFE600"/>
<path d="M331.542 376.927L329.777 382.89L352.948 389.75L354.713 383.787L331.542 376.927Z" fill="#FFE600"/>
<path d="M404.593 410.655L381.26 414.15L382.182 420.3L405.515 416.805L404.593 410.655Z" fill="#FFE600"/>
<path d="M395.399 395.176L366.191 439.495L371.392 442.923L400.6 398.604L395.399 395.176Z" fill="#FFE600"/>
<path d="M378.489 392.968L372.488 394.6L378.831 417.918L384.832 416.286L378.489 392.968Z" fill="#FFE600"/>
<path d="M509.32 369.207L500.025 390.892L505.741 393.342L515.036 371.657L509.32 369.207Z" fill="#60C9EB"/>
<path d="M493.739 364.381L488.082 366.963L510.088 415.166L515.745 412.583L493.739 364.381Z" fill="#60C9EB"/>
<path d="M480.641 382.492L478.876 388.454L502.047 395.314L503.813 389.352L480.641 382.492Z" fill="#60C9EB"/>
<path d="M553.687 416.164L530.354 419.659L531.275 425.809L554.608 422.314L553.687 416.164Z" fill="#60C9EB"/>
<path d="M543.858 399.951L514.65 444.27L519.851 447.698L549.059 403.379L543.858 399.951Z" fill="#60C9EB"/>
<path d="M527.585 398.484L521.584 400.116L527.928 423.434L533.928 421.801L527.585 398.484Z" fill="#60C9EB"/>
<path d="M660.014 373.184L650.719 394.87L656.435 397.319L665.73 375.634L660.014 373.184Z" fill="#E9AD62"/>
<path d="M644.438 368.349L638.781 370.932L660.787 419.134L666.444 416.552L644.438 368.349Z" fill="#E9AD62"/>
<path d="M631.325 386.452L629.559 392.415L652.73 399.275L654.496 393.312L631.325 386.452Z" fill="#E9AD62"/>
<path d="M704.377 420.137L681.044 423.632L681.965 429.782L705.298 426.287L704.377 420.137Z" fill="#E9AD62"/>
<path d="M693.905 403.188L664.697 447.507L669.898 450.935L699.106 406.616L693.905 403.188Z" fill="#E9AD62"/>
<path d="M678.273 402.47L672.273 404.103L678.616 427.421L684.617 425.788L678.273 402.47Z" fill="#E9AD62"/>
<path d="M812.747 377.034L803.452 398.719L809.167 401.169L818.462 379.484L812.747 377.034Z" fill="#E96262"/>
<path d="M797.157 372.207L791.5 374.789L813.506 422.992L819.163 420.409L797.157 372.207Z" fill="#E96262"/>
<path d="M784.034 390.292L782.269 396.255L805.44 403.115L807.205 397.152L784.034 390.292Z" fill="#E96262"/>
<path d="M845.978 406.289L816.77 450.608L821.971 454.036L851.179 409.716L845.978 406.289Z" fill="#E96262"/>
<path d="M831.001 406.317L825 407.949L831.344 431.267L837.344 429.635L831.001 406.317Z" fill="#E96262"/>
<path d="M573.329 122.684L564.034 144.369L569.75 146.819L579.045 125.134L573.329 122.684Z" fill="#E96262"/>
<path d="M557.748 117.862L552.091 120.444L574.097 168.647L579.754 166.064L557.748 117.862Z" fill="#E96262"/>
<path d="M544.623 135.92L542.857 141.883L566.028 148.743L567.794 142.78L544.623 135.92Z" fill="#E96262"/>
<path d="M617.849 169.532L594.517 173.027L595.438 179.177L618.771 175.682L617.849 169.532Z" fill="#E96262"/>
<path d="M606.405 154.206L577.197 198.525L582.399 201.953L611.607 157.634L606.405 154.206Z" fill="#E96262"/>
<path d="M591.565 151.994L585.565 153.626L591.908 176.944L597.908 175.312L591.565 151.994Z" fill="#E96262"/>
<path d="M733.71 126.606L724.415 148.291L730.13 150.741L739.425 129.056L733.71 126.606Z" fill="#FFE600"/>
<path d="M718.139 121.774L712.482 124.357L734.488 172.559L740.145 169.977L718.139 121.774Z" fill="#FFE600"/>
<path d="M704.999 139.897L703.234 145.859L726.405 152.719L728.171 146.757L704.999 139.897Z" fill="#FFE600"/>
<path d="M778.063 173.562L754.73 177.056L755.651 183.206L778.984 179.712L778.063 173.562Z" fill="#FFE600"/>
<path d="M766.098 157.349L736.89 201.668L742.091 205.096L771.299 160.777L766.098 157.349Z" fill="#FFE600"/>
<path d="M751.968 155.91L745.968 157.543L752.311 180.86L758.312 179.228L751.968 155.91Z" fill="#FFE600"/>
<path d="M414.202 120.496L404.907 142.181L410.623 144.631L419.918 122.946L414.202 120.496Z" fill="#60C9EB"/>
<path d="M398.639 115.664L392.982 118.246L414.988 166.449L420.645 163.867L398.639 115.664Z" fill="#60C9EB"/>
<path d="M385.51 133.742L383.744 139.704L406.915 146.564L408.681 140.601L385.51 133.742Z" fill="#60C9EB"/>
<path d="M459.298 169.216L435.965 172.71L436.887 178.86L460.22 175.366L459.298 169.216Z" fill="#60C9EB"/>
<path d="M447.972 152.793L418.764 197.112L423.965 200.54L453.173 156.22L447.972 152.793Z" fill="#60C9EB"/>
<path d="M433.044 151.666L427.043 153.298L433.387 176.616L439.387 174.984L433.044 151.666Z" fill="#60C9EB"/>
<path d="M357.13 198.64L347.835 220.325L353.551 222.775L362.846 201.09L357.13 198.64Z" fill="#E96262"/>
<path d="M341.565 193.795L335.908 196.377L357.914 244.58L363.571 241.997L341.565 193.795Z" fill="#E96262"/>
<path d="M328.46 211.926L326.695 217.889L349.866 224.749L351.631 218.786L328.46 211.926Z" fill="#E96262"/>
<path d="M402.071 247.481L378.738 250.975L379.659 257.125L402.992 253.63L402.071 247.481Z" fill="#E96262"/>
<path d="M391.524 230.858L362.316 275.177L367.517 278.605L396.725 234.286L391.524 230.858Z" fill="#E96262"/>
<path d="M375.971 229.786L369.971 231.419L376.314 254.737L382.315 253.104L375.971 229.786Z" fill="#E96262"/>
<path d="M506.225 204.147L496.93 225.832L502.646 228.282L511.941 206.597L506.225 204.147Z" fill="#FFE600"/>
<path d="M490.645 199.323L484.988 201.905L506.994 250.108L512.651 247.525L490.645 199.323Z" fill="#FFE600"/>
<path d="M477.533 217.377L475.767 223.34L498.938 230.2L500.704 224.237L477.533 217.377Z" fill="#FFE600"/>
<path d="M550.743 250.988L527.41 254.483L528.331 260.633L551.664 257.138L550.743 250.988Z" fill="#FFE600"/>
<path d="M539.99 235.635L510.782 279.954L515.983 283.382L545.191 239.063L539.99 235.635Z" fill="#FFE600"/>
<path d="M524.481 233.435L518.48 235.067L524.824 258.385L530.824 256.753L524.481 233.435Z" fill="#FFE600"/>
<path d="M656.929 208.12L647.634 229.805L653.349 232.254L662.644 210.569L656.929 208.12Z" fill="#E9AD62"/>
<path d="M641.343 203.294L635.686 205.877L657.692 254.08L663.349 251.497L641.343 203.294Z" fill="#E9AD62"/>
<path d="M628.214 221.35L626.449 227.313L649.62 234.173L651.386 228.21L628.214 221.35Z" fill="#E9AD62"/>
<path d="M701.438 254.973L678.105 258.468L679.026 264.618L702.359 261.123L701.438 254.973Z" fill="#E9AD62"/>
<path d="M690.037 238.872L660.829 283.192L666.03 286.619L695.238 242.3L690.037 238.872Z" fill="#E9AD62"/>
<path d="M675.165 237.432L669.164 239.064L675.508 262.382L681.508 260.75L675.165 237.432Z" fill="#E9AD62"/>
<path d="M809.651 211.966L800.356 233.651L806.072 236.101L815.367 214.416L809.651 211.966Z" fill="#E9AD62"/>
<path d="M794.069 207.136L788.412 209.719L810.418 257.921L816.075 255.339L794.069 207.136Z" fill="#E9AD62"/>
<path d="M780.931 225.193L779.166 231.156L802.337 238.016L804.102 232.053L780.931 225.193Z" fill="#E9AD62"/>
<path d="M842.109 241.967L812.901 286.286L818.102 289.713L847.311 245.394L842.109 241.967Z" fill="#E9AD62"/>
<path d="M827.904 241.264L821.904 242.896L828.247 266.214L834.247 264.582L827.904 241.264Z" fill="#E9AD62"/>
<path d="M353.627 37.4629L344.332 59.1479L350.047 61.5979L359.342 39.9128L353.627 37.4629Z" fill="#FFE600"/>
<path d="M338.057 32.6441L332.4 35.2266L354.406 83.4292L360.063 80.8466L338.057 32.6441Z" fill="#FFE600"/>
<path d="M324.94 50.7101L323.175 56.6729L346.346 63.5328L348.111 57.5701L324.94 50.7101Z" fill="#FFE600"/>
<path d="M398.567 86.3138L375.235 89.8085L376.156 95.9585L399.489 92.4638L398.567 86.3138Z" fill="#FFE600"/>
<path d="M387.273 70.4148L358.064 114.734L363.266 118.162L392.474 73.8426L387.273 70.4148Z" fill="#FFE600"/>
<path d="M372.484 68.6159L366.484 70.2482L372.827 93.5662L378.827 91.9338L372.484 68.6159Z" fill="#FFE600"/>
<path d="M502.722 42.9684L493.427 64.6535L499.143 67.1034L508.438 45.4184L502.722 42.9684Z" fill="#60C9EB"/>
<path d="M487.144 38.1544L481.487 40.7369L503.493 88.9395L509.15 86.3569L487.144 38.1544Z" fill="#60C9EB"/>
<path d="M474.032 56.274L472.266 62.2368L495.437 69.0967L497.203 63.134L474.032 56.274Z" fill="#60C9EB"/>
<path d="M547.08 89.9352L523.747 93.4299L524.668 99.5799L548.001 96.0852L547.08 89.9352Z" fill="#60C9EB"/>
<path d="M535.729 75.1876L506.52 119.507L511.722 122.935L540.93 78.6154L535.729 75.1876Z" fill="#60C9EB"/>
<path d="M520.98 72.2681L514.98 73.9005L521.323 97.2184L527.324 95.586L520.98 72.2681Z" fill="#60C9EB"/>
<path d="M653.428 46.9505L644.133 68.6355L649.849 71.0854L659.144 49.4004L653.428 46.9505Z" fill="#E9AD62"/>
<path d="M637.849 42.1206L632.192 44.7031L654.198 92.9057L659.855 90.3231L637.849 42.1206Z" fill="#E9AD62"/>
<path d="M624.715 60.2403L622.95 66.2031L646.121 73.0631L647.886 67.1003L624.715 60.2403Z" fill="#E9AD62"/>
<path d="M697.775 93.9084L674.442 97.4031L675.364 103.553L698.697 100.058L697.775 93.9084Z" fill="#E9AD62"/>
<path d="M685.779 78.4274L656.571 122.747L661.772 126.174L690.98 81.8552L685.779 78.4274Z" fill="#E9AD62"/>
<path d="M671.697 76.2433L665.697 77.8757L672.04 101.194L678.041 99.5613L671.697 76.2433Z" fill="#E9AD62"/>
<path d="M806.154 50.793L796.859 72.478L802.575 74.9279L811.87 53.2429L806.154 50.793Z" fill="#E96262"/>
<path d="M790.562 45.9743L784.905 48.5569L806.911 96.7594L812.568 94.1769L790.562 45.9743Z" fill="#E96262"/>
<path d="M777.426 64.0883L775.66 70.051L798.832 76.911L800.597 70.9483L777.426 64.0883Z" fill="#E96262"/>
<path d="M850.49 97.752L827.158 101.247L828.079 107.397L851.412 103.902L850.49 97.752Z" fill="#E96262"/>
<path d="M837.848 81.5275L808.64 125.847L813.841 129.274L843.049 84.9553L837.848 81.5275Z" fill="#E96262"/>
<path d="M824.405 80.1092L818.405 81.7415L824.748 105.059L830.748 103.427L824.405 80.1092Z" fill="#E96262"/>
<path d="M878.772 28.5782C878.745 27.4778 878.293 26.4305 877.511 25.6554C876.73 24.8804 875.679 24.4376 874.578 24.4198C763.179 22.6652 648.639 22.0511 537.872 21.3844C480.409 21.051 421.543 20.6826 362.992 20.1913C340.884 19.9924 318.858 19.7818 296.914 19.5595C266.104 19.2613 233.889 18.8577 201.166 18.3489C200.584 18.3344 200.005 18.4425 199.467 18.6662C198.929 18.8899 198.444 19.2242 198.043 19.6474C197.64 20.0654 197.327 20.561 197.122 21.1039C196.917 21.6468 196.824 22.2258 196.85 22.8056C209.869 287.907 216.677 556.955 217.063 822.478C217.058 823.037 217.165 823.592 217.376 824.111C217.588 824.629 217.9 825.1 218.295 825.497C218.69 825.893 219.16 826.207 219.677 826.421C220.195 826.635 220.749 826.744 221.309 826.741V826.741L317.162 825.794L362.957 825.355L860.945 820.548C862.031 820.535 863.072 820.109 863.854 819.356C864.637 818.603 865.102 817.579 865.156 816.495C879.175 521.952 883.649 264.22 878.772 28.5782ZM313.074 817.337L225.555 818.196C225.116 555.411 218.396 289.275 205.57 26.8763C235.398 27.3149 264.753 27.6834 292.984 27.9817C317.839 290.324 324.551 554.07 313.074 817.337V817.337ZM856.874 812.073L362.992 816.828L321.601 817.249C333.026 554.058 326.325 290.393 301.546 28.122C321.935 28.3325 342.405 28.5255 362.957 28.701C421.49 29.1923 480.339 29.5256 537.784 29.8941C647.166 30.5433 760.231 31.2101 870.314 32.8594C875.034 266.132 870.63 521.109 856.874 812.073Z" fill="#60C9EB"/>
<path fill-rule="evenodd" clip-rule="evenodd" d="M199.415 18.5415C199.97 18.3107 200.568 18.1991 201.169 18.2139C233.892 18.7227 266.105 19.1263 296.915 19.4245C318.86 19.6468 340.885 19.8574 362.993 20.0563C421.544 20.5476 480.41 20.916 537.873 21.2494C544.622 21.29 551.386 21.3304 558.162 21.3709C662.587 21.9952 769.968 22.6371 874.58 24.2848C875.716 24.3032 876.8 24.76 877.606 25.5596C878.413 26.3592 878.879 27.4396 878.906 28.5754C883.784 264.221 879.31 521.956 865.291 816.501C865.235 817.62 864.755 818.676 863.948 819.453C863.14 820.23 862.067 820.67 860.946 820.683L221.31 826.876C220.732 826.879 220.16 826.766 219.626 826.546C219.092 826.325 218.607 826.001 218.199 825.592C217.792 825.183 217.469 824.697 217.251 824.162C217.033 823.627 216.923 823.055 216.928 822.477C216.542 556.957 209.734 287.911 196.715 22.8122C196.689 22.2141 196.784 21.6163 196.996 21.0562C197.207 20.4963 197.53 19.9853 197.945 19.5541C198.359 19.1174 198.859 18.7724 199.415 18.5415ZM201.163 18.4838C200.599 18.4698 200.039 18.5744 199.518 18.7909C198.998 19.0073 198.529 19.3308 198.141 19.7402L198.14 19.741C197.75 20.1459 197.447 20.6258 197.248 21.1516C197.05 21.6773 196.96 22.2379 196.985 22.7993C210.004 287.902 216.812 556.953 217.198 822.477L217.198 822.479C217.193 823.021 217.296 823.558 217.501 824.06C217.706 824.561 218.008 825.018 218.391 825.401C218.773 825.785 219.228 826.089 219.729 826.296C220.23 826.503 220.766 826.609 221.308 826.606L860.943 820.413C861.995 820.401 863.003 819.988 863.761 819.259C864.518 818.529 864.969 817.538 865.021 816.488C879.04 521.947 883.514 264.219 878.637 28.5815C878.61 27.5159 878.173 26.5018 877.416 25.7513C876.659 25.0008 875.642 24.572 874.576 24.5548C769.965 22.9071 662.585 22.2652 558.16 21.641C551.384 21.6005 544.621 21.56 537.871 21.5194C480.408 21.186 421.542 20.8176 362.991 20.3263C340.883 20.1274 318.857 19.9168 296.913 19.6946C266.102 19.3963 233.887 18.9927 201.164 18.4839L201.163 18.4838ZM205.428 26.7392L205.572 26.7413C235.4 27.1799 264.754 27.5484 292.985 27.8467L293.107 27.8479L293.118 27.9689C317.974 290.318 324.686 554.069 313.209 817.343L313.074 817.337L313.075 817.472L225.42 818.333L225.42 818.197C224.981 555.414 218.261 289.28 205.435 26.8829L205.428 26.7392ZM312.945 817.203C324.412 554.025 317.702 290.369 292.861 28.1154C264.712 27.8178 235.448 27.4505 205.712 27.0134C218.531 289.323 225.249 555.365 225.69 818.06L312.945 817.203ZM301.398 27.9854L301.548 27.987C321.936 28.1975 342.406 28.3905 362.958 28.566C408.888 28.9515 455.012 29.2398 500.5 29.524C512.982 29.6021 525.416 29.6798 537.785 29.7591L539.196 29.7675C648.138 30.4141 760.706 31.0821 870.316 32.7244L870.447 32.7263L870.449 32.8566C875.169 266.133 870.765 521.113 857.009 812.079L857.003 812.207L321.46 817.385L321.466 817.243C332.891 554.058 326.19 290.399 301.412 28.1347L301.398 27.9854ZM301.695 28.2585C326.458 290.439 333.157 554.013 321.742 817.112L856.745 811.939C870.494 521.085 874.897 266.192 870.182 32.9924C760.614 31.3516 648.094 30.6838 539.194 30.0375L537.784 30.0291C525.414 29.9498 512.98 29.8721 500.498 29.7941C455.01 29.5098 408.886 29.2215 362.956 28.836C342.454 28.661 322.034 28.4685 301.695 28.2585Z" fill="#60C9EB"/>
<path d="M832.735 123.362L359.943 123.362C359.831 123.365 359.719 123.344 359.615 123.303C359.511 123.262 359.416 123.2 359.336 123.122C359.256 123.043 359.192 122.95 359.149 122.846C359.105 122.743 359.083 122.632 359.083 122.52C359.083 122.292 359.174 122.073 359.335 121.912C359.496 121.751 359.715 121.66 359.943 121.66L832.735 121.66C832.963 121.66 833.182 121.751 833.343 121.912C833.504 122.073 833.595 122.292 833.595 122.52C833.595 122.632 833.572 122.743 833.529 122.846C833.485 122.95 833.422 123.043 833.342 123.122C833.262 123.2 833.167 123.262 833.062 123.303C832.958 123.344 832.847 123.365 832.735 123.362V123.362Z" fill="#60C9EB"/>
<path fill-rule="evenodd" clip-rule="evenodd" d="M359.961 126.062C359.503 126.067 359.047 125.983 358.621 125.814C358.183 125.64 357.784 125.381 357.446 125.051C357.109 124.721 356.842 124.327 356.659 123.892C356.477 123.458 356.383 122.991 356.383 122.52M359.961 126.062L832.716 126.062ZM832.716 126.062C833.175 126.067 833.63 125.983 834.057 125.814C834.494 125.641 834.894 125.382 835.231 125.051C835.568 124.721 835.836 124.327 836.018 123.892C836.201 123.458 836.295 122.991 836.295 122.52M832.735 123.362L832.752 122.52L832.791 120.663C832.772 120.662 832.754 120.662 832.735 120.662L832.735 123.362ZM357.426 120.003C358.093 119.335 358.999 118.96 359.943 118.96L832.735 118.96C833.678 118.96 834.584 119.335 835.252 120.003C835.919 120.67 836.295 121.576 836.295 122.52M357.426 120.003C356.758 120.67 356.383 121.576 356.383 122.52Z" fill="#60C9EB"/>
<path d="M832.74 211.826L359.948 211.826C359.836 211.829 359.724 211.809 359.62 211.767C359.516 211.726 359.421 211.664 359.341 211.586C359.261 211.507 359.197 211.414 359.154 211.31C359.11 211.207 359.088 211.096 359.088 210.984C359.088 210.871 359.11 210.759 359.153 210.655C359.197 210.551 359.26 210.456 359.34 210.376C359.42 210.296 359.514 210.233 359.619 210.19C359.723 210.146 359.835 210.124 359.948 210.124L832.74 210.124C832.853 210.124 832.964 210.146 833.069 210.19C833.173 210.233 833.268 210.296 833.348 210.376C833.427 210.456 833.491 210.551 833.534 210.655C833.577 210.759 833.599 210.871 833.599 210.984C833.599 211.096 833.577 211.207 833.534 211.31C833.49 211.414 833.427 211.507 833.347 211.586C833.267 211.664 833.172 211.726 833.067 211.767C832.963 211.809 832.852 211.829 832.74 211.826V211.826Z" fill="#60C9EB"/>
<path d="M832.739 300.293L359.947 300.293C359.835 300.296 359.724 300.276 359.619 300.234C359.515 300.193 359.42 300.131 359.34 300.053C359.26 299.975 359.197 299.881 359.153 299.778C359.11 299.674 359.087 299.563 359.087 299.451C359.087 299.223 359.178 299.005 359.339 298.843C359.5 298.682 359.719 298.591 359.947 298.591L832.739 298.591C832.967 298.591 833.186 298.682 833.347 298.843C833.508 299.005 833.599 299.223 833.599 299.451C833.599 299.563 833.577 299.674 833.533 299.778C833.49 299.881 833.426 299.975 833.346 300.053C833.266 300.131 833.171 300.193 833.067 300.234C832.963 300.276 832.851 300.296 832.739 300.293V300.293Z" fill="#60C9EB"/>
<path fill-rule="evenodd" clip-rule="evenodd" d="M359.966 302.993C359.509 302.998 359.053 302.914 358.625 302.745C358.186 302.571 357.787 302.312 357.451 301.982C357.114 301.652 356.846 301.258 356.664 300.823C356.481 300.389 356.387 299.923 356.387 299.451M359.966 302.993L832.721 302.993ZM832.721 302.993C833.178 302.998 833.633 302.914 834.061 302.745C834.5 302.571 834.899 302.312 835.236 301.982C835.573 301.652 835.84 301.258 836.023 300.823C836.205 300.389 836.299 299.923 836.299 299.451M832.739 300.293L832.757 299.451L832.795 297.594C832.777 297.593 832.758 297.593 832.739 297.593L832.739 300.293ZM357.43 296.934C358.097 296.267 359.002 295.891 359.947 295.891L832.739 295.891C833.684 295.891 834.589 296.267 835.256 296.934C835.924 297.601 836.299 298.507 836.299 299.451M357.43 296.934C356.763 297.601 356.387 298.507 356.387 299.451Z" fill="#60C9EB"/>
<path d="M832.734 388.762L359.942 388.762C359.83 388.764 359.718 388.744 359.614 388.703C359.51 388.662 359.415 388.6 359.335 388.521C359.255 388.443 359.191 388.349 359.148 388.246C359.104 388.143 359.082 388.032 359.082 387.92C359.082 387.692 359.173 387.473 359.334 387.312C359.495 387.15 359.714 387.06 359.942 387.06L832.734 387.06C832.962 387.06 833.181 387.15 833.342 387.312C833.503 387.473 833.594 387.692 833.594 387.92C833.594 388.032 833.571 388.143 833.528 388.246C833.484 388.349 833.421 388.443 833.341 388.521C833.261 388.6 833.166 388.662 833.061 388.703C832.957 388.744 832.846 388.764 832.734 388.762V388.762Z" fill="#60C9EB"/>
<path fill-rule="evenodd" clip-rule="evenodd" d="M359.96 391.462C359.503 391.467 359.048 391.383 358.62 391.213C358.181 391.039 357.782 390.78 357.445 390.45C357.108 390.12 356.841 389.726 356.658 389.292C356.476 388.857 356.382 388.391 356.382 387.92M359.96 391.462L832.715 391.462ZM832.715 391.462C833.172 391.467 833.628 391.383 834.056 391.213C834.494 391.04 834.894 390.78 835.23 390.45C835.567 390.12 835.835 389.726 836.017 389.292C836.2 388.857 836.294 388.391 836.294 387.92M832.734 388.762L832.751 387.92L832.79 386.062C832.771 386.062 832.753 386.062 832.734 386.062L832.734 388.762ZM357.425 385.402C358.092 384.735 358.997 384.36 359.942 384.36L832.734 384.36C833.678 384.36 834.584 384.735 835.251 385.402C835.918 386.07 836.294 386.975 836.294 387.92M357.425 385.402C356.757 386.07 356.382 386.975 356.382 387.92Z" fill="#60C9EB"/>
<path d="M832.739 477.227L359.947 477.227C359.835 477.23 359.724 477.209 359.619 477.168C359.515 477.127 359.42 477.065 359.34 476.987C359.26 476.908 359.197 476.815 359.153 476.711C359.11 476.608 359.087 476.497 359.087 476.385C359.087 476.157 359.178 475.938 359.339 475.777C359.5 475.616 359.719 475.525 359.947 475.525L832.739 475.525C832.967 475.525 833.186 475.616 833.347 475.777C833.508 475.938 833.599 476.157 833.599 476.385C833.599 476.497 833.577 476.608 833.533 476.711C833.49 476.815 833.426 476.908 833.346 476.987C833.266 477.065 833.171 477.127 833.067 477.168C832.963 477.209 832.851 477.23 832.739 477.227V477.227Z" fill="#60C9EB"/>
<path fill-rule="evenodd" clip-rule="evenodd" d="M359.966 479.927C359.505 479.932 359.05 479.847 358.625 479.679C358.186 479.505 357.787 479.245 357.451 478.916C357.114 478.585 356.846 478.192 356.664 477.757C356.482 477.323 356.387 476.857 356.387 476.385M359.966 479.927L832.721 479.927ZM832.721 479.927C833.181 479.932 833.636 479.847 834.061 479.679C834.5 479.505 834.899 479.245 835.236 478.916C835.573 478.585 835.84 478.192 836.023 477.757C836.205 477.323 836.299 476.857 836.299 476.385M832.739 477.227L832.757 476.385L832.795 474.528C832.777 474.527 832.758 474.527 832.739 474.527L832.739 477.227ZM357.43 473.868C358.097 473.201 359.002 472.825 359.947 472.825L832.739 472.825C833.684 472.825 834.589 473.2 835.256 473.868C835.924 474.535 836.299 475.442 836.299 476.385M357.43 473.868C356.762 474.535 356.387 475.442 356.387 476.385Z" fill="#60C9EB"/>
<path d="M832.732 565.694H359.94C359.828 565.697 359.716 565.677 359.612 565.635C359.508 565.594 359.413 565.532 359.333 565.454C359.253 565.376 359.189 565.282 359.146 565.179C359.102 565.075 359.08 564.964 359.08 564.852C359.08 564.624 359.171 564.405 359.332 564.244C359.493 564.083 359.712 563.992 359.94 563.992H832.732C832.96 563.992 833.179 564.083 833.34 564.244C833.501 564.405 833.592 564.624 833.592 564.852C833.592 564.964 833.569 565.075 833.526 565.179C833.482 565.282 833.419 565.376 833.339 565.454C833.259 565.532 833.164 565.594 833.06 565.635C832.955 565.677 832.844 565.697 832.732 565.694V565.694Z" fill="#60C9EB"/>
<path fill-rule="evenodd" clip-rule="evenodd" d="M359.958 568.394C359.501 568.399 359.046 568.315 358.618 568.146C358.179 567.972 357.78 567.712 357.443 567.383C357.106 567.053 356.839 566.659 356.656 566.224C356.474 565.79 356.38 565.323 356.38 564.852M359.958 568.394H832.713ZM832.713 568.394C833.17 568.399 833.626 568.315 834.054 568.146C834.492 567.972 834.892 567.713 835.228 567.383C835.565 567.053 835.833 566.659 836.015 566.224C836.198 565.79 836.292 565.323 836.292 564.852M832.732 565.694L832.749 564.852L832.788 562.995C832.769 562.994 832.751 562.994 832.732 562.994L832.732 565.694ZM357.423 562.335C358.09 561.668 358.995 561.292 359.94 561.292H832.732C833.676 561.292 834.582 561.668 835.249 562.335C835.916 563.002 836.292 563.908 836.292 564.852M357.423 562.335C356.755 563.002 356.38 563.908 356.38 564.852Z" fill="#60C9EB"/>
<path d="M832.739 654.157H359.947C359.835 654.159 359.723 654.139 359.619 654.098C359.515 654.057 359.42 653.995 359.34 653.917C359.26 653.838 359.196 653.745 359.153 653.641C359.109 653.538 359.087 653.427 359.087 653.315C359.087 653.087 359.178 652.868 359.339 652.707C359.5 652.546 359.719 652.455 359.947 652.455H832.739C832.967 652.455 833.185 652.546 833.347 652.707C833.508 652.868 833.598 653.087 833.598 653.315C833.598 653.427 833.576 653.538 833.533 653.641C833.489 653.745 833.426 653.838 833.346 653.917C833.266 653.995 833.171 654.057 833.066 654.098C832.962 654.139 832.851 654.159 832.739 654.157V654.157Z" fill="#60C9EB"/>
<path fill-rule="evenodd" clip-rule="evenodd" d="M359.965 656.857C359.508 656.862 359.053 656.778 358.625 656.608C358.186 656.435 357.787 656.175 357.45 655.846C357.113 655.515 356.846 655.121 356.663 654.687C356.481 654.253 356.387 653.786 356.387 653.315M359.965 656.857H832.72ZM832.72 656.857C833.177 656.862 833.633 656.778 834.061 656.608C834.499 656.435 834.898 656.175 835.235 655.846C835.572 655.515 835.84 655.121 836.022 654.687C836.205 654.253 836.299 653.786 836.299 653.315M832.739 654.157L832.756 653.315L832.795 651.457C832.776 651.457 832.757 651.457 832.739 651.457L832.739 654.157ZM357.429 650.797C358.098 650.129 359.004 649.755 359.947 649.755H832.739C833.682 649.755 834.587 650.129 835.256 650.797C835.924 651.465 836.298 652.371 836.299 653.315M357.429 650.797C356.762 651.465 356.387 652.371 356.387 653.315Z" fill="#60C9EB"/>
<path d="M832.735 742.625H359.943C359.831 742.627 359.72 742.607 359.616 742.566C359.511 742.524 359.416 742.463 359.336 742.384C359.256 742.306 359.193 742.212 359.149 742.109C359.106 742.005 359.083 741.894 359.083 741.782C359.083 741.554 359.174 741.336 359.335 741.174C359.497 741.013 359.715 740.923 359.943 740.923H832.735C832.963 740.923 833.182 741.013 833.343 741.174C833.504 741.336 833.595 741.554 833.595 741.782C833.595 741.894 833.573 742.005 833.529 742.109C833.486 742.212 833.422 742.306 833.342 742.384C833.262 742.463 833.167 742.524 833.063 742.566C832.959 742.607 832.847 742.627 832.735 742.625Z" fill="#60C9EB"/>
<path fill-rule="evenodd" clip-rule="evenodd" d="M359.962 745.325H832.717C833.177 745.329 833.632 745.244 834.057 745.076C834.496 744.902 834.895 744.643 835.232 744.313C835.569 743.983 835.836 743.589 836.019 743.155C836.201 742.72 836.295 742.254 836.295 741.782M359.962 745.325C359.501 745.329 359.046 745.244 358.621 745.076C358.183 744.902 357.783 744.643 357.447 744.313C357.11 743.983 356.842 743.589 356.66 743.155C356.477 742.72 356.383 742.254 356.383 741.782M357.426 739.265C358.093 738.598 358.999 738.222 359.943 738.222H832.735C833.68 738.222 834.585 738.598 835.253 739.265C835.92 739.932 836.295 740.837 836.295 741.782M357.426 739.265C356.759 739.932 356.383 740.837 356.383 741.782Z" fill="#60C9EB"/>
<path d="M223.183 830.244L205.884 26.2698L298.375 28.1257L322.458 414.461L321.599 834.119L223.183 830.244Z" fill="#60C9EB"/>
</svg>
