<svg width="881" height="861" viewBox="0 0 881 861" fill="none" xmlns="http://www.w3.org/2000/svg">
<path d="M864.174 822.351L320.391 827.615L224.538 828.545C224.175 561.847 217.438 295.225 204.325 28.6794C236.153 29.1473 268.075 29.5509 300.091 29.8901C492.096 31.9254 686.855 31.8377 877.737 34.7328C883.141 296.307 876.579 560.987 864.174 822.351Z" fill="white"/>
<path d="M863.645 750.334L840.312 753.829L841.233 759.979L864.566 756.484L863.645 750.334Z" fill="#60C9EB"/>
<path d="M860.712 585.188L837.379 588.682L838.3 594.832L861.633 591.338L860.712 585.188Z" fill="#FFE600"/>
<path d="M582.965 614.104L573.67 635.789L579.386 638.239L588.681 616.554L582.965 614.104Z" fill="#60C9EB"/>
<path d="M567.389 609.28L561.732 611.863L583.738 660.066L589.395 657.483L567.389 609.28Z" fill="#60C9EB"/>
<path d="M554.278 627.382L552.513 633.344L575.684 640.204L577.45 634.242L554.278 627.382Z" fill="#60C9EB"/>
<path d="M627.328 661.062L603.996 664.557L604.917 670.707L628.25 667.212L627.328 661.062Z" fill="#60C9EB"/>
<path d="M616.819 644.89L587.611 689.209L592.812 692.637L622.021 648.317L616.819 644.89Z" fill="#60C9EB"/>
<path d="M601.215 643.403L595.214 645.036L601.557 668.354L607.558 666.721L601.215 643.403Z" fill="#60C9EB"/>
<path d="M743.35 618.032L734.055 639.717L739.77 642.167L749.065 620.482L743.35 618.032Z" fill="#E96262"/>
<path d="M727.768 613.21L722.111 615.793L744.117 663.996L749.774 661.413L727.768 613.21Z" fill="#E96262"/>
<path d="M714.647 631.302L712.882 637.265L736.053 644.125L737.818 638.162L714.647 631.302Z" fill="#E96262"/>
<path d="M787.701 664.977L764.368 668.471L765.289 674.621L788.622 671.127L787.701 664.977Z" fill="#E96262"/>
<path d="M776.509 648.03L747.301 692.35L752.502 695.777L781.71 651.458L776.509 648.03Z" fill="#E96262"/>
<path d="M761.612 647.32L755.611 648.952L761.955 672.27L767.955 670.638L761.612 647.32Z" fill="#E96262"/>
<path d="M423.844 611.918L414.549 633.603L420.265 636.053L429.56 614.368L423.844 611.918Z" fill="#FFE600"/>
<path d="M408.268 607.092L402.611 609.674L424.617 657.877L430.274 655.294L408.268 607.092Z" fill="#FFE600"/>
<path d="M395.167 625.202L393.401 631.165L416.572 638.025L418.338 632.062L395.167 625.202Z" fill="#FFE600"/>
<path d="M468.208 658.884L444.875 662.379L445.797 668.529L469.129 665.034L468.208 658.884Z" fill="#FFE600"/>
<path d="M458.387 643.475L429.179 687.794L434.38 691.222L463.588 646.903L458.387 643.475Z" fill="#FFE600"/>
<path d="M442.108 641.195L436.107 642.827L442.451 666.145L448.451 664.513L442.108 641.195Z" fill="#FFE600"/>
<path d="M366.773 690.06L357.478 711.745L363.193 714.195L372.488 692.51L366.773 690.06Z" fill="#E9AD62"/>
<path d="M351.199 685.225L345.542 687.807L367.548 736.01L373.205 733.427L351.199 685.225Z" fill="#E9AD62"/>
<path d="M338.089 703.288L336.324 709.25L359.495 716.11L361.26 710.148L338.089 703.288Z" fill="#E9AD62"/>
<path d="M411.141 737.016L387.808 740.511L388.729 746.661L412.062 743.166L411.141 737.016Z" fill="#E9AD62"/>
<path d="M401.945 721.535L372.737 765.855L377.938 769.282L407.147 724.963L401.945 721.535Z" fill="#E9AD62"/>
<path d="M385.035 719.328L379.035 720.96L385.378 744.278L391.378 742.645L385.035 719.328Z" fill="#E9AD62"/>
<path d="M515.867 695.567L506.572 717.252L512.288 719.702L521.583 698.017L515.867 695.567Z" fill="#E96262"/>
<path d="M500.286 690.74L494.629 693.323L516.635 741.526L522.292 738.943L500.286 690.74Z" fill="#E96262"/>
<path d="M487.188 708.852L485.423 714.814L508.594 721.674L510.359 715.712L487.188 708.852Z" fill="#E96262"/>
<path d="M560.234 742.525L536.901 746.019L537.822 752.169L561.155 748.675L560.234 742.525Z" fill="#E96262"/>
<path d="M550.405 726.311L521.197 770.63L526.398 774.058L555.606 729.739L550.405 726.311Z" fill="#E96262"/>
<path d="M534.131 724.844L528.131 726.477L534.474 749.794L540.475 748.162L534.131 724.844Z" fill="#E96262"/>
<path d="M666.561 699.545L657.266 721.23L662.981 723.68L672.277 701.995L666.561 699.545Z" fill="#FFE600"/>
<path d="M650.984 694.709L645.327 697.292L667.333 745.495L672.99 742.912L650.984 694.709Z" fill="#FFE600"/>
<path d="M637.872 712.812L636.106 718.774L659.277 725.634L661.043 719.672L637.872 712.812Z" fill="#FFE600"/>
<path d="M710.924 746.497L687.591 749.992L688.512 756.142L711.845 752.647L710.924 746.497Z" fill="#FFE600"/>
<path d="M700.452 729.548L671.243 773.867L676.445 777.295L705.653 732.976L700.452 729.548Z" fill="#FFE600"/>
<path d="M684.82 728.83L678.82 730.462L685.163 753.78L691.164 752.148L684.82 728.83Z" fill="#FFE600"/>
<path d="M819.294 703.393L809.999 725.079L815.714 727.528L825.009 705.843L819.294 703.393Z" fill="#60C9EB"/>
<path d="M803.703 698.567L798.046 701.15L820.052 749.353L825.709 746.77L803.703 698.567Z" fill="#60C9EB"/>
<path d="M790.581 716.652L788.816 722.615L811.987 729.475L813.752 723.512L790.581 716.652Z" fill="#60C9EB"/>
<path d="M852.525 732.648L823.317 776.968L828.518 780.395L857.726 736.076L852.525 732.648Z" fill="#60C9EB"/>
<path d="M837.548 732.678L831.548 734.31L837.891 757.628L843.891 755.996L837.548 732.678Z" fill="#60C9EB"/>
<path d="M579.877 449.044L570.582 470.729L576.297 473.179L585.592 451.494L579.877 449.044Z" fill="#60C9EB"/>
<path d="M564.295 444.222L558.638 446.805L580.644 495.007L586.301 492.425L564.295 444.222Z" fill="#60C9EB"/>
<path d="M551.169 462.281L549.404 468.243L572.575 475.103L574.34 469.141L551.169 462.281Z" fill="#60C9EB"/>
<path d="M624.396 495.892L601.063 499.387L601.985 505.537L625.317 502.042L624.396 495.892Z" fill="#60C9EB"/>
<path d="M612.952 480.566L583.744 524.885L588.946 528.313L618.154 483.994L612.952 480.566Z" fill="#60C9EB"/>
<path d="M598.112 478.354L592.111 479.986L598.455 503.304L604.455 501.672L598.112 478.354Z" fill="#60C9EB"/>
<path d="M740.256 452.967L730.961 474.652L736.677 477.102L745.972 455.417L740.256 452.967Z" fill="#E9AD62"/>
<path d="M724.686 448.134L719.029 450.717L741.035 498.919L746.692 496.337L724.686 448.134Z" fill="#E9AD62"/>
<path d="M711.547 466.257L709.781 472.22L732.953 479.08L734.718 473.117L711.547 466.257Z" fill="#E9AD62"/>
<path d="M784.609 499.922L761.276 503.416L762.198 509.566L785.531 506.072L784.609 499.922Z" fill="#E9AD62"/>
<path d="M772.645 483.709L743.437 528.028L748.638 531.455L777.846 487.136L772.645 483.709Z" fill="#E9AD62"/>
<path d="M758.515 482.27L752.515 483.903L758.858 507.221L764.858 505.588L758.515 482.27Z" fill="#E9AD62"/>
<path d="M420.749 446.856L411.454 468.541L417.17 470.991L426.465 449.306L420.749 446.856Z" fill="#E96262"/>
<path d="M405.186 442.024L399.529 444.607L421.535 492.809L427.192 490.227L405.186 442.024Z" fill="#E96262"/>
<path d="M392.057 460.102L390.291 466.065L413.462 472.925L415.228 466.962L392.057 460.102Z" fill="#E96262"/>
<path d="M465.845 495.576L442.512 499.07L443.434 505.22L466.767 501.726L465.845 495.576Z" fill="#E96262"/>
<path d="M454.519 479.153L425.311 523.472L430.512 526.9L459.72 482.581L454.519 479.153Z" fill="#E96262"/>
<path d="M439.591 478.026L433.59 479.658L439.934 502.976L445.934 501.344L439.591 478.026Z" fill="#E96262"/>
<path d="M363.677 525L354.382 546.685L360.098 549.135L369.393 527.45L363.677 525Z" fill="#60C9EB"/>
<path d="M348.111 520.154L342.454 522.737L364.46 570.94L370.117 568.357L348.111 520.154Z" fill="#60C9EB"/>
<path d="M335.007 538.286L333.241 544.249L356.412 551.109L358.178 545.146L335.007 538.286Z" fill="#60C9EB"/>
<path d="M408.617 573.841L385.284 577.336L386.206 583.486L409.538 579.991L408.617 573.841Z" fill="#60C9EB"/>
<path d="M398.071 557.218L368.863 601.537L374.064 604.965L403.272 560.646L398.071 557.218Z" fill="#60C9EB"/>
<path d="M382.518 556.147L376.518 557.779L382.861 581.097L388.862 579.465L382.518 556.147Z" fill="#60C9EB"/>
<path d="M512.772 530.506L503.477 552.191L509.192 554.641L518.487 532.956L512.772 530.506Z" fill="#E9AD62"/>
<path d="M497.191 525.682L491.534 528.265L513.54 576.467L519.197 573.885L497.191 525.682Z" fill="#E9AD62"/>
<path d="M484.08 543.738L482.315 549.701L505.486 556.561L507.251 550.598L484.08 543.738Z" fill="#E9AD62"/>
<path d="M557.29 577.348L533.957 580.843L534.878 586.992L558.211 583.498L557.29 577.348Z" fill="#E9AD62"/>
<path d="M546.538 561.995L517.33 606.314L522.531 609.742L551.739 565.423L546.538 561.995Z" fill="#E9AD62"/>
<path d="M531.027 559.795L525.027 561.427L531.37 584.745L537.371 583.113L531.027 559.795Z" fill="#E9AD62"/>
<path d="M663.476 534.479L654.181 556.164L659.896 558.614L669.191 536.929L663.476 534.479Z" fill="#FFE600"/>
<path d="M647.889 529.654L642.232 532.236L664.238 580.439L669.895 577.857L647.889 529.654Z" fill="#FFE600"/>
<path d="M634.762 547.71L632.996 553.673L656.167 560.533L657.933 554.57L634.762 547.71Z" fill="#FFE600"/>
<path d="M707.985 581.333L684.652 584.828L685.573 590.978L708.906 587.483L707.985 581.333Z" fill="#FFE600"/>
<path d="M696.584 565.232L667.376 609.551L672.577 612.979L701.786 568.66L696.584 565.232Z" fill="#FFE600"/>
<path d="M681.711 563.792L675.711 565.424L682.054 588.742L688.054 587.11L681.711 563.792Z" fill="#FFE600"/>
<path d="M816.198 538.326L806.903 560.011L812.619 562.461L821.914 540.776L816.198 538.326Z" fill="#FFE600"/>
<path d="M800.616 533.497L794.959 536.079L816.965 584.282L822.622 581.699L800.616 533.497Z" fill="#FFE600"/>
<path d="M787.478 551.553L785.713 557.515L808.884 564.375L810.649 558.412L787.478 551.553Z" fill="#FFE600"/>
<path d="M848.656 568.327L819.448 612.646L824.649 616.074L853.858 571.755L848.656 568.327Z" fill="#FFE600"/>
<path d="M834.451 567.624L828.451 569.256L834.794 592.574L840.795 590.942L834.451 567.624Z" fill="#FFE600"/>
<path d="M360.173 363.822L350.878 385.508L356.594 387.957L365.889 366.272L360.173 363.822Z" fill="#E9AD62"/>
<path d="M344.604 359.004L338.947 361.587L360.953 409.789L366.61 407.207L344.604 359.004Z" fill="#E9AD62"/>
<path d="M331.487 377.07L329.722 383.033L352.893 389.893L354.658 383.93L331.487 377.07Z" fill="#E9AD62"/>
<path d="M405.114 412.674L381.781 416.169L382.702 422.319L406.035 418.824L405.114 412.674Z" fill="#E9AD62"/>
<path d="M393.819 396.775L364.611 441.094L369.812 444.522L399.02 400.203L393.819 396.775Z" fill="#E9AD62"/>
<path d="M379.031 394.976L373.03 396.608L379.374 419.926L385.374 418.294L379.031 394.976Z" fill="#E9AD62"/>
<path d="M509.269 369.328L499.974 391.013L505.69 393.463L514.985 371.778L509.269 369.328Z" fill="#E96262"/>
<path d="M493.691 364.514L488.034 367.097L510.04 415.299L515.697 412.717L493.691 364.514Z" fill="#E96262"/>
<path d="M480.579 382.634L478.813 388.597L501.985 395.457L503.75 389.494L480.579 382.634Z" fill="#E96262"/>
<path d="M553.627 416.296L530.294 419.791L531.215 425.941L554.548 422.446L553.627 416.296Z" fill="#E96262"/>
<path d="M542.275 401.548L513.067 445.867L518.268 449.295L547.476 404.976L542.275 401.548Z" fill="#E96262"/>
<path d="M527.527 398.628L521.526 400.26L527.869 423.578L533.87 421.946L527.527 398.628Z" fill="#E96262"/>
<path d="M659.975 373.311L650.68 394.996L656.396 397.446L665.691 375.761L659.975 373.311Z" fill="#FFE600"/>
<path d="M644.396 368.481L638.739 371.064L660.745 419.267L666.402 416.684L644.396 368.481Z" fill="#FFE600"/>
<path d="M631.262 386.6L629.497 392.563L652.668 399.423L654.433 393.46L631.262 386.6Z" fill="#FFE600"/>
<path d="M704.322 420.269L680.989 423.764L681.91 429.914L705.243 426.419L704.322 420.269Z" fill="#FFE600"/>
<path d="M692.326 404.787L663.118 449.106L668.319 452.534L697.527 408.215L692.326 404.787Z" fill="#FFE600"/>
<path d="M678.244 402.603L672.244 404.235L678.587 427.553L684.588 425.921L678.244 402.603Z" fill="#FFE600"/>
<path d="M812.701 377.153L803.406 398.838L809.122 401.288L818.417 379.603L812.701 377.153Z" fill="#60C9EB"/>
<path d="M797.109 372.334L791.452 374.917L813.458 423.119L819.115 420.537L797.109 372.334Z" fill="#60C9EB"/>
<path d="M783.972 390.449L782.207 396.411L805.378 403.271L807.144 397.309L783.972 390.449Z" fill="#60C9EB"/>
<path d="M857.038 424.113L833.705 427.608L834.626 433.758L857.959 430.263L857.038 424.113Z" fill="#60C9EB"/>
<path d="M844.395 407.888L815.187 452.207L820.388 455.634L849.596 411.315L844.395 407.888Z" fill="#60C9EB"/>
<path d="M830.952 406.469L824.951 408.101L831.294 431.419L837.295 429.787L830.952 406.469Z" fill="#60C9EB"/>
<path d="M857.197 423.974L833.864 427.468L834.785 433.618L858.118 430.123L857.197 423.974Z" fill="#60C9EB"/>
<path d="M854.264 258.828L830.931 262.323L831.852 268.472L855.185 264.978L854.264 258.828Z" fill="#FFE600"/>
<path d="M576.518 287.744L567.223 309.429L572.938 311.879L582.233 290.194L576.518 287.744Z" fill="#60C9EB"/>
<path d="M560.941 282.92L555.284 285.503L577.29 333.705L582.947 331.123L560.941 282.92Z" fill="#60C9EB"/>
<path d="M547.831 301.022L546.065 306.984L569.236 313.844L571.002 307.882L547.831 301.022Z" fill="#60C9EB"/>
<path d="M620.88 334.703L597.548 338.197L598.469 344.347L621.802 340.853L620.88 334.703Z" fill="#60C9EB"/>
<path d="M610.372 318.53L581.163 362.849L586.365 366.277L615.573 321.957L610.372 318.53Z" fill="#60C9EB"/>
<path d="M594.767 317.043L588.766 318.675L595.11 341.993L601.11 340.361L594.767 317.043Z" fill="#60C9EB"/>
<path d="M736.902 291.672L727.607 313.358L733.323 315.807L742.618 294.122L736.902 291.672Z" fill="#E96262"/>
<path d="M721.32 286.85L715.664 289.433L737.67 337.635L743.327 335.053L721.32 286.85Z" fill="#E96262"/>
<path d="M708.199 304.942L706.434 310.905L729.605 317.765L731.371 311.802L708.199 304.942Z" fill="#E96262"/>
<path d="M781.253 338.616L757.92 342.111L758.841 348.261L782.174 344.766L781.253 338.616Z" fill="#E96262"/>
<path d="M770.061 321.67L740.853 365.99L746.054 369.417L775.263 325.098L770.061 321.67Z" fill="#E96262"/>
<path d="M755.164 320.959L749.163 322.591L755.507 345.909L761.507 344.277L755.164 320.959Z" fill="#E96262"/>
<path d="M417.397 285.558L408.102 307.243L413.817 309.693L423.112 288.008L417.397 285.558Z" fill="#FFE600"/>
<path d="M401.82 280.731L396.163 283.313L418.169 331.516L423.826 328.933L401.82 280.731Z" fill="#FFE600"/>
<path d="M388.719 298.842L386.953 304.805L410.124 311.665L411.89 305.702L388.719 298.842Z" fill="#FFE600"/>
<path d="M461.761 332.524L438.428 336.018L439.349 342.168L462.682 338.673L461.761 332.524Z" fill="#FFE600"/>
<path d="M451.939 317.115L422.731 361.434L427.932 364.862L457.14 320.542L451.939 317.115Z" fill="#FFE600"/>
<path d="M435.66 314.835L429.66 316.467L436.003 339.785L442.003 338.153L435.66 314.835Z" fill="#FFE600"/>
<path d="M360.325 363.7L351.03 385.385L356.745 387.835L366.04 366.15L360.325 363.7Z" fill="#E9AD62"/>
<path d="M344.751 358.865L339.094 361.448L361.1 409.65L366.757 407.068L344.751 358.865Z" fill="#E9AD62"/>
<path d="M331.641 376.927L329.876 382.89L353.047 389.75L354.812 383.787L331.641 376.927Z" fill="#E9AD62"/>
<path d="M404.693 410.656L381.36 414.15L382.281 420.3L405.614 416.805L404.693 410.656Z" fill="#E9AD62"/>
<path d="M395.498 395.176L366.29 439.495L371.491 442.923L400.699 398.604L395.498 395.176Z" fill="#E9AD62"/>
<path d="M378.588 392.968L372.587 394.6L378.93 417.918L384.931 416.286L378.588 392.968Z" fill="#E9AD62"/>
<path d="M509.419 369.207L500.124 390.892L505.84 393.342L515.135 371.657L509.419 369.207Z" fill="#E96262"/>
<path d="M493.838 364.381L488.181 366.963L510.187 415.166L515.844 412.583L493.838 364.381Z" fill="#E96262"/>
<path d="M480.74 382.492L478.975 388.454L502.146 395.314L503.912 389.352L480.74 382.492Z" fill="#E96262"/>
<path d="M553.786 416.164L530.453 419.659L531.374 425.809L554.707 422.314L553.786 416.164Z" fill="#E96262"/>
<path d="M543.957 399.951L514.749 444.27L519.95 447.698L549.158 403.379L543.957 399.951Z" fill="#E96262"/>
<path d="M527.684 398.484L521.683 400.116L528.027 423.434L534.027 421.801L527.684 398.484Z" fill="#E96262"/>
<path d="M660.113 373.184L650.818 394.87L656.534 397.319L665.829 375.634L660.113 373.184Z" fill="#FFE600"/>
<path d="M644.537 368.349L638.88 370.932L660.886 419.134L666.543 416.552L644.537 368.349Z" fill="#FFE600"/>
<path d="M631.424 386.452L629.658 392.415L652.83 399.275L654.595 393.312L631.424 386.452Z" fill="#FFE600"/>
<path d="M704.476 420.137L681.143 423.632L682.064 429.782L705.397 426.287L704.476 420.137Z" fill="#FFE600"/>
<path d="M694.004 403.188L664.796 447.507L669.997 450.935L699.205 406.616L694.004 403.188Z" fill="#FFE600"/>
<path d="M678.373 402.47L672.372 404.103L678.715 427.421L684.716 425.788L678.373 402.47Z" fill="#FFE600"/>
<path d="M812.846 377.034L803.551 398.719L809.266 401.169L818.561 379.484L812.846 377.034Z" fill="#60C9EB"/>
<path d="M797.256 372.207L791.599 374.789L813.605 422.992L819.262 420.409L797.256 372.207Z" fill="#60C9EB"/>
<path d="M784.133 390.292L782.368 396.255L805.539 403.115L807.304 397.152L784.133 390.292Z" fill="#60C9EB"/>
<path d="M846.077 406.289L816.869 450.608L822.07 454.036L851.278 409.716L846.077 406.289Z" fill="#60C9EB"/>
<path d="M831.1 406.317L825.1 407.949L831.443 431.267L837.443 429.635L831.1 406.317Z" fill="#60C9EB"/>
<path d="M573.429 122.684L564.134 144.369L569.849 146.819L579.144 125.134L573.429 122.684Z" fill="#60C9EB"/>
<path d="M557.847 117.862L552.19 120.444L574.196 168.647L579.853 166.064L557.847 117.862Z" fill="#60C9EB"/>
<path d="M544.722 135.92L542.956 141.883L566.127 148.743L567.893 142.78L544.722 135.92Z" fill="#60C9EB"/>
<path d="M617.949 169.532L594.616 173.027L595.537 179.177L618.87 175.682L617.949 169.532Z" fill="#60C9EB"/>
<path d="M606.504 154.206L577.296 198.525L582.498 201.953L611.706 157.634L606.504 154.206Z" fill="#60C9EB"/>
<path d="M591.664 151.994L585.664 153.626L592.007 176.944L598.007 175.312L591.664 151.994Z" fill="#60C9EB"/>
<path d="M733.809 126.606L724.514 148.291L730.229 150.741L739.524 129.056L733.809 126.606Z" fill="#E9AD62"/>
<path d="M718.238 121.774L712.581 124.357L734.587 172.559L740.244 169.977L718.238 121.774Z" fill="#E9AD62"/>
<path d="M705.099 139.897L703.333 145.859L726.504 152.719L728.27 146.757L705.099 139.897Z" fill="#E9AD62"/>
<path d="M778.162 173.562L754.829 177.056L755.75 183.206L779.083 179.712L778.162 173.562Z" fill="#E9AD62"/>
<path d="M766.197 157.349L736.989 201.668L742.19 205.096L771.398 160.777L766.197 157.349Z" fill="#E9AD62"/>
<path d="M752.067 155.91L746.067 157.543L752.41 180.86L758.411 179.228L752.067 155.91Z" fill="#E9AD62"/>
<path d="M414.301 120.496L405.006 142.181L410.722 144.631L420.017 122.946L414.301 120.496Z" fill="#E96262"/>
<path d="M398.738 115.664L393.081 118.246L415.087 166.449L420.744 163.866L398.738 115.664Z" fill="#E96262"/>
<path d="M385.609 133.742L383.844 139.704L407.015 146.564L408.78 140.601L385.609 133.742Z" fill="#E96262"/>
<path d="M459.397 169.216L436.064 172.71L436.986 178.86L460.319 175.366L459.397 169.216Z" fill="#E96262"/>
<path d="M448.071 152.793L418.863 197.112L424.064 200.54L453.272 156.22L448.071 152.793Z" fill="#E96262"/>
<path d="M433.143 151.666L427.142 153.298L433.486 176.616L439.486 174.984L433.143 151.666Z" fill="#E96262"/>
<path d="M357.23 198.64L347.935 220.325L353.65 222.775L362.945 201.09L357.23 198.64Z" fill="#60C9EB"/>
<path d="M341.664 193.795L336.007 196.377L358.013 244.58L363.67 241.997L341.664 193.795Z" fill="#60C9EB"/>
<path d="M328.559 211.926L326.794 217.889L349.965 224.749L351.73 218.786L328.559 211.926Z" fill="#60C9EB"/>
<path d="M402.17 247.481L378.837 250.975L379.758 257.125L403.091 253.63L402.17 247.481Z" fill="#60C9EB"/>
<path d="M391.623 230.858L362.415 275.177L367.616 278.605L396.824 234.286L391.623 230.858Z" fill="#60C9EB"/>
<path d="M376.071 229.786L370.07 231.419L376.413 254.737L382.414 253.104L376.071 229.786Z" fill="#60C9EB"/>
<path d="M506.324 204.147L497.029 225.832L502.745 228.282L512.04 206.597L506.324 204.147Z" fill="#E9AD62"/>
<path d="M490.744 199.323L485.087 201.905L507.093 250.108L512.75 247.525L490.744 199.323Z" fill="#E9AD62"/>
<path d="M477.632 217.377L475.866 223.34L499.038 230.2L500.803 224.237L477.632 217.377Z" fill="#E9AD62"/>
<path d="M550.842 250.988L527.509 254.483L528.43 260.633L551.763 257.138L550.842 250.988Z" fill="#E9AD62"/>
<path d="M540.089 235.635L510.881 279.954L516.082 283.382L545.291 239.063L540.089 235.635Z" fill="#E9AD62"/>
<path d="M524.58 233.435L518.579 235.067L524.923 258.385L530.923 256.753L524.58 233.435Z" fill="#E9AD62"/>
<path d="M657.028 208.12L647.733 229.805L653.449 232.254L662.744 210.569L657.028 208.12Z" fill="#FFE600"/>
<path d="M641.442 203.294L635.785 205.877L657.791 254.08L663.448 251.497L641.442 203.294Z" fill="#FFE600"/>
<path d="M628.314 221.35L626.548 227.313L649.719 234.173L651.485 228.21L628.314 221.35Z" fill="#FFE600"/>
<path d="M701.537 254.973L678.204 258.468L679.125 264.618L702.458 261.123L701.537 254.973Z" fill="#FFE600"/>
<path d="M690.136 238.872L660.928 283.192L666.129 286.619L695.337 242.3L690.136 238.872Z" fill="#FFE600"/>
<path d="M675.264 237.432L669.263 239.064L675.607 262.382L681.607 260.75L675.264 237.432Z" fill="#FFE600"/>
<path d="M809.75 211.966L800.455 233.651L806.171 236.101L815.466 214.416L809.75 211.966Z" fill="#FFE600"/>
<path d="M794.168 207.136L788.511 209.719L810.517 257.921L816.174 255.339L794.168 207.136Z" fill="#FFE600"/>
<path d="M781.03 225.193L779.265 231.156L802.436 238.016L804.201 232.053L781.03 225.193Z" fill="#FFE600"/>
<path d="M842.208 241.967L813 286.286L818.201 289.713L847.41 245.394L842.208 241.967Z" fill="#FFE600"/>
<path d="M828.003 241.264L822.003 242.896L828.346 266.214L834.347 264.582L828.003 241.264Z" fill="#FFE600"/>
<path d="M353.726 37.4629L344.431 59.1479L350.147 61.5979L359.442 39.9128L353.726 37.4629Z" fill="#E9AD62"/>
<path d="M338.156 32.6441L332.499 35.2266L354.505 83.4292L360.162 80.8466L338.156 32.6441Z" fill="#E9AD62"/>
<path d="M325.039 50.7101L323.274 56.6729L346.445 63.5328L348.211 57.5701L325.039 50.7101Z" fill="#E9AD62"/>
<path d="M398.666 86.3138L375.333 89.8085L376.255 95.9585L399.587 92.4638L398.666 86.3138Z" fill="#E9AD62"/>
<path d="M387.372 70.4148L358.164 114.734L363.365 118.162L392.573 73.8426L387.372 70.4148Z" fill="#E9AD62"/>
<path d="M372.583 68.6159L366.583 70.2482L372.926 93.5662L378.927 91.9338L372.583 68.6159Z" fill="#E9AD62"/>
<path d="M502.821 42.9684L493.526 64.6535L499.242 67.1034L508.537 45.4184L502.821 42.9684Z" fill="#E96262"/>
<path d="M487.243 38.1544L481.586 40.7369L503.592 88.9395L509.249 86.3569L487.243 38.1544Z" fill="#E96262"/>
<path d="M474.131 56.274L472.365 62.2368L495.537 69.0967L497.302 63.134L474.131 56.274Z" fill="#E96262"/>
<path d="M547.179 89.9352L523.846 93.4299L524.767 99.5799L548.1 96.0852L547.179 89.9352Z" fill="#E96262"/>
<path d="M535.828 75.1876L506.62 119.507L511.821 122.935L541.029 78.6154L535.828 75.1876Z" fill="#E96262"/>
<path d="M521.079 72.2681L515.079 73.9005L521.422 97.2184L527.423 95.586L521.079 72.2681Z" fill="#E96262"/>
<path d="M653.527 46.9505L644.232 68.6355L649.948 71.0854L659.243 49.4004L653.527 46.9505Z" fill="#FFE600"/>
<path d="M637.948 42.1206L632.291 44.7031L654.297 92.9057L659.954 90.3231L637.948 42.1206Z" fill="#FFE600"/>
<path d="M624.814 60.2403L623.049 66.2031L646.22 73.0631L647.986 67.1003L624.814 60.2403Z" fill="#FFE600"/>
<path d="M697.874 93.9084L674.542 97.4031L675.463 103.553L698.796 100.058L697.874 93.9084Z" fill="#FFE600"/>
<path d="M685.878 78.4274L656.67 122.747L661.871 126.174L691.079 81.8552L685.878 78.4274Z" fill="#FFE600"/>
<path d="M671.797 76.2433L665.796 77.8757L672.139 101.194L678.14 99.5613L671.797 76.2433Z" fill="#FFE600"/>
<path d="M806.253 50.793L796.958 72.478L802.674 74.9279L811.969 53.2429L806.253 50.793Z" fill="#60C9EB"/>
<path d="M790.661 45.9743L785.004 48.5569L807.01 96.7594L812.667 94.1769L790.661 45.9743Z" fill="#60C9EB"/>
<path d="M777.525 64.0883L775.76 70.051L798.931 76.911L800.696 70.9483L777.525 64.0883Z" fill="#60C9EB"/>
<path d="M850.59 97.752L827.257 101.247L828.178 107.397L851.511 103.902L850.59 97.752Z" fill="#60C9EB"/>
<path d="M837.947 81.5275L808.739 125.847L813.94 129.274L843.148 84.9553L837.947 81.5275Z" fill="#60C9EB"/>
<path d="M824.504 80.1092L818.504 81.7415L824.847 105.059L830.848 103.427L824.504 80.1092Z" fill="#60C9EB"/>
<path d="M878.871 28.5782C878.844 27.4778 878.392 26.4305 877.61 25.6554C876.829 24.8804 875.778 24.4376 874.677 24.4198C763.278 22.6652 648.739 22.0511 537.971 21.3844C480.508 21.051 421.642 20.6826 363.091 20.1913C340.983 19.9924 318.957 19.7818 297.013 19.5595C266.203 19.2613 233.988 18.8577 201.265 18.3489C200.683 18.3344 200.104 18.4425 199.566 18.6662C199.028 18.8899 198.543 19.2242 198.142 19.6474C197.74 20.0654 197.426 20.561 197.221 21.1039C197.016 21.6468 196.923 22.2258 196.949 22.8056C209.968 287.907 216.776 556.955 217.162 822.478C217.157 823.037 217.264 823.592 217.475 824.111C217.687 824.629 217.999 825.1 218.394 825.497C218.789 825.893 219.259 826.207 219.776 826.421C220.294 826.635 220.848 826.744 221.408 826.741V826.741L317.261 825.794L363.056 825.355L861.044 820.548C862.13 820.535 863.171 820.109 863.953 819.356C864.736 818.603 865.201 817.579 865.255 816.495C879.274 521.952 883.748 264.22 878.871 28.5782ZM313.173 817.337L225.654 818.196C225.215 555.411 218.495 289.275 205.669 26.8763C235.497 27.3149 264.852 27.6834 293.083 27.9817C317.938 290.324 324.65 554.07 313.173 817.337V817.337ZM856.973 812.073L363.091 816.828L321.7 817.249C333.125 554.058 326.424 290.393 301.645 28.122C322.034 28.3325 342.504 28.5255 363.056 28.701C421.589 29.1923 480.438 29.5256 537.884 29.8941C647.265 30.5433 760.33 31.2101 870.414 32.8594C875.133 266.132 870.729 521.109 856.973 812.073Z" fill="#60C9EB"/>
<path fill-rule="evenodd" clip-rule="evenodd" d="M199.514 18.5415C200.069 18.3107 200.667 18.1991 201.268 18.2139C233.991 18.7227 266.204 19.1263 297.015 19.4245C318.959 19.6468 340.985 19.8574 363.092 20.0563C421.643 20.5476 480.509 20.916 537.972 21.2494C544.721 21.29 551.485 21.3304 558.261 21.3709C662.686 21.9952 770.067 22.6371 874.679 24.2848C875.815 24.3032 876.899 24.76 877.705 25.5596C878.512 26.3592 878.978 27.4396 879.006 28.5754C883.883 264.221 879.409 521.956 865.39 816.501C865.335 817.62 864.854 818.676 864.047 819.453C863.239 820.23 862.166 820.67 861.045 820.683L221.409 826.876C220.831 826.879 220.259 826.766 219.725 826.546C219.191 826.325 218.706 826.001 218.298 825.592C217.891 825.183 217.569 824.697 217.35 824.162C217.132 823.627 217.022 823.055 217.027 822.477C216.641 556.957 209.833 287.911 196.814 22.8122C196.788 22.2141 196.883 21.6163 197.095 21.0562C197.306 20.4963 197.629 19.9853 198.044 19.5541C198.458 19.1174 198.959 18.7724 199.514 18.5415ZM201.262 18.4838C200.698 18.4698 200.138 18.5744 199.618 18.7909C199.097 19.0073 198.628 19.3308 198.24 19.7402L198.239 19.741C197.849 20.1459 197.546 20.6258 197.347 21.1516C197.149 21.6773 197.059 22.2379 197.084 22.7993C210.103 287.902 216.911 556.953 217.297 822.477L217.297 822.479C217.292 823.021 217.396 823.558 217.6 824.06C217.805 824.561 218.107 825.018 218.49 825.401C218.872 825.785 219.327 826.089 219.828 826.296C220.329 826.503 220.866 826.609 221.407 826.606L861.042 820.413C862.094 820.401 863.102 819.988 863.86 819.259C864.617 818.529 865.068 817.538 865.12 816.488C879.139 521.947 883.613 264.219 878.736 28.5815C878.709 27.5159 878.272 26.5018 877.515 25.7513C876.758 25.0008 875.741 24.572 874.675 24.5548C770.065 22.9071 662.684 22.2652 558.259 21.641C551.483 21.6005 544.72 21.56 537.97 21.5194C480.508 21.186 421.641 20.8176 363.09 20.3263C340.982 20.1274 318.956 19.9168 297.012 19.6946C266.201 19.3963 233.987 18.9927 201.263 18.4839L201.262 18.4838ZM205.527 26.7392L205.671 26.7413C235.499 27.1799 264.853 27.5484 293.084 27.8467L293.206 27.8479L293.217 27.9689C318.073 290.318 324.785 554.069 313.308 817.343L313.173 817.337L313.174 817.472L225.519 818.333L225.519 818.197C225.08 555.414 218.36 289.28 205.534 26.8829L205.527 26.7392ZM313.044 817.203C324.511 554.025 317.801 290.369 292.96 28.1154C264.811 27.8178 235.547 27.4505 205.811 27.0134C218.631 289.323 225.348 555.365 225.789 818.06L313.044 817.203ZM301.497 27.9854L301.647 27.987C322.035 28.1975 342.505 28.3905 363.057 28.566C408.987 28.9515 455.111 29.2398 500.599 29.524C513.081 29.6021 525.515 29.6798 537.884 29.7591L539.295 29.7675C648.238 30.4141 760.805 31.0821 870.415 32.7244L870.546 32.7263L870.548 32.8566C875.268 266.133 870.864 521.113 857.108 812.079L857.102 812.207L321.559 817.385L321.566 817.243C332.99 554.058 326.289 290.399 301.511 28.1347L301.497 27.9854ZM301.794 28.2585C326.557 290.439 333.256 554.013 321.841 817.112L856.844 811.939C870.593 521.085 874.996 266.192 870.281 32.9924C760.713 31.3516 648.193 30.6838 539.293 30.0375L537.883 30.0291C525.513 29.9498 513.079 29.8721 500.597 29.7941C455.109 29.5098 408.985 29.2215 363.055 28.836C342.553 28.661 322.133 28.4685 301.794 28.2585Z" fill="#60C9EB"/>
<path d="M832.834 123.362L360.042 123.362C359.93 123.365 359.818 123.344 359.714 123.303C359.61 123.262 359.515 123.2 359.435 123.122C359.355 123.043 359.291 122.95 359.248 122.846C359.204 122.743 359.182 122.632 359.182 122.52C359.182 122.292 359.273 122.073 359.434 121.912C359.595 121.751 359.814 121.66 360.042 121.66L832.834 121.66C833.062 121.66 833.281 121.751 833.442 121.912C833.603 122.073 833.694 122.292 833.694 122.52C833.694 122.632 833.671 122.743 833.628 122.846C833.585 122.95 833.521 123.043 833.441 123.122C833.361 123.2 833.266 123.262 833.162 123.303C833.057 123.344 832.946 123.365 832.834 123.362V123.362Z" fill="#60C9EB"/>
<path fill-rule="evenodd" clip-rule="evenodd" d="M360.06 126.062C359.602 126.067 359.146 125.983 358.72 125.814C358.282 125.64 357.883 125.381 357.545 125.051C357.208 124.721 356.941 124.327 356.758 123.892C356.576 123.458 356.482 122.991 356.482 122.52M360.06 126.062L832.815 126.062ZM832.815 126.062C833.274 126.067 833.729 125.983 834.156 125.814C834.593 125.641 834.993 125.382 835.33 125.051C835.667 124.721 835.935 124.327 836.117 123.892C836.3 123.458 836.394 122.991 836.394 122.52M832.834 123.362L832.851 122.52L832.89 120.663C832.871 120.662 832.853 120.662 832.834 120.662L832.834 123.362ZM357.525 120.003C358.192 119.335 359.098 118.96 360.042 118.96L832.834 118.96C833.778 118.96 834.683 119.335 835.351 120.003C836.019 120.67 836.394 121.576 836.394 122.52M357.525 120.003C356.857 120.67 356.482 121.576 356.482 122.52Z" fill="#60C9EB"/>
<path d="M832.839 211.826L360.047 211.826C359.935 211.829 359.823 211.809 359.719 211.767C359.615 211.726 359.52 211.664 359.44 211.586C359.36 211.507 359.296 211.414 359.253 211.31C359.209 211.207 359.187 211.096 359.187 210.984C359.187 210.871 359.209 210.759 359.252 210.655C359.296 210.551 359.359 210.456 359.439 210.376C359.519 210.296 359.613 210.233 359.718 210.19C359.822 210.147 359.934 210.124 360.047 210.124L832.839 210.124C832.952 210.124 833.064 210.147 833.168 210.19C833.272 210.233 833.367 210.296 833.447 210.376C833.527 210.456 833.59 210.551 833.633 210.655C833.676 210.759 833.699 210.871 833.699 210.984C833.699 211.096 833.676 211.207 833.633 211.31C833.589 211.414 833.526 211.507 833.446 211.586C833.366 211.664 833.271 211.726 833.166 211.767C833.062 211.809 832.951 211.829 832.839 211.826V211.826Z" fill="#60C9EB"/>
<path d="M832.838 300.293L360.046 300.293C359.934 300.296 359.823 300.276 359.719 300.234C359.614 300.193 359.519 300.131 359.439 300.053C359.359 299.975 359.296 299.881 359.252 299.778C359.209 299.674 359.186 299.563 359.187 299.451C359.187 299.223 359.277 299.005 359.438 298.843C359.6 298.682 359.818 298.591 360.046 298.591L832.838 298.591C833.066 298.591 833.285 298.682 833.446 298.843C833.607 299.005 833.698 299.223 833.698 299.451C833.698 299.563 833.676 299.674 833.632 299.778C833.589 299.881 833.525 299.975 833.445 300.053C833.365 300.131 833.27 300.193 833.166 300.234C833.062 300.276 832.95 300.296 832.838 300.293V300.293Z" fill="#60C9EB"/>
<path fill-rule="evenodd" clip-rule="evenodd" d="M360.065 302.993C359.608 302.998 359.152 302.914 358.724 302.745C358.286 302.571 357.886 302.312 357.55 301.982C357.213 301.652 356.945 301.258 356.763 300.823C356.58 300.389 356.486 299.923 356.486 299.451M360.065 302.993L832.82 302.993ZM832.82 302.993C833.277 302.998 833.732 302.914 834.16 302.745C834.599 302.571 834.998 302.312 835.335 301.982C835.672 301.652 835.939 301.258 836.122 300.823C836.304 300.389 836.398 299.923 836.398 299.451M832.838 300.293L832.856 299.451L832.895 297.594C832.876 297.593 832.857 297.593 832.838 297.593L832.838 300.293ZM357.529 296.934C358.196 296.267 359.102 295.891 360.046 295.891L832.838 295.891C833.783 295.891 834.688 296.267 835.356 296.934C836.023 297.601 836.398 298.507 836.398 299.451M357.529 296.934C356.862 297.601 356.486 298.507 356.486 299.451Z" fill="#60C9EB"/>
<path d="M832.833 388.762L360.041 388.762C359.929 388.764 359.817 388.744 359.713 388.703C359.609 388.662 359.514 388.6 359.434 388.521C359.354 388.443 359.29 388.349 359.247 388.246C359.203 388.143 359.181 388.032 359.181 387.92C359.181 387.692 359.272 387.473 359.433 387.312C359.594 387.15 359.813 387.06 360.041 387.06L832.833 387.06C833.061 387.06 833.28 387.15 833.441 387.312C833.602 387.473 833.693 387.692 833.693 387.92C833.693 388.032 833.67 388.143 833.627 388.246C833.584 388.349 833.52 388.443 833.44 388.521C833.36 388.6 833.265 388.662 833.161 388.703C833.056 388.744 832.945 388.764 832.833 388.762V388.762Z" fill="#60C9EB"/>
<path fill-rule="evenodd" clip-rule="evenodd" d="M360.059 391.462C359.602 391.467 359.147 391.383 358.719 391.213C358.28 391.039 357.881 390.78 357.544 390.45C357.207 390.12 356.94 389.726 356.757 389.292C356.575 388.857 356.481 388.391 356.481 387.92M360.059 391.462L832.814 391.462ZM832.814 391.462C833.271 391.467 833.727 391.383 834.155 391.213C834.593 391.04 834.993 390.78 835.329 390.45C835.666 390.12 835.934 389.726 836.116 389.292C836.299 388.857 836.393 388.391 836.393 387.92M832.833 388.762L832.85 387.92L832.889 386.062C832.87 386.062 832.852 386.062 832.833 386.062L832.833 388.762ZM357.524 385.402C358.191 384.735 359.096 384.36 360.041 384.36L832.833 384.36C833.777 384.36 834.683 384.735 835.35 385.402C836.017 386.07 836.393 386.975 836.393 387.92M357.524 385.402C356.856 386.07 356.481 386.975 356.481 387.92Z" fill="#60C9EB"/>
<path d="M832.838 477.227L360.046 477.227C359.934 477.23 359.823 477.209 359.719 477.168C359.614 477.127 359.519 477.065 359.439 476.987C359.359 476.908 359.296 476.815 359.252 476.711C359.209 476.608 359.186 476.497 359.187 476.385C359.187 476.157 359.277 475.938 359.438 475.777C359.6 475.616 359.818 475.525 360.046 475.525L832.838 475.525C833.066 475.525 833.285 475.616 833.446 475.777C833.607 475.938 833.698 476.157 833.698 476.385C833.698 476.497 833.676 476.608 833.632 476.711C833.589 476.815 833.525 476.908 833.445 476.987C833.365 477.065 833.27 477.127 833.166 477.168C833.062 477.209 832.95 477.23 832.838 477.227V477.227Z" fill="#60C9EB"/>
<path fill-rule="evenodd" clip-rule="evenodd" d="M360.065 479.927C359.604 479.932 359.149 479.847 358.724 479.679C358.286 479.505 357.886 479.245 357.55 478.916C357.213 478.585 356.945 478.192 356.763 477.757C356.581 477.323 356.486 476.857 356.486 476.385M360.065 479.927L832.82 479.927ZM832.82 479.927C833.28 479.932 833.735 479.847 834.16 479.679C834.599 479.505 834.998 479.245 835.335 478.916C835.672 478.585 835.939 478.192 836.122 477.757C836.304 477.323 836.398 476.857 836.398 476.385M832.838 477.227L832.856 476.385L832.895 474.528C832.876 474.527 832.857 474.527 832.838 474.527L832.838 477.227ZM357.529 473.868C358.196 473.2 359.102 472.825 360.046 472.825L832.838 472.825C833.783 472.825 834.688 473.2 835.356 473.868C836.023 474.535 836.398 475.442 836.398 476.385M357.529 473.868C356.861 474.535 356.486 475.442 356.486 476.385Z" fill="#60C9EB"/>
<path d="M832.831 565.694H360.039C359.927 565.697 359.815 565.677 359.711 565.635C359.607 565.594 359.512 565.532 359.432 565.454C359.352 565.376 359.288 565.282 359.245 565.179C359.202 565.075 359.179 564.964 359.179 564.852C359.179 564.624 359.27 564.405 359.431 564.244C359.592 564.083 359.811 563.992 360.039 563.992H832.831C833.059 563.992 833.278 564.083 833.439 564.244C833.6 564.405 833.691 564.624 833.691 564.852C833.691 564.964 833.668 565.075 833.625 565.179C833.582 565.282 833.518 565.376 833.438 565.454C833.358 565.532 833.263 565.594 833.159 565.635C833.054 565.677 832.943 565.697 832.831 565.694V565.694Z" fill="#60C9EB"/>
<path fill-rule="evenodd" clip-rule="evenodd" d="M360.057 568.394C359.6 568.399 359.145 568.315 358.717 568.146C358.278 567.972 357.879 567.712 357.542 567.383C357.205 567.053 356.938 566.659 356.756 566.224C356.573 565.79 356.479 565.323 356.479 564.852M360.057 568.394H832.812ZM832.812 568.394C833.269 568.399 833.725 568.315 834.153 568.146C834.591 567.972 834.991 567.713 835.327 567.383C835.664 567.053 835.932 566.659 836.114 566.224C836.297 565.79 836.391 565.323 836.391 564.852M832.831 565.694L832.848 564.852L832.887 562.995C832.868 562.994 832.85 562.994 832.831 562.994L832.831 565.694ZM357.522 562.335C358.189 561.668 359.094 561.292 360.039 561.292H832.831C833.776 561.292 834.681 561.668 835.348 562.335C836.015 563.002 836.391 563.908 836.391 564.852M357.522 562.335C356.854 563.002 356.479 563.908 356.479 564.852Z" fill="#60C9EB"/>
<path d="M832.838 654.157H360.046C359.934 654.159 359.822 654.139 359.718 654.098C359.614 654.057 359.519 653.995 359.439 653.917C359.359 653.838 359.295 653.745 359.252 653.641C359.208 653.538 359.186 653.427 359.186 653.315C359.186 653.087 359.277 652.868 359.438 652.707C359.599 652.546 359.818 652.455 360.046 652.455H832.838C833.066 652.455 833.285 652.546 833.446 652.707C833.607 652.868 833.698 653.087 833.698 653.315C833.698 653.427 833.675 653.538 833.632 653.641C833.588 653.745 833.525 653.838 833.445 653.917C833.365 653.995 833.27 654.057 833.165 654.098C833.061 654.139 832.95 654.159 832.838 654.157V654.157Z" fill="#60C9EB"/>
<path fill-rule="evenodd" clip-rule="evenodd" d="M360.064 656.857C359.607 656.862 359.152 656.778 358.724 656.608C358.285 656.435 357.886 656.175 357.549 655.846C357.212 655.515 356.945 655.121 356.762 654.687C356.58 654.253 356.486 653.786 356.486 653.315M360.064 656.857H832.819ZM832.819 656.857C833.276 656.862 833.732 656.778 834.16 656.608C834.598 656.435 834.998 656.175 835.334 655.846C835.671 655.515 835.939 655.121 836.121 654.687C836.304 654.253 836.398 653.786 836.398 653.315M832.838 654.157L832.855 653.315L832.894 651.457C832.875 651.457 832.857 651.457 832.838 651.457L832.838 654.157ZM357.529 650.797C358.197 650.129 359.103 649.755 360.046 649.755H832.838C833.781 649.755 834.687 650.129 835.355 650.797C836.023 651.465 836.398 652.371 836.398 653.315M357.529 650.797C356.861 651.465 356.486 652.371 356.486 653.315Z" fill="#60C9EB"/>
<path d="M832.834 742.625H360.042C359.93 742.627 359.819 742.607 359.715 742.566C359.61 742.524 359.516 742.463 359.435 742.384C359.355 742.306 359.292 742.212 359.248 742.109C359.205 742.005 359.183 741.894 359.183 741.782C359.183 741.554 359.273 741.336 359.434 741.174C359.596 741.013 359.814 740.923 360.042 740.923H832.834C833.062 740.923 833.281 741.013 833.442 741.174C833.604 741.336 833.694 741.554 833.694 741.782C833.694 741.894 833.672 742.005 833.628 742.109C833.585 742.212 833.521 742.306 833.441 742.384C833.361 742.463 833.266 742.524 833.162 742.566C833.058 742.607 832.946 742.627 832.834 742.625Z" fill="#60C9EB"/>
<path fill-rule="evenodd" clip-rule="evenodd" d="M360.061 745.325H832.816C833.276 745.329 833.731 745.244 834.156 745.076C834.595 744.902 834.994 744.643 835.331 744.313C835.668 743.983 835.935 743.589 836.118 743.155C836.3 742.72 836.394 742.254 836.394 741.782M360.061 745.325C359.601 745.329 359.145 745.244 358.72 745.076C358.282 744.902 357.882 744.643 357.546 744.313C357.209 743.983 356.941 743.589 356.759 743.155C356.576 742.72 356.482 742.254 356.482 741.782M357.525 739.265C358.192 738.598 359.098 738.222 360.042 738.222H832.834C833.779 738.222 834.684 738.598 835.352 739.265C836.019 739.932 836.394 740.837 836.394 741.782M357.525 739.265C356.858 739.932 356.483 740.837 356.482 741.782Z" fill="#60C9EB"/>
<path d="M223.282 830.244L205.983 26.2698L298.474 28.1257L322.558 414.461L321.698 834.119L223.282 830.244Z" fill="#60C9EB"/>
</svg>
