<svg width="750" height="862" viewBox="0 0 750 862" fill="none" xmlns="http://www.w3.org/2000/svg">
<path d="M548.307 66.8537C548.377 68.1677 548.304 69.4856 548.089 70.7839C548.008 71.2402 547.885 71.6881 547.721 72.1218C546.534 75.2158 543.339 77.0388 540.262 78.2429C532.736 81.1697 525.846 85.4678 518.688 89.2475C486.293 106.407 453.597 122.897 420.734 139.136C414.696 142.113 408.542 145.123 401.919 146.227C391.617 147.9 381.13 144.806 371.447 140.892C354.472 134.035 337.229 128.516 320.103 122.044C305.67 116.575 291.321 110.805 277.239 104.467C269.847 101.122 262.527 97.632 255.28 93.9972C250.58 91.6224 242.101 88.9799 239.626 83.9626C238.724 81.7607 238.27 79.4014 238.288 77.0221C237.569 63.9604 236.783 50.8652 236.013 37.8035C231.651 38.4381 227.235 38.6231 222.835 38.3554H222.35C221.842 38.4861 221.312 38.515 220.793 38.4403C220.273 38.3657 219.774 38.1891 219.323 37.9206C218.394 37.36 217.72 36.4604 217.442 35.4119C217.164 34.3634 217.305 33.248 217.834 32.3012C221.748 25.9237 225.483 19.4458 229.04 12.8676C232.535 6.37854 234.057 3.56885 242.151 3.46851C261.206 3.29011 280.261 3.08385 299.315 2.84971C378.956 1.91315 458.581 0.976585 538.188 0.0400233C540.163 -0.11019 542.148 0.163513 544.008 0.84279C549.377 3.30126 547.353 15.1755 547.587 19.9587C548.072 35.5959 548.072 51.2332 548.307 66.8537Z" fill="#E96262"/>
</svg>
