<svg width="750" height="862" viewBox="0 0 750 862" fill="none" xmlns="http://www.w3.org/2000/svg">
<path d="M713.237 825.018C502.327 870.592 228.851 861.578 4.12695 838.782C25.4337 577.37 46.746 315.953 68.0639 54.5293L666.376 86.941C675.507 269.57 723.673 698.85 713.237 825.018Z" fill="#E9AD62"/>
<path d="M351.057 861.726C226.21 861.726 104.257 853.097 3.71017 842.895C2.63441 842.785 1.64474 842.257 0.953682 841.425C0.262625 840.593 -0.0748509 839.524 0.0139603 838.446L63.951 54.1929C64.024 53.1159 64.5208 52.1116 65.3327 51.4001C66.1445 50.6885 67.2054 50.3277 68.2827 50.3965L666.595 82.8082C667.616 82.8683 668.579 83.3022 669.301 84.027C670.023 84.7519 670.453 85.717 670.508 86.7384C673.736 151.445 681.931 247.626 690.578 349.461C706.298 534.181 724.026 743.552 717.336 825.351C717.263 826.234 716.908 827.069 716.324 827.735C715.74 828.4 714.958 828.86 714.092 829.047C602.524 853.164 475.369 861.726 351.057 861.726ZM8.5768 835.068C207.496 855.137 488.698 868.617 709.325 821.688C715.363 738.485 697.819 532.358 682.316 350.23C673.82 250.252 665.775 155.71 662.397 91.0031L71.8617 58.859L8.5768 835.068Z" fill="#E9AD62"/>
<path d="M745.646 786.585C536.809 840.571 263.216 843.147 37.7393 830.068C48.1306 570.407 58.5108 310.739 68.8799 51.0667L668.011 58.0072C684.769 238.346 750.814 661.186 745.646 786.585Z" fill="#E96262"/>
<path d="M257.735 840.771C178.696 840.771 103.537 837.978 37.509 834.082C36.4309 834.017 35.4212 833.532 34.6959 832.732C33.9707 831.932 33.5877 830.879 33.629 829.8L64.7697 50.7986C64.8129 49.7367 65.2652 48.7327 66.0321 47.997C66.7991 47.2612 67.821 46.8508 68.8838 46.8517V46.8517L668.015 53.7923C669.032 53.8006 670.01 54.187 670.758 54.8764C671.506 55.5657 671.971 56.5087 672.063 57.5218C678 121.442 690.192 216.319 703.103 316.749C726.517 498.943 753.058 705.438 749.713 786.702C749.674 787.585 749.351 788.432 748.795 789.118C748.238 789.804 747.475 790.294 746.62 790.515C597.874 829.031 419.693 840.771 257.735 840.771ZM41.9912 826.138C241.562 837.577 523.082 839.183 741.619 783.357C744.161 700.739 718.038 497.472 694.958 317.852C682.281 219.179 670.307 126.008 664.236 61.9705L72.8139 55.1302L41.9912 826.138Z" fill="#E96262"/>
<path d="M740.286 638.374C739.951 661.52 739.511 684.617 738.965 707.663L735.319 710.188C734.315 710.891 733.312 711.593 732.308 712.262C692.939 739.021 652.873 764.665 612.111 789.194C605.744 793.041 599.367 796.865 592.978 800.667C589.332 802.841 585.703 804.982 582.057 807.122L571.086 813.528C567.44 815.668 563.783 817.792 560.115 819.9L559.228 820.435C523.26 819.9 487.308 819.125 451.373 818.11C321.091 814.565 190.926 809.096 60.4259 808.644C56.7131 555.94 60.7271 303.308 72.4676 50.7485C290.034 27.9366 502.45 26.5652 720.986 36.2653C738.229 234.231 743.213 438.167 740.286 638.374Z" fill="#60C9EB"/>
<path d="M735.32 710.189C734.317 710.891 733.313 711.594 732.31 712.263C692.941 739.022 652.875 764.666 612.112 789.195C605.746 793.041 599.368 796.865 592.98 800.667C589.334 802.842 585.704 804.982 582.058 807.123L571.087 813.528C567.442 815.669 563.784 817.793 560.116 819.9C573.195 783.408 585.303 746.564 596.441 709.369C598.671 702.055 600.84 694.736 602.947 687.41C607.964 688.196 613.149 688.715 618.25 689.35L619.404 689.501L619.989 689.618C622.431 690.153 625.006 690.488 627.415 691.023L636.362 692.946C652.936 696.525 669.51 700.004 686.268 702.797C702.574 705.54 718.913 707.965 735.32 710.189Z" fill="#60C9EB"/>
<path d="M559.228 824.6C526.883 824.132 491.595 823.362 451.323 822.275C415.065 821.288 378.221 820.134 342.615 819.014C250.213 816.121 154.65 813.127 60.5092 812.809C59.4311 812.809 58.3964 812.385 57.6294 811.627C56.8624 810.869 56.425 809.84 56.4118 808.762C52.699 557.061 56.7462 302.015 68.4532 50.5654C68.4993 49.5816 68.8953 48.6465 69.5699 47.929C70.2446 47.2114 71.1534 46.7585 72.1325 46.6519C270.115 25.897 476.376 21.2811 721.27 32.1519C722.27 32.1966 723.219 32.6028 723.942 33.2949C724.665 33.987 725.112 34.918 725.2 35.9149C741.172 219.431 747.661 422.146 744.5 638.425C744.182 660.969 743.731 684.3 743.179 707.764C743.173 708.423 743.008 709.07 742.7 709.652C742.391 710.234 741.948 710.734 741.406 711.109L737.743 713.634C736.757 714.336 735.72 715.039 734.7 715.725C696.702 741.597 656.196 767.57 614.284 792.807C607.896 796.67 601.524 800.5 595.102 804.297C591.473 806.471 587.827 808.611 584.181 810.769L573.209 817.191C569.541 819.332 565.868 821.461 562.188 823.58C561.954 823.73 561.603 823.948 561.252 824.132C560.628 824.457 559.931 824.618 559.228 824.6ZM64.4728 804.531C157.427 804.915 251.635 807.876 342.782 810.719C378.405 811.839 415.249 812.993 451.49 814.064C491.261 815.134 526.164 815.887 558.141 816.372C561.854 814.248 565.433 812.157 569.028 810.05L580 803.628C583.612 801.509 587.236 799.363 590.87 797.189C597.27 793.398 603.648 789.579 610.003 785.733C651.814 760.529 692.103 734.673 730 708.801L732.96 706.76L734.917 705.406C735.452 682.677 735.87 660.083 736.188 638.241C739.332 423.651 732.944 222.458 717.223 40.1461C475.774 29.5764 271.938 34.1087 76.4307 54.412C64.891 303.22 60.8938 555.556 64.4728 804.598V804.531Z" fill="#FFE600"/>
<path d="M559.233 824.601C558.783 824.602 558.337 824.529 557.912 824.383C556.878 824.033 556.025 823.287 555.539 822.309C555.053 821.331 554.974 820.201 555.319 819.165L599.622 687.043C599.929 686.131 600.544 685.354 601.363 684.847C602.181 684.34 603.151 684.135 604.104 684.267L739.571 703.634C740.116 703.698 740.642 703.87 741.119 704.141C741.596 704.411 742.014 704.774 742.349 705.209C742.684 705.643 742.928 706.14 743.068 706.671C743.208 707.201 743.24 707.754 743.163 708.297C743.086 708.84 742.902 709.362 742.62 709.833C742.338 710.303 741.966 710.713 741.523 711.037C741.081 711.361 740.579 711.594 740.045 711.721C739.512 711.849 738.958 711.868 738.417 711.779L606.295 692.914L563.096 821.825C562.819 822.63 562.298 823.33 561.606 823.828C560.914 824.325 560.085 824.595 559.233 824.601Z" fill="#FFE600"/>
<path d="M74.6917 50.555L394.105 29.2991L722.71 36.1929L742.242 406.735V708.34L604.941 687.658L561.854 820.939L61.4785 808.874L61.4785 426.268L74.6917 50.555Z" fill="#FFE600"/>
<path d="M547.621 19.9587C547.47 15.1755 549.41 3.23437 544.042 0.84279C542.181 0.163513 540.197 -0.11019 538.222 0.0400233C458.581 0.909687 378.945 1.8128 299.315 2.74936C280.261 2.9612 261.206 3.16747 242.151 3.36816C234.124 3.46851 232.535 6.27819 229.04 12.7672C225.544 19.2563 221.748 25.8289 217.834 32.2009C217.305 33.1477 217.164 34.2631 217.442 35.3116C217.72 36.3601 218.394 37.2596 219.323 37.8202C219.774 38.0887 220.273 38.2654 220.793 38.34C221.312 38.4146 221.842 38.3858 222.35 38.2551H222.835C227.235 38.5227 231.651 38.3378 236.013 37.7032C236.783 50.7649 237.569 63.86 238.288 76.9217C238.27 79.301 238.724 81.6603 239.626 83.8623C242.101 88.9632 250.58 91.5555 255.28 93.8969C262.527 97.5539 269.847 101.044 277.239 104.366C291.321 110.705 305.67 116.475 320.103 121.944C337.229 128.416 354.472 133.935 371.447 140.792C381.13 144.705 391.617 147.799 401.919 146.127C408.608 145.023 414.696 142.013 420.734 139.036C453.597 122.796 486.293 106.306 518.688 89.1472C525.846 85.3675 532.736 81.0693 540.262 78.1426C543.339 76.9384 546.534 75.1155 547.721 72.0215C547.885 71.5877 548.008 71.1398 548.089 70.6835C548.304 69.3852 548.377 68.0674 548.307 66.7533C548.072 51.2331 548.072 35.5959 547.621 19.9587ZM539.493 69.5797C501.646 85.8692 467.06 108.564 429.765 125.957C419.084 131.002 408.117 135.413 396.918 139.17C396.586 139.281 396.266 139.427 395.965 139.604C356.345 126.643 316.608 113.565 278.66 96.1212C267.857 91.1708 257.226 85.8525 246.767 80.1662C245.418 57.2985 244.063 34.4419 242.703 11.5965L357.097 10.3088L475.84 8.95408L539.008 8.25166C539.933 28.6888 540.095 49.1314 539.493 69.5797V69.5797Z" fill="#E96262"/>
<path d="M395.238 519.045L338.204 516.269L336.988 490.038L355.22 375.983L353.599 350.557L444.351 356.779L446.061 379.519L462.807 491.784L462.132 515.687L406.402 516.807L400.055 453.781L395.238 519.045ZM389.611 397.514L400.01 428.087L409.374 397.514L400.055 375.893L389.611 397.514Z" fill="#E96262"/>
<path d="M505.59 515.183L486.538 400.661L486.606 374.966L537.875 371.963L537.457 443.41L541.336 444.084L565.228 368.344L600.008 359.943L599.397 378.28L571.698 444L604.23 481.763L619.018 456.573L649.547 456.05L612.466 529.217L552.67 456.182L541.017 455.368L564.592 534.108L508.667 535.196L505.59 515.183Z" fill="white"/>
<path d="M187.85 490.229L202.621 380.969L209.876 357.671L257.243 369.298L236.862 434.017L240.193 435.716L283.078 373.671L316.992 375.784L311.304 392.254L267.77 444.139L282.048 486.074L293.713 465.491L321.025 472.544L274.68 530.963L247.092 449.867L236.744 445.866L236.095 523.921L185.04 509.252L187.85 490.229Z" fill="#60C9EB"/>
<path d="M463.064 766.947L421.006 765.434L432.602 697.368L391.616 766.745L358.944 762.905L358.857 747.752L364.028 704.205L363.007 647.648L367.652 632.852L412.176 628.766L397.924 702.344L437.99 630.389L470.513 636.402L471.355 649.724L466.903 748.879L463.064 766.947Z" fill="#E9AD62"/>
<path d="M636.438 679.095L596.4 669.984L598.856 651.024L626.185 571.52L628.252 553.087L691.73 568.879L690.066 585.398L687.732 667.985L684.232 685.04L644.626 678.884L648.099 632.9L636.438 679.095ZM647.817 591.252L651.316 614.472L661.812 593.72L657.946 577.054L647.817 591.252Z" fill="white"/>
<path d="M93.9654 740.976L90.7754 628.292L94.2352 603.584L143.93 607.471L134.089 676.145L137.73 677.307L170.709 607.605L205.261 604.12L202.251 621.679L166.935 681.239L188.277 721.184L196.635 698.485L225.346 701.078L188.277 767.695L147.03 690.443L135.932 688.119L148.198 766.98L94.2802 760.635L93.9654 740.976Z" fill="#E9AD62"/>
<path d="M356.509 705.466L303.459 708.597L301.751 686.228L290.987 585.78L293.405 566.899L348.986 557.183L397.355 588.026L336.53 657.159L351.259 684.315L356.509 705.466Z" fill="#E96262"/>
<path d="M188.482 666.492L220.543 647.37L269.901 692.672L236.38 641.539L274.51 611.187L284.354 633.749L290.859 703.67L296.668 781.601L235.689 724.974L234.39 725.198L266.855 737.834L267.765 730.061L220.484 689.697L192.645 680.109L188.482 666.492Z" fill="#60C9EB"/>
<path d="M582.566 698.359L570.162 743.9L566.208 744.428L551.688 716.694L478.352 709.003L479.727 685.171L492.453 589.876L494.258 566.331L532.48 577.458L526.69 700.49L549.376 579.223L585.146 581.828L582.895 600.136L582.566 698.359Z" fill="#60C9EB"/>
<path d="M295.478 230.729C295.478 245.815 332.22 268.104 318.777 268.104C288.981 268.104 253.092 245.815 253.092 230.729C253.092 215.644 314.457 181.997 327.901 181.997C341.344 181.997 295.478 215.644 295.478 230.729Z" fill="white"/>
<path d="M417.788 220.129C417.788 236.426 417.803 273.417 402.612 273.417C368.942 273.417 369.89 236.426 369.89 220.129C369.89 203.832 381.731 166.84 396.922 166.84C412.112 166.84 417.788 203.832 417.788 220.129Z" fill="white"/>
<path d="M394.597 126.561L467.612 219.489L402.972 312.69L334.682 224.964L394.597 126.561ZM402.021 268.357L412.889 222.042L397.645 171.102L384.218 223.223L402.021 268.357Z" fill="#60C9EB"/>
<path d="M654.658 339.752L615.185 322.534L651.758 262.085L586.713 312.757L557.05 296.846L562.652 282.387L583.911 242.87L604.154 188.644L614.127 176.301L658.047 189.113L616.878 253.813L682.014 200.341L710.72 218.266L706.524 231.265L665.09 323.991L654.658 339.752Z" fill="#E9AD62"/>
<path d="M302.63 226.707L338.462 266L287.385 305.638L227.535 302.393V283.179L226.6 171.577L229.095 155.349L287.58 154.397L339.202 183.953L302.63 226.707L288.984 234.453L283.135 226.707L287.385 217.144L326.492 181.746L288.984 204.162L261.691 226.707L290.933 262.581L318.226 266L288.984 234.453L302.63 226.707Z" fill="#E96262"/>
<path d="M537.114 289.079L477.779 287.289L478.099 262.085L476.09 148.598L480.654 127.709L543.458 122.383L594.212 161.727L519.678 233.024L533.371 264.885L537.114 289.079Z" fill="#E96262"/>
<path d="M208.526 130.228L214.151 183.873L203.333 186.879L185.337 158.147L200.976 293.883L139.531 300.962L141.142 288.408L123.815 170.979L104.418 194.014L102.39 196.517L91.916 140.188L208.526 130.228Z" fill="white"/>
<path d="M548.307 66.8537C548.377 68.1677 548.304 69.4856 548.089 70.7839C548.008 71.2402 547.885 71.6881 547.721 72.1218C546.534 75.2158 543.339 77.0388 540.262 78.2429C532.736 81.1697 525.846 85.4678 518.688 89.2475C486.293 106.407 453.597 122.897 420.734 139.136C414.696 142.113 408.542 145.123 401.919 146.227C391.617 147.9 381.13 144.806 371.447 140.892C354.472 134.035 337.229 128.516 320.103 122.044C305.67 116.575 291.321 110.805 277.239 104.467C269.847 101.122 262.527 97.632 255.28 93.9972C250.58 91.6224 242.101 88.9799 239.626 83.9626C238.724 81.7607 238.27 79.4014 238.288 77.0221C237.569 63.9604 236.783 50.8652 236.013 37.8035C231.651 38.4381 227.235 38.6231 222.835 38.3554H222.35C221.842 38.4861 221.312 38.515 220.793 38.4403C220.273 38.3657 219.774 38.1891 219.323 37.9206C218.394 37.36 217.72 36.4604 217.442 35.4119C217.164 34.3634 217.305 33.248 217.834 32.3012C221.748 25.9237 225.483 19.4458 229.04 12.8676C232.535 6.37854 234.057 3.56885 242.151 3.46851C261.206 3.29011 280.261 3.08385 299.315 2.84971C378.956 1.91315 458.581 0.976585 538.188 0.0400233C540.163 -0.11019 542.148 0.163513 544.008 0.84279C549.377 3.30126 547.353 15.1755 547.587 19.9587C548.072 35.5959 548.072 51.2332 548.307 66.8537Z" fill="#E96262"/>
</svg>
