<svg width="679" height="649" viewBox="0 0 679 649" fill="none" xmlns="http://www.w3.org/2000/svg">
<path d="M638.475 394.678L563.932 517.313C424.111 562.684 284.362 597.539 139.358 621.707C92.87 475.067 52.638 327.408 17.8454 177.59C191.278 140.16 363.344 97.0543 534.041 48.2741C575.599 161.228 610.294 277.681 638.475 394.678Z" fill="white"/>
<path d="M544.129 422.102L640.688 394.087L564.63 519.807L544.129 422.102Z" fill="white"/>
<path d="M564.589 519.672L564.426 519.718C564.116 519.783 563.796 519.786 563.484 519.727C563.173 519.668 562.877 519.548 562.612 519.374C562.347 519.201 562.118 518.977 561.94 518.715C561.762 518.453 561.637 518.159 561.572 517.848L541.763 422.609C541.637 422.013 541.742 421.391 542.057 420.869C542.371 420.347 542.871 419.963 543.457 419.795L637.81 392.399C638.412 392.271 639.04 392.377 639.566 392.695C640.093 393.014 640.478 393.521 640.645 394.113C640.811 394.706 640.745 395.339 640.461 395.885C640.177 396.431 639.696 396.848 639.115 397.052L546.917 423.823L566.267 516.873C566.386 517.464 566.281 518.08 565.97 518.598C565.66 519.116 565.167 519.499 564.589 519.672Z" fill="#60C9EB" stroke="#60C9EB" stroke-width="2.26645"/>
<path d="M444.138 556.143C343.992 584.316 242.385 607.011 139.769 624.128C139.195 624.222 138.607 624.106 138.111 623.803C137.615 623.499 137.245 623.027 137.069 622.473C91.3069 478.125 50.4154 328.632 15.5 178.155C15.4277 177.843 15.418 177.52 15.4717 177.205C15.5253 176.89 15.6412 176.588 15.8126 176.318C15.985 176.047 16.209 175.814 16.4718 175.63C16.7345 175.446 17.0309 175.316 17.3441 175.246C189.861 138.018 363.482 94.507 533.386 45.9736C533.971 45.8099 534.596 45.8721 535.137 46.1477C535.678 46.4234 536.096 46.8924 536.308 47.4618C576.685 157.31 611.84 273.965 640.796 394.202C640.945 394.821 640.845 395.473 640.519 396.019L565.966 518.657C565.672 519.153 565.205 519.524 564.654 519.698C524.195 532.803 484.023 544.952 444.138 556.143ZM141.035 619.011C282.265 595.374 420.101 561.408 562.33 515.288L635.891 394.243C607.194 275.3 572.437 159.879 532.563 51.1211C364.045 99.2449 191.884 142.388 20.7798 179.375C55.3753 328.306 95.8214 476.175 141.035 619.011V619.011Z" fill="#60C9EB" stroke="#60C9EB" stroke-width="2.26645"/>
<path d="M451.086 92.2121C459.044 95.1547 464.832 97.9297 472.791 100.841C452.579 109.963 432.161 118.476 411.538 126.381C399.464 131.011 387.33 135.451 375.135 139.701C350.038 148.386 324.673 156.21 299.039 163.176C286.553 166.562 274.018 169.734 261.433 172.692C237.91 178.278 214.216 183.146 190.352 187.296C178.863 189.313 167.332 191.168 155.759 192.863C147.932 193.989 140.093 195.047 132.241 196.035C133.544 192.896 135.746 189.049 137.049 185.909C133.142 184.821 129.227 182.452 125.3 180.925C124.517 180.606 123.717 180.329 122.904 180.096C126.416 173.873 130.533 164.272 134.061 158.034C128.949 156.156 124.092 152.643 119.094 150.102C117.834 149.449 116.535 148.873 115.205 148.378C119.416 141.255 123.757 134.592 127.913 127.526C119.11 126.663 114.685 121.922 107.561 116.675C125.293 111.01 143.041 105.474 160.805 100.069C175.423 95.6014 190.06 91.2043 204.718 86.8776C220.914 82.0845 237.141 77.376 253.399 72.752C267.581 68.7242 281.782 64.7394 296.003 60.7976C317.868 54.7865 339.778 48.9249 361.734 43.2127C374.481 39.8982 387.245 36.6308 400.025 33.4104C410.981 30.6468 421.92 27.9224 432.842 25.2372C431.79 29.9003 431.22 36.4987 430.161 41.1741C433.338 40.5417 436.714 39.9567 440.18 39.3982C449.027 37.9507 458.448 36.5908 466.549 34.9905C458.552 48.6203 447.948 64.3896 439.949 78.0098C440.83 78.0523 441.736 78.1086 442.669 78.1883C449.995 78.7309 458.617 80.0586 465.574 80.3941C460.649 84.2394 455.936 88.4704 451.086 92.2121Z" fill="#60C9EB"/>
<path d="M308.783 162.957C250.982 179.145 192.055 191.002 132.492 198.429C132.073 198.48 131.648 198.421 131.259 198.258C130.87 198.095 130.531 197.833 130.274 197.498C130.016 197.163 129.852 196.765 129.798 196.346C129.744 195.926 129.802 195.5 129.966 195.111C130.647 193.44 131.561 191.61 132.451 189.838C132.87 189.007 133.305 188.16 133.695 187.336C132.054 186.689 130.444 185.93 128.865 185.172C126.731 184.078 124.51 183.161 122.226 182.429C121.873 182.333 121.547 182.156 121.272 181.914C120.998 181.671 120.783 181.369 120.644 181.031C120.505 180.692 120.445 180.327 120.468 179.962C120.491 179.596 120.597 179.241 120.777 178.923C122.489 175.876 124.413 171.889 126.279 168.063C127.734 165.057 129.217 161.97 130.641 159.262C128.147 158.12 125.78 156.693 123.388 155.325C120.518 153.515 117.494 151.959 114.352 150.677C114.022 150.553 113.724 150.36 113.477 150.109C113.23 149.858 113.041 149.557 112.922 149.226C112.804 148.894 112.759 148.541 112.791 148.191C112.822 147.84 112.93 147.501 113.106 147.197C115.204 143.606 117.386 140.096 119.48 136.713C120.972 134.318 122.497 131.861 123.993 129.371C118.197 128.006 114.202 124.873 109.705 121.425C108.564 120.534 107.375 119.615 106.098 118.68C105.74 118.415 105.462 118.057 105.294 117.645C105.126 117.233 105.075 116.782 105.147 116.343C105.218 115.904 105.409 115.493 105.699 115.155C105.989 114.817 106.366 114.566 106.789 114.428C213.686 80.4275 323.181 49.6726 432.239 23.0047C432.637 22.9102 433.052 22.9186 433.445 23.0292C433.838 23.1399 434.197 23.349 434.487 23.6368C434.776 23.9297 434.985 24.2911 435.097 24.6872C435.208 25.0832 435.217 25.5009 435.122 25.9013C434.615 28.1139 434.214 30.928 433.822 33.6257C433.596 35.1798 433.368 36.7653 433.118 38.2741C437.893 37.4 442.999 36.5987 448.016 35.812C454.133 34.8513 460.447 33.8558 466.009 32.761C466.465 32.6717 466.938 32.7162 467.369 32.8891C467.801 33.062 468.173 33.3559 468.442 33.7356C468.71 34.1153 468.863 34.5646 468.882 35.0291C468.901 35.4937 468.786 35.9539 468.549 36.3543C464.541 43.1718 459.824 50.6335 455.255 57.8468C451.419 63.9122 447.474 70.1429 443.954 76.0059C446.872 76.2223 449.958 76.5983 452.974 76.9425C457.254 77.4392 461.77 77.9315 465.611 78.1167C466.103 78.1442 466.576 78.3216 466.965 78.6249C467.354 78.9282 467.641 79.3431 467.788 79.8141C467.934 80.285 467.934 80.7896 467.786 81.2602C467.638 81.7308 467.35 82.1451 466.96 82.4476C464.549 84.2939 462.123 86.3099 459.783 88.2605C458.481 89.3399 457.154 90.4369 455.814 91.5271C458.232 92.4736 460.484 93.4152 462.708 94.3333C466.083 95.7361 469.565 97.1914 473.512 98.6406C473.962 98.8015 474.353 99.092 474.637 99.4756C474.922 99.8592 475.085 100.319 475.108 100.795C475.131 101.272 475.012 101.745 474.766 102.154C474.52 102.563 474.158 102.89 473.727 103.093C420.322 127.151 365.186 147.162 308.783 162.957V162.957ZM136.239 193.081C251.444 178.249 362.495 147.285 466.478 101.018C464.556 100.253 462.728 99.493 460.934 98.7439C457.593 97.3523 454.138 95.9204 450.231 94.5014C449.825 94.3526 449.467 94.0975 449.194 93.7629C448.92 93.4283 448.742 93.0264 448.677 92.5993C448.612 92.1721 448.663 91.7355 448.825 91.3348C448.987 90.9342 449.253 90.5842 449.596 90.3217C452.005 88.4659 454.433 86.4596 456.774 84.5089L459.295 82.425C457.071 82.2105 454.783 81.9519 452.539 81.7017C448.19 81.2142 443.699 80.7043 439.849 80.5218C439.434 80.4994 439.031 80.3713 438.679 80.1494C438.327 79.9276 438.037 79.6194 437.837 79.2542C437.638 78.8886 437.538 78.4773 437.546 78.061C437.555 77.6447 437.672 77.2378 437.886 76.8806C441.921 70.0139 446.675 62.5003 451.279 55.2256C454.814 49.6379 458.452 43.8973 461.753 38.4371C457.572 39.1757 453.155 39.8147 448.886 40.5364C442.692 41.5187 436.296 42.5165 430.654 43.5822C430.259 43.6633 429.85 43.6429 429.465 43.5228C429.08 43.4027 428.732 43.1868 428.453 42.8955C428.174 42.6066 427.97 42.2527 427.862 41.8658C427.753 41.4788 427.743 41.071 427.831 40.6789C428.348 38.4637 428.752 35.5867 429.152 32.8452C429.358 31.4005 429.567 29.934 429.802 28.5223C323.575 54.5822 216.937 84.5252 112.759 117.556C117.93 121.56 121.684 124.461 128.175 125.092C128.579 125.131 128.966 125.271 129.301 125.499C129.637 125.727 129.909 126.035 130.094 126.397C130.277 126.759 130.367 127.161 130.356 127.567C130.345 127.973 130.234 128.37 130.032 128.722C127.931 132.303 125.746 135.804 123.655 139.196C122.027 141.806 120.365 144.477 118.735 147.191C121.189 148.334 123.586 149.721 125.896 151.092C128.766 152.899 131.788 154.451 134.929 155.73C135.259 155.851 135.559 156.043 135.807 156.291C136.056 156.54 136.247 156.839 136.368 157.169C136.49 157.496 136.538 157.845 136.511 158.192C136.483 158.54 136.38 158.877 136.208 159.181C134.489 162.24 132.555 166.23 130.686 170.046C129.266 172.99 127.82 176.025 126.421 178.675C127.976 179.273 129.511 180.023 131.004 180.732C133.156 181.84 135.399 182.762 137.708 183.488C138.038 183.58 138.345 183.741 138.609 183.96C138.872 184.18 139.086 184.452 139.236 184.761C139.386 185.069 139.469 185.405 139.479 185.748C139.49 186.091 139.427 186.431 139.296 186.748C138.608 188.39 137.704 190.186 136.837 191.93L136.239 193.081Z" fill="#60C9EB" stroke="#60C9EB" stroke-width="2.26645"/>
<path d="M79.0376 280.09L71.5736 282.214L69.1366 316.365L76.875 316.906L77.4156 309.544L88.512 306.386L92.848 312.36L99.0921 307.84L79.0376 280.09ZM77.9783 301.316L78.5912 292.696L83.6509 299.701L77.9783 301.316ZM128.334 279.884C126.791 280.323 122.149 281.59 122.149 281.59L120.705 276.515L132.946 273.031L130.821 265.567L111.116 271.175L120.378 303.718L134.013 299.838C139.536 298.266 142.74 292.513 141.182 287.039C139.61 281.516 133.871 278.362 128.334 279.884ZM131.902 292.423L125.732 294.179L124.259 289.004L130.458 287.348C131.851 286.951 133.321 287.77 133.718 289.163C134.114 290.557 133.296 292.027 131.902 292.423ZM182.013 261.809C180.442 256.286 174.689 253.082 169.165 254.654C165.781 255.617 155.531 258.534 155.531 258.534L164.793 291.077C164.793 291.077 175.043 288.16 178.427 287.197C183.951 285.625 187.154 279.872 185.596 274.398C184.917 272.01 183.448 270.061 181.559 268.716C182.47 266.628 182.693 264.197 182.013 261.809ZM176.317 279.783C174.774 280.222 170.147 281.539 170.147 281.539L168.674 276.364C168.674 276.364 173.302 275.047 174.844 274.608C176.237 274.211 177.736 275.129 178.133 276.523C178.529 277.916 177.71 279.386 176.317 279.783ZM172.734 267.193C171.191 267.632 166.564 268.949 166.564 268.949L165.119 263.874C165.119 263.874 169.747 262.557 171.289 262.118C172.683 261.721 174.153 262.54 174.55 263.933C174.946 265.327 174.127 266.797 172.734 267.193ZM199.946 245.893L209.208 278.436L216.672 276.312L209.534 251.233L221.775 247.749L219.651 240.285L199.946 245.893ZM274.448 251.854L267.296 226.725L244.506 233.211L250.808 255.355C251.275 256.997 250.264 258.737 248.622 259.204C248.373 259.275 247.527 259.516 247.527 259.516L250.813 271.06L258.227 268.95L257.052 264.82L272.812 260.281L274.001 264.46L281.415 262.35L278.13 250.806L274.448 251.854ZM267.033 253.964L258.126 256.499C258.61 255.554 258.47 254.304 258.172 253.259L253.994 238.579L262.006 236.299L267.033 253.964ZM312.326 221.978L310.201 214.514L291.691 219.782L300.952 252.325L319.463 247.057L317.353 239.643L306.306 242.787L304.805 237.512L313.812 234.949L311.772 227.783L302.766 230.347L301.279 225.122L312.326 221.978ZM351.541 210.817L349.416 203.353L330.906 208.621L340.168 241.164L358.678 235.896L356.568 228.482L345.521 231.626L344.02 226.351L353.027 223.788L350.988 216.622L341.981 219.186L340.494 213.961L351.541 210.817ZM406.068 195.244C406.516 195.117 407.76 194.763 407.76 194.763L405.649 187.349C405.649 187.349 404.405 187.703 403.958 187.83C398.235 189.459 394.889 195.467 396.532 201.24C396.687 201.787 396.658 202.441 396.537 202.959C396.011 203.002 395.535 203.029 395.023 203.121L391.667 191.328L384.253 193.438L387.595 205.182C387.076 205.437 386.592 205.628 386.137 205.919C385.711 205.556 385.342 205.016 385.186 204.469L385.236 204.454C383.593 198.682 377.585 195.336 371.813 196.979C371.415 197.092 370.121 197.46 370.121 197.46L372.231 204.875C372.231 204.875 373.525 204.506 373.923 204.393C375.615 203.912 377.34 204.873 377.822 206.565C378.431 208.704 379.658 210.56 381.27 211.877C380.607 213.894 380.527 216.069 381.15 218.258C381.617 219.9 380.656 221.626 378.964 222.108C378.566 222.221 377.273 222.589 377.273 222.589L379.383 230.003C379.383 230.003 380.676 229.635 381.075 229.522C386.847 227.879 390.193 221.87 388.564 216.148L388.515 216.162C388.345 215.565 388.388 214.961 388.559 214.428C389.085 214.386 389.611 214.344 390.172 214.238L393.515 225.981L400.929 223.871L397.587 212.128C398.07 211.936 398.489 211.709 398.959 211.468C399.335 211.845 399.69 212.336 399.86 212.933C401.488 218.656 407.497 222.002 413.22 220.373C413.667 220.246 414.911 219.892 414.911 219.892L412.801 212.477C412.801 212.477 411.557 212.831 411.109 212.959C409.467 213.426 407.741 212.465 407.274 210.823C406.651 208.634 405.388 206.842 403.762 205.475C404.439 203.508 404.555 201.269 403.946 199.129C403.464 197.438 404.426 195.712 406.068 195.244ZM452.742 183.305C451.369 178.478 445.758 174.642 438.742 176.639C433.269 178.197 430.315 182.373 429.618 183.324C429.177 184.041 427.661 186.087 427.661 186.087L433.924 191.082C433.924 191.082 434.806 189.647 435.71 188.475C436.628 187.354 437.774 185.145 440.909 184.252C443.546 183.502 444.896 184.463 445.278 185.429C445.647 186.347 446.157 188.138 441.848 190.01C440.981 190.364 438.18 191.107 438.18 191.107L440.418 198.969C440.418 198.969 443.19 198.127 444.114 197.971C448.749 197.244 449.372 199.057 449.442 200.059C449.512 201.061 448.999 202.659 446.362 203.41C443.227 204.302 441.586 203.263 440.279 202.828C439.391 202.543 436.706 201.425 436.706 201.425L434.119 208.777C434.119 208.777 436.484 209.718 437.237 210.095C438.331 210.537 443.041 212.531 448.514 210.974C455.53 208.977 458.28 202.761 456.906 197.935C456.056 194.949 454.367 192.794 451.988 191.427C453.291 189.012 453.592 186.291 452.742 183.305ZM488.716 163.707L483.507 184.339L478.465 166.625L471.001 168.749L480.263 201.292L487.727 199.168L492.95 178.586L497.978 196.25L505.392 194.14L496.13 161.597L488.716 163.707ZM538.036 143.484L530.685 139.391C529.554 140.519 528.139 141.406 526.497 141.874C524.855 142.341 523.185 142.332 521.629 141.968L517.585 149.305C521.016 150.588 524.903 150.826 528.735 149.736C532.566 148.645 535.745 146.396 538.036 143.484ZM534.54 150.666L529.331 171.297L524.289 153.583L516.825 155.707L526.087 188.25L533.551 186.126L538.774 165.544L543.802 183.209L551.216 181.098L541.954 148.555L534.54 150.666ZM111.512 385.346C113.825 382.697 114.795 378.925 113.761 375.292C113.28 373.6 114.255 371.924 115.897 371.457C116.196 371.372 116.992 371.145 116.992 371.145L114.868 363.681C114.868 363.681 114.071 363.908 113.773 363.993C108.05 365.622 104.704 371.63 106.347 377.402C106.814 379.045 105.853 380.77 104.161 381.252L104.176 381.302L101.221 379.614L98.0487 368.468L90.5847 370.592L99.8467 403.136L107.311 401.011L104.238 390.213L119.387 398.65L123.146 391.824L111.512 385.346ZM139.956 356.541C139.956 356.541 144.672 373.111 146.258 378.684C146.725 380.326 145.714 382.067 144.072 382.534C143.823 382.605 142.977 382.845 142.977 382.845L145.087 390.26C145.087 390.26 145.933 390.019 146.182 389.948C151.954 388.305 155.251 382.311 153.622 376.588C152.574 372.906 149.444 361.909 149.444 361.909L157.456 359.629L164.579 384.658L171.993 382.548L162.746 350.055L139.956 356.541ZM217.995 334.384L211.128 336.339L209.477 359.455L195.901 340.672L188.985 342.641L192.596 376.308L200.329 375.506L198.372 357.29L209.016 372.011L216.431 369.901L217.778 351.767L225.706 368.283L232.653 364.908L217.995 334.384ZM261.961 322.033L265.586 334.771L255.336 337.689L251.71 324.95L244.246 327.074L253.494 359.568L260.958 357.443L257.332 344.705L267.583 341.787L271.208 354.526L278.672 352.402L269.425 319.908L261.961 322.033ZM306.975 307.662C297.47 310.367 291.903 320.289 294.622 329.843C297.327 339.347 307.285 344.85 316.789 342.145C326.293 339.44 331.86 329.518 329.156 320.014C326.436 310.46 316.479 304.957 306.975 307.662ZM314.679 334.731C309.504 336.204 303.993 332.716 302.534 327.591C301.061 322.416 303.91 316.549 309.085 315.076C314.26 313.603 319.771 317.091 321.244 322.266C322.702 327.391 319.854 333.258 314.679 334.731ZM345.313 298.095L354.561 330.588L361.975 328.478L354.852 303.449L366.545 300.121L373.669 325.15L381.083 323.04L371.835 290.547L345.313 298.095ZM402.91 281.756C400.323 282.493 392.56 284.702 392.56 284.702L401.822 317.245L409.286 315.121L406.964 306.96C406.964 306.96 409.103 306.351 409.85 306.138C416.567 304.227 420.497 297.245 418.571 290.478C416.659 283.76 409.628 279.844 402.91 281.756ZM407.74 298.724C406.993 298.937 404.853 299.546 404.853 299.546L402.134 289.992C402.134 289.992 404.274 289.383 405.02 289.17C407.658 288.42 410.854 289.823 411.605 292.46C412.355 295.098 410.377 297.974 407.74 298.724ZM460.276 293.347C455.123 294.706 449.597 291.168 448.224 285.965C446.815 280.825 449.777 274.98 454.981 273.607C457.668 272.842 460.587 273.84 462.817 275.249L466.918 268.111C462.884 265.655 457.861 264.826 452.956 266.114C443.423 268.72 437.728 278.571 440.284 288.117C442.889 297.65 452.74 303.345 462.287 300.789C467.177 299.451 471.054 296.25 473.368 292.095L466.23 287.994C465.012 290.331 463.027 292.618 460.276 293.347ZM486.429 257.932L488.426 264.948L497.482 262.371L504.747 287.898L512.211 285.773L504.946 260.247L514.003 257.669L512.006 250.653L486.429 257.932ZM554.109 237.809L551.036 255.359L539.181 242.058L533.384 247.204L549.966 265.776L552.458 274.534L559.922 272.41L557.43 263.652L561.698 239.146L554.109 237.809ZM153.304 450.297C152.409 450.552 151.591 450.892 150.788 451.282L149.669 447.351L142.255 449.461L143.373 453.392C142.485 453.483 141.611 453.625 140.765 453.865C133.799 455.848 129.726 463.085 131.709 470.052C133.692 477.018 140.979 481.076 147.945 479.094C148.791 478.853 149.609 478.513 150.398 478.073L151.517 482.004L158.931 479.894L157.812 475.963C158.715 475.921 159.589 475.78 160.485 475.525C167.401 473.556 171.459 466.269 169.477 459.303C167.494 452.336 160.221 448.328 153.304 450.297ZM148.174 470.261C147.541 470.871 146.716 471.375 145.821 471.63C142.935 472.451 139.994 470.814 139.173 467.928C138.366 465.091 139.989 462.101 142.875 461.28C143.771 461.025 144.737 461.019 145.611 461.254L148.174 470.261ZM158.36 468.061C157.415 468.33 156.448 468.336 155.589 468.15L153.025 459.144C153.644 458.484 154.469 457.98 155.415 457.711C158.251 456.904 161.255 458.577 162.062 461.413C162.884 464.299 161.197 467.254 158.36 468.061ZM217.35 432.499L209.884 429.137L203.737 442.882L191.324 434.42L186.697 441.223L200.354 450.461L193.609 465.506L201.124 468.854L207.235 455.173L219.684 463.571L224.261 456.782L210.654 447.53L217.35 432.499ZM266.862 441.053L259.738 416.024L252.374 418.12L259.497 443.149L251.486 445.43L244.363 420.4L236.948 422.51L246.196 455.004L265.304 449.565L266.494 453.745L273.908 451.635L270.594 439.991L266.862 441.053ZM300.801 404.337L304.384 416.927C304.384 416.927 299.757 418.244 298.214 418.683C296.522 419.164 294.81 418.253 294.329 416.561C293.649 414.173 291.596 406.957 291.596 406.957L284.181 409.068C284.181 409.068 286.235 416.283 286.915 418.671C288.557 424.443 294.566 427.79 300.338 426.147C301.881 425.708 306.508 424.391 306.508 424.391L310.063 436.88L317.477 434.77L308.215 402.227L300.801 404.337ZM358.543 387.904L365.667 412.933L358.253 415.043L351.129 390.014L343.765 392.11L350.888 417.139L343.474 419.249L336.35 394.22L328.936 396.33L338.184 428.823L375.205 418.287L365.958 385.793L358.543 387.904ZM430.81 394.392L423.687 369.363L416.273 371.473L423.396 396.503L415.982 398.613L408.858 373.584L401.494 375.679L408.617 400.709L401.203 402.819L394.08 377.79L386.665 379.9L395.913 412.393L429.203 402.919L430.392 407.098L437.807 404.988L434.493 393.344L430.81 394.392ZM468.524 370.157C466.982 370.596 462.304 371.928 462.304 371.928L458.735 359.388L448.137 362.405L450.261 369.869L453.445 368.962L460.583 394.041C460.583 394.041 470.784 391.138 474.217 390.161C479.741 388.589 482.945 382.836 481.387 377.362C479.815 371.839 474.048 368.585 468.524 370.157ZM472.107 382.747C470.565 383.186 465.887 384.517 465.887 384.517L464.414 379.342C464.414 379.342 469.092 378.011 470.634 377.572C472.028 377.175 473.476 378.108 473.873 379.501C474.269 380.894 473.5 382.35 472.107 382.747ZM538.66 371.82L529.398 339.277L521.934 341.401L531.196 373.944L538.66 371.82ZM512.864 357.538L506.694 359.294L503.125 346.754L495.661 348.879L504.923 381.422C504.923 381.422 515.174 378.504 518.557 377.541C524.081 375.969 527.285 370.216 525.727 364.743C524.155 359.219 518.388 355.966 512.864 357.538ZM516.447 370.127C514.905 370.566 510.277 371.883 510.277 371.883L508.804 366.708C508.804 366.708 513.432 365.391 514.974 364.952C516.368 364.556 517.866 365.474 518.263 366.867C518.659 368.26 517.841 369.731 516.447 370.127ZM567.289 342.048C565.747 342.487 561.119 343.804 561.119 343.804L557.55 331.265L550.086 333.389L559.348 365.932C559.348 365.932 569.599 363.015 572.982 362.052C578.506 360.48 581.71 354.727 580.152 349.253C578.58 343.73 572.813 340.476 567.289 342.048ZM570.872 354.637C569.33 355.076 564.702 356.394 564.702 356.394L563.229 351.218C563.229 351.218 567.857 349.901 569.399 349.462C570.793 349.066 572.291 349.984 572.688 351.377C573.084 352.771 572.266 354.241 570.872 354.637ZM317.375 491.85C312.2 493.323 308.174 496.943 306.037 501.531L313.246 505.504C314.301 502.783 316.577 500.576 319.613 499.712C323.544 498.593 327.571 500.082 329.928 503.07L318.931 506.199L320.928 513.215L331.974 510.072C331.572 513.951 328.883 517.353 324.952 518.471C321.817 519.364 318.591 518.614 316.22 516.707L312.197 523.93C316.458 526.806 321.865 527.849 327.189 526.333C336.693 523.628 342.261 513.706 339.556 504.202C336.837 494.648 326.879 489.145 317.375 491.85ZM384.395 473.26C376.085 475.625 370.804 483.529 371.385 491.808L366.857 493.097L363.231 480.359L355.767 482.483L365.015 514.976L372.479 512.852L368.854 500.113L373.382 498.825C377.212 506.233 385.863 510.172 394.223 507.793C403.727 505.088 409.28 495.116 406.575 485.612C403.871 476.108 393.899 470.555 384.395 473.26ZM391.971 499.881C386.796 501.354 381.377 498.378 379.904 493.203C378.431 488.028 381.471 482.644 386.646 481.171C391.821 479.699 397.191 482.689 398.664 487.864C400.137 493.039 397.146 498.408 391.971 499.881ZM435.314 459.628C428.596 461.54 424.681 468.571 426.593 475.289C427.598 478.822 429.997 481.582 433.023 483.141L430.775 492.065L438.306 493.956L440.697 484.4C441.209 484.308 441.77 484.202 442.268 484.06C443.014 483.848 445.154 483.239 445.154 483.239L447.462 491.35L454.926 489.225L445.664 456.682C445.664 456.682 437.902 458.892 435.314 459.628ZM443.029 475.775C443.029 475.775 440.89 476.384 440.143 476.596C437.506 477.347 434.807 475.802 434.057 473.165C433.32 470.577 434.801 467.843 437.438 467.092C438.185 466.88 440.324 466.271 440.324 466.271L443.029 475.775Z" fill="#60C9EB"/>
</svg>
