<svg width="82" height="134" viewBox="0 0 82 134" fill="none" xmlns="http://www.w3.org/2000/svg">
<path fill-rule="evenodd" clip-rule="evenodd" d="M48.6701 39.1611C48.6701 39.0171 48.5541 39.2149 48.4649 39.4487C48.4141 39.5683 48.3726 39.6917 48.3403 39.8176C48.3403 39.8806 48.3401 39.9255 48.2955 39.9705C48.2955 40.0244 48.6078 40.9418 48.5899 41.0408C48.5721 41.1397 48.5274 41.0409 48.4649 40.951L48.3669 40.8609C48.3669 40.8609 48.3135 40.861 48.2868 40.978C48.2748 41.3307 48.3016 41.6836 48.3669 42.0303C48.3669 42.2821 48.4384 42.4979 48.4562 42.8127C48.474 43.1275 48.4562 43.4784 48.4562 43.7842C48.4446 44.0115 48.3996 44.2358 48.3225 44.4498C48.2697 44.6238 48.2278 44.8011 48.1975 44.9805C48.1443 45.248 48.1057 45.5182 48.0816 45.7899C48.0816 45.7899 47.9744 46.8514 47.9566 47.2652C47.9566 47.544 48.1173 48.6413 48.0994 48.8392C48.0458 49.3375 47.9532 49.8306 47.8229 50.3142L47.6534 50.9978C47.6534 51.1238 47.6087 51.1957 47.582 51.3845C47.5552 51.5734 47.5194 51.7624 47.4927 51.9423L47.2161 51.4386C46.0207 49.3158 45.2356 48.2724 44.0759 46.2127C43.7905 45.691 42.604 43.6402 42.7914 43.991C42.3007 43.0916 42.1222 42.3991 41.5513 41.3827L40.9536 40.3214L40.7929 40.0335L40.7041 39.8894V39.8176C40.7013 39.7637 40.7013 39.7095 40.7041 39.6556C40.6416 39.1609 40.5703 38.6482 40.4989 38.1265C40.3562 37.0832 40.2043 35.9859 40.0437 34.8436C39.9723 34.268 39.892 33.6743 39.8028 33.0447C39.8028 32.7389 39.7226 32.4421 39.687 32.1452L39.6247 31.6775V31.5605V31.5067L39.1338 26.4066C39.138 26.5402 39.1684 26.6718 39.2231 26.7935C39.2914 27.0703 39.4029 27.3343 39.5532 27.5759C39.6024 27.6573 39.647 27.7414 39.687 27.8278L39.8477 28.1247C39.9593 28.3115 40.0811 28.4915 40.2131 28.6642L40.4183 28.9161L40.677 29.285C40.8555 29.5279 41.0427 29.7616 41.239 29.9954C41.4352 30.2293 41.6497 30.4453 41.8727 30.6522L42.2203 31.0479C42.2203 31.1019 42.2649 31.0479 42.2203 31.2008C42.1757 31.3537 42.3188 31.5157 42.3188 31.5247C42.3188 31.5337 41.9796 31.6774 41.9172 31.8123C41.8629 31.9491 41.8209 32.0906 41.7921 32.2351L41.1767 33.4944C40.7861 34.3631 40.2758 35.1716 39.6604 35.8959C39.3749 36.1837 38.9553 35.896 38.652 36.1838C38.6074 36.1838 38.3133 36.7323 38.3044 36.7323C38.1899 36.1383 38.1899 35.5275 38.3044 34.9334C38.3847 34.0789 38.456 33.1975 38.5096 32.9277C38.6255 32.2621 39.0002 31.3447 39.1965 30.5442C39.2589 30.3913 39.1965 30.4093 39.1965 30.3463V30.1755C39.1965 30.1755 39.2496 29.8786 39.2496 29.8606C39.2496 29.6717 38.9554 29.4827 38.9643 29.3208C38.9643 28.997 39.2143 28.8263 39.2143 28.5564C39.2143 28.2866 39.107 28.0977 39.098 27.8638C39.0891 27.63 39.2054 27.7019 39.1965 27.5849C39.1876 27.468 39.0268 27.423 39.0179 27.3691C39.009 27.3151 39.1429 27.3152 39.1429 27.2613C39.0983 26.9195 39.0357 26.6045 38.9822 26.2448C38.9822 26.1368 38.875 26.1547 38.8214 26.1637H38.7504L38.679 26.2808C38.602 26.4706 38.5394 26.666 38.4917 26.8653C38.2018 27.6608 37.9546 28.4717 37.7512 29.294C37.6174 29.6718 37.4747 30.1934 37.1536 30.9759C36.8324 31.7584 36.6091 32.5949 36.1809 33.5932C36.1185 33.7372 36.1098 34.0071 35.9849 34.151C35.7084 34.4568 35.8332 34.313 35.4853 35.1495C35.1374 35.986 34.4952 36.1927 34.29 35.3832C34.0849 34.5736 35.4315 32.0012 35.0122 31.7853C34.593 31.5695 34.3789 32.1991 34.1202 32.9547C33.8615 33.7102 33.6117 34.5917 33.5047 34.8166C33.2038 35.356 32.8608 35.8703 32.4789 36.3546C32.3897 36.5345 32.3897 36.7774 32.3094 36.9932C31.684 38.273 30.8652 39.4474 29.8828 40.4742C29.3415 41.0663 28.7199 41.578 28.0363 41.9943C27.4386 41.4186 26.8052 40.762 26.2521 40.1953L26.1986 40.1413C26.3502 35.0414 26.1986 38.7293 26.27 37.587H26.3502L26.493 37.6408L26.7875 37.7398C26.9927 37.7398 27.198 37.7398 27.3764 37.7398C27.5548 37.7398 27.3761 37.5959 27.5188 37.506C27.6616 37.416 27.519 37.3441 27.2514 37.3531L26.8411 37.3982H26.5022C26.5022 37.3982 26.8589 37.29 27.0641 37.1911C27.2061 37.1412 27.3522 37.1052 27.501 37.0833C27.9039 36.9529 28.3155 36.8507 28.7324 36.7774C28.893 36.7774 29.0266 36.7774 29.2407 36.7774C29.4548 36.7774 29.6957 36.6605 29.9276 36.6335C30.3023 36.5616 30.6946 36.5884 31.0514 36.5075L31.2387 36.4627C31.2387 36.4627 31.239 36.4627 31.2836 36.4627L31.3729 36.5615L31.5424 36.7504L32.2471 37.515C32.3007 37.56 32.372 37.6678 32.4166 37.6768L32.5059 37.596L32.6932 37.443C32.8092 37.3451 32.931 37.2551 33.0586 37.1733C33.4779 36.8945 34.138 36.4896 34.6019 36.1298C34.8606 35.9229 35.1643 35.7071 35.4051 35.5002C35.646 35.2933 35.8331 35.0594 35.8063 34.9514C35.7795 34.8435 35.6279 34.8886 35.5833 34.8526C35.5638 34.8415 35.5473 34.8259 35.5349 34.8072C35.5225 34.7884 35.5145 34.7669 35.5119 34.7446C35.5119 34.6726 35.5121 34.5737 35.3337 34.5827C35.1553 34.5917 35.0929 34.8615 35.1643 34.9604C35.2356 35.0594 35.307 35.1853 34.9234 35.617C34.5011 35.9777 34.033 36.2802 33.5317 36.5165C33.2422 36.6764 32.9444 36.8207 32.6396 36.9484C32.5236 37.1193 32.2827 36.7595 32.1221 36.6335L31.7205 36.2288L31.1142 35.5902L30.7661 35.2213C30.7143 35.1989 30.666 35.1687 30.6233 35.1315C30.2129 34.8257 30.347 34.0701 29.8475 33.7643C29.5649 33.6488 29.2592 33.6024 28.9554 33.6293C28.4199 33.5156 27.8616 33.6122 27.3943 33.8991C27.1088 34.124 27.394 34.1241 26.9569 34.214C26.8162 34.2699 26.6841 34.3456 26.5645 34.4389L27.751 31.5067C28.0275 31.8575 28.4468 32.3521 28.6431 32.595C28.8393 32.8378 28.973 33.2156 29.205 33.4944C29.2674 33.5754 29.562 33.6563 29.6066 33.7193C29.6512 33.7823 29.7223 34.0791 29.8205 34.214C30.2665 34.8257 30.909 35.9229 31.5424 36.8494C31.5959 36.9393 31.8902 37.0293 31.9348 37.0833C32.1311 37.3621 32.2202 37.8029 32.4789 38.0457C32.7376 38.2886 32.7286 38.6214 33.0765 39.1791C33.1835 39.341 33.4779 39.4938 33.5404 39.5838C34.04 40.3483 34.3255 41.2566 34.9142 42.363C35.0302 42.5788 35.2979 42.7229 35.4317 42.9387C36.2078 44.198 36.6627 45.637 35.7885 46.1856C35.4559 46.3001 35.0952 46.3001 34.7626 46.1856C34.4058 46.1137 33.7991 45.4391 33.7277 46.2307C33.8258 47.3929 34.267 48.4988 34.9944 49.4058C35.064 49.4765 35.15 49.5289 35.2444 49.5586C35.3262 49.5731 35.4068 49.5943 35.4853 49.6216C35.4853 49.6216 35.3335 49.7746 35.396 49.7297C35.4584 49.6847 35.4763 49.6397 35.396 49.7297L35.298 49.8645L35.2265 49.9365C35.1697 50.0006 35.119 50.0698 35.075 50.1434C35.0384 50.2073 35.0057 50.2734 34.977 50.3412C34.861 50.5841 34.9766 50.4582 34.8607 49.9545C34.8219 49.7578 34.7652 49.565 34.6912 49.3788C34.5663 49.1179 34.5932 49.2169 34.6111 49.1719L34.7269 49.0461C34.8629 48.922 34.9882 48.7867 35.1015 48.6414C35.1015 48.6414 35.0212 48.5242 35.1015 48.4343C35.1818 48.3443 35.3337 48.4343 35.298 48.4343C35.521 48.0925 35.4672 47.7779 35.6813 47.49C35.8954 47.2022 36.3417 46.8604 36.6182 46.5366C36.8948 46.2128 37.0285 46.0238 37.2159 45.7629L42.5684 48.8482C42.493 49.8206 42.2356 50.7696 41.81 51.6454C41.5067 52.1761 41.1323 52.1581 40.9628 53.2015C40.9628 53.4353 41.0342 53.6962 40.9628 53.8941C40.6816 54.2269 40.3839 54.5451 40.0707 54.8475C39.1786 55.2343 37.6619 53.8941 38.0722 55.693C38.1258 55.9088 38.3578 56.0079 38.4203 56.2147C38.4363 56.4859 38.4661 56.756 38.5096 57.0242C38.6077 57.285 38.8751 57.4109 38.9107 57.4649C39.1159 57.8337 39.1608 58.4274 39.4374 58.7423C39.482 58.8052 39.7138 58.7421 39.7584 58.8051C39.8997 59.0583 40.0574 59.3017 40.231 59.5337C40.3737 59.6776 40.5968 59.7585 40.7663 59.9024C40.8642 59.999 40.935 60.1201 40.9715 60.2533C41.4443 60.649 41.8101 60.5232 41.935 60.9909C41.9059 61.0888 41.8569 61.1793 41.7908 61.2568C41.7248 61.3343 41.6429 61.397 41.5513 61.4406C41.7475 62.421 41.5515 60.8828 41.7477 61.7463C41.8102 61.9892 41.7478 62.124 41.8013 62.3669C41.7032 62.6007 41.4353 62.3669 41.1409 62.3669C40.8466 62.3669 40.6592 62.6009 40.454 62.583C39.9991 62.583 39.562 62.0611 39.3925 62.196C38.5807 63.0505 40.5167 64.0489 40.9092 64.4177C41.3017 64.7864 41.6675 65.1194 42.0243 65.4882L43.1124 66.7113C43.644 67.1815 44.1474 67.683 44.62 68.2133C44.7984 68.4292 44.8701 68.5374 44.9772 68.6543C45.4149 69.1845 45.8169 69.7432 46.1811 70.3272C46.3328 70.561 46.5112 70.867 46.6629 71.1278C46.6629 71.1278 46.9039 71.1277 46.8593 71.2446C46.6809 71.7123 46.9931 71.5774 47.2697 71.8742C47.5462 72.171 47.5372 72.5038 47.8851 73.0255C47.9297 73.0975 48.2332 73.2144 48.2689 73.2684C48.4741 73.6102 48.6165 74.006 48.8395 74.4287C49.0625 74.8515 49.2056 75.2113 49.4197 75.5981L49.9725 76.5603L49.6249 75.8319C50.1167 76.5928 50.334 77.501 50.2404 78.4043C50.2404 78.5482 50.2403 78.6831 50.1689 78.827L50.1066 79.0879L50.0261 79.3397L49.9638 79.5286L49.8923 79.6994C49.8923 79.8074 49.8923 79.7895 49.8923 79.8345L49.803 80.2212C49.7495 80.491 49.7141 80.7788 49.6785 81.1206C49.6785 81.1206 49.4644 81.3365 49.4733 81.5254C49.4886 81.8621 49.4707 82.1997 49.4197 82.5329C49.3844 82.9076 49.3279 83.28 49.2503 83.6482C49.1857 84.0141 49.0357 84.3593 48.8129 84.6554C48.5847 84.8895 48.2866 85.0418 47.9644 85.0889C47.6422 85.136 47.3136 85.0754 47.0288 84.9163C46.9485 84.8444 46.77 84.4846 46.6807 84.4396C46.5915 84.3946 46.199 84.5746 45.9938 84.5296C45.7886 84.4846 45.6372 84.1518 45.5391 84.2237C44.986 84.6465 45.4767 86.0227 45.7978 86.7513C46.119 87.4798 46.2436 88.4152 46.8502 88.9189C47.0108 89.0628 47.4928 90.3761 47.8407 91.0237C47.9656 91.2395 48.1887 91.5005 48.3582 91.7793C48.4145 91.9308 48.456 92.0875 48.4828 92.247C48.4786 92.2739 48.4786 92.301 48.4828 92.3278C48.4828 92.3908 48.7596 92.4987 48.7685 92.5347C48.7685 92.8135 48.6703 93.2544 48.6971 93.5872C48.7238 93.92 48.8663 94.055 48.8752 94.2888C48.8842 94.5227 48.8306 94.7295 48.8752 95.0982C48.9198 95.467 48.9646 95.6289 49.0181 95.9347L49.0895 96.3934C49.0895 96.4474 49.0895 96.5912 49.0895 96.5733L49.036 96.3574C48.9333 95.8102 48.687 95.3008 48.3225 94.8824C48.1978 94.7816 48.0454 94.7215 47.886 94.7102C47.7266 94.699 47.5678 94.7371 47.4304 94.8194C47.0755 95.0159 46.758 95.2749 46.4934 95.584L46.2438 95.8629L46.8058 96.5643C46.8058 96.5643 46.8593 96.6273 46.8593 96.6453V96.6993L46.77 96.7891L46.5914 96.9422C46.3952 97.0861 46.2617 96.8072 46.0208 96.8431C45.78 96.8791 45.4854 97.2299 45.1732 97.023C44.8609 96.8161 44.6827 96.3845 44.4418 96.2856C44.4418 96.2856 44.2189 96.4473 44.1029 96.3394C43.8998 95.966 43.7236 95.5784 43.5763 95.1793C43.4693 94.9364 43.3981 94.7923 43.291 94.5315C43.2248 94.3632 43.1096 94.219 42.9608 94.1178C42.8749 94.075 42.7801 94.0536 42.6842 94.055C42.5156 94.0405 42.3477 94.0883 42.2116 94.1898C41.894 94.3619 41.5951 94.5668 41.3195 94.8014C40.9866 95.3669 40.6886 95.9526 40.4275 96.5552C40.1866 96.96 39.9188 97.1849 39.8207 97.4547C39.3487 98.5735 38.9378 99.7176 38.5897 100.882C38.4648 101.295 38.5182 101.664 38.4111 101.988C37.4655 105.001 36.4575 108.5 36.4575 111.189C36.4471 111.404 36.4049 111.617 36.3325 111.819C36.3325 111.936 36.2523 112.062 36.2166 112.197C36.181 112.332 36.0918 112.638 36.0293 112.89L35.8956 113.564L35.8242 113.888V114.05C35.8242 114.104 35.7796 114.149 35.8777 114.221C35.9529 114.817 35.9915 115.418 35.9936 116.02C35.9936 116.766 35.7886 117.468 35.744 118.088C35.744 118.232 35.8154 118.286 35.744 118.457C35.6727 118.628 35.5835 118.754 35.5924 118.655C35.5389 119.195 35.6638 119.303 35.5924 119.653L35.521 119.878C35.4261 120.161 35.3005 120.433 35.1464 120.688C35.1464 120.688 35.0661 120.751 35.1464 120.787L35.2444 120.886L35.4404 121.083L35.8333 121.47C36.1919 121.804 36.5174 122.171 36.8055 122.568C36.8055 122.568 36.7075 122.802 36.7075 122.802C36.7075 122.802 36.6451 123.053 36.7075 123.008C36.547 123.116 36.1811 122.783 36.1543 122.873C36.0384 123.278 36.4487 124.097 37.0464 125.131C37.6887 125.473 38.4111 125.788 39.0623 126.094C39.1408 126.139 39.2313 126.157 39.3211 126.148H39.5532L41.4446 124.349C41.534 124.248 41.6392 124.163 41.7564 124.097L41.9172 124.007H41.9707L38.8572 124.708V124.6C38.8572 124.547 38.8572 124.474 38.8572 124.528C38.8648 124.576 38.8648 124.625 38.8572 124.672C38.8572 125.167 37.9029 126.075 37.3587 126.948C36.9859 127.688 36.5565 128.398 36.0742 129.071C35.7798 129.341 35.2889 129.116 35.1194 129.251C34.8238 129.582 34.5993 129.97 34.4595 130.393C34.3435 130.654 34.2187 130.924 34.0849 131.175C33.9511 131.427 33.8615 131.373 33.7634 131.517C33.0988 131.539 32.4357 131.447 31.8011 131.247C31.2926 131.005 30.9803 130.447 30.5967 130.168C30.5967 130.168 30.4895 130.105 30.4895 130.087L30.4272 130.204L29.9812 130.942L29.7582 131.256L29.6332 131.4L29.553 131.508C29.4569 131.638 29.346 131.755 29.2228 131.859C29.1683 131.915 29.1083 131.967 29.0443 132.012L29.1248 131.967L29.303 131.904H29.4014L29.6153 131.832C29.7622 131.794 29.9111 131.763 30.0614 131.742H30.1149L31.4173 131.481V131.184C31.4173 130.852 31.3461 130.519 31.3015 130.186C31.2235 129.524 31.0829 128.87 30.882 128.234C30.0313 125.788 28.3794 123.707 26.1986 122.334C25.5741 121.927 24.918 121.572 24.2362 121.273L25.9577 126.408C26.1957 125.713 26.328 124.985 26.3502 124.25C26.3864 123.138 26.1796 122.033 25.7438 121.012C25.4341 120.258 25.0387 119.542 24.566 118.88C23.8938 117.913 23.0681 117.065 22.1219 116.37C21.7829 116.136 21.3101 116.047 20.9711 115.786C20.2208 115.016 19.3993 114.32 18.5179 113.708C17.8399 113.321 17.0461 112.916 16.2254 112.53L15.1103 112.017C15.0121 112.134 15.4044 111.531 14.3606 113.114C13.9235 113.726 13.754 114.014 13.4685 114.392C13.299 114.598 13.2722 114.67 13.1562 114.787C13.0402 114.904 13.0316 114.895 13.0138 114.922C13.0046 114.939 12.9918 114.953 12.9763 114.964C12.9609 114.975 12.9431 114.982 12.9245 114.985C12.9245 114.985 12.9245 115.057 12.9245 115.147C12.9245 115.237 12.9244 115.453 12.8709 115.588C12.8174 115.723 12.7994 115.957 12.7459 116.208C12.6924 116.46 12.6389 116.676 12.5765 116.91C12.514 117.144 12.4339 117.504 12.3447 117.81L12.2197 118.295L12.1483 118.547C12.3164 118.571 12.4832 118.604 12.6479 118.646L11.4526 112.521C11.2682 112.722 11.0714 112.911 10.8637 113.087C10.7895 113.163 10.6976 113.219 10.5963 113.249C10.5195 113.28 10.445 113.316 10.3733 113.357C10.1948 113.501 10.0967 113.681 9.92721 113.744C9.75772 113.807 9.80234 113.582 9.72205 113.564C9.32191 113.655 8.90284 113.604 8.53551 113.42C8.23753 113.186 7.9543 112.934 7.68786 112.665C6.94378 112.055 6.28115 111.35 5.71639 110.569C5.61084 110.448 5.52363 110.311 5.45765 110.164C5.49709 110.063 5.54791 109.966 5.60924 109.876C5.53787 109.759 5.1545 109.598 4.94932 109.319C4.45042 108.573 4.02879 107.777 3.69135 106.944C3.30552 106.308 2.98844 105.633 2.74569 104.929C2.42454 103.679 2.46027 102.627 3.46833 102.375C3.37912 102.375 3.92329 102.375 3.91437 102.375C3.90545 102.375 4.11965 102.744 4.24454 102.789C4.58354 102.924 4.89592 102.852 5.07434 102.977C5.25275 103.103 5.32414 103.49 5.53824 103.67C5.60068 103.724 5.81466 103.67 5.85927 103.67C5.90387 103.67 5.92162 103.922 5.99299 103.967C6.06436 104.012 6.43015 104.039 6.69777 104.174C6.96539 104.309 7.03662 104.534 7.22396 104.624C7.91086 104.947 8.96373 105.451 8.55337 104.48C8.49985 104.354 8.24119 104.273 8.16091 103.994C8.01817 103.553 8.08933 103.193 7.9466 102.887C7.80387 102.582 7.50951 102.429 7.31325 102.132C7.10527 101.691 6.87315 101.261 6.61762 100.846C6.36135 100.606 6.18647 100.292 6.118 99.9462C5.95743 99.4605 5.6096 99.2357 5.31522 98.6511C5.02083 98.0664 4.75321 97.3019 4.42313 96.6363C4.09306 95.9707 3.61127 95.2692 3.2366 94.5137C3.12955 94.3068 3.03112 94.0907 2.93299 93.8659L2.79055 93.5242L2.70997 93.3804C2.61695 93.1829 2.50342 92.9958 2.37108 92.8226C2.2908 92.7416 2.06762 92.6696 1.98733 92.5617C1.90704 92.4538 2.03194 92.2829 1.98733 92.13C1.94107 91.8608 1.86342 91.5982 1.7556 91.3476C1.74944 91.2818 1.74944 91.2153 1.7556 91.1495C1.7556 91.0416 1.75543 90.8977 1.80003 90.7628C1.80003 90.475 1.88959 90.1602 1.93419 89.8633C2.10369 88.73 2.6657 87.0481 2.82627 85.8338C2.80998 85.5342 2.80998 85.2339 2.82627 84.9343C2.90656 84.6105 3.13848 84.2418 3.25445 83.882C3.47748 83.2524 3.56634 82.4968 3.78936 82.0291C3.89641 81.8312 4.2089 81.4894 4.50328 81.1296C4.83496 80.7587 5.06257 80.3055 5.1632 79.8165C5.27158 79.4544 5.44059 79.1136 5.66282 78.809L6.5549 77.5408C6.71547 77.307 6.68003 77.154 6.80492 77.0011C6.92982 76.8482 7.38443 76.5603 7.56285 76.3445C7.74126 76.1286 7.60785 75.9038 7.75058 75.7329C7.89332 75.562 8.26782 75.436 8.46408 75.2382C9.05331 74.5567 9.6851 73.9139 10.3554 73.3134C11.1833 72.763 11.9544 72.1301 12.657 71.4245C12.8533 71.1906 13.0495 70.9389 13.2368 70.6781C13.4344 70.3669 13.6159 70.0456 13.7809 69.7156C13.9376 69.3516 14.0745 68.9793 14.1912 68.6003C14.2804 68.2315 14.352 67.8537 14.4055 67.485C14.4857 66.4286 14.4464 65.3664 14.2892 64.3188C14.2623 63.8485 14.2623 63.377 14.2892 62.9066C14.2805 62.6031 14.3167 62.3 14.3963 62.0072C14.548 61.6834 15.2883 61.6205 15.3686 61.4136C15.4392 60.9245 15.4392 60.4275 15.3686 59.9384V59.7585L5.1632 67.8536C5.68626 68.6729 6.41603 69.3373 7.27754 69.7786C7.4812 69.8321 7.67873 69.9075 7.86645 70.0035C8.04292 70.1255 8.19668 70.2777 8.3212 70.4532C8.64235 70.6151 8.90106 70.5252 9.21329 70.6691C9.52551 70.813 9.945 71.1637 10.3197 71.3257C10.6944 71.4876 11.051 71.4874 11.4256 71.6133C11.8003 71.7392 11.961 71.9373 12.2376 72.0273C12.5141 72.1172 13.0494 72.171 13.4062 72.2699C13.7631 72.3688 14.2983 72.5399 14.6729 72.6748C14.9883 72.7854 15.3204 72.8401 15.6543 72.8367C15.7168 72.8367 15.8684 72.6298 15.8952 72.6298C15.922 72.6298 16.1181 72.7557 16.2341 72.7646C16.35 72.7736 16.5108 72.6748 16.6357 72.6748C16.7606 72.6748 16.7606 72.8007 16.8409 72.8007C16.9211 72.8007 17.046 72.6118 17.0639 72.6208C17.2958 72.6208 17.4652 72.8816 17.6615 72.9715L17.8575 73.0525C17.9378 73.0525 18.0541 73.1604 18.1611 73.2144C18.2682 73.2683 18.5982 73.4662 18.8123 73.6101L18.9639 73.7181L19.044 73.7721L19.1512 73.889C19.2939 74.0419 19.4368 74.2038 19.5528 74.3567C19.7969 74.6616 19.995 75.0012 20.1413 75.3642C20.0432 76.0568 19.5439 74.7255 19.3655 75.0403C19.6064 75.616 19.856 75.661 20.079 76.2096C20.302 76.7583 20.0791 77.0461 20.3735 77.5498C20.784 78.0365 21.2249 78.4962 21.6937 78.926C22.229 79.5916 22.7643 80.5 23.362 81.3185H23.5136C24.1291 81.2645 24.7358 81.0666 25.2978 81.0576C26.1312 81.0126 26.9656 81.1225 27.7597 81.3815L28.8927 81.6784L29.1693 81.7502C29.2406 81.7502 29.4101 81.8402 29.3387 81.7502C29.2673 81.6603 29.2585 81.5703 29.2228 81.4803C29.1882 81.4149 29.1496 81.3519 29.107 81.2915C29.0326 81.1314 28.97 80.9663 28.9197 80.797C28.8483 80.6441 28.8034 80.7969 28.8391 80.7519L28.9018 80.6799C28.9371 80.6346 28.9789 80.5952 29.0264 80.5631C29.2737 80.3797 29.5521 80.2424 29.8475 80.1582H29.9363H29.9812C29.9812 80.1582 29.9097 80.2392 29.8741 80.2752L29.303 80.8778L29.1606 81.0218L29.0891 81.1026C29.5441 78.4582 28.0542 87.021 30.1149 75.1841C30.1192 75.22 30.1192 75.2563 30.1149 75.2922C30.0991 75.3579 30.075 75.4213 30.0435 75.481C29.9704 75.6617 29.8776 75.8337 29.7669 75.9938L29.7225 76.0568L26.9125 80.2122V80.2572L26.8319 80.437L26.6716 80.797C26.6716 80.9049 26.5286 81.0487 26.5553 81.1386L26.6267 81.3905L26.7605 81.9033C26.8497 82.2721 26.9302 82.6318 27.0105 82.9826C27.1622 83.7021 27.2424 84.7815 27.403 85.4741C27.8133 87.354 28.2948 88.9368 28.7498 90.9246C29.2404 93.2183 29.7134 96.4475 30.2487 99.2088C30.7393 101.673 31.2927 103.868 31.6316 105.901C31.7209 106.377 31.792 106.98 31.8634 107.7C32.4358 107.326 32.9051 106.812 33.2281 106.207C33.7455 105.307 34.6109 103.463 35.5476 101.466L38.7592 94.6125C38.7814 94.3228 38.8635 94.041 39 93.7851L39.8921 91.9862L40.8556 90.0432C41.4533 88.721 42.3187 87.3449 42.4704 85.8248L42.7021 84.7185L42.8092 84.1609V84.0979L41.3997 79.9243C41.3717 79.8647 41.3536 79.8009 41.3461 79.7354C41.3461 79.6545 41.3461 79.7355 41.3461 79.7985C41.3504 79.8493 41.3504 79.9004 41.3461 79.9513C41.3461 80.0772 41.3461 80.0234 41.2925 80.3382C41.2663 80.6481 41.191 80.9518 41.0695 81.2377C40.7416 82.2625 40.3049 83.2484 39.7671 84.1787L39.812 84.1159C39.8326 84.1049 39.8553 84.099 39.8786 84.099C39.9019 84.099 39.9251 84.1049 39.9457 84.1159L40.2846 84.4216L40.8735 84.8893C41.043 85.0152 41.0517 85.2582 41.2925 85.4651L41.712 85.7888C41.9439 85.9687 42.2203 86.1847 42.4434 86.3916L43.3354 87.219L43.9243 87.5607L44.0759 87.6417C43.9689 87.5877 44.4061 87.5699 44.5934 87.7678C45.1842 88.284 45.9349 88.5766 46.7165 88.5952C47.5372 88.6761 48.3311 88.5951 48.9645 88.73C49.4284 88.811 49.8567 88.946 50.4277 89.0989C50.751 89.1874 51.0786 89.2595 51.409 89.3148C51.6274 89.3525 51.8476 89.3764 52.069 89.3866C52.3659 89.408 52.6641 89.408 52.961 89.3866C53.218 89.3738 53.474 89.3469 53.7281 89.3058C54.11 89.2464 54.4883 89.1653 54.8611 89.0629C55.1822 88.963 55.4979 88.8458 55.8067 88.712C55.9673 88.649 56.1192 88.5771 56.2798 88.4961L56.5028 88.3793L56.8417 88.1905C57.3913 87.8509 57.9055 87.4561 58.3763 87.0121C59.029 86.3818 59.577 85.65 59.9997 84.8445C60.2454 84.3835 60.4512 83.9019 60.6152 83.4053C60.7631 82.9297 60.8704 82.4421 60.9362 81.9481C61 81.4411 61.0239 80.9298 61.0076 80.419C61.0009 80.1662 60.9802 79.9141 60.9453 79.6636L60.8918 79.2947V79.0789C60.7722 78.4903 60.5961 77.915 60.3656 77.361C60.2585 77.1001 60.0978 76.7672 59.9997 76.5873L59.7767 76.1826C59.6161 75.9218 59.4376 75.6608 59.2592 75.409L58.9739 75.0403L58.8131 74.8424C58.5812 74.5816 58.3403 74.3207 58.0905 74.0778C57.8407 73.835 57.7693 73.772 57.5909 73.6191C57.4125 73.4662 57.234 73.3133 57.127 73.2324C57.0199 73.1514 56.5743 72.8098 56.3869 72.6838L55.7531 72.2609L55.1734 71.9012C53.893 71.1776 52.5771 70.5202 51.2304 69.9314C50.8112 69.7336 49.8033 69.6166 49.8479 69.032C50.74 69.4457 51.6321 69.7695 52.5241 70.1563C53.6336 70.5638 54.7125 71.0507 55.7531 71.6133C55.9836 71.7562 56.2014 71.9187 56.4044 72.0991L56.7794 72.396L57.2341 72.7376L57.5465 72.9535L57.9655 73.2504L58.3671 73.5473C58.5188 73.6642 58.7597 73.8801 58.9382 74.042C59.1166 74.2039 59.2947 74.3747 59.5266 74.6356C59.8509 75.0037 60.149 75.3945 60.4187 75.8049C60.8557 76.5002 61.201 77.2501 61.445 78.0356C61.5163 78.2754 61.5787 78.5183 61.6323 78.7642L61.7124 79.1239C61.7124 79.3307 61.7749 79.5376 61.8017 79.7535C61.8938 80.6282 61.8698 81.5114 61.7303 82.3798C61.4995 83.7498 60.9727 85.052 60.187 86.1937C59.9932 86.4745 59.7846 86.7446 59.5624 87.0031C59.4128 87.1814 59.2518 87.3497 59.0806 87.5069C58.7745 87.8153 58.4469 88.1009 58.0997 88.3613C57.7574 88.6171 57.3998 88.8514 57.029 89.0629L56.3956 89.3686C55.9699 89.5602 55.5316 89.7225 55.0841 89.8543C54.8165 89.9263 54.5313 89.9892 54.2369 90.0432L53.7908 90.1242H53.4785L52.836 90.1782H52.2833L51.284 90.25C50.9249 90.2815 50.5638 90.2815 50.2046 90.25C49.4573 90.1143 48.7185 89.9343 47.9923 89.7105C46.4404 89.383 44.9399 88.8444 43.5319 88.1094L41.8814 86.8413L40.9894 86.2025C40.7485 86.0316 40.5257 85.8518 40.3294 85.681C40.1332 85.5101 40.0258 85.474 39.9723 85.3571C39.9187 85.2401 40.0882 85.1053 39.9723 84.9974C39.8563 84.8894 39.7048 85.1142 39.6512 85.0962C39.5977 85.0782 39.6514 84.8893 39.6068 84.8803C39.5437 84.8394 39.4744 84.8091 39.4016 84.7905L39.2766 84.7185C39.2766 84.7185 39.2767 84.7905 39.3838 84.5746C39.4908 84.3588 39.7405 83.945 39.91 83.6122C40.2579 82.8296 40.4721 82.5508 40.6683 82.0471C40.7678 81.8031 40.8542 81.5539 40.9271 81.3005C40.9431 81.2024 40.9762 81.1082 41.0251 81.0218L41.0965 80.8057C41.1416 80.6491 41.1775 80.4901 41.2037 80.3292C41.2081 80.2423 41.2081 80.1552 41.2037 80.0683C41.2037 80.0054 41.2037 80.0143 41.2037 79.9783C41.2129 79.9187 41.2129 79.8581 41.2037 79.7985V79.6904C41.2037 79.6904 41.2037 79.5915 41.2037 79.6904C41.2074 79.7692 41.2286 79.8461 41.266 79.9153V79.9153C44.6648 89.9622 42.2026 82.7037 42.9608 84.9433V84.9884V85.1862L42.8894 85.5909L42.7557 86.4186C42.6665 86.9672 42.5772 87.5248 42.4969 88.0824C42.4163 88.6396 42.2476 89.1801 41.9973 89.6835C41.7743 90.1962 41.5602 90.7088 41.3461 91.1855C38.6699 97.1039 35.9936 101.979 34.3789 105.712C34.1916 106.162 33.8171 107.16 33.4424 108.149C33.255 108.635 33.0589 109.121 32.8983 109.544C32.7378 109.966 32.6393 110.2 32.559 110.353C32.4787 110.506 32.4788 109.903 32.4074 110.002C31.9614 110.65 31.6223 111.702 31.2387 111.963C31.2387 111.9 31.2387 111.828 31.2387 111.756C31.2387 111.154 31.1588 110.452 31.1142 109.732C31.0679 109.005 30.9783 108.281 30.8463 107.565C30.5965 106.251 30.2486 105.082 29.9542 103.4C29.7133 102.159 29.5528 100.576 29.3209 99.2896C28.6786 95.8087 27.8045 92.9934 27.0998 89.6295C26.8589 88.5052 26.7162 87.048 26.4486 85.7978C26.2613 84.8983 26.0291 83.9989 25.7882 83.0994C25.7258 82.8835 25.6547 82.6677 25.5922 82.4518C25.5298 82.236 25.6722 82.164 25.7347 82.0111L25.9755 81.5254L26.0383 81.3995L29.6066 76.0926C29.647 76.0484 29.6825 76.0002 29.7133 75.9488C29.7786 75.8426 29.8352 75.7314 29.8828 75.6161C29.9253 75.5395 29.9586 75.4579 29.9812 75.3732V75.2472C29.4192 78.5122 31.2567 67.9437 28.7054 82.5599L28.8212 82.4428L29.0443 82.218L29.7669 81.4716C29.7669 81.4716 29.8564 81.3905 29.8475 81.3905H29.7939H29.6867L29.2943 81.4803C29.1547 81.5045 29.0175 81.5407 28.884 81.5884C28.6609 81.7053 28.6698 81.7953 28.6431 81.8493C28.6163 81.9032 28.6431 81.8492 28.6431 81.7952C28.6431 81.7413 28.6431 81.6514 28.6431 81.6514C28.6431 81.6514 28.6875 81.8672 28.7232 81.8493C28.7589 81.8313 28.7232 81.6694 28.7232 81.6604C28.7901 81.6774 28.8518 81.7113 28.9018 81.7592C28.9018 81.8132 29.0267 81.9932 29.1248 82.1191C29.223 82.2451 29.1962 82.1819 29.1248 82.1729H28.9284L28.5538 82.1191C28.2354 82.0597 27.9135 82.0206 27.5903 82.0021C27.4832 82.0021 27.4118 82.0831 27.278 82.0561L26.6089 81.9481L26.1271 81.8853H25.8775H25.5474C25.0924 81.9482 24.5481 82.182 24.0664 82.281C23.6235 82.3591 23.1768 82.4131 22.7282 82.4428C22.4874 82.083 22.2377 81.7143 21.979 81.3815C20.1949 79.0429 18.4912 78.0266 17.7687 76.0478C17.6438 75.697 17.5278 75.7778 17.5099 75.481C17.4921 75.1842 17.6346 75.3731 17.5543 75.0673C17.5252 74.9667 17.5013 74.8646 17.4829 74.7614C17.4681 74.6896 17.4375 74.622 17.3936 74.5636C17.2841 74.4219 17.1514 74.3003 17.0011 74.2039C16.9387 74.1589 16.7783 74.2038 16.7337 74.0958C16.6891 73.9879 16.8497 73.952 16.7337 73.934C16.6177 73.916 16.3145 74.015 16.1896 73.979C15.9309 73.907 15.7882 73.6552 15.5384 73.7091C15.2887 73.7631 15.2084 73.961 15.1281 73.988C15.0793 74.0067 15.025 74.0067 14.9761 73.988L14.5836 73.871L14.1912 73.7541L13.6828 73.6013C12.9513 73.4304 12.2108 73.3044 11.5149 73.1066C11.167 73.0076 10.8191 72.8368 10.3998 72.6928C9.98055 72.5489 9.68616 72.5847 9.50774 72.4858C8.67811 72.135 8.1339 71.5864 7.46484 71.2356C7.55405 70.7859 8.09827 71.3166 8.18748 70.8669C7.35784 70.4172 7.52739 71.3706 7.12595 71.3527C6.10551 70.6696 5.12294 69.9308 4.18226 69.1398V69.1398L16.5908 59.2908C16.731 59.9459 16.731 60.6235 16.5908 61.2786C16.5777 61.6042 16.5269 61.9273 16.4392 62.241C16.3313 62.5597 16.1812 62.8622 15.9932 63.1405C15.8683 63.3474 15.4757 63.7432 15.4579 63.8421C15.4577 64.2234 15.4997 64.6035 15.5829 64.9754C15.5829 65.2363 15.6452 65.5781 15.663 65.8749C15.7009 66.2607 15.7009 66.6494 15.663 67.0352C15.663 67.2421 15.6009 67.4399 15.5563 67.6378C15.5117 67.8357 15.4225 68.0695 15.3511 68.2764C15.2084 68.6811 15.0566 69.0318 14.9317 69.3377C14.7771 69.7599 14.5893 70.1691 14.3698 70.561C14.173 70.9435 13.9432 71.3077 13.6828 71.6493L13.317 72.1441L12.9781 72.5398L12.63 72.9267L12.3269 73.2414C11.5151 74.0599 10.9443 74.5816 10.4447 75.0403C9.94512 75.499 9.44514 75.8048 9.12399 76.1556C8.80284 76.5064 8.8211 76.8212 8.66053 77.0011C8.49995 77.1809 8.06267 77.253 7.83073 77.4958C7.4871 77.803 7.23135 78.1975 7.09023 78.6381C7.04563 78.8 7.17052 78.989 7.09023 79.1419C7.00995 79.2948 6.48381 79.4656 6.3946 79.6814C6.16266 80.1671 6.24262 80.8238 6.05528 81.3275C5.52895 82.5867 3.92353 84.3137 3.94138 85.8248C3.94138 86.2385 2.92411 88.0915 3.19173 88.784C3.34338 89.1798 3.35241 88.8919 3.07586 89.5935C2.85831 90.2353 2.8062 90.9226 2.92428 91.5904C2.98673 91.7613 2.92428 91.7703 2.92428 91.7703C2.92428 91.7703 2.77266 91.7702 2.73698 91.8511C2.76662 92.0002 2.82718 92.1415 2.91513 92.265C2.96866 92.337 3.13817 92.3819 3.15601 92.4359C3.17385 92.4899 3.15633 92.6966 3.25445 92.7866C3.35258 92.8765 3.70909 93.0026 3.80721 93.1195C3.81566 93.4 3.86099 93.6782 3.94138 93.9469C4.04843 94.1988 4.23559 94.1719 4.43185 94.5047C4.6281 94.8375 4.63692 95.2601 4.77073 95.4759C4.93368 95.7238 5.11594 95.9584 5.31522 96.1775C6.01228 97.2624 6.63773 98.3921 7.18824 99.5595C7.34882 99.8383 7.54541 99.8833 7.75058 100.198C8.06281 100.693 8.41944 101.673 8.8744 102.465C9.19055 102.92 9.46823 103.402 9.70419 103.904C9.78448 104.093 9.96293 104.408 9.96293 104.426C10.0075 104.587 9.83771 104.695 9.84663 104.803C9.90015 105.226 9.98936 105.19 9.84663 105.631C9.84663 105.685 9.75775 105.991 9.73991 106.009C9.31908 106.401 8.78438 106.647 8.21448 106.71C8.11636 106.71 8.02687 106.234 7.92874 106.18C7.83061 106.126 7.36701 106.18 7.09938 106.108C6.97449 106.054 6.88518 105.811 6.76921 105.748C6.65324 105.685 6.51055 105.667 6.37674 105.586C5.86826 105.298 5.4844 104.902 4.99375 104.633C4.55258 104.383 4.09697 104.161 3.62906 103.967C3.58446 104.65 4.11953 105.199 4.34255 105.865C4.3869 106.21 4.4494 106.552 4.52985 106.89C4.70827 107.277 5.07413 107.43 5.30607 107.789C5.68967 108.347 5.85916 109.094 6.19815 109.66C6.558 110.207 6.96722 110.719 7.42041 111.189C7.67019 111.423 8.0448 111.549 8.24106 111.72C8.43731 111.891 8.43749 112.188 8.64267 112.332C8.78679 112.431 8.94655 112.504 9.11528 112.548C9.24017 112.548 9.43662 112.449 9.53475 112.494C9.63288 112.539 9.64173 112.566 9.68633 112.647C9.73094 112.728 9.74866 112.755 9.78434 112.772C9.81615 112.739 9.84055 112.699 9.85578 112.656C9.85578 112.656 9.85578 112.593 9.85578 112.566C9.85071 112.589 9.85071 112.614 9.85578 112.638C9.85578 112.638 9.80225 112.368 9.85578 112.476C9.9093 112.584 10.0608 112.422 10.1054 112.215C10.15 112.008 10.1054 111.945 10.1054 111.864C10.2009 111.736 10.3267 111.634 10.4713 111.567L12.1038 119.914L11.8094 119.788H11.6935L11.8717 119.186L12.1931 118.007C12.2734 117.702 12.3535 117.405 12.4249 117.108C12.4962 116.811 12.5408 116.676 12.5943 116.46C12.6478 116.244 12.6747 116.038 12.7193 115.831C12.756 115.699 12.78 115.563 12.7908 115.426C12.7908 115.363 12.7908 115.273 12.7908 115.228C12.7999 115.196 12.7999 115.162 12.7908 115.129C12.7908 115.129 12.7908 115.057 12.7908 115.066C12.7908 115.075 12.7908 115.066 12.8443 115.066C12.8673 115.047 12.8881 115.026 12.9066 115.003C12.9505 114.963 12.9923 114.921 13.0316 114.877C13.1145 114.786 13.1917 114.69 13.2634 114.589C13.4906 114.304 13.6994 114.003 13.888 113.69C14.1824 113.285 14.4678 112.872 14.7265 112.458L15.6722 110.992C15.8092 110.974 15.948 110.996 16.0733 111.055C16.332 111.154 16.2608 111.324 16.4571 111.441C16.8346 111.535 17.2068 111.649 17.5722 111.783C17.8309 111.927 17.7865 112.107 17.9917 112.206C18.3396 112.359 18.6871 112.332 18.9726 112.494C19.2581 112.656 19.3922 112.926 19.7401 113.159C20.088 113.393 20.427 113.456 20.6322 113.636C21.2121 114.041 21.6849 114.535 22.2648 115.048C22.6533 115.295 23.0283 115.562 23.3886 115.849C23.7187 116.173 24.0042 116.631 24.3521 116.991C25.1123 117.744 25.7911 118.576 26.3772 119.474C27.2127 120.773 27.6389 122.297 27.5994 123.845C27.5755 124.302 27.5157 124.756 27.4208 125.203C27.3695 125.484 27.2888 125.758 27.1799 126.021C27.0997 126.345 27.0196 126.642 26.9482 126.921L24.7001 120.247C24.9721 120.301 25.2377 120.383 25.4938 120.49C26.1035 120.787 26.6779 121.152 27.2065 121.578C27.7437 122.02 28.2561 122.491 28.7411 122.99C29.7865 123.928 30.6884 125.016 31.4173 126.22C31.9855 127.341 32.3338 128.563 32.4431 129.817C32.4431 130.132 32.5059 130.456 32.5237 130.771V131.256C32.5237 131.373 32.5237 131.328 32.5237 131.337L30.0348 131.832H29.9633H29.7582C29.6223 131.86 29.488 131.896 29.3566 131.94C29.2294 131.973 29.1064 132.021 28.9907 132.084C28.9907 132.084 28.9907 132.084 28.9907 132.084C29.0576 132.042 29.118 131.991 29.1693 131.931C29.2681 131.845 29.3606 131.752 29.4459 131.652L29.5617 131.49L29.749 131.265C29.8683 131.112 29.976 130.95 30.0705 130.78C30.1197 130.677 30.1763 130.578 30.2399 130.483L30.3467 130.321L31.0693 129.044C31.0247 129.044 31.2033 129.044 31.3015 129.089C31.5331 129.119 31.7522 129.212 31.9348 129.359C32.1222 129.539 32.2113 130.06 32.5503 130.204C32.793 130.237 33.0389 130.237 33.2816 130.204H33.5225C33.5939 130.204 33.6029 130.051 33.6475 129.988L33.8261 129.628C33.9005 129.486 33.9871 129.351 34.0849 129.224L34.2809 128.918C34.5664 128.45 34.7894 127.767 34.9857 127.74C35.1819 127.713 35.6191 128.216 35.7619 128.162C36.181 127.707 36.5405 127.199 36.8321 126.651C36.8321 126.48 37.0732 126.318 37.2516 126.012C37.314 125.905 37.2516 125.779 37.2516 125.698C37.3671 125.523 37.4921 125.355 37.6262 125.194C37.6973 125.111 37.7544 125.017 37.7956 124.915C37.8049 124.865 37.8049 124.813 37.7956 124.762V124.762V125.032L41.8636 124.133H41.81C41.7386 124.133 41.7565 124.133 41.5691 124.268L41.391 124.412L41.3195 124.501L38.7147 126.957H38.6433C38.4343 127 38.2174 126.981 38.0187 126.903C37.6351 126.777 37.2515 126.66 36.9036 126.507C36.5645 126.337 36.2367 126.145 35.9222 125.932L35.8333 125.743C35.53 125.176 35.1641 124.897 35.0392 124.6C34.9144 124.304 34.5842 123.44 34.5396 123.242C34.5396 123.242 34.5397 122.262 34.5932 122.226C34.7805 121.947 35.2535 122.388 35.1643 122.019C35.0956 121.817 34.9927 121.628 34.8607 121.461C34.7804 121.344 34.6732 121.218 34.5662 121.074C34.4591 120.931 34.5662 120.94 34.5662 120.868C34.607 120.795 34.6429 120.72 34.6734 120.643C34.7536 120.436 34.6734 120.346 34.6734 120.157C34.6694 120.082 34.6694 120.007 34.6734 119.932C34.8012 119.513 34.9028 119.087 34.977 118.655C34.977 118.304 34.8964 118.043 34.9142 117.657C35.0439 116.739 35.0946 115.812 35.0658 114.886C35.0658 114.769 34.8339 114.409 34.8249 114.329V114.167C34.8249 114.167 34.7448 114.104 34.7448 114.077V114.014L34.7984 113.879L34.9142 113.6C35.0009 113.427 35.0727 113.246 35.1285 113.06C35.1883 112.831 35.2238 112.596 35.2353 112.359C35.2353 112.242 35.2353 112.134 35.2353 112.035C35.2306 111.966 35.2306 111.897 35.2353 111.828C35.4404 110.641 35.7263 109.607 35.8512 108.455C35.8625 107.982 35.9039 107.511 35.9758 107.043C36.0828 106.629 36.3239 106.404 36.3952 106.063C36.529 105.397 36.3953 105.163 36.4667 104.785C36.538 104.408 36.7967 104.138 36.8948 103.787C36.993 103.436 36.9659 103.076 37.0551 102.699C37.1443 102.321 37.3854 102.051 37.4925 101.682C37.5995 101.314 37.4923 101.26 37.5726 100.927C37.6529 100.594 38.0635 100.099 38.2687 99.5685C38.3757 99.2897 38.3309 98.8939 38.429 98.606C38.5985 98.0664 39.1073 97.3288 39.4016 96.6093C39.5444 96.2585 39.5177 95.8358 39.6604 95.548C39.8031 95.2601 40.1688 94.8374 40.481 94.3786L40.8199 93.8749C40.904 93.7403 40.9965 93.6112 41.0965 93.4882C41.1946 93.3712 41.2302 93.3174 41.1945 93.3353C41.2924 93.3255 41.3911 93.3255 41.489 93.3353C42.0591 93.3793 42.6189 93.5127 43.1481 93.7311C43.4693 93.875 43.5409 94.1178 43.8085 94.4327C43.8405 94.4728 43.8798 94.5062 43.9243 94.5315C44.0341 94.6112 44.1385 94.6984 44.2367 94.7923C44.5118 95.1756 44.8764 95.4845 45.2982 95.6918C45.8156 96.0336 45.6461 96.1685 45.9851 95.6918L46.0831 95.593C46.3418 95.3501 46.0833 95.3321 46.6899 94.8824C46.89 94.7487 47.1282 94.6855 47.3677 94.7025C47.6132 94.7297 47.8413 94.8444 48.0102 95.0262C48.2687 95.3159 48.4822 95.6435 48.6435 95.9977C48.7238 96.1686 48.8038 96.3035 48.8574 96.4294C48.8809 96.4937 48.908 96.5568 48.938 96.6183C48.938 96.6722 49.0004 96.7802 48.938 96.6183C48.7767 95.9848 48.5739 95.3628 48.3312 94.7563C48.2509 94.5764 48.2063 94.4866 48.1082 94.2348C47.9881 93.8498 47.8988 93.4558 47.8407 93.0565C47.7392 92.7755 47.6013 92.5094 47.4304 92.265L47.2697 91.9952C47.0935 91.6449 46.8967 91.3054 46.6807 90.9787C46.5202 90.7808 46.1097 90.6549 45.9402 90.3671C45.7304 89.9849 45.5914 89.5672 45.5299 89.1347C45.4475 88.6479 45.2751 88.1813 45.0216 87.7588C44.9056 87.5699 44.9145 87.3719 44.7807 87.237C44.6469 87.1021 44.4862 87.1559 44.4684 87.1109C44.3257 86.8591 44.5754 86.7423 44.4684 86.5354C44.3613 86.3285 44.192 86.4454 44.1295 86.2115C43.5943 84.4126 43.8977 82.182 45.5748 82.8745L45.9938 83.0366C46.1396 83.0785 46.2826 83.1295 46.422 83.1894C46.538 83.2794 46.7077 83.9359 46.9129 83.9989C47.0816 83.9022 47.2614 83.8267 47.4482 83.774C47.5375 83.774 47.8404 84.0439 48.0189 83.882C48.1973 83.7201 48.019 83.6212 48.1082 83.3963C48.1082 83.3513 48.3756 83.2434 48.3756 83.2164C48.4381 82.8027 48.4471 81.9571 48.5185 81.5164C48.4994 81.1736 48.5174 80.8299 48.5721 80.4911C48.6411 80.2874 48.7244 80.0891 48.8217 79.8975C48.8752 79.7956 48.9289 79.6875 48.9824 79.5736L49.0447 79.4298L49.1074 79.2857C49.152 79.1598 49.1967 79.0339 49.2324 78.908C49.28 78.7312 49.3127 78.5506 49.3304 78.3683C49.3569 78.1412 49.3569 77.9117 49.3304 77.6847C49.2708 77.2255 49.109 76.7859 48.8574 76.3985L49.134 76.9653L48.8665 76.4885C48.7327 76.2547 48.5811 75.9127 48.4205 75.6699C48.2599 75.427 48.0281 75.2742 47.9121 75.0763C47.5286 74.4017 47.216 73.7182 46.9395 73.1336C46.7261 72.6793 46.4818 72.2403 46.2081 71.8202C45.8156 71.3075 45.2448 71.0737 45.0129 70.7409C44.9079 70.3914 44.7609 70.0563 44.5756 69.7426C44.4863 69.6077 44.1295 69.4366 44.0938 69.3647C43.9511 69.1308 44.0937 68.96 43.9866 68.8071C43.8796 68.6542 43.7193 68.807 43.3803 68.5012C43.0413 68.1954 43.1213 67.9437 42.8715 67.7458C42.6489 67.5772 42.4132 67.4268 42.1668 67.2961C42.0329 67.2151 41.6583 67.1072 41.5513 67.0172C41.4442 66.9273 41.3643 66.5405 41.2215 66.3876C41.0788 66.2347 40.8645 66.2525 40.8199 66.2076C40.5969 65.9737 40.4096 65.578 40.1687 65.3531C39.6156 64.8404 38.9553 64.5617 38.4647 64.139C38.1215 63.8641 37.7994 63.5634 37.5012 63.2395C37.262 63.0127 37.0972 62.7176 37.0286 62.3939C37.0286 62.0881 37.3231 62.187 37.4123 61.9442C37.5015 61.7013 37.3138 61.6023 37.4655 61.4674C38.0988 60.9817 39.3033 61.2516 39.8028 61.0447C39.6265 60.7483 39.3739 60.5058 39.0715 60.3431C38.7952 60.1664 38.5353 59.9647 38.2953 59.7405C38.1383 59.5501 38.0145 59.3342 37.9294 59.102C37.8223 58.8861 37.7243 58.6703 37.6441 58.4724C37.5638 58.2745 37.3052 57.9326 37.1536 57.6717C37.0087 57.4214 36.8777 57.1633 36.7611 56.8983C36.7119 56.7097 36.6787 56.5169 36.6627 56.3225C36.6181 56.1876 36.4843 56.0438 36.4397 55.9178C36.3951 55.7919 36.4398 55.4772 36.3952 55.3063C36.2614 54.9105 36.1812 55.0813 36.2079 54.0829C36.2347 53.0845 36.208 53.1835 36.7254 53.0306C37.2428 52.8777 38.8306 53.5884 39.2945 53.1206C39.7584 52.6529 39.3391 52.0953 39.4818 51.3217C39.4818 51.3217 39.7135 51.1777 39.7135 51.0158C39.674 50.8952 39.672 50.7654 39.707 50.6434C39.742 50.5214 39.8127 50.4129 39.91 50.3322C40.3025 49.9365 40.3738 50.4492 40.9894 50.0894C41.1143 49.5767 41.2659 49.1089 41.4175 48.6592L38.1167 46.7434C37.799 47.0476 37.501 47.3722 37.2246 47.7149C37.064 47.9218 37.0912 48.1826 36.9484 48.3985C36.6079 48.8342 36.2415 49.2486 35.8512 49.6396C35.53 50.0174 35.1819 50.3862 35.0035 50.5391C34.8251 50.692 35.0034 50.6562 34.8785 50.6651C34.7536 50.6741 34.5575 50.4941 34.3702 50.2602C34.3702 50.2602 34.1295 50.2603 34.0849 50.0804C34.0403 49.9005 34.2364 50.0174 34.1293 49.8735C34.0223 49.7296 33.7367 49.6306 33.5761 49.4148C32.9307 48.4277 32.4291 47.3523 32.0864 46.2217C32.0864 46.1497 32.2112 45.8979 32.2201 45.7809C32.343 45.3478 32.6298 44.9806 33.0186 44.7585C33.4073 44.5364 33.8671 44.4774 34.2987 44.5938C34.8162 44.6658 34.9945 44.5938 34.6912 43.6944C34.6912 43.5504 34.4326 43.4875 34.3702 43.2356C34.2855 42.8212 34.1349 42.4232 33.9241 42.0573C33.5673 41.4906 33.1569 41.2207 33.0321 41.0228C32.5771 39.9884 33.2728 40.2852 32.4967 39.6736C31.9169 39.2059 31.2656 37.6409 30.4895 36.5705C30.0792 35.9949 29.5974 35.4552 29.1336 34.7716C28.9284 34.4928 28.7679 34.07 28.5716 33.8721C28.3754 33.6743 28.2503 33.9891 28.1165 33.8721C27.9553 33.5545 27.7644 33.2533 27.5458 32.9727C27.3407 32.7118 27.0817 32.415 26.8141 32.0732L26.2077 33.5665C26.4934 33.3889 26.7916 33.2326 27.0998 33.0987C27.4656 32.9458 27.7243 33.0266 27.9919 32.9277C28.4112 32.7748 28.768 32.6039 29.1248 32.5049C29.3013 32.4525 29.4853 32.4314 29.6689 32.4421L29.9542 32.4959C30.1011 32.5642 30.2368 32.6553 30.3558 32.7658C30.4093 32.7658 30.6503 33.1255 30.7038 33.1615C31.4354 33.5663 31.0782 33.5754 31.6848 33.9442C31.8008 34.0161 32.1934 34.025 32.2558 34.07C32.8625 34.5107 32.8535 35.3474 33.5761 35.1405C33.8691 35.0111 34.1379 34.8315 34.3702 34.6097C34.5308 34.4748 34.6914 34.331 34.8519 34.205C35.0125 34.0791 35.1819 33.9532 35.2265 34.0162C35.2711 34.0791 35.1197 34.295 34.977 34.4479C34.8252 34.6099 34.6643 34.7631 34.4952 34.9066C34.174 35.1945 33.8614 35.4193 33.6563 35.5902C33.1835 35.95 32.8981 36.2108 32.6483 36.3997C32.3985 36.5885 32.2468 36.9304 31.6848 36.2018C31.3458 35.86 31.1228 35.6082 30.9979 35.7701C30.7659 35.8849 30.5244 35.9782 30.2757 36.049C30.1014 36.0624 29.9283 36.0893 29.7582 36.1298C29.5173 36.2017 29.3832 36.1838 29.2673 36.2198C29.1513 36.2558 28.7324 36.5166 28.5094 36.5885C28.3586 36.6226 28.2097 36.6647 28.0633 36.7146C27.8403 36.8045 27.7061 36.8853 27.4831 36.9932L26.6446 37.4159L26.4216 37.551V38.1356H26.4752H26.618C27.0373 38.2165 27.5725 37.8478 27.849 38.4414C27.8907 38.5482 27.9478 38.6483 28.0184 38.7383C28.1166 38.8193 28.2058 38.8552 28.2236 38.9272C28.2573 39.1804 28.2038 39.4374 28.072 39.6556C27.8026 39.8136 27.4835 39.862 27.1799 39.7906C26.9098 39.7124 26.6472 39.61 26.395 39.4847V39.4847C26.395 39.9075 26.5021 35.842 26.4486 37.56H26.6359H26.7875C26.8678 37.56 26.9035 37.56 26.8589 37.56C26.7581 37.5712 26.6561 37.5712 26.5553 37.56H26.4665C26.4665 37.0473 26.3326 41.9852 26.395 39.8985L26.4665 39.9615L26.7518 40.2043C27.1994 40.5336 27.667 40.834 28.1522 41.1038L28.3573 40.924C28.886 40.5392 29.3951 40.1278 29.8828 39.6916C30.3573 39.2919 30.7151 38.7696 30.9177 38.1806C31.0694 37.515 31.5601 37.5239 31.9348 36.5255C31.9348 36.4445 32.0951 35.9319 32.0951 35.9139C32.2557 35.6171 32.6219 35.4103 32.7467 35.0955C32.8716 34.7807 32.6572 34.6457 32.7999 34.3219C32.9426 33.9981 33.1926 33.5394 33.2194 33.5034C33.5048 32.9188 34.0133 32.424 34.1114 32.0912C34.2096 31.7584 33.9063 31.7945 33.9599 31.5427C34.0134 31.2908 34.4951 30.5801 34.6289 30.2113C34.6074 29.9861 34.6353 29.7591 34.7108 29.5461C34.7864 29.3331 34.9076 29.1395 35.0658 28.9791C35.833 28.9791 36.0203 29.4828 35.8865 30.3013C35.8865 30.4902 35.9667 30.679 35.8865 30.8949C35.8062 31.1107 35.5567 31.0478 35.5389 31.1738C35.521 31.2997 35.7083 31.5426 35.7083 31.6955C35.7083 32.0553 35.396 32.9907 35.619 33.4134C35.9199 32.9658 36.1265 32.4607 36.2258 31.9294C36.2258 31.8214 36.4756 31.6146 36.4845 31.5157C36.4845 31.2458 36.3594 31.0839 36.4397 30.7961C36.5199 30.5082 36.8771 30.0495 36.9663 29.7077C37.0056 29.5118 37.0322 29.3134 37.0464 29.114V28.8083V28.5744C37.0098 28.24 37.0716 27.902 37.2246 27.6029C37.3762 27.3151 37.7689 27.2611 37.8135 27.1082C37.9116 26.8024 37.7154 26.5237 37.8135 26.1009C37.9678 25.6568 38.2245 25.2559 38.5627 24.9316C38.6738 24.8284 38.8006 24.7434 38.9377 24.6797L39.0358 24.6257L39.2052 24.8505L39.5262 25.2733C39.9633 25.741 40.4183 25.831 40.677 26.4426L41.1945 27.8548C41.4711 28.6283 41.8101 29.5818 41.8814 29.9326C42.1401 31.0479 41.6494 30.2203 41.5513 30.4541C41.4531 30.688 41.4354 30.2565 41.6227 30.8771C41.9439 31.9384 41.7654 31.8393 41.3997 31.3716C41.3105 31.2457 41.2034 31.1198 41.1052 30.9759L40.7929 30.6342C40.6228 30.4247 40.4249 30.24 40.2044 30.0855C40.142 30.0855 40.0975 30.0855 40.0529 30.1305C40.0082 30.1754 40.0082 30.1305 39.9814 30.1305C39.9547 30.1305 39.8833 30.0224 39.7584 29.5457C39.7138 29.3298 39.6156 28.8893 39.5175 28.4036C39.4551 28.1427 39.4014 27.8818 39.3568 27.657V27.4951V27.4411L39.2496 26.2898C39.2591 26.4197 39.2893 26.5472 39.3389 26.6675C39.3821 26.8239 39.4359 26.9771 39.4997 27.1262C39.571 27.2971 39.6424 27.3871 39.7584 27.6029C39.8744 27.8188 39.883 27.8547 39.9544 27.9716L39.9993 28.0617C39.9993 28.1066 40.0707 28.1156 40.0707 28.1965C40.0914 28.3177 40.118 28.438 40.1509 28.5564C40.1509 28.8263 40.3382 29.069 40.3739 29.3388C40.4096 29.6087 40.2401 29.7796 40.3739 30.0134C40.3739 30.0584 40.588 30.1485 40.5969 30.1935C40.5883 30.3748 40.5428 30.5522 40.4632 30.715C40.4632 30.805 40.3915 30.904 40.3647 30.9939V31.0659L40.2937 31.2188C40.2937 31.3087 40.2401 31.3897 40.2223 31.4707C40.035 32.2802 40.3472 32.3701 40.2223 33.0447C40.7665 33.1706 40.8108 32.1452 41.3104 31.8574C41.4174 32.0552 40.8201 32.7029 40.9985 32.8559C41.3999 32.676 41.6048 31.8664 41.3104 31.8574C40.8643 31.5246 41.5781 31.1198 41.6048 30.9579C41.6316 30.796 41.4799 30.7331 41.5156 30.6252C41.5512 30.5173 41.7475 30.4183 41.7386 30.3643C41.7419 30.3194 41.7419 30.2742 41.7386 30.2293V30.1485L41.5156 29.9056C41.2033 29.5548 40.8733 29.096 40.6235 28.7273C40.3731 28.4359 40.1578 28.1158 39.9814 27.7738L39.8743 27.5579C39.8743 27.486 39.8028 27.45 39.7671 27.3781C39.6806 27.2265 39.6091 27.0669 39.5532 26.9013C39.4819 26.6495 39.4552 26.6226 39.4195 26.5056V26.3348V26.2808C39.3303 25.3813 40.1688 34.1061 39.812 30.4184V30.5082L39.8655 30.8859L40.0794 32.3791C40.2222 33.3805 40.3649 34.37 40.5076 35.3474L40.7219 36.8044L40.8199 37.515L40.8735 37.8747C40.8735 38.0096 40.9269 37.9918 40.9536 38.0637L42.1759 40.2043C42.5595 40.8609 42.9163 41.4546 43.2196 42.0033C43.5229 42.5519 43.7814 42.9027 43.9331 43.1276C44.2274 43.5233 43.871 42.2282 44.2902 42.9297C44.4062 43.1186 44.5487 43.3704 44.7271 43.7211L45.3696 44.9535L46.9752 48.0746C46.9752 47.8677 47.0554 47.6609 47.0911 47.445C47.1267 47.2292 47.1447 47.1212 47.1804 46.9593C47.2914 46.0159 47.3511 45.0671 47.359 44.1171C47.359 43.5594 47.359 43.2806 47.359 42.9657C47.3426 42.7142 47.3426 42.4617 47.359 42.2101C47.3757 42.1251 47.4105 42.0449 47.4613 41.9749C47.5122 41.905 47.578 41.8471 47.6534 41.8054L47.7514 41.7424H47.8137C47.8583 41.7424 47.8854 41.7425 47.8943 41.6346C47.8943 41.3467 47.8407 40.9058 47.8407 40.564C47.8407 40.4021 47.93 40.1414 47.9121 39.9885C47.8943 39.8356 47.7244 39.3408 47.7244 39.2869C47.7244 39.2329 47.8407 39.3678 47.8407 39.2869C47.8292 39.1282 47.8292 38.9688 47.8407 38.8101C47.8367 38.7472 47.8367 38.6842 47.8407 38.6213V38.4504C47.8407 38.3965 47.8407 38.2257 47.8407 38.0727V38.0097C47.8407 37.9108 47.8407 37.8028 47.8407 37.6948C47.8407 37.443 47.8407 37.1913 47.8407 36.9304C47.8407 36.4267 47.8407 35.9049 47.8407 35.3922C47.8407 33.4134 47.9121 31.7945 48.3582 31.9654C48.938 32.2442 49.054 32.6129 49.2503 34.7716C49.2319 35.0471 49.2319 35.3237 49.2503 35.5992C49.2484 36.2392 49.3079 36.8777 49.4284 37.506C49.605 36.7766 49.6713 36.0246 49.6249 35.2753C49.6249 34.3759 49.5353 33.4763 49.5086 32.6938C49.4818 31.9113 49.4195 31.0749 49.4284 30.3643C49.4284 28.7993 49.473 27.45 49.4284 25.9659C49.4284 25.4352 49.3126 24.7517 49.3304 24.302C49.4017 23.8808 49.4941 23.4634 49.607 23.0516C49.5932 22.8273 49.5601 22.6047 49.5086 22.386C49.6424 21.7115 49.9369 21.0368 50.1332 20.3172C50.5792 20.4881 51.0255 20.3175 51.4626 20.7492C51.5829 20.3492 51.6486 19.9346 51.6586 19.5168C51.6586 19.31 51.4715 19.166 51.4626 18.9142C51.4537 18.6623 51.6676 18.4015 51.6765 18.1676C51.6854 17.9338 51.5158 17.736 51.5158 17.5561C51.5158 17.0794 51.6232 16.6566 51.6499 16.1799C51.6117 15.737 51.6117 15.2916 51.6499 14.8487C51.6945 14.6688 52.0956 14.309 52.2027 14.0482C52.2027 14.0482 51.9439 13.5714 52.39 13.3646C52.836 13.1577 53.1218 13.4365 53.3448 13.7423C53.5678 14.0481 53.4251 14.3359 53.3448 14.6417C53.2645 14.9475 53.2019 15.3164 53.4071 15.4873C53.6123 15.6582 53.5321 15.3883 53.5678 15.2444C53.6035 15.1005 53.6746 14.9566 53.7281 14.8127C53.802 14.4663 53.8471 14.1142 53.8623 13.7603C53.8623 13.5804 53.9514 13.5894 53.9603 13.4365C54.0044 12.9388 54.1123 12.4491 54.2813 11.9794C54.4447 11.4453 54.7538 10.9684 55.1734 10.6032C55.4767 10.4233 55.3966 10.4323 55.8516 10.4413C56.0568 10.4413 56.1102 10.5942 56.3956 10.4413C57.0379 9.99161 56.8684 9.36202 57.2877 8.78637C57.4848 8.5685 57.6935 8.36128 57.9124 8.16568C58.287 7.79691 58.4295 7.46409 58.9469 7.59002C59.045 7.59002 59.2412 7.81493 59.3572 7.75197C59.8389 7.46414 60.3743 6.70855 61.0612 6.1329C61.3719 5.86566 61.6998 5.61933 62.0426 5.39539C62.3994 5.18852 62.8363 5.04453 63.1128 4.86464C63.7171 4.38067 64.362 3.95039 65.0399 3.57847C65.2361 3.49752 65.4771 3.57847 65.6466 3.46154C66.0927 3.21869 67.1183 2.99378 67.8141 2.74193C68.7062 2.9578 67.4754 2.87693 68.5816 3.16476C69.0009 3.29068 68.9741 3.42552 69.4737 3.08373C69.5808 2.8049 68.7599 2.84994 68.4745 2.70603C68.8581 2.32825 69.6697 2.5261 70.3209 2.44515C70.7759 2.38219 71.8288 1.89646 72.3373 2.08534C72.8457 2.27423 72.3373 2.28323 73.042 2.20228C73.3007 2.20228 73.4791 2.13034 73.8627 2.11235C75.0132 2.18906 76.1525 2.38807 77.2616 2.70603C77.5616 2.71375 77.8603 2.74988 78.1536 2.81396C78.3588 2.89491 78.6084 3.20965 78.8136 3.30859C79.1136 3.33831 79.4035 3.43432 79.6625 3.58978C79.9215 3.74524 80.1435 3.95633 80.3124 4.20805C80.3838 4.56783 79.7324 4.41492 79.7235 4.43291C79.7146 4.4509 79.884 4.91866 79.6521 4.92766C79.2493 4.85247 78.8629 4.70634 78.5104 4.49594C78.0375 4.27771 77.552 4.08847 77.0564 3.92927C76.8601 3.86631 76.7438 3.92927 76.4941 3.92927C75.9238 3.77409 75.3463 3.64797 74.7635 3.55146L75.0222 3.05672C74.4245 2.52604 74.6387 3.45255 74.2194 3.57847C74.4514 3.47953 73.015 3.57847 72.9614 3.57847C72.7652 3.57847 71.6503 3.20964 71.3916 3.40752C70.8831 3.7673 71.2845 3.31757 70.4995 3.40752C70.2943 3.40752 70.0891 3.55142 69.7769 3.62338C69.4646 3.69534 68.8846 3.73135 68.4475 3.88426C68.3066 3.89225 68.1667 3.91033 68.0284 3.93828C67.627 4.37002 67.9747 3.9382 67.1986 4.08211C67.1005 4.08211 67.0472 4.31599 66.9669 4.32498C66.6338 4.3663 66.3033 4.42643 65.9768 4.50494C65.6111 4.64885 65.3431 5.08059 64.9863 5.28746C64.7811 5.41339 64.3707 5.38634 64.0942 5.55724C63.8177 5.72813 63.7554 5.89003 63.568 5.99796C63.3807 6.1059 63.1756 5.99796 63.2113 5.99796C63.0596 6.08791 63.2113 6.2229 63.0597 6.29485C62.7921 6.48374 62.4528 6.66362 62.1227 6.85251C61.8046 7.05818 61.506 7.29295 61.2307 7.554C60.9363 7.85982 60.7846 8.30058 60.508 8.59741C60.3831 8.73232 60.0799 8.80426 59.964 8.91219C59.6587 9.28905 59.3869 9.69246 59.152 10.1175C58.9558 10.3964 58.6259 10.6033 58.4385 10.9181C58.4385 10.981 58.4831 11.1969 58.4385 11.2329C58.2117 11.4385 58.045 11.7029 57.9568 11.9974C57.9122 12.2043 57.6533 12.7259 57.5909 13.0857C57.4537 13.4679 57.3406 13.8585 57.252 14.255C57.1985 14.7048 57.2968 14.8937 57.1897 15.0646C57.0827 15.2355 56.5917 15.2984 56.4044 15.4693C55.9583 15.946 56.0568 16.9893 56.0746 17.6999C56.0746 17.7988 55.9672 17.9608 55.9762 18.0777C55.9851 18.1946 56.0568 18.4734 56.0746 18.7163C56.0925 18.9592 56.0745 19.3549 56.1369 19.7237C56.1369 19.8946 56.0746 19.9755 56.0925 20.1194C56.1103 20.2633 56.3509 20.8481 56.217 21.1269C56.1447 21.2695 56.0333 21.388 55.896 21.4686C55.6521 21.7435 55.4397 22.0452 55.2627 22.368C55.094 22.0258 55.0376 21.6383 55.1019 21.2617C55.1108 21.1856 55.0921 21.1088 55.0488 21.0459C55.0223 20.9939 54.989 20.9456 54.9504 20.902C54.8544 20.7931 54.7313 20.7123 54.5936 20.6682C54.6304 20.7211 54.6605 20.7785 54.6829 20.839C54.7105 20.9299 54.7105 21.027 54.6829 21.1179C54.6408 21.4158 54.6197 21.7164 54.6202 22.0173C54.6202 22.2512 54.4598 22.9168 54.4063 23.7622C54.3528 24.6077 54.2369 25.4892 54.2369 26.0289C54.2369 26.2538 54.3261 26.7575 54.3083 26.9283C54.296 27.0829 54.2721 27.2362 54.2369 27.3871C54.2369 27.6029 54.1833 27.8458 54.1476 28.1067C54.0724 28.6373 54.0278 29.1719 54.0139 29.7077C54.2109 30.4812 54.2354 31.2891 54.0853 32.0732C54.0853 32.1272 53.8799 31.7764 53.8531 31.8033C53.6756 32.4125 53.5476 33.0352 53.4698 33.6653C52.881 31.9833 52.8985 29.6628 52.6487 27.8908C52.1402 28.1337 52.3636 30.2114 52.3547 31.7225C52.3547 32.4691 52.4795 33.1885 52.4527 34.079C52.4259 34.9695 52.2654 35.689 52.2654 36.5345C52.2654 37.0832 52.3634 37.2361 52.3991 37.6858C52.4616 38.5853 52.3992 40.4471 52.4527 41.6794C52.4527 42.5788 52.5329 43.6043 52.5686 44.5128C52.6189 45.2714 52.6009 46.0331 52.515 46.7884C52.4017 47.0167 52.2767 47.2389 52.1404 47.454C51.962 47.7508 51.7926 48.0296 51.8015 48.0386C51.6318 47.3128 51.5359 46.5714 51.5158 45.826C51.2584 44.779 51.2042 43.6917 51.3555 42.6238C51.3555 42.336 51.2217 41.6616 51.2217 41.4187C51.2217 40.6092 51.2217 39.8896 51.2217 39.1791C51.2217 37.5331 50.9987 35.9948 50.963 34.7626C50.9273 33.5303 51.0967 32.2711 51.0431 31.1648C51.0431 30.76 50.8826 30.2204 50.838 29.7077C50.7934 29.1951 50.9002 28.2866 50.6237 28.3135C50.249 28.9252 50.4545 30.1124 50.4812 31.1468C50.4812 31.5695 50.4812 32.1902 50.4812 32.7838C50.4812 32.9097 50.4812 33.3954 50.4812 33.6203C50.4812 33.8451 50.6685 34.2589 50.6685 34.3399C50.6685 34.8076 50.481 35.2393 50.49 35.671C50.49 35.9229 50.6775 36.3457 50.6685 36.4357C50.6685 37.1642 50.5703 37.5959 50.5614 38.3604C50.5525 39.125 50.5614 39.7097 50.5614 40.5102C50.5614 41.9494 50.4277 42.6779 50.4991 44.3419C50.4991 44.6478 50.5612 44.9894 50.6058 45.3222C50.6504 45.655 50.7041 45.691 50.713 45.7899C50.7445 45.9684 50.7445 46.1512 50.713 46.3297C50.6837 46.5204 50.6837 46.7145 50.713 46.9053C50.713 47.328 50.7845 47.8047 50.838 48.2725C50.838 48.5333 50.8916 48.7491 50.9094 49.0999C50.9273 49.4507 50.9094 49.9185 50.9094 50.3683C50.9094 50.818 51.0253 51.7804 51.0253 51.9873C51.0152 52.2913 50.9704 52.5932 50.8916 52.8868C50.8028 53.209 50.7579 53.5417 50.7578 53.8761C50.7578 55.1083 50.6417 58.877 50.3562 63.0595L48.3582 59.2278C47.6891 57.8786 47.0645 56.6283 46.449 55.4051L44.9144 52.1762C44.3435 50.9259 43.6656 49.4778 43.0323 48.1016L41.5513 44.8635L41.2838 44.2879C41.2629 44.2443 41.245 44.199 41.2302 44.1529V43.9012C41.2302 43.7303 41.2302 43.5864 41.1767 43.4425C41.1142 42.9208 41.0784 42.615 41.0695 42.543C40.9803 41.7695 41.0252 42.0392 41.1501 43.0466C41.1501 43.1725 41.168 43.3076 41.2037 43.4515L41.3195 43.5953L41.5783 43.973L42.2295 44.9535C43.1216 46.2937 44.7271 48.9831 46.2347 51.5196C47.0376 52.9227 47.8404 54.2988 48.6522 55.72L48.9467 50.818L49.0181 49.7297V49.0191C49.0181 48.5514 49.0626 48.1196 49.0804 47.6249C49.0982 47.1302 49.1253 46.7255 49.1431 46.3207C49.1431 46.0239 49.1431 45.7361 49.1431 45.4212C49.1431 45.1064 49.1431 44.8456 49.1431 44.5218C49.1431 44.198 49.1431 43.9281 49.1431 43.7662C49.1431 43.3254 49.027 42.7768 49.0181 42.444C49.0181 41.9223 49.0627 41.9762 49.0181 41.7244C48.7158 40.9063 48.5968 40.031 48.6701 39.1611Z" fill="white" stroke="white" stroke-width="3.10104" stroke-linecap="round" stroke-linejoin="round"/>
</svg>
