<svg width="333" height="336" viewBox="0 0 333 336" fill="none" xmlns="http://www.w3.org/2000/svg">
<path d="M181.547 21.4066C180.058 16.0894 176.753 11.4525 172.2 8.29032C167.647 5.12816 162.128 3.63777 156.59 4.07462C151.053 4.51148 145.84 6.84824 141.846 10.6846C137.852 14.521 135.326 19.6179 134.7 25.1019C125.838 19.0153 114.417 15.8416 104.067 18.8849C93.7176 21.9282 85.3592 32.1667 86.5626 42.7966C80.3654 38.3491 72.7624 36.2692 65.1471 36.9378C57.5317 37.6064 50.4139 40.9789 45.0979 46.4372C39.7818 51.8955 36.6234 59.0743 36.2016 66.6578C35.7798 74.2414 38.1228 81.7219 42.8012 87.7289C34.2896 89.3375 25.8437 93.6416 21.4675 101.076C17.0914 108.51 18.054 119.292 25.0559 124.379C13.5904 125.075 4.90383 136.574 4.50998 147.986C4.11613 159.399 10.3083 170.159 18.251 178.419C12.976 181.114 8.77467 185.503 6.33132 190.873C3.88797 196.242 3.34652 202.275 4.79524 207.989C6.24396 213.704 9.59751 218.762 14.3096 222.341C19.0216 225.92 24.8146 227.809 30.7449 227.699L31.5326 228.504C22.7803 240.046 16.2161 245.22 21.4237 261.762C22.6272 265.632 25.2528 268.458 31.1169 273.153C38.6657 279.218 55.4263 274.544 62.4281 267.871C50.8095 276.979 50.7219 297.086 62.275 306.282C73.828 315.477 93.5862 311.021 99.9973 297.76C103.017 308.825 107.612 324.563 118.705 327.78C125.51 329.78 129.186 328.302 132.818 327.78C144.065 326.194 151.483 318.172 159.206 309.912C158.922 322.194 171.722 333.019 183.888 330.802C196.054 328.585 204.128 313.912 199.445 302.543C204.018 313.89 219.269 318.998 230.363 313.738C241.456 308.477 247.167 294.652 244.169 282.805C247.569 285.464 251.77 286.908 256.097 286.904C260.423 286.9 264.622 285.449 268.017 282.785C271.412 280.12 273.804 276.398 274.809 272.217C275.814 268.037 275.372 263.642 273.555 259.741C279.21 261.666 285.356 261.618 290.979 259.602C296.602 257.587 301.365 253.726 304.479 248.657C307.594 243.588 308.875 237.616 308.11 231.726C307.345 225.836 304.579 220.382 300.271 216.265C307.513 215.635 314.308 212.519 319.487 207.451C324.666 202.383 327.906 195.68 328.649 188.496C329.392 181.312 327.593 174.095 323.56 168.087C319.527 162.078 313.513 157.653 306.551 155.573C313.794 147.03 319.395 136.204 318.104 125.14C316.813 114.075 306.398 103.684 295.326 105.576C299.977 102.348 303.22 97.4852 304.397 91.9717C305.574 86.4582 304.597 80.7065 301.665 75.8813C298.734 71.0562 294.065 67.5186 288.606 65.9849C283.147 64.4512 277.305 65.0362 272.264 67.6214C274.556 62.114 274.926 56.0033 273.317 50.2623C271.708 44.5214 268.211 39.4804 263.384 35.9424C258.557 32.4045 252.677 30.5732 246.681 30.7399C240.685 30.9066 234.917 33.0616 230.297 36.8622C230.232 31.2277 228.378 25.7576 224.999 21.2314C221.621 16.7052 216.891 13.3541 211.483 11.6556C206.075 9.95701 200.265 9.99769 194.882 11.772C189.499 13.5464 184.816 16.9639 181.503 21.5371L181.547 21.4066Z" fill="#60C9EB" stroke="#60C9EB" stroke-width="7.97786" stroke-linejoin="round"/>
</svg>
