<svg width="110" height="205" viewBox="0 0 110 205" fill="none" xmlns="http://www.w3.org/2000/svg">
<path d="M5.46157 5.82001C5.46157 5.82001 45.4494 4.9308 64.1567 5.82001C82.864 6.70922 105.622 8.56019 105.622 8.56019C105.622 8.56019 105.344 33.3493 105.622 38.249C105.9 43.1487 101.728 111.436 101.728 111.436L98.3723 168.691L97.2595 191.956C97.2595 191.956 72.5019 167.457 69.442 161.65C66.382 155.843 54.5944 140.835 54.5944 140.835L37.2084 161.958L14.9544 195.022L10.5036 201.446C10.5036 201.446 5.77455 119.784 5.49638 113.269C5.2182 106.755 4.90522 7.38067 5.46157 5.82001Z" fill="#E9AD62"/>
<path d="M106.745 6.96352C106.649 6.46753 106.396 6.01943 106.028 5.6906C105.659 5.36176 105.196 5.17107 104.711 5.14881L53.7181 2.64449C45.3381 2.2271 36.9407 1.73714 28.5607 1.86417C28.277 1.71048 27.9581 1.64138 27.6392 1.66453L4.32462 2.6626C3.74208 2.70895 3.19881 2.98722 2.80727 3.43981C2.41573 3.89241 2.20581 4.48476 2.22087 5.09437C-0.213163 70.4242 4.70704 135.591 8.6015 200.648C8.55959 201.151 8.68509 201.654 8.95688 202.072C9.22867 202.49 9.63012 202.797 10.0936 202.942C10.5571 203.087 11.0542 203.061 11.5013 202.868C11.9484 202.675 12.3182 202.327 12.5482 201.882C25.5645 182.017 38.9864 162.509 52.814 143.358C65.6858 161.453 79.8246 178.528 95.1142 194.442C95.4258 194.763 95.825 194.976 96.257 195.05C96.6891 195.125 97.1327 195.059 97.527 194.86C97.9214 194.661 98.2471 194.34 98.4595 193.94C98.6718 193.54 98.7604 193.082 98.7131 192.627C100.405 160.942 102.086 129.245 103.755 97.536L106.259 50.5712C107.024 36.2349 108.832 21.3179 106.745 6.96352ZM101.895 53.0755L99.4086 100.022L94.7664 187.564C80.1615 172.044 66.6412 155.451 54.3093 137.914C54.1217 137.693 53.8914 137.516 53.6337 137.395C53.376 137.275 53.0966 137.212 52.814 137.212C52.5315 137.212 52.2521 137.275 51.9944 137.395C51.7367 137.516 51.5065 137.693 51.3189 137.914C37.9896 156.339 25.0255 175.091 12.4264 194.17C8.68845 132.615 4.30717 70.9141 6.32394 9.19559C22.6146 5.42098 39.3573 6.85461 55.7523 7.67124L102.886 10.0122C104.607 24.0581 102.642 38.9751 101.895 53.0755V53.0755Z" fill="#E9AD62" stroke="#E9AD62" stroke-width="3.0951"/>
</svg>
