<svg width="113" height="237" viewBox="0 0 113 237" fill="none" xmlns="http://www.w3.org/2000/svg">
<path d="M6.79583 167.134C6.79583 167.134 5.68312 58.9744 5.05723 46.8702C4.43133 34.766 5.05723 9.20581 5.05723 9.20581C5.05723 9.20581 63.2133 6.78905 66.5514 6.44088C69.8896 6.0927 93.5345 6.78905 95.7599 6.44088C97.9853 6.0927 107.165 6.44088 107.165 6.44088C107.165 6.44088 106.331 100.53 107.165 107.453C108 114.375 109.391 155.48 109.391 155.48L110.26 165.925C110.26 165.925 77.9567 215.264 75.1749 219.053C72.3932 222.842 65.1606 232.877 65.1606 232.877C65.1606 232.877 30.9276 199.371 28.65 195.213C26.3725 191.055 6.79583 167.134 6.79583 167.134Z" fill="#FFE600"/>
<path d="M110.646 164.269L108.907 4.19013C108.909 3.67557 108.777 3.17266 108.529 2.74913C108.281 2.3256 107.929 2.0017 107.52 1.82103C107.111 1.64035 106.665 1.61157 106.241 1.73852C105.818 1.86547 105.438 2.14205 105.152 2.53112C71.3652 4.10132 37.5843 5.40528 3.80915 6.44298C3.2388 6.47473 2.70103 6.76552 2.30878 7.25432C1.91654 7.74312 1.70028 8.39192 1.70541 9.06453C2.60948 35.2391 1.56632 61.4751 1.80972 87.6497C2.07631 114.329 2.95723 140.989 4.45243 167.628C4.41461 167.998 4.44633 168.373 4.54549 168.727C4.64465 169.081 4.80873 169.405 5.02609 169.676C22.7942 193.208 42.1818 214.971 62.991 234.743C63.3915 235.034 63.8651 235.151 64.331 235.077C64.797 235.002 65.2265 234.74 65.5467 234.334L109.985 168.918C110.281 168.487 110.459 167.962 110.496 167.41C110.533 166.858 110.428 166.305 110.194 165.825C110.492 165.383 110.652 164.833 110.646 164.269V164.269ZM63.8255 228.886C44.0782 209.951 25.643 189.193 8.69461 166.808C7.23419 140.443 6.36489 114.056 6.08671 87.6497C5.84331 62.3149 6.79954 36.939 6.08671 11.6042C38.9926 10.5938 71.91 9.31718 104.839 7.77428C105.372 59.9323 105.917 112.097 106.473 164.269C106.481 164.758 106.594 165.238 106.804 165.661L63.8255 228.886Z" fill="#FFE600" stroke="#FFE600" stroke-width="3.0951"/>
</svg>
