<svg width="106" height="197" viewBox="0 0 106 197" fill="none" xmlns="http://www.w3.org/2000/svg">
<path d="M4.57551 189.593L5.68813 83.0513L5.13176 28.8638C5.13176 28.8638 4.85368 10.4807 4.57551 8.64786C4.29733 6.815 8.74808 5.27246 8.74808 5.27246L100.563 5.27246C100.563 5.27246 102.302 35.5964 102.511 39.8791C102.719 44.1619 100.285 109.383 100.285 109.383L95.0695 178.342L92.8441 189.666C92.8441 189.666 66.7651 155.077 58.6111 143.137L50.5441 131.196C50.5441 131.196 35.5399 151.702 32.8972 154.787C30.2546 157.872 7.07909 190.519 4.57551 189.593Z" fill="#60C9EB"/>
<path d="M94.8761 185.602C100.671 125.789 103.662 65.7524 103.847 5.49175C103.866 4.85098 103.644 4.22792 103.228 3.75633C102.812 3.28475 102.235 3.0022 101.622 2.96926L48.6815 1.89859C39.6234 1.69897 30.5479 1.4812 21.4898 1.89859C17.4041 2.09821 13.3184 2.44301 9.3196 2.98743C6.90295 3.31408 4.10383 3.27778 2.60864 5.81838C1.11344 8.35899 1.82628 12.0792 1.86105 14.892L2.01747 31.0067C2.1044 41.0965 2.19132 51.1682 2.22609 61.2399C2.3304 81.7341 2.3304 102.222 2.22609 122.704C2.14495 145.546 1.95368 168.387 1.65232 191.228C1.62639 191.634 1.70458 192.039 1.87877 192.403C2.05296 192.766 2.31686 193.075 2.64334 193.297C2.75399 193.661 2.95972 193.985 3.23737 194.233C3.51502 194.482 3.85366 194.644 4.21501 194.703C4.57637 194.761 4.94609 194.713 5.28275 194.564C5.61941 194.415 5.90956 194.171 6.12053 193.859C21.1884 174.732 35.7115 155.061 49.6898 134.845C61.8812 154.948 75.4549 174.102 90.3035 192.154C90.5391 192.417 90.8323 192.617 91.158 192.737C91.4837 192.856 91.8323 192.892 92.174 192.84C92.5157 192.788 92.8404 192.651 93.1202 192.44C93.4 192.229 93.6266 191.95 93.7807 191.627C93.8851 191.391 93.9893 191.155 94.0763 190.92H94.424C94.424 190.448 94.5109 189.976 94.563 189.504C94.8923 188.234 94.9985 186.912 94.8761 185.602V185.602ZM51.6544 129.346C50.9416 128.148 49.0987 127.531 48.1772 128.838C34.7205 148.437 20.7248 167.528 6.19014 186.111C6.63059 150.191 6.80443 114.278 6.7117 78.3708C6.7117 59.5703 6.58996 40.7638 6.34656 21.9512C6.34656 19.5921 6.34656 17.2511 6.34656 14.892C6.34656 11.9884 5.44256 9.44783 8.48511 8.15938C11.9623 6.70761 16.9869 7.19756 20.6553 6.99794C28.8441 6.54426 37.0329 6.68946 45.2217 6.85278L99.4485 7.9779C99.2399 66.7626 96.3017 125.438 90.6339 184.005C90.5002 184.319 90.4348 184.66 90.4426 185.004C76.2623 167.43 63.3001 148.825 51.6544 129.328V129.346Z" fill="#60C9EB" stroke="#60C9EB" stroke-width="3.0951"/>
</svg>
