<svg width="107" height="197" viewBox="0 0 107 197" fill="none" xmlns="http://www.w3.org/2000/svg">
<path d="M5.2901 189.593L6.40273 83.0513L5.84636 28.8638C5.84636 28.8638 5.56828 10.4807 5.2901 8.64786C5.01193 6.815 9.46268 5.27246 9.46268 5.27246L101.278 5.27246C101.278 5.27246 103.017 35.5964 103.225 39.8791C103.434 44.1619 101 109.383 101 109.383L95.7841 178.342L93.5587 189.666C93.5587 189.666 67.4797 155.077 59.3257 143.137L51.2587 131.196C51.2587 131.196 36.2545 151.702 33.6118 154.787C30.9692 157.872 7.79369 190.519 5.2901 189.593Z" fill="#E96262"/>
<path d="M95.5897 185.602C101.385 125.789 104.375 65.7524 104.561 5.49175C104.58 4.85098 104.357 4.22792 103.941 3.75633C103.525 3.28475 102.949 3.0022 102.335 2.96926L49.3951 1.89859C40.337 1.69897 31.2615 1.4812 22.2034 1.89859C18.1177 2.09821 14.032 2.44301 10.0332 2.98743C7.61657 3.31408 4.81745 3.27778 3.32226 5.81838C1.82706 8.35899 2.5399 12.0792 2.57467 14.892L2.73109 31.0067C2.81802 41.0965 2.90494 51.1682 2.93971 61.2399C3.04403 81.7341 3.04403 102.222 2.93971 122.704C2.85858 145.546 2.6673 168.387 2.36594 191.228C2.34001 191.634 2.4182 192.039 2.5924 192.403C2.76659 192.766 3.03049 193.075 3.35696 193.297C3.46761 193.661 3.67334 193.985 3.95099 194.233C4.22864 194.482 4.56728 194.644 4.92864 194.703C5.28999 194.761 5.65971 194.713 5.99637 194.564C6.33303 194.415 6.62319 194.171 6.83416 193.859C21.902 174.732 36.4251 155.061 50.4034 134.845C62.5948 154.948 76.1685 174.102 91.0172 192.154C91.2527 192.417 91.5459 192.617 91.8716 192.737C92.1973 192.856 92.546 192.892 92.8877 192.84C93.2294 192.788 93.554 192.651 93.8338 192.44C94.1136 192.229 94.3402 191.95 94.4944 191.627C94.5987 191.391 94.703 191.155 94.7899 190.92H95.1376C95.1376 190.448 95.2245 189.976 95.2767 189.504C95.606 188.234 95.7121 186.912 95.5897 185.602V185.602ZM52.3681 129.346C51.6552 128.148 49.8123 127.531 48.8909 128.838C35.4341 148.437 21.4384 167.528 6.90377 186.111C7.34421 150.191 7.51805 114.278 7.42533 78.3708C7.42533 59.5703 7.30359 40.7638 7.06018 21.9512C7.06018 19.5921 7.06018 17.2511 7.06018 14.892C7.06018 11.9884 6.15618 9.44783 9.19873 8.15938C12.6759 6.70761 17.7005 7.19756 21.3689 6.99794C29.5577 6.54426 37.7465 6.68946 45.9353 6.85278L100.162 7.9779C99.9535 66.7626 97.0153 125.438 91.3475 184.005C91.2138 184.319 91.1485 184.66 91.1562 185.004C76.976 167.43 64.0137 148.825 52.3681 129.328V129.346Z" fill="#E96262" stroke="#E96262" stroke-width="3.0951"/>
</svg>
