<svg width="113" height="238" viewBox="0 0 113 238" fill="none" xmlns="http://www.w3.org/2000/svg">
<path d="M7.52092 167.848C7.52092 167.848 6.40822 59.6882 5.78233 47.584C5.15643 35.4798 5.78233 9.91967 5.78233 9.91967C5.78233 9.91967 63.9384 7.50292 67.2765 7.15474C70.6146 6.80657 94.2596 7.50292 96.485 7.15474C98.7104 6.80657 107.89 7.15474 107.89 7.15474C107.89 7.15474 107.056 101.244 107.89 108.166C108.725 115.089 110.116 156.194 110.116 156.194L110.985 166.639C110.985 166.639 78.6818 215.978 75.9 219.767C73.1183 223.556 65.8857 233.591 65.8857 233.591C65.8857 233.591 31.6527 200.085 29.3751 195.927C27.0976 191.769 7.52092 167.848 7.52092 167.848Z" fill="#FFE600"/>
<path d="M111.366 164.983L109.627 4.90424C109.629 4.38968 109.497 3.88677 109.249 3.46324C109.001 3.03971 108.648 2.71581 108.239 2.53514C107.83 2.35446 107.384 2.32569 106.961 2.45263C106.538 2.57958 106.158 2.85617 105.872 3.24523C72.085 4.81543 38.304 6.11939 4.52888 7.15709C3.95853 7.18884 3.42076 7.47963 3.02851 7.96843C2.63627 8.45724 2.42001 9.10603 2.42514 9.77864C3.32921 35.9532 2.28605 62.1893 2.52945 88.3638C2.79603 115.044 3.67696 141.703 5.17215 168.342C5.13434 168.712 5.16606 169.087 5.26522 169.441C5.36437 169.795 5.52846 170.119 5.74581 170.39C23.514 193.922 42.9015 215.685 63.7107 235.457C64.1113 235.748 64.5848 235.866 65.0507 235.791C65.5167 235.716 65.9463 235.454 66.2664 235.048L110.705 169.632C111.001 169.201 111.179 168.676 111.216 168.124C111.253 167.572 111.148 167.019 110.914 166.539C111.212 166.097 111.371 165.547 111.366 164.983V164.983ZM64.5452 229.6C44.798 210.665 26.3627 189.907 9.41434 167.522C7.95391 141.157 7.08461 114.77 6.80644 88.3638C6.56304 63.029 7.51926 37.6532 6.80644 12.3183C39.7123 11.3079 72.6297 10.0313 105.559 8.48839C106.092 60.6464 106.637 112.811 107.193 164.983C107.2 165.473 107.314 165.952 107.523 166.375L64.5452 229.6Z" fill="#FFE600" stroke="#FFE600" stroke-width="3.0951"/>
</svg>
