<svg width="60" height="64" viewBox="0 0 60 64" fill="none" xmlns="http://www.w3.org/2000/svg">
<path fill-rule="evenodd" clip-rule="evenodd" d="M57.9103 52.4525L57.9519 52.4532L57.8964 52.4523C57.8297 52.4437 57.7622 52.4427 57.6953 52.4492C57.3812 52.4989 57.0789 52.6062 56.8028 52.7659C56.2159 53.0784 55.6731 53.4696 55.1894 53.9291L55.0838 54.033L55.0346 54.0813C55.0346 54.0813 55.0346 54.0813 54.9652 54.0803C54.9256 54.0896 54.8877 54.1057 54.8534 54.1278C54.8534 54.1278 54.7123 54.2873 54.7053 54.2872C54.6984 54.2871 54.672 54.2023 54.6161 54.2295C54.5602 54.2568 54.4122 54.4162 54.3493 54.4504C54.3196 54.4742 54.2936 54.5023 54.2718 54.5337C54.2718 54.5337 54.3084 54.4076 54.2736 54.4141C54.2198 54.4539 54.176 54.5064 54.1463 54.5669C54.1447 54.5856 54.1445 54.6043 54.1454 54.623C54.1478 54.5926 54.1483 54.5622 54.1468 54.5318L54.1975 54.3849C54.2629 54.1891 54.343 53.9584 54.4027 53.6851C54.6977 52.692 54.8053 51.6514 54.72 50.618C54.7011 50.4528 54.6667 50.2899 54.6168 50.1314C54.5854 50.0211 54.5379 49.9161 54.4759 49.82L48.2996 45.5074C48.3153 45.5033 48.3298 45.4955 48.342 45.4847C48.3542 45.4739 48.3636 45.4603 48.3697 45.4452C48.3701 45.3013 48.3587 45.1576 48.335 45.0157C48.2953 44.8886 48.339 44.7488 48.4706 44.7649C48.6021 44.7809 48.9121 44.9192 48.9884 44.9204C49.0647 44.9216 48.9884 44.9204 48.9884 44.9204C49.2132 45.0072 49.4276 45.1189 49.6281 45.2536C49.8411 45.3737 50.0276 45.5368 50.1758 45.7329C50.2972 45.9546 50.3869 46.1927 50.4424 46.4399C50.4611 46.4945 50.4717 46.5515 50.4743 46.6091C50.4743 46.6091 50.4718 46.7708 50.4716 46.7848C50.4714 46.7989 50.7318 47.0139 50.7787 47.1201L54.4124 49.8751C54.5439 50.1196 54.625 50.3889 54.6502 50.6662C54.6746 50.8056 54.6861 50.9468 54.685 51.0884C54.6933 51.2383 54.691 51.3887 54.6781 51.5383C54.6737 51.5897 54.6729 51.6413 54.6757 51.6929V51.6929C54.6757 51.6929 54.6758 51.6928 54.6766 51.6366C54.6775 51.5804 54.6795 51.4468 54.68 51.4187C54.6804 51.3906 54.7212 51.4615 54.7426 51.4196C54.9181 51.1893 55.1192 50.9802 55.3418 50.7963C55.1669 50.4421 54.8365 50.7112 54.7163 50.864C54.6805 50.8988 54.6538 50.9417 54.6381 50.9893V50.9893C54.6346 50.8879 54.6247 50.7868 54.6082 50.6866C54.5881 50.3888 54.5022 50.0991 54.3574 49.8391L51.5827 47.6104C51.5728 47.4582 51.5751 47.3053 51.5897 47.1535C51.5923 46.9848 51.5603 46.8157 51.5367 46.5482C51.5252 46.4181 51.5061 46.2886 51.4799 46.1607C51.4402 46.0406 51.4005 45.9275 51.3745 45.8146C51.3485 45.7018 51.2787 45.7148 51.3138 45.6872C51.3489 45.6596 51.3562 45.6456 51.2689 45.4615C51.1815 45.2774 51.4945 45.219 51.964 45.3598C52.4335 45.5006 52.4349 46.309 52.7735 46.3915C53.1121 46.474 53.1092 46.2208 53.023 45.9594C52.9445 45.7584 52.8501 45.5643 52.7407 45.3788C52.6685 45.1105 52.7475 44.9219 52.7141 44.8371C52.6807 44.7522 52.5631 44.7434 52.5084 44.6933C52.2577 44.363 51.9869 44.0489 51.6974 43.7529C51.3274 43.459 50.8276 43.0366 50.5261 42.7929C50.6461 42.6612 50.9599 42.5466 51.1568 42.3739C51.5933 41.9518 51.978 42.1966 52.6177 42.0939C52.7159 42.0252 52.621 41.8761 52.5807 41.7912C52.5404 41.7062 52.3448 41.7876 52.2836 41.7094C52.2059 41.6558 52.1327 41.5959 52.0645 41.5303C51.9703 41.4456 51.8694 41.3687 51.7629 41.3006C51.6668 41.2359 51.5275 41.2619 51.411 41.1687C51.3446 41.1121 51.2829 41.05 51.2265 40.9831L51.0358 40.7693C50.9809 40.7263 50.8858 40.6052 50.8039 40.5196L50.6879 40.3773C50.6314 40.2927 50.5795 40.205 50.5324 40.1147L50.3844 39.8243L50.3856 39.7471L50.3394 39.6056C50.3409 39.5073 50.2939 39.4011 50.2747 39.2954C50.2365 39.0889 50.2186 38.8791 50.2217 38.669C50.2373 38.3309 50.3056 37.9973 50.4241 37.6809C50.5679 37.2687 50.7986 36.8934 51.1001 36.5807C51.2455 36.4295 51.403 36.2908 51.5711 36.1661L51.6975 36.0767L51.7675 36.0356L51.9073 35.9533C52.0989 35.8442 52.2999 35.7532 52.5079 35.6814L52.724 35.6143L52.8841 35.5746C53.406 35.4631 53.5794 35.4728 53.8369 35.4135L54.4218 35.2608L54.9444 35.1072C55.1323 35.0608 55.356 34.966 55.5442 34.9056L52.7999 41.5204C52.689 41.5187 52.5996 41.4751 52.5657 41.4254C52.3615 41.1692 52.7279 41.231 52.6402 41.068C52.4002 40.8886 52.463 41.3183 52.1041 41.2003C51.9315 41.1485 51.5672 40.4891 51.5213 40.3127C51.4999 40.1799 51.5019 40.0443 51.5275 39.9122C51.5885 39.5546 52.0377 39.2171 52.0715 38.8239C52.0537 38.6387 51.9894 38.4611 51.885 38.3079C51.7976 38.1308 51.7071 37.7006 51.3326 37.6948C51.1384 37.6918 51.2198 37.8196 51.0553 37.6905C50.764 37.6131 50.4626 37.5825 50.1619 37.5996C49.9747 37.5967 49.8582 37.5035 49.671 37.5006C49.6224 37.4998 49.4885 37.6454 49.447 37.6377C49.4055 37.63 49.2267 37.536 49.1157 37.5343C48.8661 37.5304 48.5754 37.4839 48.167 37.4284C47.7586 37.3729 47.3363 37.3102 46.9352 37.2337C46.8589 37.2326 46.6285 37.3274 46.5732 37.3195C46.3172 37.2734 46.0921 37.045 45.815 37.0267C45.5378 37.0084 45.4376 36.7607 44.997 36.5431C44.8874 36.457 44.6446 36.4393 44.5761 36.389C44.4372 36.2849 44.3045 36.1726 44.1789 36.0525C44.063 35.9172 43.9544 35.7678 43.8388 35.6114C43.5799 35.27 43.3402 34.9143 43.1203 34.5459C43.0186 34.3897 42.8116 34.3023 42.6893 34.1388C42.3498 33.6692 42.1209 33.127 42.02 32.5539C41.9446 32.0466 42.0342 31.6332 42.3837 31.4558C42.6468 31.3762 42.9277 31.3805 43.1882 31.4681C43.4576 31.5425 43.8738 31.9988 43.9794 31.4451C43.9919 30.6949 43.8146 29.954 43.4644 29.2931C43.3906 29.1303 43.2387 29.0859 43.1243 28.8592C43.1243 28.8592 43.2713 28.7631 43.2023 28.7409C42.8508 28.595 42.6025 27.5999 42.3466 27.1039C42.3466 27.1039 42.2426 27.1023 42.2159 27.0316C42.1893 26.9609 42.2739 26.8779 42.3011 26.9134C42.1522 26.6721 41.938 26.6197 41.8442 26.4073C41.7503 26.195 41.7343 25.8713 41.6616 25.6382C41.6058 25.4574 41.5392 25.2803 41.4618 25.108L41.2935 24.775C41.1942 24.5517 41.1321 24.3132 41.1099 24.0692C41.1138 23.8162 41.345 23.6791 41.0246 23.3157C40.9429 23.216 40.7627 23.1923 40.7371 23.0513C40.7371 23.0513 40.7401 22.8545 40.7432 22.6506C40.7502 22.4947 40.7713 22.3398 40.8059 22.1877C41.1553 21.5675 42.5878 21.3433 41.6107 20.8362C41.4867 20.7781 41.3055 20.8316 41.1815 20.7735C41.0576 20.7154 40.9431 20.4887 40.8261 20.4306C40.6843 20.39 40.5374 20.3711 40.3901 20.3747C40.1493 20.2445 39.9462 19.9179 39.7057 19.7736C39.6572 19.7729 39.5033 19.8409 39.4689 19.8193C39.3245 19.7397 39.2652 19.5419 39.0523 19.4051C38.8394 19.2683 38.7834 19.2955 38.653 19.2091C38.5781 19.1436 38.5199 19.0608 38.4833 18.9676C38.1674 18.7589 37.8948 18.8953 37.7954 18.5915C37.8557 18.4508 37.9598 18.3339 38.0918 18.2587C38.0382 17.6814 38.0868 18.596 37.9836 18.0953C37.9856 17.9618 38.0358 17.8571 37.9893 17.7228C38.0818 17.5696 38.2464 17.6845 38.4552 17.6385C38.664 17.5925 38.8191 17.4193 38.958 17.4073C39.2777 17.3631 39.5724 17.5995 39.6503 17.4952C40.2844 16.8512 38.9723 16.4937 38.7319 16.3424C38.2201 16.027 37.7314 15.6742 37.2704 15.2866C36.9042 15.0758 36.5553 14.8353 36.2272 14.5677C36.1513 14.4806 36.0692 14.3994 35.9813 14.3248C35.8471 14.1933 35.722 14.0528 35.6064 13.9042L35.1864 13.2441L35.0311 12.9676C34.9842 12.8615 34.9445 12.7412 34.9045 12.6351C34.9045 12.6351 34.7173 12.6323 34.7745 12.5207C34.9807 12.1935 34.7231 12.2528 34.5679 11.9692C34.4128 11.6857 34.5418 11.4064 34.4457 10.8848C34.4469 10.8075 34.249 10.5936 34.2499 10.5373C34.2796 10.1534 34.3319 9.77168 34.4063 9.394C34.491 9.04446 34.5982 8.70094 34.7272 8.36561C34.8668 7.91028 35.0404 7.46633 35.2469 7.03787C35.4414 6.59361 35.7029 6.18263 36.0218 5.81959C36.0224 5.78445 36.3152 5.69059 36.4287 5.52362C36.8021 5.09761 37.2495 4.74469 37.7486 4.48242L41.8528 8.2219C41.7825 8.29167 41.7074 8.35631 41.628 8.4153C41.3907 8.61657 41.0983 8.73963 40.7902 8.76798C40.5384 8.74413 40.3007 8.63978 40.1113 8.47009C39.9219 8.3004 39.7907 8.07411 39.7365 7.82385C39.7377 7.74654 39.8108 7.49456 39.7771 7.43077C39.7434 7.36699 39.4545 7.21494 39.3593 7.08695C39.2642 6.95896 39.309 6.75579 39.2191 6.73332C38.7494 6.6066 38.5174 7.25679 38.2555 7.59722C37.9937 7.93764 37.6025 8.1145 37.3737 8.56088C37.238 8.68577 37.0713 8.77062 36.8914 8.80644C36.6412 8.87917 36.385 8.92932 36.1261 8.95635C35.9943 8.95433 35.8195 9.05721 35.6389 9.07553C35.4583 9.09384 35.4115 8.9665 35.3143 8.97203C35.2172 8.97757 35.1594 9.13835 35.1316 9.13793C34.9444 9.13505 34.712 8.90661 34.5048 8.84719C34.2976 8.78777 34.1579 8.84186 34.0054 8.83952C33.8528 8.83717 33.8015 8.58327 33.6096 8.43271C33.4177 8.28214 32.8651 8.11897 32.557 7.86118C32.2954 7.60293 32.0518 7.32679 31.8276 7.03461C31.7255 6.93291 31.6156 6.83963 31.499 6.75548C31.4574 6.75485 31.3886 6.71155 31.4167 6.69089C31.7155 6.20341 31.811 5.86743 31.7705 5.78949C31.9374 5.91617 32.1418 5.98131 32.3502 5.97413C32.4538 5.98638 32.5582 5.98799 32.6621 5.97892L32.7247 5.97988C32.7265 5.99389 32.7263 6.00813 32.7241 6.02209C32.7097 6.12038 32.6777 6.21511 32.6297 6.30175C32.5652 6.43432 32.358 6.36083 32.2178 6.45709C32.0776 6.55335 32.025 6.81971 31.7334 6.84335C31.4741 6.80459 31.2126 6.78409 30.9506 6.78207C30.9506 6.78207 30.8789 6.93577 30.7611 6.92693C30.4786 6.83925 30.2042 6.7267 29.9409 6.59083C29.7761 6.52719 29.619 6.4447 29.4729 6.34474C29.3155 6.20876 29.1997 6.06631 29.0746 6.07845C28.9496 6.09059 28.8081 6.27822 28.6297 6.59884C28.4966 6.82045 28.3841 7.05404 28.2932 7.29662C28.2862 7.59085 28.3188 7.88463 28.3906 8.16978L28.7842 10.9876L32.2532 10.9215C32.3109 10.915 32.3692 10.9159 32.4266 10.9241C32.648 10.9627 32.8059 11.0846 32.9169 11.0863C33.5076 11.0926 34.0982 11.0689 34.6866 11.0151C34.8946 11.0183 35.0495 10.8661 35.223 10.8617C36.0003 10.8315 36.8401 10.802 37.5763 10.7431C37.9006 10.7145 38.223 10.6678 38.5423 10.6033C38.6582 10.5797 38.7707 10.5414 38.877 10.489L38.9825 10.4061C38.9825 10.4061 38.9825 10.4063 38.9833 10.3571L39.02 10.2171L39.1144 9.93723C39.2888 9.24539 39.63 8.60821 40.1071 8.08268C40.2959 7.98013 40.0507 8.14504 39.6571 8.03355C39.5391 8.01293 39.4234 7.98062 39.3117 7.93694C39.2223 7.88636 39.0079 7.84074 38.8702 7.77536C38.7172 7.71081 38.5698 7.63342 38.4298 7.54377C38.1614 7.40609 38.2918 7.49239 38.2711 7.48505C38.2504 7.4777 38.136 7.70097 38.0772 7.91798C38.0764 7.96718 38.1168 8.05215 38.0745 8.09368C38.0323 8.13521 37.9289 8.09144 37.9428 8.09166C37.87 8.31548 37.9365 8.49914 37.8508 8.65951C37.469 9.20456 36.9915 9.6738 36.4423 10.0438C36.3757 10.0034 36.3069 9.96722 36.236 9.93525C36.236 9.93525 36.0429 9.85496 36.0972 9.93311C35.9812 9.8048 36.1027 9.58873 36.0338 9.55955C35.3794 9.26832 34.4027 10.5257 34.0676 11.118L34.0669 11.1603L29.8667 16.382L34.8511 16.1141C35.4702 16.1806 36.0771 16.3341 36.6543 16.5705C36.7924 16.6131 36.9332 16.6459 37.0758 16.6684L37.4559 16.7726C37.6906 16.8465 37.9042 16.9271 37.9781 17.0829C38.052 17.2387 37.7377 17.8454 37.7702 17.9865C37.842 18.1473 37.961 18.2817 38.1111 18.3714C38.255 18.4861 38.4822 18.588 38.5695 18.7791C38.6236 18.8643 38.5658 19.0181 38.5644 19.1094C38.7395 19.442 38.8336 19.8122 38.8391 20.1892C38.751 20.5042 38.4276 20.7874 38.3195 21.0529C38.2827 21.1667 38.2576 21.2841 38.2447 21.4032C38.2427 21.5297 38.2411 21.6421 38.1896 21.8381C38.1446 22.2271 38.0782 22.6134 37.9913 22.995C37.8675 23.3798 37.7577 23.7646 37.606 24.156C37.4443 24.544 37.3038 24.9408 37.1854 25.3445C37.0546 25.7291 37.0206 26.1433 36.8754 26.5629C36.6988 27.0188 36.4735 27.4539 36.2035 27.8601C35.9639 28.2397 35.7602 28.6414 35.5955 29.0599C35.5374 29.2277 35.5889 29.4816 35.503 29.656C35.3813 29.8407 35.2366 30.0086 35.0723 30.1555C34.9791 30.2421 34.8941 30.3372 34.8184 30.4398C34.6984 30.6016 34.5892 30.7713 34.4915 30.9479C34.2986 31.3175 34.084 31.736 33.8691 32.1755L33.5462 32.8735L33.3814 33.2155C33.3444 33.3397 33.3146 33.466 33.2923 33.5937C33.336 33.9107 33.3799 34.2207 33.4169 34.5236C33.4538 34.8264 33.4585 34.967 33.4831 35.1713C33.4831 35.1713 33.4825 35.2135 33.4822 35.2275C33.482 35.2416 33.5239 35.2282 33.5794 35.229C33.6349 35.2299 33.7376 35.3158 33.5794 35.229C33.5794 35.229 33.5773 35.3696 33.5765 35.4188C33.5758 35.468 33.3116 35.5061 33.2406 35.6105C32.9077 36.092 32.6013 36.5918 32.3229 37.1077C32.103 37.4206 31.8762 37.7334 31.6908 38.0609C31.5105 38.4418 31.3608 38.837 31.2429 39.2422C31.1595 39.5859 31.0567 39.9246 30.9357 40.2567C30.9197 40.3681 30.8877 40.4766 30.8407 40.5786C30.7613 40.6011 30.6796 40.614 30.5973 40.6171C30.6228 40.8179 30.6383 41.0198 30.6435 41.2222C30.5404 41.7918 30.4066 42.3554 30.243 42.9103C30.2048 43.3653 30.1259 43.8158 30.0073 44.2563C29.9548 44.3956 29.8926 44.531 29.8209 44.6612L31.9308 42.7675C31.6832 42.6973 31.47 42.5364 31.3325 42.3162C31.195 42.096 31.1428 41.8319 31.1861 41.575C31.2239 41.4678 31.2535 41.3578 31.2744 41.246C31.3239 41.1835 31.4971 41.2073 31.5467 41.1378C31.6817 40.9289 31.713 40.6834 31.8115 40.5865C31.8389 40.5797 31.8677 40.5802 31.8948 40.5877L27.675 44.3751C27.705 44.2222 27.7074 44.0651 27.6821 43.9113C27.6829 43.8621 27.4966 43.8101 27.4903 43.7678C27.484 43.7256 27.5482 43.6 27.5283 43.5434C27.4614 43.3807 27.275 43.3216 27.16 43.13C27.0451 42.9384 27.1033 42.7636 27.022 42.6358C26.7243 42.1462 26.3849 41.2201 26.1288 42.0949C26.127 42.2074 26.2214 42.3775 26.1557 42.5874C26.0465 42.9231 25.8355 43.1238 25.804 43.3693C25.8125 43.6182 25.8434 43.8658 25.8966 44.1089L31.9091 38.7533L31.812 38.7518L31.7219 38.7505L31.5346 38.7476C31.4008 38.7458 31.268 38.7724 31.145 38.8259C30.8727 38.9412 30.9627 38.9566 30.6509 38.9307C30.3392 38.9048 30.2324 39.086 29.9544 39.1239C29.6763 39.1618 29.3302 39.1144 29.0449 39.1732C28.7596 39.2321 28.4875 39.3404 28.2304 39.3716C27.8755 39.3692 27.5214 39.3402 27.1707 39.285C27.0167 39.3149 26.8613 39.3361 26.705 39.3482C26.5989 39.3274 26.4966 39.2902 26.4016 39.238L26.2431 39.1724L25.9807 39.0769C25.4179 38.9375 24.8432 38.8532 24.2644 38.8256C23.934 38.7943 23.6059 38.7424 23.2819 38.6699L22.7562 39.0274C22.4828 39.22 22.2448 39.3569 21.9718 39.5144L21.5523 39.7541L21.3353 39.8772C21.2868 39.8765 21.3353 39.8773 21.3346 39.9265C21.3338 39.9757 21.3339 39.9687 21.2918 39.9962C20.897 40.4119 20.3005 40.8526 19.9209 41.1842C19.8245 41.2664 19.7327 41.3541 19.6463 41.447V41.447C19.6151 41.3926 19.5884 41.3358 19.5659 41.2771L19.3778 40.8664C19.2506 40.5692 19.1231 40.3002 19.0093 40.0313L18.9488 39.911L18.9139 39.9104L18.8584 39.9096L18.7406 39.9078C18.6536 39.9184 18.5674 39.936 18.4831 39.9601C18.2006 40.1151 17.9065 40.2469 17.6032 40.3542C17.3669 40.3857 16.6361 40.1004 16.215 40.4173C15.7412 40.5571 15.2487 40.6207 14.7555 40.6058C14.596 40.6033 14.5457 40.708 14.4416 40.7134C14.3374 40.7188 14.0487 40.5738 13.8959 40.5856C13.7431 40.5973 13.6985 40.7862 13.5805 40.7915C13.4625 40.7967 13.2845 40.6393 13.1527 40.6373C12.7853 40.6617 12.4167 40.656 12.0502 40.6204C11.9032 40.5751 11.7737 40.4848 11.6796 40.3617V40.3617L11.6159 40.452L11.4813 40.6398C11.3468 40.8248 11.1955 40.9966 11.0294 41.153C10.7623 41.3809 10.6861 41.3657 10.7905 41.3392C10.9156 41.3073 11.044 41.2903 11.173 41.2887C11.2423 41.2898 11.374 41.2918 11.4503 41.293L11.6375 41.2959L11.797 41.2983L11.9565 41.3008L12.1642 41.3392L7.20901 36.0894C7.11519 35.9938 7.01458 35.9052 6.90793 35.8246C6.66868 35.596 6.56539 35.5452 6.363 35.6264C6.363 35.6264 6.32642 35.7453 6.29164 35.7518C6.25686 35.7583 6.19615 35.652 6.20309 35.6521C6.21002 35.6522 6.13772 35.848 6.09579 35.8684C6.05386 35.8889 5.97097 35.8665 5.92243 35.8657C5.87389 35.865 5.80199 36.0186 5.73883 36.0668C5.67566 36.115 5.65648 36.0234 5.61422 36.0649C5.54462 36.1216 5.47199 36.1745 5.39673 36.2232C5.22912 36.298 5.14006 36.2192 4.95143 36.3077C4.91676 36.3072 4.80323 36.4741 4.78936 36.4739C4.77549 36.4737 4.67282 36.3949 4.61063 36.3799C4.54843 36.3648 4.43573 36.4615 4.35912 36.4814C4.28252 36.5013 4.30512 36.3891 4.25625 36.4094C4.20739 36.4298 4.10827 36.5619 4.0944 36.5617C3.96264 36.5597 3.86767 36.4316 3.74317 36.4086C3.45972 36.348 2.78604 36.3939 2.87724 35.8751C3.13846 35.5768 3.04201 35.9972 3.23204 35.8174C3.23463 35.6487 3.1299 35.6892 3.16706 35.5281C3.20421 35.367 3.43526 35.23 3.40232 35.117C3.36937 35.0041 3.0858 34.9364 2.99716 34.8366C2.90853 34.7368 2.8168 34.398 2.66759 34.1778C2.51838 33.9576 2.33132 33.9267 2.23715 33.7355C1.84761 33.0291 1.62246 32.2418 1.57889 31.4337C1.58105 31.2931 1.69338 31.2246 1.71645 31.0773C1.73952 30.93 1.64718 30.6192 1.72659 30.4165C1.83558 30.0949 2.13693 29.8816 2.2522 29.6022C2.45392 29.1132 2.2689 28.5128 2.42283 27.9739C2.42488 27.8404 2.59386 27.6885 2.60967 27.5622C2.61464 27.2389 2.55 26.9285 2.58281 26.5986C2.61562 26.2687 2.84559 25.7452 2.92174 25.3035C2.9342 24.8984 2.99138 24.496 3.09256 24.1039C3.20783 23.8245 3.676 23.5997 3.79875 23.2853C3.95151 22.7262 4.06716 22.1573 4.14427 21.5825C4.14427 21.5825 4.02683 21.5454 4.0485 21.4895C4.28583 20.7651 4.45287 20.019 4.54738 19.2618C4.54943 19.1283 4.70187 19.1377 4.72494 18.9905C4.76716 18.7891 4.82825 18.5923 4.90737 18.4027C4.96501 18.263 4.87724 18.107 4.91353 18.0021C5.05146 17.7003 5.16301 17.3869 5.24695 17.0654C5.249 16.9318 5.42982 16.8923 5.47369 16.7453C5.51757 16.5984 5.54956 16.3318 5.63655 16.0871C5.63655 16.0871 5.4857 15.9794 5.56209 15.9735C5.95107 15.9373 5.44113 15.2688 5.57741 14.9756C5.7137 14.6825 5.94227 14.707 6.16015 14.5205C6.74048 13.9203 7.27627 13.2777 7.76385 12.598C7.85562 12.4939 7.89646 12.101 8.23994 12.3171C8.02546 12.5429 7.83997 12.7952 7.68754 13.0679C7.55505 13.3639 7.40699 13.6526 7.24414 13.9327C7.19431 14.0163 7.02672 14.0839 6.98371 14.1747C6.9407 14.2654 6.97853 14.5121 6.97648 14.6456C6.97443 14.7792 6.77362 14.7619 6.70916 14.8945C6.6447 15.0271 6.74092 15.0848 6.70442 15.2037C6.66791 15.3226 6.47241 15.411 6.42192 15.5368C6.31418 15.8052 6.24669 16.0887 6.22173 16.3774C6.18881 16.6543 6.13595 16.9283 6.0635 17.1973C6.06242 17.2676 6.02512 17.4216 5.96889 17.47C5.91266 17.5183 5.76111 17.4669 5.71149 17.5364C5.66187 17.6059 5.86849 17.7005 5.86773 17.7497C5.86697 17.7989 5.71373 17.8316 5.71341 17.8527C5.6194 18.5542 5.22617 19.3284 5.13532 20.276C5.13133 20.5361 5.23792 20.826 5.19264 21.0643C4.96802 21.6649 4.79138 22.2827 4.66472 22.9119C4.66289 23.0314 4.85874 23.3648 4.82234 23.4767C4.78594 23.5887 4.61459 23.4736 4.59292 23.5295C4.46551 23.6963 4.55385 23.81 4.32946 23.9683C4.10508 24.1265 3.92431 24.1589 3.8721 24.3971C3.81989 24.6353 3.86504 24.854 3.81966 25.0993C3.77427 25.3446 3.64075 25.4551 3.59634 25.6372C3.5401 26.1295 3.53247 26.6261 3.57356 27.1199C3.57097 27.2886 3.40146 27.4758 3.38457 27.6724C3.36767 27.869 3.45896 28.2641 3.44695 28.5943C3.44501 28.7208 3.30293 28.9294 3.2869 29.0698C3.28032 29.4985 3.45975 29.5504 3.16505 29.7709C3.09515 29.8028 3.0277 29.8394 2.96253 29.8803C2.91931 29.9851 3.08992 30.1493 3.02589 30.2537C2.96186 30.3582 2.76101 30.3412 2.71876 30.3827C2.62839 30.5517 2.54918 30.7266 2.48177 30.9063C2.47972 31.0398 2.58838 31.2102 2.60595 31.4213C2.60077 31.7587 2.45916 31.9462 2.5917 32.3489C2.59095 32.3981 2.74369 32.3865 2.73568 32.4566C2.72761 32.5736 2.72581 32.6909 2.73028 32.808C2.75637 32.9567 2.80055 33.1013 2.86219 33.2388C2.9297 33.3593 3.12971 33.4328 3.20427 33.5464C3.27882 33.66 3.351 33.9352 3.47973 34.134C3.66599 34.3352 3.8865 34.5007 4.13096 34.6221C4.31018 34.6952 4.39978 34.7527 4.27064 35.0319C4.22763 35.1226 4.31897 35.0327 4.23371 35.165C4.14844 35.2973 4.13553 35.2478 4.09263 35.3315C4.04973 35.4152 4.04023 35.5767 4.17871 35.5929C4.17871 35.5929 4.29751 35.5314 4.29654 35.5947C4.29557 35.6579 4.19785 35.7057 4.2465 35.6994C4.29515 35.6932 4.53261 35.5772 4.61571 35.5855C4.69882 35.5938 4.82821 35.7506 4.97448 35.7106C5.12075 35.6707 5.19972 35.5031 5.24858 35.4828C5.29745 35.4625 5.40706 35.5344 5.5049 35.4867C5.61216 35.4126 5.70926 35.3242 5.79343 35.224C5.82875 35.1823 5.86272 35.2251 5.91277 35.1275C5.96282 35.0298 5.99217 34.9318 6.01318 34.9181C6.0342 34.9043 6.13743 34.9692 6.19366 34.9208C6.18848 35.2582 6.14881 35.1311 6.18524 35.469C6.28318 35.4143 6.19463 34.8575 6.19711 34.6959C6.24298 34.7035 6.28951 34.7043 6.3356 34.698C6.3772 34.6987 6.47514 34.658 6.54383 34.7012C6.61253 34.7445 6.69422 34.8302 6.82327 35.0079L11.9493 41.3288C11.8445 41.3036 11.7382 41.2855 11.6311 41.2747C11.4013 41.2411 11.1683 41.2375 10.9376 41.264L10.8127 41.2621C10.7087 41.2605 10.6586 41.3512 10.9042 41.1722C10.9702 41.123 11.0317 41.0674 11.0872 41.0063C11.1585 40.9426 11.2244 40.8731 11.2845 40.7984C11.49 40.5565 11.6728 40.2959 11.8305 40.0196L11.9801 39.7617L12.0586 39.6153L12.1002 39.616C12.2535 39.5872 12.4097 39.5777 12.5653 39.5879C12.7932 39.6416 13.0243 39.6805 13.2571 39.7041C13.4166 39.7065 13.6138 39.5198 13.7455 39.5288C13.8771 39.5379 14.0475 39.7372 14.2343 39.7682C14.4893 39.8214 14.7547 39.7833 14.9851 39.6603C15.0691 39.6053 15.1061 39.4512 15.2104 39.4317C15.3147 39.4122 15.5675 39.6621 15.6859 39.6288C15.9714 39.5559 16.2267 39.2013 16.4985 39.1141C16.9202 39.0407 17.3489 39.0191 17.7757 39.0494C17.9841 39.0516 18.1921 39.0264 18.3942 38.9745C18.4781 38.9498 18.5579 38.9132 18.6316 38.8657L18.6809 38.8313L18.8414 39.2063C19.0486 39.7157 19.2628 40.225 19.5112 40.7561C20.2985 40.2848 21.0094 39.6935 21.619 39.0029C21.8945 38.6767 21.6211 38.8694 22.3206 38.4794C22.738 38.2244 23.1285 37.9265 23.4858 37.5905C23.7216 37.5941 23.9713 37.5979 24.2348 37.602C24.8034 37.6107 24.5373 37.7824 25.006 37.9723C25.0892 37.9736 25.9462 38.1626 26.3268 38.2176C26.4417 38.2341 26.5582 38.2359 26.6735 38.2229C26.7448 38.211 26.8177 38.2121 26.8885 38.2262C27.1313 38.23 27.4047 38.4873 27.5782 38.4829C27.7517 38.4786 27.997 38.3277 28.1496 38.323C28.3023 38.3183 28.251 38.4933 28.3965 38.5025C28.542 38.5118 28.5096 38.3637 28.6142 38.3301C28.7188 38.2966 28.8211 38.4035 28.8909 38.3764C28.9945 38.3282 29.0913 38.266 29.1782 38.1912C29.3676 38.0793 29.5796 38.0128 29.7983 37.9969C30.0833 37.952 30.3891 37.9286 30.7719 37.8431C30.9314 37.8456 30.9893 37.6847 31.1704 37.6313C31.4456 37.5827 31.7243 37.5587 32.0037 37.5596L24.9714 43.8204C24.9751 43.5815 25.0345 43.3293 25.0516 43.1187C25.0447 42.6639 25.0865 42.2097 25.1764 41.764C25.2276 41.589 25.2883 41.2596 25.2954 41.2456C25.3531 41.1059 25.5123 41.1224 25.5621 41.0388C25.7615 40.7044 25.6928 40.6752 26.0219 40.4764C26.0635 40.4771 26.2812 40.2836 26.2952 40.2767C26.7464 40.2733 27.1833 40.4377 27.5229 40.7385C27.5705 40.8025 27.3783 41.1299 27.4116 41.2148C27.445 41.2997 27.754 41.5012 27.855 41.6996C27.9021 41.7917 27.8506 41.9737 27.8838 42.0726C27.9169 42.1715 27.9921 42.2431 28.039 42.3492C28.2202 42.7457 28.3254 43.1338 28.5075 43.467C28.6913 43.776 28.8976 44.0705 29.125 44.3481C29.4285 44.0013 29.3115 43.5146 29.4499 43.0809C29.5083 42.892 29.7333 42.6845 29.7849 42.4814C29.8366 42.2784 29.7168 41.9603 29.7489 41.6725C29.8739 41.1922 30.0413 40.7243 30.2489 40.2743C30.3523 39.8682 30.577 39.232 30.7094 38.7419C30.8181 38.4343 30.8175 38.0406 30.9462 37.7895C31.0749 37.5384 31.3475 37.402 31.4625 37.1367C31.5776 36.8713 31.6767 36.7251 31.7702 36.5086C31.8637 36.2922 31.8319 36.102 31.9524 35.9351C32.2001 35.6827 32.4682 35.4517 32.7538 35.2445C32.9513 35.0296 32.8703 34.8807 32.9699 34.7136C33.0696 34.5464 32.9713 34.6362 33.0202 34.6158L33.2736 34.8095L33.3354 34.8668C33.3779 34.9087 33.4235 34.9469 33.4721 34.9813C33.5626 35.0557 33.662 35.1187 33.7676 35.1686C33.8501 35.2191 33.7676 35.1686 33.7676 35.1686L33.7121 35.1677C33.68 35.1624 33.6472 35.1619 33.6149 35.1662L33.5387 35.1651L33.3458 35.0919C33.2264 35.0483 33.1039 35.0135 32.9796 34.9878L32.6963 34.9342C32.5992 34.9327 32.6052 34.9821 32.5725 34.855C32.4817 34.4459 32.5849 34.0539 32.5034 33.4903C32.4987 33.4185 32.4858 33.3475 32.465 33.2788C32.458 33.0575 32.4897 32.8365 32.5583 32.6263C32.6447 32.4238 32.7897 32.4612 32.8821 32.315C32.9745 32.1688 32.9951 31.7404 33.1233 31.5174C33.2516 31.2944 33.3754 31.3526 33.4399 31.213C33.5547 30.9688 33.5101 30.722 33.6173 30.5128C33.7246 30.3036 33.927 30.2153 34.0764 29.9715C34.1405 29.86 34.1509 29.6351 34.215 29.5237C34.3579 29.2517 34.6036 29.0517 34.7533 28.7869C34.903 28.5221 34.8283 28.4225 34.9348 28.2625C35.0557 28.1304 35.169 27.9912 35.2741 27.8459C35.4537 27.2558 35.6949 26.6869 35.9938 26.1488C36.0689 26.0543 36.1493 25.9639 36.234 25.8782C36.2917 25.7315 36.1833 25.5682 36.2413 25.4004C36.3439 24.9993 36.4992 24.6138 36.7029 24.2545C36.78 24.0672 36.8385 23.8728 36.8781 23.6739C36.8993 23.485 36.9322 23.2976 36.9768 23.113C37.0579 22.8049 37.2085 22.4768 37.2683 22.1965L37.3934 21.7487L37.459 21.5317C37.4601 21.4614 37.4606 21.4263 37.4615 21.3701C37.4663 21.2257 37.4524 21.0812 37.4197 20.9406C37.4019 20.8759 37.3974 20.8084 37.4068 20.742C37.4162 20.6756 37.4391 20.6119 37.474 20.5549C37.5663 20.4157 37.9435 20.2528 37.9537 20.0421C37.9243 19.9073 37.8643 19.7812 37.7788 19.6738C37.6562 19.5243 37.5266 19.3888 37.4792 19.3107C37.4064 19.1754 37.3251 19.045 37.2356 18.9203C37.0518 18.6926 36.6226 18.6367 36.667 18.4546C36.7114 18.2725 37.2118 17.76 37.2138 17.6265C37.2159 17.493 37.0229 17.4127 36.8165 17.2971C36.6508 17.2057 36.4665 17.1547 36.278 17.1482C36.1245 17.2021 36.0778 17.0609 35.787 17.0283C35.6761 17.0266 35.5153 17.1295 35.4253 17.1211C35.1754 17.0627 34.9307 16.9836 34.6936 16.8848L28.6186 14.999L33.6825 10.4584C33.7664 10.3864 33.842 10.305 33.908 10.2158C34.0778 10.0005 34.1517 9.70637 34.2933 9.51875C34.4349 9.33113 34.5528 9.34706 34.6516 9.2361C34.7504 9.12515 34.8384 8.81018 34.9368 8.72734C35.1032 8.60254 35.2841 8.49894 35.4756 8.41915C35.4756 8.41915 36.1051 8.52735 36.1671 8.55642C36.4692 8.75789 36.3466 9.06528 36.5894 9.06198C36.8752 8.98552 37.1243 8.80715 37.2908 8.55961C37.3968 8.42767 37.2956 8.23633 37.3609 8.04754C37.4263 7.85874 37.6132 7.86862 37.7063 7.68025C37.7993 7.49189 37.7104 7.41318 37.7119 7.31479C37.7241 7.28126 37.7385 7.24868 37.755 7.21711L37.7976 7.16148L37.8663 7.20475L38.004 7.28409C38.1758 7.38515 38.403 7.48715 38.5543 7.57383C38.6994 7.66127 38.8514 7.73636 39.0087 7.7986C39.1534 7.86408 39.3675 7.91657 39.4569 7.96715C39.5952 8.01773 39.7392 8.05073 39.8855 8.0652C39.9878 8.09081 40.0943 8.09244 40.1974 8.06999L40.2529 8.07084C40.2338 8.08098 40.2171 8.09514 40.2038 8.11231C40.1594 8.14117 40.117 8.17335 40.0774 8.2087L39.9854 8.33378C39.925 8.40317 39.8705 8.47763 39.8224 8.55627C39.7691 8.63765 39.7237 8.72413 39.6867 8.81436C39.6225 8.93288 39.5511 9.0652 39.4936 9.19085C39.3787 9.44918 39.3334 9.67357 39.1891 10.0369C39.0757 10.3633 38.9871 10.6979 38.9241 11.038C38.923 11.1083 38.9235 11.0802 38.8747 11.1006C38.8258 11.1209 38.6173 11.1528 38.4221 11.2201C38.2439 11.3021 38.0596 11.3699 37.871 11.4226C37.6837 11.4197 37.568 11.2842 37.408 11.3099C37.0951 11.3613 37.0302 11.5221 36.8425 11.5473C36.6549 11.5726 36.504 11.4507 36.3304 11.4621C36.1568 11.4735 35.9958 11.5834 35.8151 11.6088C35.6343 11.6341 35.4557 11.519 35.2682 11.5372C35.0806 11.5554 35.0927 11.6751 34.9192 11.6795C34.7457 11.6838 34.4496 11.5317 34.1791 11.5275C34.0335 11.5253 33.8718 11.6704 33.7259 11.6893C33.4624 11.6852 33.0343 11.5591 32.6871 11.5818C32.5957 11.5956 32.5079 11.6278 32.4289 11.6764L30.2959 12.8245L27.7639 8.32886C27.7103 8.2563 27.6759 8.1712 27.6638 8.08139C27.6699 7.80431 27.6902 7.52762 27.7249 7.25271C27.7295 6.95754 27.7341 6.6554 27.7374 6.43754C27.7408 6.21967 27.7473 5.79801 27.7453 5.92452C27.8577 5.41804 28.0306 4.92726 28.2602 4.46318C28.3759 4.23323 28.5118 4.01423 28.6658 3.80867C28.7153 3.74617 28.8638 3.55159 28.9836 3.42689C29.1064 3.29335 29.2381 3.16852 29.3778 3.05332C29.922 2.61353 30.5828 2.34731 31.2763 2.28822C31.5211 2.26625 31.7675 2.27004 32.0114 2.29951C32.1422 2.32988 32.2692 2.3742 32.3907 2.43182C32.6042 2.53351 32.8036 2.6562 32.83 2.74096C32.8564 2.82572 32.9566 3.07321 32.8856 3.17756C32.8037 3.24296 32.7036 3.28069 32.5995 3.28558L32.225 3.27983L32.01 3.27652C31.8951 3.28686 31.7813 3.30633 31.6694 3.33462C31.4 3.39348 31.1428 3.49889 30.9087 3.64627C30.7771 3.72654 30.6547 3.82143 30.5436 3.92899C30.4518 4.02013 30.3689 4.12004 30.2962 4.22741C30.224 4.3302 30.1618 4.43988 30.1107 4.55493L30.0449 4.77891C30.0212 4.90648 30.0192 5.03725 30.039 5.16548C30.1232 5.5534 30.2704 5.46422 30.3856 5.64173C30.699 6.01208 30.7549 5.97077 31.4548 6.01667C31.9194 6.0238 31.9117 6.07991 32.1026 5.84384C32.1102 5.84023 32.1183 5.83842 32.1268 5.83855C32.1352 5.83868 32.1435 5.84074 32.151 5.84458L32.0887 5.84363L32.0193 5.84256L31.9506 5.79929C31.9593 5.84343 31.9586 5.88892 31.9485 5.93278C31.9485 5.93278 32.0178 5.93388 32.0935 5.97722C32.1691 6.02056 32.3652 6.36102 32.5843 6.54716C32.8034 6.73329 33.0313 6.78602 33.1609 6.9286C33.2905 7.07118 33.2656 7.33087 33.3889 7.43117C33.7147 7.63986 34.078 7.78164 34.4578 7.84832C34.5622 7.85386 34.6649 7.8767 34.7619 7.91615C35.0099 8.0254 35.0619 8.24419 35.3101 8.34641C35.513 8.39195 35.7231 8.39518 35.9273 8.35589C36.1241 8.35427 36.3193 8.31932 36.5047 8.25235C36.6167 8.18377 36.711 7.90396 36.837 7.82857C37.0049 7.74917 37.1835 7.69509 37.3668 7.668C37.4631 7.64906 37.5528 7.60546 37.6278 7.54141C37.7028 7.47736 37.7606 7.39495 37.7954 7.302C37.8316 7.20414 37.9082 7.19122 37.9098 7.0858C37.9114 6.98038 37.8226 6.8876 37.8298 6.87365C37.8316 6.75417 38.017 6.87664 38.0595 6.82106C38.102 6.76547 37.9654 6.63676 38.0151 6.5602C38.178 6.27654 38.408 6.03847 38.6844 5.86752L40.6132 7.63342C40.202 7.76067 39.7533 7.62026 39.4098 6.95421L39.2622 6.64268C39.2622 6.64268 39.1277 6.3665 39.1214 6.32422C39.1427 6.21686 39.1793 6.1131 39.2301 6.01646L40.4135 7.0961C40.3798 7.19129 40.3782 7.29522 40.409 7.39139C40.5513 7.43259 40.6898 7.48645 40.8227 7.55238C40.8775 7.5954 40.9216 7.89834 41.1017 7.90814C41.2819 7.91794 41.2415 7.8189 41.3191 7.73574L38.4941 5.16164C38.4687 5.17845 38.4401 5.18999 38.4103 5.19554C38.4103 5.19554 38.2039 5.09404 38.1898 5.10789C37.7943 5.37279 37.4229 5.67278 37.0801 6.00455C36.9038 6.19164 36.7811 6.49913 36.5341 6.77652C36.1287 7.19983 35.8077 7.69846 35.589 8.24515C35.5235 8.448 35.4225 8.7206 35.3774 8.94486C35.3324 9.16911 35.3709 9.36658 35.3685 9.52823C35.2694 10.0864 35.2327 10.6543 35.2592 11.2208C35.2668 11.4426 35.2888 11.6637 35.3252 11.8825C35.3645 12.0302 35.4156 12.1743 35.4781 12.3136C35.5814 12.4987 35.7149 12.6649 35.8729 12.8048C36.0107 12.8884 36.1373 12.9895 36.2496 13.1058C36.2977 13.3234 36.3763 13.5328 36.4829 13.7279C36.5372 13.8061 36.7928 13.8803 36.8199 13.9229C36.847 13.9655 36.7814 14.1683 36.8633 14.2539C36.9452 14.3395 37.0573 14.257 37.2845 14.373C37.5116 14.4889 37.4674 14.664 37.6326 14.7509C37.7878 14.8229 37.9493 14.8795 38.1153 14.92C38.2054 14.9214 38.4687 14.9605 38.5375 14.9967C38.6063 15.0329 38.6583 15.2516 38.7543 15.3233C38.8503 15.3951 39.004 15.3272 39.0382 15.3629C39.1822 15.4705 39.2895 15.6901 39.4476 15.784C39.8186 16.0146 40.2615 16.0987 40.5845 16.2935C41.0448 16.5817 41.443 16.8479 41.4247 17.1358C41.4222 17.2974 41.214 17.3083 41.1283 17.4687C41.0426 17.629 41.1739 17.6452 41.0612 17.7559C40.6106 18.1919 39.7912 18.2496 39.4208 18.4337C39.6508 18.8098 40.178 18.8179 40.4734 19.0052C40.7688 19.1925 40.8698 19.3979 41.0967 19.528C41.4306 19.6721 41.7739 19.7925 42.1245 19.8882C42.2417 19.9322 42.2749 20.0311 42.3783 20.0749C42.4817 20.1186 42.5932 20.0782 42.669 20.1145C42.7447 20.1508 42.8189 20.2783 42.9156 20.3079C43.1504 20.3748 43.096 20.3108 43.5142 20.6266C43.9325 20.9423 43.8846 20.9063 43.6574 21.2473C43.4302 21.5882 42.2145 22.1601 42.1667 22.5601C42.119 22.96 42.5778 22.8897 42.8503 23.2173C42.8503 23.2173 42.7717 23.3637 42.8472 23.4141C42.9228 23.4644 43.1169 23.4674 43.002 23.7257C42.887 23.984 42.6528 23.882 42.342 24.2498C42.4116 24.4557 42.4593 24.6684 42.4846 24.8846C42.526 25.1247 42.5875 25.3608 42.6682 25.5904C42.7215 25.7318 42.894 25.7908 42.9682 25.9255C43.1099 26.1808 43.153 26.5257 43.3074 26.8585C43.6674 27.5051 43.9864 28.1746 44.2619 28.8626C44.2619 28.8626 44.4274 28.9214 44.4189 29.0267C44.4103 29.132 44.2938 29.0247 44.3404 29.1519C44.387 29.2792 44.5733 29.3383 44.6544 29.4801C44.7958 29.7651 44.9211 30.058 45.0294 30.3575C45.1771 30.6858 45.2816 31.0327 45.3397 31.3887C45.3397 31.3887 45.2254 31.5978 45.2103 31.6749C45.0816 31.9913 44.8599 32.2599 44.5753 32.4441C44.2908 32.6284 43.9573 32.7195 43.62 32.7049C43.2525 32.6993 43.0925 32.732 43.331 33.4597C43.3295 33.5581 43.5302 33.5822 43.5897 33.773C43.669 34.0785 43.8035 34.3665 43.9861 34.6226C44.3206 34.9721 44.6725 35.076 44.7261 35.1963C45.2159 35.8224 44.7167 35.8077 45.4074 36.001C45.5246 36.045 45.6975 36.0969 45.8697 36.1768C46.0418 36.2568 46.241 36.3795 46.4619 36.4461C46.902 36.6357 47.3678 36.7566 47.8437 36.8047C48.3499 36.8125 48.8628 36.8204 49.369 36.8282C49.5771 36.8314 49.8532 36.9341 49.9781 36.929C50.1031 36.9239 50.086 36.6845 50.1835 36.6579C50.3513 36.7244 50.5286 36.7627 50.7087 36.7713C51.0898 36.7614 51.4681 36.8394 51.815 36.9993C52.0079 37.0866 52.0402 37.2417 52.1568 37.3278C52.5411 37.5938 52.9563 37.6565 52.9676 38.2753C52.9676 38.2753 52.909 38.4853 52.9157 38.4995C53.0298 38.7473 52.9133 38.6471 52.8728 39.026C52.8717 39.0963 52.869 39.2719 52.8683 39.3141C52.7233 39.7266 52.3721 40.0095 52.4792 40.2642C52.5862 40.5189 53.0359 40.6102 53.5191 40.7582L55.5646 35.8267L54.6248 36.0443L54.1868 36.1149L53.8186 36.1654C53.6924 36.1814 53.5683 36.2127 53.4494 36.2582C53.2551 36.3262 53.0697 36.4177 52.8972 36.5309C52.6919 36.6441 52.4953 36.7727 52.3088 36.9155C51.9971 37.1418 51.7392 37.4356 51.5535 37.7756C51.3673 38.1247 51.2778 38.5184 51.2949 38.9148C51.312 39.3112 51.4351 39.6954 51.6507 40.0265C51.7827 40.1466 51.9247 40.2546 52.0755 40.3493C52.2258 40.4993 52.3791 40.4665 52.4406 40.5236C52.5022 40.5808 52.5951 40.8494 52.7118 40.9285C52.8285 41.0077 52.947 40.9813 53.0364 41.0319C53.1258 41.0824 53.1797 41.1747 53.2964 41.2538C53.4811 41.3413 53.6601 41.4405 53.8328 41.5504C53.9212 41.6642 53.7883 41.7324 53.8285 41.8244C53.8688 41.9164 54.2669 42.1896 53.8189 42.4498C53.6019 42.58 53.5309 42.6986 53.4471 42.7324C53.0496 42.8739 52.8645 42.7235 52.2681 42.7143C52.2335 42.7138 51.4597 42.5191 51.2974 42.6994C50.9458 43.0103 51.6335 42.9435 51.9834 43.1949C52.3333 43.4463 52.3333 43.9032 52.8167 44.0442C53.0995 44.147 52.8678 44.3262 53.1413 44.5834C53.215 44.6296 53.2861 44.6799 53.3541 44.7343C53.4079 44.8406 53.2528 44.9929 53.3137 45.0922C53.3746 45.1915 53.583 45.1666 53.6159 45.2867C53.639 45.3933 53.6538 45.5016 53.6597 45.6107C53.656 45.8496 53.4787 46.093 53.4977 46.2128C53.5166 46.3326 53.7392 46.2868 53.7863 46.3859C53.8333 46.4851 53.6691 46.806 53.6804 46.9748C53.6795 47.0311 53.9528 47.3023 53.6716 47.544C53.4741 47.5581 53.2776 47.505 53.1134 47.393C52.9493 47.2809 52.8266 47.1164 52.7653 46.9256C52.7665 46.8483 52.6083 46.7685 52.6372 46.6916C52.6661 46.6147 52.8253 46.6454 52.7914 46.5956C52.7575 46.5459 52.5643 46.4586 52.5166 46.4086C52.4688 46.3587 52.3286 46.0051 52.0182 45.8878C51.9397 46.0343 52.0144 46.1407 52.0952 46.3037C52.0952 46.3037 52.0246 46.3871 52.0448 46.4295C52.065 46.472 52.2503 46.5873 52.2765 46.6931C52.3026 46.7989 52.1755 46.9517 52.2081 47.0858C52.2661 47.3749 52.5379 47.7305 52.4907 48.0953L54.4756 49.8409C54.4976 49.8691 54.5155 49.9002 54.5294 49.9332C54.5785 50.0428 54.6186 50.1562 54.6491 50.2725C54.6481 50.3428 54.6886 50.4137 54.7015 50.4772C54.7144 50.5406 54.7015 50.4772 54.7015 50.4772C54.7054 50.2828 54.7636 50.0936 54.8694 49.9314C55.093 49.7611 55.3638 49.6669 55.6434 49.6622C56.067 49.6265 56.5372 49.7321 56.6586 49.9589C56.663 50.062 56.6615 50.1652 56.6538 50.2681C56.645 50.4022 56.6174 50.5344 56.5716 50.6605C56.4572 50.8837 56.3752 50.7841 56.2767 50.8739C56.1782 50.9638 56.2768 50.8739 56.2269 50.9645C56.0958 51.3702 55.9479 51.0657 55.717 51.1957C55.64 51.2437 55.4825 51.5506 55.3839 51.6475C55.2853 51.7444 55.2732 51.6458 55.2445 51.7086C55.0999 51.8257 54.9615 51.9503 54.8296 52.0819C54.7675 52.1429 54.723 52.2199 54.7012 52.3047L54.7004 52.361L54.7037 52.1431C54.7271 52.0086 54.7406 51.8727 54.7445 51.7361C54.7771 51.3637 54.7689 50.9886 54.72 50.618C54.7065 50.4715 54.6764 50.3271 54.6298 50.1877C54.6161 50.1214 54.5937 50.0574 54.5633 49.9971C54.5552 49.9677 54.5438 49.9391 54.5297 49.9121L54.4759 49.82L49.6738 46.3579C49.6418 46.1817 49.7273 46.0214 49.6465 45.8655C49.5656 45.7096 49.3044 45.5578 49.1615 45.3799C48.7964 45.2197 49.09 45.5195 48.8546 45.4948C48.7241 45.4085 48.9056 45.3409 48.7403 45.261C48.5751 45.1812 48.6684 45.4217 48.8546 45.4948C49.1995 45.6196 48.9683 45.7707 48.8904 45.875L54.4688 49.8199C54.4888 49.8494 54.5069 49.8801 54.5229 49.912C54.5569 49.9829 54.5859 50.0562 54.6096 50.1313C54.6938 50.4223 54.7407 50.7231 54.7486 51.0262C54.7648 51.8454 54.6657 52.6628 54.4546 53.4539C54.4535 53.5312 54.4102 53.6359 54.3806 53.755L54.3791 53.8535L54.3783 53.9025C54.3783 53.9025 54.4131 53.9031 54.4477 53.9036C54.5535 53.9004 54.6549 53.8598 54.734 53.7886C54.7764 53.74 54.8765 53.5307 54.9183 53.5173C54.9602 53.5039 54.9999 53.6239 55.0901 53.6253C55.1802 53.6267 55.4401 53.4198 55.5373 53.4142C55.6345 53.4087 55.5344 53.604 55.5347 53.5829C55.5998 53.545 55.663 53.5038 55.7239 53.4593C55.7695 53.4379 55.8121 53.4101 55.8502 53.3768C55.9065 53.339 55.9604 53.2976 56.0116 53.2528C56.1171 53.1731 56.2268 53.0996 56.3408 53.0329C56.475 52.9389 56.6154 52.8542 56.7609 52.7793L56.9984 52.6635L57.1801 52.5889C57.243 52.5587 57.3082 52.5338 57.3753 52.5145L57.5075 52.4815L57.6392 52.4836C57.7308 52.4654 57.8241 52.455 57.9174 52.4526C58.063 52.4549 57.9722 52.4957 57.6907 52.3086L57.3383 54.4823C57.4514 54.4039 57.5735 54.3396 57.7019 54.291L57.792 54.2924L57.7087 54.2911L57.6186 54.2897L57.7225 54.2913L57.8404 54.2931L57.7503 54.2917L57.6245 54.3461C58.0779 54.1773 57.8395 54.3494 57.2945 54.1582C57.1358 54.1108 56.9834 54.0448 56.8399 53.9615C56.6305 53.8703 56.43 53.7589 56.2415 53.6289L56.159 53.5784L56.1998 53.6353C56.1998 53.6353 56.1983 53.7337 56.1975 53.7829C56.2122 53.9326 56.2099 54.0836 56.1906 54.2328C56.2159 54.3913 56.2134 54.553 56.1833 54.7106C56.1399 54.8224 55.9522 54.8476 55.8949 54.9592C55.8377 55.0708 55.8911 55.2123 55.8907 55.2333C55.7422 55.4209 55.4703 55.5151 55.2731 55.7089C55.0141 55.4573 54.7856 55.1753 54.5924 54.869C54.4875 54.9981 54.4098 55.1476 54.3638 55.3082C54.3203 55.4341 54.3595 55.5894 54.3573 55.737C54.355 55.8846 54.1042 55.9581 54.0327 56.0976C53.9612 56.2371 54.0275 56.4208 53.9772 56.5325C53.855 56.8118 53.699 57.0415 53.5696 57.3417C53.4401 57.642 53.3923 58.042 53.2995 58.2093C53.2068 58.3765 52.9077 58.4351 52.7873 58.5949C52.7873 58.5949 52.913 58.9906 52.5793 59.0417C52.2455 59.0928 52.0406 58.8858 51.8922 58.6164C51.698 58.1635 52.4142 57.6051 52.1976 57.2503C52.0947 57.1784 52.0721 57.2976 52.0081 57.395C51.9288 57.4948 51.8553 57.5992 51.7883 57.7079C51.6555 57.978 51.5511 58.2616 51.4769 58.5539C51.426 58.7077 51.3707 58.7068 51.3479 58.84C51.325 58.9732 51.3032 59.0221 51.2662 59.1762C51.2291 59.3303 51.1637 59.5261 51.1121 59.7292C51.0407 59.9917 50.9858 60.2584 50.9474 60.5279C50.931 60.7125 50.9281 60.8981 50.9389 61.0832C50.9511 61.2924 50.9827 61.5001 51.0333 61.7033L53.6921 60.6545C53.4892 60.5344 53.3104 60.3766 53.1652 60.1894C53.0434 59.9907 53.0495 60.0471 53.0684 59.717C53.0707 59.5694 53.1896 59.5079 53.0743 59.3375C52.7334 58.9526 52.2996 59.1851 51.8713 59.0731C51.7881 59.0718 51.5412 58.8922 51.3964 58.8337C51.0998 58.7237 50.8782 58.7134 50.9041 58.3834C50.9051 58.3201 51.0186 58.146 50.957 58.0959C50.5111 57.9058 50.0491 57.7576 49.5765 57.653C49.3375 57.5716 49.1068 57.4667 48.8877 57.34C48.6747 57.2102 48.4979 56.9897 48.3262 56.8746C47.8268 56.612 47.4009 56.2258 47.088 55.7519C47.0142 55.589 47.0937 55.3723 46.985 55.2231C46.8674 54.9177 46.8089 54.5923 46.8125 54.2645C46.8074 53.8603 46.8344 53.4563 46.8933 53.0565C47.4242 52.3617 46.8474 53.3582 47.5399 52.5253C47.8144 52.2694 47.8894 52.3409 47.9042 51.8279C47.7757 51.6151 47.3915 52.2488 47.1665 52.4492C47.0697 51.9767 47.6399 51.423 47.9173 50.9774C48.0241 50.7963 48.1116 50.5236 48.2409 50.2374C48.3301 49.9891 48.4844 49.7702 48.6875 49.6044C49.0443 49.4061 48.804 49.6976 49.0808 49.2871C49.1802 49.1411 49.2167 49.0151 49.3656 48.8065C49.5767 48.5523 49.8126 48.3204 50.0698 48.1144C50.3511 47.8656 50.6463 47.6171 50.8718 47.3886C50.9847 47.2638 51.0712 47.0473 51.1835 46.9646C51.2957 46.882 51.4746 46.969 51.5662 46.872C51.6344 46.747 51.7367 46.6444 51.8607 46.5765C51.9847 46.5087 52.1252 46.4782 52.2657 46.4891C52.43 46.6322 52.2174 46.9313 52.2241 46.9525C52.2307 46.9737 52.4576 47.1036 52.4069 47.2434C52.3127 47.5021 51.7041 47.8302 51.3312 48.1689C51.2468 48.245 51.2452 48.3503 51.1397 48.4471C51.0342 48.5439 50.6476 48.8824 50.387 49.1385L50.2546 48.7217C49.79 48.7145 50.3037 49.1442 50.2092 49.4239C50.2673 49.2561 49.7486 50.0637 49.7344 50.0846C49.7202 50.1055 48.9778 50.5719 48.974 50.8179C48.9667 51.2958 48.8838 50.8165 48.5638 51.3318C48.4875 51.5093 48.4221 51.6914 48.3681 51.8771C48.1949 52.1919 48.0549 52.5245 47.9505 52.869C47.95 52.9041 47.8208 53.1904 47.8274 53.2116C47.994 53.657 47.7858 53.2109 47.6571 53.9119C47.6558 53.9962 47.7932 54.0826 47.7852 54.1528C47.7356 54.4219 47.7314 54.6976 47.7727 54.9681C47.8652 55.2648 48.2093 55.4458 48.3791 55.6804C48.5489 55.915 48.5122 56.0479 48.6764 56.1911C48.8407 56.3342 48.9588 56.3149 49.0687 56.3869C49.1785 56.4589 49.1491 56.585 49.1285 56.5706C49.1079 56.5562 49.2948 56.5731 49.3642 56.5742C49.7203 56.8225 50.1099 57.0177 50.5206 57.1542C50.7764 57.2144 51.0962 57.1631 51.345 57.2161C51.456 57.2178 51.5433 57.402 51.633 57.4315C51.8675 57.5194 52.2559 57.5113 52.5738 57.5865C52.8917 57.6616 52.9868 57.8038 53.2284 57.8778C53.27 57.8784 53.4168 57.7963 53.4514 57.8038C53.6402 57.9306 53.8547 58.0132 54.079 58.0455C54.3799 58.1119 54.6773 58.1938 54.97 58.291C55.3533 58.4372 55.72 58.6243 56.0642 58.8491C56.1185 58.8839 56.1761 58.9131 56.2362 58.9362L47.9807 62.1977C47.8959 61.8526 47.8365 61.5016 47.8027 61.1476C47.8051 60.993 47.8074 60.8453 47.8094 60.7118L47.8143 60.3956C47.822 60.2024 47.8435 60.0101 47.8787 59.8201C47.8951 59.7161 47.9174 59.6132 47.9457 59.5118C47.967 59.4139 47.9964 59.3178 48.0334 59.2249C48.1212 58.9797 48.2365 58.7456 48.3771 58.5272L48.4909 58.3463L48.5897 58.2212L48.8017 57.9785L49.0272 57.7429L49.217 57.5771C49.3268 57.4852 49.4303 57.3859 49.5267 57.2797C49.871 56.9212 50.1583 56.5106 50.3779 56.0626C50.4781 55.8602 50.5711 55.6578 50.6432 55.4831C50.7152 55.3085 50.8084 55.1272 50.8732 54.9735C50.9379 54.8199 51.0706 54.7657 51.1068 54.6678C51.1565 54.4871 51.2171 54.3096 51.2884 54.1364L51.64 53.3614C51.6974 53.2358 51.781 53.209 51.8173 53.1041C51.8536 52.9992 51.9168 52.5011 52.0987 52.4055C52.2805 52.3099 52.5431 52.3771 52.7448 52.3451C52.9539 52.7279 52.6314 52.9478 52.9783 53.389C52.9392 53.2267 53.0605 53.0108 53.0569 52.7928C53.0533 52.5748 53.358 52.1437 53.3409 51.8974C53.3281 51.8158 53.3086 51.7355 53.2823 51.6574C53.2829 51.6152 53.3319 51.5809 53.3743 51.5323C53.3932 51.5148 53.4078 51.4929 53.4166 51.4686C53.4254 51.4443 53.4285 51.4183 53.4252 51.3925C53.426 51.3434 53.3506 51.2789 53.3031 51.2079C53.2821 51.1841 53.2638 51.1577 53.2487 51.1297V51.1297C53.2487 51.1297 53.2488 51.1297 53.3307 51.2154L53.4059 51.2867C53.317 51.201 53.6857 51.5793 54.0209 51.8797L54.7875 52.5522L54.2538 52.0871L53.8981 51.7652L54.007 51.8794C54.1259 52.0413 54.2149 52.2237 54.2694 52.4177C54.4342 52.5257 54.4699 52.47 54.4506 52.3713C54.4432 52.3146 54.4169 52.2622 54.3764 52.2225L54.329 52.1514L54.3707 52.1521C54.4306 52.2035 54.4877 52.2584 54.5415 52.3164C54.9656 52.7025 55.3907 53.0325 55.8094 53.3201C56.0152 53.4638 56.2901 53.6226 56.4617 53.7377C56.6333 53.8528 56.9161 53.9627 57.0192 54.0205C57.1186 54.0714 57.2226 54.113 57.3296 54.1447C57.3926 54.1612 57.4549 54.181 57.5159 54.2039C57.5874 54.2106 57.6593 54.2117 57.7309 54.2072C57.7721 54.2152 57.8141 54.2158 57.8556 54.2091C57.8082 54.2188 57.7618 54.2322 57.7164 54.2492C57.5866 54.2943 57.464 54.3588 57.3528 54.4404L57.7052 52.2666C57.7506 52.3018 57.7988 52.3331 57.8494 52.3601C57.8941 52.3805 57.94 52.3977 57.9871 52.4115V52.4115L57.9042 52.4102C57.8337 52.3792 57.7669 52.3406 57.7048 52.2947L57.3524 54.4684L57.4362 54.4136C57.4994 54.3712 57.5675 54.3367 57.6389 54.3111C57.6903 54.2856 57.7441 54.2653 57.7994 54.2504L57.8549 54.2513C57.7971 54.2537 57.7392 54.2528 57.6815 54.2486C57.499 54.2175 57.3206 54.1651 57.1498 54.0927C57.0257 54.0486 56.9571 53.9984 56.7917 53.9255C56.6324 53.8523 56.4784 53.7679 56.3309 53.6725L56.221 53.6005L56.0767 53.514L55.8092 53.3341C55.6238 53.2118 55.5004 53.1045 55.329 52.9753L55.1508 52.8459L55.2123 52.9031C55.2586 52.9401 55.302 52.9807 55.3421 53.0246C55.3966 53.0887 55.3396 53.1933 55.5251 53.3087C55.7106 53.424 55.6637 53.3107 55.6162 53.2397C55.5966 53.2045 55.5739 53.1713 55.5483 53.1403C55.4317 53.0542 55.651 53.2333 55.7883 53.3268C55.9256 53.4203 56.0697 53.5138 56.2347 53.6077C56.364 53.6991 56.4997 53.7811 56.6404 53.853L56.9984 54.0272L57.1498 54.0927C57.3107 54.1575 57.4773 54.2072 57.6471 54.2411C57.7303 54.2423 57.7025 54.2419 57.7233 54.2422L57.855 54.2443C57.8181 54.2411 57.7813 54.2406 57.7443 54.2426L57.6811 54.2766C57.6301 54.2912 57.581 54.3117 57.5345 54.3377C57.4698 54.3667 57.4088 54.4035 57.3527 54.4473L57.7051 52.2736C57.7939 52.3379 57.8911 52.389 57.994 52.4257L57.8762 52.4239C57.5115 52.465 57.1583 52.579 56.8374 52.7594C56.2497 53.0705 55.707 53.4618 55.2244 53.9226C55.1116 54.0403 54.8585 54.2685 54.7949 54.3449C54.555 54.6083 54.4844 54.6705 54.3076 54.8927C54.2158 54.9968 54.1168 55.1218 54.0248 55.2469C53.9327 55.372 53.855 55.4692 53.7982 55.5527C53.7444 55.625 53.6966 55.7019 53.6558 55.7825L53.7418 55.6081C53.8065 55.4615 53.8711 55.3288 53.8711 55.3288C53.847 55.3765 53.8252 55.4254 53.8062 55.4754C53.882 55.3109 53.9778 55.1567 54.091 55.0159C54.2294 54.854 54.3826 54.7058 54.5485 54.5731C54.6541 54.4763 54.5484 54.573 54.9499 54.1715C55.2398 53.8755 55.5498 53.6008 55.878 53.3493C56.1333 53.1487 56.403 52.9672 56.6843 52.8063C56.8869 52.711 57.0197 52.6286 57.1871 52.5679C57.299 52.5173 57.4158 52.4791 57.5357 52.4538C57.6472 52.422 57.7615 52.4002 57.8767 52.3887C57.952 52.4531 58.007 52.4821 57.9103 52.4525Z" fill="white" stroke="white" stroke-width="3.10104" stroke-linecap="round" stroke-linejoin="round"/>
</svg>
