<svg width="694" height="615" viewBox="0 0 694 615" fill="none" xmlns="http://www.w3.org/2000/svg">
<mask id="path-1-inside-1_129_23862" fill="white">
<path d="M621.074 256.647C620.776 310.892 620.349 365.131 619.794 419.364C619.528 446.488 619.223 473.608 618.878 500.726C618.833 504.517 620.606 514.364 617.222 516.905C613.838 519.446 604.324 517.683 600.293 517.701C586.729 517.818 573.155 517.921 559.571 518.007C505.295 518.357 451.008 518.552 396.709 518.593C342.41 518.634 288.12 518.525 233.841 518.265C220.333 518.205 71.7868 517.39 71.7892 517.014C72.9541 382.083 74.1324 247.128 75.3242 112.148C75.3593 108.409 75.3686 104.665 75.4167 100.928C75.4372 99.0791 75.5245 97.0145 76.8784 95.7215C78.2323 94.4285 80.1711 94.3985 81.9681 94.4093L94.4998 94.4497L101.801 94.4604C101.91 96.7718 102.023 99.0839 102.14 101.397C102.152 101.694 102.177 101.994 102.202 102.294C102.39 105.337 102.552 108.374 102.763 111.434C102.933 113.922 102.865 116.823 104.869 118.617C108.074 121.534 112.859 120.272 115.324 117.037C116.797 114.829 117.624 112.252 117.71 109.599C117.976 107.151 118.125 104.682 118.269 102.238C118.318 101.321 118.391 100.421 118.44 99.5042C118.546 97.8457 118.652 96.1872 118.784 94.5335L126.137 94.5539L147.33 94.6556L154.605 94.6615C154.707 96.9358 154.818 99.2386 154.959 101.52C154.923 101.715 154.977 101.926 154.993 102.131C155.177 105.266 155.359 108.414 155.555 111.632C155.727 114.108 155.657 117.021 157.66 118.816C160.865 121.732 165.653 120.458 168.105 117.221C169.573 115.01 170.407 112.439 170.517 109.787C170.758 107.254 170.924 104.694 171.072 102.157C171.108 101.6 171.152 101.071 171.188 100.514C171.239 100.241 171.209 99.9673 171.244 99.7053C171.292 98.8684 171.348 98.0598 171.406 97.2383C171.464 96.4167 171.507 95.6058 171.576 94.7996L178.929 94.8199L200.114 94.8933L203.76 94.9246L207.411 94.9299C207.52 97.1878 207.63 99.4456 207.739 101.703C207.718 101.82 207.694 101.95 207.774 102.099C207.957 105.31 208.158 108.525 208.376 111.743C208.533 114.229 208.465 117.129 210.481 118.926C213.686 121.843 218.461 120.566 220.924 117.344C222.397 115.131 223.224 112.55 223.312 109.893C223.598 107.261 223.738 104.695 223.898 102.094C223.932 101.335 224.006 100.57 224.039 99.8108C224.149 98.2066 224.263 96.5765 224.383 94.9877L228.06 94.9979L231.734 95.021L252.931 95.0968L260.22 95.1051C260.322 97.3526 260.432 99.6105 260.549 101.879C260.532 101.969 260.515 102.06 260.498 102.151C260.687 105.408 260.88 108.639 261.094 111.901C261.264 114.389 261.196 117.29 263.197 119.097C266.405 122.001 271.203 120.742 273.655 117.505C275.127 115.295 275.957 112.721 276.054 110.069C276.314 107.432 276.484 104.778 276.628 102.12C276.762 101.393 276.739 100.65 276.793 99.9221L277.109 95.1744L284.463 95.1947L305.668 95.2988L312.97 95.3095C313.069 97.5295 313.177 99.7425 313.297 101.948C313.282 102.026 313.263 102.13 313.246 102.221C313.45 105.467 313.628 108.709 313.855 111.973C314.027 114.449 313.97 117.365 315.974 119.159C319.179 122.076 323.953 120.799 326.419 117.564C327.892 115.356 328.719 112.779 328.804 110.126C329.091 107.494 329.247 104.838 329.387 102.273C329.446 101.518 329.501 100.79 329.545 100.046L329.859 95.3788L337.213 95.3991C344.281 95.4114 351.355 95.4383 358.436 95.4797L365.725 95.488C365.818 97.6667 365.934 99.8633 366.04 102.044C366.06 102.162 366.074 102.282 366.081 102.401C366.259 105.643 366.455 108.861 366.663 112.081C366.846 114.572 366.766 117.47 368.769 119.264C371.974 122.181 376.772 120.922 379.225 117.685C380.744 115.494 381.624 112.924 381.768 110.262C382.042 107.628 382.187 105.104 382.329 102.526C382.393 101.746 382.447 100.95 382.496 100.181C382.544 99.4109 382.606 98.6437 382.655 97.8741C382.703 97.1044 382.75 96.3478 382.809 95.5935L390.149 95.6114L411.386 95.6944L418.687 95.7051C418.782 97.8708 418.893 100.026 419.001 102.194C418.97 102.363 419.03 102.548 419.025 102.722C419.214 105.899 419.409 109.049 419.612 112.228C419.784 114.704 419.727 117.62 421.73 119.414C424.923 122.328 429.71 121.054 432.163 117.817C433.64 115.61 434.471 113.035 434.561 110.381C434.823 107.879 434.979 105.37 435.123 102.859C435.186 102.012 435.225 101.146 435.301 100.301C435.407 98.7904 435.502 97.2642 435.602 95.7792L442.956 95.7995L464.192 95.8825L467.841 95.9009L471.476 95.9168C471.576 98.0565 471.692 100.186 471.794 102.312C471.822 102.599 471.841 102.858 471.845 103.127C472.026 106.204 472.222 109.279 472.431 112.352C472.601 114.84 472.52 117.738 474.536 119.535C477.741 122.452 482.529 121.177 484.979 117.953C486.45 115.739 487.281 113.161 487.38 110.504C487.61 108.103 487.762 105.688 487.927 103.275L488.038 101.376C488.098 101.051 488.078 100.726 488.107 100.422C488.195 98.9348 488.296 97.4499 488.407 95.9803L495.76 96.0006L517.005 96.112L524.28 96.1179C524.401 98.2211 524.506 100.335 524.613 102.436C524.632 102.842 524.653 103.235 524.687 103.631C524.84 106.572 525.032 109.521 525.223 112.47C525.393 114.958 525.326 117.859 527.327 119.666C530.534 122.57 535.319 121.309 537.785 118.074C539.249 115.861 540.078 113.289 540.183 110.638C540.418 108.359 540.559 106.076 540.698 103.806C540.752 103.077 540.791 102.36 540.845 101.631C540.91 101.281 540.885 100.914 540.911 100.556C541.006 99.0971 541.115 97.6404 541.211 96.1814L548.551 96.1993L569.825 96.3025L577.113 96.3108L577.408 102.541C577.455 103.087 577.486 103.643 577.52 104.186C577.686 106.983 577.826 109.774 578.045 112.58C578.202 115.066 578.134 117.967 580.15 119.764C583.355 122.68 588.13 121.404 590.593 118.182C592.066 115.968 592.893 113.388 592.981 110.73C593.197 108.622 593.346 106.515 593.469 104.403C593.565 103.159 593.638 101.897 593.708 100.648C593.802 99.2024 593.903 97.7847 594.005 96.3671L601.358 96.3874C604.742 96.3836 608.147 96.4105 611.541 96.4221C614.56 96.4312 617.976 96.6212 619.937 98.9314C621.535 100.812 621.615 103.498 621.603 105.953C621.535 156.249 621.359 206.48 621.074 256.647Z"/>
</mask>
<path d="M621.074 256.647C620.776 310.892 620.349 365.131 619.794 419.364C619.528 446.488 619.223 473.608 618.878 500.726C618.833 504.517 620.606 514.364 617.222 516.905C613.838 519.446 604.324 517.683 600.293 517.701C586.729 517.818 573.155 517.921 559.571 518.007C505.295 518.357 451.008 518.552 396.709 518.593C342.41 518.634 288.12 518.525 233.841 518.265C220.333 518.205 71.7868 517.39 71.7892 517.014C72.9541 382.083 74.1324 247.128 75.3242 112.148C75.3593 108.409 75.3686 104.665 75.4167 100.928C75.4372 99.0791 75.5245 97.0145 76.8784 95.7215C78.2323 94.4285 80.1711 94.3985 81.9681 94.4093L94.4998 94.4497L101.801 94.4604C101.91 96.7718 102.023 99.0839 102.14 101.397C102.152 101.694 102.177 101.994 102.202 102.294C102.39 105.337 102.552 108.374 102.763 111.434C102.933 113.922 102.865 116.823 104.869 118.617C108.074 121.534 112.859 120.272 115.324 117.037C116.797 114.829 117.624 112.252 117.71 109.599C117.976 107.151 118.125 104.682 118.269 102.238C118.318 101.321 118.391 100.421 118.44 99.5042C118.546 97.8457 118.652 96.1872 118.784 94.5335L126.137 94.5539L147.33 94.6556L154.605 94.6615C154.707 96.9358 154.818 99.2386 154.959 101.52C154.923 101.715 154.977 101.926 154.993 102.131C155.177 105.266 155.359 108.414 155.555 111.632C155.727 114.108 155.657 117.021 157.66 118.816C160.865 121.732 165.653 120.458 168.105 117.221C169.573 115.01 170.407 112.439 170.517 109.787C170.758 107.254 170.924 104.694 171.072 102.157C171.108 101.6 171.152 101.071 171.188 100.514C171.239 100.241 171.209 99.9673 171.244 99.7053C171.292 98.8684 171.348 98.0598 171.406 97.2383C171.464 96.4167 171.507 95.6058 171.576 94.7996L178.929 94.8199L200.114 94.8933L203.76 94.9246L207.411 94.9299C207.52 97.1878 207.63 99.4456 207.739 101.703C207.718 101.82 207.694 101.95 207.774 102.099C207.957 105.31 208.158 108.525 208.376 111.743C208.533 114.229 208.465 117.129 210.481 118.926C213.686 121.843 218.461 120.566 220.924 117.344C222.397 115.131 223.224 112.55 223.312 109.893C223.598 107.261 223.738 104.695 223.898 102.094C223.932 101.335 224.006 100.57 224.039 99.8108C224.149 98.2066 224.263 96.5765 224.383 94.9877L228.06 94.9979L231.734 95.021L252.931 95.0968L260.22 95.1051C260.322 97.3526 260.432 99.6105 260.549 101.879C260.532 101.969 260.515 102.06 260.498 102.151C260.687 105.408 260.88 108.639 261.094 111.901C261.264 114.389 261.196 117.29 263.197 119.097C266.405 122.001 271.203 120.742 273.655 117.505C275.127 115.295 275.957 112.721 276.054 110.069C276.314 107.432 276.484 104.778 276.628 102.12C276.762 101.393 276.739 100.65 276.793 99.9221L277.109 95.1744L284.463 95.1947L305.668 95.2988L312.97 95.3095C313.069 97.5295 313.177 99.7425 313.297 101.948C313.282 102.026 313.263 102.13 313.246 102.221C313.45 105.467 313.628 108.709 313.855 111.973C314.027 114.449 313.97 117.365 315.974 119.159C319.179 122.076 323.953 120.799 326.419 117.564C327.892 115.356 328.719 112.779 328.804 110.126C329.091 107.494 329.247 104.838 329.387 102.273C329.446 101.518 329.501 100.79 329.545 100.046L329.859 95.3788L337.213 95.3991C344.281 95.4114 351.355 95.4383 358.436 95.4797L365.725 95.488C365.818 97.6667 365.934 99.8633 366.04 102.044C366.06 102.162 366.074 102.282 366.081 102.401C366.259 105.643 366.455 108.861 366.663 112.081C366.846 114.572 366.766 117.47 368.769 119.264C371.974 122.181 376.772 120.922 379.225 117.685C380.744 115.494 381.624 112.924 381.768 110.262C382.042 107.628 382.187 105.104 382.329 102.526C382.393 101.746 382.447 100.95 382.496 100.181C382.544 99.4109 382.606 98.6437 382.655 97.8741C382.703 97.1044 382.75 96.3478 382.809 95.5935L390.149 95.6114L411.386 95.6944L418.687 95.7051C418.782 97.8708 418.893 100.026 419.001 102.194C418.97 102.363 419.03 102.548 419.025 102.722C419.214 105.899 419.409 109.049 419.612 112.228C419.784 114.704 419.727 117.62 421.73 119.414C424.923 122.328 429.71 121.054 432.163 117.817C433.64 115.61 434.471 113.035 434.561 110.381C434.823 107.879 434.979 105.37 435.123 102.859C435.186 102.012 435.225 101.146 435.301 100.301C435.407 98.7904 435.502 97.2642 435.602 95.7792L442.956 95.7995L464.192 95.8825L467.841 95.9009L471.476 95.9168C471.576 98.0565 471.692 100.186 471.794 102.312C471.822 102.599 471.841 102.858 471.845 103.127C472.026 106.204 472.222 109.279 472.431 112.352C472.601 114.84 472.52 117.738 474.536 119.535C477.741 122.452 482.529 121.177 484.979 117.953C486.45 115.739 487.281 113.161 487.38 110.504C487.61 108.103 487.762 105.688 487.927 103.275L488.038 101.376C488.098 101.051 488.078 100.726 488.107 100.422C488.195 98.9348 488.296 97.4499 488.407 95.9803L495.76 96.0006L517.005 96.112L524.28 96.1179C524.401 98.2211 524.506 100.335 524.613 102.436C524.632 102.842 524.653 103.235 524.687 103.631C524.84 106.572 525.032 109.521 525.223 112.47C525.393 114.958 525.326 117.859 527.327 119.666C530.534 122.57 535.319 121.309 537.785 118.074C539.249 115.861 540.078 113.289 540.183 110.638C540.418 108.359 540.559 106.076 540.698 103.806C540.752 103.077 540.791 102.36 540.845 101.631C540.91 101.281 540.885 100.914 540.911 100.556C541.006 99.0971 541.115 97.6404 541.211 96.1814L548.551 96.1993L569.825 96.3025L577.113 96.3108L577.408 102.541C577.455 103.087 577.486 103.643 577.52 104.186C577.686 106.983 577.826 109.774 578.045 112.58C578.202 115.066 578.134 117.967 580.15 119.764C583.355 122.68 588.13 121.404 590.593 118.182C592.066 115.968 592.893 113.388 592.981 110.73C593.197 108.622 593.346 106.515 593.469 104.403C593.565 103.159 593.638 101.897 593.708 100.648C593.802 99.2024 593.903 97.7847 594.005 96.3671L601.358 96.3874C604.742 96.3836 608.147 96.4105 611.541 96.4221C614.56 96.4312 617.976 96.6212 619.937 98.9314C621.535 100.812 621.615 103.498 621.603 105.953C621.535 156.249 621.359 206.48 621.074 256.647Z" stroke="white" stroke-width="0.2" mask="url(#path-1-inside-1_129_23862)"/>
</svg>
