<svg width="6500" height="340" viewBox="0 0 6500 340" fill="none" xmlns="http://www.w3.org/2000/svg">
<path d="M16.9098 283.906L16.1633 281.288C20.2058 280.005 24.3242 278.973 28.4939 278.199C32.8439 275.987 37.398 274.203 42.0931 272.872L42.7348 275.489C38.0735 276.781 33.5527 278.535 29.2397 280.725C25.0649 281.516 20.9462 282.578 16.9098 283.906Z" fill="#FFE600" stroke="#FFE600" stroke-width="4.45165" stroke-miterlimit="10" stroke-linejoin="round"/>
<path d="M29.2592 280.977C33.6304 278.745 38.2179 276.964 42.9505 275.663C42.7279 274.681 42.4923 273.699 42.2436 272.705C37.4933 274.038 32.8858 275.836 28.4872 278.071C24.3131 278.846 20.1907 279.877 16.1438 281.16H16L16.8507 284.079C20.916 282.78 25.0608 281.744 29.2592 280.977ZM28.5134 278.359C32.82 276.186 37.3258 274.433 41.9688 273.124L42.5446 275.44C37.9314 276.738 33.4594 278.491 29.194 280.676C25.0667 281.425 20.9914 282.44 16.9945 283.713L16.34 281.422C20.3448 280.154 24.4232 279.131 28.5523 278.359H28.5134Z" fill="#FFE600" stroke="#FFE600" stroke-width="4.45165" stroke-miterlimit="10" stroke-linejoin="round"/>
<path d="M39.6026 288.972C36.1979 285.763 32.4078 282.988 28.3196 280.713L29.4323 278.304C33.5824 280.655 37.4362 283.493 40.9115 286.76C40.4665 287.44 40.0346 288.213 39.6026 288.972Z" fill="#FFE600" stroke="#FFE600" stroke-width="4.45165" stroke-miterlimit="10" stroke-linejoin="round"/>
<path d="M41.0863 286.736C37.5295 283.379 33.573 280.473 29.306 278.084L28.0623 280.78C32.2339 283.094 36.0992 285.922 39.5677 289.197C40.1044 288.346 40.5758 287.547 41.0863 286.736ZM29.4894 278.529C33.5461 280.84 37.3193 283.616 40.7328 286.801C40.3401 287.43 39.9473 288.11 39.5677 288.752C36.2239 285.608 32.5102 282.883 28.5077 280.636L29.4894 278.529Z" fill="#FFE600" stroke="#FFE600" stroke-width="4.45165" stroke-miterlimit="10" stroke-linejoin="round"/>
<g clip-path="url(#clip0_21_1280)">
<path d="M4344.54 283.493L4343.79 280.875C4347.84 279.593 4351.95 278.561 4356.12 277.786C4360.47 275.574 4365.03 273.79 4369.72 272.459L4370.37 275.077C4365.7 276.369 4361.18 278.123 4356.87 280.313C4352.7 281.103 4348.58 282.166 4344.54 283.493Z" fill="#FFE600" stroke="#FFE600" stroke-width="4.45165" stroke-miterlimit="10" stroke-linejoin="round"/>
<path d="M4356.9 280.565C4361.27 278.333 4365.85 276.552 4370.59 275.251C4370.36 274.269 4370.13 273.287 4369.88 272.292C4365.13 273.626 4360.52 275.424 4356.12 277.659C4351.95 278.434 4347.83 279.465 4343.78 280.748H4343.64L4344.49 283.667C4348.55 282.368 4352.7 281.332 4356.9 280.565ZM4356.15 277.947C4360.46 275.774 4364.96 274.02 4369.61 272.711L4370.18 275.028C4365.57 276.325 4361.1 278.079 4356.83 280.264C4352.7 281.013 4348.63 282.027 4344.63 283.301L4343.98 281.01C4347.98 279.742 4352.06 278.719 4356.19 277.947H4356.15Z" fill="#FFE600" stroke="#FFE600" stroke-width="4.45165" stroke-miterlimit="10" stroke-linejoin="round"/>
<path d="M4367.23 288.558C4363.83 285.348 4360.04 282.574 4355.95 280.299L4357.06 277.89C4361.21 280.241 4365.07 283.079 4368.54 286.346C4368.1 287.026 4367.66 287.799 4367.23 288.558Z" fill="#FFE600" stroke="#FFE600" stroke-width="4.45165" stroke-miterlimit="10" stroke-linejoin="round"/>
<path d="M4368.72 286.322C4365.17 282.966 4361.21 280.06 4356.94 277.67L4355.7 280.367C4359.87 282.681 4363.74 285.508 4367.2 288.783C4367.74 287.932 4368.21 287.134 4368.72 286.322ZM4357.13 278.115C4361.18 280.426 4364.96 283.203 4368.37 286.388C4367.98 287.016 4367.58 287.697 4367.2 288.338C4363.86 285.194 4360.15 282.469 4356.14 280.223L4357.13 278.115Z" fill="#FFE600" stroke="#FFE600" stroke-width="4.45165" stroke-miterlimit="10" stroke-linejoin="round"/>
<path d="M4076.91 283.906L4076.16 281.288C4080.21 280.005 4084.32 278.973 4088.49 278.199C4092.84 275.987 4097.4 274.203 4102.09 272.872L4102.74 275.489C4098.07 276.781 4093.55 278.535 4089.24 280.725C4085.07 281.516 4080.95 282.578 4076.91 283.906Z" fill="#FFE600" stroke="#FFE600" stroke-width="4.45165" stroke-miterlimit="10" stroke-linejoin="round"/>
<path d="M4089.26 280.977C4093.63 278.745 4098.22 276.964 4102.95 275.663C4102.73 274.681 4102.49 273.699 4102.24 272.705C4097.49 274.038 4092.89 275.836 4088.49 278.071C4084.31 278.846 4080.19 279.877 4076.14 281.16H4076L4076.85 284.079C4080.92 282.78 4085.06 281.744 4089.26 280.977ZM4088.51 278.359C4092.82 276.186 4097.33 274.433 4101.97 273.124L4102.54 275.44C4097.93 276.738 4093.46 278.491 4089.19 280.676C4085.07 281.425 4080.99 282.44 4076.99 283.713L4076.34 281.422C4080.34 280.154 4084.42 279.131 4088.55 278.359H4088.51Z" fill="#FFE600" stroke="#FFE600" stroke-width="4.45165" stroke-miterlimit="10" stroke-linejoin="round"/>
<path d="M4099.6 288.972C4096.2 285.763 4092.41 282.988 4088.32 280.713L4089.43 278.304C4093.58 280.655 4097.44 283.493 4100.91 286.76C4100.47 287.44 4100.03 288.213 4099.6 288.972Z" fill="#FFE600" stroke="#FFE600" stroke-width="4.45165" stroke-miterlimit="10" stroke-linejoin="round"/>
<path d="M4101.09 286.736C4097.53 283.379 4093.57 280.473 4089.31 278.084L4088.06 280.78C4092.23 283.094 4096.1 285.922 4099.57 289.197C4100.1 288.346 4100.58 287.547 4101.09 286.736ZM4089.49 278.529C4093.55 280.84 4097.32 283.616 4100.73 286.801C4100.34 287.43 4099.95 288.11 4099.57 288.752C4096.22 285.608 4092.51 282.883 4088.51 280.636L4089.49 278.529Z" fill="#FFE600" stroke="#FFE600" stroke-width="4.45165" stroke-miterlimit="10" stroke-linejoin="round"/>
<path d="M4273.79 297.711L4273.27 295.05C4278.25 294.197 4283.3 293.95 4288.34 294.312C4291.09 293.824 4293.87 293.49 4296.67 293.313C4298.08 293.197 4299.44 293.214 4300.87 293.185C4302.3 293.155 4303.75 293.12 4305.17 293.258L4305.27 296.034C4302.48 295.85 4299.57 296.032 4296.85 296.092C4295.46 296.193 4294.05 296.356 4292.69 296.498L4290.65 296.736C4289.97 296.831 4289.23 297.02 4288.61 297.105L4284.91 296.896L4281.19 296.994L4279.33 297.062L4277.5 297.283C4276.23 297.392 4275 297.517 4273.79 297.711Z" fill="#60C9EB" stroke="#60C9EB" stroke-width="4.45165" stroke-miterlimit="10" stroke-linejoin="round"/>
<path d="M4288.56 297.22C4289.25 297.088 4289.97 296.915 4290.63 296.846L4292.67 296.609C4294.05 296.469 4295.48 296.29 4296.88 296.211C4299.66 296.13 4302.58 295.969 4305.41 296.159L4305.31 293.056C4303.9 292.957 4302.42 292.997 4300.99 292.998C4299.56 292.998 4298.16 293.023 4296.73 293.136C4293.91 293.31 4291.1 293.646 4288.32 294.142C4283.28 293.776 4278.21 294.026 4273.23 294.886L4273.06 294.916L4273.64 297.904C4274.86 297.684 4276.08 297.578 4277.32 297.408L4279.18 297.172C4279.81 297.134 4280.43 297.133 4281.04 297.104L4284.81 297.003L4288.56 297.22ZM4288.33 294.48C4291.05 293.99 4293.8 293.658 4296.56 293.486C4297.97 293.359 4299.32 293.384 4300.74 293.344C4302.16 293.304 4303.59 293.274 4304.96 293.368L4305.05 295.805L4302.97 295.718L4300.85 295.756L4296.7 295.874C4295.32 295.985 4293.93 296.133 4292.59 296.278L4290.58 296.511C4289.89 296.613 4289.22 296.748 4288.55 296.872L4284.88 296.669L4281.19 296.762L4279.37 296.825L4277.54 297.038L4273.91 297.506L4273.47 295.165C4278.37 294.354 4283.34 294.132 4288.3 294.503L4288.33 294.48Z" fill="#60C9EB" stroke="#60C9EB" stroke-width="4.45165" stroke-miterlimit="10" stroke-linejoin="round"/>
<path d="M4298.53 308.082C4295.34 303.846 4291.64 300.02 4287.52 296.691C4288.13 295.996 4288.74 295.311 4289.38 294.63C4290.49 295.491 4291.54 296.417 4292.54 297.405C4293.51 298.317 4294.53 299.285 4295.46 300.257C4296.39 301.23 4297.25 302.285 4298.11 303.294L4299.37 304.774L4300.55 306.363L4298.53 308.082Z" fill="#60C9EB" stroke="#60C9EB" stroke-width="4.45165" stroke-miterlimit="10" stroke-linejoin="round"/>
<path d="M4300.81 306.42L4299.61 304.799C4299.21 304.262 4298.78 303.785 4298.33 303.269C4297.48 302.271 4296.55 301.215 4295.62 300.177C4294.69 299.14 4293.67 298.237 4292.64 297.251C4291.62 296.248 4290.54 295.302 4289.41 294.418C4288.69 295.18 4287.99 295.955 4287.32 296.726C4291.52 300.103 4295.28 303.99 4298.52 308.294C4299.25 307.666 4300.03 307.043 4300.81 306.42ZM4289.43 294.889C4290.51 295.737 4291.54 296.644 4292.52 297.606C4293.48 298.519 4294.44 299.439 4295.36 300.39C4296.27 301.341 4297.1 302.355 4297.95 303.353C4298.8 304.311 4299.6 305.311 4300.35 306.351L4298.56 307.841C4295.43 303.705 4291.81 299.962 4287.79 296.692L4289.43 294.889Z" fill="#60C9EB" stroke="#60C9EB" stroke-width="4.45165" stroke-miterlimit="10" stroke-linejoin="round"/>
<path d="M4423.63 302.633L4422.46 300.172C4426.93 298.115 4431.56 296.443 4436.31 295.172C4441.06 292.525 4445.99 290.203 4451.05 288.222L4452.18 290.722C4447.1 292.7 4442.17 295.026 4437.41 297.685C4432.68 298.932 4428.07 300.587 4423.63 302.633Z" fill="#60C9EB" stroke="#60C9EB" stroke-width="4.45165" stroke-miterlimit="10" stroke-linejoin="round"/>
<path d="M4437.45 297.843C4442.26 295.149 4447.26 292.8 4452.4 290.814L4451.09 288C4445.97 290.002 4440.99 292.35 4436.19 295.029C4431.44 296.29 4426.8 297.963 4422.33 300.029L4422.18 300.029L4423.48 302.777C4427.99 300.734 4432.66 299.083 4437.45 297.843ZM4436.36 295.33C4441.07 292.706 4445.94 290.401 4450.96 288.432L4451.95 290.631C4446.93 292.592 4442.05 294.897 4437.35 297.529C4432.67 298.767 4428.11 300.4 4423.71 302.411L4422.69 300.251C4427.1 298.226 4431.67 296.58 4436.36 295.33Z" fill="#60C9EB" stroke="#60C9EB" stroke-width="4.45165" stroke-miterlimit="10" stroke-linejoin="round"/>
<path d="M4450.68 304.479C4446.09 301.84 4441.3 299.572 4436.35 297.699L4437.41 295.16C4442.43 297.086 4447.29 299.415 4451.94 302.123L4450.68 304.479Z" fill="#60C9EB" stroke="#60C9EB" stroke-width="4.45165" stroke-miterlimit="10" stroke-linejoin="round"/>
<path d="M4452.16 302.057C4447.42 299.281 4442.46 296.9 4437.32 294.937L4436.13 297.803C4441.19 299.692 4446.08 301.999 4450.75 304.701L4452.16 302.057ZM4437.5 295.369C4442.42 297.259 4447.18 299.535 4451.73 302.175L4450.63 304.256C4446.12 301.673 4441.42 299.45 4436.56 297.607L4437.5 295.369Z" fill="#60C9EB" stroke="#60C9EB" stroke-width="4.45165" stroke-miterlimit="10" stroke-linejoin="round"/>
<path d="M4140.11 303.046L4138.94 300.586C4143.41 298.529 4148.04 296.856 4152.79 295.586C4157.54 292.939 4162.47 290.617 4167.53 288.635L4168.66 291.135C4163.58 293.113 4158.65 295.44 4153.89 298.099C4149.16 299.345 4144.55 301.001 4140.11 303.046Z" fill="#60C9EB" stroke="#60C9EB" stroke-width="4.45165" stroke-miterlimit="10" stroke-linejoin="round"/>
<path d="M4153.94 298.253C4158.75 295.56 4163.74 293.211 4168.88 291.224L4167.58 288.41C4162.46 290.413 4157.48 292.761 4152.68 295.439C4147.92 296.7 4143.29 298.373 4138.82 300.439L4138.66 300.439L4139.97 303.188C4144.48 301.145 4149.15 299.494 4153.94 298.253ZM4152.85 295.74C4157.56 293.116 4162.43 290.812 4167.44 288.842L4168.44 291.041C4163.42 293.003 4158.54 295.308 4153.83 297.939C4149.16 299.178 4144.59 300.811 4140.19 302.821L4139.17 300.662C4143.58 298.637 4148.16 296.991 4152.85 295.74Z" fill="#60C9EB" stroke="#60C9EB" stroke-width="4.45165" stroke-miterlimit="10" stroke-linejoin="round"/>
<path d="M4167.17 304.891C4162.58 302.252 4157.79 299.984 4152.83 298.111L4153.89 295.572C4158.92 297.498 4163.78 299.827 4168.42 302.535L4167.17 304.891Z" fill="#60C9EB" stroke="#60C9EB" stroke-width="4.45165" stroke-miterlimit="10" stroke-linejoin="round"/>
<path d="M4168.65 302.469C4163.91 299.693 4158.94 297.312 4153.81 295.349L4152.62 298.215C4157.67 300.104 4162.57 302.411 4167.24 305.113L4168.65 302.469ZM4153.99 295.781C4158.91 297.671 4163.66 299.947 4168.22 302.587L4167.12 304.668C4162.61 302.085 4157.91 299.862 4153.05 298.019L4153.99 295.781Z" fill="#60C9EB" stroke="#60C9EB" stroke-width="4.45165" stroke-miterlimit="10" stroke-linejoin="round"/>
<path d="M4207.02 280.095L4205.92 277.622C4207.82 276.666 4209.85 275.868 4211.76 275.004C4213.67 274.14 4215.68 273.486 4217.76 272.74C4219.73 271.313 4221.77 270.121 4223.85 268.721C4225.93 267.32 4228.07 266.221 4230.24 264.965L4231.55 267.386C4229.34 268.577 4227.2 269.899 4225.09 271.142C4222.99 272.386 4220.96 273.76 4218.98 275.2C4214.91 276.612 4210.91 278.246 4207.02 280.095Z" fill="#FFE600" stroke="#FFE600" stroke-width="4.45165" stroke-miterlimit="10" stroke-linejoin="round"/>
<path d="M4219.03 275.45C4221.04 274.049 4223.11 272.714 4225.21 271.339C4227.32 269.965 4229.52 268.722 4231.76 267.557L4230.37 264.847C4228.17 266.156 4226.01 267.321 4223.9 268.617C4221.8 269.913 4219.74 271.235 4217.76 272.674C4215.75 273.434 4213.71 274.088 4211.76 274.952C4209.81 275.816 4207.83 276.562 4205.92 277.504L4205.79 277.57L4207.02 280.345C4210.93 278.498 4214.94 276.864 4219.03 275.45ZM4217.88 272.989C4219.82 271.575 4221.81 270.371 4223.9 268.996C4226 267.622 4228.09 266.536 4230.24 265.279L4231.34 267.413C4229.15 268.604 4227.03 269.9 4224.95 271.13C4222.87 272.361 4220.87 273.748 4218.92 275.149C4214.91 276.525 4210.97 278.12 4207.14 279.926L4206.18 277.74C4209.97 275.934 4213.85 274.335 4217.82 272.949L4217.88 272.989Z" fill="#FFE600" stroke="#FFE600" stroke-width="4.45165" stroke-miterlimit="10" stroke-linejoin="round"/>
<path d="M4231.4 281.275C4227.05 279.026 4222.57 277.033 4217.98 275.306L4218.73 272.688C4221.11 273.605 4223.43 274.573 4225.68 275.541C4227.93 276.51 4230.17 277.636 4232.33 278.748C4232.01 279.612 4231.7 280.437 4231.4 281.275Z" fill="#FFE600" stroke="#FFE600" stroke-width="4.45165" stroke-miterlimit="10" stroke-linejoin="round"/>
<path d="M4232.51 278.736C4230.31 277.571 4228.05 276.537 4225.72 275.451C4223.4 274.365 4221.05 273.461 4218.63 272.532L4217.79 275.412C4222.47 277.166 4227.04 279.193 4231.47 281.485C4231.81 280.556 4232.13 279.639 4232.51 278.736ZM4218.83 272.938C4221.14 273.841 4223.42 274.797 4225.62 275.739C4227.82 276.682 4230.02 277.807 4232.16 278.88L4231.35 281.053C4227.08 278.862 4222.69 276.909 4218.2 275.202L4218.83 272.938Z" fill="#FFE600" stroke="#FFE600" stroke-width="4.45165" stroke-miterlimit="10" stroke-linejoin="round"/>
</g>
<g clip-path="url(#clip1_21_1280)">
<path d="M6481.37 268.723C6481.04 272.212 6468 270.103 6461.53 277.086C6459.1 279.697 6455.17 286.525 6454.56 288.203C6454.37 288.786 6454 289.299 6453.52 289.677C6453.03 290.018 6452.46 290.21 6451.87 290.229C6451.59 290.228 6451.31 290.189 6451.04 290.113C6449.68 289.677 6449.18 286.801 6449.14 286.574C6448.48 282.528 6449.56 279.106 6449.36 276.699C6448.81 269.728 6437.4 270.904 6427.93 259.66C6426.1 257.49 6423.57 253.93 6420.11 253.946C6418.85 253.946 6417.33 254.438 6414.02 254.449C6412.56 254.449 6411.55 254.294 6411.07 254.333C6407.92 254.609 6405.97 256.204 6399.63 256.668C6390.4 257.341 6387.65 254.46 6384.12 257.071C6384.12 257.071 6379.97 260.178 6376.74 261.437C6374.79 262.204 6374.87 261.68 6373.67 262.32C6371.5 263.468 6368.8 269.673 6368.8 269.673C6366.29 275.391 6364.5 275.783 6365.1 277.224C6366.11 279.686 6371.16 278.035 6375.15 282.103C6375.79 282.755 6377.31 284.311 6376.85 285.746C6376.63 286.278 6376.26 286.736 6375.79 287.067C6375.32 287.398 6374.76 287.589 6374.18 287.618C6373.85 287.622 6373.52 287.564 6373.21 287.447C6372.53 287.215 6368.93 285.989 6368.14 286.817C6367.47 287.524 6369.31 289.252 6369.76 293.209C6370.08 296.019 6369.35 296.841 6368.96 297.145C6368.68 297.34 6368.37 297.475 6368.04 297.542C6367.98 297.6 6367.92 297.646 6367.85 297.674C6367.77 297.703 6367.7 297.715 6367.62 297.708C6366.84 297.672 6366.1 297.385 6365.51 296.891C6363.34 295.053 6358.69 287.596 6354.34 285.04C6349.15 282.004 6344.24 285.818 6341.66 282.412C6340.48 280.861 6340.13 278.284 6341.21 276.744C6343.19 273.917 6347.9 277.102 6353.94 274.712C6356.32 273.774 6358.57 270.743 6363.1 264.672C6364.43 262.889 6366.12 260.416 6365.3 259.235C6365.2 259.104 6365.09 258.992 6364.95 258.903C6363.26 257.639 6362.61 255.089 6362.47 254.686C6361.54 251.766 6352.05 248.344 6349.28 247.223C6347.54 246.522 6333.15 240.163 6326.8 228.351C6325.98 226.811 6323.88 222.56 6322.02 222.87C6320.63 223.096 6320.67 225.629 6318.47 226.618C6317.59 226.957 6316.63 227.051 6315.7 226.889C6314.77 226.728 6313.89 226.318 6313.17 225.701C6310.67 223.422 6312.2 219.353 6310.68 218.741C6309.16 218.128 6307.46 222.483 6303.31 223.709C6298.67 225.05 6293.99 221.539 6293.26 220.949C6288.29 217.085 6287.15 210.494 6286.76 208.225C6285.94 203.462 6286.95 201.154 6284.85 198.45C6283.32 196.479 6281.97 196.667 6279.34 194.978C6278.98 194.746 6270.77 189.336 6270.85 181.299C6270.9 175.465 6275.29 171.391 6276.08 170.663C6280.19 166.854 6282.95 168.355 6284.8 165.733C6288.86 159.982 6277.31 150.278 6280.66 141.374C6282.68 135.97 6289.37 133.365 6293.63 132.774C6304.74 131.245 6316.23 141.203 6320.97 151.442C6326.1 162.537 6321.47 170.072 6327.9 175.382C6333.72 180.19 6343.23 178.76 6343.59 177.38C6343.83 176.447 6339.89 175.68 6338.35 171.86C6337.65 169.956 6337.6 167.87 6338.23 165.938C6339.33 162.377 6342.3 160.379 6343.54 159.573C6354.17 152.673 6381.36 152.37 6392.8 140.563C6405.63 127.315 6401.76 96.376 6410.68 89.0953C6411.23 88.6703 6413.58 86.8487 6413.26 84.972C6412.87 82.6205 6408.72 82.764 6405.82 80.0979C6400.91 75.6158 6400.86 64.4104 6405.64 60.5465C6409.85 57.1297 6415.96 60.9715 6417.71 58.3386C6420.27 54.4415 6407.3 45.6428 6409.61 37.6666C6411.02 32.787 6417.99 28.752 6423.74 30.3583C6428.62 31.7217 6431.87 36.8442 6432.16 41.0117C6432.33 43.468 6431.49 45.8581 6432.03 46.0513C6432.57 46.2445 6433.37 43.733 6435.34 42.1267C6438.26 39.7255 6443.06 39.9187 6445.66 41.0227C6454.86 44.8866 6458.8 65.5917 6451.22 74.567C6448.77 77.4815 6445.16 79.0933 6445.58 81.4779C6445.96 83.6858 6449.2 83.4761 6453.19 85.9766C6461.46 91.1598 6460.2 99.848 6468.16 103.016C6468.44 103.127 6468.76 103.226 6468.76 103.226C6470.13 103.689 6471.53 104.036 6472.95 104.264C6474.76 104.584 6482.85 105.992 6483.43 109.044C6483.72 110.518 6482.14 112.041 6478.99 115.088C6475.68 118.251 6474.88 118.003 6473.9 119.504C6471.76 122.75 6473.64 127.056 6475.87 133.939C6477.52 138.989 6478.47 144.244 6480.07 149.306C6484.04 161.875 6485.03 194.569 6468.31 215.031C6462.2 222.5 6452.98 233.799 6445.65 238.579C6444.46 239.363 6441.79 240.991 6440.02 244.254C6439.55 245.12 6436.95 249.326 6437.69 253.946C6439.02 262.337 6450.66 268.392 6456.46 265.748C6461.56 263.43 6462.46 256.48 6466.39 256.839C6468.42 257.027 6470.8 259.24 6470.66 260.576C6470.64 261.155 6470.54 261.728 6470.35 262.276C6470.2 262.674 6470.11 263.093 6470.09 263.518C6470.11 263.589 6470.13 263.659 6470.15 263.728C6470.46 264.467 6474.26 263.899 6476.69 264.545C6478.9 265.13 6481.52 267.172 6481.37 268.723Z" fill="#E96262"/>
<path d="M6476.67 264.506C6474.24 263.861 6470.44 264.429 6470.13 263.689C6470.11 263.621 6470.09 263.551 6470.07 263.48C6470.09 263.055 6470.18 262.636 6470.33 262.238C6470.52 261.689 6470.62 261.116 6470.64 260.538C6470.76 259.202 6468.4 256.988 6466.37 256.801C6462.46 256.442 6461.56 263.391 6456.44 265.71C6450.67 268.37 6439.02 262.298 6437.67 253.93C6437.53 253.084 6437.5 252.224 6437.57 251.369C6434.26 252.628 6430.88 253.754 6427.56 255.001C6426.79 255.369 6426.03 255.781 6425.29 256.238L6425.17 256.354L6425.1 256.481C6426.17 257.529 6427.09 258.722 6427.86 259.654C6437.32 270.898 6448.7 269.723 6449.28 276.694C6449.48 279.101 6448.4 282.523 6449.07 286.569C6449.11 286.801 6449.62 289.672 6450.97 290.108C6451.24 290.184 6451.51 290.223 6451.79 290.224C6452.38 290.205 6452.96 290.013 6453.45 289.672C6453.93 289.293 6454.29 288.781 6454.49 288.198C6455.1 286.542 6459.02 279.692 6461.45 277.081C6467.93 270.098 6480.97 272.207 6481.3 268.718C6481.52 267.173 6478.89 265.13 6476.67 264.506Z" fill="#FFE600"/>
<path d="M6365.06 277.201C6364.47 275.76 6366.26 275.368 6368.77 269.649C6368.77 269.649 6371.47 263.445 6373.63 262.297C6374.83 261.657 6374.74 262.181 6376.71 261.414C6377.31 261.176 6377.9 260.905 6378.48 260.602C6373.86 259.251 6369.17 258.158 6364.43 257.329C6364.28 257.528 6364.13 257.715 6363.98 257.881C6364.25 258.247 6364.58 258.574 6364.94 258.853C6365.07 258.941 6365.19 259.053 6365.29 259.184C6366.08 260.365 6364.39 262.838 6363.09 264.621C6358.56 270.693 6356.3 273.723 6353.93 274.662C6347.86 277.052 6343.18 273.867 6341.2 276.693C6340.1 278.233 6340.46 280.811 6341.64 282.362C6344.23 285.768 6349.14 281.953 6354.33 284.989C6358.68 287.545 6363.33 295.002 6365.49 296.84C6366.09 297.335 6366.83 297.621 6367.61 297.657C6367.68 297.664 6367.76 297.652 6367.84 297.624C6367.91 297.595 6367.97 297.55 6368.03 297.492C6368.36 297.425 6368.67 297.289 6368.95 297.094C6369.34 296.791 6370.05 295.99 6369.75 293.159C6369.3 289.201 6367.46 287.473 6368.13 286.767C6368.92 285.939 6372.54 287.164 6373.2 287.396C6373.51 287.513 6373.84 287.572 6374.17 287.567C6374.75 287.538 6375.3 287.348 6375.78 287.017C6376.25 286.685 6376.62 286.228 6376.84 285.696C6377.3 284.255 6375.78 282.704 6375.14 282.053C6371.14 278.029 6366.08 279.679 6365.06 277.201Z" fill="#60C9EB"/>
<path d="M5968.54 283.493L5967.79 280.875C5971.84 279.593 5975.95 278.561 5980.12 277.786C5984.47 275.574 5989.03 273.79 5993.72 272.459L5994.37 275.077C5989.7 276.369 5985.18 278.123 5980.87 280.313C5976.7 281.103 5972.58 282.166 5968.54 283.493Z" fill="#FFE600" stroke="#FFE600" stroke-width="4.45165" stroke-miterlimit="10" stroke-linejoin="round"/>
<path d="M5980.9 280.565C5985.27 278.333 5989.85 276.552 5994.59 275.251C5994.36 274.269 5994.13 273.287 5993.88 272.292C5989.13 273.626 5984.52 275.424 5980.12 277.659C5975.95 278.434 5971.83 279.465 5967.78 280.748H5967.64L5968.49 283.667C5972.55 282.368 5976.7 281.332 5980.9 280.565ZM5980.15 277.947C5984.46 275.774 5988.96 274.02 5993.61 272.711L5994.18 275.028C5989.57 276.325 5985.1 278.079 5980.83 280.264C5976.7 281.013 5972.63 282.027 5968.63 283.301L5967.98 281.01C5971.98 279.742 5976.06 278.719 5980.19 277.947H5980.15Z" fill="#FFE600" stroke="#FFE600" stroke-width="4.45165" stroke-miterlimit="10" stroke-linejoin="round"/>
<path d="M5991.23 288.558C5987.83 285.348 5984.04 282.574 5979.95 280.299L5981.06 277.89C5985.21 280.241 5989.07 283.079 5992.54 286.346C5992.1 287.026 5991.67 287.799 5991.23 288.558Z" fill="#FFE600" stroke="#FFE600" stroke-width="4.45165" stroke-miterlimit="10" stroke-linejoin="round"/>
<path d="M5992.72 286.322C5989.17 282.966 5985.21 280.06 5980.94 277.67L5979.7 280.367C5983.87 282.681 5987.74 285.508 5991.2 288.783C5991.74 287.932 5992.21 287.134 5992.72 286.322ZM5981.13 278.115C5985.18 280.426 5988.96 283.203 5992.37 286.388C5991.98 287.016 5991.58 287.697 5991.2 288.338C5987.86 285.194 5984.15 282.469 5980.14 280.223L5981.13 278.115Z" fill="#FFE600" stroke="#FFE600" stroke-width="4.45165" stroke-miterlimit="10" stroke-linejoin="round"/>
<path d="M5700.91 283.906L5700.16 281.288C5704.21 280.005 5708.32 278.973 5712.49 278.199C5716.84 275.987 5721.4 274.203 5726.09 272.872L5726.73 275.489C5722.07 276.781 5717.55 278.535 5713.24 280.725C5709.06 281.516 5704.95 282.578 5700.91 283.906Z" fill="#FFE600" stroke="#FFE600" stroke-width="4.45165" stroke-miterlimit="10" stroke-linejoin="round"/>
<path d="M5713.26 280.977C5717.63 278.745 5722.22 276.964 5726.95 275.663C5726.73 274.681 5726.49 273.699 5726.24 272.705C5721.49 274.038 5716.89 275.836 5712.49 278.071C5708.31 278.846 5704.19 279.877 5700.14 281.16H5700L5700.85 284.079C5704.92 282.78 5709.06 281.744 5713.26 280.977ZM5712.51 278.359C5716.82 276.186 5721.33 274.433 5725.97 273.124L5726.54 275.44C5721.93 276.738 5717.46 278.491 5713.19 280.676C5709.07 281.425 5704.99 282.44 5700.99 283.713L5700.34 281.422C5704.34 280.154 5708.42 279.131 5712.55 278.359H5712.51Z" fill="#FFE600" stroke="#FFE600" stroke-width="4.45165" stroke-miterlimit="10" stroke-linejoin="round"/>
<path d="M5723.6 288.972C5720.2 285.763 5716.41 282.988 5712.32 280.713L5713.43 278.304C5717.58 280.655 5721.44 283.493 5724.91 286.76C5724.47 287.44 5724.03 288.213 5723.6 288.972Z" fill="#FFE600" stroke="#FFE600" stroke-width="4.45165" stroke-miterlimit="10" stroke-linejoin="round"/>
<path d="M5725.09 286.736C5721.53 283.379 5717.57 280.473 5713.31 278.084L5712.06 280.78C5716.23 283.094 5720.1 285.922 5723.57 289.197C5724.1 288.346 5724.58 287.547 5725.09 286.736ZM5713.49 278.529C5717.55 280.84 5721.32 283.616 5724.73 286.801C5724.34 287.43 5723.95 288.11 5723.57 288.752C5720.22 285.608 5716.51 282.883 5712.51 280.636L5713.49 278.529Z" fill="#FFE600" stroke="#FFE600" stroke-width="4.45165" stroke-miterlimit="10" stroke-linejoin="round"/>
<path d="M5897.79 297.711L5897.27 295.05C5902.25 294.197 5907.31 293.95 5912.34 294.312C5915.09 293.824 5917.87 293.49 5920.67 293.313C5922.08 293.197 5923.44 293.214 5924.87 293.185C5926.3 293.155 5927.75 293.12 5929.17 293.258L5929.27 296.034C5926.48 295.85 5923.57 296.032 5920.85 296.092C5919.46 296.193 5918.05 296.356 5916.69 296.498L5914.65 296.736C5913.97 296.831 5913.23 297.02 5912.61 297.105L5908.91 296.896L5905.19 296.994L5903.34 297.062L5901.5 297.283C5900.23 297.392 5899 297.517 5897.79 297.711Z" fill="#60C9EB" stroke="#60C9EB" stroke-width="4.45165" stroke-miterlimit="10" stroke-linejoin="round"/>
<path d="M5912.56 297.22C5913.25 297.088 5913.97 296.915 5914.63 296.846L5916.67 296.609C5918.05 296.469 5919.48 296.29 5920.88 296.211C5923.66 296.13 5926.58 295.969 5929.41 296.159L5929.31 293.056C5927.9 292.957 5926.42 292.997 5924.99 292.998C5923.56 292.998 5922.16 293.023 5920.73 293.136C5917.91 293.31 5915.1 293.646 5912.32 294.142C5907.28 293.776 5902.21 294.026 5897.23 294.886L5897.06 294.916L5897.64 297.904C5898.86 297.684 5900.08 297.578 5901.32 297.408L5903.18 297.172C5903.81 297.134 5904.43 297.133 5905.04 297.104L5908.81 297.003L5912.56 297.22ZM5912.33 294.48C5915.05 293.99 5917.8 293.658 5920.56 293.486C5921.97 293.359 5923.32 293.384 5924.74 293.344C5926.16 293.304 5927.59 293.274 5928.96 293.368L5929.05 295.805L5926.97 295.718L5924.85 295.756L5920.7 295.874C5919.32 295.985 5917.93 296.133 5916.59 296.278L5914.58 296.511C5913.89 296.613 5913.22 296.748 5912.55 296.872L5908.88 296.669L5905.19 296.762L5903.37 296.825L5901.54 297.038L5897.91 297.506L5897.47 295.165C5902.37 294.354 5907.34 294.132 5912.3 294.503L5912.33 294.48Z" fill="#60C9EB" stroke="#60C9EB" stroke-width="4.45165" stroke-miterlimit="10" stroke-linejoin="round"/>
<path d="M5922.53 308.082C5919.34 303.846 5915.64 300.02 5911.52 296.691C5912.13 295.996 5912.74 295.311 5913.38 294.63C5914.49 295.491 5915.54 296.417 5916.54 297.405C5917.51 298.317 5918.53 299.285 5919.46 300.257C5920.39 301.23 5921.25 302.285 5922.11 303.294L5923.37 304.774L5924.55 306.363L5922.53 308.082Z" fill="#60C9EB" stroke="#60C9EB" stroke-width="4.45165" stroke-miterlimit="10" stroke-linejoin="round"/>
<path d="M5924.81 306.42L5923.61 304.799C5923.21 304.262 5922.78 303.785 5922.33 303.269C5921.48 302.271 5920.55 301.215 5919.62 300.177C5918.69 299.14 5917.67 298.237 5916.64 297.251C5915.62 296.248 5914.54 295.302 5913.41 294.418C5912.69 295.18 5911.99 295.955 5911.32 296.726C5915.52 300.103 5919.28 303.99 5922.52 308.294C5923.25 307.666 5924.03 307.043 5924.81 306.42ZM5913.43 294.889C5914.51 295.737 5915.54 296.644 5916.52 297.606C5917.48 298.519 5918.44 299.439 5919.36 300.39C5920.27 301.341 5921.1 302.355 5921.95 303.353C5922.8 304.311 5923.6 305.311 5924.35 306.351L5922.56 307.841C5919.43 303.705 5915.81 299.962 5911.79 296.692L5913.43 294.889Z" fill="#60C9EB" stroke="#60C9EB" stroke-width="4.45165" stroke-miterlimit="10" stroke-linejoin="round"/>
<path d="M6047.63 302.633L6046.46 300.172C6050.93 298.115 6055.56 296.443 6060.31 295.172C6065.06 292.525 6069.99 290.203 6075.05 288.222L6076.17 290.722C6071.1 292.7 6066.17 295.026 6061.41 297.685C6056.68 298.932 6052.07 300.587 6047.63 302.633Z" fill="#60C9EB" stroke="#60C9EB" stroke-width="4.45165" stroke-miterlimit="10" stroke-linejoin="round"/>
<path d="M6061.45 297.843C6066.26 295.149 6071.25 292.8 6076.4 290.814L6075.09 288C6069.97 290.002 6064.99 292.35 6060.19 295.029C6055.44 296.29 6050.8 297.963 6046.33 300.029L6046.17 300.029L6047.48 302.777C6051.99 300.734 6056.66 299.083 6061.45 297.843ZM6060.36 295.33C6065.07 292.706 6069.94 290.401 6074.96 288.432L6075.95 290.631C6070.93 292.592 6066.05 294.897 6061.34 297.529C6056.67 298.767 6052.11 300.4 6047.71 302.411L6046.69 300.251C6051.1 298.226 6055.67 296.58 6060.36 295.33Z" fill="#60C9EB" stroke="#60C9EB" stroke-width="4.45165" stroke-miterlimit="10" stroke-linejoin="round"/>
<path d="M6074.68 304.479C6070.09 301.84 6065.3 299.572 6060.35 297.699L6061.41 295.16C6066.43 297.086 6071.29 299.415 6075.93 302.123L6074.68 304.479Z" fill="#60C9EB" stroke="#60C9EB" stroke-width="4.45165" stroke-miterlimit="10" stroke-linejoin="round"/>
<path d="M6076.16 302.057C6071.42 299.281 6066.45 296.9 6061.32 294.937L6060.13 297.803C6065.19 299.692 6070.08 301.999 6074.75 304.701L6076.16 302.057ZM6061.5 295.369C6066.42 297.259 6071.18 299.535 6075.73 302.175L6074.63 304.256C6070.12 301.673 6065.42 299.45 6060.56 297.607L6061.5 295.369Z" fill="#60C9EB" stroke="#60C9EB" stroke-width="4.45165" stroke-miterlimit="10" stroke-linejoin="round"/>
<path d="M5764.11 303.046L5762.94 300.585C5767.41 298.529 5772.04 296.856 5776.79 295.585C5781.54 292.938 5786.47 290.616 5791.53 288.635L5792.66 291.135C5787.58 293.113 5782.65 295.439 5777.89 298.098C5773.16 299.345 5768.55 301 5764.11 303.046Z" fill="#60C9EB" stroke="#60C9EB" stroke-width="4.45165" stroke-miterlimit="10" stroke-linejoin="round"/>
<path d="M5777.94 298.253C5782.75 295.559 5787.74 293.21 5792.88 291.224L5791.58 288.41C5786.46 290.412 5781.48 292.76 5776.68 295.439C5771.92 296.7 5767.29 298.373 5762.82 300.439L5762.66 300.439L5763.97 303.187C5768.48 301.144 5773.15 299.493 5777.94 298.253ZM5776.85 295.74C5781.56 293.116 5786.43 290.811 5791.44 288.842L5792.44 291.041C5787.42 293.002 5782.54 295.307 5777.83 297.939C5773.16 299.177 5768.59 300.811 5764.19 302.821L5763.17 300.661C5767.58 298.637 5772.16 296.99 5776.85 295.74Z" fill="#60C9EB" stroke="#60C9EB" stroke-width="4.45165" stroke-miterlimit="10" stroke-linejoin="round"/>
<path d="M5791.17 304.891C5786.58 302.251 5781.79 299.984 5776.83 298.11L5777.89 295.571C5782.92 297.498 5787.78 299.826 5792.42 302.535L5791.17 304.891Z" fill="#60C9EB" stroke="#60C9EB" stroke-width="4.45165" stroke-miterlimit="10" stroke-linejoin="round"/>
<path d="M5792.65 302.469C5787.91 299.693 5782.94 297.311 5777.81 295.348L5776.62 298.215C5781.67 300.103 5786.56 302.41 5791.24 305.113L5792.65 302.469ZM5777.99 295.78C5782.91 297.67 5787.66 299.946 5792.22 302.587L5791.12 304.668C5786.61 302.085 5781.91 299.861 5777.05 298.019L5777.99 295.78Z" fill="#60C9EB" stroke="#60C9EB" stroke-width="4.45165" stroke-miterlimit="10" stroke-linejoin="round"/>
<path d="M6191.94 294.047L6191.28 291.425C6193.53 290.879 6195.8 290.381 6198.08 289.856C6200.35 289.332 6202.68 289.037 6204.98 288.626C6209.83 286.509 6214.8 284.675 6219.87 283.131L6220.77 285.723C6218.15 286.468 6215.6 287.375 6213.1 288.298C6210.61 289.221 6208.13 290.272 6205.76 291.267C6203.42 291.59 6201.11 292.095 6198.8 292.506C6196.49 292.916 6194.21 293.536 6191.94 294.047Z" fill="#60C9EB" stroke="#60C9EB" stroke-width="4.45165" stroke-miterlimit="10" stroke-linejoin="round"/>
<path d="M6205.8 291.42C6208.28 290.407 6210.74 289.29 6213.24 288.419L6217.08 287.045C6218.33 286.609 6219.68 286.235 6221.01 285.827L6220.01 282.919C6214.89 284.475 6209.87 286.325 6204.96 288.457C6202.64 288.87 6200.34 289.281 6198.06 289.687C6195.78 290.093 6193.5 290.697 6191.26 291.242L6191.09 291.272L6191.84 294.223C6194.13 293.683 6196.44 293.139 6198.77 292.644C6201.1 292.15 6203.42 291.762 6205.8 291.42ZM6205.02 288.779C6209.83 286.692 6214.75 284.875 6219.77 283.335L6220.56 285.614C6215.51 287.142 6210.56 288.974 6205.73 291.1C6203.41 291.433 6201.13 291.919 6198.85 292.325C6196.56 292.731 6194.31 293.345 6192.06 293.852L6191.49 291.535L6198.19 290.008C6200.46 289.604 6202.74 289.16 6205.02 288.779Z" fill="#60C9EB" stroke="#60C9EB" stroke-width="4.45165" stroke-miterlimit="10" stroke-linejoin="round"/>
<path d="M6218.12 299.301C6216.03 297.798 6213.86 296.47 6211.62 295.047C6209.39 293.623 6207.17 292.424 6204.74 291.127L6206.03 288.756C6210.71 291.238 6215.23 294.008 6219.57 297.049L6218.12 299.301Z" fill="#60C9EB" stroke="#60C9EB" stroke-width="4.45165" stroke-miterlimit="10" stroke-linejoin="round"/>
<path d="M6219.79 297.013C6217.62 295.445 6215.39 294.021 6213.09 292.596C6210.79 291.171 6208.4 289.88 6205.97 288.545L6204.52 291.21C6206.93 292.535 6209.28 293.833 6211.55 295.211C6213.81 296.589 6216.03 298.015 6218.17 299.549L6219.79 297.013ZM6206.1 288.974C6210.68 291.41 6215.11 294.125 6219.35 297.104L6218.09 299.085C6216.03 297.604 6213.9 296.308 6211.7 294.904C6209.51 293.499 6207.26 292.331 6204.96 291.053L6206.1 288.974Z" fill="#60C9EB" stroke="#60C9EB" stroke-width="4.45165" stroke-miterlimit="10" stroke-linejoin="round"/>
<path d="M6114.54 279.682L6113.44 277.208C6115.34 276.253 6117.37 275.454 6119.28 274.59C6121.19 273.727 6123.21 273.072 6125.29 272.326C6127.25 270.899 6129.29 269.708 6131.37 268.307C6133.45 266.907 6135.59 265.808 6137.76 264.551L6139.07 266.972C6136.86 268.163 6134.72 269.485 6132.62 270.729C6130.51 271.972 6128.48 273.347 6126.5 274.787C6122.43 276.198 6118.44 277.832 6114.54 279.682Z" fill="#FFE600" stroke="#FFE600" stroke-width="4.45165" stroke-miterlimit="10" stroke-linejoin="round"/>
<path d="M6126.56 275.035C6128.56 273.634 6130.63 272.299 6132.73 270.925C6134.84 269.55 6137.04 268.307 6139.28 267.142L6137.89 264.433C6135.69 265.742 6133.53 266.906 6131.42 268.202C6129.32 269.498 6127.26 270.82 6125.29 272.26C6123.27 273.019 6121.23 273.674 6119.28 274.538C6117.33 275.402 6115.35 276.147 6113.44 277.09L6113.31 277.156L6114.54 279.931C6118.45 278.084 6122.47 276.449 6126.56 275.035ZM6125.4 272.574C6127.34 271.161 6129.33 269.956 6131.42 268.582C6133.52 267.207 6135.61 266.121 6137.76 264.865L6138.86 266.998C6136.67 268.189 6134.55 269.485 6132.47 270.716C6130.39 271.946 6128.39 273.333 6126.44 274.734C6122.43 276.111 6118.49 277.705 6114.66 279.511L6113.7 277.326C6117.49 275.52 6121.38 273.92 6125.34 272.535L6125.4 272.574Z" fill="#FFE600" stroke="#FFE600" stroke-width="4.45165" stroke-miterlimit="10" stroke-linejoin="round"/>
<path d="M6138.93 280.86C6134.57 278.611 6130.09 276.618 6125.51 274.891L6126.25 272.273C6128.64 273.19 6130.95 274.158 6133.21 275.126C6135.46 276.095 6137.69 277.221 6139.85 278.333C6139.54 279.197 6139.23 280.022 6138.93 280.86Z" fill="#FFE600" stroke="#FFE600" stroke-width="4.45165" stroke-miterlimit="10" stroke-linejoin="round"/>
<path d="M6140.02 278.323C6137.82 277.158 6135.57 276.125 6133.24 275.038C6130.91 273.952 6128.57 273.049 6126.15 272.119L6125.31 274.999C6129.98 276.753 6134.55 278.781 6138.99 281.072C6139.33 280.143 6139.64 279.227 6140.02 278.323ZM6126.34 272.525C6128.66 273.428 6130.94 274.384 6133.14 275.327C6135.33 276.269 6137.53 277.395 6139.68 278.468L6138.87 280.64C6134.6 278.449 6130.2 276.496 6125.71 274.79L6126.34 272.525Z" fill="#FFE600" stroke="#FFE600" stroke-width="4.45165" stroke-miterlimit="10" stroke-linejoin="round"/>
<path d="M5831.02 280.095L5829.92 277.622C5831.82 276.666 5833.85 275.868 5835.76 275.004C5837.67 274.14 5839.68 273.486 5841.76 272.74C5843.73 271.313 5845.77 270.121 5847.85 268.721C5849.93 267.32 5852.07 266.221 5854.24 264.965L5855.55 267.386C5853.34 268.577 5851.2 269.899 5849.09 271.142C5846.99 272.386 5844.96 273.76 5842.98 275.2C5838.91 276.612 5834.91 278.246 5831.02 280.095Z" fill="#FFE600" stroke="#FFE600" stroke-width="4.45165" stroke-miterlimit="10" stroke-linejoin="round"/>
<path d="M5843.03 275.45C5845.04 274.049 5847.11 272.714 5849.21 271.339C5851.32 269.965 5853.52 268.722 5855.76 267.557L5854.37 264.847C5852.17 266.156 5850.01 267.321 5847.9 268.617C5845.8 269.913 5843.74 271.235 5841.76 272.674C5839.75 273.434 5837.71 274.088 5835.76 274.952C5833.81 275.816 5831.83 276.562 5829.92 277.504L5829.79 277.57L5831.02 280.345C5834.93 278.498 5838.94 276.864 5843.03 275.45ZM5841.88 272.989C5843.82 271.575 5845.81 270.371 5847.9 268.996C5850 267.622 5852.09 266.536 5854.24 265.279L5855.34 267.413C5853.15 268.604 5851.03 269.9 5848.95 271.13C5846.87 272.361 5844.87 273.748 5842.92 275.149C5838.91 276.525 5834.97 278.12 5831.14 279.926L5830.18 277.74C5833.97 275.934 5837.85 274.335 5841.82 272.949L5841.88 272.989Z" fill="#FFE600" stroke="#FFE600" stroke-width="4.45165" stroke-miterlimit="10" stroke-linejoin="round"/>
<path d="M5855.4 281.275C5851.05 279.026 5846.57 277.033 5841.98 275.306L5842.73 272.688C5845.11 273.605 5847.43 274.573 5849.68 275.541C5851.93 276.51 5854.17 277.636 5856.33 278.748C5856.01 279.612 5855.7 280.437 5855.4 281.275Z" fill="#FFE600" stroke="#FFE600" stroke-width="4.45165" stroke-miterlimit="10" stroke-linejoin="round"/>
<path d="M5856.51 278.736C5854.31 277.571 5852.05 276.537 5849.72 275.451C5847.4 274.365 5845.05 273.461 5842.63 272.532L5841.79 275.412C5846.47 277.166 5851.04 279.193 5855.47 281.485C5855.81 280.556 5856.13 279.639 5856.51 278.736ZM5842.83 272.938C5845.14 273.841 5847.42 274.797 5849.62 275.739C5851.82 276.682 5854.02 277.807 5856.16 278.88L5855.35 281.053C5851.08 278.862 5846.69 276.909 5842.2 275.202L5842.83 272.938Z" fill="#FFE600" stroke="#FFE600" stroke-width="4.45165" stroke-miterlimit="10" stroke-linejoin="round"/>
<path d="M6263.51 270.646L6262.62 268.091C6264.59 267.295 6266.68 266.666 6268.65 265.962C6270.63 265.258 6272.69 264.772 6274.83 264.2C6276.9 262.939 6279.04 261.92 6281.22 260.695C6283.41 259.471 6285.63 258.551 6287.9 257.478L6289 259.998C6286.7 261.003 6284.47 262.145 6282.26 263.211C6280.06 264.277 6277.93 265.48 6275.84 266.752C6271.66 267.824 6267.55 269.123 6263.51 270.646Z" fill="#FFE600" stroke="#FFE600" stroke-width="4.45165" stroke-miterlimit="10" stroke-linejoin="round"/>
<path d="M6275.87 267.006C6277.98 265.775 6280.15 264.615 6282.37 263.418C6284.58 262.222 6286.87 261.164 6289.2 260.187L6288.04 257.373C6285.74 258.496 6283.49 259.479 6281.29 260.597C6279.08 261.715 6276.92 262.864 6274.83 264.136C6272.76 264.727 6270.67 265.211 6268.66 265.912C6266.64 266.612 6264.61 267.193 6262.63 267.975L6262.5 268.03L6263.49 270.897C6267.55 269.378 6271.68 268.079 6275.87 267.006ZM6274.93 264.459C6276.97 263.21 6279.06 262.173 6281.26 260.976C6283.46 259.778 6285.63 258.868 6287.88 257.792L6288.8 260.009C6286.52 261.016 6284.3 262.134 6282.12 263.189C6279.95 264.244 6277.84 265.461 6275.78 266.697C6271.67 267.739 6267.62 269.004 6263.65 270.489L6262.87 268.232C6266.8 266.743 6270.8 265.469 6274.86 264.414L6274.93 264.459Z" fill="#FFE600" stroke="#FFE600" stroke-width="4.45165" stroke-miterlimit="10" stroke-linejoin="round"/>
<path d="M6287.72 273.827C6283.57 271.228 6279.26 268.873 6274.84 266.775L6275.8 264.227C6278.1 265.336 6280.32 266.492 6282.49 267.642C6284.65 268.793 6286.79 270.099 6288.85 271.386C6288.47 272.221 6288.09 273.017 6287.72 273.827Z" fill="#FFE600" stroke="#FFE600" stroke-width="4.45165" stroke-miterlimit="10" stroke-linejoin="round"/>
<path d="M6289.03 271.389C6286.94 270.047 6284.78 268.831 6282.55 267.557C6280.31 266.282 6278.05 265.189 6275.72 264.064L6274.64 266.865C6279.16 268.998 6283.54 271.394 6287.78 274.043C6288.19 273.145 6288.58 272.257 6289.03 271.389ZM6275.88 264.485C6278.11 265.575 6280.3 266.715 6282.42 267.835C6284.53 268.956 6286.63 270.258 6288.68 271.505L6287.69 273.603C6283.62 271.067 6279.4 268.76 6275.07 266.69L6275.88 264.485Z" fill="#FFE600" stroke="#FFE600" stroke-width="4.45165" stroke-miterlimit="10" stroke-linejoin="round"/>
</g>
<g clip-path="url(#clip2_21_1280)">
<path d="M5156.54 283.493L5155.79 280.875C5159.84 279.593 5163.95 278.561 5168.12 277.786C5172.47 275.574 5177.03 273.79 5181.72 272.459L5182.37 275.077C5177.7 276.369 5173.18 278.123 5168.87 280.313C5164.7 281.103 5160.58 282.166 5156.54 283.493Z" fill="#FFE600" stroke="#FFE600" stroke-width="4.45165" stroke-miterlimit="10" stroke-linejoin="round"/>
<path d="M5168.9 280.565C5173.27 278.333 5177.85 276.552 5182.59 275.251C5182.36 274.269 5182.13 273.287 5181.88 272.292C5177.13 273.626 5172.52 275.424 5168.12 277.659C5163.95 278.434 5159.83 279.465 5155.78 280.748H5155.64L5156.49 283.667C5160.55 282.368 5164.7 281.332 5168.9 280.565ZM5168.15 277.947C5172.46 275.774 5176.96 274.02 5181.61 272.711L5182.18 275.028C5177.57 276.325 5173.1 278.079 5168.83 280.264C5164.7 281.013 5160.63 282.027 5156.63 283.301L5155.98 281.01C5159.98 279.742 5164.06 278.719 5168.19 277.947H5168.15Z" fill="#FFE600" stroke="#FFE600" stroke-width="4.45165" stroke-miterlimit="10" stroke-linejoin="round"/>
<path d="M5179.23 288.558C5175.83 285.348 5172.04 282.574 5167.95 280.299L5169.06 277.89C5173.21 280.241 5177.07 283.079 5180.54 286.346C5180.1 287.026 5179.67 287.799 5179.23 288.558Z" fill="#FFE600" stroke="#FFE600" stroke-width="4.45165" stroke-miterlimit="10" stroke-linejoin="round"/>
<path d="M5180.72 286.322C5177.17 282.966 5173.21 280.06 5168.94 277.67L5167.7 280.367C5171.87 282.681 5175.74 285.508 5179.2 288.783C5179.74 287.932 5180.21 287.134 5180.72 286.322ZM5169.13 278.115C5173.18 280.426 5176.96 283.203 5180.37 286.388C5179.98 287.016 5179.58 287.697 5179.2 288.338C5175.86 285.194 5172.15 282.469 5168.14 280.223L5169.13 278.115Z" fill="#FFE600" stroke="#FFE600" stroke-width="4.45165" stroke-miterlimit="10" stroke-linejoin="round"/>
<path d="M4888.91 283.906L4888.16 281.288C4892.21 280.005 4896.32 278.973 4900.49 278.199C4904.84 275.987 4909.4 274.203 4914.09 272.872L4914.73 275.489C4910.07 276.781 4905.55 278.535 4901.24 280.725C4897.06 281.516 4892.95 282.578 4888.91 283.906Z" fill="#FFE600" stroke="#FFE600" stroke-width="4.45165" stroke-miterlimit="10" stroke-linejoin="round"/>
<path d="M4901.26 280.977C4905.63 278.745 4910.22 276.964 4914.95 275.663C4914.73 274.681 4914.49 273.699 4914.24 272.705C4909.49 274.038 4904.89 275.836 4900.49 278.071C4896.31 278.846 4892.19 279.877 4888.14 281.16H4888L4888.85 284.079C4892.92 282.78 4897.06 281.744 4901.26 280.977ZM4900.51 278.359C4904.82 276.186 4909.33 274.433 4913.97 273.124L4914.54 275.44C4909.93 276.738 4905.46 278.491 4901.19 280.676C4897.07 281.425 4892.99 282.44 4888.99 283.713L4888.34 281.422C4892.34 280.154 4896.42 279.131 4900.55 278.359H4900.51Z" fill="#FFE600" stroke="#FFE600" stroke-width="4.45165" stroke-miterlimit="10" stroke-linejoin="round"/>
<path d="M4911.6 288.972C4908.2 285.763 4904.41 282.988 4900.32 280.713L4901.43 278.304C4905.58 280.655 4909.44 283.493 4912.91 286.76C4912.47 287.44 4912.03 288.213 4911.6 288.972Z" fill="#FFE600" stroke="#FFE600" stroke-width="4.45165" stroke-miterlimit="10" stroke-linejoin="round"/>
<path d="M4913.09 286.736C4909.53 283.379 4905.57 280.473 4901.31 278.084L4900.06 280.78C4904.23 283.094 4908.1 285.922 4911.57 289.197C4912.1 288.346 4912.58 287.547 4913.09 286.736ZM4901.49 278.529C4905.55 280.84 4909.32 283.616 4912.73 286.801C4912.34 287.43 4911.95 288.11 4911.57 288.752C4908.22 285.608 4904.51 282.883 4900.51 280.636L4901.49 278.529Z" fill="#FFE600" stroke="#FFE600" stroke-width="4.45165" stroke-miterlimit="10" stroke-linejoin="round"/>
<path d="M5085.79 297.711L5085.27 295.05C5090.25 294.197 5095.31 293.95 5100.34 294.312C5103.09 293.824 5105.87 293.49 5108.67 293.313C5110.08 293.197 5111.44 293.214 5112.87 293.185C5114.3 293.155 5115.75 293.12 5117.17 293.258L5117.27 296.034C5114.48 295.85 5111.57 296.032 5108.85 296.092C5107.46 296.193 5106.05 296.356 5104.69 296.498L5102.65 296.736C5101.97 296.831 5101.23 297.02 5100.61 297.105L5096.91 296.896L5093.19 296.994L5091.34 297.062L5089.5 297.283C5088.23 297.392 5087 297.517 5085.79 297.711Z" fill="#60C9EB" stroke="#60C9EB" stroke-width="4.45165" stroke-miterlimit="10" stroke-linejoin="round"/>
<path d="M5100.56 297.22C5101.25 297.088 5101.97 296.915 5102.63 296.846L5104.67 296.609C5106.05 296.469 5107.48 296.29 5108.88 296.211C5111.66 296.13 5114.58 295.969 5117.41 296.159L5117.31 293.056C5115.9 292.957 5114.42 292.997 5112.99 292.998C5111.56 292.998 5110.16 293.023 5108.73 293.136C5105.91 293.31 5103.1 293.646 5100.32 294.142C5095.28 293.776 5090.21 294.026 5085.23 294.886L5085.06 294.916L5085.64 297.904C5086.86 297.684 5088.08 297.578 5089.32 297.408L5091.18 297.172C5091.81 297.134 5092.43 297.133 5093.04 297.104L5096.81 297.003L5100.56 297.22ZM5100.33 294.48C5103.05 293.99 5105.8 293.658 5108.56 293.486C5109.97 293.359 5111.32 293.384 5112.74 293.344C5114.16 293.304 5115.59 293.274 5116.96 293.368L5117.05 295.805L5114.97 295.718L5112.85 295.756L5108.7 295.874C5107.32 295.985 5105.93 296.133 5104.59 296.278L5102.58 296.511C5101.89 296.613 5101.22 296.748 5100.55 296.872L5096.88 296.669L5093.19 296.762L5091.37 296.825L5089.54 297.038L5085.91 297.506L5085.47 295.165C5090.37 294.354 5095.34 294.132 5100.3 294.503L5100.33 294.48Z" fill="#60C9EB" stroke="#60C9EB" stroke-width="4.45165" stroke-miterlimit="10" stroke-linejoin="round"/>
<path d="M5110.53 308.082C5107.34 303.846 5103.64 300.02 5099.52 296.691C5100.13 295.996 5100.74 295.311 5101.38 294.63C5102.49 295.491 5103.54 296.417 5104.54 297.405C5105.51 298.317 5106.53 299.285 5107.46 300.257C5108.39 301.23 5109.25 302.285 5110.11 303.294L5111.37 304.774L5112.55 306.363L5110.53 308.082Z" fill="#60C9EB" stroke="#60C9EB" stroke-width="4.45165" stroke-miterlimit="10" stroke-linejoin="round"/>
<path d="M5112.81 306.42L5111.61 304.799C5111.21 304.262 5110.78 303.785 5110.33 303.269C5109.48 302.271 5108.55 301.215 5107.62 300.177C5106.69 299.14 5105.67 298.237 5104.64 297.251C5103.62 296.248 5102.54 295.302 5101.41 294.418C5100.69 295.18 5099.99 295.955 5099.32 296.726C5103.52 300.103 5107.28 303.99 5110.52 308.294C5111.25 307.666 5112.03 307.043 5112.81 306.42ZM5101.43 294.889C5102.51 295.737 5103.54 296.644 5104.52 297.606C5105.48 298.519 5106.44 299.439 5107.36 300.39C5108.27 301.341 5109.1 302.355 5109.95 303.353C5110.8 304.311 5111.6 305.311 5112.35 306.351L5110.56 307.841C5107.43 303.705 5103.81 299.962 5099.79 296.692L5101.43 294.889Z" fill="#60C9EB" stroke="#60C9EB" stroke-width="4.45165" stroke-miterlimit="10" stroke-linejoin="round"/>
<path d="M5235.63 302.633L5234.46 300.172C5238.93 298.115 5243.56 296.443 5248.31 295.172C5253.06 292.525 5257.99 290.203 5263.05 288.222L5264.17 290.722C5259.1 292.7 5254.17 295.026 5249.41 297.685C5244.68 298.932 5240.07 300.587 5235.63 302.633Z" fill="#60C9EB" stroke="#60C9EB" stroke-width="4.45165" stroke-miterlimit="10" stroke-linejoin="round"/>
<path d="M5249.45 297.843C5254.26 295.149 5259.25 292.8 5264.4 290.814L5263.09 288C5257.97 290.002 5252.99 292.35 5248.19 295.029C5243.44 296.29 5238.8 297.963 5234.33 300.029L5234.17 300.029L5235.48 302.777C5239.99 300.734 5244.66 299.083 5249.45 297.843ZM5248.36 295.33C5253.07 292.706 5257.94 290.401 5262.96 288.432L5263.95 290.631C5258.93 292.592 5254.05 294.897 5249.34 297.529C5244.67 298.767 5240.11 300.4 5235.71 302.411L5234.69 300.251C5239.1 298.226 5243.67 296.58 5248.36 295.33Z" fill="#60C9EB" stroke="#60C9EB" stroke-width="4.45165" stroke-miterlimit="10" stroke-linejoin="round"/>
<path d="M5262.68 304.479C5258.09 301.84 5253.3 299.572 5248.35 297.699L5249.41 295.16C5254.43 297.086 5259.29 299.415 5263.93 302.123L5262.68 304.479Z" fill="#60C9EB" stroke="#60C9EB" stroke-width="4.45165" stroke-miterlimit="10" stroke-linejoin="round"/>
<path d="M5264.16 302.057C5259.42 299.281 5254.45 296.9 5249.32 294.937L5248.13 297.803C5253.19 299.692 5258.08 301.999 5262.75 304.701L5264.16 302.057ZM5249.5 295.369C5254.42 297.259 5259.18 299.535 5263.73 302.175L5262.63 304.256C5258.12 301.673 5253.42 299.45 5248.56 297.607L5249.5 295.369Z" fill="#60C9EB" stroke="#60C9EB" stroke-width="4.45165" stroke-miterlimit="10" stroke-linejoin="round"/>
<path d="M4952.11 303.046L4950.94 300.585C4955.41 298.529 4960.04 296.856 4964.79 295.585C4969.54 292.938 4974.47 290.616 4979.53 288.635L4980.66 291.135C4975.58 293.113 4970.65 295.439 4965.89 298.098C4961.16 299.345 4956.55 301 4952.11 303.046Z" fill="#60C9EB" stroke="#60C9EB" stroke-width="4.45165" stroke-miterlimit="10" stroke-linejoin="round"/>
<path d="M4965.94 298.253C4970.75 295.559 4975.74 293.21 4980.88 291.224L4979.58 288.41C4974.46 290.412 4969.48 292.76 4964.68 295.439C4959.92 296.7 4955.29 298.373 4950.82 300.439L4950.66 300.439L4951.97 303.187C4956.48 301.144 4961.15 299.493 4965.94 298.253ZM4964.85 295.74C4969.56 293.116 4974.43 290.811 4979.44 288.842L4980.44 291.041C4975.42 293.002 4970.54 295.307 4965.83 297.939C4961.16 299.177 4956.59 300.811 4952.19 302.821L4951.17 300.661C4955.58 298.637 4960.16 296.99 4964.85 295.74Z" fill="#60C9EB" stroke="#60C9EB" stroke-width="4.45165" stroke-miterlimit="10" stroke-linejoin="round"/>
<path d="M4979.17 304.891C4974.58 302.251 4969.79 299.984 4964.83 298.11L4965.89 295.571C4970.92 297.498 4975.78 299.826 4980.42 302.535L4979.17 304.891Z" fill="#60C9EB" stroke="#60C9EB" stroke-width="4.45165" stroke-miterlimit="10" stroke-linejoin="round"/>
<path d="M4980.65 302.469C4975.91 299.693 4970.94 297.311 4965.81 295.348L4964.62 298.215C4969.67 300.103 4974.56 302.41 4979.24 305.113L4980.65 302.469ZM4965.99 295.78C4970.91 297.67 4975.66 299.946 4980.22 302.587L4979.12 304.668C4974.61 302.085 4969.91 299.861 4965.05 298.019L4965.99 295.78Z" fill="#60C9EB" stroke="#60C9EB" stroke-width="4.45165" stroke-miterlimit="10" stroke-linejoin="round"/>
<path d="M5379.94 294.047L5379.28 291.425C5381.53 290.879 5383.8 290.381 5386.08 289.856C5388.35 289.332 5390.68 289.037 5392.98 288.626C5397.83 286.509 5402.8 284.675 5407.87 283.131L5408.77 285.723C5406.15 286.468 5403.6 287.375 5401.1 288.298C5398.61 289.221 5396.13 290.272 5393.76 291.267C5391.42 291.59 5389.11 292.095 5386.8 292.506C5384.49 292.916 5382.21 293.536 5379.94 294.047Z" fill="#60C9EB" stroke="#60C9EB" stroke-width="4.45165" stroke-miterlimit="10" stroke-linejoin="round"/>
<path d="M5393.8 291.42C5396.28 290.407 5398.74 289.29 5401.24 288.419L5405.08 287.045C5406.33 286.609 5407.68 286.235 5409.01 285.827L5408.01 282.919C5402.89 284.475 5397.87 286.325 5392.96 288.457C5390.64 288.87 5388.34 289.281 5386.06 289.687C5383.78 290.093 5381.5 290.697 5379.26 291.242L5379.09 291.272L5379.84 294.223C5382.13 293.683 5384.44 293.139 5386.77 292.644C5389.1 292.15 5391.42 291.762 5393.8 291.42ZM5393.02 288.779C5397.83 286.692 5402.75 284.875 5407.77 283.335L5408.56 285.614C5403.51 287.142 5398.56 288.974 5393.73 291.1C5391.41 291.433 5389.13 291.919 5386.85 292.325C5384.56 292.731 5382.31 293.345 5380.06 293.852L5379.49 291.535L5386.19 290.008C5388.46 289.604 5390.74 289.16 5393.02 288.779Z" fill="#60C9EB" stroke="#60C9EB" stroke-width="4.45165" stroke-miterlimit="10" stroke-linejoin="round"/>
<path d="M5406.12 299.301C5404.03 297.798 5401.86 296.47 5399.62 295.047C5397.39 293.623 5395.17 292.424 5392.74 291.127L5394.03 288.756C5398.71 291.238 5403.23 294.008 5407.57 297.049L5406.12 299.301Z" fill="#60C9EB" stroke="#60C9EB" stroke-width="4.45165" stroke-miterlimit="10" stroke-linejoin="round"/>
<path d="M5407.79 297.013C5405.62 295.445 5403.39 294.021 5401.09 292.596C5398.79 291.171 5396.4 289.88 5393.97 288.545L5392.52 291.21C5394.93 292.535 5397.28 293.833 5399.55 295.211C5401.81 296.589 5404.03 298.015 5406.17 299.549L5407.79 297.013ZM5394.1 288.974C5398.68 291.41 5403.11 294.125 5407.35 297.104L5406.09 299.085C5404.03 297.604 5401.9 296.308 5399.7 294.904C5397.51 293.499 5395.26 292.331 5392.96 291.053L5394.1 288.974Z" fill="#60C9EB" stroke="#60C9EB" stroke-width="4.45165" stroke-miterlimit="10" stroke-linejoin="round"/>
<path d="M5302.54 279.681L5301.44 277.208C5303.34 276.252 5305.37 275.454 5307.28 274.59C5309.19 273.726 5311.21 273.072 5313.29 272.326C5315.25 270.899 5317.29 269.707 5319.37 268.307C5321.45 266.906 5323.59 265.807 5325.76 264.551L5327.07 266.972C5324.86 268.163 5322.72 269.485 5320.62 270.728C5318.51 271.972 5316.48 273.346 5314.5 274.786C5310.43 276.198 5306.44 277.832 5302.54 279.681Z" fill="#FFE600" stroke="#FFE600" stroke-width="4.45165" stroke-miterlimit="10" stroke-linejoin="round"/>
<path d="M5314.56 275.035C5316.56 273.634 5318.63 272.299 5320.73 270.924C5322.84 269.55 5325.04 268.307 5327.28 267.142L5325.89 264.432C5323.69 265.741 5321.53 266.906 5319.42 268.202C5317.32 269.497 5315.26 270.82 5313.29 272.259C5311.27 273.019 5309.23 273.673 5307.28 274.537C5305.33 275.401 5303.35 276.147 5301.44 277.089L5301.31 277.155L5302.54 279.93C5306.45 278.083 5310.47 276.449 5314.56 275.035ZM5313.4 272.574C5315.34 271.16 5317.33 269.956 5319.42 268.581C5321.52 267.207 5323.61 266.121 5325.76 264.864L5326.86 266.998C5324.67 268.189 5322.55 269.485 5320.47 270.715C5318.39 271.946 5316.39 273.333 5314.44 274.733C5310.43 276.11 5306.49 277.705 5302.66 279.511L5301.7 277.325C5305.49 275.519 5309.38 273.92 5313.34 272.534L5313.4 272.574Z" fill="#FFE600" stroke="#FFE600" stroke-width="4.45165" stroke-miterlimit="10" stroke-linejoin="round"/>
<path d="M5326.93 280.859C5322.57 278.61 5318.09 276.617 5313.51 274.891L5314.25 272.273C5316.64 273.189 5318.95 274.157 5321.21 275.126C5323.46 276.094 5325.69 277.22 5327.85 278.333C5327.54 279.197 5327.23 280.022 5326.93 280.859Z" fill="#FFE600" stroke="#FFE600" stroke-width="4.45165" stroke-miterlimit="10" stroke-linejoin="round"/>
<path d="M5328.02 278.323C5325.82 277.158 5323.57 276.124 5321.24 275.038C5318.91 273.951 5316.57 273.048 5314.15 272.119L5313.31 274.999C5317.98 276.753 5322.55 278.78 5326.99 281.072C5327.33 280.142 5327.64 279.226 5328.02 278.323ZM5314.34 272.525C5316.66 273.428 5318.94 274.384 5321.14 275.326C5323.33 276.269 5325.53 277.394 5327.68 278.467L5326.87 280.64C5322.6 278.449 5318.2 276.496 5313.71 274.789L5314.34 272.525Z" fill="#FFE600" stroke="#FFE600" stroke-width="4.45165" stroke-miterlimit="10" stroke-linejoin="round"/>
<path d="M5019.02 280.095L5017.92 277.622C5019.82 276.666 5021.85 275.868 5023.76 275.004C5025.67 274.14 5027.68 273.486 5029.76 272.74C5031.73 271.313 5033.77 270.121 5035.85 268.721C5037.93 267.32 5040.07 266.221 5042.24 264.965L5043.55 267.386C5041.34 268.577 5039.2 269.899 5037.09 271.142C5034.99 272.386 5032.96 273.76 5030.98 275.2C5026.91 276.612 5022.91 278.246 5019.02 280.095Z" fill="#FFE600" stroke="#FFE600" stroke-width="4.45165" stroke-miterlimit="10" stroke-linejoin="round"/>
<path d="M5031.03 275.45C5033.04 274.049 5035.11 272.714 5037.21 271.339C5039.32 269.965 5041.52 268.722 5043.76 267.557L5042.37 264.847C5040.17 266.156 5038.01 267.321 5035.9 268.617C5033.8 269.913 5031.74 271.235 5029.76 272.674C5027.75 273.434 5025.71 274.088 5023.76 274.952C5021.81 275.816 5019.83 276.562 5017.92 277.504L5017.79 277.57L5019.02 280.345C5022.93 278.498 5026.94 276.864 5031.03 275.45ZM5029.88 272.989C5031.82 271.575 5033.81 270.371 5035.9 268.996C5038 267.622 5040.09 266.536 5042.24 265.279L5043.34 267.413C5041.15 268.604 5039.03 269.9 5036.95 271.13C5034.87 272.361 5032.87 273.748 5030.92 275.149C5026.91 276.525 5022.97 278.12 5019.14 279.926L5018.18 277.74C5021.97 275.934 5025.85 274.335 5029.82 272.949L5029.88 272.989Z" fill="#FFE600" stroke="#FFE600" stroke-width="4.45165" stroke-miterlimit="10" stroke-linejoin="round"/>
<path d="M5043.4 281.275C5039.05 279.026 5034.57 277.033 5029.98 275.306L5030.73 272.688C5033.11 273.605 5035.43 274.573 5037.68 275.541C5039.93 276.51 5042.17 277.636 5044.33 278.748C5044.01 279.612 5043.7 280.437 5043.4 281.275Z" fill="#FFE600" stroke="#FFE600" stroke-width="4.45165" stroke-miterlimit="10" stroke-linejoin="round"/>
<path d="M5044.51 278.736C5042.31 277.571 5040.05 276.537 5037.72 275.451C5035.4 274.365 5033.05 273.461 5030.63 272.532L5029.79 275.412C5034.47 277.166 5039.04 279.193 5043.47 281.485C5043.81 280.556 5044.13 279.639 5044.51 278.736ZM5030.83 272.938C5033.14 273.841 5035.42 274.797 5037.62 275.739C5039.82 276.682 5042.02 277.807 5044.16 278.88L5043.35 281.053C5039.08 278.862 5034.69 276.909 5030.2 275.202L5030.83 272.938Z" fill="#FFE600" stroke="#FFE600" stroke-width="4.45165" stroke-miterlimit="10" stroke-linejoin="round"/>
<path d="M5451.51 270.646L5450.62 268.091C5452.59 267.295 5454.68 266.666 5456.65 265.962C5458.63 265.258 5460.69 264.772 5462.83 264.2C5464.9 262.939 5467.04 261.92 5469.22 260.695C5471.41 259.471 5473.63 258.551 5475.9 257.478L5477 259.998C5474.7 261.003 5472.47 262.145 5470.26 263.211C5468.06 264.277 5465.93 265.48 5463.84 266.752C5459.66 267.824 5455.55 269.123 5451.51 270.646Z" fill="#FFE600" stroke="#FFE600" stroke-width="4.45165" stroke-miterlimit="10" stroke-linejoin="round"/>
<path d="M5463.87 267.006C5465.98 265.775 5468.15 264.615 5470.37 263.418C5472.58 262.222 5474.87 261.164 5477.2 260.187L5476.04 257.373C5473.74 258.496 5471.49 259.479 5469.29 260.597C5467.08 261.715 5464.92 262.864 5462.83 264.136C5460.76 264.727 5458.67 265.211 5456.66 265.912C5454.64 266.612 5452.61 267.193 5450.63 267.975L5450.5 268.03L5451.49 270.897C5455.55 269.378 5459.68 268.079 5463.87 267.006ZM5462.93 264.459C5464.97 263.21 5467.06 262.173 5469.26 260.976C5471.46 259.778 5473.63 258.868 5475.88 257.792L5476.8 260.009C5474.52 261.016 5472.3 262.134 5470.12 263.189C5467.95 264.244 5465.84 265.461 5463.78 266.697C5459.67 267.739 5455.62 269.004 5451.65 270.489L5450.87 268.232C5454.8 266.743 5458.8 265.469 5462.86 264.414L5462.93 264.459Z" fill="#FFE600" stroke="#FFE600" stroke-width="4.45165" stroke-miterlimit="10" stroke-linejoin="round"/>
<path d="M5475.72 273.827C5471.57 271.228 5467.26 268.873 5462.84 266.775L5463.8 264.227C5466.1 265.336 5468.32 266.492 5470.49 267.642C5472.65 268.793 5474.79 270.099 5476.85 271.386C5476.47 272.221 5476.09 273.017 5475.72 273.827Z" fill="#FFE600" stroke="#FFE600" stroke-width="4.45165" stroke-miterlimit="10" stroke-linejoin="round"/>
<path d="M5477.03 271.389C5474.94 270.047 5472.78 268.831 5470.55 267.557C5468.31 266.282 5466.05 265.189 5463.72 264.064L5462.64 266.865C5467.16 268.998 5471.54 271.394 5475.78 274.043C5476.19 273.145 5476.58 272.257 5477.03 271.389ZM5463.88 264.485C5466.11 265.575 5468.3 266.715 5470.42 267.835C5472.53 268.956 5474.63 270.258 5476.68 271.505L5475.69 273.603C5471.62 271.067 5467.4 268.76 5463.07 266.69L5463.88 264.485Z" fill="#FFE600" stroke="#FFE600" stroke-width="4.45165" stroke-miterlimit="10" stroke-linejoin="round"/>
</g>
<g clip-path="url(#clip3_21_1280)">
<path d="M3532.54 283.493L3531.79 280.875C3535.84 279.593 3539.95 278.561 3544.12 277.786C3548.47 275.574 3553.03 273.79 3557.72 272.459L3558.37 275.077C3553.7 276.369 3549.18 278.123 3544.87 280.313C3540.7 281.103 3536.58 282.166 3532.54 283.493Z" fill="#FFE600" stroke="#FFE600" stroke-width="4.45165" stroke-miterlimit="10" stroke-linejoin="round"/>
<path d="M3544.9 280.565C3549.27 278.333 3553.85 276.552 3558.59 275.251C3558.36 274.269 3558.13 273.287 3557.88 272.292C3553.13 273.626 3548.52 275.424 3544.12 277.659C3539.95 278.434 3535.83 279.465 3531.78 280.748H3531.64L3532.49 283.667C3536.55 282.368 3540.7 281.332 3544.9 280.565ZM3544.15 277.947C3548.46 275.774 3552.96 274.02 3557.61 272.711L3558.18 275.028C3553.57 276.325 3549.1 278.079 3544.83 280.264C3540.7 281.013 3536.63 282.027 3532.63 283.301L3531.98 281.01C3535.98 279.742 3540.06 278.719 3544.19 277.947H3544.15Z" fill="#FFE600" stroke="#FFE600" stroke-width="4.45165" stroke-miterlimit="10" stroke-linejoin="round"/>
<path d="M3555.23 288.558C3551.83 285.348 3548.04 282.574 3543.95 280.299L3545.06 277.89C3549.21 280.241 3553.07 283.079 3556.54 286.346C3556.1 287.026 3555.66 287.799 3555.23 288.558Z" fill="#FFE600" stroke="#FFE600" stroke-width="4.45165" stroke-miterlimit="10" stroke-linejoin="round"/>
<path d="M3556.72 286.322C3553.17 282.966 3549.21 280.06 3544.94 277.67L3543.7 280.367C3547.87 282.681 3551.74 285.508 3555.2 288.783C3555.74 287.932 3556.21 287.134 3556.72 286.322ZM3545.13 278.115C3549.18 280.426 3552.96 283.203 3556.37 286.388C3555.98 287.016 3555.58 287.697 3555.2 288.338C3551.86 285.194 3548.15 282.469 3544.14 280.223L3545.13 278.115Z" fill="#FFE600" stroke="#FFE600" stroke-width="4.45165" stroke-miterlimit="10" stroke-linejoin="round"/>
<path d="M3264.91 283.906L3264.16 281.288C3268.21 280.005 3272.32 278.973 3276.49 278.199C3280.84 275.987 3285.4 274.203 3290.09 272.872L3290.74 275.489C3286.07 276.781 3281.55 278.535 3277.24 280.725C3273.07 281.516 3268.95 282.578 3264.91 283.906Z" fill="#FFE600" stroke="#FFE600" stroke-width="4.45165" stroke-miterlimit="10" stroke-linejoin="round"/>
<path d="M3277.26 280.977C3281.63 278.745 3286.22 276.964 3290.95 275.663C3290.73 274.681 3290.49 273.699 3290.24 272.705C3285.49 274.038 3280.89 275.836 3276.49 278.071C3272.31 278.846 3268.19 279.877 3264.14 281.16H3264L3264.85 284.079C3268.92 282.78 3273.06 281.744 3277.26 280.977ZM3276.51 278.359C3280.82 276.186 3285.33 274.433 3289.97 273.124L3290.54 275.44C3285.93 276.738 3281.46 278.491 3277.19 280.676C3273.07 281.425 3268.99 282.44 3264.99 283.713L3264.34 281.422C3268.34 280.154 3272.42 279.131 3276.55 278.359H3276.51Z" fill="#FFE600" stroke="#FFE600" stroke-width="4.45165" stroke-miterlimit="10" stroke-linejoin="round"/>
<path d="M3287.6 288.972C3284.2 285.763 3280.41 282.988 3276.32 280.713L3277.43 278.304C3281.58 280.655 3285.44 283.493 3288.91 286.76C3288.47 287.44 3288.03 288.213 3287.6 288.972Z" fill="#FFE600" stroke="#FFE600" stroke-width="4.45165" stroke-miterlimit="10" stroke-linejoin="round"/>
<path d="M3289.09 286.736C3285.53 283.379 3281.57 280.473 3277.31 278.084L3276.06 280.78C3280.23 283.094 3284.1 285.922 3287.57 289.197C3288.1 288.346 3288.58 287.547 3289.09 286.736ZM3277.49 278.529C3281.55 280.84 3285.32 283.616 3288.73 286.801C3288.34 287.43 3287.95 288.11 3287.57 288.752C3284.22 285.608 3280.51 282.883 3276.51 280.636L3277.49 278.529Z" fill="#FFE600" stroke="#FFE600" stroke-width="4.45165" stroke-miterlimit="10" stroke-linejoin="round"/>
<path d="M3461.79 297.711L3461.27 295.05C3466.25 294.197 3471.3 293.95 3476.34 294.312C3479.09 293.824 3481.87 293.49 3484.67 293.313C3486.08 293.197 3487.44 293.214 3488.87 293.185C3490.3 293.155 3491.75 293.12 3493.17 293.258L3493.27 296.034C3490.48 295.85 3487.57 296.032 3484.85 296.092C3483.46 296.193 3482.05 296.356 3480.69 296.498L3478.65 296.736C3477.97 296.831 3477.23 297.02 3476.61 297.105L3472.91 296.896L3469.19 296.994L3467.33 297.062L3465.5 297.283C3464.23 297.392 3463 297.517 3461.79 297.711Z" fill="#60C9EB" stroke="#60C9EB" stroke-width="4.45165" stroke-miterlimit="10" stroke-linejoin="round"/>
<path d="M3476.56 297.22C3477.25 297.088 3477.97 296.915 3478.63 296.846L3480.67 296.609C3482.05 296.469 3483.48 296.29 3484.88 296.211C3487.66 296.13 3490.58 295.969 3493.41 296.159L3493.31 293.056C3491.9 292.957 3490.42 292.997 3488.99 292.998C3487.56 292.998 3486.16 293.023 3484.73 293.136C3481.91 293.31 3479.1 293.646 3476.32 294.142C3471.28 293.776 3466.21 294.026 3461.23 294.886L3461.06 294.916L3461.64 297.904C3462.86 297.684 3464.08 297.578 3465.32 297.408L3467.18 297.172C3467.81 297.134 3468.43 297.133 3469.04 297.104L3472.81 297.003L3476.56 297.22ZM3476.33 294.48C3479.05 293.99 3481.8 293.658 3484.56 293.486C3485.97 293.359 3487.32 293.384 3488.74 293.344C3490.16 293.304 3491.59 293.274 3492.96 293.368L3493.05 295.805L3490.97 295.718L3488.85 295.756L3484.7 295.874C3483.32 295.985 3481.93 296.133 3480.59 296.278L3478.58 296.511C3477.89 296.613 3477.22 296.748 3476.55 296.872L3472.88 296.669L3469.19 296.762L3467.37 296.825L3465.54 297.038L3461.91 297.506L3461.47 295.165C3466.37 294.354 3471.34 294.132 3476.3 294.503L3476.33 294.48Z" fill="#60C9EB" stroke="#60C9EB" stroke-width="4.45165" stroke-miterlimit="10" stroke-linejoin="round"/>
<path d="M3486.53 308.082C3483.34 303.846 3479.64 300.02 3475.52 296.691C3476.13 295.996 3476.74 295.311 3477.38 294.63C3478.49 295.491 3479.54 296.417 3480.54 297.405C3481.51 298.317 3482.53 299.285 3483.46 300.257C3484.39 301.23 3485.25 302.285 3486.11 303.294L3487.37 304.774L3488.55 306.363L3486.53 308.082Z" fill="#60C9EB" stroke="#60C9EB" stroke-width="4.45165" stroke-miterlimit="10" stroke-linejoin="round"/>
<path d="M3488.81 306.42L3487.61 304.799C3487.21 304.262 3486.78 303.785 3486.33 303.269C3485.48 302.271 3484.55 301.215 3483.62 300.177C3482.69 299.14 3481.67 298.237 3480.64 297.251C3479.62 296.248 3478.54 295.302 3477.41 294.418C3476.69 295.18 3475.99 295.955 3475.32 296.726C3479.52 300.103 3483.28 303.99 3486.52 308.294C3487.25 307.666 3488.03 307.043 3488.81 306.42ZM3477.43 294.889C3478.51 295.737 3479.54 296.644 3480.52 297.606C3481.48 298.519 3482.44 299.439 3483.36 300.39C3484.27 301.341 3485.1 302.355 3485.95 303.353C3486.8 304.311 3487.6 305.311 3488.35 306.351L3486.56 307.841C3483.43 303.705 3479.81 299.962 3475.79 296.692L3477.43 294.889Z" fill="#60C9EB" stroke="#60C9EB" stroke-width="4.45165" stroke-miterlimit="10" stroke-linejoin="round"/>
<path d="M3328.11 303.046L3326.94 300.586C3331.41 298.529 3336.04 296.856 3340.79 295.586C3345.54 292.939 3350.47 290.617 3355.53 288.635L3356.66 291.135C3351.58 293.113 3346.65 295.44 3341.89 298.099C3337.16 299.345 3332.55 301.001 3328.11 303.046Z" fill="#60C9EB" stroke="#60C9EB" stroke-width="4.45165" stroke-miterlimit="10" stroke-linejoin="round"/>
<path d="M3341.94 298.253C3346.75 295.56 3351.74 293.211 3356.88 291.224L3355.58 288.41C3350.46 290.413 3345.48 292.761 3340.68 295.439C3335.92 296.7 3331.29 298.373 3326.82 300.439L3326.66 300.439L3327.97 303.188C3332.48 301.145 3337.15 299.494 3341.94 298.253ZM3340.85 295.74C3345.56 293.116 3350.43 290.812 3355.44 288.842L3356.44 291.041C3351.42 293.003 3346.54 295.308 3341.83 297.939C3337.16 299.178 3332.59 300.811 3328.19 302.821L3327.17 300.662C3331.58 298.637 3336.16 296.991 3340.85 295.74Z" fill="#60C9EB" stroke="#60C9EB" stroke-width="4.45165" stroke-miterlimit="10" stroke-linejoin="round"/>
<path d="M3355.17 304.891C3350.58 302.252 3345.79 299.984 3340.83 298.111L3341.89 295.572C3346.92 297.498 3351.78 299.827 3356.42 302.535L3355.17 304.891Z" fill="#60C9EB" stroke="#60C9EB" stroke-width="4.45165" stroke-miterlimit="10" stroke-linejoin="round"/>
<path d="M3356.65 302.469C3351.91 299.693 3346.94 297.312 3341.81 295.349L3340.62 298.215C3345.67 300.104 3350.57 302.411 3355.24 305.113L3356.65 302.469ZM3341.99 295.781C3346.91 297.671 3351.66 299.947 3356.22 302.587L3355.12 304.668C3350.61 302.085 3345.91 299.862 3341.05 298.019L3341.99 295.781Z" fill="#60C9EB" stroke="#60C9EB" stroke-width="4.45165" stroke-miterlimit="10" stroke-linejoin="round"/>
<path d="M3395.02 280.095L3393.92 277.622C3395.82 276.666 3397.85 275.868 3399.76 275.004C3401.67 274.14 3403.68 273.486 3405.76 272.74C3407.73 271.313 3409.77 270.121 3411.85 268.721C3413.93 267.32 3416.07 266.221 3418.24 264.965L3419.55 267.386C3417.34 268.577 3415.2 269.899 3413.09 271.142C3410.99 272.386 3408.96 273.76 3406.98 275.2C3402.91 276.612 3398.91 278.246 3395.02 280.095Z" fill="#FFE600" stroke="#FFE600" stroke-width="4.45165" stroke-miterlimit="10" stroke-linejoin="round"/>
<path d="M3407.03 275.45C3409.04 274.049 3411.11 272.714 3413.21 271.339C3415.32 269.965 3417.52 268.722 3419.76 267.557L3418.37 264.847C3416.17 266.156 3414.01 267.321 3411.9 268.617C3409.8 269.913 3407.74 271.235 3405.76 272.674C3403.75 273.434 3401.71 274.088 3399.76 274.952C3397.81 275.816 3395.83 276.562 3393.92 277.504L3393.79 277.57L3395.02 280.345C3398.93 278.498 3402.94 276.864 3407.03 275.45ZM3405.88 272.989C3407.82 271.575 3409.81 270.371 3411.9 268.996C3414 267.622 3416.09 266.536 3418.24 265.279L3419.34 267.413C3417.15 268.604 3415.03 269.9 3412.95 271.13C3410.87 272.361 3408.87 273.748 3406.92 275.149C3402.91 276.525 3398.97 278.12 3395.14 279.926L3394.18 277.74C3397.97 275.934 3401.85 274.335 3405.82 272.949L3405.88 272.989Z" fill="#FFE600" stroke="#FFE600" stroke-width="4.45165" stroke-miterlimit="10" stroke-linejoin="round"/>
<path d="M3419.4 281.275C3415.05 279.026 3410.57 277.033 3405.98 275.306L3406.73 272.688C3409.11 273.605 3411.43 274.573 3413.68 275.541C3415.93 276.51 3418.17 277.636 3420.33 278.748C3420.01 279.612 3419.7 280.437 3419.4 281.275Z" fill="#FFE600" stroke="#FFE600" stroke-width="4.45165" stroke-miterlimit="10" stroke-linejoin="round"/>
<path d="M3420.51 278.736C3418.31 277.571 3416.05 276.537 3413.72 275.451C3411.4 274.365 3409.05 273.461 3406.63 272.532L3405.79 275.412C3410.47 277.166 3415.04 279.193 3419.47 281.485C3419.81 280.556 3420.13 279.639 3420.51 278.736ZM3406.83 272.938C3409.14 273.841 3411.42 274.797 3413.62 275.739C3415.82 276.682 3418.02 277.807 3420.16 278.88L3419.35 281.053C3415.08 278.862 3410.69 276.909 3406.2 275.202L3406.83 272.938Z" fill="#FFE600" stroke="#FFE600" stroke-width="4.45165" stroke-miterlimit="10" stroke-linejoin="round"/>
</g>
<g clip-path="url(#clip4_21_1280)">
<path d="M2452.91 283.906L2452.16 281.288C2456.21 280.005 2460.32 278.973 2464.49 278.199C2468.84 275.987 2473.4 274.203 2478.09 272.872L2478.74 275.489C2474.07 276.781 2469.55 278.535 2465.24 280.725C2461.07 281.516 2456.95 282.578 2452.91 283.906Z" fill="#FFE600" stroke="#FFE600" stroke-width="4.45165" stroke-miterlimit="10" stroke-linejoin="round"/>
<path d="M2465.26 280.977C2469.63 278.745 2474.22 276.964 2478.95 275.663C2478.73 274.681 2478.49 273.699 2478.24 272.705C2473.49 274.038 2468.89 275.836 2464.49 278.071C2460.31 278.846 2456.19 279.877 2452.14 281.16H2452L2452.85 284.079C2456.92 282.78 2461.06 281.744 2465.26 280.977ZM2464.51 278.359C2468.82 276.186 2473.33 274.433 2477.97 273.124L2478.54 275.44C2473.93 276.738 2469.46 278.491 2465.19 280.676C2461.07 281.425 2456.99 282.44 2452.99 283.713L2452.34 281.422C2456.34 280.154 2460.42 279.131 2464.55 278.359H2464.51Z" fill="#FFE600" stroke="#FFE600" stroke-width="4.45165" stroke-miterlimit="10" stroke-linejoin="round"/>
<path d="M2475.6 288.972C2472.2 285.763 2468.41 282.988 2464.32 280.713L2465.43 278.304C2469.58 280.655 2473.44 283.493 2476.91 286.76C2476.47 287.44 2476.03 288.213 2475.6 288.972Z" fill="#FFE600" stroke="#FFE600" stroke-width="4.45165" stroke-miterlimit="10" stroke-linejoin="round"/>
<path d="M2477.09 286.736C2473.53 283.379 2469.57 280.473 2465.31 278.084L2464.06 280.78C2468.23 283.094 2472.1 285.922 2475.57 289.197C2476.1 288.346 2476.58 287.547 2477.09 286.736ZM2465.49 278.529C2469.55 280.84 2473.32 283.616 2476.73 286.801C2476.34 287.43 2475.95 288.11 2475.57 288.752C2472.22 285.608 2468.51 282.883 2464.51 280.636L2465.49 278.529Z" fill="#FFE600" stroke="#FFE600" stroke-width="4.45165" stroke-miterlimit="10" stroke-linejoin="round"/>
<path d="M2649.79 297.711L2649.27 295.05C2654.25 294.197 2659.3 293.95 2664.34 294.312C2667.09 293.824 2669.87 293.49 2672.67 293.313C2674.08 293.197 2675.44 293.214 2676.87 293.185C2678.3 293.155 2679.75 293.12 2681.17 293.258L2681.27 296.034C2678.48 295.85 2675.57 296.032 2672.85 296.092C2671.46 296.193 2670.05 296.356 2668.69 296.498L2666.65 296.736C2665.97 296.831 2665.23 297.02 2664.61 297.105L2660.91 296.896L2657.19 296.994L2655.33 297.062L2653.5 297.283C2652.23 297.392 2651 297.517 2649.79 297.711Z" fill="#60C9EB" stroke="#60C9EB" stroke-width="4.45165" stroke-miterlimit="10" stroke-linejoin="round"/>
<path d="M2664.56 297.22C2665.25 297.088 2665.97 296.915 2666.63 296.846L2668.67 296.609C2670.05 296.469 2671.48 296.29 2672.88 296.211C2675.66 296.13 2678.58 295.969 2681.41 296.159L2681.31 293.056C2679.9 292.957 2678.42 292.997 2676.99 292.998C2675.56 292.998 2674.16 293.023 2672.73 293.136C2669.91 293.31 2667.1 293.646 2664.32 294.142C2659.28 293.776 2654.21 294.026 2649.23 294.886L2649.06 294.916L2649.64 297.904C2650.86 297.684 2652.08 297.578 2653.32 297.408L2655.18 297.172C2655.81 297.134 2656.43 297.133 2657.04 297.104L2660.81 297.003L2664.56 297.22ZM2664.33 294.48C2667.05 293.99 2669.8 293.658 2672.56 293.486C2673.97 293.359 2675.32 293.384 2676.74 293.344C2678.16 293.304 2679.59 293.274 2680.96 293.368L2681.05 295.805L2678.97 295.718L2676.85 295.756L2672.7 295.874C2671.32 295.985 2669.93 296.133 2668.59 296.278L2666.58 296.511C2665.89 296.613 2665.22 296.748 2664.55 296.872L2660.88 296.669L2657.19 296.762L2655.37 296.825L2653.54 297.038L2649.91 297.506L2649.47 295.165C2654.37 294.354 2659.34 294.132 2664.3 294.503L2664.33 294.48Z" fill="#60C9EB" stroke="#60C9EB" stroke-width="4.45165" stroke-miterlimit="10" stroke-linejoin="round"/>
<path d="M2674.53 308.082C2671.34 303.846 2667.64 300.02 2663.52 296.691C2664.13 295.996 2664.74 295.311 2665.38 294.63C2666.49 295.491 2667.54 296.417 2668.54 297.405C2669.51 298.317 2670.53 299.285 2671.46 300.257C2672.39 301.23 2673.25 302.285 2674.11 303.294L2675.37 304.774L2676.55 306.363L2674.53 308.082Z" fill="#60C9EB" stroke="#60C9EB" stroke-width="4.45165" stroke-miterlimit="10" stroke-linejoin="round"/>
<path d="M2676.81 306.42L2675.61 304.799C2675.21 304.262 2674.78 303.785 2674.33 303.269C2673.48 302.271 2672.55 301.215 2671.62 300.177C2670.69 299.14 2669.67 298.237 2668.64 297.251C2667.62 296.248 2666.54 295.302 2665.41 294.418C2664.69 295.18 2663.99 295.955 2663.32 296.726C2667.52 300.103 2671.28 303.99 2674.52 308.294C2675.25 307.666 2676.03 307.043 2676.81 306.42ZM2665.43 294.889C2666.51 295.737 2667.54 296.644 2668.52 297.606C2669.48 298.519 2670.44 299.439 2671.36 300.39C2672.27 301.341 2673.1 302.355 2673.95 303.353C2674.8 304.311 2675.6 305.311 2676.35 306.351L2674.56 307.841C2671.43 303.705 2667.81 299.962 2663.79 296.692L2665.43 294.889Z" fill="#60C9EB" stroke="#60C9EB" stroke-width="4.45165" stroke-miterlimit="10" stroke-linejoin="round"/>
<path d="M2516.11 303.046L2514.94 300.586C2519.41 298.529 2524.04 296.856 2528.79 295.586C2533.54 292.939 2538.47 290.617 2543.53 288.635L2544.66 291.135C2539.58 293.113 2534.65 295.44 2529.89 298.099C2525.16 299.345 2520.55 301.001 2516.11 303.046Z" fill="#60C9EB" stroke="#60C9EB" stroke-width="4.45165" stroke-miterlimit="10" stroke-linejoin="round"/>
<path d="M2529.94 298.253C2534.75 295.56 2539.74 293.211 2544.88 291.224L2543.58 288.41C2538.46 290.413 2533.48 292.761 2528.68 295.439C2523.92 296.7 2519.29 298.373 2514.82 300.439L2514.66 300.439L2515.97 303.188C2520.48 301.145 2525.15 299.494 2529.94 298.253ZM2528.85 295.74C2533.56 293.116 2538.43 290.812 2543.44 288.842L2544.44 291.041C2539.42 293.003 2534.54 295.308 2529.83 297.939C2525.16 299.178 2520.59 300.811 2516.19 302.821L2515.17 300.662C2519.58 298.637 2524.16 296.991 2528.85 295.74Z" fill="#60C9EB" stroke="#60C9EB" stroke-width="4.45165" stroke-miterlimit="10" stroke-linejoin="round"/>
<path d="M2543.17 304.891C2538.58 302.252 2533.79 299.984 2528.83 298.111L2529.89 295.572C2534.92 297.498 2539.78 299.827 2544.42 302.535L2543.17 304.891Z" fill="#60C9EB" stroke="#60C9EB" stroke-width="4.45165" stroke-miterlimit="10" stroke-linejoin="round"/>
<path d="M2544.65 302.469C2539.91 299.693 2534.94 297.312 2529.81 295.349L2528.62 298.215C2533.67 300.104 2538.57 302.411 2543.24 305.113L2544.65 302.469ZM2529.99 295.781C2534.91 297.671 2539.66 299.947 2544.22 302.587L2543.12 304.668C2538.61 302.085 2533.91 299.862 2529.05 298.019L2529.99 295.781Z" fill="#60C9EB" stroke="#60C9EB" stroke-width="4.45165" stroke-miterlimit="10" stroke-linejoin="round"/>
<path d="M2583.02 280.095L2581.92 277.622C2583.82 276.666 2585.85 275.868 2587.76 275.004C2589.67 274.14 2591.68 273.486 2593.76 272.74C2595.73 271.313 2597.77 270.121 2599.85 268.721C2601.93 267.32 2604.07 266.221 2606.24 264.965L2607.55 267.386C2605.34 268.577 2603.2 269.899 2601.09 271.142C2598.99 272.386 2596.96 273.76 2594.98 275.2C2590.91 276.612 2586.91 278.246 2583.02 280.095Z" fill="#FFE600" stroke="#FFE600" stroke-width="4.45165" stroke-miterlimit="10" stroke-linejoin="round"/>
<path d="M2595.03 275.45C2597.04 274.049 2599.11 272.714 2601.21 271.339C2603.32 269.965 2605.52 268.722 2607.76 267.557L2606.37 264.847C2604.17 266.156 2602.01 267.321 2599.9 268.617C2597.8 269.913 2595.74 271.235 2593.76 272.674C2591.75 273.434 2589.71 274.088 2587.76 274.952C2585.81 275.816 2583.83 276.562 2581.92 277.504L2581.79 277.57L2583.02 280.345C2586.93 278.498 2590.94 276.864 2595.03 275.45ZM2593.88 272.989C2595.82 271.575 2597.81 270.371 2599.9 268.996C2602 267.622 2604.09 266.536 2606.24 265.279L2607.34 267.413C2605.15 268.604 2603.03 269.9 2600.95 271.13C2598.87 272.361 2596.87 273.748 2594.92 275.149C2590.91 276.525 2586.97 278.12 2583.14 279.926L2582.18 277.74C2585.97 275.934 2589.85 274.335 2593.82 272.949L2593.88 272.989Z" fill="#FFE600" stroke="#FFE600" stroke-width="4.45165" stroke-miterlimit="10" stroke-linejoin="round"/>
<path d="M2607.4 281.275C2603.05 279.026 2598.57 277.033 2593.98 275.306L2594.73 272.688C2597.11 273.605 2599.43 274.573 2601.68 275.541C2603.93 276.51 2606.17 277.636 2608.33 278.748C2608.01 279.612 2607.7 280.437 2607.4 281.275Z" fill="#FFE600" stroke="#FFE600" stroke-width="4.45165" stroke-miterlimit="10" stroke-linejoin="round"/>
<path d="M2608.51 278.736C2606.31 277.571 2604.05 276.537 2601.72 275.451C2599.4 274.365 2597.05 273.461 2594.63 272.532L2593.79 275.412C2598.47 277.166 2603.04 279.193 2607.47 281.485C2607.81 280.556 2608.13 279.639 2608.51 278.736ZM2594.83 272.938C2597.14 273.841 2599.42 274.797 2601.62 275.739C2603.82 276.682 2606.02 277.807 2608.16 278.88L2607.35 281.053C2603.08 278.862 2598.69 276.909 2594.2 275.202L2594.83 272.938Z" fill="#FFE600" stroke="#FFE600" stroke-width="4.45165" stroke-miterlimit="10" stroke-linejoin="round"/>
</g>
<path d="M1640.91 283.906L1640.16 281.288C1644.21 280.005 1648.32 278.973 1652.49 278.199C1656.84 275.987 1661.4 274.203 1666.09 272.872L1666.74 275.489C1662.07 276.781 1657.55 278.535 1653.24 280.725C1649.07 281.516 1644.95 282.578 1640.91 283.906Z" fill="#FFE600" stroke="#FFE600" stroke-width="4.45165" stroke-miterlimit="10" stroke-linejoin="round"/>
<path d="M1653.26 280.977C1657.63 278.745 1662.22 276.964 1666.95 275.663C1666.73 274.681 1666.49 273.699 1666.24 272.705C1661.49 274.038 1656.89 275.836 1652.49 278.071C1648.31 278.846 1644.19 279.877 1640.14 281.16H1640L1640.85 284.079C1644.92 282.78 1649.06 281.744 1653.26 280.977ZM1652.51 278.359C1656.82 276.186 1661.33 274.433 1665.97 273.124L1666.54 275.44C1661.93 276.738 1657.46 278.491 1653.19 280.676C1649.07 281.425 1644.99 282.44 1640.99 283.713L1640.34 281.422C1644.34 280.154 1648.42 279.131 1652.55 278.359H1652.51Z" fill="#FFE600" stroke="#FFE600" stroke-width="4.45165" stroke-miterlimit="10" stroke-linejoin="round"/>
<path d="M1663.6 288.972C1660.2 285.763 1656.41 282.988 1652.32 280.713L1653.43 278.304C1657.58 280.655 1661.44 283.493 1664.91 286.76C1664.47 287.44 1664.03 288.213 1663.6 288.972Z" fill="#FFE600" stroke="#FFE600" stroke-width="4.45165" stroke-miterlimit="10" stroke-linejoin="round"/>
<path d="M1665.09 286.736C1661.53 283.379 1657.57 280.473 1653.31 278.084L1652.06 280.78C1656.23 283.094 1660.1 285.922 1663.57 289.197C1664.1 288.346 1664.58 287.547 1665.09 286.736ZM1653.49 278.529C1657.55 280.84 1661.32 283.616 1664.73 286.801C1664.34 287.43 1663.95 288.11 1663.57 288.752C1660.22 285.608 1656.51 282.883 1652.51 280.636L1653.49 278.529Z" fill="#FFE600" stroke="#FFE600" stroke-width="4.45165" stroke-miterlimit="10" stroke-linejoin="round"/>
<path d="M1704.11 303.046L1702.94 300.586C1707.41 298.529 1712.04 296.856 1716.79 295.586C1721.54 292.939 1726.47 290.617 1731.53 288.635L1732.66 291.135C1727.58 293.113 1722.65 295.44 1717.89 298.099C1713.16 299.345 1708.55 301.001 1704.11 303.046Z" fill="#60C9EB" stroke="#60C9EB" stroke-width="4.45165" stroke-miterlimit="10" stroke-linejoin="round"/>
<path d="M1717.94 298.253C1722.75 295.56 1727.74 293.211 1732.88 291.224L1731.58 288.41C1726.46 290.413 1721.48 292.761 1716.68 295.439C1711.92 296.7 1707.29 298.373 1702.82 300.439L1702.66 300.439L1703.97 303.188C1708.48 301.145 1713.15 299.494 1717.94 298.253ZM1716.85 295.74C1721.56 293.116 1726.43 290.812 1731.44 288.842L1732.44 291.041C1727.42 293.003 1722.54 295.308 1717.83 297.939C1713.16 299.178 1708.59 300.811 1704.19 302.821L1703.17 300.662C1707.58 298.637 1712.16 296.991 1716.85 295.74Z" fill="#60C9EB" stroke="#60C9EB" stroke-width="4.45165" stroke-miterlimit="10" stroke-linejoin="round"/>
<path d="M1731.17 304.891C1726.58 302.252 1721.79 299.984 1716.83 298.111L1717.89 295.572C1722.92 297.498 1727.78 299.827 1732.42 302.535L1731.17 304.891Z" fill="#60C9EB" stroke="#60C9EB" stroke-width="4.45165" stroke-miterlimit="10" stroke-linejoin="round"/>
<path d="M1732.65 302.469C1727.91 299.693 1722.94 297.312 1717.81 295.349L1716.62 298.215C1721.67 300.104 1726.57 302.411 1731.24 305.113L1732.65 302.469ZM1717.99 295.781C1722.91 297.671 1727.66 299.947 1732.22 302.587L1731.12 304.668C1726.61 302.085 1721.91 299.862 1717.05 298.019L1717.99 295.781Z" fill="#60C9EB" stroke="#60C9EB" stroke-width="4.45165" stroke-miterlimit="10" stroke-linejoin="round"/>
<path d="M1771.02 280.095L1769.92 277.622C1771.82 276.666 1773.85 275.868 1775.76 275.004C1777.67 274.14 1779.68 273.486 1781.76 272.74C1783.73 271.313 1785.77 270.121 1787.85 268.721C1789.93 267.32 1792.07 266.221 1794.24 264.965L1795.55 267.386C1793.34 268.577 1791.2 269.899 1789.09 271.142C1786.99 272.386 1784.96 273.76 1782.98 275.2C1778.91 276.612 1774.91 278.246 1771.02 280.095Z" fill="#FFE600" stroke="#FFE600" stroke-width="4.45165" stroke-miterlimit="10" stroke-linejoin="round"/>
<path d="M1783.03 275.45C1785.04 274.049 1787.11 272.714 1789.21 271.339C1791.32 269.965 1793.52 268.722 1795.76 267.557L1794.37 264.847C1792.17 266.156 1790.01 267.321 1787.9 268.617C1785.8 269.913 1783.74 271.235 1781.76 272.674C1779.75 273.434 1777.71 274.088 1775.76 274.952C1773.81 275.816 1771.83 276.562 1769.92 277.504L1769.79 277.57L1771.02 280.345C1774.93 278.498 1778.94 276.864 1783.03 275.45ZM1781.88 272.989C1783.82 271.575 1785.81 270.371 1787.9 268.996C1790 267.622 1792.09 266.536 1794.24 265.279L1795.34 267.413C1793.15 268.604 1791.03 269.9 1788.95 271.13C1786.87 272.361 1784.87 273.748 1782.92 275.149C1778.91 276.525 1774.97 278.12 1771.14 279.926L1770.18 277.74C1773.97 275.934 1777.85 274.335 1781.82 272.949L1781.88 272.989Z" fill="#FFE600" stroke="#FFE600" stroke-width="4.45165" stroke-miterlimit="10" stroke-linejoin="round"/>
<path d="M1795.4 281.275C1791.05 279.026 1786.57 277.033 1781.98 275.306L1782.73 272.688C1785.11 273.605 1787.43 274.573 1789.68 275.541C1791.93 276.51 1794.17 277.636 1796.33 278.748C1796.01 279.612 1795.7 280.437 1795.4 281.275Z" fill="#FFE600" stroke="#FFE600" stroke-width="4.45165" stroke-miterlimit="10" stroke-linejoin="round"/>
<path d="M1796.51 278.736C1794.31 277.571 1792.05 276.537 1789.72 275.451C1787.4 274.365 1785.05 273.461 1782.63 272.532L1781.79 275.412C1786.47 277.166 1791.04 279.193 1795.47 281.485C1795.81 280.556 1796.13 279.639 1796.51 278.736ZM1782.83 272.938C1785.14 273.841 1787.42 274.797 1789.62 275.739C1791.82 276.682 1794.02 277.807 1796.16 278.88L1795.35 281.053C1791.08 278.862 1786.69 276.909 1782.2 275.202L1782.83 272.938Z" fill="#FFE600" stroke="#FFE600" stroke-width="4.45165" stroke-miterlimit="10" stroke-linejoin="round"/>
<path d="M828.91 283.906L828.164 281.288C832.206 280.005 836.324 278.973 840.494 278.199C844.844 275.987 849.398 274.203 854.093 272.872L854.735 275.489C850.074 276.781 845.553 278.535 841.24 280.725C837.065 281.516 832.946 282.578 828.91 283.906Z" fill="#FFE600" stroke="#FFE600" stroke-width="4.45165" stroke-miterlimit="10" stroke-linejoin="round"/>
<path d="M841.259 280.977C845.63 278.745 850.218 276.964 854.95 275.663C854.728 274.681 854.492 273.699 854.244 272.705C849.493 274.038 844.886 275.836 840.487 278.071C836.313 278.846 832.191 279.877 828.144 281.16H828L828.851 284.079C832.916 282.78 837.061 281.744 841.259 280.977ZM840.513 278.359C844.82 276.186 849.326 274.433 853.969 273.124L854.545 275.44C849.931 276.738 845.459 278.491 841.194 280.676C837.067 281.425 832.991 282.44 828.994 283.713L828.34 281.422C832.345 280.154 836.423 279.131 840.552 278.359H840.513Z" fill="#FFE600" stroke="#FFE600" stroke-width="4.45165" stroke-miterlimit="10" stroke-linejoin="round"/>
<path d="M851.602 288.972C848.198 285.763 844.408 282.988 840.319 280.713L841.432 278.304C845.582 280.655 849.436 283.493 852.911 286.76C852.466 287.44 852.034 288.213 851.602 288.972Z" fill="#FFE600" stroke="#FFE600" stroke-width="4.45165" stroke-miterlimit="10" stroke-linejoin="round"/>
<path d="M853.086 286.736C849.529 283.379 845.573 280.473 841.306 278.084L840.062 280.78C844.234 283.094 848.099 285.922 851.567 289.197C852.104 288.346 852.576 287.547 853.086 286.736ZM841.489 278.529C845.546 280.84 849.319 283.616 852.733 286.801C852.34 287.43 851.947 288.11 851.567 288.752C848.224 285.608 844.51 282.883 840.507 280.636L841.489 278.529Z" fill="#FFE600" stroke="#FFE600" stroke-width="4.45165" stroke-miterlimit="10" stroke-linejoin="round"/>
<path d="M892.11 303.046L890.944 300.585C895.41 298.529 900.043 296.856 904.793 295.585C909.543 292.938 914.468 290.616 919.532 288.635L920.657 291.135C915.581 293.113 910.648 295.439 905.893 298.098C901.164 299.345 896.552 301 892.11 303.046Z" fill="#60C9EB" stroke="#60C9EB" stroke-width="4.45165" stroke-miterlimit="10" stroke-linejoin="round"/>
<path d="M905.937 298.253C910.747 295.559 915.742 293.21 920.885 291.224L919.576 288.41C914.457 290.412 909.48 292.76 904.68 295.439C899.924 296.7 895.286 298.373 890.819 300.439L890.662 300.439L891.971 303.187C896.476 301.144 901.148 299.493 905.937 298.253ZM904.851 295.74C909.555 293.116 914.431 290.811 919.445 288.842L920.44 291.041C915.418 293.002 910.537 295.307 905.832 297.939C901.156 299.177 896.593 300.811 892.193 302.821L891.173 300.661C895.585 298.637 900.16 296.99 904.851 295.74Z" fill="#60C9EB" stroke="#60C9EB" stroke-width="4.45165" stroke-miterlimit="10" stroke-linejoin="round"/>
<path d="M919.166 304.891C914.578 302.251 909.785 299.984 904.834 298.11L905.894 295.571C910.917 297.498 915.775 299.826 920.423 302.535L919.166 304.891Z" fill="#60C9EB" stroke="#60C9EB" stroke-width="4.45165" stroke-miterlimit="10" stroke-linejoin="round"/>
<path d="M920.652 302.469C915.907 299.693 910.943 297.311 905.808 295.348L904.618 298.215C909.675 300.103 914.565 302.41 919.238 305.113L920.652 302.469ZM905.992 295.78C910.906 297.67 915.664 299.946 920.22 302.587L919.12 304.668C914.612 302.085 909.907 299.861 905.049 298.019L905.992 295.78Z" fill="#60C9EB" stroke="#60C9EB" stroke-width="4.45165" stroke-miterlimit="10" stroke-linejoin="round"/>
<defs>
<clipPath id="clip0_21_1280">
<rect width="792" height="284" fill="white" transform="translate(4072 28)"/>
</clipPath>
<clipPath id="clip1_21_1280">
<rect width="792" height="284" fill="white" transform="translate(5696 28)"/>
</clipPath>
<clipPath id="clip2_21_1280">
<rect width="792" height="284" fill="white" transform="translate(4884 28)"/>
</clipPath>
<clipPath id="clip3_21_1280">
<rect width="792" height="284" fill="white" transform="translate(3260 28)"/>
</clipPath>
<clipPath id="clip4_21_1280">
<rect width="792" height="284" fill="white" transform="translate(2448 28)"/>
</clipPath>
</defs>
</svg>
