<svg width="589" height="441" viewBox="0 0 589 441" fill="none" xmlns="http://www.w3.org/2000/svg">
<path d="M19.5046 19.3811V19.3811C19.5046 18.4943 19.4125 17.2919 19.3083 15.9303C19.2965 15.7762 19.2846 15.62 19.2726 15.462C19.1546 13.9083 19.0328 12.179 19.017 10.4895C19.0013 8.80003 19.0917 7.15063 19.3983 5.75665C19.7049 4.36256 20.2274 3.22472 21.0753 2.55739C21.9235 1.88982 23.1836 1.50172 24.6628 1.29485C26.142 1.08799 27.8396 1.06241 29.5626 1.1194C31.2225 1.17431 32.9057 1.30585 34.4394 1.4257C34.4976 1.43025 34.5556 1.43478 34.6134 1.4393C36.1931 1.56264 37.6048 1.66979 38.6549 1.66193L80.9757 1.23727C137.424 0.723529 193.868 0.37242 250.306 0.183698C306.745 -0.00502339 363.188 -0.0365692 419.637 0.0892453C426.683 0.104972 468.803 0.222935 509.162 0.38218C529.341 0.461803 549.08 0.551746 563.775 0.644391C571.122 0.690714 577.208 0.737712 581.457 0.784433C583.581 0.807793 585.247 0.831084 586.381 0.854187C586.948 0.865738 587.382 0.877242 587.675 0.888682C587.821 0.894403 587.932 0.900106 588.006 0.905787C588.043 0.908629 588.071 0.911458 588.089 0.914264C588.099 0.915673 588.106 0.917047 588.11 0.918357L588.112 0.918984C588.112 0.919202 588.113 0.919418 588.113 0.919621C587.264 141.234 586.41 281.548 585.55 421.862C585.55 425.762 585.55 429.725 585.471 433.531C585.471 434.49 585.448 435.508 585.249 436.453C585.051 437.398 584.678 438.27 583.979 438.937C582.46 440.069 580.563 440.571 578.683 440.336L28.2437 439.518C26.671 439.518 24.9966 439.471 23.4599 439.125C21.9232 438.779 20.5247 438.135 19.5034 436.94C17.8377 434.992 17.7589 432.226 17.7589 429.631C17.696 377.46 17.7379 325.299 17.8847 273.149C18.042 216.753 18.3408 160.356 18.7811 103.96C18.9699 75.7566 19.211 47.5636 19.5046 19.3811Z" stroke="#E9AD62" stroke-width="0.01"/>
<mask id="path-2-inside-1_135_25983" fill="white">
<path d="M419.566 0.083024C363.118 -0.0532751 306.674 -0.0217293 250.236 0.177477C193.797 0.376683 137.354 0.727793 80.9051 1.23105L38.5842 1.65571C34.3851 1.65571 24.5087 -0.137044 21.0016 2.55224C17.4945 5.24153 19.4289 15.4324 19.4289 19.3799C19.4289 25.0415 19.3346 30.7031 19.2874 36.3804C16.6732 36.9885 14.2043 38.1055 12.0216 39.6675C6.8003 43.3947 3.07305 49.8585 4.83445 56.4166C6.40713 62.5815 12.6192 66.0571 18.6583 66.4031H19.02C18.9257 78.6228 18.7999 90.8582 18.7055 103.094C15.6003 103.48 12.5783 104.367 9.75694 105.72C3.8122 108.551 -2.73015 115.156 1.18583 122.17C4.33119 127.926 12.1946 130.128 18.4853 130.647C18.3595 147.422 18.2547 164.198 18.1708 180.973C16.1387 181.353 14.1516 181.943 12.2418 182.734C7.27211 184.81 0.415216 188.883 2.53834 195.316C3.57631 198.461 6.86321 199.641 9.7884 200.553C12.4741 201.361 15.2452 201.852 18.045 202.015C17.9716 216.977 17.9139 231.933 17.872 246.884C15.5691 246.902 13.2732 247.139 11.0151 247.592C5.19617 248.787 -0.795748 253.536 0.855568 260.173C2.33389 266.149 10.4647 269.043 15.7489 270.175C16.4203 270.337 17.1241 270.305 17.7776 270.081C17.7776 271.103 17.7776 272.11 17.7776 273.132C17.7147 296.879 17.6728 320.632 17.6518 344.39C14.8492 344.461 12.0959 345.143 9.58395 346.388C4.31546 349.045 0.147852 355.572 3.62348 361.234C6.6273 366.093 12.462 369.459 17.6361 371.692C17.6361 390.984 17.6361 410.291 17.6361 429.614C17.6361 432.177 17.7147 434.977 19.3818 436.927C21.4262 439.317 24.9805 439.49 28.1259 439.506L578.565 440.324C580.446 440.559 582.345 440.057 583.865 438.924C585.264 437.587 585.343 435.433 585.359 433.514C585.359 429.629 585.359 425.745 585.437 421.845C586.286 281.53 587.141 141.215 588.001 0.900849C588.111 0.554859 433.721 0.114478 419.566 0.083024ZM14.9468 361.595C13.1516 360.513 11.5557 359.129 10.2288 357.506C8.43589 354.896 14.0032 352.584 15.7646 352.206C16.3669 352.088 16.9763 352.009 17.5889 351.97V363.309C16.6771 362.788 15.795 362.215 14.9468 361.595V361.595ZM17.8563 262.847C15.6686 262.403 13.5521 261.663 11.5655 260.645C10.7006 260.189 8.42016 259.277 8.42016 258.081C8.15281 254.779 15.7803 254.543 17.6833 254.48H18.045C17.872 257.279 17.8563 260.063 17.8563 262.847ZM18.1393 194.404C16.4619 194.278 14.7988 194.005 13.1697 193.586C12.3676 193.366 11.2353 192.768 10.3231 192.611C10.5433 192.422 10.7477 192.186 10.9207 192.045C11.7862 191.452 12.6958 190.926 13.6415 190.472C15.0858 189.745 16.6043 189.175 18.1708 188.773C18.1708 190.629 18.1551 192.516 18.1393 194.404ZM18.5797 122.988C16.4191 122.763 14.3012 122.234 12.289 121.415C10.8421 120.849 8.40444 119.843 7.79109 118.27C7.17774 116.697 8.95488 115.266 9.99285 114.448C11.8408 113.017 13.9434 111.95 16.1892 111.303C17.0097 111.057 17.8449 110.862 18.6898 110.721C18.6269 114.826 18.6111 118.915 18.5325 122.988H18.5797ZM19.0829 58.8384C18.9415 58.8296 18.7997 58.8296 18.6583 58.8384C15.6545 58.6654 12.2103 56.7625 12.0216 53.4284C11.8014 49.481 15.167 46.2727 18.5011 44.7787L19.2088 44.4955C19.1616 49.2293 19.1301 54.0417 19.0829 58.8384ZM579.54 149.613C579.11 220.437 578.874 291.249 578.832 362.051C578.832 385.369 578.832 408.692 578.832 432.02C553.889 432.209 528.941 432.356 503.988 432.46C411.063 432.901 318.134 432.901 225.199 432.46C158.569 432.177 91.9348 431.653 25.295 430.888C25.295 404.823 25.295 378.764 25.295 352.71C26.6161 353.024 27.9214 353.402 29.1638 353.748C31.8475 354.552 34.4745 355.534 37.0272 356.689C36.6183 360.777 39.056 365.213 44.3559 365.213C54.1538 365.213 54.1695 349.957 44.3559 349.957C43.4347 349.952 42.5196 350.107 41.6509 350.414C37.3271 348.368 32.7987 346.787 28.1416 345.695C27.1823 345.46 26.2229 345.255 25.2479 345.066C25.2479 319.484 25.295 293.902 25.3894 268.32C25.3894 263.932 25.3894 259.528 25.3894 255.125C31.1615 256.343 36.7756 258.216 42.1227 260.708C42.4473 262.343 43.3449 263.808 44.6538 264.84C45.9627 265.873 47.5971 266.404 49.2627 266.338C59.0605 266.338 59.0762 251.083 49.2627 251.083C48.274 251.051 47.2896 251.228 46.3738 251.602C45.4579 251.976 44.6311 252.539 43.9471 253.253C38.024 250.587 31.805 248.633 25.4209 247.434C25.5047 227.629 25.5886 207.818 25.6725 188.003C29.7395 188.432 33.6997 189.571 37.3732 191.368C37.312 192.364 37.4582 193.361 37.8026 194.298C38.1471 195.234 38.6822 196.088 39.3741 196.807C40.0661 197.525 40.8997 198.092 41.8223 198.472C42.7448 198.852 43.7361 199.035 44.7334 199.011C54.5469 199.011 54.5627 183.772 44.7334 183.772C43.4574 183.753 42.1971 184.056 41.069 184.653C37.5083 182.886 33.7262 181.606 29.8244 180.847C28.4666 180.615 27.0957 180.468 25.7197 180.407C25.8455 157.152 25.9923 133.897 26.16 110.643C30.687 111.408 34.9856 113.176 38.7415 115.817C38.8153 117.692 39.6265 119.463 40.9988 120.744C42.3711 122.025 44.1936 122.713 46.0702 122.658C55.8837 122.658 55.8994 107.403 46.0702 107.403C44.5076 107.371 42.9756 107.839 41.6981 108.74C37.0005 105.745 31.7105 103.803 26.1915 103.046C26.3173 87.3196 26.3959 71.5928 26.5375 55.866C26.5375 51.7141 26.5375 47.5623 26.6476 43.4105C30.4518 43.8999 34.1169 45.1572 37.4204 47.1062C36.9329 51.2424 39.3548 55.7875 44.7177 55.7875C54.5312 55.7875 54.5469 40.5323 44.7177 40.5323C43.8018 40.53 42.8923 40.6843 42.0284 40.9885C37.3496 38.2095 32.1337 36.4565 26.7262 35.8458C26.7996 27.0283 26.8834 18.2109 26.9778 9.39337C93.0304 8.68042 159.083 8.15619 225.136 7.82068C318.071 7.41179 411.001 7.41179 503.925 7.82068C529.486 7.9465 555.037 8.09839 580.578 8.27663C580.179 55.4256 579.833 102.538 579.54 149.613Z"/>
</mask>
<path d="M419.566 0.083024C363.118 -0.0532751 306.674 -0.0217293 250.236 0.177477C193.797 0.376683 137.354 0.727793 80.9051 1.23105L38.5842 1.65571C34.3851 1.65571 24.5087 -0.137044 21.0016 2.55224C17.4945 5.24153 19.4289 15.4324 19.4289 19.3799C19.4289 25.0415 19.3346 30.7031 19.2874 36.3804C16.6732 36.9885 14.2043 38.1055 12.0216 39.6675C6.8003 43.3947 3.07305 49.8585 4.83445 56.4166C6.40713 62.5815 12.6192 66.0571 18.6583 66.4031H19.02C18.9257 78.6228 18.7999 90.8582 18.7055 103.094C15.6003 103.48 12.5783 104.367 9.75694 105.72C3.8122 108.551 -2.73015 115.156 1.18583 122.17C4.33119 127.926 12.1946 130.128 18.4853 130.647C18.3595 147.422 18.2547 164.198 18.1708 180.973C16.1387 181.353 14.1516 181.943 12.2418 182.734C7.27211 184.81 0.415216 188.883 2.53834 195.316C3.57631 198.461 6.86321 199.641 9.7884 200.553C12.4741 201.361 15.2452 201.852 18.045 202.015C17.9716 216.977 17.9139 231.933 17.872 246.884C15.5691 246.902 13.2732 247.139 11.0151 247.592C5.19617 248.787 -0.795748 253.536 0.855568 260.173C2.33389 266.149 10.4647 269.043 15.7489 270.175C16.4203 270.337 17.1241 270.305 17.7776 270.081C17.7776 271.103 17.7776 272.11 17.7776 273.132C17.7147 296.879 17.6728 320.632 17.6518 344.39C14.8492 344.461 12.0959 345.143 9.58395 346.388C4.31546 349.045 0.147852 355.572 3.62348 361.234C6.6273 366.093 12.462 369.459 17.6361 371.692C17.6361 390.984 17.6361 410.291 17.6361 429.614C17.6361 432.177 17.7147 434.977 19.3818 436.927C21.4262 439.317 24.9805 439.49 28.1259 439.506L578.565 440.324C580.446 440.559 582.345 440.057 583.865 438.924C585.264 437.587 585.343 435.433 585.359 433.514C585.359 429.629 585.359 425.745 585.437 421.845C586.286 281.53 587.141 141.215 588.001 0.900849C588.111 0.554859 433.721 0.114478 419.566 0.083024ZM14.9468 361.595C13.1516 360.513 11.5557 359.129 10.2288 357.506C8.43589 354.896 14.0032 352.584 15.7646 352.206C16.3669 352.088 16.9763 352.009 17.5889 351.97V363.309C16.6771 362.788 15.795 362.215 14.9468 361.595V361.595ZM17.8563 262.847C15.6686 262.403 13.5521 261.663 11.5655 260.645C10.7006 260.189 8.42016 259.277 8.42016 258.081C8.15281 254.779 15.7803 254.543 17.6833 254.48H18.045C17.872 257.279 17.8563 260.063 17.8563 262.847ZM18.1393 194.404C16.4619 194.278 14.7988 194.005 13.1697 193.586C12.3676 193.366 11.2353 192.768 10.3231 192.611C10.5433 192.422 10.7477 192.186 10.9207 192.045C11.7862 191.452 12.6958 190.926 13.6415 190.472C15.0858 189.745 16.6043 189.175 18.1708 188.773C18.1708 190.629 18.1551 192.516 18.1393 194.404ZM18.5797 122.988C16.4191 122.763 14.3012 122.234 12.289 121.415C10.8421 120.849 8.40444 119.843 7.79109 118.27C7.17774 116.697 8.95488 115.266 9.99285 114.448C11.8408 113.017 13.9434 111.95 16.1892 111.303C17.0097 111.057 17.8449 110.862 18.6898 110.721C18.6269 114.826 18.6111 118.915 18.5325 122.988H18.5797ZM19.0829 58.8384C18.9415 58.8296 18.7997 58.8296 18.6583 58.8384C15.6545 58.6654 12.2103 56.7625 12.0216 53.4284C11.8014 49.481 15.167 46.2727 18.5011 44.7787L19.2088 44.4955C19.1616 49.2293 19.1301 54.0417 19.0829 58.8384ZM579.54 149.613C579.11 220.437 578.874 291.249 578.832 362.051C578.832 385.369 578.832 408.692 578.832 432.02C553.889 432.209 528.941 432.356 503.988 432.46C411.063 432.901 318.134 432.901 225.199 432.46C158.569 432.177 91.9348 431.653 25.295 430.888C25.295 404.823 25.295 378.764 25.295 352.71C26.6161 353.024 27.9214 353.402 29.1638 353.748C31.8475 354.552 34.4745 355.534 37.0272 356.689C36.6183 360.777 39.056 365.213 44.3559 365.213C54.1538 365.213 54.1695 349.957 44.3559 349.957C43.4347 349.952 42.5196 350.107 41.6509 350.414C37.3271 348.368 32.7987 346.787 28.1416 345.695C27.1823 345.46 26.2229 345.255 25.2479 345.066C25.2479 319.484 25.295 293.902 25.3894 268.32C25.3894 263.932 25.3894 259.528 25.3894 255.125C31.1615 256.343 36.7756 258.216 42.1227 260.708C42.4473 262.343 43.3449 263.808 44.6538 264.84C45.9627 265.873 47.5971 266.404 49.2627 266.338C59.0605 266.338 59.0762 251.083 49.2627 251.083C48.274 251.051 47.2896 251.228 46.3738 251.602C45.4579 251.976 44.6311 252.539 43.9471 253.253C38.024 250.587 31.805 248.633 25.4209 247.434C25.5047 227.629 25.5886 207.818 25.6725 188.003C29.7395 188.432 33.6997 189.571 37.3732 191.368C37.312 192.364 37.4582 193.361 37.8026 194.298C38.1471 195.234 38.6822 196.088 39.3741 196.807C40.0661 197.525 40.8997 198.092 41.8223 198.472C42.7448 198.852 43.7361 199.035 44.7334 199.011C54.5469 199.011 54.5627 183.772 44.7334 183.772C43.4574 183.753 42.1971 184.056 41.069 184.653C37.5083 182.886 33.7262 181.606 29.8244 180.847C28.4666 180.615 27.0957 180.468 25.7197 180.407C25.8455 157.152 25.9923 133.897 26.16 110.643C30.687 111.408 34.9856 113.176 38.7415 115.817C38.8153 117.692 39.6265 119.463 40.9988 120.744C42.3711 122.025 44.1936 122.713 46.0702 122.658C55.8837 122.658 55.8994 107.403 46.0702 107.403C44.5076 107.371 42.9756 107.839 41.6981 108.74C37.0005 105.745 31.7105 103.803 26.1915 103.046C26.3173 87.3196 26.3959 71.5928 26.5375 55.866C26.5375 51.7141 26.5375 47.5623 26.6476 43.4105C30.4518 43.8999 34.1169 45.1572 37.4204 47.1062C36.9329 51.2424 39.3548 55.7875 44.7177 55.7875C54.5312 55.7875 54.5469 40.5323 44.7177 40.5323C43.8018 40.53 42.8923 40.6843 42.0284 40.9885C37.3496 38.2095 32.1337 36.4565 26.7262 35.8458C26.7996 27.0283 26.8834 18.2109 26.9778 9.39337C93.0304 8.68042 159.083 8.15619 225.136 7.82068C318.071 7.41179 411.001 7.41179 503.925 7.82068C529.486 7.9465 555.037 8.09839 580.578 8.27663C580.179 55.4256 579.833 102.538 579.54 149.613Z" stroke="#E9AD62" stroke-width="0.02" mask="url(#path-2-inside-1_135_25983)"/>
<path d="M81.9446 57.3064H78.045C77.8083 57.3657 77.5613 57.3702 77.3226 57.3197C77.0839 57.2692 76.8599 57.165 76.6676 57.0149C76.4753 56.8648 76.3197 56.6729 76.2127 56.4537C76.1057 56.2344 76.05 55.9938 76.05 55.7498C76.05 55.5059 76.1057 55.265 76.2127 55.0458C76.3197 54.8265 76.4753 54.6346 76.6676 54.4845C76.8599 54.3345 77.0839 54.2302 77.3226 54.1797C77.5613 54.1292 77.8083 54.1339 78.045 54.1932H81.9446C82.2916 54.2802 82.5996 54.4805 82.8196 54.7625C83.0397 55.0445 83.1592 55.3921 83.1592 55.7498C83.1592 56.1076 83.0397 56.4549 82.8196 56.7369C82.5996 57.019 82.2916 57.2194 81.9446 57.3064Z" stroke="#E9AD62" stroke-width="0.01"/>
<path d="M530.282 57.3064H522.419C522.072 57.2194 521.764 57.019 521.544 56.7369C521.324 56.4549 521.204 56.1076 521.204 55.7498C521.204 55.3921 521.324 55.0445 521.544 54.7625C521.764 54.4805 522.072 54.2802 522.419 54.1932H530.282C530.629 54.2802 530.937 54.4805 531.157 54.7625C531.377 55.0445 531.497 55.3921 531.497 55.7498C531.497 56.1076 531.377 56.4549 531.157 56.7369C530.937 57.019 530.629 57.2194 530.282 57.3064ZM506.676 57.3064H498.813C498.466 57.2194 498.158 57.019 497.938 56.7369C497.717 56.4549 497.598 56.1076 497.598 55.7498C497.598 55.3921 497.717 55.0445 497.938 54.7625C498.158 54.4805 498.466 54.2802 498.813 54.1932H506.756C506.993 54.1339 507.24 54.1292 507.479 54.1797C507.717 54.2302 507.941 54.3345 508.134 54.4845C508.326 54.6346 508.481 54.8265 508.589 55.0458C508.696 55.265 508.751 55.5059 508.751 55.7498C508.751 55.9938 508.696 56.2344 508.589 56.4537C508.481 56.6729 508.326 56.8648 508.134 57.0149C507.941 57.165 507.717 57.2692 507.479 57.3197C507.24 57.3702 506.993 57.3657 506.756 57.3064H506.676ZM483.086 57.3064H475.222C474.875 57.2194 474.567 57.019 474.347 56.7369C474.127 56.4549 474.008 56.1076 474.008 55.7498C474.008 55.3921 474.127 55.0445 474.347 54.7625C474.567 54.4805 474.875 54.2802 475.222 54.1932H483.086C483.322 54.1339 483.569 54.1292 483.808 54.1797C484.047 54.2302 484.271 54.3345 484.463 54.4845C484.655 54.6346 484.811 54.8265 484.918 55.0458C485.025 55.265 485.081 55.5059 485.081 55.7498C485.081 55.9938 485.025 56.2344 484.918 56.4537C484.811 56.6729 484.655 56.8648 484.463 57.0149C484.271 57.165 484.047 57.2692 483.808 57.3197C483.569 57.3702 483.322 57.3657 483.086 57.3064ZM459.496 57.3064H451.616C451.38 57.3657 451.132 57.3702 450.894 57.3197C450.655 57.2692 450.431 57.165 450.239 57.0149C450.046 56.8648 449.891 56.6729 449.784 56.4537C449.677 56.2344 449.621 55.9938 449.621 55.7498C449.621 55.5059 449.677 55.265 449.784 55.0458C449.891 54.8265 450.046 54.6346 450.239 54.4845C450.431 54.3345 450.655 54.2302 450.894 54.1797C451.132 54.1292 451.38 54.1339 451.616 54.1932H459.496C459.843 54.2802 460.151 54.4805 460.371 54.7625C460.591 55.0445 460.71 55.3921 460.71 55.7498C460.71 56.1076 460.591 56.4549 460.371 56.7369C460.151 57.019 459.843 57.2194 459.496 57.3064ZM435.889 57.3064H428.026C427.789 57.3657 427.542 57.3702 427.304 57.3197C427.065 57.2692 426.841 57.165 426.649 57.0149C426.456 56.8648 426.301 56.6729 426.194 56.4537C426.087 56.2344 426.031 55.9938 426.031 55.7498C426.031 55.5059 426.087 55.265 426.194 55.0458C426.301 54.8265 426.456 54.6346 426.649 54.4845C426.841 54.3345 427.065 54.2302 427.304 54.1797C427.542 54.1292 427.789 54.1339 428.026 54.1932H435.889C436.126 54.1339 436.373 54.1292 436.612 54.1797C436.85 54.2302 437.074 54.3345 437.267 54.4845C437.459 54.6346 437.615 54.8265 437.722 55.0458C437.829 55.265 437.884 55.5059 437.884 55.7498C437.884 55.9938 437.829 56.2344 437.722 56.4537C437.615 56.6729 437.459 56.8648 437.267 57.0149C437.074 57.165 436.85 57.2692 436.612 57.3197C436.373 57.3702 436.126 57.3657 435.889 57.3064ZM412.299 57.3064H404.436C404.089 57.2194 403.781 57.019 403.561 56.7369C403.341 56.4549 403.221 56.1076 403.221 55.7498C403.221 55.3921 403.341 55.0445 403.561 54.7625C403.781 54.4805 404.089 54.2802 404.436 54.1932H412.299C412.536 54.1339 412.783 54.1292 413.021 54.1797C413.26 54.2302 413.484 54.3345 413.677 54.4845C413.869 54.6346 414.024 54.8265 414.131 55.0458C414.238 55.265 414.294 55.5059 414.294 55.7498C414.294 55.9938 414.238 56.2344 414.131 56.4537C414.024 56.6729 413.869 56.8648 413.677 57.0149C413.484 57.165 413.26 57.2692 413.021 57.3197C412.783 57.3702 412.536 57.3657 412.299 57.3064ZM388.693 57.3064H380.829C380.593 57.3657 380.346 57.3702 380.107 57.3197C379.868 57.2692 379.644 57.165 379.452 57.0149C379.26 56.8648 379.104 56.6729 378.997 56.4537C378.89 56.2344 378.835 55.9938 378.835 55.7498C378.835 55.5059 378.89 55.265 378.997 55.0458C379.104 54.8265 379.26 54.6346 379.452 54.4845C379.644 54.3345 379.868 54.2302 380.107 54.1797C380.346 54.1292 380.593 54.1339 380.829 54.1932H388.693C389.04 54.2802 389.348 54.4805 389.568 54.7625C389.788 55.0445 389.908 55.3921 389.908 55.7498C389.908 56.1076 389.788 56.4549 389.568 56.7369C389.348 57.019 389.04 57.2194 388.693 57.3064ZM365.103 57.3064H357.239C357.003 57.3657 356.756 57.3702 356.517 57.3197C356.278 57.2692 356.054 57.165 355.862 57.0149C355.67 56.8648 355.514 56.6729 355.407 56.4537C355.3 56.2344 355.244 55.9938 355.244 55.7498C355.244 55.5059 355.3 55.265 355.407 55.0458C355.514 54.8265 355.67 54.6346 355.862 54.4845C356.054 54.3345 356.278 54.2302 356.517 54.1797C356.756 54.1292 357.003 54.1339 357.239 54.1932H365.103C365.45 54.2802 365.758 54.4805 365.978 54.7625C366.198 55.0445 366.317 55.3921 366.317 55.7498C366.317 56.1076 366.198 56.4549 365.978 56.7369C365.758 57.019 365.45 57.2194 365.103 57.3064ZM341.496 57.3064H333.633C333.286 57.2194 332.978 57.019 332.758 56.7369C332.538 56.4549 332.418 56.1076 332.418 55.7498C332.418 55.3921 332.538 55.0445 332.758 54.7625C332.978 54.4805 333.286 54.2802 333.633 54.1932H341.464C341.701 54.1339 341.948 54.1292 342.187 54.1797C342.425 54.2302 342.649 54.3345 342.842 54.4845C343.034 54.6346 343.19 54.8265 343.297 55.0458C343.404 55.265 343.459 55.5059 343.459 55.7498C343.459 55.9938 343.404 56.2344 343.297 56.4537C343.19 56.6729 343.034 56.8648 342.842 57.0149C342.649 57.165 342.425 57.2692 342.187 57.3197C341.948 57.3702 341.701 57.3657 341.464 57.3064H341.496ZM317.906 57.3064H310.043C309.696 57.2194 309.388 57.019 309.168 56.7369C308.948 56.4549 308.828 56.1076 308.828 55.7498C308.828 55.3921 308.948 55.0445 309.168 54.7625C309.388 54.4805 309.696 54.2802 310.043 54.1932H317.906C318.143 54.1339 318.39 54.1292 318.629 54.1797C318.867 54.2302 319.091 54.3345 319.284 54.4845C319.476 54.6346 319.632 54.8265 319.739 55.0458C319.846 55.265 319.901 55.5059 319.901 55.7498C319.901 55.9938 319.846 56.2344 319.739 56.4537C319.632 56.6729 319.476 56.8648 319.284 57.0149C319.091 57.165 318.867 57.2692 318.629 57.3197C318.39 57.3702 318.143 57.3657 317.906 57.3064ZM294.316 57.3064H286.437C286.2 57.3657 285.953 57.3702 285.714 57.3197C285.476 57.2692 285.252 57.165 285.059 57.0149C284.867 56.8648 284.711 56.6729 284.604 56.4537C284.497 56.2344 284.442 55.9938 284.442 55.7498C284.442 55.5059 284.497 55.265 284.604 55.0458C284.711 54.8265 284.867 54.6346 285.059 54.4845C285.252 54.3345 285.476 54.2302 285.714 54.1797C285.953 54.1292 286.2 54.1339 286.437 54.1932H294.316C294.663 54.2802 294.971 54.4805 295.191 54.7625C295.411 55.0445 295.531 55.3921 295.531 55.7498C295.531 56.1076 295.411 56.4549 295.191 56.7369C294.971 57.019 294.663 57.2194 294.316 57.3064ZM270.71 57.3064H262.83C262.594 57.3657 262.347 57.3702 262.108 57.3197C261.869 57.2692 261.645 57.165 261.453 57.0149C261.261 56.8648 261.105 56.6729 260.998 56.4537C260.891 56.2344 260.835 55.9938 260.835 55.7498C260.835 55.5059 260.891 55.265 260.998 55.0458C261.105 54.8265 261.261 54.6346 261.453 54.4845C261.645 54.3345 261.869 54.2302 262.108 54.1797C262.347 54.1292 262.594 54.1339 262.83 54.1932H270.694C271.041 54.2802 271.349 54.4805 271.569 54.7625C271.789 55.0445 271.908 55.3921 271.908 55.7498C271.908 56.1076 271.789 56.4549 271.569 56.7369C271.349 57.019 271.041 57.2194 270.694 57.3064H270.71ZM247.12 57.3064H239.256C238.909 57.2194 238.601 57.019 238.381 56.7369C238.161 56.4549 238.042 56.1076 238.042 55.7498C238.042 55.3921 238.161 55.0445 238.381 54.7625C238.601 54.4805 238.909 54.2802 239.256 54.1932H247.12C247.356 54.1339 247.603 54.1292 247.842 54.1797C248.081 54.2302 248.305 54.3345 248.497 54.4845C248.689 54.6346 248.845 54.8265 248.952 55.0458C249.059 55.265 249.115 55.5059 249.115 55.7498C249.115 55.9938 249.059 56.2344 248.952 56.4537C248.845 56.6729 248.689 56.8648 248.497 57.0149C248.305 57.165 248.081 57.2692 247.842 57.3197C247.603 57.3702 247.356 57.3657 247.12 57.3064ZM223.513 57.3064H215.65C215.413 57.3657 215.166 57.3702 214.928 57.3197C214.689 57.2692 214.465 57.165 214.273 57.0149C214.08 56.8648 213.925 56.6729 213.818 56.4537C213.711 56.2344 213.655 55.9938 213.655 55.7498C213.655 55.5059 213.711 55.265 213.818 55.0458C213.925 54.8265 214.08 54.6346 214.273 54.4845C214.465 54.3345 214.689 54.2302 214.928 54.1797C215.166 54.1292 215.413 54.1339 215.65 54.1932H223.513C223.86 54.2802 224.168 54.4805 224.388 54.7625C224.609 55.0445 224.728 55.3921 224.728 55.7498C224.728 56.1076 224.609 56.4549 224.388 56.7369C224.168 57.019 223.86 57.2194 223.513 57.3064ZM199.923 57.3064H192.06C191.823 57.3657 191.576 57.3702 191.337 57.3197C191.099 57.2692 190.875 57.165 190.682 57.0149C190.49 56.8648 190.335 56.6729 190.228 56.4537C190.121 56.2344 190.065 55.9938 190.065 55.7498C190.065 55.5059 190.121 55.265 190.228 55.0458C190.335 54.8265 190.49 54.6346 190.682 54.4845C190.875 54.3345 191.099 54.2302 191.337 54.1797C191.576 54.1292 191.823 54.1339 192.06 54.1932H199.923C200.27 54.2802 200.578 54.4805 200.798 54.7625C201.018 55.0445 201.138 55.3921 201.138 55.7498C201.138 56.1076 201.018 56.4549 200.798 56.7369C200.578 57.019 200.27 57.2194 199.923 57.3064ZM176.317 57.3064H168.454C168.217 57.3657 167.97 57.3702 167.731 57.3197C167.493 57.2692 167.269 57.165 167.076 57.0149C166.884 56.8648 166.728 56.6729 166.621 56.4537C166.514 56.2344 166.459 55.9938 166.459 55.7498C166.459 55.5059 166.514 55.265 166.621 55.0458C166.728 54.8265 166.884 54.6346 167.076 54.4845C167.269 54.3345 167.493 54.2302 167.731 54.1797C167.97 54.1292 168.217 54.1339 168.454 54.1932H176.317C176.664 54.2802 176.972 54.4805 177.192 54.7625C177.412 55.0445 177.532 55.3921 177.532 55.7498C177.532 56.1076 177.412 56.4549 177.192 56.7369C176.972 57.019 176.664 57.2194 176.317 57.3064ZM152.727 57.3064H144.863C144.627 57.3657 144.38 57.3702 144.141 57.3197C143.902 57.2692 143.678 57.165 143.486 57.0149C143.294 56.8648 143.138 56.6729 143.031 56.4537C142.924 56.2344 142.868 55.9938 142.868 55.7498C142.868 55.5059 142.924 55.265 143.031 55.0458C143.138 54.8265 143.294 54.6346 143.486 54.4845C143.678 54.3345 143.902 54.2302 144.141 54.1797C144.38 54.1292 144.627 54.1339 144.863 54.1932H152.727C152.963 54.1339 153.21 54.1292 153.449 54.1797C153.688 54.2302 153.912 54.3345 154.104 54.4845C154.296 54.6346 154.452 54.8265 154.559 55.0458C154.666 55.265 154.722 55.5059 154.722 55.7498C154.722 55.9938 154.666 56.2344 154.559 56.4537C154.452 56.6729 154.296 56.8648 154.104 57.0149C153.912 57.165 153.688 57.2692 153.449 57.3197C153.21 57.3702 152.963 57.3657 152.727 57.3064ZM129.137 57.3064H121.257C121.02 57.3657 120.773 57.3702 120.535 57.3197C120.296 57.2692 120.072 57.165 119.88 57.0149C119.687 56.8648 119.532 56.6729 119.425 56.4537C119.318 56.2344 119.262 55.9938 119.262 55.7498C119.262 55.5059 119.318 55.265 119.425 55.0458C119.532 54.8265 119.687 54.6346 119.88 54.4845C120.072 54.3345 120.296 54.2302 120.535 54.1797C120.773 54.1292 121.02 54.1339 121.257 54.1932H129.137C129.484 54.2802 129.792 54.4805 130.012 54.7625C130.232 55.0445 130.351 55.3921 130.351 55.7498C130.351 56.1076 130.232 56.4549 130.012 56.7369C129.792 57.019 129.484 57.2194 129.137 57.3064ZM105.53 57.3064H97.6669C97.4303 57.3657 97.1832 57.3702 96.9446 57.3197C96.7059 57.2692 96.4819 57.165 96.2895 57.0149C96.0972 56.8648 95.9416 56.6729 95.8346 56.4537C95.7276 56.2344 95.672 55.9938 95.672 55.7498C95.672 55.5059 95.7276 55.265 95.8346 55.0458C95.9416 54.8265 96.0972 54.6346 96.2895 54.4845C96.4819 54.3345 96.7059 54.2302 96.9446 54.1797C97.1832 54.1292 97.4303 54.1339 97.6669 54.1932H105.562C105.909 54.2802 106.217 54.4805 106.437 54.7625C106.658 55.0445 106.777 55.3921 106.777 55.7498C106.777 56.1076 106.658 56.4549 106.437 56.7369C106.217 57.019 105.909 57.2194 105.562 57.3064H105.53Z" stroke="#E9AD62" stroke-width="0.01"/>
<path d="M549.918 57.3065H546.019C545.672 57.2196 545.364 57.0191 545.144 56.7371C544.924 56.455 544.804 56.1077 544.804 55.7499C544.804 55.3922 544.924 55.0447 545.144 54.7626C545.364 54.4806 545.672 54.2803 546.019 54.1934H549.918C550.265 54.2803 550.573 54.4806 550.793 54.7626C551.014 55.0447 551.133 55.3922 551.133 55.7499C551.133 56.1077 551.014 56.455 550.793 56.7371C550.573 57.0191 550.265 57.2196 549.918 57.3065Z" stroke="#E9AD62" stroke-width="0.01"/>
<path d="M81.9449 128.879H78.0453C77.8087 128.939 77.5616 128.943 77.323 128.893C77.0843 128.842 76.8603 128.738 76.668 128.588C76.4756 128.438 76.3201 128.246 76.2131 128.027C76.106 127.807 76.0504 127.567 76.0504 127.323C76.0504 127.079 76.106 126.838 76.2131 126.619C76.3201 126.4 76.4756 126.208 76.668 126.058C76.8603 125.908 77.0843 125.803 77.323 125.753C77.5616 125.702 77.8087 125.707 78.0453 125.766H81.9449C82.2919 125.853 82.5999 126.053 82.82 126.336C83.0401 126.618 83.1596 126.965 83.1596 127.323C83.1596 127.681 83.0401 128.028 82.82 128.31C82.5999 128.592 82.2919 128.792 81.9449 128.879Z" stroke="#E9AD62" stroke-width="0.01"/>
<path d="M530.282 128.879H522.419C522.182 128.939 521.935 128.943 521.696 128.893C521.458 128.842 521.234 128.738 521.041 128.588C520.849 128.438 520.694 128.246 520.587 128.027C520.479 127.807 520.424 127.567 520.424 127.323C520.424 127.079 520.479 126.838 520.587 126.619C520.694 126.4 520.849 126.208 521.041 126.058C521.234 125.908 521.458 125.803 521.696 125.753C521.935 125.702 522.182 125.707 522.419 125.766H530.282C530.629 125.853 530.937 126.053 531.157 126.336C531.377 126.618 531.497 126.965 531.497 127.323C531.497 127.681 531.377 128.028 531.157 128.31C530.937 128.592 530.629 128.792 530.282 128.879ZM506.676 128.879H498.813C498.466 128.792 498.158 128.592 497.938 128.31C497.717 128.028 497.598 127.681 497.598 127.323C497.598 126.965 497.717 126.618 497.938 126.336C498.158 126.053 498.466 125.853 498.813 125.766H506.756C507.103 125.853 507.411 126.053 507.631 126.336C507.851 126.618 507.971 126.965 507.971 127.323C507.971 127.681 507.851 128.028 507.631 128.31C507.411 128.592 507.103 128.792 506.756 128.879H506.676ZM483.086 128.879H475.222C474.875 128.792 474.567 128.592 474.347 128.31C474.127 128.028 474.008 127.681 474.008 127.323C474.008 126.965 474.127 126.618 474.347 126.336C474.567 126.053 474.875 125.853 475.222 125.766H483.086C483.433 125.853 483.741 126.053 483.961 126.336C484.181 126.618 484.3 126.965 484.3 127.323C484.3 127.681 484.181 128.028 483.961 128.31C483.741 128.592 483.433 128.792 483.086 128.879ZM459.496 128.879H451.616C451.38 128.939 451.132 128.943 450.894 128.893C450.655 128.842 450.431 128.738 450.239 128.588C450.046 128.438 449.891 128.246 449.784 128.027C449.677 127.807 449.621 127.567 449.621 127.323C449.621 127.079 449.677 126.838 449.784 126.619C449.891 126.4 450.046 126.208 450.239 126.058C450.431 125.908 450.655 125.803 450.894 125.753C451.132 125.702 451.38 125.707 451.616 125.766H459.496C459.843 125.853 460.151 126.053 460.371 126.336C460.591 126.618 460.71 126.965 460.71 127.323C460.71 127.681 460.591 128.028 460.371 128.31C460.151 128.592 459.843 128.792 459.496 128.879ZM435.889 128.879H428.026C427.789 128.939 427.542 128.943 427.304 128.893C427.065 128.842 426.841 128.738 426.649 128.588C426.456 128.438 426.301 128.246 426.194 128.027C426.087 127.807 426.031 127.567 426.031 127.323C426.031 127.079 426.087 126.838 426.194 126.619C426.301 126.4 426.456 126.208 426.649 126.058C426.841 125.908 427.065 125.803 427.304 125.753C427.542 125.702 427.789 125.707 428.026 125.766H435.889C436.236 125.853 436.544 126.053 436.764 126.336C436.984 126.618 437.104 126.965 437.104 127.323C437.104 127.681 436.984 128.028 436.764 128.31C436.544 128.592 436.236 128.792 435.889 128.879ZM412.299 128.879H404.436C404.089 128.792 403.781 128.592 403.561 128.31C403.341 128.028 403.221 127.681 403.221 127.323C403.221 126.965 403.341 126.618 403.561 126.336C403.781 126.053 404.089 125.853 404.436 125.766H412.299C412.646 125.853 412.954 126.053 413.174 126.336C413.394 126.618 413.514 126.965 413.514 127.323C413.514 127.681 413.394 128.028 413.174 128.31C412.954 128.592 412.646 128.792 412.299 128.879ZM388.693 128.879H380.829C380.593 128.939 380.346 128.943 380.107 128.893C379.868 128.842 379.644 128.738 379.452 128.588C379.26 128.438 379.104 128.246 378.997 128.027C378.89 127.807 378.835 127.567 378.835 127.323C378.835 127.079 378.89 126.838 378.997 126.619C379.104 126.4 379.26 126.208 379.452 126.058C379.644 125.908 379.868 125.803 380.107 125.753C380.346 125.702 380.593 125.707 380.829 125.766H388.693C389.04 125.853 389.348 126.053 389.568 126.336C389.788 126.618 389.908 126.965 389.908 127.323C389.908 127.681 389.788 128.028 389.568 128.31C389.348 128.592 389.04 128.792 388.693 128.879ZM365.103 128.879H357.239C357.003 128.939 356.756 128.943 356.517 128.893C356.278 128.842 356.054 128.738 355.862 128.588C355.67 128.438 355.514 128.246 355.407 128.027C355.3 127.807 355.244 127.567 355.244 127.323C355.244 127.079 355.3 126.838 355.407 126.619C355.514 126.4 355.67 126.208 355.862 126.058C356.054 125.908 356.278 125.803 356.517 125.753C356.756 125.702 357.003 125.707 357.239 125.766H365.103C365.45 125.853 365.758 126.053 365.978 126.336C366.198 126.618 366.317 126.965 366.317 127.323C366.317 127.681 366.198 128.028 365.978 128.31C365.758 128.592 365.45 128.792 365.103 128.879ZM341.496 128.879H333.633C333.286 128.792 332.978 128.592 332.758 128.31C332.538 128.028 332.418 127.681 332.418 127.323C332.418 126.965 332.538 126.618 332.758 126.336C332.978 126.053 333.286 125.853 333.633 125.766H341.464C341.811 125.853 342.119 126.053 342.339 126.336C342.559 126.618 342.679 126.965 342.679 127.323C342.679 127.681 342.559 128.028 342.339 128.31C342.119 128.592 341.811 128.792 341.464 128.879H341.496ZM317.906 128.879H310.043C309.696 128.792 309.388 128.592 309.168 128.31C308.948 128.028 308.828 127.681 308.828 127.323C308.828 126.965 308.948 126.618 309.168 126.336C309.388 126.053 309.696 125.853 310.043 125.766H317.906C318.253 125.853 318.561 126.053 318.781 126.336C319.001 126.618 319.121 126.965 319.121 127.323C319.121 127.681 319.001 128.028 318.781 128.31C318.561 128.592 318.253 128.792 317.906 128.879ZM294.316 128.879H286.437C286.2 128.939 285.953 128.943 285.714 128.893C285.476 128.842 285.252 128.738 285.059 128.588C284.867 128.438 284.711 128.246 284.604 128.027C284.497 127.807 284.442 127.567 284.442 127.323C284.442 127.079 284.497 126.838 284.604 126.619C284.711 126.4 284.867 126.208 285.059 126.058C285.252 125.908 285.476 125.803 285.714 125.753C285.953 125.702 286.2 125.707 286.437 125.766H294.316C294.663 125.853 294.971 126.053 295.191 126.336C295.411 126.618 295.531 126.965 295.531 127.323C295.531 127.681 295.411 128.028 295.191 128.31C294.971 128.592 294.663 128.792 294.316 128.879ZM270.71 128.879H262.83C262.594 128.939 262.347 128.943 262.108 128.893C261.869 128.842 261.645 128.738 261.453 128.588C261.261 128.438 261.105 128.246 260.998 128.027C260.891 127.807 260.835 127.567 260.835 127.323C260.835 127.079 260.891 126.838 260.998 126.619C261.105 126.4 261.261 126.208 261.453 126.058C261.645 125.908 261.869 125.803 262.108 125.753C262.347 125.702 262.594 125.707 262.83 125.766H270.694C271.041 125.853 271.349 126.053 271.569 126.336C271.789 126.618 271.908 126.965 271.908 127.323C271.908 127.681 271.789 128.028 271.569 128.31C271.349 128.592 271.041 128.792 270.694 128.879H270.71ZM247.12 128.879H239.256C238.909 128.792 238.601 128.592 238.381 128.31C238.161 128.028 238.042 127.681 238.042 127.323C238.042 126.965 238.161 126.618 238.381 126.336C238.601 126.053 238.909 125.853 239.256 125.766H247.12C247.467 125.853 247.775 126.053 247.995 126.336C248.215 126.618 248.334 126.965 248.334 127.323C248.334 127.681 248.215 128.028 247.995 128.31C247.775 128.592 247.467 128.792 247.12 128.879ZM223.513 128.879H215.65C215.413 128.939 215.166 128.943 214.928 128.893C214.689 128.842 214.465 128.738 214.273 128.588C214.08 128.438 213.925 128.246 213.818 128.027C213.711 127.807 213.655 127.567 213.655 127.323C213.655 127.079 213.711 126.838 213.818 126.619C213.925 126.4 214.08 126.208 214.273 126.058C214.465 125.908 214.689 125.803 214.928 125.753C215.166 125.702 215.413 125.707 215.65 125.766H223.513C223.86 125.853 224.168 126.053 224.388 126.336C224.609 126.618 224.728 126.965 224.728 127.323C224.728 127.681 224.609 128.028 224.388 128.31C224.168 128.592 223.86 128.792 223.513 128.879ZM199.923 128.879H192.06C191.823 128.939 191.576 128.943 191.337 128.893C191.099 128.842 190.875 128.738 190.682 128.588C190.49 128.438 190.335 128.246 190.228 128.027C190.121 127.807 190.065 127.567 190.065 127.323C190.065 127.079 190.121 126.838 190.228 126.619C190.335 126.4 190.49 126.208 190.682 126.058C190.875 125.908 191.099 125.803 191.337 125.753C191.576 125.702 191.823 125.707 192.06 125.766H199.923C200.27 125.853 200.578 126.053 200.798 126.336C201.018 126.618 201.138 126.965 201.138 127.323C201.138 127.681 201.018 128.028 200.798 128.31C200.578 128.592 200.27 128.792 199.923 128.879ZM176.317 128.879H168.454C168.217 128.939 167.97 128.943 167.731 128.893C167.493 128.842 167.269 128.738 167.076 128.588C166.884 128.438 166.728 128.246 166.621 128.027C166.514 127.807 166.459 127.567 166.459 127.323C166.459 127.079 166.514 126.838 166.621 126.619C166.728 126.4 166.884 126.208 167.076 126.058C167.269 125.908 167.493 125.803 167.731 125.753C167.97 125.702 168.217 125.707 168.454 125.766H176.317C176.664 125.853 176.972 126.053 177.192 126.336C177.412 126.618 177.532 126.965 177.532 127.323C177.532 127.681 177.412 128.028 177.192 128.31C176.972 128.592 176.664 128.792 176.317 128.879ZM152.727 128.879H144.863C144.627 128.939 144.38 128.943 144.141 128.893C143.902 128.842 143.678 128.738 143.486 128.588C143.294 128.438 143.138 128.246 143.031 128.027C142.924 127.807 142.868 127.567 142.868 127.323C142.868 127.079 142.924 126.838 143.031 126.619C143.138 126.4 143.294 126.208 143.486 126.058C143.678 125.908 143.902 125.803 144.141 125.753C144.38 125.702 144.627 125.707 144.863 125.766H152.727C153.074 125.853 153.382 126.053 153.602 126.336C153.822 126.618 153.941 126.965 153.941 127.323C153.941 127.681 153.822 128.028 153.602 128.31C153.382 128.592 153.074 128.792 152.727 128.879ZM129.137 128.879H121.257C121.02 128.939 120.773 128.943 120.535 128.893C120.296 128.842 120.072 128.738 119.88 128.588C119.687 128.438 119.532 128.246 119.425 128.027C119.318 127.807 119.262 127.567 119.262 127.323C119.262 127.079 119.318 126.838 119.425 126.619C119.532 126.4 119.687 126.208 119.88 126.058C120.072 125.908 120.296 125.803 120.535 125.753C120.773 125.702 121.02 125.707 121.257 125.766H129.137C129.484 125.853 129.792 126.053 130.012 126.336C130.232 126.618 130.351 126.965 130.351 127.323C130.351 127.681 130.232 128.028 130.012 128.31C129.792 128.592 129.484 128.792 129.137 128.879ZM105.53 128.879H97.6669C97.4303 128.939 97.1832 128.943 96.9446 128.893C96.7059 128.842 96.4819 128.738 96.2895 128.588C96.0972 128.438 95.9416 128.246 95.8346 128.027C95.7276 127.807 95.672 127.567 95.672 127.323C95.672 127.079 95.7276 126.838 95.8346 126.619C95.9416 126.4 96.0972 126.208 96.2895 126.058C96.4819 125.908 96.7059 125.803 96.9446 125.753C97.1832 125.702 97.4303 125.707 97.6669 125.766H105.562C105.909 125.853 106.217 126.053 106.437 126.336C106.658 126.618 106.777 126.965 106.777 127.323C106.777 127.681 106.658 128.028 106.437 128.31C106.217 128.592 105.909 128.792 105.562 128.879H105.53Z" stroke="#E9AD62" stroke-width="0.01"/>
<path d="M549.922 128.879H546.022C545.785 128.939 545.538 128.943 545.3 128.893C545.061 128.842 544.837 128.738 544.645 128.588C544.452 128.438 544.297 128.246 544.19 128.027C544.083 127.807 544.027 127.567 544.027 127.323C544.027 127.079 544.083 126.838 544.19 126.619C544.297 126.4 544.452 126.208 544.645 126.058C544.837 125.908 545.061 125.803 545.3 125.753C545.538 125.702 545.785 125.707 546.022 125.766H549.922C550.269 125.853 550.576 126.053 550.797 126.336C551.017 126.618 551.136 126.965 551.136 127.323C551.136 127.681 551.017 128.028 550.797 128.31C550.576 128.592 550.269 128.792 549.922 128.879Z" stroke="#E9AD62" stroke-width="0.01"/>
<path d="M81.9449 200.453H78.0453C77.8087 200.512 77.5616 200.517 77.323 200.467C77.0843 200.416 76.8603 200.312 76.668 200.162C76.4756 200.012 76.3201 199.82 76.2131 199.6C76.106 199.381 76.0504 199.14 76.0504 198.896C76.0504 198.652 76.106 198.412 76.2131 198.193C76.3201 197.973 76.4756 197.781 76.668 197.631C76.8603 197.481 77.0843 197.377 77.323 197.327C77.5616 197.276 77.8087 197.281 78.0453 197.34H81.9449C82.2919 197.427 82.5999 197.627 82.82 197.909C83.0401 198.191 83.1596 198.539 83.1596 198.896C83.1596 199.254 83.0401 199.602 82.82 199.884C82.5999 200.166 82.2919 200.366 81.9449 200.453Z" stroke="#E9AD62" stroke-width="0.01"/>
<path d="M530.282 200.453H522.419C522.182 200.512 521.935 200.517 521.696 200.467C521.458 200.416 521.234 200.312 521.041 200.162C520.849 200.012 520.694 199.82 520.587 199.6C520.479 199.381 520.424 199.14 520.424 198.896C520.424 198.652 520.479 198.412 520.587 198.193C520.694 197.973 520.849 197.781 521.041 197.631C521.234 197.481 521.458 197.377 521.696 197.327C521.935 197.276 522.182 197.281 522.419 197.34H530.282C530.629 197.427 530.937 197.627 531.157 197.909C531.377 198.191 531.497 198.539 531.497 198.896C531.497 199.254 531.377 199.602 531.157 199.884C530.937 200.166 530.629 200.366 530.282 200.453ZM506.676 200.453H498.813C498.466 200.366 498.158 200.166 497.938 199.884C497.717 199.602 497.598 199.254 497.598 198.896C497.598 198.539 497.717 198.191 497.938 197.909C498.158 197.627 498.466 197.427 498.813 197.34H506.756C506.993 197.281 507.24 197.276 507.479 197.327C507.717 197.377 507.941 197.481 508.134 197.631C508.326 197.781 508.481 197.973 508.589 198.193C508.696 198.412 508.751 198.652 508.751 198.896C508.751 199.14 508.696 199.381 508.589 199.6C508.481 199.82 508.326 200.012 508.134 200.162C507.941 200.312 507.717 200.416 507.479 200.467C507.24 200.517 506.993 200.512 506.756 200.453H506.676ZM483.086 200.453H475.222C474.875 200.366 474.567 200.166 474.347 199.884C474.127 199.602 474.008 199.254 474.008 198.896C474.008 198.539 474.127 198.191 474.347 197.909C474.567 197.627 474.875 197.427 475.222 197.34H483.086C483.322 197.281 483.569 197.276 483.808 197.327C484.047 197.377 484.271 197.481 484.463 197.631C484.655 197.781 484.811 197.973 484.918 198.193C485.025 198.412 485.081 198.652 485.081 198.896C485.081 199.14 485.025 199.381 484.918 199.6C484.811 199.82 484.655 200.012 484.463 200.162C484.271 200.312 484.047 200.416 483.808 200.467C483.569 200.517 483.322 200.512 483.086 200.453ZM459.496 200.453H451.616C451.38 200.512 451.132 200.517 450.894 200.467C450.655 200.416 450.431 200.312 450.239 200.162C450.046 200.012 449.891 199.82 449.784 199.6C449.677 199.381 449.621 199.14 449.621 198.896C449.621 198.652 449.677 198.412 449.784 198.193C449.891 197.973 450.046 197.781 450.239 197.631C450.431 197.481 450.655 197.377 450.894 197.327C451.132 197.276 451.38 197.281 451.616 197.34H459.496C459.843 197.427 460.151 197.627 460.371 197.909C460.591 198.191 460.71 198.539 460.71 198.896C460.71 199.254 460.591 199.602 460.371 199.884C460.151 200.166 459.843 200.366 459.496 200.453ZM435.889 200.453H428.026C427.789 200.512 427.542 200.517 427.304 200.467C427.065 200.416 426.841 200.312 426.649 200.162C426.456 200.012 426.301 199.82 426.194 199.6C426.087 199.381 426.031 199.14 426.031 198.896C426.031 198.652 426.087 198.412 426.194 198.193C426.301 197.973 426.456 197.781 426.649 197.631C426.841 197.481 427.065 197.377 427.304 197.327C427.542 197.276 427.789 197.281 428.026 197.34H435.889C436.126 197.281 436.373 197.276 436.612 197.327C436.85 197.377 437.074 197.481 437.267 197.631C437.459 197.781 437.615 197.973 437.722 198.193C437.829 198.412 437.884 198.652 437.884 198.896C437.884 199.14 437.829 199.381 437.722 199.6C437.615 199.82 437.459 200.012 437.267 200.162C437.074 200.312 436.85 200.416 436.612 200.467C436.373 200.517 436.126 200.512 435.889 200.453ZM412.299 200.453H404.436C404.089 200.366 403.781 200.166 403.561 199.884C403.341 199.602 403.221 199.254 403.221 198.896C403.221 198.539 403.341 198.191 403.561 197.909C403.781 197.627 404.089 197.427 404.436 197.34H412.299C412.536 197.281 412.783 197.276 413.021 197.327C413.26 197.377 413.484 197.481 413.677 197.631C413.869 197.781 414.024 197.973 414.131 198.193C414.238 198.412 414.294 198.652 414.294 198.896C414.294 199.14 414.238 199.381 414.131 199.6C414.024 199.82 413.869 200.012 413.677 200.162C413.484 200.312 413.26 200.416 413.021 200.467C412.783 200.517 412.536 200.512 412.299 200.453ZM388.693 200.453H380.829C380.593 200.512 380.346 200.517 380.107 200.467C379.868 200.416 379.644 200.312 379.452 200.162C379.26 200.012 379.104 199.82 378.997 199.6C378.89 199.381 378.835 199.14 378.835 198.896C378.835 198.652 378.89 198.412 378.997 198.193C379.104 197.973 379.26 197.781 379.452 197.631C379.644 197.481 379.868 197.377 380.107 197.327C380.346 197.276 380.593 197.281 380.829 197.34H388.693C389.04 197.427 389.348 197.627 389.568 197.909C389.788 198.191 389.908 198.539 389.908 198.896C389.908 199.254 389.788 199.602 389.568 199.884C389.348 200.166 389.04 200.366 388.693 200.453ZM365.103 200.453H357.239C357.003 200.512 356.756 200.517 356.517 200.467C356.278 200.416 356.054 200.312 355.862 200.162C355.67 200.012 355.514 199.82 355.407 199.6C355.3 199.381 355.244 199.14 355.244 198.896C355.244 198.652 355.3 198.412 355.407 198.193C355.514 197.973 355.67 197.781 355.862 197.631C356.054 197.481 356.278 197.377 356.517 197.327C356.756 197.276 357.003 197.281 357.239 197.34H365.103C365.45 197.427 365.758 197.627 365.978 197.909C366.198 198.191 366.317 198.539 366.317 198.896C366.317 199.254 366.198 199.602 365.978 199.884C365.758 200.166 365.45 200.366 365.103 200.453ZM341.496 200.453H333.633C333.286 200.366 332.978 200.166 332.758 199.884C332.538 199.602 332.418 199.254 332.418 198.896C332.418 198.539 332.538 198.191 332.758 197.909C332.978 197.627 333.286 197.427 333.633 197.34H341.464C341.701 197.281 341.948 197.276 342.187 197.327C342.425 197.377 342.649 197.481 342.842 197.631C343.034 197.781 343.19 197.973 343.297 198.193C343.404 198.412 343.459 198.652 343.459 198.896C343.459 199.14 343.404 199.381 343.297 199.6C343.19 199.82 343.034 200.012 342.842 200.162C342.649 200.312 342.425 200.416 342.187 200.467C341.948 200.517 341.701 200.512 341.464 200.453H341.496ZM317.906 200.453H310.043C309.696 200.366 309.388 200.166 309.168 199.884C308.948 199.602 308.828 199.254 308.828 198.896C308.828 198.539 308.948 198.191 309.168 197.909C309.388 197.627 309.696 197.427 310.043 197.34H317.906C318.143 197.281 318.39 197.276 318.629 197.327C318.867 197.377 319.091 197.481 319.284 197.631C319.476 197.781 319.632 197.973 319.739 198.193C319.846 198.412 319.901 198.652 319.901 198.896C319.901 199.14 319.846 199.381 319.739 199.6C319.632 199.82 319.476 200.012 319.284 200.162C319.091 200.312 318.867 200.416 318.629 200.467C318.39 200.517 318.143 200.512 317.906 200.453ZM294.316 200.453H286.437C286.2 200.512 285.953 200.517 285.714 200.467C285.476 200.416 285.252 200.312 285.059 200.162C284.867 200.012 284.711 199.82 284.604 199.6C284.497 199.381 284.442 199.14 284.442 198.896C284.442 198.652 284.497 198.412 284.604 198.193C284.711 197.973 284.867 197.781 285.059 197.631C285.252 197.481 285.476 197.377 285.714 197.327C285.953 197.276 286.2 197.281 286.437 197.34H294.316C294.663 197.427 294.971 197.627 295.191 197.909C295.411 198.191 295.531 198.539 295.531 198.896C295.531 199.254 295.411 199.602 295.191 199.884C294.971 200.166 294.663 200.366 294.316 200.453ZM270.71 200.453H262.83C262.594 200.512 262.347 200.517 262.108 200.467C261.869 200.416 261.645 200.312 261.453 200.162C261.261 200.012 261.105 199.82 260.998 199.6C260.891 199.381 260.835 199.14 260.835 198.896C260.835 198.652 260.891 198.412 260.998 198.193C261.105 197.973 261.261 197.781 261.453 197.631C261.645 197.481 261.869 197.377 262.108 197.327C262.347 197.276 262.594 197.281 262.83 197.34H270.694C271.041 197.427 271.349 197.627 271.569 197.909C271.789 198.191 271.908 198.539 271.908 198.896C271.908 199.254 271.789 199.602 271.569 199.884C271.349 200.166 271.041 200.366 270.694 200.453H270.71ZM247.12 200.453H239.256C238.909 200.366 238.601 200.166 238.381 199.884C238.161 199.602 238.042 199.254 238.042 198.896C238.042 198.539 238.161 198.191 238.381 197.909C238.601 197.627 238.909 197.427 239.256 197.34H247.12C247.356 197.281 247.603 197.276 247.842 197.327C248.081 197.377 248.305 197.481 248.497 197.631C248.689 197.781 248.845 197.973 248.952 198.193C249.059 198.412 249.115 198.652 249.115 198.896C249.115 199.14 249.059 199.381 248.952 199.6C248.845 199.82 248.689 200.012 248.497 200.162C248.305 200.312 248.081 200.416 247.842 200.467C247.603 200.517 247.356 200.512 247.12 200.453ZM223.513 200.453H215.65C215.413 200.512 215.166 200.517 214.928 200.467C214.689 200.416 214.465 200.312 214.273 200.162C214.08 200.012 213.925 199.82 213.818 199.6C213.711 199.381 213.655 199.14 213.655 198.896C213.655 198.652 213.711 198.412 213.818 198.193C213.925 197.973 214.08 197.781 214.273 197.631C214.465 197.481 214.689 197.377 214.928 197.327C215.166 197.276 215.413 197.281 215.65 197.34H223.513C223.86 197.427 224.168 197.627 224.388 197.909C224.609 198.191 224.728 198.539 224.728 198.896C224.728 199.254 224.609 199.602 224.388 199.884C224.168 200.166 223.86 200.366 223.513 200.453ZM199.923 200.453H192.06C191.823 200.512 191.576 200.517 191.337 200.467C191.099 200.416 190.875 200.312 190.682 200.162C190.49 200.012 190.335 199.82 190.228 199.6C190.121 199.381 190.065 199.14 190.065 198.896C190.065 198.652 190.121 198.412 190.228 198.193C190.335 197.973 190.49 197.781 190.682 197.631C190.875 197.481 191.099 197.377 191.337 197.327C191.576 197.276 191.823 197.281 192.06 197.34H199.923C200.27 197.427 200.578 197.627 200.798 197.909C201.018 198.191 201.138 198.539 201.138 198.896C201.138 199.254 201.018 199.602 200.798 199.884C200.578 200.166 200.27 200.366 199.923 200.453ZM176.317 200.453H168.454C168.217 200.512 167.97 200.517 167.731 200.467C167.493 200.416 167.269 200.312 167.076 200.162C166.884 200.012 166.728 199.82 166.621 199.6C166.514 199.381 166.459 199.14 166.459 198.896C166.459 198.652 166.514 198.412 166.621 198.193C166.728 197.973 166.884 197.781 167.076 197.631C167.269 197.481 167.493 197.377 167.731 197.327C167.97 197.276 168.217 197.281 168.454 197.34H176.317C176.664 197.427 176.972 197.627 177.192 197.909C177.412 198.191 177.532 198.539 177.532 198.896C177.532 199.254 177.412 199.602 177.192 199.884C176.972 200.166 176.664 200.366 176.317 200.453ZM152.727 200.453H144.863C144.627 200.512 144.38 200.517 144.141 200.467C143.902 200.416 143.678 200.312 143.486 200.162C143.294 200.012 143.138 199.82 143.031 199.6C142.924 199.381 142.868 199.14 142.868 198.896C142.868 198.652 142.924 198.412 143.031 198.193C143.138 197.973 143.294 197.781 143.486 197.631C143.678 197.481 143.902 197.377 144.141 197.327C144.38 197.276 144.627 197.281 144.863 197.34H152.727C152.963 197.281 153.21 197.276 153.449 197.327C153.688 197.377 153.912 197.481 154.104 197.631C154.296 197.781 154.452 197.973 154.559 198.193C154.666 198.412 154.722 198.652 154.722 198.896C154.722 199.14 154.666 199.381 154.559 199.6C154.452 199.82 154.296 200.012 154.104 200.162C153.912 200.312 153.688 200.416 153.449 200.467C153.21 200.517 152.963 200.512 152.727 200.453ZM129.137 200.453H121.257C121.02 200.512 120.773 200.517 120.535 200.467C120.296 200.416 120.072 200.312 119.88 200.162C119.687 200.012 119.532 199.82 119.425 199.6C119.318 199.381 119.262 199.14 119.262 198.896C119.262 198.652 119.318 198.412 119.425 198.193C119.532 197.973 119.687 197.781 119.88 197.631C120.072 197.481 120.296 197.377 120.535 197.327C120.773 197.276 121.02 197.281 121.257 197.34H129.137C129.484 197.427 129.792 197.627 130.012 197.909C130.232 198.191 130.351 198.539 130.351 198.896C130.351 199.254 130.232 199.602 130.012 199.884C129.792 200.166 129.484 200.366 129.137 200.453ZM105.53 200.453H97.6669C97.4303 200.512 97.1832 200.517 96.9446 200.467C96.7059 200.416 96.4819 200.312 96.2895 200.162C96.0972 200.012 95.9416 199.82 95.8346 199.6C95.7276 199.381 95.672 199.14 95.672 198.896C95.672 198.652 95.7276 198.412 95.8346 198.193C95.9416 197.973 96.0972 197.781 96.2895 197.631C96.4819 197.481 96.7059 197.377 96.9446 197.327C97.1832 197.276 97.4303 197.281 97.6669 197.34H105.562C105.909 197.427 106.217 197.627 106.437 197.909C106.658 198.191 106.777 198.539 106.777 198.896C106.777 199.254 106.658 199.602 106.437 199.884C106.217 200.166 105.909 200.366 105.562 200.453H105.53Z" stroke="#E9AD62" stroke-width="0.01"/>
<path d="M549.922 200.453H546.022C545.785 200.512 545.538 200.517 545.3 200.467C545.061 200.416 544.837 200.312 544.645 200.162C544.452 200.012 544.297 199.82 544.19 199.6C544.083 199.381 544.027 199.14 544.027 198.896C544.027 198.652 544.083 198.412 544.19 198.193C544.297 197.973 544.452 197.781 544.645 197.631C544.837 197.481 545.061 197.377 545.3 197.327C545.538 197.276 545.785 197.281 546.022 197.34H549.922C550.269 197.427 550.576 197.627 550.797 197.909C551.017 198.191 551.136 198.539 551.136 198.896C551.136 199.254 551.017 199.602 550.797 199.884C550.576 200.166 550.269 200.366 549.922 200.453Z" stroke="#E9AD62" stroke-width="0.01"/>
<path d="M81.9449 272.041H78.0453C77.8087 272.101 77.5616 272.105 77.323 272.055C77.0843 272.004 76.8603 271.9 76.668 271.75C76.4756 271.6 76.3201 271.408 76.2131 271.189C76.106 270.969 76.0504 270.729 76.0504 270.485C76.0504 270.241 76.106 270 76.2131 269.781C76.3201 269.561 76.4756 269.37 76.668 269.219C76.8603 269.069 77.0843 268.965 77.323 268.915C77.5616 268.864 77.8087 268.869 78.0453 268.928H81.9449C82.2919 269.015 82.5999 269.215 82.82 269.497C83.0401 269.779 83.1596 270.127 83.1596 270.485C83.1596 270.842 83.0401 271.19 82.82 271.472C82.5999 271.754 82.2919 271.954 81.9449 272.041Z" stroke="#E9AD62" stroke-width="0.01"/>
<path d="M530.282 272.041H522.419C522.182 272.101 521.935 272.105 521.696 272.055C521.458 272.004 521.234 271.9 521.041 271.75C520.849 271.6 520.694 271.408 520.587 271.189C520.479 270.969 520.424 270.729 520.424 270.485C520.424 270.241 520.479 270 520.587 269.781C520.694 269.561 520.849 269.37 521.041 269.219C521.234 269.069 521.458 268.965 521.696 268.915C521.935 268.864 522.182 268.869 522.419 268.928H530.282C530.629 269.015 530.937 269.215 531.157 269.497C531.377 269.779 531.497 270.127 531.497 270.485C531.497 270.842 531.377 271.19 531.157 271.472C530.937 271.754 530.629 271.954 530.282 272.041ZM506.676 272.041H498.813C498.466 271.954 498.158 271.754 497.938 271.472C497.717 271.19 497.598 270.842 497.598 270.485C497.598 270.127 497.717 269.779 497.938 269.497C498.158 269.215 498.466 269.015 498.813 268.928H506.756C507.103 269.015 507.411 269.215 507.631 269.497C507.851 269.779 507.971 270.127 507.971 270.485C507.971 270.842 507.851 271.19 507.631 271.472C507.411 271.754 507.103 271.954 506.756 272.041H506.676ZM483.086 272.041H475.222C474.875 271.954 474.567 271.754 474.347 271.472C474.127 271.19 474.008 270.842 474.008 270.485C474.008 270.127 474.127 269.779 474.347 269.497C474.567 269.215 474.875 269.015 475.222 268.928H483.086C483.433 269.015 483.741 269.215 483.961 269.497C484.181 269.779 484.3 270.127 484.3 270.485C484.3 270.842 484.181 271.19 483.961 271.472C483.741 271.754 483.433 271.954 483.086 272.041ZM459.496 272.041H451.616C451.38 272.101 451.132 272.105 450.894 272.055C450.655 272.004 450.431 271.9 450.239 271.75C450.046 271.6 449.891 271.408 449.784 271.189C449.677 270.969 449.621 270.729 449.621 270.485C449.621 270.241 449.677 270 449.784 269.781C449.891 269.561 450.046 269.37 450.239 269.219C450.431 269.069 450.655 268.965 450.894 268.915C451.132 268.864 451.38 268.869 451.616 268.928H459.496C459.843 269.015 460.151 269.215 460.371 269.497C460.591 269.779 460.71 270.127 460.71 270.485C460.71 270.842 460.591 271.19 460.371 271.472C460.151 271.754 459.843 271.954 459.496 272.041ZM435.889 272.041H428.026C427.789 272.101 427.542 272.105 427.304 272.055C427.065 272.004 426.841 271.9 426.649 271.75C426.456 271.6 426.301 271.408 426.194 271.189C426.087 270.969 426.031 270.729 426.031 270.485C426.031 270.241 426.087 270 426.194 269.781C426.301 269.561 426.456 269.37 426.649 269.219C426.841 269.069 427.065 268.965 427.304 268.915C427.542 268.864 427.789 268.869 428.026 268.928H435.889C436.236 269.015 436.544 269.215 436.764 269.497C436.984 269.779 437.104 270.127 437.104 270.485C437.104 270.842 436.984 271.19 436.764 271.472C436.544 271.754 436.236 271.954 435.889 272.041ZM412.299 272.041H404.436C404.089 271.954 403.781 271.754 403.561 271.472C403.341 271.19 403.221 270.842 403.221 270.485C403.221 270.127 403.341 269.779 403.561 269.497C403.781 269.215 404.089 269.015 404.436 268.928H412.299C412.646 269.015 412.954 269.215 413.174 269.497C413.394 269.779 413.514 270.127 413.514 270.485C413.514 270.842 413.394 271.19 413.174 271.472C412.954 271.754 412.646 271.954 412.299 272.041ZM388.693 272.041H380.829C380.593 272.101 380.346 272.105 380.107 272.055C379.868 272.004 379.644 271.9 379.452 271.75C379.26 271.6 379.104 271.408 378.997 271.189C378.89 270.969 378.835 270.729 378.835 270.485C378.835 270.241 378.89 270 378.997 269.781C379.104 269.561 379.26 269.37 379.452 269.219C379.644 269.069 379.868 268.965 380.107 268.915C380.346 268.864 380.593 268.869 380.829 268.928H388.693C389.04 269.015 389.348 269.215 389.568 269.497C389.788 269.779 389.908 270.127 389.908 270.485C389.908 270.842 389.788 271.19 389.568 271.472C389.348 271.754 389.04 271.954 388.693 272.041ZM365.103 272.041H357.239C357.003 272.101 356.756 272.105 356.517 272.055C356.278 272.004 356.054 271.9 355.862 271.75C355.67 271.6 355.514 271.408 355.407 271.189C355.3 270.969 355.244 270.729 355.244 270.485C355.244 270.241 355.3 270 355.407 269.781C355.514 269.561 355.67 269.37 355.862 269.219C356.054 269.069 356.278 268.965 356.517 268.915C356.756 268.864 357.003 268.869 357.239 268.928H365.103C365.45 269.015 365.758 269.215 365.978 269.497C366.198 269.779 366.317 270.127 366.317 270.485C366.317 270.842 366.198 271.19 365.978 271.472C365.758 271.754 365.45 271.954 365.103 272.041ZM341.496 272.041H333.633C333.286 271.954 332.978 271.754 332.758 271.472C332.538 271.19 332.418 270.842 332.418 270.485C332.418 270.127 332.538 269.779 332.758 269.497C332.978 269.215 333.286 269.015 333.633 268.928H341.464C341.811 269.015 342.119 269.215 342.339 269.497C342.559 269.779 342.679 270.127 342.679 270.485C342.679 270.842 342.559 271.19 342.339 271.472C342.119 271.754 341.811 271.954 341.464 272.041H341.496ZM317.906 272.041H310.043C309.696 271.954 309.388 271.754 309.168 271.472C308.948 271.19 308.828 270.842 308.828 270.485C308.828 270.127 308.948 269.779 309.168 269.497C309.388 269.215 309.696 269.015 310.043 268.928H317.906C318.253 269.015 318.561 269.215 318.781 269.497C319.001 269.779 319.121 270.127 319.121 270.485C319.121 270.842 319.001 271.19 318.781 271.472C318.561 271.754 318.253 271.954 317.906 272.041ZM294.316 272.041H286.437C286.2 272.101 285.953 272.105 285.714 272.055C285.476 272.004 285.252 271.9 285.059 271.75C284.867 271.6 284.711 271.408 284.604 271.189C284.497 270.969 284.442 270.729 284.442 270.485C284.442 270.241 284.497 270 284.604 269.781C284.711 269.561 284.867 269.37 285.059 269.219C285.252 269.069 285.476 268.965 285.714 268.915C285.953 268.864 286.2 268.869 286.437 268.928H294.316C294.663 269.015 294.971 269.215 295.191 269.497C295.411 269.779 295.531 270.127 295.531 270.485C295.531 270.842 295.411 271.19 295.191 271.472C294.971 271.754 294.663 271.954 294.316 272.041ZM270.71 272.041H262.83C262.594 272.101 262.347 272.105 262.108 272.055C261.869 272.004 261.645 271.9 261.453 271.75C261.261 271.6 261.105 271.408 260.998 271.189C260.891 270.969 260.835 270.729 260.835 270.485C260.835 270.241 260.891 270 260.998 269.781C261.105 269.561 261.261 269.37 261.453 269.219C261.645 269.069 261.869 268.965 262.108 268.915C262.347 268.864 262.594 268.869 262.83 268.928H270.694C271.041 269.015 271.349 269.215 271.569 269.497C271.789 269.779 271.908 270.127 271.908 270.485C271.908 270.842 271.789 271.19 271.569 271.472C271.349 271.754 271.041 271.954 270.694 272.041H270.71ZM247.12 272.041H239.256C238.909 271.954 238.601 271.754 238.381 271.472C238.161 271.19 238.042 270.842 238.042 270.485C238.042 270.127 238.161 269.779 238.381 269.497C238.601 269.215 238.909 269.015 239.256 268.928H247.12C247.467 269.015 247.775 269.215 247.995 269.497C248.215 269.779 248.334 270.127 248.334 270.485C248.334 270.842 248.215 271.19 247.995 271.472C247.775 271.754 247.467 271.954 247.12 272.041ZM223.513 272.041H215.65C215.413 272.101 215.166 272.105 214.928 272.055C214.689 272.004 214.465 271.9 214.273 271.75C214.08 271.6 213.925 271.408 213.818 271.189C213.711 270.969 213.655 270.729 213.655 270.485C213.655 270.241 213.711 270 213.818 269.781C213.925 269.561 214.08 269.37 214.273 269.219C214.465 269.069 214.689 268.965 214.928 268.915C215.166 268.864 215.413 268.869 215.65 268.928H223.513C223.86 269.015 224.168 269.215 224.388 269.497C224.609 269.779 224.728 270.127 224.728 270.485C224.728 270.842 224.609 271.19 224.388 271.472C224.168 271.754 223.86 271.954 223.513 272.041ZM199.923 272.041H192.06C191.823 272.101 191.576 272.105 191.337 272.055C191.099 272.004 190.875 271.9 190.682 271.75C190.49 271.6 190.335 271.408 190.228 271.189C190.121 270.969 190.065 270.729 190.065 270.485C190.065 270.241 190.121 270 190.228 269.781C190.335 269.561 190.49 269.37 190.682 269.219C190.875 269.069 191.099 268.965 191.337 268.915C191.576 268.864 191.823 268.869 192.06 268.928H199.923C200.27 269.015 200.578 269.215 200.798 269.497C201.018 269.779 201.138 270.127 201.138 270.485C201.138 270.842 201.018 271.19 200.798 271.472C200.578 271.754 200.27 271.954 199.923 272.041ZM176.317 272.041H168.454C168.217 272.101 167.97 272.105 167.731 272.055C167.493 272.004 167.269 271.9 167.076 271.75C166.884 271.6 166.728 271.408 166.621 271.189C166.514 270.969 166.459 270.729 166.459 270.485C166.459 270.241 166.514 270 166.621 269.781C166.728 269.561 166.884 269.37 167.076 269.219C167.269 269.069 167.493 268.965 167.731 268.915C167.97 268.864 168.217 268.869 168.454 268.928H176.317C176.664 269.015 176.972 269.215 177.192 269.497C177.412 269.779 177.532 270.127 177.532 270.485C177.532 270.842 177.412 271.19 177.192 271.472C176.972 271.754 176.664 271.954 176.317 272.041ZM152.727 272.041H144.863C144.627 272.101 144.38 272.105 144.141 272.055C143.902 272.004 143.678 271.9 143.486 271.75C143.294 271.6 143.138 271.408 143.031 271.189C142.924 270.969 142.868 270.729 142.868 270.485C142.868 270.241 142.924 270 143.031 269.781C143.138 269.561 143.294 269.37 143.486 269.219C143.678 269.069 143.902 268.965 144.141 268.915C144.38 268.864 144.627 268.869 144.863 268.928H152.727C153.074 269.015 153.382 269.215 153.602 269.497C153.822 269.779 153.941 270.127 153.941 270.485C153.941 270.842 153.822 271.19 153.602 271.472C153.382 271.754 153.074 271.954 152.727 272.041ZM129.137 272.041H121.257C121.02 272.101 120.773 272.105 120.535 272.055C120.296 272.004 120.072 271.9 119.88 271.75C119.687 271.6 119.532 271.408 119.425 271.189C119.318 270.969 119.262 270.729 119.262 270.485C119.262 270.241 119.318 270 119.425 269.781C119.532 269.561 119.687 269.37 119.88 269.219C120.072 269.069 120.296 268.965 120.535 268.915C120.773 268.864 121.02 268.869 121.257 268.928H129.137C129.484 269.015 129.792 269.215 130.012 269.497C130.232 269.779 130.351 270.127 130.351 270.485C130.351 270.842 130.232 271.19 130.012 271.472C129.792 271.754 129.484 271.954 129.137 272.041ZM105.53 272.041H97.6669C97.4303 272.101 97.1832 272.105 96.9446 272.055C96.7059 272.004 96.4819 271.9 96.2895 271.75C96.0972 271.6 95.9416 271.408 95.8346 271.189C95.7276 270.969 95.672 270.729 95.672 270.485C95.672 270.241 95.7276 270 95.8346 269.781C95.9416 269.561 96.0972 269.37 96.2895 269.219C96.4819 269.069 96.7059 268.965 96.9446 268.915C97.1832 268.864 97.4303 268.869 97.6669 268.928H105.562C105.909 269.015 106.217 269.215 106.437 269.497C106.658 269.779 106.777 270.127 106.777 270.485C106.777 270.842 106.658 271.19 106.437 271.472C106.217 271.754 105.909 271.954 105.562 272.041H105.53Z" stroke="#E9AD62" stroke-width="0.01"/>
<path d="M549.922 272.041H546.022C545.785 272.101 545.538 272.105 545.3 272.055C545.061 272.004 544.837 271.9 544.645 271.75C544.452 271.6 544.297 271.408 544.19 271.189C544.083 270.969 544.027 270.729 544.027 270.485C544.027 270.241 544.083 270 544.19 269.781C544.297 269.561 544.452 269.37 544.645 269.219C544.837 269.069 545.061 268.965 545.3 268.915C545.538 268.864 545.785 268.869 546.022 268.928H549.922C550.269 269.015 550.576 269.215 550.797 269.497C551.017 269.779 551.136 270.127 551.136 270.485C551.136 270.842 551.017 271.19 550.797 271.472C550.576 271.754 550.269 271.954 549.922 272.041Z" stroke="#E9AD62" stroke-width="0.01"/>
<path d="M81.9449 343.566H78.0453C77.8087 343.625 77.5616 343.63 77.323 343.579C77.0843 343.529 76.8603 343.424 76.668 343.274C76.4756 343.124 76.3201 342.932 76.2131 342.713C76.106 342.494 76.0504 342.253 76.0504 342.009C76.0504 341.765 76.106 341.524 76.2131 341.305C76.3201 341.086 76.4756 340.894 76.668 340.744C76.8603 340.594 77.0843 340.49 77.323 340.439C77.5616 340.388 77.8087 340.393 78.0453 340.453H81.9449C82.2919 340.539 82.5999 340.74 82.82 341.022C83.0401 341.304 83.1596 341.651 83.1596 342.009C83.1596 342.367 83.0401 342.714 82.82 342.996C82.5999 343.278 82.2919 343.479 81.9449 343.566Z" stroke="#E9AD62" stroke-width="0.01"/>
<path d="M530.288 343.566H522.425C522.188 343.625 521.941 343.63 521.702 343.579C521.463 343.529 521.239 343.424 521.047 343.274C520.855 343.124 520.699 342.932 520.592 342.713C520.485 342.494 520.43 342.253 520.43 342.009C520.43 341.765 520.485 341.524 520.592 341.305C520.699 341.086 520.855 340.894 521.047 340.744C521.239 340.594 521.463 340.49 521.702 340.439C521.941 340.388 522.188 340.393 522.425 340.453H530.288C530.635 340.539 530.943 340.74 531.163 341.022C531.383 341.304 531.502 341.651 531.502 342.009C531.502 342.367 531.383 342.714 531.163 342.996C530.943 343.278 530.635 343.479 530.288 343.566ZM506.762 343.566H498.898C498.551 343.479 498.243 343.278 498.023 342.996C497.803 342.714 497.684 342.367 497.684 342.009C497.684 341.651 497.803 341.304 498.023 341.022C498.243 340.74 498.551 340.539 498.898 340.453H506.762C507.109 340.539 507.417 340.74 507.637 341.022C507.857 341.304 507.977 341.651 507.977 342.009C507.977 342.367 507.857 342.714 507.637 342.996C507.417 343.278 507.109 343.479 506.762 343.566ZM483.172 343.566H475.308C474.961 343.479 474.653 343.278 474.433 342.996C474.213 342.714 474.094 342.367 474.094 342.009C474.094 341.651 474.213 341.304 474.433 341.022C474.653 340.74 474.961 340.539 475.308 340.453H483.172C483.519 340.539 483.827 340.74 484.047 341.022C484.267 341.304 484.386 341.651 484.386 342.009C484.386 342.367 484.267 342.714 484.047 342.996C483.827 343.278 483.519 343.479 483.172 343.566ZM459.581 343.566H451.702C451.465 343.625 451.218 343.63 450.98 343.579C450.741 343.529 450.517 343.424 450.325 343.274C450.132 343.124 449.977 342.932 449.87 342.713C449.763 342.494 449.707 342.253 449.707 342.009C449.707 341.765 449.763 341.524 449.87 341.305C449.977 341.086 450.132 340.894 450.325 340.744C450.517 340.594 450.741 340.49 450.98 340.439C451.218 340.388 451.465 340.393 451.702 340.453H459.581C459.928 340.539 460.236 340.74 460.457 341.022C460.677 341.304 460.796 341.651 460.796 342.009C460.796 342.367 460.677 342.714 460.457 342.996C460.236 343.278 459.928 343.479 459.581 343.566ZM435.975 343.566H428.112C427.875 343.625 427.628 343.63 427.389 343.579C427.151 343.529 426.927 343.424 426.734 343.274C426.542 343.124 426.387 342.932 426.28 342.713C426.173 342.494 426.117 342.253 426.117 342.009C426.117 341.765 426.173 341.524 426.28 341.305C426.387 341.086 426.542 340.894 426.734 340.744C426.927 340.594 427.151 340.49 427.389 340.439C427.628 340.388 427.875 340.393 428.112 340.453H435.975C436.322 340.539 436.63 340.74 436.85 341.022C437.07 341.304 437.19 341.651 437.19 342.009C437.19 342.367 437.07 342.714 436.85 342.996C436.63 343.278 436.322 343.479 435.975 343.566ZM412.385 343.566H404.522C404.175 343.479 403.867 343.278 403.647 342.996C403.427 342.714 403.307 342.367 403.307 342.009C403.307 341.651 403.427 341.304 403.647 341.022C403.867 340.74 404.175 340.539 404.522 340.453H412.385C412.732 340.539 413.04 340.74 413.26 341.022C413.48 341.304 413.6 341.651 413.6 342.009C413.6 342.367 413.48 342.714 413.26 342.996C413.04 343.278 412.732 343.479 412.385 343.566ZM388.779 343.566H380.915C380.679 343.625 380.432 343.63 380.193 343.579C379.954 343.529 379.73 343.424 379.538 343.274C379.346 343.124 379.19 342.932 379.083 342.713C378.976 342.494 378.92 342.253 378.92 342.009C378.92 341.765 378.976 341.524 379.083 341.305C379.19 341.086 379.346 340.894 379.538 340.744C379.73 340.594 379.954 340.49 380.193 340.439C380.432 340.388 380.679 340.393 380.915 340.453H388.779C389.126 340.539 389.434 340.74 389.654 341.022C389.874 341.304 389.993 341.651 389.993 342.009C389.993 342.367 389.874 342.714 389.654 342.996C389.434 343.278 389.126 343.479 388.779 343.566ZM365.189 343.566H357.325C357.089 343.625 356.841 343.63 356.603 343.579C356.364 343.529 356.14 343.424 355.948 343.274C355.756 343.124 355.6 342.932 355.493 342.713C355.386 342.494 355.33 342.253 355.33 342.009C355.33 341.765 355.386 341.524 355.493 341.305C355.6 341.086 355.756 340.894 355.948 340.744C356.14 340.594 356.364 340.49 356.603 340.439C356.841 340.388 357.089 340.393 357.325 340.453H365.189C365.536 340.539 365.844 340.74 366.064 341.022C366.284 341.304 366.403 341.651 366.403 342.009C366.403 342.367 366.284 342.714 366.064 342.996C365.844 343.278 365.536 343.479 365.189 343.566ZM341.47 343.566H333.607C333.26 343.479 332.952 343.278 332.732 342.996C332.511 342.714 332.392 342.367 332.392 342.009C332.392 341.651 332.511 341.304 332.732 341.022C332.952 340.74 333.26 340.539 333.607 340.453H341.47C341.817 340.539 342.125 340.74 342.345 341.022C342.565 341.304 342.685 341.651 342.685 342.009C342.685 342.367 342.565 342.714 342.345 342.996C342.125 343.278 341.817 343.479 341.47 343.566ZM317.88 343.566H310.016C309.669 343.479 309.361 343.278 309.141 342.996C308.921 342.714 308.802 342.367 308.802 342.009C308.802 341.651 308.921 341.304 309.141 341.022C309.361 340.74 309.669 340.539 310.016 340.453H317.88C318.227 340.539 318.535 340.74 318.755 341.022C318.975 341.304 319.094 341.651 319.094 342.009C319.094 342.367 318.975 342.714 318.755 342.996C318.535 343.278 318.227 343.479 317.88 343.566ZM294.29 343.566H286.41C286.174 343.625 285.926 343.63 285.688 343.579C285.449 343.529 285.225 343.424 285.033 343.274C284.84 343.124 284.685 342.932 284.578 342.713C284.471 342.494 284.415 342.253 284.415 342.009C284.415 341.765 284.471 341.524 284.578 341.305C284.685 341.086 284.84 340.894 285.033 340.744C285.225 340.594 285.449 340.49 285.688 340.439C285.926 340.388 286.174 340.393 286.41 340.453H294.29C294.637 340.539 294.945 340.74 295.165 341.022C295.385 341.304 295.504 341.651 295.504 342.009C295.504 342.367 295.385 342.714 295.165 342.996C294.945 343.278 294.637 343.479 294.29 343.566ZM270.683 343.566H262.836C262.599 343.625 262.352 343.63 262.114 343.579C261.875 343.529 261.651 343.424 261.459 343.274C261.266 343.124 261.111 342.932 261.004 342.713C260.897 342.494 260.841 342.253 260.841 342.009C260.841 341.765 260.897 341.524 261.004 341.305C261.111 341.086 261.266 340.894 261.459 340.744C261.651 340.594 261.875 340.49 262.114 340.439C262.352 340.388 262.599 340.393 262.836 340.453H270.699C271.046 340.539 271.354 340.74 271.574 341.022C271.795 341.304 271.914 341.651 271.914 342.009C271.914 342.367 271.795 342.714 271.574 342.996C271.354 343.278 271.046 343.479 270.699 343.566H270.683ZM247.093 343.566H239.23C238.883 343.479 238.575 343.278 238.355 342.996C238.135 342.714 238.015 342.367 238.015 342.009C238.015 341.651 238.135 341.304 238.355 341.022C238.575 340.74 238.883 340.539 239.23 340.453H247.093C247.44 340.539 247.748 340.74 247.968 341.022C248.188 341.304 248.308 341.651 248.308 342.009C248.308 342.367 248.188 342.714 247.968 342.996C247.748 343.278 247.44 343.479 247.093 343.566ZM223.487 343.566H215.624C215.387 343.625 215.14 343.63 214.901 343.579C214.663 343.529 214.438 343.424 214.246 343.274C214.054 343.124 213.898 342.932 213.791 342.713C213.684 342.494 213.629 342.253 213.629 342.009C213.629 341.765 213.684 341.524 213.791 341.305C213.898 341.086 214.054 340.894 214.246 340.744C214.438 340.594 214.663 340.49 214.901 340.439C215.14 340.388 215.387 340.393 215.624 340.453H223.487C223.834 340.539 224.142 340.74 224.362 341.022C224.582 341.304 224.702 341.651 224.702 342.009C224.702 342.367 224.582 342.714 224.362 342.996C224.142 343.278 223.834 343.479 223.487 343.566ZM199.897 343.566H192.033C191.797 343.625 191.55 343.63 191.311 343.579C191.072 343.529 190.848 343.424 190.656 343.274C190.464 343.124 190.308 342.932 190.201 342.713C190.094 342.494 190.038 342.253 190.038 342.009C190.038 341.765 190.094 341.524 190.201 341.305C190.308 341.086 190.464 340.894 190.656 340.744C190.848 340.594 191.072 340.49 191.311 340.439C191.55 340.388 191.797 340.393 192.033 340.453H199.897C200.244 340.539 200.552 340.74 200.772 341.022C200.992 341.304 201.111 341.651 201.111 342.009C201.111 342.367 200.992 342.714 200.772 342.996C200.552 343.278 200.244 343.479 199.897 343.566ZM176.29 343.566H168.427C168.19 343.625 167.943 343.63 167.705 343.579C167.466 343.529 167.242 343.424 167.05 343.274C166.857 343.124 166.702 342.932 166.595 342.713C166.488 342.494 166.432 342.253 166.432 342.009C166.432 341.765 166.488 341.524 166.595 341.305C166.702 341.086 166.857 340.894 167.05 340.744C167.242 340.594 167.466 340.49 167.705 340.439C167.943 340.388 168.19 340.393 168.427 340.453H176.29C176.637 340.539 176.945 340.74 177.166 341.022C177.386 341.304 177.505 341.651 177.505 342.009C177.505 342.367 177.386 342.714 177.166 342.996C176.945 343.278 176.637 343.479 176.29 343.566ZM152.7 343.566H144.837C144.6 343.625 144.353 343.63 144.115 343.579C143.876 343.529 143.652 343.424 143.46 343.274C143.267 343.124 143.112 342.932 143.005 342.713C142.898 342.494 142.842 342.253 142.842 342.009C142.842 341.765 142.898 341.524 143.005 341.305C143.112 341.086 143.267 340.894 143.46 340.744C143.652 340.594 143.876 340.49 144.115 340.439C144.353 340.388 144.6 340.393 144.837 340.453H152.7C153.047 340.539 153.355 340.74 153.575 341.022C153.795 341.304 153.915 341.651 153.915 342.009C153.915 342.367 153.795 342.714 153.575 342.996C153.355 343.278 153.047 343.479 152.7 343.566ZM129.11 343.566H121.231C120.994 343.625 120.747 343.63 120.508 343.579C120.27 343.529 120.046 343.424 119.853 343.274C119.661 343.124 119.505 342.932 119.398 342.713C119.291 342.494 119.236 342.253 119.236 342.009C119.236 341.765 119.291 341.524 119.398 341.305C119.505 341.086 119.661 340.894 119.853 340.744C120.046 340.594 120.27 340.49 120.508 340.439C120.747 340.388 120.994 340.393 121.231 340.453H129.11C129.457 340.539 129.765 340.74 129.985 341.022C130.205 341.304 130.325 341.651 130.325 342.009C130.325 342.367 130.205 342.714 129.985 342.996C129.765 343.278 129.457 343.479 129.11 343.566ZM105.568 343.566H97.7046C97.468 343.625 97.2209 343.63 96.9823 343.579C96.7436 343.529 96.5196 343.424 96.3273 343.274C96.1349 343.124 95.9794 342.932 95.8724 342.713C95.7654 342.494 95.7097 342.253 95.7097 342.009C95.7097 341.765 95.7654 341.524 95.8724 341.305C95.9794 341.086 96.1349 340.894 96.3273 340.744C96.5196 340.594 96.7436 340.49 96.9823 340.439C97.2209 340.388 97.468 340.393 97.7046 340.453H105.568C105.915 340.539 106.223 340.74 106.443 341.022C106.663 341.304 106.783 341.651 106.783 342.009C106.783 342.367 106.663 342.714 106.443 342.996C106.223 343.278 105.915 343.479 105.568 343.566Z" stroke="#E9AD62" stroke-width="0.01"/>
<path d="M549.922 343.566H546.022C545.785 343.625 545.538 343.63 545.3 343.579C545.061 343.529 544.837 343.424 544.645 343.274C544.452 343.124 544.297 342.932 544.19 342.713C544.083 342.494 544.027 342.253 544.027 342.009C544.027 341.765 544.083 341.524 544.19 341.305C544.297 341.086 544.452 340.894 544.645 340.744C544.837 340.594 545.061 340.49 545.3 340.439C545.538 340.388 545.785 340.393 546.022 340.453H549.922C550.269 340.539 550.576 340.74 550.797 341.022C551.017 341.304 551.136 341.651 551.136 342.009C551.136 342.367 551.017 342.714 550.797 342.996C550.576 343.278 550.269 343.479 549.922 343.566Z" stroke="#E9AD62" stroke-width="0.01"/>
<path d="M81.9449 415.188H78.0453C77.8087 415.248 77.5616 415.252 77.323 415.202C77.0843 415.151 76.8603 415.047 76.668 414.897C76.4756 414.747 76.3201 414.555 76.2131 414.336C76.106 414.116 76.0504 413.876 76.0504 413.632C76.0504 413.388 76.106 413.147 76.2131 412.928C76.3201 412.708 76.4756 412.517 76.668 412.366C76.8603 412.216 77.0843 412.112 77.323 412.062C77.5616 412.011 77.8087 412.016 78.0453 412.075H81.9449C82.2919 412.162 82.5999 412.362 82.82 412.644C83.0401 412.926 83.1596 413.274 83.1596 413.632C83.1596 413.989 83.0401 414.337 82.82 414.619C82.5999 414.901 82.2919 415.101 81.9449 415.188Z" stroke="#E9AD62" stroke-width="0.01"/>
<path d="M530.282 415.188H522.419C522.182 415.247 521.935 415.252 521.696 415.201C521.458 415.151 521.234 415.047 521.041 414.897C520.849 414.747 520.694 414.555 520.587 414.335C520.479 414.116 520.424 413.875 520.424 413.632C520.424 413.388 520.479 413.147 520.587 412.927C520.694 412.708 520.849 412.516 521.041 412.366C521.234 412.216 521.458 412.112 521.696 412.061C521.935 412.011 522.182 412.015 522.419 412.075H530.282C530.629 412.162 530.937 412.362 531.157 412.644C531.377 412.926 531.497 413.274 531.497 413.632C531.497 413.989 531.377 414.337 531.157 414.619C530.937 414.901 530.629 415.101 530.282 415.188ZM506.676 415.188H498.813C498.576 415.247 498.329 415.252 498.09 415.201C497.852 415.151 497.628 415.047 497.435 414.897C497.243 414.747 497.087 414.555 496.98 414.335C496.873 414.116 496.818 413.875 496.818 413.632C496.818 413.388 496.873 413.147 496.98 412.927C497.087 412.708 497.243 412.516 497.435 412.366C497.628 412.216 497.852 412.112 498.09 412.061C498.329 412.011 498.576 412.015 498.813 412.075H506.756C506.993 412.015 507.24 412.011 507.479 412.061C507.717 412.112 507.941 412.216 508.134 412.366C508.326 412.516 508.481 412.708 508.589 412.927C508.696 413.147 508.751 413.388 508.751 413.632C508.751 413.875 508.696 414.116 508.589 414.335C508.481 414.555 508.326 414.747 508.134 414.897C507.941 415.047 507.717 415.151 507.479 415.201C507.24 415.252 506.993 415.247 506.756 415.188H506.676ZM483.086 415.188H475.222C474.986 415.247 474.739 415.252 474.5 415.201C474.261 415.151 474.037 415.047 473.845 414.897C473.653 414.747 473.497 414.555 473.39 414.335C473.283 414.116 473.227 413.875 473.227 413.632C473.227 413.388 473.283 413.147 473.39 412.927C473.497 412.708 473.653 412.516 473.845 412.366C474.037 412.216 474.261 412.112 474.5 412.061C474.739 412.011 474.986 412.015 475.222 412.075H483.086C483.322 412.015 483.569 412.011 483.808 412.061C484.047 412.112 484.271 412.216 484.463 412.366C484.655 412.516 484.811 412.708 484.918 412.927C485.025 413.147 485.081 413.388 485.081 413.632C485.081 413.875 485.025 414.116 484.918 414.335C484.811 414.555 484.655 414.747 484.463 414.897C484.271 415.047 484.047 415.151 483.808 415.201C483.569 415.252 483.322 415.247 483.086 415.188ZM459.496 415.188H451.616C451.38 415.247 451.132 415.252 450.894 415.201C450.655 415.151 450.431 415.047 450.239 414.897C450.046 414.747 449.891 414.555 449.784 414.335C449.677 414.116 449.621 413.875 449.621 413.632C449.621 413.388 449.677 413.147 449.784 412.927C449.891 412.708 450.046 412.516 450.239 412.366C450.431 412.216 450.655 412.112 450.894 412.061C451.132 412.011 451.38 412.015 451.616 412.075H459.496C459.843 412.162 460.151 412.362 460.371 412.644C460.591 412.926 460.71 413.274 460.71 413.632C460.71 413.989 460.591 414.337 460.371 414.619C460.151 414.901 459.843 415.101 459.496 415.188ZM435.889 415.188H428.026C427.789 415.247 427.542 415.252 427.304 415.201C427.065 415.151 426.841 415.047 426.649 414.897C426.456 414.747 426.301 414.555 426.194 414.335C426.087 414.116 426.031 413.875 426.031 413.632C426.031 413.388 426.087 413.147 426.194 412.927C426.301 412.708 426.456 412.516 426.649 412.366C426.841 412.216 427.065 412.112 427.304 412.061C427.542 412.011 427.789 412.015 428.026 412.075H435.889C436.126 412.015 436.373 412.011 436.612 412.061C436.85 412.112 437.074 412.216 437.267 412.366C437.459 412.516 437.615 412.708 437.722 412.927C437.829 413.147 437.884 413.388 437.884 413.632C437.884 413.875 437.829 414.116 437.722 414.335C437.615 414.555 437.459 414.747 437.267 414.897C437.074 415.047 436.85 415.151 436.612 415.201C436.373 415.252 436.126 415.247 435.889 415.188ZM412.299 415.188H404.436C404.089 415.101 403.781 414.901 403.561 414.619C403.341 414.337 403.221 413.989 403.221 413.632C403.221 413.274 403.341 412.926 403.561 412.644C403.781 412.362 404.089 412.162 404.436 412.075H412.299C412.536 412.015 412.783 412.011 413.021 412.061C413.26 412.112 413.484 412.216 413.677 412.366C413.869 412.516 414.024 412.708 414.131 412.927C414.238 413.147 414.294 413.388 414.294 413.632C414.294 413.875 414.238 414.116 414.131 414.335C414.024 414.555 413.869 414.747 413.677 414.897C413.484 415.047 413.26 415.151 413.021 415.201C412.783 415.252 412.536 415.247 412.299 415.188ZM388.693 415.188H380.829C380.593 415.247 380.346 415.252 380.107 415.201C379.868 415.151 379.644 415.047 379.452 414.897C379.26 414.747 379.104 414.555 378.997 414.335C378.89 414.116 378.835 413.875 378.835 413.632C378.835 413.388 378.89 413.147 378.997 412.927C379.104 412.708 379.26 412.516 379.452 412.366C379.644 412.216 379.868 412.112 380.107 412.061C380.346 412.011 380.593 412.015 380.829 412.075H388.693C389.04 412.162 389.348 412.362 389.568 412.644C389.788 412.926 389.908 413.274 389.908 413.632C389.908 413.989 389.788 414.337 389.568 414.619C389.348 414.901 389.04 415.101 388.693 415.188ZM365.103 415.188H357.239C357.003 415.247 356.756 415.252 356.517 415.201C356.278 415.151 356.054 415.047 355.862 414.897C355.67 414.747 355.514 414.555 355.407 414.335C355.3 414.116 355.244 413.875 355.244 413.632C355.244 413.388 355.3 413.147 355.407 412.927C355.514 412.708 355.67 412.516 355.862 412.366C356.054 412.216 356.278 412.112 356.517 412.061C356.756 412.011 357.003 412.015 357.239 412.075H365.103C365.45 412.162 365.758 412.362 365.978 412.644C366.198 412.926 366.317 413.274 366.317 413.632C366.317 413.989 366.198 414.337 365.978 414.619C365.758 414.901 365.45 415.101 365.103 415.188ZM341.496 415.188H333.633C333.396 415.247 333.149 415.252 332.911 415.201C332.672 415.151 332.448 415.047 332.256 414.897C332.063 414.747 331.908 414.555 331.801 414.335C331.694 414.116 331.638 413.875 331.638 413.632C331.638 413.388 331.694 413.147 331.801 412.927C331.908 412.708 332.063 412.516 332.256 412.366C332.448 412.216 332.672 412.112 332.911 412.061C333.149 412.011 333.396 412.015 333.633 412.075H341.464C341.701 412.015 341.948 412.011 342.187 412.061C342.425 412.112 342.649 412.216 342.842 412.366C343.034 412.516 343.19 412.708 343.297 412.927C343.404 413.147 343.459 413.388 343.459 413.632C343.459 413.875 343.404 414.116 343.297 414.335C343.19 414.555 343.034 414.747 342.842 414.897C342.649 415.047 342.425 415.151 342.187 415.201C341.948 415.252 341.701 415.247 341.464 415.188H341.496ZM317.906 415.188H310.043C309.806 415.247 309.559 415.252 309.321 415.201C309.082 415.151 308.858 415.047 308.665 414.897C308.473 414.747 308.318 414.555 308.211 414.335C308.104 414.116 308.048 413.875 308.048 413.632C308.048 413.388 308.104 413.147 308.211 412.927C308.318 412.708 308.473 412.516 308.665 412.366C308.858 412.216 309.082 412.112 309.321 412.061C309.559 412.011 309.806 412.015 310.043 412.075H317.906C318.143 412.015 318.39 412.011 318.629 412.061C318.867 412.112 319.091 412.216 319.284 412.366C319.476 412.516 319.632 412.708 319.739 412.927C319.846 413.147 319.901 413.388 319.901 413.632C319.901 413.875 319.846 414.116 319.739 414.335C319.632 414.555 319.476 414.747 319.284 414.897C319.091 415.047 318.867 415.151 318.629 415.201C318.39 415.252 318.143 415.247 317.906 415.188ZM294.316 415.188H286.437C286.2 415.247 285.953 415.252 285.714 415.201C285.476 415.151 285.252 415.047 285.059 414.897C284.867 414.747 284.711 414.555 284.604 414.335C284.497 414.116 284.442 413.875 284.442 413.632C284.442 413.388 284.497 413.147 284.604 412.927C284.711 412.708 284.867 412.516 285.059 412.366C285.252 412.216 285.476 412.112 285.714 412.061C285.953 412.011 286.2 412.015 286.437 412.075H294.316C294.663 412.162 294.971 412.362 295.191 412.644C295.411 412.926 295.531 413.274 295.531 413.632C295.531 413.989 295.411 414.337 295.191 414.619C294.971 414.901 294.663 415.101 294.316 415.188ZM270.71 415.188H262.83C262.594 415.247 262.347 415.252 262.108 415.201C261.869 415.151 261.645 415.047 261.453 414.897C261.261 414.747 261.105 414.555 260.998 414.335C260.891 414.116 260.835 413.875 260.835 413.632C260.835 413.388 260.891 413.147 260.998 412.927C261.105 412.708 261.261 412.516 261.453 412.366C261.645 412.216 261.869 412.112 262.108 412.061C262.347 412.011 262.594 412.015 262.83 412.075H270.694C271.041 412.162 271.349 412.362 271.569 412.644C271.789 412.926 271.908 413.274 271.908 413.632C271.908 413.989 271.789 414.337 271.569 414.619C271.349 414.901 271.041 415.101 270.694 415.188H270.71ZM247.12 415.188H239.256C239.02 415.247 238.773 415.252 238.534 415.201C238.295 415.151 238.071 415.047 237.879 414.897C237.687 414.747 237.531 414.555 237.424 414.335C237.317 414.116 237.261 413.875 237.261 413.632C237.261 413.388 237.317 413.147 237.424 412.927C237.531 412.708 237.687 412.516 237.879 412.366C238.071 412.216 238.295 412.112 238.534 412.061C238.773 412.011 239.02 412.015 239.256 412.075H247.12C247.356 412.015 247.603 412.011 247.842 412.061C248.081 412.112 248.305 412.216 248.497 412.366C248.689 412.516 248.845 412.708 248.952 412.927C249.059 413.147 249.115 413.388 249.115 413.632C249.115 413.875 249.059 414.116 248.952 414.335C248.845 414.555 248.689 414.747 248.497 414.897C248.305 415.047 248.081 415.151 247.842 415.201C247.603 415.252 247.356 415.247 247.12 415.188ZM223.513 415.188H215.65C215.413 415.247 215.166 415.252 214.928 415.201C214.689 415.151 214.465 415.047 214.273 414.897C214.08 414.747 213.925 414.555 213.818 414.335C213.711 414.116 213.655 413.875 213.655 413.632C213.655 413.388 213.711 413.147 213.818 412.927C213.925 412.708 214.08 412.516 214.273 412.366C214.465 412.216 214.689 412.112 214.928 412.061C215.166 412.011 215.413 412.015 215.65 412.075H223.513C223.86 412.162 224.168 412.362 224.388 412.644C224.609 412.926 224.728 413.274 224.728 413.632C224.728 413.989 224.609 414.337 224.388 414.619C224.168 414.901 223.86 415.101 223.513 415.188ZM199.923 415.188H192.06C191.823 415.247 191.576 415.252 191.337 415.201C191.099 415.151 190.875 415.047 190.682 414.897C190.49 414.747 190.335 414.555 190.228 414.335C190.121 414.116 190.065 413.875 190.065 413.632C190.065 413.388 190.121 413.147 190.228 412.927C190.335 412.708 190.49 412.516 190.682 412.366C190.875 412.216 191.099 412.112 191.337 412.061C191.576 412.011 191.823 412.015 192.06 412.075H199.923C200.27 412.162 200.578 412.362 200.798 412.644C201.018 412.926 201.138 413.274 201.138 413.632C201.138 413.989 201.018 414.337 200.798 414.619C200.578 414.901 200.27 415.101 199.923 415.188ZM176.317 415.188H168.454C168.217 415.247 167.97 415.252 167.731 415.201C167.493 415.151 167.269 415.047 167.076 414.897C166.884 414.747 166.728 414.555 166.621 414.335C166.514 414.116 166.459 413.875 166.459 413.632C166.459 413.388 166.514 413.147 166.621 412.927C166.728 412.708 166.884 412.516 167.076 412.366C167.269 412.216 167.493 412.112 167.731 412.061C167.97 412.011 168.217 412.015 168.454 412.075H176.317C176.664 412.162 176.972 412.362 177.192 412.644C177.412 412.926 177.532 413.274 177.532 413.632C177.532 413.989 177.412 414.337 177.192 414.619C176.972 414.901 176.664 415.101 176.317 415.188ZM152.727 415.188H144.863C144.627 415.247 144.38 415.252 144.141 415.201C143.902 415.151 143.678 415.047 143.486 414.897C143.294 414.747 143.138 414.555 143.031 414.335C142.924 414.116 142.868 413.875 142.868 413.632C142.868 413.388 142.924 413.147 143.031 412.927C143.138 412.708 143.294 412.516 143.486 412.366C143.678 412.216 143.902 412.112 144.141 412.061C144.38 412.011 144.627 412.015 144.863 412.075H152.727C152.963 412.015 153.21 412.011 153.449 412.061C153.688 412.112 153.912 412.216 154.104 412.366C154.296 412.516 154.452 412.708 154.559 412.927C154.666 413.147 154.722 413.388 154.722 413.632C154.722 413.875 154.666 414.116 154.559 414.335C154.452 414.555 154.296 414.747 154.104 414.897C153.912 415.047 153.688 415.151 153.449 415.201C153.21 415.252 152.963 415.247 152.727 415.188ZM129.137 415.188H121.257C121.02 415.247 120.773 415.252 120.535 415.201C120.296 415.151 120.072 415.047 119.88 414.897C119.687 414.747 119.532 414.555 119.425 414.335C119.318 414.116 119.262 413.875 119.262 413.632C119.262 413.388 119.318 413.147 119.425 412.927C119.532 412.708 119.687 412.516 119.88 412.366C120.072 412.216 120.296 412.112 120.535 412.061C120.773 412.011 121.02 412.015 121.257 412.075H129.137C129.484 412.162 129.792 412.362 130.012 412.644C130.232 412.926 130.351 413.274 130.351 413.632C130.351 413.989 130.232 414.337 130.012 414.619C129.792 414.901 129.484 415.101 129.137 415.188ZM105.53 415.188H97.6669C97.4303 415.247 97.1832 415.252 96.9446 415.201C96.7059 415.151 96.4819 415.047 96.2895 414.897C96.0972 414.747 95.9416 414.555 95.8346 414.335C95.7276 414.116 95.672 413.875 95.672 413.632C95.672 413.388 95.7276 413.147 95.8346 412.927C95.9416 412.708 96.0972 412.516 96.2895 412.366C96.4819 412.216 96.7059 412.112 96.9446 412.061C97.1832 412.011 97.4303 412.015 97.6669 412.075H105.562C105.909 412.162 106.217 412.362 106.437 412.644C106.658 412.926 106.777 413.274 106.777 413.632C106.777 413.989 106.658 414.337 106.437 414.619C106.217 414.901 105.909 415.101 105.562 415.188H105.53Z" stroke="#E9AD62" stroke-width="0.01"/>
<path d="M549.922 415.188H546.022C545.785 415.248 545.538 415.252 545.3 415.202C545.061 415.151 544.837 415.047 544.645 414.897C544.452 414.747 544.297 414.555 544.19 414.336C544.083 414.116 544.027 413.876 544.027 413.632C544.027 413.388 544.083 413.147 544.19 412.928C544.297 412.708 544.452 412.517 544.645 412.366C544.837 412.216 545.061 412.112 545.3 412.062C545.538 412.011 545.785 412.016 546.022 412.075H549.922C550.269 412.162 550.576 412.362 550.797 412.644C551.017 412.926 551.136 413.274 551.136 413.632C551.136 413.989 551.017 414.337 550.797 414.619C550.576 414.901 550.269 415.101 549.922 415.188Z" stroke="#E9AD62" stroke-width="0.01"/>
</svg>
