<svg width="634" height="605" viewBox="0 0 634 605" fill="none" xmlns="http://www.w3.org/2000/svg">
<path d="M627.129 177.488C625.231 140.383 621.427 103.4 615.731 66.6858H614.405L596.313 67.6306L579.427 66.5451C576.211 66.3441 570.743 64.7761 567.768 66.7461C561.154 71.1082 564.471 80.8175 567.466 86.1847C569.054 88.999 572.653 91.3711 573.658 94.2256C576.372 102.266 573.296 110.187 565.939 112.941C561.818 114.489 552.993 116.257 549.616 112.358C545.053 107.071 546.781 96.8791 549.937 91.7531C554.722 83.9334 558.601 76.3951 553.757 67.6306C553.523 67.2218 553.187 66.8807 552.782 66.6411C552.376 66.4014 551.916 66.2714 551.445 66.2637C532.07 66.3632 512.725 67.814 493.551 70.6056C493.085 70.7333 492.665 70.9896 492.338 71.3451C492.011 71.7006 491.79 72.141 491.702 72.6159C490.676 78.8877 489.691 85.1395 488.666 91.4114C488.561 91.814 488.547 92.235 488.625 92.6437C488.704 93.0524 488.872 93.4385 489.119 93.7737C489.365 94.1089 489.684 94.3848 490.051 94.5813C490.417 94.7777 490.824 94.8897 491.239 94.9091C503.555 102.454 502.825 109.517 489.048 116.097C483.683 117.32 478.059 116.608 473.168 114.086C451.055 97.1002 475.741 95.9946 479.198 89.582C482.234 83.8529 480.083 74.9477 478.917 68.7764C478.77 68.2042 478.438 67.6966 477.973 67.3329C477.507 66.9693 476.934 66.7699 476.344 66.7662L423.174 68.5553C421.604 70.5457 420.461 72.838 419.817 75.2895C419.555 77.0182 419.354 78.7672 419.153 80.496C421.164 88.0945 427.898 96.3967 427.476 103.513C427.053 110.629 422.631 113.363 417.706 113.001C415.052 113.616 412.285 113.547 409.665 112.8C401.477 111.192 398.234 105.831 399.936 96.7183C400.74 92.5371 403.413 88.6775 404.821 84.6571C406.831 78.7471 407.414 74.2643 404.7 68.5754C404.471 68.1625 404.136 67.8181 403.73 67.5778C403.323 67.3375 402.86 67.2101 402.388 67.2085L356.917 68.6961C356.199 68.7221 355.519 69.0258 355.02 69.5432C354.522 70.0607 354.243 70.7515 354.244 71.4701C354.947 82.5866 348.977 88.9186 358.144 96.8791C360.958 99.3114 367.411 101.744 368.094 106.689C369.582 117.283 357.078 121.243 349.037 120.921C345.017 120.74 336.353 119.052 332.735 116.056C322.844 107.875 331.146 98.4069 335.107 91.2907C338.202 85.7426 344.434 71.6309 336.554 66.6456C332.272 63.9318 322.362 66.344 317.578 66.3641C306.823 66.3641 296.088 66.1833 285.414 65.7812C284.694 65.8022 284.011 66.1044 283.512 66.6229C283.012 67.1415 282.735 67.8352 282.741 68.5553L281.535 89.9841C289.334 93.6828 296.872 101.643 290.359 110.629C286.661 115.735 280.107 117.343 274.057 116.82C271.674 116.993 269.283 116.626 267.062 115.745C264.841 114.864 262.848 113.493 261.231 111.735C258.971 109.524 257.55 106.596 257.211 103.452L256.789 102.95L257.191 102.367L257.191 102.246C257.25 101.048 257.556 99.8739 258.088 98.7983C258.621 97.7228 259.369 96.7684 260.287 95.9946C261.452 94.6995 262.715 93.4966 264.066 92.3963L264.287 92.0748C264.583 91.7699 264.914 91.5 265.272 91.2706C266.617 90.0565 267.699 88.5786 268.448 86.9286C269.817 83.4346 270.361 79.6714 270.036 75.9327C269.597 73.6337 269.288 71.3115 269.111 68.9774C268.998 68.698 268.91 68.4086 268.85 68.113C268.488 65.9219 268.227 63.8113 268.046 61.6603C267.639 61.382 267.151 61.2475 266.659 61.2784L219.138 63.2886C218.551 63.3054 217.984 63.5096 217.521 63.8713C217.058 64.2329 216.723 64.7331 216.565 65.2988C214.675 72.2139 215.399 78.1038 216.967 85.0993C218.153 90.4263 219.681 95.3313 218.977 100.598C220.183 110.408 209.71 121.002 200.302 115.654C198.935 114.867 197.744 113.806 196.804 112.539C196.191 112.06 195.693 111.451 195.345 110.756C194.997 110.06 194.809 109.296 194.794 108.518C193.896 105.991 193.784 103.251 194.473 100.658C196.061 95.0297 200.945 92.135 206.152 91.2103L206.795 90.9892C207.164 90.3 207.304 89.5119 207.197 88.7377L204.061 66.6255C203.906 66.0582 203.571 65.5562 203.108 65.194C202.644 64.8319 202.076 64.6289 201.488 64.6153C185.245 63.1106 168.892 63.2655 152.68 65.0776C152.092 65.0994 151.526 65.3052 151.061 65.6658C150.595 66.0264 150.255 66.5236 150.087 67.0878C147.092 77.1388 148.58 84.6169 152.439 92.9593C157.404 96.6178 161.787 103.151 162.209 108.619C162.531 111.118 161.968 113.65 160.616 115.777C159.265 117.903 157.211 119.489 154.811 120.258C152.959 121.609 150.794 122.467 148.519 122.75L143.172 123.474C132.84 123.474 126.146 117.584 130.166 103.493C131.071 100.357 133.704 97.462 135.051 94.507C148.017 66.3641 112.939 67.8919 95.8317 65.7209C95.5392 65.669 95.2398 65.669 94.9473 65.7209C94.4444 65.52 93.8993 65.4478 93.3615 65.5106C92.8236 65.5734 92.3099 65.7693 91.8669 66.0806C91.4238 66.3919 91.0654 66.8089 90.824 67.2937C90.5827 67.7784 90.466 68.3156 90.4846 68.8568C92.736 206.368 89.5532 343.826 80.9361 481.23C78.4837 520.094 75.589 558.958 72.252 597.822C72.2464 598.72 72.5924 599.585 73.216 600.231C73.8396 600.877 74.6913 601.254 75.589 601.28C218.394 600.275 361.052 594.244 503.562 583.188C543.766 580.072 588.493 582.344 628.556 578.444C630.265 578.263 630.386 580.273 630.265 578.263C622.506 447.801 633.039 308.051 627.129 177.488Z" stroke="#FFE600" stroke-width="6.00145"/>
<path d="M117.498 55.2896C118.285 57.0012 118.284 57.0013 118.284 57.0015L118.282 57.0024L118.275 57.0058L118.245 57.0195L118.127 57.0737L117.665 57.2861L115.891 58.1007C114.352 58.807 112.131 59.8266 109.397 61.0798C103.931 63.5863 96.4182 67.0273 88.233 70.7655C71.8668 78.2402 52.7995 86.909 42.0326 91.6686C31.2812 96.4213 21.5973 100.746 14.5531 103.934C11.2332 105.437 8.50419 106.685 6.52755 107.606L16.6184 112.171L18.7603 113.14L17.3477 115.019L15.1186 117.984L10.2778 124.984C11.6318 125.36 13.008 125.655 14.3989 125.866C15.4737 125.97 16.3737 126.406 17.0671 127.085C17.7416 127.745 18.1387 128.553 18.3872 129.286C18.8034 130.513 18.9189 131.931 18.9941 132.853C19.0049 132.985 19.0148 133.107 19.0247 133.217C19.1004 134.058 18.8853 135.218 18.6608 136.217C18.4151 137.312 18.0749 138.55 17.7369 139.698C17.3975 140.85 17.0532 141.936 16.7944 142.732C16.6984 143.027 16.614 143.283 16.5456 143.489C16.7499 144.123 17.0441 144.726 17.4196 145.278C17.6382 145.35 17.9483 145.434 18.3444 145.526C19.1594 145.714 20.1978 145.903 21.2425 146.073C22.2805 146.242 23.2956 146.387 24.0533 146.49C24.4315 146.542 24.7441 146.583 24.9616 146.611C25.0703 146.625 25.1551 146.635 25.2124 146.643L25.2772 146.651L25.2932 146.653L25.2969 146.653L25.2977 146.653L25.2978 146.653L28.397 147.033L26.616 149.597L19.4943 159.853L20.5282 159.909L20.6626 159.917L20.7946 159.943L30.8456 161.953L33.4115 162.467L32.1107 164.737L26.9841 173.686C27.5862 173.659 28.2182 173.625 28.8343 173.581C28.8285 173.581 28.93 173.57 29.1939 173.506C29.4348 173.447 29.7467 173.359 30.1293 173.242C30.8935 173.008 31.8779 172.675 33.0278 172.265C35.3242 171.446 38.2155 170.344 41.1954 169.173C47.16 166.831 53.4087 164.244 55.8457 163.164C58.1083 162.161 63.5327 160.199 69.1476 158.167C69.864 157.908 70.5836 157.648 71.3 157.388C77.7653 155.046 83.9102 152.787 85.9069 151.769C87.3434 151.038 93.2671 148.222 100.719 144.68C104.473 142.895 108.614 140.927 112.765 138.948C125.248 132.995 137.736 126.983 140.453 125.405C146.122 122.113 202.17 93.6272 219.527 84.8086C228.172 80.4165 238.097 74.6591 245.88 69.9873C249.768 67.6538 253.113 65.596 255.485 64.1219C255.549 64.0823 255.612 64.0431 255.674 64.0043C254.404 63.6239 253.089 63.2054 252.246 62.8683L252.097 62.8088L251.961 62.725C248.914 60.856 245.989 58.7959 243.202 56.5571L241.905 55.5145L242.78 54.0985L247.517 46.4312L234.72 40.4523L233.202 39.743L233.729 38.1524L237.477 26.8551L226.327 20.716L225.08 20.0295L225.4 18.6425L228.298 6.07033C228.156 6.13713 228.001 6.20967 227.835 6.28764C226.81 6.76778 225.344 7.45429 223.577 8.2799C220.043 9.93104 215.306 12.1389 210.495 14.3653C205.685 16.5911 200.796 18.8376 196.961 20.565C195.044 21.4283 193.383 22.1653 192.123 22.7064C191.494 22.9765 190.956 23.2018 190.531 23.371C190.15 23.5226 189.747 23.676 189.454 23.7487C189.467 23.7454 189.45 23.7523 189.395 23.7739C189.285 23.8174 189.024 23.9208 188.552 24.1228C187.932 24.3882 187.081 24.7647 186.026 25.2392C183.92 26.1873 181.033 27.5124 177.628 29.0895C170.82 32.2428 161.959 36.3938 153.169 40.5281C144.38 44.6621 135.664 48.7781 129.145 51.8606C125.885 53.4018 123.175 54.6847 121.28 55.5822C120.333 56.0309 119.589 56.3833 119.082 56.6236L118.503 56.8977L118.355 56.968L118.318 56.9858L118.308 56.9902L118.306 56.9914C118.305 56.9916 118.305 56.9917 117.498 55.2896ZM117.498 55.2896L118.285 57.0012L118.295 56.9965L118.305 56.9917L117.498 55.2896Z" fill="#E96262" stroke="#E96262" stroke-width="3.76757"/>
<mask id="path-3-inside-1_104_3598" fill="white">
<path d="M261.375 61.7189C256.478 60.6303 251.845 58.5805 247.746 55.6883L252.57 46.7831C252.7 46.5676 252.783 46.3277 252.815 46.0785C252.848 45.8293 252.828 45.576 252.759 45.3346C252.689 45.0932 252.57 44.8687 252.41 44.6752C252.249 44.4817 252.051 44.3235 251.827 44.2101L237.494 37.9382C238.901 34.2193 240.288 30.4803 241.695 26.7614C241.831 26.3409 241.811 25.8853 241.637 25.4788C241.463 25.0723 241.148 24.7424 240.75 24.5502L228.548 20.1076C229.956 14.3785 231.383 8.62936 232.79 2.90027C233.112 1.55343 231.966 0.0659075 230.659 0.668969C168.383 29.5489 106.154 58.5763 43.9713 87.7511C36.4799 91.2757 28.9886 94.8137 21.4972 98.3651C21.3909 98.3454 21.2819 98.3454 21.1755 98.3651C14.5218 100.596 8.06901 103.35 1.45544 105.702C0.369924 106.084 0.450327 108.074 1.57604 108.496C5.72427 110.007 9.75559 111.821 13.6373 113.924C10.9235 117.623 8.33034 121.382 5.85779 125.282C5.73594 125.484 5.65731 125.709 5.62688 125.943C5.59645 126.177 5.61487 126.415 5.68098 126.642C5.74708 126.869 5.85945 127.079 6.01097 127.26C6.1625 127.441 6.3499 127.589 6.56136 127.694L11.7276 129.704C13.7378 130.528 15.949 130.95 15.5872 134.127C15.1851 137.705 13.2553 140.921 12.793 144.479C12.6269 145.271 12.7507 146.096 13.1417 146.805C13.5328 147.513 14.1652 148.057 14.9238 148.339C17.222 149.138 19.628 149.586 22.06 149.665L15.0645 160.4C14.9176 160.643 14.8302 160.918 14.8093 161.202C14.7884 161.485 14.8346 161.77 14.9443 162.032C15.0539 162.295 15.2239 162.528 15.4404 162.712C15.6569 162.896 15.9138 163.027 16.1903 163.094L27.0052 164.561C25.5535 168.377 23.806 172.074 21.7786 175.617C21.6133 175.887 21.5233 176.196 21.5179 176.512C21.5125 176.828 21.5919 177.14 21.7479 177.415C21.9039 177.69 22.1307 177.918 22.4048 178.076C22.6789 178.233 22.9902 178.314 23.3064 178.311C24.8053 178.284 26.3018 178.177 27.7891 177.989C29.4069 177.202 31.1148 176.614 32.875 176.24C33.1055 176.07 33.3473 175.916 33.5986 175.778C33.8186 175.636 34.0548 175.522 34.3022 175.436V175.436C38.0123 173.856 41.8193 172.513 45.7001 171.416L47.9917 170.752L50.3034 170.109L52.9368 169.164C55.148 168.38 57.3593 167.677 59.5705 166.953C110.308 145.102 159.779 120.156 208.909 94.5859L236.348 80.2932C245.253 75.6496 254.44 71.2473 262.239 64.7745C262.471 64.547 262.638 64.2613 262.721 63.9474C262.805 63.6335 262.802 63.3028 262.713 62.9903C262.625 62.6777 262.454 62.3948 262.219 62.171C261.983 61.9473 261.692 61.7912 261.375 61.7189ZM236.609 76.313C228.569 80.5345 220.481 84.7492 212.346 88.9572C195.983 97.4805 179.58 105.91 163.136 114.246C131.214 130.327 99.0308 145.927 66.3449 160.279C61.5003 162.068 56.716 163.998 51.8915 165.828L51.5498 165.968L49.1978 166.853C42.9461 169.185 36.7345 171.537 30.5833 174.11C29.0154 174.391 27.4273 174.612 25.8191 174.753C27.6649 171.228 29.2505 167.573 30.5632 163.817C30.6424 163.579 30.671 163.326 30.6471 163.076C30.6232 162.825 30.5474 162.583 30.4244 162.363C30.3015 162.144 30.1341 161.952 29.933 161.801C29.7319 161.65 29.5016 161.543 29.2566 161.485L19.0045 160.098C21.3364 156.507 23.6749 152.909 26.0202 149.304C26.1678 149.063 26.2559 148.791 26.277 148.51C26.2981 148.229 26.2516 147.946 26.1415 147.687C26.0313 147.427 25.8606 147.197 25.6437 147.017C25.4268 146.837 25.1699 146.711 24.8944 146.65L19.487 145.826C18.7633 145.705 18.0195 145.645 17.316 145.504C16.2506 145.263 15.9892 145.504 15.8284 144.459C16.0186 142.755 16.4801 141.092 17.1954 139.534C17.6175 137.966 18.1602 136.398 18.4417 134.79C19.5473 128.478 13.8986 126.93 9.27514 125.402C11.7075 121.623 14.2403 117.924 16.8938 114.346C17.0094 114.148 17.0834 113.929 17.1115 113.702C17.1396 113.474 17.1211 113.243 17.0572 113.023C16.9932 112.803 16.8852 112.599 16.7396 112.422C16.594 112.245 16.4139 112.099 16.2103 111.994C12.9694 110.144 9.61202 108.506 6.15931 107.089C10.3868 105.493 14.5269 103.675 18.5623 101.642L18.6829 101.983C72.3152 77.8609 125.606 52.9946 178.977 28.3093L228.91 5.21205C227.644 10.318 226.397 15.4239 225.131 20.5298C225.002 20.9535 225.026 21.409 225.199 21.8169C225.371 22.2247 225.682 22.5589 226.076 22.7611L238.137 27.1032L233.976 38.1795C233.84 38.6 233.86 39.0556 234.034 39.4621C234.208 39.8686 234.523 40.1985 234.921 40.3907L248.992 46.5821C247.424 49.4366 245.87 52.2911 244.329 55.1456C244.105 55.5198 244.02 55.9609 244.09 56.3912C244.16 56.8215 244.38 57.2134 244.71 57.4975C248.578 60.4161 252.915 62.6527 257.536 64.1111C250.889 68.718 243.892 72.7978 236.609 76.313Z"/>
</mask>
<path d="M261.375 61.7189C256.478 60.6303 251.845 58.5805 247.746 55.6883L252.57 46.7831C252.7 46.5676 252.783 46.3277 252.815 46.0785C252.848 45.8293 252.828 45.576 252.759 45.3346C252.689 45.0932 252.57 44.8687 252.41 44.6752C252.249 44.4817 252.051 44.3235 251.827 44.2101L237.494 37.9382C238.901 34.2193 240.288 30.4803 241.695 26.7614C241.831 26.3409 241.811 25.8853 241.637 25.4788C241.463 25.0723 241.148 24.7424 240.75 24.5502L228.548 20.1076C229.956 14.3785 231.383 8.62936 232.79 2.90027C233.112 1.55343 231.966 0.0659075 230.659 0.668969C168.383 29.5489 106.154 58.5763 43.9713 87.7511C36.4799 91.2757 28.9886 94.8137 21.4972 98.3651C21.3909 98.3454 21.2819 98.3454 21.1755 98.3651C14.5218 100.596 8.06901 103.35 1.45544 105.702C0.369924 106.084 0.450327 108.074 1.57604 108.496C5.72427 110.007 9.75559 111.821 13.6373 113.924C10.9235 117.623 8.33034 121.382 5.85779 125.282C5.73594 125.484 5.65731 125.709 5.62688 125.943C5.59645 126.177 5.61487 126.415 5.68098 126.642C5.74708 126.869 5.85945 127.079 6.01097 127.26C6.1625 127.441 6.3499 127.589 6.56136 127.694L11.7276 129.704C13.7378 130.528 15.949 130.95 15.5872 134.127C15.1851 137.705 13.2553 140.921 12.793 144.479C12.6269 145.271 12.7507 146.096 13.1417 146.805C13.5328 147.513 14.1652 148.057 14.9238 148.339C17.222 149.138 19.628 149.586 22.06 149.665L15.0645 160.4C14.9176 160.643 14.8302 160.918 14.8093 161.202C14.7884 161.485 14.8346 161.77 14.9443 162.032C15.0539 162.295 15.2239 162.528 15.4404 162.712C15.6569 162.896 15.9138 163.027 16.1903 163.094L27.0052 164.561C25.5535 168.377 23.806 172.074 21.7786 175.617C21.6133 175.887 21.5233 176.196 21.5179 176.512C21.5125 176.828 21.5919 177.14 21.7479 177.415C21.9039 177.69 22.1307 177.918 22.4048 178.076C22.6789 178.233 22.9902 178.314 23.3064 178.311C24.8053 178.284 26.3018 178.177 27.7891 177.989C29.4069 177.202 31.1148 176.614 32.875 176.24C33.1055 176.07 33.3473 175.916 33.5986 175.778C33.8186 175.636 34.0548 175.522 34.3022 175.436V175.436C38.0123 173.856 41.8193 172.513 45.7001 171.416L47.9917 170.752L50.3034 170.109L52.9368 169.164C55.148 168.38 57.3593 167.677 59.5705 166.953C110.308 145.102 159.779 120.156 208.909 94.5859L236.348 80.2932C245.253 75.6496 254.44 71.2473 262.239 64.7745C262.471 64.547 262.638 64.2613 262.721 63.9474C262.805 63.6335 262.802 63.3028 262.713 62.9903C262.625 62.6777 262.454 62.3948 262.219 62.171C261.983 61.9473 261.692 61.7912 261.375 61.7189ZM236.609 76.313C228.569 80.5345 220.481 84.7492 212.346 88.9572C195.983 97.4805 179.58 105.91 163.136 114.246C131.214 130.327 99.0308 145.927 66.3449 160.279C61.5003 162.068 56.716 163.998 51.8915 165.828L51.5498 165.968L49.1978 166.853C42.9461 169.185 36.7345 171.537 30.5833 174.11C29.0154 174.391 27.4273 174.612 25.8191 174.753C27.6649 171.228 29.2505 167.573 30.5632 163.817C30.6424 163.579 30.671 163.326 30.6471 163.076C30.6232 162.825 30.5474 162.583 30.4244 162.363C30.3015 162.144 30.1341 161.952 29.933 161.801C29.7319 161.65 29.5016 161.543 29.2566 161.485L19.0045 160.098C21.3364 156.507 23.6749 152.909 26.0202 149.304C26.1678 149.063 26.2559 148.791 26.277 148.51C26.2981 148.229 26.2516 147.946 26.1415 147.687C26.0313 147.427 25.8606 147.197 25.6437 147.017C25.4268 146.837 25.1699 146.711 24.8944 146.65L19.487 145.826C18.7633 145.705 18.0195 145.645 17.316 145.504C16.2506 145.263 15.9892 145.504 15.8284 144.459C16.0186 142.755 16.4801 141.092 17.1954 139.534C17.6175 137.966 18.1602 136.398 18.4417 134.79C19.5473 128.478 13.8986 126.93 9.27514 125.402C11.7075 121.623 14.2403 117.924 16.8938 114.346C17.0094 114.148 17.0834 113.929 17.1115 113.702C17.1396 113.474 17.1211 113.243 17.0572 113.023C16.9932 112.803 16.8852 112.599 16.7396 112.422C16.594 112.245 16.4139 112.099 16.2103 111.994C12.9694 110.144 9.61202 108.506 6.15931 107.089C10.3868 105.493 14.5269 103.675 18.5623 101.642L18.6829 101.983C72.3152 77.8609 125.606 52.9946 178.977 28.3093L228.91 5.21205C227.644 10.318 226.397 15.4239 225.131 20.5298C225.002 20.9535 225.026 21.409 225.199 21.8169C225.371 22.2247 225.682 22.5589 226.076 22.7611L238.137 27.1032L233.976 38.1795C233.84 38.6 233.86 39.0556 234.034 39.4621C234.208 39.8686 234.523 40.1985 234.921 40.3907L248.992 46.5821C247.424 49.4366 245.87 52.2911 244.329 55.1456C244.105 55.5198 244.02 55.9609 244.09 56.3912C244.16 56.8215 244.38 57.2134 244.71 57.4975C248.578 60.4161 252.915 62.6527 257.536 64.1111C250.889 68.718 243.892 72.7978 236.609 76.313Z" fill="#E96262" stroke="#E96262" stroke-width="7.53513" mask="url(#path-3-inside-1_104_3598)"/>
<mask id="path-4-inside-2_104_3598" fill="white">
<path d="M23.1625 179.056C22.7239 179.055 22.2935 178.937 21.9155 178.714C21.5375 178.492 21.2256 178.172 21.0116 177.79C20.784 177.395 20.6642 176.948 20.6642 176.493C20.6642 176.038 20.784 175.591 21.0116 175.196C22.88 171.977 24.4931 168.617 25.8361 165.145L16.0263 163.819C15.6283 163.754 15.2533 163.589 14.9367 163.339C14.6202 163.09 14.3725 162.763 14.2171 162.391C14.0476 162.003 13.9737 161.579 14.0017 161.156C14.0296 160.732 14.1587 160.322 14.3779 159.959L20.6698 150.29C18.6079 150.17 16.5754 149.743 14.6392 149.023C13.7191 148.684 12.9494 148.029 12.4671 147.175C11.9849 146.321 11.8214 145.323 12.0059 144.36C12.3009 142.573 12.7792 140.822 13.4331 139.133C14.084 137.481 14.5492 135.762 14.8202 134.007C15.0614 131.856 14.0965 131.394 12.0863 130.65L6.25668 128.359C5.94585 128.228 5.6676 128.031 5.44175 127.781C5.2159 127.531 5.048 127.234 4.95004 126.911C4.84985 126.578 4.81957 126.227 4.86107 125.881C4.90258 125.535 5.01498 125.201 5.19127 124.901C7.4226 121.383 9.87504 117.805 12.4883 114.227C8.90626 112.317 5.19901 110.651 1.39198 109.242C0.96149 109.06 0.597339 108.751 0.349135 108.355C0.100931 107.959 -0.0192646 107.497 0.0049344 107.03C-0.0249681 106.604 0.0816801 106.18 0.309398 105.818C0.537115 105.457 0.874069 105.177 1.27137 105.02C4.18617 103.995 7.06077 102.869 9.95546 101.764C13.5537 100.376 17.2726 98.9492 20.9915 97.7431H21.3935C28.8313 94.2052 36.2758 90.6873 43.7269 87.1895C107.832 57.0364 171.335 27.587 230.415 0.207993C230.783 0.0261016 231.198 -0.0387375 231.604 0.0223584C232.01 0.0834543 232.388 0.267519 232.686 0.549694C233.069 0.889719 233.352 1.3278 233.504 1.81662C233.657 2.30545 233.673 2.8265 233.551 3.32379L229.53 19.8677L241.109 24.0691C241.677 24.3148 242.13 24.7677 242.375 25.3356C242.51 25.6535 242.58 25.9953 242.58 26.3407C242.58 26.686 242.51 27.0279 242.375 27.3458L238.355 37.839L252.024 43.8696C252.334 44.0067 252.611 44.2086 252.837 44.4617C253.062 44.7149 253.231 45.0134 253.331 45.3371C253.448 45.697 253.49 46.0767 253.455 46.4533C253.421 46.8299 253.31 47.1956 253.13 47.5282L248.627 55.7901C252.512 58.4318 256.865 60.308 261.452 61.3182C261.942 61.4325 262.389 61.6813 262.744 62.0366C263.099 62.3918 263.348 62.8392 263.463 63.3284C263.569 63.7477 263.556 64.1886 263.425 64.6008C263.293 65.0131 263.049 65.3802 262.719 65.6603C255.603 71.1429 247.928 75.8595 239.823 79.7317L236.687 81.36L209.247 95.6525C162.249 120.036 111.612 145.687 59.8689 168.02C57.5973 168.764 55.3861 169.467 53.195 170.231C52.3306 170.553 51.4461 170.854 50.5817 171.196L48.2097 171.839L45.8979 172.503C42.0467 173.61 38.2672 174.953 34.5805 176.523C34.0927 176.715 33.6329 176.972 33.2135 177.287L32.9522 177.408C31.2501 177.776 29.5971 178.342 28.0272 179.096H27.786C26.2779 179.279 24.7617 179.386 23.2429 179.418L23.1625 179.056ZM21.4337 99.0498C17.6948 100.296 13.996 101.723 10.3977 103.07C7.503 104.196 4.62842 105.302 1.69352 106.347C1.49249 106.347 1.43218 106.689 1.43218 106.91C1.41293 107.066 1.44096 107.224 1.51265 107.363C1.58434 107.503 1.69638 107.618 1.83423 107.694C5.98359 109.225 10.0148 111.059 13.8955 113.182L14.6794 113.604L14.1568 114.307C11.3626 118.087 8.74933 121.886 6.39739 125.605C6.34205 125.731 6.31348 125.868 6.31348 126.007C6.31348 126.145 6.34205 126.282 6.39739 126.409C6.42599 126.519 6.47872 126.621 6.55174 126.708C6.62476 126.795 6.71624 126.864 6.81953 126.911L12.629 129.183C14.5387 129.886 16.6494 130.711 16.3278 134.148C16.0409 136.012 15.5488 137.839 14.8604 139.596C14.2468 141.188 13.7956 142.838 13.5135 144.521C13.3688 145.149 13.4611 145.808 13.7728 146.372C14.0844 146.936 14.5934 147.365 15.2021 147.576C17.3262 148.315 19.5482 148.735 21.7956 148.823L23.3635 148.963L15.6644 160.763C15.5885 160.913 15.5489 161.078 15.5489 161.246C15.5489 161.413 15.5885 161.579 15.6644 161.728C15.72 161.867 15.81 161.99 15.926 162.085C16.042 162.18 16.1803 162.244 16.3278 162.271L28.0674 163.859L27.7257 164.763C26.2807 168.631 24.5122 172.37 22.4388 175.94C22.3451 176.098 22.2956 176.279 22.2956 176.463C22.2956 176.647 22.3451 176.827 22.4388 176.986C22.5362 177.139 22.6693 177.267 22.8268 177.358C22.9844 177.449 23.1616 177.501 23.3434 177.508C24.7104 177.508 26.1175 177.367 27.6051 177.186C29.1966 176.43 30.8691 175.856 32.5904 175.478C32.8214 175.314 33.0632 175.167 33.314 175.036C33.5587 174.877 33.822 174.748 34.098 174.654C37.8484 173.037 41.6953 171.654 45.6165 170.513L47.9081 169.849L50.2601 169.226C51.0642 168.905 51.9487 168.583 52.8533 168.281C55.0444 167.497 57.2757 166.774 59.4869 166.07C111.129 143.837 161.726 118.207 208.705 93.8233C217.871 89.0792 227.018 84.3149 236.144 79.5307L239.28 77.9024C247.289 74.1074 254.876 69.4784 261.915 64.0923C262.026 63.9941 262.105 63.8658 262.145 63.7231C262.184 63.5803 262.181 63.4293 262.136 63.2883C262.095 63.0872 262 62.9008 261.862 62.7488C261.724 62.5967 261.548 62.4845 261.352 62.4239C256.369 61.3501 251.648 59.3005 247.461 56.3933L246.898 55.9912L252.065 46.503C252.145 46.357 252.195 46.1965 252.213 46.0307C252.23 45.865 252.214 45.6975 252.165 45.5381C252.128 45.4187 252.065 45.3085 251.982 45.2149C251.899 45.1214 251.797 45.0465 251.683 44.9953L236.687 38.422L241.129 26.5618C241.228 26.3166 241.228 26.043 241.129 25.7979C241.049 25.5975 240.899 25.4331 240.707 25.3356L227.862 20.692L232.264 2.78099C232.313 2.56106 232.304 2.33206 232.237 2.11685C232.17 1.90165 232.048 1.70782 231.882 1.5548C231.791 1.46504 231.675 1.40533 231.549 1.38376C231.424 1.36219 231.294 1.3798 231.179 1.43419C172.079 28.8132 108.556 58.303 44.4908 88.4159C36.9927 91.9337 29.4947 95.4917 22.0167 99.0297H21.8358L21.4337 99.0498ZM24.5094 175.639L25.1727 174.392C26.9989 170.898 28.571 167.277 29.8766 163.557C29.9162 163.413 29.9259 163.261 29.9052 163.113C29.8845 162.964 29.8337 162.821 29.756 162.693C29.695 162.577 29.6095 162.475 29.5054 162.395C29.4012 162.316 29.281 162.259 29.1529 162.231L17.735 160.703L25.3938 148.883C25.4679 148.74 25.5065 148.581 25.5065 148.42C25.5065 148.26 25.4679 148.101 25.3938 147.958C25.3379 147.817 25.2482 147.692 25.1325 147.594C25.0168 147.496 24.8787 147.427 24.7305 147.395L18.6999 146.471C18.1973 146.471 17.6948 146.35 17.1922 146.249C17.0209 146.202 16.8462 146.168 16.6695 146.149C15.765 146.028 15.3227 145.747 15.1418 144.581C15.1277 143.23 15.4307 141.894 16.0263 140.681C16.2273 140.179 16.4082 139.696 16.5087 139.334L16.8907 137.987C17.24 136.892 17.5285 135.778 17.7551 134.651C18.6999 129.283 14.1367 127.796 9.71423 126.328L8.12617 125.806L8.66892 124.982C11.1817 121.082 13.7547 117.343 16.3278 113.885C16.3633 113.813 16.3817 113.734 16.3817 113.654C16.3817 113.574 16.3633 113.495 16.3278 113.423C16.2905 113.264 16.2214 113.115 16.1246 112.983C16.0279 112.852 15.9055 112.742 15.765 112.659C12.6084 110.849 9.3384 109.244 5.97525 107.855L4.18617 107.131L5.97525 106.447C10.1809 104.87 14.2948 103.058 18.2978 101.02L19.0014 100.658L19.1622 101.04C60.7333 82.3852 102.767 62.846 143.413 44.0506L178.853 27.6272L228.766 4.52986L230.174 3.86658L226.033 20.7321C226.033 21.1744 226.033 21.8579 226.495 22.0388L239.219 26.6623L234.797 38.4622C234.73 38.6984 234.746 38.9502 234.841 39.1766C234.936 39.4029 235.104 39.5904 235.32 39.7085L250.195 46.2015L245.029 55.5891C244.891 55.8046 244.833 56.0619 244.866 56.3157C244.899 56.5695 245.021 56.8034 245.21 56.9762C249.015 59.8356 253.277 62.0309 257.814 63.4691L259.241 63.9114L258.035 64.8161C252.06 69.0022 245.762 72.7059 239.199 75.8922L236.948 77.0783L212.685 89.7224C193.005 99.9544 177.828 107.814 163.455 115.011C126.668 133.585 95.9119 148.219 66.6232 161.045C63.5676 162.197 60.5457 163.356 57.5571 164.522L52.21 166.553L51.8683 166.673L49.5163 167.578C43.4857 169.809 37.1536 172.201 30.9219 174.814C29.0323 175.156 27.4644 175.377 25.9366 175.518L24.5094 175.639ZM20.2678 159.557L29.3539 160.783C29.6998 160.846 30.028 160.982 30.316 161.183C30.604 161.385 30.845 161.646 31.0224 161.949C31.2132 162.274 31.3333 162.635 31.3749 163.009C31.4164 163.383 31.3785 163.762 31.2636 164.12C30.0962 167.469 28.713 170.739 27.1226 173.91C28.188 173.789 29.2735 173.628 30.4596 173.407C36.4902 170.834 42.9429 168.442 48.9534 166.211L51.2853 165.306C51.4323 165.234 51.5875 165.18 51.7476 165.145L57.0345 163.135C60.0498 161.956 63.0651 160.797 66.0804 159.658C95.2887 146.853 126.045 132.218 162.791 113.664C177.164 106.407 192.341 98.6076 212.021 88.3957L236.285 75.7315L238.536 74.5655C244.566 71.6132 250.389 68.2552 255.964 64.5145C251.799 63.0269 247.882 60.9193 244.345 58.2628C243.863 57.8657 243.537 57.31 243.427 56.695C243.317 56.08 243.428 55.4458 243.742 54.9056L247.984 47.086L234.636 41.2362C234.068 40.9574 233.62 40.4817 233.376 39.8975C233.132 39.3134 233.108 38.6605 233.309 38.0602L237.189 27.7076L225.912 23.6872C225.339 23.4268 224.881 22.9672 224.622 22.394C224.363 21.8208 224.322 21.1731 224.505 20.5714L227.882 6.78128L179.356 29.2354L144.016 45.5985C103.129 64.5547 60.8539 84.1541 19.0617 102.909L18.3782 103.211L18.2375 102.909C15.3629 104.377 12.2069 105.784 8.18647 107.352C11.0335 108.603 13.8115 110.006 16.5087 111.553C16.8334 111.744 17.1152 111.999 17.3366 112.303C17.558 112.608 17.7141 112.955 17.7953 113.322C17.8562 113.618 17.8537 113.923 17.7879 114.218C17.722 114.512 17.5944 114.789 17.4133 115.031C15.0614 118.227 12.6893 121.645 10.3575 125.203C14.8604 126.69 20.2477 128.6 19.1019 135.254C18.8808 136.46 18.539 137.626 18.2174 138.751C18.0767 139.194 17.9561 139.636 17.8355 140.058C17.7149 140.48 17.5138 141.003 17.3128 141.566C16.8416 142.535 16.5618 143.586 16.4886 144.661C16.497 144.762 16.497 144.863 16.4886 144.963H16.7097L17.353 145.084C17.7953 145.084 18.2576 145.224 18.7199 145.285L24.8712 146.209C25.2677 146.279 25.64 146.448 25.953 146.701C26.266 146.955 26.5094 147.283 26.6603 147.657C26.8349 148.037 26.9116 148.455 26.8836 148.873C26.8555 149.291 26.7234 149.695 26.4994 150.049L20.2678 159.557Z"/>
</mask>
<path d="M23.1625 179.056C22.7239 179.055 22.2935 178.937 21.9155 178.714C21.5375 178.492 21.2256 178.172 21.0116 177.79C20.784 177.395 20.6642 176.948 20.6642 176.493C20.6642 176.038 20.784 175.591 21.0116 175.196C22.88 171.977 24.4931 168.617 25.8361 165.145L16.0263 163.819C15.6283 163.754 15.2533 163.589 14.9367 163.339C14.6202 163.09 14.3725 162.763 14.2171 162.391C14.0476 162.003 13.9737 161.579 14.0017 161.156C14.0296 160.732 14.1587 160.322 14.3779 159.959L20.6698 150.29C18.6079 150.17 16.5754 149.743 14.6392 149.023C13.7191 148.684 12.9494 148.029 12.4671 147.175C11.9849 146.321 11.8214 145.323 12.0059 144.36C12.3009 142.573 12.7792 140.822 13.4331 139.133C14.084 137.481 14.5492 135.762 14.8202 134.007C15.0614 131.856 14.0965 131.394 12.0863 130.65L6.25668 128.359C5.94585 128.228 5.6676 128.031 5.44175 127.781C5.2159 127.531 5.048 127.234 4.95004 126.911C4.84985 126.578 4.81957 126.227 4.86107 125.881C4.90258 125.535 5.01498 125.201 5.19127 124.901C7.4226 121.383 9.87504 117.805 12.4883 114.227C8.90626 112.317 5.19901 110.651 1.39198 109.242C0.96149 109.06 0.597339 108.751 0.349135 108.355C0.100931 107.959 -0.0192646 107.497 0.0049344 107.03C-0.0249681 106.604 0.0816801 106.18 0.309398 105.818C0.537115 105.457 0.874069 105.177 1.27137 105.02C4.18617 103.995 7.06077 102.869 9.95546 101.764C13.5537 100.376 17.2726 98.9492 20.9915 97.7431H21.3935C28.8313 94.2052 36.2758 90.6873 43.7269 87.1895C107.832 57.0364 171.335 27.587 230.415 0.207993C230.783 0.0261016 231.198 -0.0387375 231.604 0.0223584C232.01 0.0834543 232.388 0.267519 232.686 0.549694C233.069 0.889719 233.352 1.3278 233.504 1.81662C233.657 2.30545 233.673 2.8265 233.551 3.32379L229.53 19.8677L241.109 24.0691C241.677 24.3148 242.13 24.7677 242.375 25.3356C242.51 25.6535 242.58 25.9953 242.58 26.3407C242.58 26.686 242.51 27.0279 242.375 27.3458L238.355 37.839L252.024 43.8696C252.334 44.0067 252.611 44.2086 252.837 44.4617C253.062 44.7149 253.231 45.0134 253.331 45.3371C253.448 45.697 253.49 46.0767 253.455 46.4533C253.421 46.8299 253.31 47.1956 253.13 47.5282L248.627 55.7901C252.512 58.4318 256.865 60.308 261.452 61.3182C261.942 61.4325 262.389 61.6813 262.744 62.0366C263.099 62.3918 263.348 62.8392 263.463 63.3284C263.569 63.7477 263.556 64.1886 263.425 64.6008C263.293 65.0131 263.049 65.3802 262.719 65.6603C255.603 71.1429 247.928 75.8595 239.823 79.7317L236.687 81.36L209.247 95.6525C162.249 120.036 111.612 145.687 59.8689 168.02C57.5973 168.764 55.3861 169.467 53.195 170.231C52.3306 170.553 51.4461 170.854 50.5817 171.196L48.2097 171.839L45.8979 172.503C42.0467 173.61 38.2672 174.953 34.5805 176.523C34.0927 176.715 33.6329 176.972 33.2135 177.287L32.9522 177.408C31.2501 177.776 29.5971 178.342 28.0272 179.096H27.786C26.2779 179.279 24.7617 179.386 23.2429 179.418L23.1625 179.056ZM21.4337 99.0498C17.6948 100.296 13.996 101.723 10.3977 103.07C7.503 104.196 4.62842 105.302 1.69352 106.347C1.49249 106.347 1.43218 106.689 1.43218 106.91C1.41293 107.066 1.44096 107.224 1.51265 107.363C1.58434 107.503 1.69638 107.618 1.83423 107.694C5.98359 109.225 10.0148 111.059 13.8955 113.182L14.6794 113.604L14.1568 114.307C11.3626 118.087 8.74933 121.886 6.39739 125.605C6.34205 125.731 6.31348 125.868 6.31348 126.007C6.31348 126.145 6.34205 126.282 6.39739 126.409C6.42599 126.519 6.47872 126.621 6.55174 126.708C6.62476 126.795 6.71624 126.864 6.81953 126.911L12.629 129.183C14.5387 129.886 16.6494 130.711 16.3278 134.148C16.0409 136.012 15.5488 137.839 14.8604 139.596C14.2468 141.188 13.7956 142.838 13.5135 144.521C13.3688 145.149 13.4611 145.808 13.7728 146.372C14.0844 146.936 14.5934 147.365 15.2021 147.576C17.3262 148.315 19.5482 148.735 21.7956 148.823L23.3635 148.963L15.6644 160.763C15.5885 160.913 15.5489 161.078 15.5489 161.246C15.5489 161.413 15.5885 161.579 15.6644 161.728C15.72 161.867 15.81 161.99 15.926 162.085C16.042 162.18 16.1803 162.244 16.3278 162.271L28.0674 163.859L27.7257 164.763C26.2807 168.631 24.5122 172.37 22.4388 175.94C22.3451 176.098 22.2956 176.279 22.2956 176.463C22.2956 176.647 22.3451 176.827 22.4388 176.986C22.5362 177.139 22.6693 177.267 22.8268 177.358C22.9844 177.449 23.1616 177.501 23.3434 177.508C24.7104 177.508 26.1175 177.367 27.6051 177.186C29.1966 176.43 30.8691 175.856 32.5904 175.478C32.8214 175.314 33.0632 175.167 33.314 175.036C33.5587 174.877 33.822 174.748 34.098 174.654C37.8484 173.037 41.6953 171.654 45.6165 170.513L47.9081 169.849L50.2601 169.226C51.0642 168.905 51.9487 168.583 52.8533 168.281C55.0444 167.497 57.2757 166.774 59.4869 166.07C111.129 143.837 161.726 118.207 208.705 93.8233C217.871 89.0792 227.018 84.3149 236.144 79.5307L239.28 77.9024C247.289 74.1074 254.876 69.4784 261.915 64.0923C262.026 63.9941 262.105 63.8658 262.145 63.7231C262.184 63.5803 262.181 63.4293 262.136 63.2883C262.095 63.0872 262 62.9008 261.862 62.7488C261.724 62.5967 261.548 62.4845 261.352 62.4239C256.369 61.3501 251.648 59.3005 247.461 56.3933L246.898 55.9912L252.065 46.503C252.145 46.357 252.195 46.1965 252.213 46.0307C252.23 45.865 252.214 45.6975 252.165 45.5381C252.128 45.4187 252.065 45.3085 251.982 45.2149C251.899 45.1214 251.797 45.0465 251.683 44.9953L236.687 38.422L241.129 26.5618C241.228 26.3166 241.228 26.043 241.129 25.7979C241.049 25.5975 240.899 25.4331 240.707 25.3356L227.862 20.692L232.264 2.78099C232.313 2.56106 232.304 2.33206 232.237 2.11685C232.17 1.90165 232.048 1.70782 231.882 1.5548C231.791 1.46504 231.675 1.40533 231.549 1.38376C231.424 1.36219 231.294 1.3798 231.179 1.43419C172.079 28.8132 108.556 58.303 44.4908 88.4159C36.9927 91.9337 29.4947 95.4917 22.0167 99.0297H21.8358L21.4337 99.0498ZM24.5094 175.639L25.1727 174.392C26.9989 170.898 28.571 167.277 29.8766 163.557C29.9162 163.413 29.9259 163.261 29.9052 163.113C29.8845 162.964 29.8337 162.821 29.756 162.693C29.695 162.577 29.6095 162.475 29.5054 162.395C29.4012 162.316 29.281 162.259 29.1529 162.231L17.735 160.703L25.3938 148.883C25.4679 148.74 25.5065 148.581 25.5065 148.42C25.5065 148.26 25.4679 148.101 25.3938 147.958C25.3379 147.817 25.2482 147.692 25.1325 147.594C25.0168 147.496 24.8787 147.427 24.7305 147.395L18.6999 146.471C18.1973 146.471 17.6948 146.35 17.1922 146.249C17.0209 146.202 16.8462 146.168 16.6695 146.149C15.765 146.028 15.3227 145.747 15.1418 144.581C15.1277 143.23 15.4307 141.894 16.0263 140.681C16.2273 140.179 16.4082 139.696 16.5087 139.334L16.8907 137.987C17.24 136.892 17.5285 135.778 17.7551 134.651C18.6999 129.283 14.1367 127.796 9.71423 126.328L8.12617 125.806L8.66892 124.982C11.1817 121.082 13.7547 117.343 16.3278 113.885C16.3633 113.813 16.3817 113.734 16.3817 113.654C16.3817 113.574 16.3633 113.495 16.3278 113.423C16.2905 113.264 16.2214 113.115 16.1246 112.983C16.0279 112.852 15.9055 112.742 15.765 112.659C12.6084 110.849 9.3384 109.244 5.97525 107.855L4.18617 107.131L5.97525 106.447C10.1809 104.87 14.2948 103.058 18.2978 101.02L19.0014 100.658L19.1622 101.04C60.7333 82.3852 102.767 62.846 143.413 44.0506L178.853 27.6272L228.766 4.52986L230.174 3.86658L226.033 20.7321C226.033 21.1744 226.033 21.8579 226.495 22.0388L239.219 26.6623L234.797 38.4622C234.73 38.6984 234.746 38.9502 234.841 39.1766C234.936 39.4029 235.104 39.5904 235.32 39.7085L250.195 46.2015L245.029 55.5891C244.891 55.8046 244.833 56.0619 244.866 56.3157C244.899 56.5695 245.021 56.8034 245.21 56.9762C249.015 59.8356 253.277 62.0309 257.814 63.4691L259.241 63.9114L258.035 64.8161C252.06 69.0022 245.762 72.7059 239.199 75.8922L236.948 77.0783L212.685 89.7224C193.005 99.9544 177.828 107.814 163.455 115.011C126.668 133.585 95.9119 148.219 66.6232 161.045C63.5676 162.197 60.5457 163.356 57.5571 164.522L52.21 166.553L51.8683 166.673L49.5163 167.578C43.4857 169.809 37.1536 172.201 30.9219 174.814C29.0323 175.156 27.4644 175.377 25.9366 175.518L24.5094 175.639ZM20.2678 159.557L29.3539 160.783C29.6998 160.846 30.028 160.982 30.316 161.183C30.604 161.385 30.845 161.646 31.0224 161.949C31.2132 162.274 31.3333 162.635 31.3749 163.009C31.4164 163.383 31.3785 163.762 31.2636 164.12C30.0962 167.469 28.713 170.739 27.1226 173.91C28.188 173.789 29.2735 173.628 30.4596 173.407C36.4902 170.834 42.9429 168.442 48.9534 166.211L51.2853 165.306C51.4323 165.234 51.5875 165.18 51.7476 165.145L57.0345 163.135C60.0498 161.956 63.0651 160.797 66.0804 159.658C95.2887 146.853 126.045 132.218 162.791 113.664C177.164 106.407 192.341 98.6076 212.021 88.3957L236.285 75.7315L238.536 74.5655C244.566 71.6132 250.389 68.2552 255.964 64.5145C251.799 63.0269 247.882 60.9193 244.345 58.2628C243.863 57.8657 243.537 57.31 243.427 56.695C243.317 56.08 243.428 55.4458 243.742 54.9056L247.984 47.086L234.636 41.2362C234.068 40.9574 233.62 40.4817 233.376 39.8975C233.132 39.3134 233.108 38.6605 233.309 38.0602L237.189 27.7076L225.912 23.6872C225.339 23.4268 224.881 22.9672 224.622 22.394C224.363 21.8208 224.322 21.1731 224.505 20.5714L227.882 6.78128L179.356 29.2354L144.016 45.5985C103.129 64.5547 60.8539 84.1541 19.0617 102.909L18.3782 103.211L18.2375 102.909C15.3629 104.377 12.2069 105.784 8.18647 107.352C11.0335 108.603 13.8115 110.006 16.5087 111.553C16.8334 111.744 17.1152 111.999 17.3366 112.303C17.558 112.608 17.7141 112.955 17.7953 113.322C17.8562 113.618 17.8537 113.923 17.7879 114.218C17.722 114.512 17.5944 114.789 17.4133 115.031C15.0614 118.227 12.6893 121.645 10.3575 125.203C14.8604 126.69 20.2477 128.6 19.1019 135.254C18.8808 136.46 18.539 137.626 18.2174 138.751C18.0767 139.194 17.9561 139.636 17.8355 140.058C17.7149 140.48 17.5138 141.003 17.3128 141.566C16.8416 142.535 16.5618 143.586 16.4886 144.661C16.497 144.762 16.497 144.863 16.4886 144.963H16.7097L17.353 145.084C17.7953 145.084 18.2576 145.224 18.7199 145.285L24.8712 146.209C25.2677 146.279 25.64 146.448 25.953 146.701C26.266 146.955 26.5094 147.283 26.6603 147.657C26.8349 148.037 26.9116 148.455 26.8836 148.873C26.8555 149.291 26.7234 149.695 26.4994 150.049L20.2678 159.557Z" fill="#E96262" stroke="#E96262" stroke-width="7.53513" mask="url(#path-4-inside-2_104_3598)"/>
</svg>
