<svg width="856" height="416" viewBox="0 0 856 416" fill="none" xmlns="http://www.w3.org/2000/svg">
<path d="M803.069 364.204C812.151 372.335 819.992 376.437 829.053 384.558C566.383 419.757 301.109 420.997 37.9424 389.723C37.1366 371.674 36.9092 352.292 32.105 334.883C26.402 332.063 22.4036 329.717 16.6799 326.897C22.9822 316.08 27.9 305.986 34.2436 295.158C26.6602 288.825 16.8969 279.206 9.30314 272.873C18.302 264.608 29.3568 251.032 38.3556 242.787C34.7808 214.097 32.2393 187.947 28.6645 159.256C25.3481 157.262 22.2177 156.281 18.8909 154.297C24.0567 147.644 28.9435 138.252 34.13 131.568C24.2117 126.474 13.7871 116.401 3.84815 111.318C10.574 104.675 17.4444 94.7252 24.1703 88.082C17.3721 79.982 14.3863 69.8985 7.63976 61.7985C275.215 77.3077 543.536 74.5462 810.735 53.5332C799.143 65.1149 792.913 78.5563 781.332 90.1276C797.862 97.7214 813.566 106.059 830.086 113.653C814.403 115.812 797.025 119.769 781.373 121.918C793.048 125.782 797.718 135.349 809.392 139.161C810.312 184.621 811.118 232.652 812.047 278.049C818.122 283.215 823.34 290.23 829.415 295.417C823.609 300.582 818.319 303.527 812.523 308.724C823.567 320.946 836.017 328.622 851.308 334.801C835.418 342.952 818.908 356.073 803.069 364.204Z" fill="white"/>
<path d="M414.671 414.58C288.669 414.557 162.779 407.074 37.6609 392.17C37.071 392.102 36.5249 391.825 36.1214 391.389C35.7178 390.953 35.4834 390.387 35.4603 389.794C35.3569 387.573 35.2639 385.32 35.1813 383.058C34.5511 367.436 33.9105 351.278 30.0155 336.566C27.5669 335.346 25.3973 334.189 23.3 333.074C20.9134 331.803 18.4442 330.491 15.603 329.096C15.2961 328.941 15.0236 328.725 14.8017 328.463C14.5799 328.2 14.4132 327.895 14.3115 327.567C14.2139 327.237 14.1845 326.892 14.2254 326.55C14.2662 326.209 14.3764 325.88 14.5491 325.583C17.6486 320.19 20.5311 314.88 23.2896 309.745C25.7382 305.178 28.2694 300.446 31.0176 295.663C27.5979 292.729 23.7856 289.237 20.1282 285.858C15.8613 281.932 11.4497 277.882 7.73029 274.741C7.4534 274.514 7.2286 274.23 7.07145 273.909C6.91431 273.587 6.82842 273.235 6.8196 272.877C6.81077 272.519 6.87927 272.164 7.02038 271.834C7.16148 271.505 7.37185 271.211 7.63722 270.97C12.0591 266.92 17.1217 261.414 22.0085 256.082C26.6371 251.051 31.4103 245.854 35.7392 241.773C34.0139 227.857 32.5054 214.322 31.0486 201.222C29.5919 188.121 28.0834 174.638 26.3581 160.763C25.1699 160.112 23.9921 159.565 22.7523 158.996C20.9815 158.225 19.2567 157.353 17.5865 156.383C17.2812 156.202 17.018 155.959 16.8147 155.668C16.6114 155.378 16.4729 155.047 16.4082 154.699C16.3436 154.35 16.3545 153.992 16.4401 153.648C16.5258 153.304 16.6842 152.982 16.9048 152.705C19.4153 149.471 21.9362 145.472 24.3745 141.567C26.3375 138.468 28.3418 135.244 30.3977 132.362C25.9455 129.624 21.6448 126.648 17.5143 123.445C12.5861 119.778 7.49267 115.976 2.69881 113.527C2.34571 113.346 2.04047 113.084 1.80829 112.762C1.57611 112.44 1.42358 112.068 1.36309 111.676C1.3026 111.284 1.3359 110.883 1.46033 110.506C1.58475 110.129 1.79668 109.787 2.07881 109.508C5.59703 105.871 8.92814 102.057 12.0592 98.0814C14.9314 94.5893 17.8862 90.9836 20.8203 87.8945C18.1302 84.1504 15.7364 80.202 13.6606 76.0854C11.212 71.5395 8.89764 67.2312 5.67418 63.3775C5.36164 63.0031 5.16492 62.5458 5.10804 62.0615C5.05116 61.5771 5.13666 61.0867 5.35397 60.6501C5.5777 60.2159 5.92175 59.8554 6.34501 59.6117C6.76826 59.3681 7.25272 59.2514 7.7405 59.2759C275.207 74.7236 543.414 71.9622 810.505 51.0106C811.016 50.9692 811.528 51.0859 811.97 51.3447C812.413 51.6035 812.765 51.992 812.979 52.4577C813.193 52.9234 813.259 53.4437 813.168 53.948C813.076 54.4524 812.832 54.9166 812.469 55.2776C806.828 60.929 802.354 67.2003 798.004 73.2649C794.185 78.875 790.009 84.2344 785.503 89.3099C792.735 92.6677 799.802 96.1804 806.703 99.6415C814.628 103.557 822.821 107.607 831.076 111.389C831.567 111.616 831.971 111.997 832.228 112.473C832.485 112.95 832.582 113.497 832.503 114.032C832.424 114.568 832.174 115.064 831.79 115.445C831.406 115.827 830.909 116.075 830.373 116.151C822.604 117.185 814.256 118.765 806.187 120.284C800.732 121.317 795.142 122.35 789.656 123.228C792.177 124.886 794.592 126.697 796.888 128.653C800.907 131.938 804.699 135.048 810.103 136.835C810.594 136.999 811.024 137.309 811.332 137.725C811.641 138.141 811.814 138.642 811.828 139.16C812.272 161.228 812.685 183.927 813.109 206.635C813.543 229.902 813.987 253.944 814.452 276.942C817.273 279.453 819.918 282.304 822.48 285.063C825.146 288.057 827.981 290.896 830.972 293.566C831.242 293.8 831.458 294.09 831.606 294.415C831.754 294.74 831.831 295.094 831.831 295.451C831.831 295.808 831.754 296.162 831.606 296.487C831.458 296.812 831.242 297.102 830.972 297.337C828.215 299.749 825.336 302.018 822.345 304.135C820.186 305.705 818.12 307.234 816.002 308.97C825.6 319.033 836.851 326.348 852.162 332.526C852.608 332.705 852.992 333.008 853.27 333.399C853.547 333.79 853.706 334.253 853.728 334.732C853.75 335.212 853.633 335.687 853.392 336.102C853.151 336.517 852.796 336.853 852.369 337.072C844.579 341.081 836.427 346.432 828.544 351.619C821.612 356.175 814.473 360.866 807.458 364.73C810.919 367.612 814.266 370.03 817.531 372.385C822.108 375.59 826.509 379.039 830.714 382.717C831.069 383.037 831.324 383.451 831.452 383.912C831.579 384.372 831.572 384.859 831.432 385.316C831.292 385.772 831.025 386.18 830.662 386.49C830.298 386.8 829.854 387 829.381 387.066C691.909 405.437 553.366 414.628 414.671 414.58V414.58ZM40.3678 387.449C164.594 402.159 289.577 409.545 414.671 409.569C551.274 409.609 687.731 400.673 823.162 382.82C820.3 380.516 817.51 378.502 814.628 376.415C810.036 373.217 805.625 369.767 801.414 366.083C801.104 365.811 800.867 365.467 800.722 365.082C800.577 364.697 800.528 364.282 800.581 363.874C800.635 363.465 800.787 363.076 801.026 362.741C801.265 362.406 801.582 362.134 801.951 361.95C809.751 357.942 817.924 352.58 825.827 347.383C832.284 343.136 838.928 338.766 845.457 335.068C830.993 328.621 820.073 320.893 810.588 310.406C810.143 309.91 809.912 309.257 809.947 308.591C809.982 307.924 810.279 307.299 810.774 306.852C813.541 304.432 816.431 302.156 819.432 300.033C821.498 298.514 823.565 297.058 825.548 295.374C823.203 293.163 820.971 290.755 818.802 288.42C816.145 285.441 813.323 282.613 810.351 279.948C810.08 279.721 809.862 279.438 809.711 279.119C809.559 278.8 809.478 278.452 809.472 278.099C808.987 254.76 808.543 230.316 808.098 206.677C807.695 184.557 807.282 162.458 806.848 140.937C801.455 138.809 797.55 135.595 793.706 132.475C789.698 129.179 785.906 126.08 780.513 124.293C779.977 124.113 779.517 123.758 779.208 123.284C778.899 122.811 778.759 122.247 778.81 121.684C778.862 121.121 779.102 120.592 779.491 120.182C779.881 119.772 780.397 119.506 780.957 119.426C788.758 118.393 797.147 116.802 805.267 115.294C810.63 114.261 816.116 113.228 821.488 112.391C815.723 109.642 810.03 106.832 804.472 104.125C796.579 100.23 788.427 96.2011 780.213 92.4197C779.847 92.2513 779.527 91.9968 779.28 91.678C779.034 91.3592 778.868 90.9855 778.797 90.5888C778.726 90.192 778.752 89.7839 778.872 89.3993C778.993 89.0148 779.205 88.665 779.49 88.38C785.131 82.739 789.594 76.4677 793.954 70.403C797.229 65.8055 800.587 61.1046 804.513 56.5483C541.082 76.909 276.583 79.6012 12.7927 64.607C14.7763 67.5929 16.45 70.7026 18.0824 73.7401C20.301 78.2511 22.9808 82.5203 26.0791 86.4791C26.4863 86.9589 26.6968 87.5751 26.6681 88.2039C26.6393 88.8326 26.3735 89.427 25.9242 89.8677C22.6594 93.0912 19.25 97.2549 15.9439 101.284C13.3196 104.497 10.6127 107.793 7.91619 110.707C12.2622 113.406 16.4692 116.323 20.5208 119.447C25.4283 123.104 30.5114 126.896 35.2742 129.345C35.602 129.512 35.8887 129.75 36.1139 130.041C36.3392 130.332 36.4975 130.669 36.5774 131.028C36.6573 131.387 36.657 131.76 36.5764 132.119C36.4958 132.478 36.337 132.815 36.1112 133.105C33.5902 136.339 31.0693 140.338 28.6311 144.243C26.6784 147.342 24.674 150.556 22.618 153.428C23.3412 153.789 24.0645 154.12 24.8187 154.461C26.5884 155.238 28.3131 156.114 29.9845 157.085C30.3087 157.28 30.5848 157.546 30.7922 157.863C30.9997 158.179 31.1333 158.539 31.183 158.914C32.9703 173.275 34.5201 187.212 36.0182 200.695C37.5163 214.178 39.1176 228.105 40.8637 242.445C40.9137 242.842 40.8675 243.246 40.7291 243.621C40.5907 243.997 40.3639 244.334 40.0681 244.604C35.6565 248.654 30.594 254.161 25.6968 259.492C21.4712 264.1 17.1113 268.79 13.082 272.747C16.3984 275.609 20.0248 278.946 23.5582 282.19C27.7839 286.075 32.1542 290.094 35.8736 293.204C36.3279 293.582 36.6339 294.109 36.7378 294.691C36.8418 295.274 36.7369 295.874 36.4417 296.386C33.3422 301.748 30.4908 307.028 27.7426 312.131C25.3663 316.574 22.9074 321.151 20.2522 325.81C22.1842 326.844 23.9611 327.753 25.6968 328.672C28.0524 329.922 30.4805 331.224 33.2907 332.598C33.6062 332.756 33.885 332.978 34.1093 333.25C34.3335 333.523 34.4981 333.839 34.5924 334.179C38.9111 349.676 39.5826 366.579 40.2335 382.872L40.3678 387.449Z" fill="#E9AD62" stroke="#E9AD62" stroke-width="2.55684"/>
<path d="M480.865 54.7416C479.233 52.6753 473.84 53.2435 471.505 53.0576C467.324 52.7407 463.133 52.4274 458.931 52.1175L454.427 51.8282H370.11L370.11 51.043C366.212 51.284 362.324 51.5389 358.446 51.8075C357.676 51.7895 356.91 51.9327 356.198 52.2281C355.487 52.5235 354.845 52.9644 354.313 53.5226C352.361 56.0125 353.538 60.6513 353.642 63.5442C353.797 67.7491 353.962 71.9747 354.127 76.1797C354.458 84.81 354.785 93.437 355.109 102.06C355.045 103.916 355.42 105.76 356.204 107.443C357.413 109.509 360.089 109.695 362.258 109.85C399.704 112.63 437.303 112.63 474.749 109.85C476.34 109.737 478.478 109.52 479.605 108.228C480.731 106.937 480.638 104.478 480.72 102.742C480.999 90.551 481.413 78.339 481.413 66.1478C481.413 64.2364 482.022 60.2794 481.681 57.4073C481.651 56.4619 481.37 55.5416 480.865 54.7416Z" fill="white"/>
<path d="M481.758 57.4053C481.713 56.4551 481.413 55.5344 480.89 54.7397C479.258 52.6734 473.865 53.2416 471.53 53.0556C467.349 52.7388 463.158 52.4255 458.956 52.1155C451.187 51.5714 443.411 51.1167 435.628 50.7517C435.07 46.2058 434.512 41.6599 434.006 37.114C437.002 31.504 439.822 25.615 440.101 19.1577C440.24 16.469 439.814 13.7811 438.852 11.2669C437.889 8.75262 436.411 6.4677 434.512 4.55916C432.424 2.61804 429.806 1.34256 426.991 0.895429C424.175 0.448296 421.291 0.849711 418.704 2.04853C418.577 2.10424 418.453 2.16636 418.333 2.23455C416.4 1.28113 414.279 0.769821 412.124 0.737656C409.969 0.70549 407.833 1.15321 405.873 2.04853C403.219 3.28947 400.894 5.13648 399.085 7.44071C397.276 9.74494 396.034 12.442 395.458 15.3144C393.847 22.4432 395.52 29.5926 397.876 36.3392L394.621 49.9872C391.057 49.9872 387.524 50.1318 383.959 50.2661C375.467 50.5968 366.964 51.1753 358.492 51.7538C357.722 51.7359 356.956 51.8792 356.244 52.1746C355.533 52.4699 354.891 52.9108 354.359 53.4689C352.407 55.9588 353.585 60.5978 353.688 63.4906C353.843 67.6956 354.008 71.9212 354.173 76.1262C354.504 84.7565 354.831 93.3833 355.155 102.007C355.091 103.862 355.466 105.707 356.25 107.39C357.459 109.456 360.135 109.642 362.304 109.797C399.75 112.576 437.349 112.576 474.795 109.797C476.386 109.683 478.524 109.466 479.651 108.175C480.777 106.883 480.684 104.424 480.766 102.689C481.045 90.4974 481.459 78.2854 481.459 66.0941C481.469 64.2344 482.079 60.2775 481.758 57.4053ZM423.901 7.20399C424.881 7.06226 425.88 7.1201 426.837 7.37399C427.794 7.62788 428.689 8.07263 429.47 8.68146C432.342 10.9544 433.696 14.8803 433.685 18.4241C433.685 24.2201 430.751 29.603 428.075 34.5622C427.812 35.0438 427.673 35.5836 427.672 36.1325C427.577 36.4433 427.538 36.7688 427.559 37.0934C428.075 41.5566 428.592 46.0095 429.15 50.5244C427.022 50.4315 424.873 50.3488 422.724 50.3075C422.186 45.92 421.673 41.5359 421.184 37.1553C424.18 31.5556 426.98 25.6562 427.269 19.199C427.451 14.9442 426.271 10.7424 423.901 7.20399V7.20399ZM414.055 20.0359C414.136 16.3359 415.561 12.7917 418.064 10.0659C419.918 12.4519 420.896 15.4029 420.833 18.4241C420.833 23.4969 418.581 28.2598 416.225 32.7024C414.719 28.6523 413.983 24.3564 414.055 20.0359V20.0359ZM415.502 43.7986C415.743 45.8649 415.991 47.9519 416.246 50.0596C415.502 50.0596 414.768 50.0596 414.024 50.0596L415.502 43.7986ZM404.375 35.5333C402.577 30.5328 400.934 25.3566 401.275 20.0359C401.492 15.9032 403.073 11.4297 406.575 8.97077C408.218 7.78375 410.189 7.13737 412.216 7.12138V7.12138C410.307 9.52034 408.968 12.322 408.301 15.3144C406.689 22.4535 408.301 29.5823 410.718 36.3392L407.464 49.9458C405.398 49.9458 403.331 49.9458 401.265 49.9458C402.215 45.9681 403.145 42.0111 404.096 38.0541C404.092 38.0337 404.092 38.0127 404.096 37.9922C404.318 37.635 404.459 37.2329 404.507 36.8148C404.555 36.3967 404.51 35.9731 404.375 35.5746L404.375 35.5333ZM387.844 105.788C386.914 105.788 386.015 105.788 385.085 105.695L381.304 105.54C374.444 105.22 367.574 104.755 360.734 104.114C360.045 88.4931 359.467 72.8717 358.998 57.2503C370.404 56.3411 381.817 55.7798 393.237 55.5663C395.448 55.5663 397.649 55.494 399.86 55.4837C402.071 55.4733 403.992 55.4837 406.059 55.4837L394.002 105.995C391.984 105.94 389.941 105.871 387.875 105.788H387.844ZM431.34 106.026H430.369H423.922C416.153 106.108 408.425 106.119 400.614 106.026C404.643 89.1784 408.669 72.3241 412.691 55.463H416.824C418.973 55.5146 421.132 55.5559 423.271 55.6178L429.708 55.8245C431.774 72.5549 434.105 89.2403 436.702 105.881L431.34 106.026ZM475.301 103.794C468.459 104.839 461.557 105.44 454.638 105.592C450.815 105.757 446.982 105.84 443.139 105.891C440.577 89.3609 438.259 72.789 436.185 56.1758C441.351 56.4134 446.517 56.713 451.755 57.0436C459.821 57.5809 467.883 58.1835 475.942 58.8516C476.093 73.8325 475.89 88.8133 475.332 103.794H475.301Z" fill="#E96262" stroke="#E96262" stroke-width="1.27842"/>
</svg>
