<svg width="91" height="171" viewBox="0 0 91 171" fill="none" xmlns="http://www.w3.org/2000/svg">
<path fill-rule="evenodd" clip-rule="evenodd" d="M12.4186 7.9962C4.91416 12.9146 0.184653 19.7627 0.313666 25.6794C0.424249 36.1399 13.8301 73.3372 30.7351 110.106C33.6562 116.468 39.0804 128.479 42.7769 136.797C52.0515 157.681 52.6852 158.976 55.7658 162.984C62.1172 171.237 72.135 172.831 78.4408 166.623C82.6694 162.459 84.2035 155.468 82.7725 146.311C80.4224 131.888 79.9074 128.408 78.8645 123.084C75.8111 107.596 49.2484 33.8736 43.6839 25.3805C38.4755 17.5714 35.4077 15.5462 29.9754 16.1802C28.026 16.497 26.1926 17.3209 24.6628 18.5677C23.133 19.8146 21.9615 21.4397 21.268 23.2771C17.3413 31.4594 18.861 37.9319 35.269 82.6843C48.7597 119.137 49.3737 120.796 52.938 119.986C53.7087 119.87 54.4072 119.466 54.8895 118.856C53.5736 113.107 51.8298 107.464 49.6726 101.976C35.9745 63.1536 27.4931 37.592 27.0387 33.58C26.2804 26.5198 30.4266 20.6012 34.2054 23.4339C35.7358 24.8751 37.1177 26.464 38.3307 28.1774C43.8231 35.7795 66.4194 100.315 71.6095 123.526C73.5759 132.304 74.9107 141.214 75.6038 150.188C75.7521 164.509 66.8653 167.084 58.3287 155.154C54.743 148.616 51.6584 141.816 49.1007 134.813C45.1993 125.246 39.3845 111.901 36.3307 105.18C27.4557 85.9329 19.2214 65.6324 12.8015 47.3113C9.34999 37.9853 6.6171 29.209 6.38351 28.021C6.33755 25.8601 6.76055 23.7116 7.62379 21.721C8.48703 19.7304 9.77035 17.9442 11.3868 16.4835C14.0244 13.5394 17.4538 11.4031 21.2671 10.3289C33.154 5.41991 41.0401 5.15223 48.0093 9.506C54.9784 13.8598 54.6644 13.5681 66.4326 48.5677C76.1904 77.0215 79.8614 88.6113 83.5076 101.943C85.017 107.553 86.5008 109.196 88.9221 107.943C91.3434 106.69 91.0032 103.961 85.8374 87.776C72.6102 45.7716 63.2309 18.7581 59.6844 12.9337C57.6303 9.60242 54.8904 6.74135 51.6425 4.53598C48.3946 2.3306 44.7111 0.830204 40.8307 0.131943C30.8605 0.346601 21.0886 3.05138 12.4186 7.9962V7.9962Z" fill="#E96262"/>
</svg>
