<svg width="151" height="121" viewBox="0 0 151 121" fill="none" xmlns="http://www.w3.org/2000/svg">
<path fill-rule="evenodd" clip-rule="evenodd" d="M104.415 6.50611C95.439 13.2045 67.8564 35.7288 59.7397 43.2113L45.5066 55.6425C40.383 60.0775 32.3505 67.4008 27.7268 71.9933C23.1031 76.5858 16.7253 82.4058 13.4966 85.1443C10.6033 87.5402 7.84271 90.0859 5.22774 92.7695C2.09568 96.5781 0.534448 101.348 0.867341 106.091C1.72403 108.816 3.62949 111.074 6.197 112.406C8.76451 113.738 11.8017 114.045 14.6918 113.264C16.1406 112.933 25.1367 108.72 34.6335 104.054C57.4228 92.7689 121.386 56.3312 125.841 52.0572C131.494 46.7082 131.545 39.2421 125.936 28.0266L123.196 22.3266L119.48 21.4591C113.317 19.9965 106.823 23.1634 94.994 33.0511C93.5118 34.3446 88.2847 38.395 83.4464 42.0005C78.6081 45.6061 73.0365 50.076 71.0094 51.8482C68.9824 53.6205 61.3081 59.6285 53.9984 65.15C48.7212 68.8957 43.6788 72.9537 38.9015 77.2992C36.7252 79.934 37.413 82.8698 40.3691 83.229C41.2929 83.4165 42.2645 83.3409 43.17 83.0112C44.4914 82.2539 71.2115 61.3894 74.4479 58.8685C75.9981 57.5916 80.8766 53.852 85.3224 50.5824C89.7681 47.3129 97.0576 41.8585 101.6 38.145C110.472 31.062 112.863 29.4141 115.744 28.9282C117.353 28.6722 117.881 28.9803 118.91 30.7767C121.065 35.1259 122.215 39.9173 122.283 44.828C121.334 47.8692 116.172 51.2163 86.6294 67.8709C48.402 89.2811 18.0482 105.235 12.9013 106.465C12.0882 106.807 11.1974 106.899 10.3519 106.73C9.50646 106.56 8.74802 106.136 8.1812 105.517C7.61438 104.898 7.26719 104.114 7.18753 103.273C7.10788 102.432 7.29968 101.575 7.7365 100.822C8.93021 97.0855 9.94798 96.0026 17.631 89.6012C21.5806 86.2829 26.6966 81.6303 29.1928 79.1451C31.6889 76.6599 39.6571 69.4291 47.048 63.0285C54.4389 56.6279 62.6792 49.4631 65.1352 47.1119C75.7433 37.6465 108.543 12.0763 114.049 8.92066C114.994 8.16157 116.114 7.64563 117.3 7.42338C118.485 7.20114 119.696 7.28022 120.813 7.65286C125.272 8.59341 127.581 10.9885 134.222 22.1673C143.346 37.4733 144.863 45.4285 139.923 52.533L137.441 56.0645L114.777 69.6095C102.323 77.0802 91.8202 83.1555 91.4764 82.964C91.1326 82.7725 78.407 90.1771 63.0311 98.8787C37.8806 113.293 35.0177 114.934 34.111 116.62C33.2044 118.305 33.286 119.978 35.6819 120.381C38.0778 120.784 41.1457 118.582 82.2725 95.2877C106.894 81.1758 130.723 67.5185 134.74 64.8278C144.179 58.5298 147.445 54.9375 149.078 49.0065C150.614 43.9859 150.49 38.6922 148.724 33.8912C146.998 28.1054 144.237 22.7016 140.566 17.921C132.052 4.59686 129.91 2.49422 123.027 1.00029C120.301 0.0526338 117.286 0.0412001 114.465 0.967855C110.73 1.98769 107.275 3.89179 104.415 6.50611Z" fill="#60C9EB"/>
</svg>
