<svg width="193" height="187" viewBox="0 0 193 187" fill="none" xmlns="http://www.w3.org/2000/svg">
<path d="M167.141 72.7387C172.221 85.3203 176.889 98.0972 181.68 110.817C182.355 112.625 183.478 115.012 182.807 116.945C182.136 118.878 180.049 119.856 178.473 120.639C140.959 139.105 102.132 154.777 62.3097 167.525C59.9991 168.264 57.1712 169.187 55.0586 167.543C53.5278 166.133 52.3643 164.37 51.6691 162.409C47.7507 153.657 43.8149 144.891 39.8618 136.112C37.9538 131.824 36.0295 127.542 34.089 123.264C32.7841 120.316 29.6482 116.014 30.6172 112.632C30.9334 111.847 31.4087 111.135 32.0133 110.542C32.6178 109.949 33.3384 109.487 34.1299 109.186C42.6423 105.066 51.17 100.922 59.8236 97.0464C63.4343 95.4155 67.0544 93.8501 70.7098 92.3212C69.9434 87.1619 69.1557 82.015 68.3894 76.8558C63.1269 70.8605 58.4174 64.1771 57.1326 56.1547C56.5312 52.953 56.6874 49.6549 57.5887 46.5243C58.49 43.3937 60.1114 40.5175 62.3231 38.1256C63.978 36.3867 65.9974 35.0358 68.2362 34.1698C70.4751 33.3039 72.8779 32.9443 75.2722 33.117L75.5814 32.7684C77.7522 30.4528 80.564 28.8368 83.6576 28.1267C86.7512 27.4167 89.9863 27.6448 92.9496 28.7821C95.7048 29.9616 98.1825 31.7046 100.224 33.8991C102.265 36.0935 103.824 38.6908 104.802 41.524C107.207 48.3181 106.75 55.5591 105.985 62.6095C108.416 67.0911 110.88 71.5542 113.343 76.0173C121.543 73.1738 129.762 70.4043 138.001 67.7089C142.47 66.2631 146.933 64.8397 151.391 63.4386C153.869 62.6461 159.235 59.8315 161.753 61.2705C162.623 61.8726 163.315 62.6977 163.757 63.6593C165.326 66.4264 166.357 70.7664 167.141 72.7387Z" fill="white"/>
<path d="M163.757 63.6594C163.315 62.6977 162.623 61.8726 161.753 61.2705C159.238 59.8863 153.869 62.6462 151.39 63.4387C146.929 64.8326 142.466 66.256 138.001 67.7089C129.757 70.3789 121.538 73.1484 113.343 76.0174C110.88 71.5542 108.416 67.0911 105.985 62.6095C106.75 55.5591 107.207 48.3181 104.802 41.524C103.824 38.6908 102.265 36.0935 100.224 33.8991C98.1825 31.7046 95.7047 29.9617 92.9496 28.7821C89.9862 27.6449 86.7512 27.4167 83.6576 28.1267C80.564 28.8368 77.7522 30.4528 75.5813 32.7684L75.2721 33.1171C72.8778 32.9444 70.475 33.3039 68.2361 34.1699C65.9973 35.0358 63.9779 36.3868 62.3231 38.1256C60.1113 40.5175 58.4899 43.3938 57.5886 46.5244C56.6873 49.655 56.5311 52.953 57.1325 56.1548C58.4235 64.1878 63.1269 70.8605 68.3894 76.8558C69.1865 82.0682 69.9433 87.162 70.7097 92.3212C67.0544 93.8502 63.4343 95.4156 59.8236 97.0464C51.1699 100.922 42.6423 105.066 34.1299 109.186C33.3384 109.487 32.6177 109.949 32.0132 110.542C31.4087 111.135 30.9334 111.847 30.6171 112.632C29.6542 116.025 32.784 120.316 34.089 123.264C36.0183 127.539 37.9426 131.821 39.8618 136.112C43.8067 144.877 47.7425 153.643 51.6691 162.409C52.3643 164.37 53.5278 166.133 55.0586 167.543C57.1589 169.166 59.999 168.264 62.3097 167.526C102.132 154.777 140.959 139.105 178.473 120.639C180.049 119.856 182.189 118.749 182.807 116.945C183.425 115.142 182.355 112.625 181.68 110.817C176.889 98.0972 172.221 85.3203 167.141 72.7387C166.332 70.8229 165.302 66.4829 163.757 63.6594ZM83.1055 35.9263C84.0549 35.3688 85.1067 35.0079 86.1983 34.8648C87.29 34.7218 88.3993 34.7996 89.4603 35.0937C91.3863 35.7787 93.1379 36.8794 94.5907 38.3175C96.0436 39.7556 97.162 41.4959 97.8666 43.4149C100.245 49.4018 99.5441 56.1457 98.8088 62.413C98.7389 63.0205 98.8212 63.6358 99.0484 64.2034C99.0744 64.5572 99.168 64.9027 99.3241 65.2213C101.702 69.6345 104.116 74.0126 106.536 78.4013C104.288 79.2075 102.045 80.0299 99.8066 80.8686C97.4212 76.5732 95.0642 72.2614 92.7355 67.9333C93.4963 60.8996 93.9408 53.6373 91.5417 46.8538C89.9569 42.4104 87.0031 38.5843 83.1055 35.9263ZM78.3034 53.2774C76.8286 49.427 76.8178 45.1693 78.2731 41.3115C81.1814 43.0073 83.4214 45.6477 84.6207 48.7934C86.7234 54.032 86.4036 59.8892 85.8191 65.4597C82.5731 61.9054 80.0236 57.773 78.3034 53.2774ZM89.7197 77.2757C90.8271 79.3166 91.9575 81.3727 93.0817 83.4182C92.3121 83.7064 91.5426 83.9947 90.7641 84.3166C90.4184 81.9493 90.0744 79.6094 89.7197 77.2757ZM74.7764 73.3526C70.8205 68.957 66.9852 64.2792 65.0391 58.624C63.5512 54.2784 63.3052 48.9889 65.9107 45.0029C67.1061 43.0799 68.8632 41.5704 70.9444 40.6785C69.9753 43.9551 69.763 47.409 70.3237 50.7796C71.6315 58.817 76.3348 65.4897 81.5912 71.4744C82.3473 76.6159 83.1176 81.7492 83.9021 86.8744C81.7395 87.6975 79.591 88.5692 77.4546 89.4623C76.7522 84.9705 76.0599 80.4965 75.3779 76.0401C75.3675 76.0329 75.3587 76.0234 75.3523 76.0124C75.3459 76.0014 75.3421 75.989 75.3411 75.9763C75.4464 75.5244 75.4504 75.0548 75.3527 74.6012C75.2551 74.1476 75.0583 73.7211 74.7764 73.3526ZM87.0275 152.787L84.1363 153.846C82.8161 154.31 81.502 154.786 80.1757 155.239C72.9495 157.78 65.6755 160.165 58.3396 162.344C51.0911 146.514 43.986 130.63 37.0244 114.691C48.4089 108.978 59.9747 103.629 71.722 98.6432C73.9966 97.6703 76.2773 96.7081 78.5642 95.7565C80.8511 94.8049 82.834 94.0145 84.9933 93.1366L93.4664 150.331C91.3145 151.148 89.1733 151.959 87.0029 152.744L87.0275 152.787ZM132.015 134.911L131.022 135.328L124.38 138.071C116.37 141.391 108.329 144.658 100.287 147.726C97.4103 128.645 94.5371 109.561 91.6674 90.4745L96.0015 88.7948C98.2279 87.9348 100.488 87.0839 102.722 86.262L109.452 83.7946C118.568 100.191 127.928 116.452 137.531 132.577L132.015 134.911ZM176.458 114.201C169.842 118.123 162.979 121.612 155.912 124.645C152.017 126.398 148.091 128.097 144.162 129.741C134.621 113.741 125.306 97.6059 116.215 81.3363C121.664 79.4099 127.139 77.5443 132.639 75.7395C141.214 72.9303 149.783 70.2095 158.387 67.5252C164.792 82.9912 170.816 98.5498 176.458 114.201Z" fill="#E9AD62"/>
</svg>
