<svg width="119" height="130" viewBox="0 0 119 130" fill="none" xmlns="http://www.w3.org/2000/svg">
<path fill-rule="evenodd" clip-rule="evenodd" d="M114.462 17.9612C118.719 24.7564 120.003 32.0825 117.689 36.8386C113.694 45.2911 88.9227 70.4902 61.4697 94.0351C56.7229 98.1102 47.8345 105.838 41.7278 111.212C26.4007 124.707 25.4027 125.522 21.4048 127.627C13.1667 131.957 4.43731 129.512 1.6346 122.117C-0.244147 117.157 1.12005 110.907 5.70012 104.007C12.9929 93.1724 14.7102 90.5392 17.5443 86.6058C25.8058 75.1691 74.8959 25.2241 82.5848 20.4052C89.7292 16.0087 92.9763 15.5095 97.1505 18.0523C98.6151 19.0372 99.7962 20.3906 100.573 21.9741C101.35 23.5577 101.694 25.3146 101.571 27.0654C101.705 35.1752 98.055 39.8634 68.0252 70.0764C43.4628 94.6388 42.3449 95.7567 39.7529 93.7689C39.1704 93.3871 38.7542 92.7979 38.5902 92.1227C41.8051 87.9455 45.3272 84.0151 49.1278 80.3639C74.7435 53.9544 91.1727 36.3649 93.0395 33.2769C96.2908 27.8272 95.1337 21.4736 91.0079 22.363C89.2272 22.9619 87.512 23.7362 85.8873 24.6746C78.5896 28.797 36.1497 72.7635 23.2703 89.6731C18.3967 96.0665 13.9868 102.803 10.0738 109.831C4.60723 121.404 10.8618 126.812 22.2471 120.312C27.5995 116.342 32.6424 111.972 37.3335 107.241C44.073 100.929 53.7765 92.2634 58.765 87.9466C73.1568 75.631 87.4214 62.2213 99.4737 49.7415C105.758 43.4574 111.253 37.3514 111.886 36.474C112.73 34.7366 113.189 32.8341 113.231 30.8955C113.273 28.9568 112.898 27.0274 112.131 25.238C111.088 21.8627 109.101 18.8478 106.406 16.552C98.5865 8.12845 92.283 4.96708 84.9988 5.90061C77.7147 6.83413 78.0785 6.71455 55.457 30.7405C36.9116 50.2018 29.6042 58.242 21.6664 67.7064C18.3466 71.6979 16.5284 72.478 15.0301 70.5567C13.5318 68.6355 14.8268 66.5466 25.0636 55.3329C51.4847 26.1639 69.1851 7.73068 74.2392 4.32535C77.1507 2.38722 80.4435 1.08691 83.904 0.508674C87.3646 -0.0695579 90.9157 0.0872466 94.3272 0.968865C102.343 4.86518 109.268 10.7094 114.462 17.9612Z" fill="#FFE600"/>
</svg>
