<svg width="130" height="119" viewBox="0 0 130 119" fill="none" xmlns="http://www.w3.org/2000/svg">
<path fill-rule="evenodd" clip-rule="evenodd" d="M111.835 5.09465C105.04 0.837035 97.713 -0.446825 92.9567 1.86685C84.5036 5.86194 59.303 30.6351 35.7567 58.0897C31.6813 62.8368 23.9526 71.7257 18.5784 77.8328C5.0824 93.1608 4.26757 94.1588 2.16251 98.1569C-2.16782 106.396 0.277605 115.125 7.67299 117.928C12.6337 119.807 18.8834 118.443 25.7843 113.863C36.6194 106.569 39.2528 104.852 43.1864 102.018C54.6238 93.7557 104.572 44.6627 109.391 36.9733C113.788 29.8285 114.287 26.5813 111.744 22.4068C110.759 20.942 109.406 19.7609 107.822 18.9841C106.238 18.2074 104.481 17.8628 102.73 17.9856C94.6202 17.8517 89.9316 21.5022 59.7168 51.5338C35.1529 76.0977 34.035 77.2156 36.0229 79.8078C36.4047 80.3904 36.9939 80.8066 37.6691 80.9706C41.8467 77.7555 45.7773 74.2331 49.4287 70.4323C75.8398 44.8151 93.4303 28.3849 96.5186 26.518C101.969 23.2665 108.323 24.4237 107.433 28.5497C106.834 30.3306 106.06 32.0459 105.121 33.6706C100.999 40.9688 57.0296 83.4112 40.1189 96.2914C33.7251 101.165 26.9885 105.575 19.96 109.489C8.38632 114.956 2.97736 108.701 9.47797 97.3146C13.4487 91.9619 17.8183 86.9187 22.55 82.2273C28.8625 75.4874 37.5284 65.7834 41.8455 60.7946C54.1619 46.4019 67.5724 32.1365 80.0529 20.0834C86.3374 13.7989 92.4438 8.30317 93.3213 7.66996C95.0588 6.82592 96.9614 6.3673 98.9002 6.3251C100.839 6.2829 102.768 6.65815 104.558 7.42542C107.933 8.46808 110.949 10.4554 113.244 13.1509C121.669 20.9707 124.83 27.2746 123.897 34.5592C122.963 41.8437 123.083 41.4799 99.0552 64.1027C79.5926 82.6492 71.5519 89.9571 62.087 97.8954C58.0952 101.215 57.3151 103.034 59.2365 104.532C61.1578 106.03 63.2468 104.735 74.4613 94.498C103.632 68.0753 122.066 50.3738 125.472 45.3195C127.41 42.4078 128.711 39.1148 129.289 35.654C129.867 32.1932 129.71 28.6419 128.829 25.2303C124.932 17.2143 119.087 10.2889 111.835 5.09465V5.09465Z" fill="#60C9EB"/>
</svg>
