<svg width="1059" height="1040" viewBox="0 0 1059 1040" fill="none" xmlns="http://www.w3.org/2000/svg">
<path d="M661.082 282.072C598.298 281.92 535.521 281.955 472.749 282.177C409.977 282.399 347.199 282.789 284.416 283.349L237.346 283.821C232.675 283.821 221.69 281.827 217.79 284.818C213.889 287.809 216.041 299.144 216.041 303.534C216.041 309.831 215.936 316.128 215.883 322.443C212.976 323.119 210.23 324.361 207.802 326.099C201.995 330.244 197.849 337.433 199.808 344.727C201.558 351.584 208.467 355.45 215.184 355.834H215.586C215.481 369.426 215.341 383.034 215.236 396.643C211.782 397.072 208.421 398.059 205.283 399.564C198.671 402.712 191.395 410.059 195.75 417.86C199.249 424.262 207.994 426.711 214.991 427.288C214.851 445.946 214.735 464.604 214.641 483.261C212.381 483.684 210.171 484.34 208.047 485.22C202.52 487.529 194.893 492.06 197.255 499.214C198.409 502.712 202.065 504.024 205.318 505.038C208.305 505.937 211.387 506.483 214.501 506.665C214.42 523.306 214.356 539.94 214.309 556.569C211.748 556.589 209.194 556.853 206.683 557.356C200.211 558.686 193.546 563.968 195.383 571.349C197.027 577.996 206.07 581.215 211.948 582.474C212.694 582.654 213.477 582.618 214.204 582.369C214.204 583.506 214.204 584.626 214.204 585.763C214.134 612.175 214.087 638.593 214.064 665.018C210.947 665.096 207.885 665.855 205.091 667.239C199.231 670.195 194.596 677.454 198.462 683.751C201.802 689.156 208.292 692.899 214.047 695.383C214.047 716.84 214.047 738.313 214.047 759.805C214.047 762.656 214.134 765.77 215.988 767.939C218.262 770.597 222.215 770.79 225.714 770.807L837.923 771.717C840.015 771.978 842.127 771.42 843.817 770.16C845.374 768.673 845.462 766.277 845.479 764.143C845.479 759.822 845.479 755.502 845.567 751.164C846.511 595.103 847.462 439.042 848.418 282.982C848.54 282.597 676.824 282.107 661.082 282.072ZM211.056 684.153C209.059 682.949 207.284 681.411 205.808 679.606C203.814 676.702 210.006 674.131 211.965 673.711C212.635 673.58 213.313 673.492 213.994 673.448L213.994 686.06C212.98 685.479 211.999 684.843 211.056 684.153V684.153ZM214.291 574.323C211.858 573.83 209.504 573.006 207.295 571.874C206.333 571.367 203.796 570.353 203.796 569.023C203.499 565.35 211.983 565.087 214.099 565.018H214.501C214.309 568.131 214.291 571.227 214.291 574.323ZM214.606 498.199C212.741 498.06 210.891 497.756 209.079 497.29C208.187 497.045 206.927 496.38 205.913 496.205C206.158 495.995 206.385 495.733 206.578 495.576C207.54 494.916 208.552 494.331 209.604 493.826C211.21 493.017 212.899 492.384 214.641 491.937C214.641 494.001 214.624 496.1 214.606 498.199ZM215.096 418.77C212.693 418.519 210.338 417.93 208.099 417.02C206.49 416.391 203.779 415.271 203.097 413.522C202.415 411.773 204.391 410.181 205.546 409.271C207.601 407.68 209.94 406.493 212.437 405.773C213.35 405.499 214.279 405.283 215.219 405.126C215.149 409.691 215.131 414.239 215.044 418.77H215.096ZM215.656 347.421C215.499 347.411 215.341 347.411 215.184 347.421C211.843 347.228 208.012 345.112 207.802 341.404C207.557 337.013 211.3 333.445 215.009 331.783L215.796 331.468C215.743 336.733 215.708 342.086 215.656 347.421ZM839.007 448.383C838.529 527.154 838.267 605.913 838.22 684.661C838.22 710.595 838.22 736.535 838.22 762.481C810.478 762.691 782.731 762.854 754.977 762.971C651.625 763.461 548.266 763.461 444.902 762.971C370.795 762.656 296.683 762.073 222.565 761.222C222.565 732.232 222.565 703.248 222.565 674.271C224.034 674.62 225.486 675.04 226.868 675.425C229.853 676.319 232.775 677.412 235.614 678.696C235.159 683.244 237.87 688.177 243.765 688.177C254.662 688.177 254.68 671.209 243.765 671.209C242.74 671.204 241.723 671.376 240.756 671.717C235.947 669.442 230.911 667.683 225.731 666.469C224.664 666.207 223.597 665.979 222.513 665.77C222.513 637.316 222.565 608.863 222.67 580.41C222.67 575.53 222.67 570.632 222.67 565.735C229.09 567.09 235.334 569.173 241.281 571.944C241.642 573.763 242.64 575.393 244.096 576.541C245.552 577.689 247.37 578.279 249.222 578.206C260.12 578.206 260.137 561.239 249.222 561.239C248.123 561.204 247.028 561.401 246.009 561.817C244.991 562.233 244.071 562.858 243.31 563.653C236.722 560.687 229.806 558.515 222.705 557.181C222.798 535.153 222.892 513.12 222.985 491.08C227.508 491.557 231.913 492.824 235.999 494.823C235.931 495.931 236.093 497.04 236.476 498.081C236.859 499.123 237.455 500.073 238.224 500.872C238.994 501.671 239.921 502.302 240.947 502.724C241.973 503.146 243.076 503.351 244.185 503.324C255.1 503.324 255.117 486.375 244.185 486.375C242.766 486.354 241.364 486.691 240.109 487.354C236.149 485.389 231.942 483.966 227.603 483.122C226.093 482.863 224.568 482.7 223.037 482.632C223.177 456.767 223.341 430.903 223.527 405.039C228.562 405.89 233.343 407.856 237.52 410.793C237.603 412.88 238.505 414.849 240.031 416.274C241.557 417.699 243.584 418.464 245.672 418.402C256.586 418.402 256.604 401.435 245.672 401.435C243.934 401.4 242.23 401.921 240.809 402.922C235.584 399.592 229.701 397.432 223.562 396.59C223.702 379.098 223.789 361.607 223.947 344.115C223.947 339.497 223.947 334.879 224.069 330.262C228.301 330.806 232.377 332.204 236.051 334.372C235.509 338.972 238.203 344.028 244.167 344.028C255.082 344.028 255.1 327.061 244.167 327.061C243.149 327.058 242.137 327.23 241.176 327.568C235.972 324.477 230.171 322.527 224.157 321.848C224.238 312.041 224.332 302.234 224.437 292.427C297.902 291.634 371.367 291.051 444.832 290.678C548.196 290.223 651.555 290.223 754.907 290.678C783.337 290.818 811.755 290.987 840.162 291.185C839.719 343.625 839.334 396.024 839.007 448.383Z" fill="#E96262"/>
</svg>
