<svg width="66" height="100" viewBox="0 0 66 100" fill="none" xmlns="http://www.w3.org/2000/svg">
<path fill-rule="evenodd" clip-rule="evenodd" d="M31.1392 94.7631C31.1392 94.8699 31.7343 94.6119 31.7693 94.5675C31.8044 94.523 31.577 94.0693 31.6646 93.9002C31.7521 93.7312 32.0408 93.7134 32.3123 93.2419C32.5837 92.7704 32.4698 92.2099 32.715 91.6228C32.8375 91.3381 33.1527 91.1335 33.3716 90.7332C33.3716 90.7332 33.5905 90.3684 33.6256 90.2705C33.6606 90.1727 33.5292 89.986 33.5555 89.9504C33.678 89.7191 34.046 89.5501 34.2036 89.2921C34.3351 88.9479 34.4872 88.6121 34.6588 88.2867C34.7489 88.1557 34.8306 88.019 34.9038 87.8775C35.0439 87.753 35.2017 87.8775 35.3506 87.6729C36.0721 86.7586 36.9285 85.9635 37.8895 85.3155C38.2499 85.0896 38.624 84.8874 39.01 84.7104C39.1413 84.6482 39.1327 84.6483 39.1327 84.6394V84.586C39.1691 84.5243 39.1985 84.4587 39.2203 84.3903C39.2021 84.3078 39.1754 84.2273 39.1413 84.1501C39.1413 84.1501 39.2114 84.2301 39.264 84.2923C39.2743 84.3133 39.2895 84.3317 39.308 84.3458C39.308 84.3458 39.0366 83.8208 39.308 84.2834L39.868 85.1731C40.1219 85.609 40.9802 86.8901 41.0415 87.0235C41.1145 87.1317 41.1675 87.2521 41.1988 87.3793C41.1988 87.4238 41.1988 87.3793 41.1988 87.4238C41.1988 87.4683 41.1988 87.4239 41.1988 87.4772C41.1988 87.5306 41.3566 87.7975 41.3917 87.8953C41.3917 87.9843 41.1379 87.8242 41.0766 87.9577C41.0153 88.0911 41.0763 88.2958 40.98 88.4381C40.8837 88.5804 40.7963 88.4914 40.7525 88.5982C40.7088 88.7049 40.8662 88.8117 40.8487 88.8562C40.8312 88.9007 40.6822 88.8562 40.6559 88.9096V88.9806L40.5422 89.0875L40.3323 89.2921C40.1928 89.421 40.0665 89.5641 39.9557 89.7191C39.7468 89.983 39.5895 90.2849 39.4918 90.6087C40.1674 90.419 40.7752 90.0361 41.2429 89.5056C41.3654 89.3886 41.5102 89.2983 41.6682 89.2402C41.8263 89.1821 41.9942 89.1572 42.162 89.1674C42.2182 89.1446 42.2811 89.1446 42.3373 89.1674C42.3943 89.166 42.4498 89.185 42.4946 89.2209C42.5559 89.2831 42.4949 89.2209 42.5387 89.2921L42.4861 89.1852C42.4861 89.1141 42.4333 89.0519 42.442 89.043C42.4508 89.0341 42.4423 89.0429 42.3198 88.5625C42.1972 88.0822 42.4423 88.3313 42.9414 89.0697C43.2212 89.5536 43.4418 90.0704 43.598 90.6087L43.852 91.365L44.0093 91.6139L44.2282 91.9609C44.2982 92.1033 44.3072 92.041 44.3072 91.9609C44.2761 91.731 44.2232 91.5046 44.1495 91.2848C43.9744 90.7066 43.7205 90.0393 43.6767 89.897C43.6061 89.5744 43.5564 89.2477 43.5279 88.9185C43.5279 88.794 43.3616 88.6071 43.309 88.4648C43.0189 87.7303 42.7933 86.9711 42.6348 86.1962C42.6391 86.1489 42.6391 86.1011 42.6348 86.0538V86.0006L42.705 85.9026L43.02 85.4934C43.5541 84.7817 43.6503 84.7194 43.8079 84.5147H43.7468L43.878 84.7018C44.0989 85.0107 44.3357 85.3077 44.5873 85.5914L44.9725 86.0095L45.1477 86.1962L45.1037 86.1428L44.9199 85.956C44.7907 85.8417 44.6534 85.7375 44.5086 85.6446C44.3774 85.5609 44.2515 85.469 44.132 85.369C43.9744 85.2444 43.817 85.1286 43.6506 85.0219L43.1953 84.7282C43.1953 84.7282 43.1953 84.7284 43.1953 84.675C43.1953 84.6217 43.1953 84.4882 43.1953 84.4081C43.1953 84.328 43.1952 83.9455 43.2564 83.7409C43.5016 83.6875 43.8604 83.9455 44.1931 83.9455C44.9811 83.8921 44.9901 84.8352 45.603 85.3333C45.7519 85.3778 45.8655 85.111 45.9006 84.9153C45.9356 84.7195 45.7603 84.5861 45.7603 84.4526C45.7923 84.0767 45.7923 83.6987 45.7603 83.3228C45.7603 83.1805 45.6118 83.0292 45.603 82.8513C45.5943 82.6734 45.603 82.4775 45.603 82.2818C45.5592 81.9526 45.4014 81.6237 45.3752 81.339C45.3489 81.0543 45.5064 80.565 45.4714 80.1913C45.4363 79.8177 45.3313 79.3016 45.27 78.9546C45.27 78.7411 45.1652 78.492 45.1127 78.2696C45.0863 78.1671 45.0656 78.0633 45.0511 77.9584C45.033 77.8345 45.033 77.7087 45.0511 77.5848C45.3138 76.6952 45.3488 77.6647 45.5415 77.2199C45.7253 76.4371 45.1126 77.22 45.2614 76.197C45.3122 76.0102 45.3796 75.8285 45.4628 75.6542C45.5153 75.5386 45.5766 75.423 45.6466 75.2895L45.7167 75.1206L45.7869 75.0404C45.8679 74.9505 45.9555 74.8672 46.0493 74.7913C46.1456 74.7201 46.2069 74.6045 46.2682 74.5689C46.412 74.4539 46.5754 74.3664 46.75 74.3109C47.1965 74.1863 47.7656 74.6402 48.2647 74.4534C48.4661 74.3733 48.6146 74.1508 48.8247 73.8839C49.0018 73.7386 49.1413 73.5517 49.2313 73.3394C49.3213 73.127 49.3594 72.8957 49.3416 72.6652C49.2803 72.3539 49.1401 72.5673 49.2715 72.2026C49.2638 71.6962 49.2022 71.1919 49.0876 70.699C49.0439 70.3698 49.0876 70.1207 49.0876 69.8094C49.0876 69.7293 48.86 69.5426 48.8512 69.4803C48.8425 69.418 48.9211 69.1868 48.8948 69.0444C48.816 68.4484 48.7196 67.3985 48.5532 66.4911C48.5532 66.4111 48.3172 66.2333 48.2997 66.1799C48.2472 65.9041 48.3522 65.5572 48.2296 65.2903C48.1071 65.0234 48.2295 64.7743 48.1245 64.2406C48.1245 64.0893 47.888 63.8758 47.8705 63.7869C47.7042 63.0574 47.8178 62.2833 47.6602 61.2514C47.6602 61.0557 47.4417 60.86 47.3891 60.6554C47.144 59.4544 47.2403 58.1111 48.2121 57.9866C48.554 57.9897 48.8881 58.0913 49.1753 58.28C49.4642 58.4579 49.7968 59.1697 50.1295 58.5736C50.4622 57.9776 50.3835 56.4562 50.2171 55.3709C50.1733 55.104 49.9981 54.9885 49.9106 54.6149C49.9106 54.6771 50.1206 54.5258 50.0418 54.4635C49.6391 54.1254 49.5953 52.5599 49.3852 51.7503C49.3852 51.7503 49.2537 51.7502 49.245 51.599C49.2362 51.4477 49.3501 51.3855 49.3676 51.4389C49.2363 51.0474 48.9826 50.8962 48.9038 50.5493C48.825 50.2023 48.9037 49.7131 48.8337 49.3395C48.6936 48.1563 48.2209 47.1153 48.4485 46.0299C48.5448 45.4962 48.8951 45.3983 48.7024 44.4909C48.6587 44.2863 48.4659 44.1263 48.5096 43.9039C48.5096 43.9039 48.632 43.6458 48.7546 43.37C48.8449 43.1636 48.9506 42.9645 49.0701 42.774C49.7968 42.178 51.5653 42.9164 50.6985 41.493C50.5934 41.3151 50.3485 41.2707 50.2346 41.0927C50.1208 40.9148 50.1033 40.5233 49.9982 40.3543C49.8932 40.1853 49.5604 40.0252 49.5254 39.9718C49.3065 39.616 49.2277 39.0286 49.035 38.6728C49.035 38.6105 48.7723 38.6284 48.7461 38.5751C48.659 38.2938 48.5566 38.0176 48.4395 37.7478C48.3432 37.5788 48.1769 37.4364 48.0543 37.2406C47.9963 37.1092 47.9663 36.9667 47.9667 36.8225C47.6865 36.3511 47.2928 36.4666 47.3366 36.0752C47.461 35.9263 47.6301 35.823 47.8179 35.7815C47.9668 35.0521 47.6603 36.191 47.7478 35.5416C47.7566 35.4746 47.7807 35.4105 47.8179 35.3546L47.7568 35.1589C47.8015 35.0608 47.828 34.9554 47.8355 34.8476C47.9843 34.6875 48.142 34.9098 48.3784 34.981L48.422 35.1143H48.4836C48.6674 35.1143 48.9826 34.9721 49.1577 35.0077C49.5605 35.0967 49.8582 35.6038 50.0333 35.5148C50.4886 35.2568 50.4182 34.8299 50.1731 34.4295C49.9134 34.0199 49.6206 33.633 49.2975 33.273C48.7372 32.5168 48.4223 31.8228 47.8444 30.9332C47.573 30.4973 47.1353 30.0436 46.7676 29.4387C46.645 29.2252 46.6099 29.1273 46.5311 29.0206C46.4523 28.9138 45.9792 27.9352 45.7428 27.4281C45.6378 27.2146 45.533 26.9299 45.4367 26.6897C45.4367 26.6897 45.2 26.6898 45.27 26.5652C45.5327 26.1827 45.2089 26.254 45.0075 25.9693C44.8061 25.6846 44.8938 25.3908 44.6574 24.8927C44.6574 24.8215 44.3508 24.6793 44.3333 24.6259C44.1932 24.3057 44.1321 23.9321 44.0007 23.5228C43.8694 23.1136 43.808 22.7666 43.6942 22.3752C43.5103 21.7969 43.3354 21.2632 43.1953 20.596C43.1155 20.2385 43.0599 19.8759 43.029 19.5107C42.9753 18.9152 43.0136 18.3148 43.1427 17.7314C43.4548 16.904 43.9081 16.139 44.4821 15.4718C44.9054 15.0096 45.4305 14.6558 46.0143 14.4397C46.6381 14.1949 47.3117 14.1096 47.9757 14.1908C48.2035 14.2218 48.4288 14.2693 48.6499 14.333C48.8507 14.3845 49.0468 14.4529 49.2364 14.5376L49.6477 14.7511C49.7686 14.8149 49.8859 14.8862 49.9982 14.9646C50.5383 15.3341 51.0095 15.798 51.3902 16.3347L45.5855 20.2845C45.5005 19.994 45.4417 19.6962 45.4102 19.3949C45.3723 19.1236 45.3489 18.8504 45.3401 18.5765C45.3318 17.8065 45.5253 17.0482 45.9006 16.3792C46.3996 15.6408 47.0213 15.4895 47.2489 15.8186C47.4766 16.1478 47.599 16.4948 47.564 17.0197C47.564 17.2332 47.6079 17.9983 47.7393 17.9716C47.8706 17.9449 48.2121 17.8381 48.4135 17.8915C48.6148 17.9449 48.7812 18.1939 48.8687 18.105C48.9805 18.0221 49.0606 17.9027 49.0962 17.7668C49.1575 17.6779 49.1578 17.6424 49.1753 17.6246C49.3824 17.3541 49.6072 17.0986 49.849 16.8596C50.3743 16.2725 50.9088 15.7386 50.8562 14.9735C50.8562 14.7511 51.2851 13.5858 51.3376 12.8118C51.3542 12.4858 51.3542 12.1591 51.3376 11.8332C51.3376 11.6285 51.4778 11.5219 51.4778 11.3084C51.4778 11.0949 51.294 10.8279 51.294 10.7657C51.294 10.4009 51.5302 10.0985 51.539 9.66254C51.5477 9.22663 51.4253 8.77284 51.4603 8.47038C51.4953 8.16791 51.6615 8.15917 51.7403 7.74995C51.8366 7.18949 51.7404 5.89955 51.8104 5.0811C51.8805 4.26266 52.0555 3.91571 52.143 3.30187C52.143 3.02609 52.2044 2.68795 52.2307 2.32321V1.78044V1.63818L52.3183 1.71833C52.5918 2.15777 52.7875 2.64241 52.8963 3.15049C53.0451 3.69315 53.1938 4.26251 53.3777 4.92972C53.5615 5.59693 53.7366 6.23749 54.0518 7.41178C54.1219 7.67867 54.2796 8.30146 54.3584 8.58614C54.3584 8.64841 54.4371 8.8618 54.5071 9.12868L54.7611 10.1163L54.9184 10.7746C55.0147 11.2016 55.0848 11.4418 55.4263 12.6161C55.5051 12.883 55.7063 13.5946 55.7589 13.8081L56.0128 14.6977L56.2142 15.4539C56.3318 15.9756 56.5053 16.4827 56.731 16.9663V16.9663C56.7436 16.9939 56.7632 17.0174 56.7879 17.0347C56.8125 17.0519 56.841 17.0622 56.8708 17.0642H56.9585L57.834 16.9217C58.409 16.7146 58.9474 16.4142 59.4277 16.0321C59.7101 15.7958 59.976 15.5403 60.2242 15.2672C60.386 15.0828 60.538 14.8897 60.6795 14.6888C60.8196 14.4931 60.951 14.2975 61.0211 14.173C61.319 13.6763 61.5822 13.1591 61.809 12.625C62.1576 11.8226 62.4501 10.9961 62.6845 10.1519C63.0762 8.76227 63.2391 7.31634 63.1663 5.87277V5.87277L55.3827 3.36399C55.3827 3.71983 55.1374 4.04896 55.0236 4.66279C54.9097 5.27663 54.9448 6.06844 54.8222 6.71786C54.7259 7.23383 54.4635 7.68768 54.3934 8.19476C54.3934 8.30151 54.4722 8.39926 54.3934 8.5238C54.3146 8.64835 54.2008 8.70182 54.2096 8.62176C54.1483 9.09325 54.3232 9.29776 54.2532 9.62692C53.9787 10.7357 53.5976 11.8145 53.1152 12.8474C53.0092 12.8547 52.9036 12.8694 52.7997 12.8917C52.8434 12.8917 52.5283 12.963 52.6158 12.9897C52.4145 12.9274 52.4497 12.5093 52.3534 12.536C51.8718 12.6516 51.4778 13.4256 51.2239 14.3152C50.9804 15.1824 50.871 16.0828 50.8998 16.9841C50.9436 17.936 50.611 19.7862 50.6023 21.1029C50.6258 21.5056 50.6723 21.9068 50.7421 22.304C50.8261 22.651 50.8111 23.0151 50.6985 23.3536C50.6671 23.4102 50.6176 23.4542 50.5583 23.4783C50.4737 23.5112 50.3803 23.5112 50.2958 23.4783L49.6391 23.3982C49.5436 23.3799 49.4456 23.3799 49.3501 23.3982C49.0524 23.4515 48.8949 23.7097 48.7461 23.9765L48.6234 24.19L48.4485 24.4924C48.2925 24.762 48.123 25.0234 47.9406 25.2753C47.7743 25.5244 47.4238 25.7024 47.2575 25.9426C47.0911 26.1828 46.7848 26.6898 46.4696 27.2146C46.2029 27.7046 45.9106 28.1798 45.594 28.6381C45.0775 29.2875 44.3683 29.7235 43.8956 30.4174C43.5122 31.0572 43.1783 31.7264 42.8973 32.419L41.9692 34.7497C41.3651 36.2353 40.6997 37.7209 40.2181 39.1265C39.9993 39.8204 39.9294 40.4966 39.7017 41.2172C39.2027 42.7384 38.2659 44.1796 38.0208 44.9714C38.0032 45.0982 38.0032 45.2269 38.0208 45.3538L43.0376 44.2596C42.855 44.2171 42.6784 44.1514 42.5121 44.0639C42.3896 44.0017 42.2758 43.9305 42.162 43.8593L41.7503 43.6369L41.3215 43.4056C41.1727 43.3345 40.9714 43.2544 40.7876 43.1832C40.5854 43.1024 40.3777 43.037 40.166 42.9875C39.8981 42.9229 39.6258 42.8784 39.3516 42.8542C38.6207 42.8013 37.8871 42.9042 37.1978 43.1565C36.1921 43.5366 35.3039 44.1814 34.6238 45.0248C34.1647 45.6035 33.7763 46.2367 33.4678 46.9107C32.9512 48.0316 32.6537 48.9301 32.3298 49.6329C32.1897 49.9443 32.0058 50.1134 31.892 50.3447C31.7864 50.6851 31.6516 51.0156 31.4893 51.3322C31.393 51.439 31.1652 51.4479 31.0776 51.5457C30.8325 51.8571 30.6927 52.3107 30.3513 52.4975C30.1068 52.6037 29.8512 52.6813 29.5895 52.7288C28.9884 52.951 28.3552 53.0714 27.7157 53.0848L29.5104 54.0721L29.4232 53.9566C29.4232 53.9032 29.2393 53.7697 29.2218 53.654C29.2579 53.5569 29.3046 53.4643 29.3616 53.3782C29.1239 53.2269 28.896 53.0606 28.6789 52.8802C28.1529 52.2275 27.6647 51.5443 27.2168 50.834C27.1117 50.6739 26.884 50.4248 26.6563 50.1401C26.3973 49.8313 26.1688 49.4975 25.9736 49.1436C25.2995 47.8626 24.8966 46.6261 25.6671 45.9678C25.5971 46.0212 26.0873 45.8254 26.0698 45.8254C26.2011 45.8254 26.4464 46.2435 26.5777 46.2791C26.9717 46.368 27.2517 46.2169 27.4968 46.3503C27.742 46.4837 27.9958 46.9997 28.3198 47.2399C28.4073 47.3022 28.6088 47.2399 28.6789 47.2399C28.7394 47.2992 28.7896 47.3683 28.8277 47.4445C28.8277 47.5068 28.8801 47.5512 28.9238 47.569C29.134 47.6579 29.3531 47.569 29.6421 47.569C29.931 47.569 30.036 47.8538 30.2286 47.9071C30.9553 48.1117 32.1107 48.4944 31.4979 47.5514C31.4191 47.4357 31.1566 47.3732 31.0165 47.1242C30.7801 46.706 30.7891 46.3324 30.5702 46.0567C30.2287 45.603 29.7731 45.3273 29.3616 44.8825C28.7662 44.242 28.4337 43.6103 27.7683 42.9875C27.3398 42.6578 26.9748 42.2506 26.6914 41.7865C26.2011 41.0926 25.7282 40.8969 25.0716 40.0874C24.4149 39.2778 23.6445 38.2637 22.9003 37.4185C22.8159 37.3149 22.7223 37.2195 22.6203 37.1338H22.445C22.3117 37.1097 22.18 37.0772 22.0508 37.036C21.659 36.9179 21.2892 36.7344 20.9564 36.4933C20.6345 36.2613 20.3276 36.0089 20.0373 35.7372L19.7483 35.4614L19.5995 35.3102L19.5208 35.239V35.3546V35.577L19.4332 36.0307C19.2056 37.2228 18.9691 38.4326 18.7415 39.5891L18.5752 40.4787L17.7958 46.119C17.7958 46.1724 17.7959 46.039 17.866 45.9945C17.9481 45.8622 18.0518 45.7447 18.1725 45.6475C18.3478 45.4671 18.5481 45.3142 18.7676 45.1938C19.0221 45.0057 19.2989 44.8503 19.5909 44.7311C19.9952 44.5116 20.4169 44.3272 20.8517 44.1797C21.053 44.1263 21.3418 43.9928 21.6045 43.9039L22.0162 43.7616L22.2261 43.6993C22.2261 43.6993 22.2261 43.6458 22.2261 43.6102C22.2391 43.5397 22.2391 43.4673 22.2261 43.3967C22.1385 43.2188 21.9108 42.7296 21.7007 42.3648C21.5498 41.9631 21.4442 41.5451 21.3856 41.1192C21.2193 40.2296 21.2632 38.7174 21.0705 37.6409C21.0268 37.3562 20.8692 37.1427 20.8517 36.9025C20.8341 36.6623 20.9218 36.2176 20.9218 35.8795C20.9218 35.2568 20.7551 34.5718 20.8076 34.1003C20.8602 33.6288 21.4732 32.4722 21.2193 31.5915C21.2047 30.6978 21.2689 29.8046 21.4117 28.9226C21.4117 28.6202 21.342 28.5046 21.3595 28.3089C21.3595 27.9797 21.622 27.5795 21.6396 27.277C21.6571 26.9745 21.4295 26.8678 21.4557 26.6365C21.4803 26.4473 21.5365 26.2636 21.622 26.0937L21.8845 25.4443L20.8166 22.8378C20.7771 22.726 20.721 22.6209 20.6503 22.5264C20.3614 22.1705 20.0462 21.8504 19.7748 21.539C19.5306 21.3061 19.3022 21.0563 19.0916 20.7916C19.0263 20.7076 18.9679 20.6183 18.9168 20.5247L18.8116 20.2934L18.5837 19.7952C18.3123 19.3415 17.7698 18.7187 17.9886 18.2116C18.1929 17.8767 18.5009 17.6202 18.8642 17.4823C19.1356 17.4111 19.8448 17.4823 19.9937 17.4823C20.2065 17.4109 20.4141 17.3247 20.6152 17.2243C20.7466 17.2243 20.8254 17.3755 20.8867 17.4467V17.5179C20.9129 17.4841 20.9309 17.4443 20.9393 17.4022C20.9489 17.3313 20.9489 17.2595 20.9393 17.1887C20.9393 17.1887 20.8166 17.0552 20.8166 16.993C20.8166 16.9307 20.9564 16.9217 20.9564 16.9395C20.9564 16.9573 20.7379 16.6906 20.7204 16.6016C20.7029 16.5126 20.7642 16.4414 20.7204 16.3258C20.6908 16.2503 20.6523 16.1787 20.6063 16.1123C20.5933 16.0997 20.5763 16.0927 20.5584 16.0927C20.5405 16.0927 20.5231 16.0997 20.5101 16.1123C20.5101 16.1123 20.5889 16.2724 20.5802 16.299C20.5714 16.3257 20.4836 16.299 20.5186 16.299C20.6059 16.3019 20.6912 16.2717 20.7576 16.2141C20.824 16.1565 20.8669 16.0756 20.8777 15.9876V15.9876C20.8777 15.9876 20.7903 15.7565 20.7991 15.7387C20.8078 15.7209 20.9915 15.6231 21.044 15.5341C21.0966 15.4451 21.0443 15.2671 21.0881 15.1514C21.1318 15.0358 21.2281 15.0981 21.2368 15.018C21.2456 14.938 21.1494 14.7778 21.1582 14.76C21.2457 14.5554 21.4469 14.4397 21.5519 14.2796C21.701 14.0001 21.8708 13.7325 22.0598 13.479C22.151 13.3658 22.2684 13.2772 22.4014 13.221C22.4644 13.2036 22.5307 13.2036 22.5937 13.221C22.6254 13.2131 22.6587 13.2131 22.6904 13.221V13.3011C22.6904 13.5502 22.6902 13.5678 22.7515 13.55C22.8128 13.5323 22.594 13.5502 22.6378 13.7281C22.8742 13.8349 22.7078 13.7281 22.6378 13.8526V11.9843L22.2436 14.3775L22.3137 14.244L22.6728 13.55C22.7429 13.4255 22.8042 13.2921 22.8742 13.1498L22.9789 12.9452C22.9789 12.8829 23.0491 12.9006 23.0841 12.8828C23.3275 12.7634 23.579 12.6625 23.8369 12.5805C24.411 12.4484 24.9999 12.3946 25.588 12.4204C25.8817 12.3983 26.177 12.4221 26.4635 12.4915C26.7809 12.5938 27.0775 12.7536 27.3391 12.963L27.5404 13.1141V13.0609L27.4707 12.9719C27.4098 12.8147 27.4098 12.6398 27.4707 12.4826C27.5679 12.2556 27.7075 12.0502 27.882 11.8777C27.9994 11.7606 28.1285 11.6562 28.2672 11.5662C28.5678 11.3042 28.8837 11.0608 29.2128 10.8369C29.7119 10.5433 30.0884 10.472 30.5963 10.2229L31.3581 9.83151L31.4628 9.92947L31.6731 10.1341L32.0934 10.5433L32.9689 11.3794L33.8444 12.2691L34.2822 12.6961L34.3959 12.8029L34.4485 12.8563C34.72 12.6954 35.0159 12.5811 35.324 12.5182C35.4641 12.5182 35.6918 12.5983 35.8144 12.5716C36.1383 12.4915 36.3835 12.2601 36.6899 12.2067C37.0554 12.1951 37.42 12.2495 37.7668 12.367C38.012 12.4115 38.1697 12.3669 38.161 12.4915C38.2234 12.0423 38.3316 11.601 38.4846 11.1748C38.5313 11.0406 38.5934 10.9123 38.6689 10.7924V10.8369C38.5927 10.9284 38.5076 11.0119 38.4149 11.086L30.1234 16.4237L43.6416 15.5341L44.3769 15.4896C44.3769 15.4896 44.3773 15.3204 44.5787 15.3293C45.0077 15.3293 45.559 15.3293 45.594 15.3293C45.594 15.3293 45.594 15.4272 45.594 15.187L45.5064 14.1819C45.4977 14.0091 45.4806 13.8368 45.4543 13.6658L45.3401 12.536C45.2701 11.7709 45.2264 11.0058 45.2089 10.2318C45.2171 10.1044 45.2171 9.9767 45.2089 9.84932V9.5913C45.2089 9.41338 45.2089 9.23558 45.2089 9.05766C45.1999 8.87689 45.1999 8.69567 45.2089 8.5149C45.2089 8.39035 45.2089 8.32801 45.2089 8.22126C45.2877 7.37612 45.5154 7.33162 45.2965 7.53623C45.077 7.70813 44.8356 7.84899 44.5787 7.95455L44.3072 8.05228L44.167 8.09681L43.9567 8.17695C43.67 8.28246 43.3777 8.37139 43.0812 8.44366L42.6434 8.54161L41.9867 8.71949C41.5315 8.82625 41.1116 8.92417 40.6388 9.00423C40.166 9.0843 39.8595 9.11994 39.054 9.28897L38.0032 9.48466H37.9596C38.0124 9.65546 38.0473 9.83122 38.0644 10.0094C38.0644 10.2229 37.9332 10.2942 37.9682 10.5433C38.034 10.9402 38.0692 11.3418 38.0733 11.7443C38.0733 12.0379 38.2659 12.2869 38.2747 12.5182C38.2876 13.2156 38.349 13.9113 38.4585 14.6C38.5023 14.8846 38.3536 15.0981 38.3974 15.4272C38.3974 15.5785 38.6072 16.3169 38.686 16.8596C38.686 16.8596 38.9138 16.9129 38.8437 17.0108C38.4497 17.4734 39.4915 18.2741 39.5966 18.8702C39.6841 19.315 39.4304 19.7597 39.3691 20.3557C39.3081 22.2882 39.4344 24.222 39.7458 26.1293C39.7895 26.4763 40.157 27.2324 39.6667 27.4371C39.5704 25.9158 39.0979 24.3947 38.8702 22.8556C38.8702 22.6332 38.9403 22.2772 38.8702 22.0459C38.8002 21.8146 38.5549 21.441 38.4761 21.1563C38.3973 20.8716 38.5636 20.676 38.4761 20.3379C38.3859 20.137 38.3127 19.9287 38.2572 19.7152C38.2572 19.3772 38.3272 19.039 38.2572 18.7277C38.0821 17.5 37.6004 16.2013 37.4603 15.0537C37.4097 14.8412 37.3892 14.6226 37.3992 14.4043C37.3992 14.2619 37.6441 14.2885 37.6441 14.0572C37.6441 13.8259 37.3731 13.8525 37.338 13.7635C37.303 13.6746 37.4605 13.4701 37.4517 13.4256C37.3051 12.6355 37.2143 11.8358 37.1803 11.0326C37.1803 10.6234 37.1189 10.2141 37.0751 9.92056C37.0782 9.85833 37.0782 9.79601 37.0751 9.73378C37.0751 9.6804 37.0751 9.62695 37.0751 9.65363L37.5915 9.57349L38.8788 9.34218C39.8769 9.14647 40.2183 9.11987 40.8137 8.99533C41.409 8.87078 41.8992 8.76409 42.442 8.61285L42.7575 8.54161L43.02 8.47928L43.5454 8.33702C44.1844 8.20309 44.7839 7.91989 45.2965 7.50974V7.50974V7.58076C45.2749 7.63497 45.2599 7.69194 45.2525 7.74995C45.2525 7.74995 45.2526 7.94552 45.1913 8.04338C45.183 8.16184 45.183 8.28089 45.1913 8.39935V8.65716V8.99533C45.1782 9.22347 45.1782 9.45221 45.1913 9.68035V10.0183V10.7389C45.1913 11.2371 45.2352 11.7263 45.279 12.2156C45.3578 13.1052 45.4451 13.9949 45.5239 14.8845L45.6731 16.5125H45.5415H45.0336C44.6133 16.5125 44.1584 16.5125 43.6681 16.5125L31.9797 16.3169L38.3799 11.0504C38.6775 10.8013 38.7214 10.6678 38.6513 10.7924L38.5637 10.9613L38.4585 11.2372V11.3349C38.4148 11.4861 38.3884 11.5841 38.3534 11.682C38.317 11.8162 38.2908 11.953 38.2747 12.0912C38.2747 12.2157 38.2223 12.3491 38.196 12.5004C38.1698 12.6516 38.1958 12.9096 38.1345 13.1409C38.1345 13.5501 38.1345 13.3633 38.1345 13.4256C38.1345 13.4879 38.1346 13.4256 38.0558 13.4256C37.977 13.4256 37.8982 13.2121 37.7844 13.1854C37.4692 13.0964 37.1365 13.4168 36.725 13.5146C36.5849 13.5146 36.3484 13.4435 36.1645 13.5146C35.9807 13.5858 35.7091 13.8082 35.4027 13.9684H35.2804C35.3417 14.0662 35.044 13.7458 34.8427 13.5411L34.2036 12.8652L31.8134 10.3921L31.6381 10.2229H31.5945L31.5154 10.2674L31.3666 10.3476L31.1127 10.4987L30.745 10.7122C30.5723 10.8288 30.3792 10.9103 30.176 10.9524H30.0007C29.7906 11.0503 29.4493 11.335 29.2829 11.4062C29.1166 11.4773 29.1867 11.3528 29.1166 11.4062C28.8591 11.5307 28.6103 11.6734 28.3724 11.8332C28.1479 12.0059 27.9399 12.1996 27.7508 12.4115C27.6721 12.4908 27.6044 12.5804 27.5494 12.6782C27.52 12.708 27.4965 12.7433 27.4806 12.7823C27.4647 12.8212 27.4566 12.8631 27.4566 12.9052C27.4566 12.9474 27.4647 12.989 27.4806 13.0279C27.4965 13.0668 27.52 13.1022 27.5494 13.132V13.132H27.4793C27.2388 12.9994 26.9828 12.8979 26.7175 12.8296C26.5349 12.7983 26.3486 12.7983 26.166 12.8296H25.9471H25.632H25.2905L24.8702 12.9096L24.5727 12.9808L24.2226 13.0963C23.9949 13.1853 23.811 13.2476 23.5484 13.3722L23.1803 13.5325L23.0054 13.6213H22.9178L22.8742 13.7192C22.6466 14.2263 22.4275 14.7155 22.2261 15.187L22.1385 15.3649V15.4094C22.0071 16.1745 23.233 8.71951 22.7164 11.851C22.7164 19.0835 22.7164 13.8616 22.7164 15.4718H22.8917C22.9439 15.4801 22.9968 15.4801 23.049 15.4718H23.1281C23.0806 15.4249 23.0363 15.3741 22.9965 15.3204C22.9177 15.2225 22.9442 15.3205 22.8742 15.2137C22.8042 15.107 22.8741 15.0536 22.769 14.9646C22.664 14.8757 22.4977 14.8134 22.3838 15.0091C22.3838 15.0091 22.3838 15.1959 22.3313 15.1959C22.2787 15.1959 22.2701 15.0268 22.2351 15.098C22.2001 15.1691 22.235 15.534 22.1474 15.6496C22.0599 15.7653 21.8146 15.9255 21.7708 16.139C21.727 16.3525 21.8582 16.5037 21.8495 16.5749C21.8403 16.607 21.8256 16.637 21.8059 16.6637C21.7533 16.7349 21.6656 16.7795 21.6306 16.8329C21.5956 16.8863 21.6309 16.9484 21.7097 16.9484C21.7885 16.9484 21.7097 16.9039 21.7798 16.895C21.8498 16.8861 21.9987 17.1085 22.0162 17.1352C22.0337 17.1619 21.9549 17.2954 22.0162 17.4289C21.6222 17.2243 21.7794 17.1976 21.3942 16.9841C21.4379 17.1887 22.0946 17.4466 22.2697 17.5978C22.2697 17.6423 22.2699 17.7135 22.2086 17.7757V17.8292V17.7668C22.2215 17.6426 22.2215 17.5175 22.2086 17.3933C22.2086 17.2865 22.1649 17.3933 22.1299 17.3933H21.9811C21.8673 17.3933 21.7007 17.4378 21.4818 17.4912C21.0615 17.6069 21.0091 17.6158 20.2912 17.7581C20.1073 17.8026 19.5997 17.9004 19.5559 17.9271C19.5121 17.9538 19.5556 18.2651 19.4943 18.5231C19.433 18.7811 19.3368 18.8255 19.3631 18.9145C19.4614 19.172 19.6284 19.3968 19.8449 19.5639L20.0112 19.7152C20.0831 19.7752 20.1504 19.8406 20.2125 19.9109C20.3789 20.0711 20.5365 20.2401 20.6854 20.4092C20.8342 20.5782 21.0179 20.8627 21.1843 21.1118C21.3379 21.3494 21.5044 21.5781 21.6832 21.7968C21.7604 21.8852 21.8489 21.963 21.9461 22.0281L22.3313 22.3129L22.9789 26.2006C23.0398 26.4389 23.0724 26.6837 23.0756 26.9299C23.0318 27.2858 22.7429 27.5705 22.6553 27.9353C22.5338 28.4299 22.5127 28.9445 22.5937 29.4476C22.6375 29.6255 22.8214 29.7323 22.8126 29.928C22.8039 30.1237 22.4274 30.5508 22.4274 30.8176C22.4274 31.3781 22.769 31.9652 22.7866 32.5078C22.7866 33.9312 21.8585 35.9774 22.3488 37.2941C22.4714 37.6677 22.0683 39.4825 22.5061 39.9629C22.76 40.2387 22.6903 39.9629 22.6378 40.6212C22.6099 41.1448 22.7649 41.6614 23.0756 42.0801C23.3032 42.4537 22.9964 42.3026 22.9789 42.6318C23.0477 42.8663 23.1678 43.0821 23.3295 43.2634C23.4161 43.3295 23.5191 43.3695 23.627 43.3789V43.3789H23.5569C23.4227 43.4275 23.285 43.4663 23.1452 43.4947C22.6318 43.6185 22.1261 43.773 21.6306 43.9573L21.2544 44.0995L20.9393 44.2064C20.735 44.2776 20.5333 44.3577 20.3348 44.4466L19.7748 44.7222C19.6298 44.7796 19.4894 44.848 19.3545 44.9268C18.1901 45.5496 17.9096 46.1724 17.9621 46.1279L18.8992 39.2779V39.2067L18.9518 38.8952L19.0655 38.2814C19.2144 37.4986 19.3543 36.7068 19.5119 35.8795C19.6694 35.0522 19.801 34.3049 19.9586 33.4687L20.0112 33.1572V33.0862L20.0548 33.1572L20.151 33.2997C20.4051 33.7188 20.6983 34.1119 21.0265 34.4738C21.3767 34.8297 21.473 34.5717 21.902 34.8919C22.1559 35.0788 22.5586 35.6571 22.7075 35.6927C22.8006 35.7388 22.902 35.7661 23.0054 35.7729H23.2153C23.2559 35.7955 23.2944 35.8222 23.3295 35.8528C24.8392 37.3547 26.2655 38.9407 27.602 40.6034C27.9697 41.0215 28.2061 41.0661 28.6614 41.5554C29.3618 42.3115 30.5086 43.9395 31.6206 45.2917C32.0464 45.6984 32.4332 46.1452 32.7761 46.6261C32.8899 46.813 33.144 47.142 33.1527 47.1509C33.2315 47.3288 33.0915 47.4622 33.1527 47.5779C33.2928 48.0405 33.3803 48.0049 33.3015 48.4675C33.3015 48.5298 33.3015 48.8856 33.3015 48.9034C32.9524 49.3618 32.4398 49.6624 31.8745 49.7398C31.7694 49.7398 31.5944 49.2593 31.4893 49.2059C31.3842 49.1526 30.9376 49.3038 30.6574 49.2059C30.5261 49.2059 30.395 48.9479 30.2637 48.9034C30.1323 48.8589 30.0098 48.9035 29.8609 48.8146C29.3181 48.6099 28.8539 48.3253 28.3724 48.1741L27.9957 48.0672L27.558 47.8982L26.779 47.6402C26.8997 48.0282 27.0995 48.3858 27.3656 48.6899C27.5829 48.93 27.7792 49.1891 27.9521 49.464C28.0922 49.7131 28.1273 50.149 28.2937 50.3536C28.4601 50.5582 28.8803 50.7807 29.1692 51.0831C29.5606 51.6553 29.9201 52.2493 30.2461 52.8624C30.3295 52.986 30.423 53.102 30.5261 53.2092L28.0398 51.857C28.3338 51.8493 28.6267 51.8167 28.9153 51.7592C29.1604 51.7592 29.318 51.4656 29.4843 51.43C29.6507 51.3944 29.7905 51.5457 29.9306 51.4745C30.0707 51.4033 30.1233 51.3499 30.1846 51.2343C30.2458 51.1186 30.1849 50.9497 30.2637 50.8963C30.3424 50.843 30.5786 50.8962 30.6924 50.7628C30.8063 50.6293 30.6927 50.4692 30.7891 50.2912C30.9467 49.9354 31.5507 49.5973 31.577 48.939C31.577 48.7789 31.4716 48.6454 31.5154 48.4853C31.6292 48.085 31.9532 47.7559 32.1896 47.2132C32.3559 46.8307 32.2859 46.5549 32.4786 46.1012C32.6011 45.7898 32.7763 45.8609 32.9339 45.6029C33.0039 45.4962 33.0652 45.2738 33.2053 44.9535C33.2695 44.7993 33.3398 44.6481 33.4157 44.4998C33.5044 44.3503 33.6038 44.2076 33.7132 44.0728C34.0196 43.6814 34.2911 43.6814 34.5887 43.3611C35.12 42.7253 35.7645 42.1971 36.4886 41.8043C37.3512 41.4699 38.2712 41.3156 39.1938 41.3506C39.9443 41.3002 40.698 41.3512 41.4353 41.5019C41.9543 41.6396 42.4545 41.8428 42.9238 42.1068C43.3353 42.3381 43.6505 42.5605 44.0183 42.7829L37.1102 44.2774C37.1715 44.1529 37.11 43.9839 37.1888 43.8771C37.2676 43.7704 37.5128 43.5303 37.6091 43.3346C37.7798 42.8956 37.926 42.4471 38.0468 41.9913C38.1645 41.5098 38.3569 41.0504 38.6163 40.6301C38.6863 40.5234 38.9837 40.0696 38.9574 40.123C39.0625 39.8561 38.9574 39.6071 38.9574 39.3224C39.1474 38.5731 39.4269 37.8499 39.7894 37.1694C40.1045 36.4577 40.2533 35.6303 40.5422 34.9008C41.0588 33.5931 41.7503 32.2854 42.407 30.8887C42.7494 29.8456 43.2361 28.8573 43.852 27.9531C44.2284 27.5261 44.8324 27.4458 45.2439 26.8854C45.349 26.7253 45.6555 26.1383 45.9882 25.5156C46.1633 25.1953 46.312 24.8839 46.5046 24.6259C46.6973 24.368 46.8639 24.0832 46.9864 23.9142C47.109 23.7452 47.3626 23.4426 47.5815 23.1758C47.8004 22.9089 47.8181 22.9534 47.9406 22.82C48.0184 22.726 48.0915 22.6279 48.1595 22.5264L48.3433 22.304C48.3871 22.215 48.5011 22.1794 48.5011 22.0815C48.5011 21.9837 48.5007 21.9304 48.5883 21.9126C48.6759 21.8948 49.6566 22.2861 49.7879 22.2149C49.8665 22.0741 49.9058 21.9144 49.9016 21.7525C49.9147 21.5125 49.9147 21.2719 49.9016 21.0319C49.9016 20.9251 49.9016 20.8183 49.9016 20.7471C49.9016 20.676 49.9016 20.5247 49.9016 20.498C49.8759 20.0611 49.8967 19.6227 49.9632 19.1903C49.9632 18.959 49.7969 18.6921 49.7969 18.4875C49.7969 17.7224 50.0857 16.8329 50.182 15.9789C50.2346 15.4184 50.182 14.8935 50.182 14.3775C50.182 14.0662 50.4096 13.7904 50.4796 13.4879C50.5934 13.0164 50.4797 12.6428 50.5848 12.4115C50.7304 12.0506 50.9153 11.7073 51.1362 11.3883C51.4317 11.2099 51.7387 11.0524 52.0554 10.9168C52.5282 10.9168 52.502 11.4685 52.8172 11.2283C53.1593 10.8346 53.4002 10.3607 53.5179 9.84932C53.5967 9.54685 53.3862 9.36003 53.4213 8.95971C53.4213 8.78178 53.7104 8.43496 53.8154 7.97236C53.8767 7.68768 53.8154 7.42954 53.8154 7.15376C54.0379 6.57541 54.2163 5.98059 54.3494 5.37453C54.3494 5.30336 54.1919 5.03653 54.2006 4.99205C54.2444 4.75186 54.4108 4.52051 54.4721 4.28032C54.4891 4.01075 54.4891 3.74042 54.4721 3.47085C54.5304 3.21582 54.5831 2.97557 54.6298 2.7502L64.1906 5.82824C64.0768 6.71786 63.9278 7.46519 63.849 8.32811C63.8439 8.79289 63.806 9.25675 63.7353 9.71597C63.6215 10.1163 63.3588 10.3564 63.28 10.6855C63.1049 11.3705 63.2275 11.6285 63.0962 12.0377C62.9648 12.447 62.6759 12.7495 62.4395 13.2299C62.3345 13.4523 62.2904 13.6481 62.1416 13.9684C62.0054 14.323 61.8294 14.6603 61.6166 14.9735C61.5115 15.1248 61.38 15.2849 61.2399 15.4539C61.0999 15.623 61.0211 15.6941 60.8898 15.8186C60.7519 15.9581 60.6057 16.0888 60.452 16.21L60.2242 16.4059L59.9091 16.6372C59.6119 16.8437 59.2987 17.0251 58.9724 17.1798C58.4935 17.4265 57.9678 17.566 57.4313 17.5889H57.2911H57.2299C57.2299 17.5889 57.1863 17.5889 57.1513 17.5889V17.509C57.0547 17.2885 56.9699 17.0628 56.8973 16.8329C56.8973 16.7172 56.8973 16.7794 56.8447 16.6815C56.7659 16.4146 56.6521 15.9788 56.5557 15.6318C56.5557 15.5873 56.5557 15.5341 56.5557 15.4985L56.3283 14.6977C56.2831 14.4834 56.2156 14.2747 56.127 14.075C55.9081 13.3277 55.4087 11.7531 55.1198 10.7122C54.9622 10.134 54.9448 9.90268 54.8222 9.38671C54.7347 9.04865 54.6909 8.85303 54.6209 8.59504C54.4983 8.05238 54.4807 7.98123 54.113 6.61122L53.8505 5.63255C53.7717 5.32119 53.6842 5.06318 53.5004 4.50272C53.3165 3.94226 53.3424 4.11142 53.3512 4.19149C53.3599 4.27155 53.3512 4.29814 53.3512 4.30703C53.3343 4.31396 53.3158 4.31396 53.299 4.30703C53.3074 4.38985 53.3074 4.47334 53.299 4.55615C53.299 4.93869 53.1062 4.97433 53.0711 5.5081C53.0361 6.04187 53.1237 6.71788 53.0711 6.96698C53.0186 7.21607 52.7558 6.90471 52.7296 7.19828C52.677 7.68757 52.7296 8.97742 52.7296 9.76918C52.7473 10.0001 52.7473 10.2322 52.7296 10.4631C52.677 10.9702 52.4672 10.8812 52.3709 11.3527C52.3184 11.584 52.3706 12.2424 52.2918 12.5716C52.213 12.9008 52.1608 13.4612 52.152 13.6569C52.2276 13.9815 52.2773 14.3118 52.3008 14.6445C52.2198 15.0247 52.0486 15.3789 51.8019 15.6764C51.6887 15.8165 51.5862 15.9652 51.4953 16.1212C51.3297 16.3322 51.1887 16.5621 51.0751 16.8062C50.9613 17.0019 50.7773 17.0909 50.716 17.2777C50.716 17.3311 50.7598 17.5801 50.716 17.6157C50.5584 17.8381 50.3309 17.669 50.2171 17.7935C50.1033 17.9181 50.2871 18.0606 50.2171 18.1584C50.1471 18.2563 50.2171 18.1584 50.2171 18.1584C50.2171 18.1584 50.0242 17.9448 49.9191 17.847C49.8141 17.7491 49.7006 17.6423 49.5955 17.5622V17.5179C49.5721 17.482 49.5382 17.454 49.4989 17.4378H49.4288H49.5254C49.5979 17.4499 49.6718 17.4499 49.7443 17.4378C49.8318 17.4378 49.8581 17.4378 49.9807 17.4378C50.1732 17.4483 50.3658 17.4483 50.5583 17.4378C50.5583 17.4378 50.5583 17.5356 50.5583 17.58C50.5711 17.6923 50.5711 17.8059 50.5583 17.9182L49.0876 24.1455L47.9842 19.6974C47.919 19.4494 47.9375 19.1862 48.0368 18.9501C48.1738 18.6319 48.4109 18.3692 48.711 18.2029C48.8385 18.1275 48.9702 18.0589 49.1052 17.9981C49.2347 17.9258 49.3692 17.8634 49.5079 17.8113C49.6066 17.8303 49.7012 17.8665 49.7879 17.9182L48.2472 18.9679C48.0896 18.7722 47.8881 18.5052 47.7568 18.4786C47.6255 18.4519 47.4677 18.799 47.3101 18.8434C47.1525 18.8879 46.8375 18.5855 46.715 18.8434C46.5924 19.1014 46.8199 19.1904 46.8287 19.5285C46.812 19.5718 46.7917 19.6134 46.7676 19.6529L50.9434 16.8062C50.9434 16.7172 50.996 16.6105 50.9434 16.5927C50.6373 16.1708 50.2614 15.8066 49.8319 15.5163C49.629 15.3772 49.4148 15.2551 49.1924 15.1514L49 15.0626L48.72 14.9646C48.5361 14.9112 48.3521 14.8668 48.1595 14.8313C47.6127 14.7583 47.0565 14.8224 46.5397 15.018C46.0744 15.1876 45.6524 15.4612 45.3051 15.8186C45.1525 15.9718 45.0175 16.1419 44.9023 16.3258C44.8021 16.4892 44.7114 16.6586 44.6309 16.8329C44.5287 17.0883 44.4526 17.3535 44.4034 17.6246C44.3443 18.0285 44.3065 18.4354 44.2897 18.8434C44.2037 19.7414 44.2899 20.6477 44.5437 21.5123C44.6137 21.7436 44.6838 22.0816 44.7801 22.3218C44.8764 22.562 45.0864 22.7398 45.1477 22.9355C45.6205 24.2433 45.8654 25.4798 46.1455 25.9958C46.4257 26.5117 46.9163 26.761 47.0826 27.0724C47.1155 27.3759 47.1831 27.6744 47.284 27.962C47.3365 28.0954 47.6339 28.2911 47.6602 28.3534C47.739 28.5669 47.5551 28.6915 47.6602 28.8427C47.7652 28.994 47.9142 28.9138 48.1681 29.1896C48.422 29.4654 48.2997 29.7056 48.4836 29.9102C48.6505 30.0946 48.8352 30.2616 49.035 30.4084C49.2103 30.5148 49.3799 30.6305 49.5429 30.7553C49.648 30.8976 49.6041 31.1911 49.6917 31.3513C49.7793 31.5114 50.007 31.5292 50.0333 31.5826C50.1734 31.8228 50.2346 32.2053 50.4009 32.4722C50.7774 33.0149 51.2764 33.3619 51.6091 33.8601L51.5565 33.7089C52.073 34.474 52.537 35.2301 52.3794 35.6393C52.3006 35.8706 52.0469 35.7461 51.8805 35.924C51.7142 36.1019 51.8806 36.2175 51.6792 36.2976C50.9525 36.6179 49.9278 36.1643 49.4288 36.1999C49.5338 36.8671 50.1558 37.2139 50.436 37.6765C50.7162 38.1391 50.6985 38.5039 50.8998 38.842C51.2178 39.2794 51.5597 39.6981 51.9241 40.0963C52.0292 40.2386 52.0206 40.4076 52.1169 40.5411C52.2133 40.6745 52.362 40.719 52.432 40.808C52.5021 40.897 52.5285 41.1461 52.6248 41.2617C52.8525 41.5286 52.8521 41.3596 53.1498 42.1513C53.4475 42.9431 53.4215 42.8184 52.975 43.1209C52.5284 43.4234 50.8472 43.3256 50.5758 43.8504C50.3044 44.3753 50.8824 44.6866 51.005 45.3449C51.005 45.3449 50.8385 45.5318 50.8998 45.6653C50.9724 45.7486 51.0159 45.8539 51.0238 45.9648C51.0317 46.0757 51.0034 46.186 50.9434 46.2791C50.7158 46.715 50.4706 46.3236 50.0679 46.8129C50.1905 47.7025 50.1206 48.4765 50.2432 49.2505C50.2432 49.4729 50.4884 49.6151 50.5497 49.8375C50.681 50.2734 50.6546 50.8072 50.7771 51.3587C51.0751 52.4577 51.3035 53.575 51.4603 54.7037C51.4603 54.7037 51.6528 54.855 51.6091 55.0152C51.5653 55.1753 51.4428 55.0151 51.4778 55.1663C51.5128 55.3176 51.6966 55.5401 51.7578 55.7803C51.9434 56.7918 52.0024 57.823 51.9331 58.8495C51.9331 58.9028 51.7142 59.0717 51.6616 59.1607C51.3655 59.4732 50.9732 59.6736 50.5497 59.7286C50.1262 59.7837 49.6966 59.69 49.3326 59.4632C48.8948 59.2408 48.7112 59.2319 48.6499 60.0592C48.6499 60.1838 48.8161 60.2994 48.7811 60.5129C48.716 60.8597 48.716 61.216 48.7811 61.5628C48.9037 62.1055 49.1577 62.4524 49.1577 62.6214C49.1577 63.511 48.6587 63.0928 49.1577 63.8134C49.5167 64.3738 49.4553 65.7706 49.6742 66.8382C49.788 67.4164 49.9891 68.0036 50.0679 68.6798C50.1117 68.9644 50.0679 69.3292 50.0679 69.5694C50.0679 69.8096 50.4008 69.6227 50.4621 69.7651C50.4328 70.0609 50.4328 70.3589 50.4621 70.6547C50.5979 71.2582 50.6394 71.8795 50.5848 72.496C50.5848 72.8341 50.3658 72.9854 50.3308 73.2078C50.1732 73.9461 50.2258 74.5689 49.4553 74.987C49.4553 74.987 49.1753 74.987 49.1577 75.0404C48.9126 75.3518 49.0002 75.1739 48.5186 75.2717C48.4223 75.2717 48.2206 75.4051 48.1681 75.4051C47.9171 75.3901 47.6697 75.3393 47.4328 75.2539C47.2139 75.2539 47.0562 75.1204 46.8723 75.3873C46.5652 76.0285 46.4265 76.7395 46.4696 77.4512V77.8072V78.0561C46.4696 78.2252 46.5136 78.3853 46.5311 78.5366C46.5311 78.839 46.6008 79.106 46.6184 79.3017C46.6884 80.138 46.4959 80.3159 46.741 80.8318C46.9162 81.1966 46.7409 81.241 46.8022 81.8993C46.8022 82.015 46.9599 82.1663 46.9775 82.3887C46.995 82.6111 47.1352 82.7712 47.1352 82.878C47.1352 82.9847 46.9424 83.3495 46.9599 83.5808C46.9774 83.8121 47.0912 83.9009 47.1087 84.0788C47.1262 84.2568 47.0563 84.417 47.0651 84.6572C47.1188 84.9515 47.1567 85.2484 47.1788 85.5468C47.1263 85.7692 46.9513 85.698 46.8988 85.867C46.8707 86.0282 46.8268 86.1862 46.7676 86.3385C46.6975 86.4631 46.5659 86.561 46.2858 86.4276C46.1117 86.3543 45.9448 86.2649 45.7869 86.1606C45.4417 85.8442 45.1168 85.5056 44.8147 85.1466C44.713 84.9854 44.6197 84.8191 44.5347 84.6483C44.3858 84.3992 44.1932 84.1946 44.0443 84.1857C43.7379 84.1857 43.7381 84.3013 43.8344 84.5326V84.6216H43.8956L44.0268 84.7193C44.0939 84.7831 44.1673 84.8399 44.2457 84.8885L44.4996 85.0842C44.5626 85.1402 44.6299 85.1907 44.701 85.2354C44.8751 85.3373 45.037 85.4596 45.1828 85.6001C45.2441 85.6534 45.3226 85.7426 45.3752 85.796C45.0651 85.484 44.7728 85.1542 44.4996 84.8084C44.4996 84.8084 44.6396 84.8083 44.4295 84.9596L44.2282 85.1642L43.7818 85.7158L43.5454 86.0006L43.4928 86.0716V86.1962C43.4883 86.5724 43.5951 86.9411 43.7994 87.2548C44.062 87.7174 43.7993 87.7353 44.1144 88.4381C44.1144 88.5004 44.3335 88.8918 44.3423 88.9096C44.3948 89.1231 44.2898 89.2387 44.3423 89.4789C44.3948 89.7191 44.6136 89.8792 44.6749 90.1194C44.7362 90.3596 44.7974 90.7243 44.8062 90.751C44.8937 91.2047 44.806 91.4805 44.8673 91.7385C44.9286 91.9965 45.1301 92.1299 45.2089 92.3612C45.2089 92.4235 45.2089 92.5036 45.2614 92.5925C45.314 92.6815 45.314 92.8682 45.2614 92.717L45.0601 92.3701C45.0601 92.3701 45.27 92.6816 44.8147 92.0144C44.1668 91.0536 44.018 90.7511 43.9392 90.6799C43.8604 90.6088 43.817 90.4663 43.8695 90.5464L44.0884 90.8934L43.8254 90.4929L43.7203 90.3418C43.6628 90.2451 43.6131 90.1441 43.5715 90.0394C43.5042 89.8983 43.4284 89.7614 43.3441 89.63C43.3418 89.6745 43.3418 89.7192 43.3441 89.7636V89.7636L43.2389 89.6033C43.3002 89.7012 43.3702 89.8169 43.4227 89.9148C43.4753 90.0126 43.2303 89.6301 43.2128 89.6479C43.1953 89.6656 43.2128 89.7546 43.2128 89.8435C43.2128 89.9325 43.2127 89.9771 43.0551 89.9326H42.9414C42.7575 89.8614 42.4073 89.559 42.3198 89.5857C42.2322 89.6124 42.2232 89.9593 42.0218 90.1906C42.0218 90.1906 41.8555 90.3152 41.6717 90.4754L41.2604 90.7955C41.0839 90.9219 40.9168 91.0616 40.7611 91.2136C40.1219 91.8096 39.6141 92.4502 39.1938 92.5747C39.1938 92.5747 39.0013 92.5748 38.7911 92.477C38.6139 92.4446 38.4425 92.3844 38.2833 92.2989C38.0556 92.0765 38.2833 91.9521 38.2833 91.7563C38.2833 91.5606 38.3359 91.7563 38.1871 91.6584C37.6968 91.4004 38.3533 91.1247 38.5197 90.6354C38.5809 90.4664 38.3536 90.0926 38.4149 89.8435C38.4149 89.7813 38.6336 89.55 38.6774 89.47C38.7902 89.248 38.9222 89.0367 39.0716 88.8384C39.3011 88.5739 39.5466 88.3243 39.8069 88.091L40.2797 87.7264L40.5071 87.5485L40.5597 87.4594C40.6156 87.3436 40.6653 87.2249 40.7085 87.1037C40.7434 86.8981 40.7583 86.6895 40.7525 86.481C40.7525 86.392 40.919 86.4009 40.8226 86.2052C40.8226 86.2052 40.6734 85.956 40.6734 85.9382C40.6734 85.9204 40.6734 85.9382 40.6734 85.8848C40.6734 85.8314 40.7963 85.8849 40.735 85.7782C40.6737 85.6714 40.411 85.2532 40.2797 85.0219C40.1921 84.8765 40.0956 84.7369 39.9907 84.6038C39.8681 84.3992 39.9906 84.6038 39.868 84.3814C39.7454 84.159 39.8244 84.3814 39.9907 84.6038C40.2971 85.0931 40.1045 84.835 39.9907 84.7639C39.8769 84.6927 39.9907 84.7639 39.9907 84.7639C39.9907 84.7639 40.0959 84.9774 40.0784 84.9952C40.0608 85.013 39.9206 84.8973 39.8855 84.9507C39.8485 85.0275 39.8191 85.108 39.7979 85.1909C39.7898 85.2526 39.7724 85.3129 39.7458 85.369C39.7458 85.369 39.7458 85.369 39.7458 85.369L39.6316 85.4311L39.4042 85.5647L38.9574 85.8138C38.7473 85.9294 38.4147 86.134 37.9857 86.4008C37.7801 86.5229 37.5811 86.6565 37.3902 86.8011C37.2063 86.9435 36.9788 87.1036 36.8212 87.2459C36.3019 87.6191 35.8712 88.1055 35.5605 88.6694C35.5605 88.8028 35.7793 88.9808 35.6917 89.1142C35.6042 89.2477 35.1402 89.55 34.8688 89.9148C34.5973 90.2795 34.6063 90.8577 34.4224 91.1691C34.2386 91.4804 33.8534 91.4894 33.7833 91.6495C33.7281 91.8201 33.6896 91.996 33.6692 92.1744C33.5919 92.31 33.522 92.4495 33.4593 92.5925C33.4593 92.6637 33.573 92.8417 33.5555 92.8951C33.5379 92.9485 33.3806 93.0196 33.3631 93.0997C33.2763 93.4482 33.1436 93.7832 32.9689 94.0959C32.8726 94.3183 32.5225 95.217 32.2336 95.8041C31.9447 96.3913 31.5155 96.8537 31.1653 96.5246C30.815 96.1954 30.7276 95.8841 30.7976 95.2703C30.7976 95.1279 30.8763 95.2169 30.8587 95.0568C30.8412 94.8967 30.9988 94.8521 30.8587 94.5407C30.4998 94.5407 30.5262 95.1547 30.3423 95.5461C30.2692 95.7556 30.1722 95.9556 30.0533 96.1421C29.9725 96.2597 29.8816 96.3699 29.7818 96.4714C29.5771 96.7164 29.3515 96.9426 29.1077 97.1475C28.9676 97.2631 28.81 97.4855 28.6524 97.5389C28.4948 97.5922 28.3113 97.4231 28.1625 97.4587C28.0136 97.4943 27.9698 97.6989 27.9436 97.6989C27.6546 97.6989 27.3482 97.5121 27.068 97.4943C27.0488 97.0268 27.0989 96.5589 27.2168 96.1065C26.9442 96.0921 26.6713 96.1284 26.4114 96.2133C26.2013 96.2756 26.1048 96.4623 25.8685 96.5157C25.6321 96.569 25.2731 96.4356 25.1767 96.5157C25.0804 96.5957 24.9052 96.8094 24.7826 96.8627C24.4586 97.0051 24.1435 97.0673 23.7583 97.2185C23.373 97.3697 22.8827 97.6633 22.6463 97.7078C22.4099 97.7523 22.1647 97.5478 21.9196 97.5745C21.9196 97.5745 21.4555 97.9836 21.2629 97.7345C21.0703 97.4854 21.368 97.1474 21.6832 96.8449C22.191 96.3467 22.9615 96.4891 23.2855 96.0087C23.338 95.8664 23.2154 95.9465 23.1016 96.0087C22.9878 96.071 22.8653 96.0086 22.734 96.0887C22.445 96.1687 22.1385 96.329 21.7708 96.4714C21.5957 96.5425 21.6133 96.4712 21.4557 96.5602C20.9556 96.7794 20.4369 96.9522 19.906 97.0762C19.5857 97.1614 19.2615 97.2296 18.9343 97.2808C18.8031 97.2881 18.6714 97.2881 18.5401 97.2808H18.3824C18.3386 97.2808 18.3035 97.2808 18.3298 97.2185C18.3261 97.1652 18.3261 97.1117 18.3298 97.0584C18.3977 96.8543 18.5016 96.6643 18.6363 96.4979C18.7852 96.2754 18.9431 96.1866 18.9693 95.9286C18.9693 95.3503 18.4002 95.6173 18.0938 95.2881C18.0413 95.2258 17.9623 94.8966 17.8835 94.7453C17.7171 94.4429 17.5244 94.3005 17.8134 93.8557C17.8747 93.7668 18.1199 93.58 18.1024 93.4822C18.0323 93.064 17.4718 92.5926 17.034 91.9966C16.8151 91.703 16.6053 91.4005 16.4039 91.1069C16.2025 90.8134 16.0362 90.5465 15.8349 90.4575C15.731 90.407 15.617 90.3807 15.5018 90.3807C15.3867 90.3807 15.2731 90.407 15.1692 90.4575L15.0294 90.5464C14.9857 90.5464 15.0294 90.5464 15.0294 90.5464C15.0294 90.5464 15.0732 90.493 15.0294 90.5464C14.9911 90.5956 14.9584 90.6495 14.9328 90.7067L14.8016 90.9912C14.8016 90.9912 14.8018 90.9912 14.758 91.0535C14.6704 91.3026 14.1799 91.5517 13.6721 91.9431C13.0155 91.8275 13.9438 91.7651 13.042 91.6139C12.6742 91.5516 12.6564 91.4094 12.2361 91.8098C12.1398 92.1033 12.9804 91.961 13.1818 92.0411C12.9541 92.4859 12.0876 92.379 11.4747 92.5302C11.037 92.6459 10.0213 93.1975 9.48725 93.0373C8.95317 92.8772 9.48699 92.8504 8.78656 92.9394C8.5239 92.9394 8.34907 93.0285 7.97259 93.0462C6.83326 92.9659 5.70875 92.7357 4.62778 92.3612C4.33154 92.342 4.0381 92.2914 3.75224 92.2101C3.55087 92.1211 3.341 91.8008 3.13962 91.7029C2.88302 91.6696 2.63684 91.579 2.41885 91.4375C2.20085 91.296 2.01651 91.1071 1.87891 90.8845C1.87891 90.5465 2.42143 90.6799 2.43894 90.6621C2.45645 90.6443 2.34296 90.2084 2.55308 90.1995C2.90286 90.2605 3.23828 90.3871 3.54234 90.5731C3.96914 90.8021 4.41065 91.0012 4.86419 91.1691C5.0568 91.2313 5.17052 91.1691 5.41567 91.2314C5.95713 91.4116 6.5101 91.5542 7.07055 91.6584L6.79908 92.1477C7.37693 92.6815 7.18466 91.7562 7.58741 91.6406C7.36852 91.7206 8.76054 91.6406 8.81307 91.6406C9.00568 91.6406 10.1001 91.9698 10.3453 91.7474C10.818 91.3293 10.4503 91.8185 11.2208 91.6673C11.4477 91.5818 11.6696 91.4839 11.886 91.3739C12.2992 91.2679 12.7032 91.1279 13.0941 90.9556C13.2098 90.9266 13.324 90.8911 13.4357 90.8489C13.7071 90.3774 13.4884 90.8489 14.0487 90.6176C14.1188 90.6176 14.1448 90.3774 14.2061 90.3507C14.4162 90.2617 14.6966 90.244 14.8366 90.155C14.9767 90.066 15.2743 89.6302 15.572 89.5234C15.8696 89.4166 15.9574 89.6034 16.185 89.7013C16.3857 89.7181 16.5817 89.7723 16.763 89.8614C16.9293 89.9681 16.9117 90.1906 16.8767 90.155C16.9993 90.2795 17.0955 90.1551 17.1918 90.2262C17.6646 90.671 17.9974 91.5696 18.4089 92.0055C18.6453 92.2635 19.0217 92.3879 19.2318 92.5925C19.442 92.7971 19.2843 92.9395 19.3456 93.0284C19.5817 93.243 19.8399 93.4311 20.1159 93.589C20.2735 93.7225 20.2999 93.9714 20.4575 94.087C20.6151 94.2027 20.7115 94.0071 20.729 94.0249C20.7465 94.0427 20.8342 94.3005 21.0881 94.3005C21.2959 94.3398 21.5069 94.3577 21.7182 94.354C21.7674 94.3448 21.8178 94.3448 21.867 94.354H21.9722L22.1825 94.2738C22.3565 94.2148 22.5262 94.1435 22.6904 94.0603C23.1456 93.8379 23.3555 93.6689 23.4868 93.6333C23.6181 93.5977 23.5305 93.9092 23.6531 93.9448C23.9595 94.007 24.774 93.4199 25.1592 93.0552C25.2118 93.0107 25.2818 93.055 25.343 92.9483L25.6756 92.5925C25.8171 92.4382 25.9489 92.2747 26.0698 92.1032C26.1223 92.0231 26.1312 92.1033 26.175 91.9877C26.2245 91.8895 26.2682 91.7884 26.3062 91.6851C26.3062 91.6139 26.4461 91.5963 26.5512 91.5696C26.6614 91.5518 26.7736 91.5518 26.8838 91.5696C27.2778 91.6585 27.5232 92.0144 27.8735 92.219C27.6371 92.726 26.9277 92.557 26.8402 93.2687C27.0065 93.0996 27.4268 93.0552 27.7157 92.8951C27.8147 92.8573 27.9175 92.8304 28.0222 92.8149C28.0923 92.8149 28.1097 92.7261 28.1535 92.6727C28.2323 92.5689 28.2918 92.4512 28.3288 92.3256C28.3288 92.2722 28.3726 92.0765 28.3813 92.0498C28.3901 92.0231 28.4513 92.0499 28.4775 91.9253C28.5038 91.8008 28.4775 91.4094 28.4775 91.4894C28.4775 91.5695 28.4775 91.7475 28.4775 91.7742C28.4775 91.8008 28.5564 91.952 28.5652 91.9075C28.6925 92.4784 28.6711 93.0732 28.5036 93.6333C28.6087 94.1404 28.7751 93.5623 28.8277 93.3221C28.8378 93.2245 28.8378 93.126 28.8277 93.0284C28.8218 92.9693 28.8218 92.9097 28.8277 92.8506C28.8277 92.7527 28.9328 92.7794 28.9328 92.646C28.919 92.5497 28.8982 92.4545 28.8713 92.3612C28.8441 92.1679 28.8003 91.9774 28.74 91.792C28.6437 91.5251 28.4074 91.1157 28.3899 91.1869C28.2323 91.3381 29.0814 91.3382 29.0551 91.3293C29.2214 91.4628 29.1167 91.614 29.2043 91.9431C29.3969 92.6103 29.3531 92.2366 29.3881 92.5124C29.3881 92.5124 29.4931 92.7437 29.5018 92.7793C29.5106 92.8149 29.5018 92.9929 29.5018 93.1175C29.536 93.4368 29.536 93.7588 29.5018 94.0781C29.4493 94.3361 29.2656 94.4163 29.1868 94.6654C29.1868 94.7722 29.1867 94.9857 29.1166 95.128C29.0466 95.2704 28.8979 95.3502 29.0029 95.6082C29.108 95.8662 29.2828 95.6082 29.3616 95.3858C29.4404 95.1634 29.4232 95.2257 29.4582 95.1634C29.5156 95.0453 29.5652 94.9235 29.607 94.7988C29.6314 94.7379 29.6517 94.6755 29.6681 94.612C29.6555 94.5126 29.6352 94.4144 29.607 94.3183C29.607 94.2294 29.7819 94.3185 29.7994 94.2206C29.8169 94.1227 29.7207 93.9537 29.7207 93.9359C29.7207 93.9181 29.8347 93.8113 29.8609 93.6778C29.8872 93.5444 29.8609 93.4377 29.8609 93.3043C29.8756 93.2279 29.8756 93.1493 29.8609 93.073C29.917 92.9219 29.9635 92.7674 30.0007 92.6103C30.0007 92.4502 29.9134 92.2188 29.9571 92.0854C30.0622 91.7029 30.3948 91.4984 30.5261 91.1337C30.6575 90.7689 30.7453 90.2439 30.9904 89.63C31.0429 89.5144 31.0777 89.1676 31.1127 89.1053C31.2528 88.8473 31.4454 88.874 31.568 88.6249C31.6905 88.3758 31.8747 87.9043 32.0498 87.4951C32.2596 87.0418 32.5574 86.6363 32.9253 86.3029C33.0312 86.2169 33.1453 86.1423 33.2665 86.0805L33.8184 85.7782L34.3173 85.5379L34.5712 85.4222C34.8952 85.5022 34.2295 86.7477 33.8705 87.6818C33.2226 89.1764 32.6186 90.3508 32.1896 91.5963C32.0933 91.881 32.0845 92.1566 32.0057 92.3879C31.9269 92.6192 31.6994 92.9396 31.6381 93.1531C31.5768 93.3666 31.647 94.3806 31.1392 94.7631Z" fill="white" stroke="white" stroke-width="3.10104" stroke-linecap="round" stroke-linejoin="round"/>
</svg>
