<svg width="48" height="70" viewBox="0 0 48 70" fill="none" xmlns="http://www.w3.org/2000/svg">
<path fill-rule="evenodd" clip-rule="evenodd" d="M20.1947 59.0524C20.2838 59.0524 20.3101 58.6756 20.2834 58.6581C20.2567 58.6405 19.8117 58.8333 19.7137 58.7982C19.6158 58.7632 19.7135 58.5702 19.4998 58.4563C19.286 58.3423 18.7963 58.4563 18.4935 58.4563C18.351 58.4563 18.342 58.2724 18.146 58.2286C18.0772 58.2044 18.0055 58.1896 17.9325 58.1847C17.9325 58.1847 17.6918 58.3074 17.6829 58.3074C17.674 58.3074 17.6206 58.1145 17.5137 58.0882C17.4068 58.0619 17.1485 58.1672 17.0149 58.1409C16.9559 58.132 16.8961 58.132 16.8371 58.1409C16.8371 58.1409 16.9261 57.9919 16.8371 57.9744C16.748 57.9569 16.3023 57.9743 16.0173 57.8779C15.7323 57.7815 15.5186 57.7113 15.198 57.6237C15.109 57.6237 14.8956 57.7026 14.8867 57.6939C14.8777 57.6851 14.8865 57.4308 14.7618 57.387C14.5036 57.2818 13.8712 57.3872 13.8712 56.9139C13.8712 56.8087 14.2006 56.4141 14.1917 56.2827C14.1828 56.1512 14.085 56.2127 14.0939 56.1951C14.613 55.8358 15.1753 55.5414 15.7681 55.3187C16.0353 55.231 16.3114 55.2572 16.6588 55.1871C16.7238 55.1781 16.7899 55.1781 16.8549 55.1871H17.0506C17.1931 55.1871 17.416 54.9155 17.5407 54.8892C17.6654 54.8629 17.8253 55.0206 18.0212 54.9855C18.2172 54.9504 18.431 54.8365 18.6092 54.8015C18.7873 54.7664 18.743 54.8716 18.8588 54.8541C18.9746 54.8366 19.0102 54.6788 19.0636 54.6701C19.117 54.6613 19.1078 54.7751 19.1523 54.7664C19.5262 54.7208 19.8959 54.6446 20.2569 54.5385C20.3281 54.0915 19.8204 54.1879 19.5176 54.1441C19.01 54.0828 18.6272 54.0215 17.9682 53.9689C17.79 53.9689 17.6028 53.9688 17.3267 53.925C17.0506 53.8812 16.73 53.9251 16.4361 53.8463C16.3916 53.8463 16.2578 53.9076 16.24 53.8463C16.2222 53.7849 16.2403 53.776 15.9286 53.7585C15.6169 53.741 15.7506 53.3378 16.2226 52.882C16.6946 52.4263 17.5314 52.8119 17.7986 52.4438C18.2528 51.8128 16.9082 52.0933 16.7479 52.067C16.4184 52.0144 16.3114 51.7952 16.1956 51.7865C16.0798 51.7777 15.9907 51.874 15.9016 51.8915C15.3662 51.9095 14.8304 51.8862 14.2987 51.8216C13.5362 51.7791 12.7879 51.6009 12.09 51.2956C12.1523 51.0677 12.4906 50.7961 12.6331 50.4981C12.9627 49.8057 13.524 49.9372 14.183 49.4376C14.2632 49.3149 14.1294 49.1921 14.0226 49.1395C13.9157 49.0869 13.7555 49.2272 13.6664 49.2097C13.4514 49.1375 13.2309 49.0817 13.0071 49.043C12.9181 49.043 12.7668 49.1307 12.651 49.122C12.5352 49.1132 12.446 49.043 12.3213 49.0342C12.1967 49.0255 11.8585 49.1044 11.6982 49.0781C11.5379 49.0518 11.3416 48.8416 11.1189 48.8065C10.8963 48.7715 10.6027 48.7627 10.3622 48.7451C10.1218 48.7276 9.69399 48.8064 9.61383 48.6925C9.4268 48.4383 9.80989 48.4471 9.73864 48.2718C9.66739 48.0965 9.5694 48.2719 9.49815 48.3595C9.4269 48.4472 9.36482 48.5698 9.09764 48.4734C8.71141 48.1694 8.41834 47.7657 8.25137 47.3076C8.21322 47.1432 8.21322 46.9726 8.25137 46.8082C8.38497 46.3962 9.05276 46.0718 9.18635 45.6248C9.2193 45.4285 9.19151 45.227 9.10633 45.0464C9.0529 44.8449 9.10632 44.4329 8.64319 44.3452C8.40273 44.3014 8.43846 44.4503 8.30486 44.2575C7.93372 44.1144 7.55254 43.9973 7.16463 43.907C6.92416 43.8193 6.81736 43.6966 6.56798 43.6177C6.49673 43.6177 6.18504 43.6177 6.14051 43.6177C6.09597 43.6177 6.0071 43.4687 5.89132 43.4249C5.77554 43.3811 5.51709 43.2846 5.26772 43.1707L5.16987 43.0832C5.16987 43.0832 5.16961 43.0042 5.12508 42.9603C5.08055 42.9165 5.06308 42.7938 5.03636 42.7061C5.00965 42.6185 4.90258 42.3469 4.84024 42.1628C4.84024 42.1628 4.58191 42.0926 4.56409 42.0575C4.49284 41.8822 4.56397 41.6018 4.43928 41.4616C4.3146 41.3214 4.4396 41.0934 4.31491 40.7341C4.31491 40.6376 4.06549 40.5414 4.03877 40.4801C3.92953 39.8598 3.86112 39.2332 3.83394 38.6043C3.83394 38.4553 3.61125 38.3326 3.57563 38.1661C3.35297 37.2896 3.57547 36.0713 4.52843 36.2028C4.85782 36.2199 5.18248 36.2879 5.49037 36.4043C5.78428 36.5533 6.07825 37.0179 6.45231 36.6498C6.61915 36.432 6.72495 36.1749 6.75933 35.9043C6.79371 35.6336 6.75566 35.3587 6.64844 35.1072C6.64844 34.9932 6.44332 34.9406 6.36316 34.8091C6.36316 34.8091 6.57682 34.7654 6.49667 34.7479C6.41651 34.7304 6.185 34.52 6.10485 34.4674C6.02469 34.4148 6.10485 34.4674 6.10485 34.4674H6.22052C6.52333 34.371 6.70168 34.3359 6.89762 34.257C7.13819 34.1728 7.36364 34.0516 7.56558 33.8978L7.62777 33.8451C7.59158 33.9468 7.57074 34.0529 7.56558 34.1605C7.56558 34.2482 7.56558 34.2833 7.56558 34.4323C7.54842 34.572 7.54842 34.7132 7.56558 34.853C7.56558 35.0107 7.6189 35.23 7.66343 35.414C7.70796 35.5981 7.77046 35.7645 7.8239 35.9924C7.8239 36.0713 7.8239 36.0802 7.8239 36.0714C7.8239 36.0714 7.8239 36.0712 7.8239 36.1238C7.80332 36.171 7.77649 36.2153 7.74388 36.2554C7.66831 36.3669 7.56769 36.4599 7.44991 36.5272L5.60605 37.4036L4.12792 36.4745C3.87273 36.3104 3.63388 36.1224 3.41516 35.9135C3.22887 35.7333 3.06716 35.53 2.93419 35.3088C2.77365 35.0348 2.65378 34.7396 2.57803 34.4323C2.55653 34.1528 2.58065 33.8717 2.64935 33.5997C2.72679 33.3393 2.72679 33.0626 2.64935 32.8022C2.64935 32.6532 2.41784 32.5129 2.48019 32.3639C2.48019 32.3639 2.62255 32.1885 2.78286 32.0132C2.89364 31.8765 3.02589 31.7583 3.17468 31.6627C3.98514 31.391 5.65976 31.9519 5.0007 31.1367C4.92055 31.0316 4.67991 30.9789 4.59975 30.865C4.5196 30.751 4.59965 30.5495 4.49277 30.4531C4.3859 30.3567 4.12767 30.199 4.10095 30.164C3.96736 29.9361 4.02974 29.6205 3.91396 29.3926C3.91396 29.3926 3.67367 29.305 3.64695 29.27C3.62023 29.2349 3.64667 28.9719 3.58433 28.7615C3.52198 28.5512 3.41511 28.525 3.36167 28.3847C3.30823 28.2445 3.36193 28.113 3.40646 28.1393C3.27287 27.815 2.90763 27.7011 3.09466 27.4907C3.27915 27.4478 3.47115 27.4478 3.65565 27.4907C4.08314 27.1489 3.35283 27.6573 3.65565 27.333C3.74471 27.2453 3.90533 27.2364 3.97658 27.14C4.19033 27.14 4.25231 27.2978 4.49277 27.403C4.73324 27.5081 5.00933 27.5344 5.16074 27.6133C5.49027 27.8061 5.57058 28.113 5.76651 28.1217C6.8976 28.2094 5.98014 27.2452 5.86436 26.9472C5.65793 26.4636 5.48841 25.9656 5.35687 25.4572C5.2678 25.168 5.02713 24.8262 4.92025 24.4143C4.90638 24.3223 4.88569 24.2314 4.85807 24.1425C4.78456 23.8141 4.74269 23.4796 4.73326 23.1434C4.71985 22.9918 4.71985 22.8393 4.73326 22.6877C4.73326 22.6877 4.52875 22.5824 4.62671 22.5648C5.00968 22.5122 4.68906 22.4071 4.62671 22.188C4.56437 21.9689 4.74237 21.8813 4.72456 21.557C4.72456 21.5044 4.52843 21.3203 4.52843 21.2852C4.52843 21.0749 4.63545 20.8645 4.67107 20.6103C4.7067 20.3561 4.82246 20.1545 4.8759 19.9091C4.9617 19.4972 5.08074 19.0929 5.23206 18.6997C5.34459 18.4285 5.49141 18.1723 5.66867 17.937C5.71851 17.8643 5.77173 17.7941 5.8287 17.7267L6.08702 17.4639L6.37229 17.2009C6.49504 17.0908 6.62913 16.9937 6.77281 16.9116C6.95062 16.8266 7.13542 16.7562 7.3251 16.7013L7.76171 16.5699L8.40271 16.412C8.90121 16.291 9.41974 16.2733 9.92563 16.3596C10.2296 16.4013 10.5281 16.4748 10.8163 16.5787C10.9435 16.618 11.066 16.6708 11.1815 16.7364C11.2855 16.7896 11.3864 16.8481 11.4842 16.9116C12.0893 17.2707 12.5894 17.778 12.9358 18.384L6.56798 19.2605C6.64597 19.1596 6.73912 19.0711 6.84413 18.9977C7.04418 18.8518 7.28172 18.7637 7.52992 18.7435C8.14775 18.7643 8.74177 18.9827 9.22201 19.3658C9.27545 19.4359 9.33796 19.6374 9.40031 19.6812C9.46265 19.725 9.88122 19.8302 10.0504 19.9266C10.2197 20.0231 10.273 20.1984 10.3888 20.2072C10.9855 20.2685 10.941 19.6111 10.9054 19.243C10.8698 18.8748 11.0834 18.5157 10.7449 18.0949C10.714 17.7567 10.714 17.4163 10.7449 17.0781C10.7449 16.9729 10.6292 16.8152 10.5936 16.6837C10.558 16.5523 10.7095 16.5435 10.6827 16.4646C10.656 16.3857 10.4599 16.3157 10.451 16.2894C10.4421 16.2631 10.6293 16.0089 10.6293 15.8511C10.6293 15.6934 10.4779 15.5707 10.4958 15.4568C10.5136 15.3428 10.7004 15.2989 10.7806 15.1411C10.8607 14.9834 10.7809 14.5188 10.861 14.2647C10.9978 13.9976 11.1617 13.7452 11.3507 13.511C11.6001 13.064 11.6534 12.3365 12.1165 12.1875C12.2768 12.135 12.4464 12.3277 12.6601 12.354C12.8739 12.3803 13.0785 12.2575 13.3903 12.4415C13.6477 12.6416 13.9152 12.8289 14.1917 13.0026C14.1917 13.0026 14.3519 13.0027 14.4766 13.064C14.6013 13.1254 15.0201 13.5811 15.2072 13.7389C15.3942 13.8967 15.483 13.958 15.6433 14.107C15.768 14.2538 15.9276 14.3681 16.1078 14.4399C16.2879 14.5118 16.4833 14.5389 16.6766 14.5189C16.8872 14.5321 17.0983 14.5321 17.3089 14.5189C17.4692 14.4663 17.5493 14.1507 17.7007 14.0455C17.8521 13.9404 18.0482 13.9404 18.1017 13.8791C18.3647 13.6124 18.5974 13.3185 18.7962 13.0026C18.8674 12.8974 18.7962 12.7483 18.8675 12.6694C18.9387 12.5905 19.1614 12.2839 19.3128 12.1261C19.4572 11.9716 19.5827 11.8009 19.6868 11.6177C19.809 11.4575 19.8999 11.2763 19.9542 11.0832C20.0352 10.8633 20.0829 10.633 20.0964 10.3995C20.0964 10.233 20.257 10.2592 20.3817 10.0663C20.5064 9.87351 20.5241 9.46165 20.72 9.26882C20.916 9.076 21.0672 9.10238 21.1919 8.91832C21.1919 8.91832 21.1921 8.75162 21.2545 8.74285C21.3168 8.73409 21.3788 8.82184 21.361 8.84813C21.4946 8.6816 21.4679 8.4449 21.5837 8.34849C21.8158 8.18509 22.0672 8.04976 22.3321 7.94534C22.5346 7.8498 22.7579 7.80474 22.9822 7.81396C23.0215 7.90126 23.066 7.98596 23.1157 8.06795C23.1157 8.06795 23.2403 8.26965 23.2136 8.18201C23.267 8.3836 23.1334 8.54135 23.2136 8.61147C23.6144 9.33018 24.6654 8.66412 25.0661 8.23465C25.5628 7.94323 26.1045 7.7331 26.6695 7.61239L28.9048 6.79711L29.1274 5.85944C29.1318 5.82745 29.1318 5.79493 29.1274 5.76294C29.1274 5.41235 28.9672 4.96543 29.1809 4.96543C29.3329 5.0457 29.4689 5.15251 29.5819 5.28084L29.7867 5.49995L29.8397 5.57014V5.49995C29.7366 5.39503 29.6578 5.26955 29.6084 5.1319L29.564 5.0354C29.564 5.0354 29.564 4.91282 29.564 4.94788C29.564 4.94788 29.564 5.05295 29.564 5.06172C29.5465 5.15572 29.5165 5.24712 29.4749 5.33347C29.4465 5.40416 29.4106 5.47171 29.3679 5.53505C29.3271 5.59847 29.2792 5.65722 29.2253 5.7103C29.1385 5.81592 29.0332 5.90508 28.9139 5.97328C28.7269 6.07846 28.9138 5.97335 28.8604 6.04347C28.807 6.11359 28.807 6.20109 28.8604 6.33256L30.4012 10.1277L31.0691 10.4695L31.3983 10.6186C31.7278 10.7589 32.111 10.7589 32.4672 10.8992C33.251 11.2147 33.7945 11.8982 34.4803 12.0647C34.6228 12.0647 34.8629 11.9858 34.9965 12.0647C35.2904 12.2488 35.335 12.7045 35.8249 12.9412C36.4572 13.2392 37.4546 13.5548 38.1493 13.9405C38.3096 14.0281 38.3807 14.1595 38.5054 14.2296C38.6301 14.2997 38.9866 14.3348 39.1647 14.4575C39.3428 14.5802 39.2183 14.7205 39.3073 14.7731C39.5745 14.9309 39.9664 14.9395 40.198 15.1148C40.4295 15.2901 40.4292 15.4128 40.545 15.5355C40.8389 15.816 41.2842 16.0177 41.4356 16.3245C41.4356 16.3245 41.5428 16.4208 41.5339 16.4734L41.3199 16.6574C41.3199 16.6574 41.6138 16.6575 41.7117 16.7802C41.8958 17.0463 42.0286 17.3434 42.1036 17.6567C42.1481 17.7969 42.3886 18.1211 42.3441 18.4191C42.2906 18.91 41.8899 19.3569 40.8924 19.4972H40.4741C40.385 19.4972 40.4027 19.3746 40.3136 19.3658C40.0375 19.3658 39.7347 19.3658 39.61 19.3658C39.4853 19.3658 39.5388 19.2256 39.4052 19.1905C39.2716 19.1555 39.1471 19.2344 39.1203 19.1905C39.0936 19.1467 39.1203 19.1203 39.1203 19.1116C38.9295 19.1188 38.7391 19.1364 38.5502 19.1642C38.4255 19.1642 38.3722 19.094 38.2476 19.1028C37.7666 19.1028 37.0184 19.2694 37.0451 19.436C37.0451 19.436 37.223 19.4358 37.2052 19.4972C37.1874 19.5585 36.9647 19.7163 37.0003 19.7689C37.036 19.8215 37.2411 19.769 37.3213 19.8654C37.4014 19.9619 37.321 20.0669 37.517 20.1545C37.7129 20.2422 37.704 20.2071 37.704 20.3561C37.704 20.5051 37.9537 20.5228 38.0427 20.7068C38.0989 20.9151 38.1673 21.1199 38.2476 21.3203L38.6929 22.0391C38.8265 22.1618 38.8352 22.302 38.9777 22.4598C39.1202 22.6175 39.2182 22.5737 39.2539 22.635C39.2895 22.6964 39.2093 22.7489 39.2539 22.8278C39.3667 22.9858 39.4982 23.13 39.6457 23.2573C39.755 23.3775 39.8394 23.5174 39.8949 23.6692C39.9313 23.7454 39.9612 23.8246 39.984 23.9059C39.984 23.9059 39.984 23.9936 39.984 24.0199H40.1445C40.3877 24.0578 40.6245 24.1286 40.8481 24.2302C40.9817 24.2916 41.2308 24.4141 41.2664 24.5018C41.3021 24.5894 41.1688 24.6596 41.1421 24.7297C41.1153 24.7998 41.142 25.1153 41.0529 25.1855C40.9639 25.2556 40.162 25.1066 40.3045 25.4397C40.3758 25.6325 39.9662 25.6851 39.7613 25.8691C39.699 25.9217 39.7613 26.0093 39.7079 26.0444C39.6544 26.0795 39.3964 26.0006 39.343 26.0444C39.2896 26.0882 39.4321 26.2899 39.343 26.3337C39.2539 26.3775 39.0757 26.2811 39.0134 26.3337C38.8085 26.4739 38.6927 26.7457 38.4789 26.8597C38.2652 26.9736 38.1139 26.8595 37.9179 26.9472H37.8201L37.6418 27.0349L37.2765 27.2277C37.0318 27.4046 36.7319 27.4909 36.4289 27.4717C36.126 27.4524 35.8396 27.3288 35.6201 27.1224C35.433 26.9208 35.2194 26.2461 35.1126 26.1497C34.9018 26.0012 34.6623 25.8967 34.4089 25.8428C34.2119 25.7738 34.0036 25.7412 33.7945 25.7465C33.6626 25.7535 33.5328 25.7831 33.4113 25.834L33.1443 25.9393C32.9662 26.027 32.7434 26.1408 32.5207 26.2723L33.34 25.8604L33.1796 25.9481C33.1796 25.9481 33.1173 26.1234 33.0282 26.1584C32.9446 26.1872 32.8535 26.1872 32.7699 26.1584C32.663 26.2373 32.6898 26.4564 32.6007 26.5265C32.5117 26.5966 32.2893 26.6053 32.1824 26.693C32.0755 26.7806 32.0399 26.9824 31.9419 27.0876C31.8439 27.1927 31.737 27.14 31.6658 27.2014C31.5945 27.2627 31.5052 27.4994 31.4161 27.5958C31.1935 27.8412 30.8998 27.8413 30.7395 28.1656C30.7395 28.2182 30.7395 28.4547 30.7395 28.4722C30.7395 28.4898 30.4813 28.5337 30.3833 28.6126C30.2854 28.6915 30.2674 28.8755 30.205 28.9807C30.1427 29.0858 30.0271 28.9807 29.9915 29.0684C29.9867 29.1618 29.9867 29.2553 29.9915 29.3487C29.849 29.5065 29.5995 29.568 29.457 29.6994C29.1008 30.0325 28.7801 30.8739 28.219 30.6198C27.9251 30.2078 28.4417 30.4444 28.2903 30.1464C28.0765 30.0675 28.0763 30.2516 27.8715 30.1464C27.6667 30.0413 27.533 29.7343 27.3727 29.7518C27.2124 29.7694 27.0788 30.12 26.9452 30.2076C26.8116 30.2953 26.4022 30.3567 26.1172 30.532C25.8322 30.7073 25.8052 30.9177 25.6093 31.0317C24.8657 31.4824 24.0543 31.8136 23.2049 32.0132C23.0624 32.0132 22.9555 31.8994 22.7774 31.8994C22.5993 31.8994 22.323 32.0921 22.0825 32.0659C21.6995 32.022 21.3346 31.6978 20.9962 31.6539C20.3816 31.5751 19.7847 32.0221 19.1523 32.1097C18.992 32.1097 18.743 32.0396 18.6005 32.1097C18.2353 32.2412 17.968 32.5216 17.6029 32.6793C17.2377 32.8371 16.5517 32.8897 16.053 33.1263C15.6316 33.3864 15.191 33.615 14.7349 33.81C14.3786 33.8977 13.791 33.6435 13.3724 33.81C12.7267 34.137 12.1277 34.5466 11.5912 35.0282C11.5912 35.0282 11.6713 35.1599 11.5912 35.1949C11.1557 35.4216 10.7614 35.7177 10.4244 36.0714C10.0682 36.422 9.74751 36.79 9.48032 37.0529C9.35564 37.1756 9.22211 37.0529 9.10633 37.2106C8.93653 37.4003 8.74875 37.5735 8.54535 37.7278C8.39394 37.8418 8.41174 38.0609 8.30486 38.1573C7.98932 38.4135 7.70808 38.708 7.46774 39.0338C7.36977 39.1565 7.16494 39.1214 7.04026 39.2616C6.91557 39.4019 6.76392 39.7087 6.56798 39.9453C6.56798 39.9453 6.71048 40.1293 6.56798 40.1118C6.07814 39.9803 6.45234 40.9883 6.26531 41.2688C6.07828 41.5493 5.73985 41.4352 5.3747 41.5842C4.46752 42.1529 3.6688 42.8739 3.01464 43.7142C2.88105 43.8544 2.8009 44.3452 2.34668 44.0735C2.9162 43.4459 3.42596 42.7681 3.8696 42.0488C3.94085 41.9524 4.18104 41.9085 4.25229 41.8033C4.32354 41.6982 4.31477 41.3827 4.39493 41.2249C4.47508 41.0672 4.6888 41.1285 4.80458 40.9795C4.92036 40.8305 4.80449 40.7429 4.93808 40.6202C5.07168 40.4975 5.29457 40.4448 5.41035 40.3134C5.82895 39.77 6.09594 38.9901 6.55015 38.4992C6.6125 38.4291 6.7105 38.2625 6.80847 38.2362C6.90644 38.21 7.04013 38.3765 7.1381 38.2889C7.23607 38.2012 7.0492 38.0258 7.07592 37.9645C7.10263 37.9031 7.28945 37.9645 7.30727 37.9645C7.77039 37.2195 8.75896 36.6322 9.51598 35.7031C9.67961 35.3951 9.87046 35.1019 10.0861 34.8267C10.8253 34.1868 11.7604 33.9504 12.2413 33.4683C12.3393 33.3631 12.5085 32.8896 12.651 32.8283C12.7935 32.7669 12.8556 32.995 12.9002 32.9862C13.1763 32.9862 13.2121 32.7669 13.5594 32.8546C13.9068 32.9422 14.0848 33.0913 14.3787 32.9599C14.6726 32.8284 14.8419 32.6092 15.1358 32.469C15.4297 32.3288 15.6523 32.4077 15.8838 32.3201C16.4983 32.1097 16.9348 31.6276 17.5137 31.3734C17.7097 31.2945 18.0125 31.3733 18.253 31.2857C18.4935 31.198 18.8853 30.9002 19.2771 30.7687C19.4285 30.7073 19.7493 30.7687 19.9186 30.7687C20.4351 30.6548 20.3995 30.3742 20.8092 30.6634C20.8092 30.6634 20.996 30.8738 21.0049 30.8738C21.0138 30.8738 21.2812 30.6371 21.4237 30.6897C21.5662 30.7423 21.6107 30.9878 21.682 31.0229C21.8973 31.0895 22.1175 31.1393 22.3408 31.1718C22.5011 31.1718 22.6618 30.9965 22.9022 30.9352C23.1427 30.8738 23.5167 31.0229 23.962 30.7862C24.0154 30.7862 23.9617 30.5934 24.0685 30.5934C24.376 30.5778 24.678 30.5065 24.9592 30.3831C25.0928 30.2954 25.1822 30.0413 25.3158 29.9449C25.4494 29.8484 25.8322 29.787 26.0816 29.638C26.803 29.2261 26.9722 28.3233 27.6936 28.7615C27.8183 28.8317 27.7736 28.7003 27.8893 28.8317C28.0051 28.9632 27.9519 28.9807 28.0676 29.0596C28.1834 29.1385 28.4416 29.1735 28.6286 28.9894C28.6286 28.9894 28.6287 28.7966 28.7178 28.8054C28.8068 28.8142 28.7891 28.9718 28.8426 28.9017C28.896 28.8316 28.9938 28.4723 29.1274 28.3584C29.3946 28.1217 29.751 28.1217 29.938 27.8938C30.125 27.666 30.0446 27.4555 30.1337 27.3679C30.2228 27.2802 30.5433 27.1576 30.7125 26.991C30.8847 26.7919 31.0427 26.581 31.1848 26.36C31.265 26.2636 31.3719 26.2197 31.4788 26.0883C31.5856 25.9568 31.5856 25.7728 31.6479 25.729C31.8706 25.5449 32.1822 25.5624 32.3959 25.4134C32.6186 25.7815 32.3159 25.7377 32.5386 26.097C32.8146 25.913 32.3246 25.3609 32.3603 25.133L32.8147 24.9839L31.8615 25.4572C32.2579 25.2331 32.6687 25.0341 33.0908 24.8613C33.2747 24.7893 33.4655 24.7365 33.6605 24.7036C34.0079 24.651 34.1417 24.8087 34.5959 25.0541C34.9572 25.2523 35.2632 25.5353 35.4866 25.8779C35.5934 26.0181 35.8604 26.4215 35.9049 26.4477C35.9494 26.474 36.2881 26.3161 36.6177 26.2986C36.7691 26.2986 36.9828 26.4302 37.0808 26.4039C37.2054 26.382 37.3235 26.334 37.4278 26.2635C37.4905 26.2212 37.5477 26.1711 37.5974 26.1146C37.6894 25.9905 37.7905 25.8734 37.9001 25.7641C38.007 25.6677 38.1939 25.685 38.2741 25.6062C38.3542 25.5273 38.2741 25.317 38.2741 25.2907C38.2741 25.2645 38.5771 25.4221 38.675 25.4134C38.773 25.4046 38.9242 25.3344 38.8707 25.1679C38.8173 25.0014 38.7105 24.949 38.7372 24.9227C38.7639 24.8964 39.1204 25.0804 39.1382 25.0365C39.156 24.9927 38.9066 24.5982 38.9334 24.5106C38.9601 24.4229 39.245 24.3967 39.4943 24.3529C39.7437 24.309 39.9664 24.1863 39.5657 23.9146C39.3786 23.7481 39.3251 23.862 38.7907 23.6604C38.5146 23.5114 38.6035 23.5728 38.6481 23.4852C38.6926 23.3975 38.5145 23.231 38.2563 23.0645C37.998 22.8979 38.3542 23.0644 38.4076 22.9943C38.3303 22.9035 38.2405 22.8238 38.1406 22.7576C38.0461 22.7189 37.9539 22.6751 37.8644 22.6262C37.8021 22.5737 37.9446 22.5299 37.8644 22.4685C37.7284 22.4074 37.5884 22.3545 37.4457 22.3106C37.4457 22.3106 37.6152 22.2669 37.5796 22.2231C37.544 22.1793 37.3747 22.223 37.3034 22.1441C37.2322 22.0653 37.348 21.8988 37.3034 21.82C37.2215 21.7236 37.1217 21.6433 37.0095 21.5833C36.8522 21.4848 36.7256 21.3452 36.6442 21.1801C36.5462 21.0311 36.4929 20.812 36.3415 20.698C36.1901 20.5841 36.1188 20.6979 36.0297 20.5928C35.9406 20.4876 35.9409 20.2861 35.7984 20.2159C35.6559 20.1458 35.5842 20.1371 35.6109 20.0407C35.6376 19.9443 35.6109 20.0407 35.6109 20.0407C35.6109 20.0407 35.8249 19.9354 35.8605 19.9091C35.9609 19.8079 36.0785 19.7251 36.208 19.6639L36.4485 19.5059C36.9358 19.2451 37.4416 19.0195 37.9623 18.831C38.0424 18.831 37.9625 18.9539 38.0071 18.9451C38.0516 18.9363 38.4969 18.7962 38.6929 18.7786C38.8888 18.7611 38.7817 18.8312 38.8707 18.7786H39.156C39.5033 18.7786 39.7438 18.8749 40.0466 18.9012L41.0973 18.9802C41.3377 18.7173 41.0173 18.5595 41.0351 18.3141C41.0351 18.2089 41.2218 18.0073 41.1773 17.9109C41.1328 17.8145 40.8656 17.7794 40.7676 17.6743C40.6697 17.5691 40.7231 17.1922 40.5806 17.0081C40.455 16.8074 40.2917 16.6319 40.0997 16.4909C39.9839 16.4033 39.7345 16.4297 39.6544 16.3508C39.5742 16.2719 39.6545 16.0702 39.5744 16.0088C39.4849 15.9523 39.385 15.9136 39.2804 15.895C39.1913 15.895 38.9955 15.9564 38.9242 15.895C38.853 15.8336 38.835 15.5795 38.7281 15.4743C38.6212 15.3691 38.4255 15.4743 38.2741 15.4743C37.9089 15.3516 37.8644 14.8519 37.3835 14.9045C37.2766 14.9045 37.152 15.0185 37.063 15.001C36.9739 14.9835 36.7688 14.7206 36.5729 14.6154C36.3769 14.5102 36.2522 14.6154 36.0919 14.6154C35.9316 14.6154 36.092 14.4401 36.0119 14.3963C35.9317 14.3524 35.6202 14.4489 35.5222 14.3963C35.4242 14.3437 35.5221 14.1859 35.4331 14.1684C35.344 14.1508 35.1125 14.256 35.0056 14.1684C34.8987 14.0807 34.9163 13.9492 34.7916 13.8703C34.6669 13.7914 34.4978 13.8702 34.4176 13.8001C34.3375 13.73 34.0969 13.4322 33.901 13.3095C33.7051 13.1867 33.5804 13.3093 33.4557 13.2042C33.331 13.099 33.2777 12.9326 33.153 12.8712C32.6988 12.6258 32.0666 12.6083 31.7371 12.2139C31.6646 12.1285 31.5989 12.0376 31.541 11.9421C31.4163 11.8808 31.2292 12.0208 31.0778 12.0033C30.8058 11.9507 30.5536 11.8266 30.3477 11.644L17.4959 1.80127L27.4975 6.30624H27.5954C27.6933 6.30624 27.8807 6.30624 27.952 6.30624C28.0456 6.3038 28.1385 6.28923 28.2281 6.26259C28.4838 6.22466 28.7238 6.11849 28.9226 5.95574C29.0779 5.83197 29.208 5.68027 29.3057 5.50873C29.3318 5.46446 29.3526 5.41749 29.3679 5.36857C29.3889 5.32906 29.4068 5.28792 29.4214 5.24574C29.4275 5.17283 29.4275 5.09954 29.4214 5.02662C29.4183 5.06162 29.4183 5.09691 29.4214 5.1319C29.4214 5.17573 29.4215 5.13184 29.4927 5.28961C29.6643 5.60325 29.8937 5.8826 30.1694 6.11344L30.3029 6.25381L30.232 6.1924L30.0981 6.07856L29.9289 5.93819C29.8665 5.93819 29.8312 5.93828 29.8045 6.03469C29.7778 6.13111 29.8045 6.27996 29.8045 6.32378L26.6247 8.59392C26.5179 8.72539 26.3396 8.65526 26.0903 8.79549C25.9923 8.83932 25.9301 9.06729 25.8411 9.10234C25.5472 9.26011 25.1376 9.21615 24.8705 9.40021C24.6033 9.58427 24.5763 9.79469 24.416 9.90863C24.2557 10.0226 24.1843 9.90869 24.0864 9.97004C23.9884 10.0314 23.8373 10.2855 23.7572 10.3205C23.6111 10.3577 23.4579 10.3577 23.3119 10.3205C23.3119 10.3205 22.8665 9.8035 22.8309 9.73338C22.6439 9.3302 22.8307 9.10219 22.6169 8.94443C22.5192 8.88073 22.4045 8.84685 22.2873 8.84685C22.1701 8.84685 22.0558 8.88073 21.9581 8.94443C21.8512 9.01454 21.9045 9.28629 21.7976 9.42653C21.6908 9.56676 21.5483 9.42666 21.4058 9.55813C21.2633 9.6896 21.3344 9.83852 21.2632 9.9174C21.1919 9.99629 20.8713 10.0137 20.7644 10.2855C20.7644 10.2855 20.8268 10.5572 20.8179 10.5748C20.809 10.5923 20.6754 10.6187 20.6309 10.68C20.5864 10.7414 20.6311 10.9429 20.5865 11.013C20.4618 11.3373 20.2745 11.4511 20.2478 11.7842C20.2478 11.9244 20.2478 12.1262 20.2478 12.17C20.2478 12.2138 20.0255 12.1698 19.9899 12.24C19.9543 12.3101 20.0611 12.5557 19.9899 12.6346C19.9186 12.7134 19.7759 12.6344 19.7224 12.7308C19.669 12.8273 19.7224 12.9588 19.6689 13.0552C19.6155 13.1517 19.4464 13.1253 19.3841 13.2129C19.3218 13.3006 19.4554 13.3795 19.3841 13.4408C19.3129 13.5022 19.0457 13.5548 18.921 13.6863C18.7963 13.8177 18.921 13.9228 18.921 14.0017C18.921 14.0806 18.4847 14.2296 18.36 14.4487C18.2353 14.6678 18.36 14.7293 18.36 14.7994C18.36 14.8695 18.075 14.9221 17.9325 15.0185C17.79 15.1149 17.5581 15.3252 17.6294 15.3164C17.0094 15.3146 16.3988 15.1674 15.8482 14.8869C15.5626 14.714 15.2971 14.5113 15.0558 14.2822C14.8688 14.1332 14.726 14.0893 14.5835 13.9754C14.2195 13.6854 13.8184 13.4439 13.3903 13.2568C12.8737 12.9851 12.9005 12.9062 12.571 13.0465C12.2414 13.1867 12.651 13.2216 12.4996 13.5371C12.4195 13.7124 12.1967 13.8264 12.1165 14.0543C12.0364 14.2822 12.1166 14.4751 12.0187 14.6066C11.9207 14.7381 11.6446 14.7467 11.609 14.8606C11.5399 15.1754 11.5399 15.5012 11.609 15.816C11.6324 15.9051 11.6324 15.9987 11.609 16.0878C11.609 16.3069 11.3328 16.342 11.2794 16.5348C11.2769 16.719 11.3038 16.9022 11.3594 17.0781C11.3761 17.2582 11.4059 17.437 11.4486 17.6128C11.5109 17.7356 11.8228 17.9284 11.8495 18.0949C11.9297 18.6296 11.4577 18.7785 11.6625 19.3482C11.6625 19.4622 11.6623 19.5236 11.7069 19.62C11.7514 19.7164 11.9387 19.769 11.9387 19.7865C11.9387 19.804 11.7247 19.8565 11.7247 19.953C11.7247 20.0494 11.9473 20.102 11.9295 20.1984C11.9216 20.399 11.8562 20.5934 11.7412 20.7592C11.6262 20.9251 11.4663 21.0558 11.2794 21.1363L6.15833 22.8892L8.60754 21.4605C8.95296 21.096 9.31865 20.7508 9.70298 20.4263C9.81755 20.3448 9.93997 20.2744 10.0683 20.2159C10.1972 20.1478 10.3309 20.0892 10.4688 20.0407H10.5758L8.99936 20.251C8.95482 20.1196 8.91922 19.8917 8.79453 19.8128C8.66984 19.7339 8.40255 19.7601 8.24224 19.6987C8.08193 19.6374 7.95742 19.436 7.75258 19.436C7.54773 19.436 7.68155 19.5411 7.53905 19.6025C7.44115 19.6074 7.34299 19.6074 7.24508 19.6025L12.1165 18.9626C12.0191 18.7941 11.9089 18.6329 11.7869 18.4805C11.7067 18.3929 11.6268 18.2964 11.5377 18.2088C11.3896 18.075 11.232 17.9521 11.0659 17.8407C10.8961 17.725 10.7173 17.6224 10.5314 17.5339C10.2857 17.438 10.0325 17.3618 9.7743 17.306C9.33906 17.2221 8.89144 17.2221 8.4562 17.306C7.71643 17.4868 7.05305 17.8915 6.55929 18.463C6.06632 18.8736 5.70968 19.42 5.53516 20.0319C5.47966 20.2002 5.44056 20.3732 5.41905 20.5489C5.41905 20.6891 5.50818 20.8995 5.49037 21.0135C5.36005 21.5913 5.26778 22.1768 5.21423 22.7664C5.26766 23.0907 5.62391 23.415 5.65954 23.6429C5.5792 23.7861 5.53093 23.9444 5.51733 24.1074C5.51733 24.1863 5.71303 24.3792 5.71303 24.4143C5.71303 24.4493 5.49039 24.5194 5.5082 24.6071C5.52601 24.6947 5.71294 24.7384 5.84653 24.9488C5.98012 25.1592 5.77528 25.2117 5.84653 25.3695C5.94216 25.5122 6.0497 25.6472 6.16747 25.7728C6.23872 25.8517 6.47887 26.0357 6.5145 26.097C6.55012 26.1584 6.41646 26.2987 6.44318 26.4039C6.46989 26.5091 6.66606 26.5792 6.67496 26.6142C6.68387 26.6493 6.67496 26.9386 6.67496 27.0876C6.83527 27.4469 7.1826 27.7711 7.3251 28.0691C7.4676 28.3671 7.68145 28.8579 7.43208 28.9456C7.1827 29.0332 7.08484 28.9456 6.87109 28.9456C6.65734 28.9456 6.77305 29.0596 6.57712 29.0508C5.83723 28.9181 5.11634 28.6974 4.43059 28.3935C4.33262 28.7441 4.84038 29.0858 4.98288 29.3575C5.12537 29.6292 5.05388 29.822 5.17857 30.0236C5.40321 30.3057 5.65699 30.5643 5.93568 30.795C6.01584 30.8739 5.98033 30.9528 6.06049 31.0229C6.14404 31.0865 6.23332 31.1422 6.3275 31.1894C6.38984 31.2507 6.37215 31.3559 6.45231 31.4173C6.53246 31.4786 6.65732 31.4874 6.85326 31.838C7.0492 32.1886 7.05805 32.1096 6.57712 32.2411C6.09618 32.3726 4.40376 32.2936 4.10095 32.6092C3.97627 32.7494 4.02998 32.8723 4.16358 33.0301C4.31486 33.1842 4.44346 33.3581 4.54626 33.547C4.54626 33.547 4.39486 33.7136 4.54626 33.8363C4.69767 33.959 4.68874 33.9327 4.75109 34.0028C4.85161 34.1449 4.94119 34.2943 5.01853 34.4498C5.05788 34.5044 5.09063 34.5632 5.11638 34.6251H6.17616C6.38101 34.7741 6.3809 35.0195 6.73715 35.3175C7.03105 35.0896 7.36971 35.1159 7.41425 35.0282C7.41759 34.9845 7.41759 34.9406 7.41425 34.8968C7.39849 34.7629 7.39849 34.6276 7.41425 34.4937C7.38512 34.299 7.38512 34.1012 7.41425 33.9065C7.41226 33.8832 7.41226 33.8597 7.41425 33.8363C7.41425 33.8889 7.41414 33.8362 7.30727 33.9414C7.22842 34.0096 7.1417 34.0686 7.04895 34.1169L6.86196 34.2044C6.86196 34.2044 6.98684 34.2483 7.05809 34.3184C7.23265 34.522 7.34088 34.7721 7.36945 35.037C7.36945 35.037 7.56553 35.0985 7.51209 35.1774C7.45865 35.2563 7.35164 35.1772 7.36945 35.2473C7.38727 35.3175 7.59216 35.4315 7.6456 35.5454C7.80567 36.0537 7.83027 36.594 7.71692 37.1143C7.71692 37.1143 7.47638 37.2282 7.42294 37.2808C7.06469 37.48 6.66834 37.6032 6.25879 37.6424C5.84924 37.6817 5.43564 37.6362 5.04506 37.5087C4.59975 37.3685 4.41288 37.3509 4.31491 37.9557C4.31491 38.0434 4.48382 38.1223 4.43928 38.2713C4.37557 38.5187 4.37557 38.7776 4.43928 39.025C4.54616 39.4019 4.82241 39.5859 4.82241 39.6999C4.82241 40.3397 4.32366 40.1556 4.82241 40.5764C5.32115 40.9971 5.17864 41.7859 5.47254 42.3293C5.52363 42.4286 5.58007 42.5252 5.64171 42.6186C5.70405 42.7062 5.73992 42.8202 5.89132 42.8728L6.43448 43.0393C6.64823 43.1094 6.81758 43.2672 7.02243 43.3198C7.22727 43.3724 7.35176 43.1444 7.49426 43.1531C7.66372 43.2657 7.85014 43.3515 8.04655 43.4073C8.46759 43.474 8.8742 43.6102 9.24897 43.8105C9.41819 43.9157 9.38258 44.0736 9.48946 44.1612C9.8457 44.4329 10.264 44.4766 10.0948 45.1427C10.0948 45.1427 9.97022 45.3794 9.97912 45.3969C10.0593 45.6599 9.97897 45.5459 9.81865 45.9666C9.81865 46.0455 9.81865 46.2471 9.81865 46.291C9.596 46.773 9.11515 47.0798 9.23984 47.4129C9.4757 47.6525 9.79246 47.799 10.1305 47.8248C10.5045 47.8949 10.9143 47.9387 11.1281 47.9825C11.5912 48.0789 11.6001 48.2543 12.0187 48.1316C12.4373 48.0089 12.2415 48.1929 12.6244 48.2455C12.6868 48.2455 12.8381 48.1578 12.9806 48.1753C13.1231 48.1928 13.2655 48.0966 13.3368 48.1053C13.408 48.1141 13.5058 48.3332 13.6394 48.342C13.773 48.3508 13.8892 48.263 13.996 48.2718C14.1029 48.2806 14.183 48.3508 14.3344 48.3595C14.4858 48.3683 14.8863 48.2982 14.9575 48.3595C15.0288 48.4209 14.9579 48.5609 15.0558 48.6135C15.1538 48.6661 15.608 48.6136 15.3141 49.1658C15.1627 49.4375 15.1447 49.6041 15.0823 49.683C14.7617 50.1037 14.5211 50.1474 13.8443 50.463C13.8443 50.463 12.829 50.7085 12.731 50.9802C12.5172 51.5586 13.319 51.1467 13.8534 51.173C14.3878 51.1993 14.7439 51.6199 15.3228 51.3044C15.6702 51.1115 15.6079 51.4797 16.0621 51.3745L16.3561 51.2605C16.4808 51.2605 16.5073 51.5147 16.6409 51.5059C16.7745 51.4972 16.8992 51.2693 17.0327 51.2956C17.1421 51.3191 17.2492 51.3514 17.3533 51.3921C17.5759 51.471 17.683 51.7602 17.8077 51.7865C17.9324 51.8128 18.0302 51.5498 18.146 51.5322C18.2618 51.5147 18.4847 51.7602 18.6361 51.7865C18.7875 51.8128 19.0991 51.5409 19.1614 51.9003C19.0683 52.1188 18.9235 52.3124 18.7392 52.4648C18.5549 52.6172 18.3364 52.7241 18.1017 52.7768C18.0215 52.7768 17.87 52.9171 17.8077 52.8733C17.7453 52.8295 17.8522 52.6542 17.8077 52.6717C17.7632 52.6892 17.5495 52.8909 17.4694 52.9259C17.1637 52.9787 16.8761 53.1051 16.6322 53.294C16.7658 53.443 16.9347 53.3905 17.1484 53.3817C17.1484 53.3817 17.2109 53.4955 17.2554 53.478C17.2999 53.4605 17.5314 53.2764 17.6472 53.2764C17.763 53.2764 17.8524 53.4341 18.0038 53.4253C18.3512 53.4253 18.8943 53.0748 19.2149 53.2413C19.3485 53.3114 19.2859 53.5833 19.375 53.6008C19.464 53.6183 19.8471 53.4168 20.1321 53.3905C20.4171 53.3642 21.7887 53.6358 21.762 54.1529C21.6145 54.3962 21.4477 54.6278 21.2632 54.8453C21.0227 55.0469 20.9962 54.9241 20.8448 54.9943C20.6934 55.0644 20.8447 54.9944 20.7379 55.082C20.3816 55.4676 20.3903 55.0819 20.0786 55.1695C19.9717 55.1695 19.6244 55.4589 19.4641 55.5115C19.3038 55.5641 19.313 55.5115 19.2684 55.5115C18.8231 55.6254 18.2264 55.5552 17.7098 55.6604C17.4783 55.7042 17.2021 55.8445 16.9884 55.8971C16.7746 55.9496 16.6675 55.827 16.4626 55.9585C16.4626 55.9585 16.3026 56.1425 16.2669 56.1513C15.9998 56.2039 15.8483 56.0197 15.599 56.0899C15.3496 56.16 15.118 56.4054 14.8419 56.5018C14.5123 56.9137 14.9933 56.6597 14.8419 56.9139C14.6905 57.1681 14.6817 56.8261 14.5214 56.9839C14.3611 57.1416 14.6905 57.1155 14.8419 56.9139C15.1803 56.4757 15.2427 57.0102 15.3585 57.019C15.4743 57.0277 15.5543 56.8876 15.6433 56.9139C15.7324 56.9402 15.7413 57.1067 15.8482 57.133C15.955 57.1593 16.4005 57.1329 16.6766 57.1854C16.9527 57.238 17.2555 57.7201 17.5672 57.6149C17.6563 57.6149 17.8702 57.387 17.9325 57.3958C17.9948 57.4046 18.0035 57.5974 18.146 57.6763C18.2885 57.7552 18.6984 57.6062 18.8409 57.6763C18.9834 57.7464 18.8406 57.9657 18.9118 57.9919C18.9831 58.0182 19.1259 57.9919 19.2328 57.9919C19.3396 57.9919 19.3572 58.0532 19.4463 58.0619C19.5354 58.0707 19.687 57.9481 19.7137 57.9569C19.7405 57.9656 19.7138 58.0531 19.7851 58.0531C19.9886 58.0523 20.1894 58.0974 20.3726 58.1847C20.7427 58.28 21.1059 58.4 21.4593 58.544C21.8334 58.6755 22.2607 59.2189 21.949 59.6133C21.5482 60.1567 21.3791 60.1919 20.72 59.9377C20.5686 59.8763 20.6577 59.8061 20.4974 59.7973C20.3371 59.7885 20.257 59.5257 19.9542 59.6659C19.9542 60.1042 20.6665 60.4284 21.0762 60.6826C21.2632 60.814 21.5215 60.9369 21.7085 61.0771L22.3321 61.6029C22.5593 61.7097 22.8032 61.7779 23.0536 61.8045C23.2762 61.8045 23.6056 61.8045 23.7837 61.8571C23.9618 61.9097 24.0244 62.1287 24.2025 62.1813C24.3806 62.2339 24.5406 62.0938 24.5673 62.1025C24.8434 62.2165 25.0219 62.5056 25.3158 62.6458C25.0968 63.0495 24.8336 63.4286 24.5317 63.7765C24.7341 63.86 24.9546 63.8932 25.1731 63.873C25.3512 63.873 25.5025 63.7239 25.6984 63.7239C25.8944 63.7239 26.0548 63.8906 26.2329 63.8906C26.411 63.8906 26.5981 63.7153 26.7317 63.6978C27.0599 63.6908 27.3874 63.6614 27.7115 63.61C28.0677 63.5312 28.4329 63.2944 28.6021 63.2857C28.7713 63.2769 28.9317 63.496 29.1009 63.496C29.1009 63.496 29.4035 63.1017 29.5371 63.3822C29.5856 63.5445 29.594 63.716 29.5614 63.8822C29.5289 64.0484 29.4565 64.2046 29.3501 64.3376C29.0473 64.8459 28.3616 64.5392 28.1033 65.0125C28.1033 65.1527 28.1834 65.1 28.2903 65.0912C28.3972 65.0825 28.5041 65.0912 28.6199 65.0912C28.8852 65.0272 29.1397 64.927 29.3766 64.7934C29.5013 64.7408 29.5015 64.7933 29.6084 64.7407C29.9557 64.5391 31.2204 63.8642 31.5766 64.0395C31.7636 64.1272 31.7281 64.0394 31.8706 64.39C31.9418 64.5303 31.8706 64.6794 32.0932 64.7144C32.5653 64.7845 32.77 64.1798 33.1352 63.9081C33.2064 63.9081 33.4647 63.7679 33.5983 63.6802C33.8655 63.5049 33.9993 63.3033 34.2041 63.5837C34.2041 63.6363 34.2929 63.8906 34.3641 63.8643C34.6581 63.7854 35.0235 63.1981 35.353 62.7687C35.5045 62.5671 35.6558 62.3741 35.7805 62.1988C35.9273 62.0593 36.0642 61.9099 36.1902 61.7518C36.3861 61.4275 36.5196 60.8754 36.7333 60.4371C36.7868 60.3407 36.8758 60.3846 36.9203 60.2706C37.0183 59.9726 37.2855 59.6221 37.4191 59.2014C37.7219 59.2014 37.348 59.4205 37.7488 59.4117C37.9002 59.4117 37.9356 59.5433 37.9801 59.0788C37.9178 58.7895 37.7043 59.0787 37.5974 59.0261C37.5974 58.5704 37.8646 58.5352 38.0071 58.2372C38.1496 57.9392 38.2208 57.2205 38.4346 57.1591C38.6483 57.0978 38.5056 57.3169 38.6659 56.9663C38.7461 56.8261 38.7728 56.6946 38.8886 56.5018C39.3701 55.9021 40.0026 55.437 40.7233 55.1522C40.9852 54.9942 41.259 54.8563 41.5426 54.7401C41.9003 54.7536 42.2572 54.7859 42.6115 54.8366C42.6738 54.8366 42.7538 54.8366 42.8785 54.8366C43.065 54.8172 43.253 54.8172 43.4395 54.8366C43.7235 54.8475 44.0053 54.8945 44.2771 54.9767C44.7474 55.1285 45.1938 55.3438 45.6039 55.6165C46.0224 56.0811 44.847 55.8006 44.838 55.8444C44.8291 55.8882 45.5061 56.4581 45.132 56.4493C44.758 56.4406 43.8849 56.1337 43.119 56.1162C42.752 56.0754 42.3818 56.0754 42.0149 56.1162C41.8648 56.1282 41.7159 56.1517 41.5695 56.1864L41.2486 56.2827C41.0616 56.3528 41.0084 56.4755 40.7946 56.5632L40.2245 56.87C40.0464 56.984 39.8862 57.1066 39.7348 57.2205L39.6457 56.686C39.2093 56.5808 39.6456 57.2119 39.5387 57.5625C39.5832 57.3784 39.1201 58.176 39.129 58.1935C39.1379 58.211 38.6126 58.4563 38.6037 58.728C38.6037 59.2539 38.55 58.7282 38.3541 59.07C38.3007 59.1664 38.2829 59.3417 38.2206 59.517C38.1583 59.6923 37.9981 59.8763 37.9001 60.148C37.9001 60.148 37.7844 60.2882 37.7844 60.3145C37.7844 60.8053 37.7842 60.3146 37.5526 60.6389C37.5526 60.6827 37.5526 60.8842 37.5526 60.9192C37.5526 60.9543 37.3121 61.1297 37.2408 61.2612C37.1696 61.3926 37.1253 61.8922 37.0095 62.1376C36.8937 62.383 36.778 62.3041 36.6711 62.4618C36.5643 62.6196 36.5641 62.7949 36.4928 62.9001C36.4216 63.0052 36.3146 62.9001 36.3324 62.9001C36.3502 62.9001 36.3323 63.1105 36.2789 63.1806C36.0473 63.5136 35.6558 63.794 35.3352 64.206C35.1571 64.4426 35.0143 64.8107 34.8095 65.0298C34.6046 65.2489 34.5158 65.1001 34.4268 65.1614C34.1952 65.328 33.9188 65.7135 33.607 65.9414C33.3642 66.0662 33.1146 66.1775 32.8591 66.2746C32.8591 66.2746 32.7609 66.52 32.7164 66.5288C32.4682 66.5864 32.2351 66.6937 32.0311 66.8442C31.8975 66.9581 31.4165 67.1949 31.1404 67.3701C30.8643 67.5454 30.499 67.6068 30.0894 67.8172C29.6797 68.0275 29.5814 68.1852 29.3766 68.1764C29.1718 68.1677 28.9048 67.7556 28.6821 67.6592C28.1299 67.4489 27.2305 67.8609 26.5269 67.9749C26.4289 67.9749 26.2687 67.9135 26.1529 67.9749C26.0371 68.0362 25.7876 68.0887 25.5471 68.1238C25.1768 68.1575 24.8041 68.1575 24.4338 68.1238C24.2468 68.1238 24.1491 68.0187 23.9798 68.0187C23.8106 68.0187 23.0889 68.1589 22.7861 67.9398C22.4833 67.7206 22.3943 67.3262 22.1716 67.0633C22.5991 66.7127 23.1513 67.0634 23.5076 66.4761C23.3027 66.5813 22.9287 66.4762 22.6169 66.5288C22.3052 66.5814 21.3882 66.1519 20.8983 66.1081C20.7915 66.1081 20.5328 66.1081 20.4704 66.1081C20.2745 66.0643 19.9093 65.6873 19.5798 65.5646C19.2503 65.4419 19.0989 65.8275 18.6892 65.3805C18.6892 65.3805 18.9031 65.2228 18.9031 65.1965C18.8166 65.0348 18.7054 64.887 18.5735 64.7583C18.5571 64.6972 18.5331 64.6384 18.5022 64.583C18.6232 64.5436 18.7493 64.5199 18.8766 64.5128C19.5677 64.4733 20.2603 64.4733 20.9514 64.5128C21.1117 64.0308 20.2034 64.0395 19.7046 63.8467C19.5265 63.6889 19.2682 63.6715 19.0723 63.4611C18.8764 63.2508 18.8053 62.9352 18.6005 62.7599C18.3956 62.5846 18.3777 62.716 18.253 62.6546C17.9161 62.4049 17.5922 62.1388 17.2824 61.8571C17.1702 61.7866 17.0504 61.7279 16.9258 61.6819C16.83 61.62 16.7196 61.5836 16.6053 61.5766C16.4361 61.5766 16.3202 61.5767 16.3113 61.5066L16.6588 61.0157C16.828 60.893 16.908 60.9457 17.2019 60.8493C17.8343 60.674 17.5136 60.709 17.8342 60.8493C17.8342 60.8493 18.0839 60.7967 18.1195 60.8493C18.1551 60.9018 18.2885 60.9456 18.3687 60.9982C18.4449 61.0643 18.5252 61.1258 18.6092 61.1822C19.0278 61.489 19.4997 61.6292 19.8381 61.8571C20.1765 62.085 20.3637 62.5056 20.6665 62.6722C20.7734 62.7335 20.9959 62.6722 21.1562 62.7511C21.3165 62.7511 21.584 62.9615 21.6998 62.7511C21.6995 62.6946 21.6857 62.639 21.6594 62.5887C21.633 62.5385 21.595 62.4949 21.5485 62.4618C21.4238 62.2953 21.1741 62.234 20.987 62.1113L20.5509 61.822C20.5509 61.822 20.3995 61.7081 20.3282 61.6731C20.257 61.638 20.0697 61.7257 20.0429 61.6731C20.0162 61.6205 19.9452 61.2962 19.8294 61.2085C19.7136 61.1209 19.5533 61.2524 19.5354 61.2085C19.3662 61.042 19.3126 60.8316 19.1345 60.6913C19.0026 60.5745 18.8483 60.485 18.6805 60.4283C18.4667 60.3407 18.4132 60.2268 18.0925 60.2268C17.9678 60.2268 17.7365 60.3233 17.6564 60.3145C17.3981 60.3145 17.407 60.1129 17.1932 60.0866C16.9795 60.0603 16.6587 60.0866 16.347 60.0866C16.2935 60.0866 16.0797 60.1392 16.053 60.1305C16.0263 60.1217 16.0531 59.9989 15.9373 59.9901C15.679 59.9901 15.109 60.1128 15.0467 59.9901C15.0519 59.8138 15.0848 59.6395 15.1445 59.4731C15.5041 59.2091 15.9283 59.0428 16.3739 58.991C17.0198 58.9072 17.6749 58.925 18.3152 59.0437C18.4666 59.0437 18.6804 59.0437 18.814 59.0437C18.9476 59.0437 19.0992 59.1663 19.2328 59.1751C19.3664 59.1838 20.1056 58.7544 20.1947 59.0524Z" fill="white" stroke="white" stroke-width="3.10104" stroke-linecap="round" stroke-linejoin="round"/>
</svg>
