<svg width="175" height="69" viewBox="0 0 175 69" fill="none" xmlns="http://www.w3.org/2000/svg">
<g clip-path="url(#clip0_174_6)">
<path d="M125.19 0.428815V34.0844H121.014C119.411 27.7688 117.811 21.4539 116.212 15.1398L116.106 15.1578V34.0709H111.487V0.395147H116.122C117.552 6.24809 118.98 12.1063 120.404 17.9697L120.494 17.9584V0.484963C120.929 0.345714 124.548 0.316517 125.19 0.428815Z" fill="#050505"/>
<path d="M79.8574 34.8057V68.4949H75.6885C74.0931 62.2062 72.4976 55.9101 70.9022 49.6064H70.7873V68.4836H66.179V34.8102H70.8008L75.0824 52.3667H75.2017V34.8147L79.8574 34.8057Z" fill="#050505"/>
<path d="M13.6896 41.0198C13.7128 39.9219 13.5348 38.829 13.1645 37.7947C12.6462 36.4291 11.6997 35.4926 10.2846 35.0995C9.57417 34.9041 8.84227 34.797 8.1055 34.7806C5.5839 34.7424 3.06234 34.7671 0.540737 34.7671H0.0517578V68.5102H0.671454C2.9955 68.5102 5.31873 68.5102 7.64128 68.5102C8.03563 68.5102 8.43449 68.5102 8.82885 68.4765C11.1026 68.3013 12.644 67.0548 13.2997 64.883C13.5671 63.969 13.6985 63.0209 13.6896 62.0689C13.6986 55.0525 13.6986 48.0362 13.6896 41.0198ZM8.39169 61.2132C8.38153 61.6602 8.31338 62.1041 8.1889 62.5338C8.12821 62.8006 7.9847 63.0417 7.77882 63.2227C7.57293 63.4037 7.31516 63.5154 7.04194 63.5421C6.45604 63.614 5.86341 63.6141 5.20089 63.6522V39.4185C5.86115 39.4185 6.50561 39.3758 7.14108 39.4185C7.3874 39.4432 7.61964 39.5445 7.80489 39.7082C7.99015 39.8719 8.11903 40.0896 8.17317 40.3303C8.27105 40.7301 8.34628 41.135 8.39851 41.5431C8.40462 41.6179 8.40462 41.693 8.39851 41.7677C8.39851 48.251 8.3962 54.7329 8.39169 61.2132V61.2132Z" fill="#050505"/>
<path d="M140.313 3.53087C139.785 2.00588 138.747 1.00639 137.176 0.626825C136.512 0.468281 135.831 0.385377 135.148 0.379749C132.669 0.350551 130.177 0.366317 127.694 0.368563C127.518 0.368563 127.344 0.386504 127.146 0.397734V34.1117H127.759C130.098 34.1117 132.439 34.1117 134.781 34.1117C135.285 34.1125 135.789 34.0794 136.288 34.0128C138.287 33.7298 139.65 32.6653 140.308 30.7315C140.627 29.7391 140.78 28.701 140.759 27.6591C140.759 20.6218 140.759 13.5845 140.759 6.54722C140.781 5.52397 140.63 4.5043 140.313 3.53087V3.53087ZM135.491 25.4132C135.491 26.042 135.477 26.6686 135.443 27.2953C135.427 27.5638 135.378 27.8294 135.297 28.0858C135.227 28.3683 135.07 28.622 134.848 28.8109C134.626 28.9999 134.35 29.1147 134.059 29.1392C133.494 29.1953 132.919 29.1504 132.318 29.1504V4.97725C132.935 4.97725 133.526 4.94356 134.12 4.97725C134.414 4.98816 134.694 5.10173 134.912 5.29802C135.13 5.49432 135.272 5.76078 135.313 6.05077C135.432 6.66573 135.493 7.29072 135.493 7.91716C135.5 13.7521 135.5 19.5849 135.491 25.4154V25.4132Z" fill="#050505"/>
<path d="M76.9256 33.7521C76.5043 32.8538 76.4863 31.879 76.4863 30.9042C76.4863 27.2239 76.4863 23.5435 76.4863 19.8631C76.4857 19.4879 76.4639 19.113 76.4209 18.7401C76.38 18.1911 76.2014 17.6611 75.9014 17.1988C75.6013 16.7365 75.1895 16.3568 74.7038 16.0945C74.5956 16.0338 74.492 15.9664 74.323 15.8699C75.5669 15.1961 76.1415 14.1562 76.3691 12.9007C76.4461 12.4556 76.4845 12.0048 76.484 11.5531C76.4945 9.54374 76.4945 7.5337 76.484 5.52283C76.495 4.74985 76.3918 3.97942 76.1775 3.23642C75.7584 1.87537 74.8706 0.974781 73.4734 0.628905C72.8636 0.476862 72.2383 0.394652 71.6098 0.384022C68.8899 0.357071 66.1678 0.372792 63.4479 0.384022C63.3105 0.384022 63.173 0.406516 63.031 0.419992V34.0732C63.8265 34.1765 67.7316 34.1452 68.1553 34.0239V26.5381C68.1553 25.2984 68.1553 24.0676 68.1553 22.8211C68.1553 21.5746 68.1418 20.3258 68.1553 19.095C68.8063 19.0644 69.4585 19.0689 70.109 19.1085C70.8909 19.1984 71.2358 19.6094 71.3079 20.3954C71.3394 20.7166 71.344 21.0423 71.344 21.3658C71.344 24.6673 71.344 27.971 71.344 31.2748C71.3451 31.7769 71.3744 32.2785 71.4318 32.7773C71.4881 33.2265 71.5557 33.7049 71.8825 34.0777H76.9009C76.9191 34.0374 76.9327 33.9952 76.9415 33.9519C76.9489 33.8849 76.9435 33.8172 76.9256 33.7521V33.7521ZM71.3574 11.9058C71.3563 12.3 71.3049 12.6924 71.2042 13.0736C71.134 13.3933 70.9559 13.6792 70.6995 13.8836C70.4432 14.088 70.1241 14.1985 69.7958 14.1966C69.2775 14.228 68.7592 14.1966 68.2026 14.1966V4.94336C68.9102 4.94336 69.5885 4.86702 70.2623 5.02199C70.496 5.05975 70.7129 5.16663 70.8849 5.32883C71.0569 5.49104 71.1761 5.70104 71.2268 5.93156C71.3096 6.27976 71.3534 6.63605 71.3574 6.99388C71.3709 8.63492 71.3709 10.2722 71.3574 11.9058V11.9058Z" fill="#050505"/>
<path d="M130.26 68.4835H125.167V53.7478H121.683V68.4791H116.546V34.8077H121.652C121.652 35.0099 121.674 35.2165 121.674 35.4209C121.674 39.4786 121.674 43.5363 121.674 47.594V48.2543H125.145C125.145 47.4974 125.145 46.7517 125.145 46.0083C125.145 45.2649 125.145 44.5349 125.145 43.8005V34.7809C126.862 34.7696 128.545 34.7809 130.217 34.7809C130.346 35.2054 130.371 67.8636 130.26 68.4835Z" fill="#050505"/>
<path d="M13.7865 34.024C13.4147 34.1295 9.44863 34.1632 8.67795 34.0554V19.3062H5.17609V34.0801H0.108162C-0.00450958 33.7005 -0.0450583 1.28927 0.0653603 0.456025C0.446192 0.348219 4.45954 0.318943 5.16487 0.43124V13.8374H8.66222V0.402069H13.7301C13.8451 0.779388 13.8969 32.9571 13.7865 34.024Z" fill="#050505"/>
<path d="M146.14 51.5962C146.14 48.2924 146.14 44.9886 146.14 41.6848C146.15 40.5335 145.972 39.3883 145.615 38.2934C144.939 36.2721 143.558 35.0548 141.462 34.6438C140.166 34.4085 138.841 34.3714 137.534 34.5338C134.917 34.8212 133.244 36.2242 132.514 38.7426C132.202 39.8885 132.054 41.0727 132.076 42.2598C132.076 48.4901 132.076 54.7204 132.076 60.9506C132.076 61.292 132.076 61.6244 132.097 61.9725C132.137 63.1772 132.387 64.3657 132.836 65.4852C133.575 67.2056 134.848 68.2993 136.685 68.7125C138.135 69.0128 139.628 69.0479 141.09 68.8159C143.258 68.5105 144.745 67.3224 145.509 65.2606C145.936 64.0565 146.147 62.7869 146.133 61.5098C146.149 58.206 146.14 54.9 146.14 51.5962ZM140.89 61.2537C140.892 61.7372 140.84 62.2195 140.734 62.6912C140.538 63.5177 139.991 63.9287 139.2 63.9422C138.409 63.9557 137.735 63.5536 137.528 62.7676C137.386 62.1945 137.315 61.606 137.318 61.0157C137.3 56.3868 137.318 51.7601 137.318 47.1313C137.318 45.4805 137.302 43.8297 137.318 42.1902C137.319 41.6529 137.379 41.1174 137.498 40.5933C137.694 39.7803 138.23 39.4052 139.075 39.3917C139.921 39.3782 140.502 39.7399 140.721 40.5642C140.844 41.0501 140.904 41.5497 140.901 42.0509C140.917 45.2626 140.901 48.4743 140.901 51.6838C140.901 54.8933 140.903 58.0623 140.89 61.2537Z" fill="#050505"/>
<path d="M161.833 51.5985C161.833 49.8197 161.833 48.0417 161.833 46.2644C161.833 44.5597 161.833 42.8527 161.811 41.1481C161.793 40.0688 161.586 39.001 161.2 37.9925C160.486 36.1486 159.143 35.0459 157.211 34.6551C155.882 34.4042 154.52 34.3647 153.178 34.5383C150.715 34.8213 149.063 36.1104 148.29 38.4844C147.928 39.6528 147.753 40.8708 147.772 42.0936C147.772 48.4316 147.772 54.7697 147.772 61.1078C147.772 61.3324 147.772 61.5391 147.783 61.7524C147.86 63.0663 148.033 64.3622 148.579 65.5705C148.907 66.363 149.426 67.0631 150.089 67.6093C150.752 68.1556 151.54 68.5313 152.382 68.7037C153.76 69 155.181 69.0425 156.574 68.8294C159.3 68.4588 160.855 66.9967 161.493 64.3263C161.731 63.312 161.846 62.273 161.835 61.2314C161.826 58.0167 161.826 54.8057 161.833 51.5985ZM156.599 61.4425C156.589 61.9259 156.513 62.4057 156.373 62.8686C156.296 63.1781 156.115 63.4523 155.861 63.6461C155.606 63.8399 155.294 63.9419 154.974 63.9354C154.257 63.9646 153.644 63.7333 153.333 63.037C153.198 62.7072 153.104 62.3617 153.056 62.0085C153.021 61.7051 153.01 61.3994 153.022 61.0943C153.022 57.9186 153.022 54.7436 153.022 51.5693C153.022 48.4115 153.022 45.2536 153.022 42.0981C153.017 41.5969 153.068 41.0968 153.173 40.6069C153.365 39.7871 153.897 39.403 154.724 39.3806C155.6 39.3581 156.154 39.7107 156.389 40.5282C156.517 40.9761 156.585 41.4392 156.59 41.905C156.608 48.4182 156.611 54.9308 156.599 61.4425Z" fill="#050505"/>
<path d="M64.3245 68.4765H61.4558C61.1899 67.4681 60.9195 66.4551 60.6243 65.3322C60.5117 65.5253 60.4419 65.6331 60.3833 65.7454C59.9534 66.5777 59.3648 67.3184 58.6504 67.9262C56.7124 69.5994 53.3796 69.3278 51.8202 66.9583C51.1497 65.91 50.7616 64.7071 50.6935 63.4658C50.6777 63.2412 50.6799 62.9986 50.6799 62.765C50.6799 55.7277 50.6799 48.6904 50.6799 41.6531C50.6569 40.484 50.8376 39.3199 51.214 38.2123C51.9216 36.2449 53.2803 34.9984 55.358 34.6188C56.9562 34.3162 58.5995 34.3422 60.1872 34.6952C62.2851 35.1668 63.4208 36.5773 63.8693 38.6121C64.0744 39.6884 64.1733 40.7822 64.1645 41.8777C64.187 42.9535 64.1645 44.0316 64.1645 45.1075C64.1645 45.213 64.1442 45.3163 64.1352 45.4129C63.6958 45.5297 59.6712 45.5386 59.1258 45.4129V44.8985C59.1258 43.7868 59.1258 42.6728 59.1258 41.5611C59.1243 41.1832 59.0813 40.8066 58.9974 40.4381C58.9449 40.1327 58.7835 39.8563 58.543 39.6599C58.3025 39.4635 57.999 39.3602 57.6882 39.369C56.9017 39.3263 56.3676 39.5936 56.1535 40.2809C56.003 40.7952 55.9271 41.3285 55.9282 41.8643C55.9034 44.2518 55.9169 46.6391 55.9169 49.0266C55.9169 53.0693 55.9169 57.112 55.9169 61.1435C55.9169 61.6454 55.9821 62.1451 56.1107 62.6303C56.18 62.9603 56.3627 63.2557 56.6272 63.4657C56.8918 63.6756 57.2215 63.7868 57.5596 63.7802C58.3664 63.8071 59.0222 63.4411 59.2836 62.7381C59.4157 62.3852 59.4851 62.012 59.4886 61.6353C59.5044 58.9604 59.4886 56.2877 59.4886 53.6128C59.4886 53.4892 59.4616 53.368 59.4436 53.1906H57.2037V48.0945C57.5665 47.98 63.3826 47.9351 64.2952 48.0407C64.4011 48.4405 64.4304 67.7443 64.3245 68.4765Z" fill="#050505"/>
<path d="M114.887 54.2556C114.887 56.8586 114.899 59.4617 114.887 62.0647C114.888 63.0541 114.742 64.0381 114.452 64.9845C113.776 67.1788 112.33 68.542 110.011 68.834C108.547 69.0539 107.055 69.0137 105.605 68.715C103.74 68.2837 102.493 67.1428 101.826 65.3595C101.507 64.4621 101.327 63.5215 101.292 62.5701C101.274 62.2287 101.274 61.8963 101.274 61.5459C101.274 54.8695 101.274 48.1923 101.274 41.5143C101.252 40.5447 101.364 39.5767 101.606 38.6373C102.268 36.2386 103.904 34.8191 106.385 34.5361C107.745 34.3603 109.125 34.3929 110.475 34.6327C112.861 35.0931 114.229 36.4542 114.667 38.8192C114.802 39.5243 114.878 40.2395 114.892 40.9573C114.921 43.0034 114.892 45.0494 114.892 47.0954C114.892 47.2189 114.876 47.3425 114.865 47.4998H109.849C109.849 47.2999 109.824 47.1112 109.824 46.9203C109.824 45.1235 109.824 43.3268 109.824 41.53C109.824 41.1897 109.785 40.8505 109.707 40.5193C109.648 40.1981 109.476 39.9084 109.222 39.7024C108.968 39.4965 108.648 39.3879 108.321 39.3964C108.123 39.3836 107.925 39.3889 107.728 39.412C107.491 39.4228 107.264 39.5094 107.08 39.6591C106.896 39.8088 106.765 40.0136 106.707 40.2431C106.6 40.6594 106.544 41.0869 106.538 41.5165C106.529 48.2274 106.529 54.9398 106.538 61.6537C106.539 62.0658 106.595 62.4759 106.705 62.8732C106.779 63.1929 106.963 63.4764 107.226 63.6733C107.49 63.8703 107.814 63.9679 108.143 63.949C108.866 63.949 109.409 63.6189 109.63 62.9317C109.753 62.5397 109.818 62.1318 109.822 61.7211C109.837 59.3156 109.822 56.9103 109.822 54.5049V53.858H114.847C114.868 53.9897 114.881 54.1224 114.887 54.2556V54.2556Z" fill="#050505"/>
<path d="M42.2452 62.28C42.2056 63.3597 41.9585 64.4217 41.5173 65.4085C40.6633 67.3423 39.1625 68.4608 37.0893 68.7775C35.6805 69.0026 34.2431 68.9813 32.8416 68.7146C30.4417 68.2452 28.9341 66.6933 28.5308 64.2744C28.4437 63.7615 28.397 63.2425 28.391 62.7224C28.3753 60.5326 28.391 58.3428 28.391 56.153C28.391 56.0452 28.4046 55.9396 28.4159 55.7689H33.4929V56.3529C33.4929 58.0958 33.4929 59.8363 33.4929 61.5769C33.4891 61.9896 33.5345 62.4013 33.6281 62.8033C33.8805 63.787 34.8382 64.2407 35.7936 63.8746C35.9816 63.8077 36.1506 63.6966 36.2863 63.5508C36.4221 63.405 36.5205 63.2286 36.5733 63.0368C36.7034 62.6462 36.7792 62.2396 36.7986 61.8285C36.7986 60.7055 36.7987 59.5668 36.7085 58.4416C36.6183 57.615 36.307 56.8277 35.8072 56.162C35.2844 55.4096 34.7368 54.6751 34.1779 53.9497C33.2563 52.7526 32.3121 51.5758 31.3837 50.3832C30.293 48.9795 29.3984 47.4635 29.0131 45.7161C28.8476 44.9814 28.7392 44.235 28.6886 43.4837C28.5939 41.9789 28.5375 40.4695 28.8327 38.976C29.3217 36.4897 30.8608 34.9738 33.3802 34.5852C34.8745 34.3461 36.3989 34.3642 37.8871 34.6391C40.1743 35.0748 41.4295 36.4494 41.6863 38.7762C41.7498 39.3648 41.7828 39.9562 41.7855 40.5482C41.799 42.0911 41.7855 43.6364 41.7855 45.1793V45.8396C40.1247 45.8666 38.5 45.8509 36.8144 45.8509V45.2153C36.8144 43.7981 36.8144 42.3787 36.8144 40.9615C36.814 40.6212 36.7748 40.2822 36.6973 39.9508C36.5463 39.3354 36.1068 39.0277 35.4195 39.003C34.7322 38.9783 34.241 39.2747 34.0382 39.8879C33.989 40.0237 33.9551 40.1646 33.9368 40.3079C33.734 42.4281 33.876 44.4651 35.2889 46.2372C36.5824 47.8722 37.8487 49.5275 39.1039 51.1917C39.7214 52.007 40.3186 52.8425 40.8617 53.7072C41.729 55.105 42.2051 56.7087 42.2407 58.3518C42.2903 59.6604 42.2918 60.9699 42.2452 62.28Z" fill="#050505"/>
<path d="M99.7598 63.3719C99.6686 63.9015 99.5313 64.4224 99.3496 64.9284C98.5857 67.0777 97.0738 68.3849 94.8136 68.7465C93.4067 68.9865 91.9681 68.9735 90.5658 68.7082C88.0217 68.2186 86.4826 66.5746 86.1423 64.0097C86.0751 63.5303 86.0382 63.0473 86.0319 62.5633C86.0206 60.4454 86.0319 58.3275 86.0319 56.2073C86.0319 56.0681 86.0453 55.9288 86.0521 55.7581H91.1066C91.1066 55.9401 91.1269 56.1287 91.1269 56.3173C91.1269 57.9861 91.1269 59.6549 91.1269 61.3259C91.1245 61.7564 91.1607 62.1863 91.235 62.6105C91.4266 63.6256 92.1365 64.104 93.1663 63.9356C93.3829 63.9121 93.589 63.8301 93.7622 63.6982C93.9354 63.5664 94.069 63.3899 94.1488 63.1878C94.2993 62.8617 94.3924 62.5122 94.4237 62.1546C94.4463 60.971 94.4439 59.7873 94.3898 58.6059C94.323 57.759 94.0281 56.9458 93.5359 56.2522C93.1513 55.6667 92.7441 55.097 92.3144 54.543C91.2598 53.1775 90.1849 51.8277 89.1213 50.4689C87.9698 48.9955 87.0144 47.4145 86.6425 45.5616C86.4724 44.6993 86.3685 43.8253 86.3316 42.9472C86.2753 41.6581 86.2302 40.3644 86.4668 39.082C86.5812 38.3905 86.8096 37.7226 87.1428 37.1055C87.4607 36.5179 87.9 36.0043 88.4318 35.5986C88.9636 35.1928 89.5758 34.9041 90.2278 34.7517C92.107 34.2855 94.0707 34.2724 95.956 34.7136C97.9841 35.1628 99.0117 36.5507 99.3181 38.5317C99.3966 39.0461 99.438 39.5655 99.442 40.0859C99.4578 41.8624 99.442 43.6412 99.442 45.4178C99.442 45.5391 99.4218 45.6603 99.4106 45.8108H94.471V45.2224C94.471 43.8389 94.471 42.4576 94.471 41.0764C94.4738 40.6819 94.4306 40.2885 94.3425 39.9039C94.187 39.2885 93.7364 39.0056 93.0446 38.9899C92.3528 38.9741 91.9066 39.2616 91.7083 39.8613C91.6262 40.077 91.5799 40.3045 91.5708 40.535C91.5844 41.5188 91.5843 42.507 91.67 43.4862C91.7482 44.1304 91.98 44.7464 92.346 45.283C92.7313 45.8872 93.1324 46.4868 93.5674 47.0573C94.658 48.4857 95.7735 49.8939 96.8686 51.3246C97.2968 51.8801 97.7085 52.4476 98.1036 53.027C99.1622 54.5578 99.7766 56.3499 99.8793 58.2062C100.001 59.9491 100.057 61.6717 99.7598 63.3719Z" fill="#050505"/>
<path d="M29.0671 28.8335C28.9833 29.3675 28.8544 29.8934 28.6817 30.4057C27.8683 32.7819 26.1872 34.1339 23.6904 34.4056C22.4003 34.5682 21.0931 34.5372 19.8122 34.3136C17.374 33.851 15.8123 32.2091 15.4473 29.7341C15.3711 29.2194 15.3298 28.7002 15.3234 28.1799C15.3099 26.0238 15.3234 23.8699 15.3234 21.716C15.3234 21.6082 15.3347 21.5027 15.3459 21.332H20.4206V21.9183C20.4206 23.5892 20.4206 25.258 20.4206 26.929C20.4167 27.3771 20.4559 27.8246 20.5378 28.2652C20.7519 29.3096 21.6398 29.8015 22.6651 29.4848C22.8493 29.4355 23.0185 29.3416 23.1576 29.2115C23.2968 29.0815 23.4015 28.9192 23.4627 28.7391C23.6087 28.3727 23.6992 27.9867 23.731 27.5938C23.749 26.4708 23.731 25.3343 23.6792 24.2069C23.6259 23.4313 23.3677 22.6836 22.931 22.0395C22.5366 21.4197 22.1174 20.8109 21.669 20.227C20.5828 18.8165 19.4719 17.4263 18.3768 16.0248C17.3402 14.6975 16.4883 13.269 16.0354 11.6317C15.7687 10.643 15.6243 9.62564 15.6051 8.60202C15.569 7.27467 15.5127 5.94508 15.7651 4.62895C15.8992 3.84856 16.1847 3.1017 16.6056 2.43016C16.9762 1.85251 17.465 1.35934 18.0402 0.983126C18.6153 0.606914 19.2638 0.356104 19.9429 0.247052C21.6103 -0.0797466 23.3255 -0.0797466 24.9928 0.247052C27.1449 0.678274 28.3235 1.99895 28.6232 4.17976C28.6968 4.71277 28.7366 5.24979 28.7426 5.78779C28.7584 7.51267 28.7426 9.23532 28.7426 10.9535C28.7426 11.077 28.7426 11.2006 28.7269 11.3151C28.319 11.4342 24.3957 11.4566 23.7693 11.3353V10.7715C23.7693 9.40824 23.7693 8.04277 23.7693 6.67948C23.7715 6.2852 23.7292 5.89188 23.6431 5.50704C23.4944 4.88042 23.0572 4.59522 22.3609 4.58399C21.6172 4.57276 21.1845 4.84681 20.9885 5.47118C20.9244 5.65856 20.8843 5.85316 20.8691 6.05055C20.8285 7.07245 20.7677 8.09669 20.9592 9.11185C21.0982 9.81837 21.3754 10.4907 21.775 11.0905C22.149 11.661 22.5426 12.2187 22.9557 12.7637C24.0599 14.2034 25.1889 15.6273 26.2909 17.0692C26.7416 17.6681 27.1772 18.2842 27.5978 18.9176C28.4668 20.2266 28.9972 21.7297 29.1415 23.2927C29.3195 25.1456 29.3668 26.9874 29.0671 28.8335Z" fill="#050505"/>
<path d="M106.25 0.417976C105.38 0.314662 100.54 0.348338 100.118 0.460636C98.7435 11.6499 97.3683 22.8535 95.9922 34.0712H100.598C100.823 31.9555 101.049 29.878 101.274 27.7826H104.988C105.213 29.896 105.438 31.987 105.677 34.0712H110.635C109.173 22.822 107.711 11.6043 106.25 0.417976ZM101.79 22.6775C102.207 18.7134 102.624 14.7718 103.039 10.8302C103.588 14.7606 104.014 18.691 104.443 22.6775H101.79Z" fill="#050505"/>
<path d="M57.7872 0.401855H51.6646C50.2833 11.6451 48.9086 22.8434 47.5317 34.0776H52.1378C52.3631 31.9686 52.5884 29.8867 52.8138 27.8024H56.532C56.7573 29.9159 56.9827 31.9956 57.208 34.0776H62.1656C60.7211 22.8344 59.2565 11.6338 57.7872 0.401855ZM53.3389 22.6794C53.731 18.6996 54.1704 14.7535 54.6909 10.8007C55.1236 14.7468 55.5563 18.6951 55.9935 22.6794H53.3389Z" fill="#050505"/>
<path d="M27.4289 63.4119V68.4788H15.5308V34.8008H27.1134C27.2284 35.1736 27.2622 38.9288 27.145 39.6812H20.6731V48.5167H25.7704V53.6376H20.6776V63.3961C22.9198 63.4209 25.1597 63.3917 27.4289 63.4119Z" fill="#050505"/>
<path d="M42.6756 34.0171C42.252 34.1294 31.5302 34.1631 30.7775 34.0665C30.6761 33.678 30.649 1.07134 30.7572 0.404297H42.3624V5.24877H35.8928V14.0843C37.5648 14.1023 39.2459 14.0843 40.9563 14.0978V19.2388H35.8906V28.957H42.6666C42.6869 30.6752 42.6711 32.3506 42.6756 34.0171Z" fill="#050505"/>
<path d="M91.1652 0.422391V5.23089C89.7546 5.29602 88.3574 5.23088 86.9061 5.27355C86.8926 5.45547 86.8701 5.62618 86.8678 5.79687C86.8678 6.80081 86.8678 7.81821 86.8678 8.81092V34.0801H81.7481V5.26905H77.4666V0.453755C77.8519 0.350441 90.3878 0.314585 91.1652 0.422391Z" fill="#050505"/>
<path d="M175 63.3067V68.4724H163.654V34.7832H168.733V63.2708C169.461 63.3089 170.139 63.2866 170.815 63.2911C171.491 63.2955 172.219 63.2911 172.922 63.2911L175 63.3067Z" fill="#050505"/>
<path d="M48.8613 34.8076H43.7888V68.4766H48.8613V34.8076Z" fill="#050505"/>
</g>
<defs>
<clipPath id="clip0_174_6">
<rect width="175" height="69" fill="white"/>
</clipPath>
</defs>
</svg>
