<svg width="49" height="61" viewBox="0 0 49 61" fill="none" xmlns="http://www.w3.org/2000/svg">
<path fill-rule="evenodd" clip-rule="evenodd" d="M30.3855 49.9036C30.3855 49.9036 30.4359 49.8274 30.444 49.7645C30.452 49.7016 30.5155 49.7095 30.4455 49.6664C30.3754 49.6233 30.0614 49.8217 29.9492 49.7569C29.837 49.6922 29.8683 49.4965 29.5741 49.3099C29.2799 49.1233 28.8683 49.2151 28.5453 49.0631C28.3838 48.9906 28.3162 48.7864 28.1059 48.6642C28.0308 48.6134 27.9507 48.57 27.8672 48.5345C27.8319 48.5339 27.654 48.6011 27.6329 48.5938C27.6118 48.5865 27.5099 48.3258 27.3908 48.254C27.2717 48.1821 27.0238 48.1923 26.8837 48.1061C26.8235 48.0728 26.7599 48.0461 26.6939 48.0263C26.6523 47.9766 26.7597 47.8872 26.697 47.8302C26.6342 47.7733 26.1216 47.5413 25.8139 47.3125C25.5062 47.0837 25.2835 46.8492 24.9408 46.5988C24.8499 46.5274 24.6309 46.5169 24.6171 46.4957C24.6032 46.4745 24.5863 46.173 24.4889 46.0735C24.2595 45.8108 23.5779 45.5204 23.6074 44.9816C23.6093 44.8556 23.9595 44.6298 23.9617 44.4897C23.9617 44.4897 23.8719 44.3413 23.8791 44.3344C24.4194 44.2619 24.9678 44.2703 25.5056 44.3594C25.7602 44.3633 26.0186 44.5705 26.3145 44.645C26.3787 44.6666 26.4398 44.6957 26.4969 44.7318L26.6725 44.8116C26.8069 44.8136 27.0208 44.6978 27.1335 44.7275C27.2462 44.7573 27.3772 44.9835 27.5675 45.0214C27.7579 45.0594 27.9494 45.0273 28.112 45.0298C28.2747 45.0323 28.2304 45.1506 28.3291 45.1732C28.4278 45.1957 28.4797 45.0495 28.5151 45.05C28.5504 45.0505 28.5555 45.1766 28.6049 45.1844C28.9239 45.2597 29.2518 45.2905 29.5794 45.2763C29.6422 44.8711 29.2184 44.8297 28.9447 44.6924C28.4952 44.4824 28.1306 44.2808 27.5978 43.9715C27.4023 43.8796 27.2126 43.776 27.0297 43.6615C26.7646 43.5118 26.5078 43.349 26.2594 43.1735C26.217 43.1729 26.0897 43.171 26.0841 43.0799C26.0784 42.9887 26.085 43.0028 25.8328 42.8449C25.5806 42.6869 25.7487 42.3464 26.2327 42.1507C26.7166 41.9551 27.3699 42.7074 27.6421 42.4804C28.143 42.103 26.9455 41.7695 26.841 41.6699C26.5895 41.4629 26.5583 41.2104 26.4675 41.1389C26.3767 41.0675 26.2765 41.1359 26.1924 41.0856C25.8054 40.9536 25.3615 40.3726 24.9208 40.0507C24.602 39.7395 24.3246 39.3893 24.0952 39.0086C23.9528 38.7391 23.8273 38.4613 23.7191 38.1766L23.563 37.7539C23.5167 37.5595 23.4819 37.3625 23.4588 37.164C23.632 36.9356 23.975 37.1721 24.2258 36.9588C24.8117 36.5757 25.0488 37.7207 25.7418 37.7313C25.8629 37.6702 25.8162 37.4944 25.7909 37.298C25.7656 37.1015 25.5894 37.0568 25.5489 36.9301C25.4991 36.7266 25.4622 36.5201 25.4382 36.3121L25.5368 37.245C25.4883 37.1837 25.4323 37.1287 25.3698 37.0814C25.3069 37.0314 25.1656 37.0291 25.1027 36.9792C25.0398 36.9292 24.9915 36.8375 24.9075 36.7802C24.8235 36.7229 24.5774 36.635 24.4657 36.5423C24.3539 36.4495 24.315 36.2248 24.1754 36.1036C24.0358 35.9824 23.8256 35.8531 23.6646 35.7456C23.5036 35.6381 23.1589 35.5067 23.1466 35.3875C23.1082 35.1208 23.3814 35.2861 23.3909 35.1322C23.281 34.9134 23.12 35.2681 22.8756 35.0612C22.7706 34.7781 22.7559 34.47 22.8329 34.1782C22.8906 34.0585 22.9635 33.9466 23.0501 33.8454C23.2874 33.5899 23.8402 33.5144 24.0923 33.2172C24.179 33.0782 24.2301 32.9204 24.241 32.7573C24.2435 32.5893 24.4323 32.2561 24.1595 32.0558C24.0195 31.9626 23.9961 32.1022 23.9709 31.9057C23.9723 31.8147 23.5031 31.5274 23.3636 31.3992C23.2241 31.271 23.2045 31.1587 23.0788 31.0517C22.9532 30.9447 22.8383 31.048 22.8171 31.0477C22.7959 31.0474 22.7772 30.9 22.7214 30.8501C22.477 30.6433 22.1437 30.2391 21.795 29.9186C21.795 29.9186 21.5543 29.9149 21.526 29.9145C21.4977 29.9141 21.4034 29.6255 21.2417 29.56C21.08 29.4945 21.125 29.334 20.9229 29.1349C20.8672 29.078 20.6696 29.054 20.6277 29.0183C20.3701 28.6779 20.1392 28.3185 19.9369 27.9433C19.8745 27.8653 19.6907 27.8344 19.6141 27.7562C19.1617 27.2801 18.9745 26.5908 19.6873 26.2306C19.9329 26.1327 20.1956 26.0844 20.4603 26.0884C20.7149 26.0923 21.0862 26.3151 21.2334 25.9393C21.3806 25.5634 21.0586 24.9002 20.7615 24.4405C20.6856 24.3203 20.5443 24.311 20.4265 24.1551C20.4265 24.1551 20.5694 24.0593 20.4988 24.0512C20.1462 23.9898 19.8959 23.2437 19.6472 22.8617C19.6472 22.8617 19.541 22.8601 19.5204 22.8177C19.4999 22.7754 19.5791 22.6855 19.607 22.7139C19.4612 22.5366 19.2425 22.5054 19.1531 22.3359C19.083 22.1272 19.0294 21.9132 18.993 21.6961C18.7972 21.0909 18.3889 20.5034 18.569 19.8269C18.6732 19.4923 18.9425 19.4614 18.8595 18.8789C18.8615 18.7459 18.6936 18.6314 18.7595 18.4853C18.9382 18.2471 19.1457 18.0314 19.3775 17.8434C20.0879 17.6442 21.2789 18.3768 20.903 17.5237C20.8694 17.4111 20.6939 17.3174 20.6605 17.1909C20.6537 17.1585 20.6542 17.1251 20.662 17.0929L21.1011 17.982C20.9597 17.9799 20.7846 17.872 20.6716 17.8633C20.5114 17.8718 20.3525 17.8952 20.1967 17.9331C19.8658 17.837 19.5884 17.4755 19.3504 17.3178C19.3079 17.3171 19.1373 17.3705 19.1028 17.314C19.0683 17.2574 18.8885 16.9886 18.7144 16.8108C18.5403 16.6331 18.4623 16.646 18.351 16.5252C18.2914 16.4457 18.2581 16.3496 18.2561 16.2505C17.9988 15.9665 17.7083 16.004 17.7481 15.7105C17.8581 15.6026 18.001 15.5335 18.1545 15.5136C18.3319 15.0192 17.9877 15.7842 18.1146 15.345C18.1518 15.2265 18.2588 15.1652 18.2819 15.0465C18.4248 14.9506 18.5284 15.0993 18.7473 15.1237C18.9661 15.1481 19.1657 15.0601 19.2997 15.0831C19.6029 15.1438 19.7833 15.3777 19.9257 15.3169C20.7511 14.9934 19.7687 14.4881 19.6022 14.2755C19.3045 13.9002 19.0473 13.4949 18.8355 13.0663C18.6329 12.7978 18.4484 12.5165 18.2827 12.2243C18.2518 12.1442 18.2151 12.0666 18.173 11.9916C18.0556 11.7044 17.9634 11.4078 17.8969 11.105C17.8615 10.9715 17.8373 10.8352 17.8251 10.6977C17.8251 10.6977 17.6421 10.6458 17.7205 10.605C18.0124 10.4834 17.723 10.451 17.6479 10.2747C17.5728 10.0985 17.6876 9.98134 17.6211 9.7002C17.6218 9.6582 17.433 9.52922 17.4263 9.50111C17.3938 9.31854 17.432 9.12998 17.4353 8.91295C17.4387 8.69591 17.4414 8.52098 17.4445 8.31794C17.3625 7.69755 17.3888 7.06773 17.5225 6.45626C17.5225 6.45626 17.723 6.29832 17.7463 6.15863C17.8848 5.64229 18.1722 5.17712 18.5733 4.81982C18.7591 4.65987 18.9905 4.56058 19.2355 4.53575C19.483 4.55798 19.7225 4.63402 19.937 4.75835C20.1514 4.88269 20.3356 5.05227 20.4764 5.25509C20.4754 5.31811 20.5074 5.52165 20.5561 5.57142C20.6048 5.62118 20.9143 5.73106 21.0401 5.83103C21.1659 5.931 21.1707 6.09206 21.2624 6.10748C21.7349 6.19877 21.7857 5.65342 21.8613 5.33945C21.9368 5.02548 22.195 4.78441 22.1167 4.35603C22.0834 4.22246 22.4371 3.76556 22.6249 3.51634C22.6898 3.4333 22.7275 3.27981 22.8072 3.15498L24.0766 1.99103L23.7421 3.98879C23.741 4.0588 23.6268 4.12711 23.6328 4.19723C23.6388 4.26735 23.8001 4.34685 23.7998 4.36786C23.7976 4.50788 23.6114 4.66602 23.5525 4.81918C23.4936 4.97234 23.5975 5.11405 23.5461 5.23231C23.4948 5.35057 23.3106 5.36869 23.1882 5.51387C23.0416 5.80246 22.8791 6.08281 22.7015 6.35372C22.4633 6.54191 22.2071 6.70681 21.9369 6.84617C21.5153 7.12681 21.133 7.61814 20.802 7.52902C20.6888 7.52729 20.614 7.32312 20.4739 7.23693C20.3338 7.15074 20.1351 7.18963 19.9475 6.96966C19.76 6.74969 19.6728 6.45427 19.5337 6.30507C19.5337 6.30507 19.3781 6.30275 19.3159 6.20376C19.2231 5.93549 19.1515 5.66032 19.102 5.38102C19.0625 5.19134 19.0073 5.10652 18.9747 4.92395C18.902 4.59369 18.8907 4.42553 18.3552 4.29125C18.1223 4.24306 17.8823 4.23937 17.6481 4.28039C17.4145 4.42518 17.2082 4.60909 17.0385 4.82411L16.945 4.92782L16.822 5.094C16.7425 5.20482 16.663 5.32265 16.5904 5.44059L16.3942 5.78071C16.3934 5.83672 16.3361 5.87784 16.3068 5.94042L16.219 6.14919C15.872 6.87062 15.7371 7.6743 15.8298 8.46822C15.8548 8.63413 15.8898 8.79834 15.9351 8.96C15.9757 9.07968 16.0163 9.19936 16.0638 9.32614C16.1675 9.5879 16.289 9.84232 16.4272 10.0879C16.482 10.183 16.5418 10.2752 16.6067 10.3639L16.7799 10.5975C16.9013 10.7623 17.0311 10.921 17.1687 11.0728L19.2853 4.50848C18.9933 4.56153 18.7041 4.62959 18.4192 4.7123C18.145 4.80484 17.8766 4.91294 17.6151 5.03608C17.2895 5.23388 16.985 5.46383 16.7063 5.72241C15.5922 6.52333 14.759 7.64915 14.323 8.94225C13.9853 9.85074 13.9381 10.84 14.1876 11.7762C14.2617 12.0154 14.18 12.2523 14.2303 12.6592C14.3581 13.0738 14.5104 13.4808 14.6858 13.8779C14.7303 14.1813 14.7939 14.4816 14.8768 14.777C14.9111 14.8406 15.0102 14.8561 15.0089 14.9401C15.0076 15.0241 14.9427 15.0933 14.9151 15.0438C15.0596 15.3052 15.2573 15.3431 15.3395 15.5195C15.516 15.9984 16.0203 17.2457 16.0181 17.3858C15.9572 17.4398 15.8995 17.4974 15.8456 17.5582C15.8456 17.5582 15.7087 17.7171 15.7728 17.6831C15.6231 17.7648 15.4493 17.573 15.399 17.6283C15.339 17.7097 15.2986 17.8038 15.2811 17.9031C15.2637 18.0024 15.2697 18.1043 15.2983 18.201C15.2957 18.2556 15.3046 18.3101 15.3245 18.3611C15.3445 18.4121 15.3749 18.4582 15.414 18.4969C15.6066 18.6988 15.8476 18.8495 16.1145 18.9349C16.3639 19.0488 16.5991 19.1909 16.8153 19.3587C16.8979 19.4193 16.9846 19.4744 17.0745 19.5237C17.1444 19.5808 17.3274 19.6118 17.2625 19.6948C17.201 20.016 17.3939 20.3551 17.115 20.5539C16.8361 20.7527 16.2215 20.7082 16.1071 20.7904C16.0518 20.8233 16.0088 20.8727 15.9837 20.9315C15.9586 20.9902 15.953 21.0553 15.9677 21.1174C15.9936 21.2659 15.9913 21.418 15.9608 21.5656C15.9598 21.6356 15.7895 21.668 15.7532 21.7305C15.7275 21.7791 15.7077 21.8304 15.6942 21.8836C15.695 21.8276 15.6935 21.9255 15.6927 21.9815L15.6261 22.1766C15.5433 22.4223 15.4277 22.656 15.2829 22.8716C15.0376 23.183 14.5673 23.4139 14.3707 23.7821C14.042 24.5366 13.8183 25.3316 13.7051 26.1457C13.6141 26.5505 13.5298 26.9694 13.4384 27.3882C13.3685 27.7836 13.3223 28.1827 13.2999 28.5835C13.2941 28.9616 13.4093 29.2855 13.4032 29.6846C13.3905 30.5108 13.1032 31.2557 13.1933 31.8383C13.1912 31.9713 13.38 32.1144 13.3639 32.2402C13.3172 32.5196 13.0236 32.746 12.9893 33.1376C12.955 33.5293 12.9795 33.7748 12.9742 34.1179C12.9723 34.4716 12.9266 34.8237 12.8379 35.1662C12.8003 35.3127 12.7213 35.3956 12.6839 35.528C12.6465 35.6605 12.6774 35.955 12.611 36.1361C12.5446 36.3171 12.404 36.252 12.3744 36.3426C12.3447 36.4332 12.3131 36.6427 12.2966 36.7965C12.2637 36.9897 12.2039 37.1773 12.1185 37.354C11.9874 37.5971 11.7792 37.804 11.6623 38.0473C11.5937 38.3684 11.5679 38.6622 11.5061 38.9974C11.5048 39.1726 11.4684 39.3457 11.3992 39.5069C11.3987 39.5419 11.3971 39.6399 11.3402 39.6601C11.2637 39.6523 11.1882 39.637 11.1147 39.6146C11.1147 39.6146 11.2176 39.8192 11.2017 39.931C11.1476 40.1528 11.0172 40.3489 10.8327 40.4856C10.7751 40.5477 10.7225 40.736 10.6317 40.6646C10.6105 40.6535 10.5936 40.636 10.5831 40.6148V40.6148L10.5824 40.6568L10.5811 40.7409C10.5806 40.7759 10.5811 40.7409 10.5811 40.7409C10.5802 40.7176 10.5806 40.6941 10.5822 40.6708L10.5482 40.5934C10.5482 40.5934 10.4863 40.4732 10.4656 40.4379L10.4309 40.3814C10.3965 40.3422 10.3664 40.2994 10.341 40.2539C10.2898 40.1758 10.2317 40.1023 10.1675 40.0343C10.0686 39.9137 9.96169 39.7998 9.84746 39.6932C9.51332 39.345 8.75092 38.7939 9.55462 39.4225L9.93111 39.7785C10.1032 39.9464 10.2569 40.1318 10.3895 40.3317C10.4586 40.4235 10.5165 40.5231 10.5618 40.6285C10.575 40.6582 10.5862 40.6889 10.5956 40.7201L10.596 40.6921C10.6022 40.6456 10.6029 40.5987 10.5982 40.5521C10.6295 40.3132 10.6899 40.0789 10.7785 39.8546C10.8723 39.6169 10.9801 39.3848 11.1006 39.1592C11.2475 38.8913 11.4096 38.6318 11.5864 38.3823C11.6876 38.2368 11.7957 38.1055 11.9039 37.9671C11.9729 37.8706 12.0476 37.7782 12.1275 37.6903C12.0835 37.7347 12.0258 37.7635 11.9636 37.7719C11.8292 37.7698 11.7179 37.642 11.4998 37.5687C11.4432 37.5678 11.2806 37.5653 11.217 37.5643C11.1534 37.5633 11.1419 37.388 11.058 37.3237C10.8931 37.2114 10.7135 37.1216 10.5244 37.0565C10.3648 36.9714 10.2226 36.8577 10.1052 36.721C9.94192 36.5286 9.79607 36.3224 9.66912 36.1049L7.83837 33.2757L6.30727 33.4903C6.15944 33.5063 6.01565 33.5466 5.88135 33.6098C5.79585 33.6505 5.70192 33.7751 5.63089 33.795C5.55985 33.8149 5.46164 33.7574 5.36918 33.791C5.27672 33.8246 4.96322 33.9738 4.83595 33.9719C4.70867 33.9699 4.62289 33.5764 4.25732 33.8929C4.14986 33.9823 4.03615 34.0086 3.93598 34.0841C3.83295 34.1814 3.76215 34.3072 3.73255 34.4451C3.73115 34.5361 3.63004 34.6537 3.60796 34.7094C3.58589 34.7651 3.60808 34.7093 3.54282 34.8134C3.45636 34.941 3.36228 35.0635 3.26126 35.1802C3.17533 35.2489 3.26197 35.1382 3.15526 35.1786C2.89033 35.3758 2.60861 35.5496 2.31293 35.6979C2.15661 35.7445 2.10143 35.6526 1.94522 35.6922L1.90276 35.6916C1.83707 35.4622 1.84081 35.2187 1.91351 34.9915C2.08422 34.657 2.29303 34.3429 2.53604 34.0556C2.76618 33.807 3.39008 33.2424 3.51233 33.1113C3.63458 32.9801 3.84396 32.7101 4.00253 32.5165C4.31228 32.1501 4.44156 32.0121 4.3866 31.9062C4.33165 31.8003 4.26577 31.9604 4.2737 31.9045C4.30708 31.8504 4.3483 31.8013 4.39611 31.7591C4.39611 31.7591 4.18231 31.861 4.16132 31.8466C4.14032 31.8323 4.20557 31.7283 4.16336 31.7137C4.12115 31.699 3.99303 31.7599 3.93657 31.7521C3.88011 31.7442 3.97321 31.6687 3.93807 31.6541C3.90293 31.6396 3.76107 31.6514 3.71158 31.6506C3.66208 31.6499 3.7144 31.4756 3.50238 31.4654C3.50238 31.4654 3.28244 31.518 3.27548 31.5109C3.26851 31.5038 3.31973 31.3926 3.27774 31.3639C3.23574 31.3353 3.11506 31.3614 3.05914 31.3185C3.00322 31.2756 3.10993 31.2352 3.06054 31.2274C3.01115 31.2197 2.84036 31.2731 2.8334 31.266C2.82643 31.2589 2.80081 31.0905 2.74532 31.0196C2.68983 30.9488 2.52155 30.855 2.42427 30.7415C2.39559 30.713 2.37424 30.6782 2.36195 30.6398C2.34965 30.6015 2.34692 30.5607 2.35376 30.5211C2.3606 30.4814 2.37691 30.444 2.40136 30.4119C2.42581 30.3797 2.45743 30.3538 2.49404 30.3363C2.8987 30.2375 2.54136 30.4772 2.81788 30.4324C2.95374 30.3365 2.81967 30.3134 2.95552 30.2174C3.09138 30.1215 3.38167 30.1189 3.41821 30.0425C3.45475 29.966 3.24422 29.8578 3.23126 29.7806C3.2183 29.7033 3.3062 29.5085 3.28028 29.3541C3.2648 29.2913 3.23388 29.2331 3.19068 29.1846C3.15034 29.0936 3.12811 28.9959 3.12465 28.8966C3.10808 28.1654 3.20993 27.4364 3.42649 26.7372C3.47771 26.626 3.61247 26.6071 3.69207 26.4893C3.77168 26.3715 3.76157 26.0982 3.88414 25.946C4.00672 25.7938 4.45485 25.6186 4.63485 25.4113C4.95864 25.0521 4.94619 24.4917 5.17924 24.0541C5.23753 23.943 5.41594 23.8335 5.45291 23.729C5.5562 23.4505 5.50399 23.1626 5.58618 22.8768C5.66837 22.5909 5.95751 22.1823 6.09135 21.7572C6.14859 21.3893 6.23962 21.0274 6.36282 20.6758C6.50115 20.4189 6.9779 20.223 7.13112 19.9173C7.30779 19.3619 7.41629 18.7876 7.45439 18.2065C7.45439 18.2065 7.32736 18.2047 7.35704 18.1141C7.48125 17.7301 7.54699 17.3297 7.5521 16.9265C7.55877 16.4924 7.56597 16.0235 7.57113 15.6874C7.5736 15.5264 7.70805 15.5074 7.70356 15.3393C7.69029 15.106 7.69388 14.872 7.71432 14.6392C7.71722 14.4501 7.59951 14.3011 7.60873 14.1612C7.65326 13.7543 7.65956 13.3441 7.62755 12.936C7.63002 12.775 7.73792 12.6506 7.71286 12.4401C7.71437 12.3421 7.56588 11.8776 7.52175 11.5268C7.52175 11.5268 7.33796 11.5241 7.40289 11.441C7.73289 11.138 6.92674 10.6633 6.80559 10.2623C6.72514 9.9739 6.91385 9.66871 6.94858 9.24907C6.97485 8.62152 6.88842 7.99435 6.69385 7.39647C6.59305 7.05178 6.50679 6.69329 6.364 6.31994L5.90685 5.23445C5.80445 4.99478 5.35876 4.52584 5.68083 4.27868C6.08885 5.34238 6.80945 6.33384 7.13915 7.43135C7.19325 7.59325 7.13223 7.86532 7.21461 8.02765C7.29699 8.18998 7.54104 8.43192 7.60841 8.65004C7.67579 8.86817 7.56072 8.99233 7.5996 9.22402C7.59798 9.32904 7.75167 9.44351 7.79098 9.6472C7.83029 9.85089 7.78378 10.1163 7.78023 10.3473C7.94432 11.1762 8.2642 11.9864 8.35168 12.737C8.37084 12.8648 8.36884 12.9949 8.34577 13.1221C8.34448 13.2061 8.13994 13.189 8.12375 13.3218C8.10757 13.4546 8.32675 13.451 8.347 13.5143C8.36724 13.5777 8.23135 13.6806 8.23799 13.7088C8.30566 14.1892 8.31942 14.6756 8.27926 15.159C8.23559 15.683 8.22751 16.2093 8.25507 16.7343C8.31722 17.0149 8.36495 17.2984 8.39777 17.5838C8.3358 18.3952 7.92215 19.0751 7.94269 19.5796C7.94087 19.6986 8.13339 20.0447 8.08925 20.1561C8.0451 20.2675 7.88431 20.153 7.86234 20.2017C7.72541 20.3677 7.82238 20.4951 7.5797 20.6385C7.33703 20.7818 7.15296 20.807 7.07881 21.03C7.00466 21.2529 7.07206 21.464 6.98312 21.7288C6.89418 21.9935 6.7519 22.0403 6.68568 22.2074C6.58833 22.6688 6.5174 23.1353 6.47324 23.6047C6.43552 23.7582 6.24269 23.8954 6.17636 24.0694C6.11003 24.2435 6.16747 24.6295 6.04264 24.9287C6.04092 25.0408 5.81253 25.1912 5.76121 25.3094C5.60702 25.6782 5.8173 25.7936 5.44778 25.9069L5.22099 25.9455C5.14898 26.0284 5.259 26.2192 5.16589 26.2948C5.07279 26.3704 4.88324 26.2905 4.83375 26.2897C4.6918 26.4025 4.55955 26.527 4.43883 26.6618C4.3665 26.7658 4.43431 26.9629 4.36777 27.1509C4.30123 27.339 4.05076 27.5311 4.03017 27.951C4.02942 28 4.15597 28.0439 4.11975 28.0994C4.00622 28.3344 3.933 28.5866 3.90316 28.8454C3.90101 28.9855 4.0469 29.1559 4.05889 29.2961C4.07089 29.4363 3.99903 29.5191 4.0182 29.6525C4.07635 30.0105 4.71813 30.1394 4.149 30.3548C4.04936 30.3952 4.14817 30.3898 4.02732 30.43C3.90647 30.4702 3.90017 30.4281 3.8002 30.4896C3.58646 30.5914 3.57879 30.6331 3.66256 30.7044C3.74634 30.7758 3.79685 30.7065 3.76856 30.7061C3.74028 30.7056 3.61942 30.7388 3.65445 30.7604C3.68949 30.7819 3.93761 30.7648 3.97907 30.8285C4.02053 30.8921 3.97587 31.0314 4.06726 31.0678C4.15864 31.1042 4.36498 31.0235 4.40729 31.0311C4.44961 31.0388 4.40589 31.1291 4.50456 31.1516C4.62142 31.1552 4.73804 31.1428 4.8515 31.1149C4.901 31.1157 4.90093 31.1157 4.9575 31.1165C5.01407 31.1174 5.17826 31.022 5.1924 31.0222C5.20655 31.0224 5.13379 31.1543 5.19025 31.1622C4.81826 31.4366 4.96199 31.2848 4.59707 31.5593C4.88744 31.3932 5.1647 31.2055 5.42623 30.9977C5.37512 31.102 5.42407 31.1307 5.29432 31.2898C5.16456 31.4488 5.04291 31.559 4.6828 31.9807L3.70434 33.0441L3.09248 33.735C2.95533 33.915 3.05437 33.9165 2.95204 34.1321C2.908 34.2364 2.72024 34.5066 2.69816 34.5622C2.67609 34.6179 2.66034 34.7227 2.69537 34.7443C2.97189 34.6164 3.24083 34.4734 3.50108 34.3156C3.66501 34.234 3.71395 34.2698 3.84274 34.1738C3.97152 34.0777 4.1521 33.8213 4.19495 33.794C4.23781 33.7666 4.14355 33.9262 4.15834 33.8844C4.17313 33.8426 4.21743 33.7103 4.34825 33.4812L4.53701 33.1759C4.57334 33.1134 4.44294 33.3146 4.53551 33.274C4.62808 33.2334 4.98071 32.8397 5.10189 32.7785C5.39427 32.6219 5.54754 33.2335 5.97161 32.7919C6.0435 32.7159 6.22541 32.8378 6.38869 32.7983L7.97803 32.4795L10.3444 35.8912C10.3705 35.9377 10.4076 35.9772 10.4528 36.006C10.4981 36.0348 10.5501 36.052 10.6037 36.0562C10.837 36.0598 10.7458 36.0164 10.8061 36.2344C10.8664 36.4524 11.0775 36.5118 11.3381 36.5788C11.5988 36.6459 11.3365 36.6838 11.3345 36.8168C11.4422 36.8881 11.5608 36.9419 11.6857 36.9762C11.7635 36.9774 11.9048 36.9796 11.9543 36.9803C12.0038 36.9811 12.0148 37.1844 12.1134 37.2139C12.2406 37.206 12.3668 37.1844 12.4894 37.1496C12.5318 37.1503 12.4237 37.2818 12.4872 37.2898C12.5529 37.2551 12.6131 37.2111 12.6661 37.1593V37.1593L12.4789 37.3596L12.148 37.7257L11.6647 38.3416C11.5491 38.5009 11.4189 38.7018 11.296 38.875C11.1731 39.0482 11.1727 39.0763 11.1143 39.1945C11.0559 39.3126 11.005 39.3818 10.9467 39.493C10.7681 39.8413 10.6456 40.2151 10.5833 40.6009C10.5787 40.6685 10.5776 40.7361 10.5802 40.8038C10.5786 40.9018 10.6368 40.8048 10.36 40.4084C10.2775 40.2767 10.1822 40.1533 10.0756 40.0399C10.0023 39.9519 9.92333 39.8688 9.83905 39.7911L9.69943 39.6629L9.52513 39.4992C9.37171 39.3568 9.08487 39.1563 9.05701 39.1278L8.78427 38.9205C8.58832 38.7845 8.48308 38.7268 8.39201 38.6693L8.02095 38.4327L7.68445 38.2384L7.58622 38.1808L7.7334 38.2672L8.23122 38.5479L8.2804 38.5837L8.37818 38.6481L8.49726 38.72C8.64435 38.8133 8.7287 38.8636 8.92454 39.0066L9.1199 39.1709L9.30199 39.2997C9.38028 39.3569 9.45479 39.4188 9.52534 39.4852C9.69954 39.6559 9.83236 39.7629 9.95759 39.8979L10.2563 40.2387L10.4293 40.4864C10.4638 40.5429 10.505 40.6416 10.5188 40.6628L10.443 40.5146L10.3187 40.3307C10.2221 40.1751 10.0267 39.9901 10.1107 40.0474C10.1947 40.1047 10.2999 40.1623 10.3288 40.1277C10.3576 40.0931 10.2543 39.9165 10.2694 39.8538C10.2845 39.791 10.3419 39.7288 10.4134 39.6739C10.491 39.6122 10.5569 39.5373 10.6078 39.4527C10.6411 39.3568 10.6688 39.2591 10.6904 39.1599L10.6932 38.9779C10.7012 38.9003 10.7141 38.8233 10.7319 38.7473C10.7856 38.475 10.6837 38.2005 10.7437 37.9773C10.7623 37.9069 10.7945 37.8408 10.8386 37.7827C10.9391 37.6862 11.0677 37.618 11.1263 37.4858C11.2012 37.3343 11.2604 37.1757 11.3032 37.0124C11.3406 36.8799 11.2654 36.7106 11.3096 36.5923C11.4266 36.3419 11.6105 36.3589 11.6906 36.2061C11.7707 36.0532 11.6307 35.96 11.6542 35.8133C11.6591 35.4913 12.1006 35.295 11.9499 34.9705C11.9159 34.886 11.8108 34.8213 11.8049 34.7442C11.799 34.667 11.972 34.4597 11.9888 34.2849C12.0056 34.11 11.8791 34.0591 11.8597 33.9397C11.8404 33.8204 11.9949 33.8857 12.0099 33.8299C12.0249 33.7741 11.8722 33.5827 11.8877 33.4919C11.9032 33.4011 12.03 33.4311 12.0239 33.368C12.0178 33.3049 11.8576 33.1554 11.8589 33.0714C11.8602 32.9874 12.0023 32.9475 12.0251 32.8428C12.0479 32.7381 11.9434 32.6315 11.9587 32.5547C11.9616 32.3657 12.1196 32.2 12.1508 32.0114C12.182 31.8228 12.0559 31.7508 12.0791 31.6181C12.1024 31.4854 12.2243 31.3752 12.2333 31.2493C12.2314 31.0008 12.2141 30.7525 12.1812 30.5062C12.1457 30.2544 12.1713 29.998 12.2562 29.7581C12.2956 29.6543 12.3447 29.5542 12.4024 29.4591C12.4046 29.3121 12.2508 29.1978 12.2178 29.0432C12.1874 28.629 12.2417 28.213 12.3778 27.8202C12.4476 27.4221 12.3916 26.938 12.4899 26.5263C12.6663 25.7482 12.8928 24.982 13.1685 24.2327C13.3758 23.6267 13.3344 23.1008 13.7091 22.6514C13.9033 22.4373 14.3352 22.4159 14.5233 22.1387C14.5658 22.057 14.5979 21.9705 14.6192 21.8811C14.6201 21.8181 14.6568 21.7486 14.672 21.6788L14.6737 21.5669L14.6746 21.5108C14.661 21.3967 14.6627 21.2813 14.6798 21.1677C14.681 21.0907 14.7742 21.008 14.8182 20.9037L14.8189 20.8618C14.8855 20.6667 14.7617 20.4266 14.9675 20.3807C15.1733 20.3349 15.9717 20.3963 16.0996 20.3562C16.2275 20.3162 16.4838 19.7528 16.3428 19.7226C16.2018 19.6924 16.1675 19.6289 15.9568 19.5346L15.8719 19.5333C15.7793 19.5205 15.6874 19.5029 15.5967 19.4802C15.3932 19.379 15.3392 19.2171 15.1428 19.109C14.9464 19.001 14.7694 19.0191 14.6571 18.9614C14.5448 18.9036 14.6588 18.8564 14.5817 18.8132C14.5045 18.77 14.3135 18.7531 14.2858 18.7177C14.1832 18.4781 14.1182 18.2244 14.0925 17.9654C14.1866 17.7232 14.3038 17.4905 14.4427 17.2704C14.7431 17.051 14.9862 17.3278 15.075 17.07C15.1068 16.7484 15.0535 16.4243 14.9199 16.1294C14.852 15.9463 14.6254 15.9427 14.4942 15.7376C14.363 15.5325 14.5002 15.3596 14.3773 15.0776C14.3162 14.9086 14.1552 14.801 14.1013 14.6321C14.0609 14.2428 13.9983 13.8562 13.9139 13.4738C13.9146 13.4318 13.697 13.3094 13.6903 13.2813C13.6823 13.1156 13.6848 12.9496 13.698 12.7842C13.701 12.5882 13.5265 12.4315 13.5008 12.263C13.4554 11.5304 13.4667 10.7954 13.5346 10.0645C13.5218 9.73153 13.5485 9.39828 13.6137 9.07138C13.7102 8.77874 13.9175 8.62786 14.0133 8.37723C14.1833 7.89664 14.1372 7.6789 14.2761 7.38691C14.4705 7.13096 14.6798 6.88629 14.9027 6.65419C15.0918 6.35158 15.3016 6.06232 15.5311 5.78848C15.8344 5.53551 16.1572 5.30633 16.4965 5.10302C16.7967 4.89754 16.8061 4.75761 17.1626 4.567C17.7152 4.3557 18.2923 4.2139 18.8806 4.14511C19.0014 4.12069 19.1201 4.08747 19.2358 4.04559L16.8522 11.4251C16.6458 11.2721 16.4564 11.0979 16.2872 10.9052C16.2387 10.8415 16.1835 10.7635 16.1352 10.6858C16.0869 10.608 16.0384 10.5372 15.9491 10.3678C15.7894 10.057 15.6546 9.73402 15.5464 9.40214L15.4727 9.14199C15.4744 9.02997 15.4128 8.88894 15.3936 8.76259C15.3472 8.50288 15.3184 8.24035 15.3069 7.97686C15.2856 7.46314 15.3435 6.94928 15.4788 6.45292C15.539 6.21574 15.6063 5.97868 15.6804 5.75572C15.7349 5.58988 15.7987 5.42723 15.8716 5.26849C15.9806 4.98504 16.1299 4.7184 16.3151 4.47688C16.6141 4.16588 16.9651 3.9084 17.3525 3.71559L17.6595 3.53822L17.8658 3.43624C17.9728 3.38186 18.0374 3.34091 18.002 3.34037C18.2454 3.36079 18.4725 3.46889 18.6407 3.64424C18.8491 3.81631 19.0339 4.01459 19.1904 4.23398C19.3153 4.46922 19.4066 4.72047 19.4618 4.9805C19.5298 5.15661 19.6134 5.24181 19.6608 5.38259C19.7784 5.73641 19.963 6.06493 20.2047 6.35042C20.4677 6.72562 20.4103 6.77383 20.7143 6.7855C21.0182 6.79717 20.7167 6.62447 21.0024 6.43978C21.1455 6.33694 21.3719 6.32632 21.5368 6.18179C21.7017 6.03726 21.7474 5.84882 21.8689 5.76665C21.9904 5.68448 22.2223 5.77215 22.3016 5.67533C22.4783 5.42652 22.5852 5.13583 22.6116 4.83277C22.6156 4.75241 22.6286 4.67269 22.6504 4.5952C22.7241 4.40026 22.9365 4.40349 23.017 4.22265C23.0478 4.06327 23.0503 3.89985 23.0245 3.73961C23.0212 3.7187 23.0215 3.69751 23.0254 3.67671L23.2138 3.84766C23.131 3.95406 23.0624 4.07072 23.0102 4.19468C23.0085 4.3067 23.1175 4.58147 23.0733 4.69983C22.9473 5.06905 22.559 5.04203 22.5658 5.51833C22.5644 5.60935 22.5073 5.64352 22.5626 5.72841C22.6179 5.81329 22.7087 5.88471 22.7083 5.90572C22.708 5.92672 22.5316 5.90291 22.5161 5.98671C22.5007 6.07051 22.6621 6.13605 22.6399 6.20574C22.4618 6.74923 21.9166 7.25907 20.8457 6.52833L20.5801 6.32815C20.5801 6.32815 20.3281 6.14918 20.3073 6.12085C20.2865 6.09252 20.3134 5.72881 20.1806 5.62173C20.0348 5.58937 19.8914 5.54745 19.7512 5.49614C19.6876 5.49516 19.5713 5.22718 19.3945 5.22446C19.2177 5.22175 19.3149 5.3423 19.1865 5.41036C19.1064 5.41324 19.0262 5.41201 18.9462 5.40667C18.7227 5.71606 18.5393 6.05217 18.4004 6.40683C18.3341 6.58088 18.3939 6.83391 18.2837 7.10533C18.1322 7.46544 18.0611 7.85363 18.0752 8.24351C18.0733 8.36954 18.0707 8.53763 18.0687 8.66366C18.0668 8.78968 18.206 8.92488 18.2186 9.02311C18.2136 9.5592 18.2407 10.095 18.3 10.6279C18.3947 10.9094 18.7312 11.1248 18.7923 11.2938C18.76 11.4436 18.7577 11.5981 18.7853 11.7489C18.7842 11.8189 18.9872 11.9481 18.9937 11.9832C19.0002 12.0183 18.8429 12.1278 18.877 12.2054C18.9112 12.2829 19.0601 12.2713 19.2061 12.4346C19.3521 12.5979 19.202 12.6866 19.3134 12.8004C19.4169 12.9045 19.5293 12.9998 19.6488 13.0856C19.7668 13.1467 19.8813 13.2139 19.9921 13.287C20.0547 13.3579 19.9891 13.4831 19.9879 13.5601C19.9867 13.6371 20.1986 13.6613 20.2195 13.6827C20.2404 13.704 20.2785 13.9707 20.3688 14.0771C20.6109 14.2922 20.8679 14.4905 21.1378 14.6703C21.4237 14.9337 21.6619 15.0984 21.532 15.2644C21.4022 15.4305 21.2758 15.3656 21.1329 15.4614C20.99 15.5573 21.1311 15.5805 20.9674 15.648C20.4084 15.8622 19.8146 15.9741 19.2152 15.9782C19.3155 16.3579 19.8306 16.4429 20.083 16.5869C20.3354 16.7308 20.4104 16.9139 20.6218 16.9661C20.7642 16.9975 20.9119 16.9975 21.0542 16.9658C21.1965 16.9341 21.3297 16.8716 21.4448 16.7828C21.4746 16.772 21.5076 16.7725 21.537 16.7843L21.855 16.7891L21.9203 17.5954C21.918 17.621 21.9177 17.6467 21.9191 17.6723C21.9536 17.7289 22.0659 17.8008 22.1006 17.8433C22.1353 17.8859 22.0985 17.9692 22.1613 18.0262C22.2915 18.1176 22.3868 18.2498 22.4315 18.4015C22.5476 18.6694 22.5691 18.6489 22.179 18.7199C21.7889 18.791 20.4477 18.6163 20.1893 18.8644C19.9309 19.1126 20.3661 19.3292 20.439 19.6525C20.439 19.6525 20.2961 19.7483 20.3447 19.8121C20.3932 19.8759 20.5268 19.9269 20.3824 20.1208C20.238 20.3146 19.9997 20.1709 19.6698 20.467C19.7265 20.8908 19.8097 21.3108 19.9192 21.7243C19.9669 21.8371 20.1362 21.8678 20.2123 21.974C20.2885 22.0802 20.3751 22.4387 20.5199 22.679C20.862 23.1314 21.1759 23.6039 21.46 24.094C21.46 24.094 21.6295 24.0966 21.6138 24.1944C21.5982 24.2922 21.4937 24.1926 21.5345 24.2983C21.5754 24.404 21.7664 24.4068 21.8499 24.4991C22.1442 24.8912 22.3628 25.3338 22.4946 25.8046C22.4946 25.8046 22.3717 25.9708 22.3496 26.0265C22.1497 26.2809 21.8963 26.4892 21.6071 26.6371C21.3178 26.785 20.9999 26.869 20.6746 26.8831C20.3063 26.9195 20.1641 26.9663 20.2853 27.3673C20.2843 27.4303 20.461 27.426 20.4806 27.5314C20.4983 27.7114 20.5724 27.8814 20.6924 28.0178C20.8944 28.224 21.1622 28.2841 21.2036 28.3548C21.4307 28.7644 20.9501 28.736 21.4497 28.8978C21.8299 29.0157 22.1463 29.6088 22.5719 29.9935C22.8022 30.1931 23.0823 30.3585 23.3404 30.5936C23.452 30.6933 23.5201 30.8624 23.632 30.9412C23.744 31.02 23.8745 30.8328 23.9588 30.8691C24.0359 30.9962 24.1316 31.111 24.2433 31.2096C24.5218 31.3682 24.7603 31.5875 24.9407 31.8507C25.0306 31.9851 24.9368 32.1238 24.9989 32.2227C25.1566 32.5473 25.4364 32.7336 25.0969 33.1976C25.0969 33.1976 24.9252 33.335 24.9249 33.356C24.9215 33.573 24.8665 33.4672 24.6149 33.7294C24.5646 33.7777 24.4986 33.9238 24.4699 33.9513C24.1334 34.2193 23.7079 34.3037 23.6547 34.548C23.6014 34.7922 24.4764 35.3869 24.7414 35.6361C25.0063 35.8853 24.9683 36.0457 25.2994 36.1349C25.6304 36.224 25.4386 36.284 25.676 36.4838C25.7184 36.4844 25.8599 36.4867 25.9501 36.6001C26.0403 36.7136 26.1892 36.6738 26.224 36.7093C26.2588 36.7449 26.2206 36.9473 26.3256 37.019C26.3648 37.0425 26.4073 37.0597 26.4519 37.07L26.3972 36.4948C26.4429 36.5518 26.4822 36.6135 26.5146 36.6787C26.5756 36.8477 26.5599 36.9456 26.6282 37.1077C26.7348 37.2955 26.8681 37.4673 27.0237 37.618C27.0783 37.7449 26.9362 37.7776 26.9699 37.8832C27.0036 37.9888 27.3176 38.2738 26.8968 38.5054C26.6757 38.6281 26.6029 38.76 26.5247 38.7868C26.1267 38.9137 25.9226 38.8475 25.3046 38.5579C25.2693 38.5574 24.4746 37.803 24.2812 37.9611C24.0878 38.1192 24.1759 38.3655 24.3635 38.5855C24.4608 38.699 24.5791 38.8199 24.6976 38.9338C24.8218 39.0243 24.9385 39.1245 25.0467 39.2334C25.224 39.4566 25.3835 39.6932 25.5238 39.941C25.5948 40.0478 25.6877 40.1386 25.7963 40.2078C25.9048 40.277 26.0265 40.3229 26.1541 40.3427C26.4793 40.3477 26.319 40.6675 26.7127 40.8206C26.7481 40.8211 26.9737 40.8665 26.9806 40.8736C26.9876 40.8807 27.0398 41.1616 27.152 41.2264C27.2642 41.2911 27.4152 41.1394 27.5128 41.2319C27.5963 41.3031 27.6753 41.3792 27.7497 41.4597C27.9027 41.6301 27.9337 41.9177 28.0315 41.9963C28.1293 42.0748 28.2596 41.8808 28.3582 41.9103C28.4567 41.9398 28.5866 42.2358 28.7055 42.3217C28.8244 42.4076 29.1161 42.2791 29.1111 42.6011C29.0006 42.7642 28.8433 42.8905 28.6594 42.9638C28.4754 43.0372 28.2733 43.0541 28.0795 43.0124C28.0017 43.0112 27.8603 43.009 27.8109 43.0082C27.7614 43.0075 27.8914 42.8274 27.8138 42.8192C27.7361 42.811 27.5649 42.9065 27.487 42.9123C27.4091 42.9181 27.0226 42.7441 26.716 42.9005C26.8047 43.1119 26.953 43.1352 27.1356 43.215C27.171 43.2156 27.1688 43.3485 27.2112 43.3562C27.2535 43.3638 27.474 43.2902 27.572 43.3617C27.6699 43.4333 27.731 43.5954 27.8647 43.6394C28.1743 43.7422 28.6779 43.6518 28.9215 43.9077C29.0259 44.0143 28.9161 44.2508 29.0217 44.2874C29.1272 44.324 29.4537 44.259 29.6936 44.2977C29.9334 44.3364 31.0985 44.9075 31.0564 45.348C30.9358 45.5465 30.7982 45.7342 30.6448 45.909C30.4444 46.06 30.4187 45.9056 30.2832 45.9735C30.1478 46.0415 30.2831 45.9734 30.1973 46.0351C29.9027 46.3387 29.8932 46.0306 29.6112 45.9702C29.5193 45.9688 29.2195 46.1391 29.0708 46.1509C29.0354 46.1503 28.9305 46.0858 28.888 46.0851C28.4104 45.9875 27.9398 45.8587 27.4794 45.6993C27.2609 45.654 26.9986 45.6919 26.7729 45.6534C26.5471 45.615 26.4649 45.4316 26.2804 45.4708C26.238 45.4702 26.1159 45.5943 26.0877 45.5868C25.8342 45.5129 25.7043 45.2379 25.4646 45.1852C25.225 45.1325 24.9893 45.2688 24.7212 45.2227C24.3989 45.4839 24.8657 45.4842 24.7139 45.6989C24.5715 45.7598 24.5545 45.5003 24.3975 45.5889C24.2406 45.6775 24.5703 45.8368 24.7139 45.6989C25.044 45.3889 25.0979 46.0198 25.21 46.0916C25.3221 46.1633 25.4017 46.0525 25.4859 46.0958C25.5701 46.1391 25.6019 46.3637 25.7066 46.4493C25.8114 46.535 26.2616 46.7171 26.5274 46.9102C26.7932 47.1034 27.2207 47.8032 27.5388 47.8151C27.6166 47.8163 27.796 47.6581 27.8591 47.694C27.9222 47.73 27.9821 47.9549 28.1427 48.0904C28.3033 48.226 28.6858 48.1898 28.8469 48.2903C29.0081 48.3909 28.9127 48.6345 29.0039 48.685C29.1102 48.7138 29.2186 48.7343 29.3282 48.746C29.3848 48.7469 29.4679 48.8461 29.5595 48.8686C29.6511 48.891 29.7517 48.7874 29.7798 48.8018C29.8079 48.8163 29.8349 48.9149 29.8842 48.9296C30.1035 48.9682 30.3133 49.0473 30.5029 49.1631L30.8827 49.3021C31.1002 49.4175 31.1514 49.3061 31.3414 49.3651C31.7437 49.4203 32.1509 49.6086 31.857 49.8632C31.5921 50.1105 31.2459 50.2545 30.8821 50.2684C30.7831 50.2669 30.8825 50.2334 30.7405 50.2662C30.5985 50.2991 30.6069 50.2223 30.3646 50.3446C30.312 50.5469 30.7593 50.4346 31.0703 50.4464C31.2047 50.4484 31.4026 50.4515 31.544 50.4537C31.8545 50.5004 32.101 50.5602 32.5177 50.6016C32.6662 50.6039 32.9276 50.608 33.0544 50.6449C33.1811 50.6819 33.1308 50.7441 33.2506 50.7739C33.3704 50.8038 33.5686 50.7788 33.5828 50.779C33.7658 50.8379 33.7782 50.9501 33.9756 50.9952C33.5286 51.0864 33.2658 51.1665 32.6559 51.2692C32.8112 51.2811 32.9672 51.2835 33.1227 51.2763L33.4832 51.2819C33.4832 51.2819 33.3903 51.3504 33.4184 51.3648C33.4464 51.3793 33.6658 51.3686 33.7011 51.3692C33.7365 51.3697 33.7985 51.4757 33.8894 51.5471C33.9802 51.6185 34.1986 51.6849 34.2048 51.7411C34.211 51.7972 33.9755 51.9197 33.9603 51.9895C33.9451 52.0593 34.3205 52.037 34.0498 52.1659C33.7795 52.2798 33.4813 52.3117 33.1926 52.2577C32.7408 52.2018 32.9854 51.9185 32.5465 51.9397C32.4051 51.9376 32.4683 51.9734 32.482 52.0017C32.4957 52.0299 32.4809 52.0648 32.5157 52.1003C32.6044 52.1914 32.703 52.2727 32.8094 52.3428C32.8653 52.3857 32.8083 52.3919 32.8784 52.435C32.9644 52.4818 33.0406 52.5448 33.1021 52.6205L33.2467 52.8747C33.2882 52.9314 33.3627 53.1497 33.4315 53.2768C33.6637 53.67 33.9176 54.0504 34.1921 54.416C34.2806 54.6345 34.2812 54.5784 34.2269 54.8927C34.2247 55.0327 34.0894 55.0937 34.2212 55.2638C34.5478 55.6399 34.9766 55.3664 35.372 55.4145C35.4497 55.4157 35.6673 55.517 35.8015 55.533C36.0695 55.5792 36.2612 55.5402 36.2498 55.8202C36.249 55.8762 36.14 56.0495 36.1961 56.0783C36.6075 56.1345 37.0252 56.1269 37.4342 56.0555C37.6416 56.0483 37.8496 56.0515 38.0567 56.065C38.2547 56.0681 38.4371 56.1548 38.6069 56.1504C39.0225 56.0944 39.441 56.0611 39.8603 56.0507C39.9664 56.0523 39.9928 56.1647 40.099 56.1593C40.3819 56.1637 40.8045 56.2893 41.2216 56.3027C41.4007 56.6136 41.0237 56.2996 41.258 56.7023C41.3404 56.8577 41.2543 56.9193 41.6374 56.8412C41.8373 56.7182 41.493 56.573 41.4668 56.4395C41.8293 56.319 42.0162 56.5949 42.3262 56.6767C42.6361 56.7585 43.2525 56.6911 43.3842 56.8612C43.516 57.0313 43.2907 56.9716 43.629 57.0468C43.7563 57.0488 43.8766 57.0507 44.0664 57.1236C44.5494 57.3341 45.0182 57.5752 45.4699 57.8455C45.5962 57.9105 45.8079 57.9207 45.9059 57.9852C46.004 58.0497 45.9589 58.2172 46.0358 58.2744C46.1128 58.3316 46.4736 58.3301 46.4951 58.7716C46.3794 58.9379 46.0628 58.8349 46.0485 58.8417C46.0343 58.8485 45.9247 59.071 45.7834 59.0618C45.5218 59.0578 45.0834 58.5889 44.7608 58.4089C44.6766 58.3656 44.5771 58.406 44.4792 58.3275C44.3814 58.2489 44.0166 58.0542 43.778 57.9385L44.1631 57.7275C44.133 57.3909 43.7647 57.8754 43.4888 57.8781C43.6444 57.8805 42.8972 57.708 42.8761 57.7007C42.855 57.6934 42.4865 57.2955 42.2665 57.3482C41.8477 57.4468 42.2673 57.2922 41.8871 57.1813C41.7881 57.1798 41.6323 57.1774 41.4696 57.1749C41.2537 57.1163 41.0351 57.0684 40.8143 57.0316C40.8143 57.0316 40.6525 56.9662 40.6311 56.9729C40.2471 57.1071 40.6313 56.9728 40.2582 56.855C40.2087 56.8543 40.0728 56.9433 40.0305 56.9357C39.9881 56.928 39.7501 56.7773 39.6157 56.7752C39.4814 56.7732 39.0975 56.9073 38.8711 56.9179C38.6446 56.9284 38.6251 56.8019 38.4555 56.7923C38.2859 56.7827 38.1786 56.8652 38.0656 56.8564C37.9526 56.8477 37.9399 56.7495 37.968 56.7569C37.8761 56.7555 37.8252 56.8527 37.7545 56.8516C37.3744 56.8093 36.9921 56.7894 36.6096 56.792C36.3621 56.7882 36.0767 56.9449 35.8431 56.9623C35.7299 56.9606 35.64 56.8472 35.5552 56.8389C35.3289 56.8354 34.9671 56.9069 34.6563 56.8812C34.4369 56.8323 34.2206 56.7705 34.0085 56.6961C33.9661 56.6955 33.8231 56.7913 33.7879 56.7837C33.5853 56.667 33.364 56.5854 33.1337 56.5425C32.9886 56.5135 32.8469 56.4691 32.7113 56.41C32.5215 56.3371 32.3041 56.2148 32.1425 56.1423C31.6589 55.8211 31.2427 55.4103 30.9164 54.9328C30.4534 54.2254 30.2646 54.0965 30.1673 53.5207C30.148 53.339 30.1508 53.1558 30.1757 52.9748C30.1967 52.8663 30.2313 52.7608 30.2793 52.6611C30.3229 52.5847 30.3675 52.4525 30.3964 52.4109C30.419 52.4028 30.4389 52.3885 30.4537 52.3697C30.5196 52.2237 30.0334 52.1042 29.751 52.0719C29.7156 52.0713 29.7507 52.0719 29.673 52.0707L29.355 52.0658C29.2092 52.0534 29.0626 52.0512 28.9165 52.0591C28.8836 52.0551 28.8503 52.0546 28.8174 52.0575L28.3287 52.1059L28.7262 52.0141C29.2652 51.9173 29.3357 51.9394 30.0376 51.8241L29.4144 51.8846C29.2305 51.8818 28.8903 51.9255 28.6351 51.9636L28.3725 52.0157C28.2948 52.0145 28.3372 52.0151 28.2099 52.0132C28.0826 52.0112 27.7765 52.1395 27.8406 52.1125L28.0684 52.032C28.1037 52.0326 28.1965 51.9709 28.1611 51.9774C28.6446 51.7967 29.147 51.6705 29.6591 51.6011C30.0433 51.453 29.4832 51.5424 29.2914 51.5955C29.0996 51.6486 28.9935 51.661 28.9013 51.6736C28.8092 51.6862 28.8448 51.6728 28.7387 51.6711L28.5181 51.7587C28.3649 51.8044 28.2152 51.8606 28.07 51.9269C27.9016 52.0056 27.7393 52.0969 27.5847 52.1997L27.6778 52.124C27.7349 52.0898 27.7856 52.0206 27.8496 52.0006L27.9839 52.0027C28.0403 51.9664 28.0832 51.913 28.1064 51.8505C28.1191 51.8161 28.1361 51.7833 28.1573 51.7532L28.2787 51.6711L28.4716 51.548C28.6358 51.4455 28.529 51.5068 28.6852 51.4672L28.8919 51.3654C28.9733 51.3421 29.0564 51.3246 29.1403 51.3131C29.3731 51.2355 29.6102 51.1713 29.8505 51.1209C30.0415 51.1239 30.1185 51.1601 30.3312 51.1283C30.4089 51.1295 30.6009 51.0695 30.7284 51.0575C30.871 51.0713 31.0147 51.0493 31.1465 50.9938C31.2973 50.8491 30.9146 50.9131 30.7237 50.9102L30.4264 50.9056L30.278 50.9034L30.0574 50.9841C29.9797 50.9829 30.0587 50.907 29.9808 50.9128C29.9053 50.9369 29.8316 50.9663 29.7602 51.0005C29.6753 50.9992 29.6759 50.9642 29.5834 50.9978L29.3214 51.0359C29.2224 51.0343 29.1868 51.0338 29.1091 51.0326C29.0313 51.0314 28.996 51.0308 28.9593 51.1143C28.9326 51.1669 28.8959 51.2139 28.8512 51.2526C28.7857 51.2652 28.7181 51.2642 28.653 51.2496C28.3504 51.1469 28.2271 50.8859 27.953 50.7767C27.6788 50.6674 27.3548 50.5994 26.9755 50.4256C26.9053 50.3895 26.6791 50.3719 26.6441 50.3504C26.4971 50.2501 26.5695 50.1392 26.4292 50.067C26.1133 49.9081 25.4858 49.7864 25.3139 49.4686C25.2735 49.3437 25.2516 49.2136 25.249 49.0824C25.2514 48.9284 25.2537 48.7814 25.2537 48.7814C25.3907 48.6084 25.9627 48.6662 26.4628 48.8C27.183 49.0373 27.8873 49.3194 28.5716 49.6446C28.7403 49.7103 28.9454 49.7135 29.1001 49.7719C29.2548 49.8303 29.4436 49.9802 29.5915 50.0245C29.7393 50.0687 29.8741 50.0288 30.0579 50.0316C30.2418 50.0344 30.3166 49.7835 30.3855 49.9036Z" fill="white" stroke="white" stroke-width="3.10104" stroke-linecap="round" stroke-linejoin="round"/>
</svg>
