<svg width="52" height="57" viewBox="0 0 52 57" fill="none" xmlns="http://www.w3.org/2000/svg">
<path fill-rule="evenodd" clip-rule="evenodd" d="M34.5508 44.6896C34.5862 44.6343 34.4026 44.4293 34.3747 44.4428C34.3469 44.4563 34.2654 44.8248 34.2025 44.8656C34.1397 44.9065 34.0801 44.7452 33.9401 44.8616C33.8001 44.9781 33.6839 45.3391 33.5424 45.5532C33.5286 45.5726 33.5089 45.587 33.4864 45.5942L33.2853 45.64C33.0847 45.6827 32.8936 45.7625 32.7218 45.8755L32.5267 45.9912C32.4448 46.0364 32.3653 46.0865 32.2892 46.141C32.2471 46.1823 32.1745 46.4113 32.1396 46.4317C31.9162 46.5818 31.612 46.5841 31.3884 46.7411C31.1649 46.8981 30.8835 47.2357 30.5903 47.4265C30.5204 47.4813 30.2196 47.707 30.2614 47.6867C30.136 47.7476 30.1244 47.6078 29.9712 47.6822C29.5528 47.927 28.8598 48.4954 28.1408 48.9657L27.8409 49.1565C27.3933 48.9365 26.9748 48.6605 26.5955 48.3351C26.4657 48.2695 26.3264 48.225 26.1828 48.2032C25.9921 48.0189 25.8736 47.6403 25.703 47.4981C25.2598 47.1076 24.2997 46.6392 23.9051 45.782C23.8115 45.5782 24.0179 45.1837 23.9178 44.952C23.9178 44.952 23.721 44.7186 23.7212 44.7047C23.7214 44.6907 24.1309 44.5714 24.5186 44.5285C24.8103 44.4988 25.1036 44.4871 25.3968 44.4933C25.6732 44.4975 26.0426 44.7544 26.3803 44.8154C26.4596 44.8396 26.5354 44.8735 26.6065 44.9164L26.8332 45.0107C26.9713 45.0128 27.0723 44.7492 27.1896 44.7649C27.3068 44.7807 27.592 45.092 27.7852 45.1159C27.9551 45.1025 28.122 45.0602 28.2781 44.991C28.3757 44.9367 28.4851 44.9941 28.5896 44.9399C28.6941 44.8857 28.6277 44.7173 28.6627 44.6899C28.6976 44.6626 28.7997 44.7548 28.8421 44.6927C28.8846 44.6306 29.024 44.5699 29.108 44.5014C29.3958 44.1971 29.6617 43.8725 29.9037 43.5299C29.7253 43.4505 29.5306 43.5242 29.3134 43.7162C29.0962 43.9083 28.9438 43.9408 28.7698 44.0218L28.5609 44.1092C28.4918 44.1082 28.4365 44.1073 28.375 44.0645L28.0041 43.9123C27.7431 43.8036 27.4688 43.6808 27.1396 43.5153C26.9033 43.419 26.6741 43.3059 26.4537 43.1768C26.0991 43.0038 25.7535 42.8123 25.4188 42.6029C25.3572 42.5601 25.2394 42.6 25.1928 42.4877C25.0923 42.2768 25.1391 42.3683 24.8036 42.1608C24.7189 42.104 24.6502 42.0258 24.6043 41.9341C24.5585 41.8424 24.537 41.7402 24.5421 41.6376C24.5471 41.535 24.5786 41.4355 24.6332 41.3488C24.6879 41.262 24.7641 41.1911 24.854 41.143C25.3287 40.8363 26.2264 41.7851 26.405 41.4041C26.5836 41.0231 26.3091 40.8793 26.0078 40.7003C25.7065 40.5212 25.3212 40.4245 25.2393 40.3604C24.8839 40.0968 24.7369 39.7667 24.6204 39.7021C24.5039 39.6375 24.4199 39.699 24.3232 39.6975C24.192 39.6497 24.0658 39.5893 23.946 39.5173L23.6088 39.4075C23.5043 39.3638 23.3963 39.3294 23.2858 39.3048L22.9886 39.3002C22.881 39.2842 22.772 39.2825 22.664 39.2953C22.5673 39.2938 22.4634 39.2922 22.4001 39.361C22.3026 39.4112 22.2203 39.4872 22.1619 39.5807C22.199 39.4138 22.3076 39.0945 22.3597 38.8511C22.3956 38.6146 22.484 38.3894 22.6185 38.1923C22.7317 38.0266 22.886 37.8684 23.0628 37.606C23.0991 37.4949 22.9964 37.4445 22.9275 37.4295C22.8587 37.4145 22.7732 37.5806 22.7246 37.5938C22.676 37.6071 22.4759 37.59 22.3149 37.7271C22.1538 37.8641 22.2018 37.8928 22.1388 37.9407C22.0759 37.9886 22.0067 37.9804 21.9438 38.0283C21.8809 38.0762 21.7254 38.3042 21.6346 38.3656C21.5438 38.427 21.3581 38.3613 21.2038 38.5124C21.0545 38.6376 20.9119 38.7704 20.7762 38.9104C20.6289 39.0477 20.4581 39.3661 20.3409 39.3504C20.0783 39.3463 20.2823 39.1122 20.1308 39.0749C19.9017 39.1412 20.2232 39.3625 19.9922 39.5544C19.9762 39.558 19.9598 39.5577 19.9439 39.5536L16.6199 40.4444L15.2447 37.2836C15.1802 37.0078 15.1847 36.7202 15.2576 36.4466C15.3102 36.3289 15.3794 36.2195 15.463 36.1218C15.6882 35.8602 16.222 35.7567 16.4481 35.4393C16.5279 35.2926 16.5662 35.1267 16.559 34.9596C16.5617 34.7852 16.6847 34.4243 16.3832 34.2592C16.2187 34.166 16.2436 34.3408 16.1437 34.0951C16.1444 34.0532 16.0895 34.0244 15.9742 33.8831L15.8865 33.7491C15.8244 33.6421 15.7729 33.5291 15.7328 33.4119C15.6895 33.2926 15.6634 33.1678 15.6554 33.041C15.6339 32.8788 15.6364 32.7141 15.6629 32.5526C15.7036 32.3326 15.7815 32.1214 15.8936 31.9283C15.9187 31.8826 15.9472 31.8387 15.9786 31.7971L16.0423 31.7143L16.176 31.5559C16.2241 31.5065 16.2754 31.4607 16.3299 31.4187L16.456 31.3159L16.6027 31.2136L16.8258 31.0775L17.0422 30.9413L17.2382 30.7908C17.3851 30.6745 17.5028 30.6623 17.6152 30.5454C17.7276 30.4285 17.6532 30.3157 17.6673 30.2949C17.6814 30.2742 17.8123 30.2973 17.8619 30.2143C18.0658 29.9872 18.4648 29.6583 18.7678 29.2793C18.7678 29.2793 18.7714 29.0422 18.7719 29.0143C18.7723 28.9864 19.0507 28.8651 19.1018 28.6914C19.1528 28.5178 19.3181 28.5482 19.5013 28.3208C19.5507 28.2518 19.5469 28.0564 19.5753 28.008C19.6712 27.8761 19.7846 27.7581 19.9124 27.6574L18.8067 32.1545C18.3826 31.3353 18.1461 30.4304 18.1147 29.5065C18.1186 29.2554 17.9642 28.9601 17.968 28.709C17.9913 27.1953 18.6367 26.1167 19.3862 26.3654C19.6305 26.4854 19.8342 26.6754 19.9721 26.9117C20.1205 27.1442 20.1462 27.7376 20.5726 27.4232C21.0741 26.8684 21.4765 26.2302 21.7624 25.5368C21.841 25.3706 21.7673 25.2299 21.9092 24.9878C21.9087 25.0227 22.074 25.0462 22.061 24.9902C21.9702 24.6051 22.7365 23.7656 23.2347 23.2709C23.2347 23.2709 23.1741 23.1723 23.2788 23.1042C23.3835 23.036 23.4863 23.1074 23.4448 23.1067C23.6769 22.8452 23.7357 22.5949 24.0149 22.4178C24.13 22.3491 24.2543 22.297 24.3837 22.263L24.6125 22.2176C24.6993 22.1815 24.7925 22.1637 24.8863 22.1651C24.9802 22.1665 25.0728 22.1873 25.1584 22.226C25.3475 22.3654 25.4929 22.5565 25.5782 22.7767C25.7642 23.0641 25.9041 23.3795 25.9924 23.711C25.9914 23.7738 25.9164 23.7098 25.9905 23.8296C25.9905 23.8296 26.3764 24.7984 26.4364 24.9458C26.8972 25.9925 27.8189 27.1787 27.4781 27.3199C27.4799 27.2014 27.3333 26.8573 27.3083 26.6825C27.2834 26.5077 27.3622 26.3275 27.3165 26.1524C27.271 25.9377 27.2094 25.7269 27.1325 25.5217C27.0823 25.186 27.1419 24.9148 27.112 24.6143C27.1128 24.5585 26.971 24.3471 26.9579 24.298C26.9261 24.1161 26.9965 24.0335 26.966 23.7679C26.9682 23.6284 26.8675 23.4383 26.8423 23.2775C26.8171 23.1166 26.8457 23.0544 26.8453 23.0823C26.7752 22.6975 26.538 22.3798 26.6631 22.3329C26.8044 22.4126 26.9295 22.5187 27.0315 22.6455C27.3165 22.5383 26.8243 22.6424 27.0336 22.513C27.0681 22.5136 27.1233 22.5144 27.1648 22.5151C27.177 22.5233 27.1914 22.5279 27.2061 22.5281C27.2208 22.5283 27.2353 22.5242 27.2478 22.5163C27.3643 22.5809 27.4108 22.7072 27.4982 22.869C27.5236 22.9227 27.5528 22.9744 27.5855 23.0238C27.6937 23.179 27.9255 23.3919 28.0198 23.5538C28.2353 23.9199 28.2704 24.3391 28.3931 24.4526C28.6796 24.6942 28.7933 24.4937 28.7847 24.1517C28.7266 23.7848 28.6442 23.4223 28.5385 23.0664C28.3903 22.3664 28.377 21.8987 28.2556 21.255C28.2051 20.9402 28.0312 20.5538 27.961 20.176C27.9499 20.0908 27.9327 20.0067 27.9095 19.9241C27.8576 19.6331 27.8254 19.3389 27.8127 19.0435C27.815 18.897 27.8177 18.7157 27.82 18.5692C27.82 18.5692 27.6622 18.476 27.7456 18.4494C28.0512 18.3494 27.8035 18.2758 27.7516 18.0587C27.6996 17.8416 27.8534 17.7324 27.8446 17.4043C27.8454 17.3555 27.6889 17.1927 27.6895 17.1579C27.6927 16.9486 27.7719 16.7474 27.7964 16.5035C27.8208 16.2597 27.8857 16.0794 27.91 15.8495C27.9242 15.1765 28.0204 14.5079 28.1964 13.8586C28.1964 13.8586 28.3993 13.7011 28.4291 13.555C28.5835 13.0345 28.861 12.5598 29.238 12.172C29.4004 11.9995 29.6127 11.8831 29.8444 11.8395C30.0878 11.8259 30.3311 11.8706 30.5541 11.9698C30.7772 12.069 30.9738 12.2199 31.1281 12.4104C31.1617 12.4737 31.1718 12.6971 31.2194 12.7467C31.267 12.7963 31.5909 12.871 31.7138 12.9636C31.8368 13.0562 31.8544 13.2518 31.9443 13.2532C32.421 13.2605 32.4872 12.5639 32.5417 12.1671C32.5962 11.7702 32.8231 11.376 32.6294 10.9405C32.6551 10.5698 32.7117 10.2018 32.7984 9.84066C32.8003 9.72208 32.7611 9.56791 32.7634 9.42143C32.7656 9.27495 32.8833 9.26988 32.8778 9.1791C32.8723 9.08831 32.721 9.03017 32.7283 9.00238C32.7304 8.86287 32.9265 8.69848 32.9638 8.52462C33.001 8.35077 32.8922 8.23042 32.9287 8.1054C32.9652 7.98037 33.132 7.92711 33.2314 7.75421C33.3308 7.58132 33.352 7.09332 33.495 6.78155C33.638 6.46979 33.8836 6.24319 34.0469 5.95964C34.129 5.82231 34.2004 5.67887 34.2607 5.53044L35.7273 2.27382L36.2999 5.94553C36.4153 6.34741 36.4088 6.77504 36.281 7.17319C36.2099 7.30466 36.0038 7.21773 35.8644 7.29931C35.7249 7.38089 35.6384 7.62373 35.3483 7.6123C35.0956 7.56041 34.8397 7.52394 34.5827 7.50294C34.5827 7.50294 34.4912 7.62008 34.3738 7.6113C34.2565 7.60252 33.7897 7.38612 33.5902 7.32724C33.3907 7.26836 33.3149 7.2601 33.1431 7.19467C32.8339 7.07829 32.6898 7.02724 32.2976 7.36309C32.1518 7.4721 32.0177 7.59635 31.8978 7.73373C31.8192 7.89997 31.8894 8.27786 31.8448 8.4795C31.8002 8.68115 31.6673 8.79762 31.6588 8.90215C31.6522 9.32764 31.5878 9.91278 31.6016 10.3595C31.5992 10.52 31.7081 10.6473 31.6992 10.7727C31.6904 10.8982 31.6947 11.0656 31.6925 11.2121L31.6462 11.5253C31.6431 11.7276 31.5775 11.929 31.5743 12.1383C31.5006 12.5757 31.4802 13.0204 31.5128 13.4629C31.5105 13.6163 31.3713 13.6631 31.3126 13.8855C31.2639 14.0209 31.2271 14.1603 31.2026 14.3023C31.1823 14.4668 31.128 14.6253 31.0433 14.7674C30.8946 15.0024 30.6785 15.1245 30.5294 15.3804C30.494 15.4357 30.5274 15.5269 30.4715 15.5679C30.4156 15.6089 30.3125 15.5655 30.3332 15.5658C30.2052 15.801 30.2783 15.9906 30.1654 16.1424C29.7614 16.6623 29.2893 17.1245 28.7621 17.5162L28.5495 17.4082C28.5495 17.4082 28.364 17.3286 28.4112 17.406C28.2955 17.2857 28.4164 17.0712 28.3408 17.0422C27.7236 16.7327 26.6449 18.1254 26.442 18.7363C26.0358 19.395 25.5753 20.0182 25.0656 20.5991C24.6346 21.2134 24.4377 21.901 24.0545 22.0975C23.8037 22.2332 23.2132 21.9799 23.0182 22.0816C22.5724 22.305 22.4385 22.9308 22.0582 23.3924C21.9668 23.4956 21.7794 23.5347 21.6742 23.6377C21.3311 24.0569 20.9579 24.45 20.5574 24.8136C20.2012 25.0523 19.6544 25.1068 19.2977 25.3804C18.6336 26.0094 18.0306 26.701 17.4968 27.4458C16.8178 28.2108 16.2107 29.0375 15.6829 29.9156C15.4479 30.3655 15.3298 30.8521 15.1149 31.3442C14.5915 32.2877 14.1751 33.2877 13.8736 34.3253C13.8708 34.5066 13.9568 34.7451 13.8986 34.9395C13.7605 35.377 13.3974 35.6295 13.2554 36.325C13.1803 36.7146 13.1108 37.1741 13.0409 37.6754L18.0353 36.4823C17.2949 35.8247 16.447 35.3018 15.5295 34.9368C15.1936 34.7799 14.8438 34.6553 14.4847 34.5649C13.9409 34.5118 13.3926 34.529 12.853 34.6165C12.5868 34.5879 12.3184 34.5838 12.0515 34.6042C11.3844 34.8408 10.7657 35.1978 10.2249 35.6576C9.88005 35.8564 9.5529 36.0848 9.24692 36.3403C8.72229 36.94 8.27751 37.6064 7.92405 38.3225C7.87959 38.4371 7.82211 38.5462 7.75303 38.6477L7.50439 38.6439C7.46154 38.734 7.49814 39.0484 7.45293 39.2919C7.25679 39.9215 7.09703 40.562 6.97433 41.2102C6.92104 41.5304 7.00588 42.2991 7.01048 42.8992C6.99516 43.8966 7.08498 44.7981 6.28677 45.0231C6.165 45.0123 6.04277 45.0105 5.92073 45.0174C5.81093 44.9669 5.72639 44.6238 5.62372 44.5594C5.34333 44.3667 5.08067 44.3697 4.93825 44.1931C4.79583 44.0165 4.76121 43.5624 4.64102 43.2885C4.60063 43.2181 4.42805 43.2015 4.40137 43.1383C4.3747 43.0751 4.40593 42.8383 4.35183 42.7607C4.24482 42.5289 4.05184 42.498 3.89721 42.2165C3.74258 41.9351 3.77484 41.6425 3.68802 41.4458C3.35327 40.7429 3.02933 39.3426 2.77235 40.7759C2.76956 40.9573 2.8551 41.2306 2.82157 41.6139C2.71191 42.1148 2.65756 42.6264 2.65979 43.1393C2.76589 43.5938 2.91888 44.0359 3.11635 44.4581C3.29632 45.1461 3.57508 45.8038 3.94348 46.4104C4.24399 46.7793 4.51301 47.1732 4.74776 47.5878V47.5878L15.1974 42.1667L15.1982 42.1179L15.1652 42.0267C15.1317 41.9405 15.0935 41.856 15.0513 41.7738C14.9776 41.6191 14.9646 41.584 14.7901 41.2465L14.6487 41.0072C14.5311 40.7969 14.4003 40.5944 14.2571 40.4011L14.1486 40.2599L14.0269 40.0976C13.9183 39.9703 13.8027 39.8429 13.6871 39.7226C13.1936 39.2188 12.6147 38.8083 11.978 38.5103C11.827 38.4382 11.6688 38.3729 11.5177 38.3148L11.2014 38.2122C11.066 38.167 10.928 38.13 10.7883 38.1012C10.4757 38.027 10.1574 37.9802 9.83686 37.9611C9.08603 37.9199 8.3344 38.022 7.62094 38.2619C6.93301 38.5002 6.29311 38.8615 5.73173 39.3284C5.50133 39.5251 5.28526 39.7386 5.08583 39.9673L4.86057 40.2428L4.80395 40.3257C4.71932 40.4361 4.64172 40.5465 4.56379 40.6709C4.40829 40.9131 4.27276 41.1676 4.15829 41.432C4.03932 41.6946 3.94032 41.9661 3.86237 42.2439C3.86033 42.3764 3.78901 42.5148 3.75923 42.6539L3.75676 42.8143L3.71012 43.1486L3.70498 43.4834L3.69759 43.9647C3.69641 44.0414 3.69491 44.1391 3.69459 44.16L3.72548 44.4116L3.75754 44.5655C3.7554 44.705 3.82235 44.8527 3.86134 45.0137C3.99149 45.539 4.02026 45.9023 4.15266 46.2811C4.28506 46.6599 4.50139 46.984 4.63336 47.3907C4.76533 47.7974 4.8412 48.259 4.98828 48.5822C5.02823 48.6805 5.17906 48.7527 5.21923 48.837C5.2294 48.8539 5.23453 48.8734 5.23423 48.8931C5.23392 48.9129 5.2282 48.932 5.21751 48.9486V48.9486L5.47324 48.9525C5.97762 48.9602 6.406 48.9668 6.85456 49.0086C7.79252 49.0268 8.7222 49.1894 9.61154 49.4906C9.69376 49.5245 9.76464 49.5812 9.81622 49.6542C9.81622 49.6542 9.81622 49.6541 9.81783 49.5495L9.89653 49.3902C9.89739 49.3344 9.96718 49.2866 10.0168 49.2037C10.0694 49.1362 10.1256 49.0718 10.1855 49.0109C10.2481 48.9304 10.3162 48.8546 10.3894 48.7839C10.8108 48.3719 11.2577 47.9874 11.7272 47.6323C12.0418 47.4 12.4268 47.0848 12.8455 46.8191L12.8943 46.785L3.23335 45.8483L5.03483 50.4948C5.09476 50.6422 5.14792 50.7825 5.22816 50.9582C5.29597 51.1123 5.372 51.2624 5.45611 51.4081L5.51681 51.5208C5.56589 51.6084 5.6198 51.693 5.6786 51.7744C5.79514 51.9529 5.92439 52.1227 6.06493 52.2826L6.1462 52.3746L6.31625 52.5517C6.50218 52.7352 6.70579 52.8995 6.92388 53.0424C7.13911 53.1958 7.36852 53.3278 7.60892 53.4367C7.93468 53.5793 8.27666 53.6805 8.62709 53.7383C9.20399 53.8349 9.79445 53.8132 10.3629 53.6743C10.6371 53.6086 10.9046 53.5169 11.1618 53.4005L11.4822 53.2379L11.6705 53.1223C12.1877 52.7877 12.63 52.3478 12.969 51.8306C13.02 51.7608 13.065 51.6868 13.1036 51.6094L13.1818 51.4641C13.2317 51.3672 13.2817 51.2701 13.3247 51.1662C13.3678 51.0622 13.4108 50.9582 13.447 50.8541L13.4977 50.6944L13.4989 50.6108C13.556 50.4122 13.6008 50.2101 13.6328 50.0058C13.7271 49.2252 13.6616 48.4333 13.4404 47.6794C13.3682 47.4272 13.3809 47.4973 13.3607 47.4621C13.3512 47.4406 13.3374 47.4213 13.3201 47.4056C13.2851 47.3642 13.2403 47.3324 13.1899 47.3133C13.1394 47.2942 13.0848 47.2885 13.0315 47.2965C12.909 47.3171 12.7912 47.3602 12.684 47.4237C12.5455 47.4806 12.4106 47.5461 12.2801 47.6199C12.1753 47.695 12.1673 47.7646 12.0761 47.8539C11.8718 48.0179 11.6775 48.1944 11.4943 48.3822C11.4943 48.3822 11.4512 48.5001 11.5429 48.3829C11.6345 48.2657 11.6764 48.2316 11.7536 48.156C11.8307 48.0805 11.9862 47.8526 11.8629 47.7809C11.7396 47.7093 12.0218 47.3368 12.0747 47.0446C12.076 46.9609 12.0142 46.939 12.0289 46.8834C12.0436 46.8278 12.1836 46.7113 12.247 46.6355C12.2518 46.6126 12.2522 46.589 12.2481 46.5659C12.249 46.5031 12.0769 46.4586 12.0918 46.389C12.1067 46.3195 12.2949 46.2107 12.3169 46.1273C12.3832 45.8562 12.3255 45.5623 12.4054 45.3054C12.4432 45.2093 12.4937 45.1185 12.555 45.0355C12.6405 44.8694 12.7329 44.6965 12.8119 44.5024C12.9781 43.8974 13.1763 43.3019 13.4059 42.7184C13.5972 42.4241 13.8635 42.1872 14.1767 42.0325C14.3985 41.9871 14.9135 42.2182 15.0315 42.1852C15.2515 42.067 15.4464 41.9065 15.6053 41.7126C15.8171 41.5485 15.9907 41.3394 16.1138 41.1002C16.2369 40.861 16.3065 40.5974 16.3176 40.3281C16.2885 40.2213 16.2761 40.1104 16.2812 39.9997C16.3185 39.8972 16.3791 39.8048 16.4581 39.7302C16.4608 39.5558 16.3172 39.4421 16.3264 39.2957C16.3356 39.1493 16.4433 38.8928 16.4461 38.7114C16.4138 38.5389 16.3727 38.3683 16.3226 38.2002C16.3245 38.0816 16.3954 37.9571 16.3903 37.8384C16.3601 37.6762 16.3165 37.5168 16.2596 37.362C16.2096 37.0194 16.3524 36.7145 16.2185 36.4334C16.2194 36.3776 16.0482 36.2633 16.0417 36.2353C16.0352 36.2073 16.1216 35.9854 16.1165 35.8667C16.1114 35.748 16.0094 35.6418 15.9764 35.5436C15.9433 35.4454 16.0545 35.3983 16.0279 35.335C16.0012 35.2718 15.8361 35.2275 15.8364 35.2136C15.798 35.0106 15.8976 34.8168 15.8796 34.6421C15.8447 34.209 15.5585 33.5069 16.0255 33.2489C16.4262 33.2551 15.9797 33.5203 16.2414 33.5801C16.4019 33.4779 16.3209 33.3581 16.4883 33.256C16.6558 33.1539 16.9238 33.2627 17.0157 33.1316C17.0464 33.0366 17.048 32.9346 17.0202 32.8387L17.0227 32.6713C17.0276 32.5999 17.0427 32.5296 17.0674 32.4626C17.2192 32.0324 17.5162 31.5834 17.6968 31.0769C17.7316 30.9922 17.7562 30.9034 17.77 30.8128L17.772 30.6873L17.7706 30.7781C17.7691 30.8757 17.7715 30.7152 17.7727 30.6384L17.7769 30.3665C17.7982 29.6882 17.7715 29.0094 17.6974 28.335C17.7031 27.9653 17.6465 27.5946 17.6174 27.2383C17.6201 27.064 17.6226 26.8966 17.6252 26.7292C17.6278 26.5617 17.6288 26.499 17.6305 26.3874C17.6322 26.2758 17.7652 26.1731 17.8023 26.0062C17.8395 25.8394 17.755 25.4892 17.8131 25.3087C17.9221 24.9615 18.2504 24.7293 18.3588 24.424C18.4519 23.8224 18.4887 23.2134 18.4694 22.6048C18.4717 22.4583 18.6266 22.2792 18.6287 22.1397C18.6343 21.777 18.5082 21.4401 18.5 21.0772C18.4917 20.7143 18.6459 20.1237 18.6535 19.6285C18.6019 19.1837 18.5835 18.7355 18.5981 18.2879C18.6583 17.9679 19.0578 17.5973 19.1254 17.2425C19.1369 16.5904 19.0937 15.9387 18.9964 15.2941C18.9964 15.2941 18.8721 15.2921 18.8801 15.2224C18.8754 14.3625 18.7704 13.5062 18.567 12.6711C18.5693 12.5177 18.6736 12.4704 18.6346 12.3093C18.5865 12.0792 18.5577 11.8454 18.5485 11.6103C18.5511 11.4429 18.4012 11.315 18.3893 11.1892C18.3794 10.8037 18.3343 10.4201 18.2547 10.043C18.2225 9.88898 18.3417 9.7721 18.3099 9.59021C18.2781 9.40832 18.1586 9.11355 18.1079 8.81276C18.1079 8.81276 17.928 8.80993 17.9912 8.74113C18.3132 8.47397 17.5115 8.03611 17.4401 7.73501C17.3687 7.4339 17.5929 7.24203 17.6671 6.90827C17.7817 5.84492 17.7656 4.77134 17.6193 3.71203C17.6223 3.51672 17.3593 3.10101 17.7551 2.9815C17.8283 3.83426 17.9632 4.68055 18.1586 5.51344C18.1566 5.639 18.0773 5.84004 18.103 5.96602C18.1287 6.09201 18.3192 6.29724 18.3788 6.4656C18.4384 6.63396 18.2918 6.73647 18.3236 6.91836C18.3554 7.10025 18.4519 7.10171 18.4703 7.25549C18.4887 7.40927 18.3955 7.63095 18.4275 7.79889C18.5343 8.49822 18.8835 9.15947 18.9847 9.775C19.0192 9.89044 19.0336 10.011 19.0274 10.1315C19.0263 10.2082 18.8326 10.2053 18.8307 10.3308C18.8288 10.4564 19.0436 10.4317 19.0636 10.4809C19.0836 10.53 18.971 10.6469 18.9844 10.6681C19.214 11.4739 19.1709 12.485 19.4378 13.5566C19.5093 13.8507 19.7125 14.119 19.7565 14.4057C19.8748 15.2517 19.6414 16.0574 19.8053 16.6321C19.8448 16.7582 20.1092 17.0833 20.0933 17.2156C20.0775 17.3479 19.9057 17.3034 19.8914 17.3311C19.8051 17.553 19.9346 17.6597 19.7445 17.887C19.5544 18.1143 19.3803 18.1953 19.383 18.4674C19.3857 18.7396 19.4792 18.9713 19.4747 19.2643C19.4702 19.5573 19.3506 19.6949 19.3336 19.904C19.3247 20.4829 19.5306 21.0164 19.5427 21.5817C19.5397 21.777 19.4118 22.0053 19.4015 22.2284C19.3912 22.4515 19.522 22.928 19.5302 23.2979C19.5279 23.4443 19.3927 23.7004 19.3765 23.8537C19.3688 24.3559 19.5681 24.4357 19.2601 24.6891C19.2601 24.6891 19.0579 24.7906 19.0508 24.8044C19.0074 24.9294 19.17 25.1341 19.106 25.2517C19.042 25.3694 18.8355 25.3314 18.7933 25.3796C18.6925 25.5666 18.6064 25.7611 18.5356 25.9616C18.4918 26.1145 18.6058 26.3396 18.6018 26.5977C18.5998 26.7302 18.598 26.8418 18.5962 26.9604L18.5489 27.3363C18.5073 27.6508 18.5024 27.9693 18.5344 28.285C18.5328 28.3896 18.684 28.4477 18.6682 28.58C18.6523 28.7124 18.5827 29.6392 18.5612 30.1412C18.6087 30.4326 18.6387 30.7267 18.6513 31.0217C18.6493 31.1473 18.6527 30.9311 18.6525 30.9451L18.4885 31.2705C18.3744 31.4989 18.2533 31.7413 18.16 31.9631C18.0428 32.2855 17.9455 32.6148 17.8685 32.9493C17.8558 33.1234 17.8531 33.2981 17.8605 33.4725C17.873 33.6096 17.841 33.7472 17.7694 33.8644C17.6978 33.9816 17.5904 34.0719 17.4634 34.1222C17.3591 34.1624 17.4622 34.2059 17.3171 34.2037C17.172 34.2015 17.1999 34.167 17.0958 34.2003C16.8667 34.2666 16.8237 34.3846 16.8342 34.601C16.8334 34.6498 16.9357 34.7212 16.9005 34.7625C16.8653 34.8038 16.7699 34.7186 16.7831 34.7607C16.7963 34.8028 16.9718 35.0845 16.9835 35.2242C16.9791 35.5102 16.8367 35.7802 16.8882 36.0252C16.9397 36.2702 17.1113 36.3425 17.1303 36.4544C17.1684 36.6713 17.0751 36.9001 17.1196 37.1519C17.1641 37.4038 17.2498 37.6772 17.2935 37.9778C17.2914 38.1173 17.289 38.2709 17.2861 38.4593C17.2832 38.6476 17.4334 38.7684 17.4248 38.8799C17.4189 39.2636 17.227 39.6165 17.2008 39.9719C16.8623 39.9667 17.0537 39.6557 16.715 39.6575C16.6735 40.1104 17.2707 39.9241 17.399 40.1214C17.258 40.7367 17.0708 41.3403 16.8391 41.9269C16.682 42.2524 16.5081 42.3125 16.1027 42.6133C15.8099 42.8274 15.4573 42.9418 15.0958 42.9397C14.9576 42.9376 14.5636 42.9316 14.5285 42.9659C14.3678 43.0751 14.3552 43.4446 14.1566 43.7765C14.0645 43.9285 13.8555 44.044 13.7986 44.1477C13.6567 44.4788 13.556 44.8265 13.4993 45.1827C13.4671 45.3029 13.4537 45.4275 13.4592 45.5519C13.4579 45.6356 13.4566 45.7192 13.4555 45.7959C13.4543 45.8727 13.2988 46.1006 13.2899 46.226C13.2811 46.3515 13.439 46.4166 13.4174 46.4721C13.3958 46.5276 13.2915 46.5678 13.2008 46.6222C13.1545 46.6447 13.1138 46.6775 13.0819 46.7182C13.0043 46.8216 12.9468 46.9673 13.0769 47.046C13.207 47.1247 13.2909 47.0493 13.2832 47.105C13.2754 47.1607 12.9417 47.302 12.9409 47.3509C12.9402 47.3997 13.2915 47.4749 13.3111 47.5519C13.178 48.115 12.9239 47.546 13.6262 47.2708C13.7235 47.2304 13.7802 47.1476 13.8979 47.1354C13.965 47.137 14.03 47.1598 14.0835 47.201L14.1725 47.2512C14.207 47.2517 14.2286 47.2033 14.3355 47.4421C14.4495 47.6115 14.5397 47.7961 14.6035 47.9905C14.6023 48.0672 14.6352 48.1794 14.6529 48.375C14.6674 48.7191 14.6621 49.0638 14.6371 49.4073C14.6349 49.5468 14.6316 49.7629 14.5868 49.9785C14.5464 50.2651 14.4865 50.5486 14.4077 50.827L14.4058 50.9526L14.3195 51.1884C14.2617 51.355 14.1898 51.5215 14.1183 51.6808C14.0435 51.8398 13.9603 51.9945 13.8692 52.1444L13.7135 52.3931C13.6428 52.4967 13.5722 52.5934 13.4947 52.6899C13.1834 53.0839 12.8199 53.4328 12.4144 53.7268C12.3166 53.7951 12.2187 53.8632 12.1141 53.9244C11.9887 54.0073 11.8586 54.0823 11.724 54.1487C10.8782 54.5652 9.93813 54.7482 8.9997 54.679C8.76798 54.6632 8.53758 54.6316 8.31005 54.5846L8.00007 54.5102L7.78006 54.4439C7.58065 54.3781 7.38138 54.2982 7.1823 54.2115C6.78761 54.0194 6.41774 53.7794 6.08071 53.4968C5.91458 53.3658 5.75748 53.2236 5.61043 53.0711L5.44712 52.8942C5.3588 52.7951 5.27765 52.6963 5.19634 52.5904C5.04048 52.3864 4.89806 52.172 4.77055 51.9488C4.66959 51.7728 4.56895 51.5899 4.48191 51.4071L4.31454 51.0557C4.27458 50.9574 4.23466 50.8592 4.1878 50.7608L13.6623 46.2805L13.4596 46.424L12.6493 46.9836C12.3978 47.1611 12.1462 47.3457 11.9014 47.5373C11.6566 47.7288 11.4538 47.8723 11.2368 48.0573C10.8581 48.3448 10.5103 48.6714 10.199 49.032C10.0289 49.1972 9.90035 49.401 9.82373 49.6264C9.82373 49.6264 9.82255 49.7031 9.82298 49.6752C9.82341 49.6473 9.70069 49.5338 9.4121 49.4247C8.58456 49.1936 7.73293 49.0611 6.87482 49.0299L6.07357 49.0176L5.25815 49.005L4.25617 48.9897C4.2078 48.9889 4.30764 48.7881 4.26174 48.6269C4.21584 48.4658 3.95556 48.3223 3.88925 48.1398C3.82295 47.9574 3.9894 47.9112 3.94446 47.6872C3.89952 47.4633 3.76661 47.5728 3.68627 47.4041C3.60593 47.2354 3.69204 47.0345 3.61776 46.9217C3.5392 46.7845 3.44875 46.6547 3.34734 46.5338C3.16381 46.2722 3.03417 45.976 2.96658 45.6628C2.8851 45.3827 2.8225 45.0974 2.77925 44.8087C2.74723 44.6075 2.72754 44.4044 2.71975 44.2007C2.72168 44.0752 2.72414 43.9148 2.72639 43.7684L2.72821 43.6498L2.73314 43.3288C2.73636 43.1196 2.78104 42.904 2.8188 42.6953L2.81998 42.6185L2.88687 42.3056C2.94769 42.0392 3.02581 41.7771 3.12029 41.5209C3.31396 41.0025 3.56485 40.5077 3.86845 40.0462L4.10155 39.7218L4.20007 39.5908C4.27757 39.4943 4.36233 39.391 4.45365 39.2948C4.64552 39.077 4.85177 38.8726 5.07113 38.6832C6.16359 37.739 7.52055 37.1623 8.95282 37.0335C9.61079 36.974 10.2739 37.0124 10.9208 37.1475C11.1885 37.2034 11.4527 37.2748 11.7121 37.3619L12.042 37.4857C12.3525 37.6053 12.6531 37.7498 12.9407 37.918C13.529 38.26 14.0649 38.6866 14.5315 39.1843C14.6472 39.3047 14.7487 39.4319 14.8505 39.552L14.9658 39.6933L15.0676 39.8346C15.2085 40.0208 15.3369 40.2161 15.4524 40.4194L15.6475 40.7643L15.7547 40.9683L15.8887 41.2564L16.036 41.5727L16.1226 41.7762L16.1628 41.8607L16.1623 41.8956L16.1618 41.9305C10.7351 44.7356 28.3174 35.6633 3.99165 48.2181C3.68694 47.8087 3.46048 47.7146 3.12283 47.2001C2.45027 45.9982 2.0129 44.6768 1.83484 43.308C1.6664 42.4602 1.6308 41.591 1.7293 40.732C1.77557 40.4187 1.84627 39.8616 1.86031 39.8479C1.93304 39.6118 2.09217 39.6072 2.14959 39.4686C2.39988 38.9212 2.34507 38.8926 2.72353 38.5495C2.77254 38.5084 3.03206 38.2473 3.0529 38.2407C3.28122 38.2286 3.5088 38.2767 3.71317 38.3801C3.91753 38.4835 4.09181 38.6387 4.21883 38.8306C4.25209 38.9148 4.00286 39.3924 4.02155 39.5252C4.04025 39.6581 4.34052 39.9 4.43318 40.1666C4.47961 40.2929 4.42718 40.5572 4.42514 40.6897C4.42311 40.8223 4.54636 40.9079 4.59928 41.0622C4.74736 41.5956 4.95259 42.1111 5.21142 42.5995C5.45764 42.9849 5.76261 43.3286 6.11499 43.618C6.22774 43.0267 5.96751 42.4157 6.05996 41.7961C6.06403 41.5311 6.30386 41.2208 6.34226 40.9702C6.38067 40.7197 6.2691 40.3343 6.35737 39.9868C6.51583 39.4203 6.75704 38.8808 7.07304 38.386C7.32804 37.8577 7.61735 37.3471 7.93947 36.8575C8.08895 36.5529 8.25989 36.2594 8.45069 35.9792C8.68925 35.7457 8.96625 35.7011 9.19758 35.4884L9.7725 34.967C9.91283 34.8296 10.0269 34.5871 10.2499 34.465C10.6738 34.2832 11.1196 34.1587 11.5757 34.0946C11.9158 33.9455 12.2639 33.8157 12.6183 33.7059C12.8954 33.6657 13.1757 33.6538 13.4551 33.67C13.7351 33.6969 14.0136 33.7384 14.2894 33.7944L15.0467 33.9874C15.2717 34.0568 15.5021 34.107 15.7355 34.1375C15.9496 34.1408 16.068 34.0868 16.2951 34.1461C16.5569 34.2432 16.8021 34.3812 17.0215 34.555C17.2539 34.719 17.4654 34.8967 17.7048 35.0608C17.9442 35.225 18.2538 35.2996 18.5271 35.5061C18.8003 35.7127 18.6338 35.7588 18.7493 35.8862L12.1805 37.4529C12.1818 37.3692 12.0835 37.0327 12.1205 36.8728C12.1576 36.7129 12.295 36.75 12.3036 36.6455C12.3121 36.541 12.1914 36.3018 12.2213 36.1557C12.2512 36.0096 12.4045 35.9214 12.4626 35.7409C12.5206 35.5604 12.468 35.3852 12.4699 35.2596C12.5575 34.961 12.7692 34.6781 12.8707 34.3657C12.936 34.1644 12.8768 33.9611 12.956 33.76C13.0717 33.5787 13.1785 33.3917 13.2757 33.1997C13.4331 32.4289 13.7177 31.6904 14.1178 31.0149C14.2056 30.8871 14.3072 30.7693 14.4205 30.6638C14.5202 30.4699 14.4265 30.2663 14.5195 30.0584C14.74 29.5357 15.0463 29.0545 15.4258 28.635C15.75 28.2283 15.9864 27.6946 16.2896 27.3016C16.5928 26.9086 16.867 26.6128 17.176 26.2966C17.4849 25.9804 17.7933 25.6782 18.0817 25.3478C18.5526 24.8387 18.7401 24.3391 19.2768 24.0404C19.5346 23.9048 19.9677 24.0511 20.2338 23.825C20.4016 23.695 20.9758 22.7618 21.2011 22.4931C21.4264 22.2245 21.6009 22.1016 21.8191 21.8468C22.1779 21.4337 22.492 20.7828 22.7414 20.7448C22.9908 20.7067 23.4732 21.2583 23.6185 21.2466C24.0458 20.9102 24.4021 20.4911 24.667 20.0138C24.67 19.8185 24.9134 19.7245 25.1047 19.4134C25.1755 19.3029 25.1511 19.0933 25.2147 18.9966C25.4482 18.6444 25.8328 18.3573 26.0458 17.9908C26.1945 17.7558 26.2684 17.4499 26.4169 17.2289C26.5654 17.0079 26.6897 17.0168 26.7953 16.8929C26.9008 16.7689 27.0098 16.4217 27.0939 16.3463C27.2625 16.2078 27.4504 16.0955 27.6517 16.013L27.976 16.0598C28.0989 16.0785 28.2206 16.1037 28.3409 16.1353C28.6419 16.3353 28.5057 16.6471 28.7547 16.637C29.0471 16.5615 29.307 16.3915 29.4947 16.153C29.6143 16.0153 29.4998 15.8182 29.6204 15.6177C29.6632 15.5276 29.8995 15.4475 30.0547 15.2406C30.2099 15.0337 30.1425 14.9279 30.2204 14.8035C30.3105 14.6947 30.4117 14.5957 30.5222 14.5082C30.6383 14.4117 30.7261 14.2853 30.7765 14.1423C30.7765 14.1423 30.6899 13.9248 30.6971 13.9109C30.7042 13.8971 30.8371 13.8014 30.8798 13.7253C30.9224 13.6493 30.8349 13.4943 30.8845 13.4183C30.9971 13.1452 31.051 12.8512 31.0428 12.5556C31.0449 12.4231 30.9298 12.2608 30.9516 12.1914C30.9734 12.1219 31.119 12.0893 31.1133 12.0125C31.1075 11.9356 30.9578 11.7869 30.959 11.7101C30.9602 11.6334 31.0786 11.5794 31.0867 11.5027C31.0948 11.4261 31.0126 11.3831 31.0012 11.2224C30.9899 11.0618 31.1153 10.9799 31.1173 10.8474C31.1194 10.7149 31.0021 10.7062 31.0177 10.5878C31.0334 10.4695 31.1962 10.2277 31.2204 10.0048C31.2221 9.89321 31.1064 9.75886 31.1082 9.64027C31.11 9.52169 31.2692 9.06366 31.2737 8.7707C31.276 8.62421 31.1259 8.49628 31.1347 8.37781C31.1434 8.25933 31.2638 8.05886 31.3081 7.87117C31.3525 7.68347 31.4136 7.30767 31.3713 7.36283C31.7438 7.02066 32.2244 6.82281 32.7276 6.80452C32.9927 6.82149 33.2533 6.88205 33.499 6.9838C33.6849 7.02852 33.7958 6.98836 33.9409 6.99059C34.2963 7.08658 34.667 7.11129 35.0318 7.06322C35.4878 7.07022 35.5004 7.14726 35.6573 6.82873C35.8143 6.5102 35.5283 6.69419 35.4997 6.30304C35.4935 6.25669 35.4942 6.20953 35.5019 6.16339L35.5679 5.46671L35.0676 6.09404C34.9348 6.23123 34.8185 6.38399 34.7218 6.54915C34.6709 6.75415 34.6079 6.95596 34.533 7.15333C34.427 7.30519 34.1848 7.31538 34.1344 7.44717C34.0239 7.77194 33.9675 8.11286 33.967 8.45623C33.9818 8.55344 33.9802 8.65242 33.9625 8.74914C33.8967 8.98534 33.6885 9.03795 33.5954 9.2528C33.5576 9.44311 33.5428 9.63741 33.5518 9.83128C33.5252 10.0206 33.5109 10.2116 33.5086 10.4028C33.5066 10.5283 33.7594 10.7275 33.7428 10.9087C33.6995 11.4732 33.2887 11.6692 33.3482 12.298C33.3464 12.4166 33.2901 12.4785 33.3438 12.584C33.3975 12.6894 33.5006 12.7259 33.5001 12.7538C33.498 12.8933 33.3122 12.8416 33.2967 12.946C33.2813 13.0505 33.4468 13.081 33.4175 13.1922C33.1972 14.033 32.6048 14.7913 31.5457 14.0006C31.4775 13.9438 31.375 13.8724 31.2865 13.7873C31.1979 13.7022 31.0407 13.6091 31.0204 13.5808C31.0001 13.5526 31.0268 13.1415 30.8971 13.0349C30.7527 13.0189 30.6101 12.9909 30.4702 12.9515C30.4016 12.9156 30.2806 12.6834 30.1077 12.6947C29.9347 12.706 30.0366 12.8192 29.9041 12.9009C29.7715 12.9826 29.6762 12.8974 29.6692 12.8973C29.4491 13.2315 29.2608 13.5861 29.107 13.9562C29.0281 14.1433 29.0514 14.4158 28.9436 14.6863C28.7556 15.0794 28.6369 15.5026 28.5927 15.9368C28.5662 16.0936 28.5478 16.2516 28.5371 16.4103C28.5352 16.5359 28.6292 16.7118 28.6205 16.8303C28.5462 17.6175 28.3487 18.3331 28.3711 18.6753C28.3935 19.0175 28.6721 19.3218 28.6897 19.5314C28.6196 19.6748 28.5774 19.8304 28.5652 19.9899C28.5641 20.0596 28.7062 20.2573 28.7056 20.2921C28.7051 20.327 28.5313 20.3941 28.5437 20.485C28.5562 20.5759 28.6936 20.6199 28.7867 20.8586C28.8798 21.0972 28.7271 21.1367 28.7796 21.3189C28.8404 21.4917 28.9118 21.6606 28.9932 21.8245C29.0807 21.9695 29.159 22.1197 29.2279 22.2745C29.2605 22.4076 29.1417 22.5105 29.1534 22.6432C29.1652 22.7759 29.3082 22.9176 29.3074 22.9665C29.3043 23.1688 29.2596 23.3775 29.2977 23.6013C29.3732 24.0839 29.5585 24.6169 29.6204 25.0853L29.6193 25.1551C29.5926 25.3819 29.5283 25.6026 29.4295 25.808C29.3578 25.9744 29.2802 26.0848 29.1762 26.1041C29.0723 26.1234 29.0266 25.9415 28.9098 25.8978C28.7929 25.8542 28.8118 25.987 28.7303 25.8951C28.5464 25.6836 28.3938 25.4462 28.2778 25.1904C28.0489 24.7962 27.8403 24.4301 27.6847 24.2114C27.5969 24.531 27.8906 25.2123 27.9467 25.6108C28.0028 26.0094 27.9376 26.2038 27.9741 26.5323C27.9958 26.65 28.01 26.7691 28.0168 26.8887C28.0156 26.9724 28.0143 27.0561 28.013 27.1398C28.0068 27.2873 27.9885 27.4341 27.958 27.5786C27.9386 27.6656 27.9141 27.7513 27.8849 27.8355C27.8838 27.9052 27.8828 27.982 27.8473 28.0373L27.8466 28.0861C27.8466 28.0861 27.8466 28.0861 27.8471 28.0512C27.8477 28.0164 27.8484 27.9676 27.8487 27.9467C27.8852 27.8292 27.9078 27.7077 27.9164 27.5849C27.9578 27.4143 27.941 27.2346 27.8689 27.0749C27.8043 26.9214 27.7281 26.7732 27.6408 26.6317C27.5062 26.3994 27.3714 26.1602 27.2568 25.97C27.1423 25.7799 27.0284 25.5479 26.9752 25.4145C26.7817 24.965 26.9789 25.1773 26.8935 24.89C26.8935 24.89 26.7587 24.6647 26.7523 24.6367C26.7458 24.6087 26.8 24.6792 26.5837 24.3619C26.3674 24.0447 26.3475 23.9815 25.9684 23.4664C25.8376 23.3277 25.6708 23.2291 25.4869 23.1819C25.303 23.1346 25.1098 23.1407 24.9292 23.1994C24.8889 23.2249 24.8588 23.2639 24.8445 23.3096C24.8178 23.3834 24.774 23.4497 24.717 23.5031C24.6261 23.5714 24.4517 23.6803 24.2774 23.7823C24.1074 23.8896 23.948 24.0134 23.8016 24.1518C23.3299 24.7432 22.9088 25.3739 22.5427 26.0371C22.5427 26.0371 22.6023 26.2055 22.5392 26.2604C22.4762 26.3152 22.4437 26.1752 22.4009 26.2583C22.3582 26.3413 22.3965 26.5442 22.3942 26.6976C22.3918 26.8511 22.2006 27.1553 22.0496 27.5367C21.9405 27.8463 21.8042 28.1453 21.6421 28.4303C21.6421 28.4303 21.4337 28.504 21.3778 28.545C21.0829 28.6998 20.7464 28.7542 20.4184 28.7001C20.0904 28.646 19.7885 28.4863 19.5578 28.2448C19.2717 27.9753 19.1281 27.8755 18.9014 28.6884C18.8994 28.8209 18.9871 28.9548 18.8938 29.1836C18.8625 29.3447 18.8393 29.5074 18.8242 29.6709C18.806 29.9477 18.8294 30.2256 18.8942 30.4952C19.0604 31.0225 19.3226 31.5139 19.667 31.9444L20.4928 28.5593C20.101 28.8673 20.0671 28.3854 19.9622 28.914C19.88 29.3174 19.2586 29.7194 18.8992 30.1744C18.7053 30.4502 18.4936 30.7127 18.2652 30.9601C18.1598 31.0701 17.9792 31.13 17.8878 31.2333C17.7963 31.3366 17.9739 31.4858 17.9313 31.5619C17.7788 31.6288 17.6355 31.7159 17.5055 31.8205C17.4364 31.8794 17.364 31.9342 17.2887 31.9847L17.0653 32.1417L16.9884 32.2032C16.9357 32.2422 16.8865 32.286 16.8413 32.3336C16.7879 32.3904 16.7404 32.4529 16.7001 32.5198C16.636 32.6188 16.5919 32.7295 16.5706 32.8457C16.5526 32.9377 16.5511 33.0322 16.5663 33.1247C16.5727 33.2031 16.588 33.2806 16.6113 33.3557C16.6448 33.426 16.6918 33.5244 16.7188 33.5667C16.7642 33.6333 16.8165 33.695 16.8749 33.7505C16.9632 33.8495 17.0311 33.9202 17.1057 34.0121C17.1803 34.1039 17.1701 34.3061 17.2376 34.4118C17.4465 34.7569 17.7544 34.978 17.4562 35.4967C17.3971 35.5462 17.343 35.6014 17.2947 35.6616C17.2909 35.9058 17.2443 35.7863 17.0051 36.0617C16.9559 36.1168 16.9052 36.2696 16.8703 36.2899C16.5481 36.5711 16.1253 36.6412 16.073 36.8986C16.0722 36.9544 16.0712 37.0242 16.1527 37.1161L17.9575 39.7462L19.8158 38.8887C20.1222 38.7399 20.6766 38.2042 20.8999 38.0612C21.1233 37.9181 21.3649 37.9149 21.5211 37.6452C21.6773 37.3755 21.6884 37.571 21.9604 37.4077C22.0093 37.3735 22.0598 37.2347 22.1503 37.1943C22.2408 37.1538 22.3051 37.0152 22.3538 36.995C22.4025 36.9749 22.5739 37.0612 22.6716 36.9999C22.7693 36.9386 22.8118 36.8625 22.8953 36.8289C22.9787 36.7953 23.0541 36.8315 23.1723 36.7845C23.3319 36.7191 23.4969 36.6679 23.6653 36.6316C23.7828 36.6334 23.7252 36.779 23.8077 36.8082C23.8902 36.8374 24.2915 36.8155 24.0983 37.2451C24.005 37.467 23.996 37.6065 23.9466 37.6755C23.7201 38.0208 23.5123 38.0454 23.1058 38.4159C23.0016 38.4903 22.9056 38.5754 22.8187 38.6698C22.7021 38.7961 22.6105 38.9439 22.5492 39.1051C22.3975 39.5284 22.7102 38.9682 23.043 38.8965C23.3759 38.8249 23.606 39.1493 24.0851 39.0031C24.1317 38.9838 24.1832 38.9806 24.2317 38.994C24.2803 39.0074 24.3232 39.0366 24.3536 39.0771C24.4215 39.1549 24.4832 39.1908 24.7237 39.2782C24.8203 39.2852 24.9171 39.2866 25.0139 39.2826C25.1438 39.3753 25.1948 39.6411 25.332 39.706C25.4692 39.7709 25.5624 39.563 25.6992 39.6558C25.836 39.7486 26.0063 39.9118 26.0268 39.926C26.2449 40.1247 26.3976 40.5178 26.5272 40.6314C26.6568 40.745 26.6896 40.4246 26.7929 40.4471C26.8962 40.4696 27.1392 40.8361 27.283 40.922C27.4268 41.008 27.6311 40.7531 27.7695 41.1947C27.6558 41.8488 27.4037 42.0612 27.0657 42.0211C26.9897 42.02 26.8911 42.1301 26.81 42.0172C26.7288 41.9043 26.8143 41.7522 26.7314 41.7509C26.6485 41.7497 26.5489 41.9294 26.4726 41.9422C26.3964 41.955 25.9429 41.7946 25.718 42.0353C25.7848 42.1347 25.8704 42.2194 25.9703 42.2845C26.0703 42.3496 26.1822 42.3937 26.2994 42.4141C26.3408 42.4147 26.4004 42.597 26.4487 42.5978C26.4971 42.5985 26.6585 42.4474 26.7754 42.4841C26.8924 42.5207 27.047 42.7952 27.1916 42.8323C27.536 42.9074 27.8856 42.6407 28.2545 42.9255C28.4046 43.0464 28.482 43.4104 28.5644 43.4395C28.6469 43.4687 28.7371 43.4421 28.828 43.3737C28.8696 43.3425 28.9139 43.3152 28.9605 43.2921C29.0094 43.258 29.0729 43.1753 29.1358 43.1274C29.1987 43.0795 29.4573 42.902 29.7577 42.6903C30.3387 42.2109 31.0234 41.719 31.2842 41.8416C31.3799 42.0474 31.4506 42.2641 31.4953 42.4869C31.4911 42.7589 31.3323 42.7564 31.2537 42.9226C31.1752 43.0889 31.2192 42.9222 31.2518 43.0483C31.3214 43.468 30.9285 43.3922 30.6399 43.7366C30.5344 43.8536 30.4382 44.2706 30.297 44.4638C30.2617 44.5121 30.0801 44.6349 30.0378 44.6901C29.6952 45.0766 29.3273 45.4393 28.9362 45.7756C28.686 45.8694 28.4359 45.9493 28.2411 46.037L28.074 46.1252L27.9146 46.1575C27.809 46.1891 27.6991 46.204 27.589 46.2014C27.4715 46.1996 27.1442 45.9155 26.9975 46.0179C26.9975 46.0179 26.9385 46.2472 26.904 46.2397C26.6079 46.1724 26.283 45.7488 26.0074 45.6957C25.7317 45.6426 25.5964 45.9057 25.3136 45.8665C25.182 46.3389 25.6595 46.2764 25.7022 46.6468C25.6036 46.7709 25.3825 46.3349 25.29 46.5079C25.3196 46.8293 25.6637 46.9043 25.7022 46.6468C25.7936 46.097 26.3308 47.124 26.5087 47.2383C26.6867 47.3527 26.6625 47.136 26.806 47.2429C26.9494 47.3497 27.1308 47.6875 27.3016 47.8157C27.4454 47.9248 27.6168 47.9904 27.7961 48.0047C27.9837 48.0257 28.1701 48.0564 28.3546 48.0969L28.4803 48.0152C28.8645 47.749 30.5201 47.0348 30.8998 46.6081C30.9912 46.5118 30.9676 46.2603 31.0862 46.1854C31.2048 46.1105 31.579 46.0325 31.9344 45.8426C32.2898 45.6527 32.6363 45.1556 32.9009 45.0271C33.0124 44.9893 33.1297 44.9723 33.2472 44.9767C33.3661 44.9953 33.4871 44.9972 33.6065 44.9822C33.6556 44.9341 33.678 44.8228 33.7276 44.7468C33.7771 44.6708 33.8249 44.6925 33.8674 44.6304C33.9098 44.5682 33.8704 44.435 33.9122 44.4147C33.954 44.3944 33.9881 44.4159 34.0158 44.4163C34.1054 44.289 34.2203 44.1815 34.3527 44.1006C34.5889 43.8953 34.8548 43.7276 35.1411 43.6034C35.5027 43.4624 35.8827 43.4681 35.8286 43.8371C35.8251 44.0122 35.779 44.1839 35.6948 44.337C35.6105 44.4902 35.4905 44.6202 35.3451 44.7158C35.268 44.7843 35.2899 44.715 35.2265 44.7908C35.1631 44.8665 35.0746 44.7884 34.9736 45.0659C35.0948 45.2701 35.3761 44.9396 35.6338 44.811C35.7621 44.7331 35.8974 44.6674 36.0377 44.6148L36.239 44.562C36.4772 44.5195 36.71 44.4506 36.9332 44.3565C37.1067 44.2476 37.2348 44.0782 37.2932 43.8805C37.3299 43.7416 37.2402 43.7193 37.2629 43.5871C37.2857 43.4549 37.4307 43.4641 37.4377 43.4573C37.5397 43.5635 37.5565 43.8219 37.6581 43.956C37.4412 44.2889 37.2055 44.609 36.9523 44.9149C36.9891 44.9405 37.0307 44.9581 37.0747 44.966C37.1187 44.9739 37.1641 44.972 37.2074 44.9607C37.2903 44.962 37.4164 44.8523 37.5131 44.8538C37.6098 44.8553 37.6213 45.009 37.7109 45.0243C37.7631 45.0368 37.8173 45.0377 37.8698 45.0267C37.9225 45.0036 37.9787 44.9902 38.0361 44.9874C38.229 45.0252 38.3868 45.1044 38.6071 45.1636C38.8406 45.193 39.0711 45.2432 39.2959 45.3137C39.3432 45.3659 39.3776 45.4285 39.3966 45.4966C39.4297 45.5971 39.4852 45.6887 39.5586 45.7643C39.5586 45.7643 39.947 45.6725 39.9422 45.9864C39.9374 46.3003 39.6928 46.464 39.4216 46.5715C38.97 46.732 38.5727 46.0492 38.1899 46.2247C38.1057 46.3071 38.188 46.3433 38.3045 46.4078C38.421 46.4724 38.4612 46.5568 38.557 46.6211C38.7737 46.7499 39.0039 46.854 39.2433 46.9316C39.367 46.9823 39.3455 47.0308 39.4557 47.0534C40.2704 47.3004 41.0633 47.616 41.8257 47.9968C41.9281 48.0489 42.0263 48.1087 42.1199 48.1758C42.2387 48.2801 42.3669 48.3733 42.5027 48.4538C42.6122 48.5183 42.6597 48.5818 42.7419 48.6319C42.8172 48.6732 42.9 48.6987 42.9854 48.7072C43.0707 48.7157 43.1569 48.7069 43.2388 48.6813C43.4636 48.6604 43.679 48.5809 43.864 48.4504C44.049 48.3199 44.197 48.143 44.2937 47.9371C44.4086 47.6528 44.378 47.3941 44.4651 47.1233C44.5342 46.9292 44.5858 46.7293 44.6194 46.5258C44.6234 46.4841 44.6241 46.4419 44.6213 46.4001L43.4934 46.5015C43.7273 46.5679 43.8787 46.5981 43.8677 46.8701C43.8667 46.9328 43.7605 47.1056 43.8151 47.1483C44.2586 47.304 44.724 47.3866 45.1936 47.3928C45.4251 47.4164 45.6553 47.4524 45.883 47.5009C46.0767 47.5693 46.2742 47.6259 46.4746 47.6705C46.8265 47.7108 47.3122 47.5997 47.7609 47.6345C47.8645 47.6361 47.9042 47.7483 48.008 47.7359C48.3582 47.7645 48.7104 47.7559 49.0589 47.7102C49.1943 47.8937 48.9125 47.7918 49.0544 48.0033C49.0571 48.0194 49.0569 48.0359 49.0536 48.052V48.052C49.0193 48.0879 48.9887 48.1273 48.9621 48.1693C48.7431 48.4799 48.4953 48.8597 48.2535 49.3095C48.4657 48.9238 48.7022 48.5523 48.9616 48.1972L49.3071 47.7419C49.3071 47.7419 49.4262 47.6322 49.4681 47.6049C49.51 47.5776 49.6022 47.4395 49.3268 47.819C49.1578 48.0258 48.9952 48.2535 48.8323 48.5091C48.7544 48.6335 48.6766 48.758 48.6056 48.8824C48.5345 49.0069 48.4713 49.0757 48.4144 49.1795C48.3575 49.2833 48.2067 49.6368 48.143 49.7335C48.1131 49.802 48.0936 49.8744 48.0847 49.9488C48.0704 49.9869 48.0697 50.0289 48.0829 50.0675C48.0822 50.1093 48.0829 50.0675 48.0829 50.0675C48.0511 50.0602 48.0181 50.0597 47.9861 50.066C47.232 50.1353 46.4974 50.3464 45.8202 50.6885C45.5558 50.8031 45.2221 50.9305 44.9367 51.0657L44.54 51.255C44.54 51.255 44.54 51.255 44.4985 51.2543C44.4597 51.262 44.4197 51.2614 44.3811 51.2525C44.3202 51.1679 44.4927 51.1774 44.2299 51.1874C44.1194 51.1857 44.0228 51.1842 43.8639 51.1817C43.5599 51.1771 43.1204 50.9819 42.6791 50.9193C42.5685 50.9176 42.3744 50.9565 42.2921 50.9133C42.2098 50.8702 42.2325 50.7589 42.1706 50.737C42.1088 50.7152 41.775 50.8288 41.7386 50.5003C41.8309 50.3412 42.1147 50.3177 42.1286 50.3109C42.1425 50.3041 42.2218 50.096 42.3468 50.056C42.4718 50.0161 42.9937 50.2265 43.3106 50.2941C43.3866 50.2953 43.4767 50.2967 43.5734 50.2982L44.213 50.4894L43.85 50.7211C43.8459 50.9862 44.2192 50.5383 44.4687 50.4933C44.3305 50.4912 45 50.5504 45.0137 50.5576C45.0274 50.5647 45.2862 50.8129 45.474 50.7321C45.6618 50.6512 45.6547 50.665 45.6336 50.6856L45.8421 50.605C45.9813 50.5374 46.1482 50.4703 46.3637 50.3899L47.0586 50.1423C47.3085 50.0694 47.5857 50.0179 47.7521 49.9856L48.0078 49.9895C48.0078 49.9895 48.0835 50.0255 48.0841 49.9907C48.0846 49.9558 48.0841 49.9907 48.0841 49.9907C48.074 49.9725 48.0688 49.952 48.0691 49.9311C48.0694 49.9103 48.0753 49.89 48.0859 49.8721C48.0948 49.7835 48.117 49.6967 48.1519 49.6149C48.2128 49.505 48.2676 49.3917 48.3161 49.2756C48.3837 49.1382 48.4621 49.0065 48.5502 48.8816C48.6423 48.7365 48.7559 48.5359 48.8761 48.3633L48.9396 48.2665C48.9003 48.2934 48.8581 48.3162 48.8141 48.3344C48.8141 48.3344 48.683 48.3324 48.6623 48.3321C48.3341 48.5503 48.6621 48.3321 48.3097 48.3267C48.2683 48.3261 48.1494 48.4358 48.108 48.4352C48.0665 48.4345 47.8058 48.305 47.6677 48.2959C47.5296 48.2868 47.147 48.4483 46.9051 48.4446C46.6633 48.4409 46.6377 48.301 46.4515 48.2772C46.2653 48.2534 46.1539 48.3215 46.0372 48.2708C45.9205 48.2202 45.894 48.1361 45.9146 48.1434C45.8248 48.142 45.775 48.2319 45.6991 48.2238C45.3199 48.1691 44.8875 47.9672 44.4251 47.9252C44.1626 47.9211 43.8438 47.979 43.5891 47.9123C43.4647 47.9104 43.3637 47.7414 43.2743 47.7121C43.0268 47.6316 42.6324 47.6535 42.3156 47.5788L42.2192 47.5774L46.3714 47.2085C46.2728 47.546 46.1545 47.8772 46.0173 48.2007C45.9746 48.2838 46.062 48.4455 46.0125 48.5146C45.8817 48.713 45.7403 48.9042 45.589 49.0872C45.3644 49.314 45.0705 49.5677 44.79 49.8285C44.4331 50.114 44.0199 50.3193 43.5781 50.4308C43.4161 50.4794 43.2566 50.519 43.0995 50.5491C42.9507 50.5753 42.8005 50.5915 42.6496 50.5979C42.3709 50.6103 42.0918 50.606 41.8136 50.5851C41.703 50.5909 41.5923 50.5892 41.482 50.58C41.3822 50.5684 41.2831 50.5507 41.1855 50.5267C40.9527 50.4784 40.723 50.4166 40.4972 50.3417L40.1537 50.2107L39.8927 50.1091L39.3362 49.8912L39.0958 49.7899L38.9308 49.7455L38.6829 49.6718C38.5395 49.6347 38.4062 49.5659 38.2922 49.4705C37.9989 49.2218 37.9445 48.7186 37.7414 48.4434C37.5136 48.1476 37.2248 47.9051 36.8952 47.7327L36.4016 47.4671C36.3245 47.4207 36.2446 47.3797 36.1618 47.3447L36.0168 47.3424C35.9615 47.3416 35.9279 47.2784 35.8588 47.2773C35.7421 47.2831 35.6261 47.2999 35.5125 47.3277C35.3737 47.3695 35.2387 47.4235 35.1091 47.489C35.0539 47.4881 35.0676 47.4883 35.0118 47.5224L34.9774 47.5218C34.8797 47.5831 34.6557 47.7542 34.6489 47.7471C34.6421 47.74 34.8041 47.5332 34.861 47.4294C35.1566 47.0851 35.1899 47.1624 35.5627 46.7425C35.4437 46.8384 35.3463 46.8786 35.2133 46.9882C35.0559 47.0819 34.9106 47.1944 34.78 47.3234C34.7794 47.3583 34.6461 47.4889 34.6319 47.5165C34.6177 47.5442 34.631 47.5584 34.5671 47.669C34.4947 47.7695 34.417 47.8662 34.3346 47.9586L34.469 47.7723C34.469 47.7723 34.5194 47.6404 34.4706 47.6675C34.6045 47.4473 34.7603 47.2417 34.936 47.0538C35.1038 46.8925 35.2526 46.7121 35.3795 46.5164C35.5061 46.3718 35.4637 46.434 35.3795 46.5164L35.0858 46.7422C35.0299 46.7832 34.9456 46.8864 34.8754 46.9551L34.8332 46.9964C34.7703 47.0442 34.7571 46.9953 34.694 47.0571C34.6308 47.1189 34.616 47.1885 34.5736 47.2506C34.5311 47.3127 34.4038 47.4992 34.3396 47.6308C34.267 47.8004 34.2045 47.9741 34.1521 48.1512C34.1521 48.1512 34.2141 47.7055 34.207 47.7194C34.2254 47.5752 34.2579 47.4331 34.3036 47.2952C34.4355 46.8088 34.3557 47.0379 34.4757 46.8793C34.4757 46.8793 34.5476 46.699 34.5618 46.6783C34.6123 46.6134 34.6663 46.5513 34.7236 46.4924C34.862 46.3016 35.0149 46.122 35.1809 45.9552C35.3069 45.8524 35.4104 45.868 35.5428 45.7933C35.5616 45.7861 35.5783 45.7743 35.5916 45.7591C35.6544 45.7182 35.7671 45.5875 35.8649 45.5192C35.9627 45.4509 36.0661 45.4664 36.1589 45.2725C36.2517 45.0785 35.9733 45.2069 35.8267 45.3023L35.7501 45.35C35.667 45.3905 35.5877 45.4383 35.513 45.4929L35.3941 45.5677C35.3497 45.627 35.3096 45.6893 35.2738 45.7542C35.218 45.7882 35.2129 45.6697 35.157 45.7107C35.1011 45.7517 35.0573 45.8974 35.0434 45.9042C35.0295 45.9109 34.9468 45.9027 34.8768 45.9645C34.8067 46.0262 34.7505 46.0881 34.6874 46.143C34.6244 46.1978 34.5203 46.2171 34.4135 46.4247C34.3707 46.5078 34.3335 46.6958 34.312 46.7443C34.2475 46.8968 34.1792 46.8258 34.1634 46.9512C34.1477 47.0765 34.0337 47.305 33.9615 47.5062C33.9585 47.5457 33.9579 47.5854 33.9597 47.6249C33.9936 47.6673 33.8127 47.7482 33.7849 47.7618C33.544 47.8115 33.3105 47.8923 33.0901 48.0022C32.3723 48.5873 31.6084 49.1122 30.8061 49.5718C30.5805 49.6436 30.3481 49.6914 30.1128 49.7147C29.8496 49.7525 29.6214 49.763 29.6214 49.763C29.5345 49.5733 30.377 48.7071 31.1337 48.035C31.6956 47.5271 32.2892 47.0561 32.9108 46.625C33.1904 46.4073 33.4921 46.2201 33.8109 46.0666L34.0089 45.7627C34.0796 45.6592 34.1373 45.5066 34.2006 45.4308C34.264 45.355 34.3341 45.3002 34.3976 45.2175C34.4611 45.1347 34.3451 44.5818 34.5508 44.6896Z" fill="white" stroke="white" stroke-width="3.10104" stroke-linecap="round" stroke-linejoin="round"/>
</svg>
