<svg width="68" height="65" viewBox="0 0 68 65" fill="none" xmlns="http://www.w3.org/2000/svg">
<path fill-rule="evenodd" clip-rule="evenodd" d="M47.6851 54.0899C47.7295 54.0899 47.7653 53.9742 47.7831 53.8762C47.7838 53.7939 47.7684 53.7123 47.7384 53.6357C47.6674 53.5912 47.2502 53.7783 47.1348 53.6981C47.0194 53.618 47.135 53.4042 46.8687 53.2171C46.6025 53.0301 46.1235 53.1013 45.7863 52.941C45.6354 52.8697 45.6439 52.6739 45.4487 52.5581C45.3814 52.5079 45.3104 52.4633 45.2359 52.4246C45.2359 52.4246 44.9694 52.4959 44.9517 52.4781C44.9339 52.4603 44.9073 52.2197 44.8009 52.1574C44.6944 52.095 44.4103 52.104 44.2861 52.0238C44.1618 51.9437 44.0999 51.9436 44.1088 51.9614C44.1177 51.9793 44.2331 51.8279 44.1799 51.7834C44.1266 51.7388 43.6471 51.5162 43.3808 51.3291C43.1146 51.1421 42.9552 50.946 42.6801 50.7234C42.6091 50.6699 42.3694 50.679 42.3516 50.6612C42.3339 50.6434 42.4404 50.4028 42.3516 50.3226C42.2629 50.2425 41.5264 49.9398 41.7393 49.5479C41.7926 49.4499 42.2629 49.2362 42.3161 49.1293C42.3694 49.0225 42.2626 49.0313 42.2715 49.0223C42.8851 48.8989 43.5094 48.8363 44.1353 48.8354C44.4104 48.8354 44.641 48.96 44.9517 49.0045C45.0133 49.0173 45.0732 49.0383 45.1293 49.0669L45.2979 49.1204C45.4488 49.1204 45.7415 49.0045 45.8569 49.0223C45.9723 49.0402 46.0521 49.2183 46.2473 49.245C46.4426 49.2717 46.6735 49.245 46.851 49.245C47.0284 49.245 46.9399 49.352 47.0464 49.3609C47.1529 49.3698 47.2594 49.2539 47.3038 49.2539C47.3482 49.2539 47.3036 49.3609 47.348 49.3609C47.7029 49.418 48.0627 49.4387 48.4218 49.4231C48.6525 49.0668 48.1823 49.0401 47.9161 48.9332L46.6469 48.3811C46.5049 48.3188 46.3275 48.2743 46.1056 48.1585C45.8838 48.0427 45.6175 47.9713 45.3867 47.8288C45.3867 47.8288 45.2002 47.829 45.2091 47.7756C45.2179 47.7221 45.2093 47.7131 44.9963 47.6151C44.7833 47.5171 45.0582 47.2411 45.6706 47.0452C46.2829 46.8493 46.7976 47.3657 47.2059 47.1609C47.907 46.8046 46.6467 46.6533 46.5225 46.5821C46.3982 46.5108 46.3276 46.2615 46.23 46.217C46.1324 46.1724 46.0169 46.217 45.9371 46.217C45.5065 46.0905 45.0877 45.9266 44.6856 45.7271C44.1519 45.5295 43.663 45.2267 43.2478 44.8365C43.4253 44.6851 43.8335 44.5693 44.1353 44.3912C44.7742 43.9726 45.1558 44.1953 45.9102 43.9993C45.9303 43.9854 45.9469 43.9667 45.9583 43.945C45.9697 43.9233 45.9756 43.8991 45.9756 43.8745C45.9756 43.85 45.9697 43.8258 45.9583 43.8041C45.9469 43.7824 45.9303 43.7639 45.9102 43.7499C45.8303 43.6609 45.6529 43.7499 45.5908 43.7499C45.4624 43.6427 45.3223 43.5501 45.1735 43.4738C45.1025 43.4738 44.934 43.4738 44.8542 43.4738C44.7743 43.4738 44.7301 43.3759 44.6414 43.3403C44.5526 43.3047 44.2506 43.2957 44.1353 43.2511C44.0199 43.2066 43.9934 43.0106 43.8337 42.9572C43.6739 42.9037 43.461 42.8503 43.2924 42.7969C43.1238 42.7435 42.7599 42.7968 42.7776 42.7167C42.7954 42.6365 43.0617 42.5565 43.1061 42.4586C43.1505 42.3606 42.7776 42.6545 42.5735 42.6367C42.3694 42.6188 42.6533 42.2625 42.7421 42.12C42.8292 42.0066 42.9239 41.8994 43.0259 41.7993C43.3099 41.5054 43.9137 41.176 44.1977 40.8376C44.2994 40.7195 44.372 40.5792 44.4104 40.4279C44.4104 40.2765 44.5967 39.8845 44.3038 39.8489C44.011 39.8133 44.1174 39.9646 44.082 39.7954C44.0465 39.6262 43.5497 39.6529 43.3899 39.5906C43.2302 39.5282 43.2034 39.4481 43.0614 39.4036C42.9195 39.3591 42.7951 39.4838 42.7685 39.4749C42.7419 39.466 42.7688 39.3592 42.6623 39.3325C42.3961 39.2434 42.023 39.0118 41.6236 38.8604C41.6236 38.8604 41.3578 38.9404 41.3311 38.9315C41.3045 38.9226 41.1888 38.7267 41.0113 38.7267C40.8339 38.7267 40.8785 38.5753 40.6478 38.4773C40.5857 38.4773 40.3637 38.4773 40.3193 38.4773C39.991 38.3526 39.8754 38.0587 39.5116 37.8183C39.4495 37.8183 39.2366 37.8183 39.1567 37.8183C38.6597 37.5867 38.4379 37.079 39.2277 36.4734C39.5023 36.2833 39.8007 36.1305 40.1152 36.0192C40.3992 35.9034 40.8163 35.9481 41.0027 35.5563C41.189 35.1644 40.7807 34.7367 40.4346 34.4873C40.3458 34.4161 40.1861 34.4875 40.0441 34.3984C40.0441 34.3984 40.2038 34.2558 40.1239 34.2736C39.7245 34.3894 39.4053 33.8997 39.0947 33.7304C39.0947 33.7304 38.979 33.8017 38.9435 33.7304C38.908 33.6592 39.0057 33.5967 39.0323 33.6056C38.8548 33.5433 38.6064 33.6058 38.4911 33.5524C38.3757 33.4989 38.3315 33.2761 38.2428 33.1692C37.941 32.8308 37.3995 32.7062 37.435 32.1986C37.435 31.9492 37.7457 31.7265 37.435 31.495C37.3729 31.4415 37.1865 31.4949 37.1954 31.3791C37.3011 31.1354 37.4195 30.8976 37.5503 30.6665C38.1272 30.0609 39.7246 29.4286 38.846 29.3395C38.7306 29.3395 38.5176 29.4376 38.4022 29.4287C38.2869 29.4198 38.2338 29.2773 38.1362 29.2684C37.9851 29.279 37.836 29.3088 37.6924 29.3573C37.4795 29.3573 37.3727 29.126 37.1863 29.0814C37.1419 29.0814 36.9557 29.1971 36.9202 29.1882C36.8847 29.1793 36.7961 29.0279 36.6186 28.9834C36.4411 28.9388 36.3698 28.9834 36.2633 28.9834C36.1568 28.9834 36.1483 28.832 36.1749 28.8409C35.9087 28.7697 35.5713 28.9566 35.6068 28.7429C35.732 28.6017 35.8786 28.4816 36.0414 28.3867C36.1746 27.9592 35.8907 28.6627 35.9795 28.2976C35.9795 28.1996 36.1125 28.0926 36.1125 28.0036C36.2634 27.8522 36.3968 27.8878 36.6364 27.7898C36.876 27.6919 37.089 27.5049 37.2487 27.4515C37.6037 27.3179 37.8256 27.4516 37.9854 27.3002C38.8728 26.6055 37.6303 26.7122 37.3995 26.6766C36.9292 26.5964 36.6453 26.454 36.1749 26.3382C35.9442 26.2759 35.5714 26.3381 35.2874 26.2134C35.2189 26.185 35.1473 26.1643 35.0742 26.1512C34.8394 26.0778 34.6109 25.9855 34.3909 25.8751C34.2937 25.8354 34.2013 25.7847 34.1157 25.7238C34.1157 25.7238 33.9119 25.8395 33.974 25.7238C34.187 25.4388 33.9119 25.6346 33.7344 25.6168C33.5569 25.599 33.6187 25.4475 33.3968 25.3763C33.3968 25.3763 33.1307 25.4476 33.113 25.4387C33.0952 25.4298 32.909 25.2784 32.7758 25.2071C32.6427 25.1359 32.5716 25.0379 32.4474 24.9756C32.0403 24.8452 31.6613 24.6399 31.3294 24.37C31.3294 24.37 31.4004 24.1651 31.3294 24.1117C31.2104 23.9987 31.1192 23.8591 31.0637 23.7044C31.0082 23.5497 30.9897 23.3842 31.0096 23.2211C31.0363 23.0073 31.119 22.8046 31.2492 22.6333C31.6386 22.1664 32.127 21.792 32.6783 21.5377C32.7582 21.5377 32.9354 21.5377 33.0064 21.5377C33.0774 21.5377 33.3881 21.2171 33.5567 21.1102C33.7253 21.0033 33.8852 21.0301 33.9562 20.9499C34.3556 20.5135 33.8587 20.3264 33.5836 20.2374C33.3085 20.1483 33.1753 19.8633 32.6961 19.988C32.563 19.988 32.1902 19.7922 31.9417 19.7388C31.8618 19.7388 31.7021 19.7388 31.5868 19.7388C31.4714 19.7388 31.5867 19.6051 31.4802 19.6051C31.3737 19.6051 31.2492 19.7477 31.2314 19.7477C31.2137 19.7477 31.134 19.5339 31.0187 19.4894C30.9033 19.4449 30.7434 19.5428 30.6724 19.4894C30.6014 19.436 30.6724 19.2845 30.6014 19.1865C30.5304 19.0885 30.149 19.0618 29.9982 18.9282C29.8473 18.7946 29.8117 18.5632 29.6875 18.4029C29.5632 18.2426 28.9951 17.9663 29.0838 17.5655C29.0838 17.4319 29.3236 17.2983 29.4301 17.1291C29.5366 16.9599 29.5187 16.764 29.785 16.5146C30.0512 16.2653 30.3619 16.0872 30.5394 15.8913C30.5719 15.8012 30.6233 15.7191 30.6902 15.6508C30.7701 15.5795 31.3381 15.2499 31.5777 15.1163C31.8173 14.9827 31.8615 14.9205 32.0478 14.8136C32.2239 14.7362 32.3813 14.6212 32.5085 14.4766C32.6357 14.332 32.7297 14.1612 32.7845 13.9763C32.8707 13.7911 32.9363 13.5971 32.9799 13.3975C32.9799 13.2283 32.6872 13.059 32.625 12.8808C32.5629 12.7027 32.625 12.5157 32.554 12.4444C32.2936 12.0872 31.9961 11.7589 31.6665 11.4649C31.5334 11.3669 31.3382 11.4024 31.2405 11.3223C30.8194 10.946 30.3646 10.6093 29.8825 10.316C29.4742 10.2145 29.0437 10.2618 28.667 10.4495C28.5161 10.5029 28.5157 10.396 28.2939 10.4495C28.072 10.5029 27.6815 10.6632 27.4064 10.6989C27.1313 10.7345 27.1848 10.6989 27.0428 10.6989C27.0134 10.7032 26.9834 10.7032 26.954 10.6989C26.954 10.6989 26.821 10.7701 26.8387 10.6989C26.8565 10.6276 26.9363 10.5654 26.954 10.5743C26.9717 10.5832 26.6344 10.6633 26.59 10.5743C26.515 10.4566 26.4654 10.3246 26.444 10.1866C26.4226 10.0486 26.4302 9.90752 26.4661 9.77258L26.7144 9.5945C26.7144 9.5945 26.9184 9.4343 26.8296 9.48774C27.0249 9.38086 27.1224 9.40745 27.2023 9.35401C27.9211 8.81964 27.5218 8.52588 27.2023 8.39229C27.166 8.38325 27.1348 8.36097 27.1139 8.32988V8.32988L26.3062 6.81587V6.77129C26.3062 6.77129 26.3061 6.77122 26.2351 6.69106L25.9335 6.48623C25.6776 6.32861 25.4034 6.20306 25.1171 6.11224C24.6306 5.95935 24.1162 5.9168 23.6113 5.98765C23.1063 6.0585 22.6234 6.24094 22.1973 6.52189C22.0924 6.58676 21.9913 6.65814 21.8953 6.73563L21.842 6.78912L21.7445 6.87806C21.6178 6.99499 21.5019 7.12333 21.3982 7.26118C21.2562 7.45712 21.2743 7.46601 21.2921 7.46601L21.8511 7.91132L22.1349 8.14289L22.3568 8.3388C22.4161 8.38243 22.4699 8.43322 22.5167 8.49013C22.6143 8.59701 22.5877 8.59701 22.5167 8.49013L22.0729 7.18095V7.13637V7.05635L22.011 6.89589L21.7713 6.29032L21.7089 6.1479C21.7089 6.1479 21.7091 6.1479 21.6647 6.1479H21.5672H21.3982C21.194 6.19707 20.9814 6.19707 20.7773 6.1479C20.7385 6.1668 20.6959 6.1766 20.6529 6.1766C20.6098 6.1766 20.5672 6.1668 20.5285 6.1479C20.2712 6.04103 19.6413 5.02567 19.4461 4.98114C18.9846 4.83864 18.887 5.53331 18.5586 5.64019C18.4876 5.64019 18.31 5.50647 18.2124 5.51538C18.1147 5.52428 17.6802 5.6935 17.3873 5.51538C17.0944 5.33725 16.6506 4.90101 16.411 4.79414C16.3134 4.79414 16.2332 4.69612 16.1267 4.74065L15.7809 5.16813C15.5413 5.47094 15.3281 5.82727 15.0885 6.13899C14.5936 6.69986 14.1733 7.32235 13.8374 7.99133C13.7319 8.35755 13.646 8.72918 13.58 9.10461C13.2087 9.78431 12.9335 10.5129 12.7632 11.269C12.7632 11.4293 12.9231 11.6964 12.8876 11.8567C12.8077 12.1951 12.3996 12.302 12.3641 12.8987C12.3563 13.8783 12.4153 14.8574 12.5413 15.8289C12.5413 16.0426 12.4792 16.1674 12.5413 16.3633C12.6034 16.5592 12.7723 16.9243 12.7901 17.1737C12.8078 17.4231 12.6213 17.3963 12.6479 17.5299C12.7189 17.9217 13.0031 18.2871 13.0652 18.6166C13.1273 18.9461 13.0652 19.0619 13.0652 19.2757C13.1073 19.5122 13.1696 19.7446 13.2516 19.9704C13.3215 20.1375 13.3636 20.3149 13.3759 20.4957C13.3759 20.4957 13.4203 20.6292 13.3759 20.6649L13.1008 20.7273C13.1008 20.7273 13.3313 20.8876 13.3846 20.9945C13.4534 21.2874 13.4534 21.5923 13.3846 21.8851C13.3846 22.0098 13.5266 22.3304 13.3846 22.5531C13.1627 22.9182 12.7189 23.1142 11.7072 23.0251L11.2903 22.9627C11.2104 22.9627 11.2902 22.8738 11.1659 22.8471C10.8997 22.7847 10.5893 22.7668 10.4739 22.7133C10.3585 22.6599 10.4735 22.5709 10.3404 22.5085C10.2073 22.4462 10.0834 22.5085 10.0657 22.4639C10.0479 22.4194 10.0657 22.4017 10.0657 22.3839C10.0657 22.3661 9.69262 22.3125 9.50625 22.2502C9.31988 22.1879 9.35533 22.1167 9.23108 22.0721C8.76072 21.9207 8.04196 21.618 7.98871 21.9564C7.98871 21.9564 8.15725 22.0455 8.12175 22.1256C8.08625 22.2058 7.83814 22.3394 7.84701 22.4107C7.85589 22.4819 8.05962 22.5353 8.12175 22.6155C8.18387 22.6957 8.12209 22.758 8.25521 22.856C8.38833 22.9539 8.41465 22.9182 8.37915 22.9538C8.34365 22.9895 8.37925 22.9538 8.48575 22.9538C8.59224 22.9538 8.74315 22.9539 8.96502 23.0073C9.18688 23.0608 9.46212 23.0696 9.75498 23.123C10.0478 23.1764 10.4029 23.239 10.7313 23.3102L11.4766 23.4437C11.7162 23.4972 11.9646 23.5684 12.2042 23.6396C12.4438 23.7109 12.577 23.7375 12.7723 23.8088C12.9576 23.8669 13.1384 23.9383 13.3135 24.0225C13.491 24.1027 13.5708 24.1207 13.704 24.1919C13.8175 24.2533 13.9273 24.3217 14.0324 24.3967C14.105 24.433 14.1711 24.4811 14.2279 24.5392C14.4586 24.7262 14.3432 24.7796 14.2279 24.2719V24.2095L8.21058 27.6653C8.28435 27.6578 8.35868 27.6578 8.43245 27.6653C8.49457 27.6653 8.43245 27.7188 8.43245 27.7277C8.56909 27.8161 8.71886 27.8823 8.87618 27.9236C9.00043 27.9236 9.07172 28.0926 9.17822 28.2173C9.28471 28.342 9.37346 28.8676 9.62195 29.1971C9.68407 29.2773 9.86118 29.3396 9.89668 29.4198C9.93218 29.4999 9.89668 29.6336 9.89668 29.7405C9.89668 29.8473 10.1718 30.159 10.1541 30.3193C10.1363 30.4796 9.62185 30.8447 9.95908 31.1564C10.1366 31.3256 9.95913 31.6997 10.0124 32.047C10.0124 32.145 10.1276 32.1984 10.1276 32.2608C10.1276 32.3231 9.93223 32.5014 9.94998 32.6082C9.96773 32.7151 10.1987 32.7686 10.1987 32.8487C10.1987 32.9289 10.021 33.0445 10.021 33.1514C10.0918 33.4448 10.1453 33.7422 10.1809 34.042C10.1236 34.2525 10.0494 34.4582 9.95908 34.6567C9.87034 35.0041 10.0033 35.4672 9.79918 35.7343C9.58572 35.9298 9.32094 36.0596 9.03608 36.1083C8.76984 36.1083 8.06853 35.9659 7.93541 35.9837C7.72315 36.0278 7.51965 36.106 7.33221 36.2153C6.9506 36.4023 6.78167 36.4823 6.79055 36.9544C6.79055 36.9544 6.91512 37.0612 6.90625 37.1325C6.89737 37.2037 6.73768 37.2929 6.73768 37.2751C6.73768 37.2573 6.95913 37.4533 6.97688 37.5334C6.99463 37.6136 6.88829 37.756 6.91491 37.8628C6.94154 37.9697 7.10151 38.0767 7.14588 38.1835C7.19025 38.2904 7.08376 38.326 7.14588 38.3973C7.208 38.4685 7.32337 38.6287 7.36775 38.7178C7.47424 38.9672 7.36769 39.1364 7.53631 39.3768C7.53631 39.3768 7.77574 39.5195 7.78461 39.5373C7.79349 39.5551 7.71379 39.7153 7.74041 39.8132C7.76704 39.9112 7.90882 40.0003 7.97095 40.0805C8.03307 40.1606 7.89995 40.1962 7.97095 40.2496C8.04194 40.3031 8.21947 40.3388 8.22835 40.3477C8.30822 40.508 8.22863 40.6773 8.29075 40.8198C8.41499 41.176 9.0005 41.7104 8.50351 41.9687C8.00653 41.9687 8.50358 41.7549 8.13085 41.7193C7.95335 41.8173 8.13088 41.8975 7.94451 41.9776C7.75815 42.0578 7.41189 41.9775 7.35865 42.1111C7.3054 42.2447 7.545 42.4406 7.56275 42.5564C7.5805 42.6722 7.43861 42.9572 7.44748 43.1887C7.45635 43.4203 7.64271 43.5361 7.65158 43.7054C7.69536 44.3343 7.59512 44.9649 7.35865 45.549C7.35865 45.647 7.13669 45.647 7.04795 45.7538C6.9592 45.8607 6.98584 46.1012 6.84385 46.2348C6.70185 46.3684 6.15162 46.5196 5.95638 46.7156C5.78928 46.8943 5.67584 47.1166 5.62834 47.357C5.58255 47.6168 5.50814 47.8706 5.40648 48.1139C5.34436 48.2208 5.13994 48.3899 5.10444 48.5146C5.07767 48.6858 5.07767 48.8601 5.10444 49.0313C5.11803 49.2359 5.11803 49.4411 5.10444 49.6457C5.10444 49.7704 5.06 49.904 5.03338 50.0376C5.00675 50.1712 4.98048 50.4028 4.94498 50.5988C4.90948 50.7947 4.89145 50.9639 4.88258 51.2043C4.8737 51.4448 4.88285 51.7921 4.94498 52.095L4.99784 52.4068V52.5759L5.06891 52.8342C5.17541 53.1816 5.30868 53.5288 5.45068 53.8673L5.68121 54.3572C5.83267 54.6463 6.00189 54.9258 6.18735 55.1943C6.54302 55.7232 6.95344 56.213 7.41195 56.655L12.5504 43.4916C12.1011 43.4654 11.6507 43.4654 11.2015 43.4916L10.5445 43.5451C10.2783 43.5451 10.0035 43.6163 9.73722 43.6697L9.32902 43.7499L8.85842 43.8834C8.53224 43.9797 8.2121 44.0958 7.89988 44.2309C6.4244 44.8904 5.18557 45.9874 4.35001 47.3746C4.22196 47.5781 4.10669 47.7895 4.00421 48.0071C3.91546 48.1942 3.82646 48.3989 3.73771 48.6127C3.58021 49.0283 3.44983 49.4537 3.34728 49.8862C3.26137 50.2649 3.19916 50.6487 3.16094 51.0352C3.16094 51.338 3.11674 51.7299 3.11674 51.9971C3.13395 52.8658 3.23486 53.7307 3.41834 54.5798C3.41834 54.5798 3.58713 54.5799 3.59601 54.6957C3.72464 55.7163 4.06279 56.6989 4.58964 57.5813C4.66064 57.7149 4.51865 57.8039 4.58964 57.9375C4.6976 58.1178 4.78708 58.3087 4.85614 58.5074C4.90052 58.6499 5.10448 58.6856 5.13998 58.7835C5.23386 59.0803 5.37489 59.3599 5.55728 59.6117C5.62828 59.7186 5.5129 59.8613 5.55728 59.986C5.70071 60.1311 5.83388 60.2858 5.95638 60.4491C5.95638 60.4491 6.1693 60.3689 6.10718 60.4491C5.79657 60.8143 6.81715 60.6717 6.99465 60.8588C7.17214 61.0458 6.924 61.2774 6.90625 61.5445C6.89806 61.8816 6.96451 62.2161 7.10125 62.5241C7.15449 62.6666 7.21679 62.818 7.27891 62.9605C7.34104 63.103 7.38541 63.2279 7.27891 63.1477C7.17242 63.0676 7.50939 63.0763 7.01241 63.2545C7.06566 63.2545 7.01241 63.2099 7.01241 63.2545L9.01832 62.2393L8.92082 62.2836L8.56548 62.4708L7.11901 63.2099L7.03018 63.2545L6.96821 63.201C6.79987 63.0443 6.65089 62.868 6.52448 62.6757C6.52448 62.6133 6.56885 62.4351 6.52448 62.3638C6.48011 62.2926 6.2139 62.2748 6.11628 62.1947C6.01866 62.1145 6.16065 61.9719 6.11628 61.865C6.07191 61.7582 5.92989 61.8117 5.87665 61.7137C5.8234 61.6157 5.8768 61.4199 5.81468 61.313C5.53956 60.9122 4.98048 60.5826 4.72311 60.1551C4.72311 60.1017 4.58077 59.9859 4.58964 59.9057C4.59852 59.8256 4.8026 59.7543 4.77598 59.6563C4.74935 59.5584 4.50121 59.6563 4.46571 59.6563C4.43021 59.6563 4.53676 59.4782 4.51901 59.4693C4.05365 58.674 3.63833 57.85 3.27621 57.0023C3.03095 56.7096 2.81961 56.3898 2.64614 56.0493C2.4429 55.3661 2.32691 54.66 2.30034 53.9475C2.21955 52.806 2.21955 51.6601 2.30034 50.5185C2.30034 50.3315 2.29996 50.1179 2.35321 49.7706C2.39544 49.3687 2.4636 48.97 2.55731 48.577C2.61056 48.3366 2.68174 48.0961 2.75274 47.8734C2.82374 47.6508 2.91231 47.4192 3.01881 47.1609C3.18769 46.7555 3.39594 46.3679 3.64021 46.0032C3.90645 45.6292 4.20808 45.6379 4.42108 45.3975C5.06797 44.6641 5.801 44.0123 6.60421 43.456C7.3224 42.9632 8.13093 42.6182 8.98278 42.4407C9.2579 42.4407 9.53296 42.3694 9.81695 42.3516H10.2429H10.6334L12.4083 42.414H12.4971L6.64885 57.3941C5.88452 56.658 5.22999 55.8152 4.70534 54.8916C4.39992 54.3268 4.15874 53.7293 3.98644 53.1104C3.98644 52.9857 3.92423 52.8698 3.89761 52.754C3.90153 52.6858 3.90153 52.6174 3.89761 52.5492C3.89761 52.4067 3.89761 52.2731 3.89761 52.1306C3.89761 51.8545 3.89761 51.5785 3.89761 51.3113C3.91204 51.0592 3.91204 50.8063 3.89761 50.5542L3.84431 49.8862C3.80058 49.5433 3.80058 49.1962 3.84431 48.8532C3.84431 48.6572 4.08379 48.4524 4.14591 48.2298C4.20803 48.0071 4.14598 47.6063 4.21698 47.2679C4.21698 47.1343 4.4922 46.9829 4.54544 46.8582C4.70519 46.4841 4.43907 46.3593 4.89168 46.2613H5.17551C5.25538 46.1901 5.10451 46.0032 5.17551 45.9319C5.24651 45.8607 5.53069 45.9319 5.59281 45.9319C5.75456 45.8337 5.90883 45.7234 6.05431 45.6023C6.14306 45.5132 6.05416 45.3351 6.11628 45.1748C6.1784 45.0145 6.48896 44.8363 6.50671 44.4801C6.50671 44.4801 6.34685 44.3911 6.38235 44.3377C6.51358 44.1494 6.59895 43.9328 6.63108 43.7054C6.63108 43.5896 6.43584 43.4293 6.40921 43.3135C6.38259 43.1978 6.51559 42.9393 6.50671 42.7256C6.50671 42.1111 5.77011 41.6212 6.50671 41.3629C6.63096 41.3629 6.50687 41.2918 6.66661 41.274C6.82636 41.2562 6.8262 41.274 6.95045 41.274C7.21669 41.1938 7.23442 41.087 7.15455 40.9C7.15455 40.9 7.00378 40.8019 7.03928 40.7663C7.07478 40.7306 7.2167 40.7663 7.19008 40.7663C7.16346 40.7663 6.87955 40.4902 6.83518 40.3566C6.79081 40.223 6.9328 39.8846 6.83518 39.6708C6.73756 39.4571 6.51578 39.4126 6.48028 39.3147C6.44478 39.2167 6.48023 38.9762 6.42698 38.798C6.3306 38.6054 6.22364 38.418 6.10718 38.2368C6.05393 38.1478 6.10753 38.0588 6.01878 37.9341C5.93003 37.8095 5.78802 37.7382 5.77915 37.6758C5.73477 37.4621 5.90327 37.2751 5.87665 37.0792C6.3115 37.0792 6.11626 37.2751 6.54225 37.3108C6.54225 37.0525 5.79677 37.1058 5.65478 36.9811C5.71484 36.6588 5.81323 36.3448 5.94771 36.0459C6.06308 35.8767 6.26729 35.8679 6.70215 35.7433C7.07046 35.6196 7.45975 35.571 7.84701 35.6006C8.01563 35.6006 8.50355 35.6006 8.53905 35.6006C8.70767 35.5383 8.61869 35.3245 8.75181 35.1375C8.88494 34.9504 9.03612 34.9861 9.07162 34.9148C9.22248 34.5586 8.99143 34.0242 8.97368 33.6145C8.97368 33.383 9.0716 33.1782 9.05385 32.9912C9.0361 32.8041 8.80513 32.6973 8.82288 32.5993C8.84063 32.5014 9.08921 32.4033 9.13358 32.2786C9.17023 32.1937 9.18238 32.1002 9.16825 32.0088C9.15411 31.9174 9.11441 31.8319 9.05385 31.7622C8.99173 31.6999 8.79622 31.6552 8.78735 31.5839C8.77847 31.5127 9.11601 31.397 9.08938 31.3169C9.06276 31.2367 8.64537 30.916 8.58325 30.7379C8.43238 30.2836 9.2225 29.6425 8.64565 29.2595C8.49478 29.1526 8.81399 28.6182 8.36138 28.5291C8.09514 28.4668 8.17531 28.5292 8.21968 28.36C8.26405 28.1907 8.04219 28.1372 7.77595 28.0571C7.50971 27.9769 7.86438 28.0572 7.89988 27.9503C7.80973 27.8984 7.71052 27.865 7.60738 27.8522H7.33221C7.07485 27.9146 7.85566 27.7364 8.28165 27.5939L14.334 24.1295C14.3296 24.1739 14.3296 24.2186 14.334 24.263C14.3457 24.3531 14.373 24.4405 14.4142 24.5213C14.4082 24.5447 14.4082 24.5693 14.4142 24.5926L14.3609 24.5392C14.3004 24.4777 14.2349 24.4211 14.1655 24.37C14.0949 24.3294 14.0268 24.2847 13.9614 24.2363L13.6507 24.0671C13.5619 24.0671 13.4999 24.0138 13.3668 23.9425L12.9764 23.782L12.6479 23.6753C12.5237 23.6753 12.4085 23.6217 12.2133 23.5505C11.8123 23.4265 11.4027 23.3315 10.9883 23.2656C10.8538 23.2459 10.7208 23.2191 10.5892 23.1854L10.1185 23.0962C9.80794 23.0339 9.47992 22.9894 9.14268 22.9449C8.80544 22.9004 8.51255 22.8916 7.99781 22.8114L7.19008 22.7133C7.14571 22.7133 6.97704 22.7133 6.91491 22.6599C6.85279 22.6064 6.85272 22.5887 6.84385 22.5353C6.83905 22.4461 6.81815 22.3585 6.78188 22.2769C6.78188 22.179 6.5956 22.0276 6.64885 21.8495C6.65523 21.7903 6.65523 21.7306 6.64885 21.6714C6.64885 21.6179 6.88851 21.6 6.92401 21.5733C6.95951 21.5466 6.97723 21.4308 7.33221 21.3239L7.60738 21.2082C8.16142 21.1395 8.72168 21.1395 9.27572 21.2082C9.35559 21.2082 9.21359 21.3863 9.27572 21.4131C9.33784 21.4398 9.79048 21.4842 9.97685 21.5466C10.1632 21.6089 10.0389 21.6625 10.1099 21.6981C10.1809 21.7338 10.305 21.7514 10.3937 21.796C10.7132 21.9296 10.9261 22.0809 11.2279 22.2056C11.5296 22.3303 11.8936 22.4373 12.1864 22.5353C12.5059 22.3839 12.2487 22.1791 12.3286 21.9654C12.4084 21.7516 12.6037 21.7604 12.6037 21.6536C12.6037 21.5467 12.3727 21.431 12.3195 21.2974C12.2662 21.1638 12.4527 20.8164 12.4438 20.5759C12.4097 20.3192 12.3533 20.0658 12.2753 19.8188C12.2753 19.6318 12.0089 19.4538 11.9823 19.2935C11.9557 19.1332 12.1597 18.9996 12.1154 18.8304C12.0839 18.6887 12.0366 18.5511 11.9737 18.4205C11.9115 18.3225 11.716 18.1979 11.6894 18.0732C11.6628 17.9485 11.8493 17.6636 11.8315 17.4409C11.8138 17.2183 11.6187 17.1291 11.5655 16.9154C11.4412 16.4077 11.7693 15.9447 11.5031 15.4905C11.4321 15.3747 11.2811 15.2856 11.2457 15.1609C11.1747 14.8759 11.3434 14.6355 11.3345 14.3416C11.3256 14.0477 11.1572 13.9585 11.1217 13.7447C11.0862 13.531 11.2812 13.6557 11.299 13.5488C11.3167 13.4419 11.1037 13.0947 11.1126 12.9432C11.1215 12.7918 11.2992 12.8542 11.2903 12.7562C11.2814 12.6583 11.1037 12.3643 11.1126 12.2218C11.1215 12.0793 11.299 12.0527 11.3345 11.8835C11.37 11.7142 11.2724 11.5183 11.3345 11.4025C11.4055 11.1353 11.6097 10.9482 11.6807 10.681C11.7517 10.4138 11.6807 10.2982 11.6807 10.1379C11.6807 9.97756 11.9115 9.91507 11.9559 9.76366C12.1334 9.22929 12.1157 8.44568 12.5062 8.12506C12.5832 8.05264 12.6662 7.9871 12.7545 7.92915C12.8078 7.78665 12.7013 7.5639 12.7545 7.38577C12.8634 6.99124 13.0819 6.63607 13.3846 6.36164C13.6153 6.05883 13.7575 5.59553 13.9882 5.28381C14.4053 4.71381 14.9643 4.25978 15.4525 3.69869C15.4968 3.69869 15.5502 3.54714 15.5768 3.54714H15.6566L15.7896 3.46712C15.8495 3.43438 15.9168 3.41711 15.985 3.41711C16.0532 3.41711 16.1201 3.43438 16.18 3.46712C16.3753 3.54728 16.7481 4.03708 16.97 4.09943C17.0321 4.09943 17.1562 4.01037 17.2894 3.88569C17.4077 3.74663 17.5353 3.61576 17.6711 3.49387C17.7954 3.41371 18.0351 3.3424 18.2392 3.20881C18.5853 2.96834 18.958 2.15787 19.2597 2.31818C19.5725 2.78612 19.8316 3.288 20.0319 3.81437C20.0805 3.91655 20.1368 4.01488 20.2005 4.10834C20.4978 4.35198 20.842 4.53078 21.2119 4.63367L21.3718 4.68716C21.4339 4.82966 21.5051 5.04349 21.5672 5.21271C21.6826 5.56005 21.8065 5.89837 21.913 6.21009C22.1881 7.02056 22.4278 7.75974 22.6497 8.40098C22.6497 8.40098 22.6941 8.46333 22.6497 8.40098V8.35663L22.5522 8.26748L22.4547 8.17833L22.2948 8.03591C22.0463 7.83997 21.7977 7.6441 21.5581 7.43926L20.4666 6.54864V6.49515L20.5108 6.44166L20.6884 6.22792C20.8221 6.07152 20.9677 5.92564 21.1235 5.79152L21.1764 5.73803C21.274 5.65788 21.3895 5.569 21.5226 5.47994C22.1731 5.03083 22.9284 4.75769 23.7148 4.68716C24.5719 4.60533 25.4349 4.76252 26.2087 5.14139C26.494 5.28679 26.7642 5.45987 27.016 5.65802C27.087 5.71145 27.1048 5.73804 27.1048 5.74695V5.80935L27.1668 5.93416L28.1786 7.83108C28.1786 7.88452 28.1787 7.93788 28.2319 7.9735C28.2851 8.00913 28.5158 7.97356 28.5868 8.03591C28.6578 8.09825 28.5868 8.14291 28.5868 8.16963C28.5868 8.19635 28.8176 8.16963 28.8264 8.16963C28.801 8.25897 28.7556 8.34105 28.6934 8.4099C28.6934 8.4099 28.1519 8.86418 28.0898 8.91762C27.6993 9.19371 27.531 9.18481 27.3535 9.37184C27.176 9.55887 27.1582 9.68354 27.2292 9.79932C27.3002 9.9151 27.5042 9.70149 27.6018 9.71931C27.6995 9.73712 27.5397 9.89744 27.6018 9.95088C27.664 10.0043 27.7261 9.95082 27.8415 9.88847H27.9212C28.0898 9.88847 28.1078 10.0043 28.3918 9.88847L28.667 9.71039C28.7557 9.71039 28.7377 9.76366 28.8087 9.76366C28.8797 9.76366 29.0752 9.62122 29.1462 9.60341C29.4568 9.54107 29.6165 9.60334 29.8916 9.53209C30.0247 9.48756 30.1934 9.38077 30.2378 9.39859C30.2822 9.4164 30.2378 9.56777 30.2378 9.58558C30.4952 9.71027 30.6726 9.58565 30.8146 9.6569C30.9566 9.72815 30.9653 9.94182 31.0806 10.022C31.196 10.1021 31.3826 10.0934 31.5157 10.1646C31.6488 10.2359 31.6575 10.4495 31.7818 10.5386C31.906 10.6277 32.0035 10.5387 32.1011 10.601C32.1988 10.6634 32.2256 11.0195 32.3676 11.1887C32.5096 11.358 32.6427 11.2421 32.7225 11.3223C32.8024 11.4024 32.9446 11.8567 33.1221 12.0526C33.2996 12.2486 33.4237 12.0525 33.477 12.1861C33.5361 12.3443 33.5775 12.5087 33.6009 12.676C33.6719 12.8987 33.7699 13.1304 33.7877 13.0591C33.5579 13.6369 33.1958 14.1524 32.7312 14.5642C32.4777 14.7747 32.2043 14.9595 31.9148 15.1163C31.7284 15.2499 31.631 15.3658 31.4802 15.4638C31.0991 15.7242 30.7454 16.0226 30.4241 16.3544C30.007 16.7641 29.9624 16.7196 29.918 17.0313C29.8736 17.343 30.0867 16.9867 30.2465 17.1737C30.4062 17.3607 30.3266 17.4854 30.4597 17.5923C30.5928 17.6991 30.77 17.6813 30.8232 17.7882C30.8765 17.8951 30.7434 18.1268 30.8232 18.1713C31.0457 18.2873 31.2915 18.3512 31.5421 18.3583C31.6157 18.3559 31.6889 18.3712 31.7553 18.4029C31.8973 18.483 31.7553 18.6878 31.9061 18.7947C32.057 18.9016 32.1812 18.848 32.3321 18.8747C32.4738 18.917 32.6193 18.944 32.7667 18.9549C32.891 18.9549 33.2019 18.7501 33.3439 18.7769C33.7788 18.8748 33.6099 19.3022 34.1335 19.3289C34.2311 19.3289 34.2313 19.418 34.3467 19.3824C34.462 19.3468 34.5772 19.2578 34.595 19.2578C34.6127 19.2578 34.524 19.4538 34.595 19.4805C34.666 19.5072 34.8258 19.3646 34.8879 19.4092C35.3849 19.7565 35.4914 20.4602 34.0004 21.2706L33.6364 21.4755C33.6364 21.4755 33.2993 21.6714 33.2638 21.6803C33.2283 21.6892 32.9265 21.6269 32.7667 21.6803C32.7667 21.6803 32.4917 21.9563 32.3585 22.0543C32.1822 22.122 32.0198 22.2217 31.8793 22.3483C31.755 22.4997 31.8793 22.4284 31.8793 22.562C31.8793 22.6956 31.6841 22.7579 31.6929 22.7668C31.7563 22.9991 31.8586 23.2189 31.995 23.417C32.0571 23.5238 32.27 23.5506 32.3676 23.6931C32.4884 23.9286 32.6814 24.1189 32.918 24.2363C33.0068 24.2891 33.0983 24.3368 33.1927 24.3789C33.2815 24.3789 33.477 24.3789 33.548 24.3789C34.0273 24.6105 34.2665 24.9934 34.5239 25.0558C34.7813 25.1181 35.1987 24.9934 35.3407 25.0558C35.4827 25.1181 35.3405 25.2248 35.5357 25.3317C35.731 25.4386 35.8374 25.3317 35.8551 25.3317C35.8729 25.3317 35.7664 25.5277 35.8551 25.5544C35.9439 25.5811 36.0683 25.4654 36.2902 25.4565C36.512 25.4476 36.4056 25.6079 36.5653 25.6168C36.722 25.6247 36.8788 25.6247 37.0355 25.6168C37.1243 25.6168 37.4082 25.5189 37.4792 25.5278C37.5502 25.5368 37.5237 25.6881 37.6036 25.7148C37.6835 25.7416 37.8699 25.6435 37.8965 25.6524C37.9232 25.6613 38.0561 25.8306 38.1981 25.8662C38.5176 25.9285 38.9613 25.8662 39.2364 25.9197C39.5115 25.9731 39.9554 26.1067 39.84 26.3382C39.7247 26.5698 39.5558 26.543 39.405 26.6944C39.2541 26.8458 39.405 26.8191 39.2364 26.9438C38.6074 27.3389 37.9489 27.6845 37.2665 27.9771C37.3818 28.2086 37.9321 28.0571 38.1539 28.1106C38.3758 28.164 38.4468 28.3065 38.6332 28.3421C38.9582 28.3646 39.2841 28.3646 39.6091 28.3421C39.7156 28.3421 39.7247 28.4135 39.8223 28.4135C39.9199 28.4135 40.0442 28.351 40.1152 28.351C40.1862 28.351 40.2217 28.4224 40.3193 28.4135C40.498 28.3626 40.6896 28.3849 40.8519 28.4756C41.1447 28.5914 41.1534 28.5736 40.8072 28.912C40.1104 29.3698 39.4464 29.8759 38.8195 30.4263C38.6687 30.7024 39.1744 30.5686 39.3608 30.7468C39.3608 30.7468 39.2365 30.8981 39.3075 30.9159C39.3785 30.9337 39.5383 30.9161 39.4318 31.1031C39.3253 31.2902 39.0324 31.3701 38.7129 31.7798C38.9526 32.0292 38.9879 32.3499 39.2186 32.5458C39.2808 32.5993 39.4764 32.5458 39.574 32.5458C39.6716 32.5458 39.8134 32.8219 40.0086 32.9377C40.4233 33.1332 40.8109 33.3818 41.1621 33.6769C41.1621 33.6769 41.3487 33.6146 41.3398 33.6769C41.3309 33.7393 41.2068 33.7659 41.2601 33.8015C41.3133 33.8372 41.5174 33.8015 41.615 33.8015C41.7126 33.8015 42.4047 34.4161 42.3781 34.6922C42.3781 34.6922 42.2361 34.8881 42.2095 34.9505C41.7329 35.5949 41.0878 36.0943 40.3457 36.3934C39.9286 36.5893 39.7778 36.6872 39.9198 36.9811C39.9198 36.9811 40.1064 36.9812 40.133 37.0524C40.1399 37.1227 40.1645 37.1897 40.2049 37.2475C40.2453 37.3052 40.3 37.3515 40.3635 37.3819C40.5854 37.4798 40.8872 37.4265 40.9316 37.4799C41.189 37.7471 40.6477 37.9252 41.2068 37.8628C41.7659 37.8005 41.9788 38.237 42.4669 38.3973C42.7243 38.4774 43.0349 38.5131 43.3544 38.6199C43.4698 38.6645 43.5497 38.7891 43.6651 38.8159C43.7805 38.8426 43.9401 38.611 44.0378 38.611C44.1278 38.7027 44.2416 38.7674 44.3662 38.798C44.6385 38.8239 44.899 38.9224 45.1207 39.0831C45.2183 39.1721 45.1203 39.3234 45.1913 39.3947C45.3777 39.6262 45.6619 39.6174 45.2715 40.1607C45.202 40.2215 45.1366 40.2869 45.076 40.3566C45.0139 40.5436 44.9962 40.4724 44.7034 40.7752C44.6412 40.8286 44.5525 40.9711 44.517 40.9978C44.1666 41.2337 43.8342 41.4958 43.523 41.7817C43.4608 41.8797 43.6382 41.9242 43.8601 41.9687C44.0897 42.0212 44.3129 42.0988 44.5257 42.2003C44.8274 42.3428 44.7477 42.4764 45.1293 42.4586C45.5109 42.4408 45.2624 42.5565 45.5375 42.6723C45.5819 42.6723 45.7506 42.6723 45.8482 42.6723C45.9458 42.6723 46.1232 42.6723 46.1676 42.6723C46.212 42.6723 46.1675 42.8681 46.2829 42.9126C46.3982 42.9571 46.5228 42.9126 46.6027 42.9126C46.6825 42.9126 46.7 43.0107 46.8154 43.0552C46.9308 43.0998 47.2858 43.1531 47.3302 43.1887C47.3746 43.2244 47.2328 43.3401 47.2683 43.4025C47.3038 43.4648 47.6939 43.5539 47.1703 43.8656C46.8952 44.0259 46.7978 44.1418 46.7002 44.1863C46.2553 44.3664 45.7771 44.4485 45.2979 44.4268C45.2535 44.4268 44.366 44.3555 44.1353 44.5336C43.656 44.8809 44.5079 44.7829 44.9161 44.9432C45.3244 45.1035 45.4046 45.4954 46.0081 45.4153C46.3897 45.4153 46.132 45.6291 46.558 45.6736H46.8601C46.9488 45.727 46.8597 45.9052 46.9662 45.9408C47.0727 45.9765 47.2946 45.8339 47.3922 45.8873C47.468 45.934 47.5395 45.9876 47.6054 46.0476C47.7385 46.1634 47.6765 46.404 47.7653 46.4664C47.854 46.5287 48.067 46.3416 48.1735 46.3594C48.28 46.3772 48.3422 46.6178 48.4487 46.6801C48.5552 46.7425 48.9542 46.6178 48.83 46.8939C48.4575 47.1949 47.9846 47.3414 47.5079 47.3035C47.428 47.3035 47.2414 47.348 47.2059 47.3035C47.1704 47.259 47.3568 47.143 47.2947 47.143C47.2326 47.143 46.9752 47.2411 46.8865 47.2411C46.5905 47.2003 46.2895 47.2154 45.999 47.2857C45.999 47.446 46.2031 47.4549 46.3895 47.5083V47.6062C46.3895 47.6062 46.7178 47.5351 46.8154 47.5618C46.913 47.5885 46.9131 47.7488 47.0551 47.7756C47.3657 47.8468 47.9427 47.7755 48.1735 47.9447C48.4042 48.1139 48.0847 48.2385 48.1735 48.2652C48.2622 48.292 48.6701 48.2652 48.9275 48.2652C49.1849 48.2652 50.2767 48.764 50.0637 49.1559C49.8466 49.3363 49.6183 49.503 49.3803 49.6547C49.0963 49.7972 49.1141 49.6547 48.9544 49.7171C48.7946 49.7794 48.9542 49.7171 48.83 49.7706C48.3774 50.0466 48.5017 49.7706 48.1999 49.7706C48.0934 49.7706 47.6852 49.9219 47.5166 49.9308C47.3479 49.9397 47.3837 49.8773 47.3393 49.8773C46.8407 49.8043 46.3457 49.7064 45.8569 49.5836C45.635 49.5836 45.3159 49.5836 45.1029 49.5836C44.8899 49.5836 44.8366 49.4142 44.6059 49.4587C44.5615 49.4587 44.3839 49.5746 44.3485 49.5657C44.0911 49.5212 44.0379 49.3074 43.7895 49.2807C43.4922 49.2943 43.196 49.3239 42.902 49.3696C42.4316 49.6012 42.9726 49.5657 42.7507 49.7527C42.5289 49.9398 42.6444 49.6012 42.4314 49.6814C42.2184 49.7616 42.5289 49.8774 42.7507 49.7527C43.2389 49.4766 43.0704 49.9841 43.168 50.0376C43.2657 50.091 43.3987 49.993 43.4696 50.0376C43.5406 50.0821 43.4695 50.2514 43.5849 50.3226C43.7003 50.3939 44.1086 50.5365 44.3394 50.6879C44.5701 50.8393 44.7741 51.4627 45.138 51.4805C45.2267 51.4805 45.4845 51.3381 45.5466 51.3648C45.6087 51.3915 45.5463 51.5963 45.7061 51.7299C45.8658 51.8635 46.2832 51.8278 46.4163 51.9258C46.5494 52.0238 46.3542 52.2463 46.4163 52.2909C46.5254 52.3269 46.6387 52.3479 46.7535 52.3533C46.8156 52.3533 46.8864 52.4601 46.984 52.4868C47.0816 52.5135 47.2325 52.4068 47.2592 52.4246C47.2858 52.4424 47.2594 52.5314 47.3216 52.5492C47.5345 52.5909 47.7384 52.6692 47.9248 52.7807C48.0224 52.8342 48.3508 52.9768 48.697 53.1193C49.0431 53.2618 49.6997 53.2262 49.2204 53.5646C48.8732 53.8213 48.4673 53.9865 48.04 54.0454C47.9247 54.0454 48.0403 54.0454 47.8806 54.0454C47.7208 54.0454 47.7652 54.0455 47.4546 54.1523C47.3303 54.3483 47.8451 54.2058 48.1557 54.1523C48.3242 54.1435 48.4929 54.1435 48.6614 54.1523H48.7503C49.0076 54.1523 49.1139 54.2591 49.4068 54.3037C49.5466 54.3143 49.686 54.3321 49.8241 54.3572C49.8951 54.3572 49.7797 54.5085 49.8241 54.5442C49.8684 54.5798 50.099 54.5442 50.1079 54.5442C50.1168 54.5442 50.1079 54.6867 50.1079 54.7757C50.0957 54.8103 50.0957 54.8481 50.1079 54.8827C49.6658 55.0238 49.2152 55.1368 48.7589 55.221C48.8422 55.3605 48.962 55.4746 49.1052 55.5507C49.2294 55.6219 49.4337 55.604 49.558 55.6753C49.6822 55.7465 49.682 55.9515 49.8063 56.0316C49.9305 56.1118 50.1702 56.085 50.2678 56.1384C50.5252 56.272 50.7025 56.4234 50.9776 56.5391C51.2527 56.6549 51.6875 56.6906 51.8118 56.7618C51.936 56.8331 51.8743 57.0648 51.9808 57.1449C52.0873 57.2251 52.4597 57.0202 52.3443 57.2784C52.1662 57.5655 51.8827 57.7703 51.5548 57.8483C50.9957 58.071 50.747 57.5011 50.25 57.6881C50.1258 57.7682 50.2501 57.7949 50.3211 57.8394C50.3921 57.884 50.4542 57.9554 50.543 58.0088C50.7735 58.1004 51.0153 58.1603 51.2619 58.1869C51.3861 58.1869 51.3417 58.2493 51.466 58.2582C51.7906 58.2804 52.1135 58.322 52.4332 58.3828C52.8236 58.4451 53.1608 58.5254 53.214 58.6768C53.2673 58.8282 53.2761 58.7747 53.1607 59.0597C53.1075 59.1933 52.9658 59.2822 53.0723 59.3891C53.3208 59.6474 53.8352 59.309 54.2345 59.2556C54.3055 59.2556 54.51 59.3001 54.6432 59.2556C54.9094 59.2556 55.1221 59.1576 55.0245 59.4604C55.0245 59.5139 54.8649 59.7187 54.9092 59.7366C55.3448 59.7049 55.7731 59.6057 56.1785 59.4426C56.3878 59.3801 56.6011 59.3325 56.8172 59.3002C57.0124 59.3002 57.1809 59.3002 57.3584 59.3002C57.8021 59.1517 58.2561 59.0355 58.7165 58.9527C58.8319 58.9527 58.8408 59.0507 58.9561 59.0329C59.3738 59.0144 59.7923 59.0294 60.2076 59.0775C60.3496 59.4159 59.9766 59.0775 60.163 59.5139C60.234 59.6742 60.1188 59.7454 60.5803 59.6563C60.8465 59.5138 60.4646 59.3624 60.4646 59.211C60.9083 59.0774 61.0948 59.3714 61.4409 59.4872C61.787 59.6029 62.5414 59.5674 62.6746 59.799C62.8077 60.0305 62.5326 59.9059 62.932 60.0394C63.0828 60.0929 63.2247 60.1017 63.4377 60.1908C63.9679 60.519 64.4695 60.8914 64.9374 61.3041C65.0617 61.3931 65.3193 61.4555 65.408 61.5445C65.4968 61.6336 65.4081 61.8116 65.4791 61.8918C65.5501 61.972 66.0027 62.061 65.8873 62.5508C65.6832 62.6933 65.337 62.5063 65.3192 62.5063C65.3015 62.5063 65.0972 62.7291 64.9197 62.6846C64.7422 62.64 64.2542 62.0255 63.8992 61.7939C63.8193 61.7316 63.6861 61.7404 63.5885 61.6602C63.4908 61.5801 63.1183 61.2863 62.8609 61.1082L63.3844 60.939C63.4465 60.556 62.8608 61.0368 62.4969 61.0012C62.6833 61.0012 61.8313 60.725 61.8135 60.725C61.7958 60.725 61.4497 60.2352 61.1657 60.2797C60.6421 60.3688 61.1657 60.2174 60.7575 60.0749C60.651 60.0749 60.4648 60.0749 60.2696 60.0749C60.03 60.0172 59.7871 59.9756 59.542 59.9503C59.542 59.9503 59.3643 59.8879 59.3466 59.8968C58.8762 60.066 59.3464 59.8969 58.947 59.799C58.9027 59.799 58.7253 59.9146 58.681 59.9057C58.5422 59.8604 58.3996 59.8278 58.255 59.8079C57.9688 59.8868 57.6872 59.9818 57.4117 60.0927C57.2697 60.0927 57.1901 60.0216 57.0126 60.0484C56.8351 60.0751 56.702 60.1819 56.5867 60.2086C56.4713 60.2353 56.489 60.1284 56.5156 60.1195C56.5422 60.1106 56.347 60.2532 56.276 60.271C55.9299 60.3601 55.548 60.3423 55.122 60.4758C54.8735 60.5649 54.5365 60.7607 54.2969 60.8231C54.0573 60.8854 54.1103 60.7429 54.0304 60.7518C53.7997 60.7518 53.4094 60.9477 53.081 60.9744C52.7526 61.0011 52.6905 60.8944 52.4509 60.9033C52.4509 60.9033 52.2292 61.0457 52.2026 61.0368C52.0036 60.966 51.7916 60.9386 51.5812 60.9566C51.4215 60.9566 50.9689 60.9566 50.6938 60.9566C50.4186 60.9566 50.1168 60.8141 49.6997 60.7696C49.2826 60.7251 49.105 60.7697 48.963 60.6718C48.821 60.5738 48.9633 60.1017 48.8391 59.9146C48.5906 59.4604 47.6765 59.2468 47.0642 58.9083C46.9843 58.8638 46.913 58.7124 46.8154 58.6679C46.6234 58.5946 46.4367 58.5082 46.2564 58.4095C46.0701 58.2849 45.7771 58.0799 45.502 57.8662C45.3866 57.7771 45.3866 57.6793 45.2801 57.5992C45.1736 57.519 44.5967 57.2695 44.5257 56.9934C44.4547 56.7173 44.7121 56.4591 44.7831 56.1919C45.3244 56.1919 45.422 56.6105 46.0965 56.4056C45.8924 56.4056 45.7063 56.165 45.4578 56.0493C45.4029 56.0171 45.3523 55.9783 45.307 55.9336C45.2482 55.9247 45.1881 55.9247 45.1293 55.9336C45.0025 55.9204 44.8744 55.9204 44.7476 55.9336L44.4815 55.996C44.4016 55.996 44.4813 55.996 44.3394 55.996C44.1974 55.996 43.8604 56.1473 43.9403 56.1117L44.2063 56.0138C44.2063 56.0138 44.3748 55.9336 44.3394 55.9425C44.8594 55.745 45.3974 55.5988 45.9457 55.5061C46.4072 55.328 45.8483 55.4259 45.6619 55.5061C45.4755 55.5863 45.3602 55.5772 45.2537 55.604C45.2004 55.604 45.2535 55.604 45.1116 55.604L44.8455 55.7109C44.6769 55.7733 44.4815 55.8356 44.3129 55.9068L43.887 56.1117C43.7627 56.1918 43.6474 56.2007 43.7362 56.3076C43.8249 56.4145 43.8426 56.3699 43.887 56.3076L44.0378 56.0316C44.0446 55.9546 44.0446 55.8771 44.0378 55.8001C44.1531 55.7021 44.2509 55.7466 44.4195 55.8001C44.4946 55.7913 44.5688 55.7764 44.6414 55.7555C45.2804 55.5952 44.9341 55.6129 45.1116 55.4615L45.369 55.3459C45.4843 55.3459 45.5463 55.3458 45.6528 55.2656C45.9013 55.1944 46.2742 55.0607 46.4961 55.0162C46.6022 55.0033 46.7093 55.0033 46.8154 55.0162H46.984L47.3922 54.936C47.5291 54.9456 47.6665 54.9212 47.7917 54.8649C48.0491 54.6957 47.694 54.749 47.4988 54.7668H47.4455H47.1794H47.0195C46.9275 54.7896 46.8384 54.8225 46.7535 54.8649C46.6736 54.8649 46.7534 54.7847 46.7002 54.8025C46.6094 54.8293 46.5206 54.8621 46.4341 54.9005C46.3453 54.9005 46.3629 54.9005 46.2564 54.9005L45.9635 54.9627H45.866C45.866 54.9627 45.866 55.0252 45.866 55.0519C45.866 55.0786 45.866 55.0519 45.866 55.0519H45.8036H45.635H45.5553C45.4044 54.9984 45.1559 55.0519 45.0405 55.0519C44.8959 54.9711 44.7717 54.8583 44.6769 54.7222C44.6047 54.6174 44.5108 54.5295 44.4018 54.4641C44.1089 54.3216 43.7893 54.2591 43.4077 54.0632C43.3367 54.0632 43.0969 54.001 43.0614 53.9743C43.026 53.9475 43.0615 53.7783 42.9284 53.707C42.6444 53.5378 41.9611 53.3954 41.8901 53.1193C41.9168 52.9035 41.9764 52.693 42.0674 52.4957C42.5127 52.3588 42.9888 52.3588 43.4341 52.4957C44.1548 52.7143 44.8558 52.9946 45.5289 53.333C45.7063 53.4043 45.9281 53.422 46.0701 53.4755C46.2121 53.5289 46.3718 53.6982 46.5316 53.7427C46.6913 53.7872 47.2061 53.7427 47.4191 53.9832C47.4412 53.9631 47.4685 53.9497 47.4979 53.9445C47.5273 53.9392 47.5577 53.9423 47.5855 53.9534C47.6132 53.9645 47.6371 53.9832 47.6548 54.0073C47.6725 54.0315 47.6828 54.0601 47.6851 54.0899V54.0899Z" fill="white" stroke="white" stroke-width="3.10104" stroke-linecap="round" stroke-linejoin="round"/>
</svg>
