<svg width="880" height="820" viewBox="0 0 880 820" fill="none" xmlns="http://www.w3.org/2000/svg">
<path d="M824.887 363.44C836.837 487.617 843.787 607.186 830.198 729.839C826.801 732.924 823.443 739.055 816.648 742.101C569.037 781.97 338.373 785.055 90.761 745.147C84.0055 745.147 80.6081 742.062 73.8136 739.016C67.019 735.97 63.6218 729.801 60.2636 723.67C56.4789 717.083 54.1612 709.757 53.469 702.193C46.6745 594.885 43.4332 484.493 42.1056 377.342C41.8713 359.067 42.1056 351.725 42.1056 351.725C124.382 253.321 225.637 172.88 326.072 93.1799C351.845 72.679 396.712 42.1035 429.357 46.3208C447.437 48.7418 493.554 79.9031 508.784 89.9778C630.93 170.693 705.709 247.62 822.583 335.988C822.583 336.027 823.755 351.53 824.887 363.44Z" fill="#60C9EB"/>
<mask id="mask0_137_26622" style="mask-type:alpha" maskUnits="userSpaceOnUse" x="42" y="45" width="796" height="729">
<path d="M824.888 363.44C836.837 487.617 843.788 607.186 830.198 729.839C826.801 732.924 823.443 739.055 816.648 742.101C569.037 781.97 338.373 785.055 90.7615 745.147C84.006 745.147 80.6086 742.062 73.814 739.016C67.0195 735.97 63.6223 729.8 60.2641 723.67C56.4794 717.083 54.1617 709.757 53.4695 702.193C46.675 594.885 43.4337 484.493 42.1061 377.342C41.8718 359.067 42.1061 351.725 42.1061 351.725C124.383 253.321 225.638 172.879 326.072 93.1799C351.845 72.679 396.713 42.1035 429.358 46.3208C447.438 48.7418 493.555 79.9031 508.784 89.9778C630.93 170.693 705.709 247.62 822.584 335.988C822.584 336.027 823.755 351.53 824.888 363.44Z" fill="#60C9EB"/>
</mask>
<g mask="url(#mask0_137_26622)">
<path d="M805.852 297.943L33.6958 342.663L65.8668 898.141L838.023 853.421L805.852 297.943Z" fill="#60C9EB"/>
<path fill-rule="evenodd" clip-rule="evenodd" d="M464.605 295.044L464.175 295.151C464.132 294.408 464.554 294.002 464.112 292.965C462.126 293.204 460.257 294.03 458.743 295.338C458.921 297.009 460.555 296.351 459.796 297.831C455.886 298.73 453.695 300.91 449.778 301.846L449.951 301.536L449.666 301.325C449.536 300.806 449.415 300.286 449.294 299.766C448.998 299.724 448.697 299.789 448.444 299.947C448.191 300.105 448.002 300.348 447.909 300.632C447.817 300.916 447.829 301.224 447.941 301.501C448.053 301.778 448.259 302.006 448.523 302.146L448.645 302.675L449.066 302.578C446.304 305.255 442.182 305.621 439.308 307.632C438.252 308.375 437.772 310.293 436.892 310.944C432.353 314.323 427.092 314.319 421.393 316.812C414.594 319.759 409.523 326.35 402.065 327.973C393.091 329.919 385.336 325.779 375.532 327.692L375.626 327.114L375.299 326.642C375.281 326.325 375.217 326.011 375.599 326.025C375.047 324.331 372.705 325.629 373.69 327.572C373.989 327.554 374.263 327.429 374.587 327.365L374.501 327.933L374.829 328.405C372.141 329.079 367.744 326.262 367.616 330.64C366.193 331.186 366.392 328.494 364.643 329.686C362.305 334.183 355.554 331.066 353.586 335.061C352.253 335.42 351.973 333.718 350.314 334.732C348.851 335.044 350.287 337.56 348.776 337.838C344.752 333.937 343.162 344.143 339.759 342.177C339.073 343.044 341.251 344.717 339.615 345.493C337.637 342.727 332.747 346.945 330.682 348.164C330.532 350.599 332.642 349.696 331.856 351.186C330.036 353.481 329.5 350.205 327.312 351.167C326.42 351.464 326.692 352.703 327.056 353.963C323.188 354.332 319.044 356.844 314.659 353.618C313.662 354.293 313.361 356.783 311.449 355.476C309.523 353.597 314.07 353.652 312.624 350.8C307.381 349.723 306.062 354.87 305.322 358.575C303.339 358.999 302.297 357.487 300.199 358.136C299.922 360.105 301.262 360.8 300.876 362.922C298.286 366.534 298.804 372.493 294.551 374.847C296.931 378.126 292.639 380.901 293.596 384.399C294.495 387.691 299.618 388.893 303.331 390.877C307.045 392.862 310.951 394.416 313.63 396.106C316.523 397.892 319.627 401.111 322.384 402.269C332.864 406.706 350.941 404.25 363.484 402.406C368.503 401.661 370.52 398.363 373.683 397.272C380.496 394.887 388.451 397.143 393.485 398.069C393.396 402.809 388.376 402.754 385.08 404.999C383.533 406.052 382.924 408.404 381.486 409.151C376.323 411.786 373.119 409.508 367.726 406.922C368.281 406.772 367.916 405.339 367.354 405.362C364.409 406.442 362.153 406.1 359.46 406.674C359.541 407.415 359.858 408.11 360.366 408.657C358.721 408.661 356.768 409.301 355.373 408.746C356.328 408.609 356.647 407.991 356.31 406.874C354.115 407.429 352.508 406.822 350.138 407.795C349.538 408.893 351.131 409.255 349.752 410.071C348.737 409.494 349.996 407.703 348.286 407.675C345.006 408.156 342.725 412.386 339.229 408.2C337.656 408.018 337.982 409.253 338.458 410.571C336.63 410.395 335.458 408.982 333.535 409.038C333.357 409.55 333.062 410.012 332.674 410.39C332.285 410.767 331.814 411.049 331.298 411.213C327.84 411.277 324.197 408.325 322.296 411.734C321.053 412.715 321.576 410.131 320.323 411.103C319.013 411.542 318.985 412.944 318.208 413.797C313.909 412.229 311.404 417.136 307.899 418.438C304.394 419.741 300.335 419.003 296.857 419.986C296.748 422.183 293.702 422.168 292.711 423.716C291.647 423.087 290.308 420.511 289.196 422.348C287.67 423.136 291.094 425.3 288.94 425.143C284.256 424.288 280.596 430.588 275.118 428.424C273.951 428.828 275.654 431.401 273.992 431.434C272.585 432.088 269.295 431.133 266.41 432.146C265.261 430.82 263.766 429.84 262.093 429.315C258.936 428.471 248.374 429.683 248.372 433.109C249.731 434.747 252.202 434.123 253.24 436.343C252.482 436.905 252.428 438.008 252.564 439.263C245.62 439.874 243.769 444.316 238.167 445.958C235.037 452.01 243.071 458.933 247.744 459.598C251.886 460.194 254.32 456.882 257.024 456.334C261.171 455.449 266.067 458.709 266.749 462.796C268.248 471.733 257.054 467.047 253.429 468.165C250.803 468.962 249.812 472.391 245.038 471.25C242.986 475.049 237.813 476.73 237.05 481.918C235.602 491.734 240.703 492.266 246.894 494.979C252.234 497.277 257.832 498.998 262.622 501.692C269.103 505.333 274.597 510.286 281.038 512.139C283.6 512.899 286.716 512.11 289.985 513.311C292.418 514.215 297.031 518.71 297.439 519.786C294.568 519.952 292.835 517.808 289.483 518.929C287.857 522.231 282.323 527.413 279.142 527.406C277.097 527.407 275.05 524.536 272.993 524.473C270.353 524.408 268.817 527.223 266.677 528.71C265.658 542.5 276.556 546.312 283.713 552.677C285.276 554.077 286.457 556.426 288.074 557.677C296.086 563.901 306.36 563.997 316.477 567.964C323.627 570.757 331.206 573.581 335.673 573.84C337.954 573.99 339.633 572.702 341.397 573.036C342.48 573.209 343.622 574.724 345.171 575.434C348.962 577.178 351.142 578.424 354.422 579.833C358.3 581.508 363.541 583.667 366.816 584.041C367.73 584.133 370.111 583.05 372.548 583.227C373.752 583.303 376.67 584.897 379.885 585.328C382.925 585.725 386.011 585.337 387.858 586.175C392.2 588.186 393.926 592.712 390.355 594.918C385.504 597.925 376.069 593.019 373.632 591.743C369.361 589.545 365.09 589.229 361.678 587.437L361.772 586.868L361.436 586.397L362.727 586.095C361.84 584.738 359.434 583.514 358.362 584.948C358.437 585.289 358.521 585.639 358.604 585.979L358.725 586.499L358.846 587.019C346.823 586.389 335.715 583.979 326.499 577.661L326.938 577.563L326.817 577.043C327.61 575.043 325.61 573.769 323.939 574.429C324.036 575.169 324.359 575.861 324.863 576.411L324.423 576.509L324.553 577.028C323.192 577.216 322.548 575.981 321.47 575.562L321.573 574.993L321.237 574.531L322.134 574.315C322.004 573.796 321.883 573.276 321.771 572.764C321.331 572.853 320.874 572.961 320.471 573.066C320.582 573.578 320.722 574.106 320.834 574.627L320.344 574.473L319.974 574.831C319.617 574.928 319.239 574.919 318.887 574.806C318.536 574.692 318.224 574.479 317.992 574.192L318.087 573.632L317.75 573.16L318.647 572.945C316.361 570.351 313.126 569.73 309.638 569.605C309.75 570.116 309.88 570.636 310.001 571.156L309.501 570.994L309.14 571.36C306.331 571.65 304.987 568.993 302.224 569.153L302.388 568.843L302.542 568.525C302.364 566.854 301.623 566.298 300.318 566.837C300.448 567.356 300.569 567.867 300.699 568.396L300.424 568.194L300.251 568.494C297.769 567.857 296.667 564.513 294.496 563.275C290.961 563.117 292.112 566.512 289.126 565.649C289.608 563.922 287.234 561.215 286.724 565.125C287.233 561.052 284.252 564.496 283.147 561.579C281.689 561.345 280.275 562.654 278.603 561.57C279.387 561.769 278.715 558.946 278.101 559.481C276.552 561.134 274.966 559.49 273.108 559.571C272.41 558.039 274.441 558.585 273.372 556.756C269.766 559.292 268.098 555.126 263.866 555.18C262.939 553.608 265.168 554.442 264.243 552.896C260.488 552.386 256.602 552.13 255.44 548.39C252.736 551.6 248.864 553.932 251.585 559.181C252.611 561.212 262.378 565.417 264.384 567.109L263.964 567.225L264.076 567.736C263.358 568.059 263.296 568.872 263.709 570.029C264.004 570.071 264.305 570.006 264.559 569.848C264.812 569.69 265.001 569.447 265.093 569.163C265.185 568.879 265.174 568.571 265.062 568.294C264.95 568.017 264.743 567.789 264.479 567.649L264.918 567.542L264.797 567.022C272.424 567.534 280.66 566.794 285.697 572.5C284.49 575.187 282.721 577.125 278.96 576.834C278.328 575.335 281.337 574.406 279.525 573.402C276.849 570.977 278.204 575.542 276.034 575.895C273.169 575.215 276.261 573.064 274.488 571.313C272.987 571.755 274.679 574.619 273.063 574.949C272.361 573.817 270.707 574.595 270.288 572.856C269.116 570.825 272.715 572.406 271.534 570.367C268.016 573.642 262.702 571.487 258.268 570.226C257.607 570.437 258.24 571.636 257.22 571.586C253.902 568.916 249.77 572.09 246.722 569.677C245.178 570.166 245.25 570.78 243.719 570.387C242.534 569.807 241.537 568.904 240.842 567.782C235.073 571.251 233.88 564.314 226.903 566.699C225.61 566.502 227.953 565.221 226.419 564.619C224.418 566.162 222.929 564.603 221.175 563.66C223.292 558.648 240.054 560.131 237.308 552.729C236.659 550.949 235.021 550.281 232.372 551.143L232.26 550.623L231.821 550.73C231.779 549.996 232.21 549.59 231.777 548.551L230.038 548.961C230.123 549.702 230.447 550.394 230.961 550.934L230.521 551.032L230.643 551.561C229.98 552.509 228.101 554.744 227.15 554.026C228.037 553.648 226.652 551.547 225.788 552.161C224.367 551.943 225.293 553.498 225.412 554.454C223.94 555.085 223.911 552.86 222.449 553.499C219.983 554.859 217.444 558.56 215.645 559.5C215.169 559.755 213.806 559.125 213.364 559.496C211.997 560.684 212.146 562.629 210.647 563.433C209.889 563.315 209.117 563.311 208.357 563.421C205.931 563.743 204.27 566.447 201.755 564.439C200.956 567.275 200.341 567.493 197.367 567.129C197.515 569.692 196.026 570.968 194.959 572.63C193.082 579.29 198.205 586.772 199.767 595.069C200.143 597.01 199.887 598.561 200.435 599.856C202.341 604.38 207.439 605.939 208.614 609.442L208.174 609.54L208.296 610.069C202.434 611.935 208.018 621.899 209.174 625.231C210.267 628.411 209.844 632.253 210.94 634.697C212.358 637.85 216.366 639.581 219.738 643.048C220.702 644.001 221.01 645.555 221.894 646.376C227.116 651.335 234.379 652.159 235.922 659.503C250.454 668.322 265.257 676.633 276.736 691.562C277.508 693.29 276.56 693.708 277.169 695.281C280.185 695.107 281.547 698.226 283.073 701.028L282.821 701.542L282.857 702.176C278.594 701.842 277.935 694.219 273.328 694.55C273.617 695.769 273.904 696.961 274.193 698.18L273.693 698.018L273.323 698.376C267.312 693.665 261.787 688.366 256.831 682.556L257.26 682.44L257.139 681.92C260.046 682.811 262.655 684.475 264.688 686.735C265.003 686.526 265.583 686.502 265.436 685.992C263.929 681.472 258.521 678.005 255.933 680.554C256.027 680.921 256.101 681.253 256.184 681.593L255.918 681.391L255.755 681.709C251.335 680.384 248.679 675.485 244.675 673.345L245.105 673.239L244.993 672.718C245.415 672.639 245.845 672.523 246.284 672.416C246.393 669.584 241.956 668.768 241.9 671.252L241.471 671.368L241.591 671.879C241.084 671.909 240.787 671.481 240.488 671.034L240.574 670.475L240.246 669.994L241.143 669.797C241.051 669.055 240.731 668.359 240.228 667.805L240.65 667.717L240.52 667.198C240.409 666.686 240.733 666.486 240.717 666.05C237.312 665.157 236.639 661.525 232.709 663.025C230.747 658.804 226.552 659.019 223.833 656.323C222.928 656.376 223.149 657.226 222.793 657.665L222.663 657.145L222.234 657.261C220.162 658.208 220.565 654.177 218.841 656.422C218.833 658.476 220.683 656.851 220.791 658.708C215.735 659.128 210.485 653.352 206.938 648.287L207.368 648.172L207.247 647.661C207.601 647.84 207.992 647.933 208.389 647.93C208.785 647.928 209.176 647.831 209.527 647.647L210.018 647.809L210.388 647.451C211.009 648.279 211.618 649.07 212.929 648.486C212.688 646.682 212.097 645.571 210.585 646.304L210.094 646.142L209.724 646.499C208.836 644.97 207.891 643.561 205.951 644.11C205.889 645.24 205.08 646.496 206.256 647.336L205.817 647.443L205.938 647.964C204.161 647.403 200.566 646.53 200.947 644.172C201.162 644.896 202.192 644.473 201.706 643.465C199.866 643.072 197.552 641.088 195.606 638.866C196.215 637.149 199.734 639.535 199.676 636.813C198.065 633.934 195.321 633.321 193.026 631.818C191.595 633.323 189.841 634.484 187.897 635.214C185.949 635.948 183.916 636.432 181.847 636.655C178.93 639.014 180.994 645.155 177.431 647.025L177.277 647.343L177.122 647.651C175.898 646.123 174.35 649.048 175.755 649.621C175.995 649.57 176.223 649.471 176.424 649.33C176.626 649.189 176.796 649.008 176.925 648.799L177.046 649.319L177.494 649.211C177.537 649.954 177.106 650.351 177.548 651.398C177.622 652.675 179.44 650.643 179.202 652.647C181.027 668.471 196.936 671.721 202.436 685.561C204.491 690.524 205.717 695.792 206.065 701.153C202.533 696.496 199.555 690.735 194.232 689.68C195.7 696.501 202.013 700.079 204.676 706.977C202.775 705.533 202.64 705.096 200.552 706.852C199.2 700.924 188.741 699.676 186.318 694.873C183.535 689.336 177.495 683.752 175.567 678.229C175.066 676.795 175.366 674.751 174.9 673.452C173.305 668.673 169.407 665.691 167.105 661.563C166.435 660.356 166.318 658.482 165.706 657.491C164.869 656.231 163.43 656.014 162.673 654.386C159.75 648.012 160.031 642.98 157.24 636.998C155.23 632.735 151.975 631.288 149.854 628.875C148.364 627.144 148.19 625.091 146.905 624.075C142.088 620.373 136.639 617.576 130.823 615.819C126.079 614.395 118.904 613.983 116.835 608.705C115.657 605.62 117.283 600.746 119.211 599.371C121.829 597.502 125.722 600.703 129.887 600.125C135.549 599.343 136.037 596.479 137.919 591.636C133.497 580.706 127.27 567.962 116.195 570.985C116.857 578.334 113.49 582.646 113.734 589.674C109.797 596.709 104.777 602.915 106.207 613.955C103.947 616.976 103.662 621.473 100.251 623.615C100.859 627.369 98.4729 628.689 97.4092 630.877C97.042 631.598 97.4479 632.801 97.1446 633.682C96.5068 635.536 94.458 636.563 93.9977 637.717C93.3292 639.355 92.3252 644.457 92.7924 646.247C93.6084 649.353 98.3077 651.725 100.178 654.361C100.616 655.017 100.425 656.274 100.784 656.989C101.888 659.097 104.267 660.949 105.395 663.01C107.862 667.484 108.742 673.721 112.898 675.507C114.447 674.945 115.425 675.524 116.599 675.711C117.808 679.012 118.369 683.668 115.886 686.311C115.673 684.188 113.879 685.228 112.494 685.481C111.377 683.137 109.754 681.786 106.895 682.952C106.294 686.84 109.364 694.204 112.404 698.672C114.173 701.295 118.654 703.499 118.988 705.351C119.323 707.204 116.551 708.464 116.944 710.222C113.933 707.343 112.255 701.752 107.706 701.97C108.454 705.789 105.648 707.85 105.892 711.762C106.352 719.705 109.965 721.522 113.559 726.93C117.007 732.183 118.588 737.343 121.578 739.86C127.804 745.061 137.187 746.726 142.835 750.724C144.44 747.051 140.645 745.862 138.851 743.44C136.201 739.895 134.149 733.952 131.901 731.384C137.226 732.175 138.667 740.733 143.293 742.937C143.555 747.466 145.86 746.005 145.753 749.492C150.516 750.607 151.977 758.41 155.211 762.63C149.847 774.681 160.566 784.329 164.859 796.012C171.739 804.973 182.083 810.972 184.346 826.507L184.234 825.996L183.786 826.103C183.669 825.809 183.445 825.57 183.159 825.433C182.873 825.297 182.547 825.273 182.244 825.366C182.441 826.263 182.654 827.105 182.867 827.965C183.289 827.877 183.764 827.768 184.158 827.663L184.003 827.972L184.288 828.183C184.369 829.293 184.321 830.409 184.144 831.508C178.75 837.536 172.807 837.371 167.108 832.794C159.616 826.776 149.792 813.578 145.895 806.543C139.016 804.506 130.227 797.582 122.355 795.657C115.904 794.095 107.594 794.958 107.21 803.086C107.051 806.466 108.683 808.743 108.174 811.09C107.736 812.166 107.219 813.207 106.627 814.206C101.417 821.05 92.2509 816.084 86.6549 814.545C82.9608 813.523 78.8725 813.696 75.7446 812.723C74.8206 812.459 74.0289 811.341 73.0829 811.169C68.1884 810.289 63.9652 810.643 60.2191 808.724C57.2958 806.576 56.6701 802.205 53.6852 800.406C52.4223 799.625 49.9654 800.194 48.459 799.446C46.2986 798.389 45.3972 795.534 43.1526 796.318C42.4608 793.159 39.0172 791.914 36.8772 789.012C36.2541 788.139 36.4317 786.811 35.7127 786.008C34.8245 784.95 33.2329 784.77 32.3945 783.474C30.9788 781.311 30.8679 777.982 29.7009 775.878C26.3954 769.954 21.7992 769.675 15.9545 769.804C15.1889 772.275 14.6958 774.902 16.8059 777.288C14.943 781.994 18.3382 786.641 18.4908 792.258C20.9856 791.559 21.527 794.472 21.4223 797.058C21.761 796.63 22.7385 795.465 22.8434 797.276C26.5153 799.326 27.2583 804.781 29.4681 809.987C31.4824 814.641 35.1314 818.492 36.8575 821.936C39.6471 827.581 37.5822 831.154 39.0314 835.15C36.7112 834.158 37.6279 837.276 37.7182 839.307C38.8686 840.812 38.9494 836.873 39.5417 839.41C40.6924 841.706 38.5174 841.496 39.6682 843.792C41.1493 842.534 40.9503 842.236 42.0693 844.298L41.6398 844.414L41.7512 844.925C41.6153 844.933 41.4704 844.942 41.3217 845.041C41.173 845.14 40.7468 845.156 40.4239 845.229C40.5446 845.789 40.8236 846.303 41.2276 846.709L42.1233 846.485L42.5623 846.378L42.4323 845.858C43.4589 845.853 43.1005 848.609 44.0369 848.773L43.5983 848.889L43.7284 849.409C42.5359 849.687 43.2662 852.098 44.0147 852.627L44.4442 852.512L44.2991 852.829L44.5742 853.031C44.8069 855.48 47.1456 859.143 48.7544 859.15C45.8867 859.843 50.4008 864.198 47.6923 864.346C43.3358 864.126 42.1326 856.689 40.208 851.857C36.7658 843.26 34.6404 837.158 30.0791 830.107C27.284 825.78 24.2222 823.122 22.3382 820.405C18.2052 814.629 16.3962 808.027 19.1039 804.726C15.9087 799.768 14.7412 793.102 12.3547 787.669C11.797 786.357 10.6731 785.622 10.2065 784.313C9.5582 782.533 9.93096 780.34 9.29708 778.496C9.0787 777.863 7.67967 776.772 7.34722 776.21C4.0056 769.506 2.97179 761.542 -0.436483 756.668C-1.17975 755.603 -2.5842 755.202 -3.31092 754.109C-4.03764 753.015 -4.08171 751.154 -4.72797 750.038C-5.56676 748.578 -7.38605 746.82 -8.65811 744.94C-12.5227 739.248 -13.6062 737.957 -18.8857 736.391C-22.2623 735.36 -25.9987 735.176 -28.7379 733.226C-32.9363 730.244 -33.7504 727.328 -37.9074 723.334C-39.3985 711.553 -47.5122 722.4 -51.4174 722.127C-51.1672 723.466 -51.5643 724.298 -52.6636 724.616C-72.6148 729.715 -87.0043 723.679 -91.0885 696.935C-89.0722 693.465 -89.1087 688.442 -88.698 683.766C-98.241 684.527 -115.076 686.475 -120.333 696.757C-125.859 697.986 -130.382 700.547 -136.016 699.919C-140.013 699.478 -144.505 696.448 -149.524 698.738C-151.003 698.161 -151.656 696.136 -153.084 695.173C-155.436 693.637 -157.768 694.472 -160.299 693.61C-161.616 693.15 -162.785 691.637 -164.074 691.184C-169.912 689.233 -175.997 689.294 -180.532 685.222C-183.706 685.027 -186.823 684.285 -189.746 683.03C-190.317 686.025 -190.935 686.97 -190.332 690.333C-189.521 694.766 -189.297 699.879 -188.898 704.263C-188.296 710.88 -187.277 721.571 -184.51 726.827C-175.016 744.842 -163.605 765.191 -158.509 787.115C-157.593 788.97 -159.938 788.333 -159.196 790.017C-158.785 790.993 -157.377 790.03 -157.42 791.813C-158.305 795.827 -155.061 796.139 -155.776 800.742L-156.267 800.579L-156.635 800.964C-159.695 798.806 -159.494 794.596 -161.243 791.062C-162.707 788.076 -165.72 785.779 -167.329 782.637C-168.051 781.152 -168.087 779.427 -168.858 778.045C-170.581 774.974 -173.378 772.337 -175.178 768.561C-175.735 767.421 -175.66 765.581 -176.163 764.41C-177.214 761.954 -179.143 760.039 -180.027 757.646C-184.873 745.204 -187.477 731.77 -189.846 717.694C-191.038 710.775 -193.211 704.794 -195.039 697.54C-196.868 690.285 -197.925 679.096 -200.529 674.14C-202.231 670.967 -206.128 669.421 -207.554 667.549C-210.691 663.442 -213.157 651.453 -216.938 648.937C-220.425 646.612 -226.882 648.259 -228.179 651.596C-232.715 653.14 -236.707 651.69 -240.886 651.86C-242.462 651.951 -243.876 653.432 -245.516 653.509C-247.156 653.586 -249.037 651.705 -250.571 651.421C-252.484 651.023 -255.131 651.149 -257.546 650.871C-259.961 650.592 -263.342 649.634 -264.65 649.801C-267.095 650.115 -273.003 654.165 -272.812 657.78C-272.732 659.156 -271.081 661.16 -270.154 663.187C-265.069 674.433 -260.157 684.863 -261.012 698.343L-261.168 698.634L-261.313 698.952C-262.222 696.433 -263.67 700.769 -261.192 699.472L-260.907 699.682L-260.77 699.384C-259.094 703.067 -261.711 703.527 -261.46 706.139C-259.959 706.634 -260.602 708.252 -259.727 709.555C-258.508 711.448 -256.324 711.667 -254.746 713.338C-251.844 716.378 -247.711 722.781 -247.078 728.533C-246.7 731.919 -248.074 740.195 -254.833 740.223C-256.286 740.253 -261.347 737.584 -263.196 735.637C-267.062 731.644 -269.168 724.46 -268.619 720.457C-267.97 715.967 -263.282 713.124 -263.137 708.717C-262.88 699.987 -269.878 695.885 -271.12 690.296C-272.251 685.191 -268.288 678.318 -271.257 672.229C-272.998 668.695 -278.536 668.316 -280.992 665.759C-281.962 664.707 -281.976 662.727 -282.83 661.804C-284.452 659.999 -288.469 658.577 -291.27 658.849C-292.019 658.938 -293.137 660.347 -293.61 660.502C-296.451 661.502 -302.111 660.431 -305.782 661.207C-306.68 661.404 -307.438 662.438 -308.252 662.34C-310.492 662.106 -313.418 658.805 -316.261 659.306C-318.815 653.647 -321.926 651.555 -326.722 649.715C-330.337 648.325 -334.65 646.34 -338.926 644.37C-344.763 641.655 -348.461 641.987 -354.638 639.828C-356.966 639.008 -360.592 636.965 -361.657 637.09C-366.581 637.748 -367.912 646.767 -371.881 649.941C-373.206 650.988 -374.746 651.729 -376.39 652.11C-384.191 653.144 -379.695 638.671 -379.308 635.777C-374.918 633.133 -374.022 626.32 -371.185 621.794C-369.526 619.062 -367.455 617.943 -366.474 614.642C-365.895 612.221 -365.56 609.747 -365.475 607.259C-367.578 604.373 -371.369 604.811 -374.466 603.9C-374.106 604.761 -374.05 605.72 -374.309 606.617C-377.756 609.852 -379.514 614.025 -383.166 617.498C-388.489 622.55 -394.945 626.087 -401.224 630.013C-403.601 631.504 -407.883 634.769 -409.104 635.176C-409.876 634.884 -410.685 634.702 -411.507 634.634C-412.076 635.012 -412.27 637.15 -413.062 637.75C-414.255 638.655 -416.877 638.407 -418.123 639.488C-419.185 640.458 -418.486 641.535 -419.79 642.093C-427.54 646.658 -435.066 653.691 -440.555 658.553C-440.24 658.344 -440.152 657.984 -440.367 657.406C-443.047 658.206 -441.599 658.886 -442.035 659.983C-442.472 661.081 -442.945 663.426 -444.528 664.962C-446.394 666.788 -457.591 671.462 -457.741 667C-458.002 658.409 -443.618 656.186 -437.333 652.832C-433.526 650.794 -431.561 646.909 -428.713 644.772C-424.767 641.817 -420.158 639.651 -417.709 637.219C-416.541 636.061 -416.181 633.95 -415.105 632.761C-413.73 631.246 -411.587 630.74 -409.977 629.356C-409.043 628.539 -408.518 626.936 -407.561 626.036C-405.538 624.101 -402.691 623.364 -400.817 621.674C-399.823 620.79 -399.483 618.816 -398.522 617.843C-396.566 615.839 -392.998 613.888 -390.313 612.078C-385.282 608.725 -379.799 607.071 -377.634 601.93C-381.41 599.486 -383.63 594.098 -386.119 589.108C-382.613 579.509 -394.371 568.058 -402.469 569.918C-403.593 572.164 -405.47 575.38 -408.663 574.693C-409.363 578.296 -412.695 579.924 -413.423 583.511C-414.027 584.691 -414.284 583.397 -415.592 584.036C-413.038 591.094 -424.95 602.262 -427.291 594.482C-427.786 592.83 -425.873 587.585 -424.24 586.127C-420.502 582.576 -413.158 582.432 -412.73 576.8C-414.729 569.925 -419.372 564.122 -425.642 560.664C-427.447 559.623 -430.084 558.013 -432.248 557.839C-433.664 557.712 -435.564 559.112 -437.431 559.048C-438.723 559.022 -439.732 558.072 -440.815 558.19C-448.03 559.143 -456.373 565.87 -461.634 564.784C-465.082 566.438 -474.106 574.594 -480.715 570.942C-481.888 570.301 -484.764 567.096 -485.018 564.284C-485.345 560.669 -481.27 558.224 -478.576 556.723C-475.266 554.887 -471.51 550.862 -468.32 549.914C-462.629 548.239 -456.363 552.402 -451.222 550.786C-448.723 550.005 -447.273 547.104 -445.467 546.127C-440.464 543.384 -435.194 543.542 -432.687 540.371C-430.402 537.467 -431.565 533.227 -429.075 528.53C-427.493 525.558 -424.351 523.64 -421.841 522.414C-417.703 520.429 -415.088 522.44 -411.967 521.723C-409.912 521.277 -407.373 518.204 -404.611 516.154C-401.44 513.789 -400.465 513.524 -398.667 510.357C-395.13 504.119 -402.418 489.528 -407.178 487.678C-408.804 487.063 -410.382 488.372 -411.619 488.189C-414.231 487.805 -417.946 485.648 -419.888 484.125C-421.442 482.87 -422.505 479.733 -424.921 478.182C-425.866 477.555 -428.623 477.024 -430.847 476.281C-434.979 474.921 -438.365 474.199 -442.065 475.113C-444.072 474.03 -445.549 471.907 -448.223 472.18C-449.903 469.851 -450.061 467.743 -449.944 464.91C-447.149 460.595 -442.658 462.671 -438.944 461.22C-436.83 460.37 -435.256 458.044 -433.785 456.15C-432.313 454.256 -431.357 450.993 -430.253 449.821C-429.476 448.949 -428.31 449.472 -427.783 448.696C-426.846 447.288 -427.047 444.773 -425.731 443.797C-426.182 439.925 -423.704 437.682 -424.037 433.512C-424.266 430.654 -426.169 428.084 -426.411 425.308C-426.65 422.286 -424.162 420.052 -425.057 417.305C-427.057 414.15 -433.857 415.516 -437.329 413.627C-439.834 412.263 -441.261 408.493 -443.134 412.246C-449.871 409.364 -449.617 415.474 -451.65 418.664C-452.066 419.315 -453.438 419.158 -454.119 419.806C-455.745 421.391 -456.278 423.321 -457.714 423.949C-461.055 425.406 -465.498 424.791 -468.95 422.783C-469.071 424.607 -467.447 422.832 -467.597 424.64C-471.531 425.286 -475.386 425.091 -475.625 429.285C-473.54 430.198 -471.722 431.627 -470.344 433.438C-468.965 435.248 -468.071 437.381 -467.746 439.633C-470.62 443.671 -473.841 445.339 -478.12 442.052C-480.345 440.363 -480.194 437.628 -482.361 437.563C-484.799 437.513 -487.922 443.21 -490.662 445.014C-500.737 451.658 -512.64 444.923 -518.338 437.856C-519.025 436.987 -519.724 435.119 -520.109 432.234C-520.818 427.05 -521.933 417.364 -520.808 413.736C-519.857 410.7 -517.418 409.496 -515.658 406.477C-514.175 403.983 -513.456 400.706 -511.816 399.53C-508.902 397.444 -504.336 396.57 -501.556 396.555C-497.786 396.545 -492.122 401.597 -488.123 399.412C-484.943 397.674 -484.41 388.21 -479.572 385.286C-476.894 383.677 -474.016 384.41 -472.025 382.395C-468.816 379.11 -467.043 370.811 -465.668 366.624C-465.91 365.584 -466.152 364.544 -466.403 363.504C-461.686 350.818 -453.456 340.717 -445.955 330.123C-440.195 329.463 -439.655 323.561 -434.699 323.619C-429.562 318.178 -425.555 313.93 -419.922 310.777C-418.214 309.824 -416.458 310.177 -415.731 309.235C-412.491 305.095 -410.594 300.65 -408.528 297.104C-406.365 293.344 -398.857 287.412 -394.808 285.623C-393.621 285.091 -391.887 285.381 -390.917 284.707C-388.561 283.026 -388.503 279.315 -386.627 277.652C-384.722 276.095 -382.485 274.996 -380.089 274.438C-378.511 274.229 -377.283 275.821 -375.825 275.1C-373.016 273.711 -370.244 265.235 -369.433 261.508C-368.622 257.781 -369.831 254.643 -370.271 250.179C-371.099 242.312 -369.729 234.754 -369.669 229.189C-369.667 224.364 -370.76 220.083 -369.579 215.989C-368.355 212.329 -366.73 208.816 -364.734 205.513C-363.272 203.197 -361.661 200.979 -359.911 198.872C-358.764 197.661 -356.999 197.54 -355.954 196.289C-354.748 194.829 -354.385 191.991 -353.282 190.173C-351.926 187.85 -350.079 186.171 -349.508 184.884C-348.35 182.291 -348.704 179.776 -347.275 178.875C-342.524 175.874 -336.744 179.174 -332.965 181.509C-332.667 183.2 -331.675 183.533 -331.558 185.562C-330.737 186.232 -330.031 187.127 -328.913 187.135C-326.038 196.601 -319.031 197.086 -314.503 201.84C-312.965 203.45 -311.632 206.845 -309.519 209.439C-308.325 210.924 -306.433 211.887 -305.401 213.399C-303.085 216.818 -301.953 220.524 -298.951 223.403C-295.308 226.844 -291.373 229.961 -287.188 232.718C-284.904 234.185 -279.527 238.072 -277.275 238.041C-269.818 237.973 -268.337 229.345 -267.722 224.275C-267.485 222.244 -268.001 219.448 -267.471 217.627C-266.609 214.778 -262.063 209.008 -258.233 208.296C-255.464 207.781 -251.33 209.504 -250.103 211.859C-246.413 218.916 -252.773 227.108 -254.55 233.763C-257.135 243.427 -249.852 249.448 -242.807 250.748C-242.035 250.895 -240.955 250.087 -240.216 250.135C-234.745 250.454 -229.118 253.482 -224.426 251.329C-223.015 252.31 -221.978 254.059 -220.421 254.732C-218.828 254.794 -218.944 253.574 -217.522 253.492C-214.324 257.55 -208.1 255.499 -204.502 258.635C-203.427 257.737 -203.417 256.028 -202.646 254.893C-199.157 253.482 -194.767 255.063 -191.463 253.9C-186.797 252.239 -183.22 247.634 -178.738 245.938C-172.193 243.478 -164.124 244.41 -158.681 243.932C-156.077 243.699 -154.545 242.065 -151.572 241.148C-149.207 240.411 -146.464 240.852 -144.091 239.933C-140.964 238.689 -137.935 236.396 -134.885 234.457C-122.803 237.519 -120.455 225.969 -113.842 221.225C-108.604 217.522 -104.105 210.946 -98.8751 207.254C-98.9124 205.511 -97.8291 204.603 -97.5524 203.106C-92.4675 199.113 -87.8435 197.364 -84.8722 192.966C-82.7394 189.78 -83.2593 185.667 -82.0146 181.896C-81.1663 179.284 -78.6258 177.647 -78.7248 174.527C-76.5444 173.419 -76.3296 170.38 -75.0713 168.726C-74.4799 167.956 -73.1408 168.169 -72.5932 167.583C-72.2332 167.208 -72.2144 165.807 -71.8223 165.203C-71.2515 164.389 -69.9215 164.13 -69.4735 163.55C-67.1838 160.564 -65.3742 155.879 -64.5674 151.452C-63.2435 144.342 -60.5779 144.078 -55.9705 139.531C-54.6887 138.285 -53.9946 136.618 -52.7965 135.494C-51.4539 134.327 -50.0312 133.254 -48.5387 132.285C-45.5977 130.189 -42.4748 127.154 -40.005 125.866C-35.0648 123.299 -29.3618 123.859 -23.9002 122.607C-21.1107 121.973 -18.9223 119.593 -15.6704 120.667C3.50223 108.716 6.6746 84.7235 20.4879 68.7295C23.0611 61.5378 28.7137 56.3669 34.4732 54.4522C45.17 50.8611 55.3717 61.0024 54.2429 74.4624C53.922 78.1796 50.726 88.4243 47.4791 86.495C47.2295 91.5983 42.978 93.662 42.0245 98.2245C40.5997 98.5706 40.0597 99.6015 38.2547 99.6606C34.9808 105.893 28.3912 109.637 25.7263 116.343C21.065 116.822 20.5658 120.441 18.6217 122.962C15.058 122.623 14.3011 126.029 9.78546 126.199C6.47591 130.562 3.03614 135.187 -1.27201 139.253C-3.42714 141.268 -3.96037 145.397 -5.61096 147.965C-7.55599 150.94 -10.6651 152.801 -12.9228 155.713C-14.6989 157.996 -15.5437 160.826 -17.1932 162.784C-19.0646 164.992 -21.3972 165.981 -23.6889 168.15C-27.488 171.953 -30.9464 176.082 -34.0244 180.489C-36.8478 184.46 -39.8288 187.904 -42.0117 191.166C-43.5027 193.369 -44.4173 195.912 -44.6719 198.56C-44.9265 201.209 -44.513 203.879 -43.4691 206.326C-35.0997 227.351 -7.37567 205.989 1.45489 199.517C1.18668 198.024 1.7543 197.155 1.4685 195.672C7.19446 187.843 14.6407 175.826 25.9724 171.744C29.4101 170.536 34.4132 168.583 38.5235 168.79C42.6339 168.997 47.0547 172.84 51.6115 170.086C53.5615 167.51 54.7399 164.007 56.9406 161.681C57.6856 160.892 59.0795 161.111 59.8409 160.449C64.1157 156.749 65.8899 150.039 68.2814 145.83C69.4595 143.735 71.7216 142.468 72.9243 140.327C75.024 136.57 74.2893 132.514 75.4172 127.669C76.0767 124.777 80.4527 115.764 82.239 113.97C86.0027 110.29 89.3297 106.188 92.154 101.746C95.06 97.1612 97.8813 91.8999 100.828 88.167C103.656 84.5955 107.443 81.4228 109.926 78.3256C114.619 72.4197 121.031 68.5951 124.476 60.6169C128.829 59.2016 128.923 55.016 130.666 52.0071C131.658 50.3049 133.519 49.4883 134.7 47.7569C137.879 43.0291 140.895 37.6747 144.853 32.7383C148.811 27.8018 152.518 22.4528 154.857 17.183C156.323 13.9357 156.321 11.0824 157.908 8.82773C159.124 7.06709 161.514 6.12897 163.112 3.7555C163.721 2.81152 163.601 1.21909 164.098 0.218004C166.856 -5.19419 171.377 -9.66344 173.399 -14.5968C174.895 -18.2639 175.21 -24.1343 177.63 -27.6913C178.465 -28.9664 181.401 -30.5087 182.789 -32.7518C185.17 -36.5246 187.161 -43.41 190.417 -48.842C190.963 -49.7823 192.019 -50.5341 192.525 -51.5266C196.228 -58.6656 199.139 -67.7125 208.607 -68.5062C213.789 -68.9426 218.78 -65.4605 219.673 -56.3068C220.622 -46.3657 211.863 -40.2152 206.602 -32.359C204.704 -29.5229 203.304 -26.552 201.703 -24.0603C199.85 -21.2267 197.582 -19.2779 195.692 -16.6059C192.898 -12.6001 190.985 -7.02787 188 -2.71118C185.334 1.15084 181.764 4.30191 179.274 8.69896C178.862 9.44068 179.008 10.8499 178.588 11.6012C175.885 16.5558 171.674 20.2529 168.458 24.9737C165.831 28.888 164.062 33.6522 161.264 37.113C160.017 38.6573 157.976 39.348 156.678 40.9408C155.034 42.9988 153.694 45.4301 151.856 47.5812C149.195 50.5574 146.734 53.7053 144.486 57.0044C142.742 59.8316 142.171 64.0903 140.538 67.2746C138.416 71.4529 136.541 75.7518 134.922 80.1493C134.429 81.5228 133.245 82.5728 132.636 83.9803C130.607 88.6415 130.396 94.5786 128.785 98.6157C126.854 103.389 122.256 107.481 122.617 113.24C122.696 114.599 123.909 116.727 124.155 117.822C126.994 130.761 123.21 140.895 121.405 150.841C120.002 150.786 120.34 152.057 118.945 151.992C116.926 159.179 111.591 163.868 108.087 169.887C108.091 171.222 104.888 169.263 105.308 171.656C105.309 173.401 106.683 172.485 107.091 173.416C102.448 177.192 105.879 181.819 107.423 186.509C108.338 189.292 108.268 193.73 109.439 197.007C110.078 198.787 111.092 199.346 111.268 200.972C111.76 205.387 108.246 212.96 107.409 215.608C106.949 217.079 107.299 218.74 106.965 219.55C105.938 222.063 103.826 223.103 103.303 225.36C102.301 229.725 104.793 240.268 107.695 244.08C113.181 251.259 121.644 246.28 127.322 242.171C129.065 240.897 130.29 238.818 131.786 237.823C132.662 237.254 133.691 237.767 134.377 237.209C136.632 235.361 137.822 232.521 140.311 231.413C141.455 230.911 142.773 231.389 143.929 231.113C147.969 230.107 153.799 225.798 158.207 223.925C161.141 222.655 162.087 217.803 164.648 216.373C163.937 214.133 165.249 213.403 164.85 211.381C167.698 207.054 171.023 205.317 172.707 200.185C174.454 194.886 173.536 187.506 176.644 183.891C181.634 178.104 192.755 181.84 199.789 179.506C201.466 178.955 202.688 177.157 204.608 176.719C208.893 175.716 215.022 179.069 220.191 179.051C224.063 179.054 226.877 179.791 229.514 177.939C232.407 175.954 239.402 168.388 240.85 165.932C241.264 165.227 240.661 164.235 241.218 163.648C245.605 158.914 250.092 158.245 257.386 160.386C258.416 163.046 259.211 165.791 259.76 168.59C256.697 174.702 254.005 181.091 250.885 187.161C249.044 187.985 247.413 189.216 246.116 190.761C244.819 192.306 243.889 194.126 243.396 196.082C242.186 196.22 241.033 196.675 240.056 197.402C236.391 203.485 235.721 211.839 229.9 216.292C230.205 221.572 223.426 225.327 223.681 232.564C223.745 234.769 225.616 240.24 227.478 241.005C230.056 242.064 241.07 236.419 242.977 235.136C244.298 234.251 244.639 232.45 245.823 231.718C247.498 230.658 249.602 231.227 251.883 230.286C257.82 227.825 261.583 222.818 266.585 219.111C270.733 216.054 275.84 214.331 279.879 211.58C282.881 209.589 285.224 206.264 288.293 204.65C290.576 203.427 292.778 203.636 294.653 202.592C296.166 201.741 297.684 199.862 299.229 198.764C302.542 196.43 306.008 194.323 309.605 192.456C314.848 189.627 318.993 184.316 323.774 180.877C326.137 179.158 329.109 178.85 331.613 177.369C333.536 176.213 335.058 174.089 336.947 172.816C339.133 171.336 341.868 170.859 343.917 169.514C349.737 165.66 353.978 156.836 361.55 153.262C368.334 150.052 374.926 148.853 379.407 145.731C383.888 142.609 385.173 138.127 388.067 136.006C392.559 132.765 404.479 127.858 405.61 132.945C406.292 136.095 396.012 145.314 393.655 146.205C390.382 147.431 386.373 145.991 382.921 147.108C373.526 150.115 371.062 164.67 362.441 166.769C359.923 167.378 357.044 165.691 354.485 165.903C350.768 167.936 347.696 171.849 345.454 174.087C341.588 177.946 337.029 178.619 332.169 181.626C328.658 183.774 325.874 188.897 321.344 188.033C316.97 192.375 310.987 197.484 304.773 199.088C292.895 210.363 276.57 217.67 264.527 227.836C262.857 228.642 262.633 226.51 260.825 227.614C259.601 227.976 260.609 230.008 259.158 230.21C254.989 231.66 249.434 235.698 246.805 239.722C242.459 238.892 239.722 242.949 237.029 244.777C236.12 244.775 236.428 242.404 234.927 243.636C233.006 243.883 234.479 246.715 233.072 247.378C229.462 242.943 227.497 250.118 224.373 251.09C221.248 252.061 219.372 247.744 217.519 251.069C217.212 254.24 219.696 251.769 219.985 253.779C214.573 254.474 214.07 259.283 212.727 263.723C212.048 265.952 210.414 267.864 209.626 269.955C208.606 272.74 208.423 276.322 207.81 279.711C207.058 283.834 205.495 286.806 205.434 289.054C205.371 293.301 207.323 300.022 208.907 301.947C210.784 304.229 212.602 302.978 215.694 303.644C219.097 304.356 223.319 307.746 227.275 306.381C227.702 307.32 227.464 309.651 228.749 308.777C229.891 304.948 234.108 306.058 237.149 305.682C235.079 309.646 228.836 309.799 223.613 312.191C222.01 310.875 224.23 308.411 222.093 307.599C221.231 309.188 219.967 310.521 218.426 311.465C216.886 312.409 215.123 312.931 213.317 312.978C214.926 316.275 210.441 317.77 210.588 320.77C210.776 324.012 214.576 327.809 217.292 327.951C219.345 328.087 222.384 326.593 225.074 326.119C244.573 322.627 267.661 319.436 284.238 312.097C285.282 312.554 285.373 314.903 286.694 314.799C293.648 318.14 299.853 319.371 307.723 320.787C310.966 321.39 314.905 322.252 318.091 322.186C321.721 322.103 324.959 320.425 328.847 319.627C334.32 318.626 339.857 318.014 345.416 317.795C357.689 317.085 369.821 322.598 380.767 318.747C381.88 318.364 382.874 317.325 383.976 316.889C390.755 314.215 398.685 313.547 406.517 309.904C412.383 307.174 420.402 302.375 426.413 301.355C431.29 300.509 437.244 301.8 441.899 299.331C444.138 298.129 447.247 296.74 450.067 295.223C454.471 292.814 458.375 289.135 462.671 286.741C468.34 283.587 474.491 281.849 480.091 279.371C483.005 278.058 486.774 275.349 490.168 273.699C496.355 270.705 503.04 268.128 508.643 264.923C513.965 261.889 518.13 258.176 523.098 256.561C526.719 255.388 531.087 254.699 534.823 255.973C533.567 258.772 531.23 258.426 531.919 261.058C533.677 267.889 545.859 256.052 548.251 262.674C550.034 267.56 541.366 268.526 538.987 269.817C535.138 271.921 532.685 276.171 529.394 277.561C522.726 280.419 513.18 274.538 506.007 280.924C505.005 281.818 504.787 284.021 504.143 284.667C500.552 288.255 497.405 285.684 493.529 286.081C488.66 286.581 483.634 289.235 478.648 290.705C473.869 292.127 469.103 294.257 464.75 295.663L464.605 295.044Z" fill="#E9AD62"/>
<path d="M742.787 596.016C742.301 608.648 694.828 603.782 672.9 630.288C664.687 640.205 651.947 665.624 650.096 671.792C649.516 673.934 648.316 675.857 646.645 677.317C644.944 678.67 642.876 679.483 640.709 679.651C639.709 679.696 638.708 679.607 637.732 679.387C632.722 678.096 630.322 667.876 630.138 667.051C626.875 652.6 630.065 640.056 628.838 631.431C625.291 606.428 584.49 613.035 548.001 574.519C540.945 567.076 531.055 554.781 518.623 555.556C514.094 555.818 508.656 557.951 496.737 558.641C491.457 558.947 487.792 558.586 486.062 558.841C474.762 560.495 468.085 566.643 445.313 569.634C412.151 573.99 401.633 564.185 389.452 574.323C389.452 574.323 375.111 586.386 363.736 591.606C356.848 594.732 357.021 592.859 352.807 595.42C345.268 600.019 336.807 622.927 336.807 622.927C328.943 644.047 322.577 645.842 325.013 650.872C329.205 659.544 347.119 652.536 362.314 666.359C364.75 668.572 370.553 673.842 369.196 679.128C368.278 682.734 364.072 686.058 359.968 686.423C358.772 686.511 357.571 686.371 356.427 686.011C353.924 685.31 340.663 681.662 338.01 684.796C335.74 687.499 342.721 693.338 345.186 707.499C346.913 717.549 344.467 720.662 343.09 721.833C342.141 722.601 341.04 723.157 339.858 723.465C339.682 723.685 339.456 723.86 339.199 723.978C338.943 724.095 338.662 724.151 338.38 724.141C335.586 724.166 332.857 723.296 330.594 721.657C322.402 715.47 304.072 689.57 287.836 681.296C268.509 671.437 251.589 686.194 241.54 674.462C236.978 669.129 235.191 659.918 238.764 654.14C245.32 643.547 262.957 654.03 284.25 644.173C292.613 640.29 300.131 628.886 315.183 606.032C319.602 599.342 325.163 590.078 322.073 585.995C321.704 585.536 321.25 585.152 320.736 584.864C314.378 580.689 311.481 571.615 310.925 570.184C306.939 559.873 272.034 549.509 261.765 546.051C255.361 543.895 202.156 523.995 176.777 482.764C173.467 477.385 165.011 462.544 158.371 464.01C153.419 465.124 154.069 474.31 146.356 478.255C140.575 481.216 132.183 480.203 127.055 476.065C117.522 468.375 122.207 453.401 116.591 451.509C110.77 449.538 105.76 465.667 91.0503 470.881C74.6198 476.676 57.0151 465.019 54.2498 463.089C48.5091 459.053 43.6154 453.93 39.8456 448.011L33.7441 342.661L370.999 367.211L725.774 340.646C720.579 376.47 706.477 374.989 684.503 405.25C664.026 433.435 633.167 475.987 607.695 494.819C603.574 497.875 594.187 504.316 588.564 516.428C587.069 519.65 578.556 535.355 582.172 551.83C588.742 581.783 632.002 601.169 652.365 590.475C670.266 581.042 672.069 555.838 686.226 556.299C693.619 556.544 702.586 564.039 702.404 568.884C702.247 573.555 701.634 575.054 701.634 575.054C701.159 577.671 700.753 578.667 700.991 579.635C701.066 579.887 701.159 580.134 701.27 580.373C702.538 582.98 716.113 580.122 724.989 581.962C733.097 583.573 742.997 590.397 742.787 596.016Z" fill="#FFE600"/>
<path d="M724.937 581.891C716.044 580.052 702.47 582.919 701.218 580.302C701.107 580.064 701.017 579.817 700.948 579.563C700.751 578.666 701.155 577.634 701.592 574.983C701.592 574.983 702.204 573.475 702.361 568.804C702.517 563.961 693.55 556.474 686.184 556.228C672.026 555.758 670.224 580.97 652.332 590.394C631.971 601.124 588.701 581.739 582.132 551.795C581.478 548.774 581.184 545.686 581.254 542.595C569.552 547.816 557.624 552.587 545.911 557.764C543.201 559.302 540.57 560.954 538.018 562.692L537.617 563.142C537.525 563.293 537.453 563.452 537.371 563.602C541.44 567.174 545.002 571.266 547.996 574.473C584.495 612.988 625.267 606.347 628.835 631.394C630.061 640.01 626.88 652.553 630.134 667.013C630.318 667.839 632.719 678.059 637.728 679.35C639.275 679.714 640.884 679.715 642.432 679.354C643.979 678.993 645.423 678.28 646.649 677.271C648.317 675.81 649.515 673.887 650.091 671.746C651.942 665.578 664.683 640.168 672.896 630.241C694.834 603.745 742.305 608.601 742.782 595.97C742.996 590.396 733.105 583.581 724.937 581.891Z" fill="#E9AD62"/>
<path d="M325.02 650.889C322.574 645.833 328.958 644.045 336.814 622.944C336.814 622.944 345.265 600.027 352.814 595.437C357.018 592.867 356.848 594.786 363.743 591.615C365.87 590.621 367.945 589.518 369.958 588.31C353.001 584.418 335.841 581.468 318.558 579.474C318.064 580.202 317.55 580.904 317.046 581.615C318.105 582.88 319.335 583.993 320.7 584.92C321.217 585.208 321.674 585.591 322.046 586.051C325.163 590.132 319.566 599.398 315.147 606.097C300.111 628.914 292.593 640.318 284.212 644.193C262.919 654.059 245.282 643.567 238.726 654.16C235.153 659.938 236.941 669.158 241.511 674.482C251.56 686.213 268.48 671.457 287.798 681.315C304.044 689.607 322.373 715.499 330.555 721.677C332.818 723.319 335.547 724.193 338.342 724.17C338.627 724.18 338.909 724.123 339.168 724.004C339.426 723.885 339.653 723.707 339.829 723.484C341.01 723.18 342.112 722.626 343.061 721.861C344.429 720.691 346.875 717.569 345.148 707.519C342.683 693.367 335.711 687.519 337.981 684.825C340.626 681.691 353.886 685.339 356.39 686.039C357.533 686.401 358.735 686.538 359.93 686.443C364.044 686.087 368.241 682.763 369.168 679.156C370.515 673.862 364.712 668.592 362.285 666.378C347.118 652.581 329.204 659.58 325.02 650.889Z" fill="#E96262"/>
</g>
<path d="M429.308 364.686C474.996 363.203 521.425 363.866 566.644 356.33C572.775 355.315 570.159 345.982 564.067 346.997C519.746 354.377 474.254 353.557 429.308 354.807C423.099 355.197 423.06 364.882 429.308 364.686Z" fill="white"/>
<path d="M835.969 434.625C834.134 410.883 832.064 387.141 829.722 363.439C828.98 355.199 828.628 346.921 827.613 338.72C826.871 332.511 824.918 331.769 819.452 327.63C800.916 313.546 782.602 299.137 764.509 284.403C732.02 258.083 700.156 230.983 667.979 204.274C608.625 155.072 547.473 107.705 481.871 66.9762C459.808 53.2309 436.886 37.5723 409.786 42.5316C375.813 48.7795 345.667 71.506 319.191 92.4364C250.113 147.105 180.957 202.36 117.619 263.824C101.401 279.443 85.6505 295.571 70.3692 312.206C63.4705 319.703 56.676 327.292 49.9856 334.971C45.8073 339.775 38.5832 345.515 37.2555 351.88C34.4049 365.391 37.2555 382.338 37.4898 396.006C37.8542 420.294 38.3099 444.57 38.8566 468.833C40.0021 516.889 41.6419 564.933 43.7766 612.963C44.87 636.393 46.1716 659.901 47.6816 683.486C48.7359 701.839 49.6732 718.045 60.7632 733.547C63.0948 736.795 65.9757 739.609 69.2759 741.865C69.3918 742.667 69.6949 743.43 70.1606 744.092C70.6264 744.755 71.2417 745.298 71.9567 745.678C72.6717 746.058 73.4663 746.265 74.276 746.281C75.0857 746.297 75.8878 746.122 76.6172 745.77C86.2071 749.152 96.1727 751.355 106.295 752.33C129.49 755.923 152.737 759.151 176.036 762.015C222.427 767.716 268.974 771.946 315.677 774.706C409.34 780.1 503.254 779.435 596.832 772.714C644.315 769.304 691.669 764.488 738.893 758.266C762.322 755.22 785.596 751.875 808.713 748.23C817.187 746.902 822.341 745.536 828.238 739.327C834.134 733.118 835.188 729.76 836.047 720.349C845.771 625.42 843.272 529.71 835.969 434.625ZM62.5984 335.284C69.8225 327.123 77.1639 319.039 84.6614 311.112C141.244 251.016 203.723 197.44 267.92 145.739C297.87 121.528 327.392 95.4432 359.998 74.8642C375.149 65.3362 391.55 56.316 409.2 52.5282C423.804 49.4042 434.816 52.0984 447.898 58.6587C473.046 71.3107 496.514 87.5942 519.787 103.331C554.346 126.761 587.772 151.791 620.339 177.876C681.373 226.688 739.947 278.467 801.801 326.264C803.832 327.826 806.839 329.7 809.611 331.574C790.052 337.824 771.456 346.761 754.356 358.128C732.762 371.639 711.402 385.462 690.316 399.793C647.713 428.26 605.735 457.664 563.796 487.068C554.502 480.235 545.17 473.44 535.72 466.802C522.091 457.274 508.385 447.941 494.327 438.96C480.269 429.978 466.993 420.802 451.373 416.038C423.258 407.408 398.891 421.622 377.179 438.569C361.208 451.143 345.589 464.147 330.32 477.384C330.04 476.924 329.699 476.503 329.305 476.135C289.24 441.264 242.537 415.999 194.624 393.584C168.617 381.401 142.806 368.632 116.018 360.314C187.895 362.579 259.758 366.198 331.609 371.17C337.818 371.6 337.779 361.916 331.609 361.486C237.5 354.952 143.274 350.76 48.9312 348.912C52.9142 344.382 59.7478 338.486 62.5984 335.284ZM56.0772 664.782C53.6041 619.979 51.6647 575.151 50.2589 530.296C48.8532 485.441 47.8247 440.691 47.1739 396.045C47.1739 385.931 46.8617 375.778 46.8226 365.664C46.8226 364.493 46.8226 362.97 46.5492 361.369C99.9296 356.8 146.632 381.518 193.843 403.737C239.609 425.293 284.398 449.62 322.706 483.007L323.409 483.515C288.264 513.974 254.174 545.721 220.045 577.233C167.602 625.537 116.643 675.716 74.3914 733.43C71.0537 731.026 68.2377 727.971 66.1129 724.449C55.3353 706.642 57.1706 684.697 56.0772 664.743L56.0772 664.782ZM794.109 740.85C748.577 747.8 702.863 753.541 656.968 758.071C480.737 775.332 303.068 771.267 127.811 745.965C114.339 744.013 96.8056 743.661 83.0993 737.921C118.829 689.266 161.198 645.96 204.894 604.646C252.026 560.286 299.94 516.473 349.376 474.573C362.731 463.248 376.047 451.69 390.105 441.303C402.952 431.775 417.713 422.715 434.231 422.832C450.748 422.949 464.923 431.775 478.278 440.053C492.414 448.8 506.276 458.016 520.022 467.388C574.691 504.836 626.08 546.462 677.234 588.44C729.326 631.082 783.917 672.006 822.81 727.807C823.291 728.474 823.919 729.022 824.645 729.408C818.593 738.936 803.715 739.327 793.952 740.811L794.109 740.85ZM832.299 631.512C831.674 653.379 830.463 675.234 828.667 697.076C828.199 703.089 828.667 711.211 827.691 718.435C792.547 669.663 745.922 632.527 699.648 594.571C657.67 560.208 615.692 525.766 572.191 493.277C611.787 465.552 651.383 437.827 691.565 410.883C712.261 397.021 733.114 383.315 754.044 369.999C773.569 357.542 793.64 345.71 816.523 339.931C817.119 339.758 817.685 339.494 818.202 339.15C820.428 346.296 819.53 356.214 820.233 363.634C828.511 452.432 834.837 541.855 832.143 631.316L832.299 631.512Z" fill="white"/>
</svg>
