<svg width="480" height="756" viewBox="0 0 480 756" fill="none" xmlns="http://www.w3.org/2000/svg">
<path d="M405.152 5.30852C272.765 16.6633 166.811 6.29431 34.4236 17.6491C30.0424 18.0142 15.0734 20.2048 11.5319 23.0892C7.99036 25.9735 6.67598 41.3445 6.0553 46.821C3.57259 67.9607 6.05531 101.149 6.05531 125.793L7.47884 368.37C7.47884 403.894 7.88078 439.492 10.5461 474.908C16.7894 557.239 16.6796 622.812 23.9452 721.427C24.6024 730.518 21.9736 742.165 29.4217 746.072C31.971 747.181 34.7582 747.633 37.5274 747.386C177.363 746.765 308.618 753.702 447.833 748.846C456.632 752.242 462.109 738.404 462.948 728.108C478.818 532.094 478.989 335.125 463.459 139.083C459.808 95.2706 464.993 62.0094 458.567 20.5699C457.435 13.2678 455.172 5.63711 443.306 5.30851C440.677 5.23549 407.817 5.08945 405.152 5.30852Z" fill="#E96262"/>
<path d="M5.88127 56.4581C13.4755 61.314 37.0611 72.2305 46.3348 84.8632C42.6822 85.0473 39.1214 86.0719 35.9294 87.8571C33.4442 89.2822 31.433 91.4068 30.1462 93.9663C28.8594 96.5259 28.3542 99.4073 28.6928 102.252C29.0314 105.097 30.199 107.779 32.0506 109.965C33.9022 112.151 36.3556 113.744 39.1058 114.546C50.4971 117.942 57.9454 108.193 58.8947 97.3863C61.1622 98.1345 63.3708 99.0497 65.5029 100.125C76.1966 105.368 84.4697 114.516 88.6144 125.682C85.3446 124.001 81.7045 123.17 78.0293 123.266C74.3542 123.362 70.7621 124.381 67.5842 126.23C65.0062 127.804 62.8427 129.973 61.2751 132.556C59.7075 135.138 58.7812 138.058 58.5738 141.072C58.3665 144.085 58.8842 147.105 60.0833 149.878C61.2825 152.65 63.1282 155.095 65.4663 157.008C76.8211 166.72 91.8638 159.527 97.2674 146.055C97.596 145.252 97.8515 144.449 98.107 143.645C100.444 145.799 102.561 147.954 104.423 149.816C114.391 159.71 133.194 179.316 133.632 196.878C123.555 192.715 105.373 190.087 103.584 204.727C102.05 217.287 114.318 227.802 125.271 225.137C128.502 224.257 131.483 222.633 133.974 220.395C136.465 218.157 138.399 215.367 139.62 212.249C146.023 218.179 151.251 225.264 155.027 233.133C159.627 241.968 165.505 252.337 167.331 262.341C156.633 261.209 140.569 264.678 143.928 280.049C144.345 282.715 145.469 285.22 147.184 287.303C148.899 289.386 151.141 290.97 153.677 291.892C156.213 292.813 158.95 293.037 161.602 292.54C164.254 292.043 166.724 290.844 168.755 289.067C173.028 285.602 175.885 280.693 176.787 275.266C189.895 281.108 200.446 294.507 207.821 306.884C213.158 315.165 217.128 324.25 219.578 333.792C220.865 339.009 220.688 344.479 219.067 349.601C212.412 344.883 204.749 341.783 196.686 340.547C195.669 340.285 194.594 340.373 193.634 340.797C192.673 341.221 191.883 341.956 191.392 342.883C186.536 354.53 193.29 368.441 205.521 369.974C208.399 370.316 211.316 369.957 214.024 368.927C216.732 367.897 219.151 366.227 221.074 364.06C226.348 369.19 230.067 375.705 231.805 382.854C233.542 390.004 233.227 397.498 230.896 404.477C229.382 409.429 226.681 413.937 223.029 417.608C219.377 421.28 214.883 424.004 209.939 425.543L209.355 424.229C202.053 408.822 186.864 399.584 170.872 403.418C169.638 403.852 168.613 404.737 168.004 405.895C167.394 407.052 167.245 408.398 167.587 409.661C169.728 417.563 174.44 424.526 180.978 429.452C187.517 434.377 195.51 436.985 203.696 436.862C205.172 446.043 203.902 455.455 200.045 463.916C195.902 473.665 189.757 482.434 182.008 489.656C180.114 491.471 178.088 493.143 175.947 494.658C172.613 489.197 167.93 484.686 162.348 481.559C156.765 478.432 150.472 476.795 144.074 476.804C143.024 476.837 142.014 477.211 141.197 477.87C140.38 478.529 139.8 479.437 139.546 480.456C138.802 483.858 138.803 487.381 139.551 490.782C140.299 494.184 141.775 497.383 143.878 500.159C145.981 502.935 148.661 505.222 151.732 506.863C154.804 508.504 158.195 509.46 161.672 509.664C164.967 509.791 168.256 509.321 171.384 508.277C174.899 521.942 173.208 536.426 166.637 548.913C161.088 558.99 152.252 568.336 141.372 571.038C136.699 555.959 125.892 543.473 110.557 541.026C109.938 540.876 109.295 540.852 108.666 540.955C108.038 541.059 107.436 541.287 106.898 541.628C106.36 541.969 105.896 542.414 105.533 542.938C105.171 543.462 104.917 544.054 104.788 544.678C103.569 552.211 105.046 559.933 108.959 566.484C112.873 573.036 118.972 577.997 126.183 580.494C128.768 581.351 131.459 581.843 134.18 581.955C134.483 584.377 134.617 586.817 134.581 589.257C133.997 611.382 116.326 626.68 98.0705 632.778C94.723 633.921 91.3088 634.86 87.8474 635.589C86.4965 618.904 72.2211 602.729 57.5439 617.115C54.3045 620.071 52.3469 624.175 52.0878 628.552C51.8286 632.93 53.2884 637.237 56.1564 640.554C61.1584 645.885 68.6428 647.199 76.018 647.017C66.3427 666.988 39.7632 677.357 20.5952 679.876C14.6439 680.68 14.5709 690.829 20.5952 690.063C44.6191 686.886 77.0403 673.706 86.533 646.98L86.862 645.885C87.6652 645.885 88.4319 645.629 89.1621 645.483C112.164 641.431 137.137 625.84 142.832 599.589C144.105 593.502 144.339 587.244 143.526 581.079C154.372 577.727 163.774 570.82 170.215 561.473C181.169 546.248 186.974 524.597 181.169 505.794L180.548 504.041C190.204 497.059 198.217 488.05 204.024 477.644C211.849 465.147 215.052 450.305 213.079 435.694C222.758 432.855 230.913 426.288 235.752 417.438C241.292 407.664 243.407 396.319 241.76 385.205C240.112 374.091 234.798 363.847 226.661 356.1C228.598 352.077 229.716 347.708 229.947 343.249C230.786 324.774 218.994 305.205 208.99 291.294C200.629 279.866 189.895 269.388 177.006 264.714C175.97 257.925 173.991 251.314 171.128 245.072C164.228 229.117 156.195 212.212 142.431 201.989C142.926 197.556 142.642 193.071 141.591 188.736C136.772 169.86 121.437 152.554 108.147 140.031C105.446 137.475 102.488 134.81 99.3483 132.363C97.8873 119.765 91.7188 108.184 82.0788 99.9421C74.9636 93.5807 66.5007 88.9124 57.3246 86.2871C50.6066 67.4842 24.8668 57.0786 10.5182 47.9145C5.44322 44.3365 0.696773 53.1356 5.88127 56.4581ZM71.6003 636.246C53.345 633.763 67.9492 612.66 77.0404 627.045C78.7831 629.875 79.5643 633.192 79.2675 636.502C76.7091 636.637 74.144 636.552 71.6003 636.246ZM114.062 552.272C118.119 554.016 121.775 556.576 124.802 559.791C127.829 563.007 130.164 566.81 131.66 570.965C127.125 570.113 122.975 567.85 119.802 564.5C116.628 561.15 114.594 556.883 113.989 552.308L114.062 552.272ZM148.638 487.064C152.476 487.408 156.182 488.643 159.459 490.671C162.736 492.699 165.494 495.465 167.514 498.747C159.664 500.719 149.222 496.556 148.564 487.1L148.638 487.064ZM179.27 412.546C183.665 412.933 187.889 414.429 191.548 416.893C195.207 419.358 198.181 422.711 200.19 426.639C195.758 426.37 191.478 424.927 187.788 422.456C184.099 419.986 181.133 416.578 179.197 412.582L179.27 412.546ZM198.986 351.135C203.951 352.399 208.683 354.445 213.006 357.196C206.689 360.226 198.219 358.218 198.913 351.171L198.986 351.135ZM160.358 282.605C156.342 283.335 153.932 281.181 153.056 276.179C154.224 274.61 155.805 273.396 157.623 272.674C159.442 271.952 161.425 271.75 163.351 272.09C164.805 272.105 166.256 272.215 167.696 272.418C167.039 277.274 164.958 281.838 160.285 282.641L160.358 282.605ZM116.034 212.76L114.683 204.435C117.64 201.113 126.841 204.435 131.952 206.918C131.654 207.573 131.313 208.207 130.93 208.817C127.547 215.194 122.557 216.52 115.961 212.796L116.034 212.76ZM82.5535 149.706C79.2675 149.706 75.9818 149.706 72.7324 149.706C66.5621 140.761 67.511 135.321 75.5798 133.313C78.0812 132.86 80.6496 132.935 83.1204 133.532C85.5912 134.129 87.9103 135.236 89.9287 136.781C89.4175 142.404 87.3729 148.027 82.5535 149.706ZM43.3046 95.6704C45.5859 95.2043 47.9241 95.0811 50.2417 95.3052C50.2144 96.5556 49.9669 97.7915 49.5112 98.9562C41.3329 107.889 39.2397 106.806 43.2315 95.7069L43.3046 95.6704Z" fill="white"/>
<path d="M418.01 0.446015C383.508 0.446016 348.896 4.5718 314.393 5.55759C231.916 7.89427 149.402 5.3019 67.0341 10.4499C51.006 11.4722 34.1746 11.5817 18.6211 15.4518C6.71862 18.3727 4.01709 24.616 2.44713 36.4454C-2.26273 70.5463 1.24218 105.487 1.42474 139.771C1.93589 227.396 1.86266 315.35 3.031 403.121C4.0533 478.735 10.3331 554.494 13.9842 630.034C14.897 649.203 15.8826 668.371 17.0875 687.539C17.7447 698.054 18.5847 708.569 19.2054 719.084C19.6435 725.911 18.6213 733.14 20.1913 739.822C23.8423 756.215 43.7039 752.089 56.5191 752.089C78.4254 752.089 99.93 752.089 121.654 752.527C208.732 753.55 295.773 756.179 382.851 755.083C404.538 754.84 426.201 754.341 447.84 753.586C457.661 755.156 463.284 746.978 466.095 738.179C471.754 719.923 470.33 697.689 471.608 678.74C474.626 634.051 476.829 589.301 478.216 544.49C480.991 455.648 480.528 366.805 476.829 277.963C475.003 233.201 472.338 188.476 468.833 143.787C465.766 104.027 469.563 63.9013 464.123 24.3239C462.663 13.5532 459.888 3.36695 447.803 0.993762C438.164 -0.831767 427.54 0.409504 418.01 0.446015ZM118.624 17.5695C155.864 16.4012 193.178 16.3281 230.419 16.1821C267.66 16.036 305.594 15.671 343.164 14.0281C371.897 12.7502 400.485 9.86569 429.255 9.97522C433.436 9.66482 437.634 9.66482 441.815 9.97522C442.545 9.97522 443.202 10.231 443.86 10.377C362.494 95.1657 292.969 190.568 237.173 293.991C207.965 243.168 175.872 193.514 143.268 144.955C111.614 97.8928 76.6363 46.0843 22.2356 23.9954C25.7319 23.2777 29.2674 22.7657 32.8237 22.462C41.8784 21.4032 51.0789 20.965 60.1336 20.3443C79.5937 19.103 99.0904 18.2632 118.624 17.5695V17.5695ZM28.8442 734.163C27.2013 726.861 28.4426 717.295 27.9315 709.847C27.2256 700.232 26.5927 690.63 26.0329 681.04C22.0167 614.299 20.6656 547.447 15.8097 480.743C9.96801 400.784 12.1589 320.096 11.5017 240.065C11.2826 200.195 11.5015 160.253 10.8078 120.383C10.5157 103.333 9.60317 86.3188 9.7127 69.2684C9.7127 62.2584 10.0048 55.2849 10.662 48.3113C11.1367 43.1999 10.8808 35.7883 13.1445 30.6403L13.5826 30.8594C63.0179 48.421 96.0602 92.9273 124.684 134.549C157.763 182.597 188.286 232.325 218.699 282.052C234.253 307.61 250.171 333.495 261.088 361.39C273.319 392.643 265.98 419.149 249.879 447.372C222.204 496.004 191.462 543.066 159.552 589.106C141.15 615.88 122.165 642.168 102.595 667.969C92.2021 681.697 81.6504 695.328 70.9406 708.861C63.6385 718.025 47.7565 745.846 33.6634 739.968C33.0881 739.717 32.4656 739.592 31.8379 739.603C30.2962 738.147 29.2494 736.244 28.8442 734.163V734.163ZM449.629 744.313C449.544 744.295 449.457 744.295 449.373 744.313C448.887 744.171 448.382 744.109 447.876 744.13C368.174 746.832 288.434 745.773 208.695 744.422C168.826 743.728 128.956 743.035 89.0501 742.743C78.9489 742.743 68.8352 742.743 58.7096 742.743L55.0586 742.743C55.4602 742.414 55.8255 742.049 56.1906 741.72C67.1438 731.023 76.3079 717.477 85.7641 705.21C104.628 681.137 123.005 656.712 140.895 631.933C178.525 579.747 213.904 526.04 247.031 470.812L253.019 460.881C285.659 512.848 318.324 564.802 351.013 616.745C379.82 662.237 410.015 707.473 449.629 744.313V744.313ZM454.521 25.5653C456.856 44.6028 457.808 63.7846 457.369 82.9598C457.369 122.245 460.618 161.093 463.064 200.232C473.288 363.516 472.63 527.299 461.093 690.496C460.691 695.827 460.8 724.049 456.127 737.376C416.185 700.135 386.063 654.387 357.074 608.42C324.19 556.283 291.331 504.073 258.495 451.79C268.499 434.338 277.152 415.79 277.7 395.564C278.467 366.1 261.234 337.147 247.36 312.1L242.686 303.885L242.869 303.63C298.987 198.556 369.337 101.729 451.929 15.8899C453.388 18.9253 454.267 22.2068 454.521 25.5653V25.5653Z" fill="white"/>
</svg>
