<svg width="480" height="756" viewBox="0 0 480 756" fill="none" xmlns="http://www.w3.org/2000/svg">
<mask id="path-1-inside-1_145_46201" fill="white">
<path d="M5.88152 56.4581C13.4757 61.314 37.0614 72.2305 46.3351 84.8632C42.6824 85.0473 39.1216 86.0719 35.9297 87.8571C33.4445 89.2822 31.4332 91.4068 30.1464 93.9663C28.8597 96.5259 28.3545 99.4073 28.6931 102.252C29.0316 105.097 30.1993 107.779 32.0509 109.965C33.9024 112.151 36.3558 113.744 39.1061 114.546C50.4974 117.942 57.9457 108.193 58.8949 97.3863C61.1624 98.1345 63.371 99.0497 65.5031 100.125C76.1969 105.368 84.47 114.516 88.6146 125.682C85.3449 124.001 81.7048 123.17 78.0296 123.266C74.3544 123.362 70.7623 124.381 67.5845 126.23C65.0064 127.804 62.843 129.973 61.2754 132.556C59.7077 135.138 58.7814 138.058 58.5741 141.072C58.3667 144.085 58.8844 147.105 60.0836 149.878C61.2828 152.65 63.1285 155.095 65.4666 157.008C76.8214 166.72 91.864 159.527 97.2676 146.055C97.5962 145.252 97.8517 144.449 98.1073 143.645C100.444 145.799 102.561 147.954 104.424 149.816C114.391 159.71 133.194 179.316 133.632 196.878C123.555 192.715 105.373 190.087 103.584 204.727C102.05 217.287 114.318 227.802 125.271 225.137C128.502 224.257 131.483 222.633 133.974 220.395C136.466 218.157 138.399 215.367 139.62 212.249C146.024 218.179 151.251 225.264 155.027 233.133C159.627 241.968 165.506 252.337 167.331 262.341C156.634 261.209 140.569 264.678 143.928 280.049C144.345 282.715 145.47 285.22 147.184 287.303C148.899 289.386 151.142 290.97 153.678 291.892C156.214 292.813 158.95 293.037 161.602 292.54C164.254 292.043 166.725 290.844 168.755 289.067C173.028 285.602 175.885 280.693 176.788 275.266C189.895 281.108 200.447 294.507 207.822 306.884C213.159 315.165 217.128 324.25 219.578 333.792C220.865 339.009 220.688 344.479 219.067 349.601C212.412 344.883 204.749 341.783 196.686 340.547C195.669 340.285 194.594 340.373 193.634 340.797C192.673 341.221 191.884 341.956 191.392 342.883C186.536 354.53 193.291 368.441 205.522 369.974C208.399 370.316 211.316 369.957 214.024 368.927C216.733 367.897 219.151 366.227 221.075 364.06C226.348 369.19 230.068 375.705 231.805 382.854C233.542 390.004 233.227 397.498 230.896 404.477C229.382 409.429 226.682 413.937 223.029 417.608C219.377 421.28 214.884 424.004 209.939 425.543L209.355 424.229C202.053 408.822 186.864 399.584 170.873 403.418C169.638 403.852 168.614 404.737 168.004 405.895C167.395 407.052 167.246 408.398 167.587 409.661C169.728 417.563 174.44 424.526 180.979 429.452C187.517 434.377 195.511 436.985 203.696 436.862C205.172 446.043 203.902 455.455 200.045 463.916C195.902 473.665 189.757 482.434 182.009 489.656C180.115 491.471 178.089 493.143 175.948 494.658C172.614 489.197 167.93 484.686 162.348 481.559C156.766 478.432 150.472 476.795 144.074 476.804C143.025 476.837 142.015 477.211 141.198 477.87C140.38 478.529 139.801 479.437 139.547 480.456C138.802 483.858 138.803 487.381 139.551 490.782C140.299 494.184 141.775 497.383 143.878 500.159C145.981 502.935 148.661 505.222 151.733 506.863C154.805 508.504 158.196 509.46 161.672 509.664C164.967 509.791 168.257 509.321 171.384 508.277C174.9 521.942 173.208 536.426 166.638 548.913C161.088 558.99 152.252 568.336 141.372 571.038C136.699 555.959 125.892 543.473 110.558 541.026C109.938 540.876 109.295 540.852 108.666 540.955C108.038 541.059 107.437 541.287 106.898 541.628C106.36 541.969 105.896 542.414 105.533 542.938C105.171 543.462 104.918 544.054 104.789 544.678C103.569 552.211 105.046 559.933 108.96 566.484C112.873 573.036 118.972 577.997 126.184 580.494C128.768 581.351 131.459 581.843 134.18 581.955C134.483 584.377 134.617 586.817 134.581 589.257C133.997 611.382 116.326 626.68 98.0707 632.778C94.7232 633.921 91.3091 634.86 87.8476 635.589C86.4967 618.904 72.2213 602.729 57.5441 617.115C54.3047 620.071 52.3471 624.175 52.088 628.552C51.8289 632.93 53.2886 637.237 56.1567 640.554C61.1586 645.885 68.6431 647.199 76.0182 647.017C66.3429 666.988 39.7635 677.357 20.5954 679.876C14.6442 680.68 14.5712 690.829 20.5954 690.063C44.6194 686.886 77.0405 673.706 86.5333 646.98L86.8622 645.885C87.6654 645.885 88.4322 645.629 89.1624 645.483C112.164 641.431 137.137 625.84 142.833 599.589C144.105 593.502 144.339 587.244 143.526 581.079C154.372 577.727 163.774 570.82 170.216 561.473C181.169 546.248 186.974 524.597 181.169 505.794L180.548 504.041C190.205 497.059 198.217 488.05 204.024 477.644C211.849 465.147 215.053 450.305 213.079 435.694C222.758 432.855 230.913 426.288 235.752 417.438C241.292 407.664 243.407 396.319 241.76 385.205C240.113 374.091 234.798 363.847 226.661 356.1C228.599 352.077 229.716 347.708 229.947 343.249C230.787 324.774 218.994 305.205 208.99 291.294C200.629 279.866 189.895 269.388 177.007 264.714C175.97 257.925 173.991 251.314 171.128 245.072C164.228 229.117 156.196 212.212 142.431 201.989C142.927 197.556 142.643 193.071 141.591 188.736C136.772 169.86 121.438 152.554 108.148 140.031C105.446 137.475 102.488 134.81 99.3485 132.363C97.8876 119.765 91.719 108.184 82.0791 99.9421C74.9639 93.5807 66.5009 88.9124 57.3248 86.2871C50.6068 67.4842 24.8671 57.0786 10.5184 47.9145C5.44346 44.3365 0.697017 53.1356 5.88152 56.4581ZM71.6006 636.246C53.3453 633.763 67.9495 612.66 77.0406 627.045C78.7833 629.875 79.5645 633.192 79.2677 636.502C76.7094 636.637 74.1442 636.552 71.6006 636.246ZM114.062 552.272C118.12 554.016 121.775 556.576 124.803 559.791C127.83 563.007 130.164 566.81 131.66 570.965C127.125 570.113 122.975 567.85 119.802 564.5C116.629 561.15 114.594 556.883 113.989 552.308L114.062 552.272ZM148.638 487.064C152.476 487.408 156.182 488.643 159.459 490.671C162.736 492.699 165.494 495.465 167.514 498.747C159.664 500.719 149.222 496.556 148.565 487.1L148.638 487.064ZM179.27 412.546C183.665 412.933 187.889 414.429 191.548 416.893C195.207 419.358 198.181 422.711 200.191 426.639C195.759 426.37 191.478 424.927 187.789 422.456C184.099 419.986 181.134 416.578 179.197 412.582L179.27 412.546ZM198.986 351.135C203.951 352.399 208.684 354.445 213.006 357.196C206.69 360.226 198.219 358.218 198.913 351.171L198.986 351.135ZM160.358 282.605C156.342 283.335 153.932 281.181 153.056 276.179C154.224 274.61 155.806 273.396 157.624 272.674C159.442 271.952 161.425 271.75 163.352 272.09C164.805 272.105 166.257 272.215 167.696 272.418C167.039 277.274 164.958 281.838 160.285 282.641L160.358 282.605ZM116.034 212.76L114.683 204.435C117.641 201.113 126.841 204.435 131.953 206.918C131.655 207.573 131.313 208.207 130.93 208.817C127.547 215.194 122.557 216.52 115.961 212.796L116.034 212.76ZM82.5537 149.706C79.2678 149.706 75.982 149.706 72.7326 149.706C66.5623 140.761 67.5112 135.321 75.5801 133.313C78.0815 132.86 80.6498 132.935 83.1206 133.532C85.5915 134.129 87.9106 135.236 89.9289 136.781C89.4178 142.404 87.3731 148.027 82.5537 149.706ZM43.3049 95.6704C45.5862 95.2043 47.9243 95.0811 50.242 95.3052C50.2146 96.5556 49.9672 97.7915 49.5115 98.9562C41.3331 107.889 39.2399 106.806 43.2318 95.7069L43.3049 95.6704Z"/>
</mask>
<path d="M5.88152 56.4581C13.4757 61.314 37.0614 72.2305 46.3351 84.8632C42.6824 85.0473 39.1216 86.0719 35.9297 87.8571C33.4445 89.2822 31.4332 91.4068 30.1464 93.9663C28.8597 96.5259 28.3545 99.4073 28.6931 102.252C29.0316 105.097 30.1993 107.779 32.0509 109.965C33.9024 112.151 36.3558 113.744 39.1061 114.546C50.4974 117.942 57.9457 108.193 58.8949 97.3863C61.1624 98.1345 63.371 99.0497 65.5031 100.125C76.1969 105.368 84.47 114.516 88.6146 125.682C85.3449 124.001 81.7048 123.17 78.0296 123.266C74.3544 123.362 70.7623 124.381 67.5845 126.23C65.0064 127.804 62.843 129.973 61.2754 132.556C59.7077 135.138 58.7814 138.058 58.5741 141.072C58.3667 144.085 58.8844 147.105 60.0836 149.878C61.2828 152.65 63.1285 155.095 65.4666 157.008C76.8214 166.72 91.864 159.527 97.2676 146.055C97.5962 145.252 97.8517 144.449 98.1073 143.645C100.444 145.799 102.561 147.954 104.424 149.816C114.391 159.71 133.194 179.316 133.632 196.878C123.555 192.715 105.373 190.087 103.584 204.727C102.05 217.287 114.318 227.802 125.271 225.137C128.502 224.257 131.483 222.633 133.974 220.395C136.466 218.157 138.399 215.367 139.62 212.249C146.024 218.179 151.251 225.264 155.027 233.133C159.627 241.968 165.506 252.337 167.331 262.341C156.634 261.209 140.569 264.678 143.928 280.049C144.345 282.715 145.47 285.22 147.184 287.303C148.899 289.386 151.142 290.97 153.678 291.892C156.214 292.813 158.95 293.037 161.602 292.54C164.254 292.043 166.725 290.844 168.755 289.067C173.028 285.602 175.885 280.693 176.788 275.266C189.895 281.108 200.447 294.507 207.822 306.884C213.159 315.165 217.128 324.25 219.578 333.792C220.865 339.009 220.688 344.479 219.067 349.601C212.412 344.883 204.749 341.783 196.686 340.547C195.669 340.285 194.594 340.373 193.634 340.797C192.673 341.221 191.884 341.956 191.392 342.883C186.536 354.53 193.291 368.441 205.522 369.974C208.399 370.316 211.316 369.957 214.024 368.927C216.733 367.897 219.151 366.227 221.075 364.06C226.348 369.19 230.068 375.705 231.805 382.854C233.542 390.004 233.227 397.498 230.896 404.477C229.382 409.429 226.682 413.937 223.029 417.608C219.377 421.28 214.884 424.004 209.939 425.543L209.355 424.229C202.053 408.822 186.864 399.584 170.873 403.418C169.638 403.852 168.614 404.737 168.004 405.895C167.395 407.052 167.246 408.398 167.587 409.661C169.728 417.563 174.44 424.526 180.979 429.452C187.517 434.377 195.511 436.985 203.696 436.862C205.172 446.043 203.902 455.455 200.045 463.916C195.902 473.665 189.757 482.434 182.009 489.656C180.115 491.471 178.089 493.143 175.948 494.658C172.614 489.197 167.93 484.686 162.348 481.559C156.766 478.432 150.472 476.795 144.074 476.804C143.025 476.837 142.015 477.211 141.198 477.87C140.38 478.529 139.801 479.437 139.547 480.456C138.802 483.858 138.803 487.381 139.551 490.782C140.299 494.184 141.775 497.383 143.878 500.159C145.981 502.935 148.661 505.222 151.733 506.863C154.805 508.504 158.196 509.46 161.672 509.664C164.967 509.791 168.257 509.321 171.384 508.277C174.9 521.942 173.208 536.426 166.638 548.913C161.088 558.99 152.252 568.336 141.372 571.038C136.699 555.959 125.892 543.473 110.558 541.026C109.938 540.876 109.295 540.852 108.666 540.955C108.038 541.059 107.437 541.287 106.898 541.628C106.36 541.969 105.896 542.414 105.533 542.938C105.171 543.462 104.918 544.054 104.789 544.678C103.569 552.211 105.046 559.933 108.96 566.484C112.873 573.036 118.972 577.997 126.184 580.494C128.768 581.351 131.459 581.843 134.18 581.955C134.483 584.377 134.617 586.817 134.581 589.257C133.997 611.382 116.326 626.68 98.0707 632.778C94.7232 633.921 91.3091 634.86 87.8476 635.589C86.4967 618.904 72.2213 602.729 57.5441 617.115C54.3047 620.071 52.3471 624.175 52.088 628.552C51.8289 632.93 53.2886 637.237 56.1567 640.554C61.1586 645.885 68.6431 647.199 76.0182 647.017C66.3429 666.988 39.7635 677.357 20.5954 679.876C14.6442 680.68 14.5712 690.829 20.5954 690.063C44.6194 686.886 77.0405 673.706 86.5333 646.98L86.8622 645.885C87.6654 645.885 88.4322 645.629 89.1624 645.483C112.164 641.431 137.137 625.84 142.833 599.589C144.105 593.502 144.339 587.244 143.526 581.079C154.372 577.727 163.774 570.82 170.216 561.473C181.169 546.248 186.974 524.597 181.169 505.794L180.548 504.041C190.205 497.059 198.217 488.05 204.024 477.644C211.849 465.147 215.053 450.305 213.079 435.694C222.758 432.855 230.913 426.288 235.752 417.438C241.292 407.664 243.407 396.319 241.76 385.205C240.113 374.091 234.798 363.847 226.661 356.1C228.599 352.077 229.716 347.708 229.947 343.249C230.787 324.774 218.994 305.205 208.99 291.294C200.629 279.866 189.895 269.388 177.007 264.714C175.97 257.925 173.991 251.314 171.128 245.072C164.228 229.117 156.196 212.212 142.431 201.989C142.927 197.556 142.643 193.071 141.591 188.736C136.772 169.86 121.438 152.554 108.148 140.031C105.446 137.475 102.488 134.81 99.3485 132.363C97.8876 119.765 91.719 108.184 82.0791 99.9421C74.9639 93.5807 66.5009 88.9124 57.3248 86.2871C50.6068 67.4842 24.8671 57.0786 10.5184 47.9145C5.44346 44.3365 0.697017 53.1356 5.88152 56.4581ZM71.6006 636.246C53.3453 633.763 67.9495 612.66 77.0406 627.045C78.7833 629.875 79.5645 633.192 79.2677 636.502C76.7094 636.637 74.1442 636.552 71.6006 636.246ZM114.062 552.272C118.12 554.016 121.775 556.576 124.803 559.791C127.83 563.007 130.164 566.81 131.66 570.965C127.125 570.113 122.975 567.85 119.802 564.5C116.629 561.15 114.594 556.883 113.989 552.308L114.062 552.272ZM148.638 487.064C152.476 487.408 156.182 488.643 159.459 490.671C162.736 492.699 165.494 495.465 167.514 498.747C159.664 500.719 149.222 496.556 148.565 487.1L148.638 487.064ZM179.27 412.546C183.665 412.933 187.889 414.429 191.548 416.893C195.207 419.358 198.181 422.711 200.191 426.639C195.759 426.37 191.478 424.927 187.789 422.456C184.099 419.986 181.134 416.578 179.197 412.582L179.27 412.546ZM198.986 351.135C203.951 352.399 208.684 354.445 213.006 357.196C206.69 360.226 198.219 358.218 198.913 351.171L198.986 351.135ZM160.358 282.605C156.342 283.335 153.932 281.181 153.056 276.179C154.224 274.61 155.806 273.396 157.624 272.674C159.442 271.952 161.425 271.75 163.352 272.09C164.805 272.105 166.257 272.215 167.696 272.418C167.039 277.274 164.958 281.838 160.285 282.641L160.358 282.605ZM116.034 212.76L114.683 204.435C117.641 201.113 126.841 204.435 131.953 206.918C131.655 207.573 131.313 208.207 130.93 208.817C127.547 215.194 122.557 216.52 115.961 212.796L116.034 212.76ZM82.5537 149.706C79.2678 149.706 75.982 149.706 72.7326 149.706C66.5623 140.761 67.5112 135.321 75.5801 133.313C78.0815 132.86 80.6498 132.935 83.1206 133.532C85.5915 134.129 87.9106 135.236 89.9289 136.781C89.4178 142.404 87.3731 148.027 82.5537 149.706ZM43.3049 95.6704C45.5862 95.2043 47.9243 95.0811 50.242 95.3052C50.2146 96.5556 49.9672 97.7915 49.5115 98.9562C41.3331 107.889 39.2399 106.806 43.2318 95.7069L43.3049 95.6704Z" stroke="white" stroke-width="0.02" mask="url(#path-1-inside-1_145_46201)"/>
<path d="M13.102 30.7252C11.9965 33.2836 11.5026 36.3888 11.2274 39.4891C11.0882 41.0569 11.0049 42.6235 10.9268 44.1175L10.9211 44.2272C10.8451 45.6813 10.7728 47.0645 10.657 48.3109C9.99983 55.2845 9.7077 62.2582 9.7077 69.2684C9.63957 79.8754 9.96696 90.4684 10.2945 101.065C10.4934 107.502 10.6924 113.94 10.8028 120.383C11.2715 147.323 11.3236 174.296 11.3757 201.258C11.4007 214.198 11.4257 227.135 11.4967 240.065C11.6687 261.011 11.6456 282.002 11.6225 303.014C11.5573 362.283 11.4919 421.712 15.8047 480.743C18.5632 518.635 20.1906 556.574 21.8181 594.514C23.0556 623.363 24.2931 652.212 26.0279 681.04C26.5877 690.63 27.2206 700.232 27.9265 709.847C28.1187 712.648 28.0631 715.749 28.0062 718.917C27.9875 719.96 27.9686 721.01 27.9584 722.059C27.9174 726.295 28.0177 730.512 28.8394 734.164C29.2447 736.246 30.292 738.15 31.8345 739.606L31.8331 739.608L31.838 739.608C32.4649 739.597 33.0868 739.722 33.6614 739.972L33.6615 739.972C37.1866 741.443 40.8233 740.806 44.409 738.88C47.9946 736.955 51.5298 733.742 54.8523 730.059C58.175 726.375 61.2853 722.222 64.0214 718.417C64.8568 717.255 65.6574 716.126 66.4184 715.052C68.1497 712.609 69.6765 710.455 70.9445 708.864L70.9409 708.861L70.9445 708.864C81.6543 695.331 92.206 681.7 102.599 667.972C122.169 642.171 141.155 615.883 159.556 589.109C191.466 543.069 222.208 496.007 249.883 447.375C265.985 419.151 273.324 392.643 261.093 361.388C250.458 334.214 235.076 308.946 219.91 284.031C219.507 283.37 219.105 282.71 218.703 282.05C188.29 232.322 157.767 182.595 124.689 134.547C96.0644 92.9246 63.0213 48.4169 13.5843 30.8547L13.1467 30.6359L13.1445 30.6403L13.1422 30.6448L13.102 30.7252ZM13.102 30.7252C13.1146 30.6962 13.1272 30.6672 13.1399 30.6384L13.0992 30.731L13.102 30.7252ZM2.45209 36.4461L2.44713 36.4454L2.45209 36.446C3.23706 30.5314 4.30483 26.0143 6.66353 22.6107C9.02204 19.2075 12.6718 16.9169 18.6223 15.4567C31.0703 12.3593 44.3369 11.6708 57.3556 10.9952C60.6028 10.8267 63.8346 10.659 67.0344 10.4549C117.358 7.30963 167.736 7.05371 218.127 6.79772C250.214 6.6347 282.306 6.47167 314.393 5.56261C329.299 5.13671 344.226 4.12474 359.155 3.1126C361.504 2.95336 363.853 2.79412 366.202 2.63713C383.481 1.48247 400.759 0.451036 418.01 0.451036C420.655 0.440904 423.384 0.337999 426.152 0.233567C428.372 0.149827 430.618 0.0651711 432.866 0.0265969C437.918 -0.0600732 442.983 0.0859837 447.802 0.998642C453.843 2.18498 457.557 5.3239 459.943 9.51225C462.329 13.7009 463.388 18.9393 464.118 24.3245C466.838 44.1129 467.249 64.0383 467.363 83.9868C467.38 86.9271 467.39 89.8679 467.401 92.8088C467.461 109.821 467.521 126.837 468.828 143.787C472.333 188.476 474.998 233.201 476.824 277.963C480.523 366.805 480.986 455.648 478.211 544.49C476.824 589.301 474.621 634.05 471.603 678.739C471.284 683.477 471.133 688.419 470.998 693.454C470.982 694.047 470.967 694.641 470.951 695.236C470.834 699.695 470.715 704.216 470.489 708.719C469.978 718.928 468.919 729.05 466.09 738.177C464.685 742.576 462.576 746.82 459.592 749.767C456.609 752.715 452.749 754.366 447.84 753.581L447.839 753.581C426.201 754.336 404.538 754.835 382.851 755.078C322.02 755.843 261.207 754.791 200.387 753.739C174.145 753.285 147.901 752.831 121.654 752.522C99.931 752.084 78.4272 752.084 56.5218 752.084L56.5191 752.084C54.4554 752.084 52.2088 752.191 49.8768 752.302C48.5884 752.364 47.2739 752.426 45.9497 752.473C42.2286 752.603 38.4307 752.607 34.9193 752.098C31.408 751.589 28.1834 750.568 25.6086 748.651C23.034 746.733 21.1087 743.918 20.1961 739.821L20.1961 739.821C19.4113 736.481 19.2743 733.003 19.2789 729.508C19.2802 728.53 19.2925 727.551 19.3048 726.573C19.3366 724.054 19.3682 721.543 19.2104 719.084C18.8719 713.349 18.4681 707.614 18.0643 701.879C17.7278 697.099 17.3912 692.318 17.0925 687.538C15.8876 668.37 14.9019 649.202 13.9892 630.034C12.7749 604.91 11.2698 579.762 9.76401 554.602C6.74245 504.116 3.71829 453.586 3.036 403.121C2.24197 343.469 2.0214 283.734 1.80112 224.074C1.69728 195.95 1.5935 167.844 1.42974 139.771C1.37728 129.92 1.05055 120.015 0.723207 110.092C-0.0887362 85.4775 -0.904469 60.7486 2.45209 36.4461ZM443.86 10.377L443.856 10.3735L443.853 10.3703L443.861 10.3721C443.532 10.2991 443.204 10.1988 442.866 10.1165C442.528 10.0343 442.181 9.9702 441.816 9.97026C437.635 9.65984 433.436 9.65984 429.255 9.9702C410.545 9.89897 391.911 11.0941 373.264 12.29C363.239 12.933 353.21 13.5763 343.163 14.0231C305.594 15.6661 267.66 16.0311 230.419 16.1771C228.084 16.1862 225.749 16.1951 223.414 16.2039C188.5 16.3366 153.53 16.4694 118.623 17.5645C99.0902 18.2582 79.5934 19.098 60.1333 20.3394C58.0201 20.4842 55.8989 20.6191 53.7735 20.7543C46.7921 21.1984 39.7647 21.6454 32.8233 22.457C29.2668 22.7607 25.7311 23.2727 22.2346 23.9905L22.2356 23.9954L22.2366 24.0003L22.2337 24C22.2347 24.0004 22.2358 24.0009 22.2368 24.0013C76.6341 46.0903 111.61 97.8962 143.264 144.958C175.868 193.517 207.961 243.171 237.169 293.994L237.173 293.991L237.178 293.989L237.182 293.986L237.178 293.994C292.973 190.571 362.498 95.1688 443.863 10.3805L443.86 10.377ZM449.371 744.317L449.371 744.318L449.374 744.317C449.457 744.3 449.544 744.3 449.628 744.317L449.629 744.313L449.632 744.309C410.019 707.47 379.825 662.234 351.018 616.742C318.329 564.8 285.663 512.845 253.023 460.878L253.019 460.881L253.015 460.884L253.009 460.887L247.027 470.809C213.9 526.038 178.521 579.745 140.891 631.93C123.001 656.709 104.624 681.134 85.7602 705.207L85.7639 705.21L85.7601 705.207C83.477 708.169 81.211 711.205 78.9327 714.258C71.7745 723.849 64.4956 733.602 56.1872 741.717C56.063 741.829 55.9388 741.945 55.8132 742.062C55.5695 742.289 55.3204 742.522 55.0554 742.739L55.0586 742.743L55.0618 742.746L55.0627 742.748L58.7096 742.748L58.769 742.748L58.8283 742.748L58.8876 742.748L58.947 742.748L59.0063 742.748L59.0656 742.748L59.1249 742.748L59.1843 742.748L59.2436 742.748L59.3029 742.748L59.3623 742.748L59.4216 742.748L59.4809 742.748L59.5402 742.748L59.5996 742.748L59.6589 742.748L59.7182 742.748L59.7775 742.748L59.8369 742.748L59.8962 742.748L59.9555 742.748L60.0148 742.748L60.0742 742.748L60.1335 742.748L60.1928 742.748L60.2521 742.748L60.3114 742.748L60.3708 742.748L60.4301 742.748L60.4894 742.748L60.5487 742.748L60.6081 742.748L60.6674 742.748L60.7267 742.748L60.786 742.748L60.8453 742.748L60.9047 742.748L60.964 742.748L61.0233 742.748L61.0826 742.748L61.1419 742.748L61.2012 742.748L61.2606 742.748L61.3199 742.748L61.3792 742.748L61.4385 742.748L61.4978 742.748L61.5572 742.748L61.6165 742.748L61.6758 742.748L61.7351 742.748L61.7944 742.748L61.8537 742.748L61.913 742.748L61.9724 742.748L62.0317 742.748L62.091 742.748L62.1503 742.748L62.2096 742.748L62.2689 742.748L62.3282 742.748L62.3876 742.748L62.4469 742.748L62.5062 742.748L62.5655 742.748L62.6248 742.748L62.6841 742.748L62.7434 742.748L62.8027 742.748L62.862 742.748L62.9214 742.748L62.9807 742.748L63.04 742.748L63.0993 742.748L63.1586 742.748L63.2179 742.748L63.2772 742.748L63.3365 742.748L63.3958 742.748L63.4551 742.748L63.5144 742.748L63.5738 742.748L63.6331 742.748L63.6924 742.748L63.7517 742.748L63.811 742.748L63.8703 742.748L63.9296 742.748L63.9889 742.748L64.0482 742.748L64.1075 742.748L64.1668 742.748L64.2261 742.748L64.2854 742.748L64.3447 742.748L64.404 742.748L64.4633 742.748L64.5226 742.748L64.5819 742.748L64.6412 742.748L64.7005 742.748L64.7598 742.748L64.8191 742.748L64.8784 742.748L64.9377 742.748L64.997 742.748L65.0563 742.748L65.1156 742.748L65.1749 742.748L65.2342 742.748L65.2935 742.748L65.3528 742.748L65.4121 742.748L65.4714 742.748L65.5307 742.748L65.59 742.748L65.6493 742.748L65.7086 742.748L65.7679 742.748L65.8272 742.748L65.8865 742.748L65.9458 742.748L66.0051 742.748L66.0644 742.748L66.1237 742.748L66.183 742.748L66.2423 742.748L66.3016 742.748L66.3609 742.748L66.4202 742.748L66.4795 742.748L66.5388 742.748L66.5981 742.748L66.6574 742.748L66.7167 742.748L66.7759 742.748L66.8352 742.748L66.8945 742.748L66.9538 742.748L67.0131 742.748L67.0724 742.748L67.1317 742.748L67.191 742.748L67.2503 742.748L67.3096 742.748L67.3688 742.748L67.4281 742.748L67.4874 742.748L67.5467 742.748L67.606 742.748L67.6653 742.748L67.7246 742.748L67.7839 742.748L67.8432 742.748L67.9024 742.748L67.9617 742.748L68.021 742.748L68.0803 742.748L68.1396 742.748L68.1989 742.748L68.2582 742.748L68.3174 742.748L68.3767 742.748L68.436 742.748L68.4953 742.748L68.5546 742.748L68.6139 742.748L68.6731 742.748L68.7324 742.748L68.7917 742.748L68.851 742.748L68.9103 742.748L68.9696 742.748L69.0288 742.748L69.0881 742.748L69.1474 742.748L69.2067 742.748L69.266 742.748L69.3253 742.748L69.3845 742.748L69.4438 742.748L69.5031 742.748L69.5624 742.748L69.6216 742.748L69.6809 742.748L69.7402 742.748L69.7995 742.748L69.8588 742.748L69.918 742.748L69.9773 742.748L70.0366 742.748L70.0959 742.748L70.1552 742.748L70.2144 742.748L70.2737 742.748L70.333 742.748L70.3923 742.748L70.4515 742.748L70.5108 742.748L70.5701 742.748L70.6294 742.748L70.6886 742.748L70.7479 742.748L70.8072 742.748L70.8664 742.748L70.9257 742.748L70.985 742.748L71.0443 742.748L71.1035 742.748L71.1628 742.748L71.2221 742.748L71.2814 742.748L71.3406 742.748L71.3999 742.748L71.4592 742.748L71.5184 742.748L71.5777 742.748L71.637 742.748L71.6963 742.748L71.7555 742.748L71.8148 742.748L71.8741 742.748L71.9333 742.748L71.9926 742.748L72.0519 742.748L72.1111 742.748L72.1704 742.748L72.2297 742.748L72.2889 742.748L72.3482 742.748L72.4075 742.748L72.4667 742.748L72.526 742.748L72.5853 742.748L72.6445 742.748L72.7038 742.748L72.763 742.748L72.8223 742.748L72.8816 742.748L72.9408 742.748L73.0001 742.748L73.0594 742.748L73.1186 742.748L73.1779 742.748L73.2372 742.748L73.2964 742.748L73.3557 742.748L73.4149 742.748L73.4742 742.748L73.5335 742.748L73.5927 742.748L73.652 742.748L73.7112 742.748L73.7705 742.748L73.8298 742.748L73.889 742.748L73.9483 742.748L74.0075 742.748L74.0668 742.748L74.1261 742.748L74.1853 742.748L74.2446 742.748L74.3038 742.748L74.3631 742.748L74.4223 742.748L74.4816 742.748L74.5409 742.748L74.6001 742.748L74.6594 742.748L74.7186 742.748L74.7779 742.748L74.8371 742.748L74.8964 742.748L74.9556 742.748L75.0149 742.748L75.0741 742.748L75.1334 742.748L75.1926 742.748L75.2519 742.748L75.3112 742.748L75.3704 742.748L75.4297 742.748L75.4889 742.748L75.5482 742.748L75.6074 742.748L75.6667 742.748L75.7259 742.748L75.7852 742.748L75.8444 742.748L75.9037 742.748L75.9629 742.748L76.0222 742.748L76.0814 742.748L76.1407 742.748L76.1999 742.748L76.2592 742.748L76.3184 742.748L76.3777 742.748L76.4369 742.748L76.4961 742.748L76.5554 742.748L76.6146 742.748L76.6739 742.748L76.7331 742.748L76.7924 742.748L76.8516 742.748L76.9109 742.748L76.9701 742.748L77.0294 742.748L77.0886 742.748L77.1478 742.748L77.2071 742.748L77.2663 742.748L77.3256 742.748L77.3848 742.748L77.4441 742.748L77.5033 742.748L77.5625 742.748L77.6218 742.748L77.681 742.748L77.7403 742.748L77.7995 742.748L77.8587 742.748L77.918 742.748L77.9772 742.748L78.0365 742.748L78.0957 742.748L78.1549 742.748L78.2142 742.748L78.2734 742.748L78.3327 742.748L78.3919 742.748L78.4511 742.748L78.5104 742.748L78.5696 742.748L78.6288 742.748L78.6881 742.748L78.7473 742.748L78.8066 742.748L78.8658 742.748L78.925 742.748L78.9843 742.748L79.0435 742.748L79.1027 742.748L79.162 742.748L79.2212 742.748L79.2804 742.748L79.3397 742.748L79.3989 742.748L79.4581 742.748L79.5174 742.748L79.5766 742.748L79.6358 742.748L79.6951 742.748L79.7543 742.748L79.8135 742.748L79.8728 742.748L79.932 742.748L79.9912 742.748L80.0504 742.748L80.1097 742.748L80.1689 742.748L80.2281 742.748L80.2874 742.748L80.3466 742.748L80.4058 742.748L80.465 742.748L80.5243 742.748L80.5835 742.748L80.6427 742.748L80.702 742.748L80.7612 742.748L80.8204 742.748L80.8796 742.748L80.9389 742.748L80.9981 742.748L81.0573 742.748L81.1165 742.748L81.1758 742.748L81.235 742.748L81.2942 742.748L81.3534 742.748L81.4127 742.748L81.4719 742.748L81.5311 742.748L81.5903 742.748L81.6496 742.748L81.7088 742.748L81.768 742.748L81.8272 742.748L81.8864 742.748L81.9457 742.748L82.0049 742.748L82.0641 742.748L82.1233 742.748L82.1825 742.748L82.2418 742.748L82.301 742.748L82.3602 742.748L82.4194 742.748L82.4786 742.748L82.5379 742.748L82.5971 742.748L82.6563 742.748L82.7155 742.748L82.7747 742.748L82.8339 742.748L82.8932 742.748L82.9524 742.748L83.0116 742.748L83.0708 742.748L83.13 742.748L83.1892 742.748L83.2485 742.748L83.3077 742.748L83.3669 742.748L83.4261 742.748L83.4853 742.748L83.5445 742.748L83.6037 742.748L83.6629 742.748L83.7222 742.748L83.7814 742.748L83.8406 742.748L83.8998 742.748L83.959 742.748L84.0182 742.748L84.0774 742.748L84.1366 742.748L84.1959 742.748L84.2551 742.748L84.3143 742.748L84.3735 742.748L84.4327 742.748L84.4919 742.748L84.5511 742.748L84.6103 742.748L84.6695 742.748L84.7287 742.748L84.7879 742.748L84.8471 742.748L84.9064 742.748L84.9656 742.748L85.0248 742.748L85.084 742.748L85.1432 742.748L85.2024 742.748L85.2616 742.748L85.3208 742.748L85.38 742.748L85.4392 742.748L85.4984 742.748L85.5576 742.748L85.6168 742.748L85.676 742.748L85.7352 742.748L85.7944 742.748L85.8536 742.748L85.9128 742.748L85.972 742.748L86.0312 742.748L86.0904 742.748L86.1496 742.748L86.2088 742.748L86.268 742.748L86.3272 742.748L86.3864 742.748L86.4456 742.748L86.5048 742.748L86.564 742.748L86.6232 742.748L86.6824 742.748L86.7416 742.748L86.8008 742.748L86.86 742.748L86.9192 742.748L86.9784 742.748L87.0376 742.748L87.0968 742.748L87.156 742.748L87.2152 742.748L87.2744 742.748L87.3336 742.748L87.3928 742.748L87.452 742.748L87.5112 742.748L87.5704 742.748L87.6296 742.748L87.6888 742.748L87.748 742.748L87.8072 742.748L87.8663 742.748L87.9255 742.748L87.9847 742.748L88.0439 742.748L88.1031 742.748L88.1623 742.748L88.2215 742.748L88.2807 742.748L88.3399 742.748L88.3991 742.748L88.4583 742.748L88.5174 742.748L88.5766 742.748L88.6358 742.748L88.695 742.748L88.7542 742.748L88.8134 742.748L88.8726 742.748L88.9318 742.748L88.991 742.748L89.0501 742.748C128.948 743.04 168.81 743.733 208.672 744.427L208.695 744.427C288.434 745.778 368.174 746.837 447.876 744.135C448.381 744.114 448.886 744.176 449.371 744.317ZM456.127 737.376L456.131 737.372L456.136 737.367L456.132 737.377C458.469 730.713 459.61 720.325 460.217 710.938C460.52 706.244 460.691 701.8 460.81 698.196C460.838 697.33 460.864 696.513 460.888 695.753C460.964 693.347 461.022 691.509 461.098 690.496C472.635 527.3 473.293 363.516 463.069 200.232C462.579 192.382 462.056 184.543 461.533 176.711C459.45 145.492 457.374 114.366 457.374 82.9599C457.813 63.7845 456.861 44.6025 454.526 25.5647C454.272 22.2059 453.393 18.9236 451.933 15.8877L451.929 15.8899L451.924 15.8921L451.916 15.8961C369.328 101.733 298.98 198.557 242.865 303.627C242.865 303.627 242.865 303.627 242.865 303.627L242.682 303.882L242.677 303.878L242.682 303.888L247.356 312.103C248.199 313.625 249.055 315.162 249.918 316.713C256.157 327.917 262.792 339.834 268.016 352.177C273.962 366.229 278.078 380.832 277.695 395.563C277.147 415.789 268.495 434.335 258.491 451.787L258.486 451.785L258.491 451.792C291.326 504.076 324.186 556.286 357.07 608.423C386.059 654.39 416.181 700.138 456.124 737.379L456.127 737.376Z" stroke="white" stroke-width="0.01"/>
</svg>
