<svg width="78" height="76" viewBox="0 0 78 76" fill="none" xmlns="http://www.w3.org/2000/svg">
<path d="M18.8274 7.30339C25.5638 3.06667 33.5083 1.16711 41.4326 1.89836C54.976 3.00645 62.7942 10.9109 66.8203 14.6538C70.8464 18.3967 74.5771 27.5446 75.5497 31.0167C76.5224 34.4887 75.6851 47.6628 72.2254 51.812C68.7656 55.9612 59.3222 72.8904 43.9073 72.4841C28.4925 72.0778 19.3692 70.8097 12.5728 61.9449C5.77652 53.0801 1.88579 45.3481 2.03354 39.3643C2.18129 33.3806 3.96668 23.9495 7.85733 18.9507C11.748 13.952 16.1556 8.86704 18.8274 7.30339Z" fill="#60C9EB"/>
<path d="M25.7844 26.239C25.7359 26.0627 25.6533 25.8977 25.541 25.7534C25.4288 25.6091 25.2892 25.4883 25.1303 25.398C24.9713 25.3077 24.7962 25.2496 24.6148 25.227C24.4334 25.2044 24.2492 25.2178 24.073 25.2664C23.7237 25.3697 23.4284 25.6046 23.2492 25.9217C23.07 26.2387 23.0209 26.613 23.1126 26.9654C23.2496 27.9482 23.2951 28.9415 23.2481 29.9327C23.2481 31.7179 25.969 31.7179 26.0306 29.9327C26.0598 28.6966 25.9774 27.4603 25.7844 26.239Z" fill="#626262" stroke="#626262" stroke-width="1.39118"/>
<path d="M54.6445 26.0422C54.5961 25.8675 54.5137 25.704 54.4021 25.5612C54.2905 25.4184 54.1519 25.2989 53.994 25.2097C53.8362 25.1205 53.6624 25.0633 53.4824 25.0414C53.3025 25.0195 53.1201 25.0332 52.9454 25.0818C52.5957 25.1852 52.2993 25.4196 52.1181 25.7362C51.9369 26.0527 51.8848 26.4269 51.9727 26.7809C52.1323 27.8237 52.1694 28.8815 52.0835 29.9328C52.0835 30.3018 52.2302 30.6557 52.4911 30.9166C52.752 31.1775 53.1058 31.3241 53.4748 31.3241C53.8438 31.3241 54.1977 31.1775 54.4586 30.9166C54.7195 30.6557 54.8661 30.3018 54.8661 29.9328C54.9404 28.6317 54.8661 27.3264 54.6445 26.0422V26.0422Z" fill="#626262" stroke="#626262" stroke-width="1.39118"/>
<path d="M63.1182 52.4404C56.9621 46.2843 48.3435 44.1543 39.8358 44.1789C31.1434 44.1789 22.1185 46.1242 15.4822 52.0587C14.1402 53.2899 16.1101 55.1983 17.4398 54.0164C23.5097 48.599 31.919 46.9861 39.8358 46.9615C47.5678 46.9615 55.5707 48.7098 61.1481 54.3488C62.4286 55.6785 64.3617 53.7085 63.1182 52.4404Z" fill="#626262" stroke="#626262" stroke-width="1.39118"/>
<path d="M68.8525 14.8629C63.9084 9.17269 57.467 4.98377 50.2605 2.77242C43.054 0.561077 35.3716 0.416016 28.0868 2.35374C13.5954 6.34289 2.93301 19.4677 1 34.0946L1.3078 34.0084C0.816611 39.2474 1.44042 44.531 3.1381 49.5116C4.83579 54.4922 7.56886 59.0568 11.1576 62.9051L11.0468 63.1144C11.6132 63.6069 12.1919 64.0871 12.7829 64.5426L13.0537 64.8135C13.2022 64.9486 13.373 65.0569 13.5585 65.1336C17.7645 68.2717 22.395 70.7963 27.3112 72.6318C42.2828 78.1846 59.8893 71.9176 69.5174 59.5808C74.4966 53.1575 77.1431 45.2317 77.0222 37.1054C76.9014 28.979 74.0204 21.1354 68.8525 14.8629ZM68.4955 55.8995C60.0863 68.421 43.0462 75.0696 28.5917 69.9969C23.7428 68.2751 19.178 65.8392 15.0483 62.7697V62.7697C10.9611 58.9916 7.85462 54.2757 5.99702 49.0289C4.13942 43.7822 3.58642 38.1622 4.38585 32.6541C4.43613 32.4311 4.43613 32.1998 4.38585 31.9769C5.50887 26.5449 7.88455 21.4501 11.3238 17.0982C14.763 12.7462 19.1708 9.25733 24.1961 6.90927C37.0378 1.09791 53.1914 4.10207 63.509 13.5455C69.2416 18.8534 72.8931 26.0319 73.8071 33.7908C74.7211 41.5497 72.8378 49.3802 68.4955 55.8748V55.8995Z" fill="#626262" stroke="#626262" stroke-width="1.39118"/>
</svg>
