<svg width="78" height="76" viewBox="0 0 78 76" fill="none" xmlns="http://www.w3.org/2000/svg">
<path d="M25.488 26.2503C25.3874 25.8961 25.1516 25.5957 24.8314 25.4138C24.5113 25.2318 24.1325 25.183 23.7767 25.2778C23.4261 25.3838 23.1295 25.6205 22.9485 25.9391C22.7675 26.2576 22.7158 26.6335 22.8041 26.989C22.9457 27.9672 22.9951 28.9564 22.9518 29.9438C22.9518 31.7289 25.6727 31.7289 25.7342 29.9438C25.763 28.7077 25.6807 27.4716 25.488 26.2503Z" fill="#626262"/>
<path d="M54.323 26.0648C54.276 25.889 54.1945 25.7243 54.0835 25.5801C53.9724 25.4359 53.834 25.3151 53.676 25.2247C53.5181 25.1343 53.3438 25.076 53.1633 25.0533C52.9827 25.0305 52.7995 25.0438 52.624 25.0922C52.2743 25.1956 51.9779 25.43 51.7967 25.7465C51.6155 26.063 51.5635 26.4372 51.6514 26.7912C51.8109 27.8339 51.8481 28.8916 51.7621 29.9429C51.7653 30.3109 51.913 30.6629 52.1732 30.9231C52.4334 31.1833 52.7854 31.3309 53.1533 31.3341C53.5194 31.3248 53.8678 31.1752 54.1267 30.9163C54.3856 30.6574 54.5352 30.3089 54.5445 29.9429C54.6185 28.646 54.5443 27.3449 54.323 26.0648V26.0648Z" fill="#626262"/>
<path d="M25.488 26.2503C25.3874 25.8961 25.1516 25.5957 24.8314 25.4138C24.5113 25.2318 24.1325 25.183 23.7767 25.2778C23.4261 25.3838 23.1295 25.6205 22.9485 25.9391C22.7675 26.2576 22.7158 26.6335 22.8041 26.989C22.9457 27.9672 22.9951 28.9564 22.9518 29.9438C22.9518 31.7289 25.6727 31.7289 25.7342 29.9438C25.763 28.7077 25.6807 27.4716 25.488 26.2503Z" fill="#626262"/>
<path d="M54.323 26.0648C54.276 25.889 54.1945 25.7243 54.0835 25.5801C53.9724 25.4359 53.834 25.3151 53.676 25.2247C53.5181 25.1343 53.3438 25.076 53.1633 25.0533C52.9827 25.0305 52.7995 25.0438 52.624 25.0922C52.2743 25.1956 51.9779 25.43 51.7967 25.7465C51.6155 26.063 51.5635 26.4372 51.6514 26.7912C51.8109 27.8339 51.8481 28.8916 51.7621 29.9429C51.7653 30.3109 51.913 30.6629 52.1732 30.9231C52.4334 31.1833 52.7854 31.3309 53.1533 31.3341C53.5194 31.3248 53.8678 31.1752 54.1267 30.9163C54.3856 30.6574 54.5352 30.3089 54.5445 29.9429C54.6185 28.646 54.5443 27.3449 54.323 26.0648V26.0648Z" fill="#626262"/>
<path d="M25.488 26.2503C25.3874 25.8961 25.1516 25.5957 24.8314 25.4138C24.5113 25.2318 24.1325 25.183 23.7767 25.2778C23.4261 25.3838 23.1295 25.6205 22.9485 25.9391C22.7675 26.2576 22.7158 26.6335 22.8041 26.989C22.9457 27.9672 22.9951 28.9564 22.9518 29.9438C22.9518 31.7289 25.6727 31.7289 25.7342 29.9438C25.763 28.7077 25.6807 27.4716 25.488 26.2503Z" fill="#626262"/>
<path d="M54.323 26.0648C54.276 25.889 54.1945 25.7243 54.0835 25.5801C53.9724 25.4359 53.834 25.3151 53.676 25.2247C53.5181 25.1343 53.3438 25.076 53.1633 25.0533C52.9827 25.0305 52.7995 25.0438 52.624 25.0922C52.2743 25.1956 51.9779 25.43 51.7967 25.7465C51.6155 26.063 51.5635 26.4372 51.6514 26.7912C51.8109 27.8339 51.8481 28.8916 51.7621 29.9429C51.7653 30.3109 51.913 30.6629 52.1732 30.9231C52.4334 31.1833 52.7854 31.3309 53.1533 31.3341C53.5194 31.3248 53.8678 31.1752 54.1267 30.9163C54.3856 30.6574 54.5352 30.3089 54.5445 29.9429C54.6185 28.646 54.5443 27.3449 54.323 26.0648V26.0648Z" fill="#626262"/>
<path d="M18.8265 8.00377C25.5625 3.76731 33.5065 1.86782 41.4303 2.59903C54.9729 3.70706 62.7906 11.611 66.8165 15.3537C70.8423 19.0964 74.5728 28.2438 75.5454 31.7156C76.518 35.1874 75.6808 48.3607 72.2212 52.5219C68.7617 56.6832 59.3188 73.5991 43.9049 73.1805C28.491 72.762 19.3683 71.5185 12.5723 62.642C5.77641 53.7654 1.88593 46.0461 2.03366 40.0628C2.1814 34.0794 3.96669 24.6488 7.8571 19.6504C11.7475 14.6519 16.1549 9.56733 18.8265 8.00377Z" fill="#FFE600"/>
<path d="M25.488 26.2503C25.3874 25.8961 25.1516 25.5957 24.8314 25.4138C24.5113 25.2318 24.1325 25.183 23.7767 25.2778C23.4261 25.3838 23.1295 25.6205 22.9485 25.9391C22.7675 26.2576 22.7158 26.6335 22.8041 26.989C22.9457 27.9672 22.9951 28.9564 22.9518 29.9438C22.9518 31.7289 25.6727 31.7289 25.7342 29.9438C25.763 28.7077 25.6807 27.4716 25.488 26.2503Z" fill="#626262" stroke="#626262" stroke-width="1.39118"/>
<path d="M54.323 26.0648C54.276 25.889 54.1945 25.7243 54.0835 25.5801C53.9724 25.4359 53.834 25.3151 53.676 25.2247C53.5181 25.1343 53.3438 25.076 53.1633 25.0533C52.9827 25.0305 52.7995 25.0438 52.624 25.0922C52.2743 25.1956 51.9779 25.43 51.7967 25.7465C51.6155 26.063 51.5635 26.4372 51.6514 26.7912C51.8109 27.8339 51.8481 28.8916 51.7621 29.9429C51.7653 30.3109 51.913 30.6629 52.1732 30.9231C52.4334 31.1833 52.7854 31.3309 53.1533 31.3341C53.5194 31.3248 53.8678 31.1752 54.1267 30.9163C54.3856 30.6574 54.5352 30.3089 54.5445 29.9429C54.6185 28.646 54.5443 27.3449 54.323 26.0648V26.0648Z" fill="#626262" stroke="#626262" stroke-width="1.39118"/>
<path d="M59.4684 41.4913C57.8192 45.3755 55.1 48.7109 51.6277 51.1087C48.1553 53.5064 44.0728 54.8677 39.8563 55.0339C35.5777 55.056 31.3689 53.9487 27.6552 51.8238C23.9415 49.6988 20.8542 46.6316 18.7052 42.9318C18.613 42.7701 18.49 42.6282 18.343 42.5141C18.196 42.4 18.0279 42.3159 17.8484 42.2668C17.6689 42.2176 17.4815 42.2043 17.2969 42.2275C17.1122 42.2508 16.934 42.3102 16.7724 42.4024C16.6107 42.4945 16.4687 42.6176 16.3546 42.7646C16.2405 42.9116 16.1565 43.0797 16.1074 43.2592C16.0582 43.4387 16.0449 43.6261 16.0681 43.8107C16.0914 43.9954 16.1508 44.1736 16.2429 44.3353C21.1675 52.707 30.6966 58.4072 40.595 57.7671C45.2693 57.435 49.7578 55.8032 53.5539 53.0556C57.35 50.3081 60.3025 46.5542 62.0784 42.2177C62.8048 40.5803 60.1332 39.8539 59.4684 41.4913Z" fill="#626262" stroke="#626262" stroke-width="1.39118"/>
<path d="M68.8484 14.8737C63.9068 9.18041 57.4665 4.98856 50.2601 2.77505C43.0537 0.561546 35.3706 0.415262 28.0852 2.3529C13.5946 6.34181 2.9329 19.4658 1 34.1041L1.30779 34.0057C0.817994 39.2461 1.44231 44.5309 3.13978 49.513C4.83724 54.495 7.56946 59.0616 11.1569 62.9129L11.0462 63.1222C11.6125 63.6024 12.1912 64.0825 12.7821 64.5504L13.053 64.8089C13.195 64.9522 13.3676 65.0616 13.5578 65.129C17.7632 68.2705 22.3933 70.799 27.3096 72.639C42.2803 78.1791 59.8857 71.9126 69.5132 59.5765C74.4912 53.1555 77.1371 45.2323 77.0163 37.1086C76.8955 28.9849 74.015 21.1438 68.8484 14.8737V14.8737ZM68.4914 55.8954C60.0827 68.4285 43.0436 75.0766 28.59 69.992C23.7394 68.2748 19.1742 65.8387 15.0474 62.7652C10.9596 58.988 7.85276 54.2724 5.99521 49.0258C4.13766 43.7792 3.5852 38.1593 4.38565 32.6514C4.43616 32.4327 4.43616 32.2053 4.38565 31.9866C5.50496 26.5535 7.87921 21.4573 11.3187 17.1051C14.7581 12.7529 19.1674 9.26519 24.1947 6.92047C37.0356 1.09716 53.1883 4.11344 63.5052 13.5563C69.2451 18.8618 72.9015 26.0427 73.8156 33.8053C74.7298 41.5678 72.8417 49.4017 68.4914 55.8954Z" fill="#626262" stroke="#626262" stroke-width="1.39118"/>
</svg>
