<svg width="265" height="80" viewBox="0 0 265 80" fill="none" xmlns="http://www.w3.org/2000/svg">
<path d="M264.036 37.0095C261.519 33.6686 258.772 30.508 255.815 27.5507C250.253 21.2583 244.752 14.9456 239.15 8.67356C237.39 6.47501 235.235 4.62342 232.797 3.21341C229.664 1.88889 226.267 1.30541 222.871 1.50839C213.798 1.50839 204.745 1.50839 195.672 1.50839L139.589 1.50839C118.56 1.50839 97.5316 1.50839 76.5029 1.50839C66.5772 1.50839 56.6516 1.50839 46.7259 1.50839C31.745 0.800494 16.7316 1.28237 1.82691 2.94953C0.629328 3.07132 -0.507351 4.41099 0.690227 5.24321C18.2818 17.5032 36.3334 29.3098 54.8451 40.6631C38.3272 51.4515 22.5539 63.3392 7.63209 76.2454C6.61719 77.1588 7.40883 78.539 8.78909 78.6202C45.9343 80.65 83.3434 76.692 120.428 75.3523C139.115 74.6622 157.817 74.2224 176.531 74.0329C185.882 73.9247 195.239 73.8908 204.603 73.9314C208.825 73.9314 213.034 73.9314 217.229 73.9314C221.893 74.2155 226.57 74.2155 231.234 73.9314C233.908 73.5821 236.348 72.2243 238.054 70.1357C241.241 66.8271 244.326 63.4374 247.452 59.9867L255.125 51.8676C258.171 48.912 261.064 45.8023 263.792 42.5508C264.438 41.7835 264.812 40.8239 264.857 39.8216C264.901 38.8193 264.612 37.8306 264.036 37.0095V37.0095ZM257.033 45.4128L248.508 54.5469L240.815 62.6661C238.501 65.1221 235.76 69.4456 232.29 70.7853C228.819 72.1249 223.115 71.1506 219.36 71.11C214.915 71.11 210.469 71.11 206.024 71.11C197.134 71.11 188.25 71.11 179.373 71.11C161.781 71.286 144.244 71.6716 126.761 72.267C107.153 72.9369 87.5856 73.9721 67.8966 75.0478C49.4052 76.0627 30.8936 76.8543 12.3819 76.0424C26.8875 63.6361 42.1985 52.2037 58.2145 41.8201C58.4443 41.7182 58.6396 41.5516 58.7767 41.3409C58.9138 41.1301 58.9867 40.8841 58.9867 40.6327C58.9867 40.3812 58.9138 40.1352 58.7767 39.9244C58.6396 39.7137 58.4443 39.5472 58.2145 39.4452C40.3929 28.5385 22.8961 17.1446 5.72407 5.26352C14.6552 4.41101 23.6065 3.92386 32.5782 3.74118C61.2186 4.32982 89.9402 3.98476 118.56 4.06595C153.493 4.16744 188.487 3.70056 223.419 4.2892C227.315 3.99904 231.168 5.26137 234.137 7.80077C237.089 10.7544 239.881 13.8645 242.499 17.1175L258.372 35.1624C259.732 36.7253 261.194 37.8011 261.031 39.8106C260.869 41.8201 258.636 43.6469 257.033 45.4128Z" fill="#FFE600"/>
<path d="M3.6322 5.46837C11.8318 3.73835 20.1391 2.56513 28.4972 1.9568C38.8694 1.53054 131.631 3.70246 131.631 3.70246C131.631 3.70246 227.031 3.33709 228.696 3.70246C230.36 4.06782 258.574 31.9166 261.172 36.1791C263.77 40.4417 250.191 55.7463 250.191 55.7463L234.115 72.35C234.115 72.35 120.447 72.6139 106.563 73.9536C92.6791 75.2932 40.1278 78.0132 35.033 78.0132L10.6755 78.0132C10.6755 78.0132 29.4511 59.2173 35.642 55.5636C41.8328 51.91 53.6057 43.2225 53.6057 43.2225L58.3147 39.5283C58.3147 39.5283 38.8693 28.7704 35.642 25.3197C32.4146 21.8691 4.56591 6.84862 3.6322 5.46837Z" fill="#FFE600"/>
<path d="M157.047 30.9419L141.125 26.8444" stroke="#E9AD62" stroke-width="1.09457" stroke-miterlimit="10"/>
<path d="M157.568 28.8731L141.651 24.7725L140.57 28.9676L156.487 33.0683L157.568 28.8731Z" fill="#E9AD62" stroke="#E9AD62" stroke-width="1.09457" stroke-miterlimit="10"/>
<path d="M158.092 15.7656L127.229 36.0363" stroke="#E9AD62" stroke-width="1.09457" stroke-miterlimit="10"/>
<path d="M159.262 17.5821L156.884 13.9609L126.022 34.2286L128.4 37.8497L159.262 17.5821Z" fill="#E9AD62" stroke="#E9AD62" stroke-width="1.09457" stroke-miterlimit="10"/>
<path d="M143.395 10.1553L141.125 26.8437" stroke="#E9AD62" stroke-width="1.09457" stroke-miterlimit="10"/>
<path d="M145.551 10.4181L141.258 9.83496L138.991 26.5236L143.284 27.1068L145.551 10.4181Z" fill="#E9AD62" stroke="#E9AD62" stroke-width="1.09457" stroke-miterlimit="10"/>
<path d="M134.245 66.4005L129.363 50.7027" stroke="#E9AD62" stroke-width="1.09457" stroke-miterlimit="10"/>
<path d="M136.251 65.7574L131.37 50.0615L127.234 51.3479L132.114 67.0438L136.251 65.7574Z" fill="#E9AD62" stroke="#E9AD62" stroke-width="1.09457" stroke-miterlimit="10"/>
<path d="M147.707 59.314L114.242 43.7138" stroke="#E9AD62" stroke-width="1.09457" stroke-miterlimit="10"/>
<path d="M148.647 57.3139L115.181 41.7178L113.351 45.6445L146.817 61.2406L148.647 57.3139Z" fill="#E9AD62" stroke="#E9AD62" stroke-width="1.09457" stroke-miterlimit="10"/>
<path d="M144.753 43.8574L129.366 50.7004" stroke="#E9AD62" stroke-width="1.09457" stroke-miterlimit="10"/>
<path d="M145.582 45.8442L143.822 41.8857L128.433 48.7289L130.193 52.6873L145.582 45.8442Z" fill="#E9AD62" stroke="#E9AD62" stroke-width="1.09457" stroke-miterlimit="10"/>
</svg>
