<svg width="262" height="77" viewBox="0 0 262 77" fill="none" xmlns="http://www.w3.org/2000/svg">
<path d="M261.625 44.6209C251.869 32.2448 241.433 20.4199 230.366 9.20098C228.336 7.17118 226.51 4.51218 223.16 3.90324C219.05 3.4394 214.909 3.31041 210.779 3.51758C201.374 3.36873 191.976 3.25368 182.585 3.17249C144.601 2.82066 106.623 2.92892 68.6525 3.49726C47.1096 3.82203 25.5803 4.30239 4.06448 4.9384C3.75407 4.91498 3.44641 5.01131 3.20482 5.20761C2.96322 5.4039 2.80601 5.6853 2.76538 5.99393C1.63957 17.1547 1.15168 28.3706 1.30399 39.587C0.735652 51.1162 0.525913 62.6184 0.674766 74.0935C0.72045 74.4345 0.895577 74.7449 1.16388 74.9603C1.43218 75.1757 1.77301 75.2796 2.11584 75.2505C37.7184 76.5699 73.382 76.4684 109.005 75.6362C126.596 75.2302 144.188 74.6889 161.779 74.0123L188.776 72.9568C197.362 72.5915 206.212 72.7539 214.737 71.8405C218.362 71.3533 221.831 70.056 224.886 68.0447L236.922 60.7781L260.975 46.265C261.726 45.9403 262.112 45.2501 261.625 44.6209ZM228.925 62.6049C225.652 64.8696 222.188 66.846 218.573 68.5116C214.513 70.0542 209.622 69.77 205.318 69.973L192.409 70.5414L166.022 71.5969C131.008 72.9568 95.9532 73.992 60.8987 74.0326C41.7916 74.0326 22.6979 73.7146 3.61787 73.0786C3.61787 67.4764 3.61787 61.8809 3.61787 56.2922C3.67039 56.2386 3.71178 56.1751 3.73965 56.1055C3.76752 56.0358 3.78136 55.9613 3.78028 55.8862C3.78028 54.709 3.78028 53.5317 3.78028 52.3544C4.11858 37.2122 4.98468 22.0902 6.37847 6.98851C42.4276 6.02774 78.497 5.43911 114.587 5.2226C132.977 5.14141 151.38 5.14141 169.797 5.2226C179.175 5.2226 188.573 5.38497 197.971 5.52705L210.9 5.70973L216.766 5.70973C219.385 5.70973 222.612 5.36468 224.683 6.86673C226.296 8.23267 227.79 9.73334 229.148 11.3526C230.671 12.9155 232.173 14.519 233.675 16.1023C236.598 19.2078 239.439 22.3541 242.261 25.5409C247.822 31.8129 253.14 38.2474 258.255 44.763L238.181 57.1041L228.925 62.6049Z" fill="#E96262"/>
<path d="M4.67593 7.45609C4.67593 7.45609 23.1673 5.83221 37.3759 5.56834C51.5844 5.30447 128.473 5.5684 137.323 5.18274C146.173 4.79708 204.834 5.18274 204.834 5.18274L224.117 5L259.76 44.4186L220.098 69.2836C220.098 69.2836 64.4331 75.17 52.9038 74.6423C41.3746 74.1145 2.15901 75.2715 2.15901 75.2715C2.15901 75.2715 1.9966 10.1354 4.67593 7.45609Z" fill="#E96262"/>
<path d="M212.633 30.4109L196.878 26.3563" stroke="#60C9EB" stroke-width="1.08313" stroke-miterlimit="10"/>
<path d="M213.15 28.3635L197.399 24.3057L196.329 28.457L212.08 32.5148L213.15 28.3635Z" fill="#60C9EB" stroke="#60C9EB" stroke-width="1.08313" stroke-miterlimit="10"/>
<path d="M213.667 15.3926L183.127 35.4513" stroke="#60C9EB" stroke-width="1.08313" stroke-miterlimit="10"/>
<path d="M214.826 17.1907L212.473 13.6074L181.933 33.6631L184.286 37.2464L214.826 17.1907Z" fill="#60C9EB" stroke="#60C9EB" stroke-width="1.08313" stroke-miterlimit="10"/>
<path d="M199.124 9.8418L196.879 26.3557" stroke="#60C9EB" stroke-width="1.08313" stroke-miterlimit="10"/>
<path d="M201.258 10.1015L197.01 9.52441L194.767 26.0386L199.015 26.6157L201.258 10.1015Z" fill="#60C9EB" stroke="#60C9EB" stroke-width="1.08313" stroke-miterlimit="10"/>
<path d="M190.069 65.4982L185.239 49.9646" stroke="#60C9EB" stroke-width="1.08313" stroke-miterlimit="10"/>
<path d="M192.055 64.8628L187.225 49.3311L183.132 50.604L187.961 66.1357L192.055 64.8628Z" fill="#60C9EB" stroke="#60C9EB" stroke-width="1.08313" stroke-miterlimit="10"/>
<path d="M203.391 58.4853L170.276 43.0482" stroke="#60C9EB" stroke-width="1.08313" stroke-miterlimit="10"/>
<path d="M204.321 56.5072L171.205 41.0742L169.394 44.9599L202.511 60.3929L204.321 56.5072Z" fill="#60C9EB" stroke="#60C9EB" stroke-width="1.08313" stroke-miterlimit="10"/>
<path d="M200.468 43.1924L185.241 49.9638" stroke="#60C9EB" stroke-width="1.08313" stroke-miterlimit="10"/>
<path d="M201.288 45.1573L199.546 41.2402L184.318 48.0118L186.06 51.9289L201.288 45.1573Z" fill="#60C9EB" stroke="#60C9EB" stroke-width="1.08313" stroke-miterlimit="10"/>
</svg>
