<svg width="281" height="77" viewBox="0 0 281 77" fill="none" xmlns="http://www.w3.org/2000/svg">
<path d="M7.16734 2.89809C7.16734 2.89809 123.637 2.7763 129.3 2.89809C134.963 3.01988 227.522 6.10517 232.617 4.92789C237.711 3.75061 278.632 0.218751 278.632 0.218751C278.632 0.218751 261.034 16.2541 258.578 16.8224C256.122 17.3908 234.22 30.1582 234.22 30.1582L263.084 57.7634L279.038 70.8962C279.038 70.8962 266.331 71.7284 263.084 70.8962C259.836 70.064 238.483 68.2574 230.12 69.4753C221.757 70.6932 74.7189 69.4753 74.7189 69.4753L3.29049 70.1857L0.773566 71.5254C0.773566 71.5254 4.20384 7.91168 7.16734 2.89809Z" fill="#60C9EB"/>
<path d="M280.213 70.1448L236.126 31.5787C251.271 23.3011 265.551 13.5298 278.752 2.41057C278.913 2.24329 279.023 2.03249 279.067 1.80395C279.111 1.57541 279.087 1.339 278.999 1.12368C278.91 0.908351 278.761 0.723452 278.57 0.591511C278.378 0.459571 278.152 0.386338 277.919 0.380776C242.601 3.03981 207.282 2.91801 171.903 2.59324C136.524 2.26848 101.023 1.92339 65.5623 1.61892C52.8152 1.49713 40.0478 1.23327 27.2804 1.25357C23.5456 0.766422 19.7905 0.604031 16.0354 0.421349C12.8546 -0.0488535 9.62445 -0.0829734 6.43441 0.319884C6.25313 0.16546 6.03396 0.0621329 5.79948 0.0205691C5.565 -0.0209946 5.32369 0.0006734 5.10038 0.0833807C4.87707 0.166088 4.67984 0.306826 4.529 0.491099C4.37817 0.675371 4.27915 0.89654 4.2422 1.13179C1.47887 24.543 0.0625178 48.0935 6.53225e-06 71.6671C-3.64009e-05 71.9974 0.129753 72.3144 0.36139 72.5499C0.593027 72.7853 0.907913 72.9202 1.23815 72.9256C37.7744 70.165 74.5137 71.1799 111.152 72.1542C147.789 73.1285 184.366 73.5345 220.984 70.8349C231.114 69.8521 241.32 69.9473 251.43 71.119C260.828 72.4181 270.186 74.2855 279.645 72.4181C279.88 72.3623 280.096 72.2429 280.268 72.073C280.44 71.903 280.562 71.689 280.62 71.4543C280.679 71.2197 280.672 70.9734 280.6 70.7425C280.528 70.5115 280.394 70.3047 280.213 70.1448ZM251.065 68.3382C242.559 67.3032 233.971 67.1196 225.429 67.7902C207.546 68.9269 189.725 70.0838 171.781 70.2462C135.468 70.5913 99.196 68.7442 62.9033 68.5006C42.7677 68.3585 22.6119 68.7442 2.51693 70.2462C2.57956 47.7411 3.89419 25.2568 6.45473 2.8977C24.053 3.8923 41.7528 3.77049 59.3715 3.95317L113.08 4.48094C148.256 4.8057 183.453 5.59733 218.629 5.25227C237.202 5.06959 255.774 4.25764 274.306 2.93827C261.6 13.3308 247.916 22.467 233.447 30.2187C233.291 30.3114 233.158 30.4383 233.058 30.5897C232.958 30.7412 232.894 30.9134 232.871 31.0932C232.848 31.2731 232.865 31.4559 232.923 31.6279C232.98 31.7999 233.076 31.9566 233.203 32.0861C247.587 44.7791 261.958 57.4788 276.316 70.1853C267.872 71.2205 259.55 69.4546 251.065 68.3382Z" fill="#60C9EB"/>
<path d="M200.972 30.7156L185.217 26.661" stroke="#FFE600" stroke-width="1.08313" stroke-miterlimit="10"/>
<path d="M201.488 28.6691L185.737 24.6113L184.667 28.7626L200.418 32.8204L201.488 28.6691Z" fill="#FFE600" stroke="#FFE600" stroke-width="1.08313" stroke-miterlimit="10"/>
<path d="M202.007 15.6982L171.466 35.757" stroke="#FFE600" stroke-width="1.08313" stroke-miterlimit="10"/>
<path d="M203.165 17.4954L200.811 13.9121L170.272 33.9678L172.625 37.5511L203.165 17.4954Z" fill="#FFE600" stroke="#FFE600" stroke-width="1.08313" stroke-miterlimit="10"/>
<path d="M187.463 10.1465L185.217 26.6604" stroke="#FFE600" stroke-width="1.08313" stroke-miterlimit="10"/>
<path d="M189.596 10.4072L185.348 9.83008L183.105 26.3442L187.352 26.9213L189.596 10.4072Z" fill="#FFE600" stroke="#FFE600" stroke-width="1.08313" stroke-miterlimit="10"/>
<path d="M178.408 65.8029L173.578 50.2693" stroke="#FFE600" stroke-width="1.08313" stroke-miterlimit="10"/>
<path d="M180.393 65.1675L175.563 49.6357L171.47 50.9087L176.3 66.4404L180.393 65.1675Z" fill="#FFE600" stroke="#FFE600" stroke-width="1.08313" stroke-miterlimit="10"/>
<path d="M191.729 58.7909L158.614 43.3539" stroke="#FFE600" stroke-width="1.08313" stroke-miterlimit="10"/>
<path d="M192.66 56.8129L159.544 41.3799L157.733 45.2655L190.85 60.6986L192.66 56.8129Z" fill="#FFE600" stroke="#FFE600" stroke-width="1.08313" stroke-miterlimit="10"/>
<path d="M188.806 43.4971L173.58 50.2685" stroke="#FFE600" stroke-width="1.08313" stroke-miterlimit="10"/>
<path d="M189.627 45.4629L187.886 41.5459L172.657 48.3175L174.399 52.2345L189.627 45.4629Z" fill="#FFE600" stroke="#FFE600" stroke-width="1.08313" stroke-miterlimit="10"/>
</svg>
