<svg width="802" height="842" viewBox="0 0 802 842" fill="none" xmlns="http://www.w3.org/2000/svg">
<path d="M754.938 79.1598C761.209 111.162 795.135 170.612 795.135 170.612C753.93 305.695 690.887 642.421 645.676 836.137C432.752 821.596 79.7067 794.476 79.7067 794.476C79.7067 794.476 41.8467 744.741 26.2251 720.516L754.938 79.1598Z" fill="white"/>
<path d="M752.094 79.8659C758.018 103.244 767.063 125.716 778.987 146.677C782.76 154.185 786.758 161.697 790.83 169.21C791.222 170.011 791.659 170.789 792.14 171.54C792.151 171.738 792.148 171.938 792.131 172.136C791.695 171.31 792.159 170.123 791.317 171.752C789.746 175.77 788.542 179.922 787.718 184.156C775.199 227.535 764.908 271.467 754.84 315.401C742.081 370.857 730.14 426.474 718.347 482.093C705.914 540.984 693.53 599.876 681.196 658.768C669.883 712.007 658.571 765.246 646.441 818.25L642.404 835.495L645.341 833.298C591.024 829.573 536.709 825.724 482.396 821.751L312.233 809.21L168.288 798.22L87.268 792.043C85.1299 791.667 82.9587 791.512 80.7889 791.581C78.6276 791.552 83.0442 790.195 82.1203 792.345C82.1264 791.898 79.045 788.276 78.753 787.825C64.8397 769.514 51.0775 751.056 37.9921 732.159C34.9199 727.867 31.9977 723.502 29.0766 719.062L28.5795 722.709L48.1223 705.452L100.942 658.746L179.336 589.719L275.153 505.867L379.881 413.636L485.891 320.303L583.98 233.872L667.504 160.441L727.187 107.863C736.693 99.5662 746.421 91.347 755.707 82.8235L756.914 81.7215C759.781 79.2252 755.591 74.9173 752.723 77.4881L733.332 94.5239L680.513 141.23L602.118 210.257L506.521 294.41L401.793 386.642L295.783 479.974L197.694 566.48L114.17 639.911L54.412 692.488C44.9796 700.86 35.3267 709.006 25.9667 717.528L24.7589 718.63C24.2864 719.083 23.9803 719.682 23.8903 720.33C23.8003 720.979 23.9315 721.638 24.2629 722.203C37.4769 742.592 52.1203 762.032 66.6156 781.395L74.4498 791.793C75.5197 793.552 76.7715 795.194 78.1847 796.691C79.4843 797.598 81.063 798.016 82.6412 797.871L151.598 803.138L289.438 813.522C346.38 817.83 403.474 822.04 460.717 826.152C516.52 830.295 572.274 834.289 627.981 838.132L646.228 839.351C646.879 839.356 647.516 839.153 648.044 838.771C648.572 838.39 648.965 837.849 649.164 837.228C661.28 785.193 672.502 733.146 683.575 681.097C696.005 622.43 708.212 563.76 720.642 505.092C732.601 448.208 744.559 391.399 757.559 334.678C767.874 288.957 778.488 243.24 791.032 198.072C793.385 189.528 796.859 180.776 798.84 172.153C799.567 168.062 794.578 162.177 792.761 158.796C781.058 138.075 771.106 116.413 763.008 94.0345C761.248 89.0196 759.824 83.8931 758.745 78.689C757.086 74.6395 751.325 76.1268 752.094 79.8659Z" fill="#60C9EB" stroke="#60C9EB" stroke-width="0.493985"/>
<path d="M759.823 103.538C748.267 191.002 726.821 276.615 704.71 361.847C693.615 404.574 682.372 447.3 673.135 490.425C663.899 533.551 655.236 578.325 646.808 622.356C642.153 646.603 637.868 671.078 632.395 695.165C628.037 714.039 624.715 733.137 622.445 752.375L624.646 749.496C607.515 751.819 590.279 753.276 573.001 753.862C527.597 755.902 482.107 754.807 436.853 750.585C410.497 748.211 384.309 744.424 358.034 741.529C333.224 738.754 308.409 736.352 283.588 734.323C237.389 730.2 190.997 728.645 144.626 729.665C124.61 730.101 104.653 731.997 84.9129 735.337C71.4054 737.143 58.4211 741.74 46.7854 748.836C43.6991 751.031 46.6836 756.292 49.7709 754.022C59.8216 747.776 71.0376 743.642 82.7365 741.87C99.9871 738.651 117.457 736.746 134.995 736.171C180.079 734.549 225.219 735.614 270.176 739.36C320.667 743.032 370.743 749.756 420.988 755.066C467.993 760.15 515.298 761.918 562.551 760.356C583.873 759.919 605.152 758.242 626.281 755.335C626.908 755.17 627.467 754.81 627.876 754.306C628.285 753.802 628.523 753.181 628.555 752.533C630.583 735.025 633.558 717.64 637.466 700.454C642.23 679.192 646.175 657.769 650.269 636.348C658.773 592.318 667.052 548.284 676.373 504.414C694.696 418.236 719.782 333.492 739.513 247.929C750.453 200.129 759.832 152.009 766.236 103.401C766.735 99.6051 760.771 99.5982 760.273 103.32L759.823 103.538Z" fill="#60C9EB" stroke="#60C9EB" stroke-width="0.493985"/>
<path d="M772.684 144.206C765.765 165.066 758.623 185.848 753.114 207.101C747.919 227.239 743.466 247.685 738.717 267.904C729.316 308.492 720.04 349.106 710.887 389.747C692.256 473.013 674.369 556.463 657.224 640.097C647.797 686.252 638.692 732.487 629.91 778.8L632.847 776.603L575.682 775.822L438.484 772.979L273.191 769.602L130.33 766.607L83.3008 765.964C75.8478 765.862 68.4018 765.239 60.9416 765.659L59.9728 765.646C59.1821 765.635 58.4195 765.939 57.8528 766.49C57.286 767.042 56.9616 767.796 56.9508 768.587C56.94 769.378 57.2437 770.141 57.7952 770.708C58.3466 771.275 59.1006 771.599 59.8913 771.61L117.05 772.838L254.174 775.606L419.541 779.059L562.329 781.979L609.432 782.622C616.885 782.724 624.33 783.422 631.791 782.928L632.76 782.941C633.409 782.926 634.036 782.705 634.551 782.31C635.065 781.914 635.441 781.366 635.623 780.743C651.264 698.082 667.945 615.61 685.668 533.326C703.39 451.042 721.915 368.247 741.242 284.941C746.521 262.293 751.8 239.621 757.08 216.924C762.701 192.914 770.846 169.609 778.547 146.15C779.789 142.513 773.997 140.868 772.829 144.506L772.684 144.206Z" fill="#60C9EB" stroke="#60C9EB" stroke-width="0.493985"/>
<path d="M785.695 163.026C769.949 224.258 751.084 284.701 734.298 345.696C725.905 376.23 717.956 406.919 711.197 437.924C706.27 460.228 702.3 483.44 698.112 506.276C691.429 542.576 684.373 578.871 677.17 615.089C669.175 654.652 661.181 694.14 652.666 733.547C647.177 758.826 642.277 784.636 634.486 809.287C634.021 810.623 633.63 811.96 633.091 813.221L636.027 811.098L580.082 808.32L445.99 801.865L283.591 793.979L143.164 787.438L96.9014 785.24C89.4484 785.138 82.0085 784.067 75.0752 784.121C74.7528 784.154 74.4276 784.15 74.1063 784.108C70.2307 784.055 70.1502 789.945 74.0248 790.073L129.971 792.776L264.062 799.305L426.461 807.191L566.438 813.951L612.7 816.149C620.153 816.25 627.592 817.396 634.527 817.193L635.496 817.206C636.158 817.207 636.801 816.993 637.331 816.597C637.861 816.201 638.247 815.644 638.434 815.009C641.183 806.996 643.484 798.837 645.327 790.569C648.8 776.448 652.075 762.249 655.153 747.973C663.653 709.61 671.559 671.09 679.093 632.565C686.626 594.04 693.985 557.376 701.059 519.74C704.6 500.623 707.769 481.501 711.531 462.537C717.696 431.45 725.198 400.68 733.294 370.067C749.486 308.915 768.35 248.546 784.839 187.473C786.804 180.043 788.844 172.614 790.809 165.183C791.027 164.415 790.931 163.592 790.542 162.894C790.153 162.196 789.503 161.682 788.735 161.464C787.967 161.246 787.144 161.342 786.446 161.731C785.749 162.12 785.235 162.77 785.017 163.538L785.695 163.026Z" fill="#60C9EB" stroke="#60C9EB" stroke-width="0.493985"/>
<path d="M24.8047 720.794C179.183 661.008 359.603 713.958 517.402 736.695C550.044 741.766 583.237 742.22 616.006 738.042L616.036 735.805C623.3 706.076 623.708 676.253 631.003 644.287C677.172 456.847 711.08 266.556 754.862 79.2328C718.068 87.9025 682.275 83.2374 643.092 75.767C565.259 65.5314 494.626 30.189 419.209 17.6746C329.991 0.422922 261.285 4.10775 171.598 21.2272L24.8047 720.794Z" fill="#60C9EB"/>
<path d="M25.6667 723.714C97.4572 696.134 175.179 692.721 251.128 699.053C328.492 705.479 404.607 721.508 481.067 734.036C502.265 737.533 523.607 741.329 544.98 742.889C568.674 744.544 592.472 743.92 616.047 741.026C616.832 741.018 617.583 740.708 618.146 740.16C618.709 739.612 619.039 738.869 619.069 738.084C619.402 734.287 620.077 730.527 621.086 726.851C622.048 721.868 622.939 716.735 623.674 711.972C625.23 701.777 626.414 691.503 627.747 681.23C631.011 659.37 635.438 637.699 641.008 616.31C651.289 573.099 661.125 529.783 670.514 486.361C689.288 399.891 706.872 313.18 725.274 226.63C735.706 177.853 746.359 129.229 757.682 80.6883C757.818 80.1819 757.821 79.6492 757.691 79.1413C757.561 78.6335 757.303 78.1674 756.942 77.7881C756.58 77.4087 756.127 77.1288 755.626 76.9751C755.125 76.8214 754.593 76.7992 754.081 76.9105C734.913 81.1383 715.222 82.4779 695.658 80.885C675.179 79.4121 655.107 75.3346 634.875 72.1499C597.273 65.2788 560.249 55.5491 524.127 43.0455C505.794 37.2022 487.461 31.3588 468.968 26.3336C450.475 21.3084 431.817 17.4741 413.078 14.0861C375.774 7.04714 337.866 3.70672 299.906 4.11346C256.628 5.30099 213.536 10.2515 171.115 18.909C170.607 19.0246 170.141 19.2779 169.768 19.6412C169.395 20.0044 169.129 20.4636 169 20.9681L165.016 39.7059L154.331 90.7162L138.396 165.816L119.026 257.722L97.8207 358.477L76.8411 459.086L56.9099 553.893L40.0859 634.052L28.0455 691.457C26.1325 700.528 24.0695 709.673 22.3045 718.821C22.2995 719.194 22.2944 719.566 22.2882 720.014C21.5665 723.732 27.283 725.451 28.0802 721.659L31.9889 702.92L42.4521 651.832L58.3869 576.732L77.6823 484.825L98.7374 384.143L120.248 282.87L140.179 188.063L157.003 107.904L169.118 50.5002L172.867 32.5051C173.745 29.4315 174.41 26.3011 174.859 23.1362C174.829 22.7388 174.834 22.3396 174.875 21.9432L172.76 24.0024C211.245 16.2747 250.26 11.4729 289.469 9.63829C327.649 8.47637 365.849 11.1719 403.487 17.6837C422.823 21.0053 442.005 24.6976 461.021 29.6554C480.037 34.6132 497.406 40.0704 515.441 45.8351C551.521 58.3141 588.389 68.3841 625.803 75.9784C668.711 83.5743 712.502 92.077 755.725 82.0783L752.124 78.3005C731.778 165.272 713.586 252.794 695.322 340.167C677.058 427.539 659.028 514.094 638.617 600.393C632.922 624.328 626.485 648.103 622.723 672.511C621.075 683.972 619.8 695.439 618.153 706.901C617.326 712.855 616.35 718.808 615.152 724.682C613.968 728.99 613.185 733.398 612.81 737.85L615.832 734.908C594.556 737.488 573.098 738.243 551.693 737.164C531.877 735.788 512.152 733.328 492.605 729.794C454.596 723.757 416.749 716.677 378.82 710.194C302.812 697.298 225.437 686.174 147.988 691.455C105.486 693.967 63.6017 702.846 23.7348 717.796C20.5842 719.245 22.0699 725.082 25.6667 723.714Z" fill="#60C9EB" stroke="#60C9EB" stroke-width="0.493985"/>
<path d="M220.696 56.052C217.609 54.9972 214.285 54.849 211.117 55.6251C207.949 56.4012 205.07 58.0691 202.82 60.4312C201.031 62.6622 199.891 65.3425 199.523 68.1785C199.156 71.0146 199.576 73.897 200.737 76.5103C202.067 79.3016 204.163 81.6574 206.78 83.3037C209.397 84.9501 212.427 85.8192 215.519 85.81C219.109 86.031 222.669 85.0314 225.62 82.9734C228.571 80.9154 230.74 77.92 231.775 74.4735C232.342 72.6701 232.549 70.7726 232.382 68.8894C232.216 67.0063 231.681 65.1743 230.807 63.4982C229.746 61.5957 228.298 59.9368 226.557 58.6286C224.816 57.3204 222.82 56.3918 220.698 55.9029C216.91 54.8817 215.265 60.6759 218.98 61.6215C219.821 61.8276 220.641 62.1135 221.428 62.4752L221.95 62.4823L223.059 63.1686C223.059 63.1686 223.869 63.8508 223.059 63.1686L223.794 63.9244L224.529 64.6801C224.529 64.6801 224.523 65.1275 224.529 64.6801L224.893 65.2817L225.33 66.0334C225.33 66.0334 225.764 67.0088 225.322 66.6299C224.88 66.251 225.315 67.1518 225.314 67.2264L225.3 68.2702C225.333 68.4177 225.331 68.5709 225.294 68.7175V68.7175C225.294 68.7175 225.286 69.3139 225.281 69.6122L225.269 70.5069C225.269 70.5069 225.269 70.5068 225.261 71.1033C225.253 71.6998 225.267 70.6559 225.261 71.1033C225.296 71.6747 225.288 72.248 225.238 72.8182C225.233 73.191 225.229 73.4891 225.224 73.7874C225.195 73.9849 225.192 74.1856 225.216 74.3839C224.93 74.928 224.599 75.4474 224.226 75.9364C224.256 76.0591 224.254 76.1874 224.221 76.3092C224.675 75.7934 224.221 76.3092 224.221 76.3092L223.464 77.1192L222.71 77.78C222.71 77.78 222.182 78.2202 222.71 77.78L222.337 77.7749C221.762 78.1587 221.16 78.4994 220.534 78.7943L220.087 78.7881C220.683 78.7963 220.087 78.7881 220.087 78.7881L219.044 78.7739L217.926 78.7586L217.479 78.7525C218.149 78.7617 217.479 78.7525 217.479 78.7525L214.274 78.7087C215.019 78.7189 214.274 78.7087 213.678 78.7006L211.969 78.2298L211.373 78.2217L210.702 78.2125C210.207 77.9517 209.737 77.6456 209.299 77.2984C208.559 76.8409 209.299 77.2984 209.299 77.2984L208.561 76.6919L207.533 75.5592C208.121 76.1638 207.533 75.5592 207.533 75.5592C207.338 75.326 207.167 75.0739 207.022 74.8065L207.032 74.0609C207.032 74.0609 206.672 73.0866 207.032 74.0609C207.039 73.539 207.045 73.0917 206.531 72.5627C206.499 72.3149 206.503 72.0639 206.541 71.817C206.541 71.817 206.557 70.6241 206.541 71.817C206.511 71.2953 206.518 70.7721 206.562 70.2514C206.569 69.7295 206.575 69.282 206.582 68.7601C206.59 68.2382 206.573 69.4311 206.582 68.7601C206.619 68.6135 206.621 68.4603 206.589 68.3128L206.6 67.4927C206.606 67.0453 206.611 66.6725 206.99 66.2303L207.448 65.4162L207.904 64.7514L207.91 64.3785C207.91 64.3785 207.903 64.8259 207.91 64.3785L209.194 63.1284C209.194 63.1284 208.747 63.1223 209.194 63.1284L209.945 62.6912L210.771 62.2551L211.218 62.2612C211.218 62.2612 210.697 62.2541 211.218 62.2612L213.164 61.6912L213.686 61.6983C214.282 61.7065 213.686 61.6983 213.686 61.6983L214.804 61.7136C215.623 61.6503 216.446 61.6615 217.264 61.7472L218.009 61.7574L219.5 61.7777C219.875 61.8906 220.269 61.9284 220.659 61.8889C221.049 61.8495 221.427 61.7336 221.772 61.5479C222.117 61.3622 222.423 61.1103 222.67 60.8065C222.918 60.5028 223.104 60.1532 223.217 59.7777C223.33 59.4022 223.367 59.0083 223.328 58.6182C223.289 58.2281 223.173 57.8496 222.987 57.5043C222.801 57.159 222.55 56.8536 222.246 56.6056C221.942 56.3577 221.593 56.172 221.218 56.0592L220.696 56.052Z" fill="#60C9EB" stroke="#60C9EB" stroke-width="0.493985"/>
<path d="M148.509 472.892C145.425 471.862 142.112 471.734 138.958 472.523C135.804 473.312 132.942 474.986 130.706 477.347C128.91 479.574 127.765 482.255 127.397 485.093C127.029 487.93 127.454 490.815 128.623 493.426C129.975 496.201 132.076 498.542 134.688 500.186C137.3 501.829 140.319 502.709 143.405 502.726C146.997 502.903 150.546 501.877 153.49 499.81C156.435 497.744 158.606 494.754 159.662 491.315C160.752 487.667 160.406 483.74 158.694 480.339C157.625 478.429 156.166 476.765 154.412 475.456C152.657 474.147 150.646 473.223 148.511 472.743C144.796 471.798 143.153 477.517 146.867 478.463L149.316 479.317L149.837 479.324L150.946 480.01C150.946 480.01 151.757 480.692 150.946 480.01L151.681 480.766L152.416 481.522C152.416 481.522 152.41 481.969 152.416 481.522L152.409 482.043L152.846 482.795C152.846 482.795 153.28 483.77 152.838 483.392C152.396 483.013 152.831 483.913 152.829 484.063L152.816 485.032C152.848 485.179 152.846 485.333 152.809 485.479V485.479C152.809 485.479 152.802 486.001 152.798 486.299L152.785 487.269C152.785 487.269 152.785 487.269 152.778 487.79C152.771 488.312 152.784 487.343 152.778 487.79C152.806 488.387 152.797 488.984 152.753 489.58L152.741 490.475C152.736 490.847 152.748 489.953 152.741 490.475L152.733 491.071C152.725 491.668 152.047 492.18 151.742 492.698C151.53 493.003 151.275 493.276 150.985 493.508L150.231 494.169C150.231 494.169 149.703 494.609 150.231 494.169L148.427 495.263L147.98 495.257C148.576 495.265 147.98 495.257 147.98 495.257L147.14 496.662L146.022 496.647L145.575 496.641C146.246 496.65 145.575 496.641 145.575 496.641C144.856 496.706 144.131 496.696 143.414 496.611L142.296 496.596C143.041 496.606 142.296 496.596 141.774 496.589C141.186 496.512 140.611 496.353 140.066 496.118L139.172 496.106C138.725 496.1 139.842 496.115 139.172 496.106L138.725 496.1C138.231 495.864 137.761 495.583 137.32 495.26C136.58 494.803 137.32 495.26 137.32 495.26C137.042 495.1 136.793 494.895 136.583 494.654L135.554 493.521C136.142 494.126 135.554 493.521 135.554 493.521L135.117 492.769L134.754 492.093C134.754 492.093 134.768 491.049 134.754 492.093C134.76 491.646 134.767 491.124 134.253 490.595C134.221 490.347 134.225 490.096 134.263 489.849C134.263 489.849 134.279 488.656 134.263 489.849C134.233 489.328 134.24 488.804 134.284 488.284C134.29 487.836 134.297 487.314 134.304 486.792C134.312 486.27 134.295 487.463 134.304 486.792C134.335 486.67 134.337 486.543 134.31 486.42L134.322 485.525C134.295 485.103 134.3 484.679 134.339 484.257V484.257L134.796 483.518L135.254 482.779L135.259 482.406C135.259 482.406 134.88 482.848 135.259 482.406L136.543 481.156L137.295 480.718L138.121 480.282L138.568 480.288C138.568 480.288 138.046 480.281 138.568 480.288L140.514 479.718L141.035 479.725C141.632 479.734 140.588 479.719 141.035 479.725L142.153 479.741C142.948 479.676 143.746 479.687 144.538 479.773L145.358 479.785L146.849 479.805C147.233 479.944 147.642 480.004 148.05 479.978C148.458 479.953 148.856 479.845 149.22 479.659C149.585 479.473 149.907 479.215 150.167 478.899C150.427 478.584 150.619 478.218 150.732 477.825C150.845 477.433 150.876 477.021 150.823 476.615C150.77 476.21 150.635 475.819 150.424 475.469C150.214 475.118 149.935 474.814 149.602 474.576C149.27 474.338 148.892 474.171 148.492 474.085L148.509 472.892Z" fill="#60C9EB" stroke="#60C9EB" stroke-width="0.493985"/>
<path d="M180.797 346.486C180.912 343.105 180.024 339.766 178.246 336.889C176.468 334.012 173.88 331.725 170.806 330.316C168.18 329.365 165.345 329.148 162.606 329.689C159.866 330.23 157.326 331.508 155.259 333.385C152.951 335.566 151.316 338.364 150.547 341.446C149.778 344.527 149.908 347.765 150.921 350.775C151.871 354.212 153.924 357.24 156.763 359.395C159.603 361.549 163.072 362.71 166.636 362.698C170.393 362.618 173.981 361.123 176.682 358.51C178.12 356.932 179.225 355.081 179.932 353.066C180.638 351.051 180.931 348.914 180.793 346.784C180.767 345.992 180.441 345.239 179.881 344.678C179.322 344.117 178.57 343.789 177.778 343.76C176.993 343.768 176.242 344.078 175.679 344.626C175.116 345.173 174.786 345.917 174.756 346.701C174.82 347.521 174.808 348.344 174.723 349.162C174.723 349.162 174.718 349.535 174.716 349.684C174.714 349.833 174.716 349.684 174.716 349.684C174.752 350.106 174.746 350.53 174.698 350.951C174.725 351.299 174.72 351.648 174.684 351.995C174.684 351.995 174.678 352.442 174.684 351.995L174.679 352.368L174.22 353.256L174.213 353.704L173.004 354.955C173.004 354.955 172.401 355.394 173.004 354.955L172.177 355.466L171.426 355.828L170.979 355.822L169.109 356.319C168.289 356.307 169.109 356.319 169.109 356.319L168.065 356.304L166.202 356.279C167.096 356.291 166.202 356.279 166.202 356.279L165.308 356.267L164.488 356.255L164.041 356.249L162.414 355.258C162.109 355.045 161.837 354.791 161.605 354.501L160.944 353.746C160.512 353.096 160.123 352.418 159.779 351.717L159.785 351.269C159.785 351.269 159.778 351.791 159.785 351.269C159.792 350.747 159.794 350.598 159.799 350.226C159.593 349.463 159.429 348.689 159.309 347.907C159.3 348.578 159.309 347.907 159.309 347.907C159.309 347.907 159.318 347.236 159.322 346.938C159.287 346.615 159.292 346.29 159.336 345.969C159.336 345.969 159.354 344.627 159.342 345.521C159.273 344.951 159.281 344.374 159.365 343.806L159.375 343.061C159.375 343.061 159.375 343.061 159.38 342.688C159.386 342.315 159.373 343.21 159.38 342.688L160.22 341.283L160.675 340.692C160.682 340.17 160.228 340.686 160.675 340.692L161.808 339.589L162.335 339.224L163.612 338.495L164.059 338.501L164.656 338.51L166.072 338.529L166.817 338.539C166.072 338.529 166.817 338.539 166.817 338.539L169.053 338.57C168.084 338.556 169.053 338.57 169.053 338.57L170.686 339.114C171.207 339.121 170.164 339.107 170.686 339.114L171.499 339.572L172.237 340.105C172.237 340.105 171.723 339.576 172.237 340.105L173.634 341.54C173.121 340.937 173.634 341.541 173.629 341.913C173.771 342.229 173.941 342.531 174.139 342.815L174.573 343.79C174.566 344.238 174.573 343.79 174.573 343.79L174.564 344.387C174.554 345.133 174.99 345.959 175.129 346.706C175.268 347.454 175.123 347.154 175.12 347.377C175.117 347.601 175.108 348.272 175.113 347.899C175.118 347.527 175.113 347.899 175.113 347.899C175.148 348.222 175.144 348.547 175.1 348.869C175.125 349.648 175.441 350.39 175.985 350.95C176.529 351.509 177.261 351.845 178.04 351.892C178.718 352.045 179.429 351.968 180.059 351.672C180.688 351.377 181.202 350.88 181.518 350.26C181.834 349.64 181.935 348.933 181.805 348.249C181.674 347.566 181.32 346.945 180.797 346.486V346.486Z" fill="#60C9EB" stroke="#60C9EB" stroke-width="0.493985"/>
<path d="M188.961 196.485C185.612 196.574 182.361 197.638 179.607 199.548C176.854 201.457 174.717 204.129 173.458 207.236C172.66 209.894 172.586 212.717 173.244 215.414C173.901 218.111 175.267 220.582 177.2 222.574C179.5 224.799 182.396 226.308 185.536 226.92C188.677 227.532 191.927 227.22 194.894 226.022C198.207 224.871 201.05 222.664 202.989 219.741C204.927 216.817 205.854 213.338 205.626 209.838C205.449 206.111 203.809 202.605 201.063 200.081C199.457 198.664 197.565 197.61 195.516 196.99C193.466 196.37 191.307 196.199 189.185 196.488C188.394 196.478 187.632 196.782 187.065 197.333C186.498 197.885 186.174 198.639 186.163 199.43C186.152 200.221 186.456 200.984 187.007 201.551C187.559 202.118 188.313 202.442 189.104 202.453L191.563 202.487L192.681 202.502C193.203 202.509 192.234 202.496 192.681 202.502L193.352 202.511L195.207 203.133C194.462 203.123 195.207 203.133 195.654 203.139L196.541 203.673C195.951 203.218 196.541 203.673 196.541 203.673L197.203 204.354L197.865 205.034L197.857 205.556L198.73 207.134C198.739 206.537 198.73 207.134 198.73 207.134C198.749 207.457 198.744 207.78 198.717 208.103L198.703 209.147C198.703 209.147 198.696 209.669 198.703 209.147L198.697 209.594C198.727 210.24 198.718 210.887 198.67 211.532C198.67 211.532 198.655 212.651 198.67 211.532C198.67 211.532 198.661 212.203 198.657 212.502C198.495 213.134 198.287 213.755 198.035 214.357C198.044 213.761 198.035 214.357 198.035 214.357C197.885 214.669 197.706 214.966 197.501 215.245L197.044 215.985C197.425 215.393 197.044 215.985 197.044 215.985L195.609 217.382L195.161 217.376C194.827 217.678 194.446 217.925 194.033 218.106C194.033 218.106 192.908 218.613 193.512 218.099L192.538 218.458L190.218 219.098L189.324 219.086C190.143 219.097 189.324 219.086 188.876 219.08C188.232 219.145 187.581 219.136 186.939 219.053L186.491 219.047C185.821 219.038 187.013 219.054 186.491 219.047L185.597 219.035L184.039 218.491C183.219 218.48 184.486 218.498 184.039 218.491L183.368 218.482L182.703 218.1L182.186 217.72L181.671 217.191L181.083 216.587C181.088 216.214 181.448 217.188 181.083 216.587C180.79 216.178 180.522 215.751 180.281 215.308L180.29 214.637C180.29 214.637 180.281 215.308 180.29 214.637L179.863 213.14C179.863 213.14 179.868 212.767 179.871 212.543C179.874 212.32 179.886 211.499 179.871 212.543C179.841 212.022 179.849 211.498 179.893 210.978L179.903 210.232C179.903 210.232 179.903 210.232 179.909 209.785C179.915 209.337 179.901 210.381 179.909 209.785C180.022 209.204 180.179 208.633 180.38 208.076C180.38 208.076 180.917 206.965 180.38 208.076L180.39 207.33L180.848 206.516C180.848 206.516 181.53 205.705 180.848 206.516L182.21 205.044C182.332 205.077 182.46 205.079 182.583 205.049L183.485 204.464L184.387 203.955L184.908 203.962L187.23 203.173L188.572 203.192L189.615 203.206C190.395 203.18 191.136 202.864 191.695 202.32C192.254 201.776 192.59 201.043 192.637 200.264C191.922 198.017 190.53 196.283 188.961 196.485Z" fill="#60C9EB" stroke="#60C9EB" stroke-width="0.493985"/>
<path d="M118.16 593.209C114.761 593.25 111.451 594.301 108.651 596.228C105.851 598.154 103.686 600.871 102.432 604.031C101.714 606.643 101.688 609.396 102.358 612.021C103.028 614.645 104.371 617.05 106.253 618.997C108.537 621.224 111.42 622.735 114.549 623.348C117.679 623.96 120.919 623.646 123.873 622.445C127.192 621.296 130.045 619.092 131.996 616.17C133.947 613.248 134.889 609.768 134.679 606.261C134.427 602.554 132.799 599.074 130.116 596.504C128.482 595.11 126.575 594.07 124.517 593.451C122.46 592.833 120.296 592.649 118.164 592.911C117.379 592.919 116.627 593.229 116.064 593.777C115.502 594.324 115.171 595.068 115.142 595.852C115.136 596.244 115.208 596.633 115.353 596.997C115.498 597.361 115.713 597.692 115.986 597.973C116.259 598.254 116.585 598.478 116.944 598.633C117.304 598.788 117.691 598.87 118.082 598.875C118.901 598.812 119.725 598.823 120.542 598.909L121.734 598.925C122.181 598.931 121.212 598.918 121.734 598.925L122.48 598.936L124.335 599.557C123.515 599.546 124.335 599.557 124.782 599.563L125.669 600.098L126.332 600.703L126.919 601.382C126.902 601.556 126.9 601.73 126.912 601.904C127.231 602.414 127.522 602.941 127.785 603.482C127.793 602.886 127.785 603.482 127.785 603.482C127.785 603.482 127.775 604.153 127.771 604.451L127.757 605.495C127.757 605.495 127.75 606.017 127.757 605.495C127.764 604.973 127.757 605.495 127.751 605.943C127.78 606.589 127.771 607.236 127.725 607.881C127.725 607.881 127.709 609 127.725 607.881L127.711 608.85C127.586 609.494 127.377 610.118 127.09 610.706C127.098 610.11 127.09 610.706 127.09 610.706C127.09 610.706 127.081 611.303 126.555 611.668L126.024 612.332L126.019 612.705C126.474 612.115 126.019 612.705 126.019 612.705L124.509 614.101C124.504 614.474 124.509 614.101 124.509 614.101L123.381 614.832C123.381 614.832 122.255 615.338 122.859 614.825L121.885 615.184L119.491 615.822L118.596 615.81C119.416 615.821 118.596 615.81 118.224 615.805L115.69 615.771L114.87 615.759L113.237 615.215C112.417 615.204 113.684 615.221 113.237 615.215L112.572 614.833L111.906 614.451L111.389 614.071L110.949 613.543C110.717 613.381 110.517 613.176 110.361 612.939V612.939C110.366 612.566 110.353 613.535 110.361 612.939L109.559 611.66C109.586 611.437 109.589 611.212 109.568 610.989C109.575 610.467 109.559 611.66 109.568 610.989L109.065 609.565C109.103 609.343 109.106 609.117 109.075 608.894C109.081 608.447 109.088 607.925 109.075 608.894C109.045 608.372 109.052 607.849 109.096 607.328C109.063 607.081 109.066 606.829 109.106 606.583L109.112 606.135C109.119 605.614 109.104 606.732 109.112 606.135C109.12 605.539 109.129 604.942 109.136 604.421C109.143 603.899 109.673 603.309 109.136 604.421C109.292 604.19 109.421 603.941 109.519 603.68L109.977 602.866C109.977 602.866 110.659 602.055 109.977 602.866C110.352 602.329 110.811 601.857 111.338 601.468C111.338 601.468 111.338 601.468 111.343 601.095C111.348 600.722 110.816 601.461 111.343 601.095L112.171 600.51L113.147 600.001L113.669 600.008C114.394 599.703 115.146 599.464 115.915 599.293L117.336 598.94L118.305 598.953C119.09 598.945 119.842 598.635 120.404 598.087C120.967 597.539 121.297 596.796 121.327 596.011C121.314 595.616 121.221 595.227 121.052 594.868C120.884 594.51 120.644 594.189 120.347 593.927C120.051 593.665 119.704 593.466 119.328 593.342C118.951 593.219 118.554 593.173 118.16 593.209V593.209Z" fill="#60C9EB" stroke="#60C9EB" stroke-width="0.493985"/>
<path d="M215.974 63.5196C207.135 50.2772 193.592 40.8944 178.091 37.2748C161.979 34.2319 145.312 37.4154 131.454 46.1829C120.69 53.3435 112.607 63.8762 108.473 76.1285C104.339 88.3808 104.388 101.659 108.613 113.88C113.575 127.147 123.156 140.627 137.431 143.432C144.865 144.875 148.303 133.364 140.793 131.919C136.377 131.454 132.315 129.285 129.471 125.873C126.095 121.867 123.249 117.442 121.003 112.707C116.79 103.321 116.011 92.7516 118.802 82.8486C122.02 71.8513 129.012 62.3416 138.548 55.9928C148.084 49.6441 159.552 46.8631 170.936 48.1391C187.094 49.4785 197.99 59.4708 207.365 71.6795C212.127 77.7848 220.665 69.4004 215.976 63.3706L215.974 63.5196Z" fill="#60C9EB" stroke="#60C9EB" stroke-width="0.493985"/>
<path d="M188.393 204.531C179.56 191.284 166.014 181.899 150.51 178.287C134.398 175.19 117.712 178.377 103.873 187.195C93.0894 194.337 84.9906 204.869 80.8546 217.128C76.7186 229.386 76.7811 242.673 81.032 254.892C85.9944 268.159 95.1284 281.632 109.775 284.442C117.21 285.886 120.722 274.376 113.138 272.93C108.726 272.45 104.67 270.284 101.815 266.884C98.4627 262.875 95.6418 258.451 93.4224 253.719C89.2576 244.323 88.454 233.779 91.1467 223.859C94.3943 212.87 101.407 203.376 110.953 197.043C120.5 190.71 131.971 187.942 143.354 189.225C159.438 190.489 170.334 200.481 179.783 212.766C184.47 218.87 193.008 210.486 188.394 204.457L188.393 204.531Z" fill="#60C9EB" stroke="#60C9EB" stroke-width="0.493985"/>
<path d="M162.753 336.174C153.952 322.894 140.392 313.5 124.87 309.929C108.781 306.883 92.1366 310.068 78.307 318.838C67.4551 325.926 59.2739 336.429 55.0564 348.688C50.839 360.947 50.8258 374.262 55.0189 386.53C60.0558 399.798 69.5624 413.276 83.8366 416.081C91.2714 417.525 94.7831 406.014 87.1993 404.568C82.7872 404.088 78.7309 401.922 75.8766 398.522C72.5241 394.514 69.7032 390.089 67.4838 385.358C63.2455 375.98 62.44 365.41 65.2081 355.498C68.4261 344.501 75.4182 334.991 84.954 328.642C94.4898 322.293 105.958 319.512 117.342 320.788C133.5 322.128 144.396 332.12 153.845 344.33C158.533 350.434 167.071 342.05 162.382 336.02L162.753 336.174Z" fill="#60C9EB" stroke="#60C9EB" stroke-width="0.493985"/>
<path d="M143.062 478.858C134.424 466.433 122.828 456.356 109.321 449.538C101.295 446.53 92.7433 445.177 84.1808 445.56C75.6182 445.943 67.2215 448.053 59.4951 451.765C47.4036 457.585 37.6825 467.39 31.9646 479.533C26.2467 491.677 24.8805 505.419 28.0954 518.451C30.1892 525.791 33.6066 532.687 38.1792 538.798C41.88 544.062 46.7777 548.371 52.4691 551.372C59.2004 555.192 65.379 544.911 58.6476 541.091C55.0084 539.279 51.8118 536.69 49.2841 533.505C45.6557 528.973 42.7571 523.901 40.6932 518.474C37.3279 508.512 37.4756 497.697 41.1118 487.83C45.9211 476.176 54.9936 466.797 66.4788 461.605C77.964 456.413 90.9966 455.799 102.918 459.89C115.832 464.019 126.69 476.844 134.673 487.244C139.435 493.35 147.974 484.891 143.286 478.861L143.062 478.858Z" fill="#60C9EB" stroke="#60C9EB" stroke-width="0.493985"/>
<path d="M119.455 602.325C110.808 589.879 99.1824 579.799 85.6397 573.003C77.6221 570.015 69.0849 568.672 60.5373 569.055C51.9897 569.438 43.6067 571.538 35.8881 575.232C23.7872 581.041 14.0575 590.844 8.33806 602.991C2.61863 615.138 1.25906 628.885 4.48838 641.918C6.53498 649.276 9.95655 656.18 14.5721 662.264C18.2534 667.546 23.1557 671.86 28.862 674.838C35.5934 678.659 41.7719 668.378 35.0405 664.557C31.4357 662.855 28.2402 660.395 25.6719 657.345C22.0435 652.812 19.145 647.741 17.081 642.313C13.7157 632.351 13.8634 621.537 17.4996 611.67C22.2356 600.049 31.2066 590.66 42.5983 585.403C53.99 580.145 66.9524 579.412 78.8639 583.351C91.7783 587.479 102.561 600.304 110.619 610.705C115.381 616.81 123.92 608.351 119.232 602.321L119.455 602.325Z" fill="#60C9EB" stroke="#60C9EB" stroke-width="0.493985"/>
</svg>
