<svg width="254" height="75" viewBox="0 0 254 75" fill="none" xmlns="http://www.w3.org/2000/svg">
<path d="M252.136 9.41279C237.197 10.3871 221.974 9.20982 207.014 10.1232C197.303 10.3797 187.587 9.90478 177.947 8.70238C168.854 7.87016 159.882 9.65638 150.809 8.41821C126.817 5.15024 102.094 8.5197 78.0004 7.40331C52.8107 6.24633 25.6521 6.87555 2.43123 4.37891C1.86289 4.37891 3.81149 4.64278 4.03477 5.17052C7.46512 13.2897 17.6141 21.5104 26.1798 27.1938C31.9647 31.0098 35.0297 37.8908 40.1651 42.5796C40.2321 42.6264 40.2868 42.6886 40.3246 42.7611C40.3624 42.8335 40.3821 42.914 40.3821 42.9957C40.3821 43.0774 40.3624 43.1579 40.3246 43.2304C40.2868 43.3028 40.2321 43.3651 40.1651 43.4118L3.83179 65.2524C3.7379 65.3103 3.6645 65.3961 3.62189 65.4978C3.57929 65.5996 3.56962 65.7121 3.59426 65.8196C3.6189 65.9271 3.6766 66.0242 3.75925 66.0972C3.8419 66.1702 3.94535 66.2155 4.05507 66.2267C85.398 72.8052 167.068 74.3847 248.605 70.9561C251.243 50.8409 251.121 30.2182 252.664 10.0623C252.683 9.98364 252.683 9.90168 252.665 9.82283C252.647 9.74397 252.611 9.67032 252.56 9.60754C252.509 9.54476 252.444 9.49456 252.371 9.46079C252.297 9.42702 252.217 9.4106 252.136 9.41279V9.41279Z" fill="#E96262"/>
<path d="M113.818 45.9649L129.049 49.8846" stroke="#E9AD62" stroke-width="1.09457" stroke-miterlimit="10"/>
<path d="M113.321 47.9436L128.547 51.8662L129.581 47.8532L114.355 43.9305L113.321 47.9436Z" fill="#E9AD62" stroke="#E9AD62" stroke-width="1.09457" stroke-miterlimit="10"/>
<path d="M112.82 60.4824L142.343 41.0918" stroke="#E9AD62" stroke-width="1.09457" stroke-miterlimit="10"/>
<path d="M111.7 58.746L113.975 62.21L143.497 42.8222L141.222 39.3583L111.7 58.746Z" fill="#E9AD62" stroke="#E9AD62" stroke-width="1.09457" stroke-miterlimit="10"/>
<path d="M126.878 65.8486L129.049 49.8848" stroke="#E9AD62" stroke-width="1.09457" stroke-miterlimit="10"/>
<path d="M124.816 65.5974L128.922 66.1553L131.091 50.1911L126.985 49.6333L124.816 65.5974Z" fill="#E9AD62" stroke="#E9AD62" stroke-width="1.09457" stroke-miterlimit="10"/>
<path d="M135.632 12.0467L140.301 27.063" stroke="#E9AD62" stroke-width="1.09457" stroke-miterlimit="10"/>
<path d="M133.712 12.6613L138.381 27.6758L142.338 26.4453L137.669 11.4308L133.712 12.6613Z" fill="#E9AD62" stroke="#E9AD62" stroke-width="1.09457" stroke-miterlimit="10"/>
<path d="M122.755 18.8248L154.767 33.7477" stroke="#E9AD62" stroke-width="1.09457" stroke-miterlimit="10"/>
<path d="M121.854 20.7372L153.867 35.6562L155.618 31.9L123.604 16.981L121.854 20.7372Z" fill="#E9AD62" stroke="#E9AD62" stroke-width="1.09457" stroke-miterlimit="10"/>
<path d="M125.58 33.6094L140.299 27.0634" stroke="#E9AD62" stroke-width="1.09457" stroke-miterlimit="10"/>
<path d="M124.786 31.7095L126.47 35.4961L141.191 28.95L139.507 25.1635L124.786 31.7095Z" fill="#E9AD62" stroke="#E9AD62" stroke-width="1.09457" stroke-miterlimit="10"/>
<path d="M1.19537 5.13023C12.3589 18.7001 25.1788 30.8176 39.3555 41.1997C25.5432 48.2928 12.4973 56.7882 0.424048 66.5518C-0.509657 67.3028 0.241368 68.7643 1.29686 68.8252C66.2502 71.5316 131.204 72.993 196.157 73.2095C207.7 73.2095 219.249 73.1148 230.806 72.9254C236.977 73.4602 243.186 73.365 249.338 72.6412C249.506 72.6002 249.655 72.5038 249.762 72.3676C249.869 72.2314 249.927 72.0632 249.926 71.8901C249.926 71.3827 249.825 70.855 249.764 70.3475L249.906 70.2054C253.114 49.5781 254.046 28.6608 252.687 7.82986C252.69 7.62463 252.646 7.42147 252.558 7.23603C252.47 7.05059 252.34 6.88783 252.179 6.76033C252.019 6.63283 251.831 6.54401 251.63 6.50069C251.429 6.45737 251.221 6.46073 251.022 6.51051C235.23 9.73788 219.073 8.90566 203.079 8.15464C186.759 7.38331 170.433 6.70672 154.1 6.12484C121.812 5.15054 89.4981 4.66339 57.1568 4.66339C38.8886 4.66339 20.4784 4.52131 2.21026 2.89748C0.931493 2.6336 0.505236 4.27772 1.19537 5.13023ZM51.3921 7.16002C67.8944 7.16002 84.3966 7.34273 100.899 7.6269C133.578 8.15465 166.245 9.16954 198.897 10.6716C215.988 11.4429 233.241 12.5796 250.149 9.37252C251.39 30.0134 250.41 50.7278 247.227 71.1594C215.907 70.6723 184.587 70.7129 153.267 70.3475C120.791 69.9686 88.3141 69.2582 55.8374 68.2162C38.8683 67.6749 21.8993 67.0389 4.93019 66.3082C16.6442 57.1562 29.2363 49.1875 42.5219 42.519C42.7198 42.4025 42.8837 42.2363 42.9976 42.0369C43.1116 41.8376 43.1715 41.612 43.1715 41.3823C43.1715 41.1527 43.1116 40.9271 42.9976 40.7278C42.8837 40.5284 42.7198 40.3622 42.5219 40.2457C28.7279 30.342 16.2286 18.7496 5.31584 5.73917C20.6408 7.09914 36.0266 7.18034 51.3921 7.24123L51.3921 7.16002Z" fill="#E96262"/>
<path d="M45.1698 43.6611L60.2414 47.5397" stroke="#FFE600" stroke-width="1.08313" stroke-miterlimit="10"/>
<path d="M44.6772 45.6193L59.7444 49.501L60.7674 45.5299L45.7002 41.6483L44.6772 45.6193Z" fill="#FFE600" stroke="#FFE600" stroke-width="1.08313" stroke-miterlimit="10"/>
<path d="M44.1817 58.0264L73.3962 38.8385" stroke="#FFE600" stroke-width="1.08313" stroke-miterlimit="10"/>
<path d="M43.0729 56.3077L45.3239 59.7354L74.5375 40.5503L72.2865 37.1226L43.0729 56.3077Z" fill="#FFE600" stroke="#FFE600" stroke-width="1.08313" stroke-miterlimit="10"/>
<path d="M58.0928 63.3369L60.2412 47.54" stroke="#FFE600" stroke-width="1.08313" stroke-miterlimit="10"/>
<path d="M56.0528 63.0886L60.1163 63.6406L62.2624 47.8434L58.199 47.2914L56.0528 63.0886Z" fill="#FFE600" stroke="#FFE600" stroke-width="1.08313" stroke-miterlimit="10"/>
<path d="M66.7549 10.096L71.3753 24.9553" stroke="#FFE600" stroke-width="1.08313" stroke-miterlimit="10"/>
<path d="M64.8556 10.705L69.4757 25.5625L73.3915 24.3448L68.7714 9.48739L64.8556 10.705Z" fill="#FFE600" stroke="#FFE600" stroke-width="1.08313" stroke-miterlimit="10"/>
<path d="M54.013 16.8048L85.6905 31.5716" stroke="#FFE600" stroke-width="1.08313" stroke-miterlimit="10"/>
<path d="M53.1211 18.6969L84.8 33.46L86.5322 29.743L54.8533 14.98L53.1211 18.6969Z" fill="#FFE600" stroke="#FFE600" stroke-width="1.08313" stroke-miterlimit="10"/>
<path d="M56.8078 31.4346L71.3735 24.9571" stroke="#FFE600" stroke-width="1.08313" stroke-miterlimit="10"/>
<path d="M56.0229 29.5548L57.6891 33.3018L72.2561 26.8242L70.5899 23.0772L56.0229 29.5548Z" fill="#FFE600" stroke="#FFE600" stroke-width="1.08313" stroke-miterlimit="10"/>
</svg>
