<svg width="1244" height="830" viewBox="0 0 1244 830" fill="none" xmlns="http://www.w3.org/2000/svg">
<path d="M4.38691 744.928C10.2936 823.846 58.6027 817.067 106.81 818C458.695 824.536 813.178 844.753 1162.73 810.003C1192.32 807.06 1217.74 808.846 1233.77 791.735C1249.14 775.233 1242.54 696.335 1242.74 674.9C1244.65 475.574 1238.5 264.496 1224.31 65.556C1223.18 49.7236 1220.74 31.7802 1206.29 22.4634C1196.42 16.1102 1183.39 15.5418 1171.21 15.2171C876.812 7.55799 582.33 3.4984 287.766 3.03831C200.851 2.91652 72.4661 -6.98888 31.789 12.5783C20.4222 18.0385 4.63041 34.9061 2.27587 159.312C-0.0786823 283.718 0.0431436 687.038 4.38691 744.928Z" fill="#E9AD62"/>
</svg>
