<svg width="950" height="983" viewBox="0 0 950 983" fill="none" xmlns="http://www.w3.org/2000/svg">
<path d="M829.385 149.953C835.657 181.956 869.582 241.406 869.582 241.406C828.377 376.489 765.335 713.214 720.123 906.931C507.199 892.389 154.154 865.269 154.154 865.269C154.154 865.269 116.294 815.535 100.672 791.309L829.385 149.953Z" fill="white"/>
<path d="M826.542 150.659C832.465 174.037 841.51 196.51 853.434 217.47C857.208 224.979 861.205 232.491 865.277 240.004C865.669 240.804 866.106 241.582 866.587 242.333C866.598 242.532 866.596 242.731 866.579 242.93C866.143 242.103 866.606 240.917 865.764 242.546C864.193 246.563 862.989 250.715 862.165 254.95C849.646 298.329 839.355 342.26 829.288 386.195C816.528 441.651 804.587 497.268 792.794 552.886C780.361 611.777 767.977 670.669 755.643 729.561C744.331 782.8 733.018 836.039 720.889 889.043L716.851 906.289L719.788 904.092C665.472 900.367 611.156 896.518 556.843 892.544L386.68 880.003L242.735 869.014L161.715 862.836C159.577 862.46 157.406 862.306 155.236 862.375C153.075 862.345 157.491 860.988 156.568 863.138C156.574 862.691 153.492 859.07 153.2 858.618C139.287 840.307 125.525 821.849 112.439 802.953C109.367 798.66 106.445 794.295 103.524 789.856L103.027 793.503L122.57 776.245L175.389 729.539L253.783 660.513L349.601 576.661L454.328 484.429L560.338 391.096L658.427 304.665L741.951 231.235L801.634 178.656C811.14 170.36 820.868 162.14 830.154 153.617L831.362 152.515C834.228 150.019 830.038 145.711 827.17 148.282L807.78 165.317L754.96 212.024L676.566 281.05L580.968 365.203L476.24 457.435L370.23 550.768L272.141 637.273L188.617 710.704L128.859 763.281C119.427 771.653 109.774 779.799 100.414 788.322L99.2062 789.424C98.7336 789.876 98.4275 790.475 98.3375 791.124C98.2475 791.772 98.3788 792.432 98.7101 792.996C111.924 813.386 126.567 832.825 141.063 852.188L148.897 862.586C149.967 864.345 151.219 865.987 152.632 867.484C153.931 868.392 155.51 868.81 157.088 868.664L226.045 873.931L363.885 884.315C420.828 888.623 477.921 892.833 535.165 896.946C590.967 901.089 646.721 905.082 702.428 908.925L720.675 910.144C721.327 910.15 721.963 909.947 722.491 909.565C723.02 909.183 723.412 908.642 723.611 908.022C735.727 855.987 746.949 803.94 758.022 751.891C770.452 693.223 782.659 634.553 795.089 575.886C807.048 519.002 819.006 462.192 832.006 405.471C842.321 359.751 852.935 314.034 865.479 268.866C867.832 260.322 871.306 251.57 873.288 242.947C874.014 238.855 869.026 232.97 867.208 229.59C855.505 208.869 845.553 187.206 837.455 164.828C835.695 159.813 834.271 154.687 833.192 149.482C831.533 145.433 825.773 146.92 826.542 150.659Z" fill="#E96262" stroke="#E96262" stroke-width="0.493985"/>
<path d="M834.27 174.331C822.714 261.795 801.268 347.409 779.157 432.641C768.062 475.368 756.819 518.093 747.583 561.219C738.346 604.344 729.684 649.118 721.255 693.149C716.6 717.396 712.315 741.872 706.842 765.958C702.484 784.832 699.162 803.931 696.892 823.168L699.093 820.29C681.963 822.612 664.726 824.069 647.449 824.655C602.045 826.695 556.554 825.601 511.3 821.379C484.944 819.005 458.756 815.217 432.481 812.323C407.671 809.548 382.856 807.146 358.035 805.116C311.836 800.994 265.444 799.439 219.073 800.459C199.058 800.895 179.1 802.791 159.36 806.131C145.853 807.936 132.868 812.533 121.233 819.63C118.146 821.824 121.131 827.085 124.218 824.816C134.269 818.57 145.485 814.435 157.184 812.663C174.434 809.445 191.904 807.54 209.443 806.964C254.526 805.342 299.666 806.407 344.623 810.153C395.114 813.826 445.191 820.55 495.436 825.86C542.441 830.944 589.745 832.711 636.998 831.15C658.321 830.712 679.6 829.036 700.728 826.129C701.355 825.964 701.914 825.603 702.323 825.099C702.732 824.595 702.97 823.974 703.002 823.326C705.03 805.818 708.005 788.433 711.914 771.248C716.677 749.985 720.622 728.562 724.717 707.142C733.22 663.111 741.499 619.078 750.82 575.208C769.143 489.029 794.229 404.286 813.96 318.723C824.9 270.923 834.279 222.803 840.683 174.195C841.182 170.399 835.219 170.392 834.721 174.114L834.27 174.331Z" fill="#E96262" stroke="#E96262" stroke-width="0.493985"/>
<path d="M847.132 214.999C840.212 235.859 833.07 256.642 827.562 277.894C822.367 298.032 817.913 318.479 813.164 338.697C803.764 379.285 794.487 419.899 785.334 460.54C766.704 543.806 748.816 627.256 731.671 710.89C722.245 757.046 713.14 803.281 704.357 849.594L707.294 847.397L650.129 846.616L512.931 843.772L347.638 840.396L204.777 837.4L157.748 836.758C150.295 836.656 142.849 836.032 135.389 836.452L134.42 836.439C133.629 836.428 132.867 836.732 132.3 837.284C131.733 837.835 131.409 838.59 131.398 839.381C131.387 840.172 131.691 840.934 132.242 841.501C132.794 842.068 133.548 842.393 134.339 842.404L191.497 843.632L328.622 846.4L493.989 849.852L636.776 852.772L683.879 853.416C691.332 853.517 698.777 854.216 706.239 853.721L707.208 853.734C707.856 853.719 708.483 853.498 708.998 853.103C709.513 852.708 709.888 852.159 710.07 851.536C725.711 768.876 742.392 686.403 760.115 604.119C777.838 521.835 796.362 439.04 815.689 355.734C820.968 333.087 826.248 310.414 831.527 287.717C837.148 263.707 845.294 240.403 852.994 216.943C854.236 213.306 848.444 211.661 847.276 215.299L847.132 214.999Z" fill="#E96262" stroke="#E96262" stroke-width="0.493985"/>
<path d="M860.142 233.819C844.397 295.051 825.531 355.495 808.745 416.489C800.352 447.023 792.404 477.713 785.644 508.717C780.717 531.021 776.748 554.234 772.559 577.07C765.876 613.37 758.821 649.664 751.617 685.882C743.622 725.445 735.628 764.934 727.113 804.341C721.624 829.62 716.725 855.429 708.933 880.081C708.468 881.417 708.077 882.754 707.538 884.014L710.474 881.892L654.529 879.114L520.437 872.659L358.038 864.773L217.611 858.231L171.349 856.033C163.896 855.931 156.456 854.86 149.522 854.915C149.2 854.948 148.875 854.943 148.554 854.901C144.678 854.848 144.597 860.739 148.472 860.866L204.418 863.569L338.509 870.099L500.908 877.985L640.885 884.744L687.147 886.942C694.6 887.044 702.039 888.19 708.975 887.986L709.944 887.999C710.605 888 711.249 887.787 711.778 887.391C712.308 886.994 712.695 886.437 712.881 885.802C715.63 877.79 717.931 869.631 719.774 861.362C723.247 847.241 726.523 833.043 729.6 818.767C738.1 780.404 746.006 741.884 753.54 703.358C761.073 664.833 768.432 628.17 775.506 590.533C779.047 571.417 782.216 552.295 785.978 533.33C792.143 502.244 799.645 471.473 807.741 440.86C823.933 379.709 842.797 319.34 859.286 258.267C861.251 250.837 863.291 243.407 865.256 235.977C865.474 235.209 865.378 234.385 864.989 233.688C864.6 232.99 863.95 232.476 863.182 232.257C862.414 232.039 861.591 232.135 860.894 232.524C860.196 232.913 859.682 233.564 859.464 234.332L860.142 233.819Z" fill="#E96262" stroke="#E96262" stroke-width="0.493985"/>
<path d="M99.2519 791.587C253.63 731.802 434.05 784.752 591.849 807.489C624.491 812.56 657.684 813.013 690.453 808.836L690.483 806.599C697.748 776.87 698.155 747.047 705.45 715.08C751.619 527.641 785.527 337.349 829.309 150.026C792.515 158.696 756.723 154.031 717.54 146.561C639.706 136.325 569.073 100.983 493.656 88.4683C404.438 71.2166 335.732 74.9014 246.045 92.0209L99.2519 791.587Z" fill="#E96262"/>
<path d="M100.114 794.507C171.904 766.927 249.626 763.515 325.575 769.847C402.939 776.273 479.054 792.301 555.515 804.83C576.712 808.326 598.055 812.123 619.428 813.682C643.121 815.337 666.919 814.713 690.494 811.819C691.279 811.811 692.031 811.501 692.593 810.953C693.156 810.406 693.486 809.663 693.516 808.878C693.849 805.08 694.524 801.321 695.533 797.645C696.496 792.662 697.386 787.528 698.122 782.766C699.677 772.571 700.861 762.296 702.194 752.023C705.459 730.163 709.885 708.492 715.456 687.103C725.737 643.893 735.572 600.577 744.961 557.155C763.735 470.684 781.319 383.974 799.722 297.423C810.153 248.647 820.806 200.022 832.129 151.482C832.265 150.975 832.268 150.443 832.138 149.935C832.009 149.427 831.751 148.961 831.389 148.582C831.027 148.202 830.574 147.922 830.073 147.769C829.572 147.615 829.04 147.593 828.528 147.704C809.361 151.932 789.669 153.271 770.106 151.678C749.626 150.206 729.555 146.128 709.322 142.943C671.72 136.072 634.697 126.343 598.574 113.839C580.241 107.996 561.908 102.152 543.415 97.1271C524.922 92.1018 506.264 88.2676 487.525 84.8796C450.221 77.8406 412.314 74.5002 374.354 74.9069C331.076 76.0944 287.983 81.045 245.562 89.7025C245.055 89.818 244.588 90.0714 244.215 90.4346C243.842 90.7979 243.576 91.257 243.447 91.7616L239.464 110.499L228.778 161.51L212.843 236.609L193.473 328.516L172.268 429.271L151.288 529.88L131.357 624.687L114.533 704.845L102.493 762.25C100.58 771.322 98.5168 780.466 96.7518 789.614C96.7467 789.987 96.7416 790.36 96.7355 790.807C96.0138 794.526 101.73 796.245 102.528 792.452L106.436 773.714L116.899 722.626L132.834 647.526L152.13 555.619L173.185 454.936L194.695 353.663L214.626 258.856L231.45 178.698L243.565 121.294L247.315 103.299C248.192 100.225 248.858 97.0945 249.306 93.9296C249.276 93.5323 249.282 93.1331 249.323 92.7367L247.207 94.7959C285.692 87.0682 324.707 82.2663 363.917 80.4318C402.096 79.2698 440.296 81.9653 477.934 88.4771C497.271 91.7987 516.453 95.4911 535.468 100.449C554.484 105.407 571.853 110.864 589.888 116.629C625.968 129.108 662.837 139.178 700.25 146.772C743.158 154.368 786.949 162.871 830.172 152.872L826.571 149.094C806.225 236.065 788.033 323.588 769.769 410.96C751.505 498.332 733.475 584.888 713.064 671.187C707.37 695.121 700.932 718.896 697.17 743.304C695.522 754.766 694.248 766.233 692.6 777.694C691.773 783.649 690.797 789.601 689.599 795.476C688.416 799.784 687.632 804.191 687.257 808.643L690.279 805.701C669.003 808.281 647.545 809.036 626.14 807.957C606.325 806.582 586.599 804.121 567.053 800.588C529.043 794.55 491.196 787.471 453.267 780.987C377.259 768.092 299.884 756.968 222.435 762.248C179.933 764.76 138.049 773.64 98.1821 788.59C95.0315 790.038 96.5172 795.875 100.114 794.507Z" fill="#E96262" stroke="#E96262" stroke-width="0.493985"/>
<path d="M295.143 126.845C292.057 125.791 288.733 125.642 285.565 126.419C282.397 127.195 279.517 128.863 277.267 131.225C275.479 133.456 274.338 136.136 273.971 138.972C273.603 141.808 274.023 144.69 275.184 147.304C276.515 150.095 278.61 152.451 281.227 154.097C283.844 155.744 286.874 156.613 289.966 156.603C293.556 156.824 297.116 155.825 300.067 153.767C303.018 151.709 305.187 148.713 306.222 145.267C306.789 143.464 306.996 141.566 306.83 139.683C306.664 137.8 306.128 135.968 305.254 134.292C304.193 132.389 302.746 130.73 301.004 129.422C299.263 128.114 297.267 127.185 295.145 126.696C291.357 125.675 289.713 131.469 293.427 132.415C294.268 132.621 295.088 132.907 295.875 133.269L296.397 133.276L297.506 133.962C297.506 133.962 298.317 134.644 297.506 133.962L298.241 134.718L298.976 135.474C298.976 135.474 298.97 135.921 298.976 135.474L299.341 136.075L299.778 136.827C299.778 136.827 300.212 137.802 299.769 137.423C299.327 137.044 299.762 137.945 299.761 138.02L299.747 139.064C299.78 139.211 299.778 139.364 299.741 139.511V139.511C299.741 139.511 299.733 140.107 299.729 140.406L299.716 141.3C299.716 141.3 299.716 141.3 299.708 141.897C299.7 142.493 299.714 141.449 299.708 141.897C299.743 142.468 299.735 143.041 299.685 143.612C299.68 143.984 299.676 144.283 299.672 144.581C299.642 144.778 299.64 144.979 299.664 145.177C299.377 145.722 299.046 146.241 298.673 146.73C298.703 146.853 298.701 146.981 298.668 147.103C299.122 146.587 298.668 147.103 298.668 147.103L297.912 147.913L297.157 148.573C297.157 148.573 296.629 149.014 297.157 148.573L296.785 148.568C296.209 148.952 295.607 149.293 294.982 149.588L294.534 149.582C295.131 149.59 294.534 149.582 294.534 149.582L293.491 149.567L292.373 149.552L291.926 149.546C292.597 149.555 291.926 149.546 291.926 149.546L288.721 149.502C289.466 149.512 288.721 149.502 288.125 149.494L286.417 149.023L285.82 149.015L285.15 149.006C284.655 148.745 284.185 148.439 283.746 148.092C283.007 147.634 283.746 148.092 283.746 148.092L283.009 147.485L281.98 146.353C282.569 146.957 281.98 146.353 281.98 146.353C281.785 146.119 281.614 145.867 281.469 145.6L281.479 144.854C281.479 144.854 281.12 143.88 281.479 144.854C281.486 144.332 281.492 143.885 280.978 143.356C280.946 143.108 280.95 142.857 280.988 142.61C280.988 142.61 281.004 141.418 280.988 142.61C280.958 142.089 280.965 141.566 281.009 141.045C281.016 140.523 281.023 140.075 281.03 139.554C281.037 139.032 281.021 140.225 281.03 139.554C281.067 139.407 281.069 139.254 281.036 139.106L281.047 138.286C281.053 137.839 281.058 137.466 281.437 137.024L281.895 136.21L282.352 135.545L282.357 135.172C282.357 135.172 282.351 135.619 282.357 135.172L283.641 133.922C283.641 133.922 283.194 133.916 283.641 133.922L284.393 133.485L285.218 133.049L285.666 133.055C285.666 133.055 285.144 133.048 285.666 133.055L287.612 132.485L288.133 132.492C288.73 132.5 288.133 132.492 288.133 132.492L289.251 132.507C290.07 132.444 290.894 132.455 291.711 132.541L292.456 132.551L293.947 132.571C294.322 132.684 294.716 132.722 295.106 132.682C295.496 132.643 295.874 132.527 296.219 132.341C296.565 132.156 296.87 131.904 297.118 131.6C297.366 131.296 297.551 130.947 297.664 130.571C297.777 130.196 297.815 129.802 297.775 129.412C297.736 129.022 297.62 128.643 297.434 128.298C297.249 127.952 296.997 127.647 296.693 127.399C296.39 127.151 296.04 126.965 295.665 126.853L295.143 126.845Z" fill="#E96262" stroke="#E96262" stroke-width="0.493985"/>
<path d="M222.956 543.686C219.873 542.655 216.559 542.527 213.405 543.316C210.252 544.106 207.389 545.779 205.154 548.141C203.357 550.368 202.212 553.048 201.844 555.886C201.477 558.724 201.901 561.608 203.07 564.22C204.422 566.995 206.523 569.336 209.135 570.979C211.747 572.622 214.767 573.502 217.852 573.52C221.445 573.696 224.993 572.67 227.938 570.604C230.882 568.537 233.054 565.548 234.11 562.108C235.199 558.46 234.853 554.534 233.141 551.133C232.073 549.222 230.613 547.558 228.859 546.249C227.104 544.941 225.094 544.016 222.958 543.537C219.244 542.591 217.6 548.311 221.314 549.256L223.763 550.11L224.284 550.117L225.393 550.804C225.393 550.804 226.204 551.486 225.393 550.804L226.128 551.559L226.864 552.315C226.864 552.315 226.857 552.762 226.864 552.315L226.856 552.837L227.293 553.589C227.293 553.589 227.727 554.564 227.285 554.185C226.843 553.806 227.278 554.707 227.276 554.856L227.263 555.825C227.296 555.973 227.294 556.126 227.257 556.273V556.273C227.257 556.273 227.25 556.795 227.245 557.093L227.232 558.062C227.232 558.062 227.232 558.062 227.225 558.584C227.218 559.106 227.231 558.137 227.225 558.584C227.253 559.18 227.245 559.778 227.201 560.373L227.188 561.268C227.183 561.641 227.196 560.746 227.188 561.268L227.18 561.865C227.172 562.461 226.494 562.974 226.189 563.492C225.977 563.797 225.722 564.069 225.433 564.302L224.678 564.962C224.678 564.962 224.15 565.403 224.678 564.962L222.874 566.056L222.427 566.05C223.023 566.058 222.427 566.05 222.427 566.05L221.588 567.456L220.47 567.44L220.023 567.434C220.693 567.443 220.023 567.434 220.023 567.434C219.303 567.499 218.579 567.489 217.861 567.405L216.743 567.389C217.488 567.4 216.743 567.389 216.221 567.382C215.633 567.305 215.058 567.147 214.513 566.912L213.619 566.899C213.172 566.893 214.29 566.909 213.619 566.899L213.172 566.893C212.678 566.658 212.208 566.377 211.767 566.054C211.028 565.596 211.767 566.054 211.767 566.054C211.489 565.894 211.24 565.689 211.03 565.447L210.002 564.315C210.59 564.919 210.002 564.315 210.002 564.315L209.565 563.563L209.201 562.887C209.201 562.887 209.215 561.843 209.201 562.887C209.207 562.439 209.214 561.918 208.7 561.388C208.669 561.141 208.672 560.89 208.71 560.643C208.71 560.643 208.726 559.45 208.71 560.643C208.68 560.121 208.687 559.598 208.731 559.077C208.737 558.63 208.745 558.108 208.752 557.586C208.759 557.064 208.743 558.257 208.752 557.586C208.782 557.464 208.784 557.336 208.757 557.213L208.769 556.318C208.742 555.896 208.748 555.472 208.786 555.051V555.051L209.244 554.311L209.701 553.572L209.706 553.199C209.706 553.199 209.327 553.642 209.706 553.199L210.991 551.949L211.742 551.512L212.568 551.076L213.015 551.082C213.015 551.082 212.493 551.075 213.015 551.082L214.961 550.512L215.483 550.519C216.079 550.527 215.036 550.513 215.483 550.519L216.601 550.534C217.395 550.47 218.194 550.481 218.986 550.567L219.806 550.578L221.296 550.598C221.68 550.738 222.089 550.797 222.497 550.772C222.905 550.747 223.303 550.638 223.668 550.453C224.032 550.267 224.354 550.008 224.614 549.693C224.874 549.378 225.067 549.012 225.18 548.619C225.292 548.226 225.323 547.814 225.27 547.409C225.218 547.003 225.082 546.613 224.872 546.262C224.662 545.912 224.382 545.608 224.049 545.37C223.717 545.132 223.339 544.965 222.94 544.879L222.956 543.686Z" fill="#E96262" stroke="#E96262" stroke-width="0.493985"/>
<path d="M255.245 417.279C255.359 413.899 254.471 410.56 252.693 407.683C250.915 404.806 248.327 402.519 245.253 401.11C242.628 400.159 239.793 399.942 237.053 400.483C234.314 401.023 231.773 402.301 229.706 404.178C227.398 406.36 225.763 409.157 224.994 412.239C224.226 415.321 224.355 418.559 225.368 421.569C226.318 425.005 228.371 428.034 231.211 430.188C234.05 432.343 237.519 433.503 241.083 433.491C244.84 433.412 248.428 431.916 251.13 429.304C252.568 427.726 253.673 425.874 254.379 423.859C255.085 421.845 255.378 419.708 255.241 417.577C255.214 416.785 254.888 416.033 254.328 415.471C253.769 414.91 253.017 414.582 252.226 414.553C251.441 414.562 250.689 414.872 250.126 415.419C249.564 415.967 249.233 416.71 249.204 417.495C249.267 418.314 249.256 419.138 249.17 419.955C249.17 419.955 249.165 420.328 249.163 420.477C249.161 420.626 249.163 420.477 249.163 420.477C249.199 420.899 249.194 421.324 249.146 421.745C249.172 422.092 249.167 422.442 249.131 422.789C249.131 422.789 249.125 423.236 249.131 422.789L249.126 423.161L248.667 424.05L248.661 424.497L247.451 425.748C247.451 425.748 246.849 426.188 247.451 425.748L246.624 426.259L245.874 426.622L245.426 426.616L243.556 427.112C242.736 427.101 243.556 427.112 243.556 427.112L242.513 427.098L240.649 427.072C241.544 427.085 240.649 427.072 240.649 427.072L239.755 427.06L238.935 427.049L238.488 427.043L236.861 426.051C236.557 425.839 236.284 425.584 236.052 425.294L235.391 424.54C234.959 423.889 234.57 423.211 234.226 422.51L234.232 422.063C234.232 422.063 234.225 422.585 234.232 422.063C234.239 421.541 234.242 421.392 234.247 421.019C234.04 420.256 233.876 419.482 233.756 418.701C233.747 419.372 233.756 418.701 233.756 418.701C233.756 418.701 233.766 418.03 233.77 417.731C233.734 417.409 233.739 417.084 233.783 416.762C233.783 416.762 233.801 415.42 233.789 416.315C233.72 415.745 233.728 415.168 233.812 414.6L233.823 413.855C233.823 413.855 233.823 413.854 233.828 413.482C233.833 413.109 233.821 414.004 233.828 413.482L234.667 412.076L235.122 411.486C235.129 410.964 234.675 411.48 235.122 411.486L236.256 410.383L236.782 410.017L238.06 409.289L238.507 409.295L239.103 409.303L240.519 409.322L241.264 409.333C240.519 409.322 241.264 409.333 241.264 409.333L243.5 409.363C242.531 409.35 243.5 409.363 243.5 409.363L245.133 409.908C245.655 409.915 244.611 409.9 245.133 409.908L245.947 410.366L246.685 410.898C246.685 410.898 246.17 410.369 246.685 410.898L248.081 412.334C247.568 411.73 248.081 412.334 248.076 412.707C248.218 413.023 248.388 413.325 248.586 413.609L249.02 414.584C249.014 415.031 249.02 414.584 249.02 414.584L249.012 415.181C249.001 415.926 249.437 416.752 249.576 417.5C249.715 418.248 249.57 417.947 249.567 418.171C249.564 418.395 249.555 419.066 249.56 418.693C249.565 418.32 249.56 418.693 249.56 418.693C249.595 419.015 249.591 419.341 249.547 419.662C249.572 420.442 249.888 421.184 250.432 421.743C250.976 422.302 251.709 422.638 252.487 422.685C253.166 422.838 253.876 422.761 254.506 422.466C255.136 422.17 255.649 421.674 255.965 421.054C256.282 420.434 256.382 419.726 256.252 419.043C256.121 418.359 255.767 417.739 255.245 417.279V417.279Z" fill="#E96262" stroke="#E96262" stroke-width="0.493985"/>
<path d="M263.409 267.279C260.059 267.368 256.808 268.432 254.055 270.341C251.301 272.251 249.164 274.923 247.906 278.029C247.107 280.688 247.033 283.511 247.691 286.208C248.349 288.904 249.714 291.376 251.647 293.368C253.947 295.592 256.843 297.102 259.984 297.714C263.124 298.326 266.375 298.014 269.342 296.816C272.654 295.664 275.498 293.458 277.436 290.534C279.375 287.611 280.301 284.132 280.073 280.631C279.896 276.905 278.256 273.399 275.51 270.875C273.905 269.458 272.012 268.403 269.963 267.783C267.913 267.163 265.754 266.992 263.632 267.282C262.842 267.271 262.079 267.575 261.512 268.127C260.946 268.678 260.621 269.433 260.61 270.224C260.6 271.015 260.903 271.777 261.455 272.344C262.006 272.911 262.76 273.236 263.551 273.247L266.01 273.28L267.128 273.296C267.65 273.303 266.681 273.289 267.128 273.296L267.799 273.305L269.654 273.927C268.909 273.916 269.654 273.927 270.101 273.933L270.989 274.467C270.398 274.011 270.989 274.467 270.989 274.467L271.65 275.147L272.312 275.827L272.305 276.349L273.178 277.927C273.186 277.331 273.178 277.927 273.178 277.927C273.196 278.25 273.191 278.574 273.164 278.896L273.15 279.94C273.15 279.94 273.143 280.462 273.15 279.94L273.144 280.388C273.174 281.034 273.165 281.681 273.118 282.326C273.118 282.326 273.102 283.444 273.118 282.326C273.118 282.326 273.108 282.997 273.104 283.295C272.942 283.928 272.734 284.548 272.483 285.151C272.491 284.555 272.483 285.151 272.483 285.151C272.332 285.463 272.154 285.76 271.949 286.039L271.491 286.778C271.872 286.187 271.491 286.778 271.491 286.778L270.056 288.175L269.609 288.169C269.275 288.472 268.894 288.719 268.481 288.9C268.481 288.9 267.355 289.406 267.959 288.892L266.985 289.252L264.665 289.891L263.771 289.879C264.591 289.89 263.771 289.879 263.324 289.873C262.679 289.939 262.029 289.93 261.386 289.847L260.939 289.841C260.268 289.831 261.46 289.848 260.939 289.841L260.044 289.828L258.486 289.285C257.666 289.274 258.934 289.291 258.486 289.285L257.816 289.276L257.15 288.894L256.633 288.514L256.119 287.985L255.531 287.38C255.536 287.008 255.895 287.982 255.531 287.38C255.237 286.971 254.969 286.544 254.728 286.102L254.737 285.431C254.737 285.431 254.728 286.102 254.737 285.431L254.31 283.933C254.31 283.933 254.316 283.561 254.319 283.337C254.322 283.113 254.333 282.293 254.319 283.337C254.289 282.815 254.296 282.292 254.34 281.771L254.35 281.026C254.35 281.026 254.35 281.026 254.356 280.578C254.362 280.131 254.348 281.175 254.356 280.578C254.469 279.997 254.626 279.426 254.827 278.87C254.827 278.87 255.364 277.758 254.827 278.87L254.837 278.124L255.295 277.31C255.295 277.31 255.977 276.499 255.295 277.31L256.657 275.837C256.779 275.87 256.907 275.872 257.03 275.842L257.932 275.258L258.834 274.748L259.356 274.755L261.677 273.967L263.019 273.985L264.062 273.999C264.842 273.974 265.584 273.658 266.143 273.114C266.702 272.57 267.037 271.837 267.084 271.058C266.37 268.811 264.977 267.077 263.409 267.279Z" fill="#E96262" stroke="#E96262" stroke-width="0.493985"/>
<path d="M192.607 664.002C189.208 664.043 185.899 665.094 183.098 667.021C180.298 668.948 178.133 671.664 176.879 674.824C176.161 677.436 176.136 680.19 176.806 682.814C177.476 685.439 178.818 687.844 180.7 689.791C182.984 692.017 185.867 693.529 188.997 694.141C192.126 694.753 195.366 694.44 198.32 693.238C201.64 692.089 204.492 689.886 206.443 686.964C208.394 684.042 209.337 680.562 209.127 677.054C208.874 673.347 207.247 669.868 204.564 667.298C202.929 665.903 201.022 664.863 198.965 664.245C196.907 663.626 194.743 663.442 192.611 663.704C191.826 663.712 191.074 664.022 190.512 664.57C189.949 665.118 189.619 665.861 189.589 666.646C189.584 667.037 189.655 667.426 189.8 667.79C189.945 668.154 190.16 668.486 190.433 668.767C190.706 669.047 191.032 669.271 191.392 669.426C191.751 669.581 192.138 669.664 192.529 669.669C193.349 669.606 194.172 669.617 194.989 669.703L196.181 669.719C196.629 669.725 195.66 669.712 196.181 669.719L196.927 669.729L198.782 670.351C197.962 670.34 198.782 670.351 199.229 670.357L200.116 670.891L200.779 671.497L201.366 672.176C201.35 672.349 201.347 672.524 201.359 672.698C201.678 673.208 201.969 673.734 202.232 674.276C202.24 673.679 202.232 674.276 202.232 674.276C202.232 674.276 202.223 674.947 202.219 675.245L202.204 676.289C202.204 676.289 202.197 676.811 202.204 676.289C202.212 675.767 202.204 676.289 202.198 676.736C202.227 677.382 202.218 678.03 202.172 678.675C202.172 678.675 202.157 679.793 202.172 678.675L202.159 679.644C202.034 680.287 201.825 680.911 201.537 681.5C201.545 680.903 201.537 681.5 201.537 681.5C201.537 681.5 201.529 682.096 201.002 682.462L200.471 683.126L200.466 683.499C200.921 682.908 200.466 683.499 200.466 683.499L198.956 684.895C198.951 685.268 198.956 684.895 198.956 684.895L197.828 685.625C197.828 685.625 196.703 686.132 197.306 685.618L196.332 685.977L193.938 686.616L193.044 686.604C193.863 686.615 193.044 686.604 192.671 686.599L190.137 686.564L189.317 686.553L187.685 686.008C186.865 685.997 188.132 686.015 187.685 686.008L187.019 685.627L186.353 685.244L185.837 684.865L185.396 684.337C185.164 684.174 184.964 683.969 184.808 683.732V683.732C184.813 683.359 184.8 684.329 184.808 683.732L184.006 682.453C184.034 682.231 184.037 682.006 184.015 681.782C184.022 681.26 184.006 682.453 184.015 681.782L183.513 680.359C183.551 680.137 183.554 679.91 183.522 679.688C183.528 679.24 183.535 678.718 183.522 679.688C183.492 679.166 183.499 678.643 183.543 678.122C183.51 677.874 183.513 677.623 183.553 677.376L183.559 676.929C183.567 676.407 183.551 677.525 183.559 676.929C183.568 676.332 183.576 675.736 183.583 675.214C183.59 674.692 184.12 674.103 183.583 675.214C183.74 674.983 183.868 674.735 183.966 674.474L184.424 673.66C184.424 673.66 185.106 672.849 184.424 673.66C184.799 673.123 185.259 672.65 185.785 672.261C185.785 672.261 185.785 672.261 185.79 671.889C185.795 671.516 185.263 672.254 185.79 671.889L186.618 671.303L187.594 670.795L188.116 670.802C188.842 670.497 189.593 670.257 190.362 670.087L191.783 669.733L192.752 669.746C193.537 669.738 194.289 669.428 194.851 668.88C195.414 668.333 195.744 667.59 195.774 666.805C195.761 666.409 195.668 666.02 195.499 665.662C195.331 665.303 195.091 664.983 194.795 664.721C194.498 664.458 194.151 664.259 193.775 664.136C193.399 664.012 193.001 663.967 192.607 664.002V664.002Z" fill="#E96262" stroke="#E96262" stroke-width="0.493985"/>
<path d="M290.421 134.313C281.583 121.071 268.039 111.688 252.538 108.068C236.426 105.026 219.759 108.209 205.901 116.977C195.137 124.137 187.054 134.67 182.92 146.922C178.786 159.174 178.835 172.453 183.06 184.674C188.022 197.941 197.604 211.42 211.878 214.225C219.313 215.669 222.75 204.158 215.241 202.713C210.824 202.248 206.762 200.079 203.918 196.667C200.542 192.66 197.696 188.235 195.451 183.501C191.237 174.115 190.458 163.545 193.249 153.642C196.467 142.645 203.459 133.135 212.995 126.786C222.531 120.438 234 117.657 245.383 118.933C261.541 120.272 272.437 130.264 281.812 142.473C286.574 148.578 295.112 140.194 290.423 134.164L290.421 134.313Z" fill="#E96262" stroke="#E96262" stroke-width="0.493985"/>
<path d="M262.84 275.325C254.007 262.077 240.461 252.693 224.958 249.08C208.845 245.984 192.159 249.171 178.32 257.988C167.537 265.131 159.438 275.663 155.302 287.921C151.166 300.18 151.228 313.467 155.479 325.686C160.442 338.953 169.576 352.426 184.223 355.236C191.657 356.68 195.169 345.169 187.585 343.723C183.173 343.243 179.117 341.077 176.262 337.677C172.91 333.669 170.089 329.244 167.87 324.513C163.705 315.116 162.901 304.572 165.594 294.653C168.842 283.664 175.854 274.17 185.4 267.837C194.947 261.503 206.418 258.736 217.801 260.019C233.885 261.283 244.781 271.275 254.23 283.559C258.917 289.664 267.455 281.279 262.842 275.25L262.84 275.325Z" fill="#E96262" stroke="#E96262" stroke-width="0.493985"/>
<path d="M237.2 406.967C228.4 393.687 214.839 384.293 199.317 380.723C183.228 377.677 166.584 380.862 152.754 389.632C141.902 396.719 133.721 407.223 129.504 419.482C125.286 431.741 125.273 445.056 129.466 457.323C134.503 470.591 144.01 484.069 158.284 486.874C165.719 488.318 169.23 476.808 161.647 475.362C157.234 474.881 153.178 472.716 150.324 469.316C146.971 465.307 144.15 460.883 141.931 456.151C137.693 446.774 136.887 436.203 139.655 426.291C142.873 415.294 149.865 405.784 159.401 399.436C168.937 393.087 180.406 390.306 191.789 391.582C207.947 392.921 218.843 402.913 228.292 415.123C232.98 421.228 241.518 412.843 236.829 406.813L237.2 406.967Z" fill="#E96262" stroke="#E96262" stroke-width="0.493985"/>
<path d="M217.509 549.651C208.871 537.226 197.275 527.15 183.769 520.331C175.742 517.324 167.191 515.971 158.628 516.353C150.065 516.736 141.669 518.847 133.942 522.559C121.851 528.378 112.13 538.184 106.412 550.327C100.694 562.47 99.3277 576.212 102.543 589.244C104.636 596.585 108.054 603.48 112.626 609.591C116.327 614.855 121.225 619.165 126.916 622.165C133.648 625.986 139.826 615.705 133.095 611.884C129.456 610.073 126.259 607.483 123.731 604.299C120.103 599.766 117.204 594.695 115.14 589.267C111.775 579.305 111.923 568.49 115.559 558.624C120.368 546.97 129.441 537.59 140.926 532.398C152.411 527.206 165.444 526.593 177.365 530.684C190.28 534.812 201.137 547.638 209.12 558.038C213.882 564.143 222.421 555.684 217.733 549.654L217.509 549.651Z" fill="#E96262" stroke="#E96262" stroke-width="0.493985"/>
<path d="M193.902 673.118C185.255 660.673 173.63 650.592 160.087 643.797C152.069 640.808 143.532 639.465 134.985 639.848C126.437 640.231 118.054 642.332 110.335 646.025C98.2345 651.834 88.5047 661.638 82.7853 673.785C77.0658 685.931 75.7063 699.679 78.9356 712.711C80.9822 720.07 84.4038 726.974 89.0193 733.058C92.7006 738.34 97.603 742.653 103.309 745.632C110.041 749.452 116.219 739.172 109.488 735.351C105.883 733.649 102.687 731.188 100.119 728.139C96.4908 723.606 93.5922 718.534 91.5282 713.107C88.1629 703.145 88.3107 692.33 91.9468 682.464C96.6828 670.842 105.654 661.453 117.046 656.196C128.437 650.939 141.4 650.206 153.311 654.144C166.225 658.273 177.008 671.097 185.066 681.498C189.828 687.604 198.367 679.145 193.679 673.115L193.902 673.118Z" fill="#E96262" stroke="#E96262" stroke-width="0.493985"/>
</svg>
