<svg width="1008" height="569" viewBox="0 0 1008 569" fill="none" xmlns="http://www.w3.org/2000/svg">
<path d="M524.376 567.534C523.686 567.539 523.012 567.335 522.45 566.949C504.544 554.57 480.28 535.028 463.546 510.67C459.37 518.256 455.698 526.745 452.133 535.01C447.732 545.188 443.181 555.72 437.612 564.762C437.315 565.256 436.884 565.663 436.365 565.94C435.847 566.216 435.26 566.351 434.668 566.331C434.076 566.31 433.502 566.135 433.005 565.823C432.508 565.512 432.109 565.076 431.849 564.562C422.679 546.88 403.731 527.958 388.491 512.669L384.579 508.748C380.159 516.138 375.889 524.065 371.74 531.769C366.862 540.809 361.822 550.111 356.522 558.707C356.241 559.159 355.847 559.536 355.376 559.804C354.906 560.072 354.374 560.223 353.828 560.244C353.282 560.264 352.739 560.153 352.249 559.921C351.759 559.688 351.335 559.342 351.018 558.912C343.013 548.035 331.836 537.648 321.025 527.548C310.921 518.179 300.518 508.51 292.405 498.222C286.814 503.337 280.493 509.225 274.348 514.942C267.161 521.63 259.73 528.554 253.49 534.219C253.019 534.65 252.426 534.936 251.786 535.042C251.146 535.147 250.489 535.067 249.896 534.812C249.304 534.556 248.803 534.137 248.457 533.607C248.111 533.077 247.936 532.459 247.954 531.833C250.087 446.851 252.229 361.864 254.38 276.873C256.532 191.882 258.678 106.891 260.821 21.9005C260.84 21.074 261.194 20.2876 261.806 19.7094C262.418 19.1312 263.24 18.8068 264.096 18.8056L264.177 18.8055C264.61 18.815 265.036 18.9068 265.431 19.0757C265.826 19.2445 266.183 19.4871 266.481 19.7894C266.779 20.0918 267.012 20.448 267.166 20.8376C267.321 21.2272 267.395 21.6425 267.383 22.0596C265.241 107.042 263.099 192.028 260.956 277.019C258.873 359.471 256.789 441.918 254.706 524.361C259.511 519.941 264.709 515.102 269.785 510.382C276.958 503.707 284.376 496.796 290.602 491.144C290.942 490.83 291.348 490.591 291.792 490.443C292.237 490.295 292.709 490.242 293.177 490.287C293.645 490.332 294.097 490.475 294.502 490.705C294.908 490.935 295.256 491.247 295.525 491.62C303.544 502.523 314.748 512.924 325.572 522.985C335.337 532.052 345.387 541.382 353.377 551.29C357.675 544.031 361.851 536.301 365.905 528.781C370.783 519.741 375.837 510.438 381.123 501.843C381.381 501.42 381.737 501.062 382.163 500.795C382.589 500.528 383.073 500.36 383.578 500.305C384.083 500.249 384.594 500.308 385.071 500.475C385.548 500.643 385.979 500.916 386.328 501.271C388.529 503.506 390.838 505.819 393.228 508.21C407.341 522.323 424.577 539.573 434.831 556.572C438.885 549.065 442.544 540.707 446.055 532.56C450.456 522.408 454.993 511.902 460.535 502.874C460.826 502.404 461.236 502.014 461.727 501.741C462.217 501.467 462.773 501.319 463.339 501.311V501.311C463.904 501.311 464.459 501.451 464.951 501.719C465.443 501.986 465.856 502.372 466.148 502.838C481.527 527.172 505.344 547.029 523.576 559.918C529.329 551.527 534.491 542.772 539.026 533.712C544.106 524.082 549.362 514.06 556.869 504.125C557.197 503.691 557.632 503.344 558.136 503.117C558.64 502.889 559.196 502.789 559.751 502.824C560.306 502.86 560.842 503.031 561.311 503.321C561.779 503.611 562.163 504.01 562.428 504.482C567.257 513.179 572.767 523.288 578.086 533.083C582.439 541.087 586.914 549.3 591.022 556.767C596.43 548.315 602.162 538.907 607.759 529.748C614.437 518.846 621.277 507.577 627.564 497.946C627.848 497.508 628.239 497.144 628.703 496.886C629.166 496.628 629.688 496.483 630.223 496.464C630.757 496.445 631.289 496.552 631.771 496.777C632.252 497.002 632.67 497.337 632.987 497.753C647.486 516.667 664.342 533.784 683.177 548.719C685.201 542.844 686.594 536.784 687.334 530.635C688.54 522.857 689.8 514.805 693.704 507.062C693.944 506.585 694.305 506.173 694.752 505.865C695.2 505.556 695.72 505.36 696.266 505.296C696.812 505.231 697.365 505.299 697.877 505.494C698.388 505.689 698.841 506.005 699.194 506.412C706.531 514.921 715.698 523.662 724.554 532.13C731.48 538.663 738.57 545.497 744.927 552.253C754.057 352.619 755.359 180.265 749.154 10.4879C749.169 9.67402 749.506 8.89641 750.096 8.31514C750.686 7.73388 751.485 7.3933 752.327 7.36337C753.17 7.33343 753.992 7.61647 754.625 8.15428C755.258 8.69208 755.653 9.44373 755.73 10.2544C762.02 182.453 760.56 357.282 751.125 560.463C751.097 561.103 750.87 561.719 750.472 562.231C750.075 562.743 749.526 563.126 748.898 563.332C748.271 563.537 747.593 563.553 746.955 563.38C746.318 563.206 745.749 562.85 745.325 562.358C737.988 553.849 728.821 545.107 719.952 536.64C712.319 529.362 704.482 521.875 697.663 514.425C695.836 520.024 694.558 525.776 693.843 531.605C692.624 539.383 691.377 547.422 687.473 555.178C687.259 555.605 686.949 555.98 686.565 556.276C686.181 556.571 685.733 556.78 685.254 556.887C684.776 556.993 684.278 556.994 683.799 556.89C683.32 556.786 682.871 556.579 682.485 556.286C663.084 541.394 645.658 524.252 630.601 505.245C625.098 513.88 619.177 523.589 613.418 532.971C606.74 543.873 599.9 555.155 593.6 564.8C593.298 565.272 592.872 565.658 592.365 565.919C591.858 566.18 591.288 566.306 590.714 566.284C590.137 566.266 589.576 566.102 589.085 565.809C588.594 565.516 588.192 565.103 587.918 564.613C583.089 555.929 577.594 545.807 572.261 536.025C567.854 527.917 563.323 519.586 559.161 512.041C553.904 519.941 549.138 528.136 544.888 536.582C539.794 546.224 534.524 556.234 527.004 566.208C526.704 566.612 526.31 566.942 525.853 567.173C525.397 567.403 524.891 567.527 524.376 567.534Z" fill="#E96262" stroke="#E96262" stroke-width="1.85706"/>
<path d="M747.864 560.324C733 543.084 711.574 525.685 696.696 508.444C689.32 523.117 691.898 539.135 684.576 553.821C664.126 538.145 645.912 519.928 630.408 499.642C617.983 518.839 603.304 543.944 590.879 563.141C581.234 545.788 569.235 523.346 559.591 506.005C544.862 525.599 539.148 544.772 524.445 564.366C501.368 548.448 478.2 527.793 463.447 504.492C452.632 522.181 445.746 545.453 434.864 563.143C424.047 542.217 400.701 520.436 384.021 503.513C373.531 520.456 364.265 540.197 353.774 557.075C337.383 534.85 309.31 515.799 292.932 493.522C283.985 501.639 272.832 512.104 262.653 521.546C258.592 525.257 254.816 528.784 251.31 532.036C255.586 362.063 259.875 192.081 264.177 22.0907L273.884 21.865L752.47 10.4166C759.203 194.918 756.529 373.545 747.864 560.324Z" fill="#E96262"/>
<path d="M4.18141 32.2918C3.3445 32.2509 2.55459 31.8926 1.97248 31.2899C1.39036 30.6872 1.05968 29.8854 1.04785 29.0476C1.03603 28.2098 1.34396 27.3989 1.90883 26.78C2.4737 26.1611 3.25308 25.7808 4.08851 25.7163C67.7824 24.1589 131.476 22.5789 195.17 20.9763L1001.96 1.0069L1002.04 1.00676C1002.88 1.0497 1003.67 1.40981 1004.25 2.01366C1004.83 2.6175 1005.16 3.41983 1005.17 4.25747C1005.18 5.09511 1004.87 5.9051 1004.3 6.52277C1003.73 7.14044 1002.96 7.51925 1002.12 7.58234L195.331 27.5518L4.2491 32.2917L4.18141 32.2918Z" fill="#E96262"/>
<path fill-rule="evenodd" clip-rule="evenodd" d="M1001.95 0.00713147L1002.07 0.006923L1002.09 0.00828211C1003.18 0.0642532 1004.21 0.533717 1004.97 1.32076C1005.72 2.10789 1006.15 3.15375 1006.17 4.24562C1006.18 5.33763 1005.78 6.39345 1005.04 7.1985C1004.3 8.00362 1003.28 8.49746 1002.2 8.5797L1002.17 8.58161L4.26241 33.2919L4.15789 33.2921L4.13262 33.2908C3.04164 33.2375 2.012 32.7704 1.25323 31.9848C0.494481 31.1993 0.0634053 30.1541 0.047987 29.0619C0.0325688 27.9697 0.433979 26.9127 1.17026 26.106C1.90662 25.2993 2.9226 24.8035 4.01154 24.7194L4.03778 24.7174L4.0641 24.7168C67.7578 23.1594 131.451 21.5794 195.145 19.9769L1001.95 0.00713147ZM1002.01 2.00702L1001.96 2.00711L195.195 21.9762C195.195 21.9762 195.196 21.9762 195.195 21.9762C131.511 23.5786 67.8261 25.1583 4.14166 26.7155C3.5688 26.7657 3.03547 27.0292 2.64746 27.4543C2.25401 27.8854 2.03955 28.4502 2.04779 29.0337C2.05602 29.6171 2.28631 30.1756 2.69179 30.5954C3.09192 31.0096 3.63297 31.2581 4.20727 31.292L4.23584 31.2919L195.306 26.5523L1002.07 6.58353C1002.64 6.53447 1003.17 6.27199 1003.56 5.84745C1003.96 5.41717 1004.17 4.85301 1004.17 4.26973C1004.16 3.68633 1003.93 3.12753 1003.53 2.70697C1003.13 2.29212 1002.59 2.0425 1002.01 2.00702Z" fill="#E96262"/>
</svg>
