<svg width="810" height="586" viewBox="0 0 810 586" fill="none" xmlns="http://www.w3.org/2000/svg">
<path d="M549.863 580.115C534.999 562.257 513.572 544.235 498.695 526.378C491.318 541.576 493.896 558.167 486.574 573.378C466.124 557.141 447.91 538.272 432.406 517.26C419.981 537.145 405.302 563.148 392.877 583.033C383.233 565.058 371.234 541.813 361.59 523.851C346.86 544.147 341.146 564.006 326.444 584.301C303.366 567.814 280.198 546.419 265.445 522.284C254.631 540.606 247.744 564.711 236.862 583.034C226.045 561.359 202.7 538.799 186.019 521.27C175.529 538.819 166.263 559.267 155.773 576.749C139.381 553.728 111.309 533.996 94.9306 510.921C85.9833 519.329 74.8302 530.168 64.6515 539.948C60.5907 543.792 56.8143 547.446 53.3086 550.814C57.5841 374.758 61.8729 198.692 66.1754 22.6169L75.8827 22.3832L554.468 10.525C561.201 201.63 558.528 386.651 549.863 580.115Z" fill="#E96262"/>
<path d="M-193.82 32.2906C-194.657 32.2497 -195.447 31.8914 -196.029 31.2887C-196.611 30.686 -196.942 29.8842 -196.954 29.0464C-196.966 28.2085 -196.658 27.3976 -196.093 26.7788C-195.528 26.1599 -194.749 25.7796 -193.913 25.715C-130.219 24.1577 -66.5253 22.5777 -2.8315 20.9751L803.958 1.00568L804.039 1.00554C804.876 1.04847 805.664 1.40859 806.245 2.01244C806.826 2.61628 807.154 3.41861 807.164 4.25625C807.175 5.09389 806.865 5.90388 806.299 6.52155C805.733 7.13921 804.954 7.51803 804.118 7.58112L-2.6709 27.5506L-193.753 32.2905L-193.82 32.2906Z" fill="#E96262"/>
<path fill-rule="evenodd" clip-rule="evenodd" d="M803.944 0.00566663L804.064 0.00545816L804.09 0.00681727C805.181 0.0627884 806.209 0.532252 806.966 1.31929C807.723 2.10642 808.151 3.15228 808.164 4.24416C808.178 5.33616 807.774 6.39198 807.037 7.19704C806.299 8.00215 805.283 8.496 804.194 8.57824L804.169 8.58015L-193.739 33.2904L-193.844 33.2906L-193.869 33.2894C-194.96 33.236 -195.99 32.7689 -196.748 31.9834C-197.507 31.1978 -197.938 30.1526 -197.954 29.0604C-197.969 27.9683 -197.568 26.9113 -196.831 26.1046C-196.095 25.2978 -195.079 24.8021 -193.99 24.718L-193.964 24.716L-193.938 24.7153C-130.244 23.1579 -66.5502 21.578 -2.85661 19.9754L803.944 0.00566663ZM804.012 2.00555L803.959 2.00564L-2.80631 21.9748C-2.80644 21.9748 -2.80617 21.9748 -2.80631 21.9748C-66.4907 23.5771 -130.176 25.1569 -193.86 26.714C-194.433 26.7643 -194.966 27.0278 -195.354 27.4529C-195.748 27.8839 -195.962 28.4487 -195.954 29.0322C-195.946 29.6157 -195.715 30.1741 -195.31 30.5939C-194.91 31.0082 -194.369 31.2567 -193.794 31.2905L-193.766 31.2905L-2.69566 26.5508L804.066 6.58207C804.639 6.533 805.173 6.27053 805.562 5.84598C805.956 5.4157 806.172 4.85154 806.165 4.26826C806.158 3.68486 805.929 3.12606 805.524 2.7055C805.125 2.29065 804.586 2.04104 804.012 2.00555Z" fill="#E96262"/>
</svg>
