<svg width="1250" height="841" viewBox="0 0 1250 841" fill="none" xmlns="http://www.w3.org/2000/svg">
<path d="M31.8545 25.688L31.8544 25.688C25.1141 31.129 22.0082 40.63 19.674 48.749C13.5642 69.8391 11.717 92.2282 10.215 114.028C7.65584 151.249 7.44094 188.739 7.22671 226.113C7.19116 232.315 7.15563 238.513 7.10941 244.707C6.43282 344.058 6.32458 443.403 6.78468 542.741C6.98766 587.397 7.29214 632.052 7.96198 676.708C8.03229 681.352 8.08844 685.995 8.14456 690.637C8.39626 711.452 8.64751 732.23 10.1745 752.927C10.1909 753.162 10.1855 753.384 10.1605 753.592C10.141 753.37 10.1219 753.148 10.1032 752.926C10.0118 750.964 8.40021 749.973 6.85569 749.965C6.08337 749.962 5.32726 750.204 4.78572 750.693C4.24405 751.183 3.9175 751.921 4.0039 752.906C4.02688 753.171 4.0503 753.436 4.07419 753.701C4.00197 753.462 3.95347 753.203 3.93267 752.926C3.22225 743.102 2.95838 733.258 2.6945 723.413C0.437366 643.276 0.380936 563.058 0.32453 482.875C0.31753 472.924 0.31053 462.974 0.299325 453.024C0.197827 360.445 0.116639 267.846 1.65927 175.267C2.16672 145.044 3.05981 114.699 6.6931 84.6377C8.68231 68.3384 11.0165 51.3091 17.5318 36.1067C22.8492 23.6962 32.5908 17.1002 44.0151 13.3301C54.5289 9.86053 66.4675 8.78461 77.6937 7.77289C78.666 7.68526 79.6331 7.59811 80.5933 7.50993C126.29 3.24921 172.504 4.7657 218.558 6.27694C236.349 6.86074 254.116 7.44376 271.82 7.69264C321.112 8.37546 370.426 8.46423 419.74 8.55299C455.45 8.61727 491.16 8.68155 526.863 8.9714C702.454 10.4058 878.031 13.1122 1053.59 17.0906C1066.7 17.3889 1079.84 17.5673 1093 17.7458C1122.81 18.1505 1152.67 18.5558 1182.24 20.3585C1196.45 21.211 1210.92 24.3774 1219.81 36.3107C1228.07 47.4529 1229.31 61.9847 1230.28 75.3613C1236.39 159.374 1240.68 243.53 1243.74 327.685C1246.84 412.517 1248.55 497.362 1248.88 582.221C1248.93 596.28 1248.78 610.354 1248.62 624.431C1248.37 646.672 1248.13 668.919 1248.71 691.119C1248.84 695.812 1249 700.508 1249.16 705.206C1249.83 725.195 1250.5 745.217 1248.86 765.186C1248 775.69 1246.68 785.453 1242.89 793.677C1239.1 801.902 1232.85 808.589 1222.15 812.943C1209.96 817.868 1196.61 818.754 1183.6 819.616C1181.6 819.748 1179.61 819.88 1177.63 820.026C1165.91 820.952 1154.2 822.065 1142.5 823.179C1133.15 824.068 1123.8 824.957 1114.45 825.75C1027.9 833.058 941.103 837.219 854.289 839.248C680.072 843.328 505.814 838.924 331.658 834.357C323.086 834.131 314.515 833.903 305.943 833.675C233.688 831.757 161.432 829.838 89.1588 828.876C69.8552 828.633 48.5642 827.841 32.0838 816.455C11.8037 802.447 6.18495 776.923 4.09243 753.792C4.57634 755.248 5.95194 755.976 7.27431 755.976C8.05553 755.976 8.81863 755.722 9.36871 755.214C9.7727 754.84 10.0616 754.33 10.1584 753.682C12.3903 779.012 19.7901 806.577 45.7193 816.768C55.5036 820.615 66.0084 822.056 76.6397 822.576C83.2448 822.899 89.899 822.867 96.4596 822.835C100.459 822.815 104.423 822.796 108.32 822.858C149.788 823.568 191.257 824.563 232.726 825.598C261.845 826.325 290.961 827.092 320.078 827.858C374.663 829.295 429.249 830.733 483.852 831.911C651.695 835.524 819.722 836.782 987.444 828.115C1029.08 825.99 1070.68 823.196 1112.24 819.732C1121.45 818.952 1130.66 818.071 1139.86 817.19C1151.26 816.099 1162.65 815.008 1174.06 814.109C1176.98 813.878 1179.95 813.701 1182.96 813.522C1188.26 813.207 1193.65 812.887 1198.97 812.252C1207.32 811.257 1215.49 809.491 1222.88 805.766C1234.04 800.153 1239.1 789.855 1241.41 778.272C1243.32 768.713 1243.35 758.278 1243.37 748.877C1243.38 746.886 1243.38 744.942 1243.41 743.062C1243.55 731.705 1243.22 720.358 1242.88 709.014L1242.85 708.068C1242.51 697.039 1242.18 686.013 1242.27 674.982C1243.64 512.369 1239.87 349.951 1230.96 187.73C1230.58 180.702 1230.2 173.668 1229.83 166.632C1228.1 134.144 1226.37 101.598 1223.41 69.2305C1222.49 59.2537 1220.3 49.931 1215.63 42.5796C1210.96 35.2281 1203.81 29.8483 1192.96 27.7574C1178.98 25.0807 1164.05 25.1667 1149.42 25.2511C1143.64 25.2844 1137.9 25.3175 1132.29 25.1795C1047.28 23.082 962.267 21.2687 877.246 19.7396C708.584 16.7491 539.901 14.9358 371.198 14.2998C329.496 14.1432 287.829 13.4647 246.16 12.7862C217.614 12.3214 189.067 11.8566 160.506 11.5595C131.845 11.2754 102.9 11.2145 74.4827 14.3607C73.2663 14.4954 72.0046 14.6277 70.7077 14.7638C64.9708 15.3654 58.5446 16.0393 52.3093 17.3141C44.6643 18.8771 37.3054 21.3435 31.8545 25.688ZM10.0933 752.927C10.1133 753.164 10.1337 753.401 10.1545 753.639C10.0645 754.304 9.77288 754.826 9.36192 755.206C8.814 755.713 8.05348 755.966 7.27431 755.966C5.94283 755.966 4.55817 755.226 4.08836 753.747C4.06302 753.466 4.03819 753.186 4.01386 752.906C3.92772 751.923 4.25324 751.188 4.79243 750.701C5.33176 750.213 6.0853 749.972 6.85564 749.975C8.3964 749.983 10.0021 750.971 10.0933 752.927L10.0983 752.926L10.0933 752.927Z" stroke="black" stroke-width="0.01"/>
<path d="M653.175 140.317L654.718 140.195C655.678 139.985 656.571 139.538 657.316 138.896L658.27 137.841C658.827 137.039 659.144 136.096 659.183 135.121L659.183 134.938C659.254 134.204 659.113 133.464 658.777 132.807C658.573 132.115 658.196 131.486 657.681 130.98C657.185 130.436 656.566 130.018 655.875 129.762C655.204 129.39 654.45 129.194 653.683 129.194L652.14 129.316C651.283 129.488 650.477 129.856 649.785 130.391C649.664 133.03 649.542 135.872 649.4 138.754C649.833 139.192 650.361 139.525 650.942 139.728C651.624 140.114 652.393 140.316 653.175 140.317Z" fill="#E96262"/>
<path d="M665.485 103.375C665.14 110.418 676.669 110.966 677.014 103.923C677.359 96.8792 665.81 96.3108 665.485 103.375Z" fill="#E96262"/>
<path d="M695.036 125.701C694.711 132.745 706.24 133.313 706.565 126.249C706.89 119.186 695.401 118.617 695.036 125.701Z" fill="#E96262"/>
<path d="M707.459 84.823C707.433 85.571 707.563 86.3163 707.84 87.0112C708.118 87.7062 708.538 88.3355 709.073 88.859C709.608 89.3825 710.246 89.7885 710.947 90.0512C711.648 90.3139 712.396 90.4275 713.143 90.3847C713.386 86.4672 713.61 82.8541 713.772 79.8297C713.023 79.6965 712.255 79.7236 711.517 79.9093C710.779 80.0949 710.089 80.4349 709.493 80.9068C708.896 81.3787 708.407 81.9717 708.056 82.6468C707.706 83.3219 707.502 84.0636 707.459 84.823V84.823Z" fill="#E96262"/>
<path d="M658.78 75.1399L657.826 76.2157C657.267 77.0156 656.95 77.96 656.913 78.9356L656.913 79.2807C656.846 80.0129 656.98 80.7496 657.299 81.412C657.501 82.1098 657.886 82.7407 658.415 83.2388C658.907 83.7877 659.528 84.2061 660.222 84.4566C660.892 84.8288 661.647 85.0244 662.414 85.025L663.956 84.9032C664.926 84.7126 665.829 84.2718 666.575 83.6244L667.529 82.5486C668.092 81.7503 668.409 80.805 668.442 79.8287L668.442 79.4837C668.493 78.7828 668.353 78.0812 668.036 77.4539C667.832 76.7616 667.455 76.1328 666.94 75.627C666.444 75.0825 665.825 74.6649 665.134 74.4092C664.463 74.037 663.709 73.8415 662.942 73.8408L661.399 73.9626C660.445 74.1407 659.547 74.5444 658.78 75.1399V75.1399Z" fill="#E96262"/>
<path d="M661.077 36.8378C660.732 43.8812 672.282 44.4495 672.607 37.3858C672.931 30.3221 661.402 29.7944 661.077 36.8378Z" fill="#E96262"/>
<path d="M688.338 63.1437L687.384 64.1992C686.832 65.0109 686.516 65.9593 686.47 66.9395L686.612 68.4009C686.839 69.3321 687.308 70.1866 687.972 70.8772L688.155 71.0599C688.635 71.6229 689.26 72.044 689.961 72.2778C690.631 72.6562 691.385 72.8587 692.154 72.8665C692.917 72.933 693.684 72.8074 694.386 72.5011C695.108 72.3187 695.772 71.9555 696.315 71.4456L697.269 70.3901C697.808 69.5802 698.124 68.6417 698.182 67.6702C698.182 67.183 698.081 66.6959 698.04 66.1884C697.814 65.2573 697.344 64.4028 696.68 63.7121L696.497 63.5294C696.005 62.9805 695.384 62.5621 694.691 62.3115C694.02 61.9394 693.266 61.7438 692.499 61.7432C691.728 61.6589 690.95 61.7852 690.246 62.1085C689.533 62.289 688.877 62.6449 688.338 63.1437Z" fill="#E96262"/>
<path d="M712.227 31.3781L712.044 31.5405C711.474 31.9848 711.032 32.5734 710.765 33.2455C710.386 33.855 710.182 34.5574 710.177 35.2753C710.118 35.9744 710.252 36.6762 710.562 37.3051C710.764 38.003 711.15 38.6338 711.679 39.1319L712.795 40.0453C713.668 40.5747 714.658 40.8813 715.678 40.9384V40.9384C715.881 37.366 716.083 33.6312 716.286 29.8354L714.784 29.9572C713.826 30.2089 712.947 30.6975 712.227 31.3781V31.3781Z" fill="#E96262"/>
<path d="M686.549 23.5426C685.978 23.9869 685.537 24.5755 685.27 25.2476C684.891 25.8571 684.687 26.5595 684.681 27.2774C684.681 27.7646 684.681 28.2517 684.823 28.7389C685.037 29.6809 685.508 30.5453 686.183 31.2355L687.3 32.1489C688.172 32.6766 689.163 32.9767 690.182 33.0217L690.365 33.0217C691.134 33.0865 691.908 32.9611 692.618 32.6564C693.332 32.4684 693.987 32.1057 694.526 31.6009C695.096 31.1566 695.538 30.5679 695.805 29.8959C696.184 29.2864 696.388 28.584 696.393 27.8661C696.393 27.3789 696.292 26.8918 696.251 26.4046C696.029 25.4658 695.559 24.6037 694.891 23.908L693.754 22.9946C692.909 22.4973 691.954 22.2182 690.974 22.1826L690.791 22.1826C690.021 22.1178 689.248 22.2433 688.538 22.548C687.799 22.7004 687.114 23.0433 686.549 23.5426V23.5426Z" fill="#E96262"/>
<path d="M676.768 137.251L676.585 137.251C675.079 137.234 673.613 137.728 672.424 138.651C671.853 139.096 671.412 139.684 671.145 140.356C670.773 140.969 670.57 141.67 670.556 142.386L670.698 143.848C670.916 144.782 671.387 145.639 672.058 146.324L672.952 147.055C675.915 143.909 678.757 140.823 680.584 138.834L679.63 138.083C678.762 137.566 677.777 137.28 676.768 137.251V137.251Z" fill="#E96262"/>
<path d="M1083.01 559.833C1072.86 560.402 1064.07 561.173 1064.07 561.173C1061.86 563.386 1061.57 608.975 1061.53 624.097C1061.8 625.721 1062.08 627.324 1062.41 628.948C1064.88 628.948 1072.56 628.664 1081.14 628.481C1081.62 609.618 1082.1 590.768 1082.58 571.931C1082.72 568.054 1083.13 563.873 1083.01 559.833Z" fill="white"/>
<path d="M58.5549 727.615C63.9542 804.321 108.021 797.724 151.925 798.657C472.998 804.99 796.486 824.639 1115.39 790.863C1142.38 788.021 1165.58 789.747 1180.2 773.041C1194.22 757.026 1188.2 680.32 1188.32 659.515C1190.06 465.812 1184.44 260.722 1171.49 67.4243C1170.45 52.0384 1168.24 34.6025 1155.05 25.5496C1146.04 19.4602 1134.16 18.8107 1123.04 18.5062C854.416 11.0637 585.719 7.12586 316.947 6.69284C237.643 6.57105 120.504 -3.02987 83.3792 15.969C73.007 21.2871 58.6157 37.566 56.4439 158.542C54.272 279.517 54.5968 671.308 58.5549 727.615Z" fill="white"/>
<path d="M1115.43 790.805C1142.42 787.963 1165.62 789.688 1180.24 772.983C1194.26 756.968 1188.24 680.262 1188.36 659.457C1190.1 465.754 1184.48 260.663 1171.53 67.3661C1170.49 51.9803 1168.28 34.5443 1155.09 25.4915C1146.08 19.4021 1134.2 18.7526 1123.08 18.4481C946.203 13.5563 801.905 10.5522 624.968 8.70508L624.968 809.235C799.976 811.773 942.062 809.174 1115.43 790.805Z" fill="white"/>
<path d="M55.4394 727.616C57.1647 749.477 61.6708 774.302 80.1014 788.632C94.655 799.877 113.837 801.176 131.536 801.501C206.828 802.935 282.052 804.742 357.209 806.92C521.399 811.508 685.71 815.872 849.941 811.102C931.803 808.727 1013.6 804.079 1095.12 796.02C1112.74 794.275 1130.62 793.382 1148.14 790.926C1159.95 789.261 1171.85 785.912 1180.61 777.265C1193.22 764.741 1192.23 740.587 1192.65 724.247C1193.2 703.015 1191.74 681.824 1191.68 660.592C1191.56 622.148 1192.06 583.684 1191.86 545.239C1191.39 465.157 1189.74 385.116 1186.93 305.115C1184.11 225.831 1180.66 146.466 1174.85 67.365C1173.9 54.4961 1172.56 40.3484 1164.3 29.8138C1156.03 19.2792 1142.94 16.3766 1130.01 15.6053C1089.13 13.0883 1047.91 13.3319 1006.97 12.3373C840.739 8.34535 674.533 5.70662 508.347 4.42108C430.91 3.81214 353.372 4.78644 275.956 2.87843C244.494 2.08681 213.032 0.84864 181.53 0.990725C155.995 0.990725 129.872 1.25461 104.702 6.10581C94.9188 7.99352 83.1257 10.3684 75.8387 17.838C69.7493 24.1507 66.6843 33.3659 64.411 41.6678C52.4758 85.4504 53.8561 133.394 53.2674 178.354C52.0699 268.274 52.0699 358.214 52.212 448.154C52.3338 532.208 52.212 616.363 54.4042 700.397C54.668 709.47 54.8913 718.563 55.5206 727.616C55.7844 731.676 62.0362 731.676 61.752 727.616C57.3068 662.805 59.0118 597.161 58.7073 532.228C58.2607 438.127 58.3081 344.019 58.8494 249.904C59.0726 212.901 59.1132 175.857 60.2905 138.854C61.143 112.163 62.3203 85.1054 67.0497 58.7587C69.0795 47.7166 71.2311 35.071 77.6452 25.5715C82.5167 18.3658 90.4126 15.9503 98.5927 13.8393C121.976 7.74994 147.024 7.58756 171.016 7.30338C233.554 6.53206 296.173 9.67825 358.731 9.86093C518.746 10.321 678.735 12.0328 838.696 14.9963C918.331 16.4578 997.96 18.2372 1077.58 20.3347C1096.99 20.8421 1117.04 19.9693 1136.32 22.3645C1158.25 25.2062 1166 41.2618 1168.03 61.5192C1171.68 98.6441 1172.88 136.216 1174.81 173.462C1182.81 326.184 1186.38 479.055 1185.53 632.074C1185.4 655.376 1186.03 678.536 1186.38 701.818C1186.68 721.913 1188.9 747.305 1180.64 766.203C1174.81 779.538 1158.17 783.436 1145.11 785.059C1127.86 787.211 1110.36 788.287 1093.05 789.972C1054.36 793.774 1015.6 796.853 976.763 799.207C819.068 808.91 660.947 807.996 503.07 804.464C424.314 802.698 345.598 800.283 266.842 798.192C227.891 797.157 188.898 796 149.926 795.432C131.029 795.168 109.98 797.035 92.3613 788.855C69.0796 778.036 63.4976 750.837 61.6505 727.616C61.3461 723.658 55.1146 723.618 55.4394 727.616Z" fill="#626262"/>
<g opacity="0.3">
<path d="M682.234 148.029C790.787 151.209 899.381 151.493 1008.02 148.882C1038.44 148.124 1068.88 147.149 1099.36 145.959C1100.7 145.959 1100.7 143.827 1099.36 143.929C990.844 148.151 882.23 149.518 773.514 148.029C743.08 147.61 712.634 146.933 682.173 145.999C681.953 146.062 681.759 146.195 681.62 146.378C681.482 146.562 681.408 146.785 681.408 147.014C681.408 147.243 681.482 147.467 681.62 147.65C681.759 147.833 681.953 147.966 682.173 148.029L682.234 148.029Z" fill="#626262"/>
</g>
<g opacity="0.3">
<path d="M680.191 222.505C789.015 216.159 897.948 212.282 1006.99 210.874C1037.79 210.468 1068.58 210.272 1099.36 210.286C1099.58 210.223 1099.78 210.09 1099.92 209.906C1100.05 209.723 1100.13 209.5 1100.13 209.271C1100.13 209.041 1100.05 208.818 1099.92 208.635C1099.78 208.452 1099.58 208.319 1099.36 208.256C990.364 208.256 881.432 210.732 772.567 215.685C741.823 217.038 711.071 218.642 680.313 220.496C678.994 220.496 678.973 222.647 680.313 222.525L680.191 222.505Z" fill="#626262"/>
</g>
<g opacity="0.3">
<path d="M670.803 290.117C784.35 289.264 897.876 287.173 1011.38 283.844C1043.47 282.911 1075.54 281.876 1107.61 280.739C1108.95 280.739 1108.95 278.608 1107.61 278.709C994.15 282.769 880.643 285.556 767.097 287.072C734.999 287.518 702.901 287.863 670.803 288.107C670.569 288.154 670.358 288.281 670.207 288.466C670.055 288.651 669.972 288.883 669.972 289.122C669.972 289.361 670.055 289.593 670.207 289.778C670.358 289.963 670.569 290.09 670.803 290.137L670.803 290.117Z" fill="#626262"/>
</g>
<g opacity="0.3">
<path d="M676.12 365.683C788.814 357.401 901.657 351.522 1014.65 348.044C1046.33 347.083 1078.02 346.312 1109.72 345.73C1109.94 345.667 1110.14 345.534 1110.28 345.351C1110.42 345.168 1110.49 344.944 1110.49 344.715C1110.49 344.486 1110.42 344.263 1110.28 344.079C1110.14 343.896 1109.94 343.763 1109.72 343.7C996.732 345.811 883.822 350.331 770.992 357.259C739.341 359.208 707.717 361.346 676.12 363.673C674.78 363.673 674.78 365.845 676.12 365.703L676.12 365.683Z" fill="#626262"/>
</g>
<g opacity="0.3">
<path d="M674.926 431.022L1027.01 413.302L1126.47 408.309C1127.81 408.309 1127.81 406.157 1126.47 406.279L774.386 423.979L674.926 428.992C673.586 428.992 673.586 431.144 674.926 431.022V431.022Z" fill="#626262"/>
</g>
<g opacity="0.3">
<path d="M677.035 483.857C791.394 486.13 905.739 484.601 1020.07 479.269C1052.43 477.754 1084.76 475.927 1117.07 473.789C1118.39 473.789 1118.41 471.617 1117.07 471.759C1002.96 479.215 888.668 482.896 774.201 482.801C741.806 482.801 709.424 482.456 677.056 481.766C676.835 481.829 676.641 481.962 676.503 482.145C676.365 482.328 676.29 482.552 676.29 482.781C676.29 483.01 676.365 483.233 676.503 483.417C676.641 483.6 676.835 483.733 677.056 483.796L677.035 483.857Z" fill="#626262"/>
</g>
<g opacity="0.3">
<path d="M677.031 548.973C791.66 548.27 906.256 545.624 1020.82 541.037C1053.29 539.684 1085.72 538.236 1118.08 536.693C1119.4 536.693 1119.42 534.541 1118.08 534.663C1003.59 540.333 889.023 544.075 774.38 545.888C741.903 546.402 709.427 546.761 676.95 546.964C676.716 547.011 676.505 547.138 676.353 547.323C676.202 547.508 676.119 547.739 676.119 547.979C676.119 548.218 676.202 548.45 676.353 548.635C676.505 548.82 676.716 548.946 676.95 548.994L677.031 548.973Z" fill="#626262"/>
</g>
<g opacity="0.3">
<path d="M685.391 621.944L1018.62 606.112L1111.75 601.687C1113.09 601.687 1113.09 599.536 1111.75 599.657L778.538 615.49L685.391 619.915C684.072 619.915 684.051 622.046 685.391 621.944Z" fill="#626262"/>
</g>
<g opacity="0.3">
<path d="M689.517 690.836L1031.98 680.16L1129.41 677.115C1130.73 677.115 1130.75 674.984 1129.41 675.085L786.988 685.782L689.456 688.827C688.116 688.827 688.116 690.958 689.456 690.857L689.517 690.836Z" fill="#626262"/>
</g>
<path d="M646.44 155.339C645.584 151.951 643.739 148.895 641.14 146.56C638.541 144.225 635.305 142.716 631.846 142.226C622.529 140.562 613.842 145.596 606.413 150.549C603.084 152.761 606.189 158.16 609.559 155.928C617.678 150.528 636.819 141.191 640.412 157.003C641.305 160.921 647.333 159.256 646.44 155.339Z" fill="#626262"/>
<path d="M649.59 211.301C647.844 207.512 645.099 204.271 641.648 201.927C638.198 199.583 634.174 198.224 630.009 197.996C625.844 197.769 621.696 198.681 618.011 200.636C614.326 202.59 611.243 205.513 609.095 209.088C606.944 212.498 612.343 215.624 614.495 212.235C622.086 200.34 638.264 201.923 644.191 214.447C645.916 218.08 651.295 215.015 649.59 211.301Z" fill="#626262"/>
<path d="M610.438 264.684C608.409 268.175 613.97 271.098 615.959 267.607C617.341 265.052 619.473 262.983 622.067 261.677C624.661 260.372 627.593 259.892 630.468 260.303C633.343 260.715 636.023 261.997 638.146 263.978C640.27 265.959 641.736 268.543 642.347 271.382C643.341 275.279 649.309 273.412 648.314 269.555C647.306 265.56 645.119 261.962 642.037 259.227C638.955 256.493 635.121 254.749 631.035 254.224C626.948 253.698 622.798 254.415 619.125 256.28C615.452 258.146 612.425 261.074 610.438 264.684V264.684Z" fill="#626262"/>
<path d="M645.059 319.606C643.524 315.975 640.957 312.874 637.676 310.688C634.394 308.503 630.544 307.329 626.601 307.311C622.659 307.294 618.798 308.434 615.498 310.591C612.197 312.748 609.603 315.826 608.036 319.444C606.433 323.098 611.811 326.264 613.415 322.59C618.774 310.411 634.444 310.553 639.66 322.753C641.243 326.426 646.622 323.26 645.059 319.606Z" fill="#626262"/>
<path d="M649.526 368.017C647.792 364.04 644.968 360.634 641.38 358.195C637.791 355.756 633.586 354.383 629.25 354.234C624.914 354.086 620.624 355.168 616.877 357.355C613.13 359.543 610.079 362.747 608.078 366.596C606.048 370.128 611.528 373.294 613.456 369.762C620.662 356.548 638.078 357.584 644.147 371.183C645.791 374.837 651.17 371.67 649.526 368.017Z" fill="#626262"/>
<path d="M644.454 415.961C643.452 411.873 641.002 408.287 637.558 405.868C634.115 403.448 629.911 402.359 625.725 402.803C621.54 403.247 617.658 405.192 614.797 408.28C611.937 411.367 610.294 415.387 610.171 419.594C609.785 423.654 616.017 423.552 616.402 419.594C616.615 416.959 617.75 414.484 619.608 412.605C621.467 410.725 623.929 409.562 626.56 409.319C629.192 409.077 631.825 409.771 633.996 411.279C636.166 412.787 637.735 415.013 638.425 417.564C639.603 421.38 645.631 419.736 644.454 415.961Z" fill="#626262"/>
<path d="M651.376 462.078C640.456 445.454 614.941 449.899 611.734 470.197C611.105 474.115 617.113 475.82 617.823 471.861C620.097 457.45 637.715 452.619 646.058 465.305C648.189 468.553 653.588 465.447 651.376 462.078Z" fill="#626262"/>
<path d="M649.649 517.208C648.299 512.755 645.684 508.79 642.123 505.795C638.561 502.8 634.206 500.905 629.588 500.34C624.969 499.774 620.285 500.563 616.106 502.61C611.928 504.657 608.434 507.874 606.049 511.869C603.898 515.259 609.297 518.385 611.448 515.016C613.194 512.052 615.765 509.661 618.847 508.135C621.93 506.61 625.39 506.015 628.805 506.424C632.22 506.833 635.442 508.228 638.076 510.439C640.711 512.65 642.645 515.58 643.641 518.872C644.899 522.648 650.928 521.024 649.649 517.208Z" fill="#626262"/>
<path d="M649.607 567.141C643.68 547.229 615.384 547.919 611.142 568.542C610.35 572.459 616.359 574.144 617.231 570.206C620.175 555.876 639.397 554.475 643.619 568.785C644.735 572.642 650.764 570.998 649.607 567.141Z" fill="#626262"/>
<path d="M647.563 624.178C646.136 619.671 643.18 615.804 639.206 613.244C635.232 610.684 630.489 609.591 625.796 610.154C621.102 610.717 616.752 612.9 613.497 616.328C610.241 619.755 608.283 624.211 607.962 628.927C607.617 632.987 613.848 632.987 614.214 628.927C614.437 625.662 615.799 622.578 618.062 620.214C620.325 617.849 623.346 616.353 626.598 615.986C629.851 615.619 633.129 616.404 635.862 618.205C638.595 620.006 640.609 622.709 641.555 625.842C642.814 629.617 648.842 627.994 647.563 624.178Z" fill="#626262"/>
<path d="M652.694 670.397C646.138 662.907 638.242 654.342 627.524 654.159C619.405 653.976 612.24 658.219 609.743 665.912C608.526 669.728 614.534 671.372 615.833 667.556C618.187 660.208 626.895 659.152 633.106 661.791C639.317 664.43 643.945 669.91 648.33 674.863C650.928 677.806 655.312 673.401 652.694 670.397Z" fill="#626262"/>
<path opacity="0.3" d="M649.202 150.912C648.015 149.772 646.433 149.135 644.787 149.135C643.141 149.135 641.559 149.772 640.372 150.912L639.682 151.622C639.104 152.202 638.645 152.89 638.333 153.647C638.02 154.404 637.86 155.215 637.861 156.034C637.862 156.853 638.024 157.664 638.338 158.42C638.652 159.176 639.112 159.863 639.692 160.442C640.272 161.02 640.96 161.479 641.717 161.791C642.474 162.104 643.285 162.264 644.104 162.263C644.923 162.262 645.734 162.1 646.49 161.786C647.246 161.472 647.933 161.011 648.512 160.432L649.202 159.741C650.351 158.559 650.994 156.976 650.994 155.327C650.994 153.678 650.351 152.094 649.202 150.912V150.912Z" fill="#626262"/>
<path opacity="0.3" d="M612.443 149.532L611.753 148.842C611.185 148.212 610.495 147.705 609.724 147.35C608.954 146.995 608.119 146.801 607.272 146.779C606.424 146.758 605.58 146.908 604.793 147.223C604.005 147.537 603.29 148.009 602.69 148.608C602.09 149.208 601.619 149.924 601.304 150.711C600.99 151.499 600.839 152.342 600.861 153.19C600.883 154.038 601.077 154.872 601.431 155.643C601.786 156.413 602.294 157.104 602.923 157.672L603.634 158.362C604.214 158.94 604.902 159.399 605.659 159.711C606.416 160.024 607.227 160.184 608.046 160.183C608.865 160.182 609.675 160.02 610.432 159.706C611.188 159.391 611.875 158.931 612.453 158.352C613.032 157.772 613.49 157.084 613.803 156.327C614.115 155.57 614.276 154.759 614.275 153.94C614.274 153.121 614.112 152.31 613.797 151.554C613.483 150.797 613.023 150.11 612.443 149.532Z" fill="#626262"/>
<path opacity="0.3" d="M612.195 205.962L611.505 205.962C610.687 205.962 609.876 206.124 609.12 206.437C608.364 206.75 607.677 207.209 607.099 207.788C606.52 208.366 606.061 209.053 605.748 209.809C605.435 210.565 605.273 211.376 605.273 212.194C605.273 213.012 605.435 213.823 605.748 214.579C606.061 215.335 606.52 216.022 607.099 216.6C607.677 217.179 608.364 217.638 609.12 217.951C609.876 218.264 610.687 218.425 611.505 218.425L612.195 218.425C613.848 218.425 615.433 217.769 616.601 216.6C617.77 215.432 618.427 213.847 618.427 212.194C618.427 210.541 617.77 208.956 616.601 207.788C615.433 206.619 613.848 205.962 612.195 205.962V205.962Z" fill="#626262"/>
<path opacity="0.3" d="M648.349 207.343C646.705 207.369 645.135 208.034 643.972 209.197C642.809 210.36 642.144 211.93 642.118 213.574L642.118 214.285C642.209 215.879 642.906 217.377 644.066 218.473C645.227 219.57 646.763 220.18 648.359 220.18C649.956 220.18 651.492 219.57 652.652 218.473C653.813 217.377 654.51 215.879 654.601 214.285L654.601 213.574C654.58 211.925 653.914 210.349 652.745 209.184C651.577 208.02 649.999 207.359 648.349 207.343V207.343Z" fill="#626262"/>
<path opacity="0.3" d="M619.669 267.181C619.564 265.925 619.078 264.732 618.277 263.76C617.475 262.788 616.396 262.083 615.184 261.741C614.221 261.482 613.212 261.448 612.234 261.641C611.256 261.835 610.335 262.251 609.544 262.858C608.753 263.464 608.112 264.244 607.671 265.138C607.229 266.032 607 267.016 607 268.013C607 269.01 607.229 269.993 607.671 270.887C608.112 271.781 608.753 272.562 609.544 273.168C610.335 273.775 611.256 274.191 612.234 274.385C613.212 274.578 614.221 274.544 615.184 274.285C616.668 273.85 617.943 272.888 618.769 271.58C619.594 270.272 619.915 268.708 619.669 267.181V267.181Z" fill="#626262"/>
<path opacity="0.3" d="M647.558 267.667C639.439 267.667 639.439 280.15 647.558 280.15C655.677 280.15 655.596 267.667 647.558 267.667Z" fill="#626262"/>
<path opacity="0.3" d="M610.819 314.815C602.7 314.815 602.7 327.299 610.819 327.299C618.938 327.299 618.857 314.815 610.819 314.815Z" fill="#626262"/>
<path opacity="0.3" d="M646.175 316.887C644.525 316.913 642.95 317.58 641.783 318.747C640.617 319.914 639.95 321.489 639.923 323.139L639.923 324.621C640.014 326.215 640.712 327.713 641.872 328.809C643.033 329.906 644.569 330.516 646.165 330.516C647.761 330.516 649.297 329.906 650.458 328.809C651.619 327.713 652.316 326.215 652.407 324.621L652.407 323.24C652.418 321.573 651.768 319.969 650.601 318.779C649.433 317.589 647.842 316.909 646.175 316.887V316.887Z" fill="#626262"/>
<path opacity="0.3" d="M613.334 364.241C611.9 363.427 610.204 363.205 608.608 363.622C607.012 364.039 605.642 365.062 604.789 366.474C604.566 366.941 604.342 367.408 604.099 367.854C603.639 368.563 603.328 369.358 603.185 370.19C603.041 371.023 603.067 371.876 603.262 372.698C603.457 373.52 603.817 374.294 604.319 374.973C604.822 375.652 605.457 376.222 606.186 376.649C606.915 377.076 607.723 377.351 608.561 377.457C609.399 377.563 610.25 377.498 611.062 377.266C611.874 377.034 612.631 376.64 613.287 376.107C613.943 375.575 614.484 374.915 614.877 374.167L615.567 372.767C616.37 371.333 616.586 369.644 616.169 368.054C615.753 366.464 614.737 365.098 613.334 364.241V364.241Z" fill="#626262"/>
<path opacity="0.3" d="M646.867 362.658C645.223 362.684 643.653 363.349 642.49 364.512C641.327 365.675 640.662 367.245 640.636 368.89L640.636 370.29C640.636 371.943 641.292 373.528 642.461 374.697C643.629 375.865 645.214 376.522 646.867 376.522C648.52 376.522 650.105 375.865 651.273 374.697C652.442 373.528 653.099 371.943 653.099 370.29L653.099 368.89C653.083 367.242 652.421 365.666 651.256 364.501C650.091 363.336 648.515 362.674 646.867 362.658V362.658Z" fill="#626262"/>
<path opacity="0.3" d="M619.626 418.6C619.167 417.018 618.108 415.679 616.674 414.867C615.241 414.056 613.547 413.836 611.954 414.257L609.924 414.947C609.134 415.164 608.394 415.535 607.747 416.038C607.1 416.541 606.558 417.167 606.153 417.879C605.335 419.318 605.121 421.023 605.56 422.619C605.999 424.216 607.054 425.572 608.492 426.391C609.931 427.209 611.636 427.422 613.233 426.983L615.262 426.293C616.844 425.825 618.182 424.762 618.996 423.327C619.81 421.892 620.036 420.198 619.626 418.6V418.6Z" fill="#626262"/>
<path opacity="0.3" d="M644.089 410.5C636.072 410.5 635.97 422.983 644.089 422.983C652.208 422.983 652.148 410.5 644.089 410.5Z" fill="#626262"/>
<path opacity="0.3" d="M614.274 463.193H613.584C611.99 463.284 610.491 463.981 609.395 465.141C608.299 466.302 607.688 467.838 607.688 469.434C607.688 471.031 608.299 472.567 609.395 473.727C610.491 474.888 611.99 475.585 613.584 475.676H614.274C615.124 475.725 615.974 475.599 616.774 475.307C617.573 475.015 618.304 474.564 618.923 473.979C619.542 473.395 620.035 472.69 620.371 471.909C620.708 471.127 620.882 470.285 620.882 469.434C620.882 468.583 620.708 467.741 620.371 466.96C620.035 466.178 619.542 465.474 618.923 464.89C618.304 464.305 617.573 463.853 616.774 463.562C615.974 463.27 615.124 463.144 614.274 463.193V463.193Z" fill="#626262"/>
<path opacity="0.3" d="M653.564 459.886C652.571 458.266 651.03 457.056 649.22 456.476C648.417 456.254 647.578 456.195 646.751 456.303C645.925 456.411 645.129 456.684 644.41 457.105C642.982 457.943 641.945 459.314 641.526 460.916C641.108 462.518 641.342 464.221 642.177 465.651L642.177 465.772C642.488 466.757 643.045 467.646 643.794 468.356C644.543 469.066 645.461 469.574 646.46 469.832C648.052 470.242 649.742 470.018 651.172 469.208C652.603 468.398 653.664 467.064 654.133 465.488C654.419 464.564 654.516 463.592 654.418 462.629C654.321 461.667 654.03 460.734 653.564 459.886Z" fill="#626262"/>
<path opacity="0.3" d="M610.111 508.967L609.421 508.967C607.827 509.058 606.328 509.755 605.232 510.916C604.136 512.076 603.525 513.612 603.525 515.209C603.525 516.805 604.136 518.341 605.232 519.502C606.328 520.662 607.827 521.359 609.421 521.45L610.111 521.45C610.96 521.499 611.811 521.373 612.61 521.082C613.41 520.79 614.141 520.338 614.76 519.754C615.378 519.169 615.871 518.465 616.208 517.683C616.545 516.902 616.719 516.06 616.719 515.209C616.719 514.358 616.545 513.516 616.208 512.734C615.871 511.953 615.378 511.248 614.76 510.664C614.141 510.08 613.41 509.628 612.61 509.336C611.811 509.044 610.96 508.919 610.111 508.967V508.967Z" fill="#626262"/>
<path opacity="0.3" d="M646.868 511.728C645.221 511.759 643.651 512.428 642.489 513.595C641.326 514.761 640.662 516.333 640.636 517.979L640.636 518.669C640.636 520.322 641.293 521.907 642.461 523.076C643.63 524.244 645.215 524.901 646.868 524.901C648.52 524.901 650.105 524.244 651.274 523.076C652.443 521.907 653.099 520.322 653.099 518.669L653.099 517.979C653.083 516.33 652.422 514.752 651.258 513.583C650.093 512.415 648.517 511.749 646.868 511.728Z" fill="#626262"/>
<path opacity="0.3" d="M614.98 564.441L614.27 564.441C612.617 564.441 611.032 565.098 609.863 566.267C608.695 567.435 608.038 569.02 608.038 570.673C608.038 572.326 608.695 573.911 609.863 575.079C611.032 576.248 612.617 576.904 614.27 576.904L614.98 576.904C616.633 576.904 618.218 576.248 619.386 575.079C620.555 573.911 621.211 572.326 621.211 570.673C621.211 569.02 620.555 567.435 619.386 566.267C618.218 565.098 616.633 564.441 614.98 564.441V564.441Z" fill="#626262"/>
<path opacity="0.3" d="M651.272 567.647L650.582 566.957C649.402 565.803 647.817 565.157 646.167 565.157C644.516 565.157 642.932 565.803 641.752 566.957C640.612 568.144 639.975 569.726 639.975 571.372C639.975 573.018 640.612 574.6 641.752 575.787L642.463 576.477C643.633 577.645 645.22 578.3 646.874 578.299C647.693 578.298 648.504 578.135 649.26 577.821C650.017 577.507 650.704 577.047 651.282 576.467C651.86 575.887 652.319 575.199 652.631 574.442C652.944 573.685 653.104 572.874 653.103 572.055C653.103 571.236 652.94 570.425 652.626 569.669C652.312 568.913 651.852 568.226 651.272 567.647Z" fill="#626262"/>
<path opacity="0.3" d="M611.51 622.677C603.391 622.677 603.391 635.16 611.51 635.16C619.629 635.16 619.548 622.677 611.51 622.677Z" fill="#626262"/>
<path opacity="0.3" d="M643.397 621.295C635.379 621.295 635.278 633.778 643.397 633.778C651.516 633.778 651.435 621.295 643.397 621.295Z" fill="#626262"/>
<path opacity="0.3" d="M612.198 662.196L611.508 662.196C610.659 662.147 609.808 662.273 609.009 662.565C608.209 662.856 607.478 663.308 606.859 663.892C606.24 664.477 605.748 665.181 605.411 665.963C605.074 666.744 604.9 667.586 604.9 668.437C604.9 669.288 605.074 670.13 605.411 670.912C605.748 671.693 606.24 672.398 606.859 672.982C607.478 673.566 608.209 674.018 609.009 674.31C609.808 674.602 610.659 674.727 611.508 674.679L612.198 674.679C613.792 674.588 615.291 673.891 616.387 672.73C617.483 671.57 618.094 670.034 618.094 668.437C618.094 666.841 617.483 665.305 616.387 664.144C615.291 662.984 613.792 662.287 612.198 662.196V662.196Z" fill="#626262"/>
<path opacity="0.3" d="M648.353 667.047C640.335 667.047 640.234 679.53 648.353 679.53C656.472 679.53 656.31 667.047 648.353 667.047Z" fill="#626262"/>
<path d="M648.522 712.818C647.674 709.43 645.835 706.372 643.238 704.036C640.642 701.699 637.407 700.192 633.948 699.706C624.631 698.042 615.944 703.075 608.494 708.028C605.165 710.241 608.291 715.66 611.64 713.427C619.76 708.008 638.901 698.671 642.514 714.483C643.407 718.4 649.415 716.736 648.522 712.818Z" fill="#626262"/>
<path d="M647.495 63.6114C645.752 59.8223 643.009 56.5805 639.561 54.2352C636.112 51.89 632.089 50.5304 627.925 50.3027C623.761 50.0751 619.613 50.9881 615.929 52.9435C612.246 54.8988 609.166 57.8223 607.021 61.3989C604.849 64.7887 610.248 67.9349 612.4 64.5451C619.93 52.6302 636.168 54.2337 642.116 66.8388C643.821 70.3909 649.2 67.2244 647.495 63.6114Z" fill="#626262"/>
<path d="M612.526 104.511C610.496 108.002 616.037 110.925 618.026 107.434C619.408 104.88 621.54 102.81 624.134 101.505C626.728 100.199 629.66 99.7194 632.535 100.131C635.41 100.542 638.09 101.825 640.213 103.805C642.337 105.786 643.803 108.37 644.414 111.209C645.429 115.107 651.376 113.239 650.381 109.383C649.378 105.386 647.194 101.785 644.114 99.049C641.034 96.3125 637.2 94.5676 633.114 94.0417C629.028 93.5158 624.878 94.2334 621.205 96.1009C617.533 97.9684 614.508 100.899 612.526 104.511V104.511Z" fill="#626262"/>
<path opacity="0.3" d="M651.271 708.416C650.092 707.267 648.512 706.625 646.866 706.625C645.221 706.625 643.64 707.267 642.461 708.416L641.751 709.106C641.121 709.674 640.614 710.364 640.259 711.134C639.904 711.905 639.71 712.739 639.688 713.587C639.667 714.435 639.817 715.278 640.132 716.066C640.446 716.854 640.918 717.569 641.518 718.169C642.117 718.769 642.833 719.24 643.62 719.554C644.408 719.869 645.251 720.02 646.099 719.998C646.947 719.976 647.781 719.782 648.552 719.427C649.322 719.073 650.013 718.565 650.581 717.935L651.271 717.225C652.428 716.051 653.078 714.469 653.078 712.82C653.078 711.172 652.428 709.589 651.271 708.416V708.416Z" fill="#626262"/>
<path opacity="0.3" d="M614.534 707.012L613.844 706.322C612.654 705.249 611.098 704.674 609.496 704.715C607.894 704.756 606.369 705.411 605.236 706.544C604.103 707.677 603.448 709.202 603.407 710.804C603.366 712.405 603.941 713.962 605.014 715.152L605.705 715.842C606.894 716.915 608.451 717.491 610.053 717.449C611.655 717.408 613.179 716.753 614.312 715.62C615.445 714.487 616.1 712.962 616.142 711.361C616.183 709.759 615.607 708.202 614.534 707.012V707.012Z" fill="#626262"/>
<path opacity="0.3" d="M610.111 58.2523L609.421 58.2523C607.827 58.3433 606.328 59.0405 605.232 60.201C604.136 61.3616 603.525 62.8975 603.525 64.494C603.525 66.0904 604.136 67.6263 605.232 68.7869C606.328 69.9474 607.827 70.6446 609.421 70.7356L610.111 70.7356C610.96 70.784 611.811 70.6586 612.61 70.3668C613.41 70.075 614.141 69.6231 614.76 69.0388C615.378 68.4544 615.871 67.7499 616.208 66.9685C616.545 66.187 616.719 65.3449 616.719 64.494C616.719 63.643 616.545 62.801 616.208 62.0195C615.871 61.238 615.378 60.5335 614.76 59.9491C614.141 59.3648 613.41 58.9129 612.61 58.6211C611.811 58.3294 610.96 58.2039 610.111 58.2523V58.2523Z" fill="#626262"/>
<path opacity="0.3" d="M646.179 59.6533C644.532 59.6793 642.96 60.3436 641.794 61.5061C640.627 62.6685 639.958 64.2384 639.927 65.8848L639.927 66.5749C639.878 67.4245 640.004 68.2751 640.296 69.0745C640.587 69.8739 641.039 70.6053 641.624 71.2239C642.208 71.8426 642.912 72.3354 643.694 72.6722C644.475 73.009 645.317 73.1828 646.168 73.1828C647.019 73.1828 647.861 73.009 648.643 72.6722C649.424 72.3354 650.129 71.8426 650.713 71.2239C651.298 70.6053 651.749 69.8739 652.041 69.0745C652.333 68.2751 652.458 67.4245 652.41 66.5749L652.41 65.8848C652.394 64.237 651.732 62.6612 650.567 61.496C649.402 60.3308 647.826 59.6692 646.179 59.6533V59.6533Z" fill="#626262"/>
<path opacity="0.3" d="M621.741 107.008C621.651 105.751 621.173 104.552 620.374 103.578C619.574 102.604 618.491 101.901 617.275 101.568C616.313 101.309 615.303 101.275 614.325 101.469C613.347 101.663 612.427 102.079 611.636 102.685C610.844 103.292 610.203 104.072 609.762 104.966C609.321 105.86 609.092 106.844 609.092 107.841C609.092 108.837 609.321 109.821 609.762 110.715C610.203 111.609 610.844 112.389 611.636 112.996C612.427 113.602 613.347 114.019 614.325 114.212C615.303 114.406 616.313 114.372 617.275 114.113C618.754 113.67 620.021 112.706 620.842 111.399C621.663 110.093 621.983 108.532 621.741 107.008V107.008Z" fill="#626262"/>
<path opacity="0.3" d="M649.653 107.433C641.534 107.433 641.534 119.916 649.653 119.916C657.772 119.916 657.691 107.433 649.653 107.433Z" fill="#626262"/>
<path d="M647.492 758.388C645.749 754.599 643.006 751.357 639.558 749.012C636.109 746.667 632.086 745.307 627.922 745.08C623.757 744.852 619.61 745.765 615.926 747.72C612.243 749.676 609.163 752.599 607.018 756.176C604.846 759.565 610.245 762.712 612.397 759.322C620.008 747.407 636.186 749.011 642.113 761.534C643.818 765.087 649.197 762.001 647.492 758.388Z" fill="#626262"/>
<path opacity="0.3" d="M610.108 753.03L609.418 753.03C607.824 753.121 606.326 753.818 605.229 754.978C604.133 756.139 603.522 757.675 603.522 759.271C603.522 760.868 604.133 762.404 605.229 763.564C606.326 764.725 607.824 765.422 609.418 765.513L610.108 765.513C610.958 765.561 611.808 765.436 612.608 765.144C613.407 764.852 614.139 764.4 614.757 763.816C615.376 763.232 615.869 762.527 616.206 761.746C616.542 760.964 616.716 760.122 616.716 759.271C616.716 758.42 616.542 757.578 616.206 756.797C615.869 756.015 615.376 755.311 614.757 754.726C614.139 754.142 613.407 753.69 612.608 753.398C611.808 753.107 610.958 752.981 610.108 753.03V753.03Z" fill="#626262"/>
<path opacity="0.3" d="M646.182 754.428C644.536 754.454 642.964 755.119 641.797 756.281C640.631 757.443 639.962 759.013 639.93 760.66L639.93 761.35C639.882 762.199 640.007 763.05 640.299 763.849C640.591 764.649 641.043 765.38 641.627 765.999C642.211 766.617 642.916 767.11 643.697 767.447C644.479 767.784 645.321 767.958 646.172 767.958C647.023 767.958 647.865 767.784 648.646 767.447C649.428 767.11 650.132 766.617 650.717 765.999C651.301 765.38 651.753 764.649 652.045 763.849C652.336 763.05 652.462 762.199 652.414 761.35L652.414 760.66C652.398 759.012 651.736 757.436 650.571 756.271C649.406 755.106 647.83 754.444 646.182 754.428V754.428Z" fill="#626262"/>
<path d="M177.291 306.904C179.544 306.579 266.358 300.652 282.515 297.222C298.672 293.791 372.171 285.916 381.711 285.469C391.251 285.023 454.946 281.41 460.873 281.41C466.8 281.41 501.591 281.734 501.591 281.734L503.803 286.768L515.596 288.798C515.596 288.798 530.333 439.449 531.835 453.475C533.337 467.501 537.68 517.82 537.68 517.82L539.954 531.115C539.954 531.115 412.077 539.762 394.194 543.456C376.312 547.15 278.861 551.453 271.777 554.823C264.693 558.192 198.847 561.927 198.847 561.927L202.379 547.414C202.379 547.414 190.362 555.635 189.652 542.786C188.942 529.938 177.291 306.904 177.291 306.904Z" fill="#60C9EB"/>
<path d="M418.764 317.353C418.736 317.175 418.674 317.005 418.581 316.851C418.487 316.698 418.364 316.565 418.219 316.459C418.074 316.353 417.909 316.277 417.734 316.236C417.559 316.194 417.378 316.188 417.201 316.216C416.852 316.299 416.548 316.51 416.348 316.807C416.149 317.105 416.069 317.466 416.125 317.82C416.176 318.803 416.135 319.788 416.003 320.763C415.972 320.944 415.979 321.128 416.022 321.306C416.066 321.484 416.145 321.651 416.255 321.796C416.366 321.942 416.505 322.064 416.664 322.154C416.823 322.244 416.999 322.3 417.181 322.32C417.363 322.339 417.547 322.321 417.722 322.267C417.896 322.213 418.058 322.123 418.197 322.004C418.336 321.885 418.448 321.738 418.528 321.574C418.608 321.409 418.654 321.23 418.662 321.047C418.807 319.822 418.841 318.585 418.764 317.353V317.353Z" fill="#E96262"/>
<path d="M446.488 319.951C446.433 319.596 446.24 319.277 445.951 319.064C445.662 318.852 445.3 318.761 444.945 318.814C444.594 318.892 444.287 319.102 444.087 319.401C443.887 319.699 443.809 320.063 443.869 320.417C443.921 321.47 443.859 322.524 443.687 323.564C443.658 323.923 443.768 324.279 443.995 324.559C444.222 324.838 444.547 325.02 444.905 325.066C445.259 325.088 445.608 324.971 445.877 324.74C446.147 324.509 446.315 324.181 446.346 323.828C446.545 322.545 446.593 321.244 446.488 319.951V319.951Z" fill="#E96262"/>
<path d="M418.764 317.353C418.736 317.175 418.674 317.005 418.581 316.851C418.487 316.698 418.364 316.565 418.219 316.459C418.074 316.353 417.909 316.277 417.734 316.236C417.559 316.194 417.378 316.188 417.201 316.216C416.852 316.299 416.548 316.51 416.348 316.807C416.149 317.105 416.069 317.466 416.125 317.82C416.176 318.803 416.135 319.788 416.003 320.763C415.972 320.944 415.979 321.128 416.022 321.306C416.066 321.484 416.145 321.651 416.255 321.796C416.366 321.942 416.505 322.064 416.664 322.154C416.823 322.244 416.999 322.3 417.181 322.32C417.363 322.339 417.547 322.321 417.722 322.267C417.896 322.213 418.058 322.123 418.197 322.004C418.336 321.885 418.448 321.738 418.528 321.574C418.608 321.409 418.654 321.23 418.662 321.047C418.807 319.822 418.841 318.585 418.764 317.353V317.353Z" fill="#626262"/>
<path d="M446.488 319.951C446.433 319.596 446.24 319.277 445.951 319.064C445.662 318.852 445.3 318.761 444.945 318.814C444.594 318.892 444.287 319.102 444.087 319.401C443.887 319.699 443.809 320.063 443.869 320.417C443.921 321.47 443.859 322.524 443.687 323.564C443.658 323.923 443.768 324.279 443.995 324.559C444.222 324.838 444.547 325.02 444.905 325.066C445.259 325.088 445.608 324.971 445.877 324.74C446.147 324.509 446.315 324.181 446.346 323.828C446.545 322.545 446.593 321.244 446.488 319.951V319.951Z" fill="#626262"/>
<path d="M418.764 317.353C418.736 317.175 418.674 317.005 418.581 316.851C418.487 316.698 418.364 316.565 418.219 316.459C418.074 316.353 417.909 316.277 417.734 316.236C417.559 316.194 417.378 316.188 417.201 316.216C416.852 316.299 416.548 316.51 416.348 316.807C416.149 317.105 416.069 317.466 416.125 317.82C416.176 318.803 416.135 319.788 416.003 320.763C415.972 320.944 415.979 321.128 416.022 321.306C416.066 321.484 416.145 321.651 416.255 321.796C416.366 321.942 416.505 322.064 416.664 322.154C416.823 322.244 416.999 322.3 417.181 322.32C417.363 322.339 417.547 322.321 417.722 322.267C417.896 322.213 418.058 322.123 418.197 322.004C418.336 321.885 418.448 321.738 418.528 321.574C418.608 321.409 418.654 321.23 418.662 321.047C418.807 319.822 418.841 318.585 418.764 317.353V317.353Z" fill="#626262"/>
<path d="M446.488 319.951C446.433 319.596 446.24 319.277 445.951 319.064C445.662 318.852 445.3 318.761 444.945 318.814C444.594 318.892 444.287 319.102 444.087 319.401C443.887 319.699 443.809 320.063 443.869 320.417C443.921 321.47 443.859 322.524 443.687 323.564C443.658 323.923 443.768 324.279 443.995 324.559C444.222 324.838 444.547 325.02 444.905 325.066C445.259 325.088 445.608 324.971 445.877 324.74C446.147 324.509 446.315 324.181 446.346 323.828C446.545 322.545 446.593 321.244 446.488 319.951V319.951Z" fill="#626262"/>
<path d="M175.669 306.612L345.079 287.884L461.797 281.344L503.634 283.209L524.439 520.476L188.856 550.283L175.669 306.612Z" fill="#E9AD62"/>
<path d="M190.952 550.174C184.525 469.212 180.167 388.108 177.88 306.862L176.277 308.71C214.843 304.772 253.409 301.22 291.975 296.328C328.227 291.74 364.358 287.437 400.914 286.463C416.544 286.057 431.929 285.103 447.599 283.926C455.394 283.337 463.127 283.195 470.922 283.297C475.306 283.297 479.69 283.418 484.075 283.5L490.611 283.5C492.498 283.5 497.126 282.749 498.872 283.5C501.978 284.88 502.038 292.146 502.221 294.643C502.587 299.474 502.965 304.291 503.358 309.095C504.116 318.283 504.894 327.478 505.692 336.68C507.357 355.49 509.082 374.299 510.868 393.108C514.806 435.267 518.865 477.426 522.032 519.646L523.635 517.819C436.923 527.968 349.682 532.494 262.807 540.837C238.571 543.171 214.356 545.81 190.201 548.956C188.009 549.24 188.172 552.691 190.425 552.407C277.036 541.222 364.256 536.391 451.192 528.658C475.448 526.506 499.684 524.111 523.879 521.29C524.331 521.253 524.752 521.042 525.051 520.701C525.35 520.36 525.505 519.916 525.483 519.463C522.539 480.389 518.845 441.397 515.192 402.385C513.365 382.899 511.565 363.412 509.792 343.926C508.148 325.334 507.174 306.517 504.921 288.046C504.21 282.383 504.048 280.089 497.735 280.11C488.094 280.11 478.473 279.866 468.831 279.785C453.161 279.643 437.694 281.51 422.146 282.444C403.878 283.52 385.609 283.297 367.341 284.575C349.073 285.854 330.44 287.884 312.07 290.218C266.826 295.942 221.541 300.59 176.074 305.198C175.62 305.239 175.2 305.455 174.901 305.799C174.602 306.143 174.448 306.59 174.47 307.045C176.744 388.237 181.101 469.341 187.542 550.356C187.608 550.784 187.833 551.172 188.171 551.442C188.51 551.712 188.938 551.845 189.37 551.814C189.802 551.784 190.206 551.592 190.503 551.276C190.8 550.961 190.968 550.546 190.973 550.113L190.952 550.174Z" fill="#E9AD62"/>
<path d="M198.26 550.498L197.042 561.662C197 561.917 197.015 562.178 197.086 562.427C197.158 562.676 197.283 562.906 197.454 563.1C197.625 563.294 197.837 563.448 198.075 563.551C198.313 563.653 198.57 563.701 198.829 563.691C245.209 560.464 291.225 553.806 337.464 549.321C360.705 547.067 384.149 546.357 407.288 544.246C430.428 542.135 453.101 538.542 476.119 536.614C489.136 535.518 502.147 534.638 515.152 533.975C520.551 533.691 525.991 533.224 531.39 533.346C534.211 533.346 537.743 533.955 540.402 532.798C540.756 532.671 541.059 532.431 541.264 532.116C541.469 531.801 541.566 531.427 541.539 531.052C539.673 520.302 538.372 509.462 537.642 498.576C536.167 481.81 534.638 465.057 533.054 448.318C529.847 414.569 526.525 380.834 523.088 347.113C521.139 327.64 519.204 308.188 517.283 288.756C517.257 288.381 517.111 288.024 516.866 287.739C516.62 287.453 516.29 287.255 515.923 287.173L506.2 286.259C504.008 286.056 503.298 289.426 505.51 289.629L515.233 290.562L513.852 288.979C520.49 356.571 527.574 424.103 533.582 491.756C534.407 505.005 535.918 518.203 538.109 531.296L539.266 529.55C536.83 530.646 533.298 529.956 530.7 529.916C525.788 529.916 520.835 530.261 515.923 530.504C504.583 531.1 493.237 531.837 481.883 532.717C458.845 534.523 436.01 537.649 413.033 540.227C390.055 542.805 367.099 543.15 344.182 545.241C321.266 547.331 298.654 550.051 275.92 552.67C250.203 555.633 224.445 558.475 198.605 560.261L200.412 562.291L201.63 551.127C201.873 548.955 198.504 548.245 198.26 550.437L198.26 550.498Z" fill="#60C9EB"/>
</svg>
