<svg width="887" height="584" viewBox="0 0 887 584" fill="none" xmlns="http://www.w3.org/2000/svg">
<path d="M36.2383 576.717L26.7332 546.42L23.1687 296.315L26.1391 4.03154L883.385 12.3485L875.068 580.282L36.2383 576.717Z" fill="#E9AD62"/>
<path d="M28.3178 3.74121L756.796 6.3108L849.301 99.4584L869.215 551.706H28.3178V3.74121Z" fill="#60C9EB"/>
<mask id="mask0_137_26605" style="mask-type:alpha" maskUnits="userSpaceOnUse" x="27" y="9" width="842" height="549">
<path d="M27.1697 9.53857L755.648 12.1082L848.153 105.256L868.067 557.503H27.1697V9.53857Z" fill="#60C9EB"/>
</mask>
<g mask="url(#mask0_137_26605)">
<path fill-rule="evenodd" clip-rule="evenodd" d="M375.963 704.432L376.152 704.18C376.495 704.572 376.453 704.971 377.146 705.342C378.123 704.339 378.777 703.066 379.023 701.688C378.19 700.862 377.588 701.94 377.356 700.799C379.086 698.586 379.303 696.43 381.032 694.21L381.074 694.455L381.319 694.455L382.208 695.156C382.393 695.051 382.534 694.885 382.607 694.686C382.679 694.486 382.678 694.268 382.604 694.069C382.53 693.871 382.387 693.706 382.201 693.603C382.016 693.501 381.8 693.468 381.592 693.51L381.291 693.279L381.109 693.524C381.431 690.85 383.511 688.841 384.183 686.488C384.435 685.62 383.847 684.388 384.036 683.625C385.009 679.795 387.872 677.477 389.875 673.62C392.248 669.048 392.122 663.216 395.441 659.078C399.445 654.079 405.487 652.91 409.975 647.568L410.178 647.918L410.563 648.03C410.731 648.184 410.885 648.338 410.675 648.506C411.719 649.207 412.419 647.442 411.032 646.819C410.892 646.98 410.78 647.148 410.647 647.309L410.444 646.959L410.066 646.854C411.242 645.286 414.848 644.901 412.979 642.45C413.511 641.526 414.589 643.073 415.009 641.659C414.309 638.159 419.343 636.905 418.65 633.881C419.217 633.097 420.12 633.881 420.568 632.614C421.233 631.801 419.343 631.066 420.043 630.254C423.943 630.597 420.316 624.359 423.033 623.953C423.033 623.176 421.1 623.253 421.632 622.091C423.943 622.707 424.727 618.282 425.322 616.693C424.335 615.293 423.586 616.693 423.355 615.573C423.355 613.521 425.063 615.068 425.847 613.57C426.218 612.996 425.504 612.464 424.755 611.939C426.694 610.042 427.863 606.828 431.644 606.674C431.882 605.869 430.944 604.378 432.561 604.259C434.445 604.42 431.945 606.394 433.961 607.311C437.28 605.582 435.733 602.214 434.508 599.876C435.397 598.77 436.608 599.134 437.483 597.86C436.783 596.669 435.74 596.858 435.012 595.563C434.823 592.462 431.924 589.451 433.198 586.3C430.461 585.6 431.574 582.177 429.516 580.699C427.576 579.299 424.265 580.91 421.38 581.463C418.496 582.016 415.688 582.863 413.469 583.171C411.109 583.472 408.008 583.087 406.006 583.675C398.367 585.873 389.609 595.136 383.602 601.675C381.2 604.287 381.557 606.968 380.325 608.963C377.679 613.255 372.365 615.531 369.228 617.239C367.191 614.62 369.928 612.443 370.747 609.776C371.118 608.529 370.418 606.975 370.873 605.946C372.512 602.235 375.256 602.067 379.317 601.101C379.079 601.43 379.905 602.046 380.206 601.801C381.347 599.939 382.698 599.113 383.91 597.6C383.543 597.224 383.064 596.978 382.544 596.9C383.441 596.2 384.225 594.954 385.219 594.653C384.752 595.152 384.857 595.619 385.534 596.053C386.479 594.786 387.634 594.408 388.481 592.84C388.32 591.972 387.319 592.462 387.69 591.439C388.495 591.306 388.593 592.84 389.539 592.098C391.107 590.389 390.484 587.092 394.215 587.862C395.147 587.274 394.432 586.741 393.613 586.216C394.678 585.516 395.945 585.761 396.974 584.9C396.847 584.544 396.805 584.163 396.85 583.788C396.895 583.413 397.026 583.053 397.233 582.737C399.081 581.183 402.365 581.183 401.903 578.536C402.162 577.458 403.009 579.089 403.254 578.011C403.772 577.192 403.17 576.422 403.219 575.624C406.251 574.587 405.438 570.814 406.776 568.559C408.113 566.305 410.633 564.933 412.104 562.881C411.193 561.635 412.86 560.305 412.713 559.031C413.567 558.905 415.429 559.731 415.226 558.225C415.709 557.126 412.895 557.455 414.127 556.594C417.053 555.005 416.269 549.971 420.197 548.732C420.652 548.032 418.594 547.332 419.497 546.632C419.973 545.658 422.178 544.727 423.299 542.914C424.506 543.125 425.749 542.999 426.89 542.55C428.991 541.626 434.171 536.312 432.673 534.456C431.21 534.162 430.146 535.591 428.598 534.841C428.767 534.197 428.318 533.574 427.688 532.958C431.189 529.57 430.251 526.335 432.589 522.988C431.63 518.326 424.188 518.088 421.387 519.796C418.881 521.294 419.021 524.157 417.803 525.663C415.933 527.966 411.845 528.351 409.674 526.426C404.927 522.225 413.07 519.852 414.575 517.646C415.646 516.05 414.68 513.754 417.775 512.276C417.214 509.308 419.287 506.122 417.418 502.972C413.917 497 410.885 498.953 406.321 500.248C402.407 501.348 398.619 502.874 394.832 503.518C389.707 504.4 384.547 504.12 380.234 505.947C378.519 506.647 377.16 508.461 374.864 509.245C373.142 509.826 368.661 509.42 367.968 509.014C369.466 507.677 371.335 508.062 372.666 505.975C372.099 503.462 372.82 498.218 374.549 496.825C375.655 495.929 378.05 496.58 379.177 495.711C380.64 494.591 380.234 492.386 380.738 490.636C375.228 482.703 367.653 485.441 360.953 485.119C359.489 485.042 357.809 484.286 356.388 484.314C349.296 484.461 343.681 488.927 336.441 491.231C331.33 492.855 325.939 494.661 323.433 496.482C322.124 497.406 321.76 498.82 320.675 499.436C319.974 499.814 318.721 499.492 317.58 499.786C314.779 500.486 313.029 500.788 310.628 501.467C307.778 502.258 303.984 503.392 302.044 504.631C301.498 504.988 300.693 506.62 299.293 507.6C298.593 508.083 296.317 508.503 294.392 509.7C292.572 510.813 291.066 512.388 289.694 512.739C286.446 513.565 283.526 511.863 284.492 509.091C285.801 505.331 293.097 503.854 294.994 503.49C298.285 502.79 300.742 501.096 303.396 500.563L303.599 500.914L303.984 501.018C303.788 501.271 303.599 501.509 303.417 501.761C304.495 502.097 306.343 501.705 306.287 500.458C306.105 500.304 305.902 500.15 305.706 500.003L305.412 499.772L305.111 499.548C311.923 494.598 319.015 491.021 326.78 490.447L326.584 490.692L326.878 490.923C327.326 492.358 328.978 492.162 329.601 491.063C329.221 490.686 328.73 490.441 328.201 490.363L328.397 490.118L328.103 489.887C328.754 489.186 329.65 489.578 330.413 489.333L330.609 489.684L331.001 489.788L330.623 490.279C330.924 490.51 331.218 490.734 331.505 490.979C331.701 490.741 331.891 490.489 332.073 490.244C331.785 490.013 331.484 489.789 331.197 489.544L331.526 489.417L331.568 489.06C331.72 488.85 331.928 488.688 332.169 488.594C332.41 488.5 332.673 488.477 332.927 488.528L333.123 488.878L333.508 488.99L333.13 489.487C335.496 489.88 337.541 488.787 339.494 487.345C339.207 487.114 338.906 486.883 338.612 486.645L338.955 486.512L338.99 486.155C340.39 484.755 342.287 485.609 343.709 484.314L343.765 484.552L343.814 484.79C344.647 485.616 345.298 485.595 345.753 484.72L344.864 484.019L345.102 484.019L345.06 483.775C346.684 483.032 348.763 484.37 350.493 484.069C352.488 482.598 350.374 481.268 352.369 480.414C352.866 481.569 355.338 481.989 353.902 479.651C355.415 482.08 355.52 478.902 357.403 479.994C358.299 479.483 358.495 478.153 359.881 477.999C359.363 478.237 360.974 479.476 361.072 478.916C361.191 477.333 362.773 477.515 363.746 476.668C364.796 477.193 363.452 477.788 364.838 478.307C365.685 475.352 368.423 476.906 370.691 474.988C371.889 475.429 370.313 475.961 371.496 476.388C373.758 474.988 375.984 473.441 378.253 474.988C378.316 472.054 379.387 469.093 375.599 467.427C374.15 466.789 366.995 468.792 365.16 468.757L365.342 468.512L365.055 468.281C365.307 467.791 364.978 467.329 364.25 466.88C364.066 466.985 363.924 467.151 363.852 467.351C363.779 467.55 363.78 467.768 363.855 467.967C363.929 468.165 364.072 468.331 364.257 468.433C364.443 468.536 364.659 468.569 364.866 468.526L364.67 468.778L364.964 469.009C360.596 472.089 356.451 476.108 351.207 475.226C350.682 473.238 350.787 471.41 352.957 469.912C353.965 470.451 352.74 472.278 354.161 472.012C356.682 472.159 353.937 470.269 354.974 469.114C356.829 468.225 356.101 470.752 357.83 470.92C358.446 470.024 356.248 469.226 357.004 468.323C357.879 468.624 358.439 467.476 359.433 468.239C360.96 468.827 358.306 469.548 359.853 470.136C360.315 466.811 364.152 465.641 367.121 464.388C367.387 463.982 366.519 463.604 367.121 463.184C370.089 463.184 370.936 459.641 373.653 459.606C374.276 458.661 373.968 458.353 374.969 457.898C375.872 457.686 376.816 457.735 377.693 458.038C379.303 453.613 382.999 456.855 385.744 452.493C386.528 452.031 385.821 453.753 386.92 453.403C387.326 451.688 388.817 451.877 390.183 451.618C391.24 455.272 381.494 461.84 386.241 464.668C387.361 465.333 388.558 464.983 389.623 463.352L389.91 463.583L390.099 463.331C390.442 463.716 390.393 464.122 391.086 464.5L391.849 463.513C391.469 463.142 390.977 462.908 390.449 462.848L390.645 462.603L390.351 462.372C390.295 461.567 390.351 459.522 391.17 459.48C390.862 460.068 392.528 460.607 392.731 459.9C393.592 459.389 392.409 458.948 391.926 458.5C392.444 457.513 393.438 458.71 393.949 457.716C394.692 455.889 394.439 452.759 395.007 451.464C395.154 451.114 396.176 450.848 396.246 450.463C396.463 449.216 395.546 448.222 395.994 447.13C396.457 446.858 396.877 446.518 397.24 446.122C398.416 444.883 398.122 442.684 400.377 442.67C399.557 440.78 399.802 440.388 401.581 439.282C400.363 437.965 400.615 436.607 400.44 435.256C398.528 430.817 392.458 429.004 387.949 425.174C386.892 424.292 386.353 423.333 385.485 422.871C382.453 421.254 379.009 422.647 376.824 421.268L377.02 421.015L376.719 420.784C379.086 417.193 371.671 414.238 369.599 412.915C367.527 411.592 366.148 409.414 364.481 408.553C362.318 407.468 359.384 408.287 356.024 407.888C355.114 407.776 354.231 407.09 353.391 407.034C348.371 406.635 344.073 409.386 339.998 406.075C328.229 407.678 316.537 409.68 303.739 406.621C302.562 406.026 302.891 405.382 301.869 404.794C300.308 406.194 298.194 405.123 296.135 404.269L296.044 403.883L295.736 403.561C298.201 401.867 301.904 405.718 304.264 403.505L302.198 401.909L302.541 401.776L302.583 401.419C307.912 401.31 313.238 401.732 318.483 402.679L318.301 402.931L318.595 403.162C316.633 403.951 314.494 404.193 312.406 403.862C312.322 404.114 312.035 404.367 312.322 404.598C315.123 406.39 319.589 405.893 319.869 403.372L319.281 402.917L319.512 402.917L319.463 402.679C322.446 401.447 326.037 402.945 329.153 402.343L328.971 402.588L329.258 402.819C329.069 403.05 328.88 403.302 328.691 403.519C329.881 405.109 332.647 403.603 331.582 402.224L331.771 401.972L331.47 401.748C331.743 401.524 332.094 401.615 332.444 401.748L332.64 402.091L333.032 402.203C332.906 402.371 332.773 402.518 332.647 402.686C333.027 403.063 333.517 403.308 334.047 403.386L333.851 403.617L334.145 403.848C334.439 404.079 334.355 404.331 334.544 404.548C336.791 403.533 338.745 405.207 340.229 402.672C343.148 404.072 345.333 402.133 347.993 402.406C348.455 401.993 347.993 401.615 347.993 401.216L348.287 401.44L348.469 401.195C349.17 399.795 350.738 402.133 350.682 400.152C349.779 399.039 349.513 400.719 348.644 399.746C351.2 397.302 356.577 398.135 360.75 399.312L360.561 399.564L360.862 399.788C360.589 399.847 360.335 399.969 360.12 400.146C359.904 400.322 359.734 400.548 359.622 400.803L359.279 400.929L359.237 401.286C358.537 401.111 357.837 400.95 357.41 401.839C358.327 402.707 359.139 403.057 359.636 401.993L359.979 401.867L360.021 401.51C361.177 401.951 362.311 402.301 363.116 401.153C362.654 400.509 362.535 399.473 361.534 399.536L361.723 399.284L361.429 399.053C362.64 398.577 364.971 397.47 365.804 398.913C365.37 398.619 364.999 399.298 365.706 399.613C366.862 399.032 369.011 399.074 371.041 399.424C371.461 400.621 368.521 400.901 369.739 402.336C371.875 403.19 373.632 402.336 375.543 402.126C375.657 400.681 376.098 399.281 376.831 398.03C377.563 396.772 378.455 395.614 379.485 394.586C380.031 392.023 376.201 389.594 377.321 387.011L377.258 386.772L377.209 386.534C378.547 386.828 378.099 384.56 377.083 384.861C376.87 385.135 376.772 385.482 376.81 385.827L376.516 385.596L376.32 385.855C375.984 385.463 376.033 385.064 375.333 384.686C374.71 384.049 374.633 385.932 373.884 384.742C365.937 376.943 355.87 382.18 346.796 377.09C343.49 375.303 340.498 372.988 337.94 370.235C341.902 371.209 346.054 373.036 349.408 371.265C345.613 368.205 340.614 369.045 336.105 366.469C337.786 366.413 338.045 366.588 338.402 364.719C341.748 367.344 347.972 363.423 351.403 364.964C355.345 366.742 361.072 367.134 364.572 369.276C365.468 369.836 366.218 371.076 367.03 371.58C369.998 373.477 373.429 373.372 376.495 374.611C377.391 374.968 378.274 375.934 379.044 376.201C380.052 376.516 380.927 376.004 382.054 376.558C386.444 378.728 388.509 381.585 392.654 383.608C395.623 385.008 398.024 384.385 400.237 384.77C401.798 385.036 402.806 386.093 403.954 386.079C408.198 385.965 412.387 385.085 416.318 383.482C419.518 382.173 423.621 379.218 427.037 381.199C429.04 382.355 430.321 385.694 429.838 387.305C429.222 389.489 425.714 389.447 423.705 391.589C420.974 394.509 421.982 396.266 423.082 399.739C430.286 403.729 439.275 407.902 443.959 401.391C440.368 397.694 440.298 393.872 437.07 390.189C436.118 384.644 436.125 379.078 430.475 373.701C430.377 371.062 428.556 368.492 429.46 365.832C427.485 364.068 428.199 362.296 427.814 360.644C427.695 360.091 426.946 359.615 426.722 358.999C426.267 357.731 426.911 356.247 426.652 355.428C426.295 354.245 424.601 351.031 423.558 350.268C421.744 348.938 418.153 349.715 415.975 349.106C415.457 348.945 415.002 348.175 414.498 347.951C412.972 347.251 410.864 347.328 409.338 346.704C406.034 345.36 402.813 342.35 399.774 343.204C399.179 344.191 398.374 344.31 397.674 344.723C395.574 343.463 393.214 341.18 393.396 338.653C394.446 339.71 394.958 338.359 395.609 337.61C397.24 338.394 398.717 338.415 399.76 336.518C398.36 334.144 393.459 331.491 389.854 330.406C387.753 329.782 384.337 330.539 383.343 329.705C382.348 328.872 383.301 326.947 382.313 326.156C385.205 326.401 388.579 328.697 390.953 326.576C388.852 324.833 389.49 322.48 387.634 320.464C383.868 316.375 381.144 316.963 376.796 315.605C372.596 314.268 369.487 312.16 366.743 312.104C361.079 312.02 355.247 315.248 350.423 315.563C351.172 318.251 353.755 317.236 355.793 317.761C358.789 318.517 362.514 320.842 364.894 321.262C361.653 323.173 357.109 319.161 353.629 320.002C351.529 317.656 350.885 319.463 349.429 317.523C346.348 319.015 342.126 315.423 338.514 314.555C336.126 305.649 326.065 305.124 318.588 300.671C310.936 298.816 302.674 300.111 294.602 292.683L294.889 292.914L295.078 292.662C295.272 292.77 295.498 292.801 295.714 292.749C295.929 292.697 296.117 292.566 296.24 292.382C295.743 291.99 295.253 291.612 294.763 291.241C294.574 291.472 294.378 291.724 294.189 291.976L294.14 291.738L293.895 291.738C293.355 291.17 292.885 290.54 292.495 289.861C292.775 284.225 296.065 281.691 301.176 281.677C307.89 281.677 319.029 284.477 324.245 286.578C328.873 284.659 336.693 284.548 341.811 282.132C346.012 280.137 350.136 276.013 346.768 271.434C345.368 269.53 343.478 269.012 342.721 267.513C342.486 266.736 342.308 265.943 342.189 265.14C342.014 259.133 349.191 257.796 352.894 256.164C355.359 255.093 357.494 253.203 359.622 252.356C360.224 252.104 361.163 252.356 361.723 252.027C364.775 250.354 366.911 248.302 369.795 247.693C372.323 247.567 374.591 249.667 376.999 249.331C378.029 249.205 379.1 247.812 380.262 247.56C381.9 247.175 383.644 248.33 384.519 246.923C386.283 248.323 388.719 247.497 391.142 248.127C391.842 248.316 392.346 249.128 393.088 249.247C394.04 249.422 394.979 248.827 396.008 249.156C397.723 249.709 399.249 251.467 400.804 252.097C405.214 253.861 407.805 251.985 410.941 249.345C410.283 247.658 409.38 246.027 407.189 245.656C406.125 242.281 402.246 241.259 399.69 238.269C398.64 239.747 397.065 238.409 395.987 236.96C395.987 237.338 395.987 238.402 395.119 237.464C392.22 237.968 389.427 235.329 385.933 233.474C382.789 231.828 379.114 231.373 376.663 230.239C372.666 228.398 372.218 225.548 369.662 224.022C371.356 223.539 369.487 222.244 368.542 221.186C367.261 220.871 368.955 223.049 367.492 221.943C365.86 221.2 367.135 220.36 365.503 219.618C365.251 220.955 365.503 221.018 363.97 220.402L364.159 220.15L363.872 219.919C363.94 219.843 364.001 219.761 364.054 219.674C364.187 219.52 364.313 219.352 364.439 219.184C364.125 218.939 363.75 218.784 363.354 218.736L362.983 219.24L362.794 219.492L363.095 219.716C362.535 220.164 361.52 218.512 360.939 218.834L361.128 218.582L360.827 218.358C361.352 217.658 359.895 216.691 359.251 216.734L359.069 216.986L359.013 216.748L358.775 216.748C357.571 215.522 354.687 214.556 353.804 215.249C355.058 213.618 350.689 213.233 352.096 211.966C354.56 210.166 358.481 213.681 361.653 215.466C367.303 218.617 371.139 220.997 376.719 222.825C380.143 223.938 382.95 224.057 385.191 224.687C389.973 226.003 393.844 228.776 393.844 231.772C397.758 233.067 401.322 236.169 405.046 238.073C405.921 238.542 406.853 238.444 407.686 238.955C408.827 239.656 409.59 240.986 410.738 241.707C411.137 241.959 412.356 241.917 412.783 242.113C417.544 244.283 421.611 248.162 425.616 249.317C426.491 249.562 427.429 249.17 428.325 249.45C429.222 249.73 430.041 250.717 430.881 251.04C431.98 251.46 433.737 251.614 435.257 252.076C439.856 253.476 441.005 253.693 444.568 252.216C446.858 251.292 448.972 249.751 451.31 249.604C454.902 249.38 456.624 250.606 460.643 250.942C466.636 256.683 466.244 247.231 468.505 245.656C467.805 245.033 467.637 244.409 468.085 243.758C476.676 232.213 487.15 229.154 501.124 241.882C501.558 244.683 503.785 247.364 505.626 250.087C510.471 245.467 518.753 237.016 517.087 229.084C519.551 225.996 520.875 222.615 524.207 220.472C526.567 218.953 530.34 218.624 532.063 215.172C533.12 214.829 534.373 215.655 535.563 215.543C537.517 215.34 538.42 213.863 540.17 213.219C541.087 212.89 542.389 213.219 543.279 212.876C547.311 211.371 550.616 208.675 554.838 208.871C556.653 207.606 558.67 206.659 560.803 206.071C559.795 204.194 559.711 203.41 557.918 201.87C555.531 199.819 553.157 197.144 551.015 194.939C547.78 191.606 542.522 186.25 538.707 184.619C525.629 179.018 510.485 172.983 498.1 163.335C496.79 162.733 498.338 162.047 497.196 161.459C496.545 161.109 496.23 162.229 495.446 161.263C494.165 158.693 492.261 159.954 490.622 157.139L490.965 157.013L490.965 156.642C493.577 156.467 495.32 158.847 497.827 159.996C499.927 160.976 502.58 160.892 504.828 161.893C505.871 162.376 506.655 163.293 507.677 163.706C509.96 164.623 512.648 164.819 515.281 166.08C516.086 166.458 516.849 167.48 517.64 167.9C519.278 168.782 521.141 168.985 522.716 169.874C530.83 174.509 538.119 180.649 545.617 187.244C549.314 190.479 553.122 192.775 557.302 195.905C561.482 199.034 566.964 204.671 570.604 206.197C572.929 207.17 575.722 206.295 577.319 206.687C580.819 207.534 587.435 212.988 590.621 212.659C593.54 212.393 596.32 208.661 595.522 206.274C597.3 203.473 600.115 202.472 602.306 200.54C603.132 199.84 603.237 198.369 604.091 197.606C604.945 196.843 606.794 197.039 607.753 196.514C608.971 195.898 610.364 194.645 611.779 193.749C613.193 192.852 615.475 191.872 616.112 191.207C617.296 189.961 618.724 185.158 617.037 183.282C616.385 182.581 614.607 182.211 613.214 181.517C605.513 177.646 598.252 174.145 592.784 166.444L592.742 166.22L592.679 165.982C594.283 166.955 593.162 163.965 592.385 165.758L592.14 165.758L592.189 165.975C589.669 164.714 590.887 163.314 589.599 162.005C588.57 162.397 588.199 161.235 587.155 160.913C585.657 160.423 584.355 161.263 582.794 161.053C579.874 160.675 574.819 159.015 571.942 156.152C570.247 154.479 567.349 149.382 571.003 146.392C571.788 145.741 575.694 144.992 577.571 145.202C581.442 145.65 585.727 148.647 587.176 151.069C588.801 153.793 587.505 157.37 589.368 159.856C593.064 164.707 598.672 163.86 601.802 166.346C604.665 168.621 605.541 174.103 609.825 176.091C612.339 177.261 615.503 175.02 617.954 175.328C618.948 175.468 619.823 176.539 620.691 176.665C622.371 176.932 625.193 175.916 626.572 174.565C626.943 174.18 626.936 172.927 627.125 172.64C628.225 170.84 631.767 168.936 633.426 166.906C633.846 166.388 633.783 165.506 634.267 165.212C635.59 164.35 638.628 164.854 639.952 163.335C643.83 165.281 646.435 165.05 649.851 163.937C652.421 163.104 655.641 162.285 658.827 161.473C663.189 160.381 665.058 158.567 669.329 157.034C670.953 156.453 673.823 155.97 674.342 155.431C676.729 152.91 673.487 147.421 674.244 143.956C674.497 142.805 675.007 141.725 675.735 140.798C679.515 136.8 683.436 146.63 684.5 148.381C683.303 151.734 685.796 155.844 686.244 159.547C686.524 161.781 685.908 163.272 686.832 165.499C687.585 167.067 688.491 168.559 689.534 169.951C691.95 170.589 693.812 168.684 695.898 167.816C695.319 167.514 694.863 167.019 694.61 166.416C695.058 163.146 694.176 160.115 694.61 156.614C695.275 151.524 697.229 146.77 698.909 141.911C699.546 140.049 700.428 136.394 700.925 135.61C701.474 135.42 701.996 135.161 702.48 134.84C702.613 134.392 701.779 133.146 701.947 132.467C702.199 131.452 703.726 130.429 703.929 129.295C704.09 128.315 703.229 128.021 703.698 127.146C705.903 121.251 706.89 114.123 707.73 109.069C707.653 109.321 707.73 109.559 708.137 109.769C709.243 108.151 708.137 108.424 707.912 107.668C707.688 106.912 706.89 105.4 707.072 103.874C707.282 102.053 711.273 94.5972 713.373 96.9566C717.287 101.507 710.461 109.034 708.522 113.619C707.352 116.42 707.997 119.374 707.401 121.783C706.568 125.129 705.007 128.322 704.748 130.723C704.622 131.865 705.357 133.167 705.294 134.287C705.21 135.687 704.279 136.913 704.006 138.39C703.859 139.251 704.279 140.35 704.153 141.253C703.901 143.193 702.683 144.852 702.41 146.588C702.256 147.512 702.942 148.731 702.851 149.683C702.669 151.629 701.604 154.269 700.932 156.425C699.672 160.458 697.432 163.769 698.51 167.515C701.611 167.193 705.217 169.125 708.753 170.742C711.077 177.499 722.489 178.542 726.074 173.963C725.696 172.248 725.304 169.685 727.334 168.649C726.13 166.395 727.222 164.035 726.039 161.767C725.85 160.864 726.557 161.452 726.991 160.528C722.496 157.818 724.057 146.525 728.741 149.711C729.742 150.411 730.989 154.101 730.778 155.613C730.316 159.184 726.389 162.495 728.636 165.737C732.748 168.592 737.823 169.699 742.751 168.817C744.151 168.593 746.328 168.306 747.574 167.452C748.401 166.899 748.814 165.303 749.857 164.504C750.557 163.958 751.53 164.028 752.069 163.489C755.57 159.807 757.138 152.469 760.471 150.747C761.619 148.331 762.935 139.944 768.123 139.013C769.04 138.845 772.016 139.314 773.388 140.735C775.145 142.549 774.018 145.636 773.213 147.673C772.226 150.124 771.974 153.975 770.643 155.886C768.291 159.295 763.075 159.772 760.975 162.929C759.967 164.448 760.45 166.661 759.904 167.991C758.391 171.681 755.458 173.907 755.493 176.736C755.528 179.319 758.027 181.111 758.741 184.759C759.189 187.062 758.328 189.485 757.502 191.256C756.102 194.155 753.82 194.211 752.44 195.975C751.53 197.123 751.502 199.91 750.9 202.234C750.2 204.915 749.808 205.49 750.2 208.003C751.026 212.946 761.402 217.665 764.804 216.572C765.953 216.201 766.205 214.794 766.989 214.346C768.578 213.408 771.54 212.946 773.29 212.946C774.69 212.946 776.637 214.171 778.639 213.954C779.437 213.87 781.152 212.96 782.693 212.379C785.528 211.301 787.691 210.201 789.302 208.094C790.87 207.8 792.606 208.297 793.944 206.974C795.876 207.499 796.877 208.556 798.074 210.159C798.452 213.737 795.099 214.584 793.727 217.007C792.949 218.407 793.117 220.353 793.131 222.047C793.131 223.616 794.063 225.926 794 227.032C793.958 227.845 793.096 228.076 793.152 228.734C793.264 229.91 794.476 231.184 794.196 232.29C796.142 234.195 795.778 236.491 797.794 238.591C799.195 240.048 801.365 240.58 802.695 242.001C804.151 243.541 803.787 245.845 805.496 246.902C807.981 247.721 811.097 244.003 813.778 243.506C815.738 243.142 818.196 244.542 817.531 241.7C822.432 240.3 819.631 237.093 819.344 234.468C819.281 233.936 820.107 233.404 820.177 232.759C820.359 231.191 819.799 229.903 820.303 228.937C821.472 226.668 824.161 225.051 826.919 224.624C826.219 223.595 826.086 225.261 825.372 224.218C827.22 222.118 829.384 220.514 827.682 218.162C826.102 218.605 824.432 218.624 822.842 218.217C821.252 217.811 819.797 216.992 818.623 215.844C818.406 212.386 819.421 210.061 823.167 209.942C825.12 209.886 826.254 211.448 827.451 210.516C828.789 209.473 827.984 205 828.677 202.815C831.225 194.771 840.656 193.195 846.88 194.519C847.636 194.694 848.833 195.394 850.318 196.794C852.978 199.3 857.851 204.068 858.831 206.533C859.65 208.633 858.873 210.313 859.23 212.736C859.517 214.745 860.567 216.846 860.196 218.197C859.496 220.619 857.438 223.098 855.94 224.33C853.895 225.996 848.595 225.73 847.384 228.685C846.418 231.03 850.289 236.386 848.945 240.104C848.196 242.155 846.313 243.023 846.145 245.005C845.851 248.204 848.532 253.49 849.645 256.354C850.233 256.816 850.822 257.271 851.417 257.754C854.413 266.729 854.406 275.817 854.994 284.877C852.194 287.768 854.462 291.178 851.746 293.355C851.361 298.564 851.046 302.639 849.372 306.825C848.861 308.1 847.762 308.674 847.776 309.507C847.839 313.182 848.763 316.431 849.176 319.267C849.638 322.249 848.189 328.781 846.775 331.533C846.362 332.338 845.291 332.933 845.067 333.738C844.52 335.691 846.138 337.715 845.844 339.458C845.488 341.14 844.755 342.72 843.701 344.079C842.938 344.891 841.601 344.548 841.104 345.598C840.187 347.594 842.413 353.412 843.61 355.792C844.807 358.172 846.831 359.356 849.043 361.575C852.957 365.482 855.54 370.186 857.977 373.211C860.077 375.836 862.577 377.678 863.732 380.422C864.677 382.948 865.339 385.571 865.706 388.243C865.927 390.141 866.027 392.052 866.007 393.963C865.916 395.125 865.006 395.972 864.992 397.113C864.992 398.429 866.014 400.152 866.231 401.608C866.518 403.463 866.231 405.193 866.511 406.138C867.022 408.056 868.318 409.267 867.912 410.388C866.665 414.112 862.066 414.861 858.985 415.246C858.075 414.462 857.396 414.714 856.43 413.664C855.729 413.664 854.924 413.489 854.329 413.979C848.602 410.093 844.59 412.922 840.033 412.327C838.499 412.131 836.273 410.871 833.998 410.388C832.688 410.115 831.239 410.388 830.014 410.052C827.255 409.211 825.008 407.699 822.117 407.461C818.619 407.196 815.105 407.24 811.615 407.594C809.731 407.797 805.097 408.049 803.913 409.057C799.902 412.376 802.891 417.718 804.789 420.735C805.552 421.94 807.071 423.228 807.589 424.46C808.373 426.385 808.443 431.517 806.679 433.562C805.398 435.067 802.394 435.942 800.693 435.207C795.582 432.987 795.435 425.748 793.475 421.351C790.625 414.973 784.023 414.91 779.626 417.305C779.143 417.564 778.926 418.474 778.492 418.775C775.397 420.994 771.008 421.828 769.39 425.076C768.193 425.167 766.863 424.67 765.708 424.971C764.811 425.671 765.414 426.252 764.671 426.918C761.171 426.126 758.678 429.977 755.318 429.879C755.129 430.838 755.878 431.769 755.955 432.721C754.681 435.025 751.6 436.096 750.354 438.175C748.548 441.137 748.639 445.177 746.944 448.096C744.48 452.297 739.684 455.356 736.94 458.01C735.63 459.284 735.539 460.845 734.307 462.645C733.348 464.087 731.661 465.046 730.807 466.593C729.658 468.645 729.035 471.214 728.216 473.595C720.312 477.249 724.12 484.552 722.615 490.048C721.425 494.346 721.845 499.912 720.634 504.218C721.425 505.149 721.229 506.115 721.74 507.019C720.739 511.422 718.995 514.405 719.317 518.102C719.556 520.769 721.649 522.771 722.65 525.39C723.35 527.182 722.65 529.205 724.106 530.837C723.406 532.398 724.631 534.141 724.673 535.598C724.673 536.298 723.868 536.746 723.833 537.299C723.833 537.67 724.407 538.433 724.435 538.958C724.484 539.658 723.875 540.358 723.889 540.883C723.959 543.516 725.059 546.834 726.571 549.635C728.972 554.081 727.642 555.39 727.145 559.892C726.998 561.131 727.355 562.335 727.194 563.476C726.98 564.702 726.68 565.912 726.298 567.096C725.598 569.526 725.241 572.557 724.484 574.328C722.93 577.899 719.584 580.104 717.175 583.185C715.943 584.76 715.775 587.015 713.563 587.855C708.41 602.781 717.238 617.211 716.769 631.962C717.593 634.233 717.903 636.657 717.677 639.062C717.451 641.466 716.693 643.791 715.46 645.867C711.217 652.532 701.233 651.468 695.926 643.697C694.463 641.533 691.726 634.595 694.302 634.182C692.202 631.304 693.602 628.315 692.111 625.416C692.727 624.597 692.566 623.806 693.511 622.98C692.545 618.149 694.477 613.22 692.972 608.41C695.289 606.1 693.973 603.916 693.917 601.689C696.017 600.289 694.911 598.126 697.313 596.088C697.065 592.102 697.154 588.101 697.579 584.13C697.866 582.086 696.339 579.607 696.101 577.493C695.849 575.014 696.704 572.592 696.662 570.065C696.662 568.041 695.842 566.137 695.87 564.352C695.912 562.328 696.753 560.76 697.04 558.576C697.432 554.84 697.493 551.078 697.222 547.332C697.012 543.929 697.117 540.75 696.865 538.02C696.705 536.167 696.084 534.384 695.056 532.834C694.029 531.284 692.628 530.017 690.984 529.149C677.191 521.413 671.541 545.21 669.588 552.603C670.393 553.304 670.463 554.004 671.275 554.704C671.611 561.467 672.85 571.262 668.475 578.466C667.144 580.637 665.282 583.899 662.972 585.586C660.661 587.274 656.565 587.141 655.27 590.634C655.347 592.889 656.243 595.311 656.068 597.544C656.012 598.294 655.165 598.791 655.039 599.491C654.339 603.377 656.334 607.801 656.888 611.134C657.168 612.793 656.502 614.466 656.79 616.168C657.294 619.129 659.464 621.034 660.99 624.142C661.9 625.997 663.49 632.817 663.308 634.574C662.887 638.228 662.887 641.919 663.308 645.573C663.749 649.339 664.533 653.442 664.575 656.775C664.575 659.96 663.938 663.335 663.959 666.121C664.015 671.393 662.229 676.301 663.854 682.133C662.11 684.822 663.896 687.132 664.281 689.534C664.484 690.899 663.833 692.152 663.959 693.615C664.316 697.585 665.03 701.814 665.051 706.218C664.999 710.545 665.469 714.863 666.451 719.079C667.081 721.487 668.335 723.042 668.489 724.981C668.601 726.465 667.718 728.026 667.893 730.022C667.963 730.785 668.748 731.611 668.916 732.374C669.798 736.526 669.308 740.944 670.379 744.514C671.184 747.161 673.592 750.479 673.88 753.476C673.971 754.561 673.067 756.668 673.277 758.517C673.641 761.604 675.595 766.218 676.218 770.608C676.316 771.308 676.092 772.232 676.218 772.995C677.345 778.498 679.719 784.694 674.958 789.294C672.332 791.808 668.062 792.095 663.581 787.537C658.68 782.573 660.738 775.362 660.143 768.78C659.933 766.414 659.359 764.195 659.156 762.115C658.925 759.777 659.296 757.712 659.156 755.429C658.918 752.027 657.497 748.155 657.217 744.5C656.972 741.231 657.525 737.947 656.944 734.467C656.839 733.886 656.145 733.186 656.04 732.591C655.34 728.712 655.991 724.855 655.641 720.892C655.347 717.609 654.241 714.248 654.206 711.139C654.206 709.739 655.004 708.479 655.011 707.044C655.011 705.202 654.661 703.291 654.71 701.324C654.848 698.537 654.801 695.745 654.57 692.964C654.29 690.675 652.736 688.063 652.211 685.634C651.533 682.428 650.666 679.265 649.613 676.161C649.277 675.195 649.459 674.11 649.172 673.074C648.227 669.65 645.728 666.331 644.824 663.433C643.774 659.995 644.474 655.732 641.737 652.777C641.1 652.077 639.504 651.454 638.894 650.964C631.655 645.195 629.254 638.026 625.858 631.829C626.642 631.241 625.9 630.702 626.691 630.121C624.591 625.332 625.459 620.445 624.696 615.615C624.108 614.914 626.705 614.55 625.396 613.43C624.626 612.485 624.304 613.598 623.653 613.255C624.521 609.166 620.621 608.165 617.716 606.296C615.993 605.19 614.082 602.739 612.003 601.479C610.854 600.779 610.077 600.94 609.265 600.135C607.06 597.958 605.646 592.315 604.924 590.487C604.525 589.493 603.608 588.744 603.433 588.156C602.887 586.342 603.573 584.844 602.866 583.395C601.466 580.595 595.494 575.953 592.252 575.155C586.112 573.677 583.704 580.097 582.45 584.83C582.051 586.293 582.317 587.953 581.939 589.15C581.729 589.85 580.931 590.018 580.798 590.62C580.392 592.623 580.994 594.688 580.098 596.382C579.706 597.159 578.775 597.474 578.292 598.118C576.534 600.443 575.267 605.351 573.72 608.326C572.684 610.308 574.308 613.353 573.538 615.264C574.938 616.168 574.525 617.134 575.638 618.065C575.995 621.671 574.938 624.072 576.296 627.601C577.697 631.248 581.428 634.854 581.33 638.18C581.099 643.522 573.398 646.406 570.597 650.761C569.932 651.804 570.058 653.316 569.197 654.394C567.314 656.824 562.511 657.699 559.704 659.995C557.603 661.697 555.748 662.53 555.132 664.693C554.432 667.06 553.962 674.229 554.257 676.203C554.341 676.77 555.104 677.036 555.062 677.603C554.761 682.105 552.618 684.444 547.745 686.467C546.015 685.477 544.375 684.336 542.845 683.057C541.822 678.388 540.464 673.739 539.491 669.055C540.127 667.798 540.47 666.413 540.495 665.004C540.521 663.595 540.228 662.199 539.638 660.92C540.233 660.311 540.656 659.554 540.863 658.728C540.163 653.827 536.873 648.989 538.063 644.026C535.57 641.295 537.601 636.268 534.275 632.46C533.274 631.29 529.85 629.141 528.506 629.547C526.637 630.1 523.143 638.012 522.667 639.552C522.345 640.616 522.926 641.764 522.625 642.66C522.184 643.97 520.791 644.586 519.965 646.098C517.864 650.047 517.99 654.422 516.898 658.637C515.988 662.138 513.978 665.302 512.991 668.572C512.291 670.994 512.431 673.809 511.479 676.035C510.779 677.701 509.47 678.57 508.924 679.949C508.483 681.076 508.483 682.749 508.132 684.038C507.355 686.764 506.396 689.435 505.262 692.033C503.666 695.877 503.75 700.581 502.671 704.551C502.139 706.526 500.641 708.052 499.955 709.907C499.423 711.377 499.542 713.191 499.059 714.717C498.527 716.488 497.253 717.945 496.727 719.618C495.264 724.267 496.84 730.925 494.305 736.19C492.03 740.923 489.012 744.479 487.927 748.134C486.842 751.788 488.151 754.827 487.5 757.235C486.485 760.967 482.172 768.879 479.322 766.61C477.558 765.21 479.091 755.674 479.974 754.155C481.213 752.055 484.02 751.074 485.413 748.946C489.187 743.177 484.125 734.194 487.878 729.259C488.977 727.816 491.281 727.466 492.583 726.227C493.717 723.503 493.654 720.017 493.885 717.825C494.284 714.031 496.461 711.664 497.778 707.891C498.723 705.202 498.002 701.17 500.844 699.65C501.306 695.373 502.328 689.947 504.968 686.348C506.466 675.006 512.116 663.853 514.182 653.043C514.735 651.874 515.778 652.938 516.282 651.531C516.793 650.796 515.358 650.131 516.051 649.395C517.886 646.173 518.761 642.492 518.571 638.789C521.302 637.332 521.001 633.923 521.659 631.745C522.142 631.36 523.059 632.768 523.304 631.444C524.235 630.464 522.191 629.575 522.674 628.602C526.581 629.421 524.494 624.667 525.762 622.763C527.029 620.859 529.962 622.399 529.493 619.759C528.268 617.897 528.002 620.34 526.966 619.374C529.57 616.63 527.75 613.773 526.525 610.784C525.916 609.271 525.965 607.514 525.474 606.03C524.816 604.084 523.325 602.053 522.163 599.939C520.763 597.369 520.315 595.038 519.362 593.82C517.528 591.488 513.516 588.695 511.794 588.359C509.771 587.946 509.344 589.423 507.362 590.424C505.192 591.516 501.404 591.53 499.871 594.03C499.227 593.708 498.352 592.321 498.016 593.379C499.08 595.955 496.3 597.215 494.816 598.749C494.2 595.689 497.519 592.854 499.304 589.269C500.753 589.269 500.634 591.586 502.153 591.089C501.922 589.847 502.023 588.566 502.444 587.375C502.866 586.184 503.594 585.125 504.555 584.305C502.223 583.22 504.009 580.44 502.608 578.872C501.103 577.178 497.358 576.821 495.81 577.92C494.634 578.753 493.647 580.903 492.394 582.345C483.334 592.812 472.209 604.707 466.412 616.007C465.642 616.217 464.564 614.977 463.885 615.615C458.641 616.854 454.727 618.919 449.833 621.608C447.817 622.714 445.296 623.974 443.595 625.409C441.642 627.069 440.641 629.393 438.862 631.549C436.323 634.465 433.584 637.2 430.664 639.734C424.293 645.496 415.296 647.855 411.06 654.766C410.626 655.466 410.542 656.467 410.136 657.181C407.63 661.613 403.618 665.47 400.972 670.889C398.983 674.957 396.771 681.083 393.928 684.29C391.653 686.894 387.851 688.805 386.409 692.201C385.709 693.832 384.652 695.954 383.798 698.033C382.46 701.282 381.963 704.992 380.682 708.178C378.995 712.379 376.418 716.04 374.486 719.87C373.485 721.865 372.638 725.002 371.51 727.382C369.48 731.723 366.974 736.071 365.335 740.271C363.802 744.283 363.158 748.113 361.17 751.172C359.72 753.399 357.669 755.702 355.065 756.647C354.518 754.589 355.94 753.735 354.399 752.608C350.444 749.674 349.037 761.457 344.822 758.909C341.706 757.032 346.005 752.713 346.712 750.948C347.874 748.113 347.342 744.724 348.511 742.547C350.878 738.059 358.649 737.051 359.713 730.435C359.867 729.511 359.013 728.215 359.09 727.592C359.454 724.092 362.297 724.092 364.229 722.152C366.652 719.744 368.213 716.089 370.271 713.093C372.246 710.222 373.898 706.967 375.641 704.292L375.963 704.432Z" fill="#E96262"/>
<path d="M408.485 437.825C410.159 438.721 418.287 443.741 427.165 442.334C443.337 439.743 455.008 417.276 449.919 406.089C445.445 396.245 432.058 394.522 432.745 386.975C433.102 383.047 437.379 378.497 439.949 378.728C441.065 378.766 442.17 378.971 443.225 379.337C444.626 379.659 445.123 379.904 445.627 379.834C445.76 379.802 445.891 379.759 446.019 379.708C447.454 379.12 446.355 371.789 447.601 367.106C448.749 362.8 452.691 357.745 455.688 358.004C462.409 358.634 458.348 383.803 471.79 396.322C476.831 400.998 489.994 408.588 493.221 409.764C494.346 410.107 495.332 410.801 496.035 411.745C496.738 412.688 497.121 413.832 497.128 415.008C497.121 415.543 497.043 416.075 496.897 416.59C496.043 419.216 490.519 420.182 490.071 420.252C482.264 421.554 475.683 419.461 471.041 419.853C457.606 420.966 459.839 442.922 438.198 461.16C433.998 464.661 427.151 469.562 427.179 476.234C427.179 478.677 428.131 481.625 428.159 488.003C428.159 490.803 427.851 492.771 427.928 493.702C428.467 499.779 431.533 503.504 432.429 515.763C433.725 533.581 428.173 538.867 433.207 545.693C433.207 545.693 434.992 548.08 437.008 551.294L222.554 551.294C219.011 542.521 214.593 534.715 208.663 528.96C183.13 504.197 123.507 511.653 109.47 494.451C108.644 493.443 105.136 488.85 101.516 489.459C96.9866 490.222 97.2526 498.218 92.1207 503.826C83.4882 513.298 61.8964 513.403 54.4401 504.197C47.859 496.054 55.2593 484.264 50.1554 480.904C45.8216 478.047 38.3513 485.16 29.8518 490.838L29.8518 414.525C45.2545 406.718 69.0587 405.843 81.4159 416.268C87.0168 421.001 90.1254 427.988 94.7182 427.169C98.9189 426.42 98.5619 420.168 103.386 412.467C113.369 396.455 130.123 398.94 136.228 383.579C136.446 383.054 136.635 382.417 136.635 382.417C137.542 379.782 138.226 377.074 138.679 374.324C139.288 370.823 142.018 355.225 147.893 354.02C150.735 353.467 153.669 356.513 159.55 362.597C165.634 368.898 165.151 370.529 168.028 372.399C174.28 376.536 182.584 372.896 195.851 368.597C205.59 365.446 215.699 363.57 225.459 360.489C249.69 352.83 312.701 350.898 352.181 383.187C366.583 394.984 388.315 412.775 397.577 426.91C399.069 429.249 402.198 434.443 408.485 437.825Z" fill="#E9AD62"/>
</g>
<path fill-rule="evenodd" clip-rule="evenodd" d="M1.35339 513.287C2.68525 514.619 4.53826 514.908 12.5873 515.429L22.2577 515.95L23.1842 532.511C24.0528 549.882 25.0373 554.282 28.2221 555.672C29.6119 556.078 29.9014 556.888 29.9014 559.61C29.7694 561.668 30.3412 563.71 31.5228 565.4C32.7309 567.078 33.3053 569.129 33.1442 571.19C33.1442 575.533 33.8391 576.575 36.9661 577.444C38.2979 577.849 53.6432 578.602 71.0732 579.065C88.5031 579.528 110.16 580.397 119.367 580.802C130.659 581.265 147.105 581.265 170.152 580.802C224.352 579.355 329.974 579.181 351.516 580.802C396.683 583.755 482.964 584.103 526.336 581.497C564.149 579.181 705.847 579.528 784.079 582.018C800.409 582.597 824.614 582.771 843.028 582.423C872.793 581.902 874.414 581.787 875.977 580.281C877.541 578.776 877.599 577.907 877.193 565.863C876.614 547.797 876.788 537.664 877.83 511.608C879.683 470.091 880.378 439.866 880.842 379.125C880.842 346.004 881.652 311.204 882.116 301.882C882.579 292.559 882.868 266.503 882.81 243.979C882.521 184.628 882.81 144.674 883.737 131.704C884.2 125.393 884.895 106.4 885.416 89.3767C885.937 72.3531 886.459 54.6347 886.69 50.234C887.41 37.5426 886.789 24.8106 884.837 12.2495C883.853 10.9177 882.521 10.6282 878.178 10.4544C875.167 10.4544 870.534 9.87541 867.813 9.47008C862.818 8.85831 857.789 8.56822 852.757 8.60156C846.966 8.60156 835.385 8.02252 826.757 7.38559C816.912 6.51704 801.336 6.11173 785.527 6.22754C763.58 6.22754 759.99 6.22751 758.195 4.89573C756.4 3.56396 753.099 3.15867 718.645 2.17431C700.751 1.65318 686.564 1.65318 679.616 2.17431C665.428 3.15867 518.113 2.17427 489.739 1.18992C468.603 0.205563 282.607 -0.315535 190.072 0.205598C164.824 0.205599 118.73 0.205601 87.6345 0.205602C56.5385 0.205603 30.0751 -0.141816 28.8591 0.205604C24.4582 1.24786 23.8791 4.02723 23.4158 25.0461L23.0105 44.1542L13.6296 44.6754C8.5338 44.6754 4.2487 45.2544 4.2487 45.3123C2.58148 47.7424 1.74834 50.6481 1.87453 53.5925C2.74313 57.7036 5.58055 58.8038 14.4403 58.8038L22.1998 58.8038L22.1998 77.1012C22.1998 87.1764 21.7945 101.363 21.5049 108.601L21.0417 121.803L12.8189 121.803C4.07499 121.803 2.74313 122.497 1.75871 127.593C0.484765 134.078 3.26429 135.873 14.7877 135.873L21.2154 135.873L20.6363 161.64C20.6363 175.884 19.9415 189.781 19.594 192.56L19.1308 197.656L14.9036 197.656C9.11288 197.656 2.74313 199.683 1.70081 201.883C1.10625 203.284 0.954013 204.834 1.26448 206.324C1.57495 207.814 2.33331 209.174 3.43802 210.221C6.18792 211.223 9.08246 211.77 12.0082 211.842C15.7722 212.132 18.957 212.479 19.1308 212.537C19.3045 212.595 19.4203 226.839 19.5361 244.037L19.5361 275.304L12.124 275.71C3.20639 276.231 0.54268 277.62 0.54268 281.5C0.54268 286.943 4.76987 289.259 14.4982 289.317L19.2466 289.317L19.2466 353.011L14.9036 353.011C5.98592 353.011 0.195242 356.369 0.716403 361.291C1.23756 366.213 4.24872 367.081 11.8924 367.486L18.2622 367.834L18.7254 376.114C20.0573 398.812 20.6363 416.646 20.2889 423.942L19.8836 431.875L13.1664 431.875C4.76988 431.875 2.51152 432.859 1.58501 436.797C-0.152191 442.587 2.51152 444.556 13.1664 445.714C15.3994 445.89 17.6221 446.18 19.8256 446.582C20.1152 446.988 21.8524 485.146 21.8524 493.542L21.8524 498.579L13.398 498.927C2.3378 498.927 0.368973 500.375 0.079439 507.091C-0.152188 510.797 0.0794409 512.013 1.35339 513.287ZM31.0596 366.213L36.1554 366.213L38.1821 370.034C39.6754 372.534 41.7732 374.618 44.2826 376.095C46.792 377.573 49.6325 378.395 52.543 378.488C54.5839 379.255 56.804 379.412 58.9325 378.939C61.0609 378.466 63.0057 377.384 64.5297 375.824C66.3068 374.349 67.7066 372.471 68.6129 370.346C69.5193 368.221 69.9061 365.911 69.7413 363.607C69.6795 360.754 68.9945 357.948 67.7341 355.388C66.4737 352.827 64.6685 350.573 62.445 348.784C58.7969 345.425 58.1599 345.078 54.3381 345.078C49.4492 344.636 44.5825 346.133 40.7879 349.247C38.7033 351.389 38.1242 351.563 32.2177 351.563L26.1375 351.563L26.1375 288.97L31.5807 288.97C37.024 288.97 37.3714 288.969 38.3558 291.633C41.9068 296.268 47.0773 299.391 52.8325 300.376C54.0814 300.86 55.4183 301.073 56.7556 301.004C58.0929 300.934 59.4003 300.582 60.592 299.971C62.4621 299.062 64.1228 297.774 65.4685 296.189C66.8143 294.605 67.8158 292.757 68.4094 290.764C69.5416 284.708 69.4432 278.485 68.1199 272.467C67.1993 270.588 65.9015 268.92 64.3074 267.565C62.7134 266.21 60.8573 265.198 58.8548 264.592C54.1899 263.333 49.2746 263.333 44.6097 264.592C41.2363 266.562 38.394 269.325 36.3291 272.641C35.6342 273.741 34.7077 273.857 31.0016 273.393L26.5428 272.814L26.5428 241.662L26.5428 210.626L32.3335 210.626C38.1242 210.626 38.4137 210.626 40.0351 213.29C42.3157 216.089 45.2552 218.279 48.5902 219.664C51.9252 221.048 55.5515 221.584 59.1443 221.223C67.1934 218.617 72.2313 204.546 68.0041 196.324C66.5985 194.018 64.6132 192.12 62.246 190.82C59.8788 189.519 57.2122 188.862 54.5118 188.913C52.0483 188.364 49.4832 188.483 47.081 189.257C44.6788 190.03 42.5264 191.431 40.8458 193.313C37.7188 196.672 37.7188 196.672 31.9281 196.382C29.9864 196.377 28.0489 196.203 26.1375 195.861C26.1375 195.861 26.427 185.149 27.1219 172.236C27.8168 159.324 28.3958 145.543 28.3958 141.663L28.3958 134.483L33.0284 134.483C37.6609 134.483 37.7767 134.483 39.8614 137.958C42.1617 141.412 45.5915 143.96 49.5635 145.164C53.5356 146.368 57.8027 146.154 61.6343 144.559C66.6143 141.721 68.1199 138.768 68.1199 130.835C68.668 127.231 67.8412 123.552 65.8036 120.529C64.1897 118.028 61.9073 116.031 59.2155 114.761C56.5236 113.492 53.53 113.003 50.5741 113.349C48.1705 113.021 45.7235 113.393 43.5258 114.42C41.3282 115.447 39.4729 117.085 38.1821 119.139C36.9081 121.397 36.6765 121.513 32.7388 121.108C31.2986 120.957 29.868 120.725 28.4537 120.413C28.4537 120.413 28.4537 106.285 28.8012 89.203L29.3223 58.2247L32.7388 58.2247C35.75 58.2247 36.3291 58.5722 38.1242 61.2357C40.2371 64.3346 43.2105 66.7477 46.6779 68.1778C50.1454 69.6079 53.9554 69.9925 57.6388 69.2843C61.3627 67.9645 64.5513 65.4605 66.7162 62.1557C68.8812 58.851 69.9031 54.9277 69.6255 50.9868C68.9306 43.3436 63.8348 35.7582 59.0864 34.7739C50.2267 33.0947 41.7144 35.4687 38.4716 40.5642C37.0818 42.8224 36.3291 43.1699 33.4337 43.2278L30.0751 43.2278L30.0751 6.40125L50.9795 6.98029C76.1689 7.55932 112.94 7.6172 299.979 7.55929C378.963 7.55929 453.605 7.90672 465.882 8.31205C509.427 9.75963 613.37 10.9177 650.836 10.2229C690.676 9.58595 713.143 9.58595 733.121 10.2229L745.571 10.744L744.934 14.1603C744.587 15.8974 744.355 31.5313 744.413 48.9023C743.734 68.9728 744.995 89.0619 748.177 108.89C749.451 118.386 750.146 118.618 761.438 113.696C773.433 109.204 786.098 106.757 798.903 106.458C807.149 105.56 815.475 105.696 823.688 106.863C832.761 107.641 841.643 109.91 849.977 113.58L854.784 115.954L854.262 124.119C852.467 154.75 851.946 191.75 852.583 239.578C852.988 267.661 853.046 308.309 852.583 329.791C852.12 351.273 851.83 409.814 851.483 459.9C851.135 509.986 850.962 551.04 850.846 551.098C850.73 551.156 845.924 551.098 840.133 550.461C789.638 546.813 507.748 545.481 415.271 548.608C359.97 550.461 170.441 551.677 114.445 550.635C88.2136 550.056 62.3292 549.303 56.5386 548.897C50.7479 548.492 43.0463 548.087 38.877 548.087C32.4493 548.087 31.407 548.087 31.0017 546.639C30.5963 545.192 30.3647 538.591 30.0752 530.542L29.4961 515.719L35.2868 515.719L41.0774 515.314L44.9572 518.904C52.1376 525.447 58.2178 527.01 65.0508 523.941C68.0808 522.976 70.688 521 72.4374 518.345C74.1868 515.689 74.9725 512.514 74.6634 509.35C74.7099 506.423 74.1054 503.524 72.8936 500.86C71.6818 498.196 69.893 495.835 67.6567 493.947C66.6835 492.724 65.4075 491.775 63.955 491.196C62.5026 490.617 60.9242 490.428 59.376 490.647C53.7327 490.462 48.222 492.381 43.9149 496.032C40.9037 498.637 40.2667 498.811 34.9393 498.811L29.1486 498.811L28.8012 486.188L27.8168 459.784L27.2956 445.656L40.3247 445.656L42.1198 448.493C44.3781 452.257 47.5051 453.704 53.7011 454.283C64.935 455.384 72.0576 449.42 72.0576 439.171C72.2242 436.077 71.4431 433.006 69.8187 430.368C68.1943 427.73 65.8037 425.65 62.9662 424.405C59.7403 423.074 56.2046 422.677 52.7637 423.26C49.3228 423.844 46.1157 425.385 43.5095 427.706C40.9616 430.369 40.8458 430.427 34.3023 430.427L27.4693 430.427L27.4693 414.736C27.4693 406.224 27.064 395.048 26.7166 390.184C26.3691 385.321 26.1375 377.851 26.0796 373.682L26.0796 366.213L31.2912 366.213L31.0596 366.213ZM42.2935 556.772C66.0932 558.683 105.122 559.146 225.047 559.204C344.972 559.262 358.522 559.204 403.516 557.525C443.645 556.077 470.051 555.672 551.526 555.267C617.482 554.977 654.658 555.267 662.128 555.73C668.382 556.251 689.749 556.772 709.669 556.946C831.968 558.162 850.73 558.278 853.741 557.351C858.895 555.846 858.895 556.309 858.953 495.916C858.953 445.656 859.358 414.851 860.401 356.427C860.98 326.433 861.095 217.459 860.401 216.764C859.706 216.069 860.4 201.188 860.748 182.891C861.095 164.593 861.559 140.332 861.732 129.214L861.732 108.89L849.861 95.0512C837.643 80.807 794.966 37.5532 776.088 20.2401L765.433 10.5124L769.197 10.5124C773.251 10.5124 810.195 11.7283 859.474 14.0445L868.507 14.5656L868.16 102.058C868.16 150.233 867.523 201.304 867.176 215.606C866.828 229.908 866.365 275.131 866.307 316.01C866.307 386.421 865.612 420.7 863.817 505.875C863.354 525.968 863.296 546.871 863.817 552.198C864.198 556.179 864.022 560.193 863.296 564.126L862.427 566.384L836.832 566.384C822.587 566.384 802.088 565.979 791.434 565.574C739.897 563.547 713.781 563.084 659.753 563.2C627.557 563.2 552.742 563.489 493.445 563.489C427.316 563.489 368.367 563.952 340.977 564.589C304.785 565.516 279.943 565.574 210.513 564.589C163.319 564.01 116.993 563.258 107.612 562.794C98.2314 562.331 79.3538 562.215 64.356 562.505C49.3581 562.794 37.7189 562.852 36.9661 562.505C36.2133 562.157 35.6921 560.941 35.6921 558.973L35.6921 556.02L42.2935 556.772ZM57.2913 566.848C67.9462 566.848 91.6301 566.848 109.987 567.195C229.68 569.222 318.103 569.453 378.037 567.832C403.69 567.253 433.975 567.253 477.81 567.253C546.372 567.948 568.377 567.948 668.903 567.253C718.239 567.253 744.182 567.253 765.665 568.063C808.458 569.743 863.643 569.743 867.06 568.063C870.476 566.384 870.245 561.52 870.129 537.896C870.129 525.273 870.476 476.75 870.939 429.964L872.561 257.181L873.835 133.615C873.835 113.928 874.298 78.8962 874.356 55.7349L874.356 13.6971L878.294 13.6971C882 13.6971 882.115 13.6971 882.579 16.3606C883.216 19.8927 882.579 45.3122 881.536 66.1574C879.568 99.7414 878.699 139.174 878.004 214.1C876.904 350.289 875.746 449.651 875.282 457.642C873.661 484.625 872.387 521.335 872.329 545.539L872.329 574.085L858.374 574.664C850.614 574.664 839.554 575.475 833.821 575.996C818.013 577.096 784.543 576.865 760.222 575.475C744.703 574.664 712.912 574.201 645.972 573.796C562.875 573.391 550.657 573.448 528.479 574.78C497.499 576.633 387.534 576.981 359.333 575.417C332.291 573.854 215.203 573.68 189.55 575.07C171.773 576.17 161.35 576.17 113.519 575.07C83.0599 574.491 53.759 573.854 48.5474 573.68L39.0507 573.333L38.7612 571.132L38.24 568.006C38.0663 567.253 42.7567 567.253 57.2913 566.848ZM50.3425 285.785C53.4116 281.963 51.5586 277.563 45.8258 275.652L42.583 274.494L45.3046 271.888C47.7367 269.456 48.1421 269.282 52.3693 269.63C54.3706 269.662 56.3295 270.212 58.0548 271.227C59.78 272.242 61.2128 273.687 62.2134 275.42C63.4587 280.263 63.4587 285.342 62.2134 290.185C58.7969 296.844 53.6432 297.25 44.8414 291.691L41.5986 289.606L45.073 288.796C47.088 288.334 48.9214 287.286 50.3425 285.785ZM44.1465 56.4297C45.3149 56.3663 46.451 56.0229 47.4588 55.4283C48.4666 54.8337 49.3166 54.0055 49.9372 53.0135C50.3746 51.5994 50.3011 50.0765 49.7295 48.7111C49.1579 47.3457 48.1246 46.2247 46.8102 45.5439L44.3781 44.5016L46.7523 42.5908C48.7211 41.0853 49.6476 40.9117 53.4695 41.2591C55.7014 41.234 57.8617 42.0468 59.5235 43.5369C61.1853 45.0271 62.2277 47.0862 62.445 49.3076C64.4718 56.7772 57.6388 65.231 50.8637 63.436C47.7442 62.0638 45.0316 59.9099 42.9883 57.1825C42.9304 56.7772 43.5095 56.4297 44.1465 56.4297ZM45.1309 366.213C48.1421 366.213 50.9216 362.333 50.9216 358.511C50.768 356.973 50.0452 355.548 48.8949 354.516C47.0997 352.895 47.0418 352.489 48.2 352.084C50.838 351.39 53.6109 351.39 56.249 352.084C57.8504 353.248 59.2408 354.678 60.3604 356.311C62.155 358.178 63.152 360.67 63.1399 363.259C63.2324 365.143 62.7719 367.013 61.815 368.639C60.8582 370.264 59.4468 371.575 57.7546 372.408C53.4814 372.697 49.2118 371.795 45.4204 369.803C43.5095 368.355 43.1621 366.213 45.1309 366.213ZM45.7679 133.325C47.2643 133.006 48.6051 132.181 49.5647 130.99C50.5244 129.798 51.0445 128.312 51.0374 126.782C51.0374 124.235 50.632 123.771 47.9683 122.555C43.9149 120.644 43.9148 120.645 45.71 119.371C47.5594 118.625 49.5436 118.27 51.5371 118.33C53.5305 118.39 55.4899 118.862 57.2913 119.718C59.405 120.811 61.11 122.556 62.1532 124.694C63.1964 126.832 63.5221 129.25 63.082 131.588C63.082 135.699 62.445 136.684 60.2446 138.652C58.9813 139.921 57.3236 140.721 55.5446 140.921C53.7657 141.121 51.9717 140.709 50.4583 139.753C47.563 138.479 43.799 135.526 43.799 134.426C43.799 133.325 44.6097 133.615 45.7679 133.325ZM50.9216 205.878C51.2468 205.209 51.4233 204.477 51.4387 203.733C51.4542 202.989 51.3084 202.251 51.0112 201.568C50.7141 200.886 50.2727 200.276 49.7175 199.781C49.1622 199.285 48.5062 198.916 47.7946 198.698C45.5362 197.772 45.3625 197.482 46.5207 196.44C48.3555 195.675 50.3236 195.282 52.3113 195.282C54.2991 195.282 56.2672 195.675 58.102 196.44C59.637 197.142 60.9324 198.278 61.8278 199.709C62.7233 201.14 63.1795 202.801 63.1399 204.489C62.4888 208.953 60.297 213.05 56.9439 216.069C55.0121 216.313 53.0503 216.116 51.2052 215.495C49.3601 214.873 47.6794 213.842 46.289 212.479L44.4939 210.8L47.0997 209.468C48.6558 208.708 49.9471 207.498 50.8058 205.994L50.9216 205.878ZM52.6588 437.492C52.7855 436.576 52.658 435.644 52.2903 434.796C51.9227 433.949 51.329 433.218 50.5741 432.686C49.416 431.759 48.7211 430.659 49.0107 430.138C49.9951 428.632 58.3916 429.153 61.2869 430.948C62.4491 431.739 63.4226 432.776 64.138 433.985C64.8534 435.195 65.2932 436.547 65.4259 437.946C65.5586 439.346 65.3811 440.757 64.9059 442.079C64.4307 443.402 63.6695 444.603 62.6767 445.598C60.8271 446.537 58.8068 447.093 56.7371 447.232C54.6674 447.372 52.5908 447.091 50.6321 446.409L48.4316 445.598L50.5741 443.108C51.8888 441.642 52.6291 439.75 52.6588 437.781L52.6588 437.492ZM54.3381 507.555C54.3861 506.495 54.2213 505.437 53.8533 504.442C53.4853 503.448 52.9216 502.537 52.1955 501.764L50.1109 499.274L53.9327 497.537C55.5423 496.484 57.4835 496.062 59.3851 496.35C61.2868 496.638 63.0153 497.618 64.2402 499.101C65.5176 500.236 66.5279 501.64 67.1987 503.211C67.8694 504.783 68.184 506.484 68.1199 508.191C68.1943 510.109 67.6791 512.002 66.6437 513.618C65.6082 515.233 64.1024 516.492 62.3292 517.224C58.3916 519.193 57.5809 519.193 53.1221 517.224L49.4739 515.487L51.906 513.229C52.7299 512.597 53.3799 511.766 53.7952 510.814C54.2104 509.862 54.3773 508.82 54.2802 507.786L54.3381 507.555ZM753.041 18.3293C753.216 16.1161 753.805 13.9555 754.778 11.9599C755.879 11.6125 843.839 99.6835 843.839 101.015C843.839 102.347 843.202 101.71 841.812 101.015C834.203 99.1627 826.457 97.9234 818.65 97.3094C802.783 96.0935 771.34 100.32 761.206 105.011L756.284 107.385L755.763 101.594C755.473 98.4096 754.894 92.3298 754.373 88.1028C753.562 81.2702 752.346 50.6973 752.115 31.1838C752.148 26.8836 752.457 22.5899 753.041 18.3293Z" fill="#626262"/>
<path fill-rule="evenodd" clip-rule="evenodd" d="M204.719 476.518C204.998 477.923 205.549 479.261 206.34 480.455C207.557 481.903 211.263 482.076 211.32 480.455L211.32 464.821C211.32 456.773 211.61 444.903 212.131 438.417C213 426.2 213.984 398.696 215.258 350.983C218.153 246.757 218.153 246.757 217.053 175.363C216.185 107.731 215.432 90.4183 213.753 87.0599C212.652 85.1491 209.236 85.0333 208.425 87.0599C207.785 93.1229 207.785 99.2365 208.425 105.299C208.425 105.763 209.004 124.06 209.062 145.832C209.12 167.603 209.641 196.381 209.989 209.525C210.394 224.58 209.989 245.715 209.641 267.429C209.062 286.479 208.251 318.673 207.846 338.997C206.977 387.347 205.704 424.752 204.661 437.433C203.725 450.445 203.745 463.508 204.719 476.518Z" fill="white"/>
<path fill-rule="evenodd" clip-rule="evenodd" d="M302.642 258.975C303.395 259.612 304.727 333.033 305.248 394.642C305.248 441.891 306.522 476.691 307.68 479.529C307.825 479.912 308.056 480.256 308.355 480.535C308.655 480.814 309.015 481.021 309.407 481.138C309.799 481.256 310.213 481.281 310.616 481.213C311.02 481.145 311.402 480.985 311.734 480.745C313.124 479.644 312.776 360.19 311.271 298.754C310.576 275.246 310.17 252.432 310.17 248.321C310.17 244.209 310.17 212.768 310.17 178.837C310.17 144.905 310.576 109.932 310.865 101.188C311.299 95.2901 311.299 89.368 310.865 83.4698C309.939 80.98 306.87 81.3853 305.48 84.2805C304.09 87.1756 302.816 120.818 302.99 172.351C302.99 199.161 302.99 229.502 302.469 239.867C301.948 250.231 302.179 258.801 302.469 259.033L302.642 258.975Z" fill="white"/>
<path fill-rule="evenodd" clip-rule="evenodd" d="M406.062 200.32C406.641 220.297 407.046 257.181 407.046 282.485C407.046 307.788 407.046 340.388 407.509 355.211C407.973 370.035 408.089 404.429 408.031 431.644C408.031 485.552 408.031 484.915 412.258 483.757C413.358 483.409 414.516 482.714 414.748 482.02C415.79 479.356 416.311 401.244 415.327 388.448C414.748 380.168 414.285 346.757 414.053 296.961C414.053 253.823 413.358 209.353 412.953 198.177C411.331 158.05 411.1 126.841 412.142 107.559C413.184 88.2769 412.895 83.0077 410.289 82.4866C407.683 81.9655 407.278 86.4819 406.004 103.969C404.614 123.193 404.614 150.349 406.062 200.32Z" fill="white"/>
<path fill-rule="evenodd" clip-rule="evenodd" d="M508.903 339.81C508.903 348.727 509.308 380.342 509.25 410.105C509.25 472.409 509.25 482.657 512.03 485.379C513.246 486.595 513.94 486.884 514.52 486.305C515.099 485.726 516.488 344.963 515.33 324.176C514.751 313.464 514.751 301.015 515.33 285.265C515.967 267.315 517.357 169.458 518.11 92.3312C518.11 86.5408 518.11 84.9774 516.952 84.4563C514.346 82.7771 512.956 84.4563 512.03 89.3781C511.624 91.81 510.871 121.92 510.466 156.372C510.061 190.825 509.308 237.437 508.903 260.077C508.034 303.273 508.034 313.869 508.903 339.81Z" fill="white"/>
<path fill-rule="evenodd" clip-rule="evenodd" d="M612.908 477.793C613.227 478.181 613.62 478.503 614.063 478.739C614.507 478.976 614.992 479.122 615.493 479.171C615.993 479.219 616.498 479.168 616.978 479.021C617.459 478.875 617.906 478.634 618.293 478.314C620.452 456.322 621.418 434.228 621.189 412.131C621.189 396.439 621.189 368.182 620.32 349.132C619.509 324.813 619.452 309.352 619.915 297.019C620.668 279.648 621.131 88.1039 620.378 82.1399C619.973 78.6657 618.12 77.276 616.556 79.4763C615.698 81.3071 615.131 83.2608 614.877 85.2666C614.471 87.7565 614.124 131.937 614.124 183.702C614.124 235.468 613.835 291.981 613.429 310.105C612.85 334.772 612.908 350.059 613.835 370.672C614.356 385.901 614.877 399.624 614.761 401.592C614.645 403.561 614.298 415.663 613.835 428.807C612.039 474.609 612.039 476.288 612.908 477.793Z" fill="white"/>
</svg>
