<svg width="619" height="574" viewBox="0 0 619 574" fill="none" xmlns="http://www.w3.org/2000/svg">
<path d="M145.43 74.5786C142.062 53.391 138.699 32.2074 135.34 11.0279C206.092 7.08291 275.554 6.83712 346.331 2.89209L370.173 69.7979C295.882 65.3981 219.414 66.5288 145.43 74.5786Z" fill="#FFE600"/>
<path d="M145.446 77.5887C144.745 77.5906 144.066 77.3451 143.529 76.8955C142.991 76.4458 142.63 75.8208 142.509 75.1307C139.133 53.9431 135.765 32.7595 132.406 11.5801C132.342 11.1686 132.365 10.7483 132.473 10.346C132.581 9.94384 132.772 9.56866 133.033 9.2446C133.295 8.92054 133.621 8.65478 133.992 8.46436C134.362 8.27395 134.768 8.16309 135.184 8.13892C170.603 6.17255 206.268 5.10334 240.766 4.07099C275.263 3.03865 310.818 1.96943 346.175 0.00305832C346.817 -0.0258187 347.451 0.150402 347.986 0.506167C348.521 0.861933 348.928 1.37876 349.15 1.98172L372.992 68.8875C373.16 69.3502 373.211 69.8476 373.139 70.3347C373.067 70.8218 372.874 71.2833 372.579 71.6774C372.284 72.0715 371.895 72.3857 371.448 72.5917C371.001 72.7977 370.509 72.8889 370.018 72.8571C292.788 68.2853 217.341 69.883 145.765 77.6256L145.446 77.5887ZM138.809 13.8537C141.857 33.0094 144.901 52.1733 147.941 71.3455C220.339 63.8906 293.219 62.2795 365.876 66.5279L344.283 5.95133C309.601 7.84396 274.71 8.8886 240.938 9.89636C207.558 10.941 173.073 11.9733 138.809 13.8291L138.809 13.8537Z" fill="#FFE600"/>
<path d="M615.507 328.725C590.927 332.904 568.72 336.099 544.164 340.314C529.417 275.289 509.482 209.416 494.71 144.402C523.476 140.642 552.247 136.893 581.022 133.157L615.507 328.725Z" fill="#FFE600"/>
<path d="M544.162 343.299C543.487 343.299 542.832 343.069 542.305 342.647C541.777 342.225 541.41 341.636 541.262 340.977C533.888 308.507 525.076 275.251 516.547 243.088C508.018 210.926 499.194 177.608 491.808 145.065C491.714 144.659 491.706 144.237 491.787 143.829C491.867 143.42 492.034 143.033 492.275 142.693C492.51 142.354 492.815 142.07 493.169 141.858C493.523 141.646 493.918 141.512 494.327 141.464L580.639 130.206C581.402 130.11 582.173 130.311 582.791 130.769C583.409 131.227 583.827 131.906 583.957 132.664L618.442 328.232C618.579 329.013 618.402 329.817 617.95 330.469C617.488 331.116 616.792 331.557 616.009 331.698C603.719 333.787 591.822 335.68 580.368 337.499C568.914 339.317 557.018 341.186 544.728 343.287C544.54 343.314 544.351 343.318 544.162 343.299V343.299ZM498.346 146.933C505.56 178.358 514.077 210.471 522.311 241.564C530.607 272.866 539.173 305.213 546.448 336.909C557.755 335.004 568.73 333.222 579.373 331.575C590.016 329.928 600.843 328.183 612.051 326.29L578.586 136.474L498.346 146.933Z" fill="#FFE600"/>
<path d="M68.5205 285.159C72.5024 345.526 75.4398 409.79 79.4217 470.157L5.37555 483.344C4.8266 416.611 4.27344 349.881 3.71631 283.155C27.0301 282.762 45.2067 285.552 68.5205 285.159Z" fill="#FFE600"/>
<path d="M5.37264 486.322C4.58483 486.322 3.82869 486.011 3.26933 485.456C2.70997 484.901 2.39249 484.148 2.386 483.36C1.84525 416.626 1.2965 349.897 0.739364 283.171C0.732731 282.385 1.03586 281.629 1.58339 281.065C2.13092 280.501 2.87857 280.176 3.6642 280.16C15.4378 279.963 26.0317 280.578 36.2814 281.168C46.5311 281.758 56.9159 282.397 68.4684 282.163C69.2254 282.165 69.9535 282.454 70.5057 282.972C71.0578 283.49 71.3929 284.198 71.4427 284.953C73.4337 315.161 75.1296 346.869 76.8993 377.52C78.669 408.171 80.3527 439.793 82.3436 469.952C82.3885 470.684 82.1632 471.408 81.7102 471.986C81.2572 472.563 80.6079 472.955 79.8856 473.086L5.88872 486.322C5.71687 486.334 5.54449 486.334 5.37264 486.322V486.322ZM6.71205 286.084C7.2528 350.654 7.78952 415.221 8.32208 479.784L76.2725 467.678C74.3553 438.305 72.647 407.581 70.9878 377.852C69.3287 348.123 67.645 317.484 65.7278 288.136C55.0848 288.198 45.3635 287.645 35.9373 287.092C26.511 286.539 17.0969 285.998 6.71205 286.096L6.71205 286.084Z" fill="#FFE600"/>
<path d="M496.784 502.155C499.303 520.59 500.704 537.009 503.223 555.395L249.967 570.696C248.672 553.752 247.386 536.808 246.108 519.865C330.478 510.205 411.849 503.937 496.784 502.155Z" fill="#FFE600"/>
<path d="M249.958 573.664C249.209 573.66 248.489 573.375 247.94 572.865C247.392 572.355 247.055 571.658 246.996 570.911L243.149 520.081C243.09 519.313 243.332 518.552 243.822 517.958C244.313 517.365 245.014 516.984 245.78 516.897C336.724 506.488 416.534 500.921 496.775 499.163C497.504 499.156 498.211 499.413 498.765 499.888C499.319 500.363 499.681 501.022 499.785 501.744C501.014 510.974 502.059 519.872 503.018 528.462C503.976 537.053 504.972 545.84 506.225 554.984C506.28 555.39 506.251 555.804 506.138 556.199C506.026 556.594 505.833 556.961 505.573 557.279C505.312 557.596 504.989 557.856 504.623 558.042C504.258 558.229 503.858 558.338 503.448 558.363L250.081 573.664H249.958ZM249.307 522.489L252.711 567.544L499.896 552.612C498.827 544.525 497.954 536.721 497.094 529.138C496.234 521.555 495.337 513.419 494.243 505.185C415.871 506.955 337.867 512.424 249.245 522.489H249.307Z" fill="#FFE600"/>
</svg>
