<svg width="49" height="68" viewBox="0 0 49 68" fill="none" xmlns="http://www.w3.org/2000/svg">
<path fill-rule="evenodd" clip-rule="evenodd" d="M27.7858 27.6281C27.7157 27.6909 28.0224 28.0678 28.0575 28.0678C28.0925 28.0678 28.3904 27.673 28.5306 27.673C28.6707 27.673 28.7057 27.9154 29.0649 27.9513C29.424 27.9872 29.8181 27.655 30.2387 27.6371C30.4314 27.6371 30.5805 27.8255 30.8521 27.8435C30.9542 27.8499 31.0567 27.8499 31.1588 27.8435C31.1588 27.8435 31.3515 27.6461 31.3778 27.6551C31.5355 27.6551 31.6141 27.8884 31.7718 27.9064C31.9295 27.9243 32.2013 27.7806 32.3852 27.8165C32.464 27.8224 32.543 27.8224 32.6218 27.8165C32.6831 27.8165 32.6217 28.005 32.7005 28.0319C32.9546 28.1037 33.4363 28.0949 33.8743 28.2026C34.1034 28.2669 34.3286 28.3448 34.5489 28.4359L22.2838 37.5624C22.0998 37.1676 21.9159 36.7368 21.7144 36.2343C21.6005 35.983 21.3115 35.5611 21.2939 35.4624C21.2676 34.9303 21.2676 34.3971 21.2939 33.865C21.2939 33.4702 21.2939 32.9678 21.2939 32.4652C21.2939 32.205 21.2939 31.9356 21.2939 31.6485C21.3342 31.3193 21.3929 30.9928 21.4693 30.6704C21.62 29.9892 21.8649 29.3333 22.1965 28.7229C22.5199 28.1346 22.9273 27.5992 23.4054 27.1345C23.8347 26.7845 24.2816 27.0448 24.7897 26.7038C24.851 26.7038 25.3854 26.1565 25.4117 26.1744C25.438 26.1924 25.1926 27.0089 24.9386 27.8435C24.8042 28.2615 24.6932 28.6871 24.6058 29.1179C24.5357 29.5307 24.4827 29.8538 24.4565 30.0153C24.3566 30.4564 24.2808 30.9028 24.2289 31.3525C24.149 31.8155 24.149 32.2892 24.2289 32.7522C24.2727 32.9586 24.2287 33.0306 24.3076 33.3267C24.3076 33.3267 24.3953 33.8471 24.4128 33.874C24.553 34.1253 24.8683 34.0806 24.9822 34.287C25.0766 34.4767 25.1444 34.6791 25.1837 34.8882C25.2076 34.9884 25.237 35.0874 25.2714 35.1844C25.3109 35.2552 25.3581 35.3214 25.4117 35.3818C25.6335 35.5452 25.8647 35.695 26.1038 35.8305C26.1757 35.9015 26.2324 35.9871 26.2702 36.0818L31.8856 31.9087C31.854 31.9 31.8209 31.9 31.7893 31.9087C31.7455 31.9087 31.6669 32.1151 31.6144 32.1331C31.5618 32.151 31.5354 32.0165 31.4916 32.0345C31.116 32.1177 30.7534 32.2536 30.4141 32.4383C30.4141 32.4807 30.4222 32.5227 30.438 32.5619C30.4539 32.601 30.4772 32.6368 30.5065 32.6668C30.5357 32.6968 30.5704 32.7205 30.6087 32.7367C30.647 32.7529 30.6879 32.7612 30.7293 32.7612C30.8167 32.77 30.9046 32.77 30.992 32.7612H31.2551L27.225 35.7676C26.9621 35.4938 26.7274 35.1931 26.5243 34.8702C26.24 34.3799 26.0521 33.8372 25.9721 33.2728C25.9271 33.0509 25.8982 32.826 25.8848 32.5998C25.8875 32.2467 25.9256 31.8949 25.9986 31.5499C26.1857 30.6435 26.5888 29.7987 27.1724 29.091C27.26 28.9743 27.33 28.7321 27.4877 28.6692C27.8381 28.5077 27.6717 28.5793 28.2149 28.0588C28.758 27.5384 29.3714 27.8078 29.4152 28.4629C29.4152 28.8577 29.0649 29.1986 28.6794 29.6742C28.294 30.1498 28.0397 30.5716 28.2499 30.7331C28.3291 30.7778 28.4199 30.7959 28.5096 30.7846C28.5993 30.7733 28.6834 30.7334 28.7496 30.6704C28.9286 30.5323 29.0879 30.3692 29.2227 30.1858C29.4605 29.8672 29.7208 29.5673 30.0021 29.2884C30.3086 29.1295 30.6366 29.0175 30.9749 28.9563C31.0625 28.9024 31.0973 28.741 31.1849 28.6513C31.7907 28.2352 32.4556 27.9173 33.1561 27.709C34.1144 27.3668 35.139 27.2652 36.1436 27.4127C36.1962 27.664 35.9419 28.032 35.9332 28.373C35.9332 29.1538 35.1972 29.1986 34.7855 29.9075C34.7855 30.0601 34.952 30.1319 35.0746 30.1499C35.1973 30.1678 35.3113 29.9704 35.3989 29.9614C35.6442 29.9614 35.8633 29.9614 36.1436 29.9614C36.24 29.9614 36.3713 29.8179 36.494 29.809C36.6166 29.8 36.7307 29.809 36.8709 29.809C37.011 29.809 37.3352 29.6652 37.5279 29.6652C37.7207 29.6652 37.9745 29.8716 38.2286 29.8806C38.4827 29.8896 38.8068 29.8806 39.1047 29.8806C39.4026 29.8806 39.8406 29.8089 39.9808 29.9345C40.2261 30.2217 39.7969 30.2037 39.9021 30.3922C40.1824 30.5806 40.0948 30.0512 40.524 30.1588C40.7431 30.1588 41.146 30.9395 41.1636 31.1908C41.1804 31.3596 41.1653 31.5303 41.1195 31.6934C40.9881 32.1151 40.4099 32.5099 40.2434 32.9766C40.1959 33.171 40.1959 33.3746 40.2434 33.569C40.2434 33.7754 40.2437 34.2062 40.5767 34.278C40.7606 34.278 40.7429 34.1522 40.8393 34.3586C40.9357 34.565 41.5226 34.61 41.7154 34.7267C41.9081 34.8434 41.9694 34.9599 42.1534 35.0496C42.1972 35.0496 42.4514 35.0496 42.4777 35.0496C42.504 35.0496 42.5652 35.2201 42.6441 35.265C43.1022 35.5781 43.541 35.9199 43.9582 36.2882C44.002 36.2882 44.2647 36.2882 44.291 36.2882C44.3173 36.2882 44.4925 36.6471 44.694 36.7369C44.8955 36.8266 44.8604 37.0329 45.1145 37.3021C45.1933 37.3739 45.4473 37.4187 45.4999 37.4636C45.8348 37.945 46.1279 38.4556 46.376 38.9894C46.4373 39.106 46.6652 39.1867 46.7528 39.3123C47.2697 40.0571 47.3221 41.0444 46.3584 41.2059C46.0264 41.2388 45.6914 41.2114 45.3686 41.1251C45.0532 41.0443 44.6503 40.6853 44.3787 41.0622C44.3093 41.1811 44.2642 41.3134 44.2461 41.4506C44.228 41.5879 44.2373 41.7275 44.2735 41.861C44.32 42.1865 44.4025 42.5057 44.519 42.8123C44.5716 42.9559 44.7465 43.0187 44.8428 43.2341C44.8428 43.2341 44.6327 43.2339 44.7115 43.3147C44.9312 43.4869 45.0809 43.7362 45.132 44.0147C45.1644 44.1726 45.2143 44.3261 45.2809 44.4724L45.4302 44.5712L45.544 44.7416C45.544 44.7416 45.6753 44.7417 45.6753 44.8494C45.6753 44.9571 45.5615 44.948 45.544 44.9031C45.6316 45.1544 45.8592 45.3071 45.8417 45.5045C45.8242 45.7019 45.6579 45.9532 45.5966 46.1596C45.3688 46.7967 45.3863 47.4877 44.7205 47.9005C44.3963 48.089 44.0459 47.9634 43.8444 48.439C43.7918 48.5467 43.8879 48.7171 43.7477 48.7799L43.2922 48.8608C43.1157 48.892 42.937 48.9068 42.7579 48.9055C41.8818 48.6811 40.769 47.4159 40.8829 48.3312C40.8829 48.4479 41.0671 48.6094 41.0759 48.735C41.0846 48.8607 40.9268 48.9774 40.9356 49.0941C40.9443 49.2108 41.102 49.489 41.102 49.5248C41.102 49.7761 40.8568 49.9915 40.8218 50.2338C40.8218 50.2338 40.9708 50.44 40.9621 50.4849C40.9533 50.5298 40.7691 50.7093 40.7165 50.9426C40.664 51.1759 40.7165 51.212 40.7165 51.3466C40.7165 51.4812 40.5677 51.517 40.5677 51.4991C40.5151 51.8132 40.7518 52.1093 40.5065 52.1542C40.3385 52.0697 40.1894 51.9506 40.0685 51.8043C39.5691 51.8043 40.3923 51.867 39.9718 51.9029C39.8579 51.9029 39.7355 51.8221 39.6304 51.849C39.5253 51.8759 39.4812 51.5799 39.3498 51.3556C39.2184 51.1312 38.9996 50.9516 38.9207 50.7991C38.7455 50.4581 38.8331 50.1798 38.6842 50.0542C37.8081 49.3183 38.0622 50.6197 38.0447 50.8889C37.9803 51.3737 37.8836 51.8533 37.7555 52.3246C37.7029 52.5938 37.7554 52.9978 37.6678 53.3658C37.64 53.4474 37.6196 53.5314 37.6066 53.6168C37.5306 53.9049 37.4339 54.187 37.3175 54.4606C37.266 54.5778 37.2073 54.6916 37.1421 54.8015C37.1421 54.8015 37.2737 54.9988 37.1861 54.954C36.8532 54.7924 37.0809 55.0438 37.0634 55.2502C37.0458 55.4566 36.8706 55.4207 36.7917 55.6899C36.7917 55.6899 36.8706 55.9682 36.8619 55.9951C36.7788 56.1484 36.6853 56.2953 36.5817 56.4348C36.5028 56.5784 36.3799 56.713 36.3011 56.8745C36.1168 57.3905 35.8474 57.8703 35.5041 58.2925C35.5041 58.2925 35.2587 58.2923 35.1974 58.3821C34.8927 58.7124 34.4825 58.9195 34.0411 58.9655C33.7999 58.9838 33.5587 58.9274 33.349 58.8038C32.852 58.4486 32.4754 57.9437 32.2714 57.3591C32.2714 57.2784 32.3152 57.0808 32.2714 57.0001C32.2276 56.9193 31.9473 56.6233 31.8509 56.4438C31.7546 56.2643 31.7895 56.1028 31.7106 56.031C31.369 55.7438 31.1411 55.9861 31.001 56.2464C30.9494 56.3303 30.9025 56.4172 30.8606 56.5067C30.8205 56.5898 30.7675 56.6656 30.7032 56.731C30.5732 56.8865 30.4989 57.0827 30.4928 57.2873C30.4803 57.3645 30.4803 57.4434 30.4928 57.5206C30.5366 57.6732 30.2563 58.1219 30.1775 58.418C30.1775 58.5167 30.1775 58.6872 30.1775 58.8128C30.1775 58.9385 30.0374 58.8848 30.0286 58.9655C30.0199 59.0463 30.1687 59.1987 30.16 59.2166C30.1512 59.2346 29.906 59.3692 29.8447 59.5038C29.7834 59.6385 29.8447 59.8179 29.8447 59.8986C29.8447 59.9794 29.6166 59.8988 29.4939 60.0334C29.3713 60.168 29.2661 60.5719 29.0734 60.7603C28.8548 60.9131 28.6231 61.0452 28.3813 61.1551C28.0133 61.4154 27.6633 61.9898 27.234 61.8911C27.0938 61.8911 27.0146 61.6037 26.8481 61.4781C26.6817 61.3524 26.4715 61.3525 26.2788 61.0384C26.086 60.7243 25.9809 60.3743 25.8232 60.141C25.7338 60.1014 25.6577 60.0359 25.6042 59.9525C25.5604 59.8628 25.3502 59.2436 25.2538 59.0102C25.1575 58.7769 25.1051 58.6873 25.0263 58.4809C24.9798 58.287 24.8918 58.1061 24.7692 57.9509C24.6465 57.7958 24.4921 57.6703 24.3166 57.5835C24.1527 57.47 23.9795 57.3709 23.7994 57.2873C23.711 57.2846 23.6246 57.3132 23.5543 57.3681C23.5017 57.4021 23.441 57.4205 23.3789 57.4218C23.265 57.4218 23.134 57.2873 23.0902 57.2963C22.8786 57.3335 22.6761 57.4128 22.4943 57.5296C22.4242 57.5296 22.4328 57.745 22.3715 57.7719C21.999 57.9079 21.6634 58.1326 21.3923 58.4274C21.1212 58.7223 20.9225 59.0789 20.8123 59.4679C20.7422 59.6564 20.6455 59.5757 20.5141 59.818C20.4211 59.9862 20.3644 60.1728 20.3477 60.3653C20.33 60.565 20.3635 60.7661 20.4444 60.9488C20.4882 61.0295 20.4444 61.0026 20.4444 60.9488L20.3742 60.8769C20.3304 60.832 20.2865 60.7871 20.2339 60.796C20.1814 60.805 20.2341 60.9487 20.1727 60.8949C20.165 60.8263 20.165 60.757 20.1727 60.6885C20.0851 60.6885 20.0413 60.9757 19.9713 60.9577C19.6661 60.819 19.4028 60.599 19.209 60.3206V59.9975C19.209 59.9975 19.209 59.7283 19.209 59.827C19.2528 59.6027 19.3581 59.5487 19.3668 59.4499C19.3668 58.9743 19.2526 58.7591 19.0687 58.6693C18.9593 58.6423 18.8453 58.6423 18.7359 58.6693H18.5695C18.4293 58.6693 18.9285 58.8128 18.8672 58.7949H18.7183H18.587C18.4072 58.8255 18.2235 58.8255 18.0437 58.7949L17.5971 58.6424L17.3956 58.5795H17.3079H16.9401H16.1688C15.6015 58.5996 15.042 58.7181 14.5133 58.9296C14.2058 59.0777 13.9125 59.2548 13.6372 59.4589C13.4095 59.6743 13.2076 59.8899 13.0324 60.0873C12.6732 60.4821 12.507 60.8232 12.2179 60.9847C11.9288 61.1462 11.0704 61.0653 10.8251 61.3076C10.5635 61.5934 10.4002 61.9592 10.3605 62.3488C10.2992 62.7526 10.2817 63.1833 10.2116 63.614C10.2116 63.8114 10.0013 64.0627 9.95753 64.314C9.94381 64.4752 9.94381 64.6374 9.95753 64.7986C9.94139 65.0796 9.94139 65.3612 9.95753 65.6421L16.905 64.4755C16.8136 64.2354 16.7686 63.9792 16.7732 63.7216C16.817 63.3716 17.2201 62.9768 17.2463 62.6178C17.1866 61.9548 17.0514 61.3013 16.8434 60.6705C16.7032 59.9975 16.6597 59.3065 16.4669 58.6873C16.3793 58.4001 16.1428 58.1579 16.0464 57.8438C15.8449 57.1797 16.0464 56.4617 15.8099 55.9861C15.7573 55.8874 15.5207 55.7886 15.5032 55.6629C15.5032 55.3937 15.8273 55.1514 15.7397 54.7655C15.6521 54.3797 15.582 54.1105 15.4856 53.7246L15.3543 53.1145L15.3017 52.8003C15.3017 52.6836 15.3014 52.5221 15.2576 52.3785C15.2138 52.2349 15.319 51.9388 15.2576 51.7145C15.1963 51.4901 15.0474 51.1042 15.0386 50.8171C15.0386 50.6735 15.214 50.476 15.1965 50.3324C15.1439 49.8747 14.881 49.5069 14.8547 49.1121C14.8547 48.8518 14.9163 48.5555 14.8987 48.2953C14.8904 48.1448 14.8728 47.9949 14.8461 47.8466L14.5745 47.5147C14.3338 47.3714 14.1101 47.1997 13.9084 47.0031C13.9084 46.9582 13.7245 46.8685 13.7245 46.8057L13.926 46.6173C13.8734 46.5634 13.5231 46.5365 13.3566 46.4199C13.1517 46.2609 12.9665 46.077 12.8048 45.8724C12.6471 45.666 12.5508 45.4864 12.472 45.3698C12.3931 45.2531 12.0425 44.9839 12.0425 44.7147C12.0425 44.257 12.314 43.8173 13.2514 43.4404L13.6372 43.3057C13.7248 43.3057 13.7246 43.3686 13.8122 43.3506C14.075 43.2788 14.3554 43.1532 14.4692 43.1263C14.5831 43.0993 14.5393 43.234 14.6707 43.2161L14.9248 43.0993C14.9248 43.0993 14.9248 43.1622 14.9248 43.1532C14.9248 43.1442 15.2664 43.0007 15.4416 42.9378H15.5733C15.6373 42.9299 15.7018 42.9299 15.7658 42.9378C16.3966 42.9378 17.4391 43.0186 17.0098 42.4802C16.9572 42.4173 16.7034 42.4084 16.6334 42.2738C16.5633 42.1392 16.8346 42.0494 16.8083 42.0315C16.782 42.0135 16.5896 42.0853 16.5196 42.0764C16.4495 42.0674 16.5192 41.9775 16.3177 41.9686C16.1162 41.9596 16.1425 41.9687 16.1337 41.9059C16.125 41.8431 15.906 41.8519 15.8009 41.7802C15.6958 41.7084 15.6784 41.5559 15.5558 41.4303C15.3698 41.3077 15.1939 41.1697 15.0301 41.0175C14.8724 40.8201 14.8284 40.5508 14.6357 40.2995C14.5743 40.2277 14.3819 40.1649 14.3294 40.0842C14.2768 40.0034 14.3291 39.8417 14.2853 39.7071C14.1573 39.4813 13.9979 39.2758 13.8122 39.0969C13.669 38.9006 13.5568 38.6827 13.4794 38.4508C13.3031 37.7327 13.0865 37.0255 12.8309 36.3329C12.7257 36.1085 12.5245 35.974 12.4544 35.7856C12.3844 35.5971 12.3405 35.1574 12.1477 34.7177C12.0631 34.5232 11.9665 34.3342 11.8586 34.1522C11.7184 33.9279 11.5694 33.7125 11.4205 33.5151C11.0524 33.0346 10.6384 32.5928 10.1851 32.196C9.91457 31.9277 9.6214 31.6844 9.30903 31.469C9.08617 31.3153 8.8555 31.1746 8.61732 31.0473C8.37269 30.9294 8.12074 30.8274 7.86358 30.7421C7.06858 30.4281 6.18819 30.4281 5.39319 30.7421C5.01537 30.8987 4.62944 31.0337 4.23692 31.1461L9.8523 37.2662C9.95138 37.0111 10.0362 36.7505 10.1064 36.4856C10.1064 36.324 10.0538 36.2432 10.1064 36.1444C10.159 36.0457 10.3868 35.8393 10.4131 35.6778C10.4394 35.5162 10.229 35.4086 10.2553 35.3009C10.2815 35.1933 10.5094 35.0497 10.5444 34.9061C10.6496 34.4485 10.5446 33.9549 10.6672 33.5511C10.7285 33.2908 10.9385 33.0306 11.0612 32.6986C11.2452 32.2229 11.184 31.5407 11.4381 31.1728C11.6533 30.9105 11.94 30.72 12.2615 30.6255C12.5243 30.6255 13.2079 30.8139 13.3481 30.787C13.5865 30.7068 13.8067 30.5788 13.9961 30.4101C14.1972 30.2968 14.3622 30.1263 14.471 29.9194C14.5797 29.7124 14.6279 29.4778 14.6096 29.2435C14.6096 29.2435 14.4958 29.0819 14.5133 28.9742C14.5308 28.8665 14.6883 28.7229 14.6883 28.7499C14.6883 28.5973 14.4782 28.4987 14.4782 28.373C14.4782 28.2474 14.5747 28.032 14.5484 27.8794C14.5221 27.7269 14.3642 27.5833 14.3204 27.4307C14.2766 27.2782 14.3815 27.2155 14.364 27.1078C14.3465 27.0001 14.1802 26.8027 14.1364 26.6681C14.0313 26.336 14.1801 26.0578 13.9611 25.7706C13.9611 25.7168 13.7072 25.6089 13.6984 25.591C13.6896 25.573 13.7597 25.3218 13.6984 25.2052C13.6371 25.0885 13.5146 24.972 13.4533 24.8643C13.392 24.7566 13.5146 24.7027 13.4533 24.6309C13.392 24.5591 13.1902 24.5591 13.1902 24.5411C13.1026 24.3437 13.1903 24.1014 13.094 23.913C12.9363 23.4553 12.2966 22.8539 12.7522 22.477C13.2428 22.3783 12.8222 22.7283 13.1551 22.7194C13.3128 22.5668 13.1551 22.4951 13.304 22.3515C13.4529 22.2079 13.821 22.2258 13.8648 22.0732C13.9086 21.9207 13.637 21.6873 13.6107 21.5527C13.5844 21.4181 13.6808 21.0413 13.6107 20.7631C13.5406 20.4849 13.3829 20.3771 13.3566 20.1796C13.2329 19.471 13.254 18.7439 13.4182 18.0439C13.462 17.9273 13.6281 17.9003 13.707 17.7836C13.7858 17.667 13.7071 17.4069 13.8648 17.2543C14.0225 17.1018 14.5219 16.9042 14.7409 16.6978C15.0826 16.3299 14.9948 15.8005 15.2226 15.4326C15.2839 15.3338 15.4857 15.2261 15.5207 15.1364C15.6083 14.8851 15.5208 14.6337 15.5733 14.3735C15.6259 14.1132 15.9499 13.7544 16.0725 13.4134C16.1952 13.0724 16.1166 12.7583 16.3005 12.516C16.4845 12.2737 17.0189 12.1749 17.1766 11.9415C17.3486 11.5246 17.4549 11.0824 17.4919 10.6314C17.4919 10.6314 17.3343 10.6313 17.3606 10.5505C17.573 9.99368 17.6711 9.39809 17.6493 8.80064C17.6493 8.69295 17.8247 8.70194 17.8247 8.58527C17.8255 8.41969 17.8553 8.25555 17.9124 8.10064C17.9124 7.99295 17.8074 7.85847 17.8337 7.7777C17.9277 7.52146 17.9838 7.25213 18.0001 6.97889C18.0001 6.8712 18.184 6.83548 18.2016 6.70985C18.1902 6.51858 18.1902 6.32665 18.2016 6.13539C18.2016 6.13539 17.9912 6.05474 18.0788 6.03679C18.5431 5.98295 17.6934 5.41759 17.7109 5.13939C17.7284 4.8612 18.0351 4.87915 18.2366 4.69069C18.6981 4.06438 19.0261 3.3459 19.2 2.58171C19.2438 2.45607 19.0777 2.0792 19.5858 2.16894C19.4059 2.75085 19.2996 3.35408 19.2701 3.96374C19.2701 4.05348 19.0689 4.14327 19.0601 4.23301C19.0513 4.32275 19.2177 4.53812 19.2265 4.67273C19.2353 4.80734 19.0423 4.80716 19.016 4.94177C18.9898 5.07638 19.1125 5.10336 19.0862 5.22002C19.0599 5.33668 18.8937 5.42652 18.8762 5.54318C18.8148 6.0188 19.0423 6.59305 18.981 7.0238C18.981 7.08662 18.9813 7.21227 18.9288 7.25714C18.8762 7.30201 18.6657 7.2572 18.6306 7.32002C18.5956 7.38284 18.8586 7.46356 18.8762 7.49945C18.8937 7.53535 18.7096 7.58031 18.7183 7.58928C18.7183 8.18157 18.4643 8.8187 18.4993 9.58149C18.4993 9.79686 18.6834 10.0302 18.6571 10.2276C18.6046 10.793 18.1225 11.2505 18.1926 11.6633C18.1926 11.753 18.4469 12.0312 18.403 12.112C18.3592 12.1928 18.1487 12.112 18.1224 12.112C17.9647 12.2287 18.1225 12.3275 17.8072 12.4352C17.4918 12.5429 17.2901 12.5519 17.2288 12.7314C17.1675 12.9109 17.2292 13.0902 17.1766 13.2787C17.1241 13.4671 16.931 13.5389 16.8609 13.6735C16.6769 14.0504 16.861 14.4543 16.7647 14.8491C16.7647 14.9748 16.5283 15.1093 16.4669 15.2619C16.4056 15.4144 16.4669 15.7466 16.4143 16.0158C16.4143 16.1145 16.169 16.267 16.1252 16.3836C15.985 16.7336 16.2567 16.8145 15.8274 16.9491L15.5468 17.003C15.468 17.0838 15.6432 17.2542 15.5468 17.3349C15.4504 17.4157 15.1879 17.335 15.1353 17.3799C14.9831 17.4942 14.8394 17.6201 14.7058 17.7567C14.627 17.8554 14.7058 18.0349 14.7058 18.2234C14.7058 18.4118 14.373 18.6363 14.4081 19.0401C14.4081 19.094 14.5744 19.1208 14.5394 19.1836C14.4316 19.4194 14.3776 19.6773 14.3816 19.9375C14.3816 20.0721 14.6008 20.2337 14.6446 20.3773C14.6884 20.5208 14.5833 20.8348 14.6446 21.095C14.7585 21.8219 15.5205 22.3425 14.8547 22.8092C14.7408 22.8899 14.855 22.8988 14.7148 22.9527C14.5746 23.0065 14.5568 22.9527 14.4342 23.0156C14.3115 23.0784 14.1804 23.2938 14.2768 23.5361C14.2768 23.5361 14.4344 23.6348 14.4081 23.6886C14.3818 23.7425 14.224 23.6887 14.2678 23.7605C14.3116 23.8323 14.5921 24.0834 14.6446 24.2629C14.741 24.6039 14.5832 24.936 14.7058 25.2231C14.7759 25.3577 15.0474 25.5282 15.0912 25.6539C15.135 25.7795 15.0915 26.1475 15.1528 26.3988C15.2142 26.6501 15.3805 26.9371 15.4681 27.1974C15.5207 27.323 15.4682 27.4576 15.5558 27.6281C15.6434 27.7986 15.7836 27.9154 15.7923 28.0052C15.8362 28.3282 15.6345 28.6334 15.652 28.9026C15.2228 28.9026 15.4241 28.6243 15.0035 28.6243C15.0035 29.0102 15.7307 28.8666 15.8796 29.0371C15.7852 29.5529 15.6504 30.06 15.4767 30.5537C15.3365 30.8229 15.1265 30.8678 14.6622 31.0832C14.2984 31.2681 13.8932 31.3517 13.4879 31.3255C13.3127 31.3255 12.8223 31.3255 12.7872 31.3255C12.612 31.4063 12.6647 31.7204 12.4895 32.0075C12.4019 32.1422 12.174 32.2318 12.1302 32.3305C11.9679 32.9609 11.8767 33.6084 11.8586 34.26C11.7972 34.601 11.6309 34.9062 11.5784 35.1574C11.5258 35.4087 11.7011 35.633 11.6485 35.7676C11.5959 35.9022 11.3068 36.0278 11.2105 36.1983C11.0653 36.4329 11.0149 36.7163 11.0702 36.9882C11.0702 37.0959 11.2718 37.2124 11.2456 37.3201C11.2193 37.4278 11.0089 37.4996 10.9038 37.5804L3.89513 29.9614C3.97323 29.9772 4.05359 29.9772 4.13169 29.9614C4.85296 29.482 5.67043 29.1753 6.52337 29.064C7.60789 29.0261 8.68325 29.2798 9.64226 29.8C10.7943 30.4122 11.7537 31.3455 12.4104 32.4922C12.5355 32.6934 12.6471 32.9032 12.7436 33.1203C12.8312 33.3177 12.9189 33.5061 12.9977 33.6946C13.1379 34.0445 13.2164 34.2958 13.3215 34.592C13.3915 34.8148 13.4736 35.0335 13.5671 35.247C13.6342 35.4222 13.7223 35.588 13.8297 35.7407C13.9004 35.8805 13.9449 36.0327 13.9611 36.1894C13.9611 36.3688 14.0049 36.5842 14.0312 36.8085C14.0312 37.1944 14.1362 37.5623 14.364 37.7059C14.5918 37.8495 14.5569 37.7061 14.5394 38.083C14.5219 38.4599 14.7407 38.6393 15.0211 38.8816C15.3014 39.1239 14.9336 39.0073 14.9073 39.1957C14.9933 39.3554 15.1028 39.5006 15.2315 39.6265C15.3016 39.6893 15.4857 39.7431 15.5207 39.8059C15.5558 39.8687 15.5206 40.129 15.5819 40.2367C15.6432 40.3443 15.9586 40.4252 16.0375 40.5149C16.1163 40.6046 15.8972 40.6585 15.9498 40.7662C16.0023 40.8739 16.1603 40.7661 16.2479 40.8558C16.3355 40.9455 16.2479 41.0173 16.2479 41.0532C16.3465 41.0929 16.4492 41.1201 16.5542 41.1341C16.8959 41.1969 16.9835 41.3764 17.2288 41.4482C17.2901 41.4482 17.4391 41.4033 17.518 41.4033C17.5968 41.4033 17.6145 41.4929 17.7109 41.5019H17.8161C17.8161 41.5019 17.816 41.5019 17.8773 41.5019C17.9605 41.5781 18.0395 41.659 18.1139 41.7442C18.2061 41.8529 18.3055 41.955 18.4116 42.0494C18.4642 42.1481 18.2978 42.2738 18.3154 42.3367C18.4468 42.6777 18.5606 42.6508 18.4467 43.0367C18.4467 43.0815 18.4468 43.3506 18.3855 43.3686C17.923 43.7514 17.3698 44.0022 16.7822 44.0955C16.6771 44.0955 16.5456 43.7723 16.4404 43.7544C16.1603 43.7749 15.8824 43.8171 15.6084 43.8802C15.4945 43.8802 15.4156 43.7544 15.3017 43.7454C15.1878 43.7364 15.074 43.7454 14.9513 43.7454C14.7542 43.7138 14.555 43.696 14.3555 43.6917L13.935 43.7724C13.6196 43.8442 13.2517 43.9429 12.9626 43.9967C12.7611 44.2929 13.085 44.3288 13.1025 44.5352C13.12 44.7416 13.1028 44.9481 13.1817 45.0648C13.2605 45.1814 13.5934 45.2262 13.8212 45.3967C14.049 45.5672 14.2676 46.0968 14.5655 46.3929C14.8569 46.6705 15.1707 46.9226 15.5032 47.1466L15.5558 47.2454C15.6242 47.3393 15.7068 47.4212 15.8009 47.4877C15.8682 47.5692 15.911 47.6688 15.9237 47.7747C15.9237 47.9901 15.7222 48.2146 15.7573 48.4121C15.7733 48.5686 15.8088 48.7224 15.8625 48.8698C15.9151 48.9685 16.1076 49.0581 16.1252 49.2017C16.1427 49.3453 15.9412 49.767 15.9412 50.0362C15.9412 50.3054 16.1338 50.3504 16.1863 50.6017C16.3002 51.185 15.9498 51.858 16.1863 52.3336C16.2564 52.4592 16.4144 52.5132 16.4494 52.6568C16.4764 52.7869 16.4764 52.9214 16.4494 53.0516C16.4279 53.1581 16.4279 53.2682 16.4494 53.3747C16.4494 53.5273 16.6595 53.608 16.7121 53.7516C16.7646 53.8952 16.5718 53.8592 16.5718 53.94C16.5718 54.0208 16.8346 54.1822 16.8434 54.2809C16.8521 54.3796 16.6772 54.3888 16.7035 54.4516C16.7298 54.5144 16.9572 54.6399 16.9747 54.7296C16.9922 54.8193 16.8434 54.8822 16.8434 54.9899C16.8434 55.0976 16.9835 55.1784 16.9923 55.2502C17.001 55.322 16.8699 55.6002 16.8874 55.7797C16.905 55.9592 17.0626 55.977 17.0539 56.0847C17.0451 56.1924 16.9311 56.3181 16.9486 56.4258C17.0099 56.8027 17.3867 57.2156 17.2553 57.6194C17.2326 57.7124 17.2004 57.8025 17.1591 57.8885C17.1591 58.0051 17.4041 58.05 17.4829 58.1577C17.6253 58.4524 17.686 58.7815 17.6583 59.109C17.745 59.4322 17.8502 59.7499 17.9736 60.0603C18.105 60.6257 18.0877 61.2629 18.2016 61.8551C18.3155 62.4474 18.6309 62.6627 18.4732 63.1384C18.3944 63.3717 17.9562 63.6141 17.9299 63.9012C17.9518 64.017 17.9901 64.1288 18.0437 64.2332L8.52962 65.8216C8.38953 64.9299 8.38953 64.021 8.52962 63.1294C8.65559 62.6195 8.82246 62.1213 9.02883 61.6398C9.19921 61.1507 9.39508 60.6713 9.61574 60.2038C9.77242 59.8442 10.0208 59.5343 10.3344 59.3064C10.6848 59.1449 11.3767 59.8449 11.6045 59.7641C11.7673 59.6709 11.9177 59.5564 12.0515 59.4232C12.288 59.2437 12.5946 59.0102 12.9276 58.7859C13.4536 58.4797 13.9947 58.2012 14.5484 57.9514C15.067 57.7551 15.616 57.6577 16.1688 57.6641C16.4316 57.6641 16.7211 57.4667 16.9576 57.4757C17.1121 57.4624 17.2672 57.4624 17.4217 57.4757H17.5445C17.6145 57.4799 17.6829 57.4983 17.746 57.5296L18.4381 57.7899L18.8235 57.9154H19.016H19.1127C19.1127 57.9154 19.165 57.9154 19.0511 57.9154L18.7269 57.7899C18.8408 57.7899 18.9898 57.5745 19.0862 57.5386C19.1826 57.5027 19.1737 57.6194 19.2175 57.6284C19.2613 57.6374 19.4015 57.4488 19.4365 57.4757C19.5011 57.5566 19.5465 57.6519 19.5683 57.754C19.5683 57.754 19.5683 58.5347 19.5683 58.6514C19.5683 59.1629 19.4015 59.2616 19.4365 59.5488C19.4442 59.6426 19.4729 59.7334 19.52 59.8143C19.567 59.8952 19.6313 59.9639 19.7082 60.0154C19.7783 60.0154 19.822 59.7461 19.8921 59.7012C19.9622 59.6564 19.9799 59.9076 20.0675 59.9256C20.1551 59.9435 20.155 59.7372 20.1988 59.7462C20.2426 59.7551 20.2866 59.8181 20.3391 59.8809C20.2685 59.789 20.2312 59.6747 20.2339 59.5577C20.2339 59.5577 20.2339 59.1719 20.2339 59.154C20.2339 59.136 20.2951 59.082 20.3477 59.0102C20.4003 58.9384 20.4442 58.6603 20.488 58.5885C20.6759 58.3374 20.8514 58.077 21.0137 57.8078C21.0838 57.6643 21.1276 57.431 21.1801 57.4041C21.2327 57.3771 21.3113 57.5116 21.3551 57.4577C21.3989 57.4039 21.4165 57.1258 21.4603 57.0719C21.5041 57.0181 21.6005 57.1617 21.6443 57.1348C21.6881 57.1079 21.7057 56.9553 21.7495 56.9015C21.7933 56.8476 21.8897 56.9822 21.9335 56.9015C21.9773 56.8207 21.9335 56.722 21.9335 56.713C21.9335 56.7041 22.1526 56.8565 22.2402 56.8476C22.3278 56.8386 22.24 56.6591 22.3013 56.6412C22.3627 56.6232 22.5992 56.7399 22.7043 56.6861C22.8094 56.6323 22.7046 56.4887 22.7484 56.4887C22.7922 56.4887 23.0287 56.4887 23.1689 56.4887C23.309 56.4887 23.5983 56.4078 23.5282 56.3809C24.0487 56.7022 24.4988 57.13 24.8509 57.6374C25.0199 57.9228 25.1638 58.2231 25.2804 58.5348C25.3855 58.7412 25.4817 58.8577 25.5605 59.0192C25.7525 59.4479 25.9935 59.8516 26.2788 60.2218C26.6117 60.7064 26.5503 60.7512 26.8832 60.805C27.2161 60.8589 26.8835 60.6167 27.1288 60.4372C27.3741 60.2577 27.4966 60.3384 27.6455 60.1949C27.7944 60.0513 27.812 59.8359 27.9347 59.7731C28.0573 59.7103 28.3024 59.8449 28.3813 59.7731C28.5456 59.5265 28.6508 59.2437 28.688 58.9476C28.6908 58.862 28.715 58.7786 28.7581 58.7052C28.8633 58.5347 29.0825 58.6245 29.2052 58.4809C29.2771 58.3293 29.3185 58.1646 29.3275 57.9963C29.3873 57.8379 29.426 57.6717 29.4417 57.5027C29.4417 57.377 29.2311 57.063 29.2749 56.9104C29.3371 56.692 29.4782 56.5059 29.6693 56.3899C29.8228 56.2645 29.9258 56.0855 29.9585 55.8873C29.9585 55.7975 30.0635 55.7796 30.0547 55.6629C30.046 55.5463 29.9495 55.4208 29.9495 55.3939C29.9495 55.367 30.1775 55.4477 30.2301 55.3939C30.2416 55.3559 30.2416 55.3151 30.2301 55.2771C30.2301 55.2053 30.16 55.1246 30.2301 55.0887C30.6156 54.5682 31.3778 54.3708 32.2013 55.8246L32.4028 56.1925C32.4028 56.1925 32.5955 56.5244 32.6043 56.5693C32.613 56.6142 32.4991 56.9463 32.6043 57.1168C32.6043 57.1168 32.8931 57.377 32.9982 57.5116C33.1034 57.6462 33.1034 57.8886 33.2699 58.0052C33.4363 58.1219 33.384 57.9424 33.5329 58.0052C33.6819 58.0681 33.743 58.1847 33.7605 58.1847C34.054 58.0576 34.3285 57.8884 34.5754 57.6821C34.7068 57.5923 34.7506 57.35 34.9258 57.2064C35.2107 57.0144 35.4404 56.7481 35.5914 56.4348C35.6616 56.3264 35.7235 56.2122 35.7758 56.0937C35.7758 55.995 35.7758 55.7796 35.7758 55.6989C36.0561 55.1066 36.4851 54.7298 36.5552 54.4336C36.6252 54.1375 36.459 53.7067 36.5115 53.5362C36.5115 53.5362 36.7044 53.4464 36.8182 53.249C36.8182 53.1951 36.7657 52.926 36.8182 52.8991C36.8708 52.8722 37.0458 52.899 37.0634 52.8542C37.0809 52.8093 36.9493 52.6478 36.9406 52.4055C36.9318 52.1632 37.1072 52.2349 37.0984 52.0643C37.0836 51.8952 37.0574 51.7274 37.0197 51.562C36.9675 51.4151 36.9237 51.2653 36.8884 51.1133C36.8884 51.0146 37.0634 51.0144 37.0809 50.9246C37.0984 50.8349 36.9844 50.6555 36.9932 50.6197C37.002 50.5838 37.1772 50.3864 37.1947 50.2338C37.2385 49.8659 37.1158 49.4082 37.1947 49.1031C37.2472 48.6544 37.3087 48.2774 37.5715 48.3222C37.8344 48.3671 37.8256 48.5645 38.0096 48.6721C38.1936 48.7798 38.1498 48.6722 38.2988 48.771C38.8056 49.3218 39.2576 49.923 39.648 50.5658C39.8933 50.3683 39.6478 49.812 39.7091 49.5159C39.7705 49.2197 39.8931 49.1298 39.8931 48.9145C39.8579 48.5847 39.7783 48.2617 39.6565 47.9544C39.6565 47.8467 39.7003 47.8198 39.6565 47.73C39.6121 47.6403 39.5624 47.5533 39.5076 47.4698C39.5076 47.398 39.5602 47.3441 39.5076 47.2634C39.4551 47.1826 39.3674 47.1018 39.3849 46.7698C39.4024 46.4377 39.3851 46.4827 39.867 46.6442C40.3488 46.8058 41.8029 47.73 42.2321 47.6941C42.6614 47.6582 42.311 47.2454 42.4512 46.9761C42.4512 46.9761 42.6789 46.9761 42.6702 46.9133C42.6614 46.8504 42.5475 46.7158 42.8541 46.662C43.1607 46.6081 43.3013 46.8416 43.897 46.8237C44.0985 46.4019 44.4489 46.0878 44.5365 45.6839C44.5365 45.5673 44.405 45.4505 44.3962 45.3248C44.3875 45.1992 44.5276 44.8224 44.3962 44.5263L44.2559 44.3558L44.0544 44.257C43.9672 44.1293 43.8967 43.9906 43.8444 43.8442C43.709 43.5562 43.6004 43.2557 43.5202 42.9468C43.5202 42.9468 43.3185 42.8661 43.3623 42.7943C43.4061 42.7225 43.5199 42.7943 43.4936 42.7225C43.4674 42.6507 43.2487 42.5339 43.1698 42.4173C43.091 42.3006 42.6527 41.2239 42.7579 40.9726C42.7579 40.9726 42.9506 40.838 42.9944 40.7842C43.6434 40.3078 44.4465 40.1053 45.2372 40.2187C45.7103 40.2725 45.8942 40.2186 45.8066 39.7251C45.8066 39.6443 45.6053 39.6174 45.5966 39.4738C45.5979 39.2433 45.5237 39.019 45.3861 38.8367C45.1496 38.5405 44.8079 38.442 44.7641 38.3433C44.5101 37.8138 45.0972 37.8856 44.4664 37.6522C44.197 37.5237 43.9622 37.3295 43.7828 37.0868C43.5488 36.8142 43.2878 36.5674 43.0034 36.3508C42.6968 36.1444 42.3199 36.001 41.9695 35.7946C41.8293 35.6958 41.7065 35.5252 41.5575 35.4714C41.4086 35.4176 41.2862 35.6688 41.1811 35.6598C41.0641 35.5366 40.9239 35.4391 40.7692 35.3728C40.4378 35.2986 40.1228 35.1617 39.8405 34.969C39.7178 34.8613 39.7529 34.6817 39.6741 34.6009C39.3937 34.3407 39.0435 34.3049 39.2099 33.6229C39.2536 33.5358 39.2916 33.4459 39.3237 33.3537C39.2711 33.1024 39.3239 33.201 39.4816 32.7702C39.4816 32.6805 39.4814 32.4921 39.5252 32.4383C39.7354 31.9447 40.1558 31.5408 40.0595 31.2806C40.0157 31.1191 39.648 31.0115 39.245 30.9307C38.842 30.8499 38.3687 30.8588 38.1585 30.8229C37.6591 30.7691 37.6067 30.5896 37.2212 30.8229C36.8357 31.0562 36.9757 30.8229 36.5727 30.8229C36.5026 30.8229 36.3801 30.9575 36.2399 30.9754C36.0997 30.9934 35.9772 31.1191 35.9071 31.1281C35.837 31.1371 35.6794 30.9575 35.5392 30.9754C35.399 30.9934 35.3286 31.1281 35.2235 31.1551C35.1184 31.182 35.0221 31.1551 34.8732 31.1551C34.7242 31.1551 34.3912 31.4061 34.3123 31.4061C34.2335 31.4061 34.2248 31.2267 34.1284 31.2177C34.032 31.2087 33.6378 31.4331 33.6553 30.805C33.6553 30.4909 33.5856 30.3384 33.6031 30.2307C33.6819 29.7012 33.9009 29.5306 34.4266 28.9832C34.4266 28.9832 35.3989 28.373 35.3638 28.0858C35.2762 27.4486 34.5842 28.0858 33.971 28.3101C33.3577 28.5345 32.5868 28.3101 32.2188 28.9383C32.0173 29.3152 31.7633 28.9385 31.3427 29.3692L31.1498 29.6652C31.0009 29.746 30.7467 29.6025 30.6066 29.7371C30.4664 29.8717 30.6066 30.0961 30.4577 30.1948L30.0637 30.4461C29.9048 30.5303 29.7371 30.5965 29.5641 30.6435C29.4123 30.6813 29.2715 30.7551 29.1526 30.8588C29.0124 31.0294 29.3187 31.137 29.2574 31.2806C29.196 31.4242 28.7581 31.7473 28.6705 31.9806C28.5828 32.2139 28.8722 32.492 28.4955 32.7882C27.8209 32.842 27.4092 32.5638 27.4179 31.8908C27.4179 31.7382 27.2865 31.5946 27.4179 31.4061C27.5493 31.2177 27.7505 31.2717 27.7593 31.164C27.7681 31.0564 27.5841 30.8677 27.5929 30.7421C27.5929 30.4639 28.0399 29.746 27.856 29.405C27.4683 29.6736 27.1809 30.0691 27.0411 30.5267C26.9973 30.6254 26.7607 30.823 26.7519 30.9217C26.7519 31.164 26.9007 31.2806 26.8481 31.5409C26.7041 31.8784 26.6072 32.2347 26.5594 32.5998C26.615 32.9265 26.7472 33.2344 26.9448 33.4972C27.032 33.6295 27.111 33.7674 27.1814 33.9099C27.2583 34.0365 27.32 34.172 27.3653 34.3137C27.4266 34.556 27.2427 34.8883 27.3653 34.969C27.488 35.0498 27.8907 35.1394 28.1623 35.3009L28.2675 35.3728L30.4842 33.7215C30.09 33.7215 28.9773 33.7215 28.8985 33.3177C28.9651 33.036 29.0528 32.76 29.1611 32.4922C29.3276 32.214 29.3888 32.3306 29.5115 32.2229C29.6341 32.1152 29.5117 32.2228 29.5906 32.1061C29.8008 31.6215 29.9147 31.9895 30.2126 31.8638C30.3177 31.819 30.5806 31.4602 30.7383 31.3794C30.896 31.2986 30.9045 31.3794 30.9483 31.3794C31.4519 31.2357 31.9688 31.1455 32.4905 31.1101L25.2012 36.5395L25.0613 36.4047C24.781 36.1624 24.4218 36.0009 24.1853 35.7407C24.0276 35.6509 23.8434 34.8433 23.6069 34.6908C23.5543 34.6908 23.3616 34.7805 23.3353 34.6908C23.1756 34.3393 23.0921 33.9567 23.0902 33.569C23.0902 33.0934 23.0899 32.6268 23.0286 32.2768C23.0038 31.9684 22.9331 31.6657 22.8185 31.3794C22.6995 31.1128 22.651 30.8186 22.6782 30.5267C22.065 30.6523 22.1787 31.9986 21.8984 32.4383C21.802 32.3755 21.8371 32.0973 21.8984 31.8281C21.9597 31.5589 22.021 31.2177 21.8984 31.1818C21.4779 31.6843 21.6443 32.5998 21.8984 32.4383C22.1524 32.2768 22.1612 32.7704 22.1174 33.3986C22.0585 33.8663 22.0585 34.3396 22.1174 34.8073C22.205 35.1124 22.3626 34.9959 22.4502 35.3459C22.5031 35.7413 22.5881 36.1316 22.7043 36.5125C22.836 36.7817 22.9884 37.0396 23.1599 37.2842L33.8833 29.2974C33.6659 29.2943 33.4489 29.2732 33.2348 29.2345C32.9895 29.1717 32.1575 28.5434 31.7983 28.7139C31.7107 28.7139 31.579 29.0191 31.5002 29.0101C31.4213 29.0012 31.2724 28.7768 31.0446 28.7139C30.8168 28.6511 30.4314 28.9025 30.2387 28.8666C30.0459 28.8307 30.0373 28.5255 29.9234 28.5255C29.8095 28.5255 29.6955 28.6064 29.5641 28.6333C29.4682 28.6197 29.3708 28.6197 29.2749 28.6333C29.2311 28.6333 29.1085 28.8307 29.0734 28.8397C29.0384 28.8487 28.9771 28.7409 28.9245 28.7588C28.6948 28.8311 28.4551 28.8645 28.2149 28.8577C27.8382 28.8577 25.8583 29.5217 25.9284 28.5884C25.9284 27.9602 26.0684 27.8167 26.6116 27.5116C26.7342 27.4487 26.6996 27.5564 26.8135 27.4487C26.9274 27.341 27.0934 27.4486 27.2862 27.1884C26.9971 26.8294 26.463 27.1885 26.0687 27.2962C25.876 27.35 25.6483 27.4667 25.4643 27.5205C25.051 27.5828 24.6453 27.691 24.255 27.8435C24.0973 27.9153 23.8957 28.0948 23.7643 28.1307C23.6329 28.1666 23.5193 27.9872 23.3879 28.0142C23.2565 28.0411 23.1864 28.2475 23.1689 28.2475C22.9498 28.2475 22.7481 28.0768 22.5028 28.0678C22.5537 27.6013 22.6387 27.1393 22.7569 26.6858C22.5946 26.7019 22.44 26.7642 22.3103 26.8655C22.1964 26.9462 22.1177 27.1436 21.9951 27.2243C21.8724 27.3051 21.7145 27.2244 21.5831 27.2692C21.4517 27.3141 21.3728 27.5743 21.2764 27.6371C21.0399 27.7986 20.8296 27.8794 20.5843 28.0678C20.339 28.2563 20.0849 28.5974 19.9623 28.6603C19.8396 28.7231 19.6646 28.5435 19.5332 28.5884C19.4018 28.6333 19.3579 29.0551 19.209 28.8217C19.1437 28.6642 19.1102 28.4949 19.1102 28.3237C19.1102 28.1526 19.1437 27.983 19.209 27.8255C19.3579 27.2602 19.9271 27.35 20.041 26.8295C20.041 26.677 19.971 26.7667 19.8921 26.8295C19.8133 26.8923 19.7259 26.8832 19.647 26.9281C19.4548 27.0692 19.2785 27.2318 19.1213 27.4127C19.0424 27.5025 19.025 27.4129 18.9549 27.5295C18.7271 27.8257 17.8246 28.732 17.518 28.6153C17.3691 28.5525 17.3953 28.6153 17.2639 28.3012C17.2026 28.1666 17.2639 28.0052 17.0799 27.9962C16.7208 27.9962 16.5807 28.5974 16.2916 28.8936C16.2302 28.9474 16.0198 29.0462 15.9147 29.1359C15.8096 29.2256 15.5822 29.5306 15.4245 29.2345C15.4245 29.1807 15.3716 28.9203 15.3102 28.9383C15.0737 29.0191 14.732 29.5846 14.4342 29.9794C14.2905 30.1629 14.1356 30.3367 13.97 30.4998C13.8211 30.6523 13.6369 30.7422 13.523 30.8858C13.2777 31.164 13.0237 31.7115 12.6469 32.0614C12.5681 32.1422 12.4892 32.0613 12.4104 32.169C12.2176 32.4293 11.8148 32.6895 11.4907 33.0664C11.1315 32.9408 11.6485 32.887 11.1929 32.7255C11.0265 32.6717 11.044 32.5281 10.7724 32.9229C10.6936 33.2191 11.1051 33.0665 11.2015 33.1562C11.0088 33.587 10.6322 33.4881 10.2818 33.6676C9.93135 33.8471 9.33539 34.4036 8.95868 34.278C8.58197 34.1524 8.95877 34.0894 8.38931 34.1792C8.1335 34.256 7.86443 34.2744 7.60093 34.2331C7.34483 34.2023 7.09253 34.1453 6.84762 34.0626C6.66907 33.9967 6.49589 33.9156 6.33044 33.8203C6.14647 33.7126 5.94526 33.5958 5.75252 33.4612C5.54321 33.3272 5.34391 33.1772 5.15663 33.0125C4.93557 32.8085 4.72483 32.5929 4.52567 32.3664C4.13476 31.9301 3.79116 31.4518 3.50073 30.9397C3.18894 30.4958 2.92767 30.0171 2.72132 29.5127C2.65841 29.0579 2.62591 28.5991 2.62465 28.1397C2.34712 27.4437 2.34712 26.664 2.62465 25.9681C2.91375 25.6899 3.06293 26.4168 3.08921 26.4168C3.11549 26.4168 3.43945 25.977 3.55334 26.2014C3.66848 26.629 3.73606 27.0684 3.75482 27.5116L3.83353 28.0409C3.83353 28.2383 3.90394 28.4359 3.94775 28.6333C4.02718 28.9941 4.14133 29.3458 4.28911 29.6832C4.43804 30.0152 4.58705 30.0782 4.79731 30.464C5.02369 30.8777 5.30383 31.258 5.62975 31.5948C5.80497 31.7862 5.98884 31.9656 6.18158 32.1331C6.34627 32.2638 6.51878 32.3839 6.69833 32.4922L6.3129 32.887C7.02253 33.7844 6.82995 32.6447 7.34683 32.7075C7.1979 32.7075 7.58327 32.8511 7.89866 32.86C8.21405 32.869 8.58205 32.86 8.60833 32.86C8.79768 32.9169 8.99111 32.9588 9.18668 32.9856C9.44075 32.9856 9.66822 32.9857 9.74706 32.896C10.0975 32.4652 9.8087 32.9587 10.2818 32.7702C10.4132 32.7702 10.5183 32.5639 10.6847 32.4473C10.9104 32.3206 11.1244 32.1735 11.3243 32.0075C11.3912 31.977 11.4555 31.9409 11.5168 31.8998C11.7183 31.4421 11.5169 31.8998 11.8761 31.6844C11.8761 31.6844 11.9548 31.442 11.9899 31.4151C12.0249 31.3882 12.2877 31.2985 12.3928 31.1908C12.498 31.0831 12.682 30.6076 12.8484 30.4012C13.0149 30.1948 13.0941 30.2935 13.2167 30.1588C13.3394 30.0242 13.383 29.8538 13.4618 29.764C13.5407 29.6743 13.6197 29.764 13.6022 29.764C13.5846 29.764 13.6458 29.5576 13.6984 29.4948C13.9437 29.1986 14.3029 28.9833 14.5745 28.5974C14.7409 28.373 14.8897 28.0052 15.0562 27.7988C15.2226 27.5924 15.2752 27.7448 15.3453 27.682C15.4154 27.6192 15.7485 27.1347 15.9763 26.8924C16.2041 26.6501 16.3268 26.6859 16.502 26.5243C16.502 26.5243 16.5718 26.273 16.6068 26.2551C16.7914 26.1736 16.9518 26.0436 17.0714 25.8782C17.159 25.7436 17.4829 25.4565 17.6669 25.2411C17.8508 25.0257 18.0786 24.9001 18.3414 24.613C18.6043 24.3258 18.6569 24.1463 18.797 24.1104C18.9372 24.0745 19.139 24.4333 19.2967 24.4603C19.6997 24.541 20.2778 23.8859 20.7421 23.5629C20.8034 23.5629 20.9347 23.563 21.0048 23.4643C21.0748 23.3656 21.2413 23.2308 21.4077 23.1142C21.5742 22.9975 21.8458 22.836 22.0999 22.6834C22.2138 22.6206 22.2841 22.6836 22.3805 22.6028C22.4768 22.522 22.8795 22.1362 23.1073 22.19C23.335 22.2439 23.4315 22.5758 23.6155 22.7463C23.4227 23.2578 23.0284 23.1591 22.9058 23.8681C23.0197 23.6886 23.2653 23.6078 23.458 23.4194C23.6508 23.2309 24.2814 23.1861 24.5792 22.9976C24.6406 22.9976 24.781 22.8002 24.8248 22.7822C24.8686 22.7643 25.2453 22.8989 25.4818 22.8361C25.7184 22.7733 25.7095 22.3694 26.0512 22.5758C26.0512 22.5758 25.9633 22.8182 25.9721 22.8361C26.0805 22.9653 26.2195 23.0639 26.3754 23.1231C25.9549 23.8321 25.3941 24.0207 24.921 24.4156C24.921 24.9271 25.5078 24.4963 25.8583 24.4156C26.0335 24.4156 26.2088 24.2002 26.4191 24.1732C26.6293 24.1463 26.7869 24.2808 26.9884 24.2269C27.1899 24.1731 27.1552 24.0923 27.2515 24.0295C27.3479 23.9667 27.8911 23.8859 28.1276 23.7962C28.5394 23.6616 29.0471 23.3654 29.2924 23.5449C29.2924 23.5449 29.6081 24.3257 29.6081 24.3078C29.5556 24.5142 29.3715 24.4692 29.1175 24.6846C28.5831 25.1423 28.9247 24.9629 28.3727 24.9629C28.3026 24.9629 28.1539 25.1243 28.0925 25.1423C28.0312 25.1602 27.7245 25.1424 27.5668 25.2231C27.1813 25.3398 26.8132 25.6001 26.5153 25.7078C26.2175 25.8155 25.9108 25.7077 25.6393 25.8333C25.5083 25.931 25.3828 26.0359 25.2628 26.1475C25.1577 26.2103 24.9033 26.1474 24.8945 26.4704C25.0434 26.8025 25.3589 26.4706 25.6217 26.4257L26.0337 26.273C26.1054 26.2545 26.1755 26.2307 26.2437 26.2014C26.3061 26.1269 26.3648 26.049 26.4191 25.9681C26.533 25.9681 26.6294 26.1295 26.7433 26.1026C26.8572 26.0757 26.9098 25.8692 26.9273 25.8692C27.1025 25.8692 27.2074 25.9321 27.3914 25.8692C27.5754 25.8064 27.7158 25.8063 27.9086 25.7884C28.213 25.8415 28.5239 25.8415 28.8283 25.7884C28.9772 25.7346 29.1435 25.5463 29.2574 25.5283C29.6078 25.4565 29.8356 25.6898 30.1334 25.6629C30.4313 25.6359 30.8258 25.5194 31.3077 25.5194C31.404 25.5194 31.6491 25.4116 31.7017 25.4205C31.8944 25.4205 31.8684 25.618 32.0524 25.6269C32.4554 25.6269 33.2 25.4655 33.5329 25.7527C33.6323 25.8768 33.7121 26.0161 33.7695 26.1655C33.8216 26.2756 33.8654 26.3895 33.9008 26.5064C33.8132 26.7666 33.1298 26.9911 32.5516 27.0988C31.6756 27.2603 30.7995 27.1885 29.9234 27.2962C29.7219 27.2962 29.5117 27.4218 29.3365 27.4487C29.1613 27.4756 28.9071 27.4487 28.7406 27.4487C28.5742 27.4487 28.1538 27.9153 27.7858 27.6281Z" fill="white" stroke="white" stroke-width="3.10104" stroke-linecap="round" stroke-linejoin="round"/>
</svg>
