<svg width="584" height="585" viewBox="0 0 584 585" fill="none" xmlns="http://www.w3.org/2000/svg">
<path d="M550.958 33.1183C550.958 33.1183 484.993 42.1645 433.048 86.3765C363.993 145.18 407.151 176.926 407.151 176.926L550.958 33.1183Z" fill="white" stroke="#626262" stroke-width="7.23318" stroke-linejoin="round"/>
<path d="M550.956 33.1187C550.956 33.1187 541.91 99.0843 497.689 151.021C438.886 220.076 407.148 176.926 407.148 176.926L550.956 33.1187Z" fill="white" stroke="#626262" stroke-width="7.23318" stroke-linejoin="round"/>
<path d="M338.904 245.166L32.8043 551.266C20.7578 539.219 101.431 439.026 213.001 327.455C251.078 289.378 287.834 254.891 320.214 226.476L338.904 245.166Z" fill="white" stroke="#E96262" stroke-width="7.23318"/>
<path d="M431.938 189.508L394.566 152.136L320.224 226.478L357.596 263.849L431.938 189.508Z" fill="white" stroke="#E96262" stroke-width="7.23318"/>
<path d="M410.834 216.831L367.229 173.227L354.272 186.184L397.876 229.789L410.834 216.831Z" fill="white" stroke="#E96262" stroke-width="7.23318"/>
<path d="M394.764 226.674L357.142 189.052L347.659 198.535L385.281 236.157L394.764 226.674Z" fill="white" stroke="#E96262" stroke-width="7.23318"/>
<path d="M256.619 371.071C145.049 482.642 44.8456 563.305 32.8081 551.268L338.908 245.168L357.598 263.858C329.174 296.229 294.696 332.994 256.619 371.071Z" fill="white" stroke="#E96262" stroke-width="7.23318"/>
</svg>
