<svg width="1100" height="1100" viewBox="0 0 1100 1100" fill="none" xmlns="http://www.w3.org/2000/svg">
<path d="M806.346 237.852C811.114 214.313 820.544 195.078 820.401 170.521C820.115 117.531 759.347 73.3185 709.76 100.778C665.699 125.192 673.45 179.558 668.726 221.448C664.261 260.936 627.122 267.357 593.117 259.088C563.729 251.899 527.214 243.621 505.023 272.795C492.915 288.708 491.95 308.64 501.425 325.919C511.042 343.431 534.17 346.27 542.35 363.041C558.103 395.313 510.944 432.096 509.381 465.663C506.05 536.04 555.942 512.081 562.335 514.063C574.989 517.984 584.062 538.63 593.653 548.238L593.778 548.363C618.237 572.78 649.526 589.205 683.515 595.469C723.306 602.613 737.166 576.823 749.918 594.165C758.981 606.533 741.023 630.403 766.974 635.153C784.762 638.404 801.827 618.803 803.685 603.657C807.23 574.912 808.132 569.206 837.975 563.151C861.175 558.454 879.964 550.935 881.089 524.11C882.036 502.285 864.854 492.998 887.206 474.575C901.306 462.957 919.372 466.574 936.669 463.154C988.346 452.947 1003.29 396.537 959.887 363.139C929.713 339.912 893.153 351.914 861.006 336.787C829.242 321.704 799.229 272.866 806.346 237.852Z" fill="#E96262" stroke="#E96262" stroke-width="7.23318"/>
<path d="M776.98 286.181C780.078 270.866 786.213 258.32 786.124 242.353C785.945 207.848 746.377 179.067 714.104 196.944C685.386 212.875 690.422 248.273 687.314 275.528C684.43 301.219 660.212 305.452 638.102 300.04C618.965 295.352 595.203 289.968 580.763 308.944C576.983 313.825 574.743 319.721 574.328 325.881C573.913 332.041 575.341 338.184 578.432 343.529C584.683 354.923 599.739 356.781 605.07 367.685C615.349 388.679 584.621 412.638 583.594 434.489C581.424 480.309 613.857 464.753 618.063 465.994C626.261 468.512 632.235 481.952 638.495 488.211L638.566 488.283C654.486 504.183 674.857 514.876 696.986 518.948C722.9 523.61 731.919 506.821 740.206 518.109C746.136 526.181 734.447 541.729 751.315 544.791C762.897 546.908 773.997 534.147 775.212 524.288C777.524 505.58 778.114 501.865 797.537 497.927C812.646 494.856 824.88 489.962 825.648 472.459C826.264 458.252 815.084 452.215 829.639 440.213C838.81 432.649 850.571 434.998 861.841 432.783C895.471 426.14 905.204 389.42 876.95 367.666C857.313 352.548 833.515 360.362 812.592 350.512C791.902 340.787 772.354 308.988 776.98 286.181Z" fill="#E96262"/>
<path d="M860.035 255.443C857.108 258.373 853.378 260.37 849.316 261.18C845.254 261.99 841.043 261.577 837.216 259.994C833.389 258.411 830.117 255.728 827.815 252.285C825.512 248.842 824.283 244.794 824.282 240.652C824.28 236.51 825.507 232.461 827.808 229.017C830.108 225.573 833.378 222.888 837.204 221.302C841.031 219.717 845.241 219.302 849.303 220.109C853.366 220.917 857.097 222.911 860.026 225.84C863.951 229.765 866.157 235.088 866.159 240.639C866.16 246.19 863.958 251.515 860.035 255.443V255.443Z" fill="#E96262" stroke="#E96262" stroke-width="7.23318"/>
<path d="M613.69 648.396C611.852 650.234 609.509 651.486 606.959 651.994C604.409 652.501 601.766 652.241 599.363 651.246C596.961 650.251 594.908 648.565 593.463 646.404C592.019 644.242 591.248 641.7 591.248 639.1C591.248 636.5 592.019 633.958 593.463 631.796C594.908 629.634 596.961 627.949 599.363 626.954C601.766 625.959 604.409 625.699 606.959 626.206C609.509 626.713 611.852 627.965 613.69 629.804C616.156 632.269 617.541 635.613 617.541 639.1C617.541 642.587 616.156 645.93 613.69 648.396Z" fill="#E96262" stroke="#E96262" stroke-width="7.23318"/>
<path d="M938.346 546.613C911.324 541.844 891.375 507.071 891.375 507.071C891.375 507.071 922.014 481.237 949.027 485.997C976.04 490.756 992.176 507.589 989.211 524.395C986.246 541.201 965.368 551.364 938.346 546.613Z" fill="#E96262" stroke="#E96262" stroke-width="7.23318"/>
<path d="M655.097 638.437C656.276 623.292 674.359 610.424 674.359 610.424C674.359 610.424 690.254 625.927 689.085 641.081C687.915 656.235 679.485 666.022 670.108 665.29C660.732 664.557 653.918 653.6 655.097 638.437Z" fill="#E96262" stroke="#E96262" stroke-width="7.23318"/>
<path d="M748.958 393.118C748.958 393.118 682.993 402.165 631.048 446.377C561.993 505.18 605.151 536.926 605.151 536.926L748.958 393.118Z" fill="white" stroke="#626262" stroke-width="7.23318" stroke-linejoin="round"/>
<path d="M748.956 393.118C748.956 393.118 739.91 459.084 695.689 511.02C636.886 580.075 605.148 536.926 605.148 536.926L748.956 393.118Z" fill="white" stroke="#626262" stroke-width="7.23318" stroke-linejoin="round"/>
<path d="M536.904 605.166L230.804 911.266C218.758 899.219 299.431 799.026 411.001 687.455C449.078 649.378 485.834 614.891 518.214 586.476L536.904 605.166Z" fill="white" stroke="#E96262" stroke-width="7.23318"/>
<path d="M629.938 549.508L592.566 512.136L518.224 586.478L555.596 623.849L629.938 549.508Z" fill="white" stroke="#E96262" stroke-width="7.23318"/>
<path d="M608.834 576.831L565.229 533.227L552.272 546.184L595.876 589.789L608.834 576.831Z" fill="white" stroke="#E96262" stroke-width="7.23318"/>
<path d="M592.764 586.674L555.142 549.052L545.659 558.535L583.281 596.157L592.764 586.674Z" fill="white" stroke="#E96262" stroke-width="7.23318"/>
<path d="M454.619 731.071C343.049 842.642 242.846 923.305 230.808 911.268L536.908 605.168L555.598 623.858C527.174 656.229 492.696 692.994 454.619 731.071Z" fill="white" stroke="#E96262" stroke-width="7.23318"/>
<path d="M515.816 172.594C506.582 172.576 499.081 176.934 496.804 193.052C493.58 215.815 522.843 232.076 542.078 231.361C565.153 230.504 604.588 216.216 614.473 193.275C629.288 158.815 583.987 161.003 564.484 171.129C535.096 186.373 542.338 172.647 515.816 172.594Z" fill="#E96262" stroke="#E96262" stroke-width="7.23318"/>
</svg>
