<svg width="878" height="198" viewBox="0 0 878 198" fill="none" xmlns="http://www.w3.org/2000/svg">
<path d="M873.589 4L4 4L4 193.726L873.589 193.726V4Z" fill="white" stroke="white" stroke-width="6.83817" stroke-linejoin="round"/>
<path d="M416.15 170.001H477.389C479.597 170.001 481.784 169.566 483.823 168.721C485.863 167.876 487.716 166.637 489.277 165.075C490.838 163.514 492.076 161.66 492.92 159.62C493.764 157.579 494.198 155.393 494.197 153.185C491.975 144.532 499.952 34.7284 488.518 31.9144C483.178 23.7345 424.507 29.185 416.15 27.6893C411.69 27.6893 407.413 29.4609 404.259 32.6145C401.105 35.7682 399.334 40.0454 399.334 44.5053V153.177C399.333 155.386 399.767 157.573 400.611 159.614C401.456 161.656 402.694 163.51 404.256 165.073C405.818 166.635 407.672 167.875 409.713 168.72C411.753 169.566 413.941 170.001 416.15 170.001Z" fill="#E96262" stroke="#E96262" stroke-width="5.69847" stroke-linejoin="round"/>
<path d="M562.339 170.009H623.57C628.03 170.009 632.307 168.237 635.461 165.084C638.615 161.93 640.386 157.653 640.386 153.193C639.127 147.582 644.028 33.8743 636.465 33.7306C634.888 31.8437 632.915 30.326 630.687 29.2849C628.459 28.2439 626.029 27.7047 623.57 27.7056L562.339 27.7056C557.879 27.7056 553.602 29.4773 550.448 32.6309C547.295 35.7846 545.523 40.0618 545.523 44.5217V153.193C545.523 157.653 547.295 161.93 550.448 165.084C553.602 168.237 557.879 170.009 562.339 170.009V170.009Z" fill="#E9AD62" stroke="#E9AD62" stroke-width="5.69847" stroke-linejoin="round"/>
<path d="M715.689 170.006H776.92C781.38 170.006 785.657 168.234 788.811 165.081C791.964 161.927 793.736 157.65 793.736 153.19C792.376 147.182 797.192 36.5755 790.457 34.539C788.897 32.4197 786.861 30.6967 784.512 29.5092C782.163 28.3217 779.569 27.7028 776.937 27.7026L715.689 27.7026C711.229 27.7026 706.952 29.4744 703.798 32.628C700.644 35.7816 698.873 40.0589 698.873 44.5188V153.19C698.873 157.65 700.644 161.927 703.798 165.081C706.952 168.234 711.229 170.006 715.689 170.006Z" fill="#FFE600" stroke="#FFE600" stroke-width="5.69847" stroke-linejoin="round"/>
<path d="M254.025 170.012H315.256C319.716 170.012 323.994 168.24 327.147 165.086C330.301 161.933 332.073 157.656 332.073 153.196C330.011 144.745 337.531 34.8236 326.588 32.1026C321.155 23.5931 262.569 29.2463 254.025 27.7084C249.565 27.7084 245.288 29.4801 242.135 32.6337C238.981 35.7874 237.209 40.0646 237.209 44.5245V153.196C237.209 157.656 238.981 161.933 242.135 165.086C245.288 168.24 249.565 170.012 254.025 170.012Z" fill="white" stroke="#E6E6E6" stroke-width="5.69847" stroke-linejoin="round"/>
<path d="M84.0381 44.5188C89.7589 180.645 55.307 170.995 162.085 169.998C164.293 169.999 166.48 169.565 168.52 168.721C170.56 167.876 172.414 166.639 173.975 165.078C175.537 163.517 176.776 161.664 177.621 159.624C178.466 157.584 178.901 155.398 178.901 153.19C173.24 16.7173 207.489 26.8154 100.854 27.7111C98.6462 27.71 96.4597 28.144 94.4196 28.9882C92.3794 29.8323 90.5255 31.0702 88.9639 32.631C87.4022 34.1919 86.1635 36.0451 85.3183 38.0848C84.4731 40.1246 84.0381 42.3109 84.0381 44.5188V44.5188Z" fill="#60C9EB" stroke="#60C9EB" stroke-width="5.69847" stroke-linejoin="round"/>
</svg>
