<svg width="878" height="198" viewBox="0 0 878 198" fill="none" xmlns="http://www.w3.org/2000/svg">
<path d="M873.589 4L4 4L4 193.726L873.589 193.726V4Z" fill="white" stroke="white" stroke-width="6.83817" stroke-linejoin="round"/>
<path d="M563.689 170.001H624.928C627.136 170.001 629.323 169.566 631.362 168.721C633.402 167.876 635.255 166.637 636.816 165.075C638.377 163.514 639.615 161.66 640.459 159.62C641.303 157.579 641.737 155.393 641.736 153.185C639.514 144.532 647.491 34.7284 636.057 31.9144C630.717 23.7345 572.046 29.185 563.689 27.6893C559.229 27.6893 554.952 29.4609 551.798 32.6145C548.645 35.7682 546.873 40.0454 546.873 44.5053V153.177C546.872 155.386 547.306 157.573 548.15 159.614C548.995 161.656 550.234 163.51 551.795 165.073C553.357 166.635 555.211 167.875 557.252 168.72C559.293 169.566 561.48 170.001 563.689 170.001Z" fill="#E96262" stroke="#E96262" stroke-width="5.69847" stroke-linejoin="round"/>
<path d="M717.301 170.009H778.532C782.992 170.009 787.269 168.237 790.423 165.084C793.576 161.93 795.348 157.653 795.348 153.193C794.089 147.582 798.99 33.8743 791.427 33.7306C789.85 31.8437 787.877 30.326 785.649 29.2849C783.421 28.2439 780.991 27.7047 778.532 27.7056L717.301 27.7056C712.841 27.7056 708.564 29.4773 705.41 32.6309C702.257 35.7846 700.485 40.0618 700.485 44.5217V153.193C700.485 157.653 702.257 161.93 705.41 165.084C708.564 168.237 712.841 170.009 717.301 170.009V170.009Z" fill="#E9AD62" stroke="#E9AD62" stroke-width="5.69847" stroke-linejoin="round"/>
<path d="M99.8743 170.006H161.105C165.565 170.006 169.842 168.234 172.996 165.081C176.15 161.927 177.921 157.65 177.921 153.19C176.561 147.182 181.378 36.5755 174.643 34.539C173.082 32.4197 171.046 30.6967 168.697 29.5092C166.349 28.3217 163.754 27.7028 161.122 27.7026L99.8743 27.7026C95.4143 27.7026 91.1371 29.4744 87.9834 32.628C84.8298 35.7816 83.0581 40.0589 83.0581 44.5188V153.19C83.0581 157.65 84.8298 161.927 87.9834 165.081C91.1371 168.234 95.4143 170.006 99.8743 170.006Z" fill="#FFE600" stroke="#FFE600" stroke-width="5.69847" stroke-linejoin="round"/>
<path d="M416.572 170.012H477.803C482.263 170.012 486.54 168.24 489.694 165.086C492.848 161.933 494.619 157.656 494.619 153.196C492.558 144.745 500.078 34.8236 489.135 32.1026C483.702 23.5931 425.116 29.2463 416.572 27.7084C412.112 27.7084 407.835 29.4801 404.681 32.6337C401.528 35.7874 399.756 40.0646 399.756 44.5245V153.196C399.756 157.656 401.528 161.933 404.681 165.086C407.835 168.24 412.112 170.012 416.572 170.012Z" fill="white" stroke="#E6E6E6" stroke-width="5.69847" stroke-linejoin="round"/>
<path d="M236.314 44.5188C242.035 180.645 207.583 170.995 314.361 169.998C316.569 169.999 318.755 169.565 320.795 168.721C322.836 167.876 324.689 166.639 326.251 165.078C327.813 163.517 329.052 161.664 329.897 159.624C330.742 157.584 331.177 155.398 331.177 153.19C325.515 16.7173 359.764 26.8154 253.13 27.7111C250.922 27.71 248.735 28.144 246.695 28.9882C244.655 29.8323 242.801 31.0702 241.24 32.631C239.678 34.1919 238.439 36.0451 237.594 38.0848C236.749 40.1246 236.314 42.3109 236.314 44.5188V44.5188Z" fill="#60C9EB" stroke="#60C9EB" stroke-width="5.69847" stroke-linejoin="round"/>
</svg>
