<svg width="878" height="198" viewBox="0 0 878 198" fill="none" xmlns="http://www.w3.org/2000/svg">
<path d="M873.589 4L4 4L4 193.726L873.589 193.726V4Z" fill="white" stroke="white" stroke-width="6.83817" stroke-linejoin="round"/>
<path d="M99.8742 170.001H161.114C163.322 170.001 165.508 169.566 167.548 168.721C169.587 167.876 171.441 166.637 173.002 165.075C174.562 163.514 175.8 161.66 176.644 159.62C177.489 157.579 177.922 155.393 177.921 153.185C175.699 144.532 183.676 34.7284 172.243 31.9144C166.902 23.7345 108.232 29.185 99.8742 27.6893C95.4143 27.6893 91.1371 29.4609 87.9834 32.6145C84.8298 35.7682 83.0581 40.0454 83.0581 44.5053L83.0581 153.177C83.057 155.386 83.4911 157.573 84.3357 159.614C85.1803 161.656 86.4188 163.51 87.9805 165.073C89.5421 166.635 91.3963 167.875 93.437 168.72C95.4778 169.566 97.6652 170.001 99.8742 170.001Z" fill="#E96262" stroke="#E96262" stroke-width="5.69847" stroke-linejoin="round"/>
<path d="M254.025 170.009H315.256C319.716 170.009 323.994 168.237 327.147 165.084C330.301 161.93 332.072 157.653 332.072 153.193C330.813 147.582 335.715 33.8743 328.152 33.7306C326.574 31.8437 324.602 30.326 322.374 29.2849C320.145 28.2439 317.716 27.7047 315.256 27.7056L254.025 27.7056C249.565 27.7056 245.288 29.4773 242.135 32.6309C238.981 35.7846 237.209 40.0618 237.209 44.5217V153.193C237.209 157.653 238.981 161.93 242.135 165.084C245.288 168.237 249.565 170.009 254.025 170.009V170.009Z" fill="#E9AD62" stroke="#E9AD62" stroke-width="5.69847" stroke-linejoin="round"/>
<path d="M416.572 170.006H477.803C482.263 170.006 486.54 168.234 489.694 165.081C492.848 161.927 494.619 157.65 494.619 153.19C493.259 147.182 498.076 36.5755 491.341 34.539C489.78 32.4197 487.744 30.6967 485.395 29.5092C483.047 28.3217 480.452 27.7028 477.82 27.7026L416.572 27.7026C412.112 27.7026 407.835 29.4744 404.681 32.628C401.528 35.7816 399.756 40.0589 399.756 44.5188V153.19C399.756 157.65 401.528 161.927 404.681 165.081C407.835 168.234 412.112 170.006 416.572 170.006Z" fill="#FFE600" stroke="#FFE600" stroke-width="5.69847" stroke-linejoin="round"/>
<path d="M716.612 170.012H777.843C782.303 170.012 786.58 168.24 789.734 165.086C792.887 161.933 794.659 157.656 794.659 153.196C792.597 144.745 800.118 34.8236 789.175 32.1026C783.741 23.5931 725.155 29.2463 716.612 27.7084C712.152 27.7084 707.875 29.4801 704.721 32.6337C701.567 35.7874 699.796 40.0646 699.796 44.5245V153.196C699.796 157.656 701.567 161.933 704.721 165.086C707.875 168.24 712.152 170.012 716.612 170.012Z" fill="white" stroke="#E6E6E6" stroke-width="5.69847" stroke-linejoin="round"/>
<path d="M546.503 44.5188C552.224 180.645 517.772 170.995 624.55 169.998C626.758 169.999 628.944 169.565 630.985 168.721C633.025 167.876 634.879 166.639 636.44 165.078C638.002 163.517 639.241 161.664 640.086 159.624C640.931 157.584 641.366 155.398 641.366 153.19C635.704 16.7173 669.954 26.8154 563.319 27.7111C561.111 27.71 558.925 28.144 556.884 28.9882C554.844 29.8323 552.99 31.0702 551.429 32.631C549.867 34.1919 548.628 36.0451 547.783 38.0848C546.938 40.1246 546.503 42.3109 546.503 44.5188V44.5188Z" fill="#60C9EB" stroke="#60C9EB" stroke-width="5.69847" stroke-linejoin="round"/>
<g style="mix-blend-mode:screen" opacity="0.5">
<path d="M775.891 38.2169C763.773 37.2873 764.702 89.5018 775.891 89.5018C787.079 89.5018 787.975 39.1633 775.891 38.2169Z" fill="#E96262" stroke="white" stroke-width="5.69847" stroke-linejoin="round"/>
</g>
</svg>
