<svg width="878" height="198" viewBox="0 0 878 198" fill="none" xmlns="http://www.w3.org/2000/svg">
<path d="M873.589 4L4 4L4 193.726L873.589 193.726V4Z" fill="white" stroke="white" stroke-width="6.83817" stroke-linejoin="round"/>
<path d="M254.025 170.001H315.265C317.473 170.001 319.659 169.566 321.699 168.721C323.739 167.876 325.592 166.637 327.153 165.075C328.713 163.514 329.951 161.66 330.796 159.62C331.64 157.579 332.074 155.393 332.072 153.185C329.85 144.532 337.827 34.7284 326.394 31.9144C321.053 23.7345 262.383 29.185 254.025 27.6893C249.565 27.6893 245.288 29.4609 242.135 32.6145C238.981 35.7682 237.209 40.0454 237.209 44.5053V153.177C237.208 155.386 237.642 157.573 238.487 159.614C239.331 161.656 240.57 163.51 242.132 165.073C243.693 166.635 245.547 167.875 247.588 168.72C249.629 169.566 251.816 170.001 254.025 170.001Z" fill="#E96262" stroke="#E96262" stroke-width="5.69847" stroke-linejoin="round"/>
<path d="M416.572 170.009H477.803C482.263 170.009 486.54 168.237 489.694 165.084C492.848 161.93 494.619 157.653 494.619 153.193C493.36 147.582 498.261 33.8743 490.698 33.7306C489.121 31.8437 487.149 30.326 484.92 29.2849C482.692 28.2439 480.263 27.7047 477.803 27.7056L416.572 27.7056C412.112 27.7056 407.835 29.4773 404.681 32.6309C401.528 35.7846 399.756 40.0618 399.756 44.5217V153.193C399.756 157.653 401.528 161.93 404.681 165.084C407.835 168.237 412.112 170.009 416.572 170.009V170.009Z" fill="#E9AD62" stroke="#E9AD62" stroke-width="5.69847" stroke-linejoin="round"/>
<path d="M562.339 170.006H623.57C628.03 170.006 632.307 168.234 635.461 165.081C638.614 161.927 640.386 157.65 640.386 153.19C639.026 147.182 643.842 36.5755 637.107 34.539C635.547 32.4197 633.511 30.6967 631.162 29.5092C628.814 28.3217 626.219 27.7028 623.587 27.7026L562.339 27.7026C557.879 27.7026 553.602 29.4744 550.448 32.628C547.295 35.7816 545.523 40.0589 545.523 44.5188V153.19C545.523 157.65 547.295 161.927 550.448 165.081C553.602 168.234 557.879 170.006 562.339 170.006Z" fill="#FFE600" stroke="#FFE600" stroke-width="5.69847" stroke-linejoin="round"/>
<path d="M99.8743 170.012H161.105C165.565 170.012 169.842 168.24 172.996 165.086C176.15 161.933 177.921 157.656 177.921 153.196C175.86 144.745 183.38 34.8236 172.437 32.1026C167.004 23.5931 108.418 29.2463 99.8743 27.7084C95.4143 27.7084 91.1371 29.4801 87.9834 32.6337C84.8298 35.7874 83.0581 40.0646 83.0581 44.5245V153.196C83.0581 157.656 84.8298 161.933 87.9834 165.086C91.1371 168.24 95.4143 170.012 99.8743 170.012Z" fill="white" stroke="#E6E6E6" stroke-width="5.69847" stroke-linejoin="round"/>
<path d="M699.779 44.5188C705.499 180.645 671.047 170.995 777.826 169.998C780.034 169.999 782.22 169.565 784.26 168.721C786.3 167.876 788.154 166.639 789.716 165.078C791.278 163.517 792.516 161.664 793.362 159.624C794.207 157.584 794.642 155.398 794.642 153.19C788.98 16.7173 823.229 26.8154 716.595 27.7111C714.387 27.71 712.2 28.144 710.16 28.9882C708.12 29.8323 706.266 31.0702 704.704 32.631C703.143 34.1919 701.904 36.0451 701.059 38.0848C700.214 40.1246 699.779 42.3109 699.779 44.5188V44.5188Z" fill="#60C9EB" stroke="#60C9EB" stroke-width="5.69847" stroke-linejoin="round"/>
</svg>
