<svg width="878" height="198" viewBox="0 0 878 198" fill="none" xmlns="http://www.w3.org/2000/svg">
<path d="M873.589 4L4 4L4 193.726L873.589 193.726V4Z" fill="white" stroke="white" stroke-width="6.83817" stroke-linejoin="round"/>
<path d="M716.18 170.001H777.42C779.628 170.001 781.814 169.566 783.854 168.721C785.893 167.876 787.747 166.637 789.307 165.075C790.868 163.514 792.106 161.66 792.95 159.62C793.794 157.579 794.228 155.393 794.227 153.185C792.005 144.532 799.982 34.7284 788.549 31.9144C783.208 23.7345 724.538 29.185 716.18 27.6893C711.72 27.6893 707.443 29.4609 704.289 32.6145C701.136 35.7682 699.364 40.0454 699.364 44.5053V153.177C699.363 155.386 699.797 157.573 700.642 159.614C701.486 161.656 702.725 163.51 704.286 165.073C705.848 166.635 707.702 167.875 709.743 168.72C711.784 169.566 713.971 170.001 716.18 170.001Z" fill="#E96262" stroke="#E96262" stroke-width="5.69847" stroke-linejoin="round"/>
<path d="M99.8742 170.009H161.105C165.565 170.009 169.842 168.237 172.996 165.084C176.15 161.93 177.921 157.653 177.921 153.193C176.662 147.582 181.563 33.8743 174 33.7306C172.423 31.8437 170.451 30.326 168.222 29.2849C165.994 28.2439 163.565 27.7047 161.105 27.7056L99.8742 27.7056C95.4143 27.7056 91.1371 29.4773 87.9834 32.6309C84.8298 35.7846 83.0581 40.0618 83.0581 44.5217V153.193C83.0581 157.653 84.8298 161.93 87.9834 165.084C91.1371 168.237 95.4143 170.009 99.8742 170.009V170.009Z" fill="#E9AD62" stroke="#E9AD62" stroke-width="5.69847" stroke-linejoin="round"/>
<path d="M252.15 170.006H313.381C317.841 170.006 322.118 168.234 325.272 165.081C328.425 161.927 330.197 157.65 330.197 153.19C328.837 147.182 333.653 36.5755 326.918 34.539C325.358 32.4197 323.321 30.6967 320.973 29.5092C318.624 28.3217 316.029 27.7028 313.398 27.7026L252.15 27.7026C247.69 27.7026 243.413 29.4744 240.259 32.628C237.105 35.7816 235.334 40.0589 235.334 44.5188V153.19C235.334 157.65 237.105 161.927 240.259 165.081C243.413 168.234 247.69 170.006 252.15 170.006Z" fill="#FFE600" stroke="#FFE600" stroke-width="5.69847" stroke-linejoin="round"/>
<path d="M563.689 170.012H624.92C629.38 170.012 633.657 168.24 636.811 165.086C639.964 161.933 641.736 157.656 641.736 153.196C639.674 144.745 647.195 34.8236 636.252 32.1026C630.818 23.5931 572.232 29.2463 563.689 27.7084C559.229 27.7084 554.952 29.4801 551.798 32.6337C548.644 35.7874 546.873 40.0646 546.873 44.5245V153.196C546.873 157.656 548.644 161.933 551.798 165.086C554.952 168.24 559.229 170.012 563.689 170.012Z" fill="white" stroke="#E6E6E6" stroke-width="5.69847" stroke-linejoin="round"/>
<path d="M400.736 44.5188C406.457 180.645 372.005 170.995 478.783 169.998C480.991 169.999 483.178 169.565 485.218 168.721C487.258 167.876 489.112 166.639 490.673 165.078C492.235 163.517 493.474 161.664 494.319 159.624C495.164 157.584 495.599 155.398 495.599 153.19C489.938 16.7173 524.187 26.8154 417.552 27.7111C415.344 27.71 413.158 28.144 411.118 28.9882C409.077 29.8323 407.224 31.0702 405.662 32.631C404.1 34.1919 402.861 36.0451 402.016 38.0848C401.171 40.1246 400.736 42.3109 400.736 44.5188V44.5188Z" fill="#60C9EB" stroke="#60C9EB" stroke-width="5.69847" stroke-linejoin="round"/>
</svg>
