<svg width="900" height="949" viewBox="0 0 900 949" fill="none" xmlns="http://www.w3.org/2000/svg">
<path d="M776.988 523.825C603.803 390.743 809.699 284.724 682.077 106.948C577.633 -38.4357 166.141 6.12456 56.9022 315.855C-199.966 1142.05 1204.85 1045.79 776.988 523.825ZM670.456 805.874C562.636 804.585 631.984 586.285 731.663 619.399C789.239 638.092 777.243 805.747 670.42 805.872L670.456 805.874Z" fill="white"/>
<path d="M736.884 580.171C631.69 536.255 515.407 764.537 630.001 814.854C766.664 874.873 871.161 636.252 736.884 580.171ZM670.417 805.871C562.598 804.582 631.946 586.282 731.625 619.395C789.236 638.091 777.24 805.746 670.417 805.871V805.871Z" fill="white" stroke="white" stroke-width="6.62504"/>
</svg>
