<svg width="526" height="548" viewBox="0 0 526 548" fill="none" xmlns="http://www.w3.org/2000/svg">
<path d="M504.608 535.09C495.046 476.246 485.52 417.347 480.285 357.939C475.122 299.495 473.74 240.796 473.758 182.151C473.758 148.466 474.213 114.763 474.685 81.0781C474.681 80.3901 474.406 79.7316 473.919 79.2451C473.433 78.7586 472.774 78.4833 472.086 78.4785C411.242 82.8778 350.143 89.3857 289.118 89.8038C227.31 90.2946 165.757 84.4775 104.041 82.3324C73.3187 81.2598 42.2331 80.769 11.6202 83.0959C4.03972 83.6776 0.0222667 86.4589 1.20388 94.5666C3.47621 110.291 6.33025 125.707 7.43915 141.613C11.3476 197.767 9.25709 254.666 8.9844 310.911C8.74808 369.374 8.38443 427.8 8.56622 486.262C8.87526 494.806 13.5654 503.95 17.7646 511.185C24.7816 523.347 34.8162 534.272 47.5413 540.526C57.0669 545.198 67.047 546.288 77.4634 546.834C90.8429 547.525 104.259 547.634 117.656 547.688C187.972 547.979 258.287 545.034 328.529 543.107L502.063 538.381C502.463 538.376 502.856 538.281 503.214 538.102C503.572 537.924 503.886 537.667 504.13 537.351C504.375 537.034 504.545 536.667 504.628 536.275C504.711 535.884 504.704 535.479 504.608 535.09V535.09ZM67.9014 540.962C51.5406 539.235 37.7976 530.146 27.9084 517.33C23.0728 510.967 17.4556 502.314 14.9833 493.698C29.409 496.837 44.4693 495.092 57.7941 488.735C56.7579 500.478 61.3026 511.84 66.7017 522.311C70.7555 530.2 76.0818 537.454 83.2442 542.107C78.0633 541.835 72.9733 541.489 67.9014 540.962V540.962ZM207.441 541.198C185.299 541.816 163.176 542.325 141.016 542.453C126.782 542.453 112.348 542.871 97.9689 542.616C97.6098 542.192 97.1032 541.919 96.551 541.853C84.1895 539.69 76.5545 530.309 71.1009 519.675C65.6473 509.04 60.6663 496.97 63.5749 484.772C63.6966 484.276 63.6717 483.755 63.5031 483.273C63.3345 482.791 63.0294 482.368 62.625 482.056C62.2206 481.744 61.7343 481.557 61.2252 481.516C60.7161 481.475 60.2063 481.583 59.7574 481.827C45.866 489.825 29.3902 492.051 13.8745 488.026C13.8745 487.444 13.7654 486.844 13.729 486.208C13.42 383.426 15.6377 280.589 14.0016 177.825C13.7835 163.1 13.2563 148.394 11.9838 133.723C11.4566 127.743 10.8204 121.762 10.0205 115.817C9.60238 112.709 9.14801 109.582 8.63901 106.474C8.13 103.365 5.63951 97.2752 6.34848 94.0939C8.29359 85.4591 20.8914 87.6769 27.7811 87.386C35.3434 87.0709 42.9118 86.8709 50.4862 86.7861C65.6291 86.5861 80.7719 86.7862 95.9329 87.2225C154.959 89.0403 213.822 94.4939 272.884 94.9484C338.436 95.5301 404.098 88.604 469.432 83.823C467.814 201.766 467.923 319.291 484.139 436.38C488.61 468.738 493.828 500.969 499.063 533.2L207.441 541.198Z" stroke="#FFE600" stroke-width="0.01"/>
<path d="M497.575 204.547H497.175C489.247 202.332 481.575 199.285 474.288 195.458L471.361 194.04L445.583 181.606C401.518 160.264 354.472 136.923 309.243 110.818C307.571 109.637 305.608 108.309 303.79 107.073L301.608 105.637L299.791 104.237C299.191 103.765 298.591 103.329 297.973 102.892C294.983 100.635 291.856 98.5651 288.611 96.6933V96.6933C288.43 96.5878 288.242 96.4967 288.047 96.4207C287.823 96.3015 287.585 96.2099 287.338 96.1479H287.175C285.938 95.0689 284.577 94.1413 283.121 93.3848H283.012C281.976 92.294 281.048 91.2397 280.176 90.1672C279.94 89.8684 279.788 89.5127 279.733 89.1361C279.679 88.7595 279.725 88.3753 279.867 88.0221C279.999 87.6936 280.214 87.4051 280.491 87.1851C280.769 86.9651 281.099 86.8214 281.448 86.7678C284.898 86.2897 288.303 85.5297 291.628 84.4955L286.684 75.9515C286.518 75.6541 286.431 75.3192 286.431 74.9789C286.431 74.6385 286.518 74.3038 286.684 74.0063C286.831 73.7125 287.05 73.4603 287.32 73.2729C287.59 73.0855 287.902 72.9689 288.229 72.9338L299.136 72.0612C297.911 70.3216 296.949 68.4103 296.282 66.3895C296.02 65.5953 296.039 64.735 296.337 63.9535C296.635 63.172 297.194 62.5171 297.918 62.0993C299.322 61.297 300.809 60.6508 302.354 60.1724C303.898 59.7012 305.381 59.0482 306.771 58.2273C308.589 57.0093 308.262 55.7004 307.662 53.8825C307.606 53.6672 307.539 53.4549 307.462 53.2463L305.917 48.1744C305.841 47.9047 305.825 47.6219 305.869 47.3454C305.913 47.0688 306.016 46.805 306.172 46.572C306.327 46.339 306.531 46.1423 306.769 45.9953C307.008 45.8483 307.275 45.7545 307.553 45.7203C311.407 45.3568 315.424 45.1386 319.514 45.0295C318.765 41.0988 317.769 37.2191 316.533 33.4133C316.419 33.0427 316.426 32.6453 316.553 32.2789C316.681 31.9126 316.922 31.5967 317.242 31.3773C317.488 31.158 317.8 31.0267 318.129 31.0036C318.458 30.9806 318.786 31.0672 319.06 31.2501C321.46 32.8498 323.95 34.395 326.331 35.9038C329.367 37.8126 332.494 39.7941 335.421 41.8665L335.694 42.1028L355.963 52.8645C414.135 83.9137 471.125 114.672 524.097 143.322C524.389 143.485 524.63 143.726 524.794 144.018C524.957 144.31 525.037 144.641 525.024 144.976C525.008 145.392 524.879 145.796 524.652 146.144C524.425 146.493 524.108 146.774 523.734 146.957L509.609 153.538L513.408 164.954C513.489 165.196 513.517 165.452 513.492 165.706C513.467 165.96 513.389 166.205 513.263 166.427C513.154 166.664 512.997 166.876 512.804 167.051C512.61 167.226 512.383 167.36 512.136 167.445L502.283 170.626L506.046 184.66C506.118 184.933 506.132 185.217 506.088 185.496C506.045 185.774 505.943 186.04 505.791 186.278C505.628 186.53 505.415 186.745 505.165 186.911C504.915 187.077 504.633 187.189 504.337 187.241L495.72 188.659C496.134 193.252 497.365 197.734 499.356 201.893C499.525 202.272 499.586 202.69 499.531 203.101C499.477 203.511 499.309 203.899 499.047 204.22C498.839 204.377 498.6 204.487 498.346 204.544C498.092 204.6 497.829 204.601 497.575 204.547V204.547ZM287.593 95.2026C287.841 95.2775 288.084 95.3686 288.32 95.4753C288.565 95.5669 288.797 95.689 289.011 95.8389C292.299 97.7431 295.473 99.8372 298.518 102.111L300.336 103.456L302.154 104.855L304.317 106.273C306.135 107.528 307.953 108.837 309.68 109.909C354.945 135.996 401.955 159.337 446.02 180.661L471.724 193.186L474.651 194.604C481.881 198.434 489.498 201.481 497.375 203.693C497.546 203.736 497.726 203.726 497.892 203.664C498.057 203.603 498.2 203.492 498.302 203.348C498.464 203.147 498.569 202.905 498.605 202.648C498.64 202.392 498.604 202.131 498.502 201.893V201.893C496.441 197.529 495.208 192.819 494.866 188.005V187.623L504.228 186.078C504.41 186.045 504.583 185.975 504.737 185.872C504.89 185.769 505.02 185.635 505.119 185.478C505.208 185.34 505.268 185.184 505.293 185.021C505.318 184.858 505.308 184.692 505.264 184.533L501.301 169.735L511.899 166.318C512.185 166.207 512.419 165.993 512.554 165.718C512.666 165.444 512.666 165.137 512.554 164.863L508.518 152.756L523.316 145.848C523.549 145.731 523.747 145.552 523.888 145.331C524.029 145.111 524.107 144.856 524.115 144.594C524.133 144.416 524.098 144.236 524.014 144.077C523.93 143.919 523.801 143.789 523.643 143.703C470.652 115.072 413.625 84.2955 355.49 53.2463C348.703 49.6106 341.923 46.0112 335.148 42.4482L334.985 42.3027L334.876 42.1937C331.876 40.1395 328.749 38.158 325.786 36.2674C323.387 34.7586 320.914 33.1952 318.515 31.5955C318.385 31.5232 318.235 31.4948 318.088 31.5145C317.94 31.5341 317.803 31.6007 317.697 31.7045C317.521 31.8238 317.385 31.9936 317.307 32.1915C317.229 32.3894 317.213 32.6062 317.26 32.8135C318.567 36.8044 319.6 40.8797 320.351 45.0113V45.5022H319.86C315.643 45.5022 311.479 45.8294 307.48 46.193C307.323 46.2148 307.172 46.272 307.04 46.3601C306.908 46.4482 306.797 46.565 306.717 46.7019C306.627 46.8262 306.565 46.969 306.537 47.1199C306.508 47.2708 306.514 47.4261 306.553 47.5746L308.116 52.6464C308.172 52.8618 308.239 53.0741 308.317 53.2826C308.898 55.1005 309.516 57.0093 307.062 58.5727C305.622 59.4318 304.084 60.1154 302.481 60.6087C300.999 61.0674 299.567 61.6765 298.209 62.4265C297.626 62.7436 297.177 63.2596 296.944 63.8804C296.71 64.5011 296.708 65.1853 296.937 65.8077C297.638 67.8628 298.636 69.8042 299.9 71.5704L300.427 72.4066L288.211 73.3882C288.023 73.4177 287.845 73.4928 287.693 73.6069C287.541 73.721 287.419 73.8707 287.338 74.0427C287.239 74.2141 287.187 74.4084 287.187 74.6063C287.187 74.8041 287.239 74.9985 287.338 75.1698L292.792 84.6227L292.301 84.7681C288.784 85.8937 285.178 86.7207 281.521 87.2404C281.313 87.265 281.115 87.3457 280.948 87.4737C280.782 87.6017 280.653 87.7723 280.576 87.9675C280.49 88.1869 280.463 88.4249 280.498 88.6578C280.534 88.8907 280.629 89.1102 280.776 89.2946C281.612 90.3307 282.594 91.3488 283.503 92.3849C284.971 93.1621 286.343 94.1077 287.593 95.2026ZM495.72 200.893L494.92 200.639C488.541 198.553 482.341 195.957 476.378 192.877L474.269 191.859L451.474 180.951C432.95 171.989 418.752 165.063 405.5 158.446C371.378 141.467 343.456 126.743 317.642 112.091C315.115 110.436 312.534 108.837 310.025 107.273L305.444 104.401L305.19 104.237L303.154 102.965C298.155 99.7291 292.81 96.3116 287.411 93.1303C286.157 91.9669 285.102 90.9125 284.121 89.84L283.612 89.2765L284.357 89.1492C287.859 88.5144 291.306 87.6026 294.664 86.4224C294.825 86.3582 294.97 86.26 295.089 86.1345C295.209 86.009 295.299 85.8591 295.355 85.6952C295.432 85.5398 295.472 85.3687 295.472 85.1953C295.472 85.0218 295.432 84.8508 295.355 84.6954L290.101 75.6061L302.317 74.6063C302.503 74.5772 302.679 74.5042 302.831 74.3936C302.982 74.2829 303.106 74.1377 303.19 73.9699C303.284 73.7937 303.333 73.597 303.333 73.3973C303.333 73.1976 303.284 73.0009 303.19 72.8247L300.645 68.28L300.318 67.6983C300.067 67.292 299.836 66.8734 299.627 66.4441C299.627 66.2441 299.445 66.0805 299.373 65.9532C299.009 65.3351 298.918 64.9897 299.554 64.2626C300.466 63.5282 301.537 63.0177 302.681 62.7719C303.101 62.6496 303.514 62.5039 303.917 62.3357L305.062 61.863C306.038 61.4825 306.991 61.0454 307.916 60.5541C312.443 58.0454 310.807 53.628 309.243 49.3379L308.844 48.229H309.371C313.516 47.8654 317.606 47.6654 321.514 47.6109C321.624 47.6068 321.731 47.5787 321.828 47.5284C321.926 47.4782 322.011 47.407 322.078 47.3201C322.199 47.1648 322.285 46.9858 322.332 46.7947C322.379 46.6036 322.385 46.4048 322.35 46.2112C321.803 42.7369 321.038 39.3003 320.06 35.922L319.769 34.8676L320.678 35.4493C324.197 37.7042 327.838 39.7616 331.585 41.6119L331.985 41.8119L331.803 42.121C368.924 62.772 406.881 83.2775 443.602 103.129L475.106 120.162L519.971 144.449L520.698 144.849L507.082 151.211C506.795 151.321 506.557 151.53 506.411 151.8C506.264 152.07 506.218 152.383 506.282 152.684L510.282 164.645L499.756 168.026C499.482 168.149 499.258 168.362 499.122 168.63C498.986 168.899 498.947 169.205 499.011 169.499L502.937 184.133L493.848 185.642C493.549 185.681 493.275 185.829 493.078 186.057C492.88 186.284 492.773 186.576 492.775 186.878C492.967 191.448 493.888 195.959 495.502 200.239L495.72 200.893ZM474.633 191.113L476.742 192.131C482.42 195.056 488.308 197.553 494.357 199.603C492.9 195.508 492.061 191.219 491.867 186.878C491.863 186.37 492.046 185.877 492.381 185.495C492.716 185.113 493.18 184.868 493.684 184.805L501.901 183.442L498.265 169.681C498.143 169.182 498.206 168.656 498.444 168.201C498.681 167.746 499.077 167.393 499.556 167.208L509.282 164.063L505.646 152.902C505.518 152.41 505.57 151.888 505.793 151.431C506.017 150.974 506.397 150.612 506.864 150.411L519.007 144.758L474.87 120.853L443.184 103.728C406.354 83.8228 368.252 63.2264 331.04 42.5209L330.676 42.3391L330.822 42.0482C327.913 40.6121 324.877 38.9033 321.151 36.5946C322.009 39.6684 322.695 42.7879 323.205 45.9385C323.263 46.2564 323.252 46.583 323.174 46.8964C323.095 47.2099 322.951 47.5031 322.75 47.7563C322.605 47.9334 322.421 48.0758 322.214 48.1733C322.006 48.2708 321.78 48.3208 321.55 48.3199C317.915 48.3199 313.952 48.5744 310.025 48.9016C311.552 53.0827 313.461 58.2818 308.317 61.1358C307.367 61.6398 306.39 62.089 305.39 62.481L304.244 62.9537C303.816 63.1277 303.379 63.2794 302.936 63.4081C301.936 63.6273 300.995 64.0547 300.172 64.6625C299.863 65.0261 299.863 65.0261 300.082 65.4079C300.3 65.7896 300.263 65.7169 300.372 65.935C300.562 66.3442 300.78 66.7391 301.027 67.1167C301.136 67.3348 301.263 67.5347 301.372 67.7347L303.917 72.2793C304.078 72.5783 304.162 72.9125 304.162 73.252C304.162 73.5914 304.078 73.9255 303.917 74.2245C303.768 74.5115 303.551 74.7577 303.285 74.9415C303.019 75.1253 302.711 75.2411 302.39 75.2789L291.483 76.1696L296.082 84.1319C296.22 84.3926 296.301 84.6796 296.321 84.974C296.34 85.2684 296.297 85.5636 296.194 85.84C296.09 86.1165 295.93 86.3679 295.723 86.578C295.516 86.788 295.266 86.9518 294.991 87.0586C291.824 88.1663 288.579 89.0412 285.284 89.6763C286.12 90.5489 286.993 91.4942 287.956 92.3305C293.283 95.4572 298.645 98.893 303.663 102.111L305.644 103.383C305.768 103.44 305.885 103.513 305.99 103.601L310.516 106.437C313.025 107.982 315.606 109.6 318.133 111.236C343.91 125.779 371.815 140.595 405.918 157.574C419.188 164.172 433.368 171.117 451.892 180.061C459.418 183.781 466.998 187.465 474.633 191.113Z" stroke="#E96262" stroke-width="0.01"/>
</svg>
