<svg width="777" height="744" viewBox="0 0 777 744" fill="none" xmlns="http://www.w3.org/2000/svg">
<path d="M656.366 622.015C503.659 619.608 320.431 598.546 166.079 579.918C167.395 456.087 176.13 340.241 196.1 211.805C355.602 212.246 514.759 226.662 671.744 254.889L656.366 622.015Z" fill="#FFE600"/>
<path d="M656.363 625.302C506.563 622.934 331.847 603.227 165.735 583.205C164.929 583.111 164.187 582.721 163.652 582.111C163.118 581.501 162.828 580.714 162.84 579.903C164.156 451.586 173.746 334.477 192.9 211.317C193.02 210.54 193.413 209.832 194.009 209.321C194.605 208.809 195.364 208.528 196.15 208.528C355.845 209.007 515.193 223.445 672.373 251.677C673.144 251.828 673.834 252.252 674.317 252.87C674.8 253.489 675.044 254.261 675.004 255.045L659.626 622.079C659.609 622.935 659.258 623.751 658.649 624.353C658.04 624.955 657.22 625.295 656.363 625.302V625.302ZM169.405 577.061C333.281 596.794 505.314 616.093 653.206 618.672L668.335 257.689C513.38 230.03 356.328 215.8 198.926 215.158C180.258 336.069 170.865 451.191 169.405 577.061Z" fill="#FFE600"/>
<path d="M641.346 596.928C488.639 594.52 305.411 573.472 151.059 554.897C152.375 431.065 161.11 315.219 181.08 186.784C340.582 187.231 499.738 201.647 656.724 229.868L641.346 596.928Z" fill="#60C9EB"/>
<path d="M641.339 600.231C491.539 597.863 316.823 578.156 150.645 558.133C149.838 558.036 149.096 557.643 148.562 557.031C148.027 556.419 147.738 555.631 147.751 554.818C149.066 426.514 158.657 309.392 177.811 186.232C177.933 185.458 178.327 184.753 178.923 184.244C179.519 183.735 180.277 183.456 181.06 183.456V183.456C340.755 183.931 500.103 198.365 657.283 226.592C658.067 226.732 658.773 227.152 659.269 227.775C659.765 228.397 660.018 229.178 659.98 229.973L644.602 597.007C644.581 597.863 644.23 598.677 643.621 599.278C643.013 599.879 642.195 600.221 641.339 600.231V600.231ZM154.407 551.977C318.283 571.71 490.316 591.022 638.208 593.587L653.337 232.604C498.376 204.929 341.313 190.69 183.902 190.047C165.234 310.958 155.841 426.106 154.407 551.977Z" fill="#60C9EB"/>
<path d="M622.898 580.761C470.19 578.34 286.976 557.291 132.611 538.663C133.927 414.832 142.675 298.986 162.645 170.551C322.149 171.029 481.306 185.476 638.289 213.726L622.898 580.761Z" fill="#E96262"/>
<path d="M622.917 584.099C473.104 581.731 298.388 562.025 132.222 542.002C131.417 541.905 130.675 541.515 130.139 540.906C129.602 540.297 129.309 539.512 129.315 538.7C130.631 410.383 140.234 293.261 159.388 170.114C159.508 169.338 159.901 168.63 160.497 168.118C161.093 167.607 161.852 167.325 162.638 167.325C322.332 167.799 481.68 182.233 638.861 210.461C639.644 210.603 640.35 211.024 640.848 211.645C641.346 212.266 641.603 213.047 641.571 213.842L626.179 580.876C626.162 581.733 625.812 582.548 625.202 583.15C624.593 583.752 623.773 584.093 622.917 584.099V584.099ZM135.998 535.859C299.887 555.592 471.907 574.891 619.812 577.456L634.941 216.473C479.964 188.816 322.89 174.59 165.466 173.955C146.799 294.827 137.406 409.988 135.998 535.859Z" fill="#E96262"/>
<mask id="mask0_100_6791" style="mask-type:alpha" maskUnits="userSpaceOnUse" x="135" y="166" width="507" height="412">
<path d="M626.345 577.066C473.518 574.643 290.16 553.578 135.674 534.936C136.99 411.007 145.746 295.071 165.731 166.534C325.361 167.013 484.642 181.472 641.749 209.744L626.345 577.066Z" fill="#E96262"/>
</mask>
<g mask="url(#mask0_100_6791)">
<path d="M647.654 204.521L180.371 172.745L154.689 550.408L621.972 582.184L647.654 204.521Z" fill="#E96262"/>
<path fill-rule="evenodd" clip-rule="evenodd" d="M137.735 157.007L137.952 157.022C137.871 157.385 137.622 157.524 137.701 158.083C138.689 158.213 139.693 158.048 140.588 157.609C140.716 156.785 139.844 156.888 140.41 156.278C142.399 156.352 143.737 155.583 145.731 155.657L145.611 155.783L145.719 155.919C145.701 156.186 145.683 156.447 145.693 156.716C145.829 156.774 145.981 156.783 146.123 156.741C146.265 156.699 146.388 156.609 146.47 156.486C146.553 156.363 146.59 156.215 146.575 156.068C146.56 155.921 146.494 155.783 146.389 155.679L146.408 155.407L146.191 155.392C147.868 154.467 149.888 154.828 151.532 154.236C152.105 154.018 152.61 153.164 153.121 152.964C155.733 151.935 158.256 152.621 161.314 152.169C164.937 151.634 168.223 149.142 172.009 149.333C176.563 149.564 179.744 152.562 184.691 152.927L184.573 153.192L184.667 153.456C184.656 153.617 184.645 153.773 184.442 153.72C184.488 154.6 185.778 154.286 185.559 153.237C185.408 153.227 185.264 153.217 185.119 153.207L185.238 152.947L185.144 152.684C186.533 152.706 188.257 154.627 188.891 152.531C189.645 152.454 189.202 153.719 190.192 153.373C191.898 151.523 194.731 153.894 196.19 152.24C196.877 152.236 196.791 153.09 197.721 152.818C198.46 152.869 198.103 151.47 198.864 151.533C200.282 153.926 202.371 149.241 203.752 150.625C204.188 150.297 203.362 149.213 204.244 149.056C204.851 150.644 207.728 149.253 208.889 148.936C209.279 147.795 208.151 147.953 208.724 147.338C209.9 146.479 209.722 148.11 210.917 147.94C211.399 147.917 211.409 147.286 211.403 146.632C213.302 146.962 215.643 146.3 217.304 148.413C217.876 148.223 218.34 147.065 219.079 147.942C219.765 149.105 217.59 148.472 217.909 150.029C220.285 151.23 221.581 148.933 222.422 147.253C223.428 147.321 223.728 148.168 224.82 148.131C225.211 147.225 224.677 146.708 225.116 145.749C226.831 144.352 227.359 141.432 229.7 140.854C228.99 138.968 231.407 138.177 231.405 136.401C231.396 134.724 229.103 133.451 227.58 132.029C226.056 130.607 224.411 129.339 223.306 128.174C222.201 127.01 221.081 124.995 219.914 124.083C215.464 120.591 206.485 119.394 200.227 118.667C197.728 118.368 196.325 119.692 194.669 119.808C191.093 120.068 187.573 117.951 185.279 116.851C185.941 114.589 188.336 115.272 190.212 114.623C191.088 114.319 191.684 113.27 192.472 113.101C195.305 112.511 196.532 114.019 198.775 115.959C198.491 115.94 198.479 116.693 198.754 116.757C200.304 116.638 201.341 117.078 202.71 117.154C202.765 116.787 202.701 116.413 202.526 116.086C203.321 116.296 204.347 116.243 204.937 116.691C204.459 116.658 204.225 116.888 204.242 117.465C205.358 117.485 206.055 117.985 207.323 117.831C207.756 117.38 207.055 117.003 207.801 116.791C208.215 117.199 207.375 117.879 208.191 118.125C209.853 118.327 211.468 116.593 212.596 119.066C213.325 119.356 213.329 118.725 213.292 118.03C214.147 118.356 214.526 119.187 215.432 119.421C215.584 119.2 215.785 119.017 216.02 118.888C216.254 118.758 216.516 118.685 216.784 118.675C218.432 119.095 219.812 120.982 221.162 119.61C221.886 119.307 221.304 120.474 222.029 120.166C222.713 120.129 222.909 119.461 223.389 119.141C225.249 120.458 227.086 118.421 228.941 118.256C230.795 118.092 232.64 118.972 234.434 118.965C234.767 117.926 236.226 118.333 236.904 117.72C237.333 118.157 237.639 119.563 238.409 118.833C239.249 118.65 237.885 117.172 238.895 117.52C241.027 118.542 243.607 116.002 245.952 117.754C246.564 117.706 246.054 116.253 246.884 116.454C247.641 116.327 249.067 117.206 250.605 117.098C250.986 117.884 251.577 118.548 252.312 119.019C253.709 119.834 258.907 120.624 259.381 118.986C258.944 118.023 257.677 117.998 257.468 116.8C257.905 116.628 258.074 116.109 258.172 115.49C261.583 116.096 263.057 114.213 265.944 114.153C268.236 111.661 265.293 107.293 263.122 106.364C261.217 105.541 259.622 106.813 258.248 106.736C256.146 106.593 254.221 104.418 254.428 102.37C254.872 97.8923 259.63 101.607 261.523 101.534C262.889 101.493 263.807 99.9803 265.946 101.148C267.433 99.5732 270.127 99.4604 271.167 97.0731C273.15 92.5546 270.765 91.6383 268.12 89.5423C265.857 87.7461 263.399 86.1879 261.456 84.2794C258.839 81.6937 256.815 78.6009 253.988 76.8725C252.856 76.1866 251.246 76.1273 249.855 75.1445C248.788 74.3961 247.177 71.6441 247.12 71.0761C248.518 71.3834 249.071 72.6221 250.821 72.5176C252.031 71.1475 255.358 69.385 256.882 69.8015C257.865 70.0638 258.473 71.7085 259.453 72.0097C260.707 72.3854 261.807 71.2313 263.027 70.8003C265.305 64.3187 260.581 61.087 257.981 57.0948C257.415 56.2183 257.156 54.9382 256.541 54.1255C253.513 50.0986 248.601 48.7199 244.278 45.5043C241.221 43.235 237.95 40.8899 235.847 40.1882C234.755 39.8179 233.802 40.2 232.995 39.8267C232.502 39.6032 232.148 38.7189 231.508 38.1894C229.923 36.8582 229.033 35.982 227.645 34.8765C226.008 33.5641 223.773 31.848 222.255 31.2476C221.825 31.0787 220.542 31.2931 219.402 30.8916C218.857 30.6981 217.644 29.5542 216.15 28.9276C214.749 28.3407 213.222 28.1251 212.444 27.4801C210.621 25.9539 210.387 23.5638 212.383 22.9677C215.102 22.1583 218.981 25.7515 219.985 26.6689C221.747 28.2747 223.738 28.9855 225.158 30.2831L225.04 30.5487L225.139 30.8125L224.475 30.7953C224.731 31.5556 225.725 32.4612 226.422 31.9108C226.433 31.7384 226.446 31.5605 226.457 31.3881L226.475 31.1212L226.494 30.8543C232.176 32.7211 237.189 35.3244 240.762 39.5504L240.539 39.5353L240.521 39.8022C239.905 40.6541 240.672 41.5219 241.573 41.4267C241.624 41.0601 241.56 40.6866 241.388 40.3583L241.611 40.3735L241.629 40.1121C242.304 40.1972 242.454 40.8721 242.911 41.2105L242.788 41.4702L242.892 41.7399L242.453 41.71C242.435 41.9769 242.417 42.2382 242.399 42.4996C242.622 42.5147 242.838 42.5295 243.055 42.5442C243.073 42.2829 243.093 41.9881 243.109 41.7546L243.323 41.8921L243.549 41.7678C243.733 41.7668 243.913 41.8195 244.067 41.9192C244.221 42.019 244.342 42.1616 244.416 42.3295L244.292 42.5892L244.397 42.8589L243.952 42.8286C244.709 44.3549 246.178 45.0861 247.83 45.6062C247.848 45.3448 247.868 45.0501 247.884 44.8166L248.098 44.954L248.319 44.8294C249.706 45.0522 250.009 46.5029 251.347 46.7839L251.232 46.9157L251.118 47.042C250.983 47.8652 251.266 48.2308 251.965 48.1331L251.986 47.3356L252.088 47.4711L252.214 47.3456C253.289 47.9773 253.41 49.7229 254.306 50.5994C255.979 51.1321 255.87 49.3595 257.19 50.1587C256.73 50.9262 257.521 52.5274 258.269 50.7236C257.498 52.6097 259.343 51.3553 259.524 52.8871C260.191 53.1894 261.042 52.7501 261.718 53.4887C261.368 53.2862 261.321 54.7298 261.685 54.5535C262.646 53.9653 263.193 54.9577 264.09 55.1639C264.224 55.9831 263.321 55.458 263.599 56.4712C265.66 55.7288 265.918 57.9417 267.934 58.4419C268.176 59.3187 267.217 58.6278 267.46 59.4934C269.192 60.2257 271.021 60.8529 271.096 62.7964C272.807 61.6112 274.961 60.9979 274.346 58.1238C274.116 56.9909 269.98 53.7266 269.243 52.6542L269.455 52.6686L269.472 52.4072C269.862 52.3499 269.994 51.9678 269.952 51.3561C269.882 51.3102 269.803 51.2786 269.72 51.2632C269.638 51.2477 269.553 51.2486 269.471 51.2658C269.389 51.2831 269.311 51.3163 269.242 51.3636C269.173 51.411 269.114 51.4715 269.068 51.5418C269.022 51.612 268.99 51.6906 268.975 51.773C268.959 51.8555 268.96 51.9402 268.977 52.0222C268.995 52.1043 269.028 52.1822 269.075 52.2515C269.123 52.3207 269.183 52.38 269.253 52.4258L269.031 52.4107L269.013 52.6776C265.427 51.4394 261.381 50.7174 259.707 47.3299C260.638 46.1978 261.736 45.5016 263.503 46.1301C263.611 46.9307 262.048 46.9864 262.782 47.7011C263.751 49.2139 263.7 46.8474 264.798 46.9667C266.08 47.6628 264.317 48.2915 264.942 49.3619C265.714 49.3473 265.259 47.7466 266.099 47.8037C266.285 48.4365 267.184 48.2797 267.157 49.1661C267.454 50.3036 265.933 49.0829 266.23 50.2204C268.345 49.1073 270.613 50.8312 272.571 52.0258C272.918 52.0103 272.768 51.352 273.254 51.5136C274.495 53.2291 276.886 52.241 278.031 53.7992C278.838 53.7591 278.887 53.4552 279.57 53.8424C280.064 54.2775 280.426 54.842 280.615 55.4721C283.838 54.574 283.508 58.0374 287.16 57.8053C287.751 58.069 286.468 58.3783 287.122 58.8641C288.272 58.3837 288.794 59.3242 289.513 60.0043C287.844 62.1253 280.007 59.2406 280.361 63.1583C280.443 64.0801 281.143 64.6304 282.5 64.5551L282.482 64.822L282.71 64.8375C282.625 65.1948 282.375 65.3342 282.443 65.8919L283.329 65.9187C283.383 65.552 283.318 65.178 283.145 64.8503L283.368 64.8655L283.386 64.5985C283.83 64.2321 285.02 63.3969 285.396 63.8694C284.928 63.9381 285.311 65.1205 285.804 64.9417C286.455 65.2262 286.217 64.361 286.283 63.8906C287.072 63.7823 286.776 64.8515 287.577 64.7328C288.935 64.4005 290.637 62.9577 291.623 62.7454C291.884 62.685 292.461 63.1599 292.72 63.0379C293.529 62.6516 293.711 61.6975 294.535 61.4854C294.884 61.6392 295.254 61.7415 295.632 61.789C296.839 61.9493 297.985 60.8709 298.958 62.1605C299.709 60.9043 300.034 60.8818 301.415 61.4449C301.662 60.1936 302.556 59.774 303.249 59.1172C305.014 56.1648 303.532 51.9134 303.862 47.7238C303.928 46.7451 304.261 46.036 304.169 45.3426C303.842 42.9238 301.603 41.5146 301.493 39.6804L301.715 39.6955L301.733 39.4286C304.786 39.3011 303.407 33.7941 303.308 32.05C303.208 30.306 303.9 28.5989 303.693 27.2832C303.423 25.589 301.727 24.2391 300.563 22.1321C300.251 21.5522 300.276 20.7719 299.964 20.2591C298.105 17.1999 294.733 15.8644 294.93 12.1406C289.112 6.01904 283.095 0.107401 279.539 -8.54184C279.395 -9.46777 279.897 -9.54533 279.814 -10.3777C278.344 -10.6844 278.094 -12.3605 277.73 -13.9048L277.918 -14.1155L277.973 -14.4301C279.976 -13.7353 279.301 -9.97135 281.55 -9.53348L281.609 -11.3897L281.829 -11.2463L282.049 -11.3654C284.32 -8.32592 286.278 -5.06536 287.895 -1.63314L287.678 -1.64788L287.66 -1.38654C286.393 -2.19301 285.366 -3.32612 284.688 -4.66671C284.511 -4.6117 284.249 -4.69658 284.235 -4.41261C284.37 -2.046 286.506 0.316957 288.08 -0.570353C288.092 -0.753852 288.104 -0.926237 288.116 -1.09861L288.218 -0.96315L288.339 -1.0946C290.285 0.110288 290.917 2.80677 292.566 4.35457L292.343 4.33944L292.326 4.60079C292.109 4.58604 291.892 4.5713 291.664 4.5558C291.243 5.90139 293.266 6.87133 293.615 5.68284L293.838 5.69796L293.855 5.43662C294.097 5.49774 294.193 5.73327 294.277 5.97919L294.158 6.2393L294.257 6.51415L293.818 6.48427C293.765 6.85268 293.829 7.2284 294.002 7.55818L293.785 7.54343L293.767 7.80478C293.749 8.06613 293.572 8.12113 293.523 8.34685C295.039 9.22084 294.893 11.0487 296.968 10.8435C297.373 13.1056 299.397 13.5617 300.347 15.2072C300.782 15.3038 300.795 14.8689 301.03 14.695L301.012 14.9563L301.235 14.9714C302.364 14.7857 301.633 16.6744 302.752 15.8176C303.021 14.8303 301.939 15.3768 302.14 14.4744C304.612 14.9274 306.344 18.3746 307.42 21.2689L307.204 21.2541L307.185 21.521C307.039 21.3882 306.863 21.2923 306.672 21.2414C306.481 21.1906 306.281 21.1861 306.088 21.2285L305.869 21.0851L305.648 21.2098C305.457 20.7331 305.27 20.2736 304.587 20.3835C304.47 21.275 304.607 21.8932 305.428 21.7311L305.642 21.8741L305.868 21.7554C306.095 22.6033 306.359 23.4033 307.355 23.3872C307.537 22.841 308.084 22.3586 307.63 21.8026L307.858 21.8181L307.876 21.5512C308.652 22.0509 310.262 22.9369 309.775 24.0155C309.767 23.6406 309.238 23.7108 309.323 24.2584C310.138 24.6825 311.002 25.9368 311.644 27.2541C311.13 27.9957 309.746 26.4156 309.423 27.712C309.824 29.3034 311.059 29.9516 311.961 30.9738C312.842 30.439 313.833 30.1109 314.859 30.0145C315.888 29.9123 316.926 29.9453 317.947 30.1127C319.674 29.3587 319.463 26.1434 321.413 25.7174L321.529 25.58L321.643 25.4538C322.035 26.3463 323.151 25.1429 322.556 24.689C322.434 24.6828 322.312 24.7007 322.197 24.7418C322.082 24.7828 321.976 24.8463 321.886 24.9284L321.904 24.6615L321.682 24.6464C321.767 24.2891 322.017 24.1496 321.938 23.5912C322.053 22.9678 320.93 23.707 321.306 22.7773C322.503 14.9541 315.292 11.3243 314.456 3.97733C314.11 1.32941 314.2 -1.35747 314.723 -3.97616C315.814 -1.28204 316.488 1.86422 318.904 3.06195C319.083 -0.394948 316.518 -2.93236 316.147 -6.58871C316.876 -5.64532 316.878 -5.42177 318.106 -5.99181C317.985 -2.97231 322.834 -1.01133 323.37 1.6283C323.98 4.64174 326.136 8.101 326.357 11.0153C326.406 11.7672 326.007 12.7121 326.05 13.391C326.193 15.8922 327.676 17.8253 328.242 20.1039C328.403 20.7685 328.218 21.6832 328.387 22.2366C328.623 22.9509 329.28 23.2413 329.432 24.1232C330.003 27.5584 329.216 29.9294 329.772 33.1626C330.174 35.4691 331.556 36.5854 332.235 38.017C332.725 39.0279 332.539 40.0487 333.025 40.7018C334.855 43.0966 337.103 45.1417 339.659 46.7392C341.749 48.0377 345.158 49.1745 345.448 51.9706C345.611 53.6017 344.22 55.7305 343.098 56.1346C341.585 56.6853 340.149 54.6492 338.078 54.3799C335.264 54.021 334.661 55.3318 333.124 57.3948C333.846 63.2145 335.146 70.1294 340.851 70.1207C341.487 66.5161 343.665 64.8822 344.46 61.4839C347.263 58.6244 350.477 56.3068 351.23 50.822C352.705 49.6654 353.43 47.5472 355.341 46.9677C355.535 45.0927 356.859 44.7693 357.647 43.8565C357.919 43.5566 357.878 42.9281 358.144 42.544C358.683 41.7595 359.804 41.5397 360.176 41.0063C360.71 40.3052 361.856 37.9922 361.862 37.0765C361.876 35.4742 359.933 33.7332 359.399 32.2221C359.279 31.8508 359.53 31.2758 359.456 30.8853C359.198 29.7505 358.298 28.5329 358.018 27.3966C357.42 24.9315 357.84 21.7982 356.05 20.4307C355.236 20.4982 354.844 20.0973 354.302 19.8538C354.152 18.1119 354.493 15.8056 356.021 14.8592C355.849 15.9089 356.845 15.6415 357.545 15.7058C357.771 16.9726 358.378 17.8294 359.899 17.6423C360.696 15.8587 360.187 11.9304 359.309 9.39039C358.795 7.91973 356.941 6.26858 357.022 5.32442C357.103 4.38025 358.593 4.14646 358.637 3.25007C359.703 4.99841 359.778 7.91956 361.985 8.41038C362.116 6.48086 363.745 5.85982 364.131 3.95325C364.919 0.0963868 363.451 -1.238 362.459 -4.31645C361.487 -7.27624 361.403 -9.9746 360.287 -11.5588C357.981 -14.8607 353.694 -16.8784 351.506 -19.5354C350.283 -17.9818 351.925 -16.9148 352.473 -15.5201C353.278 -13.4766 353.491 -10.3618 354.253 -8.83517C351.807 -9.91208 352.227 -14.2017 350.295 -15.8581C350.785 -18.0593 349.468 -17.6629 349.971 -19.3157C347.816 -20.479 348.15 -24.4058 347.132 -26.8492C351.271 -31.9306 347.389 -37.9484 346.853 -44.113C344.736 -49.2847 340.555 -53.5185 341.476 -61.2375L341.459 -60.9762L341.687 -60.9607C341.706 -60.805 341.783 -60.6621 341.902 -60.5599C342.021 -60.4578 342.174 -60.4038 342.331 -60.4085C342.361 -60.8589 342.391 -61.2927 342.37 -61.7354C342.159 -61.7497 341.931 -61.7652 341.709 -61.7804L341.829 -61.9118L341.721 -62.0477C341.824 -62.5907 341.991 -63.1194 342.22 -63.6226C345.586 -65.807 348.416 -64.9609 350.552 -62.0226C353.362 -58.1613 356.353 -50.5561 357.329 -46.6742C360.357 -44.7924 363.674 -40.3381 367.195 -38.3948C370.092 -36.8012 374.181 -36.1377 375.42 -39.9862C375.937 -41.5823 375.456 -42.8886 376.003 -43.9464C376.352 -44.4068 376.737 -44.84 377.152 -45.2424C380.535 -47.8391 384.281 -44.2716 386.773 -42.8006C388.417 -41.8285 390.397 -41.381 391.768 -40.5057C392.164 -40.2609 392.411 -39.6184 392.811 -39.4181C395.046 -38.3555 397.115 -37.9802 398.668 -36.573C399.789 -35.1616 399.541 -32.9831 400.718 -31.7355C401.24 -31.1917 402.471 -31.147 403.098 -30.5905C403.995 -29.8089 404.061 -28.3184 405.234 -28.4006C405.125 -26.7992 406.641 -25.7521 407.292 -24.0821C407.477 -23.5947 407.217 -22.97 407.458 -22.49C407.751 -21.8723 408.513 -21.5747 408.72 -20.8455C409.118 -19.6286 408.74 -18.0175 409.008 -16.8597C409.819 -13.5869 411.987 -12.8585 414.833 -12.1566C415.531 -13.2263 416.105 -14.4386 415.397 -15.8554C416.903 -17.8702 415.878 -20.5376 416.543 -23.252C415.251 -23.2393 415.368 -24.7061 415.759 -25.9309C415.541 -25.7725 414.919 -25.3399 415.102 -26.2213C413.61 -27.6858 413.967 -30.3932 413.586 -33.1732C413.198 -35.6743 411.976 -37.992 411.595 -39.8669C410.999 -42.9352 412.46 -44.3777 412.274 -46.4852C413.26 -45.7087 413.224 -47.3199 413.442 -48.3051C413.088 -49.1783 412.541 -47.2993 412.568 -48.5991C412.318 -49.8451 413.331 -49.4634 413.081 -50.7094C412.209 -50.2994 412.265 -50.1337 412.001 -51.2688L412.218 -51.2541L412.236 -51.5154C412.308 -51.5051 412.38 -51.5002 412.453 -51.5007L412.892 -51.4708C412.907 -51.7548 412.838 -52.0369 412.696 -52.283L412.257 -52.3129L412.04 -52.3276L412.022 -52.0607C411.534 -52.1944 412.062 -53.4713 411.639 -53.6676L411.856 -53.6529L411.874 -53.9142C412.486 -53.8726 412.449 -55.1432 412.155 -55.4984L411.938 -55.5131L412.048 -55.6509L411.945 -55.7808C412.15 -56.9847 411.508 -59.045 410.741 -59.2647C412.201 -59.2213 410.607 -61.8994 411.923 -61.62C413.982 -60.9213 413.591 -57.2275 413.885 -54.6601C414.418 -50.0878 414.642 -46.8884 415.913 -42.9139C416.686 -40.476 417.791 -38.8088 418.361 -37.2561C419.588 -33.9438 419.582 -30.5645 417.871 -29.3177C418.754 -26.5205 418.448 -23.1783 418.887 -20.2604C418.979 -19.5614 419.42 -19.0622 419.479 -18.3766C419.555 -17.433 419.096 -16.4307 419.158 -15.4656C419.175 -15.1349 419.709 -14.4505 419.771 -14.1223C420.501 -10.4752 419.958 -6.51787 420.958 -3.72933C421.174 -3.12251 421.796 -2.74502 422.004 -2.11078C422.212 -1.47654 421.99 -0.592242 422.155 0.0222915C422.368 0.830044 423.01 1.90714 423.373 2.97646C424.483 6.20818 424.827 6.98572 427.166 8.40727C428.65 9.34054 430.415 9.91865 431.445 11.2009C433.07 13.1828 433.081 14.6639 434.555 17.1384C433.738 22.982 439.037 18.8397 440.87 19.4783C440.916 18.7999 441.23 18.4582 441.791 18.4237C452.021 18.5607 458.137 23.3395 456.615 36.6934C455.196 38.094 454.557 40.5029 453.754 42.6941C458.426 43.5704 466.748 44.829 470.612 40.5836C473.396 40.717 475.92 40.0787 478.536 41.1224C480.396 41.8578 482.152 43.8933 484.858 43.4516C485.496 43.9196 485.541 44.9841 486.101 45.6255C487.03 46.6663 488.271 46.5719 489.338 47.3092C489.909 47.7056 490.274 48.5795 490.829 48.9636C493.373 50.6616 496.32 51.4263 497.941 53.9609C499.43 54.4759 500.82 55.2431 502.049 56.229C502.701 54.8656 503.134 54.4928 503.275 52.821C503.466 50.5994 504.021 48.1065 504.402 45.9538C504.974 42.708 505.879 37.4458 505.232 34.5695C503.032 24.6942 500.209 13.4581 500.611 2.30167C500.416 1.29411 501.453 1.9009 501.319 0.997971C501.249 0.473652 500.475 0.761798 500.701 -0.0943085C501.65 -1.90114 500.136 -2.47335 501.079 -4.5879L501.293 -4.44487L501.52 -4.58026C502.702 -3.148 502.058 -1.15281 502.435 0.766636C502.75 2.39126 503.9 3.87722 504.258 5.59978C504.416 6.39819 504.208 7.2332 504.396 7.99458C504.839 9.70056 505.846 11.322 506.187 13.3675C506.307 13.9845 506.036 14.8543 506.121 15.4858C506.295 16.7936 506.959 17.9616 507.09 19.2275C507.792 25.8335 507.298 32.604 506.601 39.6567C506.269 43.1312 506.53 46.2773 506.456 49.9928C506.382 53.7082 505.416 59.2064 506.042 61.9248C506.443 63.6671 508.112 64.9146 508.557 66.0063C509.513 68.3784 509.152 74.4262 510.661 76.1488C512.028 77.7221 515.338 77.774 516.396 76.3377C518.769 76.1862 520.497 77.4042 522.521 77.8714C523.285 78.0463 524.16 77.508 524.958 77.6852C525.756 77.8624 526.404 79.007 527.08 79.3378C527.943 79.782 529.266 80.0451 530.352 80.51C531.437 80.9748 532.975 81.8615 533.606 81.9491C534.818 82.1153 538.177 80.9415 538.553 79.1851C538.694 78.5187 538.165 77.3376 537.987 76.2529C537.014 70.1982 535.99 64.5535 538.181 58.2056L538.29 58.0845L538.399 57.9523C538.51 59.2838 539.767 57.3917 538.418 57.6854L538.304 57.5492L538.2 57.6762C537.877 55.6935 539.193 55.8109 539.415 54.5243C538.757 54.0941 539.279 53.3979 539.027 52.6657C538.686 51.5979 537.668 51.2102 537.133 50.2074C536.141 48.3691 534.989 44.7602 535.462 41.921C535.72 40.2627 537.458 36.4705 540.701 37.3279C541.399 37.5038 543.462 39.4429 544.114 40.6157C545.469 43.0373 545.524 46.7503 544.728 48.5955C543.828 50.6627 541.185 51.4158 540.573 53.5082C539.313 57.657 542.134 60.5413 542.002 63.3814C541.882 65.9708 539.083 68.7692 539.736 72.0592C540.113 73.9898 542.717 74.8819 543.561 76.4309C543.893 77.0623 543.639 78.0059 543.925 78.5616C544.472 79.6379 546.227 80.8466 547.592 81.079C547.962 81.1321 548.68 80.5944 548.925 80.611C550.419 80.4948 552.993 81.7479 554.851 81.8631C555.323 81.8952 555.804 81.4866 556.179 81.6406C557.224 82.0468 558.196 84.0123 559.623 84.1373C560.114 87.1817 561.331 88.5884 563.391 90.0971C564.945 91.2306 566.753 92.7445 568.544 94.2462C570.991 96.3063 572.812 96.6312 575.47 98.4488C576.478 99.1486 577.949 100.601 578.481 100.676C580.922 101.004 582.735 96.848 585.049 95.8489C585.819 95.5167 586.655 95.3616 587.493 95.3951C591.368 95.9155 587.328 102.255 586.767 103.602C584.34 104.303 583.003 107.447 581.054 109.253C579.863 110.339 578.766 110.605 577.868 112.064C577.273 113.149 576.789 114.291 576.424 115.474C577.06 117.131 578.929 117.415 580.297 118.251C580.233 117.794 580.328 117.33 580.565 116.934C582.634 115.834 584.023 114.058 586.222 112.85C589.435 111.118 592.99 110.265 596.526 109.199C597.861 108.792 600.337 107.782 600.987 107.753C601.32 107.99 601.683 108.182 602.065 108.324C602.386 108.217 602.749 107.22 603.215 107.033C603.909 106.757 605.13 107.214 605.869 106.856C606.505 106.542 606.312 105.92 607.012 105.817C611.327 104.641 615.852 102.245 619.096 100.628C618.919 100.688 618.83 100.85 618.858 101.17C620.252 101.136 619.639 100.62 619.996 100.13C620.353 99.6407 620.877 98.5981 621.812 98.0696C622.945 97.4316 628.919 96.648 628.409 98.8087C627.418 102.959 620.238 102.163 616.788 102.946C614.694 103.429 613.249 105.034 611.613 105.688C609.316 106.605 606.845 107.04 605.358 107.877C604.644 108.281 604.198 109.245 603.527 109.675C602.668 110.225 601.593 110.18 600.628 110.645C600.052 110.908 599.613 111.609 599.039 111.917C597.816 112.577 596.353 112.566 595.236 113.133C594.658 113.423 594.227 114.327 593.635 114.666C592.436 115.373 590.47 115.859 588.95 116.365C586.094 117.288 583.26 117.396 581.547 119.582C583.026 121.241 583.406 124.116 583.948 126.828C581.018 130.975 585.166 137.994 589.289 138.152C590.123 137.225 591.44 135.929 592.881 136.67C593.679 135.048 595.491 134.691 596.311 133.065C596.752 132.576 596.707 133.232 597.426 133.096C597.12 129.378 604.283 125.58 604.366 129.608C604.392 130.47 602.774 132.728 601.812 133.238C599.562 134.454 596.019 133.571 595.086 136.211C595.092 137.982 595.449 139.734 596.136 141.367C596.822 142.999 597.825 144.479 599.087 145.723C599.813 146.459 600.871 147.57 601.88 147.935C602.545 148.181 603.635 147.758 604.527 148.026C605.141 148.207 605.497 148.795 606.034 148.877C609.604 149.36 614.492 147.217 616.874 148.424C618.74 148.087 624.127 145.353 626.82 147.983C627.297 148.44 628.262 150.349 628.017 151.734C627.701 153.501 625.434 154.151 623.917 154.517C622.089 154.951 619.76 156.419 618.11 156.446C615.168 156.508 612.711 153.699 610.034 153.802C608.734 153.853 607.658 155.054 606.665 155.288C603.91 155.95 601.404 155.187 599.792 156.385C598.315 157.48 598.325 159.637 596.516 161.586C595.372 162.804 593.605 163.321 592.252 163.581C589.99 163.986 589.017 162.685 587.43 162.622C586.39 162.551 584.769 163.715 583.179 164.338C581.354 165.058 580.851 165.057 579.575 166.328C577.067 168.861 578.661 176.801 580.704 178.309C581.401 178.814 582.328 178.419 582.916 178.644C584.12 179.167 585.62 180.682 586.346 181.67C586.935 182.47 587.03 184.107 587.991 185.173C588.37 185.595 589.596 186.209 590.586 186.852C592.388 188.041 593.92 188.833 595.805 188.883C596.624 189.665 597.055 190.873 598.376 191.091C598.882 192.427 598.685 193.441 598.258 194.798C596.354 196.501 594.473 194.926 592.503 195.138C591.377 195.268 590.32 196.18 589.35 196.89C588.38 197.601 587.528 199.046 586.834 199.468C586.35 199.781 585.861 199.401 585.507 199.685C584.872 200.239 584.637 201.469 583.885 201.764C583.599 203.678 582.111 204.437 581.733 206.472C581.47 207.873 582.095 209.357 581.807 210.717C581.522 212.195 580.041 212.943 580.134 214.38C580.694 216.155 584.12 216.383 585.536 217.741C586.586 218.723 586.78 220.72 588.138 219.159C590.995 221.414 591.666 218.454 593.059 217.192C593.345 216.932 593.992 217.188 594.393 216.964C595.374 216.416 595.885 215.557 596.653 215.442C598.442 215.172 600.522 216.051 601.883 217.473C602.18 216.633 601.171 217.257 601.48 216.412C603.45 216.613 605.282 217.185 605.929 215.229C605.02 214.499 604.318 213.544 603.892 212.458C603.466 211.373 603.331 210.195 603.501 209.042C605.399 207.495 607.164 207.096 608.791 209.206C609.638 210.308 609.186 211.613 610.238 211.913C611.4 212.249 613.642 209.91 615.19 209.418C620.902 207.572 625.712 212.329 627.526 216.452C627.799 217.403 627.84 218.406 627.646 219.376C627.309 221.956 626.586 226.745 625.568 228.335C624.717 229.668 623.409 229.931 622.159 231.147C621.124 232.15 620.348 233.628 619.413 233.977C617.686 234.494 615.85 234.526 614.106 234.069C612.295 233.583 610.234 230.454 608.039 230.947C606.283 231.386 604.802 235.833 602.102 236.599C600.61 237.017 599.329 236.293 598.108 236.998C596.147 238.155 594.211 241.9 593.025 243.735C592.987 244.291 592.986 244.794 592.972 245.329C589.037 250.788 583.798 254.56 578.82 258.668C575.978 258.235 574.947 260.991 572.563 260.321C569.397 262.262 566.921 263.769 563.806 264.552C562.863 264.784 562.069 264.389 561.598 264.742C559.508 266.31 558.012 268.191 556.568 269.623C555.041 271.134 550.668 273.01 548.494 273.342C547.862 273.439 547.066 273.072 546.51 273.274C545.164 273.769 544.68 275.547 543.525 276.099C542.407 276.593 541.192 276.827 539.97 276.785C539.184 276.681 538.822 275.763 538.012 275.92C536.478 276.218 534.053 279.924 533.157 281.601C532.261 283.277 532.438 284.937 532.082 287.142C531.45 291.009 529.813 294.462 529.085 297.127C528.452 299.442 528.42 301.635 527.32 303.443C526.256 305.038 525.019 306.511 523.63 307.834C522.631 308.763 521.57 309.624 520.455 310.411C519.75 310.844 518.885 310.673 518.222 311.136C517.453 311.676 516.889 312.99 516.147 313.721C515.189 314.656 514.089 315.224 513.643 315.786C512.753 316.882 512.595 318.133 511.791 318.38C509.126 319.205 506.782 316.867 505.3 315.252C505.358 314.401 504.948 314.111 505.149 313.124C504.848 312.696 504.621 312.178 504.106 312.031C503.96 307.116 500.663 305.976 499.126 303.106C498.6 302.138 498.405 300.331 497.742 298.817C497.354 297.953 496.576 297.241 496.282 296.383C495.615 294.444 495.551 292.517 494.487 290.747C493.189 288.628 491.708 286.626 490.061 284.765C489.157 283.765 487.085 281.211 485.999 280.919C482.421 279.983 480.582 283.93 479.629 286.279C479.253 287.219 479.14 288.631 478.644 289.435C477.86 290.689 474.931 292.858 473.003 292.699C471.602 292.604 469.847 291.222 469.566 289.935C468.711 286.067 472.832 282.973 474.553 280.012C477.046 275.712 474.335 271.886 471.132 270.35C470.781 270.175 470.161 270.423 469.806 270.304C467.244 269.443 464.94 267.258 462.393 267.677C461.845 267.02 461.576 266.046 460.926 265.505C460.165 265.269 460.063 265.865 459.375 265.718C458.368 263.365 455.116 263.535 453.776 261.555C453.147 261.848 452.918 262.664 452.402 263.104C450.544 263.33 448.646 261.994 446.916 262.128C444.457 262.313 442.149 264.038 439.775 264.285C436.318 264.608 432.592 263.12 429.899 262.635C428.624 262.415 427.674 262.992 426.134 263.05C424.902 263.089 423.65 262.523 422.39 262.655C420.701 262.842 418.978 263.541 417.265 264.083C411.886 261.042 409.245 266.275 405.44 267.681C402.471 268.781 399.437 271.345 396.447 272.433C396.239 273.279 395.605 273.565 395.273 274.247C392.317 275.503 389.876 275.74 387.876 277.464C386.44 278.707 386.15 280.749 385.059 282.412C384.311 283.556 382.862 284.005 382.524 285.519C381.335 285.762 380.841 287.192 380.016 287.823C379.633 288.115 379.02 287.839 378.682 288.045C378.461 288.181 378.27 288.849 377.978 289.114C377.687 289.379 376.933 289.378 376.639 289.582C374.969 291.004 373.629 292.774 372.712 294.767C371.15 298.013 369.837 297.778 367.036 299.358C366.258 299.792 365.713 300.497 364.988 300.895C364.194 301.285 363.372 301.616 362.53 301.884C360.851 302.507 358.942 303.551 357.603 303.851C354.898 304.438 352.241 303.425 349.462 303.297C348.042 303.24 346.682 304.097 345.265 303.157C334.521 306.393 329.873 317.484 321.167 323.35C320.198 324.763 318.929 325.945 317.449 326.811C315.969 327.676 314.317 328.203 312.609 328.354C307.001 328.676 303.444 322.491 305.739 316.189C306.377 314.445 309.241 309.953 310.54 311.298C311.324 308.888 313.633 308.452 314.684 306.39C315.409 306.406 315.829 305.982 316.675 306.19C319.084 303.628 322.701 302.69 324.851 299.819C327.149 300.199 327.86 298.527 329.121 297.573C330.754 298.198 331.59 296.663 333.772 297.191C335.977 295.391 338.329 293.779 340.803 292.374C342.096 291.691 342.89 289.778 344.015 288.765C345.335 287.593 347.074 287.08 348.527 286C349.703 285.136 350.452 283.896 351.513 283.17C352.686 282.35 353.948 282.179 355.328 281.44C357.645 280.11 359.84 278.577 361.885 276.858C363.761 275.31 365.634 274.058 367.106 272.784C368.107 271.92 368.876 270.82 369.343 269.583C369.81 268.346 369.959 267.012 369.778 265.703C368.498 254.533 352.433 261.172 347.356 263.123C347.306 263.868 346.908 264.209 346.846 264.959C343.088 267.972 337.938 272.733 331.993 273.245C330.185 273.373 327.529 273.656 325.6 273.028C323.671 272.4 322.041 269.993 319.496 270.702C318.228 271.683 317.203 273.211 315.845 274.041C315.39 274.317 314.728 274.032 314.294 274.253C311.765 275.467 310.044 278.433 308.351 280.162C307.511 281.015 306.266 281.327 305.419 282.197C303.919 283.715 303.724 285.763 302.576 287.942C301.884 289.241 298.613 292.991 297.52 293.615C295.236 294.899 293.107 296.441 291.174 298.211C289.185 300.031 287.15 302.188 285.222 303.588C283.295 304.987 281.152 305.948 279.581 307.114C276.564 309.339 272.992 310.353 270.3 313.712C268.058 313.828 267.442 315.819 266.214 317.032C265.514 317.722 264.521 317.866 263.726 318.538C261.589 320.399 259.447 322.566 256.902 324.42C254.388 326.191 252.095 328.255 250.071 330.57C248.95 331.941 248.572 333.306 247.517 334.201C246.705 334.888 245.439 335.026 244.365 335.953C243.949 336.315 243.8 337.104 243.431 337.52C241.408 339.757 238.654 341.313 237.042 343.415C235.852 344.977 234.938 347.741 233.301 349.138C232.707 349.656 231.125 349.996 230.148 350.89C228.516 352.382 226.661 355.429 224.401 357.611C224.019 357.97 223.41 358.214 223.035 358.635C220.333 361.574 217.756 365.538 213.129 364.665C210.585 364.196 208.632 361.868 209.407 357.379C210.246 352.503 215.247 350.676 218.792 347.598C220.074 346.49 221.114 345.237 222.226 344.257C223.479 343.152 224.819 342.506 226.075 341.463C227.934 339.913 229.574 337.483 231.571 335.803C233.349 334.304 235.469 333.275 237.234 331.474C237.528 331.175 237.642 330.479 237.942 330.175C239.884 328.151 242.386 326.93 244.523 325.076C246.305 323.521 247.756 321.491 249.553 320.195C250.347 319.617 251.418 319.551 252.246 318.959C253.304 318.187 254.26 317.196 255.421 316.382C257.085 315.302 258.676 314.114 260.182 312.823C261.375 311.714 262.236 309.739 263.426 308.418C264.993 306.696 266.456 304.881 267.806 302.984C268.227 302.387 268.927 302.038 269.408 301.445C270.989 299.475 271.862 296.657 273.158 294.93C274.699 292.895 277.44 291.528 278.016 288.719C278.156 288.058 277.851 286.881 277.877 286.324C278.196 279.754 281.331 275.386 283.494 270.852C284.155 271.064 284.155 270.411 284.822 270.624C286.714 267.44 289.887 265.885 292.355 263.438C292.532 262.802 293.809 264.157 293.918 262.952C294.143 262.118 293.364 262.395 293.293 261.876C296.012 260.67 294.97 258.007 294.84 255.557C294.76 254.105 295.374 251.985 295.24 250.261C295.17 249.306 294.771 248.933 294.876 248.124C295.215 245.946 297.882 242.787 298.638 241.61C299.045 240.967 299.091 240.126 299.36 239.782C300.175 238.72 301.33 238.486 301.869 237.472C302.919 235.504 303.094 230.131 302.205 227.925C300.498 223.787 295.765 225.041 292.508 226.272C291.499 226.656 290.649 227.492 289.803 227.764C289.323 227.927 288.88 227.544 288.477 227.718C287.157 228.316 286.215 229.52 284.878 229.708C284.268 229.806 283.698 229.399 283.129 229.388C281.054 229.342 277.703 230.65 275.338 230.998C273.77 231.221 272.687 233.426 271.267 233.777C271.316 234.947 270.617 235.123 270.547 236.146C268.621 237.853 266.795 238.249 265.325 240.489C263.854 242.73 263.276 246.461 261.314 247.792C258.17 249.919 253.323 246.69 249.645 246.881C248.77 246.927 247.918 247.629 246.971 247.593C244.787 247.511 242.286 245.107 239.795 244.44C237.941 243.934 236.688 243.212 235.182 243.758C233.533 244.349 229.199 247.049 228.187 248.042C227.894 248.323 228.058 248.876 227.714 249.088C224.99 250.785 222.75 250.527 219.557 248.533C219.413 247.123 219.39 245.702 219.488 244.288C221.755 241.755 223.872 239.045 226.159 236.541C227.148 236.385 228.089 236.007 228.911 235.435C229.733 234.863 230.414 234.112 230.903 233.238C231.501 233.332 232.114 233.264 232.677 233.04C235.228 230.6 236.634 226.684 240.006 225.31C240.544 222.738 244.289 221.814 245.102 218.311C245.359 217.25 245.178 214.406 244.381 213.793C243.288 212.948 237.275 214.22 236.188 214.588C235.439 214.844 234.998 215.657 234.376 215.855C233.44 216.144 232.505 215.6 231.288 215.751C228.121 216.162 225.667 218.073 222.786 219.195C220.397 220.15 217.729 220.287 215.43 221.075C213.714 221.662 212.181 222.932 210.496 223.304C209.242 223.593 208.202 223.203 207.178 223.463C206.348 223.675 205.373 224.38 204.491 224.705C202.598 225.389 200.663 225.946 198.696 226.372C195.812 227.053 193.134 229.056 190.394 230.081C189.035 230.598 187.549 230.357 186.182 230.745C185.11 231.052 184.116 231.872 183.038 232.207C181.791 232.63 180.42 232.498 179.26 232.883C175.974 233.972 172.791 237.649 168.697 238.376C165.021 239.031 161.721 238.768 159.157 239.666C156.594 240.564 155.395 242.578 153.738 243.208C151.164 244.178 144.808 244.981 144.933 242.397C145.009 240.793 151.14 237.713 152.383 237.591C154.114 237.429 155.842 238.642 157.652 238.558C162.544 238.332 165.616 231.681 170.021 231.796C171.315 231.829 172.475 233.013 173.727 233.244C175.771 232.768 177.771 231.284 179.12 230.499C181.48 229.151 183.746 229.423 186.472 228.614C188.41 228.042 190.435 225.945 192.495 226.956C195.155 225.461 198.705 223.775 201.876 223.807C209.037 219.953 217.818 218.573 224.908 215.267C225.813 215.1 225.63 216.143 226.656 215.85C227.288 215.843 227.071 214.761 227.794 214.81C230.414 214.528 232.898 213.503 234.955 211.856C236.928 212.822 238.774 211.233 240.296 210.705C240.717 210.829 240.274 211.921 241.156 211.529C242.113 211.661 241.772 210.113 242.534 209.986C243.682 212.578 245.563 209.399 247.187 209.336C248.812 209.273 249.144 211.614 250.477 210.241C251.042 208.76 249.525 209.618 249.649 208.621C252.317 208.986 253.201 206.75 254.417 204.794C255.043 203.814 256.074 203.114 256.721 202.214C257.567 201.025 258.125 199.32 258.856 197.772C259.754 195.895 260.904 194.677 261.212 193.603C261.796 191.576 261.737 188.103 261.216 186.967C260.614 185.63 259.606 185.997 258.18 185.275C256.648 184.478 255.067 182.27 252.987 182.452C252.904 181.95 253.341 180.868 252.592 181.113C251.551 182.796 249.669 181.718 248.164 181.504C249.671 179.869 252.694 180.606 255.518 180.144C256.12 180.984 254.736 181.879 255.651 182.544C256.272 181.894 257.053 181.419 257.915 181.167C258.778 180.915 259.691 180.894 260.564 181.107C260.217 179.318 262.566 179.188 262.883 177.729C263.236 176.155 261.884 173.851 260.607 173.418C259.641 173.084 257.987 173.407 256.639 173.282C246.832 172.414 235.352 170.941 226.428 172.3C225.988 171.946 226.25 170.808 225.605 170.68C222.703 168.176 219.887 166.778 216.305 165.076C214.774 164.261 213.17 163.591 211.514 163.074C209.751 162.636 207.993 163.019 206.007 162.895C203.271 162.641 200.555 162.199 197.879 161.572C191.911 160.294 186.811 156.093 181.056 156.517C180.495 156.557 179.861 156.928 179.281 156.989C175.685 157.387 171.789 156.675 167.567 157.404C164.396 157.949 159.93 159.209 156.917 158.915C154.463 158.686 151.782 157.292 149.223 157.872C147.997 158.152 146.326 158.412 144.776 158.787C142.345 159.371 139.997 160.624 137.628 161.212C134.503 161.988 131.327 162.023 128.312 162.5C126.747 162.751 124.586 163.565 122.747 163.909C119.355 164.583 115.805 164.945 112.705 165.768C109.753 166.545 107.279 167.768 104.683 167.898C102.795 167.988 100.615 167.75 98.9918 166.651C99.954 165.482 101.034 165.946 101.043 164.59C101.085 161.09 93.7404 165.177 93.4188 161.691C93.2027 159.118 97.4583 159.793 98.7871 159.476C100.911 158.966 102.637 157.246 104.396 157.008C107.966 156.508 111.779 160.571 116.03 158.441C116.608 158.146 117.013 157.117 117.403 156.898C119.594 155.645 120.773 157.289 122.679 157.598C125.076 157.995 127.832 157.389 130.418 157.319C132.891 157.264 135.477 156.865 137.719 156.755L137.735 157.007Z" fill="#60C9EB"/>
<path d="M647.653 204.521L631.138 447.379C626.703 448.195 622.144 449.924 612.527 449.968C594.467 450.053 589.498 444.089 582.286 448.699C582.286 448.699 573.784 454.188 567.345 456.213C563.435 457.439 563.66 456.427 561.229 457.513C556.88 459.451 550.804 471.166 550.804 471.166C545.166 481.955 541.655 482.482 542.577 485.349C544.231 490.277 554.303 487.738 561.505 496.172C562.659 497.518 565.412 500.739 564.36 503.483C563.618 505.348 561.142 506.85 558.919 506.761C558.273 506.73 557.639 506.575 557.051 506.304C555.753 505.758 548.903 502.906 547.265 504.404C545.869 505.7 549.211 509.301 549.572 517.052C549.818 522.549 548.297 524.06 547.478 524.591C546.918 524.934 546.292 525.156 545.641 525.242C545.531 525.35 545.397 525.431 545.25 525.477C545.104 525.523 544.948 525.534 544.796 525.509C543.297 525.331 541.895 524.678 540.794 523.644C536.829 519.777 528.761 504.671 520.625 499.129C510.945 492.544 500.882 499.3 496.289 492.335C494.208 489.171 493.871 484.115 496.176 481.261C500.409 476.029 509.146 482.846 521.222 479.003C525.962 477.493 530.761 471.892 540.344 460.684C543.165 457.401 546.79 452.816 545.394 450.414C545.226 450.142 545.007 449.905 544.749 449.716C541.625 447.029 540.693 441.994 540.491 441.187C539.053 435.397 521.056 427.475 515.788 424.932C512.505 423.346 485.354 409.081 474.55 385.259C473.141 382.152 469.616 373.611 465.961 373.966C463.233 374.227 462.963 379.192 458.559 380.786C455.266 381.975 450.838 380.87 448.37 378.305C443.791 373.525 447.308 365.832 444.431 364.441C441.44 362.991 437.669 371.293 429.43 373.085C420.239 375.08 411.595 367.643 410.225 366.422C401.067 358.246 399.731 345.279 399.269 340.817C398.308 331.451 400.576 327.097 396.846 321.564C394.126 317.536 391.482 317.725 386.568 314.078C385.892 313.591 370.632 301.984 371.856 286.37C372.727 275.033 381.806 267.701 383.426 266.392C391.943 259.519 397.115 262.815 401.06 257.955C409.722 247.31 388.526 226.965 396.217 210.058C400.874 199.817 414.236 195.642 422.599 195.054C444.441 193.584 465.528 214.47 473.378 234.986C481.92 257.242 471.878 271.262 483.697 282.445C494.384 292.557 513.095 291.036 513.972 288.414C514.562 286.639 506.967 284.619 504.501 277.022C502.753 271.68 504.563 266.747 505.039 265.489C507.628 258.716 513.703 255.23 516.229 253.826C537.832 241.816 590.775 244.829 614.607 223.378C620.456 218.112 624.861 211.093 628.369 203.209L647.653 204.521Z" fill="#E9AD62"/>
</g>
<path d="M504.475 183.468C502.449 197.86 499.937 212.213 497.569 226.578C497.227 228.618 496.99 231.433 495.332 232.867C493.675 234.301 491.215 234.09 489.334 233.972C444.644 231.01 400.233 224.753 356.465 215.252C353.926 214.699 350.808 214.041 349.729 211.384C349.064 209.256 348.929 206.998 349.334 204.806C350.387 194.589 351.43 184.35 352.465 174.089C352.992 169.09 353.5 164.086 353.991 159.078C354.36 155.645 353.755 149.975 356.465 147.357C357.179 146.798 358.001 146.392 358.879 146.166C359.758 145.939 360.673 145.897 361.569 146.041C371.672 146.778 381.802 147.502 391.905 148.541C396.128 148.962 400.325 149.449 404.534 149.988C406.586 144.792 408.612 139.595 410.665 134.399C408.994 126.019 408.205 117.297 411.309 109.167C412.466 105.875 414.377 102.899 416.89 100.478C419.403 98.0564 422.447 96.2566 425.78 95.2224C428.247 94.4957 430.843 94.324 433.384 94.7198C435.925 95.1155 438.346 96.0689 440.475 97.5114L440.948 97.3536C444.202 96.3682 447.676 96.375 450.926 97.3732C454.176 98.3714 457.055 100.316 459.195 102.958C461.119 105.527 462.484 108.471 463.202 111.6C463.92 114.729 463.976 117.974 463.365 121.125C461.957 128.716 457.655 135.188 453.169 141.319C453.025 146.778 452.92 152.238 452.814 157.697C461.944 159.451 471.052 161.284 480.138 163.196C485.058 164.248 489.961 165.318 494.846 166.406C497.569 166.998 504.054 167.261 505.62 169.945C506.104 170.969 506.304 172.105 506.199 173.234C506.172 176.641 504.804 181.219 504.475 183.468Z" fill="white"/>
<path d="M506.253 173.192C506.359 172.064 506.159 170.928 505.674 169.903C504.082 167.272 497.623 166.956 494.9 166.364C490.015 165.268 485.112 164.198 480.192 163.154C471.115 161.216 462.007 159.383 452.869 157.655C452.974 152.196 453.079 146.737 453.224 141.277C457.71 135.147 462.012 128.674 463.419 121.084C464.03 117.932 463.975 114.687 463.256 111.559C462.538 108.43 461.173 105.486 459.249 102.916C457.109 100.274 454.23 98.3298 450.98 97.3316C447.73 96.3334 444.257 96.3265 441.003 97.3119L440.529 97.4698C438.4 96.0273 435.979 95.0739 433.438 94.6781C430.898 94.2824 428.301 94.454 425.834 95.1808C422.502 96.215 419.457 98.0148 416.945 100.436C414.432 102.857 412.521 105.833 411.364 109.125C408.259 117.269 409.048 125.977 410.719 134.357C408.667 139.62 406.641 144.75 404.589 149.946C400.379 149.407 396.182 148.92 391.959 148.499C381.856 147.46 371.727 146.737 361.623 146C360.728 145.855 359.812 145.898 358.934 146.124C358.055 146.35 357.233 146.756 356.519 147.315C353.809 149.946 354.414 155.603 354.046 159.037C353.546 164.036 353.037 169.039 352.52 174.047C351.485 184.291 350.441 194.53 349.389 204.765C348.983 206.957 349.119 209.215 349.783 211.342C350.862 213.974 353.98 214.658 356.519 215.21C400.288 224.712 444.698 230.969 489.388 233.93C491.269 234.049 493.848 234.167 495.387 232.825C496.926 231.483 497.281 228.576 497.623 226.537C499.991 212.171 502.504 197.819 504.53 183.427C504.806 181.217 506.174 176.639 506.253 173.192ZM446.291 104.271C447.47 104.262 448.639 104.491 449.729 104.943C450.818 105.395 451.805 106.061 452.632 106.902C454.052 108.569 455.087 110.528 455.665 112.64C456.242 114.753 456.347 116.966 455.973 119.123C454.974 125.951 450.711 131.832 446.673 137.252C446.282 137.778 446.029 138.392 445.936 139.041C445.77 139.383 445.672 139.753 445.646 140.133C445.489 145.5 445.383 150.854 445.278 156.222C442.761 155.766 440.24 155.327 437.714 154.906C437.801 149.644 437.924 144.382 438.082 139.12C442.555 133.002 446.857 126.504 448.264 118.926C449.174 113.955 448.483 108.824 446.291 104.271V104.271ZM432.544 117.795C433.238 113.433 435.508 109.478 438.924 106.679C440.714 109.809 441.378 113.458 440.805 117.019C439.95 123.004 436.517 128.266 432.991 133.121C431.883 128.085 431.732 122.886 432.544 117.795V117.795ZM430.281 146.171C430.215 148.657 430.163 151.17 430.11 153.669C429.242 153.525 428.373 153.38 427.479 153.262C428.426 150.88 429.36 148.526 430.281 146.171V146.171ZM418.52 134.528C417.205 128.332 416.152 121.939 417.376 115.65C418.323 110.822 420.928 105.784 425.479 103.482C427.618 102.338 430.056 101.879 432.465 102.166V102.166C429.811 104.687 427.764 107.777 426.479 111.204C423.388 119.36 424.177 128.069 425.848 136.436C423.795 141.61 421.761 146.785 419.744 151.959C417.297 151.565 414.837 151.223 412.377 150.907C414.131 146.364 415.885 141.843 417.639 137.344C417.633 137.331 417.63 137.318 417.63 137.304C417.63 137.291 417.633 137.277 417.639 137.265C417.978 136.902 418.234 136.468 418.386 135.995C418.538 135.522 418.584 135.021 418.52 134.528V134.528ZM387.342 214.776L384.093 214.21C382.619 213.934 381.146 213.671 379.672 213.382C371.608 211.869 363.583 210.185 355.611 208.277C357.365 189.711 359.282 171.17 361.36 152.656C374.98 153.455 388.574 154.687 402.142 156.353C404.773 156.669 407.404 156.998 410.035 157.34C412.666 157.682 414.929 158.011 417.402 158.353L394.63 215.947C392.196 215.552 389.776 215.158 387.342 214.723L387.342 214.776ZM438.648 222.288L437.503 222.143L429.873 221.13C420.664 219.92 411.456 218.644 402.352 217.183C409.903 197.942 417.459 178.7 425.019 159.458L429.939 160.221C432.465 160.615 435.017 161.036 437.53 161.471L445.094 162.786C444.769 182.879 444.743 202.976 445.015 223.077L438.648 222.288ZM490.967 226.879C482.729 226.974 474.494 226.534 466.314 225.563C461.762 225.103 457.21 224.577 452.685 223.998C452.404 204.046 452.404 184.089 452.685 164.128C458.771 165.259 464.849 166.461 470.918 167.732C480.377 169.719 489.783 171.784 499.202 173.902C496.86 191.68 494.115 209.338 490.967 226.879Z" fill="#E96262"/>
</svg>
