<svg width="504" height="410" viewBox="0 0 504 410" fill="none" xmlns="http://www.w3.org/2000/svg">
<path d="M502 4.70947V405.807H7.4187V8.34343C172.832 8.19157 336.543 4.76371 502 4.70947Z" fill="#E9AD62" stroke="#E9AD62" stroke-width="3.10104"/>
<path d="M499.207 408.381H4.62504C3.92782 408.378 3.26003 408.099 2.76804 407.605C2.27604 407.111 2.00002 406.442 2.00002 405.745V8.25904C1.99859 7.9134 2.06524 7.57084 2.19653 7.25109C2.32781 6.93135 2.52095 6.64066 2.76486 6.39575C3.00876 6.15084 3.29868 5.95651 3.61788 5.82391C3.93708 5.69131 4.27939 5.62303 4.62504 5.62304C86.1441 5.55795 168.607 4.66847 248.369 3.81152C330.43 2.93287 415.29 2.0217 499.207 2C499.903 2 500.571 2.27657 501.063 2.76887C501.555 3.26118 501.832 3.92886 501.832 4.62508V405.723C501.836 406.071 501.771 406.415 501.641 406.738C501.511 407.06 501.319 407.353 501.075 407.6C500.83 407.848 500.54 408.044 500.219 408.178C499.898 408.312 499.554 408.381 499.207 408.381ZM7.26091 403.12H496.571V7.26102C413.544 7.26102 329.617 8.2048 248.423 9.07261C169.507 9.91871 87.9447 10.7973 7.26091 10.8841V403.12Z" fill="#E9AD62" stroke="#E9AD62" stroke-width="3.10104"/>
<path d="M37.6556 383.465C38.9445 378.004 35.5623 372.532 30.1014 371.243C24.6405 369.954 19.1688 373.336 17.8799 378.797C16.591 384.258 19.9731 389.73 25.434 391.019C30.8949 392.308 36.3667 388.926 37.6556 383.465Z" stroke="white" stroke-width="3.10104"/>
<path d="M35.7432 42.0398C39.7108 38.0723 39.7107 31.6397 35.7431 27.6722C31.7756 23.7046 25.3431 23.7045 21.3755 27.6721C17.408 31.6396 17.408 38.0723 21.3755 42.0398C25.343 46.0074 31.7757 46.0074 35.7432 42.0398Z" stroke="white" stroke-width="3.10104"/>
<path d="M480.015 388.504C485.199 386.357 487.66 380.414 485.513 375.23C483.366 370.046 477.423 367.585 472.239 369.732C467.055 371.879 464.594 377.822 466.741 383.006C468.888 388.19 474.831 390.651 480.015 388.504Z" stroke="white" stroke-width="3.10104"/>
<path d="M480.015 42.2697C485.199 40.1225 487.661 34.1795 485.514 28.9956C483.366 23.8118 477.423 21.3501 472.239 23.4974C467.056 25.6446 464.594 31.5876 466.741 36.7714C468.888 41.9553 474.831 44.4169 480.015 42.2697Z" stroke="white" stroke-width="3.10104"/>
<path d="M39.3349 84.631H36.4594C36.3018 84.631 36.1504 84.5596 36.039 84.4326C35.9276 84.3056 35.8652 84.1333 35.8652 83.9537C35.8652 83.774 35.9276 83.6018 36.039 83.4748C36.1504 83.3478 36.3018 83.2764 36.4594 83.2764H39.3349C39.4925 83.2764 39.6436 83.3478 39.755 83.4748C39.8664 83.6018 39.929 83.774 39.929 83.9537C39.929 84.1333 39.8664 84.3056 39.755 84.4326C39.6436 84.5596 39.4925 84.631 39.3349 84.631Z" fill="white" stroke="white" stroke-width="1.55052"/>
<path d="M460.669 84.631H455.472C455.329 84.631 455.191 84.5596 455.089 84.4326C454.988 84.3056 454.931 84.1333 454.931 83.9537C454.931 83.774 454.988 83.6018 455.089 83.4748C455.191 83.3478 455.329 83.2764 455.472 83.2764H460.669C460.813 83.2764 460.95 83.3478 461.052 83.4748C461.153 83.6018 461.21 83.774 461.21 83.9537C461.21 84.1333 461.153 84.3056 461.052 84.4326C460.95 84.5596 460.813 84.631 460.669 84.631ZM445.068 84.631H439.871C439.728 84.631 439.59 84.5596 439.489 84.4326C439.387 84.3056 439.33 84.1333 439.33 83.9537C439.33 83.774 439.387 83.6018 439.489 83.4748C439.59 83.3478 439.728 83.2764 439.871 83.2764H445.068C445.212 83.2764 445.349 83.3478 445.451 83.4748C445.552 83.6018 445.609 83.774 445.609 83.9537C445.609 84.1333 445.552 84.3056 445.451 84.4326C445.349 84.5596 445.212 84.631 445.068 84.631ZM429.478 84.631H424.27C424.127 84.631 423.989 84.5596 423.887 84.4326C423.786 84.3056 423.729 84.1333 423.729 83.9537C423.729 83.774 423.786 83.6018 423.887 83.4748C423.989 83.3478 424.127 83.2764 424.27 83.2764H429.478C429.621 83.2764 429.759 83.3478 429.861 83.4748C429.962 83.6018 430.019 83.774 430.019 83.9537C430.019 84.1333 429.962 84.3056 429.861 84.4326C429.759 84.5596 429.621 84.631 429.478 84.631ZM413.877 84.631H408.68C408.536 84.631 408.399 84.5596 408.297 84.4326C408.196 84.3056 408.139 84.1333 408.139 83.9537C408.139 83.774 408.196 83.6018 408.297 83.4748C408.399 83.3478 408.536 83.2764 408.68 83.2764H413.877C414.02 83.2764 414.158 83.3478 414.259 83.4748C414.361 83.6018 414.418 83.774 414.418 83.9537C414.418 84.1333 414.361 84.3056 414.259 84.4326C414.158 84.5596 414.02 84.631 413.877 84.631ZM398.287 84.631H393.079C392.935 84.631 392.798 84.5596 392.696 84.4326C392.595 84.3056 392.538 84.1333 392.538 83.9537C392.538 83.774 392.595 83.6018 392.696 83.4748C392.798 83.3478 392.935 83.2764 393.079 83.2764H398.287C398.43 83.2764 398.568 83.3478 398.669 83.4748C398.771 83.6018 398.828 83.774 398.828 83.9537C398.828 84.1333 398.771 84.3056 398.669 84.4326C398.568 84.5596 398.43 84.631 398.287 84.631ZM382.685 84.631H377.488C377.345 84.631 377.207 84.5596 377.106 84.4326C377.004 84.3056 376.947 84.1333 376.947 83.9537C376.947 83.774 377.004 83.6018 377.106 83.4748C377.207 83.3478 377.345 83.2764 377.488 83.2764H382.685C382.829 83.2764 382.966 83.3478 383.068 83.4748C383.17 83.6018 383.227 83.774 383.227 83.9537C383.227 84.1333 383.17 84.3056 383.068 84.4326C382.966 84.5596 382.829 84.631 382.685 84.631ZM367.084 84.631H361.887C361.744 84.631 361.606 84.5596 361.505 84.4326C361.403 84.3056 361.346 84.1333 361.346 83.9537C361.346 83.774 361.403 83.6018 361.505 83.4748C361.606 83.3478 361.744 83.2764 361.887 83.2764H367.084C367.228 83.2764 367.366 83.3478 367.467 83.4748C367.569 83.6018 367.626 83.774 367.626 83.9537C367.626 84.1333 367.569 84.3056 367.467 84.4326C367.366 84.5596 367.228 84.631 367.084 84.631ZM351.494 84.631H346.297C346.154 84.631 346.016 84.5596 345.915 84.4326C345.813 84.3056 345.756 84.1333 345.756 83.9537C345.756 83.774 345.813 83.6018 345.915 83.4748C346.016 83.3478 346.154 83.2764 346.297 83.2764H351.494C351.637 83.2764 351.775 83.3478 351.877 83.4748C351.978 83.6018 352.035 83.774 352.035 83.9537C352.035 84.1333 351.978 84.3056 351.877 84.4326C351.775 84.5596 351.637 84.631 351.494 84.631ZM335.893 84.631H330.696C330.553 84.631 330.415 84.5596 330.313 84.4326C330.212 84.3056 330.155 84.1333 330.155 83.9537C330.155 83.774 330.212 83.6018 330.313 83.4748C330.415 83.3478 330.553 83.2764 330.696 83.2764H335.893C336.036 83.2764 336.174 83.3478 336.276 83.4748C336.377 83.6018 336.434 83.774 336.434 83.9537C336.434 84.1333 336.377 84.3056 336.276 84.4326C336.174 84.5596 336.036 84.631 335.893 84.631ZM320.303 84.631H315.095C314.952 84.631 314.814 84.5596 314.712 84.4326C314.611 84.3056 314.554 84.1333 314.554 83.9537C314.554 83.774 314.611 83.6018 314.712 83.4748C314.814 83.3478 314.952 83.2764 315.095 83.2764H320.303C320.446 83.2764 320.584 83.3478 320.685 83.4748C320.787 83.6018 320.844 83.774 320.844 83.9537C320.844 84.1333 320.787 84.3056 320.685 84.4326C320.584 84.5596 320.446 84.631 320.303 84.631ZM304.702 84.631H299.505C299.361 84.631 299.223 84.5596 299.122 84.4326C299.02 84.3056 298.964 84.1333 298.964 83.9537C298.964 83.774 299.02 83.6018 299.122 83.4748C299.223 83.3478 299.361 83.2764 299.505 83.2764H304.702C304.845 83.2764 304.983 83.3478 305.085 83.4748C305.186 83.6018 305.243 83.774 305.243 83.9537C305.243 84.1333 305.186 84.3056 305.085 84.4326C304.983 84.5596 304.845 84.631 304.702 84.631ZM289.101 84.631H283.904C283.76 84.631 283.623 84.5596 283.521 84.4326C283.419 84.3056 283.362 84.1333 283.362 83.9537C283.362 83.774 283.419 83.6018 283.521 83.4748C283.623 83.3478 283.76 83.2764 283.904 83.2764H289.101C289.244 83.2764 289.382 83.3478 289.483 83.4748C289.585 83.6018 289.642 83.774 289.642 83.9537C289.642 84.1333 289.585 84.3056 289.483 84.4326C289.382 84.5596 289.244 84.631 289.101 84.631ZM273.51 84.631H268.314C268.17 84.631 268.032 84.5596 267.931 84.4326C267.829 84.3056 267.772 84.1333 267.772 83.9537C267.772 83.774 267.829 83.6018 267.931 83.4748C268.032 83.3478 268.17 83.2764 268.314 83.2764H273.51C273.654 83.2764 273.792 83.3478 273.893 83.4748C273.995 83.6018 274.052 83.774 274.052 83.9537C274.052 84.1333 273.995 84.3056 273.893 84.4326C273.792 84.5596 273.654 84.631 273.51 84.631ZM257.909 84.631H252.712C252.569 84.631 252.431 84.5596 252.33 84.4326C252.228 84.3056 252.171 84.1333 252.171 83.9537C252.171 83.774 252.228 83.6018 252.33 83.4748C252.431 83.3478 252.569 83.2764 252.712 83.2764H257.909C258.053 83.2764 258.19 83.3478 258.292 83.4748C258.393 83.6018 258.45 83.774 258.45 83.9537C258.45 84.1333 258.393 84.3056 258.292 84.4326C258.19 84.5596 258.053 84.631 257.909 84.631ZM242.319 84.631H237.111C236.968 84.631 236.83 84.5596 236.729 84.4326C236.627 84.3056 236.57 84.1333 236.57 83.9537C236.57 83.774 236.627 83.6018 236.729 83.4748C236.83 83.3478 236.968 83.2764 237.111 83.2764H242.276C242.419 83.2764 242.557 83.3478 242.658 83.4748C242.76 83.6018 242.817 83.774 242.817 83.9537C242.817 84.1333 242.76 84.3056 242.658 84.4326C242.557 84.5596 242.419 84.631 242.276 84.631H242.319ZM226.718 84.631H221.521C221.378 84.631 221.24 84.5596 221.138 84.4326C221.037 84.3056 220.98 84.1333 220.98 83.9537C220.98 83.774 221.037 83.6018 221.138 83.4748C221.24 83.3478 221.378 83.2764 221.521 83.2764H226.718C226.861 83.2764 226.999 83.3478 227.101 83.4748C227.202 83.6018 227.259 83.774 227.259 83.9537C227.259 84.1333 227.202 84.3056 227.101 84.4326C226.999 84.5596 226.861 84.631 226.718 84.631ZM211.128 84.631H205.92C205.776 84.631 205.639 84.5596 205.537 84.4326C205.436 84.3056 205.379 84.1333 205.379 83.9537C205.379 83.774 205.436 83.6018 205.537 83.4748C205.639 83.3478 205.776 83.2764 205.92 83.2764H211.128C211.271 83.2764 211.409 83.3478 211.51 83.4748C211.612 83.6018 211.669 83.774 211.669 83.9537C211.669 84.1333 211.612 84.3056 211.51 84.4326C211.409 84.5596 211.271 84.631 211.128 84.631ZM195.527 84.631H190.308C190.165 84.631 190.027 84.5596 189.925 84.4326C189.824 84.3056 189.767 84.1333 189.767 83.9537C189.767 83.774 189.824 83.6018 189.925 83.4748C190.027 83.3478 190.165 83.2764 190.308 83.2764H195.505C195.649 83.2764 195.786 83.3478 195.888 83.4748C195.989 83.6018 196.046 83.774 196.046 83.9537C196.046 84.1333 195.989 84.3056 195.888 84.4326C195.786 84.5596 195.649 84.631 195.505 84.631H195.527ZM179.925 84.631H174.729C174.585 84.631 174.447 84.5596 174.346 84.4326C174.244 84.3056 174.188 84.1333 174.188 83.9537C174.188 83.774 174.244 83.6018 174.346 83.4748C174.447 83.3478 174.585 83.2764 174.729 83.2764H179.925C180.069 83.2764 180.207 83.3478 180.308 83.4748C180.41 83.6018 180.467 83.774 180.467 83.9537C180.467 84.1333 180.41 84.3056 180.308 84.4326C180.207 84.5596 180.069 84.631 179.925 84.631ZM164.335 84.631H159.138C158.995 84.631 158.857 84.5596 158.756 84.4326C158.654 84.3056 158.597 84.1333 158.597 83.9537C158.597 83.774 158.654 83.6018 158.756 83.4748C158.857 83.3478 158.995 83.2764 159.138 83.2764H164.335C164.479 83.2764 164.616 83.3478 164.718 83.4748C164.819 83.6018 164.877 83.774 164.877 83.9537C164.877 84.1333 164.819 84.3056 164.718 84.4326C164.616 84.5596 164.479 84.631 164.335 84.631ZM148.734 84.631H143.537C143.394 84.631 143.256 84.5596 143.155 84.4326C143.053 84.3056 142.996 84.1333 142.996 83.9537C142.996 83.774 143.053 83.6018 143.155 83.4748C143.256 83.3478 143.394 83.2764 143.537 83.2764H148.734C148.878 83.2764 149.015 83.3478 149.117 83.4748C149.219 83.6018 149.276 83.774 149.276 83.9537C149.276 84.1333 149.219 84.3056 149.117 84.4326C149.015 84.5596 148.878 84.631 148.734 84.631ZM133.144 84.631H127.936C127.793 84.631 127.655 84.5596 127.553 84.4326C127.452 84.3056 127.395 84.1333 127.395 83.9537C127.395 83.774 127.452 83.6018 127.553 83.4748C127.655 83.3478 127.793 83.2764 127.936 83.2764H133.144C133.287 83.2764 133.425 83.3478 133.527 83.4748C133.628 83.6018 133.685 83.774 133.685 83.9537C133.685 84.1333 133.628 84.3056 133.527 84.4326C133.425 84.5596 133.287 84.631 133.144 84.631ZM117.543 84.631H112.357C112.213 84.631 112.076 84.5596 111.974 84.4326C111.873 84.3056 111.816 84.1333 111.816 83.9537C111.816 83.774 111.873 83.6018 111.974 83.4748C112.076 83.3478 112.213 83.2764 112.357 83.2764H117.554C117.697 83.2764 117.835 83.3478 117.936 83.4748C118.038 83.6018 118.095 83.774 118.095 83.9537C118.095 84.1333 118.038 84.3056 117.936 84.4326C117.835 84.5596 117.697 84.631 117.554 84.631H117.543ZM101.942 84.631H96.7451C96.6015 84.631 96.4639 84.5596 96.3623 84.4326C96.2608 84.3056 96.2037 84.1333 96.2037 83.9537C96.2037 83.774 96.2608 83.6018 96.3623 83.4748C96.4639 83.3478 96.6015 83.2764 96.7451 83.2764H101.942C102.085 83.2764 102.223 83.3478 102.325 83.4748C102.426 83.6018 102.483 83.774 102.483 83.9537C102.483 84.1333 102.426 84.3056 102.325 84.4326C102.223 84.5596 102.085 84.631 101.942 84.631ZM86.3515 84.631H81.1547C81.0111 84.631 80.8735 84.5596 80.7719 84.4326C80.6704 84.3056 80.6133 84.1333 80.6133 83.9537C80.6133 83.774 80.6704 83.6018 80.7719 83.4748C80.8735 83.3478 81.0111 83.2764 81.1547 83.2764H86.3515C86.495 83.2764 86.6327 83.3478 86.7342 83.4748C86.8357 83.6018 86.8928 83.774 86.8928 83.9537C86.8928 84.1333 86.8357 84.3056 86.7342 84.4326C86.6327 84.5596 86.495 84.631 86.3515 84.631ZM70.7505 84.631H65.5537C65.4101 84.631 65.2725 84.5596 65.171 84.4326C65.0694 84.3056 65.0124 84.1333 65.0124 83.9537C65.0124 83.774 65.0694 83.6018 65.171 83.4748C65.2725 83.3478 65.4101 83.2764 65.5537 83.2764H70.7505C70.8941 83.2764 71.0317 83.3478 71.1332 83.4748C71.2347 83.6018 71.2918 83.774 71.2918 83.9537C71.2918 84.1333 71.2347 84.3056 71.1332 84.4326C71.0317 84.5596 70.8941 84.631 70.7505 84.631ZM55.1601 84.631H49.9527C49.8091 84.631 49.6712 84.5596 49.5697 84.4326C49.4682 84.3056 49.4114 84.1333 49.4114 83.9537C49.4114 83.774 49.4682 83.6018 49.5697 83.4748C49.6712 83.3478 49.8091 83.2764 49.9527 83.2764H55.1601C55.3036 83.2764 55.4413 83.3478 55.5428 83.4748C55.6443 83.6018 55.7014 83.774 55.7014 83.9537C55.7014 84.1333 55.6443 84.3056 55.5428 84.4326C55.4413 84.5596 55.3036 84.631 55.1601 84.631Z" fill="white" stroke="white" stroke-width="1.55052"/>
<path d="M474.164 84.631H471.285C471.128 84.631 470.977 84.5596 470.866 84.4326C470.755 84.3056 470.693 84.1333 470.693 83.9537C470.693 83.774 470.755 83.6018 470.866 83.4748C470.977 83.3478 471.128 83.2764 471.285 83.2764H474.164C474.321 83.2764 474.472 83.3478 474.583 83.4748C474.694 83.6018 474.756 83.774 474.756 83.9537C474.756 84.1333 474.694 84.3056 474.583 84.4326C474.472 84.5596 474.321 84.631 474.164 84.631Z" fill="white" stroke="white" stroke-width="1.55052"/>
<path d="M39.3434 209.254H36.4509C36.3746 209.256 36.2987 209.24 36.2277 209.207C36.1567 209.175 36.092 209.125 36.0374 209.063C35.9829 209.001 35.9395 208.926 35.9099 208.844C35.8803 208.762 35.8652 208.673 35.8652 208.584C35.8652 208.494 35.8802 208.405 35.9096 208.322C35.939 208.239 35.9821 208.164 36.0365 208.1C36.0909 208.037 36.1557 207.986 36.2268 207.952C36.2979 207.918 36.374 207.9 36.4509 207.9H39.3434C39.4203 207.9 39.4964 207.918 39.5675 207.952C39.6385 207.986 39.7031 208.037 39.7575 208.1C39.8118 208.164 39.855 208.239 39.8844 208.322C39.9138 208.405 39.929 208.494 39.929 208.584C39.9291 208.673 39.914 208.762 39.8844 208.844C39.8548 208.926 39.8114 209.001 39.7569 209.063C39.7023 209.125 39.6376 209.175 39.5666 209.207C39.4956 209.24 39.4197 209.256 39.3434 209.254V209.254Z" fill="white" stroke="white" stroke-width="1.55052"/>
<path d="M460.691 209.254H455.493C455.424 209.256 455.355 209.24 455.291 209.207C455.227 209.174 455.168 209.125 455.119 209.063C455.069 209 455.03 208.926 455.003 208.844C454.977 208.761 454.963 208.673 454.963 208.584C454.963 208.494 454.976 208.405 455.003 208.322C455.03 208.239 455.069 208.164 455.118 208.1C455.167 208.037 455.226 207.986 455.29 207.952C455.355 207.918 455.423 207.9 455.493 207.9H460.691C460.76 207.9 460.828 207.918 460.892 207.952C460.956 207.987 461.014 208.037 461.062 208.101C461.11 208.165 461.148 208.24 461.174 208.323C461.199 208.406 461.212 208.495 461.21 208.584C461.212 208.672 461.199 208.76 461.174 208.842C461.148 208.925 461.11 208.999 461.061 209.062C461.013 209.124 460.955 209.174 460.891 209.207C460.827 209.24 460.759 209.256 460.691 209.254V209.254ZM445.088 209.254H439.891C439.822 209.256 439.754 209.24 439.69 209.207C439.626 209.174 439.568 209.124 439.52 209.062C439.471 208.999 439.433 208.925 439.407 208.842C439.382 208.76 439.369 208.672 439.371 208.584C439.369 208.495 439.382 208.406 439.407 208.323C439.433 208.24 439.471 208.165 439.519 208.101C439.568 208.037 439.625 207.987 439.689 207.952C439.753 207.918 439.821 207.9 439.891 207.9H445.088C445.158 207.9 445.227 207.918 445.291 207.952C445.355 207.986 445.414 208.037 445.463 208.1C445.512 208.164 445.551 208.239 445.578 208.322C445.605 208.405 445.618 208.494 445.618 208.584C445.618 208.673 445.605 208.761 445.578 208.844C445.551 208.926 445.512 209 445.462 209.063C445.413 209.125 445.354 209.174 445.29 209.207C445.226 209.24 445.157 209.256 445.088 209.254ZM429.496 209.254H424.288C424.15 209.254 424.018 209.183 423.92 209.058C423.823 208.932 423.768 208.762 423.768 208.584C423.768 208.405 423.823 208.233 423.92 208.105C424.017 207.977 424.149 207.904 424.288 207.9H429.496C429.565 207.9 429.634 207.918 429.697 207.952C429.761 207.987 429.819 208.037 429.867 208.101C429.916 208.165 429.954 208.24 429.979 208.323C430.005 208.406 430.017 208.495 430.016 208.584C430.017 208.672 430.005 208.76 429.979 208.842C429.953 208.925 429.915 208.999 429.867 209.062C429.818 209.124 429.76 209.174 429.697 209.207C429.633 209.24 429.565 209.256 429.496 209.254V209.254ZM413.893 209.254H408.696C408.627 209.256 408.558 209.24 408.494 209.207C408.429 209.174 408.371 209.125 408.321 209.063C408.272 209 408.233 208.926 408.206 208.844C408.179 208.761 408.165 208.673 408.165 208.584C408.165 208.494 408.179 208.405 408.206 208.322C408.232 208.239 408.272 208.164 408.321 208.1C408.37 208.037 408.429 207.986 408.493 207.952C408.557 207.918 408.626 207.9 408.696 207.9H413.893C413.963 207.9 414.032 207.918 414.096 207.952C414.161 207.986 414.219 208.037 414.268 208.1C414.318 208.164 414.357 208.239 414.383 208.322C414.41 208.405 414.424 208.494 414.424 208.584C414.424 208.673 414.41 208.761 414.383 208.844C414.357 208.926 414.317 209 414.268 209.063C414.218 209.125 414.16 209.174 414.095 209.207C414.031 209.24 413.962 209.256 413.893 209.254V209.254ZM398.301 209.254H393.093C392.955 209.254 392.823 209.183 392.726 209.058C392.628 208.932 392.574 208.762 392.574 208.584C392.574 208.405 392.628 208.233 392.725 208.105C392.822 207.977 392.954 207.904 393.093 207.9H398.301C398.44 207.904 398.572 207.977 398.669 208.105C398.767 208.233 398.821 208.405 398.821 208.584C398.821 208.762 398.766 208.932 398.669 209.058C398.571 209.183 398.439 209.254 398.301 209.254ZM382.699 209.254H377.501C377.432 209.256 377.363 209.24 377.299 209.207C377.235 209.174 377.176 209.125 377.127 209.063C377.078 209 377.038 208.926 377.011 208.844C376.985 208.761 376.971 208.673 376.971 208.584C376.971 208.494 376.985 208.405 377.011 208.322C377.038 208.239 377.077 208.164 377.126 208.1C377.175 208.037 377.234 207.986 377.298 207.952C377.363 207.918 377.432 207.9 377.501 207.9H382.699C382.768 207.9 382.836 207.918 382.9 207.952C382.964 207.987 383.022 208.037 383.07 208.101C383.118 208.165 383.157 208.24 383.182 208.323C383.208 208.406 383.22 208.495 383.218 208.584C383.22 208.672 383.207 208.76 383.182 208.842C383.156 208.925 383.118 208.999 383.069 209.062C383.021 209.124 382.963 209.174 382.899 209.207C382.836 209.24 382.767 209.256 382.699 209.254V209.254ZM367.096 209.254H361.899C361.83 209.256 361.762 209.24 361.698 209.207C361.634 209.174 361.576 209.124 361.528 209.062C361.479 208.999 361.441 208.925 361.415 208.842C361.39 208.76 361.377 208.672 361.379 208.584C361.378 208.495 361.39 208.406 361.415 208.323C361.441 208.24 361.479 208.165 361.527 208.101C361.576 208.037 361.633 207.987 361.697 207.952C361.761 207.918 361.829 207.9 361.899 207.9H367.096C367.237 207.9 367.372 207.972 367.471 208.1C367.571 208.229 367.627 208.403 367.627 208.584C367.627 208.673 367.613 208.761 367.586 208.844C367.559 208.926 367.52 209 367.471 209.063C367.421 209.125 367.363 209.174 367.298 209.207C367.234 209.24 367.165 209.256 367.096 209.254V209.254ZM351.504 209.254H346.307C346.238 209.256 346.169 209.24 346.105 209.207C346.04 209.174 345.982 209.125 345.932 209.063C345.883 209 345.844 208.926 345.817 208.844C345.79 208.761 345.776 208.673 345.776 208.584C345.776 208.494 345.79 208.405 345.817 208.322C345.843 208.239 345.882 208.164 345.932 208.1C345.981 208.037 346.04 207.986 346.104 207.952C346.168 207.918 346.237 207.9 346.307 207.9H351.504C351.573 207.9 351.642 207.918 351.705 207.952C351.769 207.987 351.827 208.037 351.875 208.101C351.924 208.165 351.962 208.24 351.987 208.323C352.013 208.406 352.025 208.495 352.024 208.584C352.025 208.672 352.013 208.76 351.987 208.842C351.962 208.925 351.923 208.999 351.875 209.062C351.826 209.124 351.768 209.174 351.705 209.207C351.641 209.24 351.573 209.256 351.504 209.254V209.254ZM335.901 209.254H330.704C330.635 209.256 330.567 209.24 330.503 209.207C330.44 209.174 330.382 209.124 330.333 209.062C330.285 208.999 330.247 208.925 330.221 208.842C330.195 208.76 330.183 208.672 330.184 208.584C330.183 208.495 330.195 208.406 330.221 208.323C330.246 208.24 330.284 208.165 330.333 208.101C330.381 208.037 330.439 207.987 330.503 207.952C330.566 207.918 330.635 207.9 330.704 207.9H335.901C335.971 207.9 336.04 207.918 336.104 207.952C336.169 207.986 336.227 208.037 336.276 208.1C336.326 208.164 336.365 208.239 336.391 208.322C336.418 208.405 336.432 208.494 336.432 208.584C336.432 208.673 336.418 208.761 336.391 208.844C336.365 208.926 336.325 209 336.276 209.063C336.227 209.125 336.168 209.174 336.104 209.207C336.039 209.24 335.971 209.256 335.901 209.254V209.254ZM320.31 209.254H315.101C314.964 209.254 314.831 209.183 314.734 209.058C314.636 208.932 314.582 208.762 314.582 208.584C314.582 208.405 314.636 208.233 314.733 208.105C314.83 207.977 314.963 207.904 315.101 207.9H320.31C320.448 207.904 320.581 207.977 320.678 208.105C320.775 208.233 320.829 208.405 320.829 208.584C320.829 208.762 320.775 208.932 320.677 209.058C320.58 209.183 320.447 209.254 320.31 209.254ZM304.707 209.254H299.51C299.44 209.256 299.372 209.24 299.307 209.207C299.243 209.174 299.184 209.125 299.135 209.063C299.086 209 299.046 208.926 299.02 208.844C298.993 208.761 298.979 208.673 298.979 208.584C298.979 208.403 299.035 208.229 299.134 208.1C299.234 207.972 299.369 207.9 299.51 207.9H304.707C304.776 207.9 304.845 207.918 304.91 207.952C304.974 207.986 305.033 208.037 305.082 208.1C305.131 208.164 305.17 208.239 305.197 208.322C305.224 208.405 305.237 208.494 305.237 208.584C305.237 208.673 305.224 208.761 305.197 208.844C305.17 208.926 305.131 209 305.081 209.063C305.032 209.125 304.973 209.174 304.909 209.207C304.845 209.24 304.776 209.256 304.707 209.254ZM289.104 209.254H283.907C283.838 209.256 283.77 209.24 283.706 209.207C283.642 209.174 283.585 209.124 283.536 209.062C283.488 208.999 283.449 208.925 283.424 208.842C283.398 208.76 283.386 208.672 283.387 208.584C283.386 208.495 283.398 208.406 283.424 208.323C283.449 208.24 283.487 208.165 283.535 208.101C283.584 208.037 283.642 207.987 283.705 207.952C283.769 207.918 283.838 207.9 283.907 207.9H289.104C289.174 207.9 289.243 207.918 289.307 207.952C289.372 207.986 289.43 208.037 289.479 208.1C289.528 208.164 289.568 208.239 289.594 208.322C289.621 208.405 289.635 208.494 289.635 208.584C289.635 208.673 289.621 208.761 289.594 208.844C289.567 208.926 289.528 209 289.479 209.063C289.429 209.125 289.371 209.174 289.306 209.207C289.242 209.24 289.173 209.256 289.104 209.254ZM273.512 209.254H268.315C268.246 209.256 268.177 209.24 268.113 209.207C268.048 209.174 267.99 209.125 267.94 209.063C267.891 209 267.852 208.926 267.825 208.844C267.798 208.761 267.784 208.673 267.784 208.584C267.784 208.494 267.798 208.405 267.825 208.322C267.852 208.239 267.891 208.164 267.94 208.1C267.989 208.037 268.048 207.986 268.112 207.952C268.176 207.918 268.245 207.9 268.315 207.9H273.512C273.582 207.9 273.65 207.918 273.714 207.952C273.778 207.987 273.835 208.037 273.884 208.101C273.932 208.165 273.97 208.24 273.996 208.323C274.021 208.406 274.033 208.495 274.032 208.584C274.034 208.672 274.021 208.76 273.995 208.842C273.97 208.925 273.932 208.999 273.883 209.062C273.834 209.124 273.777 209.174 273.713 209.207C273.649 209.24 273.581 209.256 273.512 209.254V209.254ZM257.909 209.254H252.712C252.643 209.256 252.575 209.24 252.511 209.207C252.448 209.174 252.39 209.124 252.342 209.062C252.293 208.999 252.255 208.925 252.229 208.842C252.204 208.76 252.191 208.672 252.192 208.584C252.191 208.495 252.203 208.406 252.229 208.323C252.254 208.24 252.293 208.165 252.341 208.101C252.389 208.037 252.447 207.987 252.511 207.952C252.574 207.918 252.643 207.9 252.712 207.9H257.909C258.05 207.9 258.185 207.972 258.285 208.1C258.384 208.229 258.44 208.403 258.44 208.584C258.44 208.673 258.426 208.761 258.4 208.844C258.373 208.926 258.333 209 258.284 209.063C258.235 209.125 258.176 209.174 258.112 209.207C258.047 209.24 257.979 209.256 257.909 209.254V209.254ZM242.318 209.254H237.11C236.972 209.254 236.84 209.183 236.742 209.058C236.645 208.932 236.59 208.762 236.59 208.584C236.59 208.405 236.644 208.233 236.741 208.105C236.838 207.977 236.971 207.904 237.11 207.9H242.274C242.413 207.904 242.545 207.977 242.643 208.105C242.74 208.233 242.794 208.405 242.794 208.584C242.794 208.762 242.739 208.932 242.642 209.058C242.544 209.183 242.412 209.254 242.274 209.254H242.318ZM226.715 209.254H221.518C221.449 209.256 221.38 209.24 221.316 209.207C221.251 209.174 221.193 209.125 221.143 209.063C221.094 209 221.054 208.926 221.028 208.844C221.001 208.761 220.987 208.673 220.987 208.584C220.987 208.494 221.001 208.405 221.027 208.322C221.054 208.239 221.093 208.164 221.142 208.1C221.192 208.037 221.25 207.986 221.315 207.952C221.379 207.918 221.448 207.9 221.518 207.9H226.715C226.856 207.9 226.991 207.972 227.09 208.1C227.19 208.229 227.246 208.403 227.246 208.584C227.246 208.673 227.232 208.761 227.205 208.844C227.178 208.926 227.139 209 227.089 209.063C227.04 209.125 226.981 209.174 226.917 209.207C226.853 209.24 226.784 209.256 226.715 209.254V209.254ZM211.123 209.254H205.915C205.846 209.256 205.778 209.24 205.714 209.207C205.651 209.174 205.593 209.124 205.544 209.062C205.496 208.999 205.458 208.925 205.432 208.842C205.406 208.76 205.394 208.672 205.395 208.584C205.394 208.495 205.406 208.406 205.432 208.323C205.457 208.24 205.495 208.165 205.543 208.101C205.592 208.037 205.65 207.987 205.713 207.952C205.777 207.918 205.846 207.9 205.915 207.9H211.123C211.262 207.904 211.394 207.977 211.491 208.105C211.588 208.233 211.643 208.405 211.643 208.584C211.643 208.672 211.629 208.759 211.603 208.84C211.577 208.922 211.539 208.995 211.49 209.058C211.442 209.12 211.385 209.169 211.322 209.203C211.259 209.237 211.191 209.254 211.123 209.254V209.254ZM195.52 209.254H190.301C190.232 209.256 190.164 209.24 190.099 209.207C190.035 209.174 189.976 209.125 189.927 209.063C189.877 209 189.838 208.926 189.811 208.844C189.785 208.761 189.771 208.673 189.771 208.584C189.771 208.494 189.785 208.405 189.811 208.322C189.838 208.239 189.877 208.164 189.926 208.1C189.976 208.037 190.034 207.986 190.098 207.952C190.163 207.918 190.232 207.9 190.301 207.9H195.499C195.568 207.9 195.636 207.918 195.7 207.952C195.764 207.987 195.822 208.037 195.87 208.101C195.919 208.165 195.957 208.24 195.982 208.323C196.007 208.406 196.02 208.495 196.018 208.584C196.02 208.67 196.008 208.756 195.984 208.836C195.96 208.916 195.923 208.99 195.877 209.052C195.831 209.114 195.775 209.164 195.714 209.199C195.653 209.233 195.587 209.252 195.52 209.254V209.254ZM179.918 209.254H174.72C174.652 209.256 174.584 209.24 174.52 209.207C174.456 209.174 174.398 209.124 174.35 209.062C174.301 208.999 174.263 208.925 174.237 208.842C174.212 208.76 174.199 208.672 174.201 208.584C174.199 208.495 174.212 208.406 174.237 208.323C174.262 208.24 174.301 208.165 174.349 208.101C174.397 208.037 174.455 207.987 174.519 207.952C174.583 207.918 174.651 207.9 174.72 207.9H179.918C179.987 207.9 180.056 207.918 180.121 207.952C180.185 207.986 180.244 208.037 180.293 208.1C180.342 208.164 180.381 208.239 180.408 208.322C180.435 208.405 180.448 208.494 180.448 208.584C180.448 208.673 180.434 208.761 180.408 208.844C180.381 208.926 180.342 209 180.292 209.063C180.243 209.125 180.184 209.174 180.12 209.207C180.055 209.24 179.987 209.256 179.918 209.254V209.254ZM164.326 209.254H159.128C159.059 209.256 158.991 209.24 158.926 209.207C158.862 209.174 158.803 209.125 158.754 209.063C158.704 209 158.665 208.926 158.639 208.844C158.612 208.761 158.598 208.673 158.598 208.584C158.598 208.403 158.654 208.229 158.753 208.1C158.853 207.972 158.988 207.9 159.128 207.9H164.326C164.395 207.9 164.463 207.918 164.527 207.952C164.591 207.987 164.649 208.037 164.697 208.101C164.746 208.165 164.784 208.24 164.809 208.323C164.835 208.406 164.847 208.495 164.846 208.584C164.847 208.674 164.834 208.763 164.808 208.846C164.782 208.929 164.743 209.004 164.693 209.067C164.643 209.13 164.584 209.179 164.519 209.211C164.454 209.243 164.385 209.258 164.315 209.254H164.326ZM148.723 209.254H143.526C143.457 209.256 143.388 209.24 143.324 209.207C143.259 209.174 143.201 209.125 143.151 209.063C143.102 209 143.063 208.926 143.036 208.844C143.009 208.761 142.995 208.673 142.995 208.584C142.995 208.494 143.009 208.405 143.036 208.322C143.062 208.239 143.101 208.164 143.151 208.1C143.2 208.037 143.258 207.986 143.323 207.952C143.387 207.918 143.456 207.9 143.526 207.9H148.723C148.793 207.9 148.862 207.918 148.926 207.952C148.991 207.986 149.049 208.037 149.098 208.1C149.148 208.164 149.187 208.239 149.213 208.322C149.24 208.405 149.254 208.494 149.254 208.584C149.254 208.673 149.24 208.761 149.213 208.844C149.186 208.926 149.147 209 149.098 209.063C149.048 209.125 148.99 209.174 148.925 209.207C148.861 209.24 148.792 209.256 148.723 209.254V209.254ZM133.131 209.254H127.923C127.785 209.254 127.653 209.183 127.556 209.058C127.458 208.932 127.403 208.762 127.403 208.584C127.403 208.405 127.458 208.233 127.555 208.105C127.652 207.977 127.784 207.904 127.923 207.9H133.131C133.27 207.904 133.402 207.977 133.499 208.105C133.597 208.233 133.651 208.405 133.651 208.584C133.651 208.672 133.638 208.759 133.611 208.84C133.585 208.922 133.547 208.995 133.499 209.058C133.45 209.12 133.393 209.169 133.33 209.203C133.267 209.237 133.199 209.254 133.131 209.254V209.254ZM117.529 209.254H112.342C112.273 209.256 112.204 209.24 112.14 209.207C112.076 209.174 112.017 209.125 111.967 209.063C111.918 209 111.879 208.926 111.852 208.844C111.825 208.761 111.811 208.673 111.812 208.584C111.812 208.494 111.825 208.405 111.852 208.322C111.879 208.239 111.918 208.164 111.967 208.1C112.016 208.037 112.075 207.986 112.139 207.952C112.203 207.918 112.272 207.9 112.342 207.9H117.539C117.609 207.9 117.678 207.918 117.742 207.952C117.807 207.986 117.865 208.037 117.915 208.1C117.964 208.164 118.003 208.239 118.029 208.322C118.056 208.405 118.07 208.494 118.07 208.584C118.07 208.674 118.056 208.764 118.028 208.847C118.001 208.93 117.961 209.005 117.91 209.068C117.859 209.13 117.8 209.179 117.734 209.211C117.668 209.243 117.599 209.258 117.529 209.254V209.254ZM101.926 209.254H96.7286C96.6599 209.256 96.5917 209.24 96.528 209.207C96.4642 209.174 96.4063 209.124 96.3577 209.062C96.3092 208.999 96.271 208.925 96.2454 208.842C96.2198 208.76 96.2074 208.672 96.2089 208.584C96.2075 208.495 96.2196 208.406 96.2451 208.323C96.2706 208.24 96.3088 208.165 96.3572 208.101C96.4056 208.037 96.4634 207.987 96.5272 207.952C96.5909 207.918 96.6594 207.9 96.7286 207.9H101.926C101.995 207.9 102.065 207.918 102.129 207.952C102.193 207.986 102.252 208.037 102.301 208.1C102.35 208.164 102.389 208.239 102.416 208.322C102.443 208.405 102.456 208.494 102.456 208.584C102.457 208.673 102.443 208.761 102.416 208.844C102.389 208.926 102.35 209 102.3 209.063C102.251 209.125 102.192 209.174 102.128 209.207C102.064 209.24 101.995 209.256 101.926 209.254V209.254ZM86.3339 209.254H81.1366C81.0674 209.256 80.9987 209.24 80.9343 209.207C80.87 209.174 80.8114 209.125 80.762 209.063C80.7126 209 80.6735 208.926 80.6467 208.844C80.6199 208.761 80.606 208.673 80.606 208.584C80.606 208.494 80.6198 208.405 80.6465 208.322C80.6731 208.239 80.7122 208.164 80.7615 208.1C80.8107 208.037 80.8692 207.986 80.9335 207.952C80.9979 207.918 81.0669 207.9 81.1366 207.9H86.3339C86.4031 207.9 86.4716 207.918 86.5353 207.952C86.5991 207.987 86.6569 208.037 86.7053 208.101C86.7537 208.165 86.7917 208.24 86.8171 208.323C86.8426 208.406 86.8551 208.495 86.8536 208.584C86.8551 208.67 86.8432 208.756 86.819 208.836C86.7947 208.916 86.7584 208.99 86.7122 209.052C86.6659 209.114 86.6108 209.164 86.5496 209.199C86.4884 209.233 86.4224 209.252 86.3556 209.254H86.3339ZM70.7313 209.254H65.534C65.4653 209.256 65.397 209.24 65.3333 209.207C65.2696 209.174 65.2116 209.124 65.1631 209.062C65.1145 208.999 65.0763 208.925 65.0507 208.842C65.0251 208.76 65.0128 208.672 65.0142 208.584C65.0128 208.495 65.0253 208.406 65.0507 208.323C65.0762 208.24 65.1141 208.165 65.1625 208.101C65.211 208.037 65.2688 207.987 65.3325 207.952C65.3963 207.918 65.4648 207.9 65.534 207.9H70.7313C70.801 207.9 70.87 207.918 70.9343 207.952C70.9987 207.986 71.0571 208.037 71.1064 208.1C71.1557 208.164 71.1947 208.239 71.2214 208.322C71.2481 208.405 71.2618 208.494 71.2618 208.584C71.2619 208.673 71.2479 208.761 71.2211 208.844C71.1943 208.926 71.1553 209 71.1059 209.063C71.0565 209.125 70.9978 209.174 70.9335 209.207C70.8692 209.24 70.8005 209.256 70.7313 209.254V209.254ZM55.1393 209.254H49.9313C49.7935 209.254 49.6611 209.183 49.5636 209.058C49.4662 208.932 49.4114 208.762 49.4114 208.584C49.4113 208.405 49.4659 208.233 49.5631 208.105C49.6603 207.977 49.7925 207.904 49.9313 207.9H55.1393C55.2781 207.904 55.4103 207.977 55.5075 208.105C55.6047 208.233 55.659 208.405 55.659 208.584C55.659 208.672 55.6457 208.759 55.6196 208.84C55.5935 208.922 55.5552 208.995 55.507 209.058C55.4587 209.12 55.4014 209.169 55.3383 209.203C55.2753 209.237 55.2075 209.254 55.1393 209.254V209.254Z" fill="white" stroke="white" stroke-width="1.55052"/>
<path d="M474.181 209.255H471.268C471.115 209.255 470.969 209.184 470.861 209.058C470.753 208.932 470.692 208.762 470.692 208.584C470.692 208.405 470.753 208.233 470.86 208.105C470.968 207.977 471.114 207.904 471.268 207.9H474.181C474.334 207.904 474.481 207.977 474.588 208.105C474.696 208.233 474.756 208.405 474.756 208.584C474.756 208.762 474.696 208.932 474.588 209.058C474.48 209.184 474.333 209.255 474.181 209.255Z" fill="white" stroke="white" stroke-width="1.55052"/>
<path d="M39.3434 335.232H36.4509C36.2956 335.232 36.1464 335.16 36.0365 335.032C35.9267 334.903 35.8652 334.729 35.8652 334.548C35.8652 334.459 35.8803 334.37 35.9099 334.288C35.9395 334.206 35.9829 334.131 36.0374 334.069C36.092 334.006 36.1567 333.957 36.2277 333.925C36.2987 333.892 36.3746 333.876 36.4509 333.878H39.3434C39.4197 333.876 39.4956 333.892 39.5666 333.925C39.6376 333.957 39.7023 334.006 39.7569 334.069C39.8114 334.131 39.8548 334.206 39.8844 334.288C39.914 334.37 39.9291 334.459 39.929 334.548C39.929 334.729 39.8673 334.903 39.7575 335.032C39.6476 335.16 39.4987 335.232 39.3434 335.232Z" fill="white" stroke="white" stroke-width="1.55052"/>
<path d="M460.691 335.232H455.493C455.352 335.232 455.218 335.16 455.118 335.032C455.019 334.903 454.963 334.729 454.963 334.548C454.963 334.459 454.977 334.37 455.003 334.288C455.03 334.206 455.069 334.131 455.119 334.069C455.168 334.006 455.227 333.957 455.291 333.925C455.355 333.892 455.424 333.876 455.493 333.878H460.691C460.759 333.876 460.827 333.892 460.891 333.925C460.955 333.958 461.013 334.007 461.061 334.07C461.11 334.132 461.148 334.207 461.174 334.289C461.199 334.371 461.212 334.459 461.21 334.548C461.212 334.637 461.199 334.726 461.174 334.809C461.148 334.891 461.11 334.967 461.062 335.031C461.014 335.094 460.956 335.145 460.892 335.18C460.828 335.214 460.76 335.232 460.691 335.232V335.232ZM445.088 335.232H439.891C439.821 335.232 439.753 335.214 439.689 335.18C439.625 335.145 439.568 335.094 439.519 335.031C439.471 334.967 439.433 334.891 439.407 334.809C439.382 334.726 439.369 334.637 439.371 334.548C439.369 334.459 439.382 334.371 439.407 334.289C439.433 334.207 439.471 334.132 439.52 334.07C439.568 334.007 439.626 333.958 439.69 333.925C439.754 333.892 439.822 333.876 439.891 333.878H445.088C445.157 333.876 445.226 333.892 445.29 333.925C445.354 333.957 445.413 334.006 445.462 334.069C445.512 334.131 445.551 334.206 445.578 334.288C445.605 334.37 445.618 334.459 445.618 334.548C445.618 334.729 445.563 334.903 445.463 335.032C445.364 335.16 445.229 335.232 445.088 335.232ZM429.496 335.232H424.288C424.149 335.228 424.017 335.155 423.92 335.027C423.823 334.899 423.768 334.727 423.768 334.548C423.768 334.37 423.823 334.2 423.92 334.074C424.018 333.948 424.15 333.878 424.288 333.878H429.496C429.565 333.876 429.633 333.892 429.697 333.925C429.76 333.958 429.818 334.007 429.867 334.07C429.915 334.132 429.953 334.207 429.979 334.289C430.005 334.371 430.017 334.459 430.016 334.548C430.017 334.637 430.005 334.726 429.979 334.809C429.954 334.891 429.916 334.967 429.867 335.031C429.819 335.094 429.761 335.145 429.697 335.18C429.634 335.214 429.565 335.232 429.496 335.232V335.232ZM413.893 335.232H408.696C408.555 335.232 408.42 335.16 408.321 335.032C408.221 334.903 408.165 334.729 408.165 334.548C408.165 334.459 408.179 334.37 408.206 334.288C408.233 334.206 408.272 334.131 408.321 334.069C408.371 334.006 408.429 333.957 408.494 333.925C408.558 333.892 408.627 333.876 408.696 333.878H413.893C413.962 333.876 414.031 333.892 414.095 333.925C414.16 333.957 414.218 334.006 414.268 334.069C414.317 334.131 414.357 334.206 414.383 334.288C414.41 334.37 414.424 334.459 414.424 334.548C414.424 334.729 414.368 334.903 414.268 335.032C414.169 335.16 414.034 335.232 413.893 335.232ZM398.301 335.232H393.093C392.954 335.228 392.822 335.155 392.725 335.027C392.628 334.899 392.574 334.727 392.574 334.548C392.574 334.37 392.628 334.2 392.726 334.074C392.823 333.948 392.955 333.878 393.093 333.878H398.301C398.439 333.878 398.571 333.948 398.669 334.074C398.766 334.2 398.821 334.37 398.821 334.548C398.821 334.727 398.767 334.899 398.669 335.027C398.572 335.155 398.44 335.228 398.301 335.232ZM382.699 335.232H377.501C377.361 335.232 377.226 335.16 377.126 335.032C377.027 334.903 376.971 334.729 376.971 334.548C376.971 334.459 376.985 334.37 377.011 334.288C377.038 334.206 377.078 334.131 377.127 334.069C377.176 334.006 377.235 333.957 377.299 333.925C377.363 333.892 377.432 333.876 377.501 333.878H382.699C382.767 333.876 382.836 333.892 382.899 333.925C382.963 333.958 383.021 334.007 383.069 334.07C383.118 334.132 383.156 334.207 383.182 334.289C383.207 334.371 383.22 334.459 383.218 334.548C383.22 334.637 383.208 334.726 383.182 334.809C383.157 334.891 383.118 334.967 383.07 335.031C383.022 335.094 382.964 335.145 382.9 335.18C382.836 335.214 382.768 335.232 382.699 335.232V335.232ZM367.096 335.232H361.899C361.829 335.232 361.761 335.214 361.697 335.18C361.633 335.145 361.576 335.094 361.527 335.031C361.479 334.967 361.441 334.891 361.415 334.809C361.39 334.726 361.378 334.637 361.379 334.548C361.377 334.459 361.39 334.371 361.415 334.289C361.441 334.207 361.479 334.132 361.528 334.07C361.576 334.007 361.634 333.958 361.698 333.925C361.762 333.892 361.83 333.876 361.899 333.878H367.096C367.165 333.876 367.234 333.892 367.298 333.925C367.363 333.957 367.421 334.006 367.471 334.069C367.52 334.131 367.559 334.206 367.586 334.288C367.613 334.37 367.627 334.459 367.627 334.548C367.627 334.729 367.571 334.903 367.471 335.032C367.372 335.16 367.237 335.232 367.096 335.232ZM351.504 335.232H346.307C346.166 335.232 346.031 335.16 345.932 335.032C345.832 334.903 345.776 334.729 345.776 334.548C345.776 334.459 345.79 334.37 345.817 334.288C345.844 334.206 345.883 334.131 345.932 334.069C345.982 334.006 346.04 333.957 346.105 333.925C346.169 333.892 346.238 333.876 346.307 333.878H351.504C351.573 333.876 351.641 333.892 351.705 333.925C351.768 333.958 351.826 334.007 351.875 334.07C351.923 334.132 351.962 334.207 351.987 334.289C352.013 334.371 352.025 334.459 352.024 334.548C352.025 334.637 352.013 334.726 351.987 334.809C351.962 334.891 351.924 334.967 351.875 335.031C351.827 335.094 351.769 335.145 351.705 335.18C351.642 335.214 351.573 335.232 351.504 335.232V335.232ZM335.901 335.232H330.704C330.635 335.232 330.566 335.214 330.503 335.18C330.439 335.145 330.381 335.094 330.333 335.031C330.284 334.967 330.246 334.891 330.221 334.809C330.195 334.726 330.183 334.637 330.184 334.548C330.183 334.459 330.195 334.371 330.221 334.289C330.247 334.207 330.285 334.132 330.333 334.07C330.382 334.007 330.44 333.958 330.503 333.925C330.567 333.892 330.635 333.876 330.704 333.878H335.901C335.971 333.876 336.039 333.892 336.104 333.925C336.168 333.957 336.227 334.006 336.276 334.069C336.325 334.131 336.365 334.206 336.391 334.288C336.418 334.37 336.432 334.459 336.432 334.548C336.432 334.638 336.418 334.727 336.391 334.81C336.365 334.893 336.326 334.968 336.276 335.032C336.227 335.095 336.169 335.145 336.104 335.18C336.04 335.214 335.971 335.232 335.901 335.232V335.232ZM320.31 335.232H315.101C314.963 335.228 314.83 335.155 314.733 335.027C314.636 334.899 314.582 334.727 314.582 334.548C314.582 334.37 314.636 334.2 314.734 334.074C314.831 333.948 314.964 333.878 315.101 333.878H320.31C320.447 333.878 320.58 333.948 320.677 334.074C320.775 334.2 320.829 334.37 320.829 334.548C320.829 334.727 320.775 334.899 320.678 335.027C320.581 335.155 320.448 335.228 320.31 335.232V335.232ZM304.707 335.232H299.51C299.369 335.232 299.234 335.16 299.134 335.032C299.035 334.903 298.979 334.729 298.979 334.548C298.979 334.459 298.993 334.37 299.02 334.288C299.046 334.206 299.086 334.131 299.135 334.069C299.184 334.006 299.243 333.957 299.307 333.925C299.372 333.892 299.44 333.876 299.51 333.878H304.707C304.776 333.876 304.845 333.892 304.909 333.925C304.973 333.957 305.032 334.006 305.081 334.069C305.131 334.131 305.17 334.206 305.197 334.288C305.224 334.37 305.237 334.459 305.237 334.548C305.237 334.638 305.224 334.727 305.197 334.81C305.17 334.893 305.131 334.968 305.082 335.032C305.033 335.095 304.974 335.145 304.91 335.18C304.845 335.214 304.776 335.232 304.707 335.232V335.232ZM289.104 335.232H283.907C283.838 335.232 283.769 335.214 283.705 335.18C283.642 335.145 283.584 335.094 283.535 335.031C283.487 334.967 283.449 334.891 283.424 334.809C283.398 334.726 283.386 334.637 283.387 334.548C283.386 334.459 283.398 334.371 283.424 334.289C283.449 334.207 283.488 334.132 283.536 334.07C283.585 334.007 283.642 333.958 283.706 333.925C283.77 333.892 283.838 333.876 283.907 333.878H289.104C289.173 333.876 289.242 333.892 289.306 333.925C289.371 333.957 289.429 334.006 289.479 334.069C289.528 334.131 289.567 334.206 289.594 334.288C289.621 334.37 289.635 334.459 289.635 334.548C289.635 334.729 289.579 334.903 289.479 335.032C289.38 335.16 289.245 335.232 289.104 335.232V335.232ZM273.512 335.232H268.315C268.174 335.232 268.039 335.16 267.94 335.032C267.84 334.903 267.784 334.729 267.784 334.548C267.784 334.459 267.798 334.37 267.825 334.288C267.852 334.206 267.891 334.131 267.94 334.069C267.99 334.006 268.048 333.957 268.113 333.925C268.177 333.892 268.246 333.876 268.315 333.878H273.512C273.581 333.876 273.649 333.892 273.713 333.925C273.777 333.958 273.834 334.007 273.883 334.07C273.932 334.132 273.97 334.207 273.995 334.289C274.021 334.371 274.034 334.459 274.032 334.548C274.033 334.637 274.021 334.726 273.996 334.809C273.97 334.891 273.932 334.967 273.884 335.031C273.835 335.094 273.778 335.145 273.714 335.18C273.65 335.214 273.582 335.232 273.512 335.232V335.232ZM257.909 335.232H252.712C252.643 335.232 252.574 335.214 252.511 335.18C252.447 335.145 252.389 335.094 252.341 335.031C252.293 334.967 252.254 334.891 252.229 334.809C252.203 334.726 252.191 334.637 252.192 334.548C252.191 334.459 252.204 334.371 252.229 334.289C252.255 334.207 252.293 334.132 252.342 334.07C252.39 334.007 252.448 333.958 252.511 333.925C252.575 333.892 252.643 333.876 252.712 333.878H257.909C257.979 333.876 258.047 333.892 258.112 333.925C258.176 333.957 258.235 334.006 258.284 334.069C258.333 334.131 258.373 334.206 258.4 334.288C258.426 334.37 258.44 334.459 258.44 334.548C258.44 334.729 258.384 334.903 258.285 335.032C258.185 335.16 258.05 335.232 257.909 335.232V335.232ZM242.318 335.232H237.11C236.971 335.228 236.838 335.155 236.741 335.027C236.644 334.899 236.59 334.727 236.59 334.548C236.59 334.37 236.645 334.2 236.742 334.074C236.84 333.948 236.972 333.878 237.11 333.878H242.274C242.412 333.878 242.544 333.948 242.642 334.074C242.739 334.2 242.794 334.37 242.794 334.548C242.794 334.727 242.74 334.899 242.643 335.027C242.545 335.155 242.413 335.228 242.274 335.232H242.318ZM226.715 335.232H221.518C221.377 335.232 221.242 335.16 221.142 335.032C221.043 334.903 220.987 334.729 220.987 334.548C220.987 334.459 221.001 334.37 221.028 334.288C221.054 334.206 221.094 334.131 221.143 334.069C221.193 334.006 221.251 333.957 221.316 333.925C221.38 333.892 221.449 333.876 221.518 333.878H226.715C226.784 333.876 226.853 333.892 226.917 333.925C226.981 333.957 227.04 334.006 227.089 334.069C227.139 334.131 227.178 334.206 227.205 334.288C227.232 334.37 227.246 334.459 227.246 334.548C227.246 334.729 227.19 334.903 227.09 335.032C226.991 335.16 226.856 335.232 226.715 335.232V335.232ZM211.123 335.232H205.915C205.846 335.232 205.777 335.214 205.713 335.18C205.65 335.145 205.592 335.094 205.543 335.031C205.495 334.967 205.457 334.891 205.432 334.809C205.406 334.726 205.394 334.637 205.395 334.548C205.394 334.459 205.406 334.371 205.432 334.289C205.458 334.207 205.496 334.132 205.544 334.07C205.593 334.007 205.651 333.958 205.714 333.925C205.778 333.892 205.846 333.876 205.915 333.878H211.123C211.261 333.878 211.393 333.948 211.49 334.074C211.588 334.2 211.643 334.37 211.643 334.548C211.643 334.727 211.588 334.899 211.491 335.027C211.394 335.155 211.262 335.228 211.123 335.232V335.232ZM195.52 335.232H190.301C190.161 335.232 190.026 335.16 189.926 335.032C189.827 334.903 189.771 334.729 189.771 334.548C189.771 334.459 189.785 334.37 189.811 334.288C189.838 334.206 189.877 334.131 189.927 334.069C189.976 334.006 190.035 333.957 190.099 333.925C190.164 333.892 190.232 333.876 190.301 333.878H195.499C195.567 333.876 195.636 333.892 195.699 333.925C195.763 333.958 195.821 334.007 195.869 334.07C195.918 334.132 195.956 334.207 195.982 334.289C196.008 334.371 196.02 334.459 196.018 334.548C196.021 334.723 195.971 334.893 195.878 335.021C195.785 335.149 195.656 335.225 195.52 335.232V335.232ZM179.918 335.232H174.72C174.651 335.232 174.583 335.214 174.519 335.18C174.455 335.145 174.397 335.094 174.349 335.031C174.301 334.967 174.262 334.891 174.237 334.809C174.212 334.726 174.199 334.637 174.201 334.548C174.199 334.459 174.212 334.371 174.237 334.289C174.263 334.207 174.301 334.132 174.35 334.07C174.398 334.007 174.456 333.958 174.52 333.925C174.584 333.892 174.652 333.876 174.72 333.878H179.918C179.987 333.876 180.055 333.892 180.12 333.925C180.184 333.957 180.243 334.006 180.292 334.069C180.342 334.131 180.381 334.206 180.408 334.288C180.434 334.37 180.448 334.459 180.448 334.548C180.448 334.638 180.435 334.727 180.408 334.81C180.381 334.893 180.342 334.968 180.293 335.032C180.244 335.095 180.185 335.145 180.121 335.18C180.056 335.214 179.987 335.232 179.918 335.232V335.232ZM164.326 335.232H159.128C158.988 335.232 158.853 335.16 158.753 335.032C158.654 334.903 158.598 334.729 158.598 334.548C158.598 334.459 158.612 334.37 158.639 334.288C158.665 334.206 158.704 334.131 158.754 334.069C158.803 334.006 158.862 333.957 158.926 333.925C158.991 333.892 159.059 333.876 159.128 333.878H164.326C164.394 333.876 164.463 333.892 164.526 333.925C164.59 333.958 164.648 334.007 164.697 334.07C164.745 334.132 164.783 334.207 164.809 334.289C164.835 334.371 164.847 334.459 164.846 334.548C164.847 334.638 164.834 334.728 164.808 334.812C164.782 334.896 164.743 334.972 164.694 335.036C164.644 335.1 164.585 335.15 164.52 335.184C164.455 335.217 164.385 335.234 164.315 335.232H164.326ZM148.723 335.232H143.526C143.385 335.232 143.25 335.16 143.151 335.032C143.051 334.903 142.995 334.729 142.995 334.548C142.995 334.459 143.009 334.37 143.036 334.288C143.063 334.206 143.102 334.131 143.151 334.069C143.201 334.006 143.259 333.957 143.324 333.925C143.388 333.892 143.457 333.876 143.526 333.878H148.723C148.792 333.876 148.861 333.892 148.925 333.925C148.99 333.957 149.048 334.006 149.098 334.069C149.147 334.131 149.186 334.206 149.213 334.288C149.24 334.37 149.254 334.459 149.254 334.548C149.254 334.638 149.24 334.727 149.213 334.81C149.187 334.893 149.148 334.968 149.098 335.032C149.049 335.095 148.991 335.145 148.926 335.18C148.862 335.214 148.793 335.232 148.723 335.232V335.232ZM133.131 335.232H127.923C127.784 335.228 127.652 335.155 127.555 335.027C127.458 334.899 127.403 334.727 127.403 334.548C127.403 334.37 127.458 334.2 127.556 334.074C127.653 333.948 127.785 333.878 127.923 333.878H133.131C133.269 333.878 133.401 333.948 133.499 334.074C133.596 334.2 133.651 334.37 133.651 334.548C133.651 334.727 133.597 334.899 133.499 335.027C133.402 335.155 133.27 335.228 133.131 335.232V335.232ZM117.529 335.232H112.342C112.201 335.232 112.066 335.16 111.967 335.032C111.867 334.903 111.812 334.729 111.812 334.548C111.811 334.459 111.825 334.37 111.852 334.288C111.879 334.206 111.918 334.131 111.967 334.069C112.017 334.006 112.076 333.957 112.14 333.925C112.204 333.892 112.273 333.876 112.342 333.878H117.539C117.609 333.876 117.677 333.892 117.742 333.925C117.806 333.957 117.865 334.006 117.914 334.069C117.963 334.131 118.002 334.206 118.029 334.288C118.056 334.37 118.07 334.459 118.07 334.548C118.07 334.639 118.056 334.729 118.028 334.813C118.001 334.897 117.961 334.973 117.911 335.037C117.86 335.1 117.8 335.15 117.735 335.184C117.669 335.217 117.599 335.234 117.529 335.232V335.232ZM101.926 335.232H96.7286C96.6594 335.232 96.5909 335.214 96.5272 335.18C96.4634 335.145 96.4056 335.094 96.3572 335.031C96.3088 334.967 96.2706 334.891 96.2451 334.809C96.2196 334.726 96.2075 334.637 96.2089 334.548C96.2074 334.459 96.2198 334.371 96.2454 334.289C96.271 334.207 96.3092 334.132 96.3577 334.07C96.4063 334.007 96.4642 333.958 96.528 333.925C96.5917 333.892 96.6599 333.876 96.7286 333.878H101.926C101.995 333.876 102.064 333.892 102.128 333.925C102.192 333.957 102.251 334.006 102.3 334.069C102.35 334.131 102.389 334.206 102.416 334.288C102.443 334.37 102.457 334.459 102.456 334.548C102.456 334.638 102.443 334.727 102.416 334.81C102.389 334.893 102.35 334.968 102.301 335.032C102.252 335.095 102.193 335.145 102.129 335.18C102.065 335.214 101.995 335.232 101.926 335.232V335.232ZM86.3339 335.232H81.1366C80.9959 335.232 80.861 335.16 80.7615 335.032C80.662 334.903 80.606 334.729 80.606 334.548C80.606 334.459 80.6199 334.37 80.6467 334.288C80.6735 334.206 80.7126 334.131 80.762 334.069C80.8114 334.006 80.87 333.957 80.9343 333.925C80.9987 333.892 81.0674 333.876 81.1366 333.878H86.3339C86.4026 333.876 86.4708 333.892 86.5346 333.925C86.5983 333.958 86.6562 334.007 86.7048 334.07C86.7533 334.132 86.7915 334.207 86.8171 334.289C86.8427 334.371 86.8551 334.459 86.8536 334.548C86.8566 334.723 86.8061 334.893 86.713 335.021C86.6199 335.149 86.4915 335.225 86.3556 335.232H86.3339ZM70.7313 335.232H65.534C65.4648 335.232 65.3963 335.214 65.3325 335.18C65.2688 335.145 65.211 335.094 65.1625 335.031C65.1141 334.967 65.0762 334.891 65.0507 334.809C65.0253 334.726 65.0128 334.637 65.0142 334.548C65.0128 334.459 65.0251 334.371 65.0507 334.289C65.0763 334.207 65.1145 334.132 65.1631 334.07C65.2116 334.007 65.2696 333.958 65.3333 333.925C65.397 333.892 65.4653 333.876 65.534 333.878H70.7313C70.8005 333.876 70.8692 333.892 70.9335 333.925C70.9978 333.957 71.0565 334.006 71.1059 334.069C71.1553 334.131 71.1943 334.206 71.2211 334.288C71.2479 334.37 71.2619 334.459 71.2618 334.548C71.2618 334.729 71.2059 334.903 71.1064 335.032C71.0069 335.16 70.872 335.232 70.7313 335.232V335.232ZM55.1393 335.232H49.9313C49.7925 335.228 49.6603 335.155 49.5631 335.027C49.4659 334.899 49.4113 334.727 49.4114 334.548C49.4114 334.37 49.4662 334.2 49.5636 334.074C49.6611 333.948 49.7935 333.878 49.9313 333.878H55.1393C55.2771 333.878 55.4095 333.948 55.507 334.074C55.6044 334.2 55.659 334.37 55.659 334.548C55.659 334.727 55.6047 334.899 55.5075 335.027C55.4103 335.155 55.2781 335.228 55.1393 335.232V335.232Z" fill="white" stroke="white" stroke-width="1.55052"/>
<path d="M474.181 335.232H471.268C471.114 335.228 470.968 335.155 470.86 335.027C470.753 334.899 470.693 334.727 470.693 334.548C470.693 334.37 470.753 334.199 470.861 334.074C470.969 333.948 471.115 333.877 471.268 333.877H474.181C474.334 333.877 474.48 333.948 474.588 334.074C474.696 334.199 474.756 334.37 474.756 334.548C474.756 334.727 474.696 334.899 474.589 335.027C474.481 335.155 474.335 335.228 474.181 335.232V335.232Z" fill="white" stroke="white" stroke-width="1.55052"/>
</svg>
