<svg width="776" height="744" viewBox="0 0 776 744" fill="none" xmlns="http://www.w3.org/2000/svg">
<path d="M640.55 596.661C487.843 594.254 304.615 573.205 150.263 554.63C151.579 430.799 160.314 314.953 180.284 186.517C339.786 186.965 498.942 201.381 655.928 229.601L640.55 596.661Z" fill="#FFE600"/>
<path d="M640.543 599.964C490.743 597.596 316.027 577.889 149.849 557.867C149.042 557.77 148.3 557.377 147.766 556.765C147.231 556.153 146.942 555.364 146.955 554.552C148.27 426.248 157.86 309.126 177.015 185.965C177.137 185.191 177.531 184.487 178.127 183.978C178.723 183.469 179.481 183.189 180.264 183.19V183.19C339.959 183.664 499.306 198.098 656.487 226.326C657.271 226.466 657.977 226.886 658.473 227.508C658.969 228.13 659.222 228.912 659.184 229.707L643.806 596.741C643.785 597.596 643.434 598.41 642.825 599.011C642.217 599.613 641.399 599.954 640.543 599.964V599.964ZM153.611 551.71C317.487 571.443 489.52 590.755 637.412 593.321L652.541 232.338C497.58 204.662 340.517 190.423 183.106 189.78C164.438 310.691 155.045 425.84 153.611 551.71Z" fill="#FFE600"/>
<path d="M622.101 580.494C469.394 578.074 286.18 557.025 131.815 538.397C133.13 414.566 141.879 298.72 161.849 170.284C321.353 170.763 480.509 185.21 637.493 213.46L622.101 580.494Z" fill="#60C9EB"/>
<path d="M622.121 583.833C472.308 581.465 297.591 561.758 131.426 541.736C130.621 541.639 129.879 541.249 129.343 540.64C128.806 540.03 128.513 539.245 128.519 538.434C129.834 410.117 139.438 292.995 158.592 169.847C158.711 169.071 159.105 168.363 159.701 167.852C160.297 167.34 161.056 167.059 161.841 167.058C321.536 167.533 480.884 181.966 638.065 210.195C638.848 210.337 639.554 210.757 640.052 211.379C640.55 212 640.807 212.78 640.775 213.576L625.383 580.61C625.366 581.466 625.016 582.282 624.406 582.884C623.797 583.486 622.977 583.826 622.121 583.833V583.833ZM135.202 535.592C299.091 555.325 471.11 574.624 619.016 577.189L634.145 216.207C479.168 188.549 322.093 174.324 164.67 173.689C146.002 294.56 136.609 409.722 135.202 535.592Z" fill="#60C9EB"/>
<mask id="mask0_100_6807" style="mask-type:alpha" maskUnits="userSpaceOnUse" x="134" y="166" width="507" height="411">
<path d="M625.549 576.799C472.722 574.377 289.364 553.312 134.878 534.669C136.194 410.741 144.949 294.804 164.935 166.268C324.565 166.747 483.846 181.205 640.952 209.478L625.549 576.799Z" fill="#60C9EB"/>
</mask>
<g mask="url(#mask0_100_6807)">
<path d="M646.858 204.254L179.575 172.478L153.893 550.142L621.176 581.918L646.858 204.254Z" fill="#60C9EB"/>
<path fill-rule="evenodd" clip-rule="evenodd" d="M136.939 156.741L137.156 156.755C137.075 157.119 136.825 157.258 136.905 157.817C137.893 157.947 138.897 157.782 139.792 157.342C139.92 156.519 139.047 156.622 139.614 156.012C141.603 156.086 142.94 155.316 144.935 155.391L144.815 155.517L144.923 155.652C144.905 155.919 144.887 156.181 144.897 156.449C145.033 156.508 145.185 156.517 145.327 156.475C145.469 156.433 145.591 156.342 145.674 156.22C145.757 156.097 145.794 155.949 145.779 155.802C145.764 155.654 145.698 155.517 145.593 155.413L145.611 155.141L145.395 155.126C147.072 154.201 149.092 154.562 150.735 153.97C151.309 153.752 151.814 152.898 152.325 152.698C154.936 151.669 157.459 152.354 160.518 151.903C164.141 151.367 167.427 148.876 171.213 149.066C175.767 149.298 178.948 152.296 183.895 152.66L183.777 152.926L183.871 153.189C183.86 153.351 183.849 153.506 183.646 153.453C183.692 154.334 184.982 154.019 184.762 152.971C184.612 152.961 184.468 152.951 184.323 152.941L184.441 152.681L184.348 152.417C185.737 152.439 187.461 154.361 188.095 152.264C188.849 152.187 188.405 153.453 189.395 153.107C191.102 151.257 193.935 153.628 195.394 151.973C196.081 151.97 195.995 152.824 196.924 152.552C197.664 152.602 197.307 151.204 198.068 151.267C199.486 153.659 201.575 148.975 202.956 150.359C203.392 150.031 202.566 148.947 203.448 148.789C204.055 150.378 206.932 148.987 208.093 148.669C208.483 147.528 207.355 147.686 207.928 147.072C209.103 146.213 208.925 147.843 210.121 147.673C210.603 147.65 210.613 147.02 210.607 146.366C212.506 146.696 214.847 146.034 216.508 148.147C217.079 147.956 217.544 146.798 218.283 147.675C218.969 148.839 216.794 148.205 217.113 149.763C219.489 150.964 220.785 148.667 221.626 146.986C222.632 147.055 222.932 147.902 224.024 147.864C224.415 146.958 223.88 146.441 224.32 145.483C226.035 144.085 226.563 141.166 228.904 140.588C228.194 138.702 230.611 137.911 230.609 136.134C230.6 134.458 228.307 133.184 226.783 131.763C225.26 130.341 223.615 129.072 222.51 127.908C221.404 126.743 220.284 124.729 219.118 123.817C214.668 120.325 205.689 119.128 199.431 118.4C196.932 118.102 195.529 119.425 193.873 119.542C190.297 119.801 186.776 117.685 184.483 116.585C185.145 114.323 187.54 115.005 189.416 114.356C190.291 114.053 190.888 113.004 191.676 112.834C194.509 112.245 195.736 113.753 197.978 115.693C197.695 115.673 197.683 116.427 197.958 116.49C199.508 116.372 200.545 116.811 201.914 116.888C201.969 116.521 201.905 116.146 201.729 115.819C202.525 116.03 203.551 115.977 204.141 116.425C203.662 116.392 203.429 116.622 203.446 117.199C204.561 117.219 205.259 117.719 206.527 117.564C206.96 117.114 206.259 116.736 207.005 116.524C207.419 116.932 206.579 117.613 207.395 117.858C209.057 118.061 210.672 116.327 211.8 118.8C212.529 119.09 212.533 118.459 212.496 117.764C213.351 118.09 213.73 118.92 214.636 119.155C214.787 118.934 214.989 118.751 215.223 118.621C215.458 118.492 215.72 118.419 215.988 118.409C217.636 118.828 219.016 120.715 220.366 119.344C221.09 119.041 220.508 120.208 221.233 119.9C221.917 119.862 222.113 119.194 222.593 118.875C224.453 120.191 226.29 118.154 228.145 117.99C229.999 117.826 231.844 118.705 233.638 118.699C233.971 117.66 235.43 118.066 236.108 117.453C236.536 117.89 236.843 119.296 237.613 118.567C238.452 118.384 237.089 116.906 238.099 117.253C240.231 118.275 242.811 115.736 245.155 117.488C245.768 117.44 245.258 115.986 246.087 116.188C246.845 116.061 248.271 116.94 249.809 116.832C250.19 117.617 250.781 118.282 251.516 118.752C252.913 119.568 258.11 120.357 258.585 118.719C258.148 117.757 256.881 117.732 256.672 116.533C257.108 116.362 257.278 115.843 257.376 115.224C260.787 115.83 262.261 113.947 265.148 113.886C267.44 111.394 264.497 107.027 262.326 106.097C260.421 105.275 258.826 106.546 257.452 106.47C255.35 106.327 253.425 104.151 253.631 102.104C254.076 97.6259 258.834 101.34 260.727 101.268C262.093 101.227 263.011 99.714 265.15 100.882C266.637 99.3069 269.331 99.194 270.371 96.8068C272.354 92.2882 269.969 91.3719 267.324 89.276C265.061 87.4797 262.603 85.9216 260.66 84.013C258.043 81.4273 256.019 78.3345 253.192 76.6061C252.06 75.9202 250.45 75.861 249.059 74.8782C247.992 74.1297 246.381 71.3778 246.324 70.8097C247.722 71.1171 248.275 72.3557 250.025 72.2513C251.235 70.8811 254.562 69.1186 256.086 69.5351C257.068 69.7974 257.677 71.4421 258.657 71.7433C259.91 72.1191 261.011 70.965 262.23 70.5339C264.509 64.0524 259.785 60.8206 257.185 56.8284C256.619 55.952 256.36 54.6718 255.745 53.8591C252.717 49.8322 247.805 48.4536 243.482 45.238C240.425 42.9687 237.154 40.6235 235.051 39.9219C233.959 39.5515 233.006 39.9336 232.199 39.5603C231.706 39.3368 231.352 38.4525 230.712 37.923C229.127 36.5918 228.237 35.7157 226.848 34.6101C225.212 33.2978 222.976 31.5816 221.459 30.9812C221.029 30.8123 219.746 31.0268 218.606 30.6252C218.06 30.4317 216.848 29.2879 215.354 28.6612C213.953 28.0743 212.426 27.8587 211.648 27.2137C209.825 25.6876 209.591 23.2975 211.586 22.7014C214.306 21.892 218.185 25.4851 219.189 26.4026C220.951 28.0083 222.942 28.7191 224.362 30.0167L224.243 30.2824L224.343 30.5461L223.679 30.5289C223.935 31.2893 224.929 32.1948 225.626 31.6445C225.637 31.4721 225.649 31.2941 225.661 31.1218L225.679 30.8549L225.697 30.588C231.38 32.4548 236.393 35.0581 239.966 39.284L239.743 39.2689L239.725 39.5358C239.108 40.3877 239.876 41.2555 240.777 41.1603C240.828 40.7937 240.763 40.4202 240.592 40.092L240.815 40.1071L240.832 39.8458C241.508 39.9308 241.658 40.6058 242.115 40.9441L241.991 41.2038L242.096 41.4735L241.657 41.4436C241.639 41.7105 241.621 41.9719 241.603 42.2332C241.825 42.2484 242.042 42.2631 242.259 42.2778C242.277 42.0165 242.297 41.7218 242.313 41.4882L242.527 41.6257L242.753 41.5014C242.937 41.5005 243.116 41.5531 243.27 41.6529C243.424 41.7527 243.546 41.8953 243.62 42.0631L243.496 42.3229L243.601 42.5925L243.156 42.5623C243.912 44.0885 245.382 44.8197 247.034 45.3398C247.052 45.0785 247.072 44.7838 247.088 44.5502L247.302 44.6877L247.522 44.563C248.909 44.7858 249.213 46.2366 250.551 46.5175L250.436 46.6493L250.322 46.7756C250.187 47.5988 250.47 47.9644 251.169 47.8667L251.19 47.0693L251.292 47.2047L251.418 47.0792C252.492 47.7109 252.614 49.4565 253.51 50.333C255.183 50.8658 255.074 49.0931 256.394 49.8923C255.934 50.6599 256.725 52.261 257.473 50.4573C256.702 52.3433 258.547 51.089 258.728 52.6207C259.395 52.923 260.246 52.4837 260.922 53.2224C260.572 53.0199 260.524 54.4635 260.888 54.2871C261.85 53.6989 262.397 54.6914 263.294 54.8976C263.428 55.7167 262.525 55.1917 262.803 56.2049C264.864 55.4624 265.121 57.6753 267.138 58.1756C267.38 59.0523 266.421 58.3615 266.664 59.2271C268.396 59.9594 270.225 60.5865 270.299 62.53C272.011 61.3448 274.164 60.7315 273.55 57.8575C273.32 56.7245 269.184 53.4603 268.447 52.3878L268.659 52.4022L268.676 52.1409C269.066 52.0835 269.198 51.7015 269.156 51.0897C269.085 51.0439 269.007 51.0123 268.924 50.9968C268.842 50.9813 268.757 50.9822 268.675 50.9995C268.593 51.0167 268.515 51.0499 268.446 51.0973C268.377 51.1446 268.317 51.2052 268.272 51.2754C268.226 51.3456 268.194 51.4242 268.179 51.5067C268.163 51.5891 268.164 51.6738 268.181 51.7559C268.198 51.838 268.232 51.9159 268.279 51.9851C268.326 52.0544 268.387 52.1136 268.457 52.1595L268.235 52.1444L268.217 52.4113C264.631 51.1731 260.585 50.451 258.91 47.0636C259.842 45.9315 260.94 45.2352 262.707 45.8637C262.814 46.6643 261.252 46.7201 261.986 47.4347C262.955 48.9475 262.904 46.581 264.002 46.7004C265.284 47.3965 263.521 48.0251 264.146 49.0955C264.918 49.081 264.463 47.4803 265.302 47.5374C265.488 48.1701 266.387 48.0134 266.361 48.8998C266.658 50.0372 265.137 48.8166 265.434 49.954C267.549 48.8409 269.817 50.5649 271.775 51.7594C272.122 51.7439 271.971 51.0857 272.458 51.2472C273.698 52.9628 276.089 51.9746 277.235 53.5329C278.042 53.4928 278.091 53.1888 278.774 53.5761C279.267 54.0112 279.63 54.5756 279.819 55.2057C283.042 54.3076 282.712 57.771 286.364 57.539C286.955 57.8026 285.672 58.1119 286.326 58.5977C287.476 58.1173 287.998 59.0578 288.717 59.738C287.048 61.859 279.211 58.9742 279.565 62.8919C279.647 63.8137 280.347 64.3641 281.704 64.2887L281.686 64.5557L281.914 64.5712C281.828 64.9284 281.579 65.0679 281.647 65.6256L282.533 65.6523C282.587 65.2857 282.522 64.9116 282.349 64.584L282.571 64.5991L282.59 64.3322C283.033 63.9657 284.224 63.1306 284.6 63.603C284.132 63.6717 284.515 64.8542 285.007 64.6754C285.658 64.9599 285.421 64.0946 285.487 63.6242C286.276 63.5159 285.98 64.5851 286.781 64.4664C288.139 64.1342 289.84 62.6913 290.827 62.4791C291.088 62.4186 291.665 62.8935 291.924 62.7715C292.733 62.3852 292.915 61.4312 293.739 61.2191C294.088 61.3729 294.457 61.4752 294.836 61.5227C296.043 61.683 297.189 60.6045 298.162 61.8941C298.912 60.638 299.238 60.6154 300.619 61.1785C300.866 59.9273 301.76 59.5077 302.453 58.8509C304.218 55.8984 302.736 51.6471 303.066 47.4574C303.132 46.4788 303.465 45.7696 303.373 45.0762C303.046 42.6574 300.806 41.2482 300.697 39.4141L300.919 39.4292L300.937 39.1623C303.99 39.0347 302.611 33.5278 302.511 31.7837C302.412 30.0396 303.104 28.3325 302.897 27.0169C302.627 25.3226 300.931 23.9727 299.767 21.8658C299.455 21.2859 299.48 20.5055 299.168 19.9927C297.309 16.9335 293.937 15.5981 294.134 11.8743C288.316 5.75269 282.299 -0.158956 278.742 -8.8082C278.599 -9.73413 279.101 -9.81169 279.018 -10.6441C277.547 -10.9508 277.298 -12.6269 276.934 -14.1711L277.122 -14.3818L277.177 -14.6965C279.179 -14.0017 278.505 -10.2377 280.754 -9.79984L280.813 -11.6561L281.032 -11.5127L281.253 -11.6318C283.523 -8.59228 285.482 -5.33172 287.099 -1.89949L286.882 -1.91424L286.864 -1.65289C285.597 -2.45936 284.57 -3.59248 283.892 -4.93307C283.715 -4.87806 283.453 -4.96293 283.439 -4.67897C283.574 -2.31236 285.709 0.0505999 287.284 -0.836711C287.296 -1.02021 287.308 -1.19259 287.32 -1.36497L287.422 -1.22951L287.543 -1.36096C289.489 -0.15607 290.121 2.54041 291.77 4.08821L291.547 4.07309L291.53 4.33443C291.313 4.31969 291.096 4.30494 290.868 4.28944C290.447 5.63503 292.47 6.60498 292.819 5.41648L293.041 5.43161L293.059 5.17026C293.301 5.23138 293.397 5.46692 293.48 5.71283L293.362 5.97294L293.461 6.24779L293.021 6.21792C292.969 6.58632 293.033 6.96205 293.205 7.29182L292.989 7.27707L292.971 7.53842C292.953 7.79977 292.776 7.85477 292.727 8.08049C294.243 8.95448 294.097 10.7824 296.172 10.5772C296.577 12.8392 298.601 13.2953 299.551 14.9408C299.986 15.0374 299.998 14.6026 300.234 14.4286L300.216 14.69L300.438 14.7051C301.568 14.5194 300.836 16.408 301.956 15.5513C302.224 14.564 301.143 15.1105 301.344 14.208C303.815 14.661 305.547 18.1082 306.624 21.0025L306.407 20.9878L306.389 21.2547C306.243 21.1218 306.067 21.026 305.876 20.9751C305.685 20.9242 305.485 20.9198 305.292 20.9622L305.073 20.8188L304.852 20.9434C304.661 20.4668 304.474 20.0072 303.791 20.1171C303.674 21.0086 303.811 21.6268 304.632 21.4648L304.846 21.6078L305.072 21.4891C305.299 22.3369 305.563 23.1369 306.558 23.1208C306.741 22.5746 307.288 22.0923 306.834 21.5363L307.062 21.5518L307.08 21.2849C307.856 21.7845 309.466 22.6705 308.979 23.7491C308.971 23.3743 308.441 23.4444 308.527 23.9921C309.342 24.4162 310.206 25.6704 310.848 26.9878C310.334 27.7293 308.95 26.1492 308.627 27.4457C309.027 29.037 310.263 29.6852 311.165 30.7075C312.046 30.1726 313.037 29.8446 314.063 29.7481C315.092 29.646 316.13 29.679 317.151 29.8464C318.878 29.0924 318.666 25.8771 320.617 25.4511L320.733 25.3137L320.847 25.1874C321.239 26.0799 322.354 24.8765 321.76 24.4227C321.638 24.4164 321.516 24.4343 321.401 24.4754C321.286 24.5165 321.18 24.5799 321.09 24.662L321.108 24.3951L320.885 24.38C320.971 24.0227 321.221 23.8833 321.142 23.3248C321.257 22.7014 320.134 23.4407 320.51 22.511C321.707 14.6878 314.496 11.0579 313.66 3.71097C313.313 1.06305 313.404 -1.62383 313.927 -4.24252C315.018 -1.54839 315.692 1.59786 318.108 2.7956C318.287 -0.661306 315.722 -3.19871 315.351 -6.85506C316.08 -5.91168 316.081 -5.68812 317.31 -6.25817C317.188 -3.23866 322.038 -1.27769 322.574 1.36194C323.184 4.37538 325.34 7.83465 325.561 10.7489C325.61 11.5009 325.211 12.4457 325.254 13.1246C325.397 15.6258 326.88 17.559 327.445 19.8375C327.607 20.5021 327.422 21.4168 327.591 21.9702C327.827 22.6846 328.483 22.975 328.636 23.8568C329.207 27.2921 328.42 29.663 328.976 32.8962C329.378 35.2028 330.76 36.319 331.439 37.7506C331.929 38.7615 331.742 39.7823 332.229 40.4354C334.059 42.8302 336.306 44.8754 338.863 46.4728C340.953 47.7714 344.361 48.9081 344.652 51.7043C344.815 53.3354 343.424 55.4641 342.302 55.8682C340.789 56.419 339.353 54.3828 337.282 54.1135C334.468 53.7546 333.865 55.0655 332.328 57.1285C333.05 62.9482 334.35 69.8631 340.055 69.8543C340.691 66.2497 342.869 64.6158 343.664 61.2176C346.467 58.3581 349.681 56.0404 350.433 50.5556C351.909 49.399 352.634 47.2808 354.544 46.7013C354.739 44.8264 356.063 44.503 356.851 43.5902C357.123 43.2902 357.082 42.6618 357.348 42.2777C357.887 41.4931 359.008 41.2733 359.38 40.7399C359.913 40.0388 361.06 37.7258 361.066 36.8101C361.08 35.2078 359.137 33.4668 358.603 31.9557C358.483 31.5845 358.734 31.0094 358.66 30.6189C358.402 29.4841 357.502 28.2665 357.222 27.1302C356.624 24.6651 357.044 21.5318 355.254 20.1644C354.439 20.2319 354.048 19.831 353.506 19.5874C353.356 17.8455 353.697 15.5392 355.225 14.5929C355.053 15.6426 356.049 15.3751 356.749 15.4395C356.975 16.7062 357.582 17.563 359.103 17.376C359.9 15.5923 359.391 11.664 358.513 9.12403C357.999 7.65337 356.144 6.00222 356.225 5.05806C356.306 4.1139 357.797 3.8801 357.841 2.98371C358.907 4.73205 358.982 7.6532 361.189 8.14402C361.32 6.2145 362.948 5.59346 363.335 3.68689C364.122 -0.169971 362.655 -1.50436 361.663 -4.58281C360.691 -7.5426 360.606 -10.241 359.491 -11.8251C357.185 -15.127 352.898 -17.1447 350.71 -19.8017C349.487 -18.2481 351.129 -17.1812 351.677 -15.7865C352.482 -13.743 352.695 -10.6281 353.457 -9.10152C351.011 -10.1784 351.431 -14.4681 349.499 -16.1245C349.989 -18.3257 348.672 -17.9293 349.175 -19.5821C347.02 -20.7454 347.354 -24.6721 346.336 -27.1156C350.474 -32.197 346.593 -38.2148 346.057 -44.3794C343.94 -49.551 339.759 -53.7849 340.68 -61.5039L340.662 -61.2425L340.89 -61.227C340.91 -61.0713 340.986 -60.9284 341.106 -60.8263C341.225 -60.7242 341.378 -60.6702 341.534 -60.6749C341.565 -61.1253 341.595 -61.559 341.574 -62.0017C341.363 -62.0161 341.135 -62.0316 340.913 -62.0467L341.033 -62.1782L340.925 -62.314C341.028 -62.857 341.195 -63.3858 341.423 -63.889C344.79 -66.0734 347.62 -65.2273 349.756 -62.2889C352.565 -58.4277 355.556 -50.8224 356.533 -46.9406C359.561 -45.0588 362.878 -40.6044 366.399 -38.6611C369.296 -37.0676 373.385 -36.4041 374.624 -40.2525C375.141 -41.8486 374.66 -43.155 375.206 -44.2127C375.556 -44.6731 375.941 -45.1064 376.356 -45.5088C379.739 -48.1054 383.485 -44.538 385.977 -43.0669C387.62 -42.0949 389.601 -41.6474 390.972 -40.7721C391.368 -40.5272 391.615 -39.8848 392.015 -39.6844C394.25 -38.6219 396.319 -38.2465 397.871 -36.8394C398.993 -35.428 398.745 -33.2495 399.922 -32.0019C400.444 -31.458 401.675 -31.4134 402.302 -30.8568C403.199 -30.0752 403.265 -28.5848 404.438 -28.667C404.329 -27.0656 405.845 -26.0184 406.496 -24.3485C406.681 -23.8611 406.421 -23.2364 406.662 -22.7563C406.955 -22.1387 407.717 -21.841 407.924 -21.1119C408.322 -19.895 407.944 -18.2839 408.212 -17.1261C409.023 -13.8532 411.191 -13.1248 414.037 -12.4229C414.735 -13.4927 415.309 -14.705 414.601 -16.1218C416.107 -18.1366 415.082 -20.8039 415.747 -23.5184C414.455 -23.5056 414.572 -24.9725 414.962 -26.1972C414.745 -26.0388 414.123 -25.6063 414.306 -26.4877C412.814 -27.9522 413.171 -30.6596 412.79 -33.4395C412.402 -35.9407 411.179 -38.2583 410.799 -40.1333C410.203 -43.2016 411.664 -44.644 411.478 -46.7516C412.464 -45.975 412.428 -47.5863 412.646 -48.5714C412.292 -49.4446 411.745 -47.5657 411.772 -48.8655C411.522 -50.1115 412.535 -49.7298 412.284 -50.9758C411.413 -50.5658 411.469 -50.4 411.205 -51.5352L411.422 -51.5204L411.44 -51.7818C411.512 -51.7715 411.584 -51.7665 411.657 -51.767L412.096 -51.7372C412.11 -52.0212 412.042 -52.3033 411.9 -52.5493L411.461 -52.5792L411.244 -52.594L411.226 -52.3271C410.738 -52.4608 411.266 -53.7377 410.843 -53.934L411.06 -53.9192L411.078 -54.1806C411.69 -54.139 411.653 -55.4096 411.359 -55.7647L411.142 -55.7795L411.252 -55.9172L411.149 -56.0471C411.354 -57.251 410.712 -59.3113 409.945 -59.5311C411.405 -59.4876 409.811 -62.1658 411.127 -61.8863C413.186 -61.1877 412.795 -57.4938 413.089 -54.9264C413.622 -50.3541 413.846 -47.1547 415.117 -43.1802C415.89 -40.7423 416.994 -39.0751 417.565 -37.5225C418.792 -34.2101 418.786 -30.8308 417.075 -29.5841C417.958 -26.7868 417.652 -23.4446 418.091 -20.5267C418.183 -19.8277 418.624 -19.3285 418.683 -18.6429C418.759 -17.6993 418.299 -16.6971 418.362 -15.732C418.379 -15.4012 418.913 -14.7169 418.975 -14.3887C419.704 -10.7415 419.161 -6.78423 420.162 -3.99569C420.377 -3.38887 421 -3.01138 421.208 -2.37714C421.416 -1.7429 421.194 -0.858599 421.359 -0.244066C421.572 0.563687 422.214 1.64078 422.577 2.7101C423.687 5.94183 424.031 6.71936 426.37 8.14091C427.854 9.07418 429.619 9.65229 430.649 10.9346C432.274 12.9165 432.285 14.3976 433.759 16.872C432.942 22.7156 438.241 18.5733 440.074 19.212C440.12 18.5336 440.434 18.1918 440.995 18.1573C451.225 18.2944 457.341 23.0732 455.819 36.427C454.399 37.8276 453.761 40.2366 452.958 42.4277C457.63 43.304 465.952 44.5626 469.816 40.3172C472.6 40.4507 475.124 39.8123 477.74 40.8561C479.6 41.5915 481.356 43.6269 484.061 43.1853C484.7 43.6533 484.745 44.7177 485.305 45.3591C486.234 46.3999 487.475 46.3055 488.542 47.0429C489.113 47.4392 489.478 48.3131 490.033 48.6972C492.576 50.3952 495.524 51.1599 497.145 53.6946C498.634 54.2095 500.024 54.9767 501.253 55.9627C501.904 54.5992 502.338 54.2265 502.479 52.5546C502.669 50.333 503.224 47.8402 503.605 45.6874C504.178 42.4416 505.083 37.1794 504.435 34.3031C502.236 24.4278 499.413 13.1918 499.814 2.03531C499.62 1.02775 500.657 1.63454 500.523 0.731613C500.453 0.207295 499.679 0.495441 499.905 -0.360666C500.854 -2.1675 499.34 -2.7397 500.283 -4.85426L500.497 -4.71123L500.724 -4.84661C501.906 -3.41436 501.262 -1.41917 501.639 0.500278C501.953 2.1249 503.104 3.61086 503.461 5.33342C503.619 6.13183 503.412 6.96684 503.6 7.72822C504.043 9.43421 505.05 11.0557 505.391 13.1011C505.511 13.7182 505.24 14.5879 505.325 15.2194C505.499 16.5273 506.163 17.6952 506.294 18.9611C506.996 25.5671 506.502 32.3376 505.804 39.3904C505.473 42.8649 505.734 46.011 505.66 49.7264C505.586 53.4418 504.62 58.9401 505.245 61.6584C505.646 63.4007 507.316 64.6482 507.761 65.7399C508.717 68.1121 508.356 74.1598 509.864 75.8824C511.232 77.4558 514.541 77.5076 515.6 76.0713C517.973 75.9199 519.7 77.1378 521.724 77.6051C522.489 77.7799 523.364 77.2417 524.161 77.4188C524.959 77.596 525.608 78.7406 526.284 79.0714C527.147 79.5156 528.47 79.7788 529.556 80.2436C530.641 80.7085 532.179 81.5951 532.81 81.6827C534.022 81.8489 537.381 80.6752 537.757 78.9188C537.897 78.2523 537.369 77.0712 537.191 75.9866C536.217 69.9319 535.194 64.2871 537.385 57.9393L537.494 57.8182L537.603 57.686C537.714 59.0174 538.971 57.1254 537.621 57.4191L537.508 57.2828L537.404 57.4099C537.081 55.4271 538.397 55.5445 538.618 54.258C537.961 53.8278 538.483 53.1315 538.231 52.3993C537.89 51.3315 536.872 50.9438 536.337 49.941C535.344 48.1027 534.193 44.4939 534.666 41.6546C534.924 39.9963 536.662 36.2041 539.905 37.0615C540.603 37.2374 542.666 39.1765 543.318 40.3493C544.673 42.7709 544.728 46.4839 543.932 48.3291C543.032 50.3963 540.388 51.1495 539.777 53.2418C538.517 57.3906 541.338 60.275 541.206 63.115C541.086 65.7045 538.287 68.5028 538.94 71.7929C539.317 73.7234 541.921 74.6156 542.765 76.1645C543.097 76.796 542.843 77.7395 543.129 78.2953C543.676 79.3715 545.431 80.5802 546.795 80.8126C547.166 80.8658 547.884 80.328 548.129 80.3447C549.623 80.2284 552.197 81.4816 554.055 81.5967C554.527 81.6289 555.007 81.2202 555.382 81.3742C556.427 81.7805 557.4 83.7459 558.827 83.8709C559.318 86.9153 560.535 88.322 562.595 89.8307C564.149 90.9643 565.956 92.4782 567.748 93.9798C570.194 96.0399 572.016 96.3649 574.674 98.1824C575.682 98.8823 577.153 100.334 577.685 100.409C580.126 100.737 581.939 96.5816 584.253 95.5826C585.023 95.2503 585.858 95.0952 586.697 95.1287C590.572 95.6492 586.532 101.989 585.971 103.336C583.544 104.037 582.207 107.18 580.258 108.986C579.066 110.073 577.97 110.339 577.072 111.797C576.477 112.882 575.993 114.025 575.628 115.207C576.264 116.865 578.133 117.148 579.5 117.984C579.437 117.528 579.532 117.063 579.769 116.668C581.838 115.568 583.227 113.791 585.426 112.583C588.639 110.852 592.194 109.999 595.73 108.932C597.064 108.526 599.541 107.515 600.191 107.487C600.524 107.723 600.886 107.915 601.269 108.058C601.589 107.951 601.953 106.953 602.418 106.767C603.113 106.49 604.333 106.948 605.073 106.59C605.709 106.276 605.516 105.654 606.216 105.551C610.53 104.375 615.056 101.979 618.3 100.361C618.123 100.422 618.034 100.584 618.062 100.904C619.455 100.87 618.843 100.354 619.2 99.864C619.557 99.3743 620.081 98.3318 621.016 97.8032C622.149 97.1652 628.123 96.3816 627.613 98.5424C626.622 102.693 619.441 101.897 615.992 102.679C613.898 103.162 612.453 104.768 610.817 105.422C608.52 106.338 606.049 106.774 604.562 107.611C603.847 108.015 603.402 108.979 602.73 109.408C601.872 109.959 600.797 109.914 599.832 110.379C599.256 110.641 598.817 111.343 598.243 111.65C597.019 112.31 595.556 112.3 594.44 112.867C593.861 113.157 593.431 114.061 592.838 114.4C591.64 115.106 589.674 115.593 588.153 116.098C585.297 117.021 582.463 117.13 580.751 119.315C582.23 120.974 582.61 123.849 583.152 126.562C580.222 130.709 584.37 137.728 588.493 137.885C589.327 136.959 590.644 135.663 592.085 136.404C592.883 134.782 594.694 134.425 595.514 132.799C595.955 132.309 595.911 132.966 596.63 132.83C596.324 129.111 603.487 125.314 603.57 129.341C603.596 130.203 601.978 132.462 601.016 132.972C598.766 134.188 595.223 133.304 594.289 135.945C594.296 137.716 594.653 139.468 595.34 141.1C596.026 142.733 597.029 144.213 598.29 145.456C599.017 146.193 600.075 147.304 601.084 147.669C601.749 147.915 602.839 147.492 603.731 147.759C604.345 147.941 604.701 148.529 605.238 148.61C608.808 149.093 613.696 146.951 616.078 148.157C617.944 147.821 623.331 145.087 626.023 147.717C626.501 148.174 627.466 150.083 627.221 151.468C626.905 153.234 624.638 153.885 623.121 154.251C621.293 154.685 618.964 156.152 617.314 156.18C614.372 156.242 611.915 153.433 609.238 153.536C607.938 153.587 606.862 154.787 605.869 155.021C603.114 155.683 600.608 154.921 598.995 156.118C597.519 157.213 597.529 159.37 595.72 161.32C594.576 162.538 592.809 163.055 591.456 163.315C589.194 163.719 588.221 162.419 586.633 162.355C585.594 162.285 583.973 163.448 582.383 164.072C580.557 164.791 580.055 164.791 578.778 166.061C576.271 168.595 577.865 176.535 579.908 178.042C580.605 178.548 581.531 178.153 582.12 178.377C583.324 178.9 584.824 180.416 585.55 181.404C586.138 182.203 586.234 183.841 587.195 184.906C587.574 185.329 588.8 185.943 589.79 186.586C591.592 187.775 593.124 188.566 595.009 188.616C595.827 189.398 596.259 190.606 597.579 190.825C598.086 192.161 597.889 193.175 597.461 194.531C595.558 196.234 593.676 194.659 591.707 194.872C590.581 195.002 589.524 195.913 588.554 196.624C587.584 197.334 586.732 198.779 586.038 199.201C585.553 199.515 585.065 199.135 584.711 199.418C584.075 199.973 583.841 201.203 583.089 201.498C582.802 203.411 581.315 204.17 580.937 206.206C580.674 207.607 581.299 209.091 581.011 210.451C580.726 211.929 579.245 212.677 579.337 214.113C579.898 215.889 583.324 216.116 584.74 217.475C585.79 218.457 585.984 220.453 587.342 218.892C590.199 221.148 590.87 218.188 592.263 216.925C592.549 216.665 593.196 216.922 593.597 216.698C594.578 216.15 595.089 215.291 595.857 215.175C597.646 214.906 599.725 215.785 601.087 217.207C601.384 216.367 600.375 216.991 600.684 216.146C602.654 216.347 604.486 216.919 605.133 214.963C604.224 214.232 603.522 213.277 603.096 212.192C602.67 211.107 602.535 209.929 602.705 208.775C604.603 207.229 606.368 206.829 607.995 208.94C608.842 210.042 608.39 211.346 609.442 211.647C610.604 211.983 612.846 209.644 614.394 209.151C620.105 207.305 624.916 212.062 626.73 216.185C627.003 217.137 627.044 218.139 626.85 219.11C626.512 221.69 625.79 226.479 624.771 228.068C623.921 229.402 622.613 229.665 621.362 230.881C620.328 231.883 619.551 233.361 618.617 233.711C616.89 234.228 615.054 234.259 613.31 233.803C611.499 233.316 609.438 230.188 607.243 230.681C605.487 231.12 604.006 235.566 601.306 236.332C599.814 236.751 598.533 236.027 597.312 236.731C595.351 237.888 593.415 241.634 592.229 243.469C592.191 244.025 592.19 244.528 592.176 245.063C588.241 250.521 583.001 254.293 578.024 258.402C575.182 257.968 574.151 260.725 571.767 260.054C568.601 261.995 566.125 263.503 563.01 264.285C562.067 264.517 561.273 264.123 560.802 264.476C558.712 266.043 557.215 267.925 555.772 269.357C554.245 270.868 549.871 272.743 547.698 273.076C547.066 273.173 546.27 272.806 545.714 273.008C544.368 273.503 543.884 275.28 542.729 275.833C541.611 276.327 540.395 276.561 539.174 276.518C538.388 276.415 538.026 275.496 537.216 275.654C535.682 275.951 533.257 279.658 532.361 281.334C531.465 283.011 531.642 284.671 531.286 286.875C530.654 290.743 529.017 294.196 528.288 296.861C527.656 299.175 527.624 301.369 526.524 303.176C525.46 304.772 524.222 306.245 522.834 307.568C521.834 308.496 520.774 309.357 519.659 310.145C518.954 310.577 518.088 310.407 517.426 310.87C516.657 311.41 516.093 312.723 515.35 313.455C514.393 314.39 513.293 314.958 512.847 315.519C511.957 316.615 511.799 317.867 510.995 318.114C508.33 318.938 505.986 316.6 504.504 314.986C504.562 314.135 504.151 313.844 504.353 312.858C504.052 312.43 503.825 311.912 503.31 311.765C503.163 306.85 499.867 305.71 498.33 302.84C497.804 301.871 497.608 300.065 496.946 298.551C496.558 297.686 495.78 296.974 495.486 296.116C494.819 294.177 494.755 292.251 493.691 290.481C492.393 288.361 490.912 286.36 489.265 284.498C488.361 283.498 486.289 280.944 485.203 280.652C481.624 279.716 479.786 283.664 478.833 286.012C478.456 286.953 478.344 288.364 477.848 289.169C477.064 290.422 474.135 292.592 472.207 292.433C470.806 292.338 469.051 290.956 468.769 289.668C467.915 285.801 472.036 282.707 473.757 279.746C476.25 275.446 473.539 271.619 470.336 270.083C469.985 269.909 469.365 270.157 469.009 270.038C466.448 269.176 464.144 266.992 461.596 267.411C461.049 266.754 460.78 265.78 460.13 265.239C459.369 265.003 459.267 265.599 458.579 265.452C457.571 263.098 454.32 263.268 452.98 261.289C452.351 261.581 452.122 262.398 451.606 262.838C449.747 263.063 447.85 261.728 446.12 261.862C443.66 262.046 441.353 263.772 438.979 264.018C435.522 264.342 431.796 262.854 429.103 262.369C427.828 262.148 426.878 262.726 425.338 262.783C424.106 262.822 422.854 262.257 421.594 262.389C419.905 262.576 418.182 263.274 416.469 263.817C411.089 260.775 408.449 266.009 404.644 267.415C401.675 268.515 398.641 271.079 395.651 272.166C395.442 273.012 394.809 273.299 394.477 273.98C391.52 275.237 389.08 275.473 387.08 277.198C385.644 278.441 385.354 280.482 384.263 282.145C383.515 283.29 382.066 283.739 381.728 285.252C380.538 285.495 380.045 286.925 379.22 287.556C378.837 287.849 378.224 287.572 377.886 287.779C377.665 287.914 377.474 288.583 377.182 288.848C376.89 289.113 376.136 289.112 375.843 289.315C374.173 290.738 372.833 292.507 371.915 294.501C370.354 297.746 369.04 297.512 366.24 299.092C365.462 299.525 364.917 300.231 364.192 300.629C363.398 301.019 362.576 301.349 361.734 301.618C360.054 302.241 358.146 303.284 356.807 303.584C354.102 304.171 351.445 303.158 348.666 303.031C347.246 302.973 345.886 303.831 344.469 302.891C333.725 306.126 329.077 317.217 320.371 323.083C319.402 324.497 318.132 325.679 316.653 326.544C315.173 327.409 313.521 327.936 311.813 328.088C306.205 328.41 302.648 322.224 304.943 315.923C305.581 314.178 308.445 309.686 309.744 311.032C310.528 308.621 312.837 308.186 313.888 306.124C314.613 306.139 315.033 305.716 315.879 305.924C318.288 303.362 321.904 302.423 324.055 299.553C326.353 299.933 327.064 298.26 328.325 297.307C329.958 297.932 330.794 296.397 332.976 296.925C335.18 295.125 337.532 293.513 340.007 292.107C341.299 291.424 342.094 289.512 343.219 288.499C344.539 287.326 346.278 286.813 347.731 285.733C348.907 284.869 349.656 283.63 350.716 282.903C351.889 282.084 353.152 281.912 354.532 281.174C356.849 279.844 359.044 278.311 361.089 276.592C362.965 275.044 364.838 273.791 366.31 272.517C367.311 271.654 368.08 270.554 368.547 269.317C369.013 268.08 369.163 266.746 368.981 265.437C367.702 254.267 351.637 260.905 346.56 262.856C346.51 263.601 346.112 263.943 346.05 264.693C342.292 267.705 337.142 272.467 331.197 272.978C329.389 273.107 326.733 273.39 324.804 272.762C322.875 272.133 321.245 269.727 318.7 270.436C317.432 271.417 316.407 272.945 315.049 273.774C314.594 274.05 313.932 273.765 313.498 273.987C310.969 275.201 309.247 278.167 307.555 279.895C306.714 280.749 305.47 281.061 304.623 281.931C303.123 283.449 302.928 285.497 301.78 287.676C301.088 288.975 297.817 292.724 296.724 293.348C294.44 294.633 292.311 296.175 290.378 297.944C288.389 299.764 286.354 301.922 284.426 303.321C282.499 304.721 280.355 305.681 278.785 306.848C275.767 309.073 272.196 310.087 269.504 313.446C267.262 313.561 266.646 315.553 265.418 316.765C264.718 317.455 263.725 317.6 262.93 318.272C260.793 320.132 258.651 322.299 256.106 324.154C253.592 325.924 251.299 327.989 249.275 330.304C248.154 331.674 247.776 333.04 246.721 333.934C245.909 334.622 244.643 334.759 243.568 335.686C243.153 336.049 243.004 336.838 242.635 337.254C240.611 339.491 237.858 341.046 236.246 343.149C235.056 344.71 234.141 347.475 232.505 348.872C231.911 349.39 230.329 349.729 229.352 350.624C227.72 352.116 225.865 355.163 223.605 357.344C223.223 357.704 222.614 357.947 222.239 358.369C219.537 361.308 216.96 365.272 212.333 364.399C209.789 363.93 207.836 361.601 208.61 357.112C209.45 352.237 214.451 350.409 217.996 347.332C219.278 346.224 220.318 344.971 221.429 343.99C222.683 342.886 224.023 342.239 225.278 341.196C227.138 339.647 228.778 337.217 230.775 335.537C232.553 334.038 234.673 333.009 236.438 331.207C236.732 330.909 236.846 330.213 237.146 329.909C239.088 327.885 241.59 326.664 243.727 324.809C245.509 323.255 246.959 321.225 248.757 319.928C249.55 319.351 250.622 319.284 251.45 318.693C252.508 317.921 253.463 316.93 254.625 316.115C256.289 315.036 257.88 313.847 259.386 312.557C260.579 311.448 261.439 309.473 262.63 308.152C264.197 306.429 265.66 304.615 267.01 302.718C267.431 302.121 268.13 301.772 268.612 301.179C270.193 299.208 271.066 296.391 272.362 294.663C273.903 292.629 276.644 291.262 277.22 288.452C277.36 287.791 277.055 286.614 277.081 286.057C277.4 279.487 280.534 275.12 282.697 270.585C283.359 270.798 283.359 270.144 284.026 270.357C285.918 267.173 289.091 265.618 291.559 263.172C291.736 262.536 293.012 263.891 293.122 262.686C293.347 261.852 292.568 262.129 292.497 261.61C295.216 260.404 294.174 257.741 294.044 255.291C293.964 253.839 294.578 251.718 294.443 249.994C294.374 249.04 293.975 248.666 294.08 247.858C294.418 245.68 297.086 242.521 297.842 241.343C298.248 240.7 298.294 239.86 298.564 239.515C299.379 238.453 300.534 238.219 301.073 237.206C302.122 235.238 302.298 229.865 301.409 227.659C299.702 223.521 294.968 224.774 291.712 226.005C290.702 226.389 289.852 227.225 289.007 227.497C288.527 227.66 288.083 227.278 287.681 227.452C286.361 228.049 285.419 229.253 284.082 229.442C283.472 229.54 282.902 229.132 282.333 229.122C280.258 229.075 276.906 230.384 274.542 230.731C272.974 230.954 271.891 233.16 270.471 233.51C270.52 234.681 269.821 234.857 269.751 235.88C267.825 237.587 265.999 237.982 264.528 240.223C263.058 242.464 262.48 246.195 260.518 247.525C257.374 249.652 252.526 246.423 248.849 246.614C247.974 246.661 247.122 247.363 246.175 247.326C243.991 247.245 241.489 244.84 238.999 244.174C237.145 243.668 235.892 242.946 234.386 243.491C232.737 244.083 228.403 246.783 227.391 247.775C227.098 248.057 227.262 248.61 226.918 248.821C224.194 250.519 221.954 250.26 218.76 248.267C218.617 246.856 218.594 245.436 218.692 244.022C220.959 241.489 223.076 238.778 225.363 236.275C226.352 236.119 227.293 235.741 228.115 235.168C228.936 234.596 229.618 233.845 230.107 232.972C230.705 233.066 231.318 232.998 231.88 232.774C234.432 230.333 235.838 226.418 239.21 225.044C239.748 222.472 243.492 221.548 244.306 218.045C244.562 216.984 244.382 214.139 243.585 213.526C242.492 212.681 236.478 213.954 235.392 214.321C234.643 214.577 234.202 215.391 233.58 215.589C232.644 215.877 231.709 215.333 230.492 215.485C227.325 215.895 224.871 217.807 221.99 218.929C219.601 219.884 216.933 220.021 214.634 220.809C212.918 221.396 211.385 222.666 209.7 223.037C208.446 223.326 207.405 222.937 206.382 223.197C205.552 223.409 204.577 224.113 203.695 224.439C201.802 225.123 199.866 225.68 197.9 226.106C195.016 226.787 192.338 228.789 189.598 229.815C188.239 230.332 186.752 230.091 185.385 230.478C184.314 230.785 183.32 231.606 182.241 231.94C180.995 232.364 179.624 232.232 178.464 232.616C175.178 233.706 171.995 237.383 167.901 238.11C164.225 238.765 160.925 238.502 158.361 239.4C155.797 240.298 154.599 242.311 152.942 242.942C150.368 243.912 144.012 244.714 144.137 242.131C144.213 240.527 150.344 237.447 151.586 237.325C153.318 237.163 155.045 238.375 156.856 238.292C161.748 238.066 164.82 231.415 169.225 231.53C170.519 231.562 171.679 232.747 172.931 232.978C174.975 232.502 176.975 231.018 178.324 230.233C180.684 228.885 182.95 229.156 185.676 228.347C187.614 227.775 189.639 225.678 191.699 226.69C194.359 225.195 197.909 223.509 201.08 223.54C208.241 219.687 217.021 218.306 224.112 215.001C225.017 214.833 224.834 215.877 225.86 215.583C226.492 215.576 226.275 214.494 226.998 214.544C229.617 214.262 232.102 213.237 234.159 211.589C236.132 212.556 237.978 210.966 239.499 210.439C239.921 210.562 239.478 211.655 240.36 211.263C241.317 211.395 240.975 209.846 241.738 209.719C242.886 212.311 244.767 209.132 246.391 209.069C248.015 209.007 248.348 211.348 249.681 209.975C250.246 208.494 248.729 209.351 248.853 208.354C251.521 208.72 252.405 206.484 253.621 204.528C254.247 203.548 255.277 202.847 255.925 201.947C256.771 200.759 257.329 199.054 258.06 197.506C258.958 195.629 260.108 194.411 260.416 193.337C261 191.31 260.94 187.837 260.42 186.701C259.818 185.364 258.81 185.731 257.384 185.008C255.852 184.211 254.27 182.003 252.191 182.186C252.108 181.683 252.545 180.601 251.796 180.846C250.754 182.53 248.872 181.452 247.368 181.238C248.875 179.603 251.898 180.339 254.722 179.878C255.324 180.718 253.939 181.612 254.855 182.278C255.476 181.628 256.257 181.153 257.119 180.901C257.981 180.649 258.895 180.628 259.768 180.841C259.421 179.052 261.77 178.921 262.087 177.463C262.44 175.889 261.088 173.585 259.811 173.152C258.845 172.818 257.191 173.141 255.842 173.016C246.036 172.148 234.556 170.674 225.631 172.034C225.192 171.68 225.454 170.542 224.809 170.414C221.907 167.909 219.091 166.511 215.509 164.81C213.978 163.995 212.374 163.325 210.718 162.808C208.954 162.37 207.197 162.753 205.211 162.629C202.474 162.375 199.759 161.933 197.083 161.305C191.115 160.028 186.015 155.827 180.26 156.251C179.699 156.291 179.065 156.661 178.485 156.722C174.889 157.12 170.993 156.409 166.771 157.138C163.6 157.682 159.134 158.943 156.121 158.648C153.667 158.42 150.986 157.026 148.427 157.606C147.201 157.885 145.53 158.146 143.979 158.521C141.549 159.104 139.201 160.358 136.832 160.945C133.706 161.722 130.531 161.757 127.515 162.234C125.951 162.485 123.79 163.299 121.951 163.643C118.559 164.317 115.009 164.679 111.909 165.502C108.957 166.279 106.482 167.501 103.887 167.632C101.998 167.721 99.8192 167.484 98.1957 166.385C99.1578 165.216 100.238 165.68 100.246 164.323C100.289 160.823 92.9443 164.91 92.6226 161.425C92.4066 158.852 96.6622 159.527 97.9909 159.209C100.115 158.7 101.841 156.98 103.6 156.742C107.17 156.241 110.983 160.305 115.234 158.175C115.812 157.879 116.217 156.851 116.607 156.632C118.798 155.379 119.976 157.023 121.883 157.331C124.28 157.729 127.036 157.123 129.622 157.053C132.095 156.998 134.68 156.598 136.922 156.488L136.939 156.741Z" fill="#FFE600"/>
<path d="M646.857 204.254L630.342 447.113C625.907 447.928 621.348 449.657 611.731 449.702C593.67 449.786 588.702 443.823 581.489 448.433C581.489 448.433 572.988 453.921 566.549 455.947C562.639 457.173 562.864 456.16 560.433 457.246C556.084 459.185 550.008 470.9 550.008 470.9C544.369 481.689 540.859 482.215 541.781 485.082C543.435 490.01 553.506 487.472 560.709 495.905C561.863 497.252 564.616 500.472 563.564 503.216C562.822 505.082 560.346 506.584 558.123 506.494C557.477 506.464 556.842 506.309 556.255 506.038C554.957 505.491 548.106 502.64 546.468 504.138C545.073 505.434 548.415 509.035 548.776 516.785C549.022 522.282 547.5 523.793 546.682 524.324C546.122 524.668 545.496 524.89 544.845 524.976C544.735 525.084 544.601 525.164 544.454 525.21C544.307 525.257 544.152 525.268 544 525.242C542.501 525.065 541.098 524.411 539.998 523.378C536.032 519.511 527.965 504.404 519.829 498.863C510.148 492.277 500.086 499.034 495.493 492.068C493.412 488.905 493.075 483.848 495.38 480.994C499.613 475.763 508.35 482.58 520.426 478.737C525.166 477.227 529.965 471.626 539.548 460.418C542.369 457.135 545.993 452.549 544.598 450.147C544.43 449.876 544.211 449.639 543.953 449.45C540.829 446.763 539.897 441.728 539.695 440.921C538.257 435.13 520.26 427.209 514.992 424.666C511.709 423.08 484.557 408.815 473.754 384.992C472.345 381.885 468.82 373.344 465.164 373.699C462.437 373.961 462.167 378.925 457.763 380.52C454.47 381.709 450.042 380.603 447.574 378.039C442.995 373.259 446.512 365.565 443.635 364.174C440.644 362.725 436.873 371.027 428.634 372.818C419.443 374.813 410.798 367.377 409.429 366.155C400.27 357.98 398.935 345.012 398.473 340.551C397.512 331.185 399.78 326.831 396.05 321.298C393.33 317.27 390.686 317.459 385.772 313.812C385.096 313.324 369.836 301.717 371.059 286.103C371.931 274.766 381.01 267.435 382.63 266.126C391.147 259.253 396.319 262.549 400.264 257.689C408.926 247.044 387.73 226.698 395.421 209.792C400.078 199.551 413.439 195.376 421.803 194.788C443.645 193.318 464.732 214.204 472.582 234.72C481.124 256.975 471.081 270.995 482.901 282.179C493.587 292.29 512.299 290.769 513.175 288.148C513.765 286.372 506.171 284.353 503.705 276.756C501.956 271.413 503.767 266.481 504.243 265.223C506.832 258.45 512.907 254.964 515.432 253.56C537.036 241.549 589.979 244.563 613.811 223.112C619.66 217.845 624.065 210.827 627.573 202.943L646.857 204.254Z" fill="#E96262"/>
</g>
<path d="M503.679 183.202C501.653 197.594 499.141 211.946 496.773 226.312C496.431 228.351 496.194 231.166 494.536 232.6C492.879 234.034 490.419 233.824 488.538 233.705C443.848 230.744 399.437 224.487 355.669 214.985C353.13 214.433 350.012 213.775 348.933 211.118C348.268 208.99 348.133 206.732 348.538 204.54C349.591 194.323 350.634 184.083 351.669 173.822C352.195 168.823 352.704 163.82 353.195 158.812C353.564 155.378 352.959 149.708 355.669 147.09C356.383 146.531 357.205 146.125 358.083 145.899C358.962 145.673 359.877 145.63 360.773 145.775C370.876 146.512 381.006 147.235 391.109 148.275C395.332 148.695 399.528 149.182 403.738 149.722C405.79 144.525 407.816 139.329 409.868 134.133C408.198 125.753 407.409 117.031 410.513 108.901C411.67 105.608 413.581 102.633 416.094 100.211C418.607 97.7899 421.651 95.9902 424.984 94.9559C427.45 94.2292 430.047 94.0575 432.588 94.4533C435.129 94.8491 437.55 95.8024 439.679 97.2449L440.152 97.0871C443.406 96.1017 446.88 96.1085 450.13 97.1068C453.38 98.105 456.259 100.049 458.399 102.691C460.323 105.261 461.688 108.205 462.406 111.334C463.124 114.463 463.18 117.707 462.569 120.859C461.161 128.449 456.859 134.922 452.373 141.052C452.229 146.512 452.124 151.971 452.018 157.431C461.148 159.185 470.256 161.018 479.342 162.93C484.262 163.982 489.165 165.052 494.05 166.139C496.773 166.731 503.258 166.995 504.824 169.678C505.308 170.703 505.508 171.839 505.403 172.967C505.376 176.374 504.008 180.952 503.679 183.202Z" fill="white"/>
<path d="M505.457 172.925C505.563 171.797 505.363 170.661 504.878 169.637C503.286 167.006 496.827 166.69 494.104 166.098C489.219 165.002 484.316 163.932 479.396 162.888C470.319 160.95 461.211 159.117 452.073 157.389C452.178 151.93 452.283 146.47 452.428 141.011C456.914 134.88 461.216 128.408 462.623 120.817C463.234 117.666 463.178 114.421 462.46 111.292C461.742 108.163 460.377 105.219 458.453 102.65C456.313 100.008 453.434 98.0633 450.184 97.0651C446.934 96.0669 443.46 96.0601 440.206 97.0455L439.733 97.2033C437.604 95.7608 435.183 94.8074 432.642 94.4117C430.102 94.0159 427.505 94.1875 425.038 94.9143C421.706 95.9485 418.661 97.7483 416.148 100.17C413.636 102.591 411.724 105.567 410.567 108.859C407.463 117.002 408.252 125.711 409.923 134.091C407.871 139.353 405.845 144.484 403.792 149.68C399.583 149.141 395.386 148.654 391.163 148.233C381.06 147.194 370.93 146.47 360.827 145.733C359.932 145.589 359.016 145.631 358.137 145.857C357.259 146.084 356.437 146.49 355.723 147.049C353.013 149.68 353.618 155.337 353.25 158.77C352.75 163.769 352.241 168.773 351.724 173.781C350.689 184.024 349.645 194.263 348.593 204.498C348.187 206.69 348.322 208.948 348.987 211.076C350.066 213.707 353.184 214.391 355.723 214.944C399.491 224.445 443.902 230.702 488.592 233.664C490.473 233.782 493.051 233.9 494.591 232.559C496.13 231.217 496.485 228.309 496.827 226.27C499.195 211.905 501.708 197.552 503.734 183.16C504.01 180.95 505.378 176.372 505.457 172.925ZM445.495 104.005C446.674 103.996 447.843 104.224 448.932 104.676C450.022 105.128 451.009 105.795 451.836 106.636C453.256 108.303 454.291 110.262 454.868 112.374C455.446 114.486 455.551 116.7 455.177 118.857C454.177 125.685 449.915 131.565 445.876 136.985C445.486 137.511 445.233 138.126 445.14 138.774C444.974 139.116 444.876 139.487 444.85 139.866C444.692 145.233 444.587 150.588 444.482 155.955C441.965 155.499 439.443 155.061 436.918 154.64C437.005 149.377 437.128 144.115 437.286 138.853C441.759 132.736 446.061 126.237 447.468 118.66C448.378 113.689 447.687 108.558 445.495 104.005V104.005ZM431.748 117.528C432.442 113.167 434.712 109.211 438.128 106.412C439.918 109.543 440.581 113.192 440.009 116.752C439.154 122.738 435.72 128 432.195 132.854C431.087 127.819 430.935 122.62 431.748 117.528V117.528ZM429.485 145.904C429.419 148.391 429.366 150.903 429.314 153.403C428.446 153.258 427.577 153.114 426.683 152.995C427.63 150.614 428.564 148.259 429.485 145.904V145.904ZM417.724 134.262C416.408 128.066 415.356 121.672 416.579 115.384C417.527 110.556 420.131 105.518 424.683 103.215C426.822 102.072 429.26 101.612 431.669 101.9V101.9C429.015 104.42 426.968 107.511 425.683 110.937C422.591 119.094 423.381 127.803 425.052 136.169C422.999 141.344 420.965 146.518 418.947 151.693C416.501 151.298 414.041 150.956 411.58 150.64C413.335 146.097 415.089 141.576 416.843 137.077C416.837 137.065 416.834 137.051 416.834 137.038C416.834 137.024 416.837 137.011 416.843 136.998C417.182 136.635 417.438 136.202 417.59 135.729C417.742 135.256 417.788 134.755 417.724 134.262V134.262ZM386.546 214.509L383.296 213.944C381.823 213.668 380.35 213.404 378.876 213.115C370.812 211.602 362.787 209.918 354.815 208.011C356.569 189.444 358.485 170.904 360.564 152.39C374.184 153.188 387.778 154.42 401.346 156.087C403.977 156.402 406.608 156.731 409.239 157.073C411.87 157.415 414.133 157.744 416.606 158.086L393.834 215.68C391.4 215.286 388.98 214.891 386.546 214.457L386.546 214.509ZM437.852 222.021L436.707 221.876L429.077 220.864C419.868 219.653 410.66 218.377 401.556 216.917C409.107 197.675 416.663 178.433 424.223 159.191L429.143 159.954C431.669 160.349 434.221 160.77 436.733 161.204L444.298 162.52C443.973 182.612 443.947 202.709 444.219 222.811L437.852 222.021ZM490.17 226.612C481.933 226.707 473.698 226.268 465.517 225.297C460.966 224.836 456.414 224.31 451.888 223.731C451.608 203.779 451.608 183.822 451.888 163.861C457.975 164.993 464.053 166.194 470.122 167.466C479.58 169.452 488.987 171.518 498.406 173.636C496.064 191.413 493.319 209.072 490.17 226.612Z" fill="#E96262"/>
</svg>
