<svg width="1044" height="1032" viewBox="0 0 1044 1032" fill="none" xmlns="http://www.w3.org/2000/svg">
<path d="M527.8 294.733C533.241 308.21 538.242 321.896 543.374 335.521C544.097 337.457 545.3 340.014 544.581 342.084C543.863 344.155 541.627 345.203 539.939 346.041C499.755 365.821 458.166 382.608 415.511 396.263C413.035 397.054 410.006 398.044 407.744 396.282C406.104 394.771 404.858 392.884 404.113 390.783C399.916 381.408 395.7 372.019 391.466 362.615C389.422 358.022 387.361 353.435 385.282 348.852C383.884 345.695 380.525 341.087 381.563 337.465C381.902 336.623 382.411 335.861 383.059 335.226C383.706 334.59 384.478 334.096 385.326 333.773C394.444 329.36 403.578 324.922 412.848 320.77C416.715 319.023 420.593 317.346 424.508 315.709C423.687 310.182 422.844 304.669 422.023 299.143C416.386 292.721 411.341 285.562 409.965 276.969C409.321 273.539 409.488 270.007 410.454 266.653C411.419 263.3 413.156 260.219 415.525 257.657C417.298 255.795 419.461 254.348 421.859 253.42C424.257 252.492 426.831 252.107 429.395 252.292L429.726 251.919C432.052 249.438 435.064 247.707 438.377 246.947C441.691 246.186 445.156 246.431 448.33 247.649C451.282 248.912 453.936 250.779 456.122 253.13C458.308 255.48 459.979 258.263 461.026 261.297C463.602 268.575 463.113 276.331 462.293 283.883C464.897 288.683 467.536 293.464 470.175 298.245C478.958 295.199 487.762 292.232 496.587 289.345C501.374 287.797 506.155 286.272 510.929 284.771C513.584 283.922 519.332 280.907 522.029 282.449C522.961 283.094 523.702 283.978 524.175 285.008C525.856 287.971 526.96 292.62 527.8 294.733Z" stroke="#E96262" stroke-width="0.01"/>
</svg>
