<svg width="777" height="744" viewBox="0 0 777 744" fill="none" xmlns="http://www.w3.org/2000/svg">
<path d="M622.364 580.676C469.657 578.255 286.442 557.206 132.077 538.578C133.393 414.747 142.141 298.901 162.111 170.466C321.616 170.944 480.772 185.391 637.756 213.641L622.364 580.676Z" fill="#FFE600"/>
<path d="M622.383 584.014C472.57 581.646 297.854 561.94 131.689 541.917C130.883 541.82 130.141 541.43 129.605 540.821C129.069 540.212 128.776 539.427 128.781 538.615C130.097 410.298 139.7 293.176 158.855 170.029C158.974 169.253 159.367 168.545 159.963 168.033C160.559 167.522 161.318 167.24 162.104 167.24C321.799 167.714 481.146 182.148 638.327 210.376C639.111 210.518 639.816 210.939 640.314 211.56C640.812 212.181 641.069 212.962 641.037 213.757L625.646 580.791C625.628 581.648 625.278 582.463 624.669 583.065C624.06 583.667 623.239 584.008 622.383 584.014V584.014ZM135.464 535.774C299.354 555.507 471.373 574.806 619.278 577.371L634.407 216.388C479.431 188.731 322.356 174.505 164.932 173.87C146.265 294.742 136.872 409.903 135.464 535.774Z" fill="#FFE600"/>
<mask id="mask0_100_6775" style="mask-type:alpha" maskUnits="userSpaceOnUse" x="135" y="166" width="507" height="411">
<path d="M625.811 576.981C472.984 574.558 289.626 553.493 135.14 534.851C136.457 410.922 145.212 294.986 165.197 166.449C324.827 166.928 484.108 181.387 641.215 209.659L625.811 576.981Z" fill="#E96262"/>
</mask>
<g mask="url(#mask0_100_6775)">
<path d="M647.12 204.436L179.837 172.66L154.155 550.323L621.439 582.099L647.12 204.436Z" fill="#FFE600"/>
<path fill-rule="evenodd" clip-rule="evenodd" d="M137.201 156.922L137.418 156.937C137.338 157.3 137.088 157.439 137.167 157.998C138.155 158.128 139.16 157.963 140.054 157.524C140.183 156.7 139.31 156.803 139.876 156.193C141.866 156.267 143.203 155.498 145.198 155.572L145.077 155.698L145.185 155.834C145.167 156.101 145.15 156.362 145.159 156.631C145.295 156.689 145.447 156.698 145.589 156.656C145.731 156.614 145.854 156.524 145.936 156.401C146.019 156.278 146.056 156.13 146.041 155.983C146.026 155.836 145.961 155.698 145.855 155.594L145.874 155.322L145.657 155.307C147.334 154.382 149.354 154.743 150.998 154.151C151.571 153.933 152.076 153.079 152.587 152.879C155.199 151.85 157.722 152.536 160.78 152.084C164.403 151.549 167.69 149.057 171.476 149.248C176.029 149.479 179.211 152.477 184.158 152.842L184.039 153.107L184.133 153.371C184.122 153.532 184.111 153.688 183.908 153.635C183.955 154.515 185.244 154.201 185.025 153.152C184.875 153.142 184.73 153.132 184.586 153.122L184.704 152.862L184.61 152.599C186 152.621 187.724 154.542 188.358 152.446C189.112 152.369 188.668 153.635 189.658 153.288C191.365 151.438 194.198 153.809 195.656 152.155C196.344 152.151 196.258 153.005 197.187 152.733C197.926 152.784 197.569 151.385 198.33 151.448C199.748 153.841 201.838 149.156 203.218 150.54C203.654 150.212 202.828 149.128 203.711 148.971C204.318 150.559 207.194 149.168 208.355 148.851C208.746 147.71 207.618 147.868 208.19 147.253C209.366 146.394 209.188 148.025 210.384 147.855C210.866 147.832 210.875 147.201 210.869 146.547C212.769 146.877 215.11 146.215 216.77 148.328C217.342 148.138 217.806 146.98 218.545 147.857C219.231 149.021 217.057 148.387 217.375 149.945C219.752 151.145 221.048 148.848 221.888 147.168C222.894 147.236 223.194 148.083 224.286 148.046C224.678 147.14 224.143 146.623 224.582 145.664C226.297 144.267 226.825 141.347 229.166 140.769C228.457 138.883 230.873 138.092 230.871 136.316C230.862 134.639 228.569 133.366 227.046 131.944C225.523 130.522 223.877 129.254 222.772 128.089C221.667 126.925 220.547 124.91 219.38 123.998C214.931 120.506 205.951 119.309 199.694 118.582C197.194 118.283 195.792 119.607 194.136 119.723C190.56 119.983 187.039 117.866 184.745 116.766C185.407 114.504 187.802 115.187 189.679 114.538C190.554 114.234 191.15 113.185 191.938 113.016C194.772 112.426 195.999 113.934 198.241 115.874C197.957 115.855 197.945 116.608 198.22 116.672C199.77 116.554 200.807 116.993 202.176 117.069C202.232 116.702 202.167 116.328 201.992 116.001C202.788 116.211 203.813 116.158 204.403 116.606C203.925 116.574 203.691 116.803 203.708 117.38C204.824 117.4 205.522 117.9 206.789 117.746C207.222 117.295 206.521 116.918 207.268 116.706C207.681 117.114 206.842 117.794 207.657 118.04C209.32 118.242 210.935 116.508 212.062 118.982C212.791 119.271 212.795 118.64 212.759 117.945C213.613 118.271 213.993 119.102 214.898 119.336C215.05 119.115 215.251 118.932 215.486 118.803C215.721 118.673 215.983 118.6 216.251 118.59C217.898 119.01 219.278 120.897 220.628 119.525C221.353 119.222 220.771 120.389 221.495 120.081C222.18 120.044 222.376 119.376 222.856 119.056C224.716 120.373 226.552 118.336 228.407 118.171C230.262 118.007 232.107 118.887 233.9 118.88C234.234 117.841 235.692 118.248 236.371 117.635C236.799 118.072 237.105 119.478 237.876 118.748C238.715 118.565 237.352 117.087 238.362 117.435C240.493 118.457 243.074 115.917 245.418 117.669C246.03 117.621 245.52 116.168 246.35 116.369C247.107 116.242 248.533 117.121 250.071 117.013C250.452 117.799 251.043 118.463 251.779 118.934C253.176 119.749 258.373 120.539 258.847 118.901C258.41 117.938 257.144 117.913 256.935 116.715C257.371 116.543 257.54 116.024 257.638 115.405C261.049 116.011 262.524 114.128 265.41 114.068C267.703 111.576 264.76 107.208 262.588 106.279C260.683 105.456 259.089 106.728 257.714 106.651C255.612 106.508 253.688 104.333 253.894 102.285C254.338 97.8073 259.096 101.522 260.989 101.449C262.355 101.408 263.274 99.8953 265.412 101.063C266.899 99.4883 269.594 99.3754 270.633 96.9882C272.616 92.4696 270.232 91.5533 267.587 89.4574C265.324 87.6611 262.865 86.103 260.923 84.1944C258.305 81.6087 256.281 78.5159 253.455 76.7875C252.323 76.1016 250.712 76.0424 249.321 75.0596C248.255 74.3111 246.643 71.5592 246.587 70.9911C247.985 71.2985 248.537 72.5371 250.287 72.4327C251.498 71.0625 254.824 69.3 256.349 69.7165C257.331 69.9788 257.94 71.6235 258.919 71.9247C260.173 72.3005 261.274 71.1463 262.493 70.7153C264.772 64.2337 260.047 61.002 257.447 57.0098C256.881 56.1334 256.622 54.8532 256.007 54.0405C252.979 50.0136 248.068 48.635 243.745 45.4194C240.687 43.1501 237.417 40.8049 235.313 40.1033C234.221 39.7329 233.268 40.115 232.461 39.7417C231.968 39.5182 231.615 38.6339 230.975 38.1044C229.389 36.7732 228.499 35.8971 227.111 34.7915C225.474 33.4792 223.239 31.763 221.721 31.1626C221.291 30.9937 220.009 31.2082 218.868 30.8066C218.323 30.6131 217.11 29.4693 215.617 28.8426C214.215 28.2557 212.688 28.0401 211.911 27.3951C210.087 25.869 209.853 23.4789 211.849 22.8828C214.569 22.0734 218.447 25.6665 219.452 26.584C221.214 28.1897 223.205 28.9005 224.625 30.1981L224.506 30.4638L224.605 30.7275L223.942 30.7103C224.197 31.4707 225.191 32.3762 225.888 31.8258C225.9 31.6535 225.912 31.4755 225.924 31.3032L225.942 31.0362L225.96 30.7693C231.643 32.6362 236.655 35.2395 240.228 39.4654L240.006 39.4503L239.988 39.7172C239.371 40.5691 240.139 41.4369 241.039 41.3417C241.09 40.9751 241.026 40.6016 240.855 40.2734L241.077 40.2885L241.095 40.0272C241.771 40.1122 241.92 40.7871 242.378 41.1255L242.254 41.3852L242.358 41.6549L241.919 41.625C241.901 41.8919 241.883 42.1533 241.865 42.4146C242.088 42.4297 242.305 42.4445 242.522 42.4592C242.539 42.1979 242.559 41.9032 242.575 41.6696L242.789 41.8071L243.016 41.6828C243.199 41.6819 243.379 41.7345 243.533 41.8343C243.687 41.9341 243.808 42.0767 243.883 42.2445L243.759 42.5043L243.863 42.7739L243.418 42.7437C244.175 44.2699 245.645 45.0011 247.296 45.5212C247.314 45.2599 247.334 44.9652 247.35 44.7316L247.564 44.8691L247.785 44.7444C249.172 44.9672 249.475 46.418 250.814 46.6989L250.699 46.8307L250.584 46.957C250.45 47.7802 250.732 48.1458 251.432 48.0481L251.452 47.2507L251.555 47.3861L251.681 47.2606C252.755 47.8923 252.876 49.6379 253.772 50.5144C255.445 51.0472 255.337 49.2745 256.657 50.0737C256.197 50.8413 256.987 52.4424 257.735 50.6387C256.965 52.5247 258.81 51.2704 258.991 52.8021C259.657 53.1044 260.508 52.6651 261.184 53.4038C260.835 53.2013 260.787 54.6449 261.151 54.4685C262.113 53.8803 262.66 54.8728 263.556 55.079C263.69 55.8981 262.788 55.373 263.065 56.3863C265.127 55.6438 265.384 57.8567 267.4 58.357C267.642 59.2337 266.684 58.5429 266.926 59.4085C268.659 60.1408 270.487 60.7679 270.562 62.7114C272.274 61.5262 274.427 60.9129 273.812 58.0389C273.582 56.9059 269.447 53.6417 268.71 52.5692L268.921 52.5836L268.939 52.3223C269.328 52.2649 269.46 51.8829 269.418 51.2711C269.348 51.2253 269.269 51.1937 269.187 51.1782C269.104 51.1627 269.02 51.1636 268.938 51.1808C268.856 51.1981 268.778 51.2313 268.708 51.2787C268.639 51.326 268.58 51.3865 268.534 51.4568C268.488 51.527 268.457 51.6056 268.441 51.6881C268.426 51.7705 268.427 51.8552 268.444 51.9373C268.461 52.0194 268.494 52.0973 268.542 52.1665C268.589 52.2358 268.649 52.295 268.72 52.3409L268.497 52.3258L268.479 52.5927C264.893 51.3544 260.847 50.6324 259.173 47.245C260.105 46.1129 261.202 45.4166 262.969 46.0451C263.077 46.8457 261.515 46.9015 262.248 47.6161C263.218 49.1289 263.166 46.7624 264.264 46.8818C265.547 47.5779 263.783 48.2065 264.409 49.2769C265.181 49.2624 264.725 47.6617 265.565 47.7188C265.751 48.3515 266.65 48.1948 266.623 49.0812C266.92 50.2186 265.4 48.998 265.697 50.1354C267.811 49.0223 270.079 50.7463 272.037 51.9408C272.385 51.9253 272.234 51.2671 272.72 51.4286C273.961 53.1442 276.352 52.156 277.497 53.7143C278.304 53.6742 278.353 53.3702 279.036 53.7575C279.53 54.1925 279.892 54.757 280.082 55.3871C283.305 54.489 282.974 57.9524 286.627 57.7204C287.218 57.984 285.934 58.2933 286.588 58.7791C287.738 58.2987 288.261 59.2392 288.98 59.9194C287.311 62.0404 279.474 59.1556 279.827 63.0733C279.91 63.9951 280.61 64.5455 281.967 64.4701L281.949 64.7371L282.177 64.7526C282.091 65.1098 281.841 65.2493 281.909 65.807L282.796 65.8337C282.849 65.4671 282.784 65.093 282.611 64.7654L282.834 64.7805L282.852 64.5136C283.296 64.1471 284.487 63.312 284.862 63.7844C284.394 63.8531 284.777 65.0355 285.27 64.8568C285.921 65.1412 285.684 64.276 285.749 63.8056C286.539 63.6973 286.242 64.7665 287.044 64.6478C288.402 64.3156 290.103 62.8727 291.089 62.6605C291.35 62.6 291.927 63.0749 292.187 62.9529C292.995 62.5666 293.177 61.6126 294.002 61.4005C294.351 61.5543 294.72 61.6566 295.098 61.7041C296.305 61.8644 297.451 60.7859 298.425 62.0755C299.175 60.8194 299.501 60.7968 300.881 61.3599C301.128 60.1087 302.023 59.6891 302.715 59.0323C304.48 56.0798 302.999 51.8285 303.328 47.6388C303.395 46.6601 303.728 45.951 303.635 45.2576C303.308 42.8388 301.069 41.4296 300.959 39.5955L301.181 39.6106L301.2 39.3437C304.253 39.2161 302.873 33.7092 302.774 31.9651C302.675 30.221 303.366 28.5139 303.16 27.1983C302.889 25.504 301.193 24.1541 300.03 22.0472C299.717 21.4673 299.742 20.6869 299.431 20.1741C297.572 17.1149 294.199 15.7795 294.396 12.0557C288.578 5.93408 282.562 0.0224401 279.005 -8.6268C278.861 -9.55273 279.364 -9.63029 279.281 -10.4627C277.81 -10.7694 277.561 -12.4455 277.197 -13.9897L277.384 -14.2004L277.439 -14.5151C279.442 -13.8203 278.767 -10.0563 281.016 -9.61844L281.076 -11.4747L281.295 -11.3313L281.515 -11.4504C283.786 -8.41089 285.745 -5.15032 287.361 -1.7181L287.145 -1.73285L287.127 -1.4715C285.859 -2.27797 284.833 -3.41108 284.155 -4.75167C283.978 -4.69667 283.715 -4.78154 283.702 -4.49757C283.837 -2.13097 285.972 0.231996 287.546 -0.655314C287.559 -0.838813 287.57 -1.0112 287.582 -1.18358L287.685 -1.04811L287.805 -1.17956C289.751 0.0253267 290.383 2.72181 292.032 4.26961L291.81 4.25448L291.792 4.51583C291.575 4.50108 291.358 4.48634 291.13 4.47083C290.709 5.81643 292.733 6.78637 293.082 5.59788L293.304 5.613L293.322 5.35166C293.563 5.41278 293.659 5.64831 293.743 5.89422L293.625 6.15433L293.723 6.42919L293.284 6.39931C293.231 6.76772 293.295 7.14344 293.468 7.47322L293.251 7.45847L293.233 7.71982C293.216 7.98117 293.039 8.03617 292.99 8.26189C294.506 9.13588 294.359 10.9638 296.434 10.7586C296.839 13.0206 298.864 13.4767 299.813 15.1222C300.248 15.2188 300.261 14.784 300.496 14.61L300.478 14.8713L300.701 14.8865C301.831 14.7008 301.099 16.5894 302.219 15.7327C302.487 14.7454 301.405 15.2919 301.606 14.3894C304.078 14.8424 305.81 18.2896 306.887 21.1839L306.67 21.1692L306.652 21.4361C306.505 21.3032 306.33 21.2074 306.139 21.1565C305.948 21.1056 305.747 21.1012 305.554 21.1436L305.335 21.0002L305.114 21.1248C304.923 20.6482 304.737 20.1886 304.053 20.2985C303.937 21.19 304.074 21.8082 304.895 21.6462L305.108 21.7892L305.334 21.6705C305.561 22.5183 305.825 23.3183 306.821 23.3022C307.003 22.756 307.55 22.2737 307.096 21.7177L307.324 21.7332L307.342 21.4663C308.118 21.9659 309.729 22.8519 309.242 23.9305C309.234 23.5557 308.704 23.6258 308.79 24.1735C309.604 24.5976 310.469 25.8518 311.111 27.1692C310.597 27.9107 309.213 26.3306 308.89 27.6271C309.29 29.2184 310.525 29.8666 311.428 30.8889C312.309 30.354 313.299 30.026 314.325 29.9295C315.354 29.8274 316.393 29.8604 317.413 30.0278C319.14 29.2738 318.929 26.0585 320.88 25.6325L320.995 25.4951L321.11 25.3688C321.502 26.2613 322.617 25.0579 322.022 24.6041C321.9 24.5978 321.778 24.6157 321.663 24.6568C321.548 24.6979 321.443 24.7613 321.352 24.8434L321.37 24.5765L321.148 24.5614C321.234 24.2041 321.483 24.0647 321.404 23.5062C321.519 22.8828 320.396 23.6221 320.772 22.6924C321.969 14.8692 314.758 11.2393 313.923 3.89237C313.576 1.24445 313.666 -1.44243 314.19 -4.06112C315.28 -1.367 315.954 1.77926 318.37 2.97699C318.549 -0.479909 315.985 -3.01732 315.613 -6.67367C316.342 -5.73028 316.344 -5.50673 317.572 -6.07677C317.451 -3.05727 322.301 -1.09629 322.836 1.54334C323.447 4.55678 325.602 8.01604 325.823 10.9303C325.873 11.6823 325.473 12.6271 325.516 13.306C325.659 15.8072 327.142 17.7403 327.708 20.0189C327.869 20.6835 327.684 21.5982 327.853 22.1516C328.09 22.866 328.746 23.1564 328.898 24.0382C329.469 27.4735 328.682 29.8444 329.239 33.0776C329.641 35.3842 331.023 36.5004 331.702 37.932C332.192 38.9429 332.005 39.9637 332.491 40.6168C334.322 43.0116 336.569 45.0568 339.125 46.6542C341.215 47.9528 344.624 49.0895 344.914 51.8857C345.077 53.5167 343.686 55.6455 342.564 56.0496C341.052 56.6004 339.615 54.5642 337.544 54.2949C334.731 53.936 334.128 55.2469 332.591 57.3099C333.312 63.1296 334.613 70.0445 340.317 70.0357C340.953 66.4311 343.131 64.7972 343.926 61.399C346.73 58.5395 349.943 56.2218 350.696 50.737C352.171 49.5804 352.896 47.4622 354.807 46.8827C355.001 45.0078 356.325 44.6844 357.113 43.7716C357.385 43.4716 357.344 42.8432 357.61 42.4591C358.15 41.6745 359.271 41.4547 359.642 40.9213C360.176 40.2202 361.322 37.9072 361.328 36.9915C361.342 35.3892 359.399 33.6482 358.865 32.1371C358.745 31.7659 358.997 31.1908 358.923 30.8003C358.665 29.6655 357.764 28.4479 357.484 27.3116C356.886 24.8465 357.306 21.7132 355.517 20.3458C354.702 20.4133 354.31 20.0124 353.768 19.7688C353.619 18.0269 353.96 15.7206 355.488 14.7743C355.316 15.824 356.312 15.5565 357.011 15.6209C357.238 16.8876 357.844 17.7444 359.365 17.5574C360.162 15.7737 359.653 11.8454 358.776 9.30543C358.261 7.83477 356.407 6.18362 356.488 5.23946C356.569 4.29529 358.06 4.0615 358.104 3.16511C359.169 4.91345 359.244 7.8346 361.451 8.32542C361.582 6.3959 363.211 5.77485 363.598 3.86829C364.385 0.0114259 362.917 -1.32296 361.925 -4.40141C360.954 -7.3612 360.869 -10.0596 359.753 -11.6437C357.447 -14.9456 353.16 -16.9633 350.972 -19.6203C349.749 -18.0667 351.392 -16.9998 351.939 -15.6051C352.744 -13.5616 352.957 -10.4467 353.719 -8.92013C351.273 -9.99704 351.693 -14.2867 349.761 -15.9431C350.252 -18.1443 348.934 -17.7479 349.438 -19.4007C347.282 -20.564 347.616 -24.4907 346.598 -26.9342C350.737 -32.0156 346.856 -38.0334 346.32 -44.198C344.202 -49.3696 340.021 -53.6035 340.943 -61.3225L340.925 -61.0611L341.153 -61.0456C341.172 -60.8899 341.249 -60.747 341.368 -60.6449C341.487 -60.5428 341.64 -60.4888 341.797 -60.4935C341.828 -60.9439 341.857 -61.3776 341.837 -61.8203C341.626 -61.8347 341.398 -61.8502 341.175 -61.8653L341.296 -61.9968L341.188 -62.1326C341.29 -62.6756 341.457 -63.2044 341.686 -63.7076C345.052 -65.892 347.883 -65.0459 350.018 -62.1075C352.828 -58.2463 355.819 -50.641 356.795 -46.7592C359.823 -44.8774 363.14 -40.423 366.662 -38.4797C369.559 -36.8862 373.647 -36.2227 374.887 -40.0711C375.403 -41.6672 374.922 -42.9736 375.469 -44.0313C375.819 -44.4917 376.203 -44.925 376.618 -45.3274C380.002 -47.924 383.748 -44.3566 386.24 -42.8855C387.883 -41.9135 389.863 -41.466 391.234 -40.5907C391.631 -40.3459 391.878 -39.7034 392.277 -39.503C394.512 -38.4405 396.582 -38.0652 398.134 -36.658C399.256 -35.2466 399.007 -33.0681 400.185 -31.8205C400.706 -31.2766 401.938 -31.232 402.565 -30.6754C403.461 -29.8938 403.528 -28.4034 404.701 -28.4856C404.592 -26.8842 406.107 -25.837 406.759 -24.1671C406.944 -23.6797 406.683 -23.055 406.924 -22.5749C407.217 -21.9573 407.979 -21.6597 408.187 -20.9305C408.584 -19.7136 408.207 -18.1025 408.474 -16.9447C409.285 -13.6718 411.453 -12.9434 414.299 -12.2415C414.998 -13.3113 415.572 -14.5236 414.864 -15.9404C416.369 -17.9552 415.344 -20.6226 416.009 -23.337C414.718 -23.3242 414.834 -24.7911 415.225 -26.0158C415.007 -25.8574 414.386 -25.4249 414.569 -26.3063C413.076 -27.7708 413.433 -30.4782 413.053 -33.2581C412.664 -35.7593 411.442 -38.0769 411.061 -39.9519C410.465 -43.0202 411.926 -44.4626 411.74 -46.5702C412.726 -45.7936 412.691 -47.4049 412.909 -48.39C412.555 -49.2632 412.008 -47.3843 412.035 -48.6841C411.784 -49.9301 412.797 -49.5484 412.547 -50.7944C411.676 -50.3844 411.731 -50.2186 411.468 -51.3538L411.685 -51.339L411.702 -51.6004C411.774 -51.5901 411.847 -51.5851 411.919 -51.5856L412.358 -51.5558C412.373 -51.8398 412.305 -52.1219 412.162 -52.368L411.723 -52.3978L411.506 -52.4126L411.488 -52.1457C411 -52.2794 411.528 -53.5563 411.106 -53.7526L411.323 -53.7378L411.34 -53.9992C411.952 -53.9576 411.916 -55.2282 411.621 -55.5833L411.404 -55.5981L411.514 -55.7359L411.411 -55.8657C411.616 -57.0696 410.974 -59.1299 410.207 -59.3497C411.668 -59.3062 410.073 -61.9844 411.39 -61.7049C413.448 -61.0063 413.057 -57.3124 413.352 -54.745C413.884 -50.1727 414.108 -46.9733 415.38 -42.9988C416.153 -40.5609 417.257 -38.8937 417.827 -37.3411C419.054 -34.0287 419.048 -30.6494 417.338 -29.4027C418.22 -26.6054 417.915 -23.2632 418.353 -20.3453C418.445 -19.6464 418.886 -19.1471 418.946 -18.4616C419.021 -17.5179 418.562 -16.5157 418.625 -15.5506C418.641 -15.2198 419.176 -14.5355 419.237 -14.2073C419.967 -10.5601 419.424 -6.60283 420.424 -3.81429C420.64 -3.20748 421.262 -2.82998 421.471 -2.19574C421.679 -1.5615 421.457 -0.677203 421.622 -0.0626694C421.835 0.745083 422.477 1.82218 422.84 2.8915C423.949 6.12322 424.293 6.90076 426.632 8.32231C428.116 9.25558 429.881 9.83369 430.911 11.116C432.536 13.0979 432.547 14.579 434.021 17.0534C433.205 22.897 438.503 18.7547 440.337 19.3934C440.383 18.715 440.696 18.3732 441.257 18.3387C451.488 18.4758 457.604 23.2546 456.081 36.6084C454.662 38.009 454.023 40.418 453.221 42.6091C457.893 43.4854 466.215 44.744 470.078 40.4986C472.863 40.6321 475.386 39.9937 478.002 41.0375C479.863 41.7729 481.618 43.8083 484.324 43.3667C484.963 43.8347 485.008 44.8991 485.567 45.5405C486.496 46.5813 487.737 46.4869 488.804 47.2243C489.375 47.6206 489.74 48.4945 490.295 48.8786C492.839 50.5766 495.787 51.3413 497.408 53.876C498.897 54.3909 500.286 55.1581 501.516 56.1441C502.167 54.7806 502.6 54.4079 502.742 52.736C502.932 50.5144 503.487 48.0216 503.868 45.8688C504.441 42.623 505.346 37.3608 504.698 34.4845C502.498 24.6092 499.676 13.3732 500.077 2.21671C499.883 1.20915 500.92 1.81594 500.786 0.91301C500.715 0.388691 499.941 0.676837 500.167 -0.179269C501.117 -1.9861 499.603 -2.55831 500.545 -4.67286L500.759 -4.52983L500.986 -4.66522C502.168 -3.23297 501.524 -1.23777 501.902 0.681675C502.216 2.3063 503.366 3.79226 503.724 5.51482C503.882 6.31323 503.674 7.14824 503.863 7.90962C504.305 9.6156 505.312 11.2371 505.654 13.2825C505.774 13.8996 505.502 14.7693 505.588 15.4008C505.761 16.7086 506.425 17.8766 506.557 19.1425C507.258 25.7485 506.764 32.519 506.067 39.5718C505.736 43.0463 505.997 46.1923 505.923 49.9078C505.849 53.6232 504.883 59.1215 505.508 61.8398C505.909 63.5821 507.578 64.8296 508.024 65.9213C508.979 68.2934 508.619 74.3412 510.127 76.0638C511.495 77.6372 514.804 77.689 515.862 76.2527C518.236 76.1013 519.963 77.3192 521.987 77.7865C522.751 77.9613 523.626 77.4231 524.424 77.6002C525.222 77.7774 525.87 78.922 526.546 79.2528C527.41 79.697 528.733 79.9602 529.818 80.425C530.904 80.8899 532.441 81.7765 533.072 81.8641C534.284 82.0303 537.643 80.8566 538.02 79.1001C538.16 78.4337 537.631 77.2526 537.454 76.168C536.48 70.1133 535.456 64.4685 537.647 58.1207L537.756 57.9996L537.866 57.8674C537.976 59.1988 539.233 57.3068 537.884 57.6005L537.77 57.4642L537.667 57.5913C537.343 55.6085 538.659 55.7259 538.881 54.4394C538.223 54.0092 538.745 53.3129 538.493 52.5807C538.153 51.5129 537.134 51.1252 536.599 50.1224C535.607 48.2841 534.456 44.6753 534.928 41.836C535.186 40.1777 536.924 36.3855 540.168 37.2429C540.865 37.4188 542.929 39.3579 543.581 40.5307C544.936 42.9523 544.99 46.6653 544.194 48.5105C543.294 50.5777 540.651 51.3309 540.039 53.4232C538.78 57.572 541.6 60.4564 541.468 63.2964C541.348 65.8859 538.549 68.6842 539.202 71.9743C539.58 73.9048 542.184 74.797 543.028 76.3459C543.359 76.9774 543.105 77.9209 543.391 78.4767C543.938 79.5529 545.694 80.7616 547.058 80.994C547.429 81.0472 548.147 80.5094 548.391 80.5261C549.885 80.4098 552.459 81.663 554.317 81.7781C554.79 81.8103 555.27 81.4016 555.645 81.5556C556.69 81.9618 557.662 83.9273 559.089 84.0523C559.581 87.0967 560.798 88.5034 562.857 90.0121C564.411 91.1457 566.219 92.6596 568.011 94.1612C570.457 96.2213 572.278 96.5463 574.937 98.3638C575.945 99.0637 577.416 100.516 577.947 100.591C580.388 100.919 582.202 96.763 584.515 95.764C585.286 95.4317 586.121 95.2766 586.959 95.3101C590.834 95.8306 586.794 102.17 586.234 103.517C583.806 104.218 582.47 107.362 580.52 109.168C579.329 110.254 578.233 110.52 577.335 111.979C576.739 113.064 576.256 114.206 575.891 115.389C576.526 117.046 578.395 117.33 579.763 118.166C579.7 117.709 579.794 117.245 580.031 116.849C582.1 115.75 583.489 113.973 585.689 112.765C588.901 111.033 592.456 110.18 595.992 109.114C597.327 108.707 599.803 107.697 600.453 107.668C600.786 107.905 601.149 108.097 601.532 108.239C601.852 108.132 602.216 107.135 602.681 106.948C603.376 106.672 604.596 107.129 605.335 106.771C605.971 106.457 605.779 105.835 606.479 105.732C610.793 104.556 615.319 102.16 618.563 100.543C618.385 100.603 618.296 100.765 618.325 101.085C619.718 101.052 619.105 100.535 619.462 100.045C619.82 99.5557 620.343 98.5132 621.278 97.9846C622.411 97.3466 628.386 96.563 627.876 98.7237C626.884 102.874 619.704 102.078 616.254 102.861C614.16 103.344 612.716 104.949 611.079 105.603C608.782 106.52 606.312 106.955 604.825 107.793C604.11 108.196 603.665 109.16 602.993 109.59C602.134 110.14 601.059 110.095 600.095 110.56C599.518 110.823 599.079 111.525 598.506 111.832C597.282 112.492 595.819 112.482 594.702 113.048C594.124 113.338 593.694 114.242 593.101 114.581C591.902 115.288 589.936 115.774 588.416 116.28C585.56 117.203 582.726 117.312 581.013 119.497C582.492 121.156 582.872 124.031 583.414 126.743C580.484 130.89 584.632 137.909 588.755 138.067C589.589 137.14 590.906 135.845 592.348 136.585C593.145 134.963 594.957 134.606 595.777 132.98C596.218 132.491 596.173 133.147 596.892 133.012C596.586 129.293 603.749 125.495 603.833 129.523C603.858 130.385 602.241 132.643 601.279 133.153C599.029 134.369 595.486 133.486 594.552 136.126C594.559 137.897 594.915 139.649 595.602 141.282C596.289 142.914 597.292 144.394 598.553 145.638C599.279 146.374 600.338 147.485 601.346 147.85C602.011 148.096 603.101 147.673 603.994 147.941C604.607 148.122 604.964 148.71 605.5 148.792C609.07 149.275 613.959 147.132 616.34 148.339C618.207 148.002 623.593 145.268 626.286 147.898C626.763 148.355 627.728 150.264 627.483 151.65C627.168 153.416 624.9 154.066 623.384 154.432C621.555 154.866 619.227 156.334 617.577 156.361C614.634 156.424 612.177 153.614 609.5 153.717C608.201 153.768 607.125 154.969 606.131 155.203C603.377 155.865 600.87 155.102 599.258 156.3C597.781 157.395 597.791 159.552 595.983 161.501C594.838 162.719 593.071 163.236 591.719 163.496C589.457 163.901 588.484 162.6 586.896 162.537C585.856 162.466 584.235 163.63 582.645 164.253C580.82 164.973 580.317 164.972 579.041 166.243C576.534 168.776 578.128 176.716 580.17 178.224C580.868 178.729 581.794 178.334 582.382 178.559C583.587 179.082 585.087 180.597 585.813 181.585C586.401 182.385 586.496 184.022 587.457 185.088C587.836 185.51 589.063 186.124 590.052 186.767C591.854 187.956 593.387 188.748 595.272 188.798C596.09 189.58 596.522 190.788 597.842 191.006C598.349 192.342 598.151 193.356 597.724 194.713C595.821 196.416 593.939 194.841 591.969 195.053C590.843 195.183 589.787 196.095 588.817 196.805C587.847 197.516 586.994 198.961 586.301 199.383C585.816 199.696 585.328 199.316 584.973 199.6C584.338 200.154 584.103 201.384 583.352 201.679C583.065 203.593 581.578 204.352 581.199 206.387C580.936 207.788 581.562 209.272 581.273 210.632C580.989 212.11 579.508 212.859 579.6 214.295C580.161 216.07 583.586 216.298 585.002 217.657C586.053 218.639 586.247 220.635 587.604 219.074C590.462 221.329 591.132 218.369 592.525 217.107C592.811 216.847 593.459 217.103 593.859 216.879C594.841 216.331 595.351 215.472 596.119 215.357C597.908 215.087 599.988 215.966 601.349 217.388C601.647 216.548 600.638 217.172 600.947 216.327C602.916 216.528 604.749 217.1 605.396 215.144C604.487 214.414 603.784 213.459 603.358 212.373C602.932 211.288 602.798 210.11 602.967 208.957C604.866 207.41 606.63 207.011 608.257 209.121C609.104 210.223 608.652 211.528 609.705 211.828C610.866 212.164 613.109 209.825 614.656 209.333C620.368 207.487 625.178 212.244 626.993 216.367C627.265 217.318 627.306 218.321 627.112 219.291C626.775 221.871 626.053 226.66 625.034 228.25C624.184 229.583 622.875 229.846 621.625 231.063C620.59 232.065 619.814 233.543 618.88 233.892C617.152 234.409 615.316 234.441 613.572 233.984C611.762 233.498 609.701 230.369 607.505 230.862C605.749 231.301 604.268 235.748 601.568 236.514C600.076 236.932 598.796 236.208 597.575 236.913C595.614 238.07 593.677 241.815 592.491 243.65C592.453 244.206 592.453 244.709 592.439 245.245C588.503 250.703 583.264 254.475 578.286 258.583C575.445 258.15 574.414 260.906 572.029 260.236C568.864 262.177 566.387 263.684 563.273 264.467C562.33 264.699 561.535 264.304 561.064 264.657C558.975 266.225 557.478 268.106 556.034 269.539C554.507 271.049 550.134 272.925 547.961 273.257C547.328 273.354 546.532 272.987 545.977 273.19C544.63 273.685 544.146 275.462 542.991 276.014C541.873 276.508 540.658 276.743 539.436 276.7C538.65 276.596 538.288 275.678 537.479 275.835C535.944 276.133 533.519 279.839 532.623 281.516C531.727 283.192 531.905 284.852 531.548 287.057C530.917 290.924 529.28 294.377 528.551 297.042C527.919 299.357 527.887 301.55 526.786 303.358C525.722 304.953 524.485 306.426 523.097 307.749C522.097 308.678 521.036 309.539 519.922 310.326C519.216 310.759 518.351 310.588 517.688 311.051C516.92 311.591 516.355 312.905 515.613 313.636C514.656 314.571 513.556 315.139 513.11 315.701C512.22 316.797 512.062 318.048 511.257 318.295C508.592 319.12 506.249 316.782 504.766 315.167C504.824 314.316 504.414 314.026 504.615 313.039C504.315 312.611 504.087 312.093 503.572 311.946C503.426 307.031 500.129 305.891 498.593 303.021C498.066 302.053 497.871 300.246 497.209 298.732C496.82 297.868 496.042 297.156 495.749 296.298C495.082 294.359 495.017 292.432 493.953 290.662C492.655 288.543 491.174 286.541 489.528 284.68C488.624 283.68 486.552 281.126 485.465 280.834C481.887 279.898 480.049 283.845 479.096 286.194C478.719 287.134 478.606 288.546 478.11 289.35C477.327 290.604 474.397 292.773 472.469 292.614C471.068 292.519 469.313 291.137 469.032 289.85C468.178 285.982 472.299 282.888 474.019 279.927C476.513 275.627 473.801 271.801 470.598 270.265C470.247 270.09 469.627 270.338 469.272 270.219C466.711 269.358 464.407 267.173 461.859 267.592C461.311 266.935 461.042 265.961 460.392 265.42C459.632 265.184 459.53 265.78 458.841 265.633C457.834 263.28 454.582 263.45 453.242 261.47C452.613 261.763 452.385 262.58 451.869 263.019C450.01 263.245 448.112 261.909 446.382 262.043C443.923 262.228 441.616 263.953 439.242 264.2C435.784 264.523 432.059 263.035 429.365 262.55C428.09 262.33 427.14 262.907 425.6 262.965C424.368 263.004 423.116 262.438 421.856 262.57C420.168 262.757 418.444 263.456 416.731 263.998C411.352 260.957 408.711 266.19 404.906 267.596C401.938 268.696 398.903 271.26 395.913 272.348C395.705 273.194 395.071 273.48 394.74 274.162C391.783 275.419 389.342 275.655 387.343 277.379C385.906 278.622 385.616 280.664 384.526 282.327C383.778 283.471 382.328 283.92 381.991 285.434C380.801 285.677 380.307 287.107 379.482 287.738C379.099 288.03 378.487 287.754 378.149 287.96C377.927 288.096 377.736 288.764 377.445 289.029C377.153 289.294 376.399 289.293 376.106 289.497C374.435 290.919 373.095 292.689 372.178 294.682C370.616 297.928 369.303 297.693 366.503 299.273C365.725 299.707 365.18 300.412 364.454 300.81C363.66 301.2 362.839 301.531 361.996 301.799C360.317 302.422 358.408 303.466 357.069 303.766C354.365 304.353 351.707 303.34 348.929 303.212C347.508 303.155 346.148 304.012 344.732 303.072C333.987 306.308 329.339 317.399 320.634 323.265C319.665 324.678 318.395 325.86 316.915 326.726C315.436 327.591 313.783 328.118 312.076 328.269C306.468 328.591 302.911 322.406 305.205 316.104C305.843 314.36 308.707 309.868 310.007 311.213C310.791 308.803 313.099 308.368 314.15 306.305C314.875 306.321 315.295 305.897 316.141 306.105C318.55 303.543 322.167 302.605 324.317 299.734C326.615 300.114 327.327 298.442 328.587 297.488C330.22 298.113 331.057 296.578 333.239 297.106C335.443 295.306 337.795 293.695 340.27 292.289C341.562 291.606 342.357 289.693 343.481 288.681C344.801 287.508 346.54 286.995 347.993 285.915C349.169 285.051 349.918 283.811 350.979 283.085C352.152 282.265 353.415 282.094 354.795 281.355C357.112 280.025 359.306 278.492 361.352 276.774C363.228 275.225 365.101 273.973 366.573 272.699C367.574 271.835 368.343 270.735 368.809 269.498C369.276 268.262 369.425 266.928 369.244 265.618C367.964 254.448 351.899 261.087 346.823 263.038C346.772 263.783 346.375 264.124 346.312 264.874C342.555 267.887 337.404 272.648 331.459 273.16C329.652 273.288 326.996 273.571 325.067 272.943C323.137 272.315 321.508 269.908 318.962 270.617C317.695 271.598 316.669 273.126 315.311 273.956C314.857 274.232 314.194 273.947 313.76 274.169C311.231 275.382 309.51 278.349 307.817 280.077C306.977 280.93 305.732 281.242 304.885 282.112C303.386 283.63 303.191 285.678 302.042 287.857C301.351 289.156 298.079 292.906 296.987 293.53C294.703 294.814 292.573 296.356 290.641 298.126C288.651 299.946 286.616 302.103 284.689 303.503C282.761 304.902 280.618 305.863 279.047 307.03C276.03 309.254 272.458 310.268 269.767 313.627C267.524 313.743 266.908 315.734 265.681 316.947C264.98 317.637 263.987 317.781 263.193 318.454C261.055 320.314 258.914 322.481 256.369 324.336C253.855 326.106 251.561 328.17 249.537 330.485C248.416 331.856 248.039 333.221 246.983 334.116C246.171 334.803 244.905 334.941 243.831 335.868C243.415 336.231 243.266 337.019 242.897 337.435C240.874 339.672 238.12 341.228 236.508 343.33C235.318 344.892 234.404 347.656 232.767 349.053C232.173 349.571 230.592 349.911 229.615 350.805C227.983 352.297 226.127 355.344 223.867 357.526C223.485 357.885 222.877 358.129 222.502 358.55C219.799 361.489 217.223 365.453 212.595 364.58C210.052 364.111 208.098 361.783 208.873 357.294C209.713 352.418 214.714 350.591 218.258 347.514C219.54 346.405 220.581 345.152 221.692 344.172C222.946 343.067 224.286 342.421 225.541 341.378C227.4 339.828 229.04 337.398 231.037 335.718C232.815 334.219 234.935 333.19 236.7 331.389C236.994 331.09 237.108 330.394 237.408 330.091C239.35 328.066 241.852 326.845 243.99 324.991C245.771 323.436 247.222 321.406 249.02 320.11C249.813 319.532 250.884 319.466 251.712 318.874C252.77 318.102 253.726 317.112 254.887 316.297C256.552 315.217 258.142 314.029 259.649 312.738C260.841 311.629 261.702 309.654 262.892 308.333C264.459 306.611 265.922 304.796 267.273 302.899C267.693 302.302 268.393 301.953 268.875 301.36C270.455 299.39 271.328 296.572 272.625 294.845C274.165 292.81 276.906 291.443 277.483 288.634C277.622 287.973 277.317 286.796 277.344 286.239C277.662 279.669 280.797 275.301 282.96 270.767C283.621 270.979 283.621 270.326 284.288 270.539C286.181 267.355 289.353 265.8 291.821 263.353C291.998 262.717 293.275 264.072 293.385 262.867C293.609 262.033 292.83 262.31 292.76 261.791C295.478 260.585 294.436 257.922 294.307 255.472C294.227 254.02 294.84 251.9 294.706 250.176C294.637 249.221 294.238 248.848 294.343 248.039C294.681 245.861 297.348 242.702 298.104 241.525C298.511 240.882 298.557 240.041 298.826 239.697C299.641 238.635 300.797 238.401 301.335 237.387C302.385 235.419 302.56 230.046 301.671 227.84C299.964 223.702 295.231 224.956 291.974 226.187C290.965 226.571 290.115 227.407 289.27 227.679C288.789 227.842 288.346 227.459 287.943 227.633C286.623 228.231 285.681 229.435 284.344 229.623C283.734 229.721 283.164 229.314 282.595 229.303C280.52 229.257 277.169 230.565 274.805 230.913C273.236 231.136 272.154 233.341 270.733 233.692C270.782 234.862 270.083 235.038 270.013 236.061C268.087 237.768 266.262 238.164 264.791 240.404C263.32 242.645 262.743 246.377 260.781 247.707C257.636 249.834 252.789 246.605 249.111 246.796C248.237 246.843 247.385 247.544 246.437 247.508C244.253 247.426 241.752 245.022 239.261 244.355C237.407 243.849 236.155 243.127 234.649 243.673C232.999 244.265 228.665 246.964 227.654 247.957C227.361 248.238 227.524 248.791 227.18 249.003C224.456 250.7 222.217 250.442 219.023 248.448C218.879 247.038 218.856 245.618 218.954 244.203C221.221 241.67 223.338 238.96 225.626 236.456C226.615 236.3 227.556 235.922 228.377 235.35C229.199 234.778 229.88 234.027 230.37 233.153C230.968 233.248 231.58 233.179 232.143 232.956C234.694 230.515 236.1 226.599 239.473 225.225C240.011 222.653 243.755 221.729 244.569 218.226C244.825 217.165 244.644 214.321 243.848 213.708C242.755 212.863 236.741 214.135 235.655 214.503C234.905 214.759 234.465 215.572 233.842 215.77C232.906 216.059 231.971 215.515 230.754 215.666C227.587 216.077 225.133 217.988 222.253 219.11C219.864 220.065 217.195 220.202 214.896 220.99C213.18 221.577 211.647 222.847 209.963 223.219C208.708 223.508 207.668 223.118 206.645 223.378C205.815 223.59 204.839 224.295 203.957 224.62C202.065 225.304 200.129 225.861 198.162 226.287C195.278 226.968 192.6 228.971 189.86 229.996C188.501 230.513 187.015 230.272 185.648 230.66C184.577 230.967 183.582 231.787 182.504 232.122C181.257 232.545 179.886 232.413 178.726 232.798C175.44 233.887 172.257 237.564 168.163 238.291C164.488 238.946 161.187 238.683 158.624 239.581C156.06 240.479 154.862 242.493 153.204 243.123C150.63 244.093 144.274 244.896 144.4 242.312C144.475 240.708 150.606 237.628 151.849 237.506C153.58 237.344 155.308 238.557 157.118 238.473C162.01 238.247 165.082 231.596 169.488 231.711C170.782 231.744 171.941 232.929 173.194 233.159C175.237 232.683 177.237 231.199 178.587 230.414C180.946 229.066 183.213 229.338 185.938 228.529C187.876 227.957 189.901 225.86 191.961 226.871C194.621 225.376 198.171 223.69 201.342 223.722C208.503 219.868 217.284 218.488 224.374 215.182C225.28 215.015 225.097 216.058 226.122 215.765C226.754 215.758 226.537 214.676 227.26 214.725C229.88 214.443 232.365 213.418 234.421 211.771C236.395 212.737 238.24 211.148 239.762 210.62C240.184 210.744 239.741 211.836 240.622 211.444C241.58 211.576 241.238 210.028 242.001 209.901C243.148 212.493 245.029 209.314 246.654 209.251C248.278 209.188 248.61 211.529 249.944 210.156C250.508 208.675 248.992 209.533 249.115 208.536C251.783 208.901 252.667 206.666 253.884 204.709C254.509 203.729 255.54 203.029 256.188 202.129C257.034 200.94 257.591 199.235 258.322 197.687C259.221 195.81 260.37 194.592 260.678 193.518C261.263 191.491 261.203 188.018 260.682 186.882C260.081 185.545 259.072 185.912 257.647 185.19C256.115 184.393 254.533 182.185 252.454 182.367C252.37 181.865 252.807 180.783 252.059 181.028C251.017 182.711 249.135 181.633 247.63 181.419C249.138 179.784 252.16 180.521 254.985 180.059C255.587 180.899 254.202 181.794 255.118 182.459C255.738 181.809 256.519 181.334 257.382 181.082C258.244 180.83 259.158 180.809 260.031 181.022C259.683 179.234 262.033 179.103 262.35 177.644C262.702 176.07 261.351 173.766 260.073 173.333C259.107 172.999 257.454 173.322 256.105 173.197C246.299 172.329 234.818 170.856 225.894 172.215C225.454 171.861 225.716 170.723 225.071 170.595C222.169 168.091 219.354 166.693 215.771 164.991C214.24 164.176 212.636 163.506 210.98 162.989C209.217 162.551 207.459 162.934 205.473 162.81C202.737 162.556 200.021 162.114 197.346 161.487C191.377 160.209 186.278 156.008 180.523 156.432C179.961 156.472 179.327 156.843 178.748 156.904C175.151 157.302 171.256 156.59 167.033 157.319C163.862 157.864 159.397 159.124 156.383 158.83C153.93 158.601 151.248 157.207 148.689 157.787C147.464 158.067 145.792 158.327 144.242 158.702C141.811 159.286 139.464 160.539 137.094 161.127C133.969 161.903 130.793 161.939 127.778 162.415C126.214 162.666 124.052 163.48 122.213 163.824C118.821 164.499 115.272 164.86 112.171 165.683C109.219 166.46 106.745 167.683 104.15 167.813C102.261 167.903 100.082 167.665 98.4582 166.566C99.4203 165.397 100.5 165.861 100.509 164.505C100.551 161.005 93.2068 165.092 92.8851 161.606C92.6691 159.033 96.9246 159.708 98.2534 159.391C100.377 158.881 102.103 157.161 103.862 156.923C107.432 156.423 111.245 160.486 115.496 158.357C116.075 158.061 116.48 157.032 116.869 156.813C119.06 155.56 120.239 157.204 122.145 157.513C124.543 157.91 127.299 157.304 129.884 157.235C132.357 157.179 134.943 156.78 137.185 156.67L137.201 156.922Z" fill="#E96262"/>
<path d="M647.119 204.436L630.604 447.294C626.169 448.11 621.611 449.839 611.994 449.883C593.933 449.968 588.964 444.004 581.752 448.614C581.752 448.614 573.251 454.103 566.812 456.128C562.902 457.354 563.127 456.342 560.696 457.428C556.346 459.366 550.27 471.081 550.27 471.081C544.632 481.87 541.121 482.397 542.044 485.264C543.697 490.192 553.769 487.653 560.972 496.087C562.126 497.433 564.879 500.654 563.826 503.398C563.085 505.263 560.609 506.765 558.386 506.676C557.739 506.645 557.105 506.49 556.517 506.219C555.219 505.673 548.369 502.821 546.731 504.319C545.336 505.615 548.677 509.216 549.038 516.967C549.285 522.464 547.763 523.975 546.945 524.506C546.385 524.849 545.759 525.071 545.107 525.157C544.997 525.265 544.864 525.346 544.717 525.392C544.57 525.438 544.414 525.449 544.262 525.424C542.763 525.246 541.361 524.593 540.261 523.559C536.295 519.692 528.228 504.586 520.091 499.044C510.411 492.459 500.349 499.215 495.756 492.25C493.675 489.086 493.337 484.03 495.643 481.176C499.875 475.944 508.612 482.761 520.689 478.918C525.428 477.408 530.228 471.807 539.811 460.599C542.631 457.316 546.256 452.731 544.861 450.329C544.692 450.057 544.473 449.82 544.215 449.631C541.091 446.944 540.16 441.909 539.958 441.102C538.519 435.312 520.523 427.39 515.254 424.847C511.971 423.261 484.82 408.996 474.016 385.174C472.607 382.067 469.082 373.526 465.427 373.881C462.7 374.142 462.429 379.107 458.025 380.701C454.732 381.89 450.305 380.785 447.837 378.221C443.257 373.44 446.774 365.747 443.897 364.356C440.906 362.906 437.135 371.208 428.897 373C419.706 374.995 411.061 367.558 409.692 366.337C400.533 358.161 399.197 345.194 398.735 340.733C397.774 331.366 400.042 327.012 396.313 321.479C393.592 317.451 390.948 317.64 386.035 313.993C385.358 313.506 370.098 301.899 371.322 286.285C372.193 274.948 381.273 267.616 382.892 266.307C391.409 259.434 396.582 262.73 400.527 257.87C409.189 247.225 387.992 226.88 395.683 209.973C400.341 199.732 413.702 195.557 422.065 194.969C443.907 193.499 464.994 214.385 472.844 234.901C481.386 257.157 471.344 271.177 483.164 282.36C493.85 292.472 512.561 290.951 513.438 288.329C514.028 286.554 506.434 284.534 503.967 276.937C502.219 271.595 504.029 266.662 504.506 265.404C507.095 258.631 513.169 255.145 515.695 253.741C537.298 241.731 590.241 244.744 614.073 223.294C619.923 218.027 624.327 211.008 627.835 203.124L647.119 204.436Z" fill="#60C9EB"/>
</g>
<path d="M503.942 183.383C501.916 197.775 499.403 212.128 497.035 226.493C496.693 228.533 496.456 231.348 494.799 232.782C493.141 234.216 490.681 234.005 488.8 233.887C444.11 230.925 399.7 224.668 355.931 215.167C353.392 214.614 350.274 213.956 349.195 211.299C348.53 209.171 348.395 206.913 348.801 204.721C349.853 194.504 350.897 184.265 351.932 174.004C352.458 169.005 352.967 164.001 353.458 158.993C353.826 155.56 353.221 149.89 355.931 147.272C356.645 146.713 357.467 146.307 358.346 146.081C359.224 145.854 360.14 145.812 361.035 145.956C371.138 146.693 381.268 147.417 391.371 148.456C395.594 148.877 399.791 149.364 404.001 149.903C406.053 144.707 408.079 139.51 410.131 134.314C408.46 125.934 407.671 117.212 410.776 109.082C411.933 105.79 413.844 102.814 416.357 100.393C418.869 97.9714 421.914 96.1717 425.246 95.1374C427.713 94.4107 430.31 94.239 432.85 94.6348C435.391 95.0306 437.812 95.9839 439.941 97.4265L440.415 97.2686C443.669 96.2832 447.142 96.2901 450.392 97.2883C453.642 98.2865 456.521 100.231 458.661 102.873C460.585 105.443 461.95 108.386 462.668 111.515C463.386 114.644 463.442 117.889 462.831 121.04C461.424 128.631 457.122 135.103 452.636 141.234C452.491 146.693 452.386 152.153 452.281 157.612C461.411 159.366 470.518 161.199 479.604 163.111C484.524 164.163 489.427 165.233 494.312 166.321C497.035 166.913 503.521 167.176 505.086 169.86C505.571 170.884 505.771 172.02 505.665 173.149C505.639 176.556 504.271 181.134 503.942 183.383Z" fill="white"/>
<path d="M505.719 173.107C505.825 171.979 505.625 170.843 505.141 169.818C503.549 167.187 497.09 166.871 494.366 166.279C489.481 165.183 484.579 164.113 479.659 163.069C470.581 161.131 461.474 159.298 452.335 157.571C452.44 152.111 452.546 146.652 452.69 141.192C457.176 135.062 461.478 128.589 462.886 120.999C463.496 117.847 463.441 114.603 462.723 111.474C462.004 108.345 460.639 105.401 458.715 102.831C456.575 100.189 453.697 98.2449 450.447 97.2466C447.197 96.2484 443.723 96.2416 440.469 97.227L439.995 97.3848C437.867 95.9423 435.445 94.9889 432.905 94.5932C430.364 94.1974 427.767 94.3691 425.301 95.0958C421.968 96.1301 418.924 97.9298 416.411 100.351C413.898 102.773 411.987 105.748 410.83 109.04C407.725 117.184 408.515 125.892 410.185 134.272C408.133 139.535 406.107 144.665 404.055 149.861C399.845 149.322 395.649 148.835 391.426 148.414C381.322 147.375 371.193 146.652 361.09 145.915C360.194 145.77 359.278 145.813 358.4 146.039C357.521 146.265 356.699 146.671 355.985 147.23C353.275 149.861 353.88 155.518 353.512 158.952C353.012 163.951 352.504 168.954 351.986 173.962C350.951 184.206 349.908 194.445 348.855 204.68C348.449 206.872 348.585 209.13 349.25 211.257C350.329 213.889 353.446 214.573 355.985 215.125C399.754 224.627 444.164 230.884 488.854 233.845C490.735 233.964 493.314 234.082 494.853 232.74C496.392 231.398 496.747 228.491 497.09 226.452C499.457 212.086 501.97 197.734 503.996 183.342C504.272 181.132 505.64 176.554 505.719 173.107ZM445.757 104.186C446.937 104.177 448.106 104.406 449.195 104.858C450.284 105.31 451.271 105.976 452.098 106.817C453.518 108.484 454.553 110.443 455.131 112.556C455.708 114.668 455.814 116.881 455.44 119.039C454.44 125.866 450.178 131.747 446.139 137.167C445.749 137.693 445.495 138.307 445.402 138.956C445.237 139.298 445.139 139.668 445.113 140.048C444.955 145.415 444.85 150.769 444.744 156.137C442.227 155.681 439.706 155.242 437.18 154.821C437.268 149.559 437.391 144.297 437.548 139.035C442.021 132.917 446.323 126.419 447.731 118.841C448.64 113.87 447.949 108.739 445.757 104.186V104.186ZM432.01 117.71C432.704 113.348 434.974 109.393 438.39 106.594C440.18 109.724 440.844 113.373 440.272 116.934C439.416 122.919 435.983 128.182 432.457 133.036C431.35 128 431.198 122.801 432.01 117.71V117.71ZM429.747 146.086C429.682 148.572 429.629 151.085 429.576 153.584C428.708 153.44 427.84 153.295 426.945 153.177C427.892 150.796 428.826 148.441 429.747 146.086V146.086ZM417.986 134.443C416.671 128.247 415.618 121.854 416.842 115.566C417.789 110.738 420.394 105.699 424.946 103.397C427.084 102.253 429.523 101.794 431.931 102.081V102.081C429.277 104.602 427.231 107.692 425.945 111.119C422.854 119.275 423.643 127.984 425.314 136.351C423.262 141.525 421.227 146.7 419.21 151.874C416.763 151.48 414.303 151.138 411.843 150.822C413.597 146.279 415.351 141.758 417.105 137.259C417.099 137.246 417.096 137.233 417.096 137.219C417.096 137.206 417.099 137.192 417.105 137.18C417.445 136.817 417.7 136.383 417.852 135.91C418.005 135.437 418.051 134.936 417.986 134.443V134.443ZM386.808 214.691L383.559 214.125C382.086 213.849 380.612 213.586 379.139 213.297C371.074 211.784 363.05 210.1 355.078 208.192C356.832 189.626 358.748 171.085 360.826 152.571C374.447 153.37 388.04 154.602 401.608 156.268C404.239 156.584 406.87 156.913 409.501 157.255C412.132 157.597 414.395 157.926 416.868 158.268L394.096 215.862C391.663 215.467 389.242 215.073 386.808 214.638L386.808 214.691ZM438.114 222.203L436.97 222.058L429.34 221.045C420.131 219.835 410.922 218.559 401.818 217.098C409.37 197.857 416.925 178.615 424.485 159.373L429.405 160.136C431.931 160.53 434.483 160.951 436.996 161.386L444.56 162.701C444.236 182.794 444.209 202.891 444.481 222.992L438.114 222.203ZM490.433 226.794C482.195 226.889 473.96 226.45 465.78 225.478C461.228 225.018 456.676 224.492 452.151 223.913C451.87 203.961 451.87 184.004 452.151 164.043C458.237 165.174 464.315 166.376 470.384 167.648C479.843 169.634 489.249 171.699 498.668 173.817C496.327 191.595 493.581 209.253 490.433 226.794Z" fill="#E96262"/>
</svg>
