<svg width="838" height="1019" viewBox="0 0 838 1019" fill="none" xmlns="http://www.w3.org/2000/svg">
<path d="M457.367 85.6462L470.77 95.6129L479.945 384.289L472.562 392.463" fill="white"/>
<path d="M454.619 83.7219L468.788 94.2699L467.273 91.6139L470.758 201.345L476.062 368.293L476.82 392.121C476.552 393.678 476.552 395.269 476.82 396.826C476.82 396.826 476.82 396.826 476.82 397.205C476.82 397.585 478.79 393.866 476.365 396.522L469.924 403.731C467.348 406.691 471.591 411.32 474.243 408.057C476.895 404.794 482.351 401.075 482.881 397.129C482.957 395.992 482.957 394.851 482.881 393.714L482.199 373.377L479.699 294.76L476.592 196.867L474.092 117.187L473.41 95.8634C473.485 94.5492 473.485 93.2317 473.41 91.9175C472.728 88.1232 466.818 85.3153 464.014 83.2664L457.725 78.5615C454.543 76.2091 451.512 81.4452 454.619 83.7977L454.619 83.7219Z" fill="#60C9EB" stroke="#60C9EB" stroke-width="0.202236"/>
<path d="M422.028 87.9903C434.213 191.529 426.687 289.332 441.453 394.162L472.56 389.286L457.293 82.1106L422.028 87.9903Z" fill="white"/>
<path d="M785.329 296.069C788.306 306.606 731.899 706.864 714.115 1013.81C680.607 999.994 85.0959 952.73 2.50904 938.146C41.1797 754.613 67.824 568.749 82.2718 381.741C86.4698 322.641 90.9731 261.862 153.104 235.214C214.167 209.024 373.081 251.096 474.216 265.756C593.364 284.769 665.112 287.517 785.329 296.069Z" fill="#60C9EB"/>
<path d="M779.911 300.817C779.911 300.817 779.911 300.817 779.911 301.653C779.911 302.489 779.911 303.553 779.911 304.465C779.911 307.733 779.455 310.925 779.151 314.117C778.088 325.288 776.796 336.383 775.581 347.555C771.175 385.553 766.541 423.551 762.059 461.929C755.779 515.177 749.702 568.374 743.827 621.521C737.041 682.875 730.812 744.255 725.14 805.659C719.367 867.672 714.277 929.685 710.327 991.85L708.96 1014.65L712.834 1011.69C704.772 1009.09 696.436 1007.43 687.994 1006.75C671.053 1004.24 653.961 1002.19 636.869 1000.29C585.289 994.358 533.557 989.342 481.901 984.326C419.078 978.247 356.179 972.471 293.357 966.543C235.927 961.148 178.422 955.752 120.992 949.976C84.4534 946.328 47.6865 943.06 11.3754 937.513L4.6145 936.373L6.74151 940.173C28.2395 834.994 46.9268 729.207 61.4361 622.889C68.5768 570.553 74.6539 518.04 79.6676 465.349C82.1744 438.826 84.4534 412.152 86.3525 385.553C87.2747 367.067 89.2275 348.648 92.2019 330.38C94.9067 312.84 100.858 295.959 109.75 280.602C119.757 264.657 134.198 251.98 151.302 244.124C178.042 231.433 210.783 233.485 239.421 235.689C317.589 241.616 393.934 261.299 471.342 272.927C517.604 279.842 563.943 286.074 610.585 290.406C655.405 294.51 700.376 297.322 745.271 300.437L783.253 303.021C787.203 303.021 787.203 297.17 783.253 296.866C689.665 290.254 596.076 284.934 503.095 271.483C462.53 265.631 422.193 258.488 381.552 250.964C340.91 243.44 301.637 236.145 261.299 231.661C229.85 228.089 195.818 224.821 164.824 232.801C148.542 237.293 133.596 245.68 121.275 257.238C108.954 268.796 99.6282 283.179 94.101 299.145C80.4273 336.384 80.959 378.105 77.7685 417.167C73.4132 470.871 67.8931 524.448 61.2082 577.899C47.6865 685.89 29.6829 793.272 8.64063 899.971L1.04415 938.501C0.832411 939.287 0.93633 940.124 1.33382 940.834C1.7313 941.544 2.3908 942.071 3.17115 942.301C35.836 948.152 69.1845 950.812 101.925 954.156C157.532 959.932 213.138 965.099 269.048 970.343C332.099 976.271 395.175 982.198 458.276 988.126C512.287 993.294 566.298 998.538 620.233 1004.47C638.996 1006.52 657.76 1008.72 676.523 1011.23C687.13 1012.35 697.659 1014.13 708.048 1016.55C709.193 1016.76 710.313 1017.09 711.391 1017.54C713.366 1018.37 715.113 1016.4 715.265 1014.65C718.835 952.332 723.773 890.167 729.318 828.002C734.864 765.838 741.169 703.749 747.854 641.736C753.779 587.12 759.957 532.529 766.389 477.964C771.175 437.838 776.037 397.636 780.67 357.435C782.114 344.895 783.557 332.28 784.849 319.437C785.746 313.321 786.229 307.151 786.292 300.969C786.329 300.26 786.329 299.55 786.292 298.841C786.03 297.995 785.443 297.287 784.659 296.874C783.875 296.46 782.96 296.376 782.114 296.638C781.268 296.9 780.56 297.487 780.147 298.271C779.734 299.055 779.649 299.971 779.911 300.817V300.817Z" fill="#60C9EB" stroke="#60C9EB" stroke-width="1.01118"/>
<path d="M88.5457 365.946C92.6452 347.122 102.059 330.954 120.507 323.364C136.905 316.685 155.353 316.229 172.813 314.635C173.47 314.6 174.101 314.362 174.617 313.954C175.134 313.546 175.511 312.989 175.698 312.358C178.052 302.339 179.95 292.168 182.075 281.997C183.202 275.193 185.191 268.561 187.997 262.262C195.588 247.84 212.67 241.919 226.866 236.758C230.51 235.392 228.916 229.168 225.196 230.838C210.013 236.454 191.717 242.906 183.366 258.011C180.135 264.534 177.86 271.487 176.609 278.657C174.256 289.283 172.358 300.062 169.853 310.688L172.813 308.411C153.91 310.233 133.868 310.764 116.255 318.506C107.417 322.847 99.7532 329.252 93.9127 337.179C88.0721 345.106 84.2263 354.322 82.7001 364.049C81.865 367.92 87.7106 369.514 88.5457 365.718L88.5457 365.946Z" fill="#60C9EB" stroke="#60C9EB" stroke-width="1.01118"/>
<path d="M417.27 80.9747C418.489 185.231 417.27 289.487 421.141 395.32L452.535 393.671L452.894 79.1104L417.27 80.9747Z" fill="white"/>
<path d="M415.939 80.1281C416.922 166.821 416.469 253.515 418.056 340.208C418.51 364.717 419.114 389.301 419.946 413.81C419.965 414.624 420.301 415.399 420.88 415.968C421.459 416.536 422.236 416.855 423.045 416.854L456.153 415.104C456.955 415.104 457.724 414.783 458.291 414.212C458.858 413.641 459.177 412.867 459.177 412.059L459.177 202.747L459.177 119.022L459.177 91.4689C459.177 87.2066 459.554 82.7921 459.177 78.5298C459.138 78.3287 459.138 78.1218 459.177 77.9207C459.157 77.1063 458.822 76.3319 458.243 75.7631C457.663 75.1942 456.886 74.876 456.077 74.8762L418.283 76.8552C414.428 76.8552 414.352 83.1726 418.283 82.9442L456.077 80.9652L453.054 77.9207L453.054 111.182L453.054 190.645L453.054 287.233L453.054 370.958L453.054 406.96C452.865 408.451 452.865 409.96 453.054 411.45L453.054 412.059L456.077 409.015L422.969 410.765L425.993 413.81C422.969 326.888 422.969 239.89 422.516 152.893C422.516 128.612 422.516 104.332 421.911 80.1281C421.798 79.4128 421.435 78.7617 420.888 78.2917C420.34 77.8216 419.645 77.5635 418.925 77.5635C418.206 77.5635 417.51 77.8216 416.963 78.2917C416.416 78.7617 416.053 79.4128 415.939 80.1281V80.1281Z" fill="#60C9EB" stroke="#60C9EB" stroke-width="0.202236"/>
<path d="M456.903 159.896C484.896 164.147 511.824 149.495 534.112 134.084C556.839 117.691 578.676 100.104 599.531 81.3959C643.878 43.4364 699.636 -8.34044 763.61 10.7911C797.384 20.8883 816.097 53.0021 831.386 82.2309C833.212 85.6472 838.461 82.6104 836.711 79.1181C823.171 53.3057 807.425 25.9751 780.953 11.4746C754.481 -3.02591 720.783 -1.50751 692.942 9.12113C663.884 20.2812 638.934 39.4886 615.353 59.7589C593.293 78.435 571.613 97.7185 548.869 115.635C535.422 126.569 520.894 136.108 505.51 144.105C491.217 152.112 474.819 155.581 458.5 154.05C454.697 153.443 453.023 159.365 456.903 159.896V159.896Z" fill="#60C9EB" stroke="#60C9EB" stroke-width="1.01118"/>
<path d="M419.306 156.311C383.776 150.133 349.747 137.271 319.031 118.411C303.838 109.466 288.645 99.8397 273.452 90.3645C259.271 80.8714 244.56 72.1909 229.392 64.3649C180.698 40.9424 113.772 45.7936 74.3455 84.9069C63.5584 95.6706 51.5558 110.603 57.861 126.597C64.1661 142.591 79.2833 151.233 92.4254 159.116C95.7679 161.163 98.8065 155.857 95.464 153.81C83.9172 146.912 69.4078 138.65 64.0142 125.688C58.0129 111.286 69.8636 97.793 79.5872 88.3936C99.5438 70.0072 125.189 58.964 152.286 57.088C178.601 54.4653 205.126 59.244 228.86 70.8836C258.335 86.0438 285.378 105.752 313.941 122.504C345.606 142.286 380.782 155.821 417.559 162.375C421.433 162.906 423.104 157.069 419.23 156.463L419.306 156.311Z" fill="#60C9EB" stroke="#60C9EB" stroke-width="1.01118"/>
</svg>
