<svg width="623" height="575" viewBox="0 0 623 575" fill="none" xmlns="http://www.w3.org/2000/svg">
<path d="M615.907 524.144L44.4303 565.057C40.2955 387.712 26.4815 210.725 3.05029 34.8862C180.024 22.3874 352.401 19.7943 529.817 18.9094C556.547 176.821 589.127 366.06 615.907 524.144Z" fill="#E9AD62"/>
<path d="M44.3935 567.974C43.6152 567.974 42.8678 567.669 42.3118 567.125C41.7558 566.58 41.4355 565.839 41.4195 565.061C37.2506 387.829 23.4408 210.955 0.0517376 35.2227C0.00235875 34.8175 0.0346879 34.4065 0.146552 34.0139C0.258415 33.6214 0.447589 33.2551 0.703134 32.9368C0.960922 32.6225 1.28051 32.3644 1.64197 32.1783C2.00343 31.9923 2.39903 31.8824 2.80465 31.8553C171.409 19.9588 335.404 16.8494 529.755 15.8786C530.456 15.8766 531.135 16.1221 531.672 16.5718C532.21 17.0215 532.571 17.6464 532.693 18.3365C546.212 98.1466 561.451 187.346 576.199 273.608C590.627 358.064 605.559 445.395 618.807 523.608C618.877 524.018 618.86 524.437 618.757 524.84C618.655 525.243 618.469 525.62 618.212 525.946C617.955 526.273 617.632 526.542 617.265 526.736C616.898 526.93 616.494 527.045 616.079 527.074L44.6023 567.986L44.3935 567.974ZM6.38118 37.5701C29.4023 211.456 43.0635 386.453 47.306 561.805L612.404 521.346C599.291 443.921 584.58 357.892 570.349 274.604C555.761 189.239 540.669 100.986 527.26 21.8145C335.343 22.8223 172.982 25.9193 6.38118 37.5701V37.5701Z" fill="#E9AD62"/>
<path d="M149.459 75.386C146.092 54.1983 142.728 33.0148 139.369 11.8353C210.122 7.89029 279.584 7.6445 350.361 3.69946L374.203 70.6052C299.911 66.2055 223.444 67.3362 149.459 75.386Z" fill="#FFE600"/>
<path d="M149.475 78.3961C148.774 78.398 148.095 78.1525 147.558 77.7028C147.021 77.2531 146.66 76.6282 146.538 75.9381C143.162 54.7505 139.795 33.5669 136.435 12.3874C136.371 11.976 136.394 11.5556 136.502 11.1534C136.61 10.7512 136.801 10.376 137.063 10.052C137.324 9.72792 137.651 9.46215 138.021 9.27174C138.391 9.08132 138.797 8.97046 139.213 8.94629C174.632 6.97992 210.297 5.91071 244.795 4.87836C279.293 3.84602 314.847 2.7768 350.205 0.810431C350.846 0.781554 351.481 0.957775 352.015 1.31354C352.55 1.66931 352.958 2.18613 353.179 2.78909L377.021 69.6949C377.19 70.1575 377.24 70.6549 377.168 71.1421C377.096 71.6292 376.904 72.0907 376.608 72.4848C376.313 72.8788 375.924 73.1931 375.477 73.3991C375.03 73.6051 374.538 73.6963 374.047 73.6645C296.818 69.0927 221.371 70.6904 149.795 78.4329L149.475 78.3961ZM142.839 14.6611C145.887 33.8168 148.93 52.9807 151.97 72.1528C224.368 64.698 297.249 63.0869 369.905 67.3352L348.312 6.75871C313.63 8.65134 278.739 9.69597 244.967 10.7037C211.588 11.7484 177.103 12.7807 142.839 14.6365L142.839 14.6611Z" fill="#FFE600"/>
<path d="M619.536 329.532C594.956 333.711 572.749 336.906 548.194 341.122C533.446 276.096 513.511 210.223 498.739 145.21C527.505 141.449 556.276 137.701 585.051 133.965L619.536 329.532Z" fill="#FFE600"/>
<path d="M548.192 344.107C547.516 344.106 546.861 343.876 546.334 343.454C545.807 343.032 545.439 342.443 545.291 341.784C537.917 309.314 529.105 276.058 520.576 243.896C512.047 211.733 503.223 178.415 495.837 145.872C495.743 145.466 495.736 145.045 495.816 144.636C495.897 144.227 496.063 143.84 496.304 143.5C496.539 143.162 496.844 142.877 497.198 142.665C497.552 142.453 497.947 142.319 498.356 142.271L584.668 131.014C585.431 130.917 586.202 131.119 586.82 131.577C587.438 132.035 587.856 132.713 587.986 133.472L622.471 329.039C622.608 329.821 622.432 330.624 621.98 331.276C621.517 331.924 620.821 332.365 620.038 332.505C607.748 334.594 595.852 336.487 584.397 338.306C572.943 340.125 561.047 341.993 548.757 344.094C548.57 344.121 548.38 344.126 548.192 344.107V344.107ZM502.375 147.74C509.589 179.165 518.106 211.278 526.34 242.372C534.636 273.674 543.202 306.021 550.477 337.716C561.784 335.811 572.759 334.029 583.402 332.382C594.045 330.735 604.872 328.99 616.081 327.098L582.615 137.281L502.375 147.74Z" fill="#FFE600"/>
<path d="M72.5498 285.966C76.5317 346.334 79.4691 410.597 83.451 470.965L9.40484 484.152C8.8559 417.418 8.30274 350.688 7.74561 283.963C31.0594 283.57 49.236 286.359 72.5498 285.966Z" fill="#FFE600"/>
<path d="M9.40194 487.129C8.61413 487.129 7.85799 486.818 7.29863 486.263C6.73927 485.708 6.42178 484.955 6.4153 484.167C5.87455 417.434 5.3258 350.704 4.76866 283.978C4.76203 283.193 5.06516 282.436 5.61269 281.872C6.16021 281.309 6.90787 280.984 7.69349 280.967C19.4671 280.771 30.061 281.385 40.3107 281.975C50.5604 282.565 60.9452 283.204 72.4977 282.971C73.2547 282.972 73.9828 283.261 74.535 283.779C75.0871 284.297 75.4222 285.005 75.472 285.76C77.463 315.969 79.1589 347.677 80.9286 378.327C82.6983 408.978 84.382 440.6 86.3729 470.759C86.4178 471.492 86.1925 472.215 85.7395 472.793C85.2865 473.371 84.6372 473.762 83.9149 473.893L9.91802 487.129C9.74617 487.141 9.57379 487.141 9.40194 487.129V487.129ZM10.7413 286.891C11.2821 351.462 11.8188 416.028 12.3514 480.591L80.3018 468.485C78.3846 439.113 76.6763 408.388 75.0171 378.659C73.358 348.93 71.6743 318.292 69.7571 288.944C59.1141 289.005 49.3928 288.452 39.9666 287.899C30.5403 287.346 21.1262 286.805 10.7413 286.903L10.7413 286.891Z" fill="#FFE600"/>
<path d="M500.813 502.963C503.332 521.397 504.733 537.817 507.253 556.202L253.996 571.503C252.702 554.559 251.416 537.616 250.137 520.672C334.507 511.012 415.878 504.745 500.813 502.963Z" fill="#FFE600"/>
<path d="M253.987 574.472C253.238 574.468 252.518 574.182 251.969 573.673C251.421 573.163 251.084 572.465 251.026 571.719L247.179 520.888C247.12 520.12 247.361 519.359 247.851 518.766C248.342 518.172 249.044 517.792 249.809 517.705C340.754 507.295 420.564 501.728 500.804 499.971C501.533 499.963 502.24 500.221 502.794 500.695C503.348 501.17 503.711 501.83 503.815 502.551C505.044 511.781 506.088 520.679 507.047 529.27C508.005 537.86 509.001 546.647 510.255 555.791C510.309 556.198 510.28 556.612 510.168 557.006C510.055 557.401 509.863 557.769 509.602 558.086C509.341 558.403 509.018 558.663 508.653 558.85C508.287 559.036 507.887 559.146 507.477 559.171L254.11 574.472H253.987ZM253.336 523.297L256.74 568.351L503.925 553.419C502.856 545.332 501.984 537.528 501.123 529.945C500.263 522.363 499.366 514.227 498.272 505.993C419.9 507.762 341.896 513.231 253.274 523.297H253.336Z" fill="#FFE600"/>
</svg>
