<svg width="116" height="116" viewBox="0 0 116 116" fill="none" xmlns="http://www.w3.org/2000/svg">
<path d="M66.318 89.8452L75.7351 66.2354" stroke="#E9AD62" stroke-width="1.23804" stroke-miterlimit="10"/>
<path d="M69.3869 91.0507L78.8079 67.4487L72.5873 64.9657L63.1663 88.5677L69.3869 91.0507Z" fill="#E9AD62" stroke="#E9AD62" stroke-width="1.23804" stroke-miterlimit="10"/>
<path d="M89.3811 94.4365L64.3781 43.1193" stroke="#E9AD62" stroke-width="1.23804" stroke-miterlimit="10"/>
<path d="M86.366 95.882L92.387 92.948L67.381 41.6327L61.3601 44.5667L86.366 95.882Z" fill="#E9AD62" stroke="#E9AD62" stroke-width="1.23804" stroke-miterlimit="10"/>
<path d="M100.877 72.9971L75.7321 66.2322" stroke="#E9AD62" stroke-width="1.23804" stroke-miterlimit="10"/>
<path d="M99.3658 77.8806L101.107 71.3838L75.8497 64.6138L74.1083 71.1106L99.3658 77.8806Z" fill="#E9AD62" stroke="#E9AD62" stroke-width="1.24329" stroke-miterlimit="10"/>
<path d="M16.4274 47.9001L41.4602 43.5045" stroke="#E9AD62" stroke-width="1.23804" stroke-miterlimit="10"/>
<path d="M17.0099 51.2199L42.0398 46.8245L40.8813 40.2276L15.8515 44.6231L17.0099 51.2199Z" fill="#E9AD62" stroke="#E9AD62" stroke-width="1.23804" stroke-miterlimit="10"/>
<path d="M24.6508 69.9458L55.1521 21.6906" stroke="#E9AD62" stroke-width="1.23804" stroke-miterlimit="10"/>
<path d="M27.5194 71.7788L58.0222 23.5281L52.3608 19.9491L21.858 68.1998L27.5194 71.7788Z" fill="#E9AD62" stroke="#E9AD62" stroke-width="1.23804" stroke-miterlimit="10"/>
<path d="M48.9255 68.4453L41.4604 43.5019" stroke="#E9AD62" stroke-width="1.23804" stroke-miterlimit="10"/>
<path d="M45.7339 69.3296L52.1506 67.4094L44.6856 42.4638L38.2689 44.3841L45.7339 69.3296Z" fill="#E9AD62" stroke="#E9AD62" stroke-width="1.23804" stroke-miterlimit="10"/>
</svg>
