<svg width="117" height="95" viewBox="0 0 117 95" fill="none" xmlns="http://www.w3.org/2000/svg">
<path d="M67.2474 68.8054L76.6646 45.1956" stroke="#FFE600" stroke-width="1.23804" stroke-miterlimit="10"/>
<path d="M70.3112 70.0112L79.7322 46.4092L73.5117 43.9262L64.0907 67.5282L70.3112 70.0112Z" fill="#FFE600" stroke="#FFE600" stroke-width="1.23804" stroke-miterlimit="10"/>
<path d="M90.3101 73.3967L65.2996 22.0795" stroke="#FFE600" stroke-width="1.23804" stroke-miterlimit="10"/>
<path d="M87.2955 74.8305L93.3164 71.8965L68.3104 20.5812L62.2895 23.5152L87.2955 74.8305Z" fill="#FFE600" stroke="#FFE600" stroke-width="1.23804" stroke-miterlimit="10"/>
<path d="M101.806 51.9629L76.6616 45.1981" stroke="#FFE600" stroke-width="1.23804" stroke-miterlimit="10"/>
<path d="M100.974 55.2149L102.713 48.7468L77.5674 41.9856L75.8283 48.4536L100.974 55.2149Z" fill="#FFE600" stroke="#FFE600" stroke-width="1.23804" stroke-miterlimit="10"/>
<path d="M17.3568 26.8604L42.3896 22.4647" stroke="#FFE600" stroke-width="1.23804" stroke-miterlimit="10"/>
<path d="M17.945 30.0612L42.9749 25.6658L41.8164 19.069L16.7865 23.4644L17.945 30.0612Z" fill="#FFE600" stroke="#FFE600" stroke-width="1.23804" stroke-miterlimit="10"/>
<path d="M25.5782 48.8999L56.0869 0.652138" stroke="#FFE600" stroke-width="1.23804" stroke-miterlimit="10"/>
<path d="M28.4493 50.7329L58.9521 2.48218L53.2908 -1.09679L22.788 47.1539L28.4493 50.7329Z" fill="#FFE600" stroke="#FFE600" stroke-width="1.23804" stroke-miterlimit="10"/>
<path d="M49.855 47.4111L42.3898 22.4677" stroke="#FFE600" stroke-width="1.23804" stroke-miterlimit="10"/>
<path d="M46.6471 48.2952L53.0637 46.375L45.5987 21.4294L39.1821 23.3496L46.6471 48.2952Z" fill="#FFE600" stroke="#FFE600" stroke-width="1.23804" stroke-miterlimit="10"/>
</svg>
