<svg width="117" height="116" viewBox="0 0 117 116" fill="none" xmlns="http://www.w3.org/2000/svg">
<path d="M67.2633 89.8977L76.6804 66.2879" stroke="#FFE600" stroke-width="1.23804" stroke-miterlimit="10"/>
<path d="M70.3336 91.1032L79.7546 67.5012L73.5341 65.0182L64.1131 88.6202L70.3336 91.1032Z" fill="#FFE600" stroke="#FFE600" stroke-width="1.23804" stroke-miterlimit="10"/>
<path d="M90.3269 94.4836L65.3164 43.1664" stroke="#FFE600" stroke-width="1.23804" stroke-miterlimit="10"/>
<path d="M87.3128 95.9228L93.3337 92.9888L68.3278 41.6735L62.3068 44.6075L87.3128 95.9228Z" fill="#FFE600" stroke="#FFE600" stroke-width="1.23804" stroke-miterlimit="10"/>
<path d="M101.828 73.0496L76.6838 66.2847" stroke="#FFE600" stroke-width="1.23804" stroke-miterlimit="10"/>
<path d="M100.991 76.3074L102.73 69.8394L77.5845 63.0781L75.8454 69.5461L100.991 76.3074Z" fill="#FFE600" stroke="#FFE600" stroke-width="1.23804" stroke-miterlimit="10"/>
<path d="M17.3732 47.9526L42.406 43.557" stroke="#FFE600" stroke-width="1.23804" stroke-miterlimit="10"/>
<path d="M17.9616 51.1535L42.9915 46.7581L41.833 40.1612L16.8031 44.5567L17.9616 51.1535Z" fill="#FFE600" stroke="#FFE600" stroke-width="1.23804" stroke-miterlimit="10"/>
<path d="M25.5891 69.9868L56.0979 21.7391" stroke="#FFE600" stroke-width="1.23804" stroke-miterlimit="10"/>
<path d="M28.4715 71.8254L58.9744 23.5747L53.313 19.9957L22.8102 68.2465L28.4715 71.8254Z" fill="#FFE600" stroke="#FFE600" stroke-width="1.23804" stroke-miterlimit="10"/>
<path d="M49.8713 68.4978L42.4062 43.5544" stroke="#FFE600" stroke-width="1.23804" stroke-miterlimit="10"/>
<path d="M46.6635 69.3819L53.0801 67.4617L45.615 42.5161L39.1984 44.4363L46.6635 69.3819Z" fill="#FFE600" stroke="#FFE600" stroke-width="1.23804" stroke-miterlimit="10"/>
</svg>
