<svg width="117" height="117" viewBox="0 0 117 117" fill="none" xmlns="http://www.w3.org/2000/svg">
<path d="M67.2539 90.5649L76.6785 66.9551" stroke="#60C9EB" stroke-width="1.23804" stroke-miterlimit="10"/>
<path d="M70.327 91.7651L79.748 68.1631L73.5275 65.6801L64.1065 89.2821L70.327 91.7651Z" fill="#60C9EB" stroke="#60C9EB" stroke-width="1.23804" stroke-miterlimit="10"/>
<path d="M90.3262 95.1509L65.3157 43.8336" stroke="#60C9EB" stroke-width="1.23804" stroke-miterlimit="10"/>
<path d="M87.3104 96.6015L93.3313 93.6675L68.3253 42.3522L62.3044 45.2862L87.3104 96.6015Z" fill="#60C9EB" stroke="#60C9EB" stroke-width="1.23804" stroke-miterlimit="10"/>
<path d="M101.809 73.7168L76.6648 66.952" stroke="#60C9EB" stroke-width="1.23804" stroke-miterlimit="10"/>
<path d="M100.654 78.1133L102.396 71.6165L77.1383 64.8464L75.3969 71.3433L100.654 78.1133Z" fill="#60C9EB" stroke="#60C9EB" stroke-width="1.24329" stroke-miterlimit="10"/>
<path d="M17.372 48.6199L42.4048 44.2242" stroke="#60C9EB" stroke-width="1.23804" stroke-miterlimit="10"/>
<path d="M17.9421 51.9455L42.9719 47.55L41.8135 40.9532L16.7836 45.3487L17.9421 51.9455Z" fill="#60C9EB" stroke="#60C9EB" stroke-width="1.23804" stroke-miterlimit="10"/>
<path d="M25.5818 70.6653L56.0906 22.4101" stroke="#60C9EB" stroke-width="1.23804" stroke-miterlimit="10"/>
<path d="M28.4535 72.4983L58.9563 24.2476L53.2949 20.6686L22.7921 68.9193L28.4535 72.4983Z" fill="#60C9EB" stroke="#60C9EB" stroke-width="1.23804" stroke-miterlimit="10"/>
<path d="M49.8645 69.165L42.3994 44.2216" stroke="#60C9EB" stroke-width="1.23804" stroke-miterlimit="10"/>
<path d="M46.6671 70.0491L53.0837 68.1289L45.6187 43.1834L39.2021 45.1036L46.6671 70.0491Z" fill="#60C9EB" stroke="#60C9EB" stroke-width="1.23804" stroke-miterlimit="10"/>
</svg>
