<svg width="117" height="99" viewBox="0 0 117 99" fill="none" xmlns="http://www.w3.org/2000/svg">
<path d="M66.6618 72.5078L76.0789 48.9054" stroke="#E96262" stroke-width="0.92853" stroke-miterlimit="10"/>
<path d="M69.7321 73.7245L79.1531 50.1226L72.9326 47.6396L63.5116 71.2415L69.7321 73.7245Z" fill="#E96262" stroke="#E96262" stroke-width="0.928531" stroke-miterlimit="10"/>
<path d="M89.7256 77.1045L64.7226 25.7872" stroke="#E96262" stroke-width="0.92853" stroke-miterlimit="10"/>
<path d="M86.7056 78.5329L92.7266 75.5989L67.7206 24.2836L61.6997 27.2176L86.7056 78.5329Z" fill="#E96262" stroke="#E96262" stroke-width="0.928531" stroke-miterlimit="10"/>
<path d="M101.222 55.6594L76.0774 48.9021" stroke="#E96262" stroke-width="0.92853" stroke-miterlimit="10"/>
<path d="M100.417 58.9343L102.156 52.4663L77.0108 45.7051L75.2716 52.1731L100.417 58.9343Z" fill="#E96262" stroke="#E96262" stroke-width="0.928531" stroke-miterlimit="10"/>
<path d="M16.7719 30.5679L41.8047 26.1722" stroke="#E96262" stroke-width="0.92853" stroke-miterlimit="10"/>
<path d="M17.3603 33.8935L42.3901 29.498L41.2317 22.9012L16.2018 27.2967L17.3603 33.8935Z" fill="#E96262" stroke="#E96262" stroke-width="0.928531" stroke-miterlimit="10"/>
<path d="M24.9953 52.6079L55.4966 4.36014" stroke="#E96262" stroke-width="0.92853" stroke-miterlimit="10"/>
<path d="M27.8646 54.4353L58.3674 6.18457L52.7061 2.60561L22.2032 50.8563L27.8646 54.4353Z" fill="#E96262" stroke="#E96262" stroke-width="0.928531" stroke-miterlimit="10"/>
<path d="M49.2698 51.1189L41.8046 26.1755" stroke="#E96262" stroke-width="0.92853" stroke-miterlimit="10"/>
<path d="M46.0626 52.003L52.4792 50.0828L45.0142 25.1372L38.5975 27.0574L46.0626 52.003Z" fill="#E96262" stroke="#E96262" stroke-width="0.928531" stroke-miterlimit="10"/>
</svg>
