<svg width="470" height="528" viewBox="0 0 470 528" fill="none" xmlns="http://www.w3.org/2000/svg">
<path d="M462.857 526.154H4.26011C3.8912 526.156 3.52567 526.084 3.18482 525.943C2.84398 525.801 2.53464 525.594 2.27485 525.332C2.01506 525.07 1.81 524.759 1.67164 524.417C1.53328 524.075 1.46439 523.709 1.46896 523.34L7.62555 27.3446C7.64037 26.6038 7.94563 25.8984 8.47553 25.3805C8.73892 25.1257 9.05007 24.9256 9.39109 24.7915C9.73212 24.6575 10.0963 24.5922 10.4626 24.5994C94.3116 26.0926 177.46 27.5858 260.689 29.0905L465.579 32.7316C466.307 32.7466 467.001 33.0457 467.511 33.565C468.022 34.0844 468.31 34.7828 468.312 35.5113C468.473 117.454 467.704 199.821 466.968 279.466C466.233 359.111 465.475 441.421 465.636 523.317C465.638 523.683 465.567 524.046 465.428 524.384C465.289 524.723 465.084 525.031 464.826 525.29C464.568 525.549 464.261 525.755 463.923 525.895C463.585 526.036 463.223 526.108 462.857 526.108V526.154ZM7.07421 520.572H460.065C459.928 439.56 460.674 358.169 461.398 279.443C462.121 200.717 462.879 119.291 462.742 38.2335L260.585 34.5924C178.287 33.1106 96.0575 31.6174 13.1619 30.1472L7.07421 520.572Z" fill="#E96262"/>
<path fill-rule="evenodd" clip-rule="evenodd" d="M10.4342 26.0544C10.2597 26.051 10.0862 26.0821 9.92371 26.146C9.76242 26.2094 9.61516 26.3038 9.49026 26.4239C9.23605 26.6738 9.08922 27.0129 9.0809 27.3692C9.08087 27.3707 9.08084 27.3722 9.08081 27.3737L2.9244 523.358C2.92222 523.534 2.95505 523.708 3.02096 523.871C3.08689 524.034 3.18459 524.182 3.30836 524.307C3.43214 524.432 3.57953 524.531 3.74191 524.598C3.90431 524.665 4.07847 524.7 4.25422 524.699L4.26035 524.699L461.401 524.699V524.653L462.857 524.653C463.031 524.653 463.204 524.618 463.365 524.552C463.526 524.485 463.672 524.387 463.795 524.263C463.918 524.139 464.016 523.993 464.082 523.832C464.148 523.67 464.182 523.497 464.181 523.323V523.32C464.02 441.414 464.778 359.096 465.513 279.452L465.536 277.055C466.264 198.155 467.016 116.627 466.857 35.5169C466.856 35.1683 466.718 34.834 466.474 34.5855C466.23 34.3373 465.899 34.1942 465.551 34.1866C465.55 34.1866 465.55 34.1866 465.549 34.1866L260.663 30.5456C177.434 29.0409 94.2858 27.5477 10.437 26.0545L10.4342 26.0544ZM464.312 527.306V527.609H4.26647C3.7044 527.612 3.14749 527.502 2.62821 527.287C2.10891 527.072 1.63762 526.756 1.24181 526.357C0.846001 525.958 0.533589 525.484 0.322791 524.963C0.111986 524.442 0.00702515 523.884 0.0139978 523.322L6.17072 27.3155C6.19318 26.193 6.6557 25.1244 7.45852 24.3397L7.46401 24.3343C7.8653 23.9462 8.33938 23.6413 8.85895 23.4371C9.37806 23.233 9.93234 23.1336 10.49 23.1443C94.3385 24.6375 177.486 26.1307 260.715 27.6354C260.715 27.6354 260.715 27.6354 260.715 27.6354L465.609 31.2766C466.717 31.2994 467.772 31.7544 468.549 32.5446C469.326 33.3347 469.764 34.3974 469.768 35.5056V35.5084C469.927 116.638 469.174 198.183 468.446 277.082L468.424 279.479C467.689 359.125 466.931 441.425 467.092 523.311C467.094 523.869 466.986 524.421 466.774 524.937C466.562 525.453 466.251 525.922 465.857 526.317C465.464 526.712 464.997 527.025 464.481 527.239C464.425 527.263 464.369 527.285 464.312 527.306ZM11.7251 28.6662L13.1879 28.6921C73.977 29.7703 134.408 30.8608 194.77 31.95C216.722 32.3462 238.664 32.7421 260.612 33.1373L464.195 36.8041L464.197 38.231C464.334 118.432 463.593 198.99 462.876 276.931L462.853 279.456C462.13 358.184 461.383 439.567 461.521 520.569L461.523 522.027H5.60096L11.7251 28.6662ZM14.5992 31.6282L8.54795 519.116H458.608C458.481 438.577 459.223 357.682 459.943 279.429L459.966 276.905C460.678 199.425 461.414 119.374 461.289 39.6629L260.559 36.0474C238.613 35.6523 216.671 35.2563 194.72 34.8602C134.841 33.7797 74.8954 32.6979 14.5992 31.6282Z" fill="#E96262"/>
<path d="M155.463 11.6207C159.805 55.5897 164.227 98.0541 168.569 142.012C146.676 131.008 126.736 123.703 104.844 112.699C83.135 126.482 63.3213 138.864 41.6699 152.613C42.137 103.338 42.6194 54.0621 43.1172 4.78647C81.4235 10.6789 116.743 13.6423 155.463 11.6207Z" fill="#E96262"/>
<path d="M324.495 142.012C302.602 131.008 282.651 123.703 260.77 112.699C239.061 126.482 219.236 138.864 197.527 152.613C198.01 103.338 198.492 54.0621 198.974 4.78647C237.35 10.6789 272.624 13.6423 311.389 11.6207C315.731 55.5897 320.153 98.0541 324.495 142.012Z" fill="#E96262"/>
<path d="M41.6072 155.405C41.1321 155.406 40.6648 155.284 40.2519 155.049C39.8124 154.807 39.4467 154.451 39.1938 154.018C38.9409 153.585 38.8104 153.092 38.8161 152.591L40.2633 4.75223C40.2691 4.35343 40.3602 3.96047 40.5306 3.59986C40.701 3.23926 40.9467 2.91938 41.2512 2.66174C41.5569 2.405 41.9135 2.21595 42.2976 2.10706C42.6817 1.99817 43.0845 1.97189 43.4795 2.02998C85.9783 8.55412 120.437 10.6561 155.32 8.8413C156.034 8.80253 156.736 9.04156 157.277 9.50832C157.819 9.97509 158.159 10.6334 158.226 11.3453C160.409 33.3872 162.637 55.4062 164.796 76.7015C166.956 97.9969 169.173 119.809 171.343 141.748C171.393 142.238 171.313 142.732 171.111 143.182C170.91 143.631 170.594 144.02 170.195 144.309C169.785 144.592 169.306 144.759 168.809 144.794C168.312 144.828 167.814 144.728 167.369 144.504C156.492 139.037 145.902 134.408 135.656 129.917C125.766 125.598 115.567 121.13 105.045 115.892C95.0753 122.21 85.5188 128.251 75.9164 134.27C65.1424 141.058 54.3913 147.824 43.1464 154.945C42.6888 155.245 42.154 155.404 41.6072 155.405ZM45.7997 8.01429L44.4443 147.525C54.1386 141.392 63.5113 135.488 72.8955 129.572C82.9 123.266 92.9044 116.938 103.357 110.345C103.762 110.088 104.228 109.942 104.707 109.92C105.186 109.898 105.663 110.001 106.091 110.218C116.979 115.686 127.581 120.326 137.838 124.817C146.74 128.711 155.895 132.72 165.302 137.291C163.292 117.041 161.247 96.8482 159.26 77.2643C157.181 56.8075 155.045 35.6959 152.954 14.5384C119.46 16.0891 86.1621 14.0675 45.7997 8.01429Z" fill="#E96262"/>
<path fill-rule="evenodd" clip-rule="evenodd" d="M43.2639 3.46925C43.0736 3.4418 42.8796 3.45471 42.6945 3.50719C42.5091 3.55974 42.3369 3.6508 42.1892 3.77441C42.0444 3.89744 41.9275 4.04989 41.8464 4.22161C41.7652 4.39334 41.7216 4.58045 41.7185 4.77039C41.7185 4.77131 41.7185 4.77223 41.7185 4.77314L40.2713 152.607C40.2686 152.845 40.3305 153.079 40.4504 153.284C40.5703 153.49 40.7438 153.658 40.9522 153.773L40.9619 153.778L40.9714 153.784C41.1636 153.893 41.3811 153.95 41.6022 153.949L41.6062 153.949C41.8702 153.949 42.1285 153.872 42.3494 153.728L42.3585 153.722L42.3677 153.716C51.8218 147.729 60.9269 141.993 69.9884 136.285C71.7067 135.202 73.4234 134.121 75.1406 133.039L75.1435 133.037C84.7428 127.02 94.297 120.98 104.266 114.663L104.959 114.224L105.694 114.589C116.178 119.809 126.346 124.263 136.238 128.583L136.811 128.834C146.875 133.245 157.308 137.818 168.022 143.204C168.235 143.311 168.472 143.358 168.708 143.342C168.94 143.326 169.162 143.249 169.355 143.12C169.541 142.982 169.688 142.798 169.783 142.586C169.881 142.369 169.919 142.131 169.895 141.894L169.895 141.891C167.895 121.68 165.856 101.577 163.859 81.8838C163.688 80.2022 163.518 78.5237 163.348 76.8483C161.189 55.553 158.96 33.5325 156.778 11.4887L156.777 11.482C156.745 11.1444 156.584 10.8322 156.327 10.6108C156.07 10.3894 155.738 10.2761 155.399 10.2945L155.396 10.2946C120.395 12.1156 85.8367 10.0045 43.2639 3.46925ZM41.9006 0.706918C42.4825 0.541957 43.0928 0.502126 43.6912 0.590146L43.7003 0.591479C86.122 7.10379 120.479 9.19651 155.243 7.38802C156.332 7.32935 157.401 7.69402 158.227 8.40582C159.053 9.11711 159.571 10.1199 159.675 11.2045C161.857 33.2437 164.085 55.2602 166.244 76.5547C166.415 78.2356 166.585 79.9197 166.756 81.6068C168.753 101.294 170.792 121.395 172.792 141.604C172.866 142.347 172.745 143.096 172.439 143.777C172.133 144.459 171.654 145.049 171.049 145.488L171.035 145.498L171.021 145.507C170.396 145.938 169.666 146.193 168.909 146.245C168.152 146.298 167.394 146.146 166.716 145.805C156.071 140.454 145.697 135.907 135.618 131.489L135.073 131.251M41.9006 0.706918C41.3187 0.871894 40.7784 1.15831 40.3152 1.54728ZM40.3152 1.54728L40.311 1.55082ZM40.311 1.55082C39.8478 1.94277 39.474 2.42943 39.2148 2.9781ZM39.2148 2.9781C38.9555 3.52675 38.8169 4.12459 38.8081 4.7313ZM38.8081 4.7313L38.8081 4.73798ZM38.8081 4.73798L37.3608 152.574ZM44.3607 6.32689L46.0155 6.57507C86.3033 12.6171 119.505 14.6301 152.887 13.0847L154.266 13.0208L154.402 14.3953C156.493 35.5507 158.629 56.6606 160.708 77.1172C162.695 96.7011 164.74 116.895 166.75 137.147L167.007 139.738L164.666 138.6C155.288 134.043 146.16 130.045 137.255 126.15L137.174 126.115C126.946 121.637 116.337 116.992 105.437 111.519L105.43 111.515C105.228 111.412 105.001 111.363 104.774 111.374C104.547 111.384 104.326 111.454 104.134 111.575C99.44 114.536 94.8342 117.445 90.2783 120.322C84.6925 123.85 79.181 127.331 73.6715 130.803C72.3977 131.606 71.1241 132.409 69.8498 133.212C61.7368 138.326 53.5997 143.455 45.2224 148.755L42.9631 150.185L44.3607 6.32689ZM47.2387 9.70002C86.3831 15.4912 118.959 17.4717 151.641 16.054C153.689 36.7539 155.778 57.3967 157.812 77.4115C159.715 96.1629 161.67 115.471 163.597 134.853C154.981 130.731 146.583 127.054 138.421 123.484L138.369 123.461C128.125 118.976 117.577 114.357 106.748 108.92C106.096 108.589 105.37 108.432 104.64 108.466C103.909 108.5 103.199 108.723 102.58 109.114C97.8834 112.076 93.2786 114.985 88.7241 117.861C83.1396 121.388 77.6306 124.867 72.1195 128.341C70.8462 129.144 69.5732 129.946 68.2995 130.749C60.917 135.402 53.5127 140.069 45.9255 144.866L47.2387 9.70002Z" fill="#E96262"/>
<path d="M197.528 155.404C197.053 155.404 196.586 155.282 196.173 155.048C195.736 154.804 195.374 154.447 195.123 154.015C194.872 153.582 194.743 153.09 194.749 152.59L196.196 4.75145C196.202 4.35392 196.293 3.96222 196.461 3.60199C196.629 3.24176 196.872 2.92111 197.172 2.66096C197.479 2.40547 197.835 2.21721 198.219 2.10838C198.603 1.99956 199.006 1.97257 199.401 2.0292C241.899 8.55334 276.358 10.6553 311.241 8.84052C311.957 8.80157 312.659 9.04022 313.203 9.50674C313.746 9.97325 314.089 10.6316 314.159 11.3445C316.33 33.3864 318.569 55.4054 320.729 76.7007C322.888 97.9961 325.105 119.808 327.265 141.747C327.31 142.242 327.223 142.74 327.012 143.189C326.801 143.639 326.473 144.024 326.064 144.305C325.654 144.586 325.177 144.753 324.681 144.788C324.185 144.822 323.689 144.724 323.244 144.504C312.378 139.036 301.777 134.407 291.543 129.916C281.653 125.597 271.453 121.129 260.932 115.892C250.962 122.209 241.406 128.251 231.803 134.269C221.029 141.058 210.278 147.823 199.022 154.944C198.579 155.238 198.06 155.398 197.528 155.404V155.404ZM201.744 8.01351L200.365 147.524C210.071 141.391 219.444 135.487 228.828 129.572C238.821 123.266 248.837 116.937 259.278 110.344C259.686 110.088 260.153 109.941 260.634 109.919C261.115 109.897 261.594 110 262.023 110.217C272.901 115.685 283.514 120.325 293.771 124.816C302.661 128.71 311.816 132.719 321.234 137.29C319.224 117.04 317.168 96.8475 315.193 77.2635C313.114 56.8067 310.977 35.6952 308.875 14.5376C275.393 16.0883 242.095 14.0667 201.744 8.01351Z" fill="#E96262"/>
<path fill-rule="evenodd" clip-rule="evenodd" d="M199.188 3.46896C198.997 3.44237 198.802 3.45583 198.616 3.50853C198.433 3.56054 198.262 3.64964 198.114 3.77026C197.973 3.89481 197.859 4.04714 197.78 4.21783C197.699 4.39132 197.655 4.5799 197.651 4.77134C197.651 4.77265 197.651 4.77396 197.651 4.77527L196.204 152.606C196.201 152.844 196.263 153.079 196.382 153.285C196.502 153.491 196.675 153.661 196.883 153.777L196.89 153.781C197.082 153.89 197.298 153.947 197.519 153.949C197.767 153.945 198.01 153.869 198.217 153.732L198.23 153.723L198.243 153.715C207.427 147.904 216.275 142.331 225.072 136.79C227.058 135.538 229.042 134.289 231.027 133.038L231.03 133.036C240.63 127.019 250.184 120.979 260.153 114.662L260.846 114.223L261.581 114.589C272.065 119.808 282.233 124.263 292.125 128.582L292.127 128.583L293.104 129.012C303.03 133.367 313.337 137.889 323.895 143.202C324.107 143.306 324.343 143.353 324.579 143.336C324.816 143.319 325.045 143.24 325.241 143.105C325.437 142.971 325.593 142.786 325.694 142.571C325.795 142.357 325.837 142.12 325.816 141.884C323.801 121.412 321.735 101.049 319.713 81.1113L319.281 76.8476C319.087 74.9387 318.893 73.024 318.698 71.104C316.721 51.6048 314.687 31.5556 312.711 11.4871C312.677 11.1475 312.514 10.8333 312.255 10.6111C311.996 10.3889 311.661 10.2751 311.32 10.2937L311.317 10.2939C276.317 12.1147 241.759 10.0038 199.188 3.46896ZM197.528 155.404L197.53 156.859C196.805 156.86 196.091 156.673 195.46 156.316C194.796 155.945 194.245 155.402 193.864 154.744C193.482 154.085 193.285 153.336 193.293 152.575L194.749 152.59L193.293 152.574M197.528 155.404L197.545 156.859C198.351 156.85 199.138 156.61 199.812 156.167C208.992 150.358 217.837 144.787 226.634 139.246C228.616 137.997 230.596 136.75 232.577 135.502C241.96 129.621 251.298 123.718 261.019 117.559C271.317 122.659 281.303 127.032 290.96 131.25L291.912 131.667C301.854 136.03 312.1 140.525 322.59 145.804L322.597 145.807C323.274 146.143 324.029 146.292 324.783 146.239C325.537 146.186 326.263 145.933 326.887 145.506C327.51 145.078 328.008 144.492 328.329 143.808C328.65 143.123 328.783 142.366 328.714 141.613L328.713 141.604C326.697 121.124 324.631 100.754 322.609 80.8137C322.465 79.3915 322.321 77.9716 322.177 76.5539C321.983 74.6469 321.789 72.734 321.595 70.8159C319.617 51.3146 317.583 31.2679 315.607 11.2023M311.164 7.38725C312.253 7.32848 313.323 7.69204 314.151 8.4024C314.979 9.11309 315.5 10.1164 315.607 11.2023M200.305 6.32609L201.96 6.57431C242.236 12.6163 275.438 14.6293 308.808 13.0839L310.187 13.02L310.323 14.3938C312.425 35.5496 314.561 56.6599 316.64 77.1164L316.641 77.1175C317.168 82.3433 317.701 87.6128 318.237 92.9154C319.71 107.483 321.209 122.299 322.682 137.146L322.939 139.736L320.599 138.599C311.224 134.049 302.108 130.057 293.227 126.167L293.187 126.149L292.892 126.02C282.731 121.571 272.182 116.953 261.37 111.518L261.366 111.516C261.16 111.412 260.931 111.362 260.701 111.373C260.471 111.384 260.248 111.453 260.054 111.575C256.572 113.773 253.138 115.942 249.737 118.091C242.937 122.386 236.266 126.599 229.605 130.802C227.952 131.844 226.3 132.886 224.646 133.928C216.909 138.804 209.139 143.702 201.143 148.755L198.884 150.182L200.305 6.32609ZM203.183 9.69928C242.316 15.4905 274.892 17.471 307.563 16.0533C309.621 36.7529 311.711 57.3956 313.745 77.4107C314.272 82.6379 314.805 87.9081 315.341 93.2111C316.729 106.933 318.139 120.874 319.53 134.854C310.926 130.741 302.549 127.072 294.417 123.51L294.355 123.483L294.088 123.366C283.91 118.91 273.422 114.318 262.679 108.918C262.026 108.588 261.298 108.432 260.567 108.465C259.835 108.499 259.124 108.722 258.504 109.111L258.501 109.113C255.017 111.313 251.58 113.484 248.176 115.634C241.378 119.927 234.71 124.139 228.052 128.34C226.391 129.388 224.729 130.435 223.066 131.483C216.069 135.893 209.043 140.322 201.847 144.867L203.183 9.69928Z" fill="#E96262"/>
</svg>
