<svg width="67" height="71" viewBox="0 0 67 71" fill="none" xmlns="http://www.w3.org/2000/svg">
<path fill-rule="evenodd" clip-rule="evenodd" d="M7.36621 25.8575C7.42871 25.9111 7.71434 25.8577 7.70541 25.7862C7.69648 25.7148 7.29467 25.5004 7.25895 25.42C7.22323 25.3396 7.43745 25.3577 7.3928 25.1523C7.34816 24.9469 6.95513 24.688 6.80333 24.4558C6.65154 24.2236 6.84815 24.2861 6.75886 24.1432C6.73743 24.0854 6.70723 24.0313 6.66948 23.9825C6.66948 23.9825 6.42838 23.8574 6.42838 23.8485C6.42838 23.8395 6.54473 23.7503 6.49116 23.6699C6.43758 23.5895 6.21404 23.4557 6.16939 23.3665C6.13599 23.3285 6.1001 23.2926 6.06214 23.2592C6.06214 23.2592 6.23216 23.2592 6.2143 23.2592C6.19644 23.2592 5.9105 22.8932 5.77656 22.6968C5.64262 22.5003 5.62494 22.3484 5.50886 22.143L4.01774 20.9375L18.7418 17.5446C18.84 17.5446 18.983 17.4373 19.0008 17.4373C19.0187 17.4373 19.0454 17.7053 19.1347 17.7321C19.3847 17.8035 20.0276 17.6337 20.0276 18.0891C20.0276 18.1963 19.7331 18.6249 19.742 18.7499C19.7509 18.8749 19.8403 18.8035 19.8314 18.8214C19.3582 19.2389 18.8434 19.6069 18.2954 19.9197C18.0543 20.0358 17.7865 20.0447 17.4918 20.1608C17.433 20.1742 17.3718 20.1742 17.3131 20.1608H17.1256C16.9916 20.2233 16.7954 20.4821 16.6883 20.5179C16.5811 20.5536 16.4383 20.5179 16.2954 20.5179L8.39298 21.7145L9.28591 22.9466C9.41091 23.0537 9.63418 23.161 9.76812 23.2681C9.90206 23.3753 9.768 23.3842 9.86622 23.4467C9.96444 23.5092 10.0982 23.4914 10.1339 23.5182C10.1696 23.545 10.0714 23.5895 10.1339 23.6163C10.3918 23.862 10.6697 24.086 10.9645 24.286C11.3574 24.1699 10.9646 23.8574 10.8485 23.6342C10.7324 23.4109 10.6699 23.3574 10.5895 23.2056L10.1073 22.3126L15.4204 21.5627C15.6704 21.5627 15.9561 21.5091 16.3133 21.4823C16.511 21.4474 16.7109 21.4264 16.9115 21.4197C17.1615 21.4197 17.4383 21.3484 17.7329 21.3574C17.7329 21.3574 17.8934 21.2681 17.9113 21.3574C17.9291 21.4467 17.9113 21.4199 18.1881 21.3574C18.4649 21.2949 18.349 21.7324 17.9204 22.2056C17.4918 22.6789 16.724 22.4645 16.4829 22.8574C16.0632 23.5271 17.2685 23.0538 17.4203 23.0538C17.5721 23.0538 17.7954 23.2503 17.9025 23.2413C18.0097 23.2324 18.0812 23.1343 18.1615 23.0985C18.6352 23.0063 19.1164 22.9583 19.599 22.9555C20.2721 22.9014 20.949 22.996 21.5815 23.2324C21.51 23.4645 21.1883 23.7504 21.0365 24.054C20.7061 24.7416 20.1439 24.67 19.5724 25.2147C19.5611 25.2403 19.5551 25.268 19.5554 25.296C19.5557 25.324 19.5623 25.3517 19.5741 25.3771C19.586 25.4024 19.603 25.4249 19.6243 25.4431C19.6455 25.4613 19.6702 25.4748 19.6971 25.4826C19.8221 25.5272 19.9474 25.3666 20.0189 25.3755C20.2154 25.4278 20.4152 25.4665 20.6171 25.4915C20.7063 25.4915 20.8493 25.3845 20.9475 25.3934C21.0458 25.4023 21.1436 25.4558 21.2597 25.4647C21.3758 25.4736 21.6976 25.3932 21.8583 25.42C22.0191 25.4468 22.1973 25.6522 22.4116 25.7058C22.6259 25.7594 22.9298 25.7774 23.1798 25.8309C23.4299 25.8845 23.8852 25.8845 23.9655 26.0184C24.1441 26.322 23.7334 26.2416 23.7959 26.4381C24.0191 26.6613 24.0548 26.1433 24.4477 26.3308C24.513 26.3761 24.5653 26.4378 24.5995 26.5096C24.653 26.5989 24.7243 26.7417 24.6439 26.7239C24.5636 26.706 24.5728 26.9827 24.5192 27.0541C24.4514 27.1848 24.3736 27.3101 24.2868 27.4291C24.0458 27.7863 23.5188 28.206 23.2688 28.6078C23.1862 28.7662 23.1348 28.9391 23.1171 29.1168C23.1171 29.2865 22.9388 29.7061 23.1798 29.7061C23.4209 29.7061 23.3227 29.5454 23.3495 29.7061C23.3762 29.8668 23.7422 29.7508 23.8404 29.7687C23.9386 29.7865 23.9567 29.8846 24.0549 29.8936C24.1531 29.9025 24.2424 29.715 24.2603 29.715C24.2781 29.715 24.2603 29.8312 24.3139 29.8312C24.5129 29.8837 24.7158 29.9195 24.9208 29.9383C24.9208 29.9383 25.0817 29.724 25.0995 29.715C25.1174 29.7061 25.1528 29.8847 25.26 29.7865C25.3671 29.6883 25.314 29.8846 25.43 29.8668C25.4654 29.8361 25.4953 29.8001 25.519 29.7597L25.6175 29.5722C25.814 29.2329 25.8944 29.1614 26.1176 28.831C26.1622 28.7596 26.2783 28.5364 26.323 28.4471C26.5998 27.9828 26.7873 27.9739 26.5462 28.9472C26.4482 29.279 26.3286 29.604 26.1887 29.9204C26.0547 30.224 25.7425 30.6616 25.805 30.9027C25.8675 31.1438 25.9835 31.0366 26.1799 31.0633C26.3378 31.1039 26.4929 31.1546 26.6443 31.2151C26.8455 31.2947 27.0373 31.3966 27.2159 31.5187C27.472 31.7089 27.7083 31.9242 27.9213 32.1616C28.0731 32.3313 28.2784 32.3491 28.4659 32.5723C28.4659 32.5723 28.2959 32.7154 28.3852 32.7332C28.6174 32.7332 28.8318 33.0367 28.9926 33.3135C29.1533 33.5903 29.2604 33.903 29.3854 34.0905C29.3854 34.0905 29.5282 34.0903 29.5371 34.135C29.5461 34.1796 29.439 34.269 29.4212 34.2422C29.573 34.4208 29.832 34.4564 29.9212 34.6082C29.9654 34.7992 29.9953 34.9933 30.0106 35.1888C30.1624 35.7245 30.6088 36.162 30.3498 36.6709C30.2248 36.912 29.8588 36.9835 30.0106 37.3674C30.0106 37.4567 30.2336 37.5193 30.1711 37.6175C29.9695 37.8054 29.7549 37.9783 29.5284 38.1352C28.7426 38.4299 27.0193 38.2068 27.7426 38.7605C27.8319 38.823 28.0817 38.8318 28.1799 38.8943C28.2781 38.9568 28.2515 39.0997 28.3408 39.1622C28.4795 39.2111 28.6232 39.2439 28.7693 39.2603C28.9569 39.3675 28.9925 39.573 29.1622 39.6713C29.1622 39.6713 29.4122 39.6713 29.439 39.6713C29.4658 39.6713 29.5107 39.8676 29.6714 39.9926C29.8321 40.1176 29.9032 40.0997 30.0015 40.1801C30.0997 40.2604 30.0732 40.3943 30.0464 40.3765C30.2875 40.5729 30.6715 40.5195 30.5643 40.7427C30.4042 40.8423 30.2243 40.9063 30.0372 40.9302C29.7604 41.3409 30.2694 40.698 30.0372 41.064C29.9836 41.1623 29.841 41.2159 29.8053 41.3141C29.6088 41.4123 29.4926 41.3141 29.2337 41.3141C28.9747 41.3141 28.707 41.4035 28.5374 41.3945C28.1624 41.3945 27.9837 41.1803 27.7962 41.2339C26.7068 41.5821 27.9122 41.9929 28.1175 42.1268C28.4874 42.3911 28.8312 42.6901 29.1443 43.0197C29.3318 43.1983 29.6891 43.3679 29.9391 43.6358C29.9915 43.6991 30.0481 43.7588 30.1087 43.8143C30.3034 44.0283 30.4713 44.2653 30.6088 44.5198C30.6759 44.6273 30.7327 44.7408 30.7784 44.859C30.7784 44.859 31.0196 44.859 30.9214 44.9126C30.6 45.0823 30.9214 45.0466 31.091 45.1805C31.2607 45.3145 31.0912 45.4395 31.2698 45.6717C31.2698 45.6717 31.5373 45.7877 31.5462 45.8055C31.6057 45.9785 31.6567 46.1544 31.6984 46.3324C31.752 46.4932 31.7784 46.6805 31.8409 46.8591C32.118 47.3844 32.2796 47.963 32.3144 48.5558C32.3144 48.5558 32.127 48.7253 32.1448 48.8593C32.1324 49.3603 31.9497 49.8421 31.6269 50.2255C31.4484 50.4158 31.2137 50.5442 30.9572 50.5917C30.3262 50.6327 29.6992 50.4665 29.1713 50.1184C29.1088 50.0648 29.0283 49.8862 28.9568 49.8505C28.8854 49.8148 28.4657 49.7523 28.2871 49.6809C28.1085 49.6095 28.0193 49.4666 27.9122 49.4666C27.305 49.4666 27.4568 49.9308 27.5372 50.2433C27.6176 50.5559 27.412 50.797 27.7513 51.1988C27.8102 51.4935 27.8102 51.797 27.7513 52.0917C27.7513 52.181 27.8317 52.3328 27.8407 52.4667C27.8496 52.6006 27.7156 52.5649 27.7334 52.6452C27.7513 52.7256 27.9213 52.8417 27.9213 52.8595C27.9213 52.8774 27.7246 53.0918 27.6711 53.2258C27.6175 53.3597 27.7425 53.5293 27.6711 53.6275C27.5996 53.7258 27.4388 53.6989 27.3227 53.815C27.2066 53.9311 27.1531 54.4045 26.9299 54.6009C26.7038 54.7678 26.4615 54.9114 26.2065 55.0295C25.8047 55.2706 25.3762 55.8063 24.9565 55.6634C24.8137 55.6099 24.7779 55.3509 24.6261 55.208C24.4743 55.0652 24.278 55.0026 24.1351 54.6633C24.0458 54.4579 23.9209 53.9757 23.7959 53.7703C23.7959 53.7703 23.6707 53.681 23.6172 53.5471C23.5636 53.4132 23.4385 52.8329 23.3403 52.5918C23.2421 52.3507 23.2245 52.2614 23.1441 52.056C23.0401 51.6958 22.8428 51.3693 22.5725 51.1094C22.4832 51.0112 22.2509 50.7344 22.1884 50.6809C22.1259 50.6273 21.9565 50.7255 21.8405 50.6809C21.7244 50.6362 21.6261 50.4934 21.5815 50.4934C21.3426 50.4889 21.1046 50.5222 20.876 50.5917C20.7957 50.5917 20.7776 50.7881 20.6973 50.7971C20.3938 50.8167 20.0939 50.8737 19.8044 50.9667L13.0717 53.2526L16.4738 58.378C16.5096 58.4175 16.552 58.4506 16.5989 58.4761C16.6282 58.4833 16.6589 58.4833 16.6883 58.4761L16.7772 58.4316L16.9473 58.3601C17.179 58.2596 17.4176 58.176 17.6614 58.11L18.0185 58.0117L18.206 57.9494C18.4337 57.8745 18.6717 57.8352 18.9114 57.8332H18.9563C18.8799 57.825 18.8049 57.8069 18.7331 57.7796H18.6346C18.5757 57.7492 18.5124 57.7283 18.4471 57.7172C18.2239 57.6458 18.0096 57.5654 17.7953 57.4761H17.9113C17.9648 57.5743 17.8577 57.6099 17.9113 57.7885C17.9648 57.9671 18.0098 57.9226 17.974 57.9494C17.9383 57.9762 17.831 57.9494 17.831 57.9494C17.831 58.1548 18.0363 58.3064 18.0006 58.4493C17.8559 58.9558 17.6134 59.4291 17.2865 59.8423L17.0096 59.7797C17.0096 59.7797 16.7594 59.7797 16.8487 59.7797C16.6523 59.6815 16.6524 59.4405 16.5631 59.4316C15.6702 59.253 15.4112 60.8245 15.5808 61.4674C15.6612 61.9675 15.3757 62.8158 15.3668 63.557C15.3578 64.2981 15.7149 64.8337 15.5006 65.1462C15.2863 65.4587 14.6076 65.4587 14.4647 65.6373C14.4062 65.7585 14.3757 65.8913 14.3757 66.0258C14.3757 66.1603 14.4062 66.2932 14.4647 66.4143L20.001 63.4944C19.7882 63.4795 19.578 63.4373 19.3758 63.3693C19.2686 63.3693 19.2152 63.1373 19.1081 63.0748C18.925 62.9705 18.7337 62.8809 18.5365 62.8068C18.2933 62.7274 18.0644 62.6097 17.8581 62.4585C17.5634 62.1995 17.438 61.5656 17.0362 61.3691C16.2406 60.9883 15.3803 60.7611 14.5004 60.6994C14.045 60.628 13.6077 60.5566 13.1345 60.5209C12.9322 60.5096 12.7294 60.5096 12.5271 60.5209C12.4263 60.5091 12.3245 60.5091 12.2237 60.5209C12.054 60.5209 11.8751 60.7442 11.6787 60.7709C11.2501 60.8334 10.9378 60.4228 10.5895 60.4407C10.5181 60.4407 10.3662 60.6192 10.2948 60.5835C10.2234 60.5477 10.1607 60.0745 9.92857 59.9674C9.47982 59.8259 9.04854 59.6341 8.64281 59.3958C8.55352 59.3422 8.54485 59.2351 8.46449 59.1815C8.30125 59.1242 8.12795 59.0998 7.95524 59.11C7.88381 59.11 7.95536 58.9672 7.85714 58.9493C7.62498 58.8958 7.23195 58.9495 7.04444 58.8423C6.85693 58.7352 6.88389 58.6369 6.77674 58.5476C6.66959 58.4583 6.19611 58.1726 6.09789 57.9315C6.09789 57.9315 6.01791 57.851 6.0447 57.8064C6.07148 57.7617 6.28537 57.6636 6.28537 57.6636C6.28537 57.6636 6.00888 57.6635 5.93744 57.5474C5.86601 57.4313 5.74972 57.0118 5.72293 56.8511C5.69614 56.6904 5.49107 56.467 5.58036 56.208C5.72323 55.7883 6.11589 55.4401 7.13382 55.3151H7.55369C7.64298 55.3151 7.61591 55.4223 7.71413 55.4313C7.98201 55.4313 8.3035 55.4313 8.41958 55.4313C8.53566 55.4313 8.4644 55.5652 8.59834 55.6009C8.69054 55.6056 8.78299 55.6056 8.8752 55.6009C8.8752 55.6009 8.8752 55.6635 8.8752 55.6724C9.0625 55.6849 9.25033 55.6849 9.43763 55.6724C9.56264 55.6724 9.60715 55.7349 9.74109 55.726C10.1614 55.7458 10.5806 55.6662 10.9645 55.4938C10.9645 55.4938 10.7858 55.4938 10.8215 55.4491C10.8572 55.4045 11.0717 55.2795 11.0539 55.2259C11.036 55.1723 10.8214 55.1544 10.75 55.0918C10.6786 55.0293 10.75 54.9045 10.5625 54.8063C10.375 54.708 10.375 54.7527 10.3929 54.6009C10.4108 54.4491 10.1696 54.4133 10.0803 54.2526C9.991 54.0918 10.0089 53.8687 9.89281 53.6722C9.77673 53.4758 9.56243 53.2526 9.44635 53.0115C9.33027 52.7704 9.30385 52.4311 9.15205 52.1186C9.10741 52.0382 8.91984 51.9489 8.8752 51.8506C8.83055 51.7524 8.8752 51.6096 8.8752 51.4667C8.77825 51.2395 8.64208 51.0308 8.47321 50.8505C8.35762 50.6746 8.27022 50.4819 8.21422 50.2791C8.13455 49.7809 8.02129 49.2887 7.87502 48.8058C7.81251 48.6898 7.64303 48.5915 7.60731 48.4932C7.5716 48.395 7.66089 48.2165 7.60731 48.0736C7.55374 47.9307 7.35729 47.5378 7.38408 47.3413C7.41087 47.1449 7.93749 46.7075 7.61603 46.3324C7.43745 46.136 7.61603 45.6806 7.61603 45.2342C7.61603 45.1181 7.50899 45.0645 7.50006 44.9841C7.49113 44.9037 7.7054 44.6984 7.68754 44.5734C7.66968 44.4484 7.43727 44.3948 7.43727 44.2965C7.43727 44.1983 7.62496 44.0643 7.61603 43.9482C7.61603 43.5731 7.44645 43.2071 7.46431 42.8767C7.52649 42.6339 7.60383 42.3953 7.69626 42.1623C7.77662 41.7784 7.65177 41.2695 7.85714 40.9391C8.06168 40.7138 8.3291 40.5551 8.62493 40.4837C8.88388 40.4837 9.5895 40.5999 9.73237 40.5731C9.94959 40.5132 10.1547 40.4165 10.3393 40.2873C10.4959 40.2078 10.638 40.102 10.7591 39.9747C10.8058 39.9072 10.839 39.8315 10.8572 39.7515C10.8572 39.5997 10.9022 39.4123 10.92 39.1801C10.92 39.1801 10.8036 38.9836 10.8215 38.8496C10.8393 38.7157 11.009 38.5015 11.009 38.5372C11.009 38.3497 10.7591 38.2426 10.7413 38.0818C10.7234 37.9211 10.7413 37.6354 10.7413 37.4389C10.674 37.2692 10.5738 37.1144 10.4465 36.9835C10.4019 36.9032 10.4465 36.8049 10.4465 36.7246C10.4465 36.6442 10.2235 36.5102 10.161 36.403C10.0092 36.153 10.1162 35.9297 9.86622 35.7065C9.82157 35.7065 9.59829 35.5995 9.58936 35.5816C9.58043 35.5637 9.58936 35.3583 9.58936 35.26C9.58936 35.1618 9.37522 35.0904 9.30378 35.01C9.23235 34.9296 9.35736 34.8761 9.30378 34.8225C9.25021 34.7689 9.0267 34.8227 9.01777 34.7691C8.91062 34.6084 8.9464 34.4119 8.86604 34.2601C8.6696 33.894 7.97312 33.4207 8.41958 33.0724C8.91961 32.9653 8.50885 33.2867 8.84816 33.251C8.99996 33.1081 8.84829 33.0636 8.97329 32.9386C9.0983 32.8136 9.4913 32.7957 9.52701 32.6707C9.56273 32.5456 9.27671 32.3581 9.241 32.2421C9.20528 32.126 9.28564 31.7956 9.241 31.5545C9.19635 31.3134 8.99114 31.233 8.95542 31.0633C8.80316 30.4355 8.80316 29.7804 8.95542 29.1526C8.95542 29.0454 9.16084 29.0097 9.23228 28.9025C9.30371 28.7954 9.23242 28.5632 9.37528 28.4203C9.51815 28.2775 10.0179 28.0631 10.2054 27.8666C10.5447 27.5184 10.4286 27.0542 10.634 26.6702C10.6787 26.572 10.8841 26.4648 10.9109 26.3755C10.9912 26.1433 10.9109 25.9111 10.9109 25.6611C10.9109 25.4111 11.2504 25.0541 11.3486 24.7237C11.4468 24.3933 11.3486 24.0987 11.5182 23.8308C11.6879 23.5629 12.2236 23.4556 12.4111 23.2234C12.5518 22.8126 12.6212 22.3808 12.6165 21.9466C12.6165 21.9466 12.4559 21.9466 12.4826 21.8841C12.6423 21.3332 12.6786 20.7541 12.5895 20.1876C12.5895 20.0894 12.7593 20.0804 12.7503 19.9644C12.7207 19.811 12.7207 19.6534 12.7503 19.5C12.7503 19.3929 12.6165 19.2856 12.6344 19.1964C12.7043 18.9498 12.7286 18.6927 12.7059 18.4375C12.7059 18.3303 12.8663 18.2767 12.8663 18.1606C12.8239 17.9814 12.794 17.7993 12.7769 17.6159C12.7769 17.6159 12.5538 17.616 12.6431 17.5446C13.1074 17.4374 12.1787 17.0087 12.1609 16.7855C12.143 16.5623 12.4736 16.4997 12.6344 16.2944C12.9987 15.6577 13.2267 14.9524 13.3041 14.2229C13.3041 14.0979 13.1077 13.7673 13.6345 13.7941C13.5301 14.3594 13.5059 14.9367 13.563 15.5087C13.563 15.598 13.3845 15.6962 13.3934 15.7855C13.4024 15.8748 13.5988 16.0444 13.6345 16.1694C13.6703 16.2944 13.4645 16.3213 13.4645 16.4463C13.4645 16.5713 13.5896 16.589 13.5718 16.6961C13.5539 16.8033 13.4022 16.9195 13.4022 17.0355C13.4022 17.482 13.6879 17.9999 13.679 18.4107C13.679 18.4732 13.679 18.5893 13.679 18.6429C13.679 18.6964 13.4113 18.6427 13.3934 18.732C13.3756 18.8213 13.6433 18.8393 13.6611 18.875C13.679 18.9107 13.5094 18.9642 13.5094 18.9821C13.6344 19.5357 13.3844 20.1698 13.5094 20.902C13.5094 21.0984 13.7595 21.3037 13.7505 21.4912C13.7505 22.0448 13.2863 22.5271 13.3934 22.92C13.3934 23.0004 13.6966 23.2503 13.652 23.3307C13.6073 23.4111 13.3934 23.3307 13.3756 23.3754C13.3577 23.42 13.3755 23.5896 13.0808 23.7146C12.7862 23.8396 12.5628 23.8576 12.5092 24.0361C12.4557 24.2147 12.5092 24.3753 12.5092 24.5628C12.5092 24.7503 12.2681 24.8307 12.2145 24.9646C12.0538 25.3396 12.2681 25.7147 12.2145 26.0808C12.2145 26.2058 11.9825 26.3399 11.9289 26.4917C11.8753 26.6435 11.9825 26.9469 11.9289 27.1969C11.9289 27.2951 11.6876 27.4471 11.6429 27.5542C11.5179 27.8846 11.7951 27.947 11.3665 28.0898L11.0896 28.1524C11.0093 28.2328 11.1968 28.3846 11.0896 28.4561C10.9825 28.5275 10.7323 28.4561 10.6698 28.5186C10.5215 28.6274 10.384 28.7499 10.2591 28.8847C10.1876 28.9829 10.2591 29.1347 10.2591 29.3043C10.2591 29.474 9.93777 29.6794 9.99135 30.0455C9.99135 30.0902 10.1609 30.1079 10.1252 30.1615C10.0317 30.375 9.98877 30.6073 10.0001 30.8401C10.0001 30.9651 10.2414 31.0901 10.2861 31.2061C10.3307 31.3222 10.2861 31.6081 10.2861 31.8314C10.429 32.4564 11.2322 32.8402 10.5983 33.2599C10.4822 33.3313 10.5983 33.3315 10.4644 33.385C10.3305 33.4386 10.3036 33.3849 10.1875 33.4563C10.0715 33.5278 9.93762 33.7063 10.0537 33.9028C10.0537 33.9028 10.2235 33.9743 10.1967 34.0279C10.1699 34.0815 10.0182 34.028 10.0629 34.0905C10.1075 34.153 10.4198 34.3315 10.4823 34.4654C10.5448 34.5994 10.4824 35.01 10.6432 35.2243C10.8039 35.4386 11.0092 35.4387 11.0718 35.5369C11.1343 35.6351 11.1253 35.9299 11.2235 36.1085C11.3547 36.3103 11.4978 36.504 11.6521 36.6888C11.7146 36.7781 11.7147 36.8851 11.7951 37.0101C11.9054 37.1391 12.0011 37.2801 12.0807 37.43C12.1211 37.8517 12.1211 38.2762 12.0807 38.6979C11.6431 38.7515 11.8572 38.3675 11.4197 38.421C11.4197 38.9211 12.1697 38.6353 12.3126 38.8317C12.2233 39.1889 12.1787 39.555 12.1072 39.9121C12.0795 40.0889 12.0256 40.2605 11.9468 40.4212C11.8307 40.6176 11.6253 40.6443 11.1877 40.8051C10.8225 40.9546 10.4304 41.0277 10.0358 41.0196C9.85724 41.0196 9.3663 41.0196 9.32166 41.0196C9.27701 41.0196 9.25024 41.332 9.1163 41.5552C8.98236 41.7784 8.82132 41.7428 8.79454 41.8231C8.7456 42.3192 8.7791 42.82 8.89307 43.3053C8.89307 43.5732 8.78583 43.8232 8.80369 44.0286C8.82155 44.234 9.04457 44.3769 9.03564 44.484C9.02671 44.5912 8.75896 44.734 8.71431 44.8769C8.67407 44.9759 8.65953 45.0835 8.67202 45.1897C8.68451 45.2958 8.72369 45.3972 8.78582 45.4842C8.84832 45.5646 9.03587 45.6181 9.0448 45.6985C9.05373 45.7789 8.71433 45.9305 8.73219 46.0288C8.75005 46.127 9.17848 46.511 9.22312 46.7342C9.35706 47.3057 8.52671 48.1003 9.07139 48.6539C9.22319 48.8057 8.84837 49.5468 9.28591 49.7611C9.54485 49.8861 9.47311 49.7612 9.4106 50.0469C9.3481 50.3327 9.55364 50.4934 9.81259 50.7345C10.0715 50.9756 9.70551 50.8417 9.66086 51.0024C9.7355 51.1567 9.82506 51.3033 9.92857 51.4399C10 51.5203 10.1786 51.5828 10.2054 51.6542C10.2322 51.7257 10.134 51.9846 10.2054 52.1275C10.2769 52.2704 10.5626 52.3953 10.634 52.5293C10.7054 52.6632 10.4644 52.6811 10.5002 52.824C10.5359 52.9669 10.7056 52.9133 10.777 53.0115C10.8485 53.1097 10.777 53.2258 10.777 53.2973C10.8656 53.3772 10.9611 53.4489 11.0626 53.5116C11.4019 53.7169 11.4465 54.083 11.6965 54.4045C11.7501 54.467 11.9201 54.4669 12.0004 54.5294C12.0808 54.5919 12.0986 54.833 12.2058 54.958C12.3129 55.083 12.4198 55.0383 12.3841 55.1008C12.3484 55.1633 12.3841 55.1008 12.3841 55.1008L12.1164 55.1812L11.7236 55.333L11.4646 55.4313C10.9913 55.6099 10.0895 55.9135 9.88409 55.9582C9.67872 56.0028 9.88409 55.8867 9.88409 55.8867C9.88409 55.8867 9.39276 56.0116 9.20525 56.0295C9.01773 56.0473 9.12516 56.0295 9.0448 56.0295C8.94963 56.0347 8.85396 56.0347 8.75878 56.0295C8.4284 56.0295 8.19624 55.9403 7.86586 55.8956L6.85696 55.7705C6.57123 56.0026 6.85696 56.1546 6.85696 56.3421C6.85696 56.5296 6.62503 56.583 6.64289 56.6545C6.66074 56.7259 6.91959 56.7618 6.98209 56.8422C7.0446 56.9225 6.98214 57.2171 7.03572 57.3688C7.11832 57.5285 7.2378 57.6662 7.38408 57.7706C7.47338 57.8331 7.71441 57.7707 7.77692 57.86C7.83942 57.9493 7.70548 58.0654 7.77692 58.11C7.85559 58.1452 7.94057 58.1635 8.02674 58.1637C8.13557 58.1385 8.24604 58.1206 8.35723 58.11C8.46438 58.11 8.35714 58.3154 8.49108 58.3422C8.62502 58.369 8.74998 58.2796 8.88392 58.2707C9.19644 58.1993 9.08043 58.6547 9.40188 58.5476C9.47331 58.5476 9.58919 58.4227 9.63383 58.4316C9.67848 58.4405 9.74119 58.6189 9.84834 58.6635C9.95549 58.7082 10.0536 58.5833 10.1339 58.5833C10.2143 58.5833 10.1339 58.7351 10.1339 58.7619C10.1339 58.7886 10.3663 58.6368 10.4021 58.6635C10.4378 58.6903 10.3574 58.8334 10.4021 58.8334C10.4467 58.8334 10.5985 58.6814 10.6432 58.6993C10.6878 58.7172 10.6432 58.8689 10.6432 58.9136C10.6432 58.9582 10.7771 58.86 10.8128 58.9136C10.8485 58.9672 10.9107 59.1458 10.9911 59.1994C11.0715 59.253 11.1518 59.11 11.1964 59.1458C11.2411 59.1815 11.2501 59.3333 11.3037 59.3601C11.5091 59.4136 11.7769 59.1457 11.9198 59.3601C11.9532 59.4053 11.9831 59.4532 12.0091 59.5031C12.0627 59.5031 12.1254 59.2887 12.1879 59.2351C12.2124 59.2059 12.2447 59.1843 12.2812 59.1732C12.3177 59.1621 12.3567 59.1619 12.3933 59.1726C12.5013 59.2176 12.6158 59.2448 12.7325 59.253C13.1075 59.253 13.7058 59.1726 14.1612 59.253C15.0487 59.401 15.9193 59.6373 16.7598 59.9585C17.4295 60.1906 18.0455 60.1191 18.4384 60.5835C18.6348 60.8067 18.5991 61.3246 18.867 61.539C19.1348 61.7533 19.9832 61.8425 20.2957 61.9675C20.4386 62.03 20.5991 62.137 20.7867 62.2442L13.0359 66.3338C13.0407 66.2506 13.0407 66.1671 13.0359 66.0838C13.0359 65.5838 12.8306 64.8962 13.0359 64.7355C13.2413 64.5747 14.179 64.7356 14.313 64.6731C14.4897 64.1971 14.5419 63.6837 14.4647 63.1818C14.3665 63.0032 14.5272 62.8246 14.5183 62.4763C14.5183 62.3513 14.3487 62.1728 14.3487 62.0656C14.3487 61.646 14.6343 61.2442 14.6522 60.8246C14.6522 60.5478 14.5452 60.2442 14.5719 59.9763C14.5987 59.7085 14.7324 59.6993 14.7681 59.5565C14.8039 59.4136 14.7235 59.0565 14.7681 58.9404C14.8779 58.7505 15.0239 58.5837 15.1972 58.4493C15.4676 58.4272 15.739 58.4272 16.0094 58.4493C16.438 58.61 16.4562 58.9314 16.724 58.8868C16.9919 58.8421 17.1435 58.628 17.2328 58.3512C17.2775 58.2261 17.0632 58.0386 17.0632 57.8511C17.0632 57.6635 17.2326 57.717 17.2594 57.5474C17.2433 57.4342 17.1938 57.3286 17.1169 57.2439C17.1169 57.1993 17.1169 57.1724 17.1169 57.1456H17.1792C17.2774 57.1992 17.3757 57.244 17.4739 57.3065C17.682 57.4127 17.8965 57.505 18.1166 57.5831C18.2508 57.6333 18.3884 57.6752 18.5278 57.7083C18.6297 57.7601 18.7375 57.799 18.8491 57.8242H19.0366H18.8757C18.7042 57.8264 18.5337 57.8474 18.3669 57.8868L18.1258 57.9494H18.0185L17.8044 58.0028C17.5008 58.0818 17.2025 58.1803 16.9115 58.2975C16.6583 58.4099 16.4109 58.535 16.1703 58.6725L15.8935 58.7887H15.8311H15.7596C15.7596 58.7887 15.8847 58.6725 15.849 58.6635C15.8259 58.6554 15.8006 58.6554 15.7775 58.6635L14.1791 59.1815L19.6082 50.1363C19.6707 50.0381 19.6795 49.922 19.742 49.8952C19.8045 49.8684 19.9206 49.9933 20.001 49.9754C20.0814 49.9576 20.126 49.8237 20.2063 49.7879C20.2867 49.7522 20.3937 49.9041 20.474 49.8773C20.5544 49.8505 20.4741 49.7077 20.5634 49.6988C20.6527 49.6898 20.7866 49.8773 20.9026 49.8773C21.0187 49.8773 20.974 49.7166 21.0186 49.6988C21.0633 49.6809 21.3226 49.8505 21.4298 49.8326C21.5369 49.8148 21.4294 49.6362 21.5008 49.6451C21.5723 49.6541 21.6797 49.779 21.7868 49.8326C21.894 49.8862 22.01 49.913 21.9743 49.8326C22.3669 50.2938 22.7248 50.7832 23.0456 51.2969C23.2086 51.5818 23.3464 51.8807 23.4567 52.1898C23.5549 52.4041 23.644 52.5203 23.7065 52.6899C23.8772 53.1257 24.0832 53.5469 24.3226 53.9491C24.5994 54.467 24.5368 54.5116 24.8493 54.6009C25.1618 54.6902 24.8495 54.4222 25.1174 54.2704C25.3853 54.1186 25.4923 54.2705 25.6262 54.0919C25.7602 53.9133 25.7783 53.7437 25.8944 53.6812C26.0105 53.6187 26.2694 53.7526 26.3408 53.6812C26.4914 53.435 26.56 53.1472 26.537 52.8595C26.5195 52.7831 26.5195 52.704 26.537 52.6276C26.6085 52.4579 26.8584 52.5293 26.9299 52.3686C26.9592 52.2092 26.9592 52.0458 26.9299 51.8864C26.9494 51.7382 26.9494 51.5881 26.9299 51.4399C26.8763 51.3238 26.5906 51.1095 26.5549 50.9756C26.4388 50.5559 26.8852 50.5113 26.653 50.0827C26.6084 49.9934 26.6531 49.9577 26.5728 49.8773C26.4924 49.7969 26.3319 49.7522 26.323 49.7343C26.314 49.7164 26.5191 49.7344 26.5013 49.6273C26.4834 49.5201 26.2602 49.5202 26.2602 49.4487C26.2602 48.9576 26.6443 48.4307 28.2427 48.9218L28.6442 49.0646C28.7778 49.1046 28.9094 49.1525 29.0375 49.2076C29.1357 49.2701 29.216 49.5558 29.3946 49.6362C29.3946 49.6362 29.7782 49.6362 29.9478 49.6362C30.1175 49.6362 30.2785 49.8594 30.475 49.8326C30.6714 49.8058 30.5193 49.7166 30.6533 49.6362C30.7872 49.5558 30.9304 49.6362 30.9393 49.6362C31.0897 49.3191 31.1949 48.9823 31.2519 48.636C31.2519 48.4664 31.1447 48.2521 31.1625 48.011C31.233 47.6567 31.2083 47.2902 31.091 46.9485C31.0375 46.8413 31.0105 46.6896 30.948 46.5825C30.8855 46.4753 30.6982 46.377 30.6624 46.2967C30.5356 45.8231 30.3711 45.3602 30.1711 44.9126C29.9925 44.6983 29.5375 44.5733 29.4303 44.4393C29.4666 44.3109 29.4666 44.1749 29.4303 44.0465C29.4303 43.9929 29.1354 43.9126 29.1264 43.8858C29.1175 43.859 29.2873 43.734 29.2337 43.6715C29.1801 43.609 29.0015 43.6714 28.7872 43.5375C28.5729 43.4035 28.787 43.3233 28.6085 43.2429C28.4627 43.1666 28.3105 43.1036 28.1533 43.0553C28.064 43.0553 27.7691 42.975 27.7155 42.9393C27.662 42.9036 27.7157 42.7517 27.6711 42.6892C27.6264 42.6267 27.3942 42.6892 27.3763 42.6177C27.3585 42.5463 27.2873 42.3678 27.1623 42.2785C26.8854 42.0821 26.4476 41.966 26.2065 41.7963C25.9655 41.6267 25.5994 41.3409 25.778 41.1534C25.9565 40.9659 26.1176 41.0552 26.3051 40.957C26.4926 40.8588 26.3587 40.841 26.5462 40.7785C27.28 40.6166 28.0274 40.5238 28.7785 40.5016C28.7339 40.2069 28.1535 40.1444 27.8856 39.9836C27.6177 39.8229 27.6709 39.6801 27.4923 39.564C27.3137 39.4479 26.8315 39.2783 26.5994 39.1265C26.5101 39.0729 26.528 38.9926 26.4477 38.939C26.3475 38.9087 26.2491 38.8728 26.1529 38.8317C26.0815 38.7871 26.0818 38.6978 25.9925 38.6532C25.9032 38.6086 25.7782 38.6533 25.546 38.3229C25.3138 37.9925 25.3136 38.0638 25.778 37.9209C26.6132 37.8351 27.4403 37.6828 28.2514 37.4655C28.5103 37.2602 28.0015 37.1263 27.9122 36.8584C27.9122 36.8584 28.0817 36.7692 28.0281 36.7156C27.9746 36.662 27.8049 36.6352 28.0281 36.4656C28.2514 36.2959 28.5104 36.403 28.9747 36.144C28.8586 35.769 28.9748 35.4119 28.823 35.0815C28.7783 34.9833 28.5731 34.9476 28.5016 34.8583C28.4302 34.769 28.3676 34.4297 28.2248 34.1886C27.9569 33.76 27.5817 33.385 27.1352 32.7243C27.1352 32.7243 26.9211 32.7242 26.9211 32.6349C26.9211 32.5456 27.0641 32.5546 26.9748 32.4742C26.8855 32.3939 26.6443 32.4027 26.4747 32.3312C26.3505 32.269 26.2221 32.2153 26.0906 32.1706C25.9336 32.1212 25.7653 32.1212 25.6084 32.1706C25.3316 32.2509 25.0995 32.4384 25.0459 32.3938C24.9923 32.3491 25.0459 32.2242 25.0459 32.1884C25.181 31.382 25.4336 30.5998 25.7958 29.8668C26.0101 29.3756 26.0636 29.1882 25.9297 29.2686C25.7957 29.3489 25.8226 29.4918 25.7958 29.4918C25.769 29.4918 25.7244 29.4918 25.6084 29.6882C25.4923 29.8847 25.278 30.3043 25.2334 30.3579C25.0459 30.5901 25.3761 29.9561 25.0368 30.5633C24.7957 30.849 24.6351 30.492 24.3405 30.5098C24.1596 30.5326 23.9768 30.5326 23.7959 30.5098C23.7066 30.5098 23.662 30.3668 23.5727 30.3758C23.4834 30.3847 23.376 30.6795 23.3045 30.7063C23.2514 30.6281 23.1723 30.571 23.0813 30.5454C22.9713 30.5545 22.8608 30.5393 22.7574 30.5007C22.654 30.4621 22.5603 30.4011 22.4831 30.3222C22.4028 30.2239 22.4833 30.0454 22.4208 29.974C22.269 29.7418 21.9742 29.7061 22.2956 29.0811C22.2956 29.0811 22.4565 28.8578 22.4565 28.8489C22.4565 28.6257 22.5191 28.706 22.7691 28.3399C22.8106 28.2503 22.8581 28.1638 22.9117 28.0809C23.2689 27.6791 23.7332 27.3934 23.8046 27.188C23.8046 26.8308 22.4921 26.5274 22.0903 26.4381C21.6885 26.3488 21.6615 26.1345 21.2597 26.2506C20.8579 26.3667 21.0544 26.1969 20.6973 26.1612C20.6348 26.1612 20.4918 26.2506 20.3668 26.2416C20.2418 26.2327 20.0901 26.3397 20.0276 26.3308C19.9651 26.3219 19.8936 26.1344 19.7686 26.1344C19.6436 26.1344 19.5455 26.2238 19.4473 26.2327C19.349 26.2416 19.2865 26.1702 19.1525 26.1791C19.0186 26.188 18.6615 26.2953 18.5901 26.2774C18.5187 26.2595 18.5903 26.0899 18.5278 26.0542C18.4652 26.0184 18.0362 26.0988 18.3398 25.563C18.4827 25.2862 18.5097 25.1254 18.5722 25.0361C18.8758 24.6075 19.0989 24.5271 19.715 24.1432C19.715 24.1432 20.608 23.8039 20.7509 23.5271C20.9741 22.9646 20.2242 23.4288 19.742 23.4646C19.2598 23.5003 18.9384 23.1521 18.4384 23.5271C18.1258 23.7504 18.1973 23.3932 17.7866 23.5271L17.5184 23.6788C17.4113 23.6788 17.3936 23.4646 17.2686 23.4914C17.1436 23.5182 17.0363 23.7503 16.9202 23.7414C16.828 23.7467 16.7356 23.7467 16.6434 23.7414C16.4469 23.6968 16.3579 23.4377 16.2418 23.4377C16.1257 23.4377 16.0451 23.6878 15.9379 23.7235C15.8308 23.7593 15.6433 23.5718 15.5093 23.5718C15.3754 23.5718 15.0986 23.8665 15.045 23.5718C15.1277 23.3467 15.2549 23.1404 15.4191 22.9656C15.5832 22.7907 15.7813 22.6506 16.0007 22.5538C16.0811 22.5538 16.2148 22.3842 16.2684 22.411C16.322 22.4378 16.2684 22.6252 16.2684 22.5984C16.2684 22.5717 16.4915 22.3573 16.5719 22.3126C16.8542 22.2077 17.1125 22.0467 17.3309 21.8394C17.2059 21.7144 17.0541 21.7858 16.8666 21.8394C16.822 21.8394 16.8131 21.7413 16.7685 21.7681C16.7239 21.7949 16.5273 21.9913 16.4201 22.0181C16.313 22.0449 16.233 21.893 16.0901 21.9377C15.7686 22.027 15.2863 22.4109 15.0005 22.3126C14.9023 22.3126 14.9111 22.0985 14.8754 22.036L13.9201 20.1787L11.3037 23.2771C11.3037 23.2771 11.7233 23.536 11.9019 23.7146C12.0805 23.8932 12.6523 24.9827 12.2237 25.1612C11.9239 25.1517 11.6254 25.1187 11.3307 25.0629C11.0271 24.9647 11.1161 24.9111 10.9732 24.8308C10.8303 24.7504 10.9735 24.8307 10.8485 24.7861C10.3217 24.67 10.634 24.5628 10.3929 24.3485C10.3125 24.286 9.90183 24.1433 9.75896 24.0451C9.6161 23.9469 9.68742 23.9378 9.65171 23.9021C9.28561 23.6342 8.99996 23.2057 8.62493 22.9111C8.45528 22.786 8.17852 22.652 8.00887 22.5359H7.9644L6.65161 20.9554L16.983 19.4017C17.1346 19.4102 17.285 19.3696 17.4116 19.2857C17.4116 19.2857 17.5542 19.0714 17.5899 19.0625C17.8399 18.9732 17.9828 19.1339 18.2239 19.0625C18.465 18.9911 18.6616 18.6874 18.9206 18.5535C19.2153 18.1159 18.7687 18.4196 18.867 18.1517C18.9652 17.8838 19.0367 18.223 19.1796 18.0444C19.3224 17.8659 19.0009 17.9285 18.867 18.1517C18.5723 18.625 18.4827 18.1071 18.3756 18.1517C18.2684 18.1963 18.1882 18.3034 18.1079 18.2945C18.0842 18.2893 18.062 18.2784 18.0434 18.2629C18.0247 18.2473 18.0101 18.2277 18.0006 18.2053L13.9646 12.7227L6.3839 22.2414C6.3839 22.2414 6.33033 22.3037 6.3839 22.3395C6.43748 22.3752 6.70534 22.6789 6.81249 22.8664C6.91964 23.0539 6.76784 23.4377 7.03572 23.6163C7.09823 23.6163 7.39261 23.7504 7.4194 23.7861C7.44619 23.8218 7.30367 23.9022 7.33045 24.0183C7.35724 24.1344 7.70524 24.3755 7.74988 24.4915C7.79453 24.6076 7.50881 24.5808 7.54453 24.6433C7.58025 24.7058 7.69654 24.7951 7.75904 24.8754C7.82155 24.9558 7.75911 24.9825 7.83054 25.045C7.90198 25.1076 8.05357 25.1789 8.0625 25.1968C8.07142 25.2146 7.99999 25.2415 8.0625 25.2772C8.17341 25.4141 8.25544 25.5721 8.3036 25.7416C8.45272 26.0285 8.57807 26.3271 8.67856 26.6345C8.75892 27.0095 8.67861 27.34 8.28573 27.1793C7.86662 27.0596 7.51103 26.7807 7.2947 26.4023C7.22327 26.3041 7.29441 26.3488 7.21404 26.2506C7.13368 26.1524 7.21422 26.0897 6.94634 25.8843C6.65168 25.9468 7.00881 26.3756 7.13382 26.6702C7.20641 26.8197 7.26633 26.975 7.31258 27.1346C7.39294 27.4471 7.39292 27.6971 7.51793 28.0275C7.58728 28.1773 7.64397 28.3326 7.68754 28.4918C7.68754 28.599 7.51793 28.6079 7.51793 28.7061C7.51793 28.8043 7.66966 28.956 7.66966 28.9738C7.62502 29.1346 7.42848 29.1972 7.35705 29.3669C6.96204 29.1182 6.5862 28.8405 6.23218 28.5363C6.18657 28.6664 6.18657 28.8082 6.23218 28.9383C6.23218 29.0544 6.40181 29.2061 6.43753 29.3401C6.47325 29.474 6.33008 29.5274 6.35687 29.6525C6.38366 29.7775 6.53544 29.9652 6.56223 30.0634C6.60687 30.3223 6.56231 30.5365 6.65161 30.8133C6.7409 31.0901 6.89294 31.4742 6.90187 31.6081C6.9108 31.7421 6.66946 31.7776 6.65161 31.9116C6.63375 32.0455 6.97332 32.2957 6.69651 32.2957C6.36273 32.231 6.06222 32.0507 5.84806 31.7867C5.43732 31.3759 5.77661 30.9562 5.38372 30.5901C5.25872 30.5097 5.29434 30.5902 5.29434 30.7063C5.29434 30.8223 5.29434 30.8581 5.29434 30.9563C5.32646 31.1879 5.38328 31.4155 5.46395 31.6349C5.46395 31.7421 5.46395 31.7242 5.46395 31.8224C5.60682 32.1528 5.94614 33.394 5.70505 33.6083C5.46397 33.8226 5.63367 33.7063 5.31222 33.6796C5.16042 33.6796 5.03529 33.5635 4.96386 33.6796C4.77634 34.0189 5.25852 34.4207 5.41032 34.8046C5.41032 34.885 5.4106 35.1082 5.4731 35.2422C5.5624 35.519 5.70518 35.7065 5.38372 35.7333C5.32122 35.7333 5.07111 35.6797 5.07111 35.7333C5.07111 35.9923 5.44616 36.4924 5.75868 36.921C5.90155 37.1085 6.03544 37.2959 6.15152 37.4655C6.2676 37.6352 6.32122 37.7959 6.42838 37.9299C6.53553 38.0638 7.16052 38.4924 7.4909 38.8228C7.57127 38.8942 7.49101 38.9391 7.59816 39.0016C7.86864 39.2371 8.152 39.4577 8.44661 39.6623C8.34839 39.832 8.24987 39.5461 8.14272 39.7962C8.14272 39.8944 7.96417 39.8765 8.4017 40.0283C8.69637 40.0283 8.47329 39.8676 8.56258 39.814C9.00012 39.948 8.96438 40.1176 9.2144 40.2694C9.46442 40.4212 10.1073 40.5998 10.1073 40.6891C10.1073 40.7784 9.92864 40.689 10.2233 40.814L10.634 40.9481C10.9823 41.0909 11.3216 41.3319 11.7502 41.4926C11.8573 41.4926 12.0986 41.5642 12.17 41.5999C12.2415 41.6356 12.1165 41.6801 12.17 41.7069C12.2236 41.7337 12.6431 41.7696 12.4377 41.9125C12.2542 41.9399 12.0675 41.9399 11.884 41.9125C11.747 41.9482 11.6062 41.966 11.4646 41.9659C11.1694 41.8863 10.8889 41.7597 10.634 41.591C10.5626 41.591 10.4375 41.5462 10.3572 41.5016L9.80387 41.1892H10.3572C10.5357 41.0552 9.82145 41.1891 9.51786 41.073C9.69644 41.073 8.97307 40.8319 8.96414 40.814C8.95521 40.7961 8.84813 40.5373 8.58918 40.4748C8.08021 40.3498 8.58915 40.4748 8.3302 40.2605C8.24983 40.2069 8.08044 40.1534 7.92864 40.073C7.77685 39.9927 7.64284 39.8318 7.41068 39.6889C7.41068 39.6889 7.30341 39.5729 7.28555 39.564C6.8123 39.4033 7.28576 39.564 7.0536 39.314C7.0536 39.314 6.81247 39.2426 6.79461 39.2069C6.77676 39.1712 6.67832 38.9747 6.5801 38.8854C6.48188 38.7961 6.02663 38.5817 5.83019 38.4121C5.63374 38.2424 5.74984 38.18 5.62483 38.0461C5.49982 37.9121 5.34813 37.8406 5.28562 37.7424C5.22312 37.6442 5.28562 37.5996 5.28562 37.6264C5.28562 37.6532 5.08916 37.537 5.04452 37.4745C4.81236 37.1709 4.69631 36.778 4.41058 36.3673C4.2006 36.1313 4.00372 35.884 3.82111 35.6263C3.7586 35.5102 3.82111 35.3851 3.82111 35.2958C3.74075 35.0458 3.47285 34.6796 3.35677 34.3403C3.24069 34.001 3.35691 33.8851 3.27655 33.644C3.27655 33.5994 3.08884 33.4654 3.07991 33.4297C3.10597 33.2084 3.07515 32.9839 2.99053 32.7777C2.9191 32.6348 2.82977 32.1616 2.73155 31.8848C2.63333 31.608 2.66038 31.3313 2.55323 30.9474C2.44608 30.5634 2.31195 30.4205 2.35659 30.2777C2.40124 30.1348 2.82124 30.108 2.91946 30.0008C3.17841 29.7151 2.91936 28.8757 2.81221 28.3667C2.81221 28.2953 2.86578 28.2149 2.81221 28.1256C2.74849 27.9724 2.69779 27.814 2.66048 27.6523C2.61584 27.4737 2.57084 27.206 2.52619 26.9471C2.52619 26.831 2.57977 26.8042 2.52619 26.7149C2.47262 26.6256 2.24942 26.1703 2.33872 26.0631C2.42801 25.956 2.723 26.0631 2.90159 26.0631C3.29448 26.4381 3.13344 26.6255 3.69598 27.0631C3.59587 26.8822 3.50928 26.6943 3.43699 26.5006C3.39079 26.215 3.3193 25.9339 3.22292 25.6611C3.22292 25.6075 3.06225 25.4468 3.05332 25.42C3.04439 25.3932 3.16947 25.2594 3.12482 25.0987C3.08017 24.938 2.75872 24.7594 2.90159 24.7058L3.12482 24.8665C3.12482 24.8665 3.34803 24.8664 3.33017 24.8039C3.77676 25.1802 4.15161 25.6339 4.43717 26.1433C4.88363 26.3576 4.53539 25.8486 4.43717 25.6343C4.33895 25.42 4.23178 25.3575 4.19607 25.2415C4.16035 25.1254 4.2675 25.0986 4.19607 24.9825C4.12463 24.8664 4.06237 24.8486 3.99987 24.7771C3.93736 24.7057 3.77651 24.4201 3.65151 24.2683C3.5265 24.1165 3.1066 23.7146 3.19589 23.6788L3.49062 23.7414L3.75876 23.795C3.9552 23.8843 3.96392 23.9467 4.21394 24.1342C4.72291 24.5271 4.49983 24.3039 4.59806 24.5718C4.59806 24.5718 4.78534 24.7325 4.81213 24.7682C4.83892 24.8039 4.89242 24.9558 4.96386 25.054C5.11566 25.2861 5.40148 25.5809 5.4997 25.7862C5.59792 25.9916 5.49982 26.1254 5.62483 26.3308C5.74984 26.5362 5.8211 26.5631 5.89253 26.6792C5.96397 26.7952 5.8928 26.9202 6.16067 27.0363C6.42855 27.1523 6.21425 26.7684 6.16067 26.5809C6.12582 26.477 6.08394 26.3757 6.03554 26.2774L5.97319 26.1255C5.97319 26.1255 5.76761 25.9558 5.75868 25.938C5.74975 25.9201 5.88378 25.8756 5.84806 25.8041C5.81235 25.7327 5.63376 25.6345 5.62483 25.6166C5.6159 25.5988 5.62483 25.4916 5.62483 25.3845C5.62483 25.2773 5.52668 25.188 5.4731 25.0808C5.41953 24.9736 5.47312 24.8397 5.26775 24.5986C5.19632 24.5182 4.99063 24.3753 4.94598 24.3128C4.90134 24.2503 4.94607 24.0807 4.81213 23.9378C4.67819 23.795 4.49956 23.5986 4.31204 23.3843C4.31204 23.3397 4.09795 23.2056 4.08009 23.1877C4.06223 23.1698 4.17831 23.1878 4.08009 23.0807C3.98187 22.9735 3.47283 22.5894 3.56213 22.5001C3.65142 22.4108 4.00881 22.4378 4.01774 22.4378C4.42438 22.5773 4.80249 22.789 5.1339 23.0628C5.57171 23.4482 5.95344 23.893 6.26793 24.3843C6.34829 24.5004 6.49972 24.6255 6.56223 24.7237C6.62473 24.8219 6.63403 24.9558 6.71439 25.0629C6.79475 25.1701 7.53586 25.7325 7.36621 25.8575Z" fill="white" stroke="white" stroke-width="3.10104" stroke-linecap="round" stroke-linejoin="round"/>
<path fill-rule="evenodd" clip-rule="evenodd" d="M52.1819 61.2797C52.2858 61.2504 52.3787 61.1915 52.4496 61.1101C52.4049 61.1101 51.9496 61.1101 51.8871 61.1101C51.8246 61.1101 52.0122 61.0116 51.8871 60.9134C51.7621 60.8152 51.271 60.7884 50.9942 60.6991C50.7174 60.6098 50.9941 60.5742 50.8333 60.5117L50.6908 60.4404H50.4763C50.4048 60.4404 50.5388 60.3331 50.4763 60.2974C50.4137 60.2616 50.128 60.2439 50.0477 60.1993C49.9974 60.1908 49.9462 60.1908 49.8959 60.1993C49.8959 60.1993 50.0655 60.1545 50.0298 60.1278C49.9941 60.101 49.637 59.9759 49.4495 59.8777C49.262 59.7795 49.1814 59.6722 48.9939 59.5562C48.9007 59.5285 48.8051 59.5107 48.7083 59.5028C48.7083 59.4581 48.8781 59.3865 48.8334 59.3508C48.7888 59.3151 48.1902 59.1097 48.5116 58.9312C48.592 58.8865 49.1101 58.8241 49.1905 58.7705C49.2709 58.7169 49.1905 58.7169 49.1905 58.7169C49.8014 58.7014 50.4124 58.7223 51.0208 58.7794C51.2708 58.7794 51.4586 58.8865 51.7354 58.9312C51.7827 58.9233 51.8307 58.9233 51.878 58.9312L52.021 58.9759C52.1549 58.9759 52.4852 58.9759 52.5834 58.9759C52.6817 58.9759 52.6996 59.0829 52.8782 59.1186C53.0568 59.1544 53.2799 59.1187 53.4406 59.1723C53.6013 59.2258 53.4945 59.2349 53.5928 59.2527H53.8692C53.9138 59.2527 53.8692 59.3063 53.8692 59.3153C54.2 59.3772 54.5339 59.4218 54.8694 59.4491C55.1998 59.2973 54.7711 59.2348 54.5568 59.1544L53.5391 58.7616C53.4231 58.7616 53.28 58.6813 53.1014 58.6009C52.9228 58.5205 52.6994 58.467 52.5119 58.3777C52.5119 58.3777 52.3426 58.3776 52.3694 58.333C52.3961 58.2883 52.3694 58.3329 52.2176 58.2347C52.0658 58.1364 52.3959 58.0382 53.0299 57.9935C53.6639 57.9489 54.0033 58.2616 54.4587 58.1902C55.2355 58.0741 54.0925 57.8775 53.9943 57.8329C53.8961 57.7882 53.9049 57.6454 53.8334 57.6097C53.762 57.5739 53.6282 57.6097 53.5479 57.6097C53.1978 57.507 52.8549 57.3818 52.5211 57.2347C52.1224 57.0956 51.7596 56.87 51.4586 56.5739C51.6818 56.5114 52.1015 56.4936 52.423 56.4222C53.0313 56.3549 53.645 56.3549 54.2533 56.4222C54.3962 56.4222 54.405 56.3328 54.3693 56.2881C54.3336 56.2435 54.1283 56.2881 54.0837 56.2345C54.0391 56.1809 53.941 56.1006 53.7802 56.0381C53.6195 55.9756 53.5567 56.038 53.4942 55.9845C53.4317 55.9309 53.4139 55.9132 53.3425 55.8864C53.2711 55.8596 52.9856 55.8059 52.9052 55.7612C52.8248 55.7166 52.8512 55.6094 52.7352 55.5469C52.6191 55.4844 52.4316 55.422 52.2887 55.3684C52.1458 55.3148 51.8157 55.2434 51.8514 55.1899C51.8871 55.1363 52.1641 55.19 52.2534 55.0828C52.3427 54.9757 51.8693 55.1364 51.6818 55.0828C51.4943 55.0292 51.8869 54.7523 52.0476 54.6808C52.1786 54.6254 52.313 54.5778 52.4496 54.538C52.8514 54.422 53.5302 54.3951 53.9677 54.2701C54.1074 54.2198 54.2395 54.1508 54.3606 54.0648C54.4766 53.9933 54.8157 53.8415 54.5925 53.7611C54.3693 53.6807 54.3874 53.7612 54.4499 53.6898C54.5124 53.6184 54.0925 53.5112 53.9943 53.4576C53.8961 53.4041 53.9227 53.3506 53.8334 53.297H53.5479C53.5032 53.297 53.5479 53.2344 53.5479 53.2076C53.5479 53.1808 53.1818 52.9308 52.9318 52.7879H52.6462C52.5569 52.7879 52.6463 52.6628 52.4766 52.636C52.307 52.6092 52.4765 52.5378 52.3157 52.4485C52.2176 52.4412 52.1191 52.4412 52.021 52.4485C51.8156 52.3324 51.8601 52.1628 51.6726 51.9842C51.6726 51.9842 51.4317 51.9843 51.3871 51.9129C51.0745 51.7165 51.146 51.4397 52.1283 51.2611C52.4508 51.2132 52.7756 51.1833 53.1014 51.1717C53.4275 51.2243 53.7614 51.1966 54.0745 51.0913C54.4317 50.9037 54.298 50.6359 54.1195 50.4484C54.0748 50.4484 53.9051 50.4485 53.8247 50.3413C53.7444 50.2342 54.03 50.2966 53.9586 50.2877C53.5478 50.2877 53.5121 49.9752 53.3246 49.8413H53.1816C53.1816 49.8413 53.298 49.7788 53.3159 49.8413C53.1909 49.7788 52.9407 49.7789 52.8782 49.7253C52.8157 49.6717 52.8782 49.5556 52.8782 49.4842C52.771 49.2609 52.3603 49.109 52.6371 48.859C52.771 48.7339 53.1372 48.6626 53.0033 48.4929C53.0033 48.4929 52.7891 48.4928 52.8516 48.3946C52.9141 48.2964 53.3962 48.109 53.5034 48.0822C54.2892 47.859 55.9946 47.7875 55.2892 47.6C55.1999 47.6 54.9589 47.6 54.8606 47.6C54.7624 47.6 54.7891 47.493 54.6998 47.4751C54.5571 47.4643 54.4138 47.4643 54.2712 47.4751C54.1015 47.4215 54.1014 47.3054 53.9586 47.2519C53.8157 47.1983 53.6998 47.2519 53.673 47.2519C53.6462 47.2519 53.6728 47.1446 53.5121 47.0999C53.3514 47.0553 53.2977 47.0554 53.2174 47.0197C53.137 46.984 53.2174 46.9214 53.2174 46.9303C53.012 46.85 52.637 46.9304 52.7709 46.7875C52.9483 46.7315 53.131 46.6925 53.3159 46.6713C53.6463 46.466 53.057 46.7874 53.3159 46.6088C53.3784 46.5641 53.5302 46.5285 53.5749 46.4749C53.7617 46.4517 53.9505 46.4517 54.1373 46.4749C54.3159 46.4749 54.664 46.4034 54.8336 46.3945C55.1997 46.3945 55.3515 46.4749 55.5391 46.4392C56.6552 46.2249 55.5391 46.0731 55.3337 46.0195C55.0294 45.9075 54.7314 45.7794 54.4408 45.6356C54.2711 45.5642 53.9228 45.5106 53.6996 45.4124L53.5479 45.3409C53.3881 45.2659 53.2358 45.1762 53.0927 45.073C53.0358 45.0357 52.9819 44.994 52.9318 44.948C52.9318 44.948 52.6995 44.948 52.7888 44.948C53.1192 44.832 52.7891 44.8854 52.6283 44.8497C52.4676 44.814 52.6284 44.7337 52.4587 44.6533H52.1727C52.0924 44.5997 52.0835 44.5283 52.0031 44.4658C51.9228 44.4033 51.9137 44.3319 51.8422 44.2694C51.6101 44.0908 51.2978 43.9657 51.1996 43.7157C51.1996 43.7157 51.3602 43.6176 51.3156 43.5729C51.2709 43.5283 51.3155 43.1444 51.5209 43.0194C51.6792 42.9017 51.8576 42.8139 52.0476 42.7604C52.63 42.6025 53.23 42.5185 53.8334 42.5104C53.9267 42.5376 54.0227 42.5556 54.1195 42.564C54.298 42.564 54.6106 42.4836 54.807 42.4746C54.9497 42.4836 55.0929 42.4836 55.2356 42.4746C55.8071 42.3318 55.4944 42.1443 55.3158 42.0371C55.1372 41.93 55.1822 41.7691 54.7089 41.7245C54.575 41.7245 54.414 41.5103 54.2533 41.421C54.0926 41.3318 54.0479 41.3674 53.9586 41.3406C53.8693 41.3138 54.0032 41.2691 53.9586 41.2512C53.9139 41.2334 53.6908 41.2512 53.673 41.2512C53.6551 41.2512 53.7176 41.1173 53.673 41.0727C53.6283 41.028 53.405 41.0282 53.3783 40.9835C53.3515 40.9389 53.4942 40.8851 53.4942 40.8226C53.4942 40.7601 53.2173 40.6353 53.1816 40.5192C53.1459 40.4031 53.2712 40.278 53.2802 40.1708C53.2891 40.0637 53.0302 39.7423 53.3517 39.5816C53.4588 39.528 53.7085 39.5815 53.9049 39.4833C54.1236 39.4016 54.3518 39.3476 54.5838 39.3226C54.8159 39.3226 55.2982 39.3225 55.5661 39.2779C55.6519 39.2442 55.742 39.2234 55.8338 39.2155H57.3785C57.7541 39.24 58.1309 39.1882 58.486 39.0636C58.611 39.019 58.9589 38.9208 59.0214 38.8851C59.0839 38.8493 59.0215 38.6975 59.1286 38.6171C59.2358 38.5368 59.3789 38.4833 59.3968 38.4475C59.3946 38.4238 59.3946 38.3998 59.3968 38.376L55.1284 38.1886C55.2299 38.0383 55.3642 37.9132 55.5212 37.8225C55.7408 37.6523 55.9739 37.5 56.2179 37.3671L56.5035 37.242L56.8427 37.0724C57.1077 36.9365 57.3822 36.8202 57.6641 36.7243L58.0927 36.5812L58.6377 36.3759C58.6377 36.3759 58.6376 36.3761 58.5841 36.3225C58.5098 36.2648 58.4246 36.2221 58.3338 36.1974C58.169 36.1361 57.9986 36.0913 57.825 36.0635C57.6911 36.0635 57.8251 35.9741 57.6554 35.9026C57.4857 35.8312 57.1999 35.7597 57.0659 35.6794C56.932 35.599 57.0215 35.5187 56.8876 35.4472C56.7537 35.3758 56.7357 35.4472 56.7446 35.4472C56.7883 35.4219 56.8373 35.4068 56.8876 35.4027C56.7537 35.3402 56.5124 35.3491 56.4499 35.2955C56.3874 35.2419 56.1465 34.7688 56.2537 34.7152L56.5301 34.6615C56.5301 34.6615 56.7626 34.6169 56.6644 34.6615C56.8876 34.6615 57.0037 34.6615 57.093 34.6615C57.9055 34.5008 57.3876 34.09 57.0393 33.9293C56.6911 33.7686 56.7536 33.5007 56.575 33.2507C56.3964 33.0006 55.9676 32.84 56.1373 32.6972C56.3069 32.5543 57.0302 32.5007 57.1017 32.4292C57.1731 32.3578 56.8694 32.1167 56.8069 31.9291C56.8069 31.8845 56.9323 31.8221 56.9412 31.7774C56.9502 31.7328 56.7984 31.4113 56.9412 31.2595C57.0841 31.1077 57.5391 30.9827 57.6284 30.8398C57.7177 30.6969 57.6284 30.2952 57.6284 29.9916C57.6703 29.6954 57.6703 29.3948 57.6284 29.0986C57.6284 28.9647 57.3966 28.8397 57.3519 28.6879C57.2448 28.3754 57.5484 28.0361 57.3519 27.795C57.3519 27.7414 57.0751 27.679 57.0751 27.6165C57.0751 27.554 57.4323 27.3575 57.3519 27.1432C57.2716 26.9289 56.9411 26.4287 56.7982 26.0715C56.7982 25.9912 56.8429 25.9376 56.7982 25.8662C56.7536 25.7947 56.5482 25.6609 56.5214 25.5627C56.4946 25.4645 56.6912 25.4643 56.6644 25.4197C56.6376 25.3751 56.2983 25.134 56.2537 24.9911C56.209 24.8482 56.2537 24.8127 56.2537 24.7234C56.2537 24.6341 55.9679 24.3215 55.9768 24.1518C55.9768 24.1518 55.9768 24.0803 55.9768 24.0624H56.2537C56.2537 24.0624 56.0214 23.9732 55.9768 23.9107C55.9322 23.8482 55.9768 23.5446 55.9768 23.4374C55.9768 23.3303 55.8518 23.1785 55.9768 23.0446C56.1018 22.9107 56.6285 22.6697 57.6554 22.7054H58.0748C58.1552 22.7054 58.0752 22.7856 58.2091 22.7946C58.4681 22.8481 58.7893 22.8661 58.9054 22.9018C59.0215 22.9375 58.9053 23 59.0393 23.0446C59.1732 23.0892 59.2983 23.0446 59.3161 23.0446C59.334 23.0446 59.3161 23.0893 59.3161 23.1072C59.3161 23.125 59.691 23.1606 59.8785 23.2053C60.0661 23.2499 60.0215 23.2947 60.1554 23.3215C60.6287 23.4465 61.3344 23.6339 61.4058 23.4285C61.4058 23.4285 61.2271 23.3661 61.2628 23.3125C61.2986 23.2589 61.5573 23.1697 61.5484 23.1072C61.5395 23.0447 61.3341 22.9911 61.2716 22.9197C61.2091 22.8483 61.2716 22.7589 61.1377 22.6518C61.0038 22.5446 60.9679 22.5893 60.9947 22.4732C61.0215 22.3571 60.7895 22.3214 60.727 22.1964C60.6645 22.0714 60.6824 21.9375 60.5931 21.8125C60.5039 21.6875 60.2896 21.5355 60.1824 21.3837C60.0753 21.2319 60.0574 21.0445 59.9056 20.8749C59.7538 20.7052 59.6734 20.7765 59.6287 20.7229C59.5841 20.6693 59.6734 20.5801 59.6287 20.5086C59.5108 20.3708 59.3683 20.2559 59.2089 20.1694C59.0975 20.0901 59.006 19.9861 58.9412 19.8657C58.7804 19.6604 58.7805 19.3391 58.5304 19.1158C58.4679 19.0533 58.2893 19.0085 58.2536 18.9549C58.2179 18.9014 58.2536 18.8121 58.2536 18.7496C58.2536 18.6871 57.977 18.4818 57.9859 18.3836C57.9948 18.2853 58.4946 18.0442 58.1285 17.8745C57.9409 17.7763 58.0752 17.5443 58.0038 17.33C58.0038 17.2675 57.8697 17.2495 57.8607 17.2048C57.8518 17.1602 58.0305 17.062 58.0038 16.9995C57.977 16.937 57.7448 16.9192 57.7269 16.8746C57.709 16.8299 57.8873 16.7494 57.8695 16.6958C57.8516 16.6422 57.6196 16.3388 57.6018 16.1781C57.5839 16.0173 57.718 15.9547 57.7448 15.8208C57.7716 15.6868 57.593 15.3744 57.7448 15.2136C57.9586 15.0844 58.1947 14.9965 58.4411 14.9547C58.7 14.9547 59.4233 14.9547 59.5572 14.9547C59.7509 14.9167 59.9395 14.8568 60.1197 14.7761C60.4679 14.6422 60.6288 14.5886 60.5395 14.3297C60.5395 14.3297 60.4057 14.276 60.4057 14.2403C60.4057 14.2046 60.5393 14.1422 60.5482 14.1511C60.5572 14.16 60.2897 14.0706 60.2718 14.026C60.254 13.9813 60.3165 13.901 60.2718 13.8385C60.2272 13.776 60.0575 13.7403 59.995 13.6868C59.9325 13.6332 59.995 13.6063 59.995 13.5706C59.995 13.5349 59.7806 13.4635 59.7181 13.4099C59.6556 13.3563 59.718 13.1868 59.4412 13.0796C59.3507 13.0496 59.2582 13.0257 59.1644 13.0081C59.1019 13.0081 59.209 12.91 59.1644 12.8654C59.0771 12.8134 58.9842 12.7713 58.8875 12.7402C58.8339 12.7402 58.9411 12.6689 58.8875 12.6511C58.8339 12.6332 58.6196 12.6511 58.6107 12.6511C58.6017 12.6511 58.5485 12.4814 58.4681 12.401C58.3877 12.3207 57.5752 11.9812 58.0574 11.8294C58.5396 11.6776 58.1464 11.9277 58.4768 11.9188C58.6286 11.8563 58.477 11.8296 58.6198 11.776C58.7627 11.7224 59.1378 11.7223 59.1735 11.6598C59.2093 11.5973 58.9324 11.4991 58.8967 11.4455C58.861 11.392 58.9592 11.2313 58.8967 11.1063C58.8342 10.9813 58.6466 10.9456 58.6198 10.8652C58.5526 10.726 58.5178 10.5734 58.5178 10.4188C58.5178 10.2641 58.5526 10.1115 58.6198 9.97229C58.6198 9.91871 58.8252 9.90967 58.8967 9.85609C58.9681 9.80252 58.8964 9.68642 59.0393 9.61499C59.1821 9.54355 59.691 9.44529 59.8785 9.34707C60.2089 9.17741 60.093 8.93638 60.2984 8.73994C60.352 8.69529 60.5485 8.6418 60.5753 8.59715C60.6021 8.5525 60.5306 8.35592 60.5753 8.23091C60.6199 8.1059 60.9054 7.91857 60.9947 7.74892C61.084 7.57926 60.9948 7.42746 61.1377 7.29352C61.2806 7.15958 61.8254 7.08804 61.9683 6.96303C62.1112 6.83802 62.0662 6.54336 62.1109 6.29334C62.1109 6.29334 61.9502 6.29334 61.977 6.29334C62.2092 6.04332 61.977 5.65043 61.977 5.40041C61.977 5.34684 62.1379 5.33801 62.12 5.28444C62.0934 5.20322 62.0934 5.11561 62.12 5.03439C62.12 4.98082 61.9681 4.92709 61.977 4.88245C62.0219 4.75534 62.0219 4.61672 61.977 4.48961C61.977 4.43604 62.1289 4.40039 62.12 4.33789C62.0594 4.25294 62.0111 4.15966 61.977 4.06103C61.977 4.06103 61.7539 4.06103 61.8432 4.06103C62.2896 3.98066 61.3254 3.81109 61.2807 3.69501C61.2361 3.57893 61.5573 3.5253 61.7001 3.41815C62.0573 3.14134 62.0396 2.72168 62.12 2.31987C62.12 2.24844 61.87 2.09661 62.3969 2.06982C62.2629 2.36449 62.5129 2.65915 62.5307 2.96275C62.5307 2.96275 62.379 3.06984 62.3969 3.12341C62.4147 3.17699 62.6291 3.23945 62.6737 3.30195C62.7184 3.36446 62.5216 3.3914 62.5394 3.4539C62.5573 3.5164 62.6737 3.52524 62.6737 3.57881C62.6737 3.63239 62.5216 3.70378 62.5394 3.75735C62.5394 3.99844 62.9238 4.2485 62.9506 4.4628C62.9506 4.4628 63.0042 4.56114 62.9506 4.58793C62.897 4.61472 62.6916 4.58777 62.6737 4.65028C62.6559 4.71278 62.9327 4.65033 62.9506 4.70391C62.9684 4.75748 62.8074 4.75754 62.8163 4.76647C62.986 5.05221 62.8166 5.40034 62.9506 5.77537C63.0042 5.88252 63.2181 5.98082 63.227 6.07904C63.227 6.37371 62.8256 6.64168 62.9506 6.84705C62.9506 6.8917 63.2627 7.0167 63.227 7.06135H62.9506C62.7988 7.13278 62.9503 7.17738 62.6646 7.23989C62.3788 7.30239 62.1555 7.32915 62.1109 7.42737C62.0662 7.52559 62.1109 7.59707 62.1109 7.69529C62.1109 7.79351 61.8789 7.83815 61.8253 7.90958C61.7717 7.98102 61.8967 8.29345 61.8253 8.4899C61.7538 8.68634 61.5931 8.62382 61.5484 8.69525C61.5038 8.76668 61.602 8.93648 61.5484 9.06149C61.4948 9.1865 61.3073 9.18645 61.2716 9.24003C61.2358 9.29361 61.4235 9.44545 60.986 9.51689H60.7091C60.6377 9.51689 60.8163 9.6329 60.7091 9.66862C60.602 9.70433 60.3522 9.66862 60.2897 9.66862C60.2272 9.66862 59.9234 9.81144 59.8698 9.84716C59.8163 9.88287 59.9145 9.97215 59.8698 10.0525C59.8252 10.1329 59.5396 10.2402 59.5842 10.4188C59.5842 10.4188 59.7625 10.4186 59.7268 10.4811C59.6911 10.5436 59.5396 10.7044 59.5842 10.8116C59.6289 10.9187 59.816 10.9366 59.8607 10.9991C59.9053 11.0616 59.8607 11.1867 59.8607 11.3027C59.9857 11.6063 60.7539 11.8117 60.1288 11.9992C60.0127 11.9992 60.1287 11.9991 59.9858 12.0527C59.8429 12.1062 59.825 12.0527 59.7089 12.0527C59.5929 12.0527 59.4592 12.1687 59.5664 12.2669C59.6735 12.3652 59.7357 12.267 59.7089 12.3295C59.6822 12.392 59.5217 12.3295 59.5664 12.3295C59.611 12.3295 59.9233 12.4545 59.9858 12.517C60.0483 12.5795 59.9857 12.7761 60.1197 12.8832C60.2536 12.9904 60.4857 12.9903 60.5304 13.035C60.575 13.0796 60.5752 13.2225 60.6734 13.3118C60.8024 13.4153 60.9397 13.5077 61.0841 13.5885C61.1466 13.6331 61.1465 13.6868 61.2179 13.7404C61.2894 13.794 61.4769 13.8385 61.4948 13.8653C61.5127 13.8921 61.4323 14.0976 61.4948 14.2047C61.0662 14.2047 61.2271 14.1154 60.7985 14.1332C60.8699 14.2672 61.5752 14.1869 61.7717 14.2316C61.7091 14.4191 61.7719 14.6243 61.6291 14.7761C61.4862 14.9279 61.3344 14.9101 60.9236 15.0083C60.5589 15.1055 60.1846 15.1623 59.8075 15.1779L59.1108 15.2226C58.959 15.2226 59.1106 15.3744 58.9677 15.4905C58.8249 15.6066 58.7092 15.6065 58.6913 15.6422C58.5931 15.8476 58.8787 16.1155 58.959 16.3655C59.0394 16.6156 58.9055 16.6244 58.959 16.7316C59.0126 16.8387 59.2359 16.8923 59.2359 16.9459C59.2359 16.9994 58.986 17.0798 58.9503 17.1512C58.9146 17.2226 58.9502 17.3567 59.0842 17.4549C59.2181 17.5531 59.3521 17.5086 59.361 17.5532C59.3699 17.5979 59.0574 17.6782 59.0842 17.7228C59.1109 17.7675 59.566 17.9549 59.6374 18.062C59.816 18.3567 59.0481 18.7764 59.6374 19.0533C59.7982 19.1336 59.4591 19.5175 59.9056 19.6336C60.1735 19.6961 60.0932 19.6337 60.0486 19.7855C60.0039 19.9373 60.2003 20.0265 60.4593 20.1515C60.7182 20.2765 60.3609 20.205 60.3163 20.2943C60.3968 20.3898 60.49 20.474 60.5931 20.5444C60.6557 20.589 60.8343 20.6249 60.87 20.6695C60.9057 20.7141 60.7896 20.8568 60.87 20.9372C60.9504 21.0176 61.2269 21.0979 61.2894 21.1783C61.3519 21.2587 61.1201 21.2678 61.1469 21.3571C61.1737 21.4464 61.3519 21.4105 61.4233 21.482C61.4947 21.5534 61.3697 21.6159 61.4233 21.6605C61.5069 21.7206 61.5969 21.7717 61.6914 21.8125C62.0218 21.9732 62.0308 22.223 62.2451 22.5088C62.2898 22.5623 62.4506 22.5893 62.522 22.6607C62.5934 22.7321 62.5666 22.9643 62.6559 23.134C62.7451 23.3036 62.8344 23.3303 62.7897 23.4642C62.7799 23.5023 62.7799 23.5424 62.7897 23.5804C62.7451 23.5804 62.5488 23.5803 62.5041 23.6428C62.4595 23.7053 62.4504 23.7233 62.0843 23.7858L61.8074 23.8392C61.2503 23.8625 60.692 23.8447 60.1375 23.7858C60.0572 23.7858 60.2 23.6875 60.1375 23.6696C60.075 23.6517 59.6288 23.6161 59.4412 23.5715C59.2537 23.5269 59.3788 23.5 59.3074 23.4821L59.0305 23.4196C58.7091 23.3213 58.4948 23.2233 58.1912 23.1429C57.8876 23.0626 57.5215 22.9822 57.2268 22.9197C56.9054 23.0179 57.1644 23.1518 57.0751 23.2768C56.9858 23.4018 56.8072 23.3928 56.7982 23.4464C56.7893 23.4999 57.0304 23.5892 57.0751 23.6607C57.1197 23.7321 56.9231 23.9198 56.9321 24.0537C56.9466 24.1903 56.9923 24.3216 57.0659 24.4376C57.0659 24.518 57.3249 24.5894 57.3428 24.6519C57.3606 24.7144 57.1551 24.7679 57.1998 24.8304C57.2372 24.8898 57.2858 24.9412 57.3428 24.9822C57.3964 24.9822 57.5929 25.0537 57.6196 25.0984C57.6464 25.143 57.4588 25.2591 57.4766 25.3395C57.4945 25.4198 57.691 25.4466 57.7535 25.518C57.816 25.5894 57.5838 25.8842 57.8873 26.027C57.9588 26.027 58.1285 26.0269 58.1642 26.1162C58.1999 26.2055 58.1196 26.3038 58.1642 26.4109C58.2089 26.5181 58.3786 26.518 58.4411 26.5895C58.5036 26.6609 58.2981 26.6431 58.2981 26.6789C58.2981 26.7146 58.566 26.8038 58.5749 26.8574C58.5838 26.911 58.4143 26.9111 58.4411 26.9468C58.4679 26.9825 58.7001 27.0449 58.7179 27.0896C58.7358 27.1342 58.5749 27.1788 58.5749 27.2413C58.5749 27.3038 58.7179 27.3486 58.7179 27.3843C58.7179 27.42 58.5749 27.5806 58.5749 27.6788C58.5749 27.777 58.7358 27.7949 58.7179 27.8574C58.7001 27.9199 58.5749 27.9736 58.5749 28.0361C58.5749 28.0986 58.9144 28.4647 58.7179 28.6522C58.7179 28.6522 58.5749 28.7771 58.5749 28.7682C58.5749 28.7592 58.7984 28.8576 58.8609 28.9112C58.9234 28.9647 58.8609 29.1969 58.8609 29.3487C58.8609 29.5005 58.9946 29.6433 59.0035 29.7773C59.0124 29.9112 58.8786 30.2951 58.8696 30.5629C58.8607 30.8308 59.1375 30.9202 58.8696 31.0988C58.6018 31.2774 58.2537 31.2596 58.1734 31.3756C58.093 31.4917 58.4324 31.7684 58.4681 31.8755C58.5038 31.9827 58.4681 32.0542 58.4681 32.1613C58.4681 32.2685 58.8163 32.5363 58.6198 32.5988C58.4234 32.6613 57.4857 32.6972 57.3785 32.7329C57.2714 32.7686 57.3787 33.1971 57.5394 33.2328C57.7001 33.2685 57.5393 33.3489 57.6911 33.4471C57.8429 33.5453 57.9412 33.5097 57.968 33.5454C57.9948 33.5811 57.968 33.8043 58.1376 33.9114C58.3073 34.0186 58.4769 34.0366 58.5662 34.0991C58.6555 34.1616 58.5662 34.1883 58.5662 34.224C58.5662 34.2597 58.8428 34.3222 58.8518 34.3579C58.8463 34.3954 58.8334 34.4316 58.8134 34.4638C58.7934 34.4961 58.767 34.5239 58.7358 34.5456C58.7358 34.5456 58.1197 34.7241 58.0482 34.7331C57.7701 34.7431 57.4926 34.7698 57.2177 34.8133C57.0926 34.8579 57.0124 34.974 57.1017 35.0812C57.191 35.1883 57.4231 35.0813 57.5303 35.1616C57.6374 35.242 57.4678 35.2687 57.5303 35.3402C57.5928 35.4116 57.7804 35.3938 57.825 35.4296C57.8696 35.4653 57.8252 35.608 58.0038 35.6883C58.0038 35.6883 58.2717 35.6883 58.2806 35.6883C58.2895 35.6883 58.2806 35.7688 58.2806 35.7956C58.2806 35.8224 58.5215 35.7956 58.5662 35.8492C58.7805 35.9385 58.816 36.0814 59.0393 36.0993C59.1373 36.0917 59.2359 36.0917 59.334 36.0993C59.334 36.0993 59.1821 36.1884 59.2089 36.1795L59.3519 36.1348H59.4055L59.1557 36.2063C58.8342 36.3134 58.5127 36.4207 58.1912 36.5457C57.8698 36.6707 57.6732 36.7063 57.3964 36.8224C57.1196 36.9384 56.9144 37.0278 56.6644 37.1528C56.5302 37.2324 56.3896 37.301 56.2445 37.3582C56.0005 37.4671 55.7725 37.6082 55.5661 37.7778C55.4667 37.8371 55.371 37.9027 55.2801 37.9743C55.198 38.0445 55.1261 38.1256 55.066 38.2154L60.0216 38.3316C59.9591 38.403 59.8875 38.4655 59.8785 38.528C59.8696 38.5905 60.0573 38.6082 60.0394 38.6529C60.0216 38.6975 59.8519 38.7779 59.7804 38.8493C59.709 38.9207 59.6017 39.0546 59.6553 39.0368C59.0731 39.21 58.4747 39.3238 57.8695 39.3762C57.5423 39.3948 57.2147 39.3948 56.8876 39.3762H56.3339C55.8964 39.3762 55.8338 39.3761 54.9409 39.4654C54.3515 39.5279 54.3427 39.4655 54.1195 39.6263C53.8962 39.787 54.2712 39.6262 54.2712 39.7869C54.2712 39.9476 54.1371 39.9566 54.1639 40.0459C54.1907 40.1352 54.3427 40.1709 54.3248 40.2334C54.3069 40.2959 54.048 40.3762 54.0658 40.4209C54.1895 40.553 54.3468 40.6488 54.521 40.6977C54.5779 40.7047 54.6315 40.7298 54.6732 40.7692C54.7357 40.8407 54.53 40.921 54.5568 40.9925C54.5835 41.0639 54.7535 41.0906 54.8606 41.1352C54.9533 41.1936 55.0522 41.2414 55.1554 41.278C55.2625 41.278 55.6283 41.2781 55.7265 41.3317C56.0212 41.4745 55.6461 41.6442 56.0657 41.7603C56.1461 41.7603 56.0659 41.8228 56.2088 41.8318H56.4948C56.5841 41.8318 56.325 41.912 56.3696 41.9388C56.4143 41.9656 56.6197 41.9388 56.6465 41.9388C56.8697 42.2067 56.5751 42.5728 54.9322 42.6889H54.5123H54.0924C53.9853 42.6889 53.8426 42.5906 53.6551 42.5995L53.1106 42.7068C52.925 42.703 52.7394 42.718 52.5568 42.7515C52.3693 42.8051 52.5567 42.805 52.4317 42.8585L52.1548 42.93C52.0882 43.056 52.0603 43.1989 52.0746 43.3407C52.0746 43.4032 52.2353 43.4658 52.2442 43.564C52.2368 43.6425 52.2514 43.7218 52.2861 43.7927C52.3207 43.8636 52.3743 43.9233 52.4409 43.9657C52.4944 43.9657 52.5299 44.0641 52.6013 44.0998C52.7012 44.1202 52.7997 44.1469 52.896 44.18C53.1907 44.3943 53.2175 44.6355 53.3961 44.7159C53.5747 44.7962 54.0212 44.7962 54.1195 44.8497C54.2177 44.9033 54.0659 44.9481 54.1195 45.0285C54.173 45.1089 54.4053 45.0283 54.4142 45.0819C54.4231 45.1355 54.2355 45.1624 54.2891 45.1892C54.3426 45.2159 54.5212 45.1892 54.7176 45.1892C54.9141 45.1892 54.7178 45.2873 54.8785 45.3141C55.0393 45.3409 55.1553 45.3588 55.3071 45.3766C55.4589 45.3945 55.6821 45.3766 55.7357 45.3766C55.7893 45.3766 55.7357 45.4658 55.7357 45.4926H56.0126C56.1018 45.4926 56.075 45.6088 56.1822 45.6446C56.4322 45.7338 56.8519 45.7695 57.0751 45.8499C57.2983 45.9303 57.6194 46.0552 57.4051 46.1623C57.1908 46.2695 57.057 46.216 56.8606 46.2785C56.6641 46.341 56.7893 46.3411 56.5929 46.3768C55.8071 46.5286 54.8961 46.5375 54.3693 46.6C54.3693 46.734 54.914 46.7518 55.1105 46.8143C55.3069 46.8768 55.2713 46.9661 55.4231 47.0108C55.7181 47.0737 56.0161 47.1213 56.316 47.1535C56.4142 47.1535 56.3874 47.2072 56.4677 47.225H56.7533C56.8247 47.225 56.8162 47.2874 56.9055 47.2963C57.0597 47.2902 57.2119 47.3308 57.3428 47.4125C57.5482 47.5197 57.5662 47.5108 57.093 47.6358C56.6197 47.7608 54.9408 47.9572 54.6283 48.1001C54.3157 48.243 54.8782 48.243 54.9496 48.3591C55.021 48.4752 54.7713 48.4214 54.8249 48.4393C54.8785 48.4572 55.0481 48.4394 54.8249 48.5555C54.6017 48.6716 54.3516 48.6359 53.8783 48.7966C53.9676 48.9573 53.8784 49.1359 53.9498 49.2699C54.0213 49.4038 54.1821 49.2697 54.2446 49.3412C54.3071 49.4126 54.3247 49.5287 54.4229 49.618C54.5211 49.7073 54.9497 49.9394 55.0747 50.1894C55.0747 50.1894 55.2713 50.1894 55.2177 50.1894C55.1642 50.1894 55.0571 50.1895 55.0839 50.243C55.1107 50.2966 55.3161 50.2431 55.3786 50.3145C55.4411 50.386 55.7624 50.7698 55.6106 50.8948C55.4588 51.0199 55.3875 50.9664 55.3429 50.9932C54.5896 51.2406 53.8045 51.3789 53.012 51.4039C52.5566 51.4039 52.3691 51.4485 52.3423 51.6182C52.3423 51.6182 52.5121 51.6182 52.4853 51.6897C52.4703 51.7022 52.4583 51.7179 52.45 51.7357C52.4417 51.7534 52.4374 51.7728 52.4374 51.7923C52.4374 51.8119 52.4417 51.8313 52.45 51.849C52.4583 51.8668 52.4703 51.8825 52.4853 51.895C52.6282 51.9843 52.9141 52.0021 52.9231 52.0378C53.0034 52.2164 52.4588 52.2075 52.9231 52.27C53.3874 52.3325 53.3692 52.6004 53.6996 52.7611C53.8782 52.8504 54.1194 52.9308 54.3069 53.038C54.4944 53.1451 54.3785 53.154 54.4678 53.1897C54.5571 53.2254 54.8069 53.1897 54.8872 53.1897C54.9676 53.1897 54.941 53.2968 55.0481 53.3504C55.1553 53.404 55.441 53.4933 55.5125 53.6451C55.5839 53.7969 55.3873 53.7701 55.3873 53.8147C55.3873 53.8594 55.6464 54.0469 55.0303 54.2522L54.7621 54.3238C54.6103 54.422 54.6372 54.3237 54.2176 54.4844L53.9498 54.5827C53.5336 54.636 53.1214 54.7196 52.7173 54.8328C52.5387 54.9489 53.2889 55.2345 53.4942 55.3595C53.6996 55.4845 53.5835 55.547 53.9407 55.5916C54.2979 55.6363 54.0392 55.663 54.2446 55.7612C54.3408 55.7736 54.436 55.7916 54.5302 55.8149C54.6105 55.8149 54.789 55.8149 54.8157 55.8685C54.8425 55.9221 54.7622 55.9845 54.8157 56.0202C54.8693 56.0559 55.039 56.0203 55.1105 56.0738C55.1819 56.1274 55.1729 56.1364 55.2622 56.1722C55.3515 56.2079 55.6732 56.2703 55.6999 56.2971C55.7267 56.3239 55.557 56.3686 55.5748 56.4043C55.5927 56.4401 55.9232 56.5294 55.325 56.6454L54.7713 56.7704C54.3058 56.8283 53.835 56.8283 53.3695 56.7704C52.9956 56.7024 52.615 56.6784 52.2355 56.6989C51.673 56.8506 52.5031 56.8865 52.8424 57.0115C53.1817 57.1365 53.1192 57.3686 53.7353 57.3775C54.1104 57.3775 53.7889 57.5025 54.1818 57.565H54.4678C54.5303 57.565 54.3875 57.6812 54.4678 57.708C54.5482 57.7348 54.825 57.708 54.8964 57.708L55.0481 57.8061C55.1374 57.8864 55.0035 58.0025 55.0481 58.0472C55.0928 58.0918 55.3695 58.0472 55.4588 58.0472C55.5481 58.0472 55.5391 58.19 55.6284 58.2347C55.7177 58.2793 56.1196 58.2348 55.9232 58.3866C55.4692 58.5077 54.9958 58.5379 54.5302 58.4758C54.4587 58.4758 54.2624 58.4758 54.2446 58.4758C54.2267 58.4758 54.4409 58.4134 54.3784 58.4045C54.3159 58.3955 54.0479 58.4045 53.9586 58.4045C53.6785 58.3563 53.3944 58.3383 53.1106 58.3508C53.1106 58.4312 53.2531 58.449 53.4049 58.4936C53.5566 58.5383 53.4049 58.5473 53.4049 58.5473C53.4049 58.5473 53.7354 58.5473 53.8247 58.5473C53.914 58.5473 53.8249 58.6543 53.9856 58.6811C54.2624 58.7436 54.8782 58.7438 54.9853 58.8688C55.0925 58.9938 54.7981 59.0116 54.8606 59.0295C54.9232 59.0473 55.3339 59.0293 55.5661 59.1097C55.7983 59.1901 56.664 59.5116 56.3247 59.6902C56.3247 59.6902 55.6821 59.842 55.4946 59.8598C55.3556 59.8825 55.2137 59.8825 55.0747 59.8598C54.8783 59.8598 55.0748 59.8598 54.9409 59.8598C54.414 59.9402 54.6461 59.8064 54.3693 59.7707C54.2711 59.7707 53.8337 59.7707 53.673 59.7707C53.6237 59.7517 53.573 59.7367 53.5213 59.726C53.0927 59.6724 52.6909 59.5206 52.2355 59.4402C52.0391 59.4402 51.7265 59.3955 51.5301 59.3687C51.3948 59.3089 51.2493 59.2757 51.1015 59.2706C51.0568 59.2706 50.8514 59.2706 50.8246 59.2706C50.5925 59.2706 50.619 59.1188 50.3869 59.092C50.1547 59.0653 49.8155 59.092 49.5476 59.092C49.0297 59.1635 49.5478 59.1902 49.2799 59.2616C49.012 59.3331 49.226 59.1812 48.9939 59.208C48.7617 59.2348 48.9941 59.2974 49.2799 59.2616C49.8335 59.1634 49.5032 59.3955 49.5746 59.4223C49.646 59.4491 49.8155 59.4223 49.8602 59.4223C49.9048 59.4223 49.8602 59.5294 49.8602 59.5651C49.8602 59.6008 50.2708 59.699 50.4405 59.7883C50.6102 59.8776 50.5657 60.1635 50.8961 60.1993C50.9765 60.1993 51.2798 60.1993 51.3156 60.1993C51.3513 60.1993 51.262 60.3064 51.3156 60.3689C51.3691 60.4314 51.8068 60.467 51.8871 60.5206C51.9675 60.5742 51.7084 60.6455 51.762 60.6723C51.8156 60.6991 51.9583 60.6724 52.0476 60.7349C52.1369 60.7974 52.1194 60.7885 52.1998 60.8064H52.4766C52.4766 60.8064 52.4766 60.8064 52.4766 60.86C52.627 60.8952 52.7714 60.9523 52.9052 61.0296C53.0838 61.1189 54.548 61.5744 53.6551 61.7529C53.2442 61.8515 52.816 61.8515 52.4051 61.7529C52.289 61.7529 52.405 61.7529 52.2621 61.6993C52.1192 61.6457 52.1728 61.6189 51.8335 61.6189C51.6192 61.7707 52.1549 61.8601 52.4138 61.9494C52.5388 61.9494 52.7353 62.0386 52.8424 62.0921C53.0805 62.2124 53.3252 62.3198 53.5749 62.4137C53.691 62.4137 53.9231 62.494 54.0035 62.5297C54.0838 62.5654 53.941 62.637 54.0035 62.6727C54.066 62.7084 54.271 62.6725 54.2799 62.7171C54.2888 62.7618 54.2353 62.8868 54.2799 62.9761C53.8067 62.9761 53.4856 63.0745 52.8873 63.0923C52.9707 63.1571 53.0687 63.2 53.1729 63.2172C53.2801 63.2172 53.4854 63.2173 53.6015 63.2798C53.7176 63.3423 53.6463 63.3779 53.7445 63.4137C53.8427 63.4494 54.0836 63.4137 54.1639 63.4762C54.2443 63.5387 54.5034 63.6101 54.7355 63.6816C54.9677 63.753 55.3517 63.8065 55.441 63.8422C55.5303 63.878 55.3874 63.9761 55.441 64.0208C55.4945 64.0654 55.9408 64.0209 55.7265 64.128C55.4132 64.2166 55.0873 64.2529 54.7621 64.2353C54.1817 64.2353 54.1638 64.0119 53.6281 64.0297C53.4763 64.0297 53.5834 64.0298 53.6281 64.0833L53.7711 64.1638C53.9548 64.2252 54.1427 64.2729 54.3335 64.3066C54.4317 64.3066 54.3783 64.3066 54.4765 64.3602C54.8158 64.4138 55.825 64.6906 55.7536 64.8335C55.6821 64.9764 55.7535 64.887 55.4767 64.9584C55.3517 64.9584 55.1909 64.9585 55.1999 65.0567C55.2088 65.1549 55.8516 65.2175 56.1909 65.3157C56.2534 65.3157 56.3695 65.4228 56.4677 65.4585C56.566 65.4942 56.8963 65.5745 56.6195 65.6638C56.5659 65.6638 56.3158 65.7085 56.3426 65.7264C56.7069 65.8701 57.0837 65.9806 57.4679 66.0567L58.0304 66.2176C58.1911 66.2801 58.2984 66.3515 58.4502 66.3961C58.7627 66.4765 59.3428 66.5569 59.7089 66.673C59.8072 66.673 59.7091 66.7443 59.852 66.7621C60.1288 66.8246 60.4411 66.9676 60.8251 67.0569C60.7626 67.1908 60.6286 67.0568 60.5482 67.1907C60.4679 67.3246 60.3878 67.2533 60.8343 67.3158C61.1289 67.3158 60.8967 67.1996 60.9681 67.155C61.4235 67.155 61.4054 67.3157 61.6644 67.3961C61.9983 67.4513 62.327 67.535 62.6467 67.6461C62.6467 67.7265 62.468 67.6462 62.7805 67.7355L63.2004 67.8336C63.5487 67.9229 63.888 68.1195 64.3166 68.2535C64.4326 68.2535 64.6739 68.3158 64.7364 68.3516C64.7989 68.3873 64.6829 68.4231 64.7364 68.4499C64.79 68.4767 65.2185 68.5213 65.022 68.6463C64.8354 68.672 64.6462 68.672 64.4596 68.6463C64.3229 68.6584 64.1855 68.6584 64.0489 68.6463C63.7586 68.5648 63.477 68.454 63.2091 68.3158C63.1377 68.3158 63.0128 68.316 62.9236 68.2535L62.3698 68.0302H62.9236C63.1021 67.9231 62.3876 68.0302 62.093 67.9677C62.2626 67.9677 61.5484 67.8159 61.5305 67.807C61.4189 67.6901 61.2712 67.6144 61.1111 67.5925C60.5932 67.5389 61.1111 67.5926 60.8343 67.4676C60.7539 67.4676 60.5751 67.4139 60.4144 67.3782C60.2537 67.3425 60.102 67.2621 59.852 67.1996C59.8091 67.1751 59.7644 67.1544 59.7181 67.1373C59.227 67.0927 59.7178 67.1372 59.4321 67.0211C59.4321 67.0211 59.1825 67.0211 59.1557 67.0211C59.0664 66.9652 58.9739 66.9146 58.8788 66.8694C58.6913 66.8158 58.2717 66.7889 58.0395 66.7353C57.8073 66.6817 57.9144 66.6372 57.7627 66.5836C57.6109 66.53 57.441 66.5835 57.3428 66.5031C57.2446 66.4228 57.3428 66.4408 57.3428 66.4497C57.3428 66.4587 57.1286 66.4497 57.0572 66.4497C56.7358 66.3604 56.4856 66.2175 56.0749 66.1192C55.8338 66.0567 55.4588 66.0211 55.2356 65.9586C55.0124 65.8961 55.1553 65.8781 55.0839 65.8513C55.0124 65.8245 54.5035 65.7174 54.2446 65.646C53.9856 65.5745 54.0033 65.5121 53.8247 65.4585H53.5391C53.4117 65.3768 53.2687 65.3221 53.1193 65.2978L52.4138 65.1282C52.1995 65.0836 52.0298 65.003 51.7084 64.9316C51.5206 64.9104 51.3351 64.8716 51.1547 64.8156C51.0922 64.771 51.4139 64.6638 51.4228 64.6103C51.4317 64.5567 50.6904 64.3246 50.2796 64.2174C50.226 64.2174 50.2174 64.1548 50.137 64.137L49.7172 64.0565L49.1456 63.8869C49.0563 63.8869 49.0923 63.8422 49.003 63.8154C48.9137 63.7886 48.4404 63.7262 48.4314 63.6637C48.4225 63.6012 48.7261 63.5208 48.8421 63.4405C49.2601 63.488 49.6807 63.509 50.1013 63.503C49.9119 63.4778 49.7242 63.442 49.5389 63.3958C49.3692 63.3958 49.0832 63.1993 48.8243 63.1457H48.5474C48.467 63.1457 48.5477 63.0118 48.387 62.9583C48.2262 62.9047 47.8867 62.9584 47.9671 62.8512H48.2439C48.2439 62.8512 48.4048 62.7261 48.3691 62.7082C48.9393 62.7156 49.5074 62.7785 50.0655 62.8959C50.5388 62.8066 49.9585 62.7173 49.7621 62.6369C49.5656 62.5566 49.4317 62.5743 49.3335 62.5297C49.2353 62.485 49.3331 62.4137 49.1813 62.369C49.0892 62.3635 48.9971 62.3635 48.9049 62.369C48.7082 62.3205 48.5141 62.2609 48.3242 62.1905C48.0474 62.119 47.5654 62.0565 47.61 61.9762L48.1546 61.7708C48.3416 61.7511 48.53 61.7511 48.717 61.7708C49.3599 61.7708 49.0477 61.7707 49.2799 61.8868C49.2799 61.8868 49.5297 61.8868 49.5655 61.8868C49.6012 61.8868 49.7439 61.9762 49.851 62.003C50.11 62.0833 50.5029 62.128 50.744 62.1905C50.985 62.253 50.9674 62.3601 51.1817 62.4137L51.6011 62.4671C51.734 62.5325 51.8853 62.5514 52.0302 62.5207C52.298 62.4225 51.914 62.3779 51.7354 62.3154L51.4494 62.2262L51.3068 62.1815H51.0208C50.9494 62.1815 51.0833 62.0921 51.0208 62.0653C50.9583 62.0385 50.7529 62.0653 50.744 62.0653C50.735 62.0653 50.6905 61.9761 50.5922 61.9315L50.3067 61.8153C50.137 61.7349 50.1546 61.6635 49.8689 61.601C49.7618 61.601 49.5118 61.6012 49.4403 61.5476C49.3689 61.494 49.3152 61.3869 49.1456 61.3244C48.9759 61.2618 48.6904 61.1994 48.4314 61.1101C48.3778 61.1101 48.1637 61.11 48.1458 61.0475C48.128 60.985 48.2262 60.976 48.1458 60.9402C48.0655 60.9045 47.3866 60.7618 47.4134 60.6457C47.5371 60.5519 47.6723 60.4739 47.8154 60.4136C48.241 60.3885 48.6679 60.4245 49.0832 60.5206C49.6252 60.646 50.1568 60.8132 50.6729 61.0207C50.7979 61.0653 50.9943 61.092 51.1015 61.1277C51.2086 61.1634 51.271 61.2439 51.3871 61.2707C51.5031 61.2975 52.2622 61.1279 52.1819 61.2797Z" fill="white" stroke="white" stroke-width="3.10104" stroke-linecap="round" stroke-linejoin="round"/>
</svg>
