<svg width="63" height="85" viewBox="0 0 63 85" fill="none" xmlns="http://www.w3.org/2000/svg">
<path fill-rule="evenodd" clip-rule="evenodd" d="M34.3144 50.3758C34.2784 50.4443 34.556 50.5864 34.5842 50.573C34.6124 50.5597 34.6881 50.1813 34.7659 50.1273C34.8437 50.0733 34.9395 50.2127 35.1442 50.0916C35.1931 50.0924 35.2008 50.0304 35.2717 49.9694C35.3426 49.9084 35.4067 49.8334 35.4778 49.7586C35.6165 49.5986 35.7737 49.4552 35.9461 49.3311C36.1086 49.2231 36.3596 49.2614 36.5994 49.1271C36.5994 49.1271 36.8252 49.0133 36.8677 48.9794C36.9102 48.9455 36.8707 48.7654 36.9269 48.7525C36.983 48.7396 37.2696 48.7578 37.3897 48.6769C37.5099 48.5959 37.6254 48.3629 37.7738 48.2617C37.8088 48.2622 37.9509 48.1126 37.9228 48.1191C37.8948 48.1255 38.0471 48.2246 38.1247 48.1844C38.3431 48.0773 38.6487 47.7713 38.9876 47.5625C39.3265 47.3538 39.5739 47.1782 39.9203 46.935C40.0123 46.8674 40.0643 46.6682 40.0854 46.6616C40.2123 46.5945 40.4062 46.7148 40.4983 46.6334C40.753 46.444 41.0624 45.8829 41.5158 45.9588C41.6207 45.9604 41.8181 46.3293 41.9367 46.3449C42.0554 46.3606 42.0567 46.2639 42.0634 46.2778C42.1359 46.5269 42.163 46.7868 42.1428 47.0452C42.1433 47.3121 42.111 47.5781 42.0467 47.8373C41.9183 48.0987 41.7742 48.3524 41.6153 48.5969C41.5827 48.6567 41.5419 48.7118 41.4939 48.7606C41.4939 48.7606 41.3797 48.9176 41.3725 48.9313C41.3145 49.0616 41.4158 49.2977 41.3653 49.4005C41.3147 49.5032 40.9985 49.595 40.8838 49.7727C40.7692 49.9504 40.7455 50.1364 40.6522 50.2937C40.5588 50.451 40.4616 50.3874 40.3972 50.483C40.3328 50.5787 40.4787 50.6498 40.464 50.691C40.4494 50.7322 40.2962 50.6885 40.2743 50.7502C40.0551 51.0465 39.8563 51.3571 39.6795 51.6798C40.1662 51.8667 40.4321 51.4222 40.7086 51.178L41.3748 50.6015L41.7151 50.3031L42.0633 49.9357C42.2055 49.7792 42.3128 49.622 42.5543 49.3842C42.7851 49.1442 42.9995 48.8894 43.1957 48.6211C43.2313 48.5803 43.198 48.4555 43.2961 48.4432C43.3942 48.4309 43.3803 48.4444 43.5521 48.1848C43.724 47.9252 44.0781 48.0894 44.246 48.5405C44.414 48.9917 43.5284 49.7236 43.7758 50.0104C44.1671 50.4857 44.7107 49.2448 44.7969 49.0943C45.0114 48.787 45.2855 48.6946 45.3501 48.5851C45.4147 48.4757 45.353 48.3989 45.3543 48.3092C45.493 47.9317 45.8248 47.2949 45.9928 46.8281C46.0757 46.4743 46.1934 46.1294 46.3443 45.7983C46.4621 45.4136 46.6004 45.0499 46.7167 44.7687C46.9124 44.7717 47.1461 45.0376 47.4109 45.1038C47.5348 45.1325 47.6483 45.1941 47.7394 45.2819C47.8305 45.3696 47.8957 45.4802 47.9278 45.6017C47.9955 45.8723 48.1024 46.132 48.2448 46.3727C48.3559 46.4227 48.4913 46.2591 48.5561 46.1359C48.621 46.0126 48.4971 45.8796 48.5194 45.7902C48.5944 45.5493 48.6519 45.3035 48.6916 45.0545C48.6931 44.9579 48.625 44.8465 48.6339 44.7224C48.6428 44.5983 48.6793 44.4884 48.6743 44.3572C48.6693 44.226 48.5832 43.9209 48.5927 43.7554C48.6022 43.5899 48.7256 43.295 48.7221 43.0672C48.7077 42.8134 48.6719 42.5613 48.6148 42.3134C48.57 42.0435 48.4074 41.6959 48.4724 41.5588C48.617 41.2505 48.7234 41.6249 48.8309 41.454C48.8777 41.1372 48.5306 41.4148 48.4667 41.0204C48.4889 40.8377 48.5512 40.662 48.6494 40.5056C48.7303 40.3226 48.8341 40.1503 48.9582 39.9927C49.0621 39.8887 49.1841 39.8042 49.3185 39.743C49.6634 39.6033 50.156 39.8731 50.5366 39.6788C50.5764 39.6578 50.6122 39.6305 50.6427 39.5977L54.2713 36.03L54.0865 38.4979C54.0882 38.6266 54.1076 38.7546 54.1439 38.8784C54.1414 39.0371 54.219 39.4454 54.3745 39.3374C54.4178 39.2483 54.3734 39.4064 54.3732 39.4202C54.373 39.434 54.3219 39.5782 54.2634 39.7429C54.205 39.9077 54.2571 40.1569 54.259 40.0327C54.2111 39.9341 54.1434 39.8463 54.0601 39.7743C53.9349 39.6424 53.7934 39.5266 53.6389 39.4297C53.2717 39.2032 53.3965 39.2672 53.3689 39.2392C53.3762 39.1958 53.3769 39.1517 53.3709 39.1081C53.3709 39.1081 53.1983 38.9536 53.1915 38.9397C53.1847 38.9258 53.2564 38.8303 53.2435 38.7542C53.1851 38.4634 53.1385 37.8553 52.9864 37.287C52.9871 37.2387 52.7859 37.1321 52.7724 37.0973C52.7191 36.9309 52.7783 36.6971 52.6759 36.5368C52.5734 36.3765 52.681 36.2056 52.5537 35.8447C52.5551 35.7481 52.3476 35.6208 52.3274 35.5653C52.1596 35.1072 52.1815 34.5898 51.9888 33.9312C51.9558 33.8064 51.7823 33.7004 51.7284 33.5684C51.4252 32.8184 51.3613 31.9684 52.1202 31.7385C52.3817 31.6896 52.6519 31.7105 52.9027 31.7989C53.1532 31.8786 53.4889 32.3325 53.6916 31.8801C53.8265 31.154 53.7047 30.4042 53.3466 29.7559C53.2721 29.596 53.1258 29.5592 53.003 29.3572C53.003 29.3572 53.1515 29.256 53.0749 29.2341C53.0543 29.2259 53.0355 29.2139 53.0194 29.1987L53.0794 28.0264C53.0778 27.6703 53.155 27.3182 53.3053 26.9946C53.3925 26.782 53.5216 26.5563 53.6297 26.3509C53.7273 26.1458 53.8378 25.9469 53.9605 25.7554C53.9605 25.7554 53.8848 25.6783 53.9634 25.5691C54.042 25.4599 54.1821 25.4551 54.1462 25.5166C54.1934 25.4304 54.2344 25.3412 54.2692 25.2494C54.2762 25.1991 54.277 25.1482 54.2715 25.0977C54.268 25.0082 54.2911 24.9197 54.3382 24.8432C54.4898 24.705 54.6642 24.5933 54.8539 24.513C55.281 24.21 55.7268 23.9333 56.1885 23.6846C56.4913 23.5512 56.8886 23.6332 56.9865 23.1792C56.9882 23.0688 56.8712 22.9428 56.9914 22.8618L57.3721 22.6675C57.5252 22.5834 57.6827 22.5076 57.8441 22.4402C58.7284 22.2398 60.2759 23.0435 59.81 21.9597C59.742 21.8344 59.5542 21.7624 59.423 21.6499C59.2919 21.5375 59.1128 21.3622 58.9603 21.2701C58.7707 21.183 58.5725 21.1153 58.3689 21.0679C58.2091 20.9662 58.0588 20.8507 57.9196 20.7229C57.8105 20.6234 57.6923 20.5337 57.5669 20.4551C57.5115 20.4197 57.3012 20.451 57.2593 20.4504C57.0928 20.3581 57.0393 20.2054 56.8107 20.0638C56.686 19.986 56.5048 19.9349 56.3662 19.8568C56.2932 19.8086 56.2361 19.7408 56.2015 19.6612C55.8687 19.4698 55.5597 19.5546 55.5071 19.3329C55.6004 19.2187 55.7256 19.1343 55.8674 19.0901C55.8744 18.6347 55.8004 19.3583 55.7646 18.9574C55.7663 18.847 55.8372 18.7721 55.8041 18.6542C55.904 18.5246 56.0769 18.6585 56.3086 18.6C56.4931 18.5381 56.6805 18.4857 56.8704 18.443C57.234 18.4485 57.5656 18.7228 57.7067 18.6422C58.0949 18.4135 57.8754 18.1202 57.5364 17.8803C57.242 17.698 56.9363 17.5343 56.6209 17.3901C56.054 17.0306 55.5134 16.6326 55.0027 16.1989C54.6986 15.9664 54.3096 15.774 53.8744 15.4223C53.7364 15.2959 53.6886 15.2399 53.6056 15.1765C53.2869 14.8739 52.9859 14.5537 52.7041 14.2172C52.5873 14.0843 52.45 13.9026 52.3405 13.7491C52.3405 13.7491 52.1512 13.7877 52.1876 13.6986C52.3254 13.3763 52.0859 13.49 51.8856 13.3281C51.6852 13.1663 51.7027 12.9457 51.4417 12.6311C51.4005 12.5822 51.1633 12.5372 51.1427 12.5093C50.9919 12.3137 50.8836 12.0705 50.7197 11.8126C50.5558 11.5547 50.4471 11.346 50.2967 11.116C49.8028 10.4931 49.3662 9.82805 48.9916 9.12886C48.9916 9.12886 48.9958 8.83912 48.9213 8.68614C48.6318 8.12904 48.456 7.52133 48.4034 6.8975C48.3773 6.6315 48.4301 6.3637 48.5552 6.12676C48.6986 5.92451 48.8965 5.76616 49.1267 5.66964C49.357 5.57312 49.61 5.54242 49.8572 5.58094C49.9341 5.58212 50.1196 5.79879 50.1895 5.79986C50.2594 5.80094 50.5354 5.61206 50.6896 5.59372C50.8437 5.57538 51.0158 5.73666 51.0798 5.66863C51.4212 5.29428 50.8795 4.60279 50.5708 4.21156C50.2621 3.82032 50.0814 3.27913 49.5879 3.07831C49.2973 2.75009 49.0272 2.40485 48.7788 2.04444L49.5918 1.91202C49.5884 1.92558 49.5881 1.9398 49.5912 1.95346C49.5892 2.08456 49.7057 2.25194 49.7521 2.41829C49.7985 2.58465 49.6856 2.65191 49.747 2.74948C49.8084 2.84705 49.9412 2.85595 49.9478 2.88366C49.9451 3.05616 49.8499 3.33076 49.8672 3.57259C49.8845 3.81441 50.0302 3.88564 50.0205 4.06494C50.0107 4.24423 49.8619 4.38004 49.816 4.6416C49.7474 5.00634 49.8719 5.53968 49.7596 6.02107C49.6429 6.46228 49.4793 6.89013 49.2715 7.29736C49.0363 8.03914 48.5449 9.07364 47.9968 9.24467C47.8071 9.29697 47.7826 9.0688 47.5945 9.0245C47.4063 8.9802 47.1178 9.10003 46.9535 8.86975C46.8389 8.62581 46.702 8.39269 46.5445 8.17329C46.5445 8.17329 46.3696 8.17069 46.301 8.07992C46.2325 7.98914 46.0937 7.46238 45.9916 7.28137C45.8895 7.10035 45.8349 7.01678 45.7467 6.84288C45.6895 6.68967 45.5884 6.55606 45.4558 6.45845C45.3232 6.36084 45.1648 6.30341 44.9997 6.29306C44.8948 6.29144 44.5613 6.14832 44.4774 6.14703C44.3935 6.14575 44.1317 6.3419 43.9499 6.33911C43.7681 6.33632 43.6292 6.2582 43.5522 6.26392C43.3796 6.28846 43.2087 6.32264 43.0401 6.36642C42.8504 6.41872 42.9213 6.36467 42.7872 6.44544C42.6745 6.49892 42.6091 6.66347 42.5175 6.70348C42.23 6.84491 41.9618 7.02169 41.7192 7.22957C41.5835 7.34621 41.4574 7.47357 41.3425 7.61032L41.1575 7.82838C41.1575 7.82838 41.0929 7.93085 41.0719 7.93052L41.0171 7.85386C40.9402 7.7529 40.8421 7.66943 40.7295 7.60933C40.617 7.54923 40.4927 7.51394 40.365 7.50567C40.2462 7.50384 40.1797 7.27508 39.9645 7.16825C39.7494 7.06142 39.4065 7.06992 39.1217 6.94822L39.0657 6.94736C39.017 6.92313 38.9709 6.89463 38.9273 6.86233L38.7888 6.76366C38.6173 6.63425 38.4314 6.52489 38.2344 6.43769C38.1365 6.43619 38.0385 6.43462 37.9346 6.37091C37.8307 6.3072 37.7978 6.17557 37.8743 6.20435C37.443 6.05279 37.2453 6.16022 36.9533 6.0522C36.359 5.82299 35.75 5.63376 35.1298 5.48585C34.4328 5.33021 33.7335 5.30563 33.6014 5.25529C33.5465 5.18161 33.487 5.1115 33.4229 5.04547C33.4579 5.046 33.2228 4.86992 33.2356 4.94604C33.1962 4.77979 33.6803 4.66991 33.6112 4.61363C33.405 4.48745 33.1755 4.4034 32.9358 4.36652C32.6961 4.32964 32.451 4.34067 32.2158 4.39893C31.8632 4.44121 31.5183 4.53106 31.1906 4.6661C31.014 4.72709 30.8443 4.80547 30.6836 4.89994C30.5355 4.98048 30.2956 5.11485 30.4079 5.08897C30.2286 5.27594 30.0856 5.49354 29.9855 5.7312C29.6228 6.31563 29.3115 6.92961 29.055 7.56652C28.8207 8.25309 28.6647 9.30665 28.5575 9.45684C28.4503 9.60704 28.449 8.76501 28.4141 8.76447C28.3538 8.96634 28.3155 9.17408 28.2997 9.38397C28.2986 9.45987 28.2973 9.54257 28.296 9.62537L28.297 9.56338C28.3168 9.49571 28.332 9.42672 28.3421 9.35699C28.3446 9.19829 28.3478 8.99128 28.3922 8.83322C28.3962 8.57102 28.5153 8.1035 28.558 7.60034C28.6007 7.09717 28.6256 6.37973 28.6454 6.00044C28.6475 5.86244 28.6497 5.71761 28.6522 5.55891C28.6749 5.41714 28.6449 5.27195 28.5676 5.15035V5.15035L28.3508 5.14702C28.2625 5.13885 28.1737 5.13748 28.0852 5.14294L27.7345 5.20664C27.5578 5.2478 27.384 5.30046 27.2144 5.36428C26.864 5.49645 26.5359 5.67991 26.2409 5.90841C26.0037 6.08541 25.781 6.28035 25.5746 6.49163C25.2692 6.79752 25.0769 7.02239 24.8637 7.23997C24.1171 8.036 23.444 8.59841 22.8124 9.18916C22.554 9.48528 22.2787 9.76677 21.9881 10.0323C21.8138 10.1601 21.627 10.2705 21.4305 10.3619C21.3116 10.3601 21.3367 10.5606 20.8879 10.181L20.6321 9.98385L20.5078 9.8923L20.4371 9.93957L20.1613 10.1286L19.6381 10.5069L19.3973 10.6896L19.3407 10.7302C19.3407 10.7302 19.3407 10.7301 19.3412 10.6956L19.4343 10.5729C19.6673 10.2871 19.9241 10.021 20.2019 9.77723C20.4216 9.58736 20.7226 9.56428 20.9427 9.34681C21.3876 8.74471 21.8981 8.19254 22.4648 7.70003C22.6957 7.55674 22.9135 7.39383 23.1157 7.21312C23.1157 7.21312 23.1514 7.1653 23.1166 7.15096C23.0819 7.13662 23.0256 7.14956 22.9766 7.14881C22.8806 7.18966 22.7884 7.23905 22.7015 7.2964C22.5249 7.41102 22.3621 7.53968 22.1992 7.66831C21.5354 8.23943 20.937 8.88061 20.4146 9.58032C20.1791 9.88728 19.9737 10.0497 19.7802 10.3504C19.5008 10.7809 19.3182 11.2888 19.0598 11.7197C18.9381 11.9041 18.6986 12.0247 18.5765 12.2368C18.2163 12.9214 18.0448 13.609 17.7493 14.1773C17.5545 14.5608 17.2903 14.9088 17.1099 15.2718C16.756 16.0049 16.5632 16.7196 16.2608 17.2809C16.2164 17.3855 16.1633 17.4862 16.1022 17.5821C16.0208 17.5913 15.9388 17.59 15.8577 17.5784C15.8145 17.6605 15.8518 17.958 15.7925 18.1779C15.5588 18.7311 15.2888 19.2686 14.9844 19.7873C14.9211 19.9095 14.8654 20.0354 14.8178 20.1644L12.6952 25.3977L17.4893 22.897C17.807 22.7186 18.145 22.578 18.496 22.4777C19.3383 22.2836 20.2286 22.1455 20.5461 22.875C20.5472 22.806 20.5404 23.2476 20.5406 23.2338C20.5391 23.3304 20.2082 23.4634 20.1788 23.5526C20.0836 23.8341 20.171 24.077 20.0426 24.2407C19.9142 24.4044 19.6266 24.4552 19.4841 24.6256C19.4834 24.6739 19.4808 24.8394 19.4803 24.8739C19.4798 24.9084 19.2906 24.9261 19.2478 24.9807C19.205 25.0352 19.1939 25.3181 19.0858 25.5235C18.9918 25.637 18.8895 25.7439 18.78 25.8431L11.4401 34.2541L11.8868 18.8217C11.8912 18.7897 11.8917 18.7574 11.8883 18.7252C11.7428 18.1777 11.5611 17.2777 11.1585 17.9893C11.1082 18.0782 11.1543 18.2585 11.0678 18.4297L3.7348 31.8581L19.1586 26.6978C19.5169 26.5929 19.8167 26.6598 20.0774 26.5327C20.3381 26.4055 20.4746 26.166 20.7432 25.9838C21.2365 25.7237 21.7088 25.4263 22.1556 25.0944L22.7513 24.5583L23.0985 24.2738L23.4246 23.989L23.6445 23.7853L24.0002 23.3973C24.2334 23.1274 24.4413 22.8372 24.6217 22.5303C24.7367 22.332 24.8447 22.1267 24.9387 21.9279L25.0694 21.6192C25.1131 21.5095 25.172 21.3241 25.2162 21.1799C25.3103 20.8715 25.3804 20.5564 25.4263 20.2375C25.4779 19.9114 25.4971 19.5812 25.4835 19.2515C25.475 18.8989 25.4382 18.5476 25.3736 18.2007C25.3343 18.0276 25.2951 17.8475 25.2485 17.695C25.2019 17.5424 25.162 17.4246 25.115 17.2927C25.0134 17.0178 24.8912 16.7505 24.7496 16.4933C24.6884 16.382 24.5929 16.208 24.5449 16.1451L24.381 15.9011C24.2634 15.7365 24.1373 15.5779 24.0034 15.4259L23.8111 15.2089L23.6732 15.0688L23.3698 14.7882L23.211 14.6546L23.0936 14.563C22.9554 14.4574 22.7688 14.3165 22.6441 14.2387C22.0694 13.8571 21.8404 13.7431 21.6463 13.6297C21.5318 13.5525 21.405 13.4946 21.2713 13.4583C21.2349 13.4474 21.196 13.4468 21.1593 13.4566L21.1245 13.4561L21.0674 13.5243C20.9876 13.6155 20.9023 13.7017 20.8118 13.7825L20.62 13.9729C20.471 14.1086 20.4143 14.1631 20.3081 14.2442C20.0321 14.454 19.9905 14.4187 20.2295 14.3396L11.1998 17.1065C11.2604 17.2593 11.3281 17.4053 11.3959 17.5444C11.4637 17.6835 11.6712 17.8315 11.7526 17.9984C11.834 18.1653 11.8572 18.4762 11.9588 18.6918C12.1319 19.0621 12.3419 19.4145 12.586 19.7436C12.7712 20.0557 12.9322 20.3812 13.0676 20.7173C13.3787 21.4122 13.649 22.4929 14.0296 23.2097C14.1316 23.3976 14.2979 23.5107 14.3653 23.6773C14.4327 23.844 14.4488 24.1617 14.5295 24.37C14.6559 24.793 14.9501 25.2185 15.0078 25.5575C15.0655 25.8966 14.8696 26.8114 15.2601 27.3419C15.4653 27.9435 15.6127 28.5628 15.7002 29.1916C15.746 29.3993 15.843 29.4559 15.8689 29.5943C15.8947 29.7328 15.8606 30.1326 15.8574 30.3396C15.8542 30.5466 16.0988 30.5711 16.1383 30.7305C16.1778 30.8898 16.0824 31.1782 16.1283 31.379C16.2584 32.016 16.5084 32.5858 16.5976 33.1531C16.6548 33.5267 16.5851 33.9603 16.6546 34.4445C16.7891 35.1549 16.8762 35.8734 16.9153 36.595C16.8671 36.9714 16.7194 37.3286 16.4868 37.6306C16.2958 37.7726 15.7226 37.7431 15.6304 37.8314C15.4709 38.0372 15.349 38.2689 15.2701 38.5161C15.0089 39.0312 14.9573 39.6254 15.1258 40.1771C15.1911 40.2734 15.2415 40.3788 15.275 40.4899C15.2793 40.6068 15.2534 40.7227 15.1998 40.827C15.2529 41.0141 15.4267 41.0859 15.4663 41.2452C15.5058 41.4046 15.459 41.7006 15.5399 41.8951C15.6209 42.0896 15.7447 42.2295 15.8188 42.417C15.8928 42.6045 15.8142 42.7207 15.8681 42.8526C15.922 42.9846 16.0796 43.2079 16.1469 43.3745C16.3083 43.798 16.2602 44.1906 16.4994 44.5532C16.5334 44.6158 16.7276 44.7224 16.7412 44.7502C16.8087 44.91 16.7354 45.1295 16.8028 45.2962C16.8702 45.4629 16.9941 45.5753 17.069 45.7076C17.1439 45.8399 17.0652 45.956 17.1059 46.0394C17.1466 46.1229 17.3219 46.098 17.3355 46.1258C17.4434 46.3829 17.4519 46.735 17.5459 46.9849C17.7602 47.6093 18.392 48.3782 18.1163 49.0296C17.7493 49.2448 18.0028 48.6621 17.7498 48.7411C17.6551 48.9881 17.801 49.0592 17.7064 49.2993C17.6118 49.5394 17.3316 49.556 17.3281 49.7837C17.3246 50.0114 17.5788 50.3188 17.6316 50.5267C17.717 50.8869 17.6826 51.3142 17.7811 51.7299C17.8796 52.1455 18.0198 52.12 18.0665 52.2726C18.1131 52.4251 18.166 52.6192 18.205 52.8131L18.2633 53.1107L18.2609 53.2625C18.2602 53.3108 18.2593 53.3661 18.2588 53.4006C18.1451 53.5344 18.0166 53.6551 17.8756 53.7605C17.7977 53.8215 17.6513 53.7915 17.5527 53.8383C17.4897 53.8733 17.438 53.9251 17.4036 53.9878C17.3867 54.0183 17.3652 54.046 17.3395 54.0698C17.2843 54.1435 17.2249 54.2139 17.1614 54.2808C16.9606 54.4662 16.7399 54.6296 16.5033 54.7678C16.2902 54.9093 16.0992 55.0808 15.9362 55.2767C15.6067 55.7159 15.349 56.2032 15.1726 56.7212C14.9893 57.2705 14.8126 57.8476 14.6228 58.3623C14.549 58.6165 14.3486 58.9033 14.2957 59.1578C14.2293 59.4873 14.187 59.8211 14.1687 60.1566C14.1638 60.4809 14.1588 60.8052 14.1536 61.1433C14.0438 61.9985 13.9884 62.8598 13.988 63.7219C14.0533 64.4752 14.2782 65.3208 14.3176 65.9426C14.3446 66.4606 14.0417 67.0564 14.1168 67.6304C14.1808 68.0679 14.2914 68.4975 14.4468 68.9122C14.6146 69.3703 14.7954 69.8838 14.9698 70.3696C14.9841 70.3644 14.9994 70.3621 15.0146 70.3629C15.0298 70.3637 15.0445 70.3675 15.0582 70.3742C15.0718 70.3808 15.0841 70.3902 15.094 70.4017C15.1038 70.4131 15.1111 70.4266 15.1155 70.4409C15.1146 70.503 15.1139 70.565 15.1617 70.6348L15.1611 70.6762C15.1535 70.7056 15.1531 70.7364 15.1597 70.766C15.1663 70.8116 15.185 70.8547 15.2138 70.891C15.2659 70.9441 15.3117 71.0026 15.3508 71.0656C15.3508 71.0656 15.2248 71.0638 15.252 71.1194C15.252 71.1194 15.2515 71.1607 15.2021 71.1875C15.1527 71.2144 15.3061 71.2513 15.2849 71.2648C15.2596 71.2862 15.238 71.3114 15.2209 71.3396C15.2174 71.3532 15.2172 71.3674 15.2203 71.3811L15.2198 71.4156C15.219 71.4639 15.2181 71.5122 15.1683 71.5666C15.0514 71.8892 14.8392 72.0516 14.7005 72.4291C14.6992 72.5119 14.5975 72.7726 14.5083 73.1163C14.419 73.46 14.3357 73.8591 14.2398 74.1889C14.2405 74.1406 14.3848 74.3223 14.2856 74.4036C13.7751 74.8582 14.3366 76.0745 14.3328 76.7784C14.3245 77.3236 14.0931 77.8237 14.0819 78.5551C14.0785 78.7759 14.0747 79.0105 14.1201 79.2459C14.1654 79.4812 14.2032 79.7511 14.269 80.0212C14.3348 80.2914 14.4146 80.5687 14.5151 80.8532C14.6156 81.1377 14.7235 81.4085 14.8311 81.6931L14.978 82.1303L15.0171 82.3241C15.0151 82.4483 15.0616 82.6146 15.0801 82.7805C15.0985 82.9465 15.3397 83.1848 14.9396 83.2753C14.947 83.0189 14.8983 82.7641 14.7971 82.5278C14.7989 82.4105 14.7016 82.3745 14.6679 82.2911L14.5324 82.0198L14.4576 81.8599L14.343 81.5891C14.2213 81.3111 14.1508 80.896 14.0507 80.5839C13.8754 80.1602 13.6216 79.8387 13.4809 79.4362C13.4333 79.0927 13.408 78.7465 13.4057 78.3998C13.3199 78.1338 13.2609 77.8602 13.2294 77.5828C13.2571 77.1647 13.3082 76.7484 13.3817 76.3359C13.3879 75.9357 13.4429 75.5362 13.4911 75.1297C13.4943 74.9227 13.5463 74.7235 13.5705 74.5168L13.6915 73.9112C13.8268 73.1474 14.0327 72.3974 14.3064 71.6707C14.3721 71.4923 14.548 70.9842 14.5246 71.1426C14.593 71.1678 14.6626 71.1897 14.7332 71.208L14.5316 71.1291L14.6364 71.1307C14.5811 71.0884 14.5953 71.0747 14.6376 71.0547C14.6799 71.0346 14.6383 71.0063 14.5684 70.9984C14.4986 70.9904 14.3579 71.0503 14.3308 70.9947C14.3278 70.981 14.328 70.967 14.3314 70.9534V70.9534C14.3314 70.9534 14.3314 70.9533 14.3329 70.8567C14.2532 70.5863 14.1872 70.3231 14.1282 70.0669C14.0335 69.5753 13.8887 69.0943 13.6957 68.6315C13.4997 68.3519 13.3287 68.056 13.1848 67.7472C13.1858 67.6782 13.3479 67.5978 13.3486 67.5495C13.354 67.1976 13.1888 67.0363 13.3138 66.6379C13.4802 66.3401 13.5513 65.9996 13.5177 65.661C13.4469 65.2597 13.3074 64.7744 13.2521 64.2766C13.2506 63.8918 13.2727 63.5073 13.3186 63.1251C13.2337 62.0502 13.2132 60.9714 13.2565 59.8942C13.3183 59.5156 13.5272 59.1185 13.6248 58.6852C13.733 57.9759 13.8909 57.275 14.0975 56.5874C14.1622 56.4208 14.242 56.2604 14.3358 56.1079C14.4449 55.9588 14.5453 55.8035 14.6366 55.6431C15.0905 54.7805 14.9756 54.5096 15.4478 54.2753C15.4478 54.2753 15.7073 54.2379 15.7215 54.2244C15.8849 54.0543 15.9615 53.6275 16.1384 53.4922C16.202 53.4518 16.4384 53.5314 16.4942 53.5391C16.6306 53.5436 16.767 53.5317 16.9005 53.5039C16.9844 53.5052 16.9658 53.36 17.0577 53.2924C17.161 53.2338 17.2694 53.1846 17.3817 53.1455C17.4796 53.147 17.4533 53.0362 17.4408 52.9393C17.4283 52.8425 17.2948 52.8751 17.3163 52.8409C17.3836 52.7089 17.403 52.5582 17.3717 52.4137C17.373 52.3309 17.1645 52.2519 17.1235 52.1892C17.1176 52.1618 17.1181 52.1335 17.1248 52.1063C17.126 52.0235 17.1274 51.9339 17.1289 51.8373C17.1166 51.6426 17.094 51.4487 17.061 51.2564C16.8193 50.1416 16.1221 49.5303 16.5397 48.7568C16.6117 48.6199 16.5069 48.6253 16.6204 48.5235C16.7339 48.4218 16.746 48.5255 16.8249 48.3956C16.9004 48.2797 16.9418 48.1451 16.9439 48.0073C16.946 47.8695 16.9088 47.7339 16.8369 47.6158C16.8379 47.5468 16.6919 47.4962 16.7072 47.4067C16.7226 47.3172 16.8473 47.4089 16.8003 47.284C16.7533 47.159 16.4774 46.8926 16.397 46.6636C16.25 46.2127 16.2996 45.7234 16.1373 45.362C16.0561 45.1813 15.814 45.0051 15.7534 44.8523C15.6391 44.5538 15.6382 44.1604 15.5307 43.8758C15.4232 43.5912 15.2326 43.2431 15.0975 42.9304C15.0299 42.7776 15.0118 42.6047 14.924 42.3963C14.8363 42.1879 14.6907 42.0892 14.6644 41.9783C14.5517 41.5763 14.6143 41.1561 14.5291 40.7821C14.8526 40.6698 14.7697 41.062 15.0932 40.9428C14.9886 40.4649 14.472 40.8572 14.2995 40.7028C14.2287 40.0488 14.192 39.3917 14.1897 38.734C14.1955 38.3545 14.3584 38.2398 14.6307 37.8161C14.8086 37.4902 15.0867 37.2285 15.4252 37.069C15.5523 36.9882 15.9187 36.8351 15.9403 36.794C16.041 36.6161 15.8999 36.2412 15.9554 35.8141C15.9584 35.614 16.1086 35.3956 16.1109 35.2507C15.9946 34.3977 15.8109 33.5548 15.5619 32.7299C15.464 32.2729 15.471 31.8244 15.3855 31.4711C15.3264 31.2217 15.0926 30.9627 15.0605 30.7759C15.0284 30.5891 15.1732 30.2739 15.1561 30.0183C15.1523 29.6597 15.0592 29.3075 14.885 28.9927C14.8097 28.888 14.6494 28.8579 14.6094 28.7261C14.5695 28.5944 14.7638 28.2247 14.7177 28.0376C14.5906 27.663 14.2039 27.3395 14.0765 26.9856C13.7482 26.0419 14.0037 24.4447 13.3519 23.6203C13.1734 23.4036 13.097 22.0014 12.6815 21.7328C12.4321 21.5771 12.5346 21.7304 12.444 21.2528C12.3449 20.8181 12.1231 20.4199 11.8043 20.1043C11.5501 19.8036 11.8076 19.8834 11.7705 19.5654C11.6434 19.3026 11.4977 19.0491 11.3345 18.8065C11.2387 18.667 11.0722 18.5816 11.0043 18.4495C10.8824 18.1922 10.8818 17.7919 10.7458 17.5344C10.6828 17.4178 10.6042 17.3099 10.5127 17.2134L20.3501 14.2242C20.3018 14.2379 20.2549 14.2557 20.2096 14.2773C20.2096 14.2773 20.2095 14.2772 20.3155 14.2098L20.4074 14.1421C20.4669 14.0981 20.5238 14.0506 20.5776 13.9998C20.6874 13.9112 20.7916 13.8161 20.8896 13.7148C21.06 13.5518 21.2025 13.3884 21.3304 13.2523C21.4584 13.1163 21.6435 12.8913 21.8289 12.6594C21.8579 12.6304 21.8886 12.6033 21.921 12.5781C22.041 12.5041 22.1114 12.4775 22.618 12.7337C22.6971 12.7687 22.7736 12.809 22.847 12.8545L23.1659 13.0389C23.5879 13.3039 23.9817 13.6106 24.3409 13.9542C24.4994 14.1085 24.6303 14.2346 24.8022 14.4236C25.0326 14.6911 25.2477 14.9708 25.4467 15.2617L25.5902 15.4848L25.774 15.812C25.8994 16.0541 26.0123 16.3023 26.1123 16.5557C26.2203 16.8081 26.3101 17.0677 26.3803 17.3327C26.4677 17.6623 26.53 17.9979 26.5674 18.3365C26.6108 18.6777 26.6268 19.0218 26.6148 19.3656C26.6101 19.6822 26.5793 19.9978 26.5231 20.3096C26.474 20.6211 26.404 20.929 26.3133 21.2313C26.269 21.3824 26.2176 21.5334 26.1664 21.6775L26.0359 21.993C25.8656 22.3929 25.6607 22.7778 25.4237 23.1432C25.3406 23.2779 25.25 23.4077 25.152 23.5323L24.9092 23.8462L24.5035 24.3161C24.4252 24.4046 24.347 24.4931 24.2618 24.5746L23.842 25.0238L23.5153 25.35C23.3894 25.4701 23.2569 25.5833 23.1184 25.689C22.3236 26.2398 21.4861 26.7276 20.6133 27.1482C20.3453 27.2959 20.1049 27.4647 19.7736 27.6322L2.46162 36.4214L10.1198 17.7594C10.176 17.6251 10.2411 17.4948 10.3147 17.3691C10.3938 17.2253 10.5169 16.9511 10.524 16.9443C10.5311 16.9375 10.7557 16.8858 10.8196 16.8247C11.0821 16.5802 11.0198 16.5378 11.378 16.4398C11.427 16.4405 11.6667 16.32 11.6806 16.3272C12.1287 16.4219 12.527 16.6731 12.8025 17.0346C12.8364 17.1041 12.5807 17.3692 12.5864 17.4521C12.5921 17.5351 12.8677 17.7947 12.9205 18.0025C12.954 18.0997 12.8537 18.2569 12.8661 18.3606C12.8785 18.4643 12.9471 18.5483 12.9664 18.659C12.9857 18.7698 13.0034 18.9978 13.0219 19.1568L13.9579 30.6141L18.4892 24.7483C18.646 24.5565 18.7915 24.3559 18.9249 24.1476C19.1038 23.8056 19.2609 23.453 19.3957 23.0919C18.8782 23.0839 18.5018 23.4578 17.9892 23.5948L9.38721 25.837L14.1604 19.6988C14.2817 19.5419 14.5431 19.3871 14.6367 19.216C14.7302 19.0449 14.6936 18.6855 14.7887 18.4109C15.0235 17.9756 15.2822 17.5535 15.5635 17.146C15.751 16.7762 15.9904 16.2209 16.1651 15.7749C16.274 15.5144 16.2579 15.1965 16.3663 14.9704C16.4747 14.7443 16.7643 14.5555 16.8873 14.2883C17.0008 14.0518 17.1001 13.809 17.185 13.5612C17.2185 13.3281 17.2714 13.0981 17.3428 12.8735C17.5304 12.4967 17.8769 12.2398 18.0922 11.8843C18.3075 11.5287 18.2759 11.3074 18.4704 10.9377C18.9242 10.082 19.6744 9.49999 20.0215 8.75993C20.1082 8.57492 20.0972 8.39529 20.2257 8.22472C20.5505 7.86078 20.9166 7.53509 21.3174 7.25442C21.5797 7.02379 21.6745 6.77678 21.9364 6.57376C22.1983 6.37073 22.1741 6.57748 22.3296 6.47634C22.4407 6.39682 22.5449 6.30847 22.6413 6.21203C22.7138 6.1541 22.7896 6.09982 22.8678 6.04971C22.9314 6.00927 23.0507 5.96982 23.0502 6.00432C23.0497 6.03882 22.9906 6.2311 22.9059 6.28501C22.8211 6.33892 22.5634 6.27985 22.3871 6.37376C22.2109 6.46768 22.1164 6.68704 21.8902 6.84231C21.6641 6.99757 21.4472 7.01491 21.2774 7.14344C20.8712 7.50165 20.4913 7.88787 20.1406 8.29923C19.8726 8.49597 19.617 8.70866 19.3754 8.9362C19.2641 9.08288 19.1612 9.2358 19.0675 9.394L18.9169 9.64005L18.8384 9.74938C18.8378 9.78388 18.895 9.70879 18.9092 9.6952C19.1291 9.49153 19.3635 9.26047 19.619 9.01594L19.9952 8.64899C19.9962 8.57999 20.0861 8.65046 20.1548 8.72744L20.3551 8.89615L20.7484 9.23346C20.9347 9.40196 20.8944 9.30461 20.9293 9.30515L21.0001 9.25805L21.1484 9.16361C21.2505 9.10842 21.3592 9.06607 21.472 9.03749C21.5715 9.01317 21.6723 8.99392 21.7737 8.97994C21.8869 8.89886 21.8688 8.71236 21.9546 8.58945C22.2241 8.304 22.5311 8.05562 22.8678 7.85113C23.1866 7.53243 23.4838 7.19348 23.7576 6.83645C24.0633 6.51676 24.3617 6.21774 24.908 5.7154C25.0569 5.57965 25.2273 5.43045 25.4893 5.22052L25.7367 5.03105L26.0831 4.80165C26.2243 4.7141 26.4427 4.60016 26.633 4.50646C26.8233 4.41276 26.9501 4.37327 27.1048 4.31353L27.3577 4.23451L27.7508 4.144C27.8851 4.1158 28.0209 4.09478 28.1575 4.08116L28.3531 4.08417L28.4231 4.08524L28.6679 4.089C28.6794 4.08626 28.6913 4.08644 28.7027 4.08954C28.721 4.11141 28.7326 4.13796 28.7364 4.16605C28.7389 4.22125 28.7381 4.27654 28.7338 4.33164C28.7282 4.69734 28.6939 4.67614 28.6645 5.22092C28.6604 5.49002 28.6504 6.12483 28.6107 6.4348C28.58 6.63889 28.5372 6.84095 28.4826 7.0401C28.4815 7.1091 28.4117 7.55661 28.4805 7.17807C28.5082 6.84886 28.5718 6.52363 28.6702 6.2079C28.6687 6.30451 28.7138 7.46461 28.7409 7.52024C28.9038 7.12485 29.0387 6.71889 29.1444 6.305C29.1481 6.06349 29.2532 6.03055 29.3696 5.74247C29.4062 5.6326 29.4175 5.37041 29.4536 5.29505C29.6004 5.05056 29.7725 4.82189 29.9675 4.61277C30.0384 4.46053 30.1016 4.30492 30.1566 4.14641L30.1075 4.14565C30.0655 4.14501 30.1075 4.1456 30.1643 4.09126C30.5056 3.90596 30.867 3.7588 31.2413 3.65235C31.6745 3.44277 32.1237 3.26732 32.585 3.12772C33.1236 3.07372 33.6673 3.09606 34.1996 3.19397L34.3662 3.28634L34.7056 3.49156C34.8688 3.59884 35.0197 3.72387 35.1547 3.86427C35.3028 4.23923 34.6588 4.27087 35.033 4.49747C35.5466 4.73311 36.0762 4.93255 36.6183 5.09454C36.9315 5.18907 37.0879 5.03964 37.4855 5.10786C37.6665 5.15895 38.0049 5.44713 38.4213 5.65367C38.6712 5.77484 38.93 5.76507 39.1658 5.89983C39.3158 5.98426 39.4552 6.08598 39.5808 6.20292C39.6716 6.27773 39.7782 6.33126 39.8929 6.35954C39.8929 6.35954 40.0696 6.24498 40.0834 6.25209C40.0973 6.25921 40.2072 6.40586 40.2763 6.45523C40.3455 6.50461 40.4865 6.41705 40.5488 6.45942C40.8403 6.60193 41.0255 6.85319 41.206 6.93878L41.262 6.93964L41.3248 6.9406L41.3255 6.89226C41.3529 6.83633 41.3867 6.78362 41.426 6.73507C41.5041 6.65345 41.5447 6.737 41.6085 6.67587C41.6724 6.61473 41.7894 6.29203 41.8606 6.2103C41.9317 6.12858 42.0004 6.21257 42.0781 6.16545C42.1557 6.11833 42.2143 5.9604 42.2922 5.89948C42.3701 5.83856 42.4527 5.90191 42.5372 5.8687C42.6216 5.83549 42.5956 5.70394 42.673 5.67752L42.7221 5.67827C42.7921 5.67935 42.7845 5.72072 42.8049 5.75554C42.8184 5.78417 42.8366 5.81024 42.8594 5.83237V5.83237L42.8953 5.78456C42.896 5.74316 42.9456 5.70242 42.9808 5.68916C43.016 5.67589 43.4062 5.7509 43.5889 5.69849C43.7715 5.64609 43.6617 5.52031 43.7319 5.50068C43.8646 5.5094 43.9975 5.51144 44.1304 5.5068C44.3262 5.50981 44.4755 5.35321 44.4196 5.35235C44.9212 5.4734 45.3933 5.69191 45.8085 5.99493C46.0205 6.20237 46.2028 6.43737 46.3503 6.69342C46.4598 6.85384 46.5776 6.91087 46.6595 7.04326C46.8651 7.38306 47.1306 7.68397 47.4432 7.93182C47.8017 8.26861 47.7093 8.36371 48.0969 8.17641C48.4844 7.98912 48.1003 7.95561 48.3383 7.48995C48.5151 7.24653 48.6602 6.98217 48.77 6.70295C48.8579 6.44894 48.8211 6.10334 48.8874 5.8904C48.9536 5.67747 49.1927 5.59145 49.2304 5.41258C49.2679 4.97716 49.2346 4.53851 49.1315 4.11346C49.0976 4.00122 49.0805 3.8847 49.0808 3.7676C49.0855 3.46399 49.2628 3.31482 49.2883 3.01844C49.2643 2.78349 49.2162 2.55152 49.145 2.32607C49.1156 2.12309 49.0744 1.92206 49.0214 1.72381L49.5961 1.63592L49.6513 1.68512C49.7759 1.76986 50.0771 1.74692 50.2284 1.91489C50.696 2.43279 50.6041 2.95587 51.1492 3.44046C51.2527 3.53177 51.2647 3.64937 51.3829 3.69949C51.501 3.74962 51.6067 3.70293 51.6277 3.70325C51.7587 3.82259 51.5819 3.94411 51.6572 4.04879C51.7325 4.15347 51.8739 4.05206 51.949 4.17055C52.5149 5.12477 52.7276 6.32206 51.3761 6.43243C51.2852 6.43104 51.1592 6.4291 51.0333 6.42717C50.9191 6.43369 50.8044 6.43193 50.6905 6.4219C50.5856 6.42029 50.3256 6.04359 50.1717 6.04813C50.0593 6.14605 49.9388 6.23417 49.8111 6.31168C49.7482 6.31071 49.4698 6.23059 49.3695 6.38089C49.2693 6.53119 49.4229 6.54735 49.3643 6.71899C49.3638 6.75349 49.2077 6.88914 49.2075 6.90294C49.3248 7.37473 49.4742 7.83818 49.6547 8.29015C49.7422 8.51234 49.963 8.72959 50.0979 9.05604C50.2621 9.54653 50.49 10.014 50.7759 10.4468C50.8718 10.5794 50.9874 10.7814 51.0971 10.9212C51.2069 11.0609 51.3948 11.1328 51.477 11.2444C52.0384 12.033 52.4311 12.8672 52.7342 13.1686C53.0373 13.4701 53.4276 13.552 53.6346 13.7346C53.7181 13.948 53.8305 14.1493 53.9683 14.3332C54.0301 14.4101 54.2875 14.483 54.322 14.5181C54.3564 14.5531 54.3181 14.7872 54.3938 14.8643C54.4696 14.9414 54.5964 14.8675 54.8533 14.9888C55.1102 15.11 55.0582 15.3093 55.2385 15.4087C55.4024 15.4917 55.5751 15.5569 55.7533 15.603C55.8512 15.6045 56.1369 15.6572 56.2131 15.6998C56.2894 15.7424 56.3487 15.9847 56.4524 16.0622C56.5562 16.1397 56.7183 16.0664 56.7524 16.1221C56.9113 16.2488 57.0476 16.4786 57.2276 16.5987C57.6569 16.8813 58.1856 17.062 58.6147 17.3585C59.2376 17.7822 59.7903 18.2187 59.8138 18.5089C59.8114 18.6676 59.5397 18.6081 59.4398 18.7377C59.3398 18.8673 59.5136 18.9322 59.3658 18.992C58.7604 19.2519 57.714 19.0771 57.265 19.1668C57.5114 19.5157 58.1668 19.65 58.548 19.8767C58.8251 20.0535 59.0038 20.2562 59.239 20.4255L59.3499 20.4963C59.8004 20.7655 60.3422 20.9946 60.7026 21.2072C60.8481 21.2992 60.8816 21.3893 61.0061 21.481C61.0908 21.5397 61.1615 21.6162 61.2127 21.7051C61.2113 21.7948 61.2086 21.9673 61.2072 22.0639C61.3084 22.3001 61.3662 22.1699 61.3633 22.8117C61.3605 23.4535 61.3546 23.3775 60.9331 23.4953C60.5868 23.5005 60.2416 23.4579 59.9072 23.369C59.5022 23.258 59.077 23.2374 58.663 23.3086C58.2967 23.4755 58.6545 23.8674 58.4112 24.2294C58.4112 24.2294 58.1664 24.2258 58.1508 24.3291C58.1352 24.4324 58.2038 24.523 57.8392 24.5796C57.4747 24.6361 57.4224 24.4075 56.787 24.3425C56.3703 24.6053 55.8171 24.6451 55.4843 24.9092C55.3853 24.9836 55.4459 25.1364 55.3604 25.2386C55.0982 25.5039 54.8598 25.7912 54.6479 26.0972C54.4677 26.411 54.3198 26.7416 54.2062 27.0843C54.096 27.4277 54.0136 27.7715 53.8746 28.1697L53.7431 28.5266L53.8447 28.7421C53.916 28.8797 53.9794 29.0212 54.0342 29.1659C54.0342 29.1659 54.2081 29.2238 54.1923 29.3409C54.1766 29.458 54.0666 29.3391 54.1135 29.471C54.1604 29.6028 54.3481 29.6746 54.4297 29.8276C54.7232 30.4854 54.8969 31.1889 54.9432 31.906C54.9425 31.9474 54.7936 32.0833 54.7645 32.1518C54.549 32.4054 54.2583 32.5858 53.9333 32.6675C53.6083 32.7492 53.2654 32.728 52.9531 32.6071C52.5839 32.5117 52.4439 32.5302 52.4705 33.0759C52.4692 33.1587 52.6222 33.2163 52.613 33.3611C52.5842 33.594 52.6093 33.8304 52.6864 34.0524C52.8139 34.3995 53.0483 34.6101 53.0602 34.7483C53.1415 35.3776 52.6983 35.0947 53.104 35.5426C53.5098 35.9906 53.4341 36.8177 53.6127 37.4899C53.7358 37.8569 53.8328 38.2321 53.9031 38.6125C53.9005 38.785 53.8559 38.9568 53.8959 39.0816C53.9359 39.2065 54.1391 39.182 54.1729 39.2584C54.1388 39.3629 54.1229 39.4723 54.1259 39.5821L54.125 39.6373C54.1595 39.6724 54.2136 39.7836 54.2139 39.7698C54.2173 39.7881 54.217 39.8069 54.213 39.825C54.2152 39.6801 54.2122 39.8802 54.0388 39.7809C53.8655 39.6816 53.8814 39.5644 53.7916 39.494C53.5793 39.3582 53.3946 39.1845 53.2469 38.9819L52.394 37.5884L51.7353 39.497C51.6631 39.6952 51.5251 39.8634 51.3435 39.9741C51.3435 39.9741 51.1257 40.0329 51.1115 40.0465C50.9538 40.2994 50.9981 40.1482 50.6392 40.2945C50.5757 40.3281 50.4406 40.4571 50.3986 40.4634C49.9704 40.5603 49.5751 40.3611 49.3826 40.5997C49.2757 40.7292 49.3188 41.1094 49.3683 41.5312C49.4177 41.9529 49.4739 42.3887 49.4842 42.6304C49.4763 43.1479 49.3279 43.2422 49.4692 43.6101C49.6104 43.9781 49.4651 43.8723 49.4166 44.2995C49.4155 44.3685 49.5046 44.4941 49.4953 44.6458C49.4859 44.7975 49.5816 44.9301 49.5734 45.0059C49.5652 45.0817 49.3528 45.2717 49.3364 45.4302C49.32 45.5887 49.3886 45.6657 49.3797 45.7898C49.3708 45.9139 49.2922 46.0161 49.2756 46.1884C49.26 46.4195 49.2309 46.6495 49.1881 46.8772C49.1158 47.0348 48.9913 46.9501 48.9197 47.0594C48.848 47.1688 48.7839 47.6855 48.3115 47.4781C48.0754 47.3709 47.9143 47.389 47.8452 47.3328C47.5064 47.0791 47.5593 46.8385 47.3727 46.2351C47.3734 46.1868 47.2612 45.2878 47.0169 45.2564C46.508 45.1451 46.8681 45.8408 46.7066 46.3353C46.6161 46.5727 46.505 46.8019 46.3744 47.0204C46.2169 47.2137 46.1429 47.4605 46.1682 47.7074C46.2262 48.0257 45.912 47.9933 45.8079 48.392C45.8074 48.4265 45.8037 48.6679 45.8036 48.6748C45.7179 48.7908 45.4656 48.8078 45.4007 48.9379C45.3357 49.068 45.5156 49.1951 45.3949 49.3174C45.2741 49.4398 45.1386 49.6172 45.1244 49.6307C44.9045 49.8275 44.5189 49.8906 44.4192 50.0064C44.3195 50.1222 44.5347 50.2291 44.4841 50.3387C44.4335 50.4484 44.0248 50.6284 43.8896 50.7781C43.7545 50.9279 43.8413 51.2054 43.3936 51.2123C43.2182 51.1025 43.0941 50.9283 43.0486 50.7283C43.0032 50.5283 43.04 50.3188 43.1511 50.1457C43.1942 50.0704 43.1544 49.9248 43.2461 49.8779C43.3377 49.831 43.4549 49.957 43.47 49.8813C43.4852 49.8056 43.404 49.625 43.4191 49.5493C43.422 49.363 43.6645 49.0493 43.5363 48.7505C43.2969 48.8504 43.2597 49.0085 43.1448 49.2C43.1442 49.2414 42.9835 49.2321 42.9688 49.2733C42.9542 49.3145 42.9996 49.536 42.9281 49.6385C42.8566 49.7409 42.6039 49.7922 42.518 49.922C42.3106 50.2225 42.2813 50.7673 41.8581 50.9955C41.675 51.0824 41.4106 50.9885 41.3329 51.0425C41.2551 51.0965 41.1797 51.468 40.9938 51.7275C40.7281 51.9878 40.431 52.215 40.1092 52.404C39.7402 52.6645 39.2977 52.8049 38.8439 52.8057C38.7687 52.7325 38.6974 52.6554 38.6306 52.5746C38.5304 52.4801 38.4513 52.3661 38.3981 52.2398C38.3318 52.0041 38.4994 52.0135 38.5364 51.883C38.5734 51.7524 38.5714 51.8836 38.5381 51.7726C38.3409 51.4038 38.7662 51.5001 38.952 51.2406C39.0163 51.1519 38.9585 50.8197 39.0307 50.6759C39.0312 50.6414 39.179 50.5677 39.2006 50.5267C39.3494 50.3053 39.5238 50.1019 39.7205 49.9205C39.9184 49.7088 40.0974 49.4806 40.2555 49.2385C40.3844 49.0403 40.4375 48.7788 40.5382 48.594C40.639 48.4092 40.8638 48.3437 40.8666 48.1574C40.8672 48.1229 40.7785 47.9835 40.7929 47.9561C40.9361 47.7374 41.2108 47.6243 41.3051 47.4049C41.3994 47.1855 41.3121 46.9357 41.3505 46.7154C41.132 46.3669 41.0902 46.8081 40.9036 46.6603C40.8639 46.5148 41.1015 46.539 41.034 46.3793C40.9665 46.2195 40.7943 46.493 40.9036 46.6603C41.1429 47.0229 40.5698 46.9864 40.4637 47.0676C40.3575 47.1488 40.4611 47.254 40.3761 47.3217C40.2911 47.3894 40.0817 47.3585 39.9686 47.4396C39.8555 47.5207 39.542 47.8955 39.2588 48.1189C38.9756 48.3423 38.0576 48.4524 37.8986 48.7881C37.8555 48.8565 37.9361 49.0786 37.8934 49.1262C37.8507 49.1739 37.5643 49.1557 37.3322 49.2418C37.1001 49.328 36.9271 49.6704 36.7228 49.7639C36.5186 49.8574 36.3255 49.6681 36.2192 49.7562C36.113 49.8443 36.0557 49.9263 35.9565 50.0076C35.8573 50.0889 35.7595 50.0874 35.6744 50.162C35.5894 50.2366 35.6362 50.3685 35.601 50.3886C35.5657 50.4088 35.4543 50.3864 35.4053 50.3856C35.2672 50.5252 35.1128 50.6478 34.9452 50.7511C34.6438 51.0048 34.3195 51.2308 33.9766 51.4264C33.5177 51.7023 33.0344 51.7433 33.0334 51.3568C33.0411 50.8531 33.1547 50.7513 33.5236 50.4118C33.6088 50.3303 33.5863 50.4129 33.6648 50.3106C33.7433 50.2082 33.8474 50.2582 33.9495 49.9837C33.7562 49.8219 33.4501 50.1899 33.1472 50.3302C32.9992 50.4059 32.8434 50.466 32.6827 50.5095C32.3805 50.5348 32.0761 50.5114 31.7815 50.4404C31.6627 50.4385 31.481 50.4357 31.3831 50.4342C31.2852 50.4327 31.3075 50.3503 31.2805 50.2877L31.2326 50.2041C31.091 50.0782 30.9385 49.965 30.7764 49.8658C30.6937 49.8287 30.6074 49.7998 30.5189 49.7792L30.3929 49.7772L30.3509 49.7766L30.2448 49.8577C30.02 49.9023 29.8139 50.0121 29.6526 50.1729C29.8465 49.8446 29.9332 49.6597 30.241 49.1951C30.1557 49.2835 30.106 49.3449 29.878 49.6175L29.5279 50.0883L29.2148 50.4424L28.8223 50.9609L28.0591 51.9153C27.7451 52.3246 27.3458 52.8224 27.1959 53.0202L27.1603 53.0679C27.1603 53.0679 27.1603 53.068 27.161 53.0197L27.1635 52.861C27.1821 52.7677 27.1836 52.6718 27.1678 52.578C27.1678 52.578 26.8267 52.9179 26.9873 52.4787C27.1537 52.0934 27.3969 51.7451 27.7025 51.4544C28.1077 51.0258 28.0781 51.5982 28.4566 51.0933C28.564 50.9293 28.4934 50.9697 28.4586 50.9622C28.4237 50.9548 28.4105 50.8993 28.3758 50.8849C28.341 50.8706 28.1442 50.9229 28.004 50.9414C27.8639 50.96 28.0051 50.8793 27.9132 50.94C27.8238 50.9652 27.7303 50.9725 27.638 50.9616C27.5457 50.9507 27.4565 50.9218 27.3756 50.8765C27.2697 50.8299 27.1801 50.7534 27.1181 50.6567C27.0561 50.5599 27.0247 50.4472 27.0275 50.3328C27.0295 50.146 27.0883 49.9642 27.1963 49.8109C27.2828 49.6465 27.3955 49.5794 27.3703 49.3995C27.3137 48.9846 26.8842 49.1918 26.5938 48.9734C26.5385 48.9312 26.4158 48.7084 26.3195 48.6034C26.2232 48.4984 25.9533 48.308 26.1124 47.9653C26.1135 47.8963 26.3114 47.7612 26.2775 47.6917C26.135 47.4065 25.5872 47.1152 25.1597 46.7153C24.9457 46.5325 24.7451 46.3707 24.566 46.1954C24.3868 46.0201 24.2297 45.79 24.0708 45.6633C23.7388 45.4166 23.2379 45.2571 22.8089 44.9537C22.7052 44.8762 22.7073 44.7383 22.5962 44.6814C22.3187 44.5391 21.9063 44.0633 21.5184 43.8158C21.4149 43.2689 21.7191 43.957 21.5831 43.2509C21.5383 42.9811 21.6364 42.9687 21.2406 42.7832C20.995 42.8346 21.3101 43.2604 21.3068 43.4743C21.2103 43.4456 21.1205 43.3979 21.0433 43.3338C20.9661 43.2697 20.9032 43.1908 20.858 43.1018C20.7417 42.9344 20.6479 42.6568 20.511 42.4614C20.3741 42.2661 20.1732 42.1388 19.9815 41.8736C19.79 41.6326 19.6624 41.3483 19.6096 41.0465C19.6179 40.5083 19.7153 40.9929 19.5222 40.355C19.4559 40.1193 19.3745 39.9663 19.2961 39.6062C19.2132 39.0958 19.2212 38.5752 19.3197 38.0675C19.3507 37.7624 19.3972 37.459 19.4593 37.1586C19.5123 36.8972 19.5724 36.6357 19.6254 36.3743C19.6416 36.1154 19.6737 35.8579 19.7212 35.6028C19.7871 35.4106 20.0198 35.2762 20.0852 35.1184C20.0964 34.9102 20.1554 34.7071 20.2576 34.5246C20.3597 34.3421 20.5025 34.1849 20.6751 34.0646C20.9345 34.0272 20.8574 34.4952 20.8712 34.5024C20.8851 34.5095 21.2223 34.4043 21.2406 34.5771C21.2077 34.8579 21.1231 35.1302 20.9906 35.3807C20.8326 35.7251 20.7009 36.0807 20.5966 36.4445C20.5589 36.6164 20.5925 36.7066 20.5892 36.9205C20.4581 37.4164 20.3752 37.9237 20.342 38.4352L19.9318 38.2839C19.5506 38.9682 20.2772 38.5584 20.4046 38.9124C20.3642 38.8151 20.4021 39.0917 20.4326 39.3821C20.4631 39.6724 20.5978 39.9988 20.6044 40.0265C20.5886 40.2562 20.5851 40.4865 20.5938 40.7165C20.6102 40.948 20.6942 41.1699 20.8357 41.3553C21.0434 41.4896 21.0363 41.5101 21.0142 41.5788C20.9903 41.6514 20.9866 41.7291 21.004 41.8036C21.0213 41.878 21.0589 41.9464 21.1126 42.0014C21.2016 42.127 21.3609 42.2192 21.5191 42.3942C21.6773 42.5691 21.6906 42.6176 21.7866 42.7433C21.8902 42.8639 22.0032 42.9764 22.1243 43.0798C22.1243 43.0798 22.2749 43.2892 22.2959 43.2895C22.7214 43.3651 22.295 43.3377 22.6463 43.6882C22.6876 43.7302 22.8492 43.6913 22.8905 43.7334C23.0071 43.8964 23.133 44.0527 23.2678 44.2015C23.4684 44.3495 23.8316 44.376 24.0671 44.5245C24.3026 44.6731 24.2793 44.8383 24.4451 44.972C24.6109 45.1056 24.7437 45.1008 24.8542 45.1922C24.9647 45.2837 24.9417 45.4214 24.921 45.4003C24.9004 45.3793 25.0887 45.4028 25.158 45.4453C25.5175 45.72 25.8459 46.2013 26.2602 46.5458C26.5049 46.6959 26.76 46.8291 27.0235 46.9441C27.1204 47.0077 27.1385 47.1874 27.2005 47.2504C27.4309 47.3946 27.6752 47.5162 27.9295 47.6136C28.082 47.6988 28.1561 47.8724 28.3088 47.9507C28.3088 47.9507 28.4988 47.8776 28.5126 47.8917C28.5263 47.9057 28.6424 48.0869 28.8454 48.0762C29.0197 48.0932 29.1951 48.0959 29.3698 48.0843C29.539 48.092 29.7086 48.0785 29.8742 48.0438C30.0852 47.9642 30.2271 47.8353 30.2686 47.8635C30.3102 47.8918 30.0807 48.2609 30.0721 48.3643C30.0683 48.6127 30.55 48.2059 30.8269 47.9341C30.8788 47.8786 30.9266 47.8193 30.9697 47.7568C31.0411 47.6613 31.1908 47.4635 31.3195 47.2791L31.7695 46.665L31.8839 46.508L32.2557 45.9823C32.2557 45.9823 32.1337 46.1874 32.1047 46.249C31.8326 46.6659 31.7755 46.7409 31.3895 47.2802L31.7539 46.7682C31.8541 46.6179 32.0823 46.3385 32.2108 46.1679L32.2823 46.0723L32.3523 46.0734L32.4844 46.1238L32.7279 46.2104L33.1033 46.3611C33.272 46.448 33.4279 46.5572 33.5668 46.6857L34.1194 47.1289C34.1194 47.1289 34.1195 47.1289 34.1894 47.1299C34.2593 47.131 34.4389 46.8233 34.4099 46.8919L34.2742 47.0761C34.2742 47.0761 34.2231 47.2202 34.2723 47.2003C34.0526 47.5805 33.7429 47.9024 33.3697 48.1388C33.1616 48.4807 33.5217 48.2516 33.6633 48.1433C33.8048 48.035 33.8549 47.9669 33.9256 47.9197C33.9962 47.8725 34.0093 47.9209 34.0801 47.8668C34.1508 47.8127 34.159 47.7299 34.2019 47.6685C34.2941 47.5358 34.376 47.3964 34.4464 47.2513C34.5086 47.0613 34.584 46.8756 34.6718 46.6957C34.6583 46.8402 34.6561 46.9855 34.6651 47.1303C34.6553 47.2782 34.6247 47.4242 34.5744 47.5638C34.4477 48.0726 34.5352 47.8254 34.3715 48.0162C34.3715 48.0162 34.2918 48.2083 34.2703 48.2424C34.2488 48.2766 34.1424 48.3716 34.0782 48.4535C33.9357 48.6694 33.7683 48.8682 33.5794 49.0462C33.4167 49.1679 33.2846 49.1106 33.1154 49.1978C33.0519 49.2313 32.9382 49.3538 32.8465 49.4076C32.7547 49.4614 32.6511 49.3701 32.5568 49.5895C32.4625 49.809 32.7999 49.7176 32.9687 49.6511C33.0606 49.6172 33.15 49.5769 33.2363 49.5309L33.3634 49.457C33.3634 49.457 33.478 49.2655 33.4921 49.2588C33.5062 49.2521 33.5819 49.3431 33.6455 49.3026C33.6859 49.2341 33.7219 49.1632 33.7536 49.0903C33.8383 49.0364 33.8793 49.0923 33.9646 49.0039C34.0499 48.9155 34.1066 48.868 34.1988 48.7866C34.291 48.7052 34.4315 48.659 34.5539 48.4331C34.6042 48.3442 34.635 48.1583 34.6639 48.0967C34.7574 47.9325 34.8405 47.9958 34.9055 47.8657C34.9704 47.7355 34.9066 47.7898 34.9843 47.7358L35.1757 47.5731C35.3103 47.4578 35.4449 47.3425 35.6217 47.2141C35.7985 47.0857 35.8213 46.9826 35.8636 46.9626C36.0187 46.8821 36.0872 46.9659 36.2209 46.9128C36.5175 46.7241 36.9307 46.2335 37.2391 46.1899C37.3653 46.2009 37.4897 46.2284 37.6087 46.2716L37.8867 46.3793C37.9957 46.5673 37.7363 47.0672 37.4153 47.4764C36.8383 48.056 36.189 48.5609 35.4829 48.9789C35.4008 49.0393 35.3246 49.1075 35.2558 49.1825C35.1928 49.2353 35.1358 49.2946 35.0854 49.3593C34.9926 49.4821 34.887 49.508 34.8157 49.5966C34.7444 49.6852 34.6075 50.4148 34.3144 50.3758Z" fill="white" stroke="white" stroke-width="3.10104" stroke-linecap="round" stroke-linejoin="round"/>
</svg>
