<svg width="68" height="66" viewBox="0 0 68 66" fill="none" xmlns="http://www.w3.org/2000/svg">
<path fill-rule="evenodd" clip-rule="evenodd" d="M42.8918 59.5452C42.8918 59.4551 42.5779 59.3108 42.5599 59.3288C42.542 59.3469 42.5599 59.8429 42.5599 59.9151C42.5599 59.9872 42.4703 59.9151 42.4076 59.9151H42.2999C42.1981 59.8171 42.0869 59.7295 41.968 59.6535C41.5334 59.4527 41.114 59.2207 40.7126 58.9592L40.4976 58.7699C40.4169 58.6978 40.3362 58.5984 40.2734 58.5984C40.1345 58.5398 39.9904 58.4947 39.843 58.4633C39.843 58.4633 39.5557 58.3911 39.5019 58.3911C39.4481 58.3911 39.4303 58.4723 39.4034 58.4633C39.233 58.4182 38.991 58.2559 38.8206 58.2108C38.6503 58.1657 38.5337 58.2108 38.3543 58.2108H38.184C38.1123 58.2108 38.0941 58.1207 38.0045 58.1027C37.7803 58.0396 37.3678 57.9314 37.1077 57.8953C36.9767 57.869 36.8481 57.8327 36.7224 57.787L36.5162 57.7148L36.4711 57.8863L36.3905 58.2379C36.3277 58.4813 36.265 58.7248 36.2022 58.9863L35.8971 60.2847C35.7446 60.9068 35.5477 61.7093 35.3953 62.2954C35.3056 62.6831 35.1797 63.197 35.0362 63.8101C34.9824 64.0085 35.0362 63.9455 35.0362 63.9725H35.0993L35.2245 64.0355C35.3101 64.0863 35.408 64.113 35.5074 64.113C35.6067 64.113 35.7042 64.0863 35.7898 64.0355C35.8884 63.9724 35.9512 63.5668 36.0499 63.4856H36.1663C36.1663 63.4315 36.1663 63.2512 36.1663 63.2692C36.1663 63.2873 36.1663 63.224 36.1663 63.3322C36.1663 63.4404 36.1663 63.2421 36.1663 63.197C36.1663 63.1519 36.0765 62.9175 36.0227 62.7823C35.9473 62.5806 35.8576 62.3846 35.7539 62.1961C35.6552 62.0428 35.4669 61.9888 35.3235 61.8626C35.3235 61.8626 35.3235 61.8174 35.3235 61.7633C35.3194 61.7183 35.3194 61.6731 35.3235 61.6281C35.3235 61.538 35.3235 61.4389 35.4132 61.2676C35.4132 61.2676 35.5744 60.6723 35.5923 60.6182C35.6371 60.4198 35.7449 59.9781 35.7898 59.8248L36.2561 58.2198C36.2561 58.0665 36.3634 57.8771 36.4172 57.6878C36.4358 57.6081 36.4599 57.5297 36.489 57.4533C36.489 57.3632 36.4893 57.4535 36.5521 57.3813C36.6173 57.3604 36.6803 57.3331 36.7404 57.3001C36.7404 57.3001 36.7404 57.3001 36.7404 57.3001L36.8656 57.246C37.0515 57.1356 37.2206 56.999 37.3678 56.8403C37.1272 56.9634 36.8963 57.1051 36.6773 57.264L36.5521 57.3362C36.5521 57.3362 36.5518 57.3363 36.489 57.4084L36.4264 57.5977C36.3368 57.8682 36.247 58.1386 36.1484 58.4182C35.9601 58.9952 35.7538 59.6535 35.4938 60.5191L35.4312 60.7084H35.5117H35.7267C35.9061 60.7084 36.0586 60.7806 36.2828 60.7987C36.2828 60.7987 36.2828 60.8527 36.2828 60.7355C36.3276 60.483 36.3457 60.3387 36.3726 60.1764C36.5071 59.3739 36.4442 59.7707 36.7491 57.9673C36.794 57.6968 36.8297 57.4804 36.8656 57.3001H36.9107C36.9426 57.2866 36.9703 57.2647 36.9913 57.2369C37.0128 57.2184 37.0291 57.1945 37.0386 57.1676C37.048 57.1407 37.0503 57.1118 37.0451 57.0837C37.0451 57.0837 36.9912 57.0837 36.9374 57.0837H36.8927L36.8476 57.3091C36.7938 57.6067 36.7311 57.8952 36.6773 58.2108C36.6235 58.5264 36.561 58.7429 36.5162 58.9863C36.5162 59.0945 36.4623 59.2026 36.4444 59.3108V59.4462C36.4444 59.4462 36.3634 59.3739 36.3813 59.2747C36.396 59.1998 36.4202 59.1271 36.4531 59.0583C36.4627 59.0313 36.4783 59.0068 36.4982 58.9863C36.4982 58.9863 36.4983 58.824 36.5521 58.7429L36.8568 57.4265L36.9374 57.0566V56.9666L37.0359 56.8944L37.1528 56.8132C37.2731 56.7273 37.3612 56.6036 37.4037 56.4616C37.4037 56.4616 37.4037 56.4616 37.4037 56.4616C37.3319 56.4061 37.2495 56.3661 37.1616 56.3443H36.9646V57.4714C36.9646 57.9312 36.9646 58.3731 36.9646 58.86V59.2208C36.9646 59.5003 36.8659 56.8132 36.9107 57.9493V58.2469V58.8961V59.2927C36.9107 59.2927 36.9104 59.374 36.8476 59.4191C36.7849 59.4642 36.6775 59.6083 36.5968 59.7165C36.1336 60.0973 35.5808 60.352 34.9916 60.4559C34.7418 60.5194 34.4865 60.5588 34.2293 60.5733C33.904 60.6005 33.5772 60.6005 33.252 60.5733C33.056 60.5597 32.8614 60.5326 32.6692 60.492L32.0505 60.3388C31.5863 60.1938 31.1383 60.0003 30.7141 59.7616C30.3554 59.2387 31.064 59.2117 30.8936 58.6797C30.7233 58.1477 31.3148 58.2469 31.9336 58.292C32.2162 58.3546 32.5091 58.3555 32.7922 58.2949C33.0753 58.2342 33.342 58.1133 33.5747 57.9403C33.5298 57.7689 33.1084 57.6608 32.7497 57.5075C32.391 57.3542 32.1758 57.5075 31.853 57.3272C31.173 56.891 30.6171 56.2853 30.239 55.569C30.0645 55.3704 29.9084 55.1561 29.7727 54.9288C29.6751 54.6553 29.5969 54.3749 29.5393 54.0901C29.3873 53.7405 29.2556 53.3823 29.1448 53.0172C29.1401 52.623 29.1549 52.2287 29.1895 51.836C29.1895 51.5204 29.082 51.0967 29.0371 50.745C28.9923 50.3934 28.8222 49.9156 28.9298 49.7262C29.154 49.3385 29.2254 49.8434 29.3957 49.654L35.8883 55.064C35.6462 55.2443 36.1214 55.3886 35.8883 55.7222C35.5201 55.9088 35.1039 55.978 34.6956 55.9205C34.5307 55.8742 34.3759 55.7978 34.2384 55.6951C33.8887 55.4156 33.7363 54.7214 33.3417 54.4329C33.1572 54.3334 32.9503 54.2837 32.741 54.2887C32.5258 54.2887 32.1222 54.0812 31.8442 54.4419C31.7187 54.6222 31.9066 54.6493 31.6376 54.6944C31.521 54.6944 31.0999 55.3345 30.9116 55.5239C30.7233 55.7132 30.5708 55.7492 30.4094 55.9205C30.248 56.0919 30.3555 56.2453 30.3196 56.2813C30.2837 56.3174 30.1225 56.3353 30.0328 56.4075C29.6562 56.7321 28.9654 57.174 28.3466 57.6519C28.2928 57.697 28.2124 57.9854 28.1675 58.0125C27.9792 58.1838 27.6921 58.1656 27.5037 58.364C27.3154 58.5624 27.1093 58.4723 26.6968 58.6977C26.5802 58.7608 26.4279 59.0313 26.3561 59.0673C25.6918 59.3481 24.9911 59.5333 24.2754 59.6174C24.114 59.6174 23.9348 59.897 23.7465 59.9151C23.2607 60.0284 22.7538 60.0128 22.2757 59.8699C22.0779 59.7878 21.9161 59.6371 21.819 59.4453C21.722 59.2535 21.6963 59.033 21.7468 58.8239C21.8442 58.4928 22.0092 58.1857 22.2311 57.9222C22.4463 57.6607 23.02 57.4443 22.6882 57.0205C22.4452 56.7724 22.1321 56.6057 21.7914 56.5429C21.4507 56.3625 21.0023 56.3083 20.6885 56.155C20.5181 56.0919 20.3839 56.155 20.1328 56.155C20.1328 56.155 20.1777 55.9296 20.1328 55.9747C19.7652 56.2001 18.9401 55.4789 18.4738 55.1633C18.4738 55.1633 18.3842 55.2715 18.3214 55.1633C18.2586 55.0551 18.3214 54.9559 18.3214 54.9649C18.0703 54.8387 17.8372 54.9648 17.6489 54.8025C17.4468 54.5779 17.2635 54.3365 17.1015 54.0811C16.8146 53.7475 16.4828 53.477 16.2048 53.1794C16.0533 53.0289 15.9183 52.8628 15.8015 52.6837C15.7141 52.5612 15.6584 52.4184 15.64 52.2688C15.64 51.9892 15.8194 51.6197 15.5055 51.4754C15.4338 51.4303 15.2636 51.5204 15.2547 51.4122L15.3173 51.1148L16.6891 51.764C16.5236 51.5992 16.379 51.4144 16.2587 51.2139C16.0793 50.3122 17.0749 48.8336 16.0078 49.2483C15.8733 49.2483 15.7565 49.5099 15.6041 49.555C15.4516 49.6001 15.2276 49.4738 15.0931 49.5008C14.9586 49.5279 14.6896 49.7533 14.6447 49.7533C14.3309 49.7533 13.9988 49.5728 13.7029 49.5638C13.6401 49.5638 13.515 49.7443 13.4612 49.7443C13.2729 49.7443 13.1382 49.5639 12.8692 49.5189C12.6002 49.4738 12.5371 49.5189 12.3578 49.5189C12.2552 49.4862 12.1668 49.4194 12.1069 49.3296C11.7034 49.2394 11.4162 49.5098 11.2728 49.1942C11.314 49.0051 11.4149 48.8344 11.56 48.7072C11.4076 48.0941 11.5601 49.086 11.4076 48.5721C11.3628 48.4278 11.4076 48.2926 11.4076 48.1573C11.4883 47.95 11.6942 48.013 11.9274 47.8688C12.1605 47.7245 12.3043 47.481 12.4567 47.3999C12.7975 47.2286 13.1471 47.3187 13.2458 47.1564C13.8645 46.2547 12.4926 46.4442 12.1787 46.3811C11.61 46.2576 11.0544 46.0794 10.5197 45.849C10.2058 45.7318 9.75758 45.7047 9.33612 45.5153C9.24286 45.468 9.14678 45.4259 9.04888 45.3892C8.71208 45.2269 8.39104 45.0338 8.08954 44.8122C7.95512 44.721 7.8262 44.6215 7.70378 44.5146C7.70378 44.5146 7.48862 44.6138 7.53346 44.5146C7.70383 44.1629 7.42574 44.3613 7.20156 44.2892C6.97738 44.217 6.99571 44.0006 6.71772 43.8113C6.67289 43.8113 6.40354 43.8113 6.37663 43.8113C6.20625 43.685 6.08068 43.4957 5.89236 43.3243C5.70405 43.153 5.60539 42.9817 5.42604 42.8284C4.86181 42.42 4.36295 41.9275 3.94652 41.3678C3.94652 41.3678 3.99151 41.0883 3.8839 40.9711C3.56465 40.5113 3.3954 39.963 3.39963 39.4022C3.40601 39.1315 3.49703 38.8696 3.65972 38.6538C4.08752 38.1956 4.66877 37.9128 5.29162 37.8602C5.38129 37.8602 5.57871 37.9866 5.65942 37.9775C5.74013 37.9685 6.09879 37.725 6.29607 37.6709C6.49335 37.6168 6.66373 37.716 6.74443 37.6709C7.1928 37.2561 6.66378 36.7692 6.34992 36.5077C6.03607 36.2462 5.92839 35.7865 5.38138 35.6963C5.211 35.6963 4.84322 35.1193 4.58316 34.8849C4.49349 34.8038 4.3142 34.7497 4.18865 34.6595C4.06311 34.5693 4.18878 34.4611 4.09014 34.416C3.9915 34.3709 3.81208 34.416 3.79414 34.416C3.77621 34.416 3.71347 34.0553 3.60586 33.911C3.49826 33.7668 3.28309 33.7848 3.21135 33.6766C3.13962 33.5684 3.25619 33.3971 3.21135 33.2077C3.16652 33.0184 2.74491 32.6848 2.61937 32.3602C2.5356 32.0375 2.47591 31.7089 2.44029 31.3773C2.30578 30.8183 1.83912 30.1421 2.08124 29.6913C2.16195 29.547 2.42228 29.5831 2.59266 29.4569C2.76304 29.3306 2.8345 29.0782 3.20216 29.0151C3.42634 28.97 3.93757 29.015 4.18865 28.9158C4.18865 28.9158 4.28754 28.7716 4.43998 28.7626C4.59243 28.7536 5.21109 28.8167 5.47114 28.8167C5.73119 28.8167 5.82078 28.8167 6.05393 28.8167C6.2482 28.855 6.44925 28.8379 6.63453 28.7679C6.81982 28.6978 6.98196 28.5773 7.10304 28.4198C7.27083 28.2828 7.42431 28.1287 7.5606 27.96C7.64131 27.7977 7.46191 27.4552 7.50675 27.2388C7.55158 27.0224 7.68583 26.896 7.68583 26.7968C7.65742 26.3055 7.59171 25.8173 7.48879 25.3362C7.48879 25.1649 7.2913 25.0567 7.27337 24.9125C7.20007 24.2401 7.09244 23.572 6.95067 22.9108C6.87451 22.5864 6.76938 22.2695 6.63672 21.964C6.50862 21.6906 6.33601 21.4406 6.12574 21.2246C6.00916 21.0533 6.12564 20.8639 6.01803 20.5483C5.82994 20.218 5.65948 19.878 5.50705 19.5296C5.42634 19.25 5.50696 18.9884 5.41729 18.7179C5.41729 18.6638 5.27391 18.6188 5.30081 18.5467C5.32772 18.4745 5.42606 18.4384 5.44399 18.4835C5.34535 18.24 5.1125 18.15 5.07663 17.9697C4.97598 17.3862 5.0125 16.7869 5.18391 16.2203H5.47114C5.47114 16.2203 5.72216 16.1754 5.62352 16.1664C5.83873 16.1664 5.9196 16.4098 6.00927 16.3918C6.906 16.2746 6.65492 14.931 6.45764 14.3089C6.4055 13.5732 6.44738 12.8338 6.58286 12.1089C6.59671 11.9198 6.59671 11.7298 6.58286 11.5407C6.58286 11.4145 6.52044 11.2884 6.49354 11.1802C6.43974 10.9367 6.41284 10.7292 6.49354 10.621C6.57425 10.5128 7.39017 10.6212 7.50675 10.5581C7.75783 10.3777 7.42597 9.85456 7.43494 9.43979C7.43494 9.34061 7.58733 9.33163 7.60526 9.25048C7.6232 9.16933 7.6054 8.44814 7.74888 8.26781C7.89236 8.08747 8.32281 8.26768 8.43938 8.14145C8.53116 7.95737 8.57135 7.75175 8.55585 7.54643V7.14073C8.55585 7.08663 8.55585 6.96024 8.55585 6.97827L8.67233 7.10463C9.00412 7.46529 9.39879 7.91606 9.67677 8.16853C9.79432 8.25163 9.91727 8.32693 10.0446 8.39394C10.0954 8.43037 10.1535 8.45508 10.2149 8.46615V8.46615L10.3493 8.37589L10.6361 8.1956C11.0217 7.94314 11.5329 7.7178 11.5329 7.37517L11.757 6.90629L11.8739 6.67185C11.8774 6.63888 11.8774 6.60553 11.8739 6.57257C11.8739 6.43732 11.8201 6.32018 11.8021 6.20296C11.7931 6.17359 11.7931 6.14208 11.8021 6.11271C11.8021 6.11271 11.8738 6.11271 11.9007 6.11271C11.9276 6.11271 11.9543 6.16687 11.9812 6.17589L12.053 6.11271C12.1415 6.03738 12.2148 5.94547 12.2685 5.84217C12.2685 5.752 12.1878 5.55371 12.2685 5.47256C12.3523 5.40895 12.4511 5.36864 12.5553 5.35545C12.7644 5.34733 12.963 5.26041 13.1113 5.11199C13.4916 4.556 13.9081 4.02586 14.3579 3.52505C14.4655 3.41685 14.5907 3.4259 14.6894 3.32671C14.788 3.22753 14.9315 2.90286 15.1018 2.80368C15.2722 2.7045 15.3353 2.87581 15.407 2.80368C15.6402 2.60531 15.8554 2.27171 16.1155 2.13646C16.3755 2.00121 16.4828 2.13637 16.6532 2.0462L17.1554 1.87494C17.2832 1.80151 17.435 1.782 17.5771 1.82079C17.5771 1.82079 17.7027 1.82079 17.7207 1.82079C17.7386 1.82079 17.7207 2.10035 17.7207 2.10035C17.7207 2.10035 17.9086 1.87497 18.0342 1.90202C18.3408 1.95109 18.6255 2.09253 18.8503 2.30772C18.9759 2.41592 19.3882 2.44299 19.5676 2.7766C19.7681 3.08915 19.9054 3.43838 19.9713 3.8044C19.9926 4.0237 19.9703 4.24523 19.9056 4.45577C19.8409 4.66631 19.7353 4.86175 19.5947 5.03076C19.4805 5.11261 19.3727 5.20307 19.272 5.3013C19.1734 5.3013 19.0118 5.11202 18.9042 5.14809C18.5993 5.22924 18.3841 5.46353 18.1957 5.45451C18.1419 5.45451 18.0433 5.36445 17.9716 5.3374L17.8459 5.2652C17.8136 5.25639 17.7797 5.25639 17.7474 5.2652C17.7474 5.2652 17.5681 5.45452 17.5411 5.46354C17.5142 5.47255 17.5411 5.37331 17.4693 5.40036C17.3976 5.42741 17.2004 5.66202 17.0569 5.80628C16.9134 5.95055 16.9044 5.89641 16.8147 5.98657C16.465 6.33822 16.0706 6.88817 16.1155 7.04145C16.1603 7.19473 16.2317 6.90633 16.2407 6.95141C16.2497 6.9965 16.1331 7.20374 16.2407 7.25784C16.3483 7.31194 16.3303 7.25784 16.3931 7.25784C16.5065 7.24734 16.6207 7.26601 16.725 7.31199C17.1554 7.56446 17.3798 7.92512 17.8371 8.21365C18.2945 8.50219 18.169 8.32178 18.5635 8.8177C18.9581 9.31361 19.2181 9.24162 19.6665 9.63835C20.1149 10.0351 20.6077 10.6481 21.1009 11.0719C21.5941 11.4956 22.1591 11.8293 22.6702 12.2531C23.1814 12.6769 23.8364 13.4343 24.4103 13.8671C24.5627 13.9482 24.7329 13.813 24.8853 13.8671L24.9659 13.7859C25.2618 13.4703 25.4954 13.4072 25.7913 13.1186C26.2697 12.6098 26.7188 12.074 27.1364 11.5137C27.5112 11.0661 27.9124 10.6416 28.3379 10.2424C28.8019 9.78389 29.2897 9.35054 29.7994 8.94405L30.5797 8.26781C30.7949 8.09813 31.0014 7.91748 31.1984 7.72672C31.3867 7.53737 31.4853 7.27598 31.6468 7.14073C31.7588 7.05915 31.8789 6.98966 32.0054 6.93336L32.1039 6.87921H32.1849C32.3373 6.79806 32.4808 6.49154 32.6153 6.47351C32.7498 6.45547 33.0997 6.89717 33.1893 6.58159C33.2017 6.54269 33.2271 6.50953 33.2616 6.48803C33.2961 6.46654 33.3375 6.45825 33.3776 6.46448C33.3988 6.48288 33.4258 6.49288 33.4538 6.49288C33.4818 6.49288 33.5088 6.48288 33.53 6.46448C33.5461 6.42753 33.5641 6.39132 33.5838 6.35618C33.5838 6.35618 33.5838 6.35624 33.5838 6.41935C33.5838 6.48247 33.5838 6.41935 33.5838 6.41935V6.3652C33.5838 6.3652 33.5838 6.31103 33.5838 6.293C33.6013 6.25213 33.6221 6.21301 33.6465 6.17589C33.6465 6.12179 33.7721 6.01364 33.7721 6.00462C33.7721 6.00462 33.5749 6.13974 33.6377 6.09466C33.7005 6.04957 33.5118 6.20296 33.5387 6.20296C33.5362 6.23439 33.5406 6.26605 33.5514 6.29564C33.5623 6.32523 33.5796 6.35199 33.6018 6.37423C33.6646 6.42833 33.6015 6.58166 33.5567 6.65379C33.4664 6.72315 33.3626 6.77226 33.252 6.79798C33.1198 6.85055 32.981 6.88404 32.8395 6.89726C32.5794 6.89726 31.862 6.77993 31.7186 6.77993C31.5751 6.77993 31.3331 6.77993 31.1537 6.77993H30.9204L33.6106 13.9932L33.53 14.0925C33.53 14.0925 33.53 14.1376 33.53 14.0925C33.7146 13.8591 33.9183 13.642 34.1395 13.4433L34.2831 13.2809L34.4534 13.1277C34.5341 13.0566 34.6212 12.9933 34.7135 12.9384L34.8751 12.8122C34.9212 12.7792 34.9728 12.7547 35.0275 12.74H34.9649L34.6868 12.821H34.4088H34.3011H34.3996C34.4623 12.821 34.3547 12.821 34.3996 12.821C34.4444 12.821 34.633 12.821 34.6868 12.821C34.7406 12.821 34.624 12.8662 34.6868 12.8842L34.9649 12.9293C35.0545 13.0015 35.0363 13.0736 35.0721 13.1908C35.1969 13.347 35.3137 13.5096 35.422 13.6778C35.5027 13.8761 35.5027 14.0655 35.2517 14.1196C34.7674 14.0294 35.2515 13.9302 34.9018 13.849C34.5521 13.7679 34.9018 13.9842 34.6956 14.0293C34.4893 14.0744 34.1668 13.9392 34.0861 14.0293C34.0054 14.1195 34.2203 14.3629 34.2113 14.4802C34.2023 14.5974 33.9693 14.8229 33.9245 15.0574C33.8797 15.2918 33.9783 15.463 33.9245 15.6343C33.7102 16.3327 33.3062 16.9572 32.7585 17.4376C32.6598 17.5188 32.4987 17.4377 32.3732 17.5008C32.2476 17.5639 32.1041 17.8163 31.9068 17.8704C31.7096 17.9245 31.1355 17.7893 30.8485 17.8704C30.3195 17.9696 30.0687 18.4744 29.5844 18.6818C29.4679 18.7359 29.2258 18.6819 29.1361 18.7631C28.894 18.9344 28.7862 19.2139 28.5261 19.4032C28.2661 19.5926 27.7639 19.7189 27.4052 19.9353C27.0465 20.1517 26.8582 20.5033 26.5085 20.6025C26.1588 20.7017 25.6657 20.4311 25.3429 20.5213C24.8721 20.7858 24.4325 21.1034 24.0333 21.468C24.0333 21.468 24.123 21.6032 24.0333 21.6213C23.4129 21.9706 22.8503 22.4149 22.3655 22.9379C22.2579 23.019 22.1414 22.9377 22.0428 23.0008C21.9093 23.1401 21.7511 23.2534 21.5765 23.3346C21.4509 23.4067 21.4599 23.6049 21.3702 23.659C21.0926 23.8006 20.8337 23.9763 20.5992 24.1821C20.5095 24.2722 20.339 24.1821 20.2314 24.2633C20.0937 24.425 19.9438 24.5757 19.783 24.7141C19.783 24.7141 19.8727 24.9304 19.783 24.8673C19.3974 24.5788 19.5768 25.6247 19.3705 25.769C19.1643 25.9133 18.9221 25.7148 18.6441 25.6968C17.9974 25.7635 17.3618 25.9119 16.7521 26.1386C16.6894 26.1386 16.6355 26.4452 16.4561 25.9493C16.6983 26.0034 17.003 25.6248 17.4693 25.3633C17.5411 25.3633 17.7026 25.4264 17.7833 25.3633C17.864 25.3002 17.8817 25.0387 17.9624 24.9486C18.0431 24.8584 18.1867 25.0027 18.2943 24.9486C18.4019 24.8945 18.348 24.7502 18.4466 24.6961C18.5453 24.642 18.7517 24.696 18.8503 24.6239C19.2628 24.3353 19.5498 23.7222 19.9354 23.4517C19.9892 23.4066 20.0791 23.2894 20.1687 23.2984C20.2584 23.3075 20.3479 23.4967 20.4376 23.4517C20.5273 23.4066 20.375 23.1903 20.3929 23.1452C20.4109 23.1002 20.572 23.1993 20.59 23.1452C21.0204 22.6223 21.8005 22.3246 22.3834 21.6393C22.5538 21.45 22.5986 21.1254 22.7779 20.9811C23.2891 20.5213 24.0513 20.4582 24.3293 20.0795C24.392 19.9893 24.4189 19.5837 24.5175 19.5386C24.6162 19.4935 24.7238 19.7008 24.7597 19.7008C24.9839 19.7008 24.957 19.5204 25.2619 19.6196C25.5668 19.7188 25.7643 19.8541 25.9616 19.7369C26.1589 19.6197 26.2306 19.4214 26.4279 19.2951C26.6252 19.1689 26.8314 19.2228 26.9928 19.1417C27.4232 18.9163 27.5757 18.4385 27.9434 18.168C28.0599 18.0779 28.3198 18.096 28.4723 17.9968C28.6247 17.8976 28.8042 17.5638 29.0284 17.3745C29.2526 17.1851 29.405 17.3114 29.5126 17.2393C29.8534 17.0319 29.6827 16.7974 30.1221 16.9507C30.2061 16.9956 30.293 17.0348 30.3822 17.068C30.4988 17.068 30.4539 16.8065 30.5885 16.8065C30.723 16.8065 30.8933 17.0049 30.965 17.0139C31.1605 17.001 31.3555 16.9769 31.5482 16.9417C31.6738 16.9417 31.6828 16.6803 31.8263 16.554C31.9698 16.4278 32.3462 16.4007 32.5076 16.0581C32.5076 16.0581 32.4002 15.9048 32.4629 15.8688C32.6711 15.749 32.8396 15.5702 32.9472 15.3547C32.9472 15.2375 32.8662 15.0211 32.8841 14.9039C32.9021 14.7867 33.0904 14.6063 33.1442 14.408C33.1766 14.1524 33.1262 13.8933 33.0006 13.6688C32.9468 13.4614 32.9469 13.3531 33.2787 13.3531C33.3952 13.3531 33.2786 13.299 33.431 13.3531C33.5228 13.3734 33.6156 13.3885 33.7091 13.3982C33.9781 13.3982 34.0052 13.3171 33.9065 13.2179C33.8079 13.1187 33.745 13.1457 33.7809 13.1367C33.8168 13.1277 33.9604 13.1367 33.9245 13.1367C33.8044 13.0552 33.6748 12.9886 33.5387 12.9384C33.467 12.9384 33.4672 12.8932 33.4761 12.8842C33.4851 12.8752 33.4761 12.8842 33.4761 12.8842H33.7183C33.8736 12.8934 34.0293 12.8934 34.1846 12.8842H34.3996H34.5165C34.5955 12.8771 34.6734 12.8619 34.7494 12.8391L34.9736 12.7761L34.8479 12.8391L34.7135 12.9474C34.5887 13.0228 34.4714 13.1104 34.3637 13.2089L34.4893 13.1006L34.3103 13.254C34.2397 13.3216 34.1736 13.3939 34.1128 13.4704L33.745 13.831C33.5394 14.0559 33.3563 14.3006 33.1981 14.5614L29.6112 6.44643C29.6919 6.44643 29.8802 6.44648 30.3017 6.50058C30.7231 6.55468 30.7767 6.50041 31.4313 6.54549C31.6017 6.54549 32.086 6.54549 32.1218 6.54549C32.1577 6.54549 32.122 6.46444 32.2834 6.41935H32.5435L32.8123 6.34715C32.9336 6.32061 33.0537 6.28763 33.1714 6.24809C33.2858 6.20569 33.3964 6.1543 33.5028 6.09466C33.5541 6.07425 33.6025 6.0471 33.6465 6.01365L33.7183 5.9595C33.7183 5.9595 33.5926 6.12177 33.5747 6.15784C33.5559 6.19219 33.5411 6.22857 33.53 6.26614L33.4223 6.46448C33.3771 6.56001 33.341 6.65949 33.3146 6.76188C33.3146 6.81598 33.3146 6.86121 33.3146 6.91531C33.3146 6.96941 33.2697 7.05055 33.2428 7.1317L33.1801 7.38419C33.1801 7.46534 33.1801 7.58237 33.1801 7.63647C33.1801 7.55532 33.1801 7.46523 33.1801 7.49228C33.1218 7.67045 33.0856 7.85529 33.0724 8.04239C33.0641 8.05359 33.0534 8.06255 33.0409 8.06881C33.0285 8.07507 33.0145 8.07849 33.0006 8.07849C32.9867 8.07849 32.9732 8.07507 32.9608 8.06881C32.9483 8.06255 32.9376 8.05359 32.9292 8.04239C32.8629 7.9855 32.782 7.94796 32.6959 7.93408C32.6046 7.91154 32.5091 7.91154 32.4178 7.93408C32.2971 8.00027 32.1854 8.08214 32.0859 8.17755C31.9533 8.29787 31.8361 8.4341 31.7365 8.58326C31.4165 8.8336 31.0742 9.05391 30.7141 9.24145C30.2179 9.5518 29.7978 9.97111 29.4855 10.4678C29.2613 10.9637 29.4855 10.7112 28.8488 11.117C28.2334 11.6002 27.7082 12.1894 27.2975 12.8571C26.8491 13.4883 27.0375 12.9384 26.6429 13.1999C26.2795 13.5757 25.9353 13.97 25.6118 14.3811C25.4145 14.6246 25.2442 14.9941 25.0649 15.1745C24.9245 15.3183 24.768 15.4454 24.5986 15.5531C24.4102 15.3457 24.2129 15.1745 24.0425 15.0122C23.7286 14.7778 23.4058 14.8319 23.1457 14.5704C22.8857 14.3089 22.8678 13.9843 22.545 13.6688C22.3746 13.4884 22.3028 13.6686 22.0428 13.5063C21.7827 13.344 21.5675 12.8663 21.3882 12.749C21.1825 12.6201 20.9663 12.5084 20.7423 12.4153C19.714 11.6868 18.7538 10.8659 17.873 9.96283C17.622 9.74643 17.4515 9.80057 17.1466 9.55712C16.8417 9.31367 16.6086 9.02519 16.2499 8.70961C16.0943 8.5548 15.9263 8.41309 15.7477 8.28586L15.6492 8.22268H15.5861C15.5749 8.21838 15.563 8.21633 15.5511 8.21673C15.5391 8.21714 15.5274 8.22006 15.5165 8.2251C15.5056 8.23014 15.4961 8.23712 15.488 8.24601C15.48 8.2549 15.4736 8.26549 15.4696 8.27683V8.27683L15.5235 8.16853C15.6939 7.87999 15.9719 7.32096 15.9719 7.26686C16.0194 7.14202 16.0826 7.02393 16.1601 6.91531C16.2903 6.69726 16.4072 6.47143 16.51 6.23906L16.6352 5.94145V5.88729V5.97755C16.6559 5.94744 16.6714 5.91376 16.6803 5.87827C16.6803 5.80613 16.6803 5.93237 16.6803 5.87827C16.6803 5.82417 16.9136 5.40945 17.0122 5.24715C17.1109 5.08485 17.1018 5.24708 17.1646 5.17494C17.2274 5.10281 17.2901 5.03071 17.3529 4.97661C17.5954 4.78307 17.8501 4.60552 18.1152 4.44477C18.4122 4.24644 18.7273 4.0773 19.0566 3.93978C18.9759 3.47993 18.6709 3.55196 18.5184 3.38065C18.366 3.20933 18.4647 3.02903 18.384 2.96592C18.3033 2.9028 18.07 3.05618 17.9624 3.0652C17.8548 3.07421 17.6754 2.75856 17.5499 2.76758H17.3437C17.2727 2.79216 17.2037 2.8224 17.1374 2.85783C17.0567 2.85783 17.0298 3.08307 16.8953 3.12815C16.7608 3.17324 16.6894 2.96598 16.5818 3.02909C16.4854 3.06434 16.4013 3.12695 16.3397 3.20938C16.2859 3.29053 16.2588 3.49802 16.196 3.5431C16.1333 3.58819 15.9089 3.45294 15.7923 3.5431C15.6758 3.63327 15.685 3.81353 15.5953 3.92173C15.398 4.16518 15.0212 4.06606 14.9495 4.43574C14.9495 4.52591 14.9495 4.67905 14.9495 4.74216C14.9495 4.80528 14.6895 4.86842 14.5909 4.99466C14.4922 5.12089 14.591 5.25628 14.5282 5.36448C14.4655 5.47268 14.3936 5.30136 14.3487 5.36448C14.3039 5.4276 14.3487 5.66193 14.3487 5.71603C14.3487 5.77013 14.1871 5.6439 14.1692 5.71603C14.1513 5.78816 14.232 5.98663 14.1692 6.04073C14.1064 6.09483 13.99 6.04073 13.9183 6.04073C13.8466 6.04073 13.9185 6.21202 13.8736 6.24809H13.8106C13.6898 6.28517 13.5731 6.33339 13.4612 6.39228C13.3984 6.44638 13.4611 6.57261 13.4073 6.61769C13.3535 6.66278 13.1559 6.61778 13.1021 6.70795C13.0483 6.79811 12.9676 6.60876 13.0303 6.70795C13.0931 6.80713 13.1383 6.87026 13.1831 6.95141C13.2305 7.01827 13.2609 7.09557 13.2725 7.17683V7.17683L13.0842 7.58253L12.7076 8.37589L12.6091 8.57423L12.367 8.73669L11.8739 9.05214L10.9772 9.60225H10.9321C10.8937 9.57539 10.8576 9.54513 10.8244 9.51199L10.6274 9.30463C10.5736 9.30463 10.6274 9.41293 10.6274 9.41293C10.6274 9.41293 10.3943 9.19637 10.2329 9.01604C10.0714 8.8357 10.0624 8.87195 9.95481 8.75474L9.78449 8.5652L9.67677 8.44809C9.67677 8.44809 9.67677 8.49324 9.67677 8.51127C9.62087 8.64722 9.58182 8.78951 9.5603 8.93503C9.5603 9.21454 9.73038 9.62934 9.4793 9.64738C9.22821 9.66541 8.92334 9.34965 8.8247 9.46687C8.8433 9.77023 8.8854 10.0717 8.95037 10.3685C8.95037 10.4948 8.88752 10.6122 8.87856 10.7835C8.86959 10.9548 9.08481 11.4595 8.87856 11.4776C8.67231 11.4956 7.78444 11.1531 7.64993 11.1802C7.51542 11.2072 7.52447 11.4146 7.5155 11.622C7.47119 11.8876 7.47119 12.1587 7.5155 12.4243C7.62311 12.6137 7.46187 12.7941 7.47084 13.1547C7.47084 13.281 7.65015 13.4523 7.65912 13.5605C7.5909 13.9423 7.54287 14.3276 7.5155 14.7146C7.59279 14.9536 7.68285 15.1884 7.78479 15.4179C7.78479 15.5351 7.70378 15.6523 7.70378 15.7785C7.70378 15.9047 7.90103 16.1663 7.89206 16.2654C7.84933 16.4352 7.77309 16.5947 7.66788 16.7343L7.31847 16.8516C7.18734 16.904 7.05226 16.9461 6.91476 16.9778C6.46639 16.9778 6.31402 16.7164 6.08984 16.8516C5.9909 16.9428 5.91606 17.0572 5.87222 17.1847C5.82838 17.3122 5.81711 17.4487 5.83894 17.5818C5.83894 17.7441 6.12583 17.8253 6.2155 18.0236C6.30517 18.222 6.10784 18.3122 6.16164 18.5557C6.21545 18.7991 6.37688 18.8171 6.40378 18.9614C6.46655 19.2409 6.31397 19.5385 6.48435 19.9082C6.48435 19.9082 6.74422 20.0434 6.75319 20.0614C6.76216 20.0794 6.75319 20.314 6.75319 20.4312C6.75319 20.5484 6.97741 20.6746 7.01328 20.7918C7.05338 20.913 7.08664 21.0363 7.11224 21.1614L7.21951 21.441C7.28587 21.6448 7.37305 21.8414 7.4796 22.0272C7.58721 22.2255 7.7848 22.4147 7.80274 22.55C7.82067 22.6852 7.6769 22.8565 7.72173 22.9828C7.80244 23.2533 8.01799 23.2894 8.06283 23.4426C8.10766 23.5959 7.96412 23.7492 7.99102 23.8935C8.01792 24.0377 8.15241 24.1461 8.19725 24.2994C8.24209 24.4527 8.11649 24.606 8.14339 24.7592C8.17029 24.9125 8.33146 24.8853 8.34043 25.0205C8.3494 25.1558 8.17909 25.4353 8.18805 25.6697C8.19702 25.9041 8.38555 25.8862 8.40348 26.0034C8.42141 26.1207 8.29559 26.5985 8.34043 26.9051C8.34043 27.0403 8.56484 27.1216 8.57381 27.2388C8.53476 27.4164 8.4839 27.591 8.42143 27.7616C8.36763 28.0141 8.36763 28.3117 8.42143 28.2486C7.96835 28.687 7.40857 28.9979 6.79829 29.1502C6.46322 29.2029 6.12347 29.2181 5.78509 29.1954C5.55194 29.1954 5.40835 29.2673 5.22901 29.2764C4.75366 29.2836 4.28203 29.3626 3.83005 29.5108C3.25614 29.6461 3.22938 29.511 3.07693 29.9167C2.92449 30.3225 3.26509 30.0069 3.36373 30.3766C3.4265 30.593 3.36359 30.8543 3.44429 31.0977C3.525 31.3412 3.74053 31.4675 3.76743 31.6388C3.79434 31.8101 3.58796 32.0266 3.64177 32.1528C3.82958 32.4553 4.07678 32.7159 4.36818 32.9191C4.45423 32.9676 4.52768 33.0355 4.58316 33.1175C4.72664 33.3248 4.58325 33.5324 4.67293 33.7488C4.80643 33.8991 4.96063 34.0295 5.13049 34.1364C5.2731 34.2742 5.42578 34.4008 5.58761 34.5151C5.72212 34.5692 6.08998 34.5152 6.23345 34.6144C6.68182 34.984 6.46629 35.4529 7.03123 35.7595C7.13884 35.8226 7.13907 35.9127 7.26461 35.9398C7.39015 35.9668 7.53347 35.8856 7.55141 35.8946C7.56934 35.9037 7.46173 36.1111 7.55141 36.1832C7.64108 36.2554 7.81157 36.1291 7.8833 36.1832C8.39444 36.8595 8.50217 37.8241 6.88805 38.302L6.47559 38.4193C6.47559 38.4193 6.10796 38.5274 6.06313 38.5274C6.01829 38.5274 5.67741 38.275 5.48909 38.3201C5.48909 38.3201 5.18419 38.5726 5.02277 38.6448C4.86136 38.7169 4.62812 38.6447 4.48465 38.816C4.34117 38.9873 4.52948 38.9604 4.48465 39.1227C4.43981 39.285 4.26966 39.321 4.26966 39.3391C4.36691 39.7352 4.51437 40.117 4.70883 40.4752C4.78954 40.6645 5.04043 40.8087 5.18391 41.0702C5.36466 41.4772 5.6309 41.8401 5.96417 42.1341C6.07739 42.2492 6.19707 42.3576 6.32278 42.4588C6.43038 42.5309 6.66352 42.5579 6.75319 42.63C7.38987 43.153 7.79344 43.7751 8.1342 43.9464C8.47496 44.1177 8.93261 44.0368 9.12989 44.136C9.21129 44.2982 9.32045 44.4447 9.45259 44.5687C9.51536 44.6228 9.81144 44.5686 9.83834 44.6137C9.86525 44.6587 9.83819 44.8662 9.90096 44.9113C9.96373 44.9564 10.125 44.8301 10.394 44.8571C10.663 44.8842 10.5912 45.0916 10.7885 45.1186C10.9704 45.1364 11.1539 45.1364 11.3358 45.1186C11.4434 45.1186 11.7484 45.0196 11.8201 45.0376C11.8918 45.0557 11.9454 45.2538 12.053 45.2899C12.1606 45.326 12.3399 45.2089 12.3757 45.2269C12.4116 45.245 12.6537 45.4524 12.8241 45.4794C13.2303 45.502 13.6378 45.502 14.044 45.4794C14.5282 45.5426 14.9407 45.5515 14.9407 45.84C14.9407 46.1285 14.7344 46.1376 14.6627 46.336C14.5909 46.5343 14.7254 46.4801 14.6627 46.6514C14.2062 47.2665 13.6587 47.8077 13.0395 48.2564C13.3713 48.5449 13.9362 48.2564 14.2769 48.2564C14.6177 48.2564 14.7969 48.4008 15.048 48.3737C15.4152 48.2854 15.7664 48.1394 16.0883 47.941C16.1959 47.8959 16.259 47.9409 16.3576 47.8958C16.4563 47.8507 16.5278 47.7155 16.5906 47.6794C16.6533 47.6434 16.752 47.6794 16.8327 47.6163C16.9576 47.4611 17.1265 47.348 17.317 47.2918C17.3859 47.2622 17.458 47.241 17.532 47.2286H17.8371L18.4466 47.6704C18.5722 47.7606 18.5275 47.8598 18.384 48.1754C18.2405 48.491 16.8867 49.7713 16.8239 50.1771C16.7612 50.5828 17.2899 50.3213 17.5679 50.5828C17.5679 50.5828 17.4782 50.7811 17.5679 50.8082C17.6575 50.8352 17.8371 50.8082 17.7833 51.0787C17.7295 51.3492 17.4155 51.3853 17.2093 51.9804C17.6038 52.4493 17.8103 52.9903 18.169 53.36C18.2766 53.4682 18.4649 53.3598 18.5995 53.468C18.734 53.5762 19.0118 53.9459 19.2987 54.1443C19.8188 54.4869 20.3927 54.7124 21.0922 55.1001C21.0922 55.1001 21.2448 54.9739 21.3076 55.1001C21.3704 55.2263 21.2269 55.2443 21.3076 55.2804C21.3883 55.3165 21.5943 55.1992 21.7468 55.1992C21.8992 55.1992 22.2131 55.3165 22.6435 55.3616C22.9493 55.3795 23.2511 55.4401 23.5402 55.5419C23.5402 55.5419 23.6298 55.7674 23.6747 55.8215C23.8206 56.2073 23.8742 56.6224 23.8305 57.0329C23.7869 57.4433 23.6475 57.8376 23.4238 58.1837C23.1817 58.6255 23.1278 58.8059 23.7644 58.9051C23.8631 58.9051 23.9708 58.7429 24.1322 58.779C24.4059 58.8247 24.6864 58.7998 24.948 58.7068C25.2315 58.5529 25.5072 58.3843 25.7733 58.2018C26.4638 58.0214 26.15 58.6256 26.6701 58.0034C27.0557 57.5165 28.0686 57.2731 28.7232 56.6419C29.0819 56.3263 29.4051 55.9658 29.7907 55.6322C29.9687 55.5175 30.1364 55.3877 30.2925 55.2443C30.3911 55.1181 30.176 54.9197 30.2299 54.8115C30.4042 54.7072 30.5615 54.5764 30.6962 54.4239C30.9151 54.0731 31.1982 53.7672 31.5303 53.5222C31.7096 53.414 31.889 53.5221 31.9966 53.4319C32.4001 53.2155 32.5883 52.8459 33.216 53.2336C33.216 53.2336 33.4041 53.4319 33.431 53.4319C33.709 53.4319 33.5748 53.4952 33.9425 53.7927C34.0052 53.8468 34.2026 53.9099 34.2384 53.9459C34.624 54.3337 34.7765 54.8477 35.1352 54.9018C35.2787 54.9018 35.4848 54.7124 35.7 54.4329L30.2031 49.8524C30.2031 50.4114 30.2837 51.0606 30.3017 51.4303C30.3017 52.0614 30.1852 52.278 30.4632 52.7018C30.7412 53.1255 30.463 53.0894 30.6603 53.7025C30.6603 53.8287 30.8666 53.955 30.9563 54.1804C31.0459 54.4058 31.2431 54.532 31.2969 54.6402C31.3495 54.7829 31.3857 54.9311 31.4046 55.0821C31.4401 55.2566 31.5103 55.4223 31.6109 55.569C31.7274 55.7223 32.0145 55.8214 32.2028 55.9657C32.4183 56.1602 32.6636 56.3186 32.9292 56.4345C33.2846 56.5043 33.6497 56.5043 34.0051 56.4345C34.2203 56.4345 34.2025 56.6239 34.3729 56.6329C34.6778 56.6329 35.0187 56.3174 35.207 56.9215C35.3056 57.2371 35.4487 57.3542 35.4666 57.4714C35.5294 57.9943 35.3863 58.2288 34.7048 58.9051L34.4447 59.0493C34.2576 59.1581 34.059 59.2458 33.8527 59.3108C33.4312 59.5092 32.7945 59.5994 32.956 59.7887C33.041 59.8889 33.1444 59.9716 33.2607 60.0322C33.3605 60.0886 33.4704 60.1255 33.5838 60.1405C33.8364 60.1783 34.0941 60.1567 34.337 60.0773C34.7931 59.9103 35.2294 59.6926 35.6374 59.4281C35.9871 59.2568 36.3185 59.1486 36.5876 59.0134C36.6994 58.9621 36.793 58.8774 36.8555 58.771C36.9181 58.6646 36.9467 58.5414 36.9374 58.4182C36.9294 58.3583 36.9294 58.2977 36.9374 58.2379C36.9374 58.301 36.9374 58.0845 36.9374 57.9312V58.2198V57.8231C36.9374 57.5436 36.9374 57.2732 36.9374 56.9756C36.9374 56.6781 36.9374 56.3805 36.9374 56.074H37.0451H37.2693C37.2693 56.074 37.395 56.0738 37.377 56.1189C37.3591 56.164 37.377 56.3804 37.377 56.4255C37.377 56.4706 37.3767 56.3714 37.314 56.4255L37.1528 56.6239L36.9466 56.8673C36.9466 56.8673 36.9015 57.0116 36.8835 57.0837C36.8656 57.1559 36.8835 57.2731 36.8117 57.3543C36.74 57.4354 36.7491 57.6247 36.7132 57.7509C36.6146 58.1387 36.7134 57.5886 36.6686 57.7509C36.6237 57.9132 36.6234 57.9133 36.5876 58.0125L36.5341 58.2018L36.4803 58.2649C36.4154 58.3266 36.3465 58.3838 36.274 58.4362C36.274 58.4362 36.193 58.2017 35.9689 58.5804C35.7716 59.1845 35.8075 59.3919 35.9689 59.4821C36.1303 59.5722 35.969 59.6264 36.0586 59.5904C36.1483 59.5543 36.1664 59.365 36.1843 59.392C36.2022 59.4191 36.1843 59.6175 36.1843 59.6626C36.1843 59.7077 36.2649 59.7436 36.3187 59.8068C36.3725 59.8699 36.3185 59.8068 36.3634 59.8519V59.7616C36.3634 59.6444 36.3634 59.5723 36.3634 59.6084C36.3634 59.7797 36.301 59.933 36.274 60.0773V60.1854C36.2615 60.1917 36.2473 60.1951 36.2333 60.1951C36.2193 60.1951 36.2056 60.1917 36.193 60.1854C36.1409 60.1714 36.09 60.1535 36.0407 60.1315C36.0407 60.1315 35.9421 60.2305 35.9242 60.2125C35.9063 60.1944 35.9243 60.0051 35.8436 59.987C35.7629 59.969 35.6373 60.1224 35.5656 60.0953C35.5261 60.0813 35.4895 60.0599 35.4579 60.0322C35.4579 60.0322 35.413 60.0321 35.4579 59.9509L35.5384 59.6535C35.655 59.2658 35.7807 58.9052 35.9242 58.5265L36.229 57.769C36.3635 57.4444 36.3994 57.192 36.5429 57.1288C36.6864 57.0657 36.8569 56.8673 37.1528 56.5878C37.4147 56.3493 37.7189 56.1628 38.0496 56.0379C38.0496 56.0379 38.2827 56.137 38.2917 56.2091C38.3007 56.2813 38.1929 56.3353 38.1481 56.4075C38.1032 56.4796 38.1481 56.4075 38.1481 56.4526C38.1481 56.4977 37.9509 56.5969 37.7715 56.7141C37.5922 56.8313 37.6907 56.8764 37.61 56.9215C37.5293 56.9666 37.4755 56.9215 37.4576 56.9756C37.1738 57.14 36.8731 57.273 36.5608 57.3723C36.4622 57.21 36.3278 57.8681 36.1843 58.373C36.0408 58.878 35.942 59.2748 35.7447 60.0231C35.7447 60.0863 35.7447 60.0233 35.7447 60.1315C35.5922 60.7356 35.4847 61.1502 35.3681 61.583C35.3053 61.8355 35.2428 62.088 35.1711 62.3495L35.126 62.5298C35.126 62.5929 35.126 62.5298 35.126 62.5749C35.1407 62.5711 35.1564 62.5711 35.1711 62.5749C35.3056 62.7372 35.2426 62.9445 35.3502 63.1158C35.2515 63.4855 35.1259 63.1158 35.0003 63.3232C34.8748 63.5305 35.189 63.3233 35.1711 63.5037C35.1531 63.684 34.9465 63.5035 35.0003 63.3232C35.0065 63.2874 35.0065 63.2509 35.0003 63.2151C35.0003 63.161 35.0003 63.2152 35.0003 63.0799L35.207 62.2502C35.3594 61.6281 35.5385 60.9339 35.6282 60.5823L35.8344 59.7436C35.9959 59.0854 36.1304 58.5804 36.3008 57.9403C36.3008 57.814 36.3634 57.6788 36.3993 57.5345C36.4351 57.3903 36.4534 57.5345 36.4803 57.5345H36.6235H36.9646H37.1616H37.3052L37.5202 57.5887C37.7393 57.6656 37.9699 57.7051 38.2019 57.7058C38.2557 57.7058 38.2018 57.5797 38.2825 57.5797L38.4979 57.6338C38.5876 57.6338 38.74 57.7239 38.8745 57.76C39.1191 57.7829 39.3651 57.7829 39.6097 57.76C39.8125 57.8271 40.0056 57.9211 40.1837 58.0395C40.3008 58.116 40.4274 58.1766 40.5602 58.2198C40.6804 58.3091 40.8061 58.3904 40.9368 58.4633C40.9906 58.4633 40.9819 58.346 41.0178 58.364C41.0537 58.382 41.2237 58.5445 41.2775 58.5626L41.5826 58.6616L41.7617 58.7338L41.9053 58.797C41.9342 58.7688 41.9611 58.7386 41.9859 58.7068C42.1892 58.3887 42.4173 58.0872 42.6677 57.8051C43.0353 57.4805 43.4566 57.3001 43.627 57.7329C43.7463 57.9249 43.8096 58.1467 43.8096 58.373C43.8096 58.5994 43.7463 58.8214 43.627 59.0134C43.5642 59.1306 43.5464 59.0133 43.5105 59.1756C43.4747 59.3379 43.322 59.2838 43.3131 59.6265C43.6449 59.8068 43.8335 59.2388 44.0846 58.9502C44.2101 58.824 44.3446 58.6256 44.4791 58.4994C44.7929 58.2379 45.062 58.0575 45.3758 57.7419C45.5014 57.6247 45.6356 57.3813 45.7611 57.3091C45.8867 57.237 46.0395 57.3632 46.1561 57.3091C46.2727 57.255 46.2903 57.0296 46.3172 57.0205C46.5414 56.9484 46.8105 57.0746 47.0616 57.0205C47.1232 57.4867 47.15 57.957 47.1421 58.4272C47.2998 58.3735 47.4397 58.2767 47.5458 58.1476C47.6624 58.0394 47.6535 57.8321 47.8239 57.7239C47.9943 57.6157 48.2365 57.724 48.3979 57.5977C48.5593 57.4715 48.604 57.2551 48.7206 57.183C48.9986 56.9756 49.2676 56.8493 49.5455 56.6329C49.8235 56.4165 50.0479 56.0197 50.1914 55.9296C50.3349 55.8394 50.6574 56.0017 50.8188 55.9296C50.8188 55.9296 50.8187 55.4426 51.1595 55.65C51.3078 55.7652 51.4286 55.9129 51.5124 56.0815C51.5962 56.2501 51.6411 56.4354 51.6438 56.6239C51.7155 57.219 50.8101 57.219 50.8819 57.76C50.9447 57.9132 51.0162 57.8141 51.1148 57.76C51.2135 57.7059 51.3391 57.6789 51.4467 57.6248C51.6571 57.4608 51.839 57.2626 51.9849 57.0386C52.0656 56.9394 52.1101 57.0387 52.1639 56.8944C52.3417 56.6087 52.5491 56.3426 52.7826 56.1008C53.0516 55.7943 53.3387 55.551 53.5808 55.578C53.823 55.6051 53.7423 55.578 54.119 55.8215C54.2894 55.9297 54.3432 56.083 54.5673 56.0559C55.0874 55.9748 54.8543 55.3886 55.0337 55.046C55.0337 54.9738 55.2667 54.8206 55.3384 54.7125C55.3834 54.6105 55.4441 54.5161 55.5179 54.4329C55.539 54.4232 55.5617 54.4181 55.5849 54.4181C55.6081 54.4181 55.6313 54.4232 55.6524 54.4329C55.7115 54.445 55.7727 54.445 55.8319 54.4329C55.8857 54.4329 56.0826 54.6221 56.0915 54.5319C56.0366 54.0079 55.8973 53.4963 55.6791 53.0172L55.4728 52.4493C55.3563 52.1157 55.2488 51.782 55.1501 51.4935C55.0515 51.2049 55.0248 50.9253 54.9351 50.6909C54.7558 50.222 54.3701 49.6091 54.1369 49.0951C54.0831 48.9689 54.1369 48.9328 54.0831 48.8155C53.8948 48.4909 53.7514 48.022 53.5003 47.6524C53.6617 47.454 53.6076 47.8687 53.8497 47.5621C53.9842 47.4088 54.0471 47.508 53.9574 46.8859C53.8588 46.7596 53.6795 46.967 53.5988 47.1384C53.5181 47.3097 53.5269 47.3728 53.4552 47.4179C53.3826 47.344 53.3277 47.2546 53.294 47.1564C53.2733 47.108 53.2625 47.0559 53.2625 47.0032C53.2625 46.9505 53.2733 46.8984 53.294 46.85C53.3389 46.6967 53.4555 46.4892 53.5362 46.2999C53.6169 46.1105 53.6345 46.1195 53.6794 46.0203L53.9035 45.6597C54.0291 45.4884 54.1008 45.2901 54.316 45.0015C54.6119 44.6599 54.9494 44.3569 55.3205 44.0999C55.8655 43.7526 56.4761 43.5223 57.1139 43.4236C57.445 43.3923 57.7781 43.3923 58.1092 43.4236C58.38 43.439 58.6482 43.4873 58.9074 43.5678C59.9835 43.9195 59.8758 44.0187 59.9745 44.0457C60.0731 44.0728 60.1628 44.0457 60.8712 44.4334C61.3235 44.6297 61.761 44.8587 62.1804 45.1186C62.7305 45.4952 63.2337 45.9372 63.6783 46.435C64.1223 46.9043 64.5325 47.4046 64.9065 47.9319L65.2476 48.3467C65.3122 48.4187 65.3693 48.4973 65.4179 48.5811C65.4818 48.6683 65.53 48.766 65.5611 48.8697C65.593 48.9877 65.6143 49.1084 65.6241 49.2303C65.6241 49.3655 65.624 49.4736 65.6688 49.7982C65.6824 50.0625 65.6824 50.3275 65.6688 50.5918C65.6688 50.718 65.6688 50.8442 65.6688 50.9614C65.6688 51.0786 65.669 51.3041 65.6062 51.4664C65.5638 51.7702 65.5038 52.0712 65.4267 52.368C65.4267 52.4582 65.364 52.5753 65.3282 52.7286C65.2923 52.8819 65.3279 52.8641 65.2651 52.9362V53.0533L65.104 53.441C64.5037 54.8006 63.5141 55.9497 62.2614 56.7412C61.5649 57.1758 60.7962 57.4812 59.9924 57.6429C58.9856 57.8778 57.9412 57.8991 56.9256 57.7058C56.4006 57.5999 55.8871 57.4429 55.3923 57.2369L55.0424 57.0747L54.908 57.0115L54.7285 56.9215C54.4761 56.7934 54.2308 56.652 53.9933 56.4977C53.7316 56.3198 53.4803 56.127 53.2402 55.9205L52.8636 55.578L52.7467 55.4607C52.5662 55.2964 52.3987 55.1187 52.2449 54.9288L52.0116 54.6222L51.8951 54.4419C51.8234 54.3157 51.7514 54.1714 51.6797 54.0182C51.6797 53.5944 52.3163 54.0182 52.3343 54.0182C52.3522 54.0182 52.2717 53.441 52.5138 53.5222C52.6793 53.5944 52.831 53.6952 52.9622 53.8198C53.0266 53.8615 53.0841 53.9132 53.1325 53.973L53.4372 54.2797L53.7691 54.5861L54.1728 54.9469C54.3697 55.1153 54.5763 55.2719 54.7915 55.4158C55.0104 55.5619 55.2378 55.6944 55.4728 55.8125C55.8403 56.0039 56.2248 56.1609 56.6209 56.2813C57.2043 56.4482 57.8078 56.5332 58.4144 56.5338C59.0219 56.5299 59.6259 56.4388 60.2078 56.2633C60.7382 56.0989 61.2425 55.859 61.7053 55.5509C62.7245 54.8954 63.5315 53.9554 64.0277 52.8459C64.0882 52.7187 64.1364 52.5859 64.1713 52.4493L64.2431 52.2329L64.3509 51.7911C64.4121 51.4939 64.451 51.1925 64.4673 50.8894C64.4804 50.7244 64.4804 50.5585 64.4673 50.3935V50.0778V49.7714C64.4577 49.6915 64.4396 49.6129 64.4135 49.5369L64.3237 49.2303L64.216 48.9507L64.1267 48.7794C64.0011 48.563 63.8662 48.5089 63.7138 48.3106C63.3954 47.8459 63.0254 47.4195 62.6108 47.0393L63.113 46.7868C62.8799 45.9753 62.5659 46.895 62.1445 46.7868C62.2611 46.7868 62.0191 46.6604 61.6694 46.435L61.1492 46.1376L60.8445 45.9842L60.432 45.6597L60.0734 45.4163C59.8998 45.3124 59.72 45.219 59.5353 45.1367L59.2572 45.0196L58.8986 44.9022C58.6751 44.8443 58.4469 44.8052 58.2169 44.7851C57.8878 44.7469 57.5545 44.7806 57.2396 44.8842C56.6657 45.1727 56.6566 45.2179 56.4055 45.2269C56.2327 45.2435 56.0634 45.2859 55.9032 45.3531C55.6218 45.4736 55.3687 45.6518 55.1593 45.8761C55.0262 45.997 54.9298 46.1533 54.8813 46.3269L54.6751 46.8588C54.5943 47.2104 54.3609 47.7605 54.5581 48.0039C54.5481 48.0757 54.5481 48.1485 54.5581 48.2203C54.9348 48.581 54.5583 48.2205 54.6838 48.6262C54.6838 48.6713 54.8721 48.8066 54.89 48.8516C54.9143 49.0245 54.9471 49.1959 54.9886 49.3654C55.0962 49.6089 55.4101 49.9786 55.5446 50.2671C55.6792 50.5556 55.5447 50.6279 55.6524 50.8623C55.76 51.0968 55.8587 51.2499 55.9304 51.4303C56.0021 51.6106 55.9304 51.6466 55.9304 51.6015C55.9304 51.7458 56.1097 51.818 56.1546 51.9262C56.3608 52.4943 56.4773 53.1796 56.7553 53.964C56.8091 54.1083 56.8719 54.2616 56.9436 54.4239C57.0622 54.7174 57.1611 55.0186 57.2396 55.3255C57.2396 55.4968 57.1501 55.614 57.159 55.7402C57.1721 55.9522 57.199 56.163 57.2396 56.3714C57.2189 56.5417 57.1673 56.7068 57.0872 56.8583C56.9706 57.0567 56.6923 57.1559 56.5399 57.3633C56.5399 57.3633 56.6119 57.6158 56.585 57.6429C56.5581 57.6699 56.2081 57.8322 56.1095 58.1117C55.9551 58.3756 55.7879 58.6313 55.6077 58.878C55.4732 59.1034 55.1503 59.3109 54.8992 59.6626C54.6482 60.0142 54.6659 60.2125 54.4596 60.2847C54.2534 60.3568 53.6706 60.0593 53.3926 60.0683C53.0117 60.1079 52.6534 60.2691 52.3702 60.5281C52.0508 60.7854 51.7187 61.0262 51.3749 61.2495C51.2852 61.3036 51.0519 61.3125 50.9533 61.3937C50.7772 61.5441 50.5918 61.6826 50.3976 61.8084C50.1465 61.9617 49.7788 62.1692 49.4111 62.3585C49.2497 62.4487 49.115 62.4125 48.9715 62.4937C48.828 62.5748 48.3259 63.0438 47.9224 63.0438C47.8527 63.0465 47.7841 63.0276 47.7254 62.9897C47.6793 62.9554 47.6371 62.916 47.5997 62.8723C47.5223 62.779 47.435 62.6946 47.3396 62.62C47.3934 62.07 47.7523 62.0699 47.7254 61.3486C47.6626 61.5469 47.4652 61.6913 47.3396 61.9167C47.2141 62.1421 46.694 62.3495 46.5147 62.62C46.5147 62.6741 46.4072 62.8723 46.3803 62.8994C46.3534 62.9264 46.0664 62.8996 45.9139 63.0619C45.7615 63.2242 45.9139 63.5668 45.6 63.4856C45.6 63.4856 45.6 63.2331 45.6 63.206C45.6 63.179 45.3309 63.0436 45.2861 63.0887C45.3629 62.4685 45.591 61.877 45.9498 61.3666C45.8064 60.8887 45.4654 61.4659 45.2681 61.6823C45.0708 61.8987 45.0979 62.0159 44.9813 62.1241C44.8647 62.2323 44.7303 62.1691 44.6227 62.2954C44.5151 62.4216 44.5688 62.4848 44.5329 62.5749C44.4971 62.6651 44.2815 62.9986 44.1918 63.197C44.1022 63.3954 43.9588 63.9815 43.8512 63.9455C43.7436 63.9094 43.5552 63.4315 43.5552 63.4495C43.4924 63.2421 43.5552 63.1879 43.5552 62.8723C43.5552 62.2141 43.4838 62.5298 43.708 62.2683C43.708 62.2683 43.7079 62.0157 43.7706 61.9707C43.8334 61.9256 43.932 61.7814 43.9948 61.6642C44.1174 61.354 44.2612 61.0527 44.4252 60.7626C44.5956 60.5552 44.8376 60.5191 44.9901 60.3027C45.1425 60.0863 45.0978 59.9962 45.1696 59.8609C45.2413 59.7257 45.4475 59.6896 45.3579 59.4281C45.2682 59.1666 44.9811 59.5542 44.8197 59.7526C44.7277 59.8443 44.6439 59.944 44.5688 60.0502C44.5231 60.0979 44.481 60.1491 44.4432 60.2034C44.4432 60.2034 44.4434 60.474 44.3985 60.483C44.3537 60.492 44.201 60.4289 44.1472 60.483C44.1399 60.579 44.1399 60.6756 44.1472 60.7716C44.0485 60.8708 43.968 60.8437 43.8783 60.9519C43.7887 61.0601 43.7259 61.1594 43.6362 61.2676C43.5465 61.3758 43.3673 61.4567 43.2776 61.7633C43.2776 61.8805 43.2776 62.133 43.2776 62.2051C43.268 62.2462 43.2493 62.2846 43.2229 62.3174C43.1965 62.3502 43.1628 62.3767 43.1248 62.3946V62.3946C43.1248 62.3946 43.1249 62.4487 43.0442 62.3946L42.7123 62.0609C42.2191 61.592 41.8156 61.2946 41.161 60.5462L40.9009 60.2937L40.7757 60.1583C40.7757 60.1583 40.7128 60.1583 40.7039 60.1583C40.4707 60.0501 40.381 59.924 40.1837 59.8429C39.9864 59.7617 39.6726 59.6444 39.3767 59.5091L38.9283 59.2927C38.82 59.2328 38.7151 59.1666 38.6144 59.0944C38.462 58.9862 37.9506 58.5445 37.9506 58.5445C37.9506 58.5445 38.2827 58.5445 38.6683 58.5445C38.8667 58.5691 39.062 58.6143 39.251 58.6797L39.9236 58.8509L40.2555 58.9231H40.4258C40.4796 58.9231 40.5242 58.9232 40.6049 59.0134C40.9008 59.2659 41.179 59.5091 41.457 59.7165C41.6654 59.8597 41.8811 59.9922 42.1028 60.1134C42.2553 60.2126 42.4075 60.3297 42.542 60.4379C42.6765 60.5461 42.6408 60.3658 42.6677 60.3117C42.6946 60.2576 42.587 59.5362 42.8918 59.5452Z" fill="white" stroke="white" stroke-width="3.10104" stroke-linecap="round" stroke-linejoin="round"/>
</svg>
