<svg width="806" height="474" viewBox="0 0 806 474" fill="none" xmlns="http://www.w3.org/2000/svg">
<path d="M750.86 257.825C731.096 263.983 712.473 269.703 692.699 275.862C708.841 277.757 722.585 285.45 738.726 287.334C721.799 300.111 702.764 312.866 685.827 325.632C699.871 331.528 722.257 338.113 736.311 343.998C721.733 357.608 710.779 371.623 696.191 385.243C711.172 396.903 722.21 411.455 737.219 423.125C512.981 449.61 284.399 445.578 59.5525 427.508C58.1668 300.009 56.7749 172.51 55.3767 45.011C278.454 49.701 499.789 55.9689 722.866 60.637C714.393 66.7844 691.473 82.8596 682.999 88.9961C694.703 89.9494 710.039 95.0558 721.742 95.9872C711.256 102.562 695.957 114.616 685.471 121.19C700.002 124.029 722.922 125.65 737.434 128.477C718.877 140.75 698.963 155.664 680.406 167.926C719.523 176.561 762.882 184.166 802 192.8C760.729 203.539 725.488 216.974 684.217 227.712C691.885 229.586 709.346 233.137 716.986 235.032C708.887 240.15 706.818 249.497 698.719 254.625C713.672 255.633 735.936 256.882 750.86 257.825Z" fill="white" stroke="#60C9EB" stroke-width="7.40698" stroke-linejoin="round"/>
<path d="M122.817 91.4822C112.178 91.3533 111.964 107.885 122.617 108.014C133.27 108.143 133.477 91.6113 122.817 91.4822Z" fill="#60C9EB" stroke="#60C9EB" stroke-width="2.95731"/>
<path d="M123.234 162.013C112.595 161.884 112.381 178.416 123.034 178.545C133.687 178.674 133.894 162.142 123.234 162.013Z" fill="#60C9EB" stroke="#60C9EB" stroke-width="2.95731"/>
<path d="M124.023 232.552C113.383 232.423 113.169 248.955 123.823 249.084C134.476 249.213 134.683 232.681 124.023 232.552Z" fill="#60C9EB" stroke="#60C9EB" stroke-width="2.95731"/>
<path d="M124.814 303.091C114.174 302.962 113.961 319.494 124.614 319.623C135.267 319.752 135.474 303.22 124.814 303.091Z" fill="#60C9EB" stroke="#60C9EB" stroke-width="2.95731"/>
<path d="M125.6 373.63C114.96 373.501 114.746 390.033 125.4 390.162C136.053 390.291 136.26 373.759 125.6 373.63Z" fill="#60C9EB" stroke="#60C9EB" stroke-width="2.95731"/>
<path d="M29.9815 167.99C19.4744 155.73 11.3105 140.526 4.53345 125.64L137.91 4.60095L168.097 27.2862C122.38 75.0295 75.6871 120.257 29.9815 167.99Z" fill="#E96262"/>
<path d="M172.3 449.76L116.381 469.194L25.5059 343.837C29.2464 323.931 37.1897 307.123 48.9051 290.941C90.4815 343.606 130.723 397.117 172.3 449.76Z" fill="#E96262"/>
<path d="M29.9895 170.66H29.9264C29.5796 170.651 29.2384 170.567 28.9239 170.414C28.6094 170.261 28.3283 170.042 28.0982 169.771C18.999 159.137 10.7826 145.481 2.25084 126.795C2.00887 126.268 1.9395 125.673 2.05345 125.101C2.1674 124.53 2.4583 124.013 2.88124 123.631L88.5873 45.8422L136.247 2.64688C136.681 2.25546 137.228 2.02841 137.8 2.00249C138.372 1.97658 138.935 2.1533 139.399 2.50406L169.586 25.1783C169.888 25.4012 170.138 25.6911 170.32 26.0273C170.502 26.3635 170.61 26.7376 170.637 27.1228C170.667 27.5074 170.617 27.8943 170.49 28.2566C170.363 28.6189 170.162 28.948 169.901 29.221C147.059 53.0817 123.597 76.6897 100.912 99.5288C78.2273 122.368 54.681 146.053 31.7967 169.946C31.3058 170.421 30.6577 170.677 29.9895 170.66V170.66ZM7.68303 126.323C15.143 142.394 22.3929 154.512 30.1261 164.102C52.4115 140.857 75.3064 117.875 97.3712 95.6179C119.331 73.5149 142.026 50.6868 164.164 27.6171L138.054 7.99686L91.9285 49.8849L7.68303 126.323Z" fill="#E96262" stroke="#E96262" stroke-width="2.45748"/>
<path d="M116.376 471.864C115.98 471.859 115.59 471.757 115.238 471.566C114.886 471.375 114.581 471.101 114.348 470.765L106.773 460.318L23.4835 345.398C23.2661 345.099 23.1115 344.756 23.03 344.39C22.9485 344.025 22.942 343.646 23.0108 343.277C26.6462 323.91 34.2323 306.75 46.8827 289.283C47.1143 288.962 47.4124 288.701 47.7546 288.518C48.0969 288.335 48.4744 288.235 48.8587 288.227C49.243 288.218 49.6241 288.301 49.9734 288.469C50.3227 288.637 50.6312 288.885 50.8755 289.195C71.6269 315.484 92.3783 342.42 112.447 368.467C132.515 394.514 153.424 421.67 174.26 448.047C174.523 448.382 174.704 448.779 174.789 449.204C174.873 449.629 174.857 450.069 174.743 450.486C174.625 450.899 174.415 451.277 174.13 451.588C173.845 451.899 173.493 452.135 173.104 452.276L117.185 471.732C116.925 471.825 116.651 471.869 116.376 471.864ZM28.2327 343.2C55.7822 381.189 83.3177 419.177 110.839 457.165L117.311 466.085L167.966 448.508C147.897 423.033 127.934 397.03 108.475 371.851C89.016 346.672 69.0526 320.691 49.0157 295.259C38.246 310.771 31.6055 326.107 28.2327 343.2Z" fill="#E96262" stroke="#E96262" stroke-width="2.45748"/>
</svg>
