<svg width="806" height="474" viewBox="0 0 806 474" fill="none" xmlns="http://www.w3.org/2000/svg">
<path d="M750.86 257.825C731.096 263.983 712.473 269.703 692.699 275.862C708.841 277.757 722.585 285.45 738.726 287.334C721.799 300.111 702.764 312.866 685.827 325.632C699.871 331.528 722.257 338.113 736.311 343.998C721.733 357.608 710.779 371.623 696.191 385.243C711.172 396.903 722.21 411.455 737.219 423.125C512.981 449.61 284.399 445.578 59.5525 427.508C58.1668 300.009 56.7749 172.51 55.3767 45.011C278.454 49.701 499.789 55.9689 722.866 60.637C714.393 66.7844 691.473 82.8596 682.999 88.9961C694.703 89.9494 710.039 95.0558 721.742 95.9872C711.256 102.562 695.957 114.616 685.471 121.19C700.002 124.029 722.922 125.65 737.434 128.477C718.877 140.75 698.963 155.664 680.406 167.926C719.523 176.561 762.882 184.166 802 192.8C760.729 203.539 725.488 216.974 684.217 227.712C691.885 229.586 709.346 233.137 716.986 235.032C708.887 240.15 706.818 249.497 698.719 254.625C713.672 255.633 735.936 256.882 750.86 257.825Z" fill="white" stroke="#60C9EB" stroke-width="7.40698" stroke-linejoin="round"/>
<path d="M122.817 91.4822C112.178 91.3533 111.964 107.885 122.617 108.014C133.27 108.143 133.477 91.6113 122.817 91.4822Z" fill="#60C9EB" stroke="#60C9EB" stroke-width="2.95731"/>
<path d="M123.234 162.012C112.595 161.884 112.381 178.416 123.034 178.545C133.687 178.674 133.894 162.142 123.234 162.012Z" fill="#60C9EB" stroke="#60C9EB" stroke-width="2.95731"/>
<path d="M124.023 232.552C113.383 232.423 113.17 248.955 123.823 249.084C134.476 249.213 134.683 232.681 124.023 232.552Z" fill="#60C9EB" stroke="#60C9EB" stroke-width="2.95731"/>
<path d="M124.814 303.091C114.174 302.962 113.961 319.494 124.614 319.623C135.267 319.752 135.474 303.22 124.814 303.091Z" fill="#60C9EB" stroke="#60C9EB" stroke-width="2.95731"/>
<path d="M125.6 373.63C114.96 373.501 114.746 390.033 125.399 390.162C136.053 390.291 136.26 373.759 125.6 373.63Z" fill="#60C9EB" stroke="#60C9EB" stroke-width="2.95731"/>
<path d="M173.383 95.1232C172.263 95.116 171.212 95.2842 170.3 95.5933C170.3 95.5933 165.039 97.3793 165.009 101.999C165.03 104.099 165.753 105.924 167.145 107.263C165.983 108.271 164.958 109.769 164.945 111.799C164.994 115.159 166.761 117.866 170.394 118.939C171.931 119.404 174.521 119.421 176.064 118.976C179.746 117.915 181.549 115.196 181.571 111.767C181.581 110.192 180.821 108.577 179.5 107.308C180.908 105.952 181.62 104.102 181.634 101.967C181.656 98.6418 178.283 95.1549 173.383 95.1232ZM173.254 115.073C171.539 115.062 170.184 113.618 170.193 112.218C170.202 110.853 171.576 109.427 173.291 109.438C175.006 109.449 176.396 110.893 176.388 112.258C176.378 113.658 174.969 115.084 173.254 115.073ZM173.318 105.273C171.603 105.262 170.247 103.783 170.256 102.418C170.265 101.053 171.639 99.592 173.354 99.6031C175.069 99.6142 176.46 101.093 176.451 102.458C176.442 103.823 175.033 105.284 173.318 105.273Z" fill="#626262"/>
<path d="M189.897 114.9L189.93 109.791L184.681 109.757L184.648 114.867L189.897 114.9ZM189.964 104.646L189.997 99.5358L184.747 99.5018L184.714 104.612L189.964 104.646Z" fill="#626262"/>
<path d="M202.04 95.3436C198.19 95.3187 195.481 97.5062 194.848 97.9921C194.425 98.3394 193.054 99.3806 193.054 99.3806L196.175 103.846C196.175 103.846 197.02 103.046 197.829 102.492C198.637 101.902 199.8 100.719 202.005 100.734C203.86 100.746 204.555 101.59 204.62 102.325C204.685 102.991 204.677 104.251 201.525 104.615C200.894 104.681 198.934 104.669 198.934 104.669L198.899 110.164C198.899 110.164 200.859 110.176 201.488 110.25C204.636 110.656 204.697 111.951 204.553 112.58C204.409 113.279 203.773 114.115 201.918 114.103C199.714 114.089 198.844 113.173 198.078 112.643C197.555 112.29 196.023 111.09 196.023 111.09L192.95 115.375C192.95 115.375 194.308 116.434 194.726 116.787C195.353 117.281 198.033 119.503 201.883 119.528C206.818 119.56 209.781 116.044 209.803 112.614C209.817 110.514 209.128 108.795 207.841 107.491C209.145 106.17 209.856 104.459 209.87 102.359C209.892 98.9295 206.975 95.3755 202.04 95.3436Z" fill="#626262"/>
<path d="M222.448 95.4406C216.638 95.4031 211.878 100.797 211.835 107.482C211.791 114.167 216.481 119.623 222.291 119.66C228.101 119.698 232.826 114.303 232.869 107.618C232.912 100.933 228.258 95.4782 222.448 95.4406ZM222.325 114.34C219.595 114.323 217.411 111.088 217.434 107.518C217.458 103.949 219.683 100.743 222.413 100.761C225.143 100.778 227.327 104.012 227.304 107.582C227.281 111.152 225.055 114.358 222.325 114.34Z" fill="#626262"/>
<path d="M263.213 110.79L263.246 105.645L247.531 105.543L247.498 110.688L263.213 110.79Z" fill="#626262"/>
<path d="M290.022 96.0528C283.337 96.0096 277.842 101.399 277.799 108.119C277.755 114.804 283.18 120.264 289.865 120.307C296.55 120.351 302.045 114.961 302.088 108.276C302.132 101.556 296.707 96.0961 290.022 96.0528ZM289.899 115.092C286.259 115.069 283.34 111.76 283.363 108.155C283.387 104.515 286.348 101.244 289.988 101.268C293.628 101.291 296.547 104.6 296.523 108.24C296.5 111.845 293.539 115.116 289.899 115.092Z" fill="#626262"/>
<path d="M317.137 115.304C313.532 115.21 310.614 111.866 310.707 108.227C310.766 104.622 313.797 101.387 317.436 101.48C319.326 101.493 321.033 102.694 322.215 104.031L326.23 100.172C324.075 97.8132 320.97 96.323 317.54 96.2308C310.856 96.1176 305.291 101.437 305.143 108.121C305.03 114.805 310.349 120.37 317.033 120.518C320.463 120.575 323.586 119.23 325.876 116.97L322.017 112.955C320.784 114.242 319.061 115.351 317.137 115.304Z" fill="#626262"/>
<path d="M341.77 97.4026L341.712 106.362L334.502 106.316L334.56 97.356L329.31 97.322L329.162 120.177L334.412 120.21L334.47 111.251L341.68 111.297L341.622 120.257L346.872 120.291L347.02 97.4366L341.77 97.4026Z" fill="#626262"/>
<path d="M362.208 96.5198C355.523 96.4766 350.028 101.866 349.985 108.586C349.941 115.271 355.366 120.731 362.051 120.774C368.736 120.818 374.231 115.428 374.274 108.743C374.318 102.023 368.893 96.5631 362.208 96.5198ZM362.085 115.559C358.445 115.536 355.526 112.227 355.549 108.622C355.573 104.982 358.534 101.711 362.174 101.735C365.814 101.758 368.733 105.067 368.709 108.707C368.686 112.312 365.725 115.583 362.085 115.559Z" fill="#626262"/>
<path d="M393.98 104.636C394.005 100.751 390.875 97.5803 386.99 97.5552C384.611 97.5398 377.401 97.4931 377.401 97.4931L377.253 120.383C377.253 120.383 384.462 120.429 386.842 120.445C390.727 120.47 393.898 117.34 393.923 113.49C393.933 111.81 393.348 110.267 392.376 109.035C393.364 107.852 393.969 106.316 393.98 104.636ZM386.876 115.23C385.791 115.223 382.536 115.202 382.536 115.202L382.56 111.562C382.56 111.562 385.815 111.583 386.9 111.59C387.88 111.596 388.679 112.476 388.673 113.456C388.666 114.436 387.856 115.236 386.876 115.23ZM386.933 106.375C385.848 106.368 382.594 106.347 382.594 106.347L382.617 102.777C382.617 102.777 385.872 102.798 386.957 102.805C387.937 102.811 388.736 103.622 388.73 104.602C388.724 105.582 387.913 106.381 386.933 106.375Z" fill="#626262"/>
<path d="M420.703 120.664L420.851 97.7742L415.602 97.7403L415.453 120.63L420.703 120.664ZM406.655 106.503L402.315 106.474L402.372 97.6547L397.122 97.6207L396.974 120.51C396.974 120.51 404.184 120.557 406.564 120.572C410.449 120.597 413.619 117.468 413.644 113.618C413.669 109.733 410.54 106.528 406.655 106.503ZM406.597 115.357C405.512 115.35 402.258 115.329 402.258 115.329L402.281 111.689C402.281 111.689 405.536 111.71 406.621 111.717C407.601 111.724 408.4 112.604 408.394 113.584C408.388 114.564 407.577 115.364 406.597 115.357Z" fill="#626262"/>
<path d="M435.402 97.8684L435.37 102.803L441.74 102.844L441.624 120.799L446.874 120.833L446.99 102.878L453.36 102.92L453.392 97.9848L435.402 97.8684Z" fill="#626262"/>
<path d="M468.882 98.085L461.592 110.498L461.672 98.0383L456.422 98.0044L456.274 120.894L461.524 120.928L468.815 108.55L468.734 120.974L473.949 121.008L474.097 98.1187L468.882 98.085Z" fill="#626262"/>
<path d="M477.135 98.1384L476.987 120.993L482.202 121.027L482.316 103.422L490.541 103.475L490.427 121.08L495.642 121.114L495.79 98.259L477.135 98.1384Z" fill="#626262"/>
<path d="M510.989 97.4824C504.304 97.4391 498.809 102.829 498.766 109.549C498.722 116.233 504.147 121.694 510.832 121.737C517.517 121.78 523.012 116.391 523.055 109.706C523.099 102.986 517.674 97.5256 510.989 97.4824ZM510.866 116.522C507.226 116.498 504.307 113.189 504.331 109.585C504.354 105.945 507.315 102.674 510.955 102.697C514.595 102.721 517.514 106.03 517.49 109.67C517.467 113.275 514.506 116.546 510.866 116.522Z" fill="#626262"/>
<path d="M526.182 98.4557L526.034 121.345L531.284 121.379L531.398 103.74L540.007 103.795L540.041 98.5453L526.182 98.4557Z" fill="#626262"/>
<path d="M550.38 98.6472C548.56 98.6354 543.1 98.6001 543.1 98.6001L542.952 121.49L548.202 121.524L548.239 115.784C548.239 115.784 549.744 115.793 550.269 115.797C554.994 115.827 558.869 112.037 558.899 107.278C558.93 102.553 555.105 98.6778 550.38 98.6472ZM550.303 110.582C549.778 110.579 548.273 110.569 548.273 110.569L548.316 103.849C548.316 103.849 549.821 103.859 550.346 103.862C552.201 103.874 554.011 105.391 553.999 107.246C553.987 109.101 552.158 110.594 550.303 110.582Z" fill="#626262"/>
<path d="M572.291 98.614L567.041 98.58L558.99 120.298L563.914 122.115L565.659 117.436L573.464 117.487L575.148 122.188L580.06 120.435L572.291 98.614ZM567.583 112.199L569.613 106.717L571.573 112.225L567.583 112.199Z" fill="#626262"/>
<path d="M598.288 101.512C597.658 101.508 597.062 101.574 596.466 101.675L596.484 98.9105L591.269 98.8767L591.252 101.642C590.657 101.533 590.063 101.459 589.468 101.455C584.568 101.423 580.552 105.353 580.521 110.252C580.489 115.152 584.453 119.168 589.353 119.2C589.948 119.204 590.543 119.137 591.139 119.001L591.121 121.766L596.336 121.8L596.354 119.035C596.948 119.179 597.543 119.253 598.173 119.257C603.038 119.288 607.053 115.324 607.085 110.424C607.117 105.524 603.152 101.544 598.288 101.512ZM591.175 113.506C590.648 113.783 590.017 113.954 589.387 113.95C587.357 113.937 585.757 112.316 585.771 110.286C585.783 108.291 587.404 106.657 589.434 106.67C590.064 106.674 590.693 106.853 591.216 107.172L591.175 113.506ZM598.207 114.007C597.542 114.003 596.913 113.824 596.39 113.54L596.431 107.205C596.958 106.894 597.589 106.723 598.254 106.727C600.249 106.74 601.883 108.396 601.87 110.391C601.857 112.421 600.202 114.02 598.207 114.007Z" fill="#626262"/>
<path d="M622.653 99.0798L615.363 111.493L615.444 99.0331L610.194 98.9992L610.046 121.889L615.295 121.923L622.586 109.545L622.505 121.969L627.72 122.003L627.868 99.1135L622.653 99.0798Z" fill="#626262"/>
<path d="M643.366 99.2138L636.075 111.627L636.156 99.1671L630.906 99.1332L630.758 122.023L636.008 122.057L643.298 109.679L643.218 122.103L648.433 122.137L648.581 99.2475L643.366 99.2138Z" fill="#626262"/>
<path d="M164.566 170.403L167.856 170.424L167.742 188.064L172.957 188.097L173.105 165.243L165.265 165.192L164.566 170.403Z" fill="#626262"/>
<path d="M186.694 164.211C180.885 164.173 176.125 169.568 176.081 176.252C176.038 182.937 180.728 188.393 186.538 188.43C192.348 188.468 197.073 183.073 197.116 176.388C197.159 169.704 192.504 164.248 186.694 164.211ZM186.572 183.11C183.842 183.093 181.658 179.859 181.681 176.289C181.704 172.719 183.93 169.513 186.66 169.531C189.39 169.548 191.574 172.783 191.551 176.352C191.528 179.922 189.302 183.128 186.572 183.11Z" fill="#626262"/>
<path d="M205.447 184.003L205.48 178.893L200.23 178.859L200.197 183.969L205.447 184.003ZM205.513 173.748L205.546 168.638L200.296 168.604L200.263 173.714L205.513 173.748Z" fill="#626262"/>
<path d="M219.164 164.421C213.355 164.383 208.595 169.778 208.551 176.462C208.508 183.147 213.198 188.603 219.008 188.64C224.818 188.678 229.543 183.283 229.586 176.599C229.629 169.914 224.974 164.458 219.164 164.421ZM219.042 183.32C216.312 183.303 214.128 180.069 214.151 176.499C214.174 172.929 216.4 169.723 219.13 169.741C221.86 169.758 224.044 172.993 224.021 176.563C223.998 180.132 221.772 183.338 219.042 183.32Z" fill="#626262"/>
<path d="M243.329 164.577C237.519 164.54 232.759 169.934 232.716 176.619C232.673 183.304 237.362 188.759 243.172 188.797C248.982 188.834 253.707 183.44 253.75 176.755C253.794 170.07 249.139 164.615 243.329 164.577ZM243.207 183.477C240.477 183.459 238.293 180.225 238.316 176.655C238.339 173.085 240.565 169.879 243.295 169.897C246.024 169.915 248.209 173.149 248.186 176.719C248.162 180.289 245.937 183.494 243.207 183.477Z" fill="#626262"/>
<path d="M284.094 179.926L284.127 174.781L268.413 174.68L268.379 179.825L284.094 179.926Z" fill="#626262"/>
<path d="M311.213 166.066L303.922 178.479L304.003 166.02L298.753 165.986L298.605 188.875L303.855 188.909L311.145 176.531L311.064 188.956L316.279 188.99L316.427 166.1L311.213 166.066Z" fill="#626262"/>
<path d="M331.387 184.397C327.783 184.304 324.864 180.96 324.958 177.321C325.016 173.716 328.047 170.48 331.687 170.574C333.577 170.586 335.284 171.787 336.465 173.125L340.48 169.266C338.326 166.907 335.22 165.417 331.791 165.324C325.106 165.211 319.542 170.53 319.393 177.215C319.28 183.899 324.599 189.463 331.284 189.612C334.713 189.669 337.837 188.324 340.127 186.064L336.268 182.049C335.034 183.336 333.312 184.445 331.387 184.397Z" fill="#626262"/>
<path d="M342.399 166.268L342.367 171.203L348.737 171.244L348.621 189.199L353.871 189.233L353.987 171.278L360.357 171.319L360.389 166.385L342.399 166.268Z" fill="#626262"/>
<path d="M372.938 165.591C366.253 165.547 360.758 170.937 360.715 177.657C360.671 184.342 366.096 189.802 372.781 189.845C379.466 189.888 384.961 184.499 385.004 177.814C385.048 171.094 379.623 165.634 372.938 165.591ZM372.815 184.63C369.175 184.607 366.256 181.298 366.28 177.693C366.303 174.053 369.264 170.782 372.904 170.806C376.544 170.829 379.463 174.138 379.439 177.778C379.416 181.383 376.455 184.654 372.815 184.63Z" fill="#626262"/>
<path d="M395.41 166.646C393.59 166.634 388.131 166.599 388.131 166.599L387.983 189.489L393.232 189.522L393.27 183.783C393.27 183.783 394.775 183.792 395.3 183.796C400.024 183.826 403.899 180.036 403.93 175.276C403.96 170.551 400.135 166.677 395.41 166.646ZM395.333 178.581C394.808 178.577 393.303 178.568 393.303 178.568L393.347 171.848C393.347 171.848 394.852 171.858 395.377 171.861C397.232 171.873 399.042 173.39 399.03 175.245C399.018 177.1 397.188 178.593 395.333 178.581Z" fill="#626262"/>
<path d="M419.492 166.767L412.201 179.18L412.282 166.72L407.032 166.686L406.884 189.576L412.134 189.61L419.424 177.232L419.343 189.656L424.558 189.69L424.706 166.801L419.492 166.767Z" fill="#626262"/>
<path d="M436.704 166.878C431.979 166.848 428.104 170.673 428.074 175.398C428.058 177.883 429.093 180.129 430.763 181.715L427.613 187.085L432.146 189.739L435.508 183.986C435.858 184.023 436.243 184.061 436.593 184.063C437.118 184.066 438.623 184.076 438.623 184.076L438.586 189.781L443.836 189.815L443.984 166.925C443.984 166.925 438.524 166.89 436.704 166.878ZM438.657 178.826C438.657 178.826 437.152 178.816 436.627 178.813C434.772 178.801 433.312 177.287 433.324 175.432C433.335 173.612 434.815 172.116 436.67 172.128C437.195 172.132 438.7 172.141 438.7 172.141L438.657 178.826Z" fill="#626262"/>
<path d="M470.999 167.1L463.709 179.513L463.789 167.053L458.54 167.02L458.391 189.909L463.641 189.943L470.932 177.565L470.851 189.99L476.066 190.023L476.214 167.134L470.999 167.1Z" fill="#626262"/>
<path d="M491.174 185.431C487.57 185.338 484.651 181.994 484.745 178.354C484.803 174.75 487.834 171.514 491.473 171.608C493.363 171.62 495.071 172.821 496.252 174.159L500.267 170.3C498.112 167.941 495.007 166.45 491.577 166.358C484.893 166.245 479.328 171.564 479.18 178.248C479.067 184.933 484.386 190.497 491.07 190.645C494.5 190.703 497.624 189.358 499.913 187.098L496.054 183.083C494.821 184.37 493.099 185.478 491.174 185.431Z" fill="#626262"/>
<path d="M513.018 180.847C515.021 179.565 516.366 177.299 516.382 174.744C516.39 173.554 517.341 172.65 518.496 172.658C518.706 172.659 519.266 172.662 519.266 172.662L519.3 167.413C519.3 167.413 518.74 167.409 518.53 167.408C514.505 167.382 511.194 170.65 511.168 174.71C511.16 175.865 510.209 176.804 509.019 176.796L509.019 176.831L507.419 175.176L507.47 167.336L502.22 167.302L502.072 190.192L507.322 190.226L507.371 182.631L515.612 190.979L519.347 187.258L513.018 180.847Z" fill="#626262"/>
<path d="M536.384 166.963L531.064 177.779L525.884 166.895L521.144 169.14L528.396 184.342L528.356 190.502L533.606 190.536L533.646 184.376L541.059 169.268L536.384 166.963Z" fill="#626262"/>
<path d="M553.277 185.833C549.673 185.739 546.754 182.396 546.848 178.756C546.906 175.151 549.937 171.916 553.577 172.009C555.467 172.022 557.174 173.223 558.355 174.56L562.37 170.701C560.215 168.342 557.11 166.852 553.681 166.76C546.996 166.647 541.432 171.966 541.283 178.65C541.17 185.334 546.489 190.899 553.173 191.047C556.603 191.104 559.727 189.76 562.017 187.499L558.157 183.484C556.924 184.771 555.202 185.88 553.277 185.833Z" fill="#626262"/>
<path d="M574.912 185.973C571.308 185.879 568.39 182.535 568.483 178.896C568.541 175.291 571.572 172.056 575.212 172.149C577.102 172.162 578.809 173.363 579.99 174.7L584.006 170.841C581.851 168.482 578.745 166.992 575.316 166.9C568.631 166.787 563.067 172.106 562.919 178.79C562.805 185.474 568.125 191.039 574.809 191.187C578.238 191.244 581.362 189.9 583.652 187.639L579.793 183.624C578.559 184.911 576.837 186.02 574.912 185.973Z" fill="#626262"/>
<path d="M585.925 167.844L585.893 172.779L592.262 172.82L592.146 190.774L597.396 190.808L597.512 172.854L603.882 172.895L603.914 167.96L585.925 167.844Z" fill="#626262"/>
<path d="M623.524 175.122C623.549 171.237 620.419 168.067 616.534 168.042C614.154 168.026 606.945 167.98 606.945 167.98L606.797 190.869C606.797 190.869 614.006 190.916 616.386 190.931C620.271 190.956 623.442 187.827 623.466 183.977C623.477 182.297 622.892 180.753 621.92 179.522C622.908 178.338 623.513 176.802 623.524 175.122ZM616.42 185.716C615.335 185.709 612.08 185.688 612.08 185.688L612.104 182.048C612.104 182.048 615.359 182.069 616.444 182.076C617.424 182.083 618.223 182.963 618.217 183.943C618.21 184.923 617.4 185.723 616.42 185.716ZM616.477 176.861C615.392 176.854 612.137 176.833 612.137 176.833L612.161 173.263C612.161 173.263 615.415 173.285 616.5 173.292C617.48 173.298 618.28 174.108 618.274 175.088C618.268 176.068 617.457 176.868 616.477 176.861Z" fill="#626262"/>
<path d="M164.12 239.401L167.41 239.423L167.296 257.062L172.51 257.096L172.658 234.241L164.818 234.191L164.12 239.401Z" fill="#626262"/>
<path d="M175.672 239.476L178.962 239.497L178.848 257.137L184.063 257.171L184.211 234.316L176.371 234.265L175.672 239.476Z" fill="#626262"/>
<path d="M192.388 252.919L192.421 247.81L187.172 247.776L187.138 252.886L192.388 252.919ZM192.455 242.665L192.488 237.555L187.238 237.521L187.205 242.631L192.455 242.665Z" fill="#626262"/>
<path d="M204.215 249.706C204.25 249.671 204.355 249.672 204.425 249.672C209.612 248.726 212.326 245.698 212.353 241.568C212.374 238.243 209.463 233.85 204.528 233.818C200.678 233.793 197.969 235.91 197.336 236.396C196.914 236.743 195.542 237.785 195.542 237.785L198.664 242.145C198.664 242.145 200.071 241.034 200.669 240.583C200.915 240.409 202.288 239.158 204.493 239.173C206.348 239.185 207.006 240.274 207.104 241.324C207.204 242.13 207.054 243.669 203.655 244.277C203.62 244.277 203.515 244.311 203.445 244.311C198.189 245.257 195.577 248.6 195.551 252.695C195.542 253.99 195.521 257.245 195.521 257.245L212.251 257.353L212.285 252.138L200.805 252.064C200.808 251.504 200.746 250.349 204.215 249.706Z" fill="#626262"/>
<path d="M224.87 233.459C219.06 233.422 214.3 238.816 214.257 245.501C214.214 252.186 218.904 257.641 224.714 257.679C230.523 257.716 235.248 252.322 235.292 245.637C235.335 238.952 230.68 233.497 224.87 233.459ZM224.748 252.359C222.018 252.341 219.834 249.107 219.857 245.537C219.88 241.967 222.106 238.761 224.836 238.779C227.566 238.797 229.75 242.031 229.727 245.601C229.704 249.171 227.478 252.376 224.748 252.359Z" fill="#626262"/>
<path d="M265.635 248.808L265.669 243.663L249.954 243.562L249.921 248.707L265.635 248.808Z" fill="#626262"/>
<path d="M280.294 234.868L280.146 257.722L285.361 257.756L285.475 240.151L293.7 240.205L293.586 257.809L298.801 257.843L298.949 234.988L280.294 234.868Z" fill="#626262"/>
<path d="M314.984 240.342L315.017 235.092L301.998 235.008L301.85 257.898L314.869 257.982L314.903 252.767L307.133 252.717L307.157 249.007L313.492 249.048L313.525 244.008L307.19 243.967L307.214 240.292L314.984 240.342Z" fill="#626262"/>
<path d="M325.341 235.194C323.522 235.182 318.062 235.147 318.062 235.147L317.914 258.037L323.163 258.071L323.201 252.331C323.201 252.331 324.706 252.34 325.231 252.344C329.955 252.374 333.83 248.584 333.861 243.825C333.891 239.1 330.066 235.225 325.341 235.194ZM325.264 247.129C324.739 247.126 323.234 247.116 323.234 247.116L323.278 240.396C323.278 240.396 324.783 240.406 325.308 240.409C327.163 240.421 328.973 241.938 328.961 243.793C328.949 245.648 327.119 247.141 325.264 247.129Z" fill="#626262"/>
<path d="M349.949 240.569L349.983 235.319L336.963 235.234L336.815 258.124L349.834 258.208L349.868 252.993L342.098 252.943L342.122 249.233L348.457 249.274L348.49 244.234L342.155 244.193L342.179 240.518L349.949 240.569Z" fill="#626262"/>
<path d="M360.307 235.42C358.487 235.409 353.027 235.373 353.027 235.373L352.879 258.263L358.129 258.297L358.166 252.557C358.166 252.557 359.671 252.567 360.196 252.57C364.921 252.601 368.795 248.811 368.826 244.051C368.856 239.326 365.031 235.451 360.307 235.42ZM360.229 247.355C359.704 247.352 358.199 247.342 358.199 247.342L358.243 240.622C358.243 240.622 359.748 240.632 360.273 240.635C362.128 240.647 363.938 242.164 363.926 244.019C363.914 245.874 362.084 247.367 360.229 247.355Z" fill="#626262"/>
<path d="M395.509 258.504L395.657 235.614L390.408 235.58L390.259 258.47L395.509 258.504ZM381.461 244.342L377.121 244.314L377.178 235.495L371.928 235.461L371.78 258.35C371.78 258.35 378.99 258.397 381.37 258.412C385.255 258.437 388.425 255.308 388.45 251.458C388.475 247.573 385.346 244.368 381.461 244.342ZM381.403 253.197C380.318 253.19 377.063 253.169 377.063 253.169L377.087 249.529C377.087 249.529 380.342 249.55 381.427 249.557C382.407 249.564 383.206 250.444 383.2 251.424C383.194 252.404 382.383 253.204 381.403 253.197Z" fill="#626262"/>
<path d="M415.269 242.776C415.294 238.891 412.165 235.721 408.28 235.696C405.9 235.68 398.69 235.634 398.69 235.634L398.542 258.523C398.542 258.523 405.752 258.57 408.132 258.585C412.017 258.61 415.187 255.481 415.212 251.631C415.223 249.951 414.638 248.407 413.666 247.176C414.653 245.992 415.258 244.456 415.269 242.776ZM408.166 253.37C407.081 253.363 403.826 253.342 403.826 253.342L403.849 249.702C403.849 249.702 407.104 249.723 408.189 249.731C409.169 249.737 409.968 250.617 409.962 251.597C409.956 252.577 409.146 253.377 408.166 253.37ZM408.223 244.516C407.138 244.509 403.883 244.488 403.883 244.488L403.906 240.918C403.906 240.918 407.161 240.939 408.246 240.946C409.226 240.952 410.026 241.762 410.019 242.742C410.013 243.722 409.203 244.522 408.223 244.516Z" fill="#626262"/>
<path d="M163.673 308.4L166.963 308.421L166.849 326.061L172.064 326.095L172.212 303.24L164.372 303.189L163.673 308.4Z" fill="#626262"/>
<path d="M183.911 318.576C183.946 318.541 184.051 318.542 184.121 318.542C189.307 317.596 192.022 314.568 192.049 310.438C192.07 307.114 189.158 302.72 184.223 302.688C180.374 302.663 177.665 304.78 177.032 305.266C176.609 305.614 175.238 306.655 175.238 306.655L178.36 311.015C178.36 311.015 179.767 309.904 180.365 309.453C180.611 309.279 181.984 308.028 184.189 308.043C186.044 308.055 186.702 309.144 186.8 310.195C186.9 311 186.75 312.539 183.351 313.147C183.316 313.147 183.211 313.181 183.141 313.181C177.884 314.127 175.273 317.47 175.246 321.565C175.238 322.86 175.217 326.115 175.217 326.115L191.946 326.223L191.98 321.008L180.5 320.934C180.504 320.374 180.441 319.219 183.911 318.576Z" fill="#626262"/>
<path d="M200.316 321.972L200.349 316.862L195.099 316.828L195.066 321.938L200.316 321.972ZM200.382 311.717L200.415 306.608L195.165 306.574L195.132 311.683L200.382 311.717Z" fill="#626262"/>
<path d="M214.033 302.391C208.224 302.353 203.464 307.747 203.42 314.432C203.377 321.117 208.067 326.572 213.877 326.61C219.687 326.648 224.412 321.253 224.455 314.568C224.498 307.883 219.843 302.428 214.033 302.391ZM213.911 321.29C211.181 321.273 208.997 318.038 209.02 314.468C209.043 310.898 211.269 307.693 213.999 307.71C216.729 307.728 218.913 310.962 218.89 314.532C218.867 318.102 216.641 321.308 213.911 321.29Z" fill="#626262"/>
<path d="M238.198 302.547C232.388 302.509 227.628 307.904 227.585 314.588C227.542 321.273 232.231 326.729 238.041 326.766C243.851 326.804 248.576 321.409 248.619 314.725C248.663 308.04 244.008 302.584 238.198 302.547ZM238.076 321.447C235.346 321.429 233.162 318.195 233.185 314.625C233.208 311.055 235.434 307.849 238.164 307.867C240.894 307.884 243.078 311.119 243.055 314.689C243.031 318.258 240.806 321.464 238.076 321.447Z" fill="#626262"/>
<path d="M278.963 317.896L278.996 312.751L263.282 312.649L263.248 317.794L278.963 317.896Z" fill="#626262"/>
<path d="M317.388 309.324C317.703 309.326 318.578 309.332 318.578 309.332L318.611 304.117C318.611 304.117 317.736 304.111 317.421 304.109C313.396 304.083 310.085 307.352 310.059 311.412C310.056 311.797 309.914 312.216 309.737 312.53C309.387 312.458 309.073 312.386 308.723 312.348L308.777 304.054L303.562 304.02L303.508 312.28C303.123 312.347 302.773 312.38 302.422 312.483C302.214 312.166 302.077 311.745 302.079 311.36L302.114 311.361C302.14 307.301 298.872 303.989 294.812 303.963C294.532 303.961 293.622 303.955 293.622 303.955L293.588 309.17C293.588 309.17 294.498 309.176 294.778 309.178C295.968 309.186 296.907 310.137 296.899 311.327C296.889 312.832 297.335 314.27 298.133 315.43C297.32 316.615 296.856 318.012 296.846 319.552C296.839 320.707 295.887 321.646 294.697 321.638C294.417 321.636 293.508 321.63 293.508 321.63L293.474 326.845C293.474 326.845 294.384 326.851 294.664 326.853C298.724 326.879 302.035 323.61 302.061 319.585L302.026 319.585C302.029 319.165 302.171 318.781 302.383 318.467C302.733 318.54 303.082 318.612 303.467 318.649L303.414 326.909L308.628 326.943L308.682 318.683C309.032 318.65 309.348 318.583 309.698 318.515C309.871 318.831 310.008 319.217 310.006 319.637C309.98 323.662 313.248 326.973 317.273 326.999C317.588 327.001 318.463 327.007 318.463 327.007L318.497 321.792C318.497 321.792 317.622 321.786 317.307 321.784C316.152 321.777 315.213 320.826 315.221 319.671C315.231 318.131 314.75 316.727 313.952 315.532C314.765 314.382 315.264 312.951 315.274 311.446C315.282 310.256 316.233 309.317 317.388 309.324Z" fill="#626262"/>
<path d="M334.108 304.217L326.818 316.631L326.899 304.171L321.649 304.137L321.501 327.026L326.75 327.06L334.041 314.682L333.96 327.107L339.175 327.141L339.323 304.251L334.108 304.217Z" fill="#626262"/>
<path d="M358.94 311.413C358.965 307.528 355.836 304.358 351.951 304.333C349.571 304.317 342.361 304.271 342.361 304.271L342.213 327.16C342.213 327.16 349.423 327.207 351.803 327.222C355.688 327.247 358.858 324.118 358.883 320.268C358.894 318.588 358.309 317.044 357.337 315.813C358.324 314.629 358.929 313.093 358.94 311.413ZM351.837 322.007C350.752 322 347.497 321.979 347.497 321.979L347.52 318.339C347.52 318.339 350.775 318.361 351.86 318.368C352.84 318.374 353.639 319.254 353.633 320.234C353.627 321.214 352.817 322.014 351.837 322.007ZM351.894 313.153C350.809 313.146 347.554 313.125 347.554 313.125L347.577 309.555C347.577 309.555 350.832 309.576 351.917 309.583C352.897 309.589 353.697 310.399 353.69 311.379C353.684 312.359 352.874 313.159 351.894 313.153Z" fill="#626262"/>
<path d="M373.173 303.595C366.488 303.552 360.993 308.941 360.95 315.661C360.907 322.346 366.331 327.806 373.016 327.85C379.701 327.893 385.196 322.503 385.239 315.818C385.283 309.099 379.858 303.638 373.173 303.595ZM373.05 322.635C369.41 322.611 366.491 319.302 366.515 315.697C366.538 312.057 369.5 308.786 373.139 308.81C376.779 308.834 379.698 312.143 379.674 315.782C379.651 319.387 376.69 322.658 373.05 322.635Z" fill="#626262"/>
<path d="M388.366 304.568L388.218 327.423L393.433 327.457L393.547 309.852L401.772 309.905L401.658 327.51L406.873 327.544L407.021 304.689L388.366 304.568Z" fill="#626262"/>
<path d="M422.529 304.789L415.239 317.203L415.32 304.743L410.07 304.709L409.922 327.598L415.171 327.632L422.462 315.254L422.381 327.679L427.596 327.713L427.744 304.823L422.529 304.789Z" fill="#626262"/>
<path d="M442.704 323.12C439.1 323.027 436.181 319.683 436.275 316.044C436.333 312.439 439.364 309.203 443.004 309.297C444.893 309.309 446.601 310.51 447.782 311.848L451.797 307.989C449.642 305.63 446.537 304.14 443.107 304.048C436.423 303.934 430.859 309.253 430.71 315.938C430.597 322.622 435.916 328.187 442.6 328.335C446.03 328.392 449.154 327.047 451.443 324.787L447.584 320.772C446.351 322.059 444.629 323.168 442.704 323.12Z" fill="#626262"/>
<path d="M464.411 313.881C463.326 313.874 460.071 313.852 460.071 313.852L460.128 305.033L454.878 304.999L454.73 327.888C454.73 327.888 461.94 327.935 464.32 327.95C468.205 327.975 471.375 324.846 471.4 320.996C471.425 317.111 468.296 313.906 464.411 313.881ZM464.354 322.735C463.269 322.728 460.014 322.707 460.014 322.707L460.037 319.067C460.037 319.067 463.292 319.088 464.377 319.095C465.357 319.102 466.157 319.982 466.15 320.962C466.144 321.942 465.334 322.742 464.354 322.735Z" fill="#626262"/>
<path d="M163.227 377.398L166.517 377.42L166.403 395.059L171.618 395.093L171.766 372.239L163.926 372.188L163.227 377.398Z" fill="#626262"/>
<path d="M183.78 371.231C179.93 371.206 177.221 373.394 176.588 373.88C176.166 374.227 174.794 375.268 174.794 375.268L177.915 379.734C177.915 379.734 178.76 378.934 179.569 378.379C180.378 377.789 181.54 376.607 183.745 376.621C185.6 376.633 186.295 377.478 186.36 378.213C186.426 378.879 186.417 380.139 183.265 380.503C182.635 380.569 180.675 380.556 180.675 380.556L180.639 386.051C180.639 386.051 182.599 386.064 183.229 386.138C186.376 386.543 186.438 387.839 186.294 388.468C186.149 389.167 185.514 390.003 183.659 389.991C181.454 389.977 180.585 389.061 179.818 388.531C179.295 388.178 177.763 386.978 177.763 386.978L174.69 391.263C174.69 391.263 176.048 392.322 176.466 392.674C177.093 393.168 179.774 395.391 183.624 395.416C188.558 395.448 191.521 391.932 191.543 388.502C191.557 386.402 190.868 384.682 189.582 383.379C190.885 382.057 191.596 380.347 191.61 378.247C191.632 374.817 188.715 371.263 183.78 371.231Z" fill="#626262"/>
<path d="M199.869 390.971L199.903 385.861L194.653 385.827L194.62 390.937L199.869 390.971ZM199.936 380.716L199.969 375.606L194.719 375.572L194.686 380.682L199.936 380.716Z" fill="#626262"/>
<path d="M211.696 387.757C211.731 387.722 211.836 387.723 211.906 387.724C217.093 386.777 219.807 383.75 219.834 379.62C219.855 376.295 216.944 371.901 212.009 371.869C208.159 371.844 205.45 373.962 204.817 374.447C204.395 374.795 203.023 375.836 203.023 375.836L206.145 380.196C206.145 380.196 207.552 379.085 208.15 378.634C208.396 378.461 209.769 377.21 211.974 377.224C213.829 377.236 214.487 378.325 214.585 379.376C214.685 380.181 214.535 381.72 211.136 382.328C211.101 382.328 210.996 382.363 210.926 382.362C205.67 383.308 203.058 386.651 203.032 390.746C203.023 392.041 203.002 395.296 203.002 395.296L219.732 395.404L219.766 390.189L208.286 390.115C208.289 389.555 208.227 388.4 211.696 387.757Z" fill="#626262"/>
<path d="M232.351 371.511C226.541 371.473 221.781 376.867 221.738 383.552C221.695 390.237 226.385 395.692 232.195 395.73C238.005 395.768 242.73 390.373 242.773 383.688C242.816 377.003 238.161 371.548 232.351 371.511ZM232.229 390.41C229.499 390.392 227.315 387.158 227.338 383.588C227.361 380.018 229.587 376.813 232.317 376.83C235.047 376.848 237.231 380.082 237.208 383.652C237.185 387.222 234.959 390.428 232.229 390.41Z" fill="#626262"/>
<path d="M273.116 386.86L273.15 381.715L257.435 381.613L257.402 386.758L273.116 386.86Z" fill="#626262"/>
<path d="M298.573 386.464C300.576 385.182 301.921 382.916 301.937 380.361C301.945 379.171 302.896 378.267 304.051 378.274C304.261 378.276 304.821 378.279 304.821 378.279L304.855 373.03C304.855 373.03 304.295 373.026 304.085 373.025C300.06 372.999 296.749 376.267 296.722 380.327C296.715 381.482 295.764 382.421 294.574 382.413L294.574 382.448L292.974 380.793L293.025 372.953L287.775 372.919L287.627 395.809L292.877 395.843L292.926 388.248L301.167 396.596L304.901 392.875L298.573 386.464Z" fill="#626262"/>
<path d="M318.075 372.24C311.39 372.197 305.895 377.586 305.851 384.306C305.808 390.991 311.233 396.451 317.918 396.495C324.603 396.538 330.098 391.148 330.141 384.463C330.184 377.744 324.759 372.283 318.075 372.24ZM317.951 391.28C314.312 391.256 311.393 387.947 311.416 384.342C311.44 380.702 314.401 377.431 318.041 377.455C321.681 377.479 324.599 380.787 324.576 384.427C324.553 388.032 321.591 391.303 317.951 391.28Z" fill="#626262"/>
<path d="M355.472 373.392L350.642 373.361L345.192 388.061L339.932 373.292L335.067 373.26L331.036 395.809L336.21 396.753L338.389 384.552L342.514 396.129L347.729 396.162L352.039 384.64L354.06 396.868L359.211 395.992L355.472 373.392Z" fill="#626262"/>
<path d="M362.388 373.402L362.24 396.256L367.455 396.29L367.569 378.685L375.794 378.739L375.68 396.343L380.895 396.377L381.043 373.522L362.388 373.402Z" fill="#626262"/>
<path d="M396.242 372.746C389.557 372.703 384.062 378.092 384.019 384.812C383.975 391.497 389.4 396.957 396.085 397C402.77 397.044 408.265 391.654 408.308 384.969C408.352 378.249 402.927 372.789 396.242 372.746ZM396.119 391.785C392.479 391.762 389.56 388.453 389.584 384.848C389.607 381.208 392.568 377.937 396.208 377.961C399.848 377.984 402.767 381.293 402.743 384.933C402.72 388.538 399.759 391.809 396.119 391.785Z" fill="#626262"/>
<path d="M425.94 379.903C425.962 376.508 423.045 372.954 418.11 372.922C414.26 372.897 411.551 375.05 410.918 375.536C410.495 375.918 409.124 376.959 409.124 376.959L412.245 381.39C412.245 381.39 413.09 380.625 413.899 380.035C414.707 379.48 415.87 378.263 418.075 378.277C419.93 378.289 420.625 379.169 420.69 379.869C420.756 380.535 420.748 381.795 417.595 382.194C416.965 382.26 415.005 382.212 415.005 382.212L414.969 387.742C414.969 387.742 416.929 387.72 417.559 387.794C420.706 388.199 420.768 389.495 420.624 390.159C420.479 390.823 419.843 391.764 417.988 391.752C415.783 391.738 414.915 390.752 414.148 390.222C413.625 389.869 412.093 388.634 412.093 388.634L409.02 392.919C409.02 392.919 410.379 393.978 410.796 394.365C411.423 394.859 414.104 397.047 417.954 397.072C422.889 397.104 425.851 393.588 425.873 390.193C425.887 388.093 425.198 386.373 423.912 385.035C425.215 383.713 425.926 382.003 425.94 379.903Z" fill="#626262"/>
<path d="M441.497 373.914L434.206 386.327L434.287 373.867L429.037 373.833L428.889 396.723L434.139 396.756L441.429 384.378L441.349 396.803L446.563 396.837L446.712 373.947L441.497 373.914Z" fill="#626262"/>
<path d="M465.665 391.675L465.779 374.071L460.599 374.037L460.485 391.642L454.85 391.605L454.964 374.001L449.749 373.967L449.601 396.822L463.041 396.908L463.022 399.848L468.237 399.882L468.29 391.692L465.665 391.675Z" fill="#626262"/>
<path d="M483.913 374.188L476.622 386.601L476.703 374.141L471.453 374.107L471.305 396.997L476.555 397.031L483.845 384.653L483.765 397.078L488.98 397.111L489.128 374.222L483.913 374.188Z" fill="#626262"/>
<path d="M501.125 374.299C496.4 374.269 492.526 378.094 492.495 382.819C492.479 385.304 493.514 387.55 495.184 389.136L492.034 394.506L496.567 397.16L499.93 391.407C500.279 391.444 500.664 391.482 501.014 391.484C501.539 391.487 503.044 391.497 503.044 391.497L503.007 397.202L508.257 397.236L508.405 374.346C508.405 374.346 502.945 374.311 501.125 374.299ZM503.078 386.247C503.078 386.247 501.573 386.238 501.048 386.234C499.193 386.222 497.733 384.708 497.745 382.853C497.757 381.033 499.236 379.537 501.091 379.549C501.616 379.553 503.121 379.562 503.121 379.562L503.078 386.247Z" fill="#626262"/>
<path d="M29.9816 167.989C19.4745 155.729 11.3106 140.525 4.53354 125.64L137.91 4.60083L168.097 27.2861C122.38 75.0294 75.6872 120.257 29.9816 167.989Z" fill="#E96262"/>
<path d="M172.3 449.76L116.381 469.194L25.5059 343.837C29.2464 323.931 37.1898 307.123 48.9051 290.941C90.4815 343.606 130.723 397.117 172.3 449.76Z" fill="#E96262"/>
<path d="M29.9895 170.66H29.9264C29.5796 170.651 29.2384 170.567 28.9239 170.414C28.6094 170.261 28.3283 170.042 28.0982 169.771C18.999 159.137 10.7826 145.481 2.25084 126.795C2.00887 126.268 1.9395 125.673 2.05345 125.101C2.1674 124.53 2.4583 124.013 2.88124 123.631L88.5873 45.8422L136.247 2.64688C136.681 2.25546 137.228 2.02841 137.8 2.00249C138.372 1.97658 138.935 2.1533 139.399 2.50406L169.586 25.1783C169.888 25.4012 170.138 25.6911 170.32 26.0273C170.502 26.3635 170.61 26.7376 170.637 27.1228C170.667 27.5074 170.617 27.8943 170.49 28.2566C170.363 28.6189 170.162 28.948 169.901 29.221C147.059 53.0817 123.597 76.6897 100.912 99.5288C78.2273 122.368 54.681 146.053 31.7967 169.946C31.3058 170.421 30.6577 170.677 29.9895 170.66V170.66ZM7.68303 126.323C15.143 142.394 22.3929 154.512 30.1261 164.102C52.4115 140.857 75.3064 117.875 97.3712 95.6179C119.331 73.5149 142.026 50.6868 164.164 27.6171L138.054 7.99686L91.9285 49.8849L7.68303 126.323Z" fill="#E96262" stroke="#E96262" stroke-width="2.45748"/>
<path d="M116.376 471.864C115.98 471.859 115.59 471.757 115.238 471.566C114.886 471.375 114.581 471.101 114.348 470.765L106.773 460.318L23.4835 345.398C23.2661 345.099 23.1115 344.756 23.03 344.39C22.9485 344.025 22.942 343.646 23.0108 343.277C26.6462 323.91 34.2323 306.75 46.8827 289.283C47.1143 288.962 47.4124 288.701 47.7546 288.518C48.0969 288.335 48.4744 288.235 48.8587 288.227C49.243 288.218 49.6241 288.301 49.9734 288.469C50.3227 288.637 50.6312 288.885 50.8755 289.195C71.6269 315.484 92.3783 342.42 112.447 368.467C132.515 394.514 153.424 421.67 174.26 448.047C174.523 448.382 174.704 448.779 174.789 449.204C174.873 449.629 174.857 450.069 174.743 450.486C174.625 450.899 174.415 451.277 174.13 451.588C173.845 451.899 173.493 452.135 173.104 452.276L117.185 471.732C116.925 471.825 116.651 471.869 116.376 471.864ZM28.2327 343.2C55.7822 381.189 83.3177 419.177 110.839 457.165L117.311 466.085L167.966 448.508C147.897 423.033 127.934 397.03 108.475 371.851C89.016 346.672 69.0526 320.691 49.0157 295.259C38.246 310.771 31.6055 326.107 28.2327 343.2Z" fill="#E96262" stroke="#E96262" stroke-width="2.45748"/>
</svg>
