<svg width="806" height="474" viewBox="0 0 806 474" fill="none" xmlns="http://www.w3.org/2000/svg">
<path d="M750.86 257.825C731.096 263.983 712.473 269.703 692.699 275.862C708.841 277.757 722.585 285.45 738.726 287.334C721.799 300.111 702.764 312.866 685.827 325.632C699.871 331.528 722.257 338.113 736.311 343.998C721.733 357.608 710.779 371.623 696.191 385.243C711.172 396.903 722.21 411.455 737.219 423.125C512.981 449.61 284.399 445.578 59.5525 427.508C58.1668 300.009 56.7749 172.51 55.3767 45.011C278.454 49.701 499.789 55.9689 722.866 60.637C714.393 66.7844 691.473 82.8596 682.999 88.9961C694.703 89.9494 710.039 95.0558 721.742 95.9872C711.256 102.562 695.957 114.616 685.471 121.19C700.002 124.029 722.922 125.65 737.434 128.477C718.877 140.75 698.963 155.664 680.406 167.926C719.523 176.561 762.882 184.166 802 192.8C760.729 203.539 725.488 216.974 684.217 227.712C691.885 229.586 709.346 233.137 716.986 235.032C708.887 240.15 706.818 249.497 698.719 254.625C713.672 255.633 735.936 256.882 750.86 257.825Z" fill="white" stroke="#60C9EB" stroke-width="7.40698" stroke-linejoin="round"/>
<path d="M122.817 91.4822C112.178 91.3533 111.964 107.885 122.617 108.014C133.27 108.143 133.477 91.6113 122.817 91.4822Z" fill="#60C9EB" stroke="#60C9EB" stroke-width="2.95731"/>
<path d="M123.234 162.013C112.595 161.884 112.381 178.416 123.034 178.545C133.687 178.674 133.894 162.142 123.234 162.013Z" fill="#60C9EB" stroke="#60C9EB" stroke-width="2.95731"/>
<path d="M124.023 232.552C113.383 232.423 113.17 248.955 123.823 249.084C134.476 249.213 134.683 232.681 124.023 232.552Z" fill="#60C9EB" stroke="#60C9EB" stroke-width="2.95731"/>
<path d="M124.814 303.091C114.174 302.962 113.961 319.494 124.614 319.623C135.267 319.752 135.474 303.22 124.814 303.091Z" fill="#60C9EB" stroke="#60C9EB" stroke-width="2.95731"/>
<path d="M125.6 373.63C114.96 373.501 114.746 390.033 125.399 390.162C136.053 390.291 136.26 373.759 125.6 373.63Z" fill="#60C9EB" stroke="#60C9EB" stroke-width="2.95731"/>
<path d="M172.908 96.0809C171.849 96.0741 170.856 96.233 169.995 96.525C169.995 96.525 165.024 98.2124 164.996 102.577C165.016 104.561 165.699 106.285 167.014 107.55C165.916 108.502 164.948 109.918 164.936 111.836C164.981 115.01 166.651 117.567 170.084 118.582C171.536 119.021 173.983 119.037 175.44 118.616C178.919 117.614 180.622 115.045 180.643 111.805C180.652 110.317 179.935 108.791 178.686 107.593C180.017 106.312 180.69 104.563 180.703 102.546C180.723 99.4052 177.537 96.1109 172.908 96.0809ZM172.786 114.929C171.165 114.918 169.885 113.554 169.893 112.231C169.902 110.942 171.2 109.594 172.82 109.605C174.44 109.615 175.754 110.98 175.746 112.269C175.737 113.592 174.406 114.939 172.786 114.929ZM172.846 105.67C171.225 105.66 169.945 104.262 169.953 102.973C169.961 101.683 171.26 100.303 172.88 100.313C174.5 100.324 175.814 101.721 175.806 103.011C175.797 104.3 174.466 105.681 172.846 105.67Z" fill="#626262"/>
<path d="M188.84 114.768L188.871 109.94L183.911 109.908L183.88 114.736L188.84 114.768ZM188.903 105.08L188.934 100.252L183.974 100.22L183.943 105.047L188.903 105.08Z" fill="#626262"/>
<path d="M200.642 96.2934C197.005 96.2699 194.446 98.3366 193.848 98.7957C193.449 99.1238 192.153 100.107 192.153 100.107L195.101 104.326C195.101 104.326 195.9 103.571 196.664 103.047C197.428 102.489 198.526 101.372 200.61 101.386C202.362 101.397 203.018 102.195 203.08 102.89C203.142 103.518 203.134 104.709 200.156 105.053C199.56 105.115 197.709 105.103 197.709 105.103L197.675 110.295C197.675 110.295 199.527 110.307 200.122 110.377C203.095 110.76 203.153 111.984 203.017 112.578C202.881 113.238 202.28 114.028 200.528 114.017C198.445 114.003 197.624 113.138 196.899 112.638C196.406 112.304 194.958 111.17 194.958 111.17L192.055 115.219C192.055 115.219 193.338 116.219 193.733 116.552C194.325 117.019 196.857 119.118 200.495 119.142C205.157 119.172 207.956 115.85 207.977 112.61C207.99 110.626 207.339 109.002 206.124 107.77C207.355 106.522 208.027 104.906 208.04 102.922C208.061 99.6812 205.305 96.3236 200.642 96.2934Z" fill="#626262"/>
<path d="M220.254 96.3872C214.765 96.3517 210.268 101.448 210.227 107.764C210.186 114.079 214.617 119.233 220.106 119.269C225.595 119.304 230.059 114.208 230.099 107.892C230.14 101.577 225.743 96.4228 220.254 96.3872ZM220.138 114.243C217.559 114.226 215.496 111.171 215.517 107.798C215.539 104.425 217.642 101.397 220.221 101.413C222.8 101.43 224.864 104.486 224.842 107.858C224.82 111.231 222.717 114.26 220.138 114.243Z" fill="#626262"/>
<path d="M254.472 110.365L254.503 105.504L244.616 105.44L244.585 110.301L254.472 110.365Z" fill="#626262"/>
<path d="M280.477 96.9422C274.162 96.9013 268.97 101.993 268.929 108.342C268.888 114.657 274.014 119.816 280.329 119.857C286.645 119.898 291.836 114.806 291.877 108.49C291.918 102.142 286.793 96.9831 280.477 96.9422ZM280.361 114.93C276.922 114.908 274.165 111.782 274.187 108.376C274.209 104.937 277.007 101.847 280.445 101.869C283.884 101.891 286.642 105.017 286.62 108.456C286.597 111.862 283.8 114.952 280.361 114.93Z" fill="#626262"/>
<path d="M306.425 115.132C303.02 115.044 300.262 111.884 300.351 108.446C300.406 105.04 303.269 101.984 306.708 102.072C308.493 102.084 310.106 103.218 311.223 104.482L315.016 100.836C312.98 98.6074 310.046 97.1996 306.806 97.1125C300.491 97.0055 295.234 102.031 295.094 108.346C294.987 114.661 300.012 119.918 306.327 120.058C309.567 120.112 312.518 118.842 314.682 116.706L311.036 112.913C309.871 114.129 308.243 115.177 306.425 115.132Z" fill="#626262"/>
<path d="M330.028 98.2217L329.973 106.687L323.162 106.643L323.216 98.1776L318.256 98.1456L318.117 119.738L323.077 119.77L323.131 111.305L329.943 111.349L329.888 119.814L334.848 119.846L334.988 98.2538L330.028 98.2217Z" fill="#626262"/>
<path d="M349.668 97.3898C343.352 97.349 338.161 102.441 338.12 108.789C338.079 115.105 343.204 120.264 349.52 120.305C355.835 120.345 361.027 115.254 361.068 108.938C361.109 102.589 355.983 97.4307 349.668 97.3898ZM349.552 115.378C346.113 115.355 343.355 112.229 343.377 108.823C343.399 105.385 346.197 102.294 349.636 102.317C353.075 102.339 355.832 105.465 355.81 108.904C355.788 112.31 352.99 115.4 349.552 115.378Z" fill="#626262"/>
<path d="M380.015 105.059C380.039 101.389 377.083 98.3939 373.412 98.3701C371.164 98.3556 364.352 98.3115 364.352 98.3115L364.212 119.937C364.212 119.937 371.024 119.981 373.272 119.995C376.943 120.019 379.938 117.062 379.961 113.425C379.972 111.838 379.419 110.379 378.501 109.216C379.434 108.098 380.005 106.647 380.015 105.059ZM373.304 115.068C372.279 115.062 369.204 115.042 369.204 115.042L369.226 111.603C369.226 111.603 372.301 111.623 373.326 111.63C374.252 111.636 375.007 112.467 375.001 113.393C374.995 114.319 374.23 115.074 373.304 115.068ZM373.358 106.703C372.333 106.696 369.258 106.676 369.258 106.676L369.28 103.303C369.28 103.303 372.355 103.323 373.38 103.33C374.306 103.336 375.062 104.101 375.056 105.027C375.05 105.953 374.284 106.709 373.358 106.703Z" fill="#626262"/>
<path d="M405.593 120.204L405.733 98.5792L400.773 98.5471L400.634 120.172L405.593 120.204ZM392.321 106.825L388.221 106.799L388.275 98.4663L383.315 98.4342L383.175 120.059C383.175 120.059 389.986 120.103 392.235 120.118C395.905 120.142 398.9 117.185 398.924 113.548C398.948 109.877 395.991 106.849 392.321 106.825ZM392.267 115.191C391.242 115.184 388.167 115.165 388.167 115.165L388.189 111.726C388.189 111.726 391.264 111.746 392.289 111.752C393.215 111.758 393.97 112.59 393.964 113.516C393.958 114.442 393.193 115.197 392.267 115.191Z" fill="#626262"/>
<path d="M420.142 98.6724L420.112 103.335L426.13 103.374L426.02 120.337L430.98 120.369L431.09 103.406L437.108 103.445L437.138 98.7824L420.142 98.6724Z" fill="#626262"/>
<path d="M452.103 98.8792L445.215 110.607L445.291 98.8351L440.331 98.803L440.192 120.428L445.151 120.46L452.039 108.766L451.963 120.504L456.89 120.536L457.03 98.9111L452.103 98.8792Z" fill="#626262"/>
<path d="M460.23 98.9318L460.091 120.524L465.018 120.556L465.125 103.924L472.896 103.974L472.788 120.606L477.715 120.638L477.855 99.0458L460.23 98.9318Z" fill="#626262"/>
<path d="M492.545 98.3142C486.23 98.2733 481.038 103.365 480.997 109.714C480.956 116.029 486.081 121.188 492.397 121.229C498.712 121.27 503.904 116.178 503.945 109.862C503.986 103.514 498.861 98.355 492.545 98.3142ZM492.429 116.302C488.99 116.28 486.232 113.154 486.255 109.748C486.277 106.309 489.074 103.219 492.513 103.241C495.952 103.263 498.71 106.389 498.687 109.828C498.665 113.234 495.868 116.324 492.429 116.302Z" fill="#626262"/>
<path d="M507.229 99.2358L507.089 120.861L512.049 120.893L512.157 104.228L520.291 104.28L520.323 99.3206L507.229 99.2358Z" fill="#626262"/>
<path d="M530.422 99.419C528.702 99.4078 523.544 99.3745 523.544 99.3745L523.404 121L528.364 121.032L528.399 115.609C528.399 115.609 529.821 115.618 530.317 115.621C534.781 115.65 538.441 112.069 538.47 107.573C538.499 103.109 534.885 99.4478 530.422 99.419ZM530.349 110.694C529.853 110.691 528.431 110.682 528.431 110.682L528.472 104.333C528.472 104.333 529.894 104.343 530.39 104.346C532.142 104.357 533.852 105.79 533.841 107.543C533.83 109.295 532.101 110.706 530.349 110.694Z" fill="#626262"/>
<path d="M551.453 99.3897L546.493 99.3576L538.887 119.876L543.538 121.593L545.187 117.172L552.561 117.22L554.153 121.661L558.793 120.005L551.453 99.3897ZM547.005 112.224L548.923 107.045L550.774 112.248L547.005 112.224Z" fill="#626262"/>
<path d="M576.344 102.13C575.749 102.126 575.186 102.189 574.624 102.284L574.64 99.672L569.714 99.6401L569.697 102.252C569.135 102.149 568.574 102.08 568.011 102.076C563.382 102.046 559.589 105.758 559.559 110.387C559.529 115.017 563.274 118.811 567.903 118.841C568.465 118.844 569.028 118.782 569.591 118.653L569.574 121.265L574.501 121.297L574.517 118.685C575.079 118.821 575.64 118.891 576.236 118.894C580.832 118.924 584.626 115.179 584.656 110.55C584.686 105.921 580.94 102.16 576.344 102.13ZM569.624 113.462C569.127 113.723 568.53 113.884 567.935 113.881C566.017 113.868 564.506 112.337 564.519 110.419C564.531 108.535 566.062 106.99 567.98 107.003C568.575 107.007 569.169 107.176 569.663 107.477L569.624 113.462ZM576.268 113.935C575.639 113.93 575.045 113.761 574.551 113.494L574.59 107.509C575.088 107.214 575.684 107.053 576.312 107.057C578.197 107.069 579.741 108.633 579.729 110.518C579.716 112.436 578.153 113.947 576.268 113.935Z" fill="#626262"/>
<path d="M599.695 99.834L592.807 111.561L592.883 99.79L587.923 99.7579L587.783 121.383L592.743 121.415L599.631 109.721L599.555 121.459L604.482 121.491L604.621 99.8659L599.695 99.834Z" fill="#626262"/>
<path d="M619.594 99.9628L612.706 111.69L612.782 99.9187L607.822 99.8866L607.682 121.512L612.642 121.544L619.53 109.85L619.454 121.588L624.381 121.62L624.52 99.9947L619.594 99.9628Z" fill="#626262"/>
<path d="M164.553 171.014L167.661 171.034L167.553 187.699L172.48 187.731L172.62 166.139L165.213 166.091L164.553 171.014Z" fill="#626262"/>
<path d="M185.789 165.166C180.3 165.13 175.803 170.227 175.763 176.542C175.722 182.858 180.152 188.012 185.641 188.047C191.13 188.083 195.594 182.986 195.635 176.671C195.676 170.355 191.278 165.201 185.789 165.166ZM185.674 183.021C183.095 183.005 181.031 179.949 181.053 176.576C181.075 173.204 183.178 170.175 185.757 170.192C188.336 170.208 190.399 173.264 190.378 176.637C190.356 180.009 188.253 183.038 185.674 183.021Z" fill="#626262"/>
<path d="M203.837 183.866L203.868 179.039L198.908 179.007L198.877 183.834L203.837 183.866ZM203.899 174.178L203.93 169.35L198.971 169.318L198.939 174.146L203.899 174.178Z" fill="#626262"/>
<path d="M217.127 165.368C211.638 165.333 207.141 170.429 207.1 176.745C207.059 183.061 211.49 188.215 216.979 188.25C222.468 188.286 226.932 183.189 226.973 176.873C227.014 170.558 222.616 165.404 217.127 165.368ZM217.012 183.224C214.432 183.207 212.369 180.152 212.391 176.779C212.413 173.406 214.515 170.378 217.095 170.394C219.674 170.411 221.737 173.467 221.715 176.839C221.694 180.212 219.591 183.241 217.012 183.224Z" fill="#626262"/>
<path d="M240.288 165.518C234.799 165.483 230.302 170.579 230.261 176.895C230.22 183.21 234.651 188.364 240.139 188.4C245.628 188.435 250.092 183.339 250.133 177.023C250.174 170.708 245.776 165.554 240.288 165.518ZM240.172 183.374C237.593 183.357 235.529 180.302 235.551 176.929C235.573 173.556 237.676 170.528 240.255 170.544C242.834 170.561 244.898 173.617 244.876 176.989C244.854 180.362 242.751 183.391 240.172 183.374Z" fill="#626262"/>
<path d="M274.506 179.496L274.537 174.635L264.65 174.571L264.619 179.432L274.506 179.496Z" fill="#626262"/>
<path d="M300.803 166.902L293.916 178.629L293.992 166.858L289.032 166.826L288.892 188.451L293.852 188.483L300.739 176.789L300.664 188.527L305.59 188.559L305.73 166.934L300.803 166.902Z" fill="#626262"/>
<path d="M320.194 184.222C316.789 184.134 314.032 180.975 314.12 177.536C314.175 174.131 317.039 171.074 320.477 171.163C322.263 171.174 323.876 172.309 324.992 173.573L328.785 169.927C326.749 167.698 323.816 166.29 320.576 166.203C314.26 166.096 309.003 171.121 308.863 177.436C308.756 183.751 313.781 189.009 320.096 189.149C323.337 189.203 326.288 187.932 328.451 185.797L324.805 182.004C323.64 183.219 322.013 184.267 320.194 184.222Z" fill="#626262"/>
<path d="M330.929 167.097L330.899 171.759L336.917 171.798L336.807 188.761L341.767 188.793L341.877 171.83L347.895 171.869L347.925 167.207L330.929 167.097Z" fill="#626262"/>
<path d="M360.111 166.459C353.796 166.418 348.604 171.51 348.563 177.858C348.522 184.174 353.647 189.333 359.963 189.374C366.279 189.414 371.47 184.323 371.511 178.007C371.552 171.658 366.427 166.5 360.111 166.459ZM359.995 184.447C356.556 184.424 353.799 181.298 353.821 177.893C353.843 174.454 356.641 171.363 360.079 171.386C363.518 171.408 366.276 174.534 366.253 177.973C366.231 181.379 363.434 184.469 359.995 184.447Z" fill="#626262"/>
<path d="M381.673 167.458C379.954 167.447 374.795 167.414 374.795 167.414L374.655 189.039L379.615 189.071L379.65 183.648C379.65 183.648 381.072 183.657 381.568 183.66C386.032 183.689 389.693 180.109 389.722 175.612C389.751 171.148 386.137 167.487 381.673 167.458ZM381.6 178.734C381.104 178.73 379.682 178.721 379.682 178.721L379.723 172.372C379.723 172.372 381.145 172.382 381.641 172.385C383.394 172.396 385.104 173.829 385.093 175.582C385.081 177.334 383.353 178.745 381.6 178.734Z" fill="#626262"/>
<path d="M404.755 167.574L397.867 179.302L397.943 167.53L392.983 167.498L392.843 189.123L397.803 189.155L404.691 177.461L404.615 189.199L409.542 189.231L409.681 167.606L404.755 167.574Z" fill="#626262"/>
<path d="M421.347 167.682C416.883 167.653 413.222 171.267 413.193 175.73C413.178 178.078 414.156 180.201 415.734 181.699L412.758 186.772L417.041 189.28L420.217 183.844C420.548 183.88 420.911 183.915 421.242 183.917C421.738 183.92 423.16 183.929 423.16 183.929L423.125 189.319L428.085 189.351L428.225 167.726C428.225 167.726 423.066 167.693 421.347 167.682ZM423.192 178.97C423.192 178.97 421.77 178.96 421.274 178.957C419.522 178.946 418.142 177.515 418.153 175.763C418.164 174.043 419.562 172.63 421.315 172.642C421.811 172.645 423.233 172.654 423.233 172.654L423.192 178.97Z" fill="#626262"/>
<path d="M454.409 167.896L447.521 179.623L447.597 167.852L442.638 167.819L442.498 189.445L447.458 189.477L454.345 177.782L454.269 189.521L459.196 189.553L459.336 167.927L454.409 167.896Z" fill="#626262"/>
<path d="M473.8 185.216C470.395 185.128 467.637 181.969 467.726 178.53C467.781 175.125 470.644 172.068 474.083 172.156C475.868 172.168 477.481 173.303 478.598 174.566L482.391 170.92C480.355 168.692 477.421 167.284 474.181 167.197C467.866 167.09 462.609 172.115 462.469 178.43C462.362 184.745 467.387 190.002 473.702 190.142C476.942 190.196 479.893 188.926 482.057 186.791L478.411 182.997C477.246 184.213 475.618 185.261 473.8 185.216Z" fill="#626262"/>
<path d="M494.768 180.888C496.661 179.676 497.931 177.535 497.947 175.121C497.954 173.997 498.852 173.143 499.943 173.15C500.142 173.152 500.671 173.155 500.671 173.155L500.703 168.195C500.703 168.195 500.174 168.192 499.976 168.19C496.173 168.166 493.045 171.254 493.02 175.09C493.013 176.181 492.114 177.068 490.99 177.06L490.99 177.093L489.479 175.53L489.527 168.123L484.567 168.091L484.427 189.716L489.387 189.748L489.433 182.573L497.219 190.46L500.747 186.945L494.768 180.888Z" fill="#626262"/>
<path d="M517.174 167.773L512.148 177.991L507.254 167.708L502.776 169.829L509.627 184.191L509.59 190.011L514.55 190.043L514.587 184.223L521.591 169.951L517.174 167.773Z" fill="#626262"/>
<path d="M533.465 185.602C530.059 185.514 527.302 182.355 527.391 178.916C527.446 175.511 530.309 172.454 533.748 172.542C535.533 172.554 537.146 173.689 538.262 174.952L542.056 171.306C540.02 169.078 537.086 167.67 533.846 167.583C527.531 167.476 522.274 172.501 522.133 178.816C522.026 185.131 527.052 190.388 533.367 190.528C536.607 190.582 539.558 189.312 541.721 187.177L538.075 183.383C536.91 184.599 535.283 185.647 533.465 185.602Z" fill="#626262"/>
<path d="M554.236 185.736C550.83 185.648 548.073 182.489 548.161 179.051C548.216 175.645 551.08 172.588 554.518 172.677C556.304 172.688 557.917 173.823 559.033 175.087L562.826 171.441C560.791 169.212 557.857 167.804 554.617 167.717C548.302 167.61 543.044 172.635 542.904 178.95C542.797 185.266 547.823 190.523 554.138 190.663C557.378 190.717 560.329 189.446 562.492 187.311L558.846 183.518C557.681 184.734 556.054 185.781 554.236 185.736Z" fill="#626262"/>
<path d="M564.97 168.611L564.94 173.273L570.958 173.312L570.848 190.275L575.808 190.307L575.918 173.344L581.936 173.383L581.966 168.721L564.97 168.611Z" fill="#626262"/>
<path d="M600.823 175.489C600.847 171.819 597.89 168.824 594.22 168.8C591.971 168.786 585.16 168.741 585.16 168.741L585.02 190.367C585.02 190.367 591.831 190.411 594.08 190.425C597.75 190.449 600.745 187.492 600.769 183.855C600.779 182.268 600.226 180.809 599.308 179.646C600.241 178.528 600.813 177.076 600.823 175.489ZM594.112 185.498C593.087 185.492 590.011 185.472 590.011 185.472L590.034 182.033C590.034 182.033 593.109 182.053 594.134 182.06C595.06 182.066 595.815 182.897 595.809 183.823C595.803 184.749 595.038 185.504 594.112 185.498ZM594.166 177.133C593.141 177.126 590.066 177.106 590.066 177.106L590.087 173.733C590.087 173.733 593.163 173.753 594.188 173.76C595.113 173.766 595.869 174.531 595.863 175.457C595.857 176.383 595.092 177.139 594.166 177.133Z" fill="#626262"/>
<path d="M164.106 240.012L167.215 240.032L167.107 256.697L172.034 256.729L172.173 235.137L164.767 235.089L164.106 240.012Z" fill="#626262"/>
<path d="M175.351 240.085L178.46 240.105L178.352 256.77L183.279 256.802L183.418 235.21L176.012 235.162L175.351 240.085Z" fill="#626262"/>
<path d="M191.475 252.788L191.506 247.96L186.546 247.928L186.515 252.756L191.475 252.788ZM191.538 243.099L191.569 238.272L186.609 238.24L186.578 243.067L191.538 243.099Z" fill="#626262"/>
<path d="M202.979 249.754C203.012 249.721 203.111 249.722 203.178 249.722C208.077 248.828 210.642 245.968 210.667 242.066C210.688 238.925 207.937 234.773 203.274 234.743C199.637 234.72 197.078 236.72 196.48 237.179C196.081 237.507 194.785 238.491 194.785 238.491L197.734 242.611C197.734 242.611 199.064 241.561 199.629 241.135C199.861 240.971 201.159 239.789 203.242 239.802C204.994 239.814 205.616 240.843 205.709 241.835C205.803 242.597 205.661 244.051 202.45 244.625C202.417 244.625 202.317 244.657 202.251 244.657C197.285 245.551 194.818 248.709 194.793 252.578C194.785 253.801 194.765 256.876 194.765 256.876L210.571 256.979L210.603 252.052L199.757 251.982C199.76 251.453 199.701 250.361 202.979 249.754Z" fill="#626262"/>
<path d="M222.824 234.407C217.335 234.371 212.838 239.468 212.797 245.783C212.756 252.099 217.187 257.253 222.676 257.288C228.165 257.324 232.629 252.227 232.67 245.912C232.71 239.596 228.313 234.442 222.824 234.407ZM222.708 252.262C220.129 252.246 218.066 249.19 218.087 245.817C218.109 242.445 220.212 239.416 222.791 239.433C225.37 239.449 227.434 242.505 227.412 245.878C227.39 249.25 225.287 252.279 222.708 252.262Z" fill="#626262"/>
<path d="M257.042 248.384L257.073 243.523L247.186 243.459L247.155 248.32L257.042 248.384Z" fill="#626262"/>
<path d="M271.568 235.714L271.429 257.306L276.355 257.338L276.463 240.706L284.233 240.756L284.126 257.388L289.053 257.42L289.192 235.828L271.568 235.714Z" fill="#626262"/>
<path d="M304.672 240.888L304.704 235.929L292.404 235.849L292.264 257.474L304.564 257.554L304.596 252.627L297.256 252.579L297.278 249.074L303.263 249.113L303.294 244.352L297.309 244.313L297.331 240.841L304.672 240.888Z" fill="#626262"/>
<path d="M314.789 236.027C313.069 236.016 307.911 235.982 307.911 235.982L307.771 257.607L312.731 257.64L312.766 252.217C312.766 252.217 314.188 252.226 314.684 252.229C319.148 252.258 322.808 248.677 322.837 244.18C322.866 239.716 319.252 236.056 314.789 236.027ZM314.716 247.302C314.22 247.299 312.798 247.29 312.798 247.29L312.839 240.941C312.839 240.941 314.261 240.95 314.757 240.954C316.509 240.965 318.219 242.398 318.208 244.15C318.197 245.903 316.468 247.314 314.716 247.302Z" fill="#626262"/>
<path d="M338.367 241.106L338.399 236.147L326.099 236.067L325.959 257.692L338.259 257.772L338.291 252.845L330.951 252.797L330.973 249.292L336.958 249.331L336.989 244.57L331.004 244.531L331.026 241.059L338.367 241.106Z" fill="#626262"/>
<path d="M348.484 236.245C346.764 236.234 341.606 236.2 341.606 236.2L341.466 257.825L346.426 257.858L346.461 252.435C346.461 252.435 347.883 252.444 348.379 252.447C352.843 252.476 356.503 248.895 356.532 244.398C356.561 239.934 352.947 236.274 348.484 236.245ZM348.411 247.52C347.915 247.517 346.493 247.508 346.493 247.508L346.534 241.159C346.534 241.159 347.956 241.168 348.452 241.172C350.204 241.183 351.914 242.616 351.903 244.368C351.892 246.121 350.163 247.532 348.411 247.52Z" fill="#626262"/>
<path d="M382.072 258.055L382.212 236.43L377.252 236.398L377.113 258.023L382.072 258.055ZM368.8 244.676L364.7 244.65L364.754 236.317L359.794 236.285L359.654 257.91C359.654 257.91 366.465 257.954 368.714 257.969C372.384 257.992 375.379 255.036 375.403 251.398C375.427 247.728 372.47 244.7 368.8 244.676ZM368.746 253.042C367.721 253.035 364.646 253.015 364.646 253.015L364.668 249.576C364.668 249.576 367.743 249.596 368.768 249.603C369.694 249.609 370.449 250.441 370.443 251.366C370.437 252.292 369.672 253.048 368.746 253.042Z" fill="#626262"/>
<path d="M401.071 243.198C401.095 239.528 398.139 236.533 394.468 236.509C392.22 236.495 385.408 236.451 385.408 236.451L385.268 258.076C385.268 258.076 392.08 258.12 394.328 258.134C397.999 258.158 400.994 255.201 401.017 251.564C401.028 249.977 400.475 248.518 399.557 247.355C400.49 246.237 401.061 244.786 401.071 243.198ZM394.36 253.208C393.335 253.201 390.26 253.181 390.26 253.181L390.282 249.742C390.282 249.742 393.357 249.762 394.382 249.769C395.308 249.775 396.063 250.606 396.057 251.532C396.051 252.458 395.286 253.214 394.36 253.208ZM394.414 244.842C393.389 244.835 390.314 244.815 390.314 244.815L390.336 241.443C390.336 241.443 393.411 241.462 394.436 241.469C395.362 241.475 396.118 242.241 396.112 243.166C396.106 244.092 395.34 244.848 394.414 244.842Z" fill="#626262"/>
<path d="M163.667 308.011L166.775 308.031L166.667 324.696L171.594 324.728L171.733 303.136L164.327 303.088L163.667 308.011Z" fill="#626262"/>
<path d="M183.117 317.627C183.15 317.594 183.249 317.595 183.315 317.595C188.215 316.701 190.78 313.841 190.805 309.939C190.825 306.798 188.074 302.646 183.412 302.616C179.775 302.593 177.216 304.593 176.618 305.052C176.219 305.38 174.923 306.364 174.923 306.364L177.872 310.483C177.872 310.483 179.202 309.434 179.766 309.008C179.999 308.844 181.296 307.662 183.379 307.675C185.132 307.687 185.754 308.716 185.846 309.708C185.941 310.469 185.799 311.924 182.588 312.498C182.555 312.498 182.455 312.53 182.389 312.53C177.423 313.424 174.956 316.582 174.931 320.451C174.923 321.674 174.903 324.749 174.903 324.749L190.708 324.852L190.74 319.925L179.895 319.855C179.898 319.326 179.839 318.234 183.117 317.627Z" fill="#626262"/>
<path d="M198.946 320.838L198.977 316.01L194.018 315.978L193.986 320.805L198.946 320.838ZM199.009 311.149L199.04 306.322L194.08 306.29L194.049 311.117L199.009 311.149Z" fill="#626262"/>
<path d="M212.237 302.34C206.748 302.304 202.251 307.401 202.21 313.716C202.169 320.032 206.6 325.186 212.089 325.221C217.578 325.257 222.042 320.16 222.083 313.845C222.123 307.529 217.726 302.375 212.237 302.34ZM212.121 320.195C209.542 320.179 207.479 317.123 207.5 313.75C207.522 310.378 209.625 307.349 212.204 307.366C214.783 307.382 216.847 310.438 216.825 313.811C216.803 317.183 214.7 320.212 212.121 320.195Z" fill="#626262"/>
<path d="M235.397 302.49C229.908 302.454 225.411 307.55 225.37 313.866C225.329 320.182 229.76 325.336 235.249 325.371C240.738 325.407 245.202 320.31 245.243 313.995C245.284 307.679 240.886 302.525 235.397 302.49ZM235.282 320.345C232.702 320.328 230.639 317.273 230.661 313.9C230.683 310.527 232.785 307.499 235.365 307.516C237.944 307.532 240.007 310.588 239.985 313.961C239.964 317.333 237.861 320.362 235.282 320.345Z" fill="#626262"/>
<path d="M269.615 316.467L269.647 311.606L259.76 311.542L259.728 316.403L269.615 316.467Z" fill="#626262"/>
<path d="M306.595 308.869C306.892 308.871 307.719 308.876 307.719 308.876L307.751 303.95C307.751 303.95 306.924 303.944 306.626 303.942C302.824 303.918 299.696 307.006 299.671 310.842C299.668 311.205 299.534 311.601 299.366 311.898C299.036 311.829 298.739 311.761 298.408 311.726L298.459 303.89L293.532 303.858L293.482 311.661C293.118 311.725 292.787 311.756 292.456 311.853C292.259 311.554 292.129 311.156 292.132 310.793L292.165 310.793C292.19 306.957 289.101 303.829 285.266 303.804C285.001 303.802 284.142 303.797 284.142 303.797L284.11 308.724C284.11 308.724 284.969 308.729 285.234 308.731C286.358 308.738 287.245 309.637 287.238 310.761C287.229 312.183 287.65 313.541 288.403 314.638C287.635 315.757 287.197 317.077 287.188 318.532C287.181 319.623 286.282 320.51 285.158 320.503C284.893 320.501 284.034 320.495 284.034 320.495L284.002 325.422C284.002 325.422 284.861 325.428 285.126 325.429C288.962 325.454 292.09 322.366 292.114 318.563L292.081 318.563C292.084 318.166 292.219 317.804 292.419 317.507C292.749 317.576 293.079 317.644 293.443 317.679L293.392 325.483L298.319 325.515L298.37 317.711C298.701 317.68 298.999 317.616 299.33 317.552C299.493 317.851 299.623 318.215 299.62 318.612C299.596 322.415 302.684 325.543 306.487 325.568C306.784 325.569 307.611 325.575 307.611 325.575L307.643 320.648C307.643 320.648 306.816 320.643 306.518 320.641C305.427 320.634 304.54 319.735 304.547 318.644C304.557 317.189 304.102 315.863 303.349 314.734C304.117 313.648 304.588 312.295 304.598 310.873C304.605 309.749 305.503 308.862 306.595 308.869Z" fill="#626262"/>
<path d="M322.722 304.047L315.835 315.774L315.911 304.002L310.951 303.97L310.811 325.595L315.771 325.628L322.658 313.933L322.582 325.672L327.509 325.704L327.649 304.078L322.722 304.047Z" fill="#626262"/>
<path d="M346.513 310.847C346.537 307.177 343.58 304.181 339.91 304.158C337.661 304.143 330.85 304.099 330.85 304.099L330.71 325.724C330.71 325.724 337.522 325.768 339.77 325.783C343.44 325.807 346.436 322.85 346.459 319.213C346.469 317.625 345.917 316.167 344.998 315.004C345.931 313.885 346.503 312.434 346.513 310.847ZM339.802 320.856C338.777 320.849 335.702 320.83 335.702 320.83L335.724 317.391C335.724 317.391 338.799 317.411 339.824 317.417C340.75 317.423 341.505 318.255 341.499 319.181C341.493 320.106 340.728 320.862 339.802 320.856ZM339.856 312.49C338.831 312.484 335.756 312.464 335.756 312.464L335.778 309.091C335.778 309.091 338.853 309.111 339.878 309.118C340.804 309.124 341.559 309.889 341.553 310.815C341.547 311.741 340.782 312.496 339.856 312.49Z" fill="#626262"/>
<path d="M360.291 303.463C353.975 303.422 348.784 308.514 348.742 314.863C348.702 321.178 353.827 326.337 360.142 326.378C366.458 326.418 371.649 321.327 371.69 315.011C371.731 308.662 366.606 303.504 360.291 303.463ZM360.174 321.451C356.735 321.429 353.978 318.302 354 314.897C354.022 311.458 356.82 308.367 360.259 308.39C363.698 308.412 366.455 311.538 366.433 314.977C366.411 318.383 363.613 321.473 360.174 321.451Z" fill="#626262"/>
<path d="M374.975 304.385L374.835 325.977L379.762 326.009L379.87 309.376L387.64 309.427L387.532 326.059L392.459 326.091L392.599 304.499L374.975 304.385Z" fill="#626262"/>
<path d="M407.582 304.596L400.694 316.323L400.77 304.551L395.81 304.519L395.67 326.144L400.63 326.177L407.518 314.482L407.442 326.221L412.369 326.253L412.509 304.627L407.582 304.596Z" fill="#626262"/>
<path d="M426.973 321.916C423.567 321.828 420.81 318.669 420.898 315.23C420.954 311.825 423.817 308.768 427.256 308.856C429.041 308.868 430.654 310.002 431.77 311.266L435.563 307.62C433.528 305.392 430.594 303.984 427.354 303.897C421.039 303.79 415.781 308.815 415.641 315.13C415.534 321.445 420.56 326.702 426.875 326.842C430.115 326.896 433.066 325.626 435.229 323.49L431.583 319.697C430.418 320.913 428.791 321.961 426.973 321.916Z" fill="#626262"/>
<path d="M447.811 313.189C446.786 313.182 443.711 313.162 443.711 313.162L443.765 304.83L438.805 304.798L438.665 326.423C438.665 326.423 445.477 326.467 447.725 326.481C451.396 326.505 454.391 323.548 454.414 319.911C454.438 316.241 451.482 313.212 447.811 313.189ZM447.757 321.554C446.732 321.548 443.657 321.528 443.657 321.528L443.679 318.089C443.679 318.089 446.754 318.109 447.779 318.116C448.705 318.122 449.46 318.953 449.454 319.879C449.448 320.805 448.683 321.56 447.757 321.554Z" fill="#626262"/>
<path d="M163.22 377.009L166.328 377.029L166.221 393.695L171.147 393.726L171.287 372.134L163.88 372.086L163.22 377.009Z" fill="#626262"/>
<path d="M182.969 371.185C179.331 371.161 176.772 373.228 176.174 373.687C175.775 374.015 174.479 374.999 174.479 374.999L177.427 379.217C177.427 379.217 178.226 378.462 178.99 377.938C179.754 377.381 180.852 376.264 182.936 376.277C184.688 376.288 185.344 377.086 185.406 377.781C185.468 378.41 185.46 379.6 182.482 379.945C181.886 380.007 180.035 379.995 180.035 379.995L180.001 385.186C180.001 385.186 181.853 385.198 182.448 385.268C185.421 385.651 185.479 386.875 185.343 387.469C185.207 388.13 184.606 388.92 182.854 388.908C180.771 388.895 179.95 388.03 179.225 387.529C178.732 387.195 177.284 386.061 177.284 386.061L174.381 390.11C174.381 390.11 175.664 391.11 176.059 391.444C176.651 391.91 179.183 394.01 182.821 394.033C187.483 394.064 190.282 390.742 190.303 387.501C190.316 385.517 189.665 383.893 188.45 382.662C189.681 381.413 190.353 379.797 190.366 377.813C190.387 374.573 187.631 371.215 182.969 371.185Z" fill="#626262"/>
<path d="M198.5 389.836L198.531 385.008L193.571 384.976L193.54 389.804L198.5 389.836ZM198.562 380.148L198.594 375.32L193.634 375.288L193.603 380.116L198.562 380.148Z" fill="#626262"/>
<path d="M210.004 386.802C210.037 386.769 210.136 386.77 210.203 386.77C215.102 385.876 217.667 383.016 217.692 379.114C217.713 375.973 214.962 371.822 210.299 371.792C206.662 371.768 204.103 373.769 203.505 374.228C203.106 374.556 201.81 375.539 201.81 375.539L204.759 379.659C204.759 379.659 206.089 378.609 206.654 378.183C206.886 378.019 208.184 376.837 210.267 376.851C212.019 376.862 212.641 377.891 212.734 378.884C212.828 379.645 212.686 381.099 209.475 381.673C209.442 381.673 209.342 381.706 209.276 381.705C204.31 382.599 201.843 385.757 201.818 389.626C201.81 390.85 201.79 393.925 201.79 393.925L217.596 394.027L217.628 389.1L206.782 389.03C206.785 388.501 206.726 387.409 210.004 386.802Z" fill="#626262"/>
<path d="M229.849 371.455C224.36 371.42 219.863 376.516 219.822 382.832C219.781 389.147 224.212 394.301 229.701 394.337C235.19 394.372 239.654 389.276 239.695 382.96C239.735 376.644 235.338 371.491 229.849 371.455ZM229.733 389.311C227.154 389.294 225.091 386.238 225.112 382.866C225.134 379.493 227.237 376.464 229.816 376.481C232.395 376.498 234.459 379.553 234.437 382.926C234.415 386.299 232.312 389.327 229.733 389.311Z" fill="#626262"/>
<path d="M264.067 385.432L264.098 380.572L254.211 380.508L254.18 385.368L264.067 385.432Z" fill="#626262"/>
<path d="M288.794 385.559C290.687 384.348 291.957 382.207 291.973 379.793C291.98 378.669 292.879 377.815 293.97 377.822C294.168 377.823 294.697 377.827 294.697 377.827L294.729 372.867C294.729 372.867 294.2 372.863 294.002 372.862C290.199 372.838 287.071 375.926 287.046 379.761C287.039 380.852 286.141 381.739 285.016 381.732L285.016 381.765L283.505 380.201L283.553 372.795L278.593 372.762L278.453 394.388L283.413 394.42L283.46 387.244L291.246 395.132L294.773 391.616L288.794 385.559Z" fill="#626262"/>
<path d="M307.55 372.123C301.234 372.082 296.043 377.174 296.002 383.523C295.961 389.838 301.086 394.997 307.401 395.038C313.717 395.079 318.908 389.987 318.949 383.671C318.99 377.323 313.865 372.164 307.55 372.123ZM307.433 390.111C303.994 390.089 301.237 386.963 301.259 383.557C301.281 380.118 304.079 377.028 307.518 377.05C310.957 377.072 313.714 380.198 313.692 383.637C313.67 387.043 310.872 390.133 307.433 390.111Z" fill="#626262"/>
<path d="M343.212 373.214L338.649 373.184L333.499 387.072L328.53 373.119L323.934 373.089L320.126 394.393L325.014 395.284L327.073 383.757L330.97 394.694L335.897 394.726L339.968 383.84L341.878 395.393L346.744 394.565L343.212 373.214Z" fill="#626262"/>
<path d="M350.076 373.225L349.937 394.817L354.864 394.849L354.971 378.217L362.742 378.267L362.634 394.899L367.561 394.931L367.701 373.339L350.076 373.225Z" fill="#626262"/>
<path d="M382.391 372.607C376.075 372.566 370.884 377.658 370.843 384.007C370.802 390.323 375.927 395.481 382.243 395.522C388.558 395.563 393.75 390.471 393.791 384.155C393.832 377.807 388.707 372.648 382.391 372.607ZM382.275 390.595C378.836 390.573 376.078 387.447 376.1 384.041C376.123 380.602 378.92 377.512 382.359 377.534C385.798 377.556 388.556 380.683 388.533 384.121C388.511 387.527 385.714 390.617 382.275 390.595Z" fill="#626262"/>
<path d="M410.779 379.371C410.8 376.164 408.044 372.806 403.382 372.776C399.745 372.753 397.185 374.786 396.587 375.245C396.188 375.606 394.892 376.59 394.892 376.59L397.841 380.776C397.841 380.776 398.639 380.053 399.403 379.496C400.167 378.972 401.266 377.822 403.349 377.835C405.102 377.847 405.758 378.677 405.819 379.339C405.881 379.968 405.874 381.158 402.895 381.536C402.3 381.598 400.448 381.553 400.448 381.553L400.414 386.778C400.414 386.778 402.266 386.756 402.861 386.826C405.835 387.209 405.893 388.433 405.757 389.061C405.62 389.688 405.019 390.577 403.267 390.566C401.184 390.552 400.363 389.621 399.639 389.12C399.145 388.786 397.697 387.62 397.697 387.62L394.794 391.668C394.794 391.668 396.078 392.669 396.472 393.035C397.064 393.502 399.597 395.568 403.234 395.592C407.897 395.622 410.696 392.3 410.716 389.093C410.729 387.109 410.078 385.484 408.863 384.22C410.095 382.971 410.766 381.355 410.779 379.371Z" fill="#626262"/>
<path d="M425.807 373.715L418.92 385.442L418.996 373.671L414.036 373.639L413.896 395.264L418.856 395.296L425.743 383.602L425.667 395.34L430.594 395.372L430.734 373.747L425.807 373.715Z" fill="#626262"/>
<path d="M448.971 390.498L449.079 373.865L444.185 373.834L444.078 390.466L438.754 390.431L438.862 373.799L433.935 373.767L433.795 395.359L446.492 395.442L446.474 398.219L451.401 398.251L451.451 390.514L448.971 390.498Z" fill="#626262"/>
<path d="M466.542 373.978L459.654 385.706L459.73 373.934L454.77 373.902L454.63 395.527L459.59 395.559L466.478 383.865L466.402 395.604L471.329 395.635L471.469 374.01L466.542 373.978Z" fill="#626262"/>
<path d="M483.134 374.086C478.67 374.057 475.009 377.671 474.981 382.134C474.965 384.482 475.944 386.605 477.521 388.103L474.545 393.176L478.828 395.684L482.004 390.248C482.335 390.284 482.698 390.319 483.029 390.321C483.525 390.324 484.947 390.334 484.947 390.334L484.912 395.723L489.872 395.755L490.012 374.13C490.012 374.13 484.854 374.097 483.134 374.086ZM484.979 385.374C484.979 385.374 483.557 385.364 483.061 385.361C481.309 385.35 479.929 383.919 479.94 382.167C479.952 380.447 481.35 379.034 483.102 379.046C483.598 379.049 485.02 379.058 485.02 379.058L484.979 385.374Z" fill="#626262"/>
<path d="M29.9816 167.99C19.4746 155.73 11.3106 140.526 4.53357 125.64L137.91 4.60095L168.097 27.2862C122.381 75.0295 75.6872 120.257 29.9816 167.99Z" fill="#E96262"/>
<path d="M172.3 449.76L116.381 469.194L25.5059 343.837C29.2464 323.931 37.1898 307.123 48.9051 290.941C90.4815 343.606 130.723 397.117 172.3 449.76Z" fill="#E96262"/>
<path d="M29.9895 170.66H29.9264C29.5796 170.651 29.2384 170.567 28.9239 170.414C28.6094 170.261 28.3283 170.042 28.0982 169.771C18.999 159.137 10.7826 145.481 2.25084 126.795C2.00887 126.268 1.9395 125.673 2.05345 125.101C2.1674 124.53 2.4583 124.013 2.88124 123.631L88.5873 45.8422L136.247 2.64688C136.681 2.25546 137.228 2.02841 137.8 2.00249C138.372 1.97658 138.935 2.1533 139.399 2.50406L169.586 25.1783C169.888 25.4012 170.138 25.6911 170.32 26.0273C170.502 26.3635 170.61 26.7376 170.637 27.1228C170.667 27.5074 170.617 27.8943 170.49 28.2566C170.363 28.6189 170.162 28.948 169.901 29.221C147.059 53.0817 123.597 76.6897 100.912 99.5288C78.2273 122.368 54.681 146.053 31.7967 169.946C31.3058 170.421 30.6577 170.677 29.9895 170.66V170.66ZM7.68303 126.323C15.143 142.394 22.3929 154.512 30.1261 164.102C52.4115 140.857 75.3064 117.875 97.3712 95.6179C119.331 73.5149 142.026 50.6868 164.164 27.6171L138.054 7.99686L91.9285 49.8849L7.68303 126.323Z" fill="#E96262" stroke="#E96262" stroke-width="2.45748"/>
<path d="M116.376 471.864C115.98 471.859 115.59 471.757 115.238 471.566C114.886 471.375 114.581 471.101 114.348 470.765L106.773 460.318L23.4835 345.398C23.2661 345.099 23.1115 344.756 23.03 344.39C22.9485 344.025 22.942 343.646 23.0108 343.277C26.6462 323.91 34.2323 306.75 46.8827 289.283C47.1143 288.962 47.4124 288.701 47.7546 288.518C48.0969 288.335 48.4744 288.235 48.8587 288.227C49.243 288.218 49.6241 288.301 49.9734 288.469C50.3227 288.637 50.6312 288.885 50.8755 289.195C71.6269 315.484 92.3783 342.42 112.447 368.467C132.515 394.514 153.424 421.67 174.26 448.047C174.523 448.382 174.704 448.779 174.789 449.204C174.873 449.629 174.857 450.069 174.743 450.486C174.625 450.899 174.415 451.277 174.13 451.588C173.845 451.899 173.493 452.135 173.104 452.276L117.185 471.732C116.925 471.825 116.651 471.869 116.376 471.864ZM28.2327 343.2C55.7822 381.189 83.3177 419.177 110.839 457.165L117.311 466.085L167.966 448.508C147.897 423.033 127.934 397.03 108.475 371.851C89.016 346.672 69.0526 320.691 49.0157 295.259C38.246 310.771 31.6055 326.107 28.2327 343.2Z" fill="#E96262" stroke="#E96262" stroke-width="2.45748"/>
</svg>
