<svg width="320" height="88" viewBox="0 0 320 88" fill="none" xmlns="http://www.w3.org/2000/svg">
<path d="M3.69169 7.20351C3.69169 7.20351 28.2927 7.61075 35.3561 6.59261C42.4196 5.57446 74.4785 5.24356 86.0218 5.24356C97.5651 5.24356 200.818 5.58719 213.647 5.24356C226.475 4.89993 263.663 5.58719 265.267 5.24356C266.871 4.89993 300.215 3.5509 300.215 3.5509L315.296 3.5509C315.296 3.5509 303.422 22.4758 299.897 27.8847C296.371 33.2936 288.672 44.6332 288.672 44.6332C288.672 44.6332 298.611 56.9528 300.546 59.3073C302.48 61.6618 316.925 73.116 316.925 73.116C316.925 73.116 289.321 77.9013 281.621 78.9067C273.921 79.9121 200.818 81.6175 196.007 81.6175C191.197 81.6175 127.066 81.2739 119.646 81.6175C112.226 81.9611 61.6117 82.9666 58.4045 83.6411C55.1973 84.3156 3.67896 82.3684 3.67896 82.3684C3.67896 82.3684 4.87528 76.2468 7.49702 74.5541C10.1188 72.8615 24.4874 56.6474 24.4874 56.6474L32.5053 46.8477C32.5053 46.8477 25.1238 35.699 21.5984 31.9827C18.0731 28.2665 3.69169 7.20351 3.69169 7.20351Z" fill="#60C9EB"/>
<path d="M286.819 42.3927C291.353 36.6751 295.66 30.7888 299.739 24.7339L299.739 24.7327C301.542 22.0668 303.28 19.4155 305.017 16.6384C305.536 15.8086 306.14 14.9282 306.744 14.0484C307.153 13.4523 307.562 12.8564 307.944 12.2766C308.92 10.7962 309.786 9.33129 310.324 7.88498C310.622 7.08398 310.684 6.70694 310.639 6.49697C310.623 6.42718 310.576 6.22978 309.962 5.9889C309.364 5.91599 308.758 5.92002 308.16 6.001L308.103 6.00874H308.045H302.382L291.042 6.00874L268.376 6.00874H268.373C214.99 5.83056 161.62 5.83056 108.262 6.00873L108.259 6.00874C106.076 6.00874 103.885 6.02563 101.689 6.04255C97.2821 6.07652 92.8574 6.11063 88.4494 6.00852C85.8276 5.95075 83.186 6.07282 80.5057 6.19668C79.9769 6.22111 79.4467 6.24561 78.9148 6.26882C75.7026 6.40896 72.4446 6.50067 69.2035 6.22193L69.2026 6.22185C67.7419 6.09457 66.3101 6.16608 64.8492 6.28585C64.463 6.31751 64.0717 6.35291 63.6767 6.38864C62.5996 6.48608 61.4954 6.58598 60.3937 6.61922C57.9443 6.69312 55.4917 6.61113 53.078 6.53045C52.5491 6.51277 52.0222 6.49515 51.4975 6.47925C47.6274 6.36848 43.8267 6.60784 39.9708 6.85067C38.1072 6.96803 36.2308 7.08621 34.3273 7.16606C31.922 7.27265 29.511 7.46663 27.0812 7.66211C26.4835 7.7102 25.8847 7.75837 25.2846 7.80536C22.254 8.04265 19.2002 8.24864 16.1547 8.24864H10.9876C10.7078 8.24864 10.3012 8.21055 9.89662 8.17126C9.84181 8.16594 9.78635 8.16052 9.73035 8.15504C9.35108 8.11796 8.94686 8.07844 8.55016 8.05092C8.09105 8.01907 7.67618 8.006 7.35395 8.02674C7.19273 8.03712 7.0793 8.05459 7.00731 8.07278C7.00162 8.07422 6.99647 8.07559 6.99184 8.07688C6.88187 8.19685 6.81346 8.39676 6.97928 8.87361C7.17198 9.42777 7.61847 10.1135 8.2252 10.8581C8.82023 11.5884 9.51685 12.313 10.1475 12.9449C10.3365 13.1342 10.5243 13.3197 10.7026 13.4958C11.0956 13.884 11.4421 14.2263 11.6516 14.4617L11.6556 14.4662L11.6556 14.4662L37.7358 44.185C38.1525 44.6307 38.3847 45.2183 38.3847 45.829C38.3847 46.446 38.1478 47.0393 37.7231 47.4866L37.703 47.5078L37.6815 47.5276C28.758 55.7252 20.3254 64.4416 12.4276 73.6314C12.4267 73.6324 12.4258 73.6334 12.425 73.6344L9.03242 77.6623L9.02764 77.668L9.02277 77.6736C8.87561 77.8423 8.64443 78.0761 8.4072 78.3161L8.38123 78.3424C8.12391 78.6027 7.83955 78.8906 7.57001 79.1808C7.2981 79.4736 7.0581 79.7508 6.88545 79.9872C6.79924 80.1053 6.74042 80.1988 6.70439 80.2677C6.69062 80.2941 6.68283 80.3119 6.67879 80.3218C6.62136 80.8594 6.75584 81.0415 6.82799 81.1128C6.93874 81.2222 7.17479 81.3351 7.63641 81.3804C8.0842 81.4243 8.61156 81.3931 9.17525 81.3413C9.28954 81.3308 9.40796 81.3191 9.52812 81.3072C9.95678 81.2649 10.4075 81.2204 10.7713 81.2204H15.0186H15.0221L34.7908 81.0295L34.7914 81.0295M286.819 42.3927L174.719 79.1734C128.054 80.497 81.4139 81.4006 34.7996 81.8842L34.7914 81.0295M286.819 42.3927C286.409 42.8352 286.18 43.417 286.18 44.0218C286.18 44.6419 286.42 45.2379 286.851 45.6843L286.858 45.6921L288.686 47.5388V47.6756L288.746 47.5996L313.596 72.7136C313.593 72.7144 313.59 72.7153 313.588 72.7161C312.992 72.8995 312.07 73.0458 311.039 73.1564C309.212 73.3525 307.235 73.4181 306.599 73.4392C306.525 73.4417 306.469 73.4435 306.434 73.4449L306.428 73.4452L298.107 73.8269L298.105 73.827L280.062 74.6032C268.482 75.0867 256.906 75.5491 245.335 75.9902C221.792 76.8386 198.245 77.6148 174.694 78.319M286.819 42.3927L174.694 78.319M34.7914 81.0295C81.4001 80.5459 128.034 79.6424 174.694 78.319M34.7914 81.0295L174.694 78.319M32.7117 45.6814C27.7499 40.0295 22.7847 34.3742 17.816 28.7154L17.8156 28.7149L9.58132 19.3224L9.57459 19.3148L9.57464 19.3147C8.76597 18.3698 7.87114 17.4351 6.94526 16.468C6.54992 16.0551 6.14892 15.6362 5.74655 15.2081C4.42778 13.8051 3.1174 12.3255 2.08956 10.7459C1.48521 9.92868 1.15889 8.93891 1.15889 7.92205C1.15889 6.89516 1.49167 5.89591 2.10751 5.07409L2.1154 5.06356L2.12362 5.05327C3.07607 3.86064 4.41427 3.53305 5.63752 3.46683C6.24909 3.43372 6.86832 3.46383 7.43619 3.4986C7.5398 3.50494 7.6412 3.51139 7.74059 3.51771C8.20277 3.54712 8.62138 3.57376 9.01499 3.57376H9.02333L9.02333 3.5738C14.5649 3.62786 20.0335 3.29786 25.5565 2.96457C27.8015 2.82909 30.0555 2.69307 32.3271 2.58208L32.3283 2.58202C34.201 2.49303 36.0832 2.36833 37.9728 2.24314C42.227 1.96129 46.5182 1.677 50.8202 1.79231L50.8214 1.79234C51.6685 1.8162 52.5118 1.84798 53.3516 1.87963C56.1425 1.98479 58.8961 2.08855 61.6315 1.89591L61.6378 1.89547C62.372 1.84924 63.1078 1.71463 63.9019 1.56934L63.9478 1.56094C64.7408 1.41591 65.5936 1.26165 66.4608 1.22028L32.7117 45.6814ZM32.7117 45.6814C24.3438 53.4761 16.4159 61.731 8.96472 70.4077L8.96367 70.409C7.10045 72.587 5.26704 74.7947 3.46342 77.0322C3.36193 77.157 3.2549 77.2851 3.14475 77.4169C2.15947 78.596 0.924828 80.0736 1.17952 82.1536L1.17978 82.1557C1.34583 83.4841 1.92078 84.4564 2.79661 85.1083C3.64072 85.7367 4.68749 86.0102 5.71367 86.1239C6.74555 86.2383 7.84116 86.1992 8.83924 86.1368C9.14997 86.1174 9.44742 86.0962 9.73169 86.0758C10.3917 86.0286 10.9806 85.9865 11.5002 85.9844L11.5034 85.9844C37.664 85.7807 63.812 85.454 89.9471 85.0043L89.9476 85.0043C142.49 84.0709 195.01 82.6156 247.51 80.6385C247.51 80.6385 247.51 80.6385 247.51 80.6385L247.478 79.7843M32.7117 45.6814L317.988 70.7079C317.992 70.7135 317.996 70.7191 318 70.7247C318.004 70.7308 318.008 70.737 318.012 70.7432L317.953 70.7795C318.094 71.1646 318.133 71.5814 318.064 71.9889C318.029 72.1948 317.967 72.3938 317.881 72.5813C317.934 72.8373 317.962 73.0994 317.962 73.3636C317.962 74.1388 317.726 74.8957 317.285 75.5335C316.239 76.9894 314.553 77.0197 312.909 77.0493C312.613 77.0546 312.318 77.0599 312.029 77.0735L290.521 78.0407C276.182 78.6686 261.834 79.2498 247.478 79.7843M247.478 79.7843C194.984 81.7612 142.469 83.2163 89.9324 84.1496L247.478 79.7843ZM312.749 13.0905C306.345 23.8061 299.287 34.1158 291.615 43.961L312.749 13.0905ZM312.749 13.0905C312.748 13.0912 312.748 13.0919 312.748 13.0925L312.016 12.6501L312.75 13.0885C312.75 13.0892 312.749 13.0899 312.749 13.0905ZM312.749 13.0905C312.909 12.8258 313.114 12.5097 313.344 12.1553C314.128 10.9486 315.201 9.29632 315.776 7.70139C316.155 6.65118 316.374 5.4929 316.095 4.39736C315.802 3.25092 315.001 2.31949 313.648 1.69292V1.6929L313.644 1.69084C312.21 1.03709 310.287 0.991119 308.532 1.06735C307.755 1.1011 306.973 1.16167 306.243 1.21824C306.13 1.22697 306.019 1.23561 305.909 1.24403C305.075 1.30795 304.33 1.35925 303.706 1.35925L292.367 1.35925M312.749 13.0905L292.367 1.35925M292.367 1.35925C262.849 1.30835 233.331 1.2617 203.814 1.21928H203.812C174.057 1.21928 144.301 1.24473 114.545 1.29564L114.543 1.29564L92.5796 1.37199C92.5791 1.37199 92.5787 1.37199 92.5782 1.37199C89.6645 1.37202 86.7183 1.46309 83.783 1.55382C83.029 1.57712 82.2758 1.6004 81.5239 1.62212C77.8375 1.72858 74.1762 1.79772 70.5754 1.65285C70.096 1.62857 69.5897 1.54685 69.0204 1.45495C68.9053 1.43637 68.7876 1.41737 68.667 1.39835C67.9804 1.29002 67.2131 1.18386 66.4616 1.22025L292.367 1.35925ZM6.95808 8.088C6.95805 8.08798 6.95896 8.08755 6.96091 8.08678C6.95909 8.08763 6.95811 8.08802 6.95808 8.088Z" fill="#60C9EB" stroke="#60C9EB" stroke-width="1.70954"/>
<path d="M183.077 45.8161L190.286 59.3187L183.914 62.7134L177.304 50.316L175.205 60.2143L168.132 58.7143L174.691 27.7885L181.764 29.2885L179.632 39.3429L191.16 30.3393L195.588 36.0245L183.077 45.8161Z" fill="white"/>
<path d="M220.855 27.848V32.3313H231.753V39.5613H220.855V45.0016H237.052V52.2316H213.625V20.6179H237.052V27.848H220.855Z" fill="white"/>
<path d="M150.33 29.4304V61.0441H143.1V43.9082L133.23 61.0087L133.212 61.0441H126V29.4304H133.23V46.5663L143.1 29.4659L143.118 29.4304H150.33Z" fill="white"/>
<path d="M149.677 61.2923V61.3358H149.656L149.677 61.2923Z" fill="white"/>
<path d="M48.0107 51.7253C47.4973 50.271 47.1937 48.7511 47.1098 47.2126C46.9279 44.1816 47.5788 41.1654 48.9906 38.497C50.4023 35.8287 52.52 33.6122 55.1097 32.0923C57.6994 30.5724 60.6603 29.8084 63.6653 29.8845C66.6703 29.9606 69.6028 30.8738 72.1382 32.5235L69.0631 38.9859C67.7991 37.9907 66.3039 37.3412 64.7233 37.1005C63.1426 36.8599 61.5307 37.0362 60.044 37.6126C58.5573 38.189 57.2466 39.1458 56.24 40.3896C55.2334 41.6333 54.565 43.1216 54.2999 44.7096C54.035 45.9822 54.0613 47.3012 54.3767 48.5666C54.6617 49.7422 55.1973 50.8427 55.946 51.7909C56.961 53.2042 58.344 54.3067 59.9395 54.9745C61.5351 55.6423 63.2802 55.8488 64.9784 55.5711C66.6765 55.2933 68.2602 54.5422 69.5522 53.4021C70.8442 52.262 71.7933 50.778 72.2922 49.117L78.6761 52.2679C77.5763 55.2033 75.6642 57.7523 73.1661 59.6132C70.6681 61.4742 67.6886 62.569 64.5807 62.7682C61.4728 62.9674 58.3668 62.2625 55.6299 60.737C52.893 59.2116 50.6398 56.9296 49.1377 54.161C48.6916 53.3838 48.3146 52.5687 48.0107 51.7253Z" fill="white"/>
<path d="M275.913 34.7194C274.758 28.1755 267.185 24.2223 258.687 25.7232C257.184 25.9881 255.715 26.4165 254.306 27.0008C253.439 27.3713 252.601 27.8079 251.801 28.3069L257.149 58.5837L264.268 57.3264L262.807 49.0548C271.306 47.5539 277.066 41.246 275.913 34.7194ZM268.933 35.9522C269.321 38.151 266.269 41.2455 261.574 42.0745L259.919 32.7035C264.596 31.8775 268.542 33.736 268.933 35.9522Z" fill="white"/>
<path d="M115.643 29.5905V36.8383H106.392V61.2219H99.1624V36.8383H90.4438V29.5905H115.643Z" fill="white"/>
</svg>
