<svg width="131" height="127" viewBox="0 0 131 127" fill="none" xmlns="http://www.w3.org/2000/svg">
<path d="M31.2984 11.7132C42.7473 4.51265 56.2494 1.28424 69.7171 2.52704C92.7348 4.41031 106.022 17.8443 112.865 24.2055C119.707 30.5668 126.048 46.1142 127.701 52.0152C129.354 57.9161 127.931 80.3061 122.051 87.3579C116.171 94.4097 100.121 123.182 73.9231 122.491C47.7247 121.801 32.2192 119.645 20.6685 104.579C9.1178 89.5131 2.50531 76.3721 2.75641 66.2024C3.00752 56.0328 6.04189 40.0041 12.6543 31.5085C19.2666 23.0128 26.7577 14.3707 31.2984 11.7132Z" fill="#60C9EB"/>
<path d="M43.1222 43.8949C43.0399 43.5953 42.8994 43.3148 42.7087 43.0696C42.5179 42.8243 42.2807 42.6191 42.0105 42.4655C41.7404 42.312 41.4427 42.2132 41.1344 42.1749C40.8261 42.1365 40.5131 42.1592 40.2136 42.2418C39.62 42.4174 39.1181 42.8167 38.8135 43.3555C38.509 43.8944 38.4256 44.5304 38.5813 45.1295C38.8142 46.7997 38.8915 48.488 38.8117 50.1725C38.8117 53.2066 43.436 53.2066 43.5406 50.1725C43.5903 48.0716 43.4503 45.9706 43.1222 43.8949Z" fill="#626262" stroke="#626262" stroke-width="1.39118"/>
<path d="M92.1716 43.5609C92.0894 43.264 91.9493 42.9862 91.7596 42.7434C91.57 42.5007 91.3343 42.2977 91.0661 42.1461C90.7979 41.9945 90.5024 41.8973 90.1966 41.86C89.8908 41.8227 89.5807 41.846 89.284 41.9287C88.6895 42.1045 88.1857 42.5029 87.8778 43.0408C87.5698 43.5788 87.4814 44.2148 87.6308 44.8164C87.902 46.5886 87.9651 48.3864 87.819 50.1733C87.819 50.8004 88.0683 51.4018 88.5118 51.8453C88.9552 52.2887 89.5565 52.5378 90.1836 52.5378C90.8107 52.5378 91.4122 52.2887 91.8557 51.8453C92.2991 51.4018 92.5482 50.8004 92.5482 50.1733C92.6744 47.962 92.5482 45.7435 92.1716 43.5609Z" fill="#626262" stroke="#626262" stroke-width="1.39118"/>
<path d="M106.573 88.4254C96.1106 77.9628 81.4629 74.3428 67.0036 74.3846C52.2304 74.3846 36.8921 77.6908 25.6135 87.7768C23.3326 89.8693 26.6806 93.1127 28.9405 91.1039C39.2566 81.8968 53.5487 79.1556 67.0036 79.1138C80.1446 79.1138 93.7459 82.0851 103.225 91.6689C105.401 93.9288 108.687 90.5807 106.573 88.4254Z" fill="#626262" stroke="#626262" stroke-width="1.39118"/>
<path d="M116.319 24.5608C107.916 14.8899 96.9686 7.77063 84.7208 4.01233C72.473 0.254028 59.4164 0.00748837 47.0355 3.30075C22.4065 10.0805 4.28526 32.3868 1 57.246L1.52313 57.0995C0.688321 66.0034 1.74851 74.9833 4.63382 83.448C7.51912 91.9128 12.1641 99.6705 18.2633 106.211L18.0751 106.567C19.0376 107.404 20.0212 108.22 21.0256 108.994L21.4859 109.454C21.7382 109.684 22.0286 109.868 22.3439 109.998C29.4922 115.332 37.3618 119.622 45.7172 122.742C71.1623 132.179 101.085 121.528 117.449 100.561C125.911 89.6444 130.409 76.1741 130.204 62.363C129.998 48.5518 125.102 35.2212 116.319 24.5608ZM115.712 94.3045C101.42 115.585 72.4597 126.885 47.8935 118.264C39.6525 115.338 31.8945 111.198 24.8757 105.981C17.9293 99.5598 12.6498 91.5448 9.4927 82.6277C6.33561 73.7106 5.39576 64.1592 6.75444 54.7977C6.83988 54.4189 6.83988 54.0257 6.75444 53.6468C8.66306 44.4149 12.7007 35.756 18.5458 28.3597C24.391 20.9633 31.8822 15.0338 40.423 11.0431C62.2481 1.1664 89.7021 6.27212 107.237 22.3218C116.98 31.3427 123.186 43.543 124.74 56.7297C126.293 69.9163 123.092 83.2246 115.712 94.2627V94.3045Z" fill="#626262" stroke="#626262" stroke-width="1.39118"/>
</svg>
