<svg width="147" height="147" viewBox="0 0 147 147" fill="none" xmlns="http://www.w3.org/2000/svg">
<mask id="mask0_2_8768" style="mask-type:alpha" maskUnits="userSpaceOnUse" x="10" y="11" width="126" height="125">
<path d="M134.849 62.0972C135.545 65.7287 135.914 69.4156 135.95 73.114C135.952 73.2395 135.953 73.3615 135.95 73.4841C135.971 78.3436 135.407 83.1901 134.272 87.9216C134.079 88.7332 133.869 89.542 133.642 90.3476C133.343 91.3915 133.017 92.4406 132.663 93.4949C132.389 94.2875 132.098 95.0832 131.79 95.8821C130.045 100.378 127.782 104.66 125.045 108.643C124.31 109.708 123.543 110.753 122.746 111.776C119.643 115.74 116.07 119.319 112.103 122.436C110.953 123.336 109.77 124.2 108.553 125.027C101.466 129.826 93.4612 133.127 85.0396 134.724C76.3861 136.389 67.4812 136.218 58.9118 134.222C58.7482 134.187 58.5875 134.148 58.4225 134.105C54.973 133.275 51.603 132.151 48.35 130.746C46.0901 129.772 43.8908 128.666 41.7637 127.435L41.688 127.39C41.4442 127.248 41.1981 127.113 40.9552 126.956C34.7369 123.236 29.2221 118.471 24.6573 112.872C23.2865 111.19 22.0065 109.438 20.8227 107.621C20.009 106.373 19.2386 105.091 18.5114 103.774C18.426 103.62 18.3406 103.466 18.2587 103.312C18.1035 103.027 17.9524 102.745 17.8044 102.459C17.5082 101.886 17.2197 101.308 16.939 100.726C14.6278 95.9154 12.9526 90.8281 11.9545 85.589C9.44312 72.5638 11.2356 59.0686 17.0662 47.1047C17.4469 46.3215 17.846 45.5432 18.2635 44.7702C18.8646 43.6686 19.4985 42.5755 20.1652 41.4909C20.1866 41.4505 20.2103 41.4115 20.2362 41.3738V41.3738C20.3963 41.1174 20.5565 40.8611 20.7216 40.6112C20.727 40.5975 20.7347 40.5848 20.7443 40.5736C25.3295 33.4434 31.3358 27.3147 38.3932 22.5655C45.4506 17.8163 53.4093 14.5472 61.7789 12.9596C70.1171 11.3565 78.6918 11.4564 86.978 13.2533C95.2642 15.0501 103.087 18.5061 109.969 23.4097C112.493 25.2023 114.878 27.1794 117.105 29.3245V29.3245C126.29 38.1641 132.487 49.61 134.849 62.0972V62.0972Z" fill="#60C9EB"/>
</mask>
<g mask="url(#mask0_2_8768)">
<path d="M134.848 62.0984C135.544 65.7299 135.912 69.4168 135.949 73.1152C135.95 73.2407 135.951 73.3627 135.949 73.4853C135.969 78.3449 135.406 83.1913 134.271 87.9228C134.077 88.7344 133.867 89.5432 133.64 90.3489C133.342 91.3927 133.016 92.4418 132.662 93.4962C132.388 94.2887 132.097 95.0844 131.789 95.8833C130.044 100.379 127.78 104.661 125.043 108.644C124.308 109.709 123.542 110.754 122.744 111.777C119.642 115.742 116.068 119.321 112.102 122.437C110.952 123.337 109.768 124.201 108.552 125.028C101.464 129.827 93.4598 133.128 85.0381 134.725C76.3846 136.39 67.4797 136.219 58.9103 134.224C58.7467 134.188 58.5861 134.149 58.4211 134.106C54.9715 133.276 51.6016 132.152 48.3485 130.747C46.0887 129.774 43.8893 128.668 41.7622 127.436L41.6865 127.391C41.4427 127.249 41.1967 127.115 40.9538 126.957C34.7354 123.238 29.2206 118.472 24.6559 112.873C23.285 111.191 22.005 109.439 20.8213 107.622C20.0076 106.374 19.2371 105.092 18.5099 103.775C18.4245 103.622 18.3391 103.468 18.2573 103.313C18.102 103.028 17.951 102.746 17.8029 102.46C17.5067 101.888 17.2182 101.31 16.9375 100.727C14.6263 95.9167 12.9511 90.8294 11.9531 85.5902C9.44165 72.565 11.2341 59.0698 17.0648 47.106C17.4454 46.3227 17.8445 45.5444 18.262 44.7714C18.8631 43.6698 19.4971 42.5767 20.1637 41.4921C20.1852 41.4518 20.2089 41.4127 20.2347 41.375V41.375C20.3949 41.1187 20.555 40.8623 20.7201 40.6124C20.7255 40.5987 20.7332 40.586 20.7429 40.5748C25.328 33.4446 31.3344 27.3159 38.3917 22.5667C45.4491 17.8175 53.4079 14.5484 61.7774 12.9608C70.1156 11.3577 78.6903 11.4576 86.9765 13.2545C95.2627 15.0514 103.086 18.5073 109.967 23.4109C112.492 25.2035 114.877 27.1806 117.103 29.3257V29.3257C126.289 38.1653 132.486 49.6112 134.848 62.0984V62.0984Z" fill="#60C9EB"/>
<path d="M-27.6253 50.6516C-26.8421 50.3724 -26.1778 50.4082 -25.4802 50.2674C-24.4713 50.0746 -23.6806 49.424 -22.8607 49.3561C-22.0408 49.2882 -21.0969 49.5371 -20.1839 49.5069C-19.4414 49.4834 -18.5273 49.2828 -17.7056 49.4587C-17.5039 49.4979 -17.3875 49.6385 -17.2374 49.6616C-16.9638 49.7055 -16.8014 49.5782 -16.6354 49.6649C-15.8379 50.0268 -16.041 51.3682 -15.8519 52.0648C-15.8293 52.1826 -15.596 52.6413 -15.4587 52.9296C-15.2306 53.4003 -14.8265 53.6191 -14.4615 54.0045C-13.6341 54.8751 -12.8305 55.5428 -11.326 55.4218C-10.7408 55.3766 -10.0152 54.9716 -9.18154 55.1712C-8.97593 55.2555 -8.79182 55.3839 -8.64243 55.5473C-8.49305 55.7107 -8.38206 55.905 -8.31743 56.1161C-8.2673 56.5543 -8.58021 56.8325 -8.66148 57.1108C-8.74275 57.389 -8.67422 57.6496 -8.733 57.9088C-8.88618 58.3404 -9.06911 58.7611 -9.28043 59.168C-9.33893 59.3309 -9.29147 59.5401 -9.35426 59.7001C-9.66948 60.4154 -10.3784 61.0245 -10.7102 61.8095C-10.7676 61.9389 -10.7202 62.1482 -10.7855 62.2754C-11.1415 62.9725 -11.7885 63.4958 -12.072 64.0643C-12.2534 64.4246 -12.2152 64.9761 -12.4165 65.3883C-12.6178 65.8005 -13.6032 66.4293 -13.839 66.9739C-14.0194 67.3784 -13.9687 67.8387 -14.0526 68.5726C-14.1071 69.0493 -14.4712 69.6849 -14.2662 70.0343C-14.1863 70.1305 -14.0835 70.2055 -13.967 70.2523C-13.8504 70.2991 -13.7239 70.3164 -13.5987 70.3026C-13.1782 70.2556 -13.0139 69.6691 -12.6499 69.1111C-12.0353 68.1647 -11.1739 66.7308 -12.0173 65.6598C-11.842 65.6781 -11.7301 65.6382 -11.7491 65.4606C-11.3161 64.8338 -11.2148 64.0743 -10.859 63.4735C-10.7045 63.2071 -10.3917 63.066 -10.1862 62.8121C-9.84749 62.3958 -9.67906 61.8307 -9.36846 61.4235C-9.21452 61.2128 -8.90421 61.1166 -8.69622 60.8955C-8.52038 60.6631 -8.36119 60.4187 -8.21976 60.1643C-7.39372 59.0147 -6.50787 58.4124 -5.98102 57.1239C-4.47159 56.0324 -1.42157 56.0452 0.589512 56.1715C0.574868 56.3295 0.596398 56.4885 0.652373 56.6369C1.9472 56.963 3.23876 56.4904 4.26837 56.66C4.44087 57.3671 3.75078 57.7431 3.38584 58.12C3.45407 58.477 2.97754 58.6607 2.77436 59.0437C2.57117 59.4266 2.52426 60.2756 2.29036 60.9864C2.23546 61.1486 2.06563 61.2957 2.00576 61.4514C1.94589 61.6072 2.00477 61.8958 1.93127 62.1171C1.85778 62.3383 1.68122 62.5088 1.65894 62.6463C1.55289 63.303 1.78661 64.0762 2.11212 64.3138C2.43763 64.5513 2.65738 64.3723 3.04996 64.4527C3.28321 64.5006 3.44808 64.6986 3.78367 64.6567C4.23953 64.5992 4.74197 64.0036 5.05099 63.4709C5.47714 62.8164 5.7989 62.1007 6.00498 61.3495C6.44829 60.8141 6.83844 60.2378 7.16995 59.6282C7.44158 59.0953 7.81333 57.9918 8.45579 57.9726C9.09826 57.9534 9.88101 59.3135 9.64478 60.1098C9.53752 60.467 9.00575 60.4985 8.90015 60.9035C8.70861 61.621 9.15932 62.5524 9.62306 62.9856C9.83111 63.1752 10.1472 63.2072 10.3539 63.3898C10.5606 63.5723 10.4879 63.9932 10.8877 63.8576C11.0922 63.5595 10.7502 63.3918 10.8248 63.0593C10.8994 62.7268 11.2608 62.6245 11.371 62.263C11.5356 61.7172 11.287 61.2762 11.3846 60.536C11.7012 60.2386 11.8204 59.768 12.196 59.5445C12.1738 58.7051 12.6694 57.7223 12.5558 56.9521C12.4835 56.5737 12.1438 56.2428 12.0964 55.8189C11.971 54.7327 12.6974 53.3543 13.325 53.1011C15.0836 52.395 15.9524 54.127 17.4679 54.2592C17.7693 54.605 17.6399 55.022 17.7935 55.396C17.8727 55.5955 18.0769 55.6675 18.1885 55.8608C18.3864 56.2549 18.4969 56.6867 18.5127 57.1272C19.0072 57.3694 19.2373 57.8695 19.3735 58.4651C19.5655 58.4728 19.6884 58.5492 19.6327 58.7856C20.2456 58.983 20.5426 59.4813 20.8962 59.9244C21.7142 60.1788 22.2601 60.7295 23.0312 61.0706C23.5574 61.303 24 61.2738 24.5681 61.4132C24.9799 61.5158 25.348 61.7416 25.7665 61.8207C26.3554 61.9704 26.966 62.0201 27.5724 61.9677C27.6587 62.1066 27.6802 62.3171 27.9048 62.3001C28.0704 62.2369 28.2495 62.2167 28.4248 62.2415C28.6002 62.2663 28.7661 62.3351 28.9067 62.4416C29.0505 62.5103 29.3177 62.4815 29.3756 62.5111C29.7118 62.6874 29.8835 63.0579 30.1764 63.1833C30.6976 63.4093 31.0433 63.2248 31.4429 63.4592C31.6969 63.636 31.9104 63.8639 32.0696 64.128C32.2288 64.3921 32.3302 64.6864 32.3671 64.9922C32.4005 65.1672 32.2588 65.383 32.2984 65.5901C32.4028 66.1363 33.0326 66.6375 33.0838 67.3937C33.1414 68.2227 32.7474 68.9752 33.1324 69.8564C33.1579 69.9083 33.1898 69.9569 33.2273 70.001L53.4308 60.7667C53.1902 60.6611 52.9669 60.5205 52.7684 60.3494C52.3652 59.9787 52.1339 59.3938 51.6452 59.0839C51.323 58.9396 50.9875 58.8265 50.6432 58.7462C49.1603 58.1785 47.4158 58.4896 46.0866 58.9805C45.1365 59.3249 44.2008 60.2327 44.0132 58.8994L43.9446 58.9311L43.878 58.8958C43.5716 58.8952 43.4142 58.6772 43.5463 58.43C43.7805 58.3852 43.826 58.506 43.9455 58.5645L44.012 58.6001L44.0815 58.6311C44.2175 58.2098 44.4493 57.8249 44.759 57.5062C44.7936 57.296 44.6392 57.27 44.6963 57.0408C45.0997 56.2647 45.399 55.4399 45.5868 54.5875C45.6775 54.0262 45.4579 53.4244 45.5372 52.9208C45.6716 52.5636 45.8593 52.2284 46.0941 51.9263C46.617 51.0862 46.9074 51.1787 47.7718 51.5389C48.0191 51.7581 48.1411 52.1233 48.5042 52.3425C49.0288 52.6641 50.2059 52.687 50.2466 52.1575C50.2587 51.9664 49.66 51.5111 49.3157 51.3512C48.6828 51.0846 47.9836 51.011 47.307 51.1394C47.1116 50.84 46.6367 50.9936 46.3725 50.6666C46.21 50.4609 46.2818 50.1918 46.1126 49.9318C45.9888 50.6326 45.2089 49.6789 45.5154 49.328C45.8648 49.2021 45.9683 49.9001 46.0484 49.5962C45.4728 48.7145 45.9421 46.734 47.1405 47.2784C46.6055 46.4333 46.2664 45.3434 46.9629 44.5516C48.0371 43.3324 50.6228 42.9087 52.9267 42.5349C53.3735 42.4495 53.8647 42.3815 54.2679 42.3415C55.1858 42.2586 55.735 42.7679 56.3387 42.9559C56.6842 43.0638 57.1016 43.0395 57.4089 43.1621C57.6044 43.2468 57.6828 43.3836 57.8771 43.4426C58.6599 43.6298 59.7353 43.3946 60.4209 43.6595C60.7117 43.7741 61.0726 44.0791 61.418 44.2647C61.9467 44.5479 62.458 44.8615 62.9495 45.204C63.1216 45.3229 63.2736 45.5123 63.4013 45.6137C63.7987 45.856 64.2596 45.9418 64.5359 46.1369C64.9068 46.4361 65.0072 46.8053 65.3295 47.0065C65.5332 47.1341 65.818 47.139 66.0647 47.2768C66.483 47.5114 66.829 47.719 67.2624 47.9544C67.4734 48.0621 67.6302 48.3356 67.861 48.4876C67.9803 48.5647 68.1841 48.5368 68.3277 48.624C68.5844 48.7748 68.7857 49.0657 69.0616 49.161C69.6143 49.3386 70.1498 49.5644 70.6621 49.8357C71.0763 50.0488 71.4646 50.1264 71.8734 50.311C72.2149 50.4567 72.4436 50.7348 72.7237 50.8515C73.2633 51.0341 73.8257 51.1433 74.3954 51.176L79.0701 49.0393C79.0899 48.718 79.0349 48.3967 78.9094 48.1004C78.5361 48.1015 78.1093 48.1349 77.9764 47.9087C77.9625 47.582 78.37 47.6818 78.5134 47.5137C77.7955 46.415 76.2047 46.4748 74.8422 46.2246C74.5206 46.1639 74.2154 45.9743 73.9049 45.9522C73.0133 45.8599 71.7059 46.0542 71.0985 45.7485C70.2387 45.2949 69.4927 44.616 68.562 44.2018C67.9821 43.9426 67.2749 43.9556 66.689 43.7234C66.3373 43.5834 66.0494 43.1907 65.6243 43.1165C65.6232 42.9097 65.5498 42.71 65.4167 42.5513C65.2835 42.3926 65.0988 42.2846 64.894 42.2459C64.8224 41.5195 64.1663 41.3303 63.7643 40.9076C63.7587 40.4091 63.3091 40.3433 63.2389 39.8979C63.1502 39.924 63.0568 39.9304 62.9655 39.9165C62.8742 39.9027 62.7872 39.8689 62.7107 39.8178C62.6341 39.7666 62.5701 39.6992 62.523 39.6206C62.4759 39.5419 62.4469 39.4539 62.4382 39.3627C62.9089 38.7769 62.2444 38.3487 62.3878 37.6331C62.5568 36.7978 64.2272 36.0605 65.2141 36.1235C65.9582 36.1995 66.6822 36.407 67.3518 36.7362C67.7701 36.9708 68.0287 37.3468 68.4833 37.4783C70.2088 38.0255 71.9835 37.3644 71.4469 35.7685C71.3283 35.4211 70.987 35.3161 70.9078 34.902C70.4588 34.8583 70.1101 34.4217 69.6411 34.293C69.2487 34.1941 68.7988 34.3024 68.4394 34.2193C67.3803 33.974 66.3955 33.2963 66.3132 32.1427C66.2992 31.8938 66.5445 31.399 66.524 30.8812C66.5124 29.5698 66.8761 29.108 67.7499 28.5598C68.1473 28.3137 68.7988 28.1854 69.1059 27.8381C69.3251 27.5779 69.2033 27.1757 69.5182 26.9083C69.2573 26.1293 68.8954 25.4473 68.5974 24.7086C68.4608 24.5608 68.41 24.7444 68.1968 24.7037C68.3899 24.4633 68.1622 24.3662 68.0643 24.3035C67.8857 24.1896 67.7413 23.825 67.6707 23.7682C67.2346 23.4408 66.4573 23.4968 66.2032 23.0273C66.1779 22.7583 66.4338 22.7686 66.5381 22.6303C66.0792 22.496 66.403 22.138 66.5458 21.8887C66.4167 21.4574 66.2128 21.0519 65.9433 20.6903C66.3474 20.4207 66.4801 19.8253 66.8898 19.5657C67.503 19.1784 68.7852 19.2035 69.7039 19.3202C70.1392 19.3702 70.6069 19.6288 71.0388 19.661C71.5692 19.7002 72.1454 19.4124 72.5173 19.4042C73.0569 19.4374 73.5933 19.508 74.1226 19.6154C75.1673 19.7858 76.3085 19.4641 77.1359 19.5724C77.2889 19.5912 77.47 19.7381 77.671 19.7736C78.3605 19.8451 79.0557 19.8497 79.7466 19.7877C81.6278 19.7641 83.5075 19.8887 85.3678 20.1602C85.6962 20.2221 86.012 20.3367 86.3028 20.4996C86.4836 20.6833 86.4045 21.0315 86.5664 21.2337C86.9542 21.6679 87.3759 22.071 87.8277 22.4394C88.7325 23.2656 89.1986 23.75 90.4281 23.7926C92.4226 23.8518 93.3216 23.2988 94.3908 22.4247C95.1645 21.8578 95.8105 21.1369 96.2869 20.3084C96.8906 19.2457 97.0221 18.6247 97.1836 16.9879C97.2271 16.6095 97.3114 16.1715 97.3652 15.769L95.8049 12.3928C94.9838 11.8096 93.8589 11.6102 92.5445 11.5728C91.6913 11.5777 90.8471 11.7515 90.0615 12.0842C89.7682 12.2106 89.5439 12.4829 89.2542 12.6086C88.2978 12.9775 87.4425 13.5658 86.7587 14.3252C86.1765 15.0507 85.9683 16.0526 85.7315 17.0415C85.331 17.1735 84.9942 17.7561 84.4519 17.8301C84.3834 17.8432 84.2122 17.7094 84.1159 17.6945C83.3196 17.5728 82.4091 17.7727 81.7068 17.8107C80.7677 17.8607 79.6839 17.6423 78.9602 17.7251C78.2912 17.8046 77.6142 17.7779 76.9544 17.6459C76.3799 17.5391 75.7928 17.5131 75.2104 17.5685C74.7794 17.5806 74.2549 17.455 73.8734 17.4909C73.4918 17.5268 73.0399 17.7612 72.6654 17.8143C72.1811 17.9093 71.6878 17.9503 71.1948 17.9363C71.0339 17.9153 70.7805 17.7232 70.4596 17.6662C69.8417 17.54 69.1576 17.6151 68.5847 17.4508C68.0117 17.2865 67.6428 16.7243 66.9876 16.4425C66.3325 16.1607 65.7274 16.1023 65.2534 15.8302C64.7395 15.5659 64.3041 15.1735 63.99 14.6914C63.5941 14.027 63.411 12.9519 63.7429 12.363C64.229 11.4671 65.883 12.324 66.6842 12.1191C66.8034 12.0663 66.9161 12.0001 67.02 11.9217C67.217 11.8382 67.3925 11.7117 67.5333 11.5515C67.6741 11.3913 67.7766 11.2015 67.8329 10.9966C67.3233 10.9682 67.169 10.5907 66.9675 10.2592C66.3912 9.99927 65.2271 9.82958 64.9066 9.24697C64.4369 8.41162 65.4163 6.97001 65.8027 6.3929C65.9854 6.11746 66.1044 5.80229 66.2123 5.66326C66.8438 4.82468 67.9957 4.44183 68.9055 3.8868C69.3108 3.64282 69.7623 3.23088 70.2535 2.88908C71.2024 2.24518 72.188 1.65715 73.0797 1.04638C73.5741 0.749147 74.0476 0.418825 74.4967 0.0576933C74.9474 -0.398474 75.3444 -1.58451 75.8542 -2.25919C76.0101 -2.45922 76.2286 -2.5084 76.3272 -2.65676C76.4944 -2.89593 76.493 -3.17687 76.6002 -3.31947C76.8501 -3.63367 77.271 -3.7179 77.5952 -3.97598C78.9254 -4.9888 80.1468 -6.25833 81.3109 -7.33931C81.7546 -7.75345 82.3806 -8.05441 82.3962 -8.65685C81.5391 -8.74466 80.8818 -8.13794 80.2426 -7.80855C79.6034 -7.47916 78.8452 -7.10853 78.1591 -6.69247C77.4729 -6.2764 76.9536 -5.65178 76.2719 -5.31056C75.7333 -5.0411 74.9609 -5.11543 74.3232 -4.85663C74.0841 -4.75913 73.9372 -4.53122 73.7185 -4.46354C73.56 -4.43323 73.3459 -4.45906 73.1813 -4.4017C72.338 -4.0851 71.9429 -3.35817 71.4266 -2.81545C70.8035 -2.16721 70.0423 -1.65537 69.4029 -1.03363C68.8821 -0.534436 68.5062 0.13686 67.982 0.6182C67.7838 0.792987 67.4778 0.969896 67.2359 1.13084C66.7382 1.4868 66.2212 1.81533 65.6873 2.11503C65.4145 2.27077 65.0751 2.33189 64.8137 2.50768C64.6319 2.63123 64.5442 2.83672 64.3414 2.96797C63.5604 3.4372 62.725 3.81067 61.8537 4.07999C61.2692 4.26919 60.6611 4.37657 60.0472 4.39922C58.3329 4.43823 56.9799 2.92806 56.4694 1.31233C56.3158 0.613061 56.2321 -0.0996947 56.2195 -0.815708C56.1221 -2.10704 55.9279 -3.14304 56.1186 -4.41174C56.2061 -5.00942 57.0157 -5.40466 57.4045 -5.93041C57.5613 -6.14541 57.7101 -6.48093 57.8802 -6.72437C58.0737 -6.9572 58.2542 -7.20044 58.4207 -7.45302C58.7508 -8.14888 58.6103 -8.82519 58.8425 -9.64294C58.9163 -9.90129 59.1578 -10.162 59.3188 -10.5702C59.0118 -10.789 59.3965 -11.0625 59.3249 -11.4374L59.2606 -11.4028L59.1904 -11.4375L59.0596 -11.4383C59.0439 -11.5204 58.9742 -11.5331 58.9954 -11.6371C59.0855 -11.6543 59.123 -11.7318 59.2656 -11.6888L59.3223 -11.744L59.398 -11.7585C59.4619 -12.9289 59.0535 -13.9128 57.8099 -13.6973C57.4928 -13.6367 57.2616 -13.2632 56.9335 -13.1043C55.4402 -12.397 53.6477 -13.2164 54.1364 -14.9195C53.7937 -14.9539 53.8546 -14.577 53.5304 -14.5928C53.1636 -15.1443 53.3653 -16.0821 53.548 -16.7868C53.6347 -16.9588 53.9322 -16.7307 53.9479 -16.8632C53.9235 -17.5579 54.053 -18.678 54.4394 -19.1774C54.5186 -19.8179 54.4395 -20.5059 54.6571 -21.1062C54.8414 -21.6077 55.359 -22.1432 55.7445 -22.6276C56.178 -23.0894 56.5838 -23.576 56.9599 -24.0848C57.1809 -24.4527 57.3051 -24.8389 57.5744 -25.2086C58.1004 -25.9345 58.518 -26.6806 58.9979 -27.394C59.2735 -27.727 59.5231 -28.0802 59.7447 -28.4506C59.8369 -28.6717 59.7964 -29.0007 59.8831 -29.2504C60.0347 -29.6494 60.3566 -30.1144 60.2988 -30.7103C59.9315 -31.0101 59.9689 -31.4983 59.6437 -31.6952C59.0257 -32.0951 57.8113 -31.9222 57.2324 -31.5118C57.0217 -31.3158 56.8382 -31.0927 56.6868 -30.8487C56.4948 -30.6383 56.3138 -30.4185 56.1442 -30.19C56.0488 -30.0052 56.0945 -29.7661 56.0085 -29.5905C55.9225 -29.415 55.6402 -29.2314 55.5341 -29.0632C55.2598 -28.5527 55.0306 -28.0198 54.8488 -27.4704C54.4029 -27.1326 54.034 -26.7054 53.7663 -26.2165C53.7103 -26.08 53.8264 -25.9022 53.7622 -25.7494C53.6981 -25.5965 53.5313 -25.5312 53.4906 -25.3532C53.45 -25.1753 53.5384 -24.9666 53.4858 -24.753C53.3345 -24.0987 52.8451 -23.5722 52.6683 -23.0315C52.6029 -22.8266 52.6786 -22.5671 52.5938 -22.3659C52.3872 -21.8638 51.8365 -21.4034 51.4431 -20.8434C51.1935 -20.4886 51.0451 -19.9755 50.7655 -19.7185C50.3262 -19.32 49.6717 -19.1099 49.2132 -18.7336C49.0783 -18.619 48.9967 -18.3814 48.8762 -18.2695C48.4302 -17.8475 47.8436 -17.5948 47.3931 -17.2163C46.8887 -16.7265 46.4559 -16.1692 46.1072 -15.5607C45.7235 -14.9693 45.3871 -14.3648 44.9545 -13.7751C44.7609 -12.7168 44.3985 -11.8187 43.6632 -11.3081C43.2579 -10.4387 41.7483 -8.84025 40.09 -8.93777C39.6437 -8.96718 38.4871 -9.37156 38.1566 -9.75244C38.0474 -9.94287 37.9589 -10.1442 37.8924 -10.3531C37.8674 -10.7184 38.2441 -10.8386 38.1012 -11.2146C38.4816 -11.5636 38.914 -11.8521 39.3831 -12.0701C39.8422 -12.3059 40.473 -12.445 40.8606 -12.7226C41.4881 -13.1718 41.781 -13.8866 42.2837 -14.4415C42.3348 -14.7823 42.4278 -15.1158 42.5608 -15.4344C42.1875 -16.1956 41.2649 -17.0369 40.2956 -16.8516C40.0037 -16.7959 39.7116 -16.3699 39.3509 -16.127C38.9081 -15.8462 38.5197 -15.4888 38.2044 -15.0717C37.94 -14.7548 37.8219 -14.3954 37.5914 -14.0775C37.4403 -13.871 37.1122 -13.7121 36.9164 -13.486C36.6718 -13.2024 36.5737 -12.895 36.3723 -12.7566C36.1328 -12.6519 35.8864 -12.5639 35.6346 -12.4935C34.9665 -12.2178 34.9674 -12.1735 34.2948 -12.3706C33.4631 -12.6187 32.8115 -12.7643 32.362 -13.3185C31.7242 -13.1967 31.0385 -13.5799 30.6221 -13.7261C30.2058 -13.8722 29.8291 -13.8299 29.4209 -13.9332C28.6907 -14.1536 27.9943 -14.4712 27.3507 -14.8772C26.5325 -14.3507 25.9573 -15.1918 25.3462 -15.3599C25.0077 -15.4506 24.5335 -15.2934 24.1423 -15.3667C23.8674 -15.4177 23.6456 -15.601 23.4072 -15.6369C23.0682 -15.6905 22.679 -15.5384 22.3335 -15.6463C21.8444 -14.3946 19.78 -14.3701 19.323 -15.6667C19.3817 -16.2588 19.5683 -16.7866 19.4034 -17.3953C19.3175 -17.7082 19.0244 -17.9519 18.9427 -18.262C18.9343 -18.4397 18.9352 -18.6177 18.9454 -18.7953C18.8233 -19.649 18.1614 -20.0442 17.8406 -20.6675C17.7113 -20.5333 17.5541 -20.4288 17.38 -20.361C17.2059 -20.2932 17.019 -20.264 16.8325 -20.2751C16.7909 -20.4929 17.0044 -20.4115 17.0359 -20.5397C16.4009 -20.5457 15.768 -20.461 15.1569 -20.2879C14.7389 -20.208 14.2235 -20.3056 13.8833 -20.2295C13.4004 -20.1372 13.0719 -19.6673 12.7434 -20.0375C12.7099 -20.6231 12.5387 -21.1086 12.555 -21.5705C12.5627 -21.8236 12.7692 -22.111 12.7789 -22.3534C12.7707 -22.7478 12.428 -23.1929 12.7891 -23.5506C12.7849 -23.7681 12.485 -23.6958 12.5912 -24.0196C12.8003 -24.215 12.7637 -23.801 13.0033 -23.8172C13.3256 -24.3783 13.5643 -24.7902 13.4851 -25.4782C13.4414 -25.7066 13.2617 -25.8463 13.2209 -26.079C13.1876 -26.2662 13.1877 -26.4577 13.221 -26.6451L-4.18957 -18.6846C-3.99482 -18.2519 -3.95194 -17.5979 -3.73429 -17.0844C-3.39291 -16.2949 -2.96392 -15.4183 -2.61623 -14.7521C-2.09944 -14.5496 -1.6749 -14.168 -1.42124 -13.6779C-0.920999 -13.3665 -0.308062 -13.2469 0.181364 -12.9334C0.291423 -12.8656 0.373157 -12.7702 0.512341 -12.6672C0.829962 -12.4319 1.14482 -12.3478 1.44822 -12.1283C1.59012 -12.0166 1.70496 -11.8749 1.7843 -11.7133C1.86364 -11.5518 1.90546 -11.3746 1.90676 -11.1947C2.34886 -11.2446 2.79632 -11.2038 3.22125 -11.0749C3.64618 -10.9461 4.03948 -10.7318 4.37676 -10.4455C4.87458 -9.97077 4.71714 -10.1109 4.63555 -9.38483C4.56706 -8.88784 4.45051 -8.39838 4.28746 -7.92324C4.18508 -7.48182 4.24191 -6.93024 4.14284 -6.53017C4.06702 -6.22334 3.74987 -5.94813 3.73472 -5.73431C3.71071 -5.42998 3.95949 -5.1445 3.99401 -4.86617C3.79227 -4.55378 3.78789 -3.99045 3.50058 -3.5396C3.39591 -3.36417 3.15684 -3.26668 3.02832 -3.0793C2.63984 -2.51289 2.18818 -1.61252 1.40653 -1.69625C0.950264 -1.73856 0.97066 -2.17912 0.405228 -2.16727C0.167905 -2.09971 0.188801 -1.7558 -0.0691597 -1.63989C-0.174037 -1.58284 -0.298975 -1.66997 -0.404236 -1.57585C-0.573374 -1.42511 -0.581573 -1.19422 -0.811092 -1.04674C-1.4236 -0.655845 -2.42779 -0.711848 -3.22719 -0.399946C-3.92191 -0.126554 -4.41482 0.323021 -5.04402 0.450676C-5.1522 0.549061 -5.37648 0.391987 -5.64604 0.447206C-5.91939 1.14702 -6.78827 1.15395 -7.39455 1.49925C-7.73236 1.68592 -7.83239 2.04184 -8.20402 2.09067C-8.5326 3.26359 -9.46611 3.81199 -10.767 4.00141C-11.1097 4.39311 -11.4941 4.74707 -11.9135 5.05692C-12.3223 5.36077 -12.9847 5.56882 -13.2442 5.91076C-13.3593 6.05117 -13.3965 6.44312 -13.5222 6.70397C-13.6479 6.96482 -13.8791 7.20133 -13.9282 7.43275C-14.0411 7.91688 -13.9371 8.50022 -14.0777 9.09326C-14.1843 9.18385 -14.27 9.29604 -14.329 9.42226C-14.388 9.54848 -14.419 9.68569 -14.4197 9.82463C-14.5638 9.85218 -14.6127 9.98738 -14.8245 9.95385C-14.5773 10.3877 -15.0559 10.5606 -15.1664 10.8814C-15.2769 11.2023 -15.122 11.3871 -15.3055 11.6775C-15.3267 11.9184 -15.0427 11.8605 -15.0421 12.0787C-15.1739 12.1705 -15.1756 12.3966 -15.3821 12.4102C-15.1218 12.6972 -15.3489 13.0921 -15.2572 13.4742C-15.1812 13.7743 -14.9094 13.9849 -14.8613 14.2754C-14.7642 15.2219 -14.9852 16.1747 -15.4899 16.9859C-15.7425 16.9342 -15.8108 17.0658 -16.0264 17.0515C-16.0616 17.2581 -15.8222 17.2011 -15.8945 17.4481C-16.5444 17.4872 -16.7054 18.1692 -16.4434 18.7778C-15.9572 18.5665 -15.7254 19.1734 -15.4427 19.3821C-15.1605 19.3541 -15.0819 19.1208 -14.7035 19.1854C-14.7241 19.996 -13.5065 19.5856 -13.6443 20.526C-12.8806 20.7501 -12.1881 20.7585 -11.5763 21.204C-11.5612 21.4786 -11.6646 21.465 -11.5804 21.671C-11.0239 21.9594 -10.5449 22.3752 -10.1833 22.8841C-9.84493 23.4818 -10.1551 23.7742 -10.5948 24.0729C-11.0345 24.3715 -11.6409 24.4616 -11.8097 24.9268C-12.1683 25.8649 -11.3615 26.4508 -11.2275 27.1912C-11.1593 27.5482 -11.3954 27.6415 -11.2343 28.1916C-11.2323 28.417 -11.5885 28.2926 -11.5714 28.5188C-11.7375 29.2129 -12.265 29.5209 -12.7746 30.0401C-13.0907 30.2881 -13.3802 30.5679 -13.6384 30.875C-13.7695 31.1073 -13.6903 31.4436 -13.8588 31.6756C-14.5306 32.6551 -16.8462 32.206 -17.0919 33.7146C-17.4121 35.6741 -14.9493 35.4476 -13.899 36.331C-13.8542 36.7221 -13.523 36.8327 -13.4362 37.1306C-13.3494 37.4286 -13.5205 37.6279 -13.5775 37.994C-13.5724 38.2743 -13.2967 38.3104 -13.383 38.6599C-13.9672 39.5116 -14.0147 40.7085 -14.5481 41.5135C-14.6584 41.6789 -14.8961 41.7836 -15.0204 41.9738C-15.2558 42.3445 -15.3485 42.8951 -15.6332 43.301C-15.7274 43.4337 -15.9447 43.4493 -16.0387 43.5635C-16.2469 43.8822 -16.4329 44.2146 -16.5956 44.5582C-16.7756 45.0034 -16.8537 45.9433 -17.0126 46.2845C-17.3422 47.0024 -18.5227 47.3724 -19.4371 47.5324C-20.255 47.6887 -21.1375 47.5465 -21.8499 47.6493C-22.5622 47.7522 -23.2136 48.2134 -23.7949 48.2986C-23.9138 48.3213 -24.0818 48.224 -24.1818 48.2283C-24.9851 48.2857 -25.446 48.7659 -26.1325 48.9452C-26.7047 49.0712 -27.2952 49.0899 -27.8736 49.0004C-28.3246 48.9921 -28.7727 49.0778 -29.1888 49.2518L-28.3791 51.0065C-28.1187 50.8642 -27.8664 50.7384 -27.6253 50.6516ZM-12.0262 66.5904C-12.0382 66.6445 -12.0959 66.6555 -12.0944 66.7218L-12.2289 66.7217C-12.2412 66.6574 -12.2283 66.5883 -12.2261 66.5213C-12.1173 66.5042 -12.1132 66.5848 -12.0406 66.5932L-12.0262 66.5904ZM47.7111 59.5657C47.3035 60.3837 45.8712 60.8239 44.8888 60.6083C45.5626 59.9911 46.5647 59.7034 47.7111 59.5657ZM89.2921 14.5662C89.3795 14.3507 89.5469 14.1763 89.7598 14.0792C89.9727 13.982 90.2148 13.9696 90.4361 14.0442C90.3972 14.1542 90.3363 14.2553 90.2571 14.3415C90.1779 14.4278 90.0821 14.4973 89.9753 14.5461C89.8685 14.5948 89.753 14.6218 89.6356 14.6253C89.5182 14.6287 89.4014 14.6086 89.2921 14.5662V14.5662ZM93.9013 15.9945C93.8795 16.3687 93.335 16.4319 93.0262 16.3207C92.9047 15.763 93.7394 15.6554 93.9013 15.9945ZM-3.73985 45.498C-3.56188 45.7453 -4.17279 45.7732 -4.42365 45.8286C-4.33536 45.5675 -3.88776 45.6817 -3.74707 45.4994L-3.73985 45.498ZM62.1851 12.7126C62.1812 12.8873 62.1779 13.0654 62.1782 13.243C62.0017 13.3688 61.7905 13.4377 61.5735 13.44C61.5011 13.2967 61.4585 13.1403 61.4484 12.9801C61.4384 12.8199 61.461 12.6593 61.5148 12.5077C61.6349 12.4953 61.7561 12.507 61.8713 12.5422C61.9865 12.5774 62.0933 12.6354 62.1851 12.7126ZM11.1485 -25.4905C11.2228 -25.7267 11.6062 -25.6557 11.7503 -25.8202C11.8307 -25.8096 11.8073 -25.6978 11.8187 -25.6186C11.6008 -25.551 11.3759 -25.508 11.1485 -25.4905V-25.4905ZM13.8327 -18.7545C14.3728 -19.3092 15.2332 -19.5365 16.0523 -19.804C15.8698 -19.1956 14.7356 -18.6421 13.8507 -18.7579L13.8327 -18.7545ZM10.4573 15.272C10.5376 15.0865 10.7924 15.0712 10.9937 15.0105C10.9874 15.2708 10.6265 15.1805 10.4573 15.272V15.272ZM11.3889 15.9452L11.5903 15.9437C11.6026 16.008 11.5861 16.0778 11.5876 16.1441C11.4407 16.1574 11.3779 16.1027 11.3889 15.9452V15.9452ZM12.7771 17.815C12.7927 17.7602 12.7648 17.7508 12.7123 17.7497C12.6599 17.7486 12.714 17.6605 12.713 17.6162C12.7675 17.628 12.7779 17.604 12.7827 17.5512L12.9136 17.5521C12.9015 17.6062 12.9259 17.6163 12.982 17.6167C13.0381 17.6171 12.9983 17.7023 12.9777 17.7507C12.9232 17.7389 12.9129 17.7632 12.9123 17.8188L12.7771 17.815ZM53.8532 -0.396707C54.5081 -0.780896 54.6578 -0.0953798 54.5829 0.607206C54.4385 0.731016 54.1547 0.711316 54.0466 0.868887C53.8942 0.702416 53.7948 0.494872 53.7609 0.272308C53.727 0.049745 53.7601 -0.177944 53.856 -0.382413L53.8532 -0.396707ZM61.5783 5.0429C61.9745 4.36032 63.127 4.11788 63.7363 3.8275C63.7435 3.81811 63.7528 3.81039 63.7635 3.80514C63.7741 3.7999 63.7858 3.79717 63.7977 3.79716L63.7363 3.8275C63.6601 3.89758 63.6043 4.07465 63.5282 4.12619C63.4522 4.17773 63.4548 3.99605 63.462 3.99467C62.9944 4.20614 62.4893 5.13894 61.5811 5.0572L61.5783 5.0429ZM63.0129 9.4423C62.9686 9.21024 63.149 9.0796 63.2211 8.71428C63.3452 8.0541 63.1072 7.35581 63.7692 7.32179C63.8764 7.68842 63.8953 8.07521 63.8244 8.451C63.772 8.64603 63.5214 8.81968 63.5527 8.9839C63.5882 9.52109 64.225 9.49188 64.3451 10.1202C63.9034 10.1343 63.1477 9.97161 63.0157 9.45659L63.0129 9.4423Z" fill="#FFE600"/>
<path d="M226.487 114.229C226.766 117.21 215.373 117.556 210.997 124.461C209.359 127.046 207.124 133.408 206.874 134.914C206.803 135.435 206.578 135.923 206.227 136.318C205.866 136.69 205.401 136.946 204.892 137.054C204.658 137.096 204.419 137.107 204.182 137.087C202.957 136.951 202.073 134.614 202.004 134.428C200.785 131.138 201.167 128.093 200.597 126.111C198.989 120.354 189.531 123.183 179.708 115.302C177.806 113.775 175.088 111.201 172.169 111.774C171.088 111.98 169.881 112.64 167.083 113.186C165.84 113.424 164.964 113.451 164.56 113.565C161.934 114.307 160.536 115.962 155.241 117.374C147.522 119.434 144.733 117.465 142.161 120.225C142.161 120.225 139.135 123.505 136.606 125.083C135.068 126.044 135.052 125.591 134.135 126.321C132.489 127.639 131.192 133.278 131.192 133.278C129.982 138.479 128.529 139.101 129.26 140.212C130.52 142.114 134.547 139.908 138.572 142.677C139.213 143.12 140.751 144.173 140.597 145.457C140.492 145.939 140.253 146.383 139.905 146.737C139.558 147.091 139.117 147.341 138.634 147.457C138.354 147.516 138.066 147.521 137.785 147.471C137.171 147.385 133.919 146.945 133.385 147.765C132.933 148.469 134.763 149.621 135.781 152.857C136.502 155.162 136.004 155.975 135.728 156.29C135.527 156.499 135.283 156.663 135.013 156.771C134.978 156.829 134.929 156.879 134.871 156.915C134.813 156.951 134.748 156.973 134.679 156.979C134.015 157.074 133.338 156.956 132.747 156.642C130.618 155.446 125.491 149.943 121.381 148.508C116.503 146.802 112.952 150.793 110.211 148.356C108.965 147.247 108.257 145.144 108.924 143.673C110.151 140.985 114.65 142.893 119.391 139.911C121.251 138.738 122.678 135.827 125.542 130.003C126.38 128.292 127.422 125.943 126.555 125.084C126.454 124.988 126.335 124.912 126.206 124.858C124.56 124.063 123.603 122.025 123.429 121.722C122.169 119.428 113.585 118.089 111.045 117.602C109.463 117.297 96.2532 114.29 88.973 105.412C88.0233 104.254 85.5653 101.028 84.0369 101.59C82.8991 102.007 83.3366 104.14 81.6322 105.306C80.9382 105.734 80.1408 105.969 79.3245 105.985C78.5082 106.001 77.7036 105.798 76.9959 105.396C74.5014 103.893 75.1498 100.232 73.7609 99.9607C72.372 99.6896 71.6338 103.624 68.3072 105.311C64.5982 107.185 60.0687 105.002 59.3454 104.636C54.5166 102.196 52.4976 96.8496 51.7988 95.0108C50.3435 91.1482 50.8313 89.0494 48.6153 87.1083C46.9993 85.7076 45.8907 86.0822 43.3743 85.0904C43.0282 84.9604 35.2061 81.7485 33.9756 74.9973C33.0827 70.091 36.1489 65.9674 36.6982 65.226C39.572 61.3463 42.1548 62.1775 43.3012 59.6752C45.8199 54.1909 34.4819 47.943 35.8832 39.9154C36.7354 35.053 41.9851 31.7813 45.5013 30.5986C54.6789 27.5161 66.0259 34.0066 71.6736 41.8266C77.7986 50.3067 75.0781 57.3726 81.3856 60.7889C87.0851 63.8773 94.9235 61.1359 95.0051 59.9214C95.0575 59.101 91.5901 59.094 89.6801 56.1546C88.3357 54.084 88.5622 51.7907 88.6258 51.2049C88.9778 48.0441 91.1873 45.8865 92.1134 45.0064C100.015 37.4942 123.027 32.8332 130.812 21.0767C139.566 7.88421 131.332 -17.4366 137.72 -24.989C138.095 -25.4307 139.814 -27.343 139.249 -28.8707C138.542 -30.7744 135.05 -29.9887 132.159 -31.7489C127.282 -34.717 125.454 -44.107 128.87 -48.1199C131.898 -51.659 137.69 -49.4356 138.743 -51.9421C140.28 -55.6254 127.895 -60.8997 128.583 -67.9731C128.993 -72.2958 134.252 -76.8274 139.388 -76.3919C143.743 -76.04 147.317 -72.2715 148.232 -68.8311C148.77 -66.7952 148.443 -64.6568 148.932 -64.5836C149.42 -64.5104 149.699 -66.7434 151.099 -68.4096C153.19 -70.8926 157.269 -71.513 159.669 -71.0169C168.085 -69.2691 174.739 -52.5309 169.76 -43.7753C168.149 -40.9325 165.337 -38.9963 166.08 -37.0624C166.757 -35.2973 169.469 -35.9784 173.257 -34.5266C181.118 -31.5219 181.423 -24.0239 188.677 -22.672C188.929 -22.6239 189.219 -22.5906 189.219 -22.5906C190.453 -22.4213 191.699 -22.3514 192.946 -22.3815C194.531 -22.4107 201.611 -22.5353 202.615 -20.074C203.1 -18.8863 202.012 -17.3684 199.815 -14.2842C197.544 -11.1008 196.805 -11.1778 196.197 -9.7665C194.916 -6.69825 197.187 -3.39114 200.18 2.02427C202.377 5.99673 204.039 10.2414 206.206 14.2308C211.584 24.1341 217.671 51.3934 206.77 71.2721C202.79 78.5271 196.779 89.4635 191.34 94.6956C190.46 95.541 188.436 97.345 187.475 100.367C187.219 101.156 185.687 105.12 187.051 108.874C189.531 115.694 200.371 118.887 204.863 115.734C208.814 112.959 208.461 106.988 211.829 106.655C213.585 106.478 215.94 107.956 216.05 109.1C216.129 109.59 216.132 110.088 216.06 110.579C216.001 110.939 215.993 111.305 216.037 111.667C216.063 111.724 216.093 111.779 216.128 111.831C216.506 112.403 219.632 111.306 221.793 111.459C223.814 111.613 226.365 112.905 226.487 114.229Z" fill="#E96262"/>
</g>
<path d="M84.7194 133.523C118.656 127.037 140.958 94.5211 134.531 60.8974C128.105 27.2737 95.3845 5.27425 61.4478 11.7603C27.5111 18.2464 5.20951 50.7618 11.6358 84.3856C18.062 118.009 50.7827 140.009 84.7194 133.523Z" stroke="#E96262" stroke-width="5.56471"/>
</svg>
