<svg width="131" height="131" viewBox="0 0 131 131" fill="none" xmlns="http://www.w3.org/2000/svg">
<mask id="mask0_2_8846" style="mask-type:alpha" maskUnits="userSpaceOnUse" x="4" y="3" width="126" height="126">
<path d="M129.742 65.6053C129.744 69.3396 129.413 73.0668 128.754 76.7425C128.732 76.8673 128.71 76.9885 128.685 77.1096C127.792 81.9341 126.328 86.6351 124.324 91.1135C123.984 91.8819 123.625 92.6442 123.248 93.4004C122.759 94.3792 122.241 95.3581 121.696 96.337C121.277 97.0711 120.842 97.8053 120.389 98.5394C117.829 102.668 114.8 106.487 111.362 109.919C110.442 110.836 109.493 111.727 108.514 112.591C104.714 115.936 100.523 118.809 96.0333 121.148C94.7338 121.823 93.4087 122.456 92.0579 123.045C84.1905 126.462 75.7031 128.218 67.126 128.206C58.3083 128.217 49.5883 126.36 41.5409 122.756C41.3867 122.689 41.2362 122.62 41.082 122.546C37.8477 121.068 34.7467 119.315 31.8134 117.304C29.7752 115.91 27.8214 114.396 25.9622 112.771L25.8961 112.712C25.6832 112.525 25.4667 112.345 25.2574 112.143C19.8434 107.275 15.3183 101.502 11.8848 95.0816C10.8533 93.1535 9.92463 91.1722 9.10241 89.146C8.53711 87.756 8.02077 86.3378 7.55336 84.8915C7.4983 84.7226 7.44317 84.5538 7.39178 84.385C7.29267 84.073 7.19722 83.7646 7.10545 83.4526C6.92191 82.8286 6.74696 82.2009 6.58056 81.5695C5.2126 76.3598 4.52175 70.9954 4.52498 65.6091C4.50335 52.2121 8.80004 39.1649 16.7779 28.4023C17.2992 27.6975 17.8375 27.0011 18.393 26.3135C19.1908 25.3346 20.0192 24.3705 20.8781 23.421C20.9068 23.385 20.9374 23.3508 20.9699 23.3183C21.1755 23.0944 21.3811 22.8741 21.5903 22.6538C21.5972 22.6405 21.6072 22.6292 21.6196 22.6209C27.4678 16.4126 34.5262 11.4685 42.3593 8.09394C50.1923 4.71942 58.6338 2.98604 67.1628 3.00058C75.659 2.99112 84.0678 4.71591 91.8743 8.06938C99.6807 11.4228 106.721 16.3344 112.563 22.5033C114.707 24.7601 116.68 27.1736 118.465 29.7236C125.83 40.2375 129.768 52.7689 129.742 65.6053Z" fill="#EBE125"/>
</mask>
<g mask="url(#mask0_2_8846)">
<path d="M129.736 65.6058C129.738 69.3401 129.407 73.0673 128.748 76.743C128.726 76.8678 128.704 76.9889 128.679 77.1101C127.786 81.9346 126.322 86.6356 124.318 91.114C123.978 91.8824 123.619 92.6447 123.242 93.4009C122.753 94.3797 122.235 95.3586 121.69 96.3375C121.271 97.0716 120.836 97.8058 120.383 98.5399C117.823 102.669 114.794 106.487 111.356 109.919C110.436 110.837 109.487 111.728 108.508 112.592C104.708 115.936 100.517 118.809 96.0273 121.148C94.7278 121.824 93.4028 122.456 92.0519 123.046C84.1845 126.462 75.6971 128.219 67.1201 128.207C58.3023 128.218 49.5824 126.36 41.5349 122.756C41.3807 122.69 41.2302 122.62 41.076 122.547C37.8417 121.069 34.7407 119.315 31.8074 117.305C29.7692 115.911 27.8154 114.397 25.9562 112.771L25.8902 112.713C25.6772 112.525 25.4607 112.346 25.2514 112.144C19.8375 107.276 15.3123 101.502 11.8788 95.0821C10.8474 93.154 9.91865 91.1727 9.09643 89.1465C8.53113 87.7565 8.01479 86.3383 7.54738 84.892C7.49232 84.7231 7.43719 84.5543 7.3858 84.3855C7.28669 84.0734 7.19124 83.7651 7.09947 83.4531C6.91593 82.829 6.74098 82.2014 6.57457 81.57C5.20662 76.3603 4.51577 70.9959 4.519 65.6096C4.49736 52.2126 8.79405 39.1654 16.772 28.4028C17.2932 27.698 17.8315 27.0016 18.3871 26.314C19.1848 25.3351 20.0132 24.371 20.8722 23.4215C20.9008 23.3855 20.9314 23.3513 20.9639 23.3188C21.1695 23.0948 21.3751 22.8746 21.5844 22.6543C21.5912 22.641 21.6012 22.6297 21.6137 22.6213C27.4618 16.4131 34.5202 11.4689 42.3533 8.09443C50.1863 4.71991 58.6278 2.98652 67.1568 3.00107C75.6531 2.99161 84.0618 4.7164 91.8683 8.06987C99.6747 11.4233 106.715 16.3349 112.557 22.5038C114.701 24.7606 116.674 27.174 118.459 29.7241C125.824 40.2379 129.762 52.7693 129.736 65.6058Z" fill="#FFE600"/>
<path d="M132.2 102.423C131.19 102.967 130.291 103.055 129.355 103.396C128.03 103.881 127.086 104.927 125.981 105.191C124.876 105.456 123.54 105.309 122.311 105.54C121.29 105.731 120.108 106.19 118.948 106.124C118.666 106.105 118.475 105.944 118.265 105.94C117.898 105.94 117.682 106.127 117.443 106.061C116.283 105.731 116.269 103.859 115.865 102.926C115.795 102.776 115.391 102.192 115.131 101.825C114.723 101.227 114.125 101.014 113.541 100.562C112.227 99.5382 110.997 98.7932 108.967 99.263C108.178 99.4466 107.279 100.155 106.097 100.056C105.802 99.9821 105.526 99.8456 105.288 99.6555C105.051 99.4655 104.857 99.2263 104.72 98.9545C104.563 98.3599 104.926 97.9158 104.977 97.5156C105.021 97.1779 104.878 96.7815 104.908 96.4144C104.959 95.6803 105.275 95.0929 105.381 94.579C105.421 94.3404 105.308 94.0468 105.381 93.8449C105.66 92.795 106.482 91.8075 106.776 90.6512C106.824 90.464 106.714 90.1888 106.776 89.9979C107.114 88.9701 107.877 88.1148 108.149 87.2778C108.318 86.7419 108.149 85.9932 108.336 85.3839C108.545 84.6974 109.727 83.7062 109.933 82.9097C110.087 82.3077 109.933 81.6946 109.881 80.6705C109.856 80.0061 110.216 79.0591 109.863 78.6186C109.733 78.5028 109.577 78.4211 109.408 78.3807C109.239 78.3404 109.062 78.3426 108.894 78.3874C108.332 78.5379 108.233 79.3785 107.859 80.2227C107.22 81.6543 106.354 83.798 107.734 85.0974C107.492 85.0974 107.345 85.1893 107.411 85.4242C106.956 86.3749 106.982 87.4432 106.625 88.3425C106.468 88.7389 106.071 88.9994 105.847 89.3885C105.48 90.0309 105.366 90.8568 105.032 91.4698C104.867 91.7892 104.467 91.9838 104.228 92.3325C104.041 92.6884 103.876 93.0562 103.737 93.4337C102.859 95.1847 101.78 96.1978 101.34 98.0772C99.5043 99.8869 95.3563 100.504 92.5885 100.75C92.5885 100.445 92.4674 100.335 92.405 100.122C90.5696 99.9457 88.9031 100.856 87.4715 100.856C87.1044 99.9384 87.9487 99.2629 88.3635 98.6719C88.202 98.1837 88.804 97.8424 88.9985 97.2697C89.1931 96.6971 89.0756 95.5261 89.2481 94.524C89.2885 94.2891 89.4867 94.0505 89.5197 93.8339C89.5528 93.6174 89.4243 93.2245 89.4757 92.9051C89.5271 92.5858 89.7327 92.3104 89.7327 92.1196C89.7327 91.1945 89.2518 90.1814 88.7563 89.9171C88.2607 89.6528 88.0037 89.9501 87.4495 89.9171C87.1228 89.8987 86.8548 89.6603 86.4069 89.7888C85.8013 89.965 85.2434 90.89 84.913 91.6865C84.4718 92.6743 84.1858 93.7243 84.065 94.7993C83.5824 95.6281 83.1792 96.5008 82.861 97.4056C82.593 98.1948 82.3361 99.7841 81.4624 99.942C80.5888 100.1 79.2343 98.4002 79.3848 97.2513C79.4546 96.7447 80.1704 96.5869 80.2291 96.0106C80.3356 94.9865 79.5243 93.8081 78.8085 93.3199C78.4781 93.0997 78.045 93.1218 77.7072 92.9163C77.3695 92.7107 77.3989 92.116 76.885 92.3839C76.6648 92.8354 77.1713 92.9969 77.1383 93.4852C77.1089 93.8926 76.6353 94.1752 76.5656 94.6891C76.4592 95.4783 76.8923 96.0289 76.9327 97.0677C76.5656 97.5376 76.5032 98.2132 76.037 98.5986C76.2499 99.7475 75.7838 101.201 76.1032 102.233C76.2647 102.747 76.8189 103.125 76.9731 103.701C77.3769 105.169 76.6794 107.21 75.8719 107.687C73.629 109.031 72.069 106.825 69.9987 106.953C69.5104 106.538 69.5986 105.94 69.3086 105.463C69.1581 105.206 68.8608 105.147 68.6662 104.901C68.3135 104.401 68.0707 103.832 67.954 103.231C67.2199 103 66.8087 102.361 66.4857 101.576C66.2214 101.601 66.0342 101.521 66.0526 101.168C65.1789 101.025 64.665 100.401 64.085 99.8649C62.9214 99.685 62.0552 99.0426 60.9356 98.7343C60.1684 98.5287 59.57 98.6573 58.7661 98.5839C58.1824 98.5325 57.6319 98.2939 57.0409 98.2718C56.2059 98.1883 55.3627 98.249 54.5484 98.4516C54.4052 98.2791 54.3355 98.0075 54.0235 98.0589C53.8106 98.1789 53.5704 98.2419 53.3261 98.2419C53.0817 98.2419 52.8415 98.1789 52.6286 98.0589C52.423 97.9928 52.0596 98.0919 51.9752 98.0589C51.4796 97.8864 51.164 97.4128 50.7455 97.3027C49.982 97.1008 49.5525 97.4202 48.9542 97.1853C48.571 96.9934 48.2318 96.724 47.9582 96.3942C47.6846 96.0643 47.4826 95.6811 47.3648 95.2691C47.3061 95.0305 47.4272 94.6928 47.3354 94.4358C47.0784 93.7017 46.1094 93.1548 45.8671 92.1233C45.6101 90.9964 45.9845 89.8805 45.2761 88.7499C45.2278 88.684 45.1725 88.6236 45.1109 88.57L19.5661 105.455C19.9151 105.55 20.2479 105.696 20.5536 105.889C21.1849 106.311 21.6254 107.071 22.3632 107.401C22.778 107.588 23.3469 107.559 23.7985 107.658C25.9385 108.128 28.2474 107.339 29.958 106.392C31.173 105.72 32.2559 104.281 32.8028 106.072L32.8873 106.013L32.9864 106.047C33.4048 105.984 33.6618 106.252 33.537 106.619C33.2323 106.737 33.1369 106.575 32.9607 106.516L32.8653 106.483L32.7662 106.45C32.6715 107.059 32.4364 107.637 32.0797 108.139C32.0797 108.436 32.2963 108.44 32.2669 108.766C32.0724 109.6 31.5842 110.841 31.5769 112.32C31.5769 113.113 32.0063 113.891 32.0063 114.596C32.0063 114.988 31.6613 115.634 31.4777 116.064C30.9418 117.327 30.5307 117.264 29.2753 116.949C28.9082 116.699 28.6475 116.214 28.1116 115.994C27.3224 115.664 25.7146 115.877 25.7734 116.611C25.7991 116.879 26.7094 117.378 27.216 117.525C28.1343 117.758 29.101 117.715 29.9947 117.4C30.3251 117.767 30.9418 117.463 31.3713 117.855C31.6356 118.101 31.5915 118.487 31.8815 118.81C31.9035 117.822 33.1663 118.971 32.8249 119.511C32.3954 119.753 32.0908 118.821 32.043 119.254C33.0158 120.355 32.8028 123.167 31.0519 122.668C31.9585 123.718 32.656 125.145 31.8778 126.379C30.6775 128.277 27.2416 129.392 24.1692 130.395C23.5745 130.585 22.9249 130.798 22.3816 130.934C21.1482 131.243 20.2929 130.655 19.445 130.523C18.9494 130.446 18.3841 130.567 17.9436 130.461C17.6573 130.387 17.5215 130.215 17.2462 130.185C16.1633 130.083 14.7134 130.641 13.7369 130.417C13.3111 130.318 12.7605 129.973 12.2466 129.793C11.4648 129.513 10.7 129.188 9.95604 128.82C9.69541 128.691 9.44947 128.453 9.22189 128.361C8.63089 128.108 7.98116 128.086 7.55902 127.854C6.99372 127.542 6.77349 127.036 6.28895 126.823C5.98428 126.694 5.59522 126.746 5.23182 126.603C4.6188 126.368 4.09385 126.159 3.45146 125.927C3.13945 125.821 2.8678 125.476 2.52275 125.318C2.34288 125.234 2.07498 125.318 1.85474 125.226C1.48766 125.072 1.13894 124.716 0.75351 124.643C-0.0385303 124.513 -0.817419 124.313 -1.57378 124.044C-2.1611 123.835 -2.70437 123.806 -3.31005 123.644C-3.8056 123.512 -4.17636 123.178 -4.60583 123.086C-5.37939 122.945 -6.16871 122.912 -6.95141 122.987L-12.865 126.893C-12.8238 127.338 -12.6806 127.767 -12.4466 128.148C-11.9254 128.067 -11.3637 127.932 -11.1251 128.236C-11.037 128.68 -11.617 128.629 -11.7748 128.89C-10.5598 130.252 -8.4087 129.826 -6.49624 129.895C-6.0484 129.914 -5.59328 130.101 -5.1638 130.075C-3.92675 130.017 -2.18312 129.481 -1.28378 129.796C-0.0173683 130.237 1.14628 131.015 2.49345 131.393C3.33772 131.632 4.29945 131.466 5.1474 131.665C5.65763 131.782 6.13476 132.259 6.72942 132.274C6.91663 132.898 7.2691 133.302 7.90781 133.316C8.16844 134.322 9.09714 134.418 9.74319 134.921C9.86066 135.607 10.4773 135.603 10.6755 136.187C10.7911 136.134 10.9168 136.107 11.0439 136.108C11.171 136.109 11.2963 136.138 11.4111 136.193C11.5258 136.247 11.6273 136.326 11.7082 136.424C11.7892 136.522 11.8476 136.637 11.8795 136.76C11.3619 137.663 12.3641 138.111 12.3201 139.124C12.2687 140.306 10.1506 141.668 8.79243 141.785C7.76256 141.835 6.73199 141.701 5.74936 141.389C5.11799 141.157 4.70324 140.71 4.04617 140.607C1.57942 140.21 -0.696451 141.484 0.37541 143.569C0.617682 144.031 1.10955 144.098 1.28575 144.67C1.90611 144.633 2.47509 145.162 3.1395 145.239C3.67176 145.302 4.28846 145.052 4.79869 145.092C6.29269 145.21 7.80132 145.926 8.13903 147.504C8.21244 147.842 7.99954 148.565 8.13903 149.281C8.43636 151.076 8.03627 151.788 6.96441 152.724C6.47986 153.146 5.6062 153.458 5.28684 153.994C5.04824 154.394 5.28684 154.919 4.91977 155.352C5.43734 156.369 6.0797 157.231 6.64133 158.186C6.86158 158.358 6.89828 158.105 7.19194 158.105C6.97537 158.472 7.30949 158.564 7.45632 158.63C7.72428 158.751 7.99951 159.218 8.10963 159.28C8.75936 159.647 9.81658 159.405 10.2681 160.014C10.3562 160.381 10.0075 160.418 9.90101 160.631C10.5544 160.719 10.191 161.277 10.0478 161.633C10.2827 162.305 10.738 162.675 11.1124 163.163C10.6168 163.615 10.5617 164.463 10.0625 164.903C9.32835 165.564 7.54801 165.777 6.27793 165.825C5.67593 165.847 4.98219 165.586 4.38385 165.634C3.6497 165.685 2.91552 166.207 2.42731 166.291C1.68531 166.358 0.939604 166.372 0.195547 166.335C-1.27276 166.335 -2.74112 166.999 -3.90108 167.025C-4.11398 167.025 -4.3929 166.864 -4.67188 166.856C-5.69235 166.827 -6.63939 167.135 -7.50202 167.267C-10.0609 167.693 -12.6497 167.912 -15.2437 167.924C-15.7049 167.911 -16.1604 167.819 -16.5908 167.653C-16.8735 167.44 -16.8662 166.952 -17.1048 166.699C-17.4719 166.298 -18.4115 165.759 -19.0796 165.307C-20.4818 164.353 -21.2197 163.788 -22.9119 163.993C-25.643 164.323 -26.7479 165.271 -28.0179 166.695C-29.0641 167.869 -29.6368 168.64 -30.147 169.998C-30.7453 171.584 -30.7893 172.465 -30.6609 174.745C-30.6315 175.295 -30.6609 175.894 -30.6609 176.459L-27.8087 180.772C-26.5606 181.415 -24.9895 181.444 -23.1908 181.224C-22.029 181.038 -20.9159 180.622 -19.9166 180.001C-19.5495 179.766 -19.2962 179.348 -18.9291 179.113C-17.7361 178.349 -16.5652 177.417 -15.8971 176.239C-15.2584 175.119 -15.163 173.695 -15.0822 172.293C-14.5646 172.028 -14.2269 171.158 -13.5037 170.946C-13.4157 170.916 -13.1367 171.059 -13.0229 171.059C-11.9216 171.059 -10.7103 170.597 -9.75959 170.398C-8.49318 170.134 -6.96615 170.208 -6.00074 169.947C-5.10516 169.699 -4.1759 169.595 -3.24767 169.639C-2.4432 169.666 -1.63883 169.581 -0.858004 169.385C-0.270681 169.279 0.46714 169.341 0.977375 169.213C1.48761 169.084 2.05293 168.666 2.55582 168.515C3.19754 168.287 3.86211 168.128 4.53799 168.042C4.76191 168.042 5.16574 168.24 5.59522 168.262C6.46152 168.303 7.37923 168.06 8.19415 168.163C9.00905 168.266 9.63667 168.971 10.5874 169.217C11.5381 169.463 12.3787 169.422 13.0835 169.698C13.8395 169.955 14.5161 170.404 15.0474 171.001C15.7265 171.826 16.2037 173.251 15.8844 174.15C15.4108 175.479 12.9771 174.653 11.9199 175.097C11.7694 175.197 11.6292 175.311 11.5014 175.438C10.9692 175.89 10.7122 176.107 10.5947 176.878C11.2959 176.815 11.5859 177.296 11.931 177.711C12.7679 177.938 14.394 177.938 14.9667 178.672C15.7853 179.722 14.7574 181.903 14.3573 182.776C14.1664 183.191 14.071 183.65 13.9572 183.878C13.2745 185.159 11.7878 185.926 10.6535 186.877C10.1543 187.299 9.62566 187.978 9.02732 188.517C7.87103 189.597 6.65237 190.61 5.5695 191.634C4.96047 192.144 4.3877 192.696 3.85528 193.286C3.33036 193.99 3.05508 195.723 2.49712 196.751C2.33194 197.056 2.04561 197.17 1.93916 197.393C1.76663 197.761 1.82899 198.146 1.70785 198.362C1.43622 198.847 0.878311 199.049 0.474529 199.464C-1.12225 201.13 -2.51349 203.135 -3.86433 204.856C-4.38191 205.517 -5.17479 206.06 -5.05733 206.897C-3.87168 206.842 -3.10449 205.873 -2.30794 205.286C-1.44898 204.654 -0.556952 204.03 0.294664 203.318C1.14628 202.606 1.70789 201.64 2.56684 201.027C3.24226 200.546 4.31045 200.488 5.13637 200.003C5.44105 199.816 5.59155 199.475 5.87053 199.335C6.06874 199.236 6.39544 199.244 6.60468 199.137C7.68755 198.531 8.07292 197.445 8.65657 196.597C9.36136 195.573 10.2938 194.714 11.0316 193.726C11.63 192.933 11.986 191.935 12.6137 191.157C12.8449 190.874 13.2231 190.566 13.5094 190.279C14.1134 189.687 14.7481 189.127 15.4108 188.602C15.7485 188.33 16.2 188.176 16.5121 187.868C16.7286 187.666 16.8057 187.365 17.0553 187.134C18.0198 186.326 19.0786 185.638 20.2085 185.085C20.966 184.704 21.7726 184.43 22.6055 184.27C24.9327 183.863 27.1022 185.654 28.1594 187.761C28.5007 188.451 28.7026 189.575 28.9522 190.636C29.367 192.386 29.8515 193.77 29.8626 195.547C29.8626 196.391 28.8531 197.1 28.4383 197.904C28.2695 198.234 28.1373 198.722 27.9611 199.097C27.7433 199.451 27.5483 199.819 27.3774 200.198C27.0764 201.222 27.4142 202.117 27.2747 203.292C27.227 203.659 26.9554 204.067 26.8232 204.665C27.2858 204.9 26.8232 205.355 26.9958 205.854L27.0802 205.799L27.1793 205.829L27.3628 205.803C27.3849 205.921 27.4986 205.913 27.4949 206.064C27.3738 206.112 27.3371 206.221 27.1279 206.21L27.0618 206.295L26.959 206.328C27.1242 207.947 27.8877 209.213 29.5285 208.659C29.947 208.523 30.1819 207.947 30.5967 207.664C32.4761 206.383 35.1008 207.15 34.7961 209.576C35.2696 209.551 35.1044 209.048 35.5522 209C36.1689 209.683 36.0919 211.012 35.9965 212.018C35.912 212.275 35.4384 212.018 35.4605 212.19C35.644 213.141 35.7101 214.708 35.2916 215.494C35.321 216.389 35.578 217.329 35.4091 218.188C35.2659 218.922 34.675 219.756 34.2565 220.505C33.8381 221.253 33.2066 222.01 32.9093 222.755C32.7394 223.322 32.541 223.881 32.3147 224.428C31.7531 225.53 31.3456 226.631 30.8464 227.732C30.5858 228.29 30.1636 228.903 30.0571 229.344C29.98 229.667 30.1048 230.111 30.0387 230.467C29.9249 231.065 29.5799 231.752 29.7855 232.559C30.3508 232.886 30.4058 233.572 30.8867 233.796C31.8117 234.222 33.4306 233.73 34.1317 233.062C34.3743 232.748 34.5754 232.404 34.73 232.038C34.9494 231.71 35.1493 231.369 35.3284 231.017C35.4238 230.742 35.3063 230.427 35.3871 230.17C35.4678 229.913 35.8129 229.601 35.923 229.344C36.1866 228.587 36.3831 227.808 36.5103 227.016C36.9545 226.473 37.5271 225.809 37.7144 225.067C37.7694 224.865 37.5859 224.645 37.6226 224.425C37.6593 224.205 37.8906 224.08 37.9052 223.826C37.9199 223.573 37.7621 223.305 37.7841 223.001C37.8538 222.068 38.4081 221.242 38.5182 220.464C38.5623 220.174 38.4045 219.829 38.4742 219.535C38.6504 218.801 39.3038 218.067 39.7149 217.204C39.9829 216.665 40.082 215.931 40.4014 215.52C40.9116 214.881 41.7595 214.455 42.3028 213.842C42.4643 213.662 42.523 213.317 42.6699 213.137C43.1911 212.462 43.9326 211.992 44.4648 211.379C45.0484 210.604 45.5193 209.75 45.8634 208.842C46.2599 207.947 46.5976 207.047 47.0527 206.148C47.0894 204.654 47.3942 203.362 48.2898 202.51C48.6569 201.229 50.3674 198.722 52.6507 198.517C53.2637 198.458 54.9191 198.759 55.4587 199.229C55.6475 199.467 55.8111 199.724 55.947 199.996C56.0534 200.484 55.5799 200.73 55.8479 201.226C55.4051 201.785 54.8774 202.272 54.2841 202.668C53.7078 203.087 52.8783 203.403 52.4121 203.876C51.6559 204.61 51.41 205.667 50.841 206.53C50.7749 206.996 50.841 207.569 50.6795 207.954C51.3476 208.919 52.7865 209.889 54.0676 209.422C54.4347 209.283 54.754 208.626 55.1981 208.229C55.7405 207.751 56.193 207.179 56.5343 206.541C56.8243 206.053 56.9014 205.535 57.1547 205.05C57.3162 204.735 57.7309 204.445 57.9475 204.093C58.2192 203.656 58.2889 203.212 58.5312 202.991C58.8347 202.797 59.1525 202.627 59.482 202.481C60.3373 201.96 60.3189 201.901 61.2843 202.033C62.4699 202.195 63.3876 202.261 64.1181 202.929C64.966 202.65 65.9755 203.017 66.5738 203.131C67.1134 203.237 67.6751 203.112 68.2587 203.167C69.3006 203.318 70.317 203.611 71.2797 204.037C72.2892 203.149 73.2509 204.177 74.1136 204.28C74.5981 204.335 75.2148 204.023 75.7581 204.041C76.1251 204.041 76.4923 204.258 76.819 204.261C77.2888 204.261 77.8027 203.964 78.2873 204.048C78.6874 202.213 81.4955 201.765 82.3985 203.45C82.4462 204.276 82.2994 205.039 82.6554 205.843C82.8426 206.254 83.2941 206.526 83.4703 206.945C83.5186 207.187 83.5542 207.432 83.5768 207.679C83.9439 208.824 84.9166 209.228 85.5076 210.013C85.6558 209.804 85.8479 209.63 86.0705 209.503C86.2931 209.377 86.5407 209.3 86.7961 209.279C86.9209 209.562 86.5904 209.503 86.5758 209.687C87.4411 209.563 88.2842 209.316 89.0792 208.952C89.6335 208.754 90.3567 208.78 90.8045 208.608C91.4359 208.365 91.792 207.664 92.3169 208.108C92.4857 208.905 92.8124 209.532 92.9005 210.171C92.9482 210.538 92.7243 210.957 92.7868 211.309C92.8785 211.849 93.4401 212.388 93.029 212.957C93.0804 213.251 93.4732 213.093 93.3961 213.556C93.1501 213.871 93.1098 213.295 92.8051 213.365C92.4858 214.198 92.2471 214.833 92.5041 215.74C92.5885 216.052 92.8712 216.202 92.9887 216.514C93.0757 216.763 93.1179 217.025 93.1134 217.289L115.138 202.742C114.771 202.184 114.584 201.292 114.176 200.638C113.541 199.622 112.767 198.509 112.154 197.661C111.405 197.494 110.744 197.059 110.293 196.439C109.558 196.116 108.688 196.072 107.951 195.749C107.789 195.679 107.657 195.565 107.44 195.452C106.963 195.195 106.512 195.147 106.057 194.905C105.838 194.781 105.65 194.61 105.507 194.404C105.363 194.198 105.268 193.963 105.227 193.715C104.635 193.876 104.017 193.913 103.41 193.824C102.803 193.736 102.221 193.524 101.699 193.201C100.925 192.651 101.171 192.812 101.119 191.792C101.068 190.771 101.218 190.536 101.281 189.71C101.325 189.079 101.13 188.338 101.178 187.765C101.215 187.328 101.589 186.884 101.567 186.587C101.53 186.164 101.13 185.823 101.024 185.452C101.237 184.979 101.119 184.201 101.391 183.529C101.497 183.268 101.798 183.088 101.938 182.795C102.342 181.936 102.753 180.592 103.847 180.556C104.474 180.523 104.544 181.128 105.315 180.996C105.627 180.849 105.532 180.409 105.847 180.17C105.976 180.071 106.167 180.17 106.291 180.012C106.49 179.766 106.453 179.447 106.728 179.201C107.484 178.537 108.861 178.401 109.881 177.81C110.792 177.285 111.35 176.569 112.176 176.264C112.3 176.103 112.645 176.265 112.998 176.143C113.222 175.123 114.404 174.936 115.156 174.334C115.56 174.014 115.637 173.493 116.133 173.35C116.327 171.68 117.476 170.718 119.213 170.197C119.598 169.587 120.045 169.02 120.549 168.505C121.044 168.005 121.899 167.583 122.201 167.036C122.325 166.823 122.296 166.273 122.406 165.887C122.516 165.502 122.773 165.127 122.806 164.786C122.854 164.096 122.586 163.318 122.652 162.473C122.777 162.327 122.869 162.156 122.922 161.971C122.975 161.786 122.988 161.592 122.96 161.402C123.144 161.321 123.188 161.137 123.482 161.137C123.056 160.594 123.669 160.256 123.75 159.79C123.83 159.324 123.581 159.107 123.772 158.667C123.75 158.333 123.375 158.472 123.327 158.171C123.485 158.017 123.438 157.709 123.717 157.646C123.302 157.309 123.526 156.714 123.316 156.211C123.155 155.815 122.736 155.583 122.608 155.191C122.145 153.77 122.509 152.408 122.876 151.322C123.243 151.344 123.298 151.149 123.61 151.123C123.61 150.83 123.298 150.958 123.346 150.602C124.223 150.415 124.297 149.446 123.808 148.668C123.192 149.057 122.747 148.271 122.318 148.044C121.951 148.139 121.877 148.477 121.353 148.462C121.206 147.361 119.613 148.168 119.624 146.847C118.522 146.7 117.583 146.829 116.654 146.344C116.577 145.977 116.724 145.977 116.562 145.702C115.788 145.36 114.907 144.967 114.4 144.336C113.813 143.602 114.173 143.117 114.705 142.607C115.237 142.097 116.03 141.873 116.173 141.179C116.463 139.818 115.237 139.182 114.892 138.191C114.731 137.721 115.032 137.538 114.69 136.818C114.639 136.506 115.138 136.613 115.079 136.294C115.16 135.31 115.813 134.778 116.415 133.952C116.742 133.508 117.278 132.986 117.429 132.59C117.579 132.193 117.373 131.801 117.539 131.455C118.247 129.965 121.496 130.105 121.507 127.983C121.525 125.223 118.203 126.041 116.599 125.046C116.452 124.518 115.975 124.437 115.795 124.044C115.615 123.651 115.795 123.343 115.795 122.829C115.725 122.462 115.351 122.462 115.384 121.952C115.986 120.656 115.806 119.015 116.36 117.793C116.474 117.54 116.779 117.349 116.904 117.059C117.146 116.501 117.153 115.73 117.458 115.113C117.557 114.911 117.847 114.845 117.95 114.666C118.159 114.189 118.336 113.698 118.478 113.197C118.633 112.551 118.537 111.241 118.677 110.738C118.974 109.688 120.512 108.932 121.712 108.535C122.814 108.168 124.025 108.168 124.972 107.875C125.919 107.581 126.712 106.814 127.486 106.571C127.644 106.524 127.894 106.619 128.048 106.571C129.127 106.329 129.656 105.566 130.548 105.18C131.302 104.89 132.104 104.742 132.912 104.743C133.529 104.667 134.123 104.46 134.655 104.138L133.187 101.899C132.835 102.023 132.497 102.255 132.2 102.423ZM107.536 83.7576C107.536 83.6842 107.613 83.6549 107.598 83.5632L107.785 83.5374C107.785 83.6291 107.811 83.721 107.822 83.8091C107.672 83.8715 107.646 83.7576 107.536 83.7576ZM27.6492 105.823C28.0346 104.626 29.8846 103.712 31.2722 103.804C30.4756 104.798 29.1762 105.415 27.6418 105.834L27.6492 105.823ZM-19.3623 176.272C-19.4026 176.877 -20.1735 177.329 -20.8048 177.226C-20.7828 176.628 -20.0524 176.143 -19.3696 176.283L-19.3623 176.272ZM-25.9476 175.266C-26.0063 174.73 -25.2686 174.55 -24.8244 174.635C-24.5344 175.38 -25.6613 175.71 -25.9549 175.277L-25.9476 175.266ZM100.763 114.453C100.47 114.148 101.299 113.986 101.608 113.861C101.553 114.243 100.928 114.177 100.756 114.464L100.763 114.453ZM17.9693 173.185C17.9363 172.942 17.8996 172.697 17.8629 172.451C18.077 172.242 18.3499 172.104 18.6448 172.054C18.7746 172.235 18.8664 172.441 18.915 172.658C18.9635 172.876 18.9678 173.101 18.9274 173.321C18.7675 173.364 18.6003 173.376 18.4358 173.355C18.2713 173.333 18.1127 173.279 17.9693 173.196V173.185ZM95.694 215.053C95.6389 215.391 95.103 215.373 94.9598 215.63C94.846 215.63 94.8571 215.476 94.824 215.369C95.0994 215.236 95.3887 215.134 95.6866 215.064L95.694 215.053ZM90.588 206.357C89.975 207.231 88.8517 207.723 87.7908 208.262C87.9009 207.396 89.3289 206.401 90.5806 206.361L90.588 206.357ZM87.9009 158.916C87.8312 159.192 87.4861 159.265 87.2218 159.39C87.1704 159.041 87.677 159.096 87.8936 158.927L87.9009 158.916ZM86.484 158.182L86.2124 158.223C86.2124 158.131 86.1867 158.039 86.172 157.947C86.3629 157.907 86.4656 157.999 86.4766 158.201L86.484 158.182ZM84.1898 155.899C84.1898 155.98 84.2375 155.98 84.2962 155.98C84.2962 156.039 84.2963 156.101 84.322 156.16C84.2449 156.16 84.2412 156.211 84.2449 156.266L84.065 156.292C84.065 156.211 84.0136 156.211 83.9586 156.215C83.9586 156.152 83.9402 156.094 83.9292 156.031C84.0099 156.031 84.0099 155.984 84.0099 155.925L84.1898 155.899ZM32.1201 189.431C31.3126 190.099 30.9455 189.193 30.9124 188.205C31.0813 188.007 31.4704 187.974 31.5879 187.735C32.0577 188.007 32.3073 188.91 32.1128 189.45L32.1201 189.431ZM20.4324 183.558C20.0396 184.582 18.5199 185.155 17.7527 185.68C17.7353 185.708 17.7076 185.728 17.6757 185.735L17.7527 185.68C17.8408 185.57 17.8812 185.313 17.973 185.225C18.0648 185.137 18.0978 185.39 18.0905 185.394C18.6815 185.049 19.155 183.665 20.425 183.58L20.4324 183.558ZM17.5325 177.813C17.6647 178.118 17.426 178.346 17.4077 178.86C17.3783 179.796 17.8555 180.695 16.9599 180.886C16.7763 180.299 16.5707 179.943 16.6405 179.348C16.6698 179.069 16.9489 178.786 16.8975 178.559C16.7323 177.824 15.8696 178.001 15.5723 177.164C16.1706 177.094 17.2352 177.16 17.5252 177.836L17.5325 177.813Z" fill="#E96262"/>
<path d="M71.4782 120.792C71.302 122.627 64.4303 121.526 61.0165 125.196C59.7354 126.573 57.6688 130.167 57.3458 131.048C57.243 131.354 57.0529 131.623 56.7988 131.822C56.5392 132.004 56.2313 132.105 55.9142 132.112C55.7689 132.11 55.6244 132.089 55.4847 132.05C54.7505 131.818 54.5009 130.31 54.4825 130.189C54.1155 128.056 54.6991 126.257 54.5927 124.994C54.288 121.324 48.2937 121.94 43.3051 116.027C42.3397 114.885 41.0036 113.01 39.1902 113.021C38.5221 113.021 37.7219 113.277 35.9783 113.285C35.2038 113.285 34.6752 113.2 34.4219 113.222C32.7627 113.369 31.7385 114.21 28.3981 114.452C23.5344 114.819 22.0844 113.289 20.227 114.665C20.227 114.665 18.0246 116.298 16.3397 116.963C15.3082 117.363 15.3486 117.088 14.7172 117.425C13.5793 118.031 12.1477 121.294 12.1477 121.294C10.8262 124.301 9.88286 124.51 10.1949 125.266C10.7308 126.566 13.3994 125.696 15.4954 127.836C15.8295 128.177 16.6297 128.992 16.3874 129.752C16.2699 130.032 16.0755 130.273 15.8267 130.447C15.5779 130.621 15.2849 130.721 14.9816 130.736C14.8073 130.74 14.6339 130.71 14.4713 130.648C14.1042 130.523 12.2137 129.88 11.799 130.313C11.4319 130.681 12.4157 131.598 12.6543 133.68C12.8195 135.148 12.4377 135.592 12.2285 135.75C12.0839 135.854 11.9186 135.925 11.7439 135.959C11.7164 135.989 11.6822 136.013 11.6439 136.028C11.6056 136.042 11.5644 136.048 11.5236 136.043C11.1209 136.021 10.7355 135.872 10.4224 135.618C9.28081 134.649 6.83242 130.724 4.5492 129.377C1.81816 127.781 -0.769707 129.785 -2.13156 127.993C-2.75192 127.179 -2.93542 125.824 -2.36645 125.013C-1.32395 123.526 1.15749 125.2 4.34003 123.945C5.59176 123.449 6.78105 121.852 9.16337 118.659C9.86449 117.723 10.7565 116.42 10.338 115.799C10.2864 115.73 10.2231 115.67 10.1508 115.623C9.25879 114.959 8.91739 113.619 8.84765 113.402C8.3521 111.868 3.34151 110.065 1.87321 109.478C0.962856 109.111 -6.61726 105.763 -9.96132 99.5488C-10.3981 98.7376 -11.503 96.5021 -12.4831 96.6636C-13.2172 96.7848 -13.1952 98.1318 -14.3515 98.6347C-14.8173 98.8134 -15.3227 98.8631 -15.8144 98.7785C-16.306 98.6938 -16.7657 98.4781 -17.1449 98.154C-18.4664 96.9537 -17.6589 94.8136 -18.4591 94.4832C-19.2593 94.1529 -20.155 96.4543 -22.3428 97.0893C-24.7838 97.7941 -27.2469 95.9477 -27.6397 95.6431C-30.2569 93.6095 -30.8553 90.137 -31.0608 88.9477C-31.4903 86.4406 -30.958 85.2255 -32.0629 83.8086C-32.8705 82.7735 -33.5826 82.8726 -34.9702 81.9733C-35.1647 81.8521 -39.4852 79.0035 -39.4448 74.7748C-39.4154 71.7023 -37.1028 69.5624 -36.6917 69.1806C-34.5223 67.1727 -33.0687 67.9657 -32.0959 66.5855C-29.9559 63.5571 -36.0384 58.4619 -34.2764 53.767C-33.2119 50.9222 -29.6879 49.5531 -27.4451 49.2447C-21.5719 48.4371 -15.5298 53.679 -13.0374 59.064C-10.3357 64.9042 -12.7768 68.8649 -9.38866 71.662C-6.32357 74.1911 -1.31298 73.4387 -1.1221 72.7119C-0.997295 72.2237 -3.07495 71.8198 -3.88252 69.8192C-4.25362 68.816 -4.27687 67.7172 -3.94857 66.6991C-3.37593 64.827 -1.80122 63.7626 -1.14782 63.3515C4.45376 59.7211 18.7735 59.5633 24.8008 53.3487C31.5624 46.3742 29.5251 30.0981 34.22 26.2695C34.4953 26.0419 35.747 25.0875 35.5818 24.0964C35.3763 22.8631 33.1922 22.9328 31.6615 21.5269C29.0919 19.1666 29.0552 13.2714 31.566 11.2488C33.7685 9.45009 37.0061 11.4725 37.9238 10.0776C39.2746 8.02568 32.4433 3.40424 33.6583 -0.79878C34.3925 -3.36831 38.0633 -5.49 41.1026 -4.64573C43.6722 -3.91158 45.3828 -1.23192 45.537 0.959527C45.6287 2.25164 45.1698 3.51078 45.4708 3.60989C45.7718 3.70901 46.1793 2.39116 47.2108 1.54689C48.7488 0.284144 51.2486 0.379548 52.6472 0.959527C57.4926 2.98946 59.5629 13.8879 55.5838 18.6122C54.2917 20.1465 52.3829 20.9909 52.6068 22.2499C52.8087 23.3989 54.5156 23.2997 56.619 24.6139C60.9908 27.3413 60.3154 31.9151 64.5074 33.5816C64.6506 33.6403 64.823 33.6917 64.823 33.6917C65.5409 33.9368 66.2775 34.1234 67.0255 34.2496C67.9799 34.4185 72.238 35.1601 72.561 36.7679C72.7152 37.5388 71.882 38.3425 70.2191 39.9466C68.4902 41.6095 68.0534 41.4775 67.5395 42.2593C66.4089 43.9699 67.4 46.2347 68.5746 49.8577C69.4373 52.5153 69.9475 55.2757 70.7771 57.9334C72.8694 64.5407 73.3943 81.7493 64.5808 92.5193C61.3615 96.4507 56.5051 102.383 52.6435 104.912C51.4085 105.627 50.3851 106.657 49.6775 107.896C49.4315 108.351 48.0624 110.565 48.4478 112.995C49.1526 117.4 55.2864 120.597 58.3405 119.206C61.0275 117.983 61.501 114.331 63.5567 114.518C64.6322 114.614 65.873 115.781 65.8105 116.486C65.8004 116.79 65.7447 117.09 65.6453 117.378C65.5687 117.588 65.523 117.808 65.5095 118.031C65.517 118.069 65.5281 118.106 65.5426 118.141C65.7041 118.534 67.7046 118.229 68.982 118.574C70.1714 118.897 71.5626 119.973 71.4782 120.792Z" fill="#E9AD62"/>
</g>
<path d="M65.6029 128.206C100.178 128.206 128.206 100.178 128.206 65.6029C128.206 31.0283 100.178 3 65.6029 3C31.0283 3 3 31.0283 3 65.6029C3 100.178 31.0283 128.206 65.6029 128.206Z" stroke="#60C9EB" stroke-width="5.56471"/>
</svg>
