<svg width="131" height="130" viewBox="0 0 131 130" fill="none" xmlns="http://www.w3.org/2000/svg">
<mask id="mask0_2_8829" style="mask-type:alpha" maskUnits="userSpaceOnUse" x="3" y="4" width="126" height="125">
<path d="M128.206 66.2205C128.207 69.9182 127.875 73.6087 127.215 77.2481L127.149 77.6115C126.253 82.3877 124.789 87.0419 122.788 91.4774C122.448 92.2383 122.09 92.9932 121.713 93.742C121.224 94.7112 120.705 95.6804 120.157 96.6497C119.738 97.3766 119.304 98.1035 118.854 98.8304C116.293 102.918 113.265 106.699 109.828 110.098C108.903 111.006 107.953 111.889 106.976 112.744C103.177 116.057 98.9867 118.901 94.4967 121.216C93.2023 121.885 91.8772 122.511 90.5216 123.095C82.6551 126.478 74.1684 128.218 65.592 128.206C56.7762 128.217 48.058 126.377 40.0127 122.808C39.8585 122.743 39.7044 122.674 39.5539 122.601C36.3199 121.138 33.2191 119.401 30.286 117.411C28.248 116.03 26.2944 114.531 24.4354 112.922C24.4117 112.904 24.3895 112.885 24.3693 112.864C24.1527 112.678 23.9398 112.5 23.7269 112.3C18.3156 107.478 13.7913 101.762 10.3556 95.4066C9.32548 93.4975 8.3979 91.5357 7.57701 89.5295C7.00687 88.1507 6.49066 86.7466 6.02819 85.317C5.96946 85.1498 5.918 84.9827 5.86295 84.8155L5.57673 83.8923C5.39321 83.2744 5.20972 82.6525 5.05556 82.0274C3.68595 76.8692 2.99505 71.5577 3.00008 66.2242C2.97895 52.9598 7.27389 40.0415 15.2484 29.3837C15.7732 28.6859 16.3091 27.9951 16.8633 27.3155C17.6635 26.3462 18.4918 25.3916 19.3482 24.4514C19.3771 24.4149 19.4089 24.3809 19.4436 24.3497C19.6454 24.128 19.8547 23.9063 20.0603 23.6918C20.0693 23.6792 20.0804 23.6682 20.0932 23.6592C25.9379 17.5156 32.9917 12.6229 40.8195 9.2829C48.6474 5.94291 57.0831 4.2264 65.6066 4.23933C74.1027 4.22968 82.5114 5.93742 90.3178 9.25788C98.1242 12.5783 105.164 17.4416 111.006 23.55C113.15 25.7847 115.123 28.1743 116.908 30.6993C124.28 41.1043 128.226 53.5103 128.206 66.2205Z" fill="#EBE125"/>
</mask>
<g mask="url(#mask0_2_8829)">
<path d="M128.201 66.2225C128.201 69.9201 127.87 73.6106 127.21 77.25L127.144 77.6135C126.248 82.3897 124.784 87.0439 122.783 91.4794C122.443 92.2402 122.084 92.9952 121.708 93.7439C121.218 94.7131 120.699 95.6824 120.151 96.6516C119.733 97.3785 119.299 98.1055 118.848 98.8324C116.288 102.92 113.259 106.701 109.823 110.1C108.898 111.008 107.947 111.89 106.971 112.746C103.172 116.058 98.9813 118.903 94.4913 121.218C93.1969 121.887 91.8719 122.513 90.5162 123.097C82.6497 126.48 74.163 128.22 65.5867 128.208C56.7708 128.219 48.0527 126.379 40.0073 122.81C39.8532 122.744 39.699 122.676 39.5485 122.603C36.3145 121.14 33.2138 119.403 30.2807 117.413C28.2427 116.032 26.289 114.533 24.43 112.924C24.4063 112.906 24.3841 112.887 24.3639 112.866C24.1473 112.68 23.9344 112.502 23.7216 112.302C18.3102 107.48 13.7859 101.764 10.3503 95.4086C9.32011 93.4994 8.39253 91.5376 7.57164 89.5314C7.0015 88.1527 6.48529 86.7486 6.02282 85.319C5.96409 85.1518 5.91263 84.9846 5.85757 84.8174L5.57136 83.8942C5.38784 83.2763 5.20434 82.6545 5.05019 82.0293C3.68058 76.8712 2.98968 71.5596 2.99471 66.2262C2.97358 52.9617 7.26852 40.0435 15.243 29.3857C15.7679 28.6878 16.3037 27.9971 16.858 27.3174C17.6581 26.3482 18.4864 25.3935 19.3428 24.4534C19.3717 24.4169 19.4035 24.3829 19.4382 24.3517C19.6401 24.13 19.8493 23.9082 20.0549 23.6938C20.064 23.6811 20.0751 23.6701 20.0879 23.6611C25.9325 17.5176 32.9864 12.6248 40.8142 9.28486C48.642 5.94487 57.0777 4.22835 65.6013 4.24128C74.0974 4.23163 82.5061 5.93938 90.3125 9.25983C98.1189 12.5803 105.159 17.4435 111.001 23.552C113.145 25.7866 115.118 28.1763 116.903 30.7013C124.275 41.1063 128.22 53.5122 128.201 66.2225Z" fill="#FFE600"/>
<path d="M59.0736 76.297C59.7857 75.3483 60.6006 74.8758 61.3346 74.1488C62.3771 73.1166 62.8028 71.7283 63.7351 70.9941C64.6674 70.2599 65.9925 69.8237 67.0606 69.0641C67.9451 68.4426 68.8627 67.4975 69.9969 67.054C70.2685 66.9486 70.5218 67.0177 70.731 66.9305C71.098 66.7633 71.2008 66.4981 71.4651 66.4581C72.7057 66.2618 73.5498 68.0245 74.3353 68.7042C74.4674 68.8168 75.1061 69.1914 75.5061 69.4313C76.1558 69.8165 76.8165 69.7545 77.5653 69.9254C79.261 70.3106 80.7513 70.4707 82.4617 69.1477C83.1297 68.6316 83.6693 67.5775 84.8291 67.1559C85.1414 67.0956 85.4633 67.1037 85.7721 67.1797C86.0809 67.2557 86.3691 67.3977 86.6166 67.5957C87.0277 68.0827 86.8809 68.657 87.0093 69.0495C87.1158 69.3839 87.4278 69.7037 87.5636 70.0599C87.8352 70.765 87.7838 71.463 87.9306 71.9936C87.993 72.2335 88.2316 72.4586 88.2719 72.684C88.4701 73.7744 88.1178 75.0757 88.3563 76.2824C88.3967 76.4787 88.6206 76.6894 88.6463 76.8929C88.7785 77.9833 88.4261 79.1392 88.5472 80.037C88.6206 80.6149 89.1088 81.2402 89.2006 81.8944C89.3033 82.6213 88.6243 84.0752 88.7785 84.9075C88.8996 85.5363 89.3218 86.0376 89.8136 86.979C90.1329 87.5932 90.21 88.6366 90.7349 88.8911C90.9082 88.9425 91.0915 88.9507 91.2689 88.9152C91.4462 88.8797 91.612 88.8014 91.7515 88.6873C92.2176 88.3021 91.9424 87.4697 91.9278 86.5066C91.9021 84.8891 91.7736 82.5085 89.898 81.887C90.1219 81.7743 90.2247 81.6327 90.0632 81.4401C90.0632 80.3497 89.5787 79.3611 89.5199 78.3652C89.4942 77.9254 89.7548 77.5071 89.7952 77.0455C89.8613 76.2859 89.6116 75.4753 89.652 74.7448C89.652 74.3813 89.9603 74.0181 90.0191 73.5855C90.0482 73.1705 90.0482 72.754 90.0191 72.339C90.0815 70.3181 90.6541 68.9004 90.243 66.9486C91.1753 64.4553 94.8348 62.0675 97.3417 60.6354C97.4665 60.9225 97.6426 60.9697 97.7931 61.1405C99.6063 60.5081 100.781 58.9162 102.143 58.3201C102.906 59.0143 102.392 60.0175 102.26 60.7517C102.627 61.1406 102.209 61.7185 102.26 62.34C102.311 62.9616 102.957 64.0047 103.236 65.0223C103.299 65.2586 103.214 65.5675 103.28 65.7892C103.346 66.0109 103.647 66.3163 103.732 66.6361C103.816 66.9559 103.75 67.3049 103.835 67.483C104.238 68.3517 105.138 69.0896 105.721 69.115C106.305 69.1405 106.419 68.7514 106.955 68.5443C107.274 68.4171 107.63 68.526 108.001 68.2062C108.496 67.7809 108.617 66.6725 108.577 65.7784C108.559 64.6655 108.367 63.562 108.008 62.5072C108.103 61.5209 108.103 60.5277 108.008 59.5413C107.912 58.6872 107.457 57.0843 108.217 56.5573C108.977 56.0303 110.999 57.0298 111.363 58.1711C111.521 58.6799 110.911 59.1379 111.109 59.7049C111.458 60.7081 112.75 61.464 113.638 61.6021C114.046 61.6639 114.446 61.4532 114.842 61.5077C115.239 61.5622 115.485 62.1255 115.855 61.6458C115.855 61.126 115.316 61.1988 115.14 60.7408C114.989 60.3483 115.308 59.8793 115.14 59.3669C114.894 58.5818 114.24 58.251 113.763 57.2915C113.884 56.6991 113.664 56.0303 113.936 55.4742C113.227 54.4892 113.029 52.93 112.273 52.1013C111.906 51.687 111.205 51.5743 110.805 51.1091C109.781 49.906 109.542 47.6925 110.071 46.9002C111.601 44.6649 114.046 46.0496 115.965 45.0174C116.604 45.1918 116.788 45.7879 117.268 46.1077C117.529 46.2822 117.83 46.2095 118.124 46.3512C118.678 46.6673 119.158 47.0959 119.533 47.6088C120.319 47.5107 121.001 47.9214 121.636 48.5247C121.875 48.3866 122.088 48.3758 122.223 48.7175C123.112 48.4703 123.875 48.8301 124.657 49.0809C125.839 48.7429 126.94 48.9682 128.133 48.7647C128.951 48.6266 129.458 48.2449 130.251 47.965C130.827 47.7578 131.455 47.7396 132.02 47.5034C132.846 47.2183 133.617 46.7955 134.299 46.2531C134.512 46.3512 134.696 46.5729 134.967 46.3912C135.514 45.7442 135.837 45.8243 136.281 45.7661C136.505 45.737 136.802 45.4898 136.898 45.4825C137.441 45.4244 137.948 45.7334 138.395 45.6534C139.203 45.508 139.467 45.021 140.135 44.981C140.581 44.9917 141.02 45.0943 141.424 45.282C141.827 45.4697 142.187 45.7384 142.481 46.0714C142.646 46.2676 142.679 46.6384 142.877 46.8419C143.442 47.4126 144.602 47.5071 145.274 48.3721C146.008 49.3171 146.147 50.5238 147.318 51.2798C147.391 51.3218 147.469 51.3548 147.549 51.378L164.283 24.4381C163.911 24.5013 163.531 24.5099 163.156 24.4636C162.374 24.3401 161.626 23.824 160.781 23.8349C160.308 23.8349 159.779 24.1146 159.313 24.22C157.082 24.7106 155.246 26.4553 154.046 28.0873C153.191 29.2467 152.802 31.0676 151.499 29.6247L151.444 29.7193H151.337C150.97 29.9592 150.603 29.8209 150.563 29.4211C150.798 29.1776 150.959 29.2903 151.15 29.2685H151.257H151.367C151.189 28.6591 151.156 28.0172 151.271 27.3932C151.143 27.1133 150.937 27.204 150.82 26.8842C150.636 26.0191 150.552 24.6416 149.906 23.2495C149.561 22.5226 148.805 21.9667 148.5 21.3052C148.331 20.9417 148.368 20.1856 148.353 19.695C148.302 18.2811 148.72 18.1575 150.049 17.9068C150.519 17.9722 150.963 18.3175 151.569 18.2921C152.457 18.2593 153.888 17.3579 153.507 16.6964C153.367 16.4565 152.284 16.3838 151.741 16.471C150.771 16.6517 149.877 17.1134 149.172 17.7976C148.698 17.5941 148.251 18.1612 147.671 17.9685C147.304 17.8522 147.182 17.4742 146.768 17.2961C147.186 18.2338 145.483 17.7068 145.567 17.0526C145.868 16.6419 146.57 17.376 146.423 16.9507C145.017 16.3474 143.982 13.6178 145.857 13.3161C144.536 12.7273 143.248 11.6951 143.442 10.2013C143.747 7.90421 146.5 5.36002 148.97 3.08112C149.451 2.64133 149.968 2.16146 150.438 1.798C151.466 0.972946 152.538 1.14742 153.411 0.896622C153.914 0.754875 154.391 0.391541 154.857 0.300674C155.158 0.246155 155.364 0.347878 155.635 0.257011C156.707 -0.106445 157.838 -1.2769 158.854 -1.48771C159.299 -1.58221 159.974 -1.4876 160.539 -1.55302C161.4 -1.63377 162.266 -1.66298 163.131 -1.64034C163.435 -1.64034 163.773 -1.51665 164.015 -1.52392C164.687 -1.54572 165.307 -1.8074 165.81 -1.77468C166.482 -1.72743 166.911 -1.34947 167.465 -1.36401C167.81 -1.36401 168.155 -1.59306 168.566 -1.61851C169.249 -1.66212 169.836 -1.69852 170.545 -1.76031C170.886 -1.79302 171.279 -1.59296 171.694 -1.59296C171.899 -1.59296 172.116 -1.78925 172.365 -1.79652C172.787 -1.81832 173.268 -1.63298 173.672 -1.73476C174.478 -1.95718 175.302 -2.1092 176.135 -2.18908C176.785 -2.25087 177.309 -2.45805 177.97 -2.55254C178.499 -2.64341 178.994 -2.49434 179.438 -2.59248C180.231 -2.80004 180.991 -3.11307 181.699 -3.52296L185.572 -9.75648C185.338 -10.1557 185.014 -10.4954 184.625 -10.7487C184.166 -10.4471 183.696 -10.0763 183.34 -10.258C183.057 -10.6215 183.63 -10.8395 183.663 -11.1521C181.916 -11.879 180.07 -10.5633 178.227 -9.79641C177.798 -9.61468 177.284 -9.59292 176.887 -9.38574C175.746 -8.78967 174.318 -7.52831 173.345 -7.43018C171.954 -7.29206 170.512 -7.51753 169.069 -7.28128C168.166 -7.13589 167.329 -6.55436 166.441 -6.3799C165.905 -6.27086 165.245 -6.507 164.676 -6.26348C164.224 -6.76506 163.714 -6.99041 163.101 -6.72508C162.415 -7.55014 161.493 -7.2449 160.671 -7.43391C160.26 -8.02271 159.669 -7.74654 159.232 -8.21177C158.891 -7.73563 158.223 -7.8483 157.845 -8.21177C157.933 -9.28398 156.792 -9.26938 156.377 -10.2362C155.903 -11.3666 157.309 -13.5619 158.539 -14.2634C159.491 -14.7599 160.525 -15.0825 161.593 -15.2157C162.29 -15.2738 162.881 -15.0376 163.545 -15.2157C166.056 -15.9172 167.645 -18.1052 165.714 -19.5772C165.281 -19.908 164.808 -19.7589 164.382 -20.195C163.81 -19.8933 163.039 -20.1369 162.374 -19.9224C161.842 -19.748 161.372 -19.2463 160.87 -19.061C159.401 -18.5194 157.665 -18.5339 156.652 -19.8642C156.432 -20.1513 156.314 -20.9183 155.889 -21.5362C154.817 -23.0882 154.879 -23.9278 155.481 -25.2689C155.757 -25.8759 156.443 -26.552 156.513 -27.1917C156.56 -27.6714 156.094 -28.0531 156.252 -28.6237C155.316 -29.3506 154.332 -29.874 153.378 -30.5246C153.096 -30.59 153.173 -30.3356 152.894 -30.2121C152.934 -30.6519 152.578 -30.5755 152.413 -30.5755C152.104 -30.5755 151.638 -30.8882 151.51 -30.8991C150.732 -30.9608 149.84 -30.2738 149.153 -30.63C148.911 -30.9317 149.223 -31.1207 149.238 -31.3569C148.581 -31.157 148.676 -31.8403 148.658 -32.2365C148.137 -32.7599 147.557 -32.9126 146.977 -33.2034C147.245 -33.8394 146.926 -34.6573 147.204 -35.2897C147.627 -36.2347 149.198 -37.205 150.376 -37.8011C150.937 -38.0846 151.708 -38.1429 152.251 -38.4482C152.916 -38.8116 153.371 -39.6149 153.815 -39.902C154.485 -40.2909 155.183 -40.6309 155.903 -40.9197C157.291 -41.5412 158.399 -42.8206 159.475 -43.3476C159.677 -43.4458 160.014 -43.4093 160.279 -43.5256C161.255 -43.9436 162.018 -44.6452 162.778 -45.1431C165.009 -46.6599 167.36 -47.9968 169.807 -49.1412C170.249 -49.3285 170.719 -49.4404 171.198 -49.472C171.565 -49.3957 171.767 -48.9341 172.105 -48.8069C172.641 -48.596 173.756 -48.4943 174.586 -48.3598C176.333 -48.0799 177.28 -47.8727 178.789 -48.7996C181.226 -50.297 181.853 -51.6672 182.43 -53.5572C182.903 -55.1092 183.105 -56.0796 182.991 -57.5734C182.859 -59.3181 182.514 -60.1614 181.391 -62.2404C181.119 -62.742 180.881 -63.3307 180.62 -63.8432L176.028 -66.6383C174.56 -66.6965 173.07 -66.0385 171.462 -65.0462C170.442 -64.3685 169.569 -63.4961 168.893 -62.4802C168.647 -62.0985 168.592 -61.5933 168.35 -61.2153C167.561 -59.9832 166.863 -58.5984 166.75 -57.2172C166.636 -55.887 167.186 -54.5204 167.711 -53.1647C167.344 -52.6922 167.403 -51.7109 166.816 -51.2166C166.742 -51.1511 166.449 -51.1657 166.305 -51.1111C165.252 -50.6314 164.323 -49.6573 163.512 -49.0722C162.429 -48.2726 160.943 -47.6801 160.157 -47.0114C159.419 -46.3914 158.586 -45.8897 157.691 -45.5247C156.917 -45.1997 156.193 -44.7691 155.54 -44.2453C155.034 -43.8818 154.307 -43.6274 153.877 -43.2822C153.448 -42.9369 153.099 -42.3044 152.692 -41.9445C152.187 -41.449 151.628 -41.0103 151.025 -40.6362C150.816 -40.5345 150.343 -40.5489 149.924 -40.3817C149.087 -40.0437 148.324 -39.4186 147.509 -39.1605C146.694 -38.9025 145.791 -39.2841 144.782 -39.1023C143.773 -38.9206 142.998 -38.5136 142.213 -38.4627C141.385 -38.3764 140.548 -38.5015 139.783 -38.8262C138.777 -39.306 137.702 -40.4326 137.606 -41.4139C137.471 -42.8678 140.135 -43.1512 140.939 -44.0272C141.038 -44.1855 141.121 -44.3537 141.185 -44.5289C141.49 -45.1831 141.64 -45.4993 141.409 -46.2734C140.778 -45.91 140.289 -46.2336 139.779 -46.4735C138.887 -46.3208 137.349 -45.6119 136.476 -46.0481C135.239 -46.6732 135.25 -49.1629 135.246 -50.1588C135.246 -50.6313 135.132 -51.1003 135.147 -51.3511C135.228 -52.8486 136.296 -54.2151 136.942 -55.5927C137.225 -56.2069 137.437 -57.0465 137.757 -57.8352C138.377 -59.3508 139.082 -60.8302 139.658 -62.2622C140.009 -63.0056 140.308 -63.7719 140.554 -64.5557C140.737 -65.4462 140.238 -67.1871 140.311 -68.3902C140.333 -68.7536 140.554 -68.9826 140.557 -69.2371C140.557 -69.6514 140.33 -69.9894 140.348 -70.2439C140.392 -70.8181 140.833 -71.2507 141.027 -71.825C141.802 -74.0821 142.238 -76.5499 142.756 -78.7634C142.958 -79.6066 143.464 -80.4607 142.987 -81.1949C141.886 -80.6243 141.592 -79.3776 141.097 -78.4871C140.561 -77.5203 139.996 -76.5499 139.5 -75.5141C139.005 -74.4782 138.902 -73.3332 138.359 -72.3772C137.929 -71.6321 136.949 -71.1124 136.391 -70.3019C136.182 -69.9966 136.193 -69.6114 135.984 -69.3533C135.841 -69.1752 135.529 -69.0371 135.393 -68.859C134.637 -67.8159 134.751 -66.6347 134.571 -65.5879C134.354 -64.323 133.837 -63.1126 133.587 -61.8659C133.371 -60.8592 133.47 -59.7724 133.22 -58.7765C133.128 -58.4131 132.905 -57.9588 132.758 -57.5626C132.449 -56.7449 132.096 -55.9441 131.701 -55.1637C131.499 -54.7639 131.143 -54.4369 130.966 -54.008C130.849 -53.7209 130.911 -53.4047 130.776 -53.0848C130.218 -51.9096 129.519 -50.8051 128.694 -49.7954C128.145 -49.1054 127.501 -48.4938 126.782 -47.9781C124.763 -46.5824 121.923 -47.313 119.996 -48.8287C119.368 -49.3266 118.685 -50.2825 117.981 -51.1766C116.821 -52.6305 115.753 -53.7209 114.96 -55.3783C114.593 -56.167 115.231 -57.2718 115.272 -58.2059C115.272 -58.5912 115.195 -59.1037 115.198 -59.529C115.246 -59.9598 115.267 -60.3931 115.261 -60.8265C115.095 -61.9169 114.38 -62.6111 113.998 -63.7706C113.877 -64.134 113.958 -64.6356 113.818 -65.2535C113.279 -65.2717 113.517 -65.8967 113.132 -66.2893L113.077 -66.1984H112.97L112.809 -66.0931C112.739 -66.1913 112.633 -66.1367 112.57 -66.2784C112.662 -66.3766 112.647 -66.4928 112.838 -66.5691L112.86 -66.6783L112.945 -66.7509C112.078 -68.2047 110.797 -69.0517 109.48 -67.8123C109.142 -67.4997 109.175 -66.8636 108.907 -66.4165C107.692 -64.3956 104.87 -63.9741 104.095 -66.3766C103.658 -66.1476 104.036 -65.7478 103.633 -65.5116C102.752 -65.875 102.238 -67.158 101.886 -68.1429C101.853 -68.4155 102.41 -68.3938 102.315 -68.5355C101.728 -69.346 100.975 -70.7853 101.027 -71.694C100.608 -72.519 99.9549 -73.2751 99.731 -74.1656C99.5475 -74.8926 99.7311 -75.9537 99.8045 -76.8369C99.8779 -77.7202 100.135 -78.7016 100.087 -79.5303C99.9991 -80.1328 99.9414 -80.7393 99.9146 -81.3476C99.9586 -82.6306 99.8559 -83.8518 99.8559 -85.0803C99.8559 -85.7164 99.9917 -86.476 99.8963 -86.9303C99.8265 -87.2647 99.5292 -87.6283 99.4191 -87.9918C99.2649 -88.6024 99.2869 -89.3947 98.74 -90.0598C98.061 -90.1216 97.705 -90.7395 97.1398 -90.7358C96.079 -90.7358 94.7613 -89.5618 94.398 -88.6168C94.3078 -88.2174 94.2696 -87.8082 94.2842 -87.3992C94.2215 -86.9971 94.1823 -86.5918 94.1667 -86.1853C94.1997 -85.8872 94.4457 -85.6402 94.4824 -85.3639C94.5191 -85.0877 94.3318 -84.637 94.3428 -84.3571C94.4247 -83.5333 94.5807 -82.7182 94.809 -81.9219C94.6255 -81.2204 94.3796 -80.3444 94.5264 -79.5702C94.5667 -79.3594 94.8347 -79.2285 94.8934 -79.0104C94.9521 -78.7924 94.7906 -78.5708 94.8934 -78.3236C94.9962 -78.0765 95.2605 -77.8984 95.3706 -77.5967C95.7156 -76.6917 95.5542 -75.6776 95.7817 -74.8926C95.8661 -74.6018 96.1671 -74.3472 96.2295 -74.0419C96.3873 -73.2823 96.0973 -72.2938 96.079 -71.3197C96.079 -70.6982 96.3029 -69.9712 96.1744 -69.4442C95.9725 -68.6227 95.3596 -67.8522 95.1137 -67.0453C95.0403 -66.8054 95.1357 -66.4566 95.0806 -66.2239C94.8897 -65.3698 94.3906 -64.6066 94.1593 -63.7997C93.8914 -62.8801 93.9317 -61.7315 93.9501 -60.8119C93.9721 -59.8015 94.0529 -58.8165 94.0125 -57.7697C94.6365 -56.3558 94.9154 -55.0148 94.442 -53.8263C94.6622 -52.4706 94.1447 -49.3739 92.0782 -48.1853C91.5203 -47.8655 89.8245 -47.4256 89.1088 -47.6292C88.8253 -47.7713 88.5572 -47.9418 88.3087 -48.138C87.9893 -48.5487 88.3344 -48.9958 87.8609 -49.3338C88.0342 -50.0491 88.3191 -50.7334 88.7051 -51.3619C89.0722 -52.0052 89.7071 -52.6703 89.9457 -53.31C90.3311 -54.3386 90.1035 -55.4255 90.2614 -56.4795C90.1219 -56.9447 89.7952 -57.45 89.7879 -57.8861C88.7308 -58.4968 86.947 -58.7766 85.9376 -57.788C85.6366 -57.49 85.6366 -56.7448 85.3907 -56.1778C85.0909 -55.4926 84.9144 -54.7608 84.8694 -54.0153C84.8107 -53.4301 84.9613 -52.9248 84.9392 -52.3469C84.9392 -51.9834 84.6639 -51.5329 84.6088 -51.1076C84.5465 -50.5769 84.6749 -50.1334 84.5502 -49.8099C84.3476 -49.4958 84.1218 -49.197 83.8748 -48.9158C83.2948 -48.0581 83.3353 -48.0071 82.3699 -47.7127C81.177 -47.3493 80.2777 -47.0113 79.2941 -47.3166C78.6114 -46.6878 77.4993 -46.5897 76.879 -46.4371C76.3247 -46.299 75.8402 -45.9391 75.2713 -45.7355C74.2196 -45.426 73.1308 -45.2574 72.0339 -45.234C71.4687 -43.9655 70.107 -44.5071 69.2445 -44.2272C68.7636 -44.0709 68.3232 -43.5002 67.7763 -43.2894C67.4092 -43.1331 66.9981 -43.1768 66.6751 -43.0314C66.2274 -42.8279 65.8713 -42.3263 65.3868 -42.1955C65.8053 -40.32 63.357 -38.6625 61.7604 -39.8474C61.353 -40.5997 61.1584 -41.3776 60.4647 -41.9737C60.0977 -42.279 59.5619 -42.3372 59.2132 -42.6461C59.0297 -42.8097 58.9488 -43.1078 58.791 -43.2859C57.9504 -44.2018 56.842 -44.1545 55.9354 -44.6306C55.8895 -44.3689 55.786 -44.1203 55.6326 -43.9024C55.4791 -43.6845 55.2794 -43.5026 55.0472 -43.3695C54.805 -43.5803 55.1464 -43.671 55.0766 -43.8455C54.3129 -43.3513 53.6243 -42.7516 53.0321 -42.0645C52.5953 -41.6393 51.9016 -41.3377 51.5639 -40.9924C51.0721 -40.4908 51.0428 -39.6803 50.3527 -39.8656C49.8425 -40.5381 49.2516 -40.9814 48.8846 -41.5412C48.6864 -41.8501 48.7046 -42.3554 48.4917 -42.6571C48.165 -43.1223 47.3907 -43.3839 47.5375 -44.0927C47.3577 -44.3471 47.0602 -44.0272 46.9244 -44.4961C47.0162 -44.8959 47.2915 -44.3725 47.5667 -44.5724C47.5044 -45.4919 47.453 -46.1754 46.807 -46.9278C46.5905 -47.1858 46.2454 -47.193 46.0068 -47.4401C45.8166 -47.637 45.6615 -47.8644 45.548 -48.1126L31.1306 -24.9019C31.7142 -24.5385 32.2905 -23.7861 32.9658 -23.3499C34.0082 -22.6739 35.2341 -21.9687 36.1884 -21.4453C36.9704 -21.6118 37.7869 -21.4918 38.4862 -21.1074C39.3341 -21.1292 40.1599 -21.4709 41.0005 -21.4709C41.1877 -21.4709 41.3674 -21.4236 41.617 -21.4127C42.1786 -21.3799 42.6264 -21.5326 43.166 -21.5035C43.4266 -21.4825 43.6792 -21.404 43.9053 -21.2739C44.1314 -21.1437 44.3253 -20.9651 44.4727 -20.7512C45.6949 -21.6853 47.042 -21.9906 48.0367 -21.8052C49.0314 -21.6199 48.7084 -21.6744 49.2039 -20.7367C49.6994 -19.7989 49.6626 -19.519 49.9672 -18.7193C50.2021 -18.1087 50.7014 -17.5019 50.918 -16.9421C51.0758 -16.5169 50.918 -15.9353 51.0721 -15.67C51.2923 -15.2884 51.8062 -15.143 52.0815 -14.845C52.0815 -14.307 52.5403 -13.6308 52.577 -12.8821C52.577 -12.5913 52.3861 -12.2897 52.3824 -11.9589C52.3824 -10.9776 52.5733 -9.55294 51.5639 -9.02956C50.9803 -8.72425 50.6499 -9.26213 49.9819 -8.80417C49.7544 -8.5352 50.037 -8.16074 49.8425 -7.80092C49.7617 -7.6519 49.5414 -7.65192 49.4937 -7.45928C49.413 -7.14307 49.5893 -6.85953 49.4351 -6.50697C49.013 -5.5547 47.7724 -4.82783 47.064 -3.83194C46.4364 -2.94145 46.2271 -2.03281 45.5774 -1.38584C45.526 -1.17867 45.1296 -1.18964 44.8433 -0.913414C45.0819 0.140625 44.047 0.831207 43.5992 1.72169C43.3569 2.19782 43.5146 2.71764 43.1072 3.06657C43.6578 4.71668 42.9935 6.11958 41.584 7.36263C41.487 8.10546 41.3124 8.83631 41.0628 9.5434C40.8169 10.2267 40.1893 10.9973 40.1379 11.6225C40.1159 11.8805 40.3874 12.3785 40.4535 12.7892C40.5196 13.1999 40.4278 13.665 40.5526 13.9813C40.8095 14.6464 41.4041 15.2607 41.7161 16.0822C41.6617 16.2734 41.6496 16.474 41.6806 16.6703C41.7116 16.8666 41.7852 17.0541 41.896 17.2198C41.7566 17.3761 41.7969 17.5832 41.529 17.6922C42.1713 18.0157 41.7382 18.6009 41.8666 19.0697C41.9951 19.5386 42.3255 19.6367 42.3401 20.131C42.509 20.4363 42.8025 20.131 42.9787 20.4036C42.9016 20.6144 43.0779 20.8834 42.843 21.0615C43.3863 21.1996 43.4303 21.8538 43.8524 22.2355C44.1791 22.5335 44.6783 22.5699 44.9535 22.8788C46.018 24.0092 46.2748 25.4412 46.4032 26.6189C46.0582 26.7533 46.0803 26.9824 45.8124 27.1168C45.9372 27.3931 46.1793 27.1386 46.2894 27.4803C45.5554 28.04 45.9005 28.9778 46.7043 29.4939C47.1154 28.8615 47.8825 29.403 48.389 29.4284C48.7047 29.174 48.6166 28.8324 49.1231 28.6143C49.7544 29.5993 50.8959 28.1346 51.4721 29.3777C52.5733 29.0396 53.4065 28.5053 54.4967 28.5561C54.7389 28.8724 54.5994 28.9197 54.8637 29.1123C55.7483 29.1123 56.7466 29.0687 57.5101 29.454C58.3947 29.901 58.2625 30.4971 57.9836 31.2022C57.723 31.8492 57.0549 32.4815 57.2201 33.183C57.5431 34.5823 58.9819 34.6368 59.7453 35.4255C60.1124 35.789 59.9032 36.0943 60.5419 36.6213C60.7254 36.8903 60.2078 37.0103 60.4023 37.2792C60.7694 38.2388 60.3767 39.0203 60.1711 40.0561C60.0574 40.6159 59.7784 41.3391 59.8041 41.7716C59.8335 42.135 60.2004 42.4986 60.1968 42.8875C60.1968 44.5885 57.0512 45.8751 57.9725 47.8669C59.169 50.4547 61.9366 48.2485 63.9039 48.4703C64.271 48.9028 64.7628 48.7719 65.1042 49.0627C65.4455 49.3534 65.4051 49.7206 65.629 50.204C65.8639 50.5311 66.2053 50.3421 66.4035 50.8473C66.4035 52.323 67.2954 53.784 67.3101 55.1652C67.3101 55.4523 67.1082 55.7649 67.1193 56.0884C67.1193 56.7172 67.4679 57.4442 67.4496 58.1529C67.4496 58.3856 67.2 58.5746 67.1816 58.789C67.1933 59.3296 67.2424 59.8688 67.3285 60.4028C67.4716 61.0715 68.136 62.2563 68.2241 62.7906C68.4076 63.9028 67.2917 65.2768 66.3301 66.1855C65.4602 67.0069 64.3077 67.5448 63.5369 68.2245C62.7661 68.9041 62.3587 69.9729 61.7311 70.5362C61.6026 70.6489 61.3236 70.6706 61.1951 70.7687C60.2812 71.4702 60.116 72.4115 59.4406 73.1639C58.8548 73.762 58.1631 74.2487 57.3999 74.5996C56.8504 74.9417 56.3791 75.3933 56.0161 75.926L58.4019 77.3799C58.6662 76.9474 58.857 76.5877 59.0736 76.297ZM90.61 83.0175C90.6357 83.0938 90.5807 83.152 90.6358 83.2283C90.5844 83.2683 90.5256 83.301 90.4742 83.3337L90.3164 83.0973C90.4302 82.9883 90.5036 83.0793 90.599 83.0175H90.61ZM156.45 27.5603C156.615 28.847 155.268 30.5117 153.914 31.0278C154.226 29.7629 155.199 28.6326 156.45 27.5603ZM169.921 -58.8892C169.693 -59.4744 170.222 -60.234 170.868 -60.4121C171.106 -59.8269 170.615 -59.0564 169.921 -58.8892ZM176.594 -60.8157C176.884 -60.3432 176.267 -59.8489 175.808 -59.7253C175.203 -60.2886 176.12 -61.0955 176.594 -60.8157ZM83.5151 51.327C83.9262 51.4833 83.2141 51.9959 82.9718 52.2467C82.8544 51.8796 83.482 51.6578 83.5151 51.327ZM135.977 -39.7384L136.399 -39.0988C136.287 -38.8104 136.088 -38.563 135.83 -38.39C135.628 -38.5044 135.452 -38.6575 135.31 -38.8404C135.169 -39.0233 135.066 -39.2322 135.008 -39.455C135.142 -39.5634 135.297 -39.6441 135.463 -39.6928C135.63 -39.7415 135.804 -39.757 135.977 -39.7384ZM44.0542 -45.0922C43.9551 -45.4338 44.4727 -45.6483 44.5168 -45.9609C44.6195 -46.0082 44.6819 -45.8591 44.7553 -45.7719C44.4947 -45.5538 44.4066 -45.2957 44.0542 -45.0922ZM52.7091 -39.1714C52.9073 -40.2618 53.7479 -41.2069 54.5187 -42.1737C54.7903 -41.3014 53.8947 -39.7493 52.7091 -39.1714ZM76.1192 4.08064C76.0641 3.7935 76.3577 3.57906 76.5523 3.35371C76.7505 3.68083 76.2513 3.83349 76.1192 4.08064ZM77.7745 4.14967L78.0168 3.99332L78.1782 4.22954C78.1511 4.26141 78.1159 4.28551 78.0762 4.29929C78.0365 4.31305 77.9938 4.31597 77.9525 4.3078C77.9112 4.29963 77.873 4.2808 77.8417 4.25297C77.8103 4.22513 77.7872 4.18941 77.7745 4.14967ZM80.9494 5.28727C80.9201 5.20731 80.8687 5.23272 80.8173 5.25816C80.7806 5.20728 80.7439 5.15278 80.7109 5.09827C80.788 5.06918 80.7659 5.01835 80.7402 4.96747L80.8981 4.86205C80.9275 4.94201 80.9788 4.9166 81.0338 4.89115L81.1403 5.05106C81.0596 5.08013 81.0815 5.13097 81.1109 5.18185L80.9494 5.28727ZM115.452 -48.7959C115.921 -49.7736 116.666 -49.0866 117.133 -48.1743C117.059 -47.9127 116.707 -47.7127 116.7 -47.4474C116.134 -47.4656 115.496 -48.2034 115.444 -48.7959H115.452ZM129.087 -48.3925C129.007 -49.5228 130.188 -50.7186 130.688 -51.5436C130.689 -51.561 130.695 -51.5779 130.703 -51.593C130.712 -51.6081 130.724 -51.621 130.739 -51.631C130.721 -51.6019 130.702 -51.5727 130.688 -51.5436C130.654 -51.4019 130.728 -51.1438 130.688 -51.0238C130.647 -50.9039 130.497 -51.1256 130.5 -51.1293C130.082 -50.5259 130.24 -49.0212 129.08 -48.3925H129.087ZM134.354 -44.2744C134.097 -44.5034 134.222 -44.8196 134.013 -45.3103C133.646 -46.1972 132.78 -46.8405 133.547 -47.4002C133.976 -46.9313 134.329 -46.6733 134.523 -46.099C134.615 -45.8264 134.479 -45.4412 134.626 -45.2485C135.107 -44.6379 135.844 -45.1759 136.494 -44.5216C135.955 -44.1691 134.916 -43.7656 134.347 -44.2744H134.354Z" fill="#E9AD62"/>
<path d="M112.2 79.0075C111.99 81.141 103.923 79.8544 99.9109 84.1251C98.4097 85.7243 95.9798 89.9004 95.6017 90.929C95.4798 91.2854 95.2553 91.5989 94.9558 91.8306C94.6508 92.0421 94.2894 92.1596 93.9171 92.1685C93.7455 92.166 93.575 92.1404 93.4105 92.0921C92.5663 91.8268 92.258 90.0713 92.236 89.9114C91.8212 87.4326 92.4893 85.3391 92.3645 83.867C91.9974 79.6 84.9648 80.3195 79.1068 73.4391C77.9763 72.1089 76.4054 69.9317 74.2729 69.9426C73.4911 69.9426 72.5441 70.2445 70.4997 70.2518C69.5931 70.2518 68.9728 70.1535 68.6645 70.179C66.7118 70.3498 65.5115 71.3238 61.5878 71.6073C55.8766 72.018 54.1736 70.2554 51.9897 71.8547C51.9897 71.8547 49.4204 73.7554 47.4237 74.526C46.2161 74.9948 46.2639 74.6751 45.5188 75.0676C44.1827 75.7728 42.5089 79.5672 42.5089 79.5672C40.9563 83.0638 39.8479 83.3073 40.2149 84.1868C40.8462 85.6952 43.9771 84.6847 46.4546 87.1744C46.8511 87.5742 47.7906 88.5228 47.5043 89.4024C47.3676 89.7283 47.14 90.0093 46.8482 90.212C46.5564 90.4147 46.2125 90.531 45.8564 90.5474C45.6511 90.5513 45.4468 90.5167 45.2544 90.4456C44.8323 90.3002 42.6008 89.5553 42.1163 90.0569C41.7015 90.4931 42.8503 91.5506 43.1183 93.9712C43.3165 95.6904 42.8649 96.1956 42.619 96.3774C42.4498 96.4991 42.2556 96.5823 42.0501 96.6209C42.0179 96.657 41.9775 96.6852 41.9322 96.7029C41.8869 96.7206 41.838 96.7274 41.7895 96.7227C41.3115 96.6989 40.8537 96.5244 40.4828 96.2248C39.1431 95.098 36.2691 90.5366 33.5714 88.9555C30.3671 87.0946 27.3316 89.4281 25.7276 87.3455C24.9935 86.3969 24.7843 84.801 25.4523 83.8741C26.6783 82.1477 29.5891 84.0961 33.3293 82.635C34.7974 82.0608 36.1958 80.2034 38.9926 76.4888C39.8148 75.3984 40.8646 73.8827 40.3728 73.163C40.3129 73.0811 40.2382 73.0108 40.1525 72.9557C39.1065 72.1815 38.7027 70.6224 38.622 70.3753C38.0421 68.5907 32.1767 66.4936 30.4553 65.8066C29.3798 65.3814 20.4826 61.4887 16.5515 54.2594C16.0377 53.3144 14.7384 50.7157 13.5896 50.9047C12.7307 51.0428 12.7527 52.6057 11.3873 53.1981C10.8407 53.406 10.2477 53.4637 9.67072 53.3651C9.09374 53.2666 8.55421 53.0155 8.10953 52.6384C6.55693 51.2427 7.50392 48.7529 6.56429 48.3785C5.62466 48.0042 4.57136 50.6684 2.00205 51.4062C-0.864557 52.2276 -3.75693 50.0795 -4.21941 49.727C-7.29156 47.3608 -7.99629 43.3263 -8.25689 41.9379C-8.75974 39.0302 -8.13575 37.6091 -9.43508 35.9553C-10.3857 34.7523 -11.2152 34.8651 -12.8485 33.8292C-13.0761 33.6911 -18.1523 30.3799 -18.1009 25.4696C-18.0716 21.8967 -15.3555 19.4069 -14.871 18.9634C-12.3237 16.6264 -10.617 17.5497 -9.47182 15.9432C-6.95757 12.4213 -14.1039 6.4932 -12.0411 1.04127C-10.7895 -2.26987 -6.64921 -3.86201 -4.01384 -4.22184C2.86088 -5.15958 9.97789 0.935753 12.9069 7.20184C16.0782 13.9913 13.2115 18.6001 17.1903 21.853C20.791 24.7934 26.682 23.9175 26.9022 23.0742C27.049 22.5072 24.6083 22.0348 23.6576 19.7086C23.2212 18.5399 23.194 17.2599 23.5806 16.074C24.2559 13.8932 26.1021 12.6757 26.8839 12.1814C33.4614 7.95792 50.2793 7.77255 57.3486 0.550552C65.2877 -7.55829 62.8982 -26.4874 68.4112 -30.9434C68.7379 -31.2088 70.206 -32.321 70.0115 -33.4696C69.7692 -34.9234 67.2037 -34.8253 65.4052 -36.4536C62.3697 -39.1977 62.3477 -46.0526 65.295 -48.4187C67.9047 -50.5086 71.6852 -48.1571 72.7606 -49.7782C74.3499 -52.1661 66.3264 -57.5417 67.7542 -62.4303C68.6241 -65.418 72.9369 -67.8823 76.4972 -66.9046C79.5143 -66.0686 81.5257 -62.9354 81.7055 -60.3839C81.812 -58.8791 81.2945 -57.418 81.6285 -57.3017C81.9625 -57.1854 82.458 -58.7194 83.6693 -59.7043C85.4751 -61.1582 88.4408 -61.0563 90.0558 -60.3839C95.7449 -58.0214 98.1821 -45.3475 93.4949 -39.8555C91.979 -38.0709 89.7365 -37.0861 90.0007 -35.625C90.2393 -34.2874 92.2397 -34.4036 94.7135 -32.8734C99.8521 -29.7004 99.052 -24.3794 103.978 -22.4422C104.147 -22.3767 104.345 -22.3149 104.345 -22.3149C105.192 -22.0301 106.061 -21.8125 106.943 -21.6643C108.063 -21.4717 113.066 -20.6067 113.44 -18.7385C113.624 -17.8371 112.644 -16.921 110.691 -15.0419C108.661 -13.1047 108.151 -13.2575 107.542 -12.3488C106.217 -10.3607 107.38 -7.72555 108.76 -3.51302C109.773 -0.423592 110.372 2.78946 111.363 5.88979C113.818 13.5843 114.435 33.5891 104.084 46.1177C100.304 50.6864 94.5961 57.5887 90.0631 60.5291C88.6131 61.3627 87.4104 62.5599 86.5762 64.0001C86.2899 64.5308 84.6786 67.1042 85.1338 69.9319C85.9596 75.064 93.1646 78.7714 96.7543 77.154C99.9072 75.7328 100.465 71.484 102.88 71.7021C104.143 71.8147 105.6 73.1558 105.527 73.9918C105.514 74.3444 105.45 74.6932 105.336 75.0275C105.244 75.2727 105.188 75.53 105.171 75.791C105.18 75.8345 105.194 75.8769 105.211 75.9181C105.402 76.3724 107.751 76.0198 109.248 76.4196C110.665 76.8085 112.291 78.0589 112.2 79.0075Z" fill="#60C9EB"/>
</g>
<path d="M65.5938 126.966C100.163 126.966 128.188 99.2154 128.188 64.9831C128.188 30.7508 100.163 3 65.5938 3C31.0242 3 3 30.7508 3 64.9831C3 99.2154 31.0242 126.966 65.5938 126.966Z" stroke="#626262" stroke-width="5.56471"/>
</svg>
