<svg width="315" height="88" viewBox="0 0 315 88" fill="none" xmlns="http://www.w3.org/2000/svg">
<path d="M13.2487 5.68838C13.8978 5.4593 35.9662 5.4593 63.3926 5.68838C90.819 5.91746 161.033 5.5102 161.033 5.5102C161.033 5.5102 250.248 4.07206 253.036 4.53023C255.823 4.9884 303.816 4.44115 303.816 4.44115H306.819L295.365 18.3516L305.712 30.3276L295.365 40.7L308.092 53.5923L297.516 60.083C297.516 60.083 303.727 66.5992 305.445 68.2155C307.249 69.7495 309.145 71.1732 311.121 72.479C311.121 72.479 280.233 78.7024 257.515 79.6188C234.798 80.5351 161.733 83.5386 154.237 84.2259C146.741 84.9131 89.088 85.6131 83.5264 85.8422C77.9648 86.0713 52.2311 83.7677 46.0204 83.7677C39.8097 83.7677 14.305 82.8514 11.5179 81.9223C8.72048 80.6934 6.04817 79.1974 3.53809 77.4552L14.9032 68.2155L8.53973 65.3392L3.55083 61.1139L17.0413 54.0123C17.0413 54.0123 11.3269 50.1942 10.6778 48.9852C10.308 47.747 10.234 46.4392 10.4615 45.1671C10.4615 45.1671 17.1049 38.6382 17.754 36.7929C18.403 34.9475 19.8921 31.4985 17.1049 30.1112C14.7529 28.784 12.529 27.2417 10.4615 25.5041L21.3939 19.5225L25.212 17.448L13.2487 5.68838Z" fill="#FFE600"/>
<g opacity="0.6">
<path d="M35.7625 5.52246C34.4389 31.4768 33.4546 57.4438 32.8098 83.4236L36.6279 83.5509C37.2642 57.5372 38.2484 31.5319 39.5805 5.5352L35.7625 5.52246Z" fill="#FFE600"/>
<path d="M22.0788 5.52212L21.7733 14.0237L25.2478 17.4345L21.5952 19.4071L19.2661 82.7488L23.0842 82.9778C24.026 57.1593 24.9762 31.3365 25.935 5.5094L22.0788 5.52212Z" fill="#FFE600"/>
<path d="M52.9342 5.61139H49.1162C47.6822 31.688 47.7502 57.8255 49.3198 83.8943L53.1379 84.1107C51.5546 57.9701 51.4865 31.7598 52.9342 5.61139V5.61139Z" fill="#FFE600"/>
<path d="M64.2257 5.68811C63.8015 32.0582 63.0294 58.3943 61.9094 84.6965L65.7275 84.9638C66.822 58.5683 67.6026 32.16 68.0693 5.73903L64.2257 5.68811Z" fill="#FFE600"/>
<path d="M82.8996 5.7887H79.0815C79.5482 32.4642 79.6713 59.1397 79.4507 85.8153C81.0797 85.8789 82.4033 85.9043 83.2687 85.8916C83.4978 59.1652 83.3747 32.4642 82.8996 5.7887Z" fill="#FFE600"/>
<path d="M100.061 5.7887H96.2427C97.0063 32.3878 97.1759 58.9955 96.7517 85.6116L100.57 85.548C100.994 58.9403 100.824 32.3539 100.061 5.7887Z" fill="#FFE600"/>
<path d="M114.613 5.71362H110.795C112.492 32.2025 113.201 58.7295 112.921 85.2947L116.739 85.2184C116.951 58.7041 116.242 32.2025 114.613 5.71362Z" fill="#FFE600"/>
<path d="M130.655 5.64913C131.155 32.0956 132.347 58.5123 134.231 84.8994L138.049 84.8103C136.149 58.4656 134.956 32.0744 134.473 5.63641L130.655 5.64913Z" fill="#FFE600"/>
<path d="M147.591 5.58563C149.143 31.8369 149.941 58.1391 149.983 84.4922C151.65 84.4922 152.961 84.3522 153.801 84.2886C153.801 58.0373 153.004 31.803 151.409 5.58563H147.591Z" fill="#FFE600"/>
<path d="M163.754 5.47148C166.045 31.4088 167.615 57.3971 168.463 83.4363L172.281 83.2581C171.433 57.2529 169.863 31.3028 167.572 5.40784L163.754 5.47148Z" fill="#FFE600"/>
<path d="M179.529 5.22862L187.318 82.5698L191.136 82.4044C188.54 56.6621 185.948 30.9157 183.36 5.16498L179.529 5.22862Z" fill="#FFE600"/>
<path d="M198.076 4.96232C198.518 30.6536 198.967 56.3492 199.425 82.049L203.244 81.8835C202.794 56.2261 202.344 30.5645 201.894 4.89868L198.076 4.96232Z" fill="#FFE600"/>
<path d="M220.363 4.6701H216.545C217.521 30.2087 217.322 55.7557 215.947 81.3113L219.765 81.1459C221.148 55.6921 221.348 30.2002 220.363 4.6701Z" fill="#FFE600"/>
<path d="M236.323 4.51642H232.505C235.593 29.7119 236.954 55.0891 236.578 80.4704L240.396 80.3049C240.752 54.9791 239.391 29.6583 236.323 4.51642V4.51642Z" fill="#FFE600"/>
<path d="M253.321 4.51659H253.029C252.736 4.51659 251.463 4.44022 249.452 4.42749C250.191 29.5758 250.521 54.7326 250.445 79.8978L254.263 79.7451C254.365 54.6817 254.051 29.6055 253.321 4.51659Z" fill="#FFE600"/>
<path d="M270.429 78.8671C270.098 54.1515 269.762 29.4316 269.423 4.70758H265.605C265.936 29.5165 266.275 54.3212 266.623 79.1216L270.429 78.8671Z" fill="#FFE600"/>
<path d="M284.664 77.659C284.503 53.3167 284.024 28.9745 283.226 4.6322H279.408C280.197 29.0763 280.677 53.5288 280.846 77.9899L284.664 77.659Z" fill="#FFE600"/>
<path d="M297.683 76.3345L297.606 60.2096L297.53 60.0823H297.606C297.606 54.3552 297.576 48.6239 297.517 42.8883L295.404 40.7502L297.492 38.6503L297.415 20.7309L295.404 18.4018L297.39 15.9837C297.39 12.1741 297.39 8.35609 297.39 4.52954H293.572L293.915 76.7291L297.683 76.3345Z" fill="#FFE600"/>
</g>
<mask id="path-20-outside-1_129_23942" maskUnits="userSpaceOnUse" x="0" y="-0.135254" width="315" height="88" fill="black">
<rect fill="white" y="-0.135254" width="315" height="88"/>
<path d="M311.08 69.8192C306.74 67.0402 302.938 63.5005 299.855 59.3704L299.295 61.4831C301.955 59.7268 304.628 57.9832 307.275 56.2014C308.548 55.3487 309.897 54.5469 310.024 52.867C310.164 50.9961 308.535 49.8889 307.326 48.7562L296.661 38.8802V41.0565L304.017 34.553C305.404 33.2803 307.339 32.0967 307.033 29.9713C306.728 27.846 304.284 26.6369 302.821 25.4406L295.184 19.1535V21.3425C299.092 16.9263 303.19 12.6246 306.919 8.0684C308.395 6.24846 309.019 3.47401 306.359 2.29041C304.59 1.50134 301.942 2.04861 300.072 2.06133L290.832 2.13769L273.014 2.27769C248.859 2.46435 224.707 2.67221 200.56 2.90129C152.885 3.33401 105.206 3.84308 57.5229 4.42851C51.2995 4.5176 44.9487 4.97579 38.738 4.60671C32.5273 4.23763 26.1894 3.85582 19.915 3.5122C17.4715 3.38493 10.4208 2.02314 11.4898 6.89753C11.9098 8.80656 14.4043 10.1429 15.7533 11.3519C18.146 13.5155 20.4114 15.7936 22.5877 18.1735C22.6895 17.359 22.8041 16.5445 22.9059 15.7427C19.6223 17.359 16.3515 19.0262 13.1443 20.8335C11.5407 21.7116 9.12263 22.5134 8.30811 24.257C6.37363 28.4187 13.6152 30.5441 15.2824 33.2803C17.3314 36.6402 7.39176 41.6928 6.93359 45.7654C6.41179 50.2962 12.648 52.5997 15.8424 54.1269V51.4543L6.05543 56.9141C4.45185 57.8177 2.23739 58.6068 2.02104 60.7322C1.80468 62.8576 3.29373 63.6085 4.80822 64.4739C7.97721 66.2556 11.1717 67.8847 14.4425 69.5646C14.3279 68.7501 14.2261 67.9483 14.1243 67.1338C11.9237 69.0578 9.62551 70.8674 7.23902 72.5555C5.78816 73.5609 3.42097 74.5154 2.6319 76.2462C1.14286 79.7207 5.36818 80.9043 7.72265 81.6297C12.1516 82.966 17.0515 82.4824 21.6332 82.6733C26.9912 82.9024 32.2474 83.7296 37.5799 84.2514C60.9337 86.5677 84.822 85.5241 108.265 85.2314C156.474 84.6205 204.645 82.5842 252.791 80.2934C265.645 79.6952 278.525 79.3261 291.341 78.3843C297.251 78.0423 303.127 77.251 308.917 76.0171C311.895 75.3299 314.084 72.67 311.322 70.0864C309.871 68.7247 307.682 70.901 309.133 72.2755C309.579 72.6827 305.595 73.5481 305.481 73.5481C304.208 73.8027 302.859 74.019 301.535 74.2099C298.99 74.579 296.521 74.8463 294.001 75.0626C288.681 75.5335 283.348 75.7372 278.016 75.9917C268.013 76.4499 258.009 76.9462 248.019 77.4171C226.909 78.4098 205.795 79.3177 184.677 80.1407C142.246 81.7061 99.7889 82.686 57.332 82.1897C46.4887 82.0751 35.9127 80.5352 25.1203 79.7716C19.8896 79.4025 14.3152 79.9243 9.16079 78.8298C7.8881 78.5625 6.08089 78.4734 6.61542 76.6789C6.78087 76.0553 9.38987 74.7954 9.87349 74.4517C12.1007 72.8354 14.2261 71.1046 16.3133 69.361C16.4796 69.1928 16.6053 68.9889 16.6808 68.7648C16.7563 68.5407 16.7795 68.3023 16.7488 68.0678C16.7181 67.8333 16.6343 67.6089 16.5037 67.4117C16.3731 67.2146 16.1991 67.0499 15.9951 66.9302L10.5862 64.0666C9.31351 63.4048 5.38093 62.2085 6.39908 60.2486C6.92088 59.2431 10.2172 58.085 11.2862 57.5123L17.4079 54.1015C17.6369 53.9617 17.8262 53.7654 17.9576 53.5314C18.0889 53.2974 18.1579 53.0335 18.1579 52.7652C18.1579 52.4968 18.0889 52.233 17.9576 51.9989C17.8262 51.7649 17.6369 51.5686 17.4079 51.4288C15.5243 50.538 11.8971 49.3925 10.7389 47.6108C9.16078 45.129 12.457 42.8382 14.0097 41.3619C16.046 39.4274 19.5078 36.653 18.846 33.4203C18.1842 30.1877 13.9971 29.335 12.4826 26.7387C11.1081 24.4224 15.3461 23.1497 17.1278 22.2079C19.5587 20.9353 22.015 19.6626 24.4713 18.4663C24.6733 18.3449 24.8452 18.1794 24.9744 17.9823C25.1035 17.7851 25.1865 17.5613 25.2171 17.3277C25.2477 17.094 25.2252 16.8564 25.1511 16.6326C25.077 16.4089 24.9534 16.2047 24.7894 16.0354C23.0458 14.1391 21.2513 12.2937 19.3678 10.5247C18.426 9.64654 15.0916 7.48298 15.8934 6.41392C16.2879 5.87939 21.6331 6.7448 22.6131 6.79571C25.7566 6.96116 28.9002 7.08844 32.0438 7.27934C41.6907 7.83932 51.2613 7.66115 60.9464 7.52115C81.9203 7.24116 102.894 6.99934 123.868 6.79571C166.249 6.33754 208.629 5.93878 251.01 5.5994L285.817 5.31941L295.044 5.24305H298.595C299.55 5.24305 302.872 4.67034 303.571 5.24305C305.379 6.61755 300.657 10.5501 299.524 11.8356L292.945 19.268C292.659 19.5606 292.498 19.9534 292.498 20.3626C292.498 20.7717 292.659 21.1646 292.945 21.4571L297.895 25.4915C299.104 26.4842 302.184 28.1641 302.833 29.5386C304.106 32.2749 296.304 37.3784 294.472 38.9947C294.183 39.2834 294.022 39.6748 294.022 40.0829C294.022 40.4909 294.183 40.8823 294.472 41.171L302.477 48.5908C303.457 49.4944 305.964 51.0343 306.473 52.2943C306.982 53.5542 305.582 53.6942 304.577 54.4069C302.337 55.9596 300.008 57.4232 297.73 58.9377C297.379 59.147 297.125 59.4862 297.022 59.8817C296.92 60.2771 296.978 60.697 297.183 61.0504C300.568 65.6103 304.745 69.5245 309.515 72.6064C311.195 73.5736 312.748 70.901 311.08 69.8192Z"/>
</mask>
<path d="M311.08 69.8192C306.74 67.0402 302.938 63.5005 299.855 59.3704L299.295 61.4831C301.955 59.7268 304.628 57.9832 307.275 56.2014C308.548 55.3487 309.897 54.5469 310.024 52.867C310.164 50.9961 308.535 49.8889 307.326 48.7562L296.661 38.8802V41.0565L304.017 34.553C305.404 33.2803 307.339 32.0967 307.033 29.9713C306.728 27.846 304.284 26.6369 302.821 25.4406L295.184 19.1535V21.3425C299.092 16.9263 303.19 12.6246 306.919 8.0684C308.395 6.24846 309.019 3.47401 306.359 2.29041C304.59 1.50134 301.942 2.04861 300.072 2.06133L290.832 2.13769L273.014 2.27769C248.859 2.46435 224.707 2.67221 200.56 2.90129C152.885 3.33401 105.206 3.84308 57.5229 4.42851C51.2995 4.5176 44.9487 4.97579 38.738 4.60671C32.5273 4.23763 26.1894 3.85582 19.915 3.5122C17.4715 3.38493 10.4208 2.02314 11.4898 6.89753C11.9098 8.80656 14.4043 10.1429 15.7533 11.3519C18.146 13.5155 20.4114 15.7936 22.5877 18.1735C22.6895 17.359 22.8041 16.5445 22.9059 15.7427C19.6223 17.359 16.3515 19.0262 13.1443 20.8335C11.5407 21.7116 9.12263 22.5134 8.30811 24.257C6.37363 28.4187 13.6152 30.5441 15.2824 33.2803C17.3314 36.6402 7.39176 41.6928 6.93359 45.7654C6.41179 50.2962 12.648 52.5997 15.8424 54.1269V51.4543L6.05543 56.9141C4.45185 57.8177 2.23739 58.6068 2.02104 60.7322C1.80468 62.8576 3.29373 63.6085 4.80822 64.4739C7.97721 66.2556 11.1717 67.8847 14.4425 69.5646C14.3279 68.7501 14.2261 67.9483 14.1243 67.1338C11.9237 69.0578 9.62551 70.8674 7.23902 72.5555C5.78816 73.5609 3.42097 74.5154 2.6319 76.2462C1.14286 79.7207 5.36818 80.9043 7.72265 81.6297C12.1516 82.966 17.0515 82.4824 21.6332 82.6733C26.9912 82.9024 32.2474 83.7296 37.5799 84.2514C60.9337 86.5677 84.822 85.5241 108.265 85.2314C156.474 84.6205 204.645 82.5842 252.791 80.2934C265.645 79.6952 278.525 79.3261 291.341 78.3843C297.251 78.0423 303.127 77.251 308.917 76.0171C311.895 75.3299 314.084 72.67 311.322 70.0864C309.871 68.7247 307.682 70.901 309.133 72.2755C309.579 72.6827 305.595 73.5481 305.481 73.5481C304.208 73.8027 302.859 74.019 301.535 74.2099C298.99 74.579 296.521 74.8463 294.001 75.0626C288.681 75.5335 283.348 75.7372 278.016 75.9917C268.013 76.4499 258.009 76.9462 248.019 77.4171C226.909 78.4098 205.795 79.3177 184.677 80.1407C142.246 81.7061 99.7889 82.686 57.332 82.1897C46.4887 82.0751 35.9127 80.5352 25.1203 79.7716C19.8896 79.4025 14.3152 79.9243 9.16079 78.8298C7.8881 78.5625 6.08089 78.4734 6.61542 76.6789C6.78087 76.0553 9.38987 74.7954 9.87349 74.4517C12.1007 72.8354 14.2261 71.1046 16.3133 69.361C16.4796 69.1928 16.6053 68.9889 16.6808 68.7648C16.7563 68.5407 16.7795 68.3023 16.7488 68.0678C16.7181 67.8333 16.6343 67.6089 16.5037 67.4117C16.3731 67.2146 16.1991 67.0499 15.9951 66.9302L10.5862 64.0666C9.31351 63.4048 5.38093 62.2085 6.39908 60.2486C6.92088 59.2431 10.2172 58.085 11.2862 57.5123L17.4079 54.1015C17.6369 53.9617 17.8262 53.7654 17.9576 53.5314C18.0889 53.2974 18.1579 53.0335 18.1579 52.7652C18.1579 52.4968 18.0889 52.233 17.9576 51.9989C17.8262 51.7649 17.6369 51.5686 17.4079 51.4288C15.5243 50.538 11.8971 49.3925 10.7389 47.6108C9.16078 45.129 12.457 42.8382 14.0097 41.3619C16.046 39.4274 19.5078 36.653 18.846 33.4203C18.1842 30.1877 13.9971 29.335 12.4826 26.7387C11.1081 24.4224 15.3461 23.1497 17.1278 22.2079C19.5587 20.9353 22.015 19.6626 24.4713 18.4663C24.6733 18.3449 24.8452 18.1794 24.9744 17.9823C25.1035 17.7851 25.1865 17.5613 25.2171 17.3277C25.2477 17.094 25.2252 16.8564 25.1511 16.6326C25.077 16.4089 24.9534 16.2047 24.7894 16.0354C23.0458 14.1391 21.2513 12.2937 19.3678 10.5247C18.426 9.64654 15.0916 7.48298 15.8934 6.41392C16.2879 5.87939 21.6331 6.7448 22.6131 6.79571C25.7566 6.96116 28.9002 7.08844 32.0438 7.27934C41.6907 7.83932 51.2613 7.66115 60.9464 7.52115C81.9203 7.24116 102.894 6.99934 123.868 6.79571C166.249 6.33754 208.629 5.93878 251.01 5.5994L285.817 5.31941L295.044 5.24305H298.595C299.55 5.24305 302.872 4.67034 303.571 5.24305C305.379 6.61755 300.657 10.5501 299.524 11.8356L292.945 19.268C292.659 19.5606 292.498 19.9534 292.498 20.3626C292.498 20.7717 292.659 21.1646 292.945 21.4571L297.895 25.4915C299.104 26.4842 302.184 28.1641 302.833 29.5386C304.106 32.2749 296.304 37.3784 294.472 38.9947C294.183 39.2834 294.022 39.6748 294.022 40.0829C294.022 40.4909 294.183 40.8823 294.472 41.171L302.477 48.5908C303.457 49.4944 305.964 51.0343 306.473 52.2943C306.982 53.5542 305.582 53.6942 304.577 54.4069C302.337 55.9596 300.008 57.4232 297.73 58.9377C297.379 59.147 297.125 59.4862 297.022 59.8817C296.92 60.2771 296.978 60.697 297.183 61.0504C300.568 65.6103 304.745 69.5245 309.515 72.6064C311.195 73.5736 312.748 70.901 311.08 69.8192Z" fill="#FFE600"/>
<path d="M311.08 69.8192C306.74 67.0402 302.938 63.5005 299.855 59.3704L299.295 61.4831C301.955 59.7268 304.628 57.9832 307.275 56.2014C308.548 55.3487 309.897 54.5469 310.024 52.867C310.164 50.9961 308.535 49.8889 307.326 48.7562L296.661 38.8802V41.0565L304.017 34.553C305.404 33.2803 307.339 32.0967 307.033 29.9713C306.728 27.846 304.284 26.6369 302.821 25.4406L295.184 19.1535V21.3425C299.092 16.9263 303.19 12.6246 306.919 8.0684C308.395 6.24846 309.019 3.47401 306.359 2.29041C304.59 1.50134 301.942 2.04861 300.072 2.06133L290.832 2.13769L273.014 2.27769C248.859 2.46435 224.707 2.67221 200.56 2.90129C152.885 3.33401 105.206 3.84308 57.5229 4.42851C51.2995 4.5176 44.9487 4.97579 38.738 4.60671C32.5273 4.23763 26.1894 3.85582 19.915 3.5122C17.4715 3.38493 10.4208 2.02314 11.4898 6.89753C11.9098 8.80656 14.4043 10.1429 15.7533 11.3519C18.146 13.5155 20.4114 15.7936 22.5877 18.1735C22.6895 17.359 22.8041 16.5445 22.9059 15.7427C19.6223 17.359 16.3515 19.0262 13.1443 20.8335C11.5407 21.7116 9.12263 22.5134 8.30811 24.257C6.37363 28.4187 13.6152 30.5441 15.2824 33.2803C17.3314 36.6402 7.39176 41.6928 6.93359 45.7654C6.41179 50.2962 12.648 52.5997 15.8424 54.1269V51.4543L6.05543 56.9141C4.45185 57.8177 2.23739 58.6068 2.02104 60.7322C1.80468 62.8576 3.29373 63.6085 4.80822 64.4739C7.97721 66.2556 11.1717 67.8847 14.4425 69.5646C14.3279 68.7501 14.2261 67.9483 14.1243 67.1338C11.9237 69.0578 9.62551 70.8674 7.23902 72.5555C5.78816 73.5609 3.42097 74.5154 2.6319 76.2462C1.14286 79.7207 5.36818 80.9043 7.72265 81.6297C12.1516 82.966 17.0515 82.4824 21.6332 82.6733C26.9912 82.9024 32.2474 83.7296 37.5799 84.2514C60.9337 86.5677 84.822 85.5241 108.265 85.2314C156.474 84.6205 204.645 82.5842 252.791 80.2934C265.645 79.6952 278.525 79.3261 291.341 78.3843C297.251 78.0423 303.127 77.251 308.917 76.0171C311.895 75.3299 314.084 72.67 311.322 70.0864C309.871 68.7247 307.682 70.901 309.133 72.2755C309.579 72.6827 305.595 73.5481 305.481 73.5481C304.208 73.8027 302.859 74.019 301.535 74.2099C298.99 74.579 296.521 74.8463 294.001 75.0626C288.681 75.5335 283.348 75.7372 278.016 75.9917C268.013 76.4499 258.009 76.9462 248.019 77.4171C226.909 78.4098 205.795 79.3177 184.677 80.1407C142.246 81.7061 99.7889 82.686 57.332 82.1897C46.4887 82.0751 35.9127 80.5352 25.1203 79.7716C19.8896 79.4025 14.3152 79.9243 9.16079 78.8298C7.8881 78.5625 6.08089 78.4734 6.61542 76.6789C6.78087 76.0553 9.38987 74.7954 9.87349 74.4517C12.1007 72.8354 14.2261 71.1046 16.3133 69.361C16.4796 69.1928 16.6053 68.9889 16.6808 68.7648C16.7563 68.5407 16.7795 68.3023 16.7488 68.0678C16.7181 67.8333 16.6343 67.6089 16.5037 67.4117C16.3731 67.2146 16.1991 67.0499 15.9951 66.9302L10.5862 64.0666C9.31351 63.4048 5.38093 62.2085 6.39908 60.2486C6.92088 59.2431 10.2172 58.085 11.2862 57.5123L17.4079 54.1015C17.6369 53.9617 17.8262 53.7654 17.9576 53.5314C18.0889 53.2974 18.1579 53.0335 18.1579 52.7652C18.1579 52.4968 18.0889 52.233 17.9576 51.9989C17.8262 51.7649 17.6369 51.5686 17.4079 51.4288C15.5243 50.538 11.8971 49.3925 10.7389 47.6108C9.16078 45.129 12.457 42.8382 14.0097 41.3619C16.046 39.4274 19.5078 36.653 18.846 33.4203C18.1842 30.1877 13.9971 29.335 12.4826 26.7387C11.1081 24.4224 15.3461 23.1497 17.1278 22.2079C19.5587 20.9353 22.015 19.6626 24.4713 18.4663C24.6733 18.3449 24.8452 18.1794 24.9744 17.9823C25.1035 17.7851 25.1865 17.5613 25.2171 17.3277C25.2477 17.094 25.2252 16.8564 25.1511 16.6326C25.077 16.4089 24.9534 16.2047 24.7894 16.0354C23.0458 14.1391 21.2513 12.2937 19.3678 10.5247C18.426 9.64654 15.0916 7.48298 15.8934 6.41392C16.2879 5.87939 21.6331 6.7448 22.6131 6.79571C25.7566 6.96116 28.9002 7.08844 32.0438 7.27934C41.6907 7.83932 51.2613 7.66115 60.9464 7.52115C81.9203 7.24116 102.894 6.99934 123.868 6.79571C166.249 6.33754 208.629 5.93878 251.01 5.5994L285.817 5.31941L295.044 5.24305H298.595C299.55 5.24305 302.872 4.67034 303.571 5.24305C305.379 6.61755 300.657 10.5501 299.524 11.8356L292.945 19.268C292.659 19.5606 292.498 19.9534 292.498 20.3626C292.498 20.7717 292.659 21.1646 292.945 21.4571L297.895 25.4915C299.104 26.4842 302.184 28.1641 302.833 29.5386C304.106 32.2749 296.304 37.3784 294.472 38.9947C294.183 39.2834 294.022 39.6748 294.022 40.0829C294.022 40.4909 294.183 40.8823 294.472 41.171L302.477 48.5908C303.457 49.4944 305.964 51.0343 306.473 52.2943C306.982 53.5542 305.582 53.6942 304.577 54.4069C302.337 55.9596 300.008 57.4232 297.73 58.9377C297.379 59.147 297.125 59.4862 297.022 59.8817C296.92 60.2771 296.978 60.697 297.183 61.0504C300.568 65.6103 304.745 69.5245 309.515 72.6064C311.195 73.5736 312.748 70.901 311.08 69.8192Z" stroke="#FFE600" stroke-width="3.41908" mask="url(#path-20-outside-1_129_23942)"/>
<path d="M142.048 40.9164L152.71 50.7517L148.066 55.7769L138.285 46.7438L139.494 56.2566L132.696 57.1201L128.921 27.3991L135.718 26.5355L136.945 36.1982L144.454 24.5454L150.19 28.252L142.048 40.9164Z" fill="white"/>
<path d="M241.768 32.8415V62.8014H234.917V46.5619L225.563 62.7678L225.546 62.8014H218.711V32.8415H225.563V49.081L234.917 32.8751L234.933 32.8415H241.768Z" fill="white"/>
<path d="M241.15 63.0363V63.0741H241.131L241.15 63.0363Z" fill="white"/>
<path d="M280.513 50.5386V61.1833H273.143V57.3673H254.218V27.5255H261.589V50.5386H269.648V27.5255H277.036V50.5386H280.513Z" fill="white"/>
<path d="M58.3407 58.1546C55.2225 58.1512 52.1753 57.193 49.5837 55.401C46.9922 53.6091 44.9727 51.0638 43.7802 48.0866C42.5877 45.1093 42.2756 41.8336 42.8835 38.6733C43.4915 35.5129 44.992 32.6096 47.1958 30.3299C49.3995 28.0503 52.2073 26.4966 55.2651 25.865C58.3228 25.2334 61.4932 25.5523 64.3757 26.7813C67.2582 28.0104 69.7237 30.0946 71.4607 32.7706C73.1976 35.4466 74.1282 38.5944 74.1349 41.8165C74.1372 43.9613 73.7301 46.0854 72.9374 48.0676C72.1447 50.0497 70.9816 51.8509 69.5148 53.3683C68.048 54.8857 66.3063 56.0894 64.389 56.9107C62.4717 57.7319 60.4163 58.1546 58.3407 58.1546ZM58.3407 32.5835C56.5661 32.587 54.8322 33.1344 53.3587 34.1564C51.8852 35.1785 50.7385 36.6294 50.0632 38.3253C49.388 40.0212 49.2147 41.886 49.5655 43.6836C49.9162 45.4813 50.7752 47.1309 52.0336 48.4239C53.2921 49.7169 54.8934 50.5952 56.635 50.9474C58.3767 51.2996 60.1805 51.1101 61.8178 50.4027C63.4551 49.6953 64.8526 48.5018 65.8333 46.9734C66.814 45.445 67.3338 43.6504 67.3271 41.8165C67.3181 39.3615 66.3667 37.0105 64.6819 35.2794C62.9972 33.5484 60.7166 32.5788 58.3407 32.5835V32.5835Z" fill="white"/>
<path d="M216.317 40.4824C217.692 34.3366 212.508 28.1182 204.527 26.3334C203.116 26.0174 201.675 25.8568 200.229 25.8542C199.335 25.8622 198.444 25.9389 197.562 26.0838L191.203 54.5186L197.89 56.0138L199.627 48.2455C207.608 50.0303 214.947 46.6119 216.317 40.4824ZM209.762 39.0165C209.3 41.0815 205.501 42.6758 201.093 41.6899L203.061 32.889C207.453 33.8712 210.227 36.9351 209.762 39.0165Z" fill="white"/>
<path d="M101.245 33.5567V40.4253H92.4786V63.5334H85.6268V40.4253H77.3643V33.5567H101.245Z" fill="white"/>
<path d="M182.438 36.5161L173.604 51.7816L169.641 58.6502L164.771 67.0974L158.826 63.6547L165.694 51.8152L156.861 36.5161L162.806 33.0902L169.641 44.9465L176.509 33.0902L182.438 36.5161Z" fill="white"/>
</svg>
