<svg width="130" height="131" viewBox="0 0 130 131" fill="none" xmlns="http://www.w3.org/2000/svg">
<mask id="mask0_2_8789" style="mask-type:alpha" maskUnits="userSpaceOnUse" x="4" y="3" width="125" height="126">
<path d="M128.208 65.5973C128.21 69.333 127.883 73.0618 127.23 76.7389C127.208 76.86 127.186 76.9849 127.161 77.106C126.277 81.9295 124.827 86.6294 122.844 91.107C122.505 91.8779 122.15 92.6404 121.779 93.3941C121.292 94.3853 120.78 95.3654 120.242 96.3309C119.827 97.0651 119.395 97.7993 118.948 98.5335C116.415 102.663 113.417 106.482 110.012 109.914C109.101 110.834 108.161 111.724 107.192 112.586C103.437 115.931 99.2941 118.805 94.8542 121.143C93.5678 121.823 92.2558 122.456 90.9185 123.041C83.1301 126.459 74.7275 128.217 66.236 128.206C57.5064 128.217 48.8736 126.359 40.9065 122.754C40.7539 122.685 40.6048 122.619 40.4558 122.545C37.2529 121.065 34.1818 119.31 31.2763 117.3C29.2584 115.905 27.3242 114.391 25.4836 112.766L25.4181 112.711L24.7859 112.142C19.4281 107.27 14.9485 101.496 11.5469 95.0755C10.5251 93.1488 9.60555 91.1686 8.79227 89.1431C8.23262 87.7482 7.72153 86.33 7.25879 84.8885C7.20428 84.7197 7.14961 84.5506 7.09874 84.378C7.00062 84.0697 6.90621 83.7576 6.81536 83.4456C6.63365 82.8215 6.45189 82.1974 6.29562 81.566C4.94111 76.3547 4.25726 70.9891 4.26069 65.6012C4.24108 52.2049 8.49468 39.1584 16.3912 28.3957C16.9072 27.686 17.4402 26.9899 17.9901 26.3071C18.7775 25.3282 19.5976 24.364 20.4504 23.4145C20.4787 23.3785 20.5091 23.3441 20.5412 23.3116C20.7411 23.084 20.9447 22.8636 21.1518 22.6433L21.1807 22.6104C26.9688 16.4074 33.9531 11.4673 41.7031 8.09461C49.4531 4.72196 57.8047 2.98827 66.2432 3.00006C74.6553 2.98822 82.9812 4.71134 90.711 8.06378C98.4407 11.4162 105.412 16.3275 111.197 22.4967C113.319 24.7566 115.273 27.1712 117.044 29.7211C124.334 40.2331 128.233 52.7625 128.208 65.5973Z" fill="#EBE125"/>
</mask>
<g mask="url(#mask0_2_8789)">
<path d="M128.207 65.5973C128.209 69.333 127.882 73.0618 127.23 76.7389C127.208 76.86 127.186 76.9849 127.161 77.106C126.276 81.9295 124.827 86.6294 122.843 91.107C122.504 91.8779 122.149 92.6404 121.779 93.3941C121.292 94.3853 120.779 95.3654 120.241 96.3309C119.827 97.0651 119.395 97.7993 118.948 98.5335C116.415 102.663 113.416 106.482 110.012 109.914C109.101 110.834 108.161 111.724 107.191 112.586C103.437 115.931 99.2938 118.805 94.8538 121.143C93.5674 121.823 92.2555 122.456 90.9181 123.041C83.1298 126.459 74.7272 128.217 66.2356 128.206C57.506 128.217 48.8732 126.359 40.9062 122.754C40.7535 122.685 40.6045 122.619 40.4555 122.545C37.2526 121.065 34.1815 119.31 31.2759 117.3C29.2581 115.905 27.3238 114.391 25.4832 112.766L25.4177 112.711L24.7855 112.142C19.4277 107.27 14.9481 101.496 11.5466 95.0755C10.5247 93.1488 9.60519 91.1686 8.7919 89.1431C8.23225 87.7482 7.72116 86.33 7.25842 84.8885C7.20391 84.7197 7.14925 84.5506 7.09837 84.378C7.00025 84.0697 6.90584 83.7576 6.81499 83.4456C6.63329 82.8215 6.45152 82.1974 6.29526 81.566C4.94074 76.3547 4.25689 70.9891 4.26032 65.6012C4.24072 52.2049 8.49431 39.1584 16.3908 28.3957C16.9068 27.686 17.4398 26.9899 17.9897 26.3071C18.7771 25.3282 19.5972 24.364 20.45 23.4145C20.4784 23.3785 20.5087 23.3441 20.5409 23.3116C20.7407 23.084 20.9443 22.8636 21.1514 22.6433L21.1804 22.6104C26.9685 16.4074 33.9527 11.4673 41.7027 8.09461C49.4527 4.72196 57.8043 2.98827 66.2429 3.00006C74.6549 2.98822 82.9808 4.71134 90.7106 8.06378C98.4404 11.4162 105.411 16.3275 111.196 22.4967C113.318 24.7566 115.273 27.1712 117.043 29.7211C124.333 40.2331 128.232 52.7625 128.207 65.5973Z" fill="#FFE600"/>
<path d="M140.108 157.794C139.693 156.986 139.639 156.267 139.381 155.522C139.018 154.457 138.211 153.686 138.015 152.809C137.818 151.931 137.96 150.867 137.796 149.872C137.662 149.057 137.317 148.11 137.386 147.188C137.386 146.965 137.535 146.821 137.542 146.649C137.542 146.344 137.4 146.182 137.459 145.991C137.735 145.074 139.221 145.092 139.948 144.78C140.068 144.732 140.537 144.413 140.831 144.222C141.311 143.907 141.489 143.437 141.852 142.982C142.677 141.95 143.284 140.981 142.942 139.362C142.808 138.73 142.263 138.004 142.361 137.068C142.423 136.833 142.535 136.614 142.69 136.428C142.844 136.242 143.037 136.091 143.255 135.988C143.724 135.871 144.069 136.164 144.381 136.212C144.694 136.26 144.97 136.146 145.261 136.176C145.754 136.275 146.24 136.41 146.714 136.579C146.9 136.616 147.132 136.528 147.303 136.579C148.125 136.814 148.888 137.493 149.796 137.736C149.942 137.776 150.16 137.692 150.309 137.736C151.115 138.018 151.762 138.646 152.431 138.866C152.852 139.01 153.441 138.888 153.921 139.046C154.455 139.222 155.218 140.177 155.843 140.353C156.316 140.485 156.799 140.353 157.606 140.353C158.133 140.353 158.874 140.639 159.223 140.353C159.317 140.252 159.384 140.129 159.419 139.995C159.454 139.861 159.455 139.721 159.423 139.586C159.31 139.138 158.649 139.046 157.995 138.734C156.875 138.206 155.2 137.486 154.157 138.565C154.157 138.371 154.092 138.253 153.903 138.301C153.176 137.934 152.318 137.934 151.617 137.633C151.308 137.501 151.108 137.181 150.806 136.998C150.305 136.693 149.665 136.594 149.182 136.319C148.931 136.183 148.782 135.86 148.51 135.665C148.233 135.511 147.946 135.375 147.652 135.258C146.289 134.524 145.504 133.661 144.018 133.283C142.623 131.815 142.201 128.489 142.045 126.282C142.285 126.282 142.375 126.19 142.543 126.146C142.71 124.678 142.008 123.349 142.048 122.211C142.775 121.921 143.298 122.615 143.756 122.945C144.142 122.824 144.403 123.312 144.847 123.474C145.29 123.635 146.217 123.558 147.005 123.709C147.191 123.746 147.369 123.907 147.547 123.937C147.725 123.966 148.026 123.87 148.273 123.918C148.521 123.966 148.735 124.127 148.888 124.131C149.614 124.131 150.421 123.764 150.632 123.397C150.843 123.03 150.614 122.795 150.632 122.358C150.65 122.097 150.843 121.888 150.748 121.528C150.621 121.044 149.902 120.585 149.276 120.313C148.507 119.941 147.684 119.694 146.838 119.579C146.193 119.181 145.511 118.847 144.803 118.58C144.185 118.356 142.939 118.129 142.826 117.431C142.713 116.734 144.076 115.68 144.977 115.82C145.373 115.882 145.486 116.455 145.94 116.51C146.747 116.609 147.692 115.981 148.081 115.409C148.259 115.152 148.248 114.807 148.415 114.553C148.582 114.3 149.051 114.322 148.848 113.904C148.484 113.724 148.357 114.124 147.99 114.091C147.623 114.058 147.452 113.683 147.049 113.621C146.431 113.522 145.988 113.856 145.174 113.863C144.81 113.577 144.276 113.496 143.982 113.129C143.073 113.283 141.936 112.891 141.118 113.129C140.707 113.247 140.391 113.68 139.952 113.797C138.789 114.095 137.193 113.511 136.83 112.868C135.805 111.066 137.557 109.858 137.491 108.192C137.822 107.825 138.294 107.891 138.676 107.67C138.879 107.549 138.93 107.303 139.127 107.167C139.525 106.892 139.977 106.707 140.453 106.624C140.646 106.055 141.154 105.725 141.779 105.49C141.779 105.281 141.827 105.123 142.103 105.152C142.23 104.462 142.728 104.051 143.157 103.61C143.32 102.685 143.836 102.006 144.094 101.121C144.272 100.512 144.178 100.02 144.247 99.396C144.298 98.9334 144.49 98.4967 144.516 98.0305C144.593 97.3674 144.559 96.6959 144.414 96.0444C144.552 95.9343 144.778 95.8829 144.73 95.6332C144.639 95.4644 144.591 95.2751 144.591 95.0826C144.591 94.8901 144.639 94.7007 144.73 94.5319C144.785 94.3704 144.73 94.0803 144.73 94.0143C144.872 93.6215 145.25 93.3793 145.341 93.0453C145.512 92.4432 145.264 92.0944 145.461 91.6245C145.616 91.3225 145.833 91.0569 146.097 90.8445C146.36 90.632 146.665 90.4774 146.991 90.391C147.18 90.3469 147.445 90.446 147.648 90.391C148.23 90.1927 148.677 89.4331 149.491 89.2642C150.385 89.077 151.253 89.3925 152.155 88.8455C152.208 88.8086 152.257 88.7656 152.3 88.7172L139.385 68.1597C139.303 68.4373 139.18 68.7008 139.021 68.9416C138.68 69.4335 138.076 69.7751 137.804 70.3551C137.693 70.7263 137.617 71.1073 137.578 71.493C137.179 73.189 137.764 75.0393 138.487 76.4122C138.999 77.3887 140.115 78.2697 138.694 78.6772L138.741 78.7468L138.712 78.8238C138.756 79.1579 138.538 79.3598 138.254 79.2533C138.163 79.011 138.294 78.9379 138.342 78.7984L138.371 78.7209L138.396 78.6439C137.92 78.5597 137.47 78.3649 137.081 78.0749C136.844 78.0749 136.841 78.2401 136.583 78.2144C135.929 78.0455 134.958 77.6382 133.792 77.6125C133.17 77.6125 132.549 77.9282 131.993 77.9172C131.589 77.8295 131.201 77.6809 130.841 77.4766C129.856 77.0288 129.911 76.7056 130.176 75.7071C130.379 75.4061 130.761 75.219 130.946 74.7969C131.215 74.1765 131.073 72.8917 130.492 72.9284C130.285 72.9284 129.878 73.6625 129.765 74.0627C129.569 74.7864 129.588 75.5524 129.82 76.2653C129.525 76.5186 129.762 76.9995 129.456 77.3483C129.26 77.5575 128.955 77.5172 128.697 77.7448C129.478 77.7741 128.551 78.7616 128.13 78.479C127.948 78.1339 128.686 77.9025 128.344 77.8584C127.468 78.6183 125.255 78.4053 125.673 77.0213C124.83 77.7262 123.696 78.2623 122.741 77.6236C121.265 76.6398 120.433 73.8903 119.692 71.427C119.55 70.9498 119.39 70.432 119.292 69.9988C119.067 69.015 119.543 68.3396 119.655 67.6568C119.724 67.264 119.655 66.8124 119.728 66.4637C119.79 66.2361 119.928 66.1333 119.953 65.9131C120.051 65.0541 119.633 63.8902 119.826 63.1193C119.91 62.7816 120.189 62.3484 120.338 61.941C120.57 61.3238 120.837 60.7208 121.138 60.1349C121.243 59.9293 121.436 59.7384 121.501 59.5695C121.709 59.1033 121.734 58.5857 121.923 58.2553C122.177 57.8111 122.581 57.6422 122.751 57.2605C122.86 57.0182 122.824 56.7098 122.94 56.4198C123.137 55.9389 123.304 55.5243 123.5 55.0177C123.591 54.7718 123.863 54.5589 123.994 54.2835C124.063 54.1404 123.994 53.9163 124.078 53.7548C124.201 53.4537 124.489 53.1896 124.554 52.8775C124.667 52.2518 124.834 51.6375 125.055 51.042C125.23 50.5795 125.263 50.1463 125.419 49.6654C125.528 49.2763 125.782 48.9862 125.877 48.6448C125.998 48.0312 126.036 47.4038 125.989 46.7799L122.999 42.0076C122.648 42.0342 122.309 42.1424 122.006 42.3235C122.061 42.7383 122.159 43.186 121.919 43.3696C121.556 43.4356 121.614 42.9769 121.411 42.8447C120.32 43.7918 120.626 45.51 120.542 47.0298C120.52 47.3969 120.368 47.7456 120.378 48.087C120.407 49.0708 120.804 50.4658 120.542 51.1743C120.179 52.1765 119.546 53.0903 119.23 54.1548C119.03 54.823 119.146 55.5939 118.976 56.2621C118.874 56.6659 118.492 57.0404 118.474 57.5103C118.25 57.5423 118.043 57.652 117.89 57.8208C117.737 57.9895 117.647 58.2067 117.635 58.4352C116.839 58.6261 116.744 59.364 116.345 59.8595C115.803 59.944 115.796 60.4432 115.334 60.5937C115.374 60.6866 115.394 60.7872 115.391 60.8884C115.388 60.9896 115.364 61.0889 115.319 61.1795C115.274 61.2701 115.211 61.3498 115.132 61.4129C115.054 61.476 114.963 61.5211 114.866 61.5448C114.161 61.119 113.775 61.9118 112.998 61.8567C112.067 61.8016 111.028 60.0946 110.955 59.0153C110.932 58.1946 111.055 57.3764 111.319 56.5998C111.511 56.1005 111.867 55.7774 111.958 55.2561C112.322 53.2995 111.337 51.4716 109.683 52.2939C109.32 52.4774 109.255 52.8555 108.815 52.9987C108.833 53.4943 108.411 53.9385 108.339 54.4671C108.281 54.8892 108.47 55.381 108.43 55.7885C108.317 56.9742 107.728 58.1638 106.482 58.4098C106.216 58.4612 105.65 58.2849 105.083 58.3657C103.665 58.5749 103.109 58.248 102.39 57.3816C102.066 56.9888 101.834 56.2805 101.416 56.0272C101.103 55.8327 100.689 56.0272 100.351 55.7225C99.5406 56.119 98.8538 56.6146 98.0943 57.0515C97.9562 57.224 98.1525 57.2532 98.1489 57.4881C97.8581 57.3119 97.7854 57.5765 97.7309 57.6903C97.6328 57.9032 97.2621 58.116 97.2076 58.2004C96.9096 58.7107 97.0877 59.5548 96.6153 59.9072C96.3282 59.9696 96.3027 59.6944 96.1356 59.5989C96.0556 60.1165 95.6196 59.8193 95.3434 59.7018C94.8912 59.9004 94.4777 60.1789 94.1223 60.5242C93.7589 60.1241 93.1084 60.0688 92.7668 59.6613C92.258 59.0556 92.1163 57.6535 92.0981 56.6403C92.0981 56.1594 92.3052 55.6125 92.2762 55.1389C92.2471 54.5589 91.8474 53.975 91.7892 53.5712C91.7475 52.9797 91.7475 52.386 91.7892 51.7945C91.8219 50.6345 91.3132 49.4413 91.3095 48.5272C91.3095 48.3583 91.4439 48.1344 91.4512 47.9142C91.43 47.1543 91.3363 46.3985 91.1714 45.6568C90.8736 43.6152 90.7388 41.5529 90.7681 39.4896C90.7849 39.1239 90.8635 38.7637 91.0006 38.4249C91.175 38.2009 91.5603 38.2156 91.7601 38.0284C92.1729 37.5407 92.5495 37.023 92.8867 36.4793C93.6572 35.378 94.1114 34.7981 93.977 33.4472C93.7589 31.274 93.0284 30.3816 91.9237 29.3464C91.1984 28.5914 90.3243 27.9989 89.358 27.6066C88.1188 27.1074 87.4247 27.0594 85.6294 27.1255C85.197 27.1255 84.7246 27.1255 84.2776 27.1255L80.8398 29.3281C80.3165 30.3119 80.2692 31.5601 80.4182 32.9991C80.5467 33.9254 80.8568 34.8167 81.3304 35.6204C81.5085 35.9177 81.8355 36.1269 82.0172 36.4205C82.5542 37.4032 83.3138 38.2434 84.234 38.8726C85.1062 39.3976 86.2255 39.4859 87.3302 39.5814C87.5301 39.9962 88.2096 40.2788 88.3659 40.8551C88.3877 40.9285 88.2714 41.1341 88.2678 41.2222C88.2678 42.1106 88.5985 43.0575 88.7402 43.8284C88.9292 44.8416 88.8493 46.0531 89.0419 46.824C89.224 47.5428 89.2915 48.2863 89.2418 49.0266C89.2109 49.6652 89.2672 50.3049 89.4089 50.928C89.4816 51.3979 89.4089 51.9853 89.518 52.3964C89.627 52.8076 89.9286 53.2592 90.0412 53.663C90.2194 54.1753 90.3412 54.7061 90.4046 55.2454C90.4046 55.4216 90.2375 55.7444 90.2157 56.0821C90.1684 56.7722 90.3465 57.5067 90.252 58.1528C90.1576 58.7988 89.5979 59.287 89.3871 60.0395C89.1763 60.7921 89.1982 61.46 88.9728 62.018C88.7595 62.6154 88.3963 63.1467 87.9189 63.5599C87.2575 64.0885 86.1274 64.4448 85.426 64.1805C84.3867 63.784 85.0625 61.8604 84.7391 61.0125C84.6637 60.891 84.576 60.7779 84.4775 60.6748C84.3573 60.4746 84.1939 60.3043 83.9994 60.1772C83.8049 60.05 83.5844 59.9693 83.3545 59.9406C83.3981 60.4949 83.013 60.7223 82.6786 60.9866C82.4897 61.6511 82.4642 62.9433 81.8791 63.3875C81.0397 64.0262 79.3353 63.1745 78.6557 62.8404C78.3323 62.6826 77.9725 62.6017 77.8054 62.5063C76.806 61.9446 76.2245 60.7516 75.4941 59.8448C75.167 59.441 74.6582 59.0116 74.2258 58.527C73.3936 57.5909 72.6159 56.6071 71.8236 55.7297C71.4305 55.2381 71.0043 54.7747 70.5481 54.3423C69.9993 53.9128 68.6402 53.6668 67.8407 53.2116C67.6009 53.0721 67.5173 52.8445 67.3429 52.7564C67.0594 52.6132 66.7505 52.6572 66.5833 52.5581C66.2199 52.3342 66.0528 51.8864 65.7257 51.5597C64.4356 50.2675 62.8803 49.1295 61.5429 48.0282C61.0305 47.606 60.6126 46.971 59.9512 47.0481C59.9802 47.9915 60.7325 48.6156 61.1832 49.2506C61.6338 49.8857 62.1425 50.6639 62.6913 51.3503C63.24 52.0368 63.9922 52.503 64.461 53.1858C64.8244 53.7328 64.8608 54.5808 65.2315 55.2343C65.3732 55.4839 65.6385 55.6012 65.7475 55.8362C65.8238 55.994 65.8129 56.2549 65.8929 56.409C66.3544 57.2791 67.2011 57.5984 67.8625 58.0793C68.6548 58.6556 69.3162 59.4117 70.0866 60.0101C70.7044 60.4983 71.4821 60.7994 72.0817 61.3096C72.2998 61.4969 72.5359 61.8016 72.7576 62.0438C73.2161 62.5325 73.648 63.0461 74.0514 63.5821C74.2585 63.8538 74.3748 64.2134 74.6037 64.4741C74.76 64.6503 74.9962 64.7163 75.1707 64.9182C75.7932 65.6961 76.3191 66.548 76.7369 67.4549C77.0261 68.0635 77.2304 68.7094 77.3438 69.3747C77.6309 71.2322 76.1882 72.9321 74.5129 73.7397C73.7755 74.0104 73.0135 74.207 72.238 74.3269C70.8534 74.6316 69.7559 74.9951 68.3568 74.9804C67.6918 74.9804 67.1503 74.1506 66.5216 73.8092C66.2636 73.6697 65.882 73.5559 65.5912 73.4127C65.3123 73.2337 65.0222 73.0732 64.7227 72.932C63.9196 72.6787 63.2109 72.9321 62.2878 72.8037C61.9971 72.7596 61.681 72.5357 61.1976 72.4366C61.005 72.8037 60.6562 72.4366 60.2601 72.5577L60.3037 72.6273L60.2782 72.7044C60.2782 72.7521 60.2782 72.8036 60.2782 72.8513C60.1837 72.8513 60.1874 72.9576 60.0711 72.9503C60.0348 72.8548 59.9475 72.8256 59.9584 72.6678L59.893 72.6162L59.8712 72.5355C58.592 72.642 57.5818 73.2294 57.9961 74.5509C58.0978 74.8887 58.5448 75.0794 58.7628 75.4135C59.744 76.9296 59.1008 79.0037 57.1929 78.7174C57.1929 79.0845 57.6072 78.9707 57.6363 79.3268C57.0912 79.804 56.0446 79.727 55.256 79.6315C55.0561 79.5654 55.2559 79.1909 55.1287 79.2056C54.3765 79.3378 53.141 79.3671 52.5377 79.0221C51.8327 79.0221 51.0841 79.2242 50.4155 79.0737C49.8449 78.9489 49.1908 78.4677 48.5984 78.1226C48.0346 77.722 47.4486 77.3543 46.8432 77.0213C46.4107 76.8378 45.9746 76.7608 45.5349 76.5259C44.6736 76.0597 43.8014 75.7182 42.9619 75.3034C42.5598 75.0536 42.1395 74.8351 41.7045 74.6499C41.4538 74.5838 41.1012 74.6756 40.8214 74.6169C40.3526 74.5178 39.8148 74.2499 39.1788 74.3857C38.9099 74.8299 38.3721 74.863 38.1831 75.2557C37.8197 75.9899 38.1831 77.2783 38.7283 77.8473C38.9721 78.0443 39.2395 78.2098 39.5241 78.3395C39.7788 78.5192 40.0446 78.6819 40.3199 78.8274C40.5343 78.9082 40.7851 78.8277 40.985 78.8902C41.1849 78.9526 41.4284 79.235 41.6282 79.3268C42.2185 79.5467 42.8265 79.715 43.4453 79.8298C43.8764 80.2625 44.3926 80.5991 44.9606 80.8174C45.1205 80.8615 45.2986 80.7217 45.4694 80.7511C45.6402 80.7805 45.7383 80.9716 45.9382 80.9863C46.1381 81.0009 46.3488 80.8796 46.5887 80.9017C47.3155 80.9714 47.9625 81.4231 48.5766 81.5369C48.8056 81.5773 49.0781 81.4559 49.3034 81.5147C49.8776 81.6652 50.4591 82.1975 51.1205 82.5389C51.542 82.7592 52.1197 82.8398 52.4359 83.1078C52.9337 83.5226 53.2572 84.2094 53.7296 84.6425C53.8713 84.7747 54.1403 84.8295 54.2784 84.9433C54.8017 85.3655 55.1615 85.9638 55.6376 86.4117C56.2399 86.8865 56.9054 87.2733 57.6145 87.5607C58.3122 87.8874 59.0172 88.1665 59.7186 88.5483C60.8961 88.596 61.899 88.8604 62.564 89.5872C63.567 89.8956 65.5149 91.2941 65.6457 93.1112C65.6821 93.6031 65.4204 94.9139 65.0425 95.336C64.8508 95.4794 64.645 95.6024 64.4284 95.7031C64.0431 95.7802 63.8505 95.3909 63.4616 95.6038C63.0293 95.2427 62.6544 94.817 62.3497 94.3412C62.0299 93.875 61.7864 93.2104 61.4303 92.8323C60.8488 92.2193 60.0312 92.0064 59.3589 91.5439C58.9812 91.5377 58.6056 91.4871 58.2395 91.3933C57.4727 91.9109 56.6878 93.0417 57.033 94.0659C57.1348 94.3743 57.6472 94.6239 57.9561 94.9836C58.3249 95.4253 58.7678 95.798 59.2644 96.0849C59.6459 96.3199 60.0493 96.3931 60.4309 96.5986C60.6744 96.7308 60.896 97.0651 61.1577 97.245C61.4993 97.4653 61.8445 97.5275 62.0226 97.7257C62.1707 97.9702 62.3007 98.2254 62.4114 98.4893C62.8112 99.1758 62.8584 99.1648 62.7385 99.9283C62.5931 100.868 62.5278 101.599 61.9899 102.171C62.1971 102.847 61.8954 103.64 61.7937 104.121C61.6919 104.601 61.7936 105.002 61.7427 105.461C61.6079 106.287 61.3635 107.09 61.0159 107.85C61.6991 108.662 60.8779 109.414 60.7834 110.101C60.7325 110.468 60.9687 110.974 60.9469 111.411C60.9469 111.716 60.7652 111.984 60.7579 112.252C60.7579 112.619 60.976 113.037 60.9033 113.416C62.3279 113.783 62.6549 115.985 61.3139 116.694C60.6634 116.719 60.0638 116.591 59.4242 116.866C59.0972 117.006 58.8754 117.362 58.552 117.494C58.361 117.53 58.1681 117.556 57.9743 117.571C57.0657 117.835 56.7314 118.61 56.1063 119.069C56.2698 119.19 56.4055 119.346 56.5039 119.525C56.6024 119.705 56.6614 119.903 56.6769 120.108C56.4516 120.203 56.5025 119.939 56.3607 119.924C56.4436 120.615 56.626 121.29 56.9022 121.928C57.0512 122.373 57.0185 122.945 57.1493 123.305C57.331 123.808 57.8761 124.102 57.5127 124.513C56.884 124.638 56.3825 124.88 55.8774 124.946C55.6012 124.979 55.2632 124.796 54.9834 124.84C54.5582 124.906 54.1258 125.343 53.6824 125.009C53.4498 125.045 53.5697 125.375 53.2063 125.295C52.9628 125.093 53.4171 125.071 53.3662 124.829C52.7157 124.561 52.2325 124.362 51.4984 124.553C51.2513 124.616 51.1348 124.847 50.8841 124.92C50.6856 124.984 50.4781 125.014 50.27 125.009L61.4012 142.732C61.8445 142.456 62.5495 142.313 63.0692 141.998C63.8796 141.509 64.77 140.896 65.4423 140.43C65.5868 139.836 65.9391 139.314 66.4344 138.962C66.6997 138.374 66.7432 137.692 67.0121 137.126C67.0703 136.998 67.1612 136.895 67.2557 136.722C67.4628 136.355 67.51 135.988 67.7063 135.621C67.8068 135.449 67.9443 135.303 68.1085 135.193C68.2727 135.082 68.4593 135.01 68.6547 134.983C68.5369 134.509 68.5168 134.017 68.5956 133.536C68.6743 133.054 68.8503 132.595 69.1126 132.185C69.556 131.576 69.4252 131.767 70.2319 131.741C70.7797 131.742 71.3261 131.796 71.8636 131.902C72.3615 131.946 72.9539 131.803 73.4008 131.851C73.7424 131.888 74.0877 132.192 74.3203 132.174C74.6546 132.152 74.9308 131.84 75.2215 131.763C75.5849 131.939 76.2063 131.858 76.7296 132.086C76.9331 132.174 77.093 132.416 77.3002 132.53C77.9689 132.868 79.0082 133.213 79.0336 134.083C79.0336 134.586 78.5721 134.63 78.6702 135.243C78.7793 135.489 79.1281 135.423 79.3098 135.676C79.3862 135.783 79.3099 135.933 79.4298 136.043C79.6188 136.205 79.8731 136.179 80.0621 136.41C80.5745 137.02 80.6617 138.117 81.1123 138.936C81.5121 139.67 82.0644 140.118 82.2934 140.771C82.4169 140.874 82.2934 141.139 82.377 141.429C83.1765 141.623 83.3073 142.563 83.7688 143.172C84.016 143.499 84.423 143.569 84.5284 143.965C85.8403 144.145 86.5816 145.067 86.9668 146.461C87.4427 146.779 87.8825 147.148 88.2787 147.563C88.6639 147.959 88.9837 148.664 89.398 148.895C89.6961 148.972 89.9982 149.032 90.3029 149.075C90.5752 149.211 90.8585 149.323 91.1496 149.409C91.6911 149.461 92.3089 149.259 92.9667 149.325C93.0811 149.425 93.2148 149.5 93.3593 149.545C93.5038 149.589 93.6559 149.603 93.8061 149.585C93.8679 149.732 94.0096 149.769 94.006 150.004C94.4421 149.67 94.6965 150.166 95.0635 150.235C95.4306 150.305 95.6014 150.114 95.9466 150.272C96.2119 150.272 96.1065 149.956 96.3427 149.905C96.4627 150.033 96.7061 150 96.7497 150.221C97.0259 149.898 97.4766 150.085 97.8872 149.927C98.1997 149.802 98.3887 149.475 98.7012 149.38C99.8242 149.031 100.882 149.34 101.743 149.652C101.721 149.934 101.874 149.989 101.888 150.224C102.121 150.224 102.023 149.978 102.303 150.022C102.441 150.724 103.2 150.797 103.822 150.419C103.524 149.923 104.149 149.578 104.334 149.241C104.261 148.939 104 148.873 104.018 148.469C104.897 148.367 104.272 147.089 105.315 147.115C105.446 146.252 105.362 145.496 105.755 144.765C106.053 144.707 106.049 144.824 106.26 144.699C106.54 144.086 106.856 143.393 107.372 143C107.968 142.545 108.335 142.838 108.724 143.268C109.113 143.697 109.294 144.336 109.814 144.461C110.883 144.71 111.399 143.727 112.187 143.488C112.551 143.363 112.7 143.605 113.277 143.345C113.525 143.308 113.434 143.712 113.684 143.664C114.459 143.741 114.869 144.266 115.502 144.765C115.826 145.075 116.181 145.352 116.559 145.591C116.828 145.698 117.18 145.558 117.453 145.698C118.616 146.282 118.456 148.862 120.128 148.903C122.308 148.958 121.701 146.333 122.508 145.041C122.926 144.934 122.999 144.556 123.311 144.421C123.624 144.285 123.86 144.42 124.267 144.446C124.568 144.395 124.55 144.079 124.961 144.134C125.975 144.63 127.272 144.501 128.232 144.971C128.432 145.067 128.577 145.309 128.802 145.415C129.238 145.617 129.845 145.632 130.328 145.885C130.485 145.966 130.532 146.197 130.674 146.285C131.049 146.459 131.435 146.606 131.829 146.726C132.334 146.858 133.367 146.799 133.759 146.92C134.584 147.17 135.155 148.389 135.46 149.365C135.736 150.239 135.721 151.201 135.932 151.972C136.143 152.742 136.739 153.366 136.917 153.991C136.953 154.115 136.877 154.314 136.917 154.435C137.095 155.297 137.684 155.731 137.978 156.447C138.194 157.05 138.298 157.688 138.283 158.33C138.337 158.822 138.492 159.297 138.738 159.725L140.522 158.583C140.413 158.308 140.235 158.043 140.108 157.794ZM155.171 138.459C155.229 138.459 155.251 138.521 155.324 138.514C155.324 138.562 155.324 138.609 155.342 138.661L155.127 138.686C155.08 138.565 155.171 138.543 155.171 138.459ZM138.981 74.5839C139.915 74.907 140.609 76.3939 140.515 77.4988C139.741 76.8527 139.286 75.8064 138.97 74.5839H138.981ZM84.2049 36.1416C83.7288 36.0976 83.3836 35.4772 83.4781 34.978C83.6016 35.0047 83.7185 35.0559 83.8218 35.1292C83.9251 35.2025 84.0127 35.2963 84.0795 35.4046C84.1463 35.5128 84.1909 35.6335 84.2106 35.7595C84.2303 35.8855 84.2246 36.0139 84.194 36.1377L84.2049 36.1416ZM85.0952 30.9177C85.5168 30.8773 85.6476 31.4647 85.575 31.8171C84.9826 32.041 84.7391 31.138 85.0843 30.8994L85.0952 30.9177ZM131.106 132.604C131.346 132.376 131.47 133.037 131.557 133.286C131.255 133.242 131.313 132.743 131.095 132.604H131.106ZM86.0837 65.8765L86.6615 65.803C86.8222 65.9765 86.9262 66.1956 86.9596 66.4307C86.8143 66.5305 86.6506 66.5997 86.4783 66.6343C86.306 66.669 86.1286 66.6685 85.9566 66.6326C85.9251 66.505 85.9193 66.3724 85.9393 66.2425C85.9592 66.1127 86.0046 65.9884 86.0729 65.8765H86.0837ZM51.9635 127.079C51.6946 127.031 51.7199 126.602 51.5201 126.469C51.5201 126.381 51.6437 126.389 51.7273 126.366C51.8342 126.593 51.9135 126.833 51.9635 127.079ZM58.8682 123.147C58.1923 122.644 57.8216 121.745 57.4146 120.893C58.1087 120.992 58.8682 122.141 58.8682 123.14V123.147ZM96.2627 121.719C96.0483 121.657 95.9974 121.385 95.8993 121.172C96.1937 121.136 96.1428 121.536 96.27 121.712L96.2627 121.719ZM96.8587 120.618C96.8587 120.545 96.8587 120.471 96.8296 120.401L97.0477 120.372C97.0877 120.508 97.0259 120.588 96.866 120.596L96.8587 120.618ZM98.6758 118.826C98.6104 118.826 98.6104 118.863 98.6104 118.911H98.4686C98.4686 118.845 98.4286 118.845 98.385 118.845C98.3414 118.845 98.385 118.749 98.3668 118.702C98.4323 118.702 98.4323 118.665 98.4287 118.617L98.574 118.599C98.574 118.661 98.6103 118.665 98.6576 118.665C98.7048 118.665 98.6903 118.757 98.6976 118.804L98.6758 118.826ZM73.0411 76.9077C72.5287 76.2579 73.2482 75.9751 74.0259 75.9677C74.1785 76.1035 74.2003 76.4157 74.3893 76.5112C74.2294 76.6987 74.0182 76.8343 73.7822 76.9009C73.5462 76.9675 73.2959 76.9621 73.0629 76.8855L73.0411 76.9077ZM77.8344 67.7009C77.0349 67.3741 76.6061 66.1555 76.2063 65.5388C76.1839 65.5233 76.1683 65.4994 76.1628 65.4725L76.2063 65.5388C76.2935 65.6085 76.4971 65.645 76.5697 65.7184C76.6424 65.7918 76.4353 65.8138 76.4317 65.8102C76.7297 66.269 77.8126 66.6695 77.8562 67.679L77.8344 67.7009ZM82.4024 65.48C82.1626 65.5791 81.9881 65.3843 81.5811 65.366C80.8543 65.3256 80.1275 65.6929 79.993 64.977C80.3753 64.8049 80.7923 64.7257 81.2104 64.7458C81.4285 64.7752 81.6465 65.0027 81.8246 64.9623C82.4024 64.8449 82.2789 64.1549 82.9439 63.9309C83.0275 64.3898 82.9621 65.2375 82.4243 65.4578L82.4024 65.48Z" fill="#60C9EB"/>
<path d="M35.7738 82.7254H35.9082C35.8416 82.7217 35.7749 82.7217 35.7083 82.7254H35.7738Z" fill="#E96262"/>
<path d="M124.32 165.419C124.109 167.621 115.936 166.292 111.873 170.708C110.351 172.36 107.876 176.677 107.513 177.738C107.392 178.108 107.166 178.432 106.862 178.671C106.553 178.891 106.186 179.012 105.808 179.02C105.635 179.017 105.462 178.991 105.296 178.943C104.442 178.667 104.129 176.854 104.104 176.707C103.686 174.137 104.362 171.982 104.235 170.466C103.871 166.061 96.7412 166.795 90.7886 159.688C89.6402 158.315 88.0485 156.061 85.8899 156.072C85.0976 156.072 84.1382 156.384 82.0668 156.392C81.1474 156.392 80.5187 156.293 80.217 156.318C78.2401 156.495 77.0227 157.5 73.0471 157.787C67.2616 158.213 65.5354 156.392 63.3259 158.043C63.3259 158.043 60.7203 160.008 58.6998 160.804C57.4751 161.289 57.5223 160.955 56.7664 161.362C55.4146 162.096 53.721 166.013 53.721 166.013C52.1475 169.629 51.0247 169.879 51.399 170.785C52.035 172.346 55.2074 171.303 57.704 173.873C58.1038 174.288 59.0559 175.268 58.7688 176.178C58.6289 176.515 58.3972 176.805 58.1006 177.014C57.8041 177.223 57.4549 177.343 57.0935 177.36C56.8863 177.365 56.6801 177.329 56.4866 177.254C56.0578 177.107 53.7975 176.332 53.3069 176.854C52.889 177.305 54.0337 178.395 54.3208 180.892C54.5207 182.668 54.0664 183.19 53.8156 183.381C53.6441 183.504 53.4482 183.589 53.2414 183.63C53.2089 183.668 53.1678 183.698 53.1216 183.716C53.0754 183.735 53.0256 183.742 52.9761 183.737C52.4921 183.713 52.0285 183.533 51.6533 183.223C50.2978 182.056 47.3832 177.349 44.6504 175.727C41.4052 173.807 38.3235 176.215 36.7027 174.06C35.9759 173.084 35.747 171.454 36.4266 170.477C37.6658 168.689 40.6167 170.705 44.4034 169.192C45.8897 168.601 47.3106 166.681 50.1452 162.842C50.9774 161.715 52.0385 160.151 51.5406 159.405C51.4801 159.321 51.405 159.25 51.319 159.193C50.2578 158.393 49.8472 156.781 49.7672 156.524C49.1785 154.688 43.2259 152.512 41.4924 151.807C40.4022 151.363 31.3898 147.343 27.4069 139.869C26.8872 138.896 25.5716 136.198 24.4051 136.403C23.5365 136.547 23.5583 138.162 22.181 138.775C21.6274 138.989 21.027 139.048 20.4431 138.945C19.8591 138.843 19.3133 138.584 18.8631 138.195C17.2896 136.752 18.2489 134.179 17.2968 133.79C16.3447 133.4 15.2799 136.161 12.6779 136.921C9.77067 137.769 6.84158 135.552 6.37278 135.185C3.25839 132.74 2.54985 128.577 2.30274 127.138C1.79033 124.124 2.42265 122.663 1.10711 120.952C0.147721 119.708 -0.709925 119.829 -2.35252 118.749C-2.58147 118.606 -7.72372 115.181 -7.67284 110.101C-7.64014 106.408 -4.88915 103.834 -4.40218 103.372C-1.822 100.96 -0.0920773 101.903 1.06719 100.251C3.61103 96.6136 -3.62816 90.4941 -1.53131 84.8334C-0.259386 81.4157 3.91992 79.7674 6.60186 79.3929C13.5684 78.4275 20.7747 84.7269 23.7437 91.1988C26.9599 98.2177 24.0525 102.983 28.0863 106.342C31.7204 109.381 37.6985 108.478 37.9238 107.605C38.0728 107.017 35.6017 106.532 34.6532 104.124C34.2143 102.92 34.1861 101.602 34.5732 100.38C35.2564 98.1259 37.1171 96.863 37.9093 96.3418C44.5705 91.977 61.6107 91.7862 68.7989 84.3158C76.841 75.9386 74.4171 56.3724 80.0062 51.7653C80.3369 51.4973 81.8233 50.3449 81.627 49.1555C81.3799 47.6871 78.7816 47.7603 76.9609 46.0753C73.8865 43.2413 73.8611 36.1639 76.8483 33.708C79.4902 31.5495 83.3206 33.9795 84.4144 32.3056C86.0207 29.8387 77.8731 24.2808 79.3267 19.2295C80.2098 16.1422 84.5779 13.5874 88.1829 14.6042C91.2428 15.4706 93.2706 18.7082 93.4632 21.3439C93.5686 22.8967 93.0453 24.4094 93.3833 24.5306C93.7212 24.6517 94.2227 23.0619 95.451 22.0487C97.2681 20.5326 100.277 20.6464 101.923 21.3439C107.687 23.7851 110.154 36.8831 105.405 42.5585C103.868 44.394 101.596 45.4219 101.865 46.9306C102.109 48.3109 104.136 48.1935 106.64 49.7757C111.841 53.0538 111.038 58.5494 116.027 60.5537C116.198 60.6235 116.391 60.6857 116.391 60.6857C117.248 60.9807 118.128 61.2054 119.022 61.3575C120.155 61.5594 125.225 62.4589 125.606 64.3825C125.788 65.3112 124.8 66.2767 122.819 68.204C120.762 70.2047 120.246 70.0395 119.628 70.9866C118.287 73.0387 119.469 75.7589 120.864 80.1164C121.893 83.3101 122.496 86.6322 123.499 89.8333C125.988 97.7846 126.613 118.467 116.125 131.407C112.295 136.132 106.517 143.264 101.923 146.3C100.454 147.16 99.235 148.398 98.391 149.887C98.1003 150.437 96.4686 153.099 96.9374 156.017C97.7732 161.322 105.074 165.154 108.708 163.484C111.902 162.016 112.466 157.611 114.915 157.849C116.194 157.967 117.67 159.365 117.593 160.213C117.582 160.578 117.517 160.939 117.401 161.285C117.307 161.538 117.252 161.804 117.237 162.074C117.247 162.119 117.26 162.164 117.277 162.207C117.47 162.673 119.85 162.313 121.369 162.724C122.768 163.146 124.415 164.439 124.32 165.419Z" fill="#E96262"/>
<path d="M35.7738 82.7254H35.9082C35.8416 82.7217 35.7749 82.7217 35.7083 82.7254H35.7738Z" fill="#E96262"/>
</g>
<path d="M64.9736 128.206C99.2006 128.206 126.947 100.178 126.947 65.6029C126.947 31.0283 99.2006 3 64.9736 3C30.7465 3 3 31.0283 3 65.6029C3 100.178 30.7465 128.206 64.9736 128.206Z" stroke="#FFE600" stroke-width="5.56471"/>
</svg>
