<svg width="130" height="131" viewBox="0 0 130 131" fill="none" xmlns="http://www.w3.org/2000/svg">
<mask id="mask0_2_8839" style="mask-type:alpha" maskUnits="userSpaceOnUse" x="4" y="3" width="125" height="126">
<path d="M128.208 65.6021C128.209 69.3368 127.88 73.0642 127.227 76.74C127.205 76.8648 127.187 76.9859 127.161 77.1071C126.276 81.9315 124.826 86.6326 122.843 91.1118C122.504 91.8803 122.149 92.6426 121.778 93.3988C121.294 94.3778 120.78 95.3567 120.237 96.3356C119.823 97.0698 119.393 97.804 118.947 98.5382C116.411 102.666 113.412 106.485 110.009 109.918C109.093 110.836 108.156 111.728 107.185 112.591C103.429 115.934 99.2874 118.808 94.8492 121.148C93.5625 121.823 92.2504 122.456 90.9128 123.046C83.1215 126.462 74.7167 128.219 66.2229 128.207C57.493 128.218 48.86 126.361 40.8931 122.756C40.7404 122.69 40.5878 122.62 40.4388 122.546C37.2363 121.068 34.1658 119.315 31.2613 117.304C29.2432 115.91 27.3084 114.396 25.4675 112.771C25.4441 112.753 25.4223 112.733 25.4022 112.712C25.1878 112.525 24.9769 112.345 24.7697 112.143C19.409 107.275 14.9286 101.501 11.5288 95.0802C10.5076 93.1519 9.58789 91.1705 8.77376 89.1442C8.20918 87.7542 7.69783 86.3358 7.23987 84.8894L7.07642 84.3829L6.79281 83.4504C6.61108 82.8264 6.42938 82.1987 6.27672 81.5673C4.92047 76.3576 4.23631 70.9927 4.24129 65.6059C4.21987 52.2081 8.47445 39.1601 16.3738 28.3969C16.89 27.6921 17.4217 26.9957 17.9693 26.308C18.7617 25.3291 19.5819 24.3649 20.43 23.4153C20.4596 23.3793 20.4912 23.3451 20.5246 23.3126C20.7245 23.0887 20.9315 22.8684 21.1351 22.6481C21.1441 22.6353 21.1552 22.6242 21.1679 22.6151C26.9555 16.4101 33.9404 11.4685 41.6919 8.09507C49.4434 4.72167 57.797 2.98799 66.2374 3.00105C74.6506 2.9913 82.9772 4.71613 90.7075 8.06979C98.4378 11.4235 105.409 16.3353 111.194 22.5049C113.317 24.7619 115.271 27.1754 117.039 29.7257C124.332 40.2369 128.233 52.7668 128.208 65.6021Z" fill="#E96262"/>
</mask>
<g mask="url(#mask0_2_8839)">
<path d="M128.208 65.6021C128.209 69.3368 127.88 73.0642 127.227 76.74C127.205 76.8648 127.187 76.9859 127.161 77.1071C126.276 81.9315 124.826 86.6326 122.843 91.1118C122.504 91.8803 122.149 92.6426 121.778 93.3988C121.294 94.3778 120.78 95.3567 120.237 96.3356C119.823 97.0698 119.393 97.804 118.947 98.5382C116.411 102.666 113.412 106.485 110.009 109.918C109.093 110.836 108.156 111.728 107.185 112.591C103.429 115.934 99.2874 118.808 94.8492 121.148C93.5625 121.823 92.2504 122.456 90.9128 123.046C83.1215 126.462 74.7167 128.219 66.2229 128.207C57.493 128.218 48.86 126.361 40.8931 122.756C40.7404 122.69 40.5878 122.62 40.4388 122.546C37.2363 121.068 34.1658 119.315 31.2613 117.304C29.2432 115.91 27.3084 114.396 25.4675 112.771C25.4441 112.753 25.4223 112.733 25.4022 112.712C25.1878 112.525 24.9769 112.345 24.7697 112.143C19.409 107.275 14.9286 101.501 11.5288 95.0802C10.5076 93.1519 9.58789 91.1705 8.77376 89.1442C8.20918 87.7542 7.69783 86.3358 7.23987 84.8894L7.07642 84.3829L6.79281 83.4504C6.61108 82.8264 6.42938 82.1987 6.27672 81.5673C4.92047 76.3576 4.23631 70.9927 4.24129 65.6059C4.21987 52.2081 8.47445 39.1601 16.3738 28.3969C16.89 27.6921 17.4217 26.9957 17.9693 26.308C18.7617 25.3291 19.5819 24.3649 20.43 23.4153C20.4596 23.3793 20.4912 23.3451 20.5246 23.3126C20.7245 23.0887 20.9315 22.8684 21.1351 22.6481C21.1441 22.6353 21.1552 22.6242 21.1679 22.6151C26.9555 16.4101 33.9404 11.4685 41.6919 8.09507C49.4434 4.72167 57.797 2.98799 66.2374 3.00105C74.6506 2.9913 82.9772 4.71613 90.7075 8.06979C98.4378 11.4235 105.409 16.3353 111.194 22.5049C113.317 24.7619 115.271 27.1754 117.039 29.7257C124.332 40.2369 128.233 52.7668 128.208 65.6021Z" fill="#E96262"/>
<path d="M45.049 107.843C45.776 107.542 46.4266 107.55 47.099 107.385C48.0586 107.15 48.7963 106.492 49.5851 106.393C50.3738 106.294 51.2898 106.507 52.1694 106.441C52.8963 106.39 53.754 106.162 54.5536 106.302C54.7462 106.335 54.8663 106.467 55.0116 106.485C55.277 106.514 55.4333 106.397 55.5932 106.467C56.3747 106.79 56.2329 108.115 56.4437 108.787C56.4764 108.901 56.7127 109.345 56.8581 109.624C57.0943 110.079 57.4904 110.274 57.8611 110.637C58.6935 111.463 59.4894 112.083 60.936 111.914C61.4994 111.845 62.1791 111.423 62.9933 111.584C63.1931 111.66 63.3741 111.779 63.5241 111.932C63.6741 112.085 63.7894 112.27 63.862 112.472C63.9238 112.902 63.6366 113.185 63.5711 113.464C63.5057 113.743 63.5712 113.992 63.5312 114.249C63.4013 114.678 63.2422 115.098 63.055 115.505C63.0078 115.666 63.0551 115.872 63.0078 116.026C62.7316 116.742 62.0774 117.366 61.7867 118.155C61.7394 118.284 61.7866 118.486 61.7357 118.614C61.4231 119.308 60.8198 119.847 60.569 120.413C60.4091 120.78 60.4709 121.316 60.2891 121.727C60.0929 122.193 59.1987 122.795 58.9879 123.339C58.8316 123.746 58.897 124.187 58.8461 124.91C58.8134 125.38 58.4828 126.011 58.6972 126.352C58.7778 126.444 58.8798 126.514 58.9941 126.556C59.1084 126.598 59.2313 126.61 59.3514 126.591C59.7548 126.532 59.8893 125.949 60.2164 125.391C60.7725 124.436 61.543 123.001 60.6853 121.977C60.8561 121.977 60.9615 121.947 60.936 121.775C61.3286 121.143 61.3941 120.391 61.7103 119.789C61.8521 119.524 62.15 119.374 62.3354 119.117C62.6443 118.698 62.7825 118.137 63.0623 117.726C63.2041 117.513 63.4949 117.406 63.6876 117.182C63.8469 116.948 63.9901 116.702 64.1163 116.448C64.8651 115.292 65.6939 114.664 66.1482 113.383C67.5585 112.256 70.5097 112.157 72.4361 112.204C72.4034 112.414 72.487 112.505 72.5161 112.656C73.7737 112.928 75.0057 112.414 75.9979 112.546C76.1906 113.221 75.5437 113.625 75.2057 114.014C75.282 114.381 74.8422 114.561 74.6532 114.947C74.4642 115.332 74.4642 116.165 74.2679 116.856C74.2207 117.017 74.0608 117.168 74.0244 117.318C73.9881 117.469 74.0244 117.755 73.9808 117.972C73.9372 118.188 73.7554 118.368 73.7408 118.504C73.6645 119.15 73.919 119.899 74.2461 120.123C74.5732 120.347 74.7696 120.156 75.1512 120.222C75.3802 120.259 75.5438 120.45 75.8781 120.394C76.3143 120.321 76.7723 119.719 77.0667 119.183C77.4505 118.524 77.7311 117.81 77.8988 117.065C78.2989 116.522 78.6481 115.944 78.942 115.336C79.1892 114.8 79.4909 113.706 80.1125 113.666C80.734 113.625 81.5372 114.925 81.3409 115.718C81.2537 116.085 80.7449 116.121 80.6577 116.521C80.505 117.234 80.9739 118.129 81.4355 118.522C81.6463 118.702 81.948 118.72 82.1624 118.889C82.3769 119.058 82.3151 119.477 82.6931 119.33C82.8821 119.029 82.544 118.875 82.6058 118.548C82.6676 118.221 83.0056 118.104 83.0965 117.748C83.231 117.204 82.9765 116.782 83.0383 116.052C83.3181 115.751 83.4273 115.281 83.7835 115.049C83.7253 114.227 84.1469 113.243 84.0197 112.48C83.9506 112.113 83.5943 111.797 83.5325 111.379C83.369 110.314 84.0124 108.937 84.6048 108.666C86.2695 107.902 87.1782 109.576 88.6393 109.649C88.9446 109.976 88.8392 110.384 89.0028 110.751C89.09 110.945 89.2899 111.008 89.4062 111.195C89.6123 111.574 89.7362 111.993 89.7696 112.425C90.0026 112.556 90.2029 112.74 90.3553 112.961C90.5077 113.182 90.6081 113.436 90.6492 113.702C90.8345 113.702 90.9582 113.776 90.9182 114.022C91.5107 114.191 91.8195 114.671 92.1793 115.094C92.9753 115.314 93.5279 115.828 94.2803 116.136C94.7964 116.345 95.2216 116.301 95.7741 116.415C96.1775 116.5 96.541 116.709 96.948 116.782C97.521 116.908 98.1114 116.933 98.6928 116.856C98.78 116.988 98.809 117.182 99.0271 117.171C99.1839 117.102 99.3556 117.076 99.5256 117.094C99.6957 117.112 99.8583 117.174 99.9975 117.274C100.148 117.301 100.299 117.319 100.452 117.326C100.783 117.483 100.964 117.839 101.248 117.953C101.76 118.155 102.084 117.953 102.48 118.173C102.731 118.338 102.946 118.553 103.11 118.806C103.274 119.059 103.383 119.344 103.432 119.642C103.458 119.814 103.345 120.042 103.389 120.229C103.512 120.761 104.141 121.228 104.221 121.969C104.308 122.781 103.959 123.533 104.366 124.381C104.392 124.432 104.425 124.479 104.465 124.521L123.539 114.708C123.305 114.619 123.086 114.495 122.888 114.341C122.485 113.992 122.234 113.427 121.751 113.137C121.435 113.007 121.108 112.908 120.773 112.843C119.319 112.34 117.658 112.711 116.412 113.24C115.51 113.607 114.645 114.539 114.409 113.24L114.343 113.276L114.278 113.247C113.984 113.247 113.824 113.045 113.94 112.799C114.162 112.74 114.216 112.862 114.333 112.917L114.398 112.946L114.463 112.979C114.578 112.56 114.787 112.172 115.074 111.848C115.096 111.639 114.947 111.621 114.994 111.393C115.349 110.617 115.604 109.797 115.754 108.956C115.816 108.401 115.579 107.818 115.634 107.322C115.746 106.969 115.908 106.635 116.117 106.331C116.59 105.487 116.87 105.564 117.716 105.887C117.964 106.089 118.098 106.448 118.443 106.647C118.963 106.94 120.097 106.922 120.112 106.401C120.112 106.213 119.523 105.788 119.185 105.644C118.565 105.409 117.89 105.363 117.244 105.512C117.044 105.226 116.59 105.395 116.324 105.083C116.161 104.888 116.219 104.62 116.044 104.371C115.954 105.064 115.165 104.158 115.445 103.805C115.761 103.67 115.903 104.349 115.968 104.047C115.379 103.2 115.75 101.243 116.924 101.731C116.375 100.924 116.004 99.8664 116.644 99.0625C117.629 97.829 120.101 97.3151 122.318 96.8599C122.747 96.7718 123.212 96.6762 123.601 96.6211C124.48 96.5036 125.029 96.9883 125.618 97.1461C125.956 97.2416 126.345 97.1976 126.658 97.3114C126.85 97.3848 126.93 97.5169 127.119 97.5573C127.864 97.7188 128.915 97.4398 129.576 97.6747C129.863 97.7775 130.219 98.0675 130.561 98.2327C131.083 98.4907 131.589 98.7799 132.077 99.099C132.244 99.2092 132.4 99.3964 132.542 99.4661C132.931 99.6901 133.378 99.7562 133.654 99.9508C134.018 100.215 134.138 100.59 134.458 100.777C134.657 100.894 134.934 100.887 135.184 101.015C135.592 101.232 135.94 101.419 136.366 101.632C136.573 101.731 136.729 101.999 136.965 102.135C137.082 102.205 137.274 102.168 137.42 102.253C137.671 102.388 137.878 102.667 138.147 102.748C138.687 102.903 139.212 103.106 139.717 103.354C140.109 103.548 140.484 103.611 140.891 103.772C141.225 103.904 141.454 104.169 141.749 104.268C142.275 104.426 142.82 104.513 143.37 104.525L147.786 102.253C147.79 101.938 147.724 101.627 147.593 101.342C147.23 101.342 146.823 101.405 146.681 101.173C146.655 100.854 147.044 100.938 147.186 100.766C146.459 99.7158 144.922 99.8406 143.599 99.6387C143.286 99.591 142.984 99.4259 142.686 99.4075C141.821 99.3524 140.567 99.5873 139.971 99.2973C139.124 98.8861 138.379 98.2474 137.471 97.873C136.904 97.6417 136.22 97.6785 135.653 97.4729C135.29 97.3481 135.014 96.9772 134.603 96.9185C134.595 96.7173 134.518 96.5252 134.385 96.3747C134.253 96.2241 134.073 96.1245 133.876 96.0925C133.774 95.3583 133.149 95.2225 132.735 94.8224C132.709 94.3341 132.273 94.2864 132.189 93.8605C132.105 93.8888 132.016 93.8982 131.927 93.8878C131.839 93.8773 131.754 93.8474 131.679 93.8001C131.603 93.7529 131.539 93.6892 131.49 93.6141C131.441 93.5389 131.41 93.454 131.397 93.3651C131.826 92.7704 131.168 92.3776 131.277 91.6691C131.404 90.8431 132.986 90.0576 133.934 90.0833C134.655 90.1294 135.361 90.306 136.02 90.6045C136.438 90.8174 136.693 91.1625 137.14 91.2873C138.823 91.7645 140.506 91.0487 139.924 89.5032C139.79 89.1545 139.466 89.0737 139.379 88.6699C138.943 88.6442 138.59 88.2293 138.132 88.1228C137.769 88.0347 137.322 88.1632 136.969 88.0935C135.944 87.8915 134.952 87.2676 134.839 86.137C134.817 85.891 135.017 85.4027 134.992 84.8925C134.926 83.6076 135.261 83.1414 136.082 82.5687C136.446 82.3117 137.085 82.1612 137.351 81.8125C137.547 81.5481 137.412 81.159 137.714 80.8874C137.434 80.1311 137.056 79.4777 136.74 78.7619C136.602 78.6224 136.555 78.7986 136.351 78.7619C136.529 78.5196 136.304 78.4315 136.209 78.3765C136.031 78.27 135.879 77.9176 135.806 77.8662C135.384 77.5541 134.632 77.6423 134.352 77.1908C134.319 76.9301 134.567 76.93 134.661 76.7905C134.214 76.6767 134.512 76.3133 134.639 76.0563C134.503 75.6368 134.294 75.2453 134.021 74.9C134.385 74.621 134.505 74.0299 134.886 73.7619C135.461 73.3581 136.704 73.3472 137.587 73.4133C138.009 73.4464 138.47 73.6849 138.888 73.6996C139.397 73.7216 139.939 73.4132 140.298 73.3948C140.82 73.4067 141.34 73.4559 141.854 73.5418C142.865 73.6666 143.951 73.3105 144.762 73.3839C144.911 73.3839 145.093 73.5382 145.285 73.5639C145.952 73.6071 146.621 73.5861 147.284 73.5013C149.095 73.4046 150.911 73.4563 152.714 73.6557C153.033 73.7022 153.341 73.8025 153.627 73.9528C153.808 74.1254 153.761 74.4669 153.91 74.6652C154.303 75.0739 154.724 75.453 155.171 75.7994C156.069 76.5777 156.538 77.0328 157.716 77.0255C159.638 77.0255 160.481 76.4308 161.477 75.5351C162.2 74.9507 162.792 74.2189 163.215 73.3875C163.756 72.3266 163.855 71.71 163.942 70.1021C163.964 69.713 164.029 69.2945 164.069 68.8943L162.43 65.6419C161.612 65.0949 160.525 64.9479 159.253 64.959C158.433 64.9976 157.628 65.2012 156.887 65.5575C156.607 65.6896 156.4 65.9649 156.127 66.1008C155.223 66.4978 154.425 67.1054 153.797 67.8739C153.263 68.6081 153.096 69.6028 152.918 70.5792C152.554 70.7261 152.234 71.3135 151.718 71.4016C151.653 71.4016 151.482 71.2915 151.391 71.2805C150.617 71.1887 149.748 71.42 149.072 71.486C148.171 71.5705 147.117 71.3942 146.426 71.5043C145.784 71.6053 145.131 71.6053 144.489 71.5043C143.932 71.4251 143.367 71.4251 142.81 71.5043C142.392 71.5337 141.887 71.4309 141.52 71.4823C141.152 71.5337 140.727 71.776 140.367 71.8494C139.904 71.9626 139.43 72.0217 138.954 72.0256C138.797 72.0256 138.532 71.8347 138.227 71.787C137.627 71.6879 136.969 71.787 136.409 71.6475C135.85 71.5081 135.468 70.9685 134.828 70.7189C134.189 70.4692 133.603 70.4324 133.134 70.1827C132.629 69.9416 132.194 69.5739 131.87 69.1146C131.463 68.4795 131.248 67.4406 131.539 66.8385C131.971 65.9428 133.596 66.7137 134.367 66.4714C134.478 66.4132 134.584 66.3443 134.683 66.2658C134.87 66.1764 135.033 66.0454 135.162 65.8826C135.292 65.7198 135.382 65.5295 135.428 65.3261C134.937 65.3261 134.774 64.959 134.567 64.636C134.003 64.4084 132.873 64.2689 132.535 63.7182C132.044 62.9179 132.931 61.4679 133.28 60.8879C133.447 60.6126 133.549 60.3005 133.643 60.1537C134.218 59.3094 135.312 58.8872 136.166 58.3182C136.529 58.0612 136.965 57.6428 137.423 57.2978C138.314 56.6333 139.241 56.0202 140.073 55.3888C140.536 55.0775 140.978 54.7353 141.396 54.3646C141.814 53.913 142.123 52.7199 142.61 52.0408C142.748 51.8389 142.973 51.7838 143.05 51.637C143.199 51.3947 143.184 51.1158 143.286 50.9763C143.511 50.6569 143.915 50.5578 144.231 50.2935C145.47 49.2473 146.594 47.9551 147.669 46.8538C148.08 46.4316 148.673 46.1195 148.658 45.5175C147.829 45.4624 147.222 46.0828 146.623 46.4279C146.023 46.7729 145.307 47.1621 144.66 47.6027C144.013 48.0432 143.544 48.6672 142.897 49.027C142.392 49.3133 141.647 49.2693 141.044 49.5446C140.815 49.6474 140.68 49.8786 140.477 49.952C140.328 50.0071 140.113 49.9777 139.96 50.0365C139.161 50.3742 138.812 51.1048 138.336 51.6554C137.765 52.3162 137.049 52.8448 136.46 53.4909C135.98 54.0012 135.653 54.673 135.159 55.1649C134.977 55.3448 134.69 55.532 134.465 55.7082C133.998 56.0764 133.513 56.4194 133.011 56.736C132.757 56.8975 132.429 56.971 132.186 57.1545C132.015 57.2794 131.939 57.4849 131.75 57.6244C131.016 58.1132 130.227 58.5102 129.398 58.8065C128.842 59.0107 128.259 59.1343 127.668 59.1736C126.018 59.2764 124.651 57.8483 124.084 56.2845C123.912 55.6024 123.804 54.9056 123.761 54.2031C123.612 52.9439 123.397 51.9307 123.514 50.6862C123.579 50.0915 124.339 49.6768 124.691 49.1445C124.837 48.928 124.964 48.5937 125.116 48.3478C125.295 48.1131 125.46 47.868 125.611 47.6136C125.898 46.9161 125.734 46.2627 125.927 45.4478C125.985 45.1945 126.207 44.9301 126.349 44.5227C126.043 44.3208 126.403 44.0381 126.32 43.6746L126.258 43.7078L126.189 43.6784H126.062C126.062 43.594 125.978 43.5902 125.992 43.4837C126.076 43.4617 126.112 43.3884 126.247 43.4104L126.298 43.3554H126.374C126.374 42.2064 125.956 41.2556 124.764 41.5199C124.462 41.586 124.255 41.9677 123.946 42.1329C122.536 42.8855 120.777 42.1329 121.177 40.459C120.846 40.4406 120.922 40.804 120.606 40.804C120.242 40.2754 120.391 39.3356 120.537 38.6491C120.613 38.4766 120.926 38.6895 120.922 38.572C120.871 37.8892 120.948 36.788 121.286 36.2741C121.336 35.6463 121.228 34.9746 121.417 34.3762C121.573 33.8806 122.049 33.3335 122.398 32.8453C122.797 32.3776 123.17 31.8874 123.514 31.3769C123.71 31.0098 123.812 30.6243 124.055 30.2535C124.535 29.5193 124.906 28.7851 125.342 28.0509C125.591 27.7126 125.815 27.3569 126.014 26.9864C126.094 26.7661 126.043 26.4432 126.12 26.2009C126.243 25.7898 126.538 25.3345 126.458 24.7508C126.094 24.4755 126.094 23.991 125.782 23.7928C125.171 23.4257 124.008 23.6386 123.466 24.0607C123.274 24.2623 123.108 24.4881 122.972 24.7326C122.793 24.9441 122.628 25.1673 122.478 25.4006C122.387 25.5842 122.445 25.8154 122.365 25.9916C122.285 26.1678 122.027 26.3587 121.933 26.5275C121.687 27.0365 121.489 27.5675 121.34 28.1135C120.925 28.4617 120.586 28.8945 120.348 29.3836C120.297 29.5231 120.402 29.692 120.348 29.8425C120.293 29.993 120.133 30.0627 120.104 30.2426C120.075 30.4225 120.163 30.6097 120.123 30.83C119.999 31.4798 119.552 32.0119 119.396 32.5479C119.341 32.7498 119.425 33.0031 119.352 33.205C119.174 33.7043 118.661 34.1779 118.305 34.7395C118.08 35.1066 117.942 35.6059 117.698 35.8702C117.295 36.2777 116.67 36.509 116.244 36.8945C116.121 37.0083 116.048 37.2432 115.939 37.3607C115.525 37.7902 114.972 38.0618 114.554 38.462C114.088 38.96 113.693 39.5209 113.38 40.1286C113.039 40.727 112.737 41.3326 112.344 41.9273C112.203 42.9699 111.886 43.8547 111.196 44.3796C110.832 45.246 109.455 46.8685 107.856 46.8355C107.423 46.8355 106.296 46.4684 105.958 46.1013C105.847 45.9181 105.754 45.7237 105.682 45.5212C105.646 45.1725 106.002 45.0293 105.849 44.6659C106.201 44.3106 106.604 44.0122 107.045 43.7811C107.481 43.5315 108.081 43.37 108.444 43.0837C109.03 42.6175 109.28 41.9054 109.742 41.3437C109.779 41.0068 109.855 40.6753 109.967 40.3561C109.579 39.6219 108.655 38.8328 107.732 39.0567C107.452 39.1228 107.191 39.5596 106.849 39.7909C106.436 40.0858 106.077 40.451 105.788 40.8701C105.551 41.1895 105.45 41.5455 105.242 41.8686C105.104 42.0741 104.795 42.2356 104.613 42.4742C104.392 42.7606 104.308 43.0653 104.123 43.2084C103.896 43.3201 103.662 43.4146 103.421 43.4911C102.785 43.7884 102.793 43.8326 102.135 43.6637C101.324 43.4545 100.681 43.3333 100.234 42.8083C99.6231 42.9368 98.9544 42.5991 98.5437 42.4706C98.133 42.3422 97.7732 42.3972 97.377 42.3127C96.6661 42.1223 95.9839 41.8359 95.3488 41.4611C94.5783 42.0044 93.9931 41.2041 93.397 41.0646C93.0662 40.9875 92.6192 41.1601 92.2376 41.1014C91.9722 41.061 91.7542 40.8922 91.5106 40.8628C91.1835 40.8261 90.8056 40.9912 90.4785 40.8958C90.0568 42.1402 88.0723 42.243 87.5707 40.9876C87.6035 40.4039 87.7634 39.8863 87.5707 39.2879C87.4762 38.9869 87.1818 38.7593 87.0946 38.4546C87.0794 38.2813 87.0732 38.1073 87.0763 37.9334C86.92 37.1037 86.2695 36.7402 85.9206 36.1418C85.8009 36.2777 85.6535 36.386 85.4885 36.4589C85.3234 36.5318 85.1448 36.5676 84.9647 36.5641C84.8993 36.3549 85.1282 36.4246 85.15 36.2961C84.532 36.3114 83.9195 36.4189 83.3327 36.6154C82.9329 36.7071 82.435 36.6338 82.1115 36.7183C81.6535 36.8394 81.3519 37.3019 81.0211 36.9495C80.9666 36.3768 80.7885 35.9107 80.7776 35.4555C80.7776 35.2058 80.9593 34.9157 80.9448 34.6661C80.923 34.2806 80.5813 33.8585 80.9084 33.4914C80.9084 33.2785 80.6104 33.3593 80.6976 33.0399C80.8939 32.838 80.8756 33.2455 81.0937 33.2235C81.3808 32.6655 81.5918 32.247 81.49 31.5789C81.4537 31.3513 81.2609 31.2118 81.2137 30.9988C81.1733 30.817 81.1648 30.6293 81.1883 30.4444L64.7488 38.8877C64.956 39.3062 65.0215 39.9486 65.2541 40.4405C65.6176 41.2004 66.0609 42.0448 66.4244 42.6872C66.9308 42.8664 67.3557 43.2251 67.6202 43.6967C68.1108 43.983 68.7105 44.0639 69.1903 44.3649C69.2993 44.4273 69.383 44.519 69.5211 44.6144C69.8337 44.831 70.1427 44.9008 70.4407 45.1101C70.5819 45.214 70.6983 45.3483 70.7818 45.5031C70.8654 45.658 70.914 45.8296 70.924 46.0057C71.3481 45.9405 71.781 45.9641 72.1956 46.0753C72.6102 46.1865 72.9977 46.3828 73.3339 46.6519C73.8282 47.0998 73.6719 46.9639 73.6246 47.6871C73.5794 48.1771 73.487 48.6616 73.3485 49.1334C73.2685 49.5703 73.3483 50.1063 73.2647 50.5065C73.2065 50.8075 72.9012 51.09 72.9012 51.2993C72.9012 51.6003 73.1411 51.872 73.1884 52.1399C73.003 52.4556 73.0212 53.0101 72.7777 53.4579C72.6832 53.6341 72.4616 53.7368 72.3417 53.9313C71.9782 54.5003 71.6147 55.3998 70.8369 55.3485C70.3971 55.3228 70.4006 54.8895 69.8554 54.9226C69.6301 54.9997 69.6592 55.319 69.4229 55.4585C69.3248 55.5172 69.1976 55.4401 69.1031 55.5356C68.9432 55.6898 68.9432 55.9028 68.7397 56.068C68.1618 56.4754 67.1949 56.4607 66.4389 56.8021C65.7665 57.0995 65.3266 57.5547 64.7233 57.7052C64.6252 57.8043 64.3999 57.6574 64.1454 57.7235C63.9092 58.421 63.055 58.4577 62.5026 58.8248C62.1973 59.0157 62.1027 59.3755 61.7465 59.4342C61.4812 60.5942 60.6053 61.178 59.3587 61.4056C59.0423 61.801 58.6867 62.1627 58.2974 62.4848C57.9157 62.7932 57.2869 63.0207 57.0325 63.3732C56.9416 63.6317 56.8652 63.8952 56.8036 64.1624C56.6637 64.3972 56.5422 64.6427 56.4401 64.8966C56.3529 65.3775 56.48 65.9428 56.3674 66.5338C56.2673 66.6265 56.1887 66.7405 56.1372 66.8674C56.0857 66.9943 56.0625 67.131 56.0694 67.268C55.9313 67.3084 55.8876 67.4333 55.6841 67.4112C55.9385 67.826 55.4841 68.0134 55.3932 68.3327C55.3023 68.6521 55.455 68.8246 55.2878 69.122C55.2878 69.3569 55.5495 69.2908 55.5604 69.4891C55.4368 69.5845 55.4441 69.8047 55.2479 69.8268C55.5095 70.0947 55.3061 70.4949 55.4115 70.8657C55.4914 71.1557 55.7749 71.3503 55.8222 71.6366C55.9575 72.5637 55.7849 73.5098 55.3314 74.3273C55.0843 74.2869 55.0262 74.4191 54.8154 74.4117C54.7935 74.6173 55.0189 74.5513 54.9572 74.7973C54.3356 74.8597 54.2083 75.5315 54.4845 76.1189C54.9425 75.8949 55.1934 76.486 55.4732 76.6769C55.7422 76.6365 55.8113 76.4088 56.1748 76.4566C56.1748 77.2532 57.3597 76.8015 57.2652 77.7303C57.9921 77.9175 58.6789 77.9065 59.2859 78.3177C59.3113 78.5893 59.2096 78.5783 59.2859 78.7766C59.8311 79.0382 60.308 79.4255 60.678 79.9072C61.0414 80.4799 60.7399 80.7809 60.3328 81.093C59.9257 81.405 59.3514 81.5115 59.1987 81.9777C58.8898 82.9102 59.6894 83.4461 59.8494 84.1803C59.9257 84.5254 59.7039 84.6281 59.882 85.1604C59.882 85.3844 59.5549 85.2705 59.5695 85.4981C59.4386 86.1809 58.9442 86.504 58.4608 87.0327C58.1625 87.2973 57.891 87.5911 57.6503 87.9099C57.5304 88.1412 57.6213 88.468 57.4796 88.6993C56.8726 89.6868 54.6264 89.3307 54.4519 90.8175C54.2229 92.7521 56.5854 92.44 57.6322 93.266C57.6904 93.6331 58.0139 93.7431 58.1084 94.0331C58.2029 94.3232 58.0465 94.5213 58.0065 94.8848C58.0247 95.1601 58.2865 95.1675 58.2211 95.5309C57.7013 96.3936 57.6976 97.5609 57.2178 98.3722C57.116 98.541 56.8908 98.6513 56.7817 98.8422C56.5673 99.2093 56.5019 99.7563 56.2438 100.164C56.1602 100.3 55.9494 100.322 55.8804 100.439C55.6963 100.759 55.5347 101.091 55.3969 101.434C55.2406 101.874 55.2007 102.799 55.0626 103.141C54.7754 103.857 53.656 104.264 52.7836 104.455C51.9949 104.628 51.1443 104.532 50.4646 104.661C49.7849 104.789 49.1744 105.263 48.6146 105.369C48.5056 105.391 48.3348 105.307 48.2258 105.318C47.4589 105.402 47.03 105.894 46.3794 106.096C45.8324 106.237 45.2648 106.277 44.7039 106.214C44.2694 106.219 43.841 106.316 43.4463 106.5L44.2967 108.188C44.5766 108.071 44.8201 107.935 45.049 107.843ZM60.7144 122.894C60.7144 122.949 60.6525 122.96 60.6562 123.027H60.5254C60.5254 122.964 60.5254 122.898 60.5254 122.832C60.6235 122.81 60.6344 122.891 60.7144 122.891V122.894ZM117.945 113.776C117.582 114.583 116.226 115.079 115.27 114.903C115.895 114.271 116.848 113.952 117.945 113.772V113.776ZM156.153 68.094C156.228 67.8769 156.384 67.6977 156.587 67.5937C156.79 67.4897 157.025 67.469 157.243 67.536C157.211 67.6469 157.156 67.75 157.083 67.8387C157.01 67.9275 156.919 68.0001 156.817 68.052C156.715 68.104 156.603 68.1342 156.489 68.1408C156.374 68.1474 156.26 68.1303 156.153 68.0904V68.094ZM160.649 69.3238C160.649 69.6909 160.122 69.7717 159.82 69.6909C159.675 69.1329 160.478 68.9935 160.649 69.3202V69.3238ZM67.8383 101.904C68.02 102.139 67.4311 102.186 67.2058 102.249C67.2676 101.988 67.7183 102.084 67.8383 101.9V101.904ZM129.991 67.2865C129.991 67.459 129.991 67.6352 129.991 67.8077C129.826 67.9376 129.625 68.0121 129.416 68.0207C129.34 67.8833 129.293 67.7317 129.277 67.5752C129.26 67.4188 129.276 67.2606 129.322 67.1103C129.437 67.0935 129.555 67.1 129.668 67.1296C129.781 67.1593 129.887 67.2113 129.98 67.2827L129.991 67.2865ZM79.2982 31.7257C79.3636 31.4907 79.7345 31.5495 79.869 31.3806C79.9453 31.3806 79.927 31.498 79.9416 31.5751C79.7301 31.6505 79.5105 31.6998 79.2874 31.7219L79.2982 31.7257ZM82.1587 38.2307C82.6567 37.6691 83.4745 37.4121 84.2559 37.1294C84.0924 37.7205 83.0238 38.3077 82.1479 38.2343L82.1587 38.2307ZM80.2905 71.7284C80.3595 71.5412 80.6032 71.5191 80.7995 71.4531C80.8031 71.7027 80.4396 71.6402 80.2796 71.7246L80.2905 71.7284ZM81.2137 72.3523H81.4064C81.4064 72.4184 81.4064 72.4845 81.4064 72.5506C81.261 72.5543 81.1956 72.4919 81.2029 72.3488L81.2137 72.3523ZM82.6276 74.1364C82.6276 74.0813 82.6021 74.0777 82.5621 74.074C82.5221 74.0703 82.5621 73.986 82.5621 73.9419C82.5621 73.8979 82.6202 73.9161 82.6239 73.8758H82.7511C82.7511 73.9308 82.7802 73.9345 82.8202 73.9381C82.8601 73.9418 82.8202 74.0264 82.8202 74.0704C82.7656 74.0704 82.7584 74.096 82.7584 74.1364H82.6276ZM121.442 54.7573C122.056 54.3535 122.238 55.018 122.169 55.7118C122.034 55.8403 121.762 55.833 121.66 55.9909C121.504 55.8313 121.399 55.6283 121.358 55.4078C121.317 55.1873 121.342 54.9594 121.431 54.7537L121.442 54.7573ZM129.096 59.8049C129.46 59.1184 130.55 58.8358 131.125 58.5274C131.141 58.5099 131.163 58.4995 131.186 58.4982L131.125 58.5274C131.056 58.6008 131.008 58.7807 130.939 58.8321C130.87 58.8835 130.863 58.7036 130.867 58.7036C130.412 58.9092 129.972 59.8417 129.085 59.8013L129.096 59.8049ZM130.659 64.067C130.59 63.8431 130.776 63.6999 130.826 63.3328C130.921 62.6794 130.663 62.0076 131.299 61.9489C131.416 62.3033 131.451 62.68 131.401 63.0502C131.357 63.241 131.139 63.4171 131.157 63.5823C131.215 64.1073 131.83 64.0559 131.968 64.6836C131.532 64.691 130.794 64.5588 130.648 64.0633L130.659 64.067Z" fill="#E9AD62"/>
<path d="M156.164 103.212C155.953 105.444 147.681 104.096 143.567 108.564C142.025 110.234 139.536 114.606 139.147 115.678C139.023 116.051 138.795 116.379 138.489 116.622C138.176 116.847 137.804 116.975 137.42 116.989C137.246 116.987 137.072 116.961 136.904 116.912C136.039 116.633 135.723 114.797 135.698 114.651C135.272 112.055 135.959 109.878 135.832 108.329C135.469 103.865 128.243 104.618 122.238 97.4226C121.079 96.0313 119.469 93.7516 117.281 93.7516C116.478 93.7516 115.511 94.0673 113.414 94.0746C112.483 94.0746 111.847 93.9719 111.542 93.9976C109.543 94.1774 108.311 95.1981 104.272 95.4918C98.4135 95.9249 96.6687 94.0784 94.4334 95.7524C94.4334 95.7524 91.7948 97.7383 89.7485 98.546C88.5091 99.0342 88.5599 98.7001 87.7967 99.1113C86.4264 99.8455 84.7108 103.817 84.7108 103.817C83.1188 107.488 81.9849 107.727 82.3592 108.648C83.0062 110.223 86.2156 109.17 88.7417 111.772C89.1451 112.187 90.1083 113.182 89.8321 114.104C89.6907 114.444 89.4569 114.736 89.1579 114.948C88.8588 115.16 88.5068 115.282 88.142 115.3C87.9309 115.304 87.721 115.267 87.5241 115.19C87.0915 115.043 84.8053 114.258 84.3074 114.786C83.8821 115.241 85.0343 116.347 85.336 118.88C85.5359 120.678 85.0742 121.203 84.8235 121.398C84.6478 121.522 84.4486 121.608 84.2383 121.651C84.2058 121.689 84.1647 121.719 84.1185 121.737C84.0723 121.756 84.0224 121.763 83.973 121.758C83.4823 121.733 83.0122 121.55 82.6318 121.236C81.2616 120.058 78.3102 115.286 75.5479 113.652C72.2767 111.71 69.1437 114.148 67.5009 111.967C66.7558 110.976 66.5377 109.328 67.221 108.34C68.4786 106.534 71.4625 108.571 75.2971 107.041C76.8018 106.442 78.2339 104.5 81.1125 100.613C81.9557 99.4747 83.0316 97.8926 82.5264 97.1364C82.4656 97.0513 82.3891 96.979 82.301 96.9234C81.2288 96.1121 80.8145 94.4821 80.7309 94.2215C80.1385 92.3566 74.1232 90.165 72.3713 89.4492C71.2809 89.005 62.147 84.9339 58.1161 77.3717C57.5891 76.3879 56.259 73.6678 55.0814 73.866C54.2018 74.0128 54.2235 75.6427 52.8278 76.2631C52.2679 76.4808 51.6601 76.5415 51.0689 76.4387C50.4776 76.336 49.9249 76.0736 49.4693 75.6794C47.8774 74.2111 48.8479 71.6156 47.8847 71.2228C46.9215 70.83 45.8421 73.6201 43.2106 74.391C40.2702 75.25 37.3006 73.0034 36.8317 72.6326C33.6805 70.1584 32.9572 65.9403 32.7101 64.4903C32.1903 61.4397 32.8336 59.9641 31.4997 58.2314C30.5292 56.9722 29.6824 57.0933 27.9996 56.0103C27.767 55.8635 22.5659 52.4017 22.6131 47.255C22.6458 43.5216 25.4298 40.9152 25.9278 40.449C28.5411 38.0078 30.2893 38.9808 31.4633 37.2921C34.0403 33.6211 26.7129 27.4172 28.8355 21.7052C30.1185 18.2434 34.3638 16.5658 37.0643 16.1987C44.1155 15.2185 51.4139 21.5912 54.4125 28.1439C57.6655 35.2472 54.7288 40.0673 58.8069 43.4666C62.4997 46.5429 68.5367 45.6252 68.762 44.7441C68.9147 44.1494 66.4142 43.6429 65.4401 41.2237C64.9934 40.0044 64.9652 38.6689 65.36 37.4316C66.0506 35.1519 67.9442 33.8744 68.7329 33.3605C75.4752 28.9553 92.7215 28.7496 99.9908 21.1911C108.132 12.7111 105.679 -7.07543 111.334 -11.7486C111.669 -12.0202 113.174 -13.1839 112.974 -14.388C112.727 -15.8894 110.095 -15.8012 108.249 -17.5046C105.138 -20.3753 105.112 -27.5448 108.133 -30.019C110.811 -32.2216 114.675 -29.7473 115.791 -31.4433C117.419 -33.9359 109.194 -39.5599 110.655 -44.6588C111.549 -47.7828 115.972 -50.3635 119.618 -49.3356C122.715 -48.4619 124.775 -45.1838 124.961 -42.5186C125.07 -40.9438 124.539 -39.4167 124.881 -39.2918C125.222 -39.167 125.731 -40.7603 126.974 -41.8065C128.824 -43.341 131.859 -43.2235 133.517 -42.5186C139.354 -40.0481 141.847 -26.7923 137.046 -21.0472C135.487 -19.1823 133.19 -18.1544 133.462 -16.6236C133.706 -15.2286 135.759 -15.3497 138.293 -13.7492C143.556 -10.4453 142.741 -4.86908 147.79 -2.8427C147.968 -2.77296 148.172 -2.70684 148.172 -2.70684C149.04 -2.40682 149.931 -2.17982 150.836 -2.02785C151.984 -1.82594 157.113 -0.926434 157.498 1.03387C157.683 1.97364 156.684 2.95004 154.678 4.89933C152.599 6.92204 152.075 6.76415 151.45 7.71494C150.091 9.79271 151.286 12.5496 152.7 16.9548C153.74 20.1852 154.35 23.5626 155.365 26.7857C157.883 34.8325 158.516 55.7534 147.903 68.8551C144.028 73.6274 138.18 80.8518 133.528 83.9244C132.042 84.7967 130.809 86.049 129.955 87.5551C129.66 88.1094 128.01 90.8039 128.475 93.759C129.322 99.126 136.712 103.003 140.39 101.314C143.621 99.8271 144.195 95.3816 146.671 95.6092C147.964 95.7267 149.462 97.1473 149.382 98.0027C149.372 98.3777 149.306 98.749 149.186 99.104C149.094 99.3604 149.037 99.6284 149.018 99.9005C149.03 99.9454 149.045 99.9895 149.062 100.033C149.258 100.51 151.664 100.143 153.206 100.558C154.583 100.91 156.259 102.221 156.164 103.212Z" fill="#60C9EB"/>
</g>
<path d="M64.9832 128.206C99.2157 128.206 126.967 100.178 126.967 65.6029C126.967 31.0283 99.2157 3 64.9832 3C30.7508 3 3 31.0283 3 65.6029C3 100.178 30.7508 128.206 64.9832 128.206Z" stroke="white" stroke-width="5.56471"/>
</svg>
