<svg width="128" height="127" viewBox="0 0 128 127" fill="none" xmlns="http://www.w3.org/2000/svg">
<path d="M30.1007 12.9131C41.5444 5.70142 55.0474 2.46547 68.5168 3.7067C91.5329 5.58983 104.819 19.0229 111.661 25.3837C118.504 31.7445 124.843 47.3117 126.496 53.2122C128.149 59.1126 126.726 81.4801 120.847 88.5523C114.967 95.6245 98.9187 124.374 72.7223 123.662C46.5258 122.951 31.0214 120.838 19.4715 105.752C7.92165 90.6656 1.30989 77.5674 1.56098 67.3775C1.81206 57.1877 4.84596 41.1811 11.4578 32.707C18.0697 24.2329 25.5602 15.5704 30.1007 12.9131Z" fill="#FFE600"/>
<path d="M91.4283 73.6561C83.5829 70.0264 76.0644 65.7281 68.9562 60.8089C73.141 56.4986 77.3257 52.2302 81.5104 48.0454C86.9506 42.7308 78.6021 34.4032 73.141 39.676C68.3913 44.321 63.7461 49.0498 59.1429 53.8413C54.7698 50.5772 50.4806 47.2085 46.2122 43.8189C40.3326 39.1738 31.9213 47.4596 37.8427 52.1884C42.1948 55.6408 46.5677 59.0932 51.0035 62.4619C46.0655 67.7974 41.1903 73.2167 36.3569 78.7406C31.5235 84.2644 39.7466 92.8222 44.7264 87.11C49.7062 81.3979 55.1884 75.2672 60.5239 69.4922C68.3048 75.022 76.5766 79.8267 85.2349 83.8459C92.3281 86.9426 98.3331 76.7737 91.4283 73.6561Z" fill="#E96262"/>
<path d="M113.311 24.5682C104.906 14.9003 93.9603 7.78174 81.7147 4.02042C69.4692 0.259111 56.4145 0.00561675 44.0322 3.28872C19.4049 10.0889 1.28502 32.3727 -2 57.251L-1.47691 57.0836C-2.312 65.9901 -1.25225 74.9725 1.63279 83.4401C4.51782 91.9077 9.16278 99.6686 15.2621 106.212L15.0738 106.568C16.0363 107.405 17.0198 108.2 18.0241 108.995L18.4844 109.456C18.7318 109.686 19.0238 109.864 19.3423 109.979C26.4847 115.325 34.3548 119.623 42.7139 122.742C68.1572 132.179 98.0781 121.529 114.44 100.563C122.902 89.647 127.4 76.1777 127.194 62.3676C126.989 48.5575 122.093 35.2278 113.311 24.5682ZM112.704 94.3068C98.413 115.586 69.4545 126.885 44.8901 118.244C36.6469 115.333 28.8881 111.2 21.874 105.982V105.982C14.9284 99.566 9.64905 91.5554 6.49208 82.6422C3.33512 73.7291 2.39535 64.1814 3.75402 54.8238C3.83946 54.445 3.83946 54.0519 3.75402 53.673C5.6625 44.4417 9.69981 35.7835 15.5445 28.3877C21.3893 20.9918 28.8799 15.0627 37.4202 11.0723C59.2436 1.17543 86.6956 6.30174 104.23 22.3502C113.977 31.3717 120.186 43.575 121.739 56.7655C123.293 69.9559 120.089 83.2678 112.704 94.3068Z" fill="#E96262" stroke="#E96262" stroke-width="1.39118"/>
</svg>
