<svg width="301" height="90" viewBox="0 0 301 90" fill="none" xmlns="http://www.w3.org/2000/svg">
<path d="M11.0058 6.80622C11.0058 6.80622 116.639 5.25354 127.597 5.25354C138.554 5.25354 193.165 5.6608 205.37 6.02988C217.576 6.39896 260.872 6.80622 260.872 6.80622L291.735 8.07891L294.891 7.4171C294.891 7.4171 289.164 14.9896 288.299 19.3676C287.433 23.7457 287.23 30.1855 289.801 32.7181C291.663 34.6515 293.366 36.7328 294.891 38.9416L284.264 43.1796C284.264 43.1796 286.161 49.543 288.515 52.0884C291.34 54.6798 294.347 57.0658 297.513 59.2282C297.513 59.2282 288.299 63.8353 287.662 65.4389C287.026 67.0425 292.588 78.3439 292.588 78.3439L296.406 85.0255C296.406 85.0255 240.268 85.4837 214.763 85.0255C189.258 84.5674 94.3413 84.7965 86.6288 84.0965C78.9163 83.3965 30.6943 84.5547 26.6217 84.0965C22.5491 83.6383 9.05853 85.2292 9.05853 85.2292L14.8366 75.0477L7.98952 68.6079L17.4074 62.6135L3.26782 53.3993C3.26782 53.3993 15.3711 42.1615 16.7711 41.4233C18.171 40.6851 5.41867 25.0693 5.41867 25.0693L18.9219 17.0641L20.7164 14.1878L11.0058 6.80622Z" fill="#E96262"/>
<mask id="path-2-outside-1_129_23916" maskUnits="userSpaceOnUse" x="0" y="0.0568848" width="301" height="90" fill="black">
<rect fill="white" y="0.0568848" width="301" height="90"/>
<path d="M290.877 64.8664C293.422 63.441 300.982 61.2011 298.78 56.8867C297.762 54.8758 295.076 53.5904 293.486 51.9996C291.076 49.5668 288.973 46.8485 287.224 43.9053L286.651 46.0434C289.324 44.3507 292.773 42.8108 295.064 40.6472C295.566 40.2452 295.944 39.7089 296.153 39.1006C296.363 38.4923 296.396 37.837 296.247 37.2109C295.84 35.6201 294.135 34.0292 293.193 32.7056C291.579 30.6264 290.291 28.3133 289.375 25.8458C287.746 20.6278 292.696 14.5698 294.466 9.74636C294.962 8.39731 295.369 7.07371 294.147 6.05556C293.67 5.68028 293.07 5.497 292.465 5.54175C291.86 5.58649 291.293 5.85603 290.877 6.29738L292.404 5.89012C288.586 4.77015 283.839 5.34286 279.881 5.21559C275.172 5.05014 270.45 4.91014 265.741 4.77014C256.272 4.48167 246.82 4.23562 237.386 4.03199C218.27 3.61625 199.18 3.33201 180.115 3.17929C142.138 2.87384 104.173 3.17929 66.2092 3.66291C55.8623 3.79018 45.5153 3.86654 35.1684 4.14653C30.0012 4.28228 24.8384 4.48167 19.6798 4.7447C17.1344 4.88469 12.2091 3.98108 11.9163 7.55733C12.1709 7.11189 12.4255 6.65373 12.6927 6.20829C8.53106 9.32637 16.1417 14.8371 18.3944 16.8861C18.5089 16.0716 18.6107 15.2444 18.7125 14.4298C15.5198 16.4122 12.2183 18.2137 8.82372 19.826C6.87651 20.7296 3.89843 21.2896 3.73298 23.9241C3.56753 26.5586 6.86379 29.4603 8.35284 31.4075C9.62552 32.9602 10.7455 34.5383 11.9673 36.091C12.6418 36.9564 15.0981 39.3109 14.869 40.2527C14.869 40.4054 13.0363 41.6653 12.6418 41.9962L8.30196 45.5598C6.46929 47.0743 2.74033 49.0469 2.11672 51.4778C1.4931 53.9086 3.4912 55.1304 5.1966 56.2885L15.6199 63.3392V60.6284C12.9218 61.9011 6.22746 63.5937 6.29109 67.45C6.29109 70.8862 12.0818 73.5589 14.6654 74.8188C14.4745 74.0934 14.2963 73.3807 14.1054 72.668C13.2634 74.2615 12.3285 75.8041 11.3055 77.2879C10.3382 78.6751 8.5438 80.3041 7.93291 81.9077C6.94021 84.5803 9.1165 85.624 11.3437 85.8785C21.907 87.1512 33.0557 85.6494 43.6699 85.3821C67.0364 84.8222 90.4157 86.1076 113.795 86.5912C137.475 87.0918 161.164 87.3845 184.862 87.4694C208.177 87.5839 231.506 87.9912 254.86 87.8257C267.586 87.7366 280.313 87.9148 293.04 86.9603C296.693 86.6803 299.773 85.3058 297.864 81.2968C296.693 78.8533 287.988 66.5846 291.029 64.8664C291.207 64.7628 291.363 64.6251 291.488 64.4613C291.613 64.2974 291.704 64.1106 291.757 63.9115C291.809 63.7123 291.822 63.5048 291.794 63.3007C291.767 63.0966 291.699 62.8999 291.596 62.722C291.492 62.544 291.354 62.3881 291.191 62.2633C291.027 62.1385 290.84 62.0472 290.641 61.9946C290.442 61.9421 290.234 61.9292 290.03 61.9568C289.826 61.9844 289.629 62.052 289.451 62.1556C287.097 63.4283 286.104 65.2355 287.02 67.9336C288.433 72.0953 291.398 76.1552 293.549 80.0114C293.791 80.4569 295.56 82.9131 295.089 83.4731C295 83.5876 291.386 83.9185 291.271 83.9313C288.497 84.1349 285.684 84.1222 282.897 84.1985C277.306 84.3598 271.723 84.4828 266.148 84.5676C244.029 84.9112 221.91 84.4149 199.79 84.3767C154.75 84.3004 109.71 83.6386 64.7074 82.1113C52.426 81.6914 40.1064 82.3786 27.7995 82.7731C22.4924 82.9513 17.0581 82.595 11.8273 82.684C11.0637 82.684 11.0127 83.6258 11.2036 82.9131C11.4455 81.9713 12.9727 80.5714 13.5836 79.706C14.8082 77.955 15.9259 76.1317 16.9307 74.2461C17.1359 73.8874 17.1923 73.4625 17.0876 73.0627C16.9829 72.6629 16.7255 72.3201 16.3707 72.108C14.6144 71.2553 10.1601 69.3972 10.5292 67.3863C10.8473 65.6937 15.8108 64.0774 17.3253 63.3392C17.5569 63.1969 17.7482 62.9975 17.8809 62.7603C18.0136 62.523 18.0833 62.2557 18.0833 61.9838C18.0833 61.7119 18.0136 61.4446 17.8809 61.2073C17.7482 60.97 17.5569 60.7707 17.3253 60.6284L9.09102 55.0667C7.81833 54.1631 5.45113 53.4759 6.30383 51.3505C6.71109 50.3323 9.28192 48.8942 10.1219 48.1815C12.4127 46.2852 15.2126 44.5543 17.2871 42.4671C17.7116 42.0973 18.0071 41.6017 18.1307 41.0524C18.2543 40.5031 18.1995 39.9287 17.9743 39.4127C17.3889 37.2109 15.7344 35.7346 14.3472 33.991C12.4509 31.5729 10.6055 29.1294 8.73463 26.6985C7.6783 25.324 6.53289 24.8022 8.18738 23.555C9.27879 22.9392 10.4197 22.4156 11.5982 21.9896C14.6006 20.5214 17.5273 18.9031 20.367 17.1407C20.5717 17.0168 20.7458 16.8484 20.8764 16.6479C21.007 16.4475 21.0908 16.2201 21.1213 15.9829C21.1519 15.7456 21.1286 15.5045 21.0531 15.2774C20.9775 15.0504 20.8518 14.8434 20.6852 14.6717C19.4125 13.399 14.5508 9.93726 14.5508 7.97732L13.7745 9.3391C14.1999 9.11214 14.5544 8.77228 14.7992 8.3569C15.0439 7.94151 15.1694 7.46669 15.1618 6.98463L14.3854 8.33367C15.7217 7.4937 19.6161 7.88824 21.1433 7.81188C23.256 7.71006 25.3771 7.62096 27.5068 7.5446C31.9696 7.36643 36.4368 7.23492 40.9082 7.15007C50.0715 6.95917 59.2349 6.89553 68.4109 6.78099C86.3304 6.57736 104.237 6.32283 122.157 6.23374C158.267 6.05556 194.369 6.31859 230.462 7.02281C240.364 7.22644 250.269 7.46825 260.179 7.74824C265.372 7.88399 270.56 8.03671 275.744 8.20641L282.808 8.44822C285.544 8.53731 289.044 8.14277 291.717 8.91911C291.983 8.99442 292.265 8.99758 292.534 8.92826C292.802 8.85895 293.047 8.71964 293.244 8.52458L292.709 8.76639L291.933 7.40462C292.162 9.41546 289.948 12.8263 289.108 14.6335C288.42 16.0971 287.644 17.5225 287.02 19.0242C286.402 20.3531 286.065 21.7959 286.032 23.2614C285.999 24.7269 286.271 26.1832 286.829 27.5385C288.038 30.3588 289.612 33.0076 291.513 35.4164C292.862 37.2491 293.829 37.58 291.64 39.2345C289.706 40.749 287.351 41.9708 285.277 43.2817C284.921 43.4961 284.663 43.8412 284.559 44.2431C284.454 44.645 284.511 45.0718 284.717 45.4325C286.699 48.7833 289.112 51.8597 291.895 54.5831C292.989 55.6395 295.369 56.8231 295.191 58.3121C295.013 59.8011 290.749 61.4175 289.502 62.1302C287.529 63.1229 289.108 65.8464 290.877 64.8664Z"/>
</mask>
<path d="M290.877 64.8664C293.422 63.441 300.982 61.2011 298.78 56.8867C297.762 54.8758 295.076 53.5904 293.486 51.9996C291.076 49.5668 288.973 46.8485 287.224 43.9053L286.651 46.0434C289.324 44.3507 292.773 42.8108 295.064 40.6472C295.566 40.2452 295.944 39.7089 296.153 39.1006C296.363 38.4923 296.396 37.837 296.247 37.2109C295.84 35.6201 294.135 34.0292 293.193 32.7056C291.579 30.6264 290.291 28.3133 289.375 25.8458C287.746 20.6278 292.696 14.5698 294.466 9.74636C294.962 8.39731 295.369 7.07371 294.147 6.05556C293.67 5.68028 293.07 5.497 292.465 5.54175C291.86 5.58649 291.293 5.85603 290.877 6.29738L292.404 5.89012C288.586 4.77015 283.839 5.34286 279.881 5.21559C275.172 5.05014 270.45 4.91014 265.741 4.77014C256.272 4.48167 246.82 4.23562 237.386 4.03199C218.27 3.61625 199.18 3.33201 180.115 3.17929C142.138 2.87384 104.173 3.17929 66.2092 3.66291C55.8623 3.79018 45.5153 3.86654 35.1684 4.14653C30.0012 4.28228 24.8384 4.48167 19.6798 4.7447C17.1344 4.88469 12.2091 3.98108 11.9163 7.55733C12.1709 7.11189 12.4255 6.65373 12.6927 6.20829C8.53106 9.32637 16.1417 14.8371 18.3944 16.8861C18.5089 16.0716 18.6107 15.2444 18.7125 14.4298C15.5198 16.4122 12.2183 18.2137 8.82372 19.826C6.87651 20.7296 3.89843 21.2896 3.73298 23.9241C3.56753 26.5586 6.86379 29.4603 8.35284 31.4075C9.62552 32.9602 10.7455 34.5383 11.9673 36.091C12.6418 36.9564 15.0981 39.3109 14.869 40.2527C14.869 40.4054 13.0363 41.6653 12.6418 41.9962L8.30196 45.5598C6.46929 47.0743 2.74033 49.0469 2.11672 51.4778C1.4931 53.9086 3.4912 55.1304 5.1966 56.2885L15.6199 63.3392V60.6284C12.9218 61.9011 6.22746 63.5937 6.29109 67.45C6.29109 70.8862 12.0818 73.5589 14.6654 74.8188C14.4745 74.0934 14.2963 73.3807 14.1054 72.668C13.2634 74.2615 12.3285 75.8041 11.3055 77.2879C10.3382 78.6751 8.5438 80.3041 7.93291 81.9077C6.94021 84.5803 9.1165 85.624 11.3437 85.8785C21.907 87.1512 33.0557 85.6494 43.6699 85.3821C67.0364 84.8222 90.4157 86.1076 113.795 86.5912C137.475 87.0918 161.164 87.3845 184.862 87.4694C208.177 87.5839 231.506 87.9912 254.86 87.8257C267.586 87.7366 280.313 87.9148 293.04 86.9603C296.693 86.6803 299.773 85.3058 297.864 81.2968C296.693 78.8533 287.988 66.5846 291.029 64.8664C291.207 64.7628 291.363 64.6251 291.488 64.4613C291.613 64.2974 291.704 64.1106 291.757 63.9115C291.809 63.7123 291.822 63.5048 291.794 63.3007C291.767 63.0966 291.699 62.8999 291.596 62.722C291.492 62.544 291.354 62.3881 291.191 62.2633C291.027 62.1385 290.84 62.0472 290.641 61.9946C290.442 61.9421 290.234 61.9292 290.03 61.9568C289.826 61.9844 289.629 62.052 289.451 62.1556C287.097 63.4283 286.104 65.2355 287.02 67.9336C288.433 72.0953 291.398 76.1552 293.549 80.0114C293.791 80.4569 295.56 82.9131 295.089 83.4731C295 83.5876 291.386 83.9185 291.271 83.9313C288.497 84.1349 285.684 84.1222 282.897 84.1985C277.306 84.3598 271.723 84.4828 266.148 84.5676C244.029 84.9112 221.91 84.4149 199.79 84.3767C154.75 84.3004 109.71 83.6386 64.7074 82.1113C52.426 81.6914 40.1064 82.3786 27.7995 82.7731C22.4924 82.9513 17.0581 82.595 11.8273 82.684C11.0637 82.684 11.0127 83.6258 11.2036 82.9131C11.4455 81.9713 12.9727 80.5714 13.5836 79.706C14.8082 77.955 15.9259 76.1317 16.9307 74.2461C17.1359 73.8874 17.1923 73.4625 17.0876 73.0627C16.9829 72.6629 16.7255 72.3201 16.3707 72.108C14.6144 71.2553 10.1601 69.3972 10.5292 67.3863C10.8473 65.6937 15.8108 64.0774 17.3253 63.3392C17.5569 63.1969 17.7482 62.9975 17.8809 62.7603C18.0136 62.523 18.0833 62.2557 18.0833 61.9838C18.0833 61.7119 18.0136 61.4446 17.8809 61.2073C17.7482 60.97 17.5569 60.7707 17.3253 60.6284L9.09102 55.0667C7.81833 54.1631 5.45113 53.4759 6.30383 51.3505C6.71109 50.3323 9.28192 48.8942 10.1219 48.1815C12.4127 46.2852 15.2126 44.5543 17.2871 42.4671C17.7116 42.0973 18.0071 41.6017 18.1307 41.0524C18.2543 40.5031 18.1995 39.9287 17.9743 39.4127C17.3889 37.2109 15.7344 35.7346 14.3472 33.991C12.4509 31.5729 10.6055 29.1294 8.73463 26.6985C7.6783 25.324 6.53289 24.8022 8.18738 23.555C9.27879 22.9392 10.4197 22.4156 11.5982 21.9896C14.6006 20.5214 17.5273 18.9031 20.367 17.1407C20.5717 17.0168 20.7458 16.8484 20.8764 16.6479C21.007 16.4475 21.0908 16.2201 21.1213 15.9829C21.1519 15.7456 21.1286 15.5045 21.0531 15.2774C20.9775 15.0504 20.8518 14.8434 20.6852 14.6717C19.4125 13.399 14.5508 9.93726 14.5508 7.97732L13.7745 9.3391C14.1999 9.11214 14.5544 8.77228 14.7992 8.3569C15.0439 7.94151 15.1694 7.46669 15.1618 6.98463L14.3854 8.33367C15.7217 7.4937 19.6161 7.88824 21.1433 7.81188C23.256 7.71006 25.3771 7.62096 27.5068 7.5446C31.9696 7.36643 36.4368 7.23492 40.9082 7.15007C50.0715 6.95917 59.2349 6.89553 68.4109 6.78099C86.3304 6.57736 104.237 6.32283 122.157 6.23374C158.267 6.05556 194.369 6.31859 230.462 7.02281C240.364 7.22644 250.269 7.46825 260.179 7.74824C265.372 7.88399 270.56 8.03671 275.744 8.20641L282.808 8.44822C285.544 8.53731 289.044 8.14277 291.717 8.91911C291.983 8.99442 292.265 8.99758 292.534 8.92826C292.802 8.85895 293.047 8.71964 293.244 8.52458L292.709 8.76639L291.933 7.40462C292.162 9.41546 289.948 12.8263 289.108 14.6335C288.42 16.0971 287.644 17.5225 287.02 19.0242C286.402 20.3531 286.065 21.7959 286.032 23.2614C285.999 24.7269 286.271 26.1832 286.829 27.5385C288.038 30.3588 289.612 33.0076 291.513 35.4164C292.862 37.2491 293.829 37.58 291.64 39.2345C289.706 40.749 287.351 41.9708 285.277 43.2817C284.921 43.4961 284.663 43.8412 284.559 44.2431C284.454 44.645 284.511 45.0718 284.717 45.4325C286.699 48.7833 289.112 51.8597 291.895 54.5831C292.989 55.6395 295.369 56.8231 295.191 58.3121C295.013 59.8011 290.749 61.4175 289.502 62.1302C287.529 63.1229 289.108 65.8464 290.877 64.8664Z" fill="#E96262"/>
<path d="M290.877 64.8664C293.422 63.441 300.982 61.2011 298.78 56.8867C297.762 54.8758 295.076 53.5904 293.486 51.9996C291.076 49.5668 288.973 46.8485 287.224 43.9053L286.651 46.0434C289.324 44.3507 292.773 42.8108 295.064 40.6472C295.566 40.2452 295.944 39.7089 296.153 39.1006C296.363 38.4923 296.396 37.837 296.247 37.2109C295.84 35.6201 294.135 34.0292 293.193 32.7056C291.579 30.6264 290.291 28.3133 289.375 25.8458C287.746 20.6278 292.696 14.5698 294.466 9.74636C294.962 8.39731 295.369 7.07371 294.147 6.05556C293.67 5.68028 293.07 5.497 292.465 5.54175C291.86 5.58649 291.293 5.85603 290.877 6.29738L292.404 5.89012C288.586 4.77015 283.839 5.34286 279.881 5.21559C275.172 5.05014 270.45 4.91014 265.741 4.77014C256.272 4.48167 246.82 4.23562 237.386 4.03199C218.27 3.61625 199.18 3.33201 180.115 3.17929C142.138 2.87384 104.173 3.17929 66.2092 3.66291C55.8623 3.79018 45.5153 3.86654 35.1684 4.14653C30.0012 4.28228 24.8384 4.48167 19.6798 4.7447C17.1344 4.88469 12.2091 3.98108 11.9163 7.55733C12.1709 7.11189 12.4255 6.65373 12.6927 6.20829C8.53106 9.32637 16.1417 14.8371 18.3944 16.8861C18.5089 16.0716 18.6107 15.2444 18.7125 14.4298C15.5198 16.4122 12.2183 18.2137 8.82372 19.826C6.87651 20.7296 3.89843 21.2896 3.73298 23.9241C3.56753 26.5586 6.86379 29.4603 8.35284 31.4075C9.62552 32.9602 10.7455 34.5383 11.9673 36.091C12.6418 36.9564 15.0981 39.3109 14.869 40.2527C14.869 40.4054 13.0363 41.6653 12.6418 41.9962L8.30196 45.5598C6.46929 47.0743 2.74033 49.0469 2.11672 51.4778C1.4931 53.9086 3.4912 55.1304 5.1966 56.2885L15.6199 63.3392V60.6284C12.9218 61.9011 6.22746 63.5937 6.29109 67.45C6.29109 70.8862 12.0818 73.5589 14.6654 74.8188C14.4745 74.0934 14.2963 73.3807 14.1054 72.668C13.2634 74.2615 12.3285 75.8041 11.3055 77.2879C10.3382 78.6751 8.5438 80.3041 7.93291 81.9077C6.94021 84.5803 9.1165 85.624 11.3437 85.8785C21.907 87.1512 33.0557 85.6494 43.6699 85.3821C67.0364 84.8222 90.4157 86.1076 113.795 86.5912C137.475 87.0918 161.164 87.3845 184.862 87.4694C208.177 87.5839 231.506 87.9912 254.86 87.8257C267.586 87.7366 280.313 87.9148 293.04 86.9603C296.693 86.6803 299.773 85.3058 297.864 81.2968C296.693 78.8533 287.988 66.5846 291.029 64.8664C291.207 64.7628 291.363 64.6251 291.488 64.4613C291.613 64.2974 291.704 64.1106 291.757 63.9115C291.809 63.7123 291.822 63.5048 291.794 63.3007C291.767 63.0966 291.699 62.8999 291.596 62.722C291.492 62.544 291.354 62.3881 291.191 62.2633C291.027 62.1385 290.84 62.0472 290.641 61.9946C290.442 61.9421 290.234 61.9292 290.03 61.9568C289.826 61.9844 289.629 62.052 289.451 62.1556C287.097 63.4283 286.104 65.2355 287.02 67.9336C288.433 72.0953 291.398 76.1552 293.549 80.0114C293.791 80.4569 295.56 82.9131 295.089 83.4731C295 83.5876 291.386 83.9185 291.271 83.9313C288.497 84.1349 285.684 84.1222 282.897 84.1985C277.306 84.3598 271.723 84.4828 266.148 84.5676C244.029 84.9112 221.91 84.4149 199.79 84.3767C154.75 84.3004 109.71 83.6386 64.7074 82.1113C52.426 81.6914 40.1064 82.3786 27.7995 82.7731C22.4924 82.9513 17.0581 82.595 11.8273 82.684C11.0637 82.684 11.0127 83.6258 11.2036 82.9131C11.4455 81.9713 12.9727 80.5714 13.5836 79.706C14.8082 77.955 15.9259 76.1317 16.9307 74.2461C17.1359 73.8874 17.1923 73.4625 17.0876 73.0627C16.9829 72.6629 16.7255 72.3201 16.3707 72.108C14.6144 71.2553 10.1601 69.3972 10.5292 67.3863C10.8473 65.6937 15.8108 64.0774 17.3253 63.3392C17.5569 63.1969 17.7482 62.9975 17.8809 62.7603C18.0136 62.523 18.0833 62.2557 18.0833 61.9838C18.0833 61.7119 18.0136 61.4446 17.8809 61.2073C17.7482 60.97 17.5569 60.7707 17.3253 60.6284L9.09102 55.0667C7.81833 54.1631 5.45113 53.4759 6.30383 51.3505C6.71109 50.3323 9.28192 48.8942 10.1219 48.1815C12.4127 46.2852 15.2126 44.5543 17.2871 42.4671C17.7116 42.0973 18.0071 41.6017 18.1307 41.0524C18.2543 40.5031 18.1995 39.9287 17.9743 39.4127C17.3889 37.2109 15.7344 35.7346 14.3472 33.991C12.4509 31.5729 10.6055 29.1294 8.73463 26.6985C7.6783 25.324 6.53289 24.8022 8.18738 23.555C9.27879 22.9392 10.4197 22.4156 11.5982 21.9896C14.6006 20.5214 17.5273 18.9031 20.367 17.1407C20.5717 17.0168 20.7458 16.8484 20.8764 16.6479C21.007 16.4475 21.0908 16.2201 21.1213 15.9829C21.1519 15.7456 21.1286 15.5045 21.0531 15.2774C20.9775 15.0504 20.8518 14.8434 20.6852 14.6717C19.4125 13.399 14.5508 9.93726 14.5508 7.97732L13.7745 9.3391C14.1999 9.11214 14.5544 8.77228 14.7992 8.3569C15.0439 7.94151 15.1694 7.46669 15.1618 6.98463L14.3854 8.33367C15.7217 7.4937 19.6161 7.88824 21.1433 7.81188C23.256 7.71006 25.3771 7.62096 27.5068 7.5446C31.9696 7.36643 36.4368 7.23492 40.9082 7.15007C50.0715 6.95917 59.2349 6.89553 68.4109 6.78099C86.3304 6.57736 104.237 6.32283 122.157 6.23374C158.267 6.05556 194.369 6.31859 230.462 7.02281C240.364 7.22644 250.269 7.46825 260.179 7.74824C265.372 7.88399 270.56 8.03671 275.744 8.20641L282.808 8.44822C285.544 8.53731 289.044 8.14277 291.717 8.91911C291.983 8.99442 292.265 8.99758 292.534 8.92826C292.802 8.85895 293.047 8.71964 293.244 8.52458L292.709 8.76639L291.933 7.40462C292.162 9.41546 289.948 12.8263 289.108 14.6335C288.42 16.0971 287.644 17.5225 287.02 19.0242C286.402 20.3531 286.065 21.7959 286.032 23.2614C285.999 24.7269 286.271 26.1832 286.829 27.5385C288.038 30.3588 289.612 33.0076 291.513 35.4164C292.862 37.2491 293.829 37.58 291.64 39.2345C289.706 40.749 287.351 41.9708 285.277 43.2817C284.921 43.4961 284.663 43.8412 284.559 44.2431C284.454 44.645 284.511 45.0718 284.717 45.4325C286.699 48.7833 289.112 51.8597 291.895 54.5831C292.989 55.6395 295.369 56.8231 295.191 58.3121C295.013 59.8011 290.749 61.4175 289.502 62.1302C287.529 63.1229 289.108 65.8464 290.877 64.8664Z" stroke="#E96262" stroke-width="3.41908" mask="url(#path-2-outside-1_129_23916)"/>
<path d="M62.4927 18.8974C61.22 17.332 60.0872 17.3447 59.0054 18.0574C57.3077 19.0996 55.9432 20.6053 55.0729 22.3973C53.5711 20.8446 52.1966 18.401 49.9058 18.9356C47.6149 19.4701 47.5004 21.9009 48.0349 23.7972C48.7623 26.1698 50.1074 28.3063 51.9323 29.988C53.7571 31.6697 55.9961 32.8361 58.4201 33.3678C58.545 33.4825 58.6964 33.5646 58.8606 33.6067C59.0249 33.6489 59.1971 33.6499 59.3618 33.6096H59.6291C59.8142 33.6444 60.0056 33.6071 60.1642 33.5054C60.3227 33.4037 60.4363 33.2452 60.4818 33.0624C60.5524 32.9623 60.6042 32.8502 60.6345 32.7315C61.4363 29.7407 62.4036 26.7371 63.0527 23.6954C63.3119 22.9027 63.396 22.0633 63.2994 21.2349C63.2027 20.4066 62.9275 19.609 62.4927 18.8974V18.8974Z" fill="white"/>
<path d="M46.0681 56.289C45.8345 55.7331 45.4262 55.2684 44.9049 54.9653C44.3836 54.6622 43.7778 54.5371 43.1791 54.6091C42.6327 54.502 42.067 54.555 41.5501 54.7618C39.7937 55.4745 39.1192 57.3963 38.3301 59.1144C37.1338 57.5872 35.4666 55.6527 33.8121 56.0345C32.1576 56.4163 31.7377 58.7072 31.9413 60.298C32.5904 65.516 38.0756 70.8231 43.0263 70.4795C43.2219 70.4674 43.4069 70.3862 43.5482 70.2504C43.6876 70.2288 43.8196 70.1735 43.9328 70.0892C44.0459 70.0049 44.1367 69.8942 44.1973 69.7668C46.0554 66.2669 48.0535 60.1453 46.0681 56.289ZM40.9901 68.0487L41.1046 68.1632L40.8119 68.0741C40.8724 68.079 40.9333 68.0703 40.9901 68.0487V68.0487Z" fill="white"/>
<path d="M97.9133 61.6081C97.8236 61.0025 97.5454 60.4404 97.1182 60.0018C96.691 59.5632 96.1365 59.2703 95.5334 59.1646C95.0385 58.9137 94.4814 58.812 93.9298 58.8719C92.059 59.0628 90.9391 60.7173 89.7682 62.1554C88.9791 60.3354 87.8337 58.0064 86.141 57.9046C84.4483 57.8028 83.5065 59.9155 83.3029 61.4936C82.6666 66.7243 86.6628 73.3932 91.5372 74.4114C91.7201 74.4644 91.9142 74.4644 92.0971 74.4114C92.2345 74.424 92.373 74.4041 92.5012 74.3532C92.6295 74.3024 92.7439 74.222 92.8353 74.1186C95.4825 71.2551 98.8933 65.9098 97.9133 61.6081ZM90.15 71.5351L90.2263 71.6751L89.9718 71.5096L90.15 71.5351Z" fill="white"/>
<path d="M225.765 30.4916C224.569 28.9262 223.372 28.9389 222.278 29.6516C220.587 30.6978 219.227 32.2029 218.358 33.9915C216.856 32.4388 215.482 29.9953 213.178 30.5298C211.078 31.0134 210.773 33.4952 211.32 35.3915C212.04 37.7679 213.383 39.9084 215.209 41.5912C217.035 43.274 219.278 44.4378 221.705 44.9621C221.836 45.0658 221.99 45.1362 222.154 45.1673C222.318 45.1983 222.487 45.189 222.647 45.1402H222.901C223.087 45.1783 223.28 45.1424 223.439 45.0401C223.598 44.9379 223.711 44.7774 223.754 44.593C223.83 44.4959 223.882 44.3826 223.907 44.2621C224.721 41.2713 225.676 38.2677 226.338 35.226C226.589 34.4422 226.668 33.6133 226.569 32.7962C226.47 31.9791 226.196 31.193 225.765 30.4916V30.4916Z" fill="white"/>
<path d="M268.268 61.6081C268.177 61.005 267.9 60.4452 267.476 60.0071C267.051 59.569 266.501 59.2745 265.901 59.1646C265.406 58.9137 264.849 58.812 264.297 58.8719C262.426 59.0628 261.306 60.7172 260.123 62.1554C259.334 60.3354 258.201 58.0064 256.508 57.9046C254.816 57.8028 253.861 59.9155 253.67 61.4936C253.021 66.7243 257.03 73.3932 261.892 74.4114C262.075 74.4651 262.269 74.4651 262.452 74.4114C262.589 74.425 262.728 74.4056 262.856 74.3547C262.985 74.3037 263.099 74.2228 263.19 74.1186C265.837 71.2551 269.248 65.9098 268.268 61.6081ZM260.517 71.5351C260.538 71.5843 260.563 71.6312 260.594 71.6751L260.339 71.5096L260.517 71.5351Z" fill="white"/>
<path d="M148.828 53.7939C148.09 51.9358 146.931 51.5922 145.71 51.9358C143.813 52.4127 142.103 53.4453 140.797 54.9012C139.766 52.954 139.092 50.1795 136.75 49.9886C134.612 49.8232 133.657 52.1013 133.683 54.0867C133.755 56.6084 134.476 59.0689 135.776 61.2312C137.075 63.3935 138.91 65.1845 141.103 66.4317C141.199 66.57 141.327 66.6844 141.474 66.766C141.622 66.8476 141.787 66.8943 141.955 66.9026L142.197 67.0172C142.276 67.0647 142.364 67.0958 142.455 67.1087C142.546 67.1216 142.639 67.116 142.728 67.0922C142.817 67.0685 142.901 67.0271 142.973 66.9704C143.046 66.9138 143.107 66.8431 143.152 66.7626C143.248 66.689 143.33 66.5985 143.393 66.4954C144.959 63.8736 146.677 61.2773 148.102 58.5665C148.564 57.8721 148.868 57.0851 148.994 56.2606C149.119 55.4361 149.062 54.5942 148.828 53.7939V53.7939Z" fill="white"/>
<path d="M182.903 21.5186C182.936 20.9014 182.779 20.2889 182.453 19.7634C182.128 19.2379 181.65 18.8245 181.083 18.5787C180.659 18.2096 180.137 17.9709 179.581 17.8914C177.71 17.6369 176.285 18.9987 174.834 20.1059C174.439 18.1587 173.816 15.6133 172.187 15.117C170.558 14.6206 169.196 16.3896 168.674 17.9423C166.969 22.8804 169.501 30.3383 174.045 32.4891C174.226 32.5502 174.423 32.5502 174.605 32.4891C174.733 32.5376 174.87 32.5537 175.006 32.5359C175.141 32.5181 175.27 32.4671 175.381 32.3873C178.537 30.3256 182.966 25.973 182.903 21.5186ZM173.23 29.3583C173.224 29.4091 173.224 29.4603 173.23 29.511L173.014 29.282L173.23 29.3583Z" fill="white"/>
<path d="M117.988 18.8974C116.791 17.332 115.595 17.3447 114.5 18.0574C112.809 19.1036 111.45 20.6086 110.581 22.3973C109.079 20.8446 107.704 18.401 105.401 18.9356C103.301 19.4192 102.995 21.9009 103.543 23.7972C104.263 26.1736 105.606 28.3142 107.432 29.997C109.258 31.6798 111.501 32.8436 113.928 33.3678C114.059 33.4716 114.213 33.542 114.377 33.573C114.541 33.6041 114.71 33.5948 114.87 33.546H115.124C115.31 33.5841 115.502 33.5482 115.662 33.4459C115.821 33.3437 115.934 33.1832 115.977 32.9987C116.052 32.9016 116.105 32.7884 116.129 32.6678C116.944 29.677 117.899 26.6735 118.56 23.6318C118.812 22.8479 118.89 22.0191 118.791 21.202C118.693 20.3848 118.418 19.5987 117.988 18.8974V18.8974Z" fill="white"/>
<path d="M203.178 65.8973C203.089 65.2924 202.811 64.7312 202.384 64.2944C201.956 63.8576 201.401 63.5677 200.798 63.4665C200.307 63.2054 199.748 63.0989 199.194 63.161C197.324 63.3519 196.204 65.0064 195.02 66.4445C194.244 64.6373 193.098 62.2956 191.406 62.2065C189.713 62.1174 188.771 64.2046 188.568 65.7955C187.931 71.0135 191.927 77.6824 196.802 78.7005C196.99 78.7455 197.188 78.723 197.362 78.6369C197.499 78.6495 197.638 78.6296 197.766 78.5787C197.894 78.5279 198.009 78.4475 198.1 78.3442C200.696 75.5315 204.107 70.1862 203.178 65.8973ZM195.364 75.8115L195.44 75.9515L195.185 75.7861L195.364 75.8115Z" fill="white"/>
<path d="M273.822 18.0188C273.536 17.4902 273.086 17.0697 272.539 16.8214C271.992 16.5732 271.378 16.511 270.793 16.6443C270.238 16.5984 269.681 16.7132 269.189 16.9752C267.509 17.8661 267 19.8515 266.377 21.6332C265.104 20.2333 263.208 18.4897 261.591 19.0878C259.975 19.686 259.784 21.9768 260.115 23.5295C261.248 28.6203 267.178 33.3801 272.065 32.4383C272.26 32.4002 272.438 32.3023 272.575 32.1583C272.71 32.1221 272.833 32.0532 272.936 31.9578C273.038 31.8623 273.115 31.7433 273.16 31.6111C274.713 27.9585 276.151 21.6587 273.822 18.0188ZM269.826 30.2111L269.94 30.3129H269.647L269.826 30.2111Z" fill="white"/>
</svg>
