<svg width="131" height="127" viewBox="0 0 131 127" fill="none" xmlns="http://www.w3.org/2000/svg">
<path d="M31.2958 12.905C42.7403 5.6928 56.244 2.45661 69.7144 3.69793C92.7322 5.5812 106.02 19.0152 112.862 25.3974C119.705 31.7796 126.045 47.3061 127.698 53.207C129.351 59.1079 127.928 81.477 122.048 88.5497C116.168 95.6225 100.119 124.374 73.9204 123.662C47.722 122.951 32.2166 120.837 20.6658 105.75C9.11512 90.6632 2.50263 77.564 2.75373 67.3943C3.00483 57.2246 6.0392 41.175 12.6516 32.7003C19.2639 24.2256 26.755 15.4788 31.2958 12.905Z" fill="#E9AD62"/>
<path d="M28.9081 39.8143C28.9081 39.8143 71.4702 39.0191 72.0142 38.8308C72.5583 38.6424 100.075 38.8308 100.075 38.8308L105.39 82.7737C105.39 82.7737 55.8599 84.9709 52.5746 85.8916C49.2894 86.8123 31.2937 88.277 29.8289 87.0006L28.364 85.7032L28.9081 39.8143Z" fill="#E9AD62"/>
<path d="M102.3 39.1244C102.31 39.041 102.31 38.9567 102.3 38.8733V38.2665C102.29 37.8814 102.132 37.5149 101.859 37.2424C101.587 36.97 101.22 36.8123 100.835 36.8018C77.6779 38.0294 54.4998 38.7269 31.3007 38.8943C30.7007 38.7316 30.0809 38.6541 29.4593 38.6641C29.1743 38.661 28.8957 38.749 28.6641 38.9152C28.2773 38.9206 27.908 39.0767 27.6345 39.3502C27.3609 39.6238 27.2049 39.9932 27.1995 40.38C27.0321 55.3206 26.8787 70.2542 26.7392 85.1809C26.5806 85.3309 26.4599 85.5165 26.3869 85.7223C26.314 85.9281 26.2906 86.1482 26.3192 86.3647C26.3478 86.5811 26.4275 86.7877 26.5514 86.9675C26.6753 87.1473 26.8401 87.2951 27.0322 87.3989L27.3042 87.5245C27.4258 87.6081 27.5599 87.6717 27.7016 87.7128C32.2424 89.8053 37.5156 89.0729 42.3493 88.9055C49.4011 88.6544 56.4528 88.3615 63.4837 87.9848C77.3362 87.2455 91.1679 86.269 104.979 85.0553C105.364 85.0448 105.73 84.8871 106.003 84.6146C106.275 84.3422 106.433 83.9757 106.443 83.5905C105.202 68.7197 103.821 53.8976 102.3 39.1244ZM98.5335 39.8359C94.5577 45.13 88.071 48.9593 82.7351 52.3911C80.2031 54.0442 77.6082 55.6136 74.9926 57.0992C73.5677 58.088 72.038 58.916 70.431 59.5684C67.5015 60.3845 65.4925 58.7942 63.1698 57.4759C57.1433 54.2115 51.2078 50.7938 45.3627 47.2225C42.3215 45.3811 39.3291 43.4978 36.3857 41.5727C57.1016 41.4751 77.8175 40.8962 98.5335 39.8359ZM66.3086 84.8042C59.9892 85.153 53.6699 85.4529 47.3505 85.704C42.0354 85.9132 34.7953 87.3361 29.5012 85.3064L29.9405 41.761H30.7985C32.3649 42.4631 33.8346 43.3633 35.1718 44.4394L39.7965 47.369C43.2701 49.5731 46.7576 51.7075 50.2591 53.7721C53.6071 55.739 56.99 57.6503 60.4078 59.5056C62.7723 60.803 65.8274 63.2303 68.7779 63.1884C71.7283 63.1466 74.658 60.7402 77.0016 59.401C80.1822 57.5735 83.3 55.6344 86.3551 53.5838C91.2413 50.6248 95.734 47.0603 99.7263 42.9747C101.052 56.0321 102.237 69.0963 103.284 82.1676C90.9795 83.2418 78.6544 84.1207 66.3086 84.8042Z" fill="white" stroke="white" stroke-width="2.08677"/>
<path d="M116.319 24.5608C107.916 14.8899 96.9686 7.77063 84.7208 4.01233C72.473 0.254028 59.4164 0.00748837 47.0355 3.30075C22.4065 10.0805 4.28526 32.3868 1 57.246L1.52313 57.0995C0.688321 66.0035 1.74851 74.9833 4.63382 83.448C7.51912 91.9128 12.1641 99.6705 18.2633 106.211L18.0751 106.567C19.0376 107.404 20.0212 108.199 21.0256 108.994L21.4859 109.454C21.7382 109.684 22.0286 109.868 22.3439 109.998C29.4922 115.332 37.3618 119.622 45.7172 122.742C71.1623 132.179 101.085 121.528 117.449 100.561C125.911 89.6444 130.409 76.1741 130.204 62.363C129.998 48.5518 125.102 35.2212 116.319 24.5608ZM115.712 94.3046C101.42 115.586 72.4597 126.885 47.8935 118.243C39.6497 115.332 31.8904 111.199 24.8757 105.981C17.9293 99.5598 12.6498 91.5448 9.4927 82.6277C6.33561 73.7106 5.39576 64.1592 6.75444 54.7977C6.83988 54.4189 6.83988 54.0257 6.75444 53.6468C8.66306 44.4149 12.7007 35.756 18.5458 28.3597C24.391 20.9633 31.8822 15.0338 40.423 11.0431C62.2481 1.1664 89.7021 6.27212 107.237 22.3218C116.991 31.345 123.204 43.5533 124.757 56.7494C126.311 69.9455 123.103 83.2628 115.712 94.3046Z" fill="white" stroke="white" stroke-width="1.39118"/>
</svg>
