<svg width="300" height="82" viewBox="0 0 300 82" fill="none" xmlns="http://www.w3.org/2000/svg">
<path d="M3.58369 6.96506C3.58369 6.96506 26.5956 7.346 33.2027 6.39362C39.8099 5.44124 69.798 5.13172 80.5956 5.13172C91.3932 5.13172 187.976 5.45315 199.976 5.13172C211.976 4.81029 246.762 5.45315 248.262 5.13172C249.762 4.81029 280.953 3.5484 280.953 3.5484H295.06C295.06 3.5484 283.953 21.2508 280.655 26.3103C277.357 31.3698 270.155 41.977 270.155 41.977C270.155 41.977 279.453 53.5008 281.262 55.7031C283.072 57.9055 296.584 68.6198 296.584 68.6198C296.584 68.6198 270.762 73.096 263.56 74.0365C256.357 74.9769 187.976 76.5722 183.476 76.5722C178.976 76.5722 118.988 76.2508 112.048 76.5722C105.107 76.8936 57.7622 77.8341 54.7622 78.465C51.7622 79.096 3.57178 77.2746 3.57178 77.2746C3.57178 77.2746 4.69082 71.5484 7.1432 69.9651C9.59558 68.3817 23.0361 53.2151 23.0361 53.2151L30.5361 44.0484C30.5361 44.0484 23.6313 33.6198 20.3337 30.1436C17.0361 26.6674 3.58369 6.96506 3.58369 6.96506Z" fill="#E9AD62"/>
<path d="M32.2415 6.98571C34.0245 6.91091 35.781 6.80029 37.5248 6.69046C41.1301 6.46339 44.6809 6.23975 48.2986 6.3433C48.789 6.35816 49.2816 6.37463 49.776 6.39116C52.034 6.46664 54.3303 6.54341 56.6234 6.47422C57.6556 6.44307 58.691 6.34941 59.6991 6.25821C60.0682 6.22482 60.4336 6.19176 60.7939 6.16223C62.1595 6.05027 63.4951 5.98369 64.8567 6.10234L64.8577 6.10242C67.8933 6.36348 70.9438 6.27753 73.9488 6.14643C74.4466 6.12471 74.9428 6.10178 75.4376 6.07892C77.9447 5.96307 80.4134 5.849 82.8637 5.90298C86.9878 5.99851 91.1283 5.9666 95.2515 5.93482C97.305 5.919 99.3543 5.9032 101.395 5.90321L101.398 5.9032C151.309 5.73654 201.231 5.73654 251.166 5.9032H251.169H272.371H282.978H288.276H288.334L288.391 5.89547C288.943 5.82067 289.502 5.81664 290.055 5.88339C290.602 6.09894 290.638 6.26884 290.647 6.3134L290.648 6.31642C290.687 6.49474 290.635 6.83252 290.356 7.58378C289.855 8.93061 289.048 10.2966 288.135 11.6806C287.779 12.2209 287.397 12.7776 287.015 13.335C286.449 14.1592 285.883 14.985 285.397 15.7617C283.772 18.3588 282.147 20.8383 280.461 23.3315L280.46 23.3328C276.646 28.9948 272.619 34.4991 268.379 39.8458L32.672 75.9675M32.2415 6.98571C32.2412 6.98572 32.2408 6.98574 32.2405 6.98575L32.2047 6.13173L32.2425 6.98567C32.2422 6.98568 32.2418 6.9857 32.2415 6.98571ZM32.2415 6.98571C29.9927 7.08537 27.7386 7.26671 25.4659 7.44956C24.9068 7.49455 24.3464 7.53963 23.7848 7.5836C20.9498 7.80558 18.0914 7.99842 15.2404 7.99842H10.4071C10.1421 7.99842 9.75867 7.96243 9.38119 7.92578C9.32987 7.92079 9.27797 7.91572 9.22557 7.91059C8.87074 7.8759 8.49346 7.83902 8.12322 7.81333C7.69448 7.78359 7.30933 7.77158 7.01165 7.79074C6.86438 7.80022 6.76256 7.81599 6.69952 7.8317M6.69952 7.8317C6.7143 7.81412 6.72999 7.79905 6.74549 7.78541L6.18091 7.14366L6.7428 7.78777C6.70383 7.82176 6.67304 7.83768 6.66211 7.84261M6.69952 7.8317C6.6988 7.83188 6.69809 7.83205 6.69738 7.83223C6.67908 7.83686 6.66773 7.84056 6.66211 7.84261M6.69952 7.8317C6.61952 7.92681 6.56578 8.09554 6.70979 8.50966C6.88678 9.01864 7.29938 9.65398 7.86588 10.3493C8.42068 11.0302 9.07072 11.7063 9.66032 12.2971C9.83591 12.473 10.0109 12.6458 10.1774 12.8103C10.5458 13.1742 10.8722 13.4966 11.0694 13.7182L11.0734 13.7227L11.0734 13.7227L35.4683 41.5211C35.8673 41.9482 36.0896 42.511 36.0896 43.096C36.0896 43.6873 35.8626 44.2559 35.4556 44.6846L35.4354 44.7057L35.4139 44.7255C34.8292 45.2626 34.2468 45.8022 33.6666 46.3441V46.3891L33.6449 46.3644C25.9523 53.5507 18.6585 61.1532 11.7963 69.1379C11.7954 69.139 11.7944 69.1401 11.7934 69.1413L8.62038 72.9086L8.61561 72.9142L8.61074 72.9198C8.47189 73.079 8.25454 73.2988 8.03341 73.5225L8.00829 73.5479C7.76752 73.7915 7.50212 74.0602 7.25066 74.331C6.99684 74.6043 6.77406 74.8618 6.61445 75.0803C6.53477 75.1894 6.48143 75.2745 6.44944 75.3357C6.44033 75.3531 6.43435 75.366 6.43062 75.3745C6.38027 75.86 6.5032 76.0102 6.55493 76.0613C6.64516 76.1505 6.85067 76.2541 7.27771 76.2959C7.69092 76.3364 8.17967 76.3077 8.70671 76.2593C8.81253 76.2496 8.92255 76.2388 9.03446 76.2277C9.43579 76.188 9.86142 76.146 10.2047 76.146H14.1766H14.1809L32.672 75.9675M6.66211 7.84261C6.65913 7.84369 6.65776 7.84431 6.65782 7.84434C6.65789 7.84438 6.65938 7.84384 6.66211 7.84261ZM32.672 75.9675L32.6727 75.9675M32.672 75.9675C32.6722 75.9675 32.6724 75.9675 32.6727 75.9675M32.6727 75.9675C76.2702 75.5152 119.892 74.67 163.537 73.4321" fill="#E9AD62" stroke="#E9AD62" stroke-width="1.70954"/>
<path d="M236.168 30.2538L229.247 32.0034L226.023 63.6715L233.262 64.4188L233.95 57.5994L244.124 55.0275L247.961 60.6664L253.98 56.586L236.168 30.2538ZM234.83 49.866L235.589 42.3106L239.865 48.5933L234.83 49.866Z" fill="white"/>
<path d="M230.044 10.9513L224.637 60.8466L231.735 61.6156L237.141 11.7203L230.044 10.9513Z" fill="#60C9EB"/>
<path d="M234.702 26.387L228.948 30.613L248.039 56.6058L253.792 52.3798L234.702 26.387Z" fill="#60C9EB"/>
<path d="M229.665 26.0716L219.948 34.0923L224.492 39.5981L234.209 31.5774L229.665 26.0716Z" fill="#60C9EB"/>
<path d="M116.627 39.1151L126.246 51.1613L120.56 55.6939L111.737 44.632L111.477 54.8196L104.198 54.634L105.01 22.8045L112.289 22.9901L112.025 33.3382L121.787 22.3039L127.216 27.1198L116.627 39.1151Z" fill="white"/>
<path d="M111.883 21.0859L104.746 20.9338L103.796 65.5238L110.933 65.6759L111.883 21.0859Z" fill="#FFE600"/>
<path d="M101.487 31.2776L97.2178 36.9992L106.194 43.6969L110.463 37.9752L101.487 31.2776Z" fill="#FFE600"/>
<path d="M124.481 25.4828L104.429 38.4838L108.313 44.4739L128.365 31.4729L124.481 25.4828Z" fill="#FFE600"/>
<path d="M88.3851 20.0578L87.5736 51.8874L51.355 50.964L52.1702 18.9917L59.4496 19.1773L58.8195 43.888L66.0276 44.0718L66.351 31.3863L73.6482 31.5724L73.3248 44.2578L80.4972 44.4407L81.1236 19.8727L88.3851 20.0578Z" fill="white"/>
<path d="M73.5571 31.6055L66.4204 31.4236L65.5647 64.9837L72.7014 65.1657L73.5571 31.6055Z" fill="#60C9EB"/>
<path d="M68.9846 54.8044C67.5233 53.9995 65.0919 52.7235 62.6785 51.448C60.2652 50.1724 57.7637 48.841 56.2855 47.9999L59.7296 41.7677C61.1909 42.5726 63.6222 43.8486 66.0356 45.1242C68.449 46.3997 70.95 47.7311 72.4282 48.5722L68.9846 54.8044Z" fill="#60C9EB"/>
<path d="M69.7686 54.9137L66.647 48.4963C68.1836 47.7499 70.7493 46.5477 73.2968 45.3629C75.8443 44.1781 78.3381 43.0099 79.8563 42.2809L82.9783 48.6805C81.4413 49.4448 78.8756 50.629 76.3277 51.8317C73.7797 53.0343 71.2873 54.1669 69.7686 54.9137Z" fill="#60C9EB"/>
<path d="M153.83 61.3847C150.476 61.2956 147.223 60.2144 144.483 58.2777C141.742 56.3411 139.637 53.6358 138.434 50.5036C137.23 47.3713 136.981 43.9524 137.719 40.6789C138.457 37.4053 140.148 34.4239 142.579 32.111C145.011 29.7981 148.072 28.2576 151.379 27.6839C154.685 27.1102 158.087 27.5292 161.156 28.8878C164.224 30.2464 166.821 32.4839 168.619 35.3175C170.416 38.1511 171.334 41.4537 171.255 44.8085C171.201 47.0414 170.707 49.2417 169.801 51.2835C168.896 53.3254 167.597 55.1687 165.978 56.7082C164.36 58.2477 162.455 59.4531 160.37 60.2555C158.286 61.058 156.063 61.4416 153.83 61.3847ZM154.509 34.7628C152.6 34.7178 150.72 35.2401 149.108 36.2638C147.495 37.2874 146.223 38.7664 145.452 40.5135C144.68 42.2606 144.444 44.1972 144.774 46.0784C145.104 47.9595 145.984 49.7005 147.304 51.0812C148.623 52.4618 150.322 53.4201 152.187 53.8346C154.051 54.249 155.997 54.1011 157.777 53.4096C159.557 52.718 161.092 51.5139 162.188 49.9496C163.283 48.3853 163.89 46.5311 163.932 44.6218C163.987 42.0656 163.026 39.5919 161.259 37.7435C159.493 35.8951 157.065 34.8231 154.509 34.7628V34.7628Z" fill="white"/>
<path d="M199.509 37.5951L192.372 37.4131L180.726 67.0383L187.496 69.7103L189.997 63.3291C190.933 60.9249 191.905 58.5216 192.841 56.1174L195.61 49.0467L198.033 56.2498C198.845 58.6986 199.693 61.1483 200.488 63.5966L202.662 70.0614L209.558 67.7556L199.509 37.5951Z" fill="white"/>
<path d="M195.328 21.2122L188.574 23.5269L203.395 66.7649L210.148 64.4502L195.328 21.2122Z" fill="#E96262"/>
<path d="M192.968 33.085L180.066 62.6422L186.609 65.498L199.511 35.9409L192.968 33.085Z" fill="#E96262"/>
<path d="M197.543 31.0606L194.322 37.4316L205.566 43.1169L208.787 36.7459L197.543 31.0606Z" fill="#E96262"/>
</svg>
