<svg width="301" height="89" viewBox="0 0 301 89" fill="none" xmlns="http://www.w3.org/2000/svg">
<path d="M11.0055 6.09064C11.0055 6.09064 116.639 4.53796 127.596 4.53796C138.554 4.53796 193.165 4.94522 205.37 5.3143C217.575 5.68338 260.872 6.09064 260.872 6.09064L291.735 7.36333L294.891 6.70153C294.891 6.70153 289.164 14.274 288.299 18.6521C287.433 23.0301 287.23 29.4699 289.8 32.0025C291.663 33.9359 293.365 36.0173 294.891 38.226L284.264 42.464C284.264 42.464 286.16 48.8275 288.515 51.3728C291.34 53.9642 294.347 56.3503 297.513 58.5126C297.513 58.5126 288.299 63.1197 287.662 64.7233C287.026 66.3269 292.588 77.6284 292.588 77.6284L296.406 84.31C296.406 84.31 240.267 84.7681 214.763 84.31C189.258 83.8518 94.3411 84.0809 86.6286 83.3809C78.9161 82.6809 30.694 83.8391 26.6214 83.3809C22.5488 82.9227 9.05829 84.5136 9.05829 84.5136L14.8363 74.3321L7.98927 67.8923L17.4072 61.898L3.26758 52.6837C3.26758 52.6837 15.3709 41.4459 16.7708 40.7077C18.1708 39.9696 5.41842 24.3537 5.41842 24.3537L18.9216 16.3485L20.7161 13.4722L11.0055 6.09064Z" fill="white"/>
<mask id="path-2-outside-1_129_23929" maskUnits="userSpaceOnUse" x="0" y="-0.657715" width="301" height="90" fill="black">
<rect fill="white" y="-0.657715" width="301" height="90"/>
<path d="M290.877 64.1518C293.422 62.7264 300.982 60.4865 298.78 56.1721C297.762 54.1612 295.076 52.8758 293.486 51.285C291.076 48.8522 288.973 46.1339 287.224 43.1907L286.651 45.3288C289.324 43.6361 292.773 42.0962 295.064 39.9326C295.566 39.5306 295.944 38.9943 296.153 38.386C296.363 37.7777 296.396 37.1224 296.247 36.4963C295.84 34.9055 294.135 33.3146 293.193 31.991C291.579 29.9118 290.291 27.5987 289.375 25.1312C287.746 19.9132 292.696 13.8552 294.466 9.03176C294.962 7.68271 295.369 6.35911 294.147 5.34096C293.67 4.96568 293.07 4.7824 292.465 4.82715C291.86 4.87189 291.293 5.14143 290.877 5.58278L292.404 5.17552C288.586 4.05555 283.839 4.62826 279.881 4.50099C275.172 4.33554 270.45 4.19554 265.741 4.05555C256.272 3.76707 246.82 3.52102 237.386 3.31739C218.27 2.90165 199.18 2.61741 180.115 2.46469C142.138 2.15924 104.173 2.46469 66.2092 2.94831C55.8623 3.07558 45.5153 3.15194 35.1684 3.43193C30.0012 3.56768 24.8384 3.76707 19.6798 4.0301C17.1344 4.17009 12.2091 3.26648 11.9163 6.84273C12.1709 6.39729 12.4255 5.93913 12.6927 5.49369C8.53106 8.61177 16.1417 14.1225 18.3944 16.1715C18.5089 15.357 18.6107 14.5298 18.7125 13.7152C15.5198 15.6976 12.2183 17.4991 8.82372 19.1114C6.87651 20.015 3.89843 20.575 3.73298 23.2095C3.56753 25.844 6.86379 28.7457 8.35284 30.6929C9.62552 32.2456 10.7455 33.8237 11.9673 35.3764C12.6418 36.2418 15.0981 38.5963 14.869 39.5381C14.869 39.6908 13.0363 40.9507 12.6418 41.2816L8.30196 44.8452C6.46929 46.3597 2.74033 48.3323 2.11672 50.7632C1.4931 53.194 3.4912 54.4158 5.1966 55.5739L15.6199 62.6246V59.9138C12.9218 61.1865 6.22746 62.8791 6.29109 66.7354C6.29109 70.1716 12.0818 72.8443 14.6654 74.1042C14.4745 73.3788 14.2963 72.6661 14.1054 71.9534C13.2634 73.5469 12.3285 75.0895 11.3055 76.5733C10.3382 77.9605 8.5438 79.5895 7.93291 81.1931C6.94021 83.8657 9.1165 84.9094 11.3437 85.1639C21.907 86.4366 33.0557 84.9348 43.6699 84.6675C67.0364 84.1076 90.4157 85.393 113.795 85.8766C137.475 86.3772 161.164 86.6699 184.862 86.7548C208.177 86.8693 231.506 87.2766 254.86 87.1111C267.586 87.022 280.313 87.2002 293.04 86.2457C296.693 85.9657 299.773 84.5912 297.864 80.5822C296.693 78.1387 287.988 65.87 291.029 64.1518C291.207 64.0482 291.363 63.9105 291.488 63.7467C291.613 63.5828 291.704 63.396 291.757 63.1969C291.809 62.9978 291.822 62.7902 291.794 62.5861C291.767 62.382 291.699 62.1853 291.596 62.0074C291.492 61.8294 291.354 61.6735 291.191 61.5487C291.027 61.4239 290.84 61.3326 290.641 61.28C290.442 61.2275 290.234 61.2146 290.03 61.2422C289.826 61.2698 289.629 61.3374 289.451 61.441C287.097 62.7137 286.104 64.5209 287.02 67.219C288.433 71.3807 291.398 75.4406 293.549 79.2968C293.791 79.7423 295.56 82.1985 295.089 82.7585C295 82.873 291.386 83.2039 291.271 83.2167C288.497 83.4203 285.684 83.4076 282.897 83.4839C277.306 83.6452 271.723 83.7682 266.148 83.853C244.029 84.1966 221.91 83.7003 199.79 83.6621C154.75 83.5858 109.71 82.924 64.7074 81.3967C52.426 80.9768 40.1064 81.664 27.7995 82.0585C22.4924 82.2367 17.0581 81.8804 11.8273 81.9694C11.0637 81.9694 11.0127 82.9112 11.2036 82.1985C11.4455 81.2567 12.9727 79.8568 13.5836 78.9914C14.8082 77.2404 15.9259 75.4171 16.9307 73.5315C17.1359 73.1728 17.1923 72.7479 17.0876 72.3481C16.9829 71.9483 16.7255 71.6055 16.3707 71.3934C14.6144 70.5407 10.1601 68.6826 10.5292 66.6718C10.8473 64.9791 15.8108 63.3628 17.3253 62.6246C17.5569 62.4823 17.7482 62.2829 17.8809 62.0457C18.0136 61.8084 18.0833 61.5411 18.0833 61.2692C18.0833 60.9973 18.0136 60.73 17.8809 60.4927C17.7482 60.2554 17.5569 60.0561 17.3253 59.9138L9.09102 54.3521C7.81833 53.4485 5.45113 52.7613 6.30383 50.6359C6.71109 49.6177 9.28192 48.1796 10.1219 47.4669C12.4127 45.5706 15.2126 43.8397 17.2871 41.7525C17.7116 41.3827 18.0071 40.8871 18.1307 40.3378C18.2543 39.7885 18.1995 39.2141 17.9743 38.6981C17.3889 36.4963 15.7344 35.02 14.3472 33.2764C12.4509 30.8583 10.6055 28.4148 8.73463 25.9839C7.6783 24.6094 6.53289 24.0876 8.18738 22.8404C9.27879 22.2246 10.4197 21.701 11.5982 21.275C14.6006 19.8068 17.5273 18.1885 20.367 16.4261C20.5717 16.3022 20.7458 16.1338 20.8764 15.9333C21.007 15.7329 21.0908 15.5056 21.1213 15.2683C21.1519 15.031 21.1286 14.7899 21.0531 14.5628C20.9775 14.3358 20.8518 14.1288 20.6852 13.9571C19.4125 12.6844 14.5508 9.22266 14.5508 7.26272L13.7745 8.6245C14.1999 8.39754 14.5544 8.05768 14.7992 7.6423C15.0439 7.22691 15.1694 6.75209 15.1618 6.27003L14.3854 7.61907C15.7217 6.7791 19.6161 7.17364 21.1433 7.09728C23.256 6.99546 25.3771 6.90636 27.5068 6.83C31.9696 6.65183 36.4368 6.52032 40.9082 6.43547C50.0715 6.24457 59.2349 6.18093 68.4109 6.06639C86.3304 5.86276 104.237 5.60823 122.157 5.51914C158.267 5.34096 194.369 5.60399 230.462 6.30821C240.364 6.51184 250.269 6.75365 260.179 7.03364C265.372 7.16939 270.56 7.32211 275.744 7.49181L282.808 7.73362C285.544 7.82271 289.044 7.42817 291.717 8.20451C291.983 8.27982 292.265 8.28298 292.534 8.21366C292.802 8.14435 293.047 8.00504 293.244 7.80998L292.709 8.05179L291.933 6.69002C292.162 8.70086 289.948 12.1117 289.108 13.9189C288.42 15.3825 287.644 16.8079 287.02 18.3096C286.402 19.6385 286.065 21.0813 286.032 22.5468C285.999 24.0123 286.271 25.4686 286.829 26.8239C288.038 29.6442 289.612 32.293 291.513 34.7019C292.862 36.5345 293.829 36.8654 291.64 38.5199C289.706 40.0344 287.351 41.2562 285.277 42.5671C284.921 42.7815 284.663 43.1266 284.559 43.5285C284.454 43.9304 284.511 44.3572 284.717 44.7179C286.699 48.0687 289.112 51.1451 291.895 53.8685C292.989 54.9249 295.369 56.1085 295.191 57.5975C295.013 59.0865 290.749 60.7029 289.502 61.4156C287.529 62.4083 289.108 65.1318 290.877 64.1518Z"/>
</mask>
<path d="M290.877 64.1518C293.422 62.7264 300.982 60.4865 298.78 56.1721C297.762 54.1612 295.076 52.8758 293.486 51.285C291.076 48.8522 288.973 46.1339 287.224 43.1907L286.651 45.3288C289.324 43.6361 292.773 42.0962 295.064 39.9326C295.566 39.5306 295.944 38.9943 296.153 38.386C296.363 37.7777 296.396 37.1224 296.247 36.4963C295.84 34.9055 294.135 33.3146 293.193 31.991C291.579 29.9118 290.291 27.5987 289.375 25.1312C287.746 19.9132 292.696 13.8552 294.466 9.03176C294.962 7.68271 295.369 6.35911 294.147 5.34096C293.67 4.96568 293.07 4.7824 292.465 4.82715C291.86 4.87189 291.293 5.14143 290.877 5.58278L292.404 5.17552C288.586 4.05555 283.839 4.62826 279.881 4.50099C275.172 4.33554 270.45 4.19554 265.741 4.05555C256.272 3.76707 246.82 3.52102 237.386 3.31739C218.27 2.90165 199.18 2.61741 180.115 2.46469C142.138 2.15924 104.173 2.46469 66.2092 2.94831C55.8623 3.07558 45.5153 3.15194 35.1684 3.43193C30.0012 3.56768 24.8384 3.76707 19.6798 4.0301C17.1344 4.17009 12.2091 3.26648 11.9163 6.84273C12.1709 6.39729 12.4255 5.93913 12.6927 5.49369C8.53106 8.61177 16.1417 14.1225 18.3944 16.1715C18.5089 15.357 18.6107 14.5298 18.7125 13.7152C15.5198 15.6976 12.2183 17.4991 8.82372 19.1114C6.87651 20.015 3.89843 20.575 3.73298 23.2095C3.56753 25.844 6.86379 28.7457 8.35284 30.6929C9.62552 32.2456 10.7455 33.8237 11.9673 35.3764C12.6418 36.2418 15.0981 38.5963 14.869 39.5381C14.869 39.6908 13.0363 40.9507 12.6418 41.2816L8.30196 44.8452C6.46929 46.3597 2.74033 48.3323 2.11672 50.7632C1.4931 53.194 3.4912 54.4158 5.1966 55.5739L15.6199 62.6246V59.9138C12.9218 61.1865 6.22746 62.8791 6.29109 66.7354C6.29109 70.1716 12.0818 72.8443 14.6654 74.1042C14.4745 73.3788 14.2963 72.6661 14.1054 71.9534C13.2634 73.5469 12.3285 75.0895 11.3055 76.5733C10.3382 77.9605 8.5438 79.5895 7.93291 81.1931C6.94021 83.8657 9.1165 84.9094 11.3437 85.1639C21.907 86.4366 33.0557 84.9348 43.6699 84.6675C67.0364 84.1076 90.4157 85.393 113.795 85.8766C137.475 86.3772 161.164 86.6699 184.862 86.7548C208.177 86.8693 231.506 87.2766 254.86 87.1111C267.586 87.022 280.313 87.2002 293.04 86.2457C296.693 85.9657 299.773 84.5912 297.864 80.5822C296.693 78.1387 287.988 65.87 291.029 64.1518C291.207 64.0482 291.363 63.9105 291.488 63.7467C291.613 63.5828 291.704 63.396 291.757 63.1969C291.809 62.9978 291.822 62.7902 291.794 62.5861C291.767 62.382 291.699 62.1853 291.596 62.0074C291.492 61.8294 291.354 61.6735 291.191 61.5487C291.027 61.4239 290.84 61.3326 290.641 61.28C290.442 61.2275 290.234 61.2146 290.03 61.2422C289.826 61.2698 289.629 61.3374 289.451 61.441C287.097 62.7137 286.104 64.5209 287.02 67.219C288.433 71.3807 291.398 75.4406 293.549 79.2968C293.791 79.7423 295.56 82.1985 295.089 82.7585C295 82.873 291.386 83.2039 291.271 83.2167C288.497 83.4203 285.684 83.4076 282.897 83.4839C277.306 83.6452 271.723 83.7682 266.148 83.853C244.029 84.1966 221.91 83.7003 199.79 83.6621C154.75 83.5858 109.71 82.924 64.7074 81.3967C52.426 80.9768 40.1064 81.664 27.7995 82.0585C22.4924 82.2367 17.0581 81.8804 11.8273 81.9694C11.0637 81.9694 11.0127 82.9112 11.2036 82.1985C11.4455 81.2567 12.9727 79.8568 13.5836 78.9914C14.8082 77.2404 15.9259 75.4171 16.9307 73.5315C17.1359 73.1728 17.1923 72.7479 17.0876 72.3481C16.9829 71.9483 16.7255 71.6055 16.3707 71.3934C14.6144 70.5407 10.1601 68.6826 10.5292 66.6718C10.8473 64.9791 15.8108 63.3628 17.3253 62.6246C17.5569 62.4823 17.7482 62.2829 17.8809 62.0457C18.0136 61.8084 18.0833 61.5411 18.0833 61.2692C18.0833 60.9973 18.0136 60.73 17.8809 60.4927C17.7482 60.2554 17.5569 60.0561 17.3253 59.9138L9.09102 54.3521C7.81833 53.4485 5.45113 52.7613 6.30383 50.6359C6.71109 49.6177 9.28192 48.1796 10.1219 47.4669C12.4127 45.5706 15.2126 43.8397 17.2871 41.7525C17.7116 41.3827 18.0071 40.8871 18.1307 40.3378C18.2543 39.7885 18.1995 39.2141 17.9743 38.6981C17.3889 36.4963 15.7344 35.02 14.3472 33.2764C12.4509 30.8583 10.6055 28.4148 8.73463 25.9839C7.6783 24.6094 6.53289 24.0876 8.18738 22.8404C9.27879 22.2246 10.4197 21.701 11.5982 21.275C14.6006 19.8068 17.5273 18.1885 20.367 16.4261C20.5717 16.3022 20.7458 16.1338 20.8764 15.9333C21.007 15.7329 21.0908 15.5056 21.1213 15.2683C21.1519 15.031 21.1286 14.7899 21.0531 14.5628C20.9775 14.3358 20.8518 14.1288 20.6852 13.9571C19.4125 12.6844 14.5508 9.22266 14.5508 7.26272L13.7745 8.6245C14.1999 8.39754 14.5544 8.05768 14.7992 7.6423C15.0439 7.22691 15.1694 6.75209 15.1618 6.27003L14.3854 7.61907C15.7217 6.7791 19.6161 7.17364 21.1433 7.09728C23.256 6.99546 25.3771 6.90636 27.5068 6.83C31.9696 6.65183 36.4368 6.52032 40.9082 6.43547C50.0715 6.24457 59.2349 6.18093 68.4109 6.06639C86.3304 5.86276 104.237 5.60823 122.157 5.51914C158.267 5.34096 194.369 5.60399 230.462 6.30821C240.364 6.51184 250.269 6.75365 260.179 7.03364C265.372 7.16939 270.56 7.32211 275.744 7.49181L282.808 7.73362C285.544 7.82271 289.044 7.42817 291.717 8.20451C291.983 8.27982 292.265 8.28298 292.534 8.21366C292.802 8.14435 293.047 8.00504 293.244 7.80998L292.709 8.05179L291.933 6.69002C292.162 8.70086 289.948 12.1117 289.108 13.9189C288.42 15.3825 287.644 16.8079 287.02 18.3096C286.402 19.6385 286.065 21.0813 286.032 22.5468C285.999 24.0123 286.271 25.4686 286.829 26.8239C288.038 29.6442 289.612 32.293 291.513 34.7019C292.862 36.5345 293.829 36.8654 291.64 38.5199C289.706 40.0344 287.351 41.2562 285.277 42.5671C284.921 42.7815 284.663 43.1266 284.559 43.5285C284.454 43.9304 284.511 44.3572 284.717 44.7179C286.699 48.0687 289.112 51.1451 291.895 53.8685C292.989 54.9249 295.369 56.1085 295.191 57.5975C295.013 59.0865 290.749 60.7029 289.502 61.4156C287.529 62.4083 289.108 65.1318 290.877 64.1518Z" fill="#60C9EB"/>
<path d="M290.877 64.1518C293.422 62.7264 300.982 60.4865 298.78 56.1721C297.762 54.1612 295.076 52.8758 293.486 51.285C291.076 48.8522 288.973 46.1339 287.224 43.1907L286.651 45.3288C289.324 43.6361 292.773 42.0962 295.064 39.9326C295.566 39.5306 295.944 38.9943 296.153 38.386C296.363 37.7777 296.396 37.1224 296.247 36.4963C295.84 34.9055 294.135 33.3146 293.193 31.991C291.579 29.9118 290.291 27.5987 289.375 25.1312C287.746 19.9132 292.696 13.8552 294.466 9.03176C294.962 7.68271 295.369 6.35911 294.147 5.34096C293.67 4.96568 293.07 4.7824 292.465 4.82715C291.86 4.87189 291.293 5.14143 290.877 5.58278L292.404 5.17552C288.586 4.05555 283.839 4.62826 279.881 4.50099C275.172 4.33554 270.45 4.19554 265.741 4.05555C256.272 3.76707 246.82 3.52102 237.386 3.31739C218.27 2.90165 199.18 2.61741 180.115 2.46469C142.138 2.15924 104.173 2.46469 66.2092 2.94831C55.8623 3.07558 45.5153 3.15194 35.1684 3.43193C30.0012 3.56768 24.8384 3.76707 19.6798 4.0301C17.1344 4.17009 12.2091 3.26648 11.9163 6.84273C12.1709 6.39729 12.4255 5.93913 12.6927 5.49369C8.53106 8.61177 16.1417 14.1225 18.3944 16.1715C18.5089 15.357 18.6107 14.5298 18.7125 13.7152C15.5198 15.6976 12.2183 17.4991 8.82372 19.1114C6.87651 20.015 3.89843 20.575 3.73298 23.2095C3.56753 25.844 6.86379 28.7457 8.35284 30.6929C9.62552 32.2456 10.7455 33.8237 11.9673 35.3764C12.6418 36.2418 15.0981 38.5963 14.869 39.5381C14.869 39.6908 13.0363 40.9507 12.6418 41.2816L8.30196 44.8452C6.46929 46.3597 2.74033 48.3323 2.11672 50.7632C1.4931 53.194 3.4912 54.4158 5.1966 55.5739L15.6199 62.6246V59.9138C12.9218 61.1865 6.22746 62.8791 6.29109 66.7354C6.29109 70.1716 12.0818 72.8443 14.6654 74.1042C14.4745 73.3788 14.2963 72.6661 14.1054 71.9534C13.2634 73.5469 12.3285 75.0895 11.3055 76.5733C10.3382 77.9605 8.5438 79.5895 7.93291 81.1931C6.94021 83.8657 9.1165 84.9094 11.3437 85.1639C21.907 86.4366 33.0557 84.9348 43.6699 84.6675C67.0364 84.1076 90.4157 85.393 113.795 85.8766C137.475 86.3772 161.164 86.6699 184.862 86.7548C208.177 86.8693 231.506 87.2766 254.86 87.1111C267.586 87.022 280.313 87.2002 293.04 86.2457C296.693 85.9657 299.773 84.5912 297.864 80.5822C296.693 78.1387 287.988 65.87 291.029 64.1518C291.207 64.0482 291.363 63.9105 291.488 63.7467C291.613 63.5828 291.704 63.396 291.757 63.1969C291.809 62.9978 291.822 62.7902 291.794 62.5861C291.767 62.382 291.699 62.1853 291.596 62.0074C291.492 61.8294 291.354 61.6735 291.191 61.5487C291.027 61.4239 290.84 61.3326 290.641 61.28C290.442 61.2275 290.234 61.2146 290.03 61.2422C289.826 61.2698 289.629 61.3374 289.451 61.441C287.097 62.7137 286.104 64.5209 287.02 67.219C288.433 71.3807 291.398 75.4406 293.549 79.2968C293.791 79.7423 295.56 82.1985 295.089 82.7585C295 82.873 291.386 83.2039 291.271 83.2167C288.497 83.4203 285.684 83.4076 282.897 83.4839C277.306 83.6452 271.723 83.7682 266.148 83.853C244.029 84.1966 221.91 83.7003 199.79 83.6621C154.75 83.5858 109.71 82.924 64.7074 81.3967C52.426 80.9768 40.1064 81.664 27.7995 82.0585C22.4924 82.2367 17.0581 81.8804 11.8273 81.9694C11.0637 81.9694 11.0127 82.9112 11.2036 82.1985C11.4455 81.2567 12.9727 79.8568 13.5836 78.9914C14.8082 77.2404 15.9259 75.4171 16.9307 73.5315C17.1359 73.1728 17.1923 72.7479 17.0876 72.3481C16.9829 71.9483 16.7255 71.6055 16.3707 71.3934C14.6144 70.5407 10.1601 68.6826 10.5292 66.6718C10.8473 64.9791 15.8108 63.3628 17.3253 62.6246C17.5569 62.4823 17.7482 62.2829 17.8809 62.0457C18.0136 61.8084 18.0833 61.5411 18.0833 61.2692C18.0833 60.9973 18.0136 60.73 17.8809 60.4927C17.7482 60.2554 17.5569 60.0561 17.3253 59.9138L9.09102 54.3521C7.81833 53.4485 5.45113 52.7613 6.30383 50.6359C6.71109 49.6177 9.28192 48.1796 10.1219 47.4669C12.4127 45.5706 15.2126 43.8397 17.2871 41.7525C17.7116 41.3827 18.0071 40.8871 18.1307 40.3378C18.2543 39.7885 18.1995 39.2141 17.9743 38.6981C17.3889 36.4963 15.7344 35.02 14.3472 33.2764C12.4509 30.8583 10.6055 28.4148 8.73463 25.9839C7.6783 24.6094 6.53289 24.0876 8.18738 22.8404C9.27879 22.2246 10.4197 21.701 11.5982 21.275C14.6006 19.8068 17.5273 18.1885 20.367 16.4261C20.5717 16.3022 20.7458 16.1338 20.8764 15.9333C21.007 15.7329 21.0908 15.5056 21.1213 15.2683C21.1519 15.031 21.1286 14.7899 21.0531 14.5628C20.9775 14.3358 20.8518 14.1288 20.6852 13.9571C19.4125 12.6844 14.5508 9.22266 14.5508 7.26272L13.7745 8.6245C14.1999 8.39754 14.5544 8.05768 14.7992 7.6423C15.0439 7.22691 15.1694 6.75209 15.1618 6.27003L14.3854 7.61907C15.7217 6.7791 19.6161 7.17364 21.1433 7.09728C23.256 6.99546 25.3771 6.90636 27.5068 6.83C31.9696 6.65183 36.4368 6.52032 40.9082 6.43547C50.0715 6.24457 59.2349 6.18093 68.4109 6.06639C86.3304 5.86276 104.237 5.60823 122.157 5.51914C158.267 5.34096 194.369 5.60399 230.462 6.30821C240.364 6.51184 250.269 6.75365 260.179 7.03364C265.372 7.16939 270.56 7.32211 275.744 7.49181L282.808 7.73362C285.544 7.82271 289.044 7.42817 291.717 8.20451C291.983 8.27982 292.265 8.28298 292.534 8.21366C292.802 8.14435 293.047 8.00504 293.244 7.80998L292.709 8.05179L291.933 6.69002C292.162 8.70086 289.948 12.1117 289.108 13.9189C288.42 15.3825 287.644 16.8079 287.02 18.3096C286.402 19.6385 286.065 21.0813 286.032 22.5468C285.999 24.0123 286.271 25.4686 286.829 26.8239C288.038 29.6442 289.612 32.293 291.513 34.7019C292.862 36.5345 293.829 36.8654 291.64 38.5199C289.706 40.0344 287.351 41.2562 285.277 42.5671C284.921 42.7815 284.663 43.1266 284.559 43.5285C284.454 43.9304 284.511 44.3572 284.717 44.7179C286.699 48.0687 289.112 51.1451 291.895 53.8685C292.989 54.9249 295.369 56.1085 295.191 57.5975C295.013 59.0865 290.749 60.7029 289.502 61.4156C287.529 62.4083 289.108 65.1318 290.877 64.1518Z" stroke="#60C9EB" stroke-width="3.41908" mask="url(#path-2-outside-1_129_23929)"/>
<path d="M62.4927 18.1823C61.22 16.6169 60.0872 16.6296 59.0054 17.3423C57.3077 18.3845 55.9432 19.8902 55.0729 21.6822C53.5711 20.1295 52.1966 17.6859 49.9058 18.2205C47.6149 18.755 47.5004 21.1858 48.0349 23.0821C48.7623 25.4547 50.1074 27.5912 51.9323 29.2729C53.7571 30.9546 55.9961 32.1211 58.4201 32.6527C58.545 32.7674 58.6964 32.8495 58.8606 32.8916C59.0249 32.9338 59.1971 32.9348 59.3618 32.8945H59.6291C59.8142 32.9293 60.0056 32.8921 60.1642 32.7903C60.3227 32.6886 60.4363 32.5301 60.4818 32.3473C60.5524 32.2472 60.6042 32.1351 60.6345 32.0164C61.4363 29.0256 62.4036 26.022 63.0527 22.9803C63.3119 22.1876 63.396 21.3482 63.2994 20.5198C63.2027 19.6915 62.9275 18.8939 62.4927 18.1823V18.1823Z" fill="#60C9EB"/>
<path d="M46.0681 55.5741C45.8345 55.0182 45.4262 54.5535 44.9049 54.2504C44.3836 53.9473 43.7778 53.8222 43.1791 53.8942C42.6327 53.7871 42.067 53.8401 41.5501 54.0469C39.7937 54.7596 39.1192 56.6814 38.3301 58.3995C37.1338 56.8723 35.4666 54.9378 33.8121 55.3196C32.1576 55.7014 31.7377 57.9923 31.9413 59.5831C32.5904 64.8011 38.0756 70.1082 43.0263 69.7646C43.2219 69.7525 43.4069 69.6713 43.5482 69.5355C43.6876 69.5139 43.8196 69.4586 43.9328 69.3743C44.0459 69.29 44.1367 69.1793 44.1973 69.0519C46.0554 65.552 48.0535 59.4304 46.0681 55.5741ZM40.9901 67.3338L41.1046 67.4483L40.8119 67.3592C40.8724 67.3641 40.9333 67.3554 40.9901 67.3338V67.3338Z" fill="#60C9EB"/>
<path d="M97.9131 60.8932C97.8233 60.2876 97.5452 59.7255 97.118 59.2869C96.6908 58.8483 96.1363 58.5554 95.5332 58.4497C95.0383 58.1988 94.4812 58.0971 93.9296 58.1569C92.0587 58.3479 90.9388 60.0023 89.7679 61.4405C88.9789 59.6205 87.8334 57.2915 86.1407 57.1897C84.4481 57.0879 83.5063 59.2006 83.3027 60.7787C82.6663 66.0094 86.6626 72.6783 91.537 73.6965C91.7199 73.7495 91.914 73.7495 92.0969 73.6965C92.2343 73.7091 92.3727 73.6892 92.501 73.6383C92.6292 73.5874 92.7437 73.5071 92.8351 73.4037C95.4823 70.5402 98.8931 65.1949 97.9131 60.8932ZM90.1497 70.8202L90.2261 70.9602L89.9715 70.7947L90.1497 70.8202Z" fill="#60C9EB"/>
<path d="M225.765 29.7768C224.569 28.2114 223.372 28.2241 222.278 28.9368C220.587 29.983 219.227 31.488 218.358 33.2767C216.856 31.724 215.482 29.2804 213.178 29.8149C211.078 30.2986 210.773 32.7803 211.32 34.6766C212.04 37.053 213.383 39.1935 215.209 40.8763C217.035 42.5591 219.278 43.723 221.705 44.2472C221.836 44.351 221.99 44.4214 222.154 44.4524C222.318 44.4835 222.487 44.4742 222.647 44.4254H222.901C223.087 44.4635 223.28 44.4275 223.439 44.3253C223.598 44.2231 223.711 44.0626 223.754 43.8781C223.83 43.781 223.882 43.6678 223.907 43.5472C224.721 40.5564 225.676 37.5529 226.338 34.5112C226.589 33.7273 226.668 32.8985 226.569 32.0814C226.47 31.2642 226.196 30.4781 225.765 29.7768V29.7768Z" fill="#60C9EB"/>
<path d="M268.262 60.8932C268.171 60.2901 267.894 59.7303 267.47 59.2922C267.046 58.8541 266.495 58.5596 265.895 58.4497C265.4 58.1988 264.843 58.0971 264.291 58.1569C262.421 58.3478 261.301 60.0023 260.117 61.4405C259.328 59.6205 258.195 57.2915 256.503 57.1897C254.81 57.0879 253.855 59.2006 253.664 60.7787C253.015 66.0094 257.024 72.6783 261.886 73.6965C262.069 73.7502 262.263 73.7502 262.446 73.6965C262.583 73.7101 262.722 73.6907 262.851 73.6398C262.979 73.5888 263.093 73.5079 263.184 73.4037C265.831 70.5402 269.242 65.1949 268.262 60.8932ZM260.511 70.8202C260.532 70.8694 260.558 70.9163 260.588 70.9602L260.333 70.7947L260.511 70.8202Z" fill="#60C9EB"/>
<path d="M148.828 53.0781C148.09 51.22 146.931 50.8764 145.71 51.22C143.813 51.6969 142.103 52.7295 140.797 54.1854C139.766 52.2382 139.092 49.4637 136.75 49.2728C134.612 49.1073 133.657 51.3854 133.683 53.3708C133.755 55.8926 134.476 58.3531 135.776 60.5154C137.075 62.6776 138.91 64.4687 141.103 65.7159C141.199 65.8542 141.327 65.9685 141.474 66.0502C141.622 66.1318 141.787 66.1785 141.955 66.1868L142.197 66.3013C142.276 66.3488 142.364 66.3799 142.455 66.3928C142.546 66.4057 142.639 66.4001 142.728 66.3764C142.817 66.3526 142.901 66.3112 142.973 66.2546C143.046 66.198 143.107 66.1273 143.152 66.0468C143.248 65.9732 143.33 65.8826 143.393 65.7795C144.959 63.1578 146.677 60.5615 148.102 57.8507C148.564 57.1563 148.868 56.3693 148.994 55.5448C149.119 54.7203 149.062 53.8784 148.828 53.0781V53.0781Z" fill="#60C9EB"/>
<path d="M182.903 20.8033C182.936 20.1861 182.779 19.5737 182.453 19.0482C182.128 18.5226 181.65 18.1092 181.083 17.8634C180.659 17.4943 180.137 17.2556 179.581 17.1761C177.71 16.9216 176.285 18.2834 174.834 19.3906C174.439 17.4434 173.816 14.898 172.187 14.4017C170.558 13.9053 169.196 15.6744 168.674 17.2271C166.969 22.1651 169.501 29.623 174.045 31.7739C174.226 31.835 174.423 31.835 174.605 31.7739C174.733 31.8223 174.87 31.8384 175.006 31.8206C175.141 31.8029 175.27 31.7518 175.381 31.672C178.537 29.6103 182.966 25.2577 182.903 20.8033ZM173.23 28.6431C173.224 28.6938 173.224 28.745 173.23 28.7958L173.014 28.5667L173.23 28.6431Z" fill="#60C9EB"/>
<path d="M117.987 18.1823C116.791 16.6169 115.595 16.6296 114.5 17.3423C112.809 18.3885 111.45 19.8935 110.58 21.6822C109.079 20.1295 107.704 17.6859 105.401 18.2205C103.301 18.7041 102.995 21.1858 103.542 23.0821C104.263 25.4585 105.605 27.5991 107.431 29.2819C109.258 30.9647 111.5 32.1285 113.928 32.6527C114.058 32.7565 114.212 32.8269 114.376 32.8579C114.54 32.889 114.71 32.8797 114.869 32.8309H115.124C115.309 32.869 115.502 32.8331 115.662 32.7308C115.821 32.6286 115.934 32.4681 115.977 32.2837C116.052 32.1865 116.104 32.0733 116.129 31.9528C116.944 28.9619 117.898 25.9584 118.56 22.9167C118.811 22.1328 118.89 21.304 118.791 20.4869C118.692 19.6698 118.418 18.8836 117.987 18.1823V18.1823Z" fill="#60C9EB"/>
<path d="M203.178 65.1824C203.089 64.5776 202.811 64.0164 202.384 63.5796C201.956 63.1428 201.401 62.8529 200.798 62.7516C200.307 62.4905 199.748 62.3841 199.194 62.4462C197.324 62.6371 196.204 64.2916 195.02 65.7297C194.244 63.9225 193.098 61.5807 191.406 61.4917C189.713 61.4026 188.771 63.4898 188.568 65.0806C187.931 70.2986 191.927 76.9675 196.802 77.9857C196.99 78.0307 197.188 78.0081 197.362 77.922C197.499 77.9347 197.638 77.9147 197.766 77.8639C197.894 77.813 198.009 77.7327 198.1 77.6293C200.696 74.8167 204.107 69.4714 203.178 65.1824ZM195.364 75.0967L195.44 75.2367L195.185 75.0712L195.364 75.0967Z" fill="#60C9EB"/>
<path d="M273.822 17.3037C273.536 16.7751 273.086 16.3546 272.539 16.1063C271.992 15.8581 271.378 15.7959 270.793 15.9292C270.238 15.8833 269.681 15.9981 269.189 16.2601C267.509 17.151 267 19.1364 266.377 20.9181C265.104 19.5182 263.208 17.7746 261.591 18.3728C259.975 18.9709 259.784 21.2618 260.115 22.8144C261.248 27.9052 267.178 32.665 272.065 31.7232C272.26 31.6851 272.438 31.5872 272.575 31.4433C272.71 31.407 272.833 31.3381 272.936 31.2427C273.038 31.1473 273.115 31.0282 273.16 30.896C274.713 27.2434 276.151 20.9436 273.822 17.3037ZM269.826 29.496L269.94 29.5979H269.647L269.826 29.496Z" fill="#60C9EB"/>
</svg>
