<svg width="131" height="131" viewBox="0 0 131 131" fill="none" xmlns="http://www.w3.org/2000/svg">
<mask id="mask0_2_8758" style="mask-type:alpha" maskUnits="userSpaceOnUse" x="3" y="3" width="126" height="126">
<path d="M128.205 65.5942C128.207 69.3287 127.877 73.0559 127.219 76.7319C127.197 76.8567 127.175 76.9778 127.149 77.099C126.256 81.9232 124.795 86.6245 122.794 91.1039C122.449 91.8723 122.091 92.6345 121.719 93.3907C121.23 94.3818 120.712 95.3608 120.164 96.3275C119.746 97.0617 119.31 97.7959 118.858 98.53C116.3 102.659 113.273 106.478 109.837 109.91C108.915 110.828 107.966 111.719 106.99 112.583C103.198 115.93 99.0146 118.806 94.5316 121.147C93.233 121.822 91.9086 122.455 90.5586 123.045C82.696 126.462 74.2136 128.219 65.6417 128.206C56.8292 128.217 48.1143 126.359 40.0717 122.755C39.9212 122.689 39.7673 122.619 39.6168 122.546C36.3837 121.069 33.2844 119.315 30.3537 117.304C28.3155 115.909 26.3616 114.395 24.5023 112.77C24.4797 112.752 24.4589 112.732 24.4399 112.711C24.2235 112.524 24.0107 112.344 23.7979 112.142C18.3893 107.272 13.8672 101.499 10.4333 95.0795C9.40244 93.1513 8.47437 91.1699 7.65264 89.1436C7.08768 87.7511 6.57156 86.3329 6.10443 84.889C6.0494 84.7202 5.99439 84.551 5.94303 84.3821C5.84398 84.0701 5.75235 83.7617 5.65696 83.4497C5.47354 82.8256 5.2986 82.1979 5.13229 81.5665C3.76639 76.3563 3.07719 70.9918 3.08162 65.6053C3.0605 52.2082 7.35308 39.1606 15.3235 28.3962C15.8481 27.6914 16.3839 26.9941 16.9378 26.3076C17.7376 25.3287 18.5653 24.3642 19.4213 23.4146C19.4499 23.3786 19.4805 23.3446 19.513 23.3121C19.7148 23.0881 19.9203 22.864 20.1294 22.6474C20.1384 22.6346 20.1495 22.6235 20.1623 22.6144C26.004 16.4094 33.0543 11.4678 40.8781 8.09439C48.7019 4.721 57.1334 2.9875 65.6526 3.00056C74.1439 2.99045 82.548 4.71488 90.3499 8.06858C98.1518 11.4223 105.187 16.3346 111.026 22.5044C113.171 24.7603 115.144 27.174 116.928 29.7252C124.289 40.2339 128.228 52.761 128.205 65.5942Z" fill="#E96262"/>
</mask>
<g mask="url(#mask0_2_8758)">
<path d="M128.208 65.5937C128.21 69.3282 127.88 73.0555 127.221 76.7314C127.199 76.8562 127.177 76.9773 127.152 77.0985C126.259 81.9227 124.797 86.624 122.797 91.1034C122.452 91.8718 122.094 92.634 121.722 93.3902C121.233 94.3814 120.715 95.3603 120.167 96.327C119.748 97.0612 119.313 97.7954 118.861 98.5296C116.303 102.659 113.276 106.477 109.84 109.91C108.918 110.827 107.969 111.718 106.993 112.582C103.201 115.93 99.0173 118.805 94.5343 121.147C93.2357 121.822 91.9113 122.455 90.5612 123.044C82.6987 126.461 74.2163 128.218 65.6443 128.206C56.8319 128.217 48.117 126.359 40.0743 122.754C39.9239 122.688 39.7699 122.618 39.6195 122.545C36.3863 121.069 33.287 119.315 30.3564 117.303C28.3182 115.909 26.3643 114.395 24.505 112.769C24.4824 112.752 24.4616 112.732 24.4426 112.71C24.2262 112.523 24.0134 112.343 23.8006 112.142C18.392 107.271 13.8698 101.498 10.436 95.0791C9.40513 93.1508 8.47706 91.1694 7.65533 89.1431C7.09037 87.7506 6.57425 86.3324 6.10711 84.8885C6.05209 84.7197 5.99708 84.5505 5.94572 84.3816C5.84667 84.0696 5.75503 83.7612 5.65965 83.4492C5.47622 82.8251 5.30129 82.1974 5.13498 81.566C3.76907 76.3558 3.07988 70.9913 3.08431 65.6048C3.06319 52.2077 7.35576 39.1601 15.3262 28.3957C15.8508 27.6909 16.3865 26.9936 16.9405 26.3071C17.7402 25.3282 18.568 24.3637 19.424 23.4141C19.4526 23.3781 19.4832 23.3441 19.5157 23.3116C19.7174 23.0877 19.9229 22.8635 20.132 22.6469C20.1411 22.6341 20.1522 22.623 20.165 22.614C26.0067 16.4089 33.057 11.4673 40.8808 8.0939C48.7046 4.72051 57.1361 2.98701 65.6553 3.00007C74.1466 2.98997 82.5507 4.71439 90.3526 8.06809C98.1544 11.4218 105.19 16.3341 111.028 22.5039C113.173 24.7599 115.146 27.1735 116.931 29.7247C124.292 40.2334 128.231 52.7605 128.208 65.5937Z" fill="#E96262"/>
<path d="M44.0416 85.1715C44.4708 84.0298 45.1423 83.3361 45.6485 82.4C46.3823 81.0821 46.4006 79.5806 47.116 78.5931C47.8313 77.6057 48.9942 76.7943 49.8307 75.737C50.5167 74.8707 51.1476 73.6741 52.1271 72.9178C52.3656 72.7343 52.6335 72.7341 52.8022 72.5873C53.1104 72.3193 53.1397 72.0256 53.3782 71.9155C54.5448 71.3685 55.8728 72.8775 56.8413 73.329C56.999 73.4061 57.7364 73.5933 58.1949 73.6961C58.9286 73.8943 59.5707 73.6484 60.3558 73.6043C62.1277 73.5089 63.6391 73.2372 64.9415 71.4494C65.4478 70.7483 65.6751 69.5479 66.695 68.8027C67.0618 68.5274 68.1626 68.4354 68.5771 68.7328C69.12 69.0999 69.1383 69.7095 69.3767 70.0692C69.5785 70.3703 69.9747 70.5978 70.2095 70.9135C70.6754 71.5339 70.8259 72.2461 71.1157 72.749C71.2478 72.9656 71.5449 73.1159 71.6513 73.3362C72.1612 74.3751 72.1796 75.7482 72.7519 76.8788C72.8473 77.0624 73.1187 77.2091 73.2105 77.4037C73.6617 78.4682 73.6359 79.6908 74.0101 80.5498C74.2486 81.1041 74.909 81.5849 75.1841 82.2053C75.4959 82.9028 75.2392 84.5253 75.6318 85.3145C75.9289 85.9055 76.4827 86.284 77.2348 87.0769C77.7227 87.5945 78.0969 88.6077 78.7022 88.7141C78.8875 88.7179 79.0708 88.6746 79.2349 88.5886C79.3991 88.5027 79.5389 88.3764 79.6414 88.2219C79.9899 87.708 79.4801 86.9628 79.1939 86.0193C78.7097 84.4225 77.9026 82.0954 75.8922 82.0146C76.083 81.8384 76.1416 81.6692 75.9252 81.5224C75.6243 80.4211 74.8577 79.5988 74.5165 78.6297C74.3661 78.2002 74.5165 77.7122 74.4101 77.2423C74.2597 76.4678 73.779 75.7334 73.6103 74.9992C73.5222 74.6321 73.7056 74.1881 73.6506 73.7402C73.5571 73.3234 73.4345 72.9134 73.2837 72.5138C72.7665 70.4911 72.917 68.9199 71.9632 67.0991C72.1686 64.3643 75.0814 60.9615 77.1321 58.8287C77.3339 59.082 77.521 59.0783 77.7154 59.1958C79.3149 58.0578 80.0119 56.1489 81.1785 55.1577C82.1287 55.6313 81.9122 56.773 81.9892 57.5403C82.4625 57.8193 82.2168 58.5129 82.4589 59.1076C82.701 59.7023 83.6181 60.576 84.183 61.4937C84.3114 61.7103 84.3188 62.0407 84.4472 62.2279C84.5756 62.4151 84.9461 62.6538 85.1295 62.9621C85.313 63.2705 85.3387 63.6192 85.4708 63.7734C86.1165 64.5076 87.2097 64.9959 87.793 64.8564C88.3176 64.7316 88.3727 64.3021 88.8386 63.9387C89.1137 63.7221 89.4952 63.7331 89.7667 63.3109C90.1335 62.7456 89.9354 61.6149 89.6382 60.7413C89.3048 59.637 88.8011 58.5914 88.1452 57.6428C87.9532 56.6396 87.6681 55.6564 87.294 54.706C86.9528 53.8837 86.0504 52.4265 86.641 51.6886C87.2317 50.9507 89.5099 51.3691 90.1923 52.397C90.4894 52.8558 90.0235 53.4983 90.3831 53.9865C91.0104 54.8859 92.4961 55.2715 93.4059 55.1577C93.8204 55.1027 94.1395 54.7905 94.5614 54.7207C94.9833 54.651 95.3686 55.1504 95.5961 54.5741C95.453 54.0565 94.9357 54.2803 94.6349 53.8765C94.3744 53.5314 94.5542 52.9735 94.2497 52.511C93.7875 51.8025 93.0537 51.6593 92.3053 50.8443C92.2576 50.2203 91.8505 49.6217 91.9569 48.9866C90.981 48.2121 90.3427 46.7143 89.3595 46.1122C88.8716 45.8112 88.1636 45.892 87.639 45.5433C86.2889 44.6439 85.4378 42.515 85.7277 41.5715C86.5934 38.9248 89.3961 39.6036 90.9772 38.0361C91.6559 38.0361 92.0045 38.5721 92.5695 38.7703C92.874 38.8694 93.1528 38.7115 93.4793 38.7703C94.1124 38.9266 94.705 39.2159 95.2181 39.6185C95.9518 39.2991 96.7479 39.5155 97.5477 39.9304C97.7421 39.7248 97.9476 39.6588 98.1788 39.9562C98.9785 39.4606 99.8296 39.5889 100.67 39.6256C101.734 38.9575 102.871 38.8696 103.993 38.3336C104.756 37.9665 105.145 37.4417 105.828 36.9387C106.334 36.5716 106.928 36.377 107.431 35.9805C108.16 35.4625 108.797 34.8246 109.313 34.0937C109.548 34.1304 109.793 34.3027 110.006 34.0421C110.373 33.2455 110.7 33.2344 111.107 33.0509C111.319 32.9591 111.54 32.6327 111.631 32.596C112.149 32.3867 112.732 32.5481 113.146 32.3425C113.902 31.9754 114.023 31.41 114.665 31.1824C115.108 31.0688 115.569 31.0483 116.02 31.1222C116.471 31.1961 116.901 31.3628 117.285 31.6119C117.497 31.7624 117.652 32.1187 117.89 32.2618C118.624 32.6693 119.776 32.4344 120.682 33.1025C121.676 33.8367 122.149 34.9893 123.514 35.4005C123.598 35.4221 123.684 35.4331 123.771 35.4334L132.502 3.97708C132.155 4.14725 131.784 4.2634 131.401 4.32195C130.602 4.42107 129.714 4.12395 128.892 4.37357C128.426 4.51308 127.989 4.93153 127.557 5.17015C125.509 6.27144 124.204 8.54002 123.495 10.4966C122.986 11.8879 123.129 13.8006 121.43 12.7433L121.404 12.8498L121.302 12.8939C121.008 13.2353 120.612 13.1986 120.458 12.8168C120.619 12.5084 120.825 12.5745 120.99 12.4974L121.093 12.4569L121.195 12.4128C120.846 11.8578 120.631 11.2296 120.564 10.5773C120.359 10.3387 120.197 10.4855 119.977 10.2102C119.552 9.40259 119.075 8.06292 118.048 6.86618C117.494 6.2311 116.606 5.90405 116.111 5.33505C115.839 5.01936 115.659 4.2634 115.502 3.77884C115.05 2.39121 115.425 2.15264 116.657 1.52857C117.138 1.45882 117.673 1.67509 118.26 1.48054C119.123 1.1942 120.271 -0.105164 119.706 -0.652138C119.5 -0.850372 118.418 -0.615433 117.912 -0.376816C117.009 0.0761948 116.26 0.788086 115.762 1.66803C115.238 1.60195 114.959 2.28112 114.339 2.26277C113.954 2.26277 113.719 1.89563 113.26 1.85158C113.939 2.66286 112.116 2.6224 112.013 1.94694C112.189 1.45502 113.088 1.98743 112.82 1.60565C111.272 1.40742 109.478 -1.00821 111.231 -1.83051C109.764 -2.03975 108.209 -2.70037 107.974 -4.2385C107.607 -6.60261 109.592 -9.90657 111.367 -12.8617C111.712 -13.4344 112.101 -14.0584 112.424 -14.5466C113.201 -15.6479 114.302 -15.7839 115.087 -16.2832C115.538 -16.5658 115.905 -17.0613 116.334 -17.2816C116.617 -17.4247 116.848 -17.3769 117.087 -17.5458C118.029 -18.2212 118.807 -19.686 119.746 -20.1889C120.157 -20.4055 120.847 -20.5159 121.382 -20.7288C122.205 -21.0525 123.047 -21.3257 123.903 -21.5473C124.2 -21.628 124.567 -21.6097 124.805 -21.6831C125.454 -21.8924 125.99 -22.3327 126.493 -22.4392C127.164 -22.5824 127.696 -22.3291 128.235 -22.498C128.569 -22.6081 128.844 -22.9238 129.237 -23.0633C129.897 -23.2983 130.462 -23.5002 131.141 -23.7646C131.467 -23.893 131.926 -23.8085 132.315 -23.9223C132.517 -23.981 132.682 -24.2344 132.916 -24.3152C133.327 -24.4547 133.848 -24.4069 134.215 -24.6235C134.943 -25.0727 135.709 -25.4571 136.504 -25.7725C137.124 -26.0148 137.583 -26.3711 138.184 -26.6648C138.672 -26.9034 139.204 -26.8958 139.615 -27.1197C140.334 -27.5513 140.991 -28.0775 141.571 -28.6838L143.588 -35.9634C143.245 -36.291 142.831 -36.5346 142.378 -36.6753C142.011 -36.2458 141.644 -35.7465 141.255 -35.8235C140.87 -36.1209 141.372 -36.4843 141.317 -36.8037C139.391 -37.0496 137.957 -35.2033 136.372 -33.9221C136.005 -33.6211 135.503 -33.456 135.173 -33.1366C134.222 -32.2189 133.195 -30.567 132.238 -30.1999C130.91 -29.6676 129.431 -29.4656 128.085 -28.8415C127.241 -28.4414 126.581 -27.6338 125.763 -27.2043C125.267 -26.9437 124.552 -26.9915 124.064 -26.5877C123.477 -26.9548 122.912 -27.0355 122.388 -26.5877C121.478 -27.2154 120.66 -26.6501 119.798 -26.5877C119.229 -27.0612 118.726 -26.6171 118.165 -26.9548C117.967 -26.3821 117.277 -26.2977 116.8 -26.5877C116.58 -27.689 115.465 -27.3218 114.79 -28.1808C114.001 -29.1683 114.757 -31.7453 115.766 -32.7878C116.559 -33.5492 117.482 -34.162 118.492 -34.5975C119.156 -34.8545 119.801 -34.7848 120.403 -35.1593C122.663 -36.5652 123.602 -39.1974 121.283 -40.1115C120.762 -40.3171 120.34 -40.0343 119.798 -40.3463C119.321 -39.8838 118.495 -39.9094 117.905 -39.5056C117.435 -39.1863 117.116 -38.555 116.676 -38.2283C115.395 -37.2812 113.682 -36.8003 112.306 -37.8318C112.009 -38.0521 111.675 -38.7825 111.081 -39.2744C109.584 -40.5115 109.408 -41.363 109.614 -42.8608C109.709 -43.5436 110.193 -44.4026 110.076 -45.0634C109.988 -45.5516 109.419 -45.7979 109.416 -46.4109C108.286 -46.8625 107.17 -47.1084 106.048 -47.4828C105.754 -47.4645 105.901 -47.2366 105.681 -47.0347C105.593 -47.4826 105.263 -47.3176 105.101 -47.2699C104.8 -47.1781 104.25 -47.3615 104.118 -47.3358C103.34 -47.178 102.651 -46.2346 101.884 -46.3998C101.557 -46.6311 101.811 -46.9065 101.756 -47.1598C101.169 -46.7707 101.07 -47.4755 100.934 -47.8646C100.277 -48.2317 99.6535 -48.2315 99.0115 -48.3489C99.0922 -49.0574 98.542 -49.7771 98.6447 -50.482C98.7878 -51.5392 100.053 -52.945 101.04 -53.8701C101.51 -54.3106 102.251 -54.6044 102.698 -55.0413C103.245 -55.5956 103.461 -56.5097 103.799 -56.9392C104.348 -57.5128 104.938 -58.0465 105.564 -58.5361C106.745 -59.5493 107.468 -61.1314 108.374 -61.9573C108.542 -62.1079 108.884 -62.1703 109.107 -62.3612C109.948 -63.0513 110.498 -63.9617 111.099 -64.6738C112.856 -66.8066 114.783 -68.7941 116.859 -70.6171C117.239 -70.9323 117.669 -71.1806 118.132 -71.3513C118.499 -71.3807 118.844 -70.9842 119.211 -70.9475C119.798 -70.8887 120.92 -71.1055 121.779 -71.2083C123.569 -71.4248 124.559 -71.4871 125.777 -72.8344C127.74 -75.0076 127.979 -76.5457 127.979 -78.5794C128.001 -80.2534 127.923 -81.2739 127.384 -82.724C126.757 -84.4163 126.177 -85.1542 124.479 -86.8979C124.072 -87.3201 123.675 -87.8194 123.268 -88.2709L117.963 -89.7393C116.496 -89.3722 115.23 -88.3038 113.928 -86.8685C113.125 -85.9068 112.522 -84.795 112.152 -83.5978C112.017 -83.1463 112.108 -82.6322 111.98 -82.188C111.554 -80.7416 111.264 -79.1704 111.551 -77.7608C111.822 -76.4099 112.75 -75.1911 113.653 -74.0128C113.425 -73.4364 113.763 -72.5003 113.33 -71.8102C113.279 -71.7257 112.963 -71.6523 112.86 -71.5642C111.962 -70.786 111.323 -69.5745 110.7 -68.7522C109.867 -67.6509 108.59 -66.6451 107.996 -65.7604C107.45 -64.9331 106.775 -64.1993 105.997 -63.5872C105.333 -63.0443 104.747 -62.4133 104.254 -61.7114C103.858 -61.2122 103.219 -60.7459 102.896 -60.2834C102.574 -59.8208 102.412 -59.094 102.115 -58.6205C101.761 -57.9862 101.337 -57.3927 100.853 -56.851C100.677 -56.6894 100.207 -56.5719 99.8479 -56.2892C99.1142 -55.7165 98.5566 -54.8796 97.8302 -54.3913C97.1038 -53.9031 96.106 -54.0242 95.1669 -53.5654C94.2277 -53.1065 93.5856 -52.4641 92.8262 -52.2035C92.0378 -51.882 91.1798 -51.7696 90.3352 -51.8769C89.2126 -52.0678 87.8334 -52.8826 87.4629 -53.826C86.9126 -55.2246 89.4439 -56.2637 89.9868 -57.3613C90.0396 -57.5456 90.0715 -57.7352 90.0821 -57.9266C90.1958 -58.6608 90.2545 -59.028 89.807 -59.7218C89.2897 -59.1785 88.7065 -59.3546 88.1525 -59.4574C87.3161 -59.0536 86.0101 -57.9192 85.0416 -58.1064C83.6475 -58.3781 82.9468 -60.8487 82.6606 -61.8362C82.5212 -62.3024 82.2939 -62.7356 82.2205 -62.9889C81.8756 -64.494 82.5323 -66.1532 82.7708 -67.7024C82.8772 -68.3925 82.8405 -69.2919 82.9322 -70.1582C83.1046 -71.8359 83.3759 -73.5025 83.5337 -75.0846C83.6632 -75.922 83.7381 -76.7669 83.7576 -77.614C83.6842 -78.5501 82.6973 -80.136 82.4222 -81.3511C82.3451 -81.7182 82.4956 -82.0044 82.4222 -82.2577C82.3048 -82.6726 81.9819 -82.9406 81.9269 -83.1975C81.8058 -83.7775 82.1141 -84.3319 82.1435 -84.9559C82.2572 -87.4155 81.9784 -89.9961 81.861 -92.3309C81.8133 -93.2229 82.07 -94.2141 81.3913 -94.8052C80.4778 -93.9315 80.5403 -92.6026 80.3092 -91.5857C80.0597 -90.4844 79.7772 -89.3501 79.5755 -88.1827C79.3737 -87.0154 79.6084 -85.8406 79.348 -84.7503C79.1425 -83.8913 78.3245 -83.0984 78.009 -82.1366C77.8916 -81.7695 78.0089 -81.4025 77.8805 -81.0831C77.7888 -80.8629 77.5137 -80.6388 77.444 -80.4222C76.9964 -79.1741 77.4439 -78.0361 77.5687 -76.9422C77.7191 -75.628 77.5686 -74.2807 77.664 -72.9738C77.741 -71.9129 78.152 -70.8632 78.1851 -69.8022C78.1851 -69.4131 78.108 -68.9027 78.0787 -68.4695C78.0047 -67.5715 77.8822 -66.6784 77.7118 -65.7936C77.6311 -65.3384 77.3779 -64.8977 77.3265 -64.4388C77.2935 -64.1195 77.4439 -63.8258 77.4035 -63.4661C77.1926 -62.1429 76.823 -60.85 76.3029 -59.6153C75.9599 -58.7783 75.5032 -57.9926 74.9457 -57.2804C73.3609 -55.3238 70.3635 -55.2468 68.0413 -56.205C67.2819 -56.5207 66.3355 -57.2805 65.3927 -57.9596C63.8372 -59.0793 62.4799 -59.8538 61.2253 -61.2635C60.6346 -61.9389 60.9537 -63.2201 60.7262 -64.1562C60.6308 -64.5416 60.3961 -65.0262 60.2787 -65.4483C60.2009 -65.8886 60.0967 -66.3239 59.9669 -66.7516C59.4936 -67.7869 58.5949 -68.2714 57.8868 -69.3213C57.6667 -69.648 57.6007 -70.1656 57.2889 -70.7383C56.7533 -70.6024 56.8082 -71.2927 56.3166 -71.5754L56.291 -71.4689L56.1883 -71.4248L56.0599 -71.2742C55.9608 -71.355 55.8764 -71.2743 55.7736 -71.3918C55.836 -71.5166 55.7737 -71.6267 55.9535 -71.7589V-71.8763L56.0122 -71.9717C54.7503 -73.1611 53.2498 -73.6457 52.307 -72.0452C52.0685 -71.6377 52.2813 -71.0135 52.1456 -70.4959C51.5329 -68.1502 48.8842 -66.9316 47.4314 -69.0975C47.0646 -68.7304 47.556 -68.455 47.2295 -68.1062C46.2574 -68.2237 45.3954 -69.3432 44.7644 -70.2206C44.6506 -70.4849 45.2045 -70.6172 45.0725 -70.7347C44.2617 -71.3698 43.1134 -72.5701 42.9043 -73.4988C42.2586 -74.2 41.4002 -74.7654 40.9306 -75.584C40.5381 -76.2705 40.4245 -77.3608 40.2374 -78.2528C40.0503 -79.1449 40.0282 -80.1984 39.7457 -81.0096C39.4847 -81.5835 39.2532 -82.1704 39.0523 -82.7681C38.7331 -84.0529 38.2819 -85.2313 37.9517 -86.439C37.7719 -87.0668 37.684 -87.8597 37.4602 -88.2745C37.2951 -88.5865 36.8878 -88.8582 36.6897 -89.1922C36.3632 -89.7539 36.1616 -90.5432 35.4315 -91.0498C34.7492 -90.9176 34.2246 -91.4168 33.6669 -91.2663C32.6287 -90.9616 31.6712 -89.4308 31.5831 -88.3919C31.6099 -87.9702 31.6888 -87.5535 31.818 -87.1512C31.8708 -86.7344 31.9493 -86.3212 32.0528 -85.914C32.1665 -85.6277 32.482 -85.4515 32.5957 -85.1798C32.7095 -84.9082 32.6543 -84.4237 32.746 -84.1447C33.0622 -83.35 33.4477 -82.5847 33.898 -81.8577C33.92 -81.1235 33.9274 -80.1727 34.2942 -79.4495C34.3933 -79.2512 34.6904 -79.1962 34.8152 -78.998C34.9399 -78.7997 34.8409 -78.5318 35.0097 -78.3152C35.1784 -78.0986 35.4865 -77.9957 35.6809 -77.7387C36.2789 -76.9385 36.4147 -75.9033 36.8549 -75.1691C37.0237 -74.9011 37.3905 -74.7359 37.5372 -74.4349C37.9041 -73.7264 37.9041 -72.6656 38.1683 -71.6928C38.3334 -71.0724 38.7735 -70.4153 38.7992 -69.8573C38.8359 -68.9873 38.4507 -68.0511 38.4323 -67.1811C38.4323 -66.9205 38.6195 -66.601 38.6342 -66.3587C38.6892 -65.452 38.4177 -64.5563 38.4214 -63.6899C38.4214 -62.7024 38.7882 -61.5755 39.067 -60.6687C39.3788 -59.6739 39.742 -58.7195 39.9988 -57.6696C41.015 -56.4435 41.6716 -55.1917 41.5433 -53.8812C42.1486 -52.5964 42.5229 -49.3808 40.8353 -47.6187C40.3804 -47.1415 38.8395 -46.2234 38.0801 -46.2234C37.7608 -46.2842 37.4485 -46.3779 37.1483 -46.5027C36.7191 -46.8184 36.932 -47.3616 36.3707 -47.5635C36.3351 -48.3218 36.418 -49.081 36.6165 -49.8137C36.7889 -50.5479 37.2291 -51.3959 37.2805 -52.0934C37.3649 -53.2277 36.8328 -54.2374 36.6824 -55.3277C36.4146 -55.7499 35.9488 -56.1573 35.8204 -56.5868C34.6098 -56.8988 32.7755 -56.6673 32.0675 -55.4009C31.8584 -55.0338 32.0673 -54.2814 31.9903 -53.65C31.8911 -52.8849 31.9271 -52.1083 32.0967 -51.3556C32.2067 -50.7609 32.5003 -50.2872 32.6434 -49.7256C32.7314 -49.3585 32.6031 -48.8374 32.6728 -48.4006C32.7608 -47.8573 33.0139 -47.4532 32.9809 -47.0971C32.8733 -46.729 32.7383 -46.3696 32.5773 -46.0216C32.2545 -45.0047 32.3059 -44.968 31.4438 -44.4026C30.3762 -43.7015 29.5911 -43.1141 28.5345 -43.1361C28.0503 -42.3211 26.9827 -41.9102 26.4177 -41.5835C25.9152 -41.2898 25.541 -40.7942 25.042 -40.4345C24.0969 -39.8293 23.0754 -39.3527 22.0045 -39.0174C21.8138 -37.6004 20.3244 -37.7545 19.5576 -37.2296C19.1284 -36.9396 18.857 -36.2606 18.4021 -35.8899C18.0829 -35.6329 17.6683 -35.5595 17.3968 -35.3245C17.0299 -34.9941 16.8099 -34.3994 16.3697 -34.1315C17.3198 -32.3877 15.3901 -30.0491 13.4825 -30.776C12.8698 -31.4074 12.4515 -32.1232 11.6041 -32.5197C11.1675 -32.7216 10.6135 -32.6227 10.1843 -32.8319C9.95687 -32.9421 9.79183 -33.1988 9.58639 -33.3456C8.48582 -34.0174 7.42554 -33.6578 6.40201 -33.8744C6.38367 -33.3825 6.40204 -32.8981 5.88844 -32.3695C5.59129 -32.509 5.88843 -32.696 5.78204 -32.8502C5.00797 -32.0536 4.63026 -31.1213 4.28542 -30.5046C3.97726 -29.9613 3.37924 -29.4767 3.14078 -29.0362C2.80327 -28.4011 3.00491 -27.5898 2.27487 -27.5678C1.58151 -28.0891 0.880825 -28.3641 0.363557 -28.8193C0.0774088 -29.0653 -0.0472078 -29.5538 -0.344362 -29.8145C-0.795596 -30.1816 -1.621 -30.2218 -1.6907 -30.967C-1.93649 -31.1689 -2.13834 -30.7653 -2.40614 -31.1911C-2.42815 -31.6169 -1.9952 -31.1908 -1.7971 -31.4478C-2.11994 -32.3435 -2.36577 -33.008 -3.21688 -33.5733C-3.50303 -33.7642 -3.84431 -33.6763 -4.14513 -33.8526C-4.38983 -33.9938 -4.60818 -34.1763 -4.79071 -34.3921L-12.3113 -7.28928C-11.6363 -7.09105 -10.8439 -6.51085 -10.0698 -6.27224C-8.85187 -5.90514 -7.44668 -5.53807 -6.36078 -5.29211C-5.64136 -5.67996 -4.80549 -5.79233 -4.00935 -5.60795C-3.18392 -5.87226 -2.46849 -6.44126 -1.65039 -6.70924C-1.46697 -6.76431 -1.28356 -6.76414 -1.03043 -6.82288C-0.465468 -6.95136 -0.0692339 -7.23043 0.466377 -7.35525C0.727458 -7.40892 0.997108 -7.40404 1.25598 -7.34055C1.51485 -7.27705 1.7565 -7.15655 1.96318 -6.98815C2.895 -8.26198 4.12395 -8.94132 5.15849 -9.04411C6.19303 -9.1469 5.85552 -9.10284 6.62592 -8.30991C7.39632 -7.51698 7.42195 -7.23051 7.95022 -6.52569C8.35377 -5.98606 9.03252 -5.52708 9.39204 -5.03149C9.66718 -4.6644 9.67815 -4.03323 9.9056 -3.81297C10.2284 -3.49727 10.7898 -3.50095 11.1346 -3.27702C11.2924 -2.75208 11.9305 -2.20505 12.18 -1.47453C12.2754 -1.18819 12.1617 -0.831963 12.2534 -0.501572C12.5249 0.471237 13.1266 1.82951 12.2828 2.63345C11.7986 3.09966 11.3217 2.65918 10.7971 3.30527C10.6504 3.63933 11.0355 3.92908 10.9474 4.34024C10.9107 4.5091 10.6943 4.57166 10.7017 4.77724C10.7017 5.11497 10.9658 5.34628 10.9145 5.73907C10.7751 6.79999 9.76253 7.87175 9.35531 9.06482C8.98846 10.1221 9.04346 11.0839 8.59222 11.9098C8.59222 12.1264 8.20709 12.2292 8.01632 12.5816C8.54827 13.5581 7.73016 14.5383 7.54306 15.5478C7.44401 16.0874 7.74474 16.5573 7.44759 17.0162C8.46011 18.4846 8.20707 20.0741 7.1762 21.7114C7.29383 22.4701 7.32951 23.2393 7.28261 24.0057C7.23492 24.7399 6.84234 25.6907 6.97075 26.3295C7.0221 26.5901 7.43298 27.0087 7.61274 27.3978C7.7925 27.7869 7.84017 28.2714 8.04928 28.5504C8.49318 29.1377 9.25257 29.5783 9.79185 30.3052C9.79333 30.5106 9.83894 30.7133 9.92566 30.8996C10.0124 31.0858 10.1382 31.2513 10.2945 31.3846C10.1991 31.5755 10.2945 31.7515 10.0561 31.9607C10.7898 32.0965 10.522 32.7977 10.7898 33.2309C11.0576 33.664 11.4023 33.6604 11.56 34.1486C11.8095 34.4019 12.0151 34.0275 12.2646 34.2368C12.2462 34.468 12.4955 34.6845 12.3158 34.9305C12.8881 34.9305 13.1193 35.5471 13.6403 35.8041C14.0475 36.0097 14.5464 35.9035 14.9243 36.1311C16.289 36.9497 16.9492 38.2969 17.4115 39.4349C17.1107 39.6662 17.1951 39.868 16.9749 40.0956C17.1767 40.3306 17.3417 40.0111 17.5508 40.3304C16.9785 41.0977 17.5949 41.9237 18.5341 42.21C18.7542 41.4758 19.6639 41.7843 20.1665 41.6705C20.4049 41.3254 20.2179 41.0135 20.6471 40.6574C21.5459 41.4503 22.2504 39.6773 23.1712 40.7456C24.147 40.1032 24.822 39.3356 25.9079 39.075C26.2344 39.321 26.1134 39.4424 26.4289 39.5231C27.291 39.2551 28.2631 38.9504 29.1215 39.1119C30.1194 39.3065 30.156 39.9343 30.0863 40.7162C30.0166 41.4283 29.5398 42.2432 29.8993 42.893C30.633 44.1888 32.049 43.8439 33.0212 44.4019C33.4797 44.6662 33.366 45.0219 34.1438 45.3633C34.4006 45.5762 33.9274 45.8445 34.1952 46.0574C34.8188 46.9054 34.6684 47.7899 34.7602 48.8766C34.8078 49.4639 34.7419 50.2569 34.8959 50.6791C35.05 51.1012 35.4902 51.2774 35.6003 51.6739C36.0735 53.3662 33.366 55.5248 34.8408 57.2391C36.7558 59.4711 38.8433 56.5051 40.8353 56.1637C41.3232 56.4867 41.7635 56.2187 42.1817 56.4096C42.5999 56.6005 42.6622 56.9785 43.0254 57.3933C43.3482 57.6539 43.627 57.3675 43.9645 57.8116C44.3901 59.28 45.6814 60.4731 46.0887 61.8497C46.173 62.1324 46.063 62.4997 46.1657 62.8191C46.3601 63.4395 46.8995 64.0672 47.0792 64.7757C47.1416 65.007 46.9545 65.2639 46.9949 65.4805C47.1612 66.013 47.3646 66.5328 47.6037 67.0368C47.9339 67.6608 48.9244 68.6486 49.1629 69.1515C49.6618 70.2051 48.9575 71.8826 48.2751 73.0573C47.6551 74.1145 46.6756 74.9773 46.1143 75.8693C45.553 76.7614 45.4576 77.9359 45.0137 78.6738C44.922 78.8206 44.6468 78.9234 44.5551 79.0409C43.8544 79.9953 43.961 80.9756 43.5171 81.9117C43.1137 82.6719 42.5726 83.3504 41.9212 83.9125C41.4788 84.4073 41.1462 84.9904 40.9453 85.6232L43.7005 86.3864C43.8106 85.9496 43.9095 85.5386 44.0416 85.1715ZM76.912 82.9137C76.9597 82.9798 76.912 83.0535 76.9964 83.1159C76.956 83.1673 76.9119 83.2184 76.8679 83.2661L76.6479 83.0754C76.7287 82.9689 76.8276 83.0202 76.9267 82.9284L76.912 82.9137ZM125.704 9.28529C126.232 10.5151 125.385 12.5451 124.204 13.4445C124.145 12.1193 124.768 10.717 125.719 9.29999L125.704 9.28529ZM114.24 -80.2681C113.851 -80.782 114.152 -81.685 114.735 -82.0448C115.135 -81.5198 114.882 -80.6168 114.236 -80.2534L114.24 -80.2681ZM120.238 -84.0638C120.66 -83.6747 120.194 -83.014 119.775 -82.7754C119.02 -83.1388 119.695 -84.1961 120.234 -84.0602L120.238 -84.0638ZM60.9061 53.4911C61.35 53.5315 60.7996 54.2253 60.6345 54.5594C60.4181 54.24 60.9647 53.8509 60.9023 53.5058L60.9061 53.4911ZM86.3915 -51.6675L86.9896 -51.1538C86.9596 -50.8352 86.8314 -50.5335 86.6228 -50.2909C86.3936 -50.3472 86.1781 -50.449 85.989 -50.5902C85.7999 -50.7315 85.6412 -50.9094 85.5222 -51.1133C85.6237 -51.256 85.7524 -51.3774 85.9011 -51.47C86.0497 -51.5626 86.2151 -51.6246 86.3879 -51.6528L86.3915 -51.6675ZM-5.35192 -30.9706C-5.54636 -31.2827 -5.10253 -31.6425 -5.15022 -31.9619C-5.06218 -32.0426 -4.95944 -31.9104 -4.86039 -31.8443C-5.0585 -31.5396 -5.06954 -31.2569 -5.35569 -30.9559L-5.35192 -30.9706ZM4.82836 -27.5492C4.71463 -28.6798 5.2685 -29.8619 5.74908 -31.0366C6.25901 -30.2363 5.81144 -28.4377 4.82459 -27.5273L4.82836 -27.5492ZM40.1566 8.72712C40.0209 8.45547 40.2447 8.16176 40.3694 7.87175C40.6519 8.1434 40.2115 8.44814 40.1528 8.74181L40.1566 8.72712ZM41.8001 8.32346L41.9945 8.0994L42.2184 8.29047C42.2029 8.33159 42.1764 8.36745 42.1417 8.39444C42.1071 8.42142 42.0657 8.43826 42.0221 8.44319C41.9784 8.44813 41.9341 8.44097 41.8943 8.4224C41.8545 8.40383 41.8208 8.37477 41.7965 8.33815L41.8001 8.32346ZM45.2412 8.55468C45.1898 8.48493 45.1459 8.52164 45.1018 8.55468L44.9551 8.42635C45.0212 8.37495 44.9845 8.33058 44.9551 8.28653C44.9955 8.23514 45.0394 8.18763 45.0798 8.13991C45.1348 8.20599 45.1752 8.16927 45.2229 8.13991L45.3696 8.26825C45.3036 8.31964 45.3403 8.36365 45.3696 8.4077L45.2412 8.55468ZM63.6537 -54.843C63.8372 -55.9443 64.7543 -55.4745 65.488 -54.7036C65.488 -54.4246 65.202 -54.1235 65.2754 -53.8518C64.7068 -53.705 63.8703 -54.2557 63.6501 -54.8283L63.6537 -54.843ZM77.1504 -58.3011C76.7505 -59.4024 77.5723 -60.9221 77.8218 -61.8803C77.8178 -61.9153 77.8269 -61.9506 77.8474 -61.9794C77.8406 -61.9459 77.8321 -61.9128 77.8218 -61.8803C77.8218 -61.7298 77.9796 -61.4948 77.9649 -61.3626C77.9502 -61.2304 77.7484 -61.4067 77.7521 -61.414C77.5247 -60.6835 78.108 -59.2408 77.1468 -58.2864L77.1504 -58.3011ZM83.4971 -55.7056C83.1816 -55.8598 83.2146 -56.2086 82.8661 -56.6344C82.2387 -57.409 81.2189 -57.8054 81.8096 -58.58C82.3672 -58.2349 82.7855 -58.0881 83.145 -57.5631C83.3137 -57.3208 83.2879 -56.8987 83.486 -56.7518C84.1317 -56.2783 84.7041 -57.0199 85.5295 -56.5574C85.104 -56.0434 84.2014 -55.3495 83.4934 -55.6909L83.4971 -55.7056Z" fill="#FFE600"/>
<path d="M76.3733 107.563H76.5128C76.4431 107.56 76.3732 107.56 76.3035 107.563H76.3733Z" fill="#60C9EB"/>
<path d="M197.467 80.5857C197.1 84.297 183.229 82.0541 176.328 89.4842C173.742 92.2631 169.563 99.5279 168.91 101.312C168.706 101.932 168.323 102.477 167.81 102.88C167.285 103.247 166.664 103.451 166.023 103.467C165.729 103.463 165.437 103.42 165.154 103.339C163.686 102.872 163.169 99.8217 163.129 99.5758C162.417 95.2661 163.565 91.6281 163.352 89.0694C162.736 81.6504 150.623 82.8987 140.545 70.9386C138.597 68.6259 135.897 64.841 132.228 64.8557C130.882 64.8557 129.253 65.3806 125.735 65.3952C124.176 65.3952 123.108 65.2264 122.595 65.2705C119.238 65.5641 117.173 67.2637 110.422 67.752C100.594 68.4862 97.6668 65.4062 93.9138 68.1814C93.9138 68.1814 89.4895 71.4854 86.0558 72.8289C83.9757 73.6439 84.0601 73.0861 82.7761 73.7689C80.4796 74.9913 77.6034 81.5916 77.6034 81.5916C74.9326 87.6744 73.0249 88.0928 73.6559 89.6236C74.7381 92.2447 80.1272 90.4901 84.3644 94.8182C85.0431 95.5084 86.661 97.1601 86.1731 98.6946C85.8393 99.7408 84.5479 100.648 83.3299 100.684C82.9777 100.69 82.6277 100.628 82.2991 100.501C81.5653 100.255 77.7354 98.9552 76.9026 99.8289C76.1872 100.585 78.1389 102.424 78.6231 106.635C78.9607 109.623 78.1866 110.501 77.7648 110.82C77.4728 111.03 77.1385 111.174 76.7853 111.242C76.7303 111.305 76.6609 111.354 76.583 111.385C76.5051 111.416 76.4209 111.427 76.3376 111.418C75.5149 111.377 74.7271 111.073 74.0888 110.552C71.7887 108.591 66.836 100.662 62.199 97.9421C56.6961 94.7117 51.4574 98.768 48.7023 95.1448C47.4476 93.4965 47.0807 90.7397 48.229 89.1135C50.3384 86.107 55.3462 89.4807 61.7809 86.955C64.3048 85.9565 66.7114 82.7259 71.5282 76.2687C72.9406 74.3745 74.7455 71.7424 73.8981 70.4869C73.7998 70.3427 73.6753 70.2182 73.5312 70.1198C71.7299 68.7726 71.0329 66.0632 70.8935 65.6301C69.8957 62.5281 59.8033 58.8828 56.8428 57.6898C55.0085 56.9556 39.685 50.1828 32.9238 37.6134C32.0397 35.9725 29.8055 31.4497 27.8281 31.78C26.3607 32.026 26.3865 34.7389 24.0496 35.7704C22.2997 36.5413 19.849 36.1008 18.4109 34.7939C15.7402 32.371 17.3727 28.0394 15.7512 27.386C14.071 26.7105 12.3248 31.3729 7.90788 32.6541C2.97365 34.0821 -1.99733 30.3487 -2.79708 29.7173C-8.08349 25.6058 -9.29406 18.5902 -9.7086 16.1784C-10.5817 11.1088 -9.50318 8.65297 -11.741 5.77493C-13.3735 3.68248 -14.8043 3.88454 -17.6107 2.08209C-17.9996 1.83981 -26.7307 -3.92017 -26.6464 -12.4699C-26.5913 -18.6812 -21.9213 -23.0126 -21.0885 -23.7836C-16.7046 -27.8436 -13.7697 -26.2394 -11.796 -29.033C-7.47809 -35.1561 -19.7678 -45.4534 -16.1983 -54.9502C-14.0412 -60.7026 -6.9206 -63.4742 -2.38992 -64.0983C9.44489 -65.7282 21.687 -55.1301 26.724 -44.242C32.1828 -32.4325 27.2485 -24.4187 34.0977 -18.7654C40.2902 -13.6517 50.4229 -15.175 50.8008 -16.6434C51.0576 -17.6309 46.857 -18.4497 45.2245 -22.4951C44.0725 -25.3401 44.8761 -28.097 45.0889 -28.7982C46.2481 -32.5866 49.425 -34.7086 50.7494 -35.5676C62.0669 -42.9095 91.0046 -43.2323 103.184 -55.7981C116.846 -69.8946 112.723 -102.809 122.221 -110.558C122.778 -111.013 125.306 -112.948 124.972 -114.963C124.554 -117.46 120.14 -117.316 117.048 -120.147C111.824 -124.919 111.783 -136.839 116.853 -140.95C121.344 -144.584 127.859 -140.495 129.693 -143.314C132.423 -147.462 118.618 -156.812 121.072 -165.311C122.573 -170.505 129.994 -174.8 136.113 -173.086C141.308 -171.636 144.764 -166.188 145.076 -161.753C145.259 -159.14 144.368 -156.596 144.944 -156.394C145.52 -156.192 146.371 -158.857 148.454 -160.568C151.562 -163.119 156.65 -162.924 159.442 -161.753C169.233 -157.646 173.419 -135.609 165.359 -126.061C162.747 -122.959 158.892 -121.248 159.343 -118.719C159.757 -116.395 163.202 -116.593 167.454 -113.946C176.284 -108.44 174.92 -99.1854 183.394 -95.8154C183.687 -95.7016 184.032 -95.5915 184.032 -95.5915C185.489 -95.0965 186.983 -94.7184 188.501 -94.4608C190.426 -94.1268 199.033 -92.6253 199.679 -89.3765C199.991 -87.8127 198.31 -86.1902 194.946 -82.9487C191.457 -79.5825 190.577 -79.8503 189.531 -78.2645C187.253 -74.8138 189.256 -70.2288 191.63 -62.9052C193.372 -57.5309 194.4 -51.9473 196.102 -46.5583C200.328 -33.1812 201.392 1.59746 183.581 23.3773C177.077 31.3213 167.263 43.3217 159.46 48.4317C158.194 49.2613 155.326 51.0015 153.466 54.4669C152.97 55.392 150.197 59.8669 150.978 64.7786C152.402 73.7064 164.798 80.149 170.972 77.337C176.398 74.8664 177.355 67.4767 181.512 67.8584C183.684 68.053 186.193 70.4281 186.065 71.8377C186.044 72.4515 185.933 73.0589 185.734 73.6402C185.547 74.4001 185.415 74.6902 185.456 74.9656C185.473 75.0404 185.495 75.1139 185.522 75.1857C185.852 75.9786 189.891 75.3655 192.492 76.0593C194.832 76.7605 197.621 78.9301 197.467 80.5857Z" fill="#E9AD62"/>
<path d="M76.3733 107.563H76.5128C76.4431 107.56 76.3732 107.56 76.3035 107.563H76.3733Z" fill="#60C9EB"/>
</g>
<path d="M65.562 128.206C100.114 128.206 128.124 100.178 128.124 65.6029C128.124 31.0283 100.114 3 65.562 3C31.01 3 3 31.0283 3 65.6029C3 100.178 31.01 128.206 65.562 128.206Z" stroke="#E9AD62" stroke-width="5.56471"/>
</svg>
