<svg width="131" height="127" viewBox="0 0 131 127" fill="none" xmlns="http://www.w3.org/2000/svg">
<path d="M31.299 12.9044C42.7431 5.69208 56.2493 2.46264 69.7181 3.7181C92.736 5.60139 106.024 19.0355 112.866 25.3969C119.709 31.7582 126.05 47.3058 127.703 53.2068C129.356 59.1078 127.933 81.4771 122.053 88.5499C116.173 95.6227 100.123 124.374 73.9241 123.684C47.7254 122.993 32.2198 120.838 20.669 105.771C9.11811 90.7052 2.50555 77.564 2.75666 67.3942C3.00776 57.2245 6.04217 41.1747 12.6546 32.6998C19.267 24.225 26.7582 15.5619 31.299 12.9044Z" fill="white"/>
<path d="M91.4774 44.6887C87.5435 41.78 79.4455 41.7173 75.9509 42.5961C75.1449 42.8335 74.4205 43.2899 73.8584 43.9144C72.1926 44.3192 70.6392 45.0937 69.3134 46.1804C67.9876 47.2671 66.9235 48.6382 66.1996 50.1921C65.7186 51.2974 65.5662 52.5178 65.7602 53.7075C65.0893 53.4401 64.3855 53.2642 63.6677 53.1844C63.1595 52.7992 62.6206 52.4563 62.0564 52.1591C61.7405 50.4167 60.9759 48.7868 59.8382 47.4299L59.7337 47.2416C58.8661 45.6268 57.542 44.3033 55.9269 43.4363C54.3119 42.5692 52.4772 42.1969 50.6519 42.3659C49.6741 41.6298 48.5325 41.1416 47.3248 40.943C41.0472 39.7712 36.4437 45.9651 35.3974 51.4058C35.1088 52.888 35.0592 54.4068 35.2508 55.9047C34.8867 58.3344 35.2508 60.8174 36.2971 63.0403C36.4388 63.9016 36.656 64.7489 36.9459 65.5723C38.2733 69.2197 40.805 72.3052 44.1232 74.3191C45.9478 77.4047 48.5347 79.9699 51.6356 81.7686C51.9285 81.915 52.2004 82.0615 52.4724 82.1661C53.1839 82.5847 53.8953 82.9822 54.5649 83.3589C57.0992 85.9927 60.1671 88.0545 63.563 89.4063C63.8822 89.9647 64.3129 90.4514 64.8284 90.8362C65.3439 91.2209 65.9331 91.4954 66.5593 91.6426C67.1854 91.7898 67.8352 91.8066 68.4681 91.6919C69.101 91.5771 69.7034 91.3334 70.2381 90.9757L71.41 90.1596C72.4289 89.8541 73.3713 89.3362 74.1756 88.6401C74.9799 87.9441 75.6278 87.0855 76.0763 86.121C76.0763 85.9746 76.2018 85.8281 76.2646 85.7025C77.0143 84.8664 77.7131 83.9859 78.3571 83.0659C80.2113 82.5098 81.9438 81.6081 83.4631 80.4084C86.3717 78.002 90.8079 72.7706 91.5612 68.0415C94.671 65.3308 96.9674 61.8102 98.1947 57.8717C99.3247 52.9542 96.7716 45.17 91.4774 44.6887Z" fill="#E96262"/>
<path d="M98.5353 48.2256C95.1244 40.818 85.3312 39.2486 78.0701 40.4204C75.1364 40.8063 72.3452 41.9171 69.9485 43.6525C67.5518 45.3879 65.6253 47.6932 64.3432 50.36C60.744 44.0824 55.1779 38.8929 47.4355 38.9556C39.6931 39.0184 32.7877 45.882 31.4903 53.6035C30.0255 62.8943 36.0728 71.8295 42.3295 78.0653C49.6325 85.3055 58.756 90.3276 67.7121 95.1823L67.9842 95.2869C68.8212 94.6801 69.6581 94.0942 70.537 93.5501C70.537 93.5501 70.537 93.4455 70.537 93.3827C78.8531 86.5611 86.3901 78.8416 93.0109 70.3647C97.8238 64.108 102.134 56.0099 98.5353 48.2256ZM94.7269 60.4879C92.1113 66.7655 86.9217 72.1643 82.339 77.1027C77.7707 81.9962 72.877 86.5754 67.6912 90.8089C56.0985 84.5312 43.3968 77.3329 37.3702 65.1124C33.7501 57.7676 34.3569 48.3721 42.2667 44.187C51.6832 39.1021 59.8861 48.3721 63.0667 56.3656C63.2089 56.7837 63.492 57.1394 63.8675 57.3718C64.2431 57.6042 64.6877 57.6988 65.1253 57.6395C65.5629 57.5801 65.9665 57.3705 66.2666 57.0465C66.5667 56.7225 66.7449 56.3043 66.7706 55.8634C67.3565 47.3676 75.8104 43.6011 83.5109 43.9986C87.4868 44.2079 92.3204 45.1914 94.6432 48.7906C95.5782 50.5882 96.0734 52.582 96.0879 54.6082C96.1025 56.6345 95.6361 58.6352 94.7269 60.446V60.4879Z" fill="#E96262"/>
<path d="M116.32 24.5807C107.921 14.904 96.9745 7.77923 84.726 4.01699C72.4775 0.254754 59.4188 0.0061509 47.036 3.2995C22.4067 10.0793 4.28529 32.3859 1 57.2453L1.52314 57.0988C0.688317 66.0029 1.74852 74.9827 4.63385 83.4476C7.51919 91.9124 12.1642 99.6704 18.2635 106.211L18.0752 106.587C19.0378 107.404 20.0214 108.22 21.0258 108.994L21.4861 109.454C21.7385 109.684 22.0288 109.868 22.3441 109.998C29.4877 115.339 37.3585 119.63 45.7176 122.742C71.163 132.179 101.086 121.528 117.45 100.561C125.911 89.6473 130.408 76.1804 130.203 62.3727C129.997 48.5651 125.102 35.2379 116.32 24.5807ZM115.713 94.3043C101.421 115.585 72.4604 126.885 47.894 118.264C39.6529 115.337 31.8948 111.197 24.876 105.981C17.9281 99.5606 12.6475 91.5457 9.49023 82.6282C6.333 73.7107 5.39399 64.1586 6.75449 54.797C6.83994 54.4181 6.83994 54.025 6.75449 53.6461C8.66313 44.414 12.7008 35.7551 18.546 28.3587C24.3912 20.9622 31.8825 15.0326 40.4235 11.0419C62.2487 1.1651 89.703 6.2709 107.238 22.3207C116.981 31.3418 123.187 43.5422 124.741 56.729C126.294 69.9157 123.093 83.2242 115.713 94.2624V94.3043Z" fill="#E96262" stroke="#E96262" stroke-width="1.39118"/>
</svg>
