<svg width="132" height="128" viewBox="0 0 132 128" fill="none" xmlns="http://www.w3.org/2000/svg">
<path d="M42.8748 44.2118C42.7038 43.6099 42.303 43.0993 41.7589 42.79C41.2148 42.4808 40.5711 42.3978 39.9664 42.5589C39.3704 42.7391 38.8664 43.1415 38.5587 43.6828C38.2511 44.2241 38.1632 44.863 38.3133 45.4673C38.5539 47.1297 38.638 48.8109 38.5644 50.489C38.5644 53.523 43.1886 53.523 43.2932 50.489C43.3422 48.3883 43.2022 46.2875 42.8748 44.2118Z" fill="#626262"/>
<path d="M91.8813 43.8972C91.8014 43.5984 91.6629 43.3184 91.4742 43.0733C91.2855 42.8283 91.0502 42.623 90.7817 42.4693C90.5133 42.3157 90.2171 42.2167 89.9103 42.178C89.6034 42.1394 89.292 42.1619 88.9938 42.2442C88.3994 42.4199 87.8957 42.8183 87.5877 43.3562C87.2798 43.8941 87.1913 44.5301 87.3407 45.1317C87.6119 46.9038 87.675 48.7015 87.529 50.4882C87.5344 51.1136 87.7853 51.7118 88.2276 52.1541C88.6698 52.5963 89.268 52.8472 89.8934 52.8526C90.5155 52.8368 91.1077 52.5825 91.5478 52.1425C91.9878 51.7025 92.2419 51.1103 92.2578 50.4882C92.3836 48.284 92.2573 46.0727 91.8813 43.8972Z" fill="#626262"/>
<path d="M42.8748 44.2118C42.7038 43.6099 42.303 43.0993 41.7589 42.79C41.2148 42.4808 40.5711 42.3978 39.9664 42.5589C39.3704 42.7391 38.8664 43.1415 38.5587 43.6828C38.2511 44.2241 38.1632 44.863 38.3133 45.4673C38.5539 47.1297 38.638 48.8109 38.5644 50.489C38.5644 53.523 43.1886 53.523 43.2932 50.489C43.3422 48.3883 43.2022 46.2875 42.8748 44.2118Z" fill="#626262"/>
<path d="M91.8813 43.8972C91.8014 43.5984 91.6629 43.3184 91.4742 43.0733C91.2855 42.8283 91.0502 42.623 90.7817 42.4693C90.5133 42.3157 90.2171 42.2167 89.9103 42.178C89.6034 42.1394 89.292 42.1619 88.9938 42.2442C88.3994 42.4199 87.8957 42.8183 87.5877 43.3562C87.2798 43.8941 87.1913 44.5301 87.3407 45.1317C87.6119 46.9038 87.675 48.7015 87.529 50.4882C87.5344 51.1136 87.7853 51.7118 88.2276 52.1541C88.6698 52.5963 89.268 52.8472 89.8934 52.8526C90.5155 52.8368 91.1077 52.5825 91.5478 52.1425C91.9878 51.7025 92.2419 51.1103 92.2578 50.4882C92.3836 48.284 92.2573 46.0727 91.8813 43.8972Z" fill="#626262"/>
<path d="M42.8748 44.2118C42.7038 43.6099 42.303 43.0993 41.7589 42.79C41.2148 42.4808 40.5711 42.3978 39.9664 42.5589C39.3704 42.7391 38.8664 43.1415 38.5587 43.6828C38.2511 44.2241 38.1632 44.863 38.3133 45.4673C38.5539 47.1297 38.638 48.8109 38.5644 50.489C38.5644 53.523 43.1886 53.523 43.2932 50.489C43.3422 48.3883 43.2022 46.2875 42.8748 44.2118Z" fill="#626262"/>
<path d="M91.8813 43.8972C91.8014 43.5984 91.6629 43.3184 91.4742 43.0733C91.2855 42.8283 91.0502 42.623 90.7817 42.4693C90.5133 42.3157 90.2171 42.2167 89.9103 42.178C89.6034 42.1394 89.292 42.1619 88.9938 42.2442C88.3994 42.4199 87.8957 42.8183 87.5877 43.3562C87.2798 43.8941 87.1913 44.5301 87.3407 45.1317C87.6119 46.9038 87.675 48.7015 87.529 50.4882C87.5344 51.1136 87.7853 51.7118 88.2276 52.1541C88.6698 52.5963 89.268 52.8472 89.8934 52.8526C90.5155 52.8368 91.1077 52.5825 91.5478 52.1425C91.9878 51.7025 92.2419 51.1103 92.2578 50.4882C92.3836 48.284 92.2573 46.0727 91.8813 43.8972Z" fill="#626262"/>
<path d="M31.5531 13.2009C43.0012 6.00085 56.5025 2.77258 69.9694 4.0153C92.9857 5.89846 106.272 19.3316 113.115 25.6925C119.957 32.0534 126.297 47.5999 127.95 53.5004C129.603 59.401 128.18 81.7896 122.3 88.8619C116.421 95.9342 100.372 124.684 74.1751 123.972C47.9784 123.261 32.4738 121.148 20.9238 106.061C9.37376 90.9752 2.76167 77.8559 3.01276 67.6869C3.26385 57.5178 6.29804 41.4901 12.91 32.995C19.522 24.4999 27.0126 15.8583 31.5531 13.2009Z" fill="#FFE600"/>
<path d="M42.8748 44.2118C42.7038 43.6099 42.303 43.0993 41.7589 42.79C41.2148 42.4808 40.5711 42.3978 39.9664 42.5589C39.3704 42.7391 38.8664 43.1415 38.5587 43.6828C38.2511 44.2241 38.1632 44.863 38.3133 45.4673C38.5539 47.1297 38.638 48.8109 38.5644 50.489C38.5644 53.523 43.1886 53.523 43.2932 50.489C43.3422 48.3883 43.2022 46.2875 42.8748 44.2118Z" fill="#626262" stroke="#626262" stroke-width="1.39118"/>
<path d="M91.8813 43.8972C91.8014 43.5984 91.6629 43.3184 91.4742 43.0733C91.2855 42.8283 91.0502 42.623 90.7817 42.4693C90.5133 42.3157 90.2171 42.2167 89.9103 42.178C89.6034 42.1394 89.292 42.1619 88.9938 42.2442C88.3994 42.4199 87.8957 42.8183 87.5877 43.3562C87.2798 43.8941 87.1913 44.5301 87.3407 45.1317C87.6119 46.9038 87.675 48.7015 87.529 50.4882C87.5344 51.1136 87.7853 51.7118 88.2276 52.1541C88.6698 52.5963 89.268 52.8472 89.8934 52.8526C90.5155 52.8368 91.1077 52.5825 91.5478 52.1425C91.9878 51.7025 92.2419 51.1103 92.2578 50.4882C92.3836 48.284 92.2573 46.0727 91.8813 43.8972Z" fill="#626262" stroke="#626262" stroke-width="1.39118"/>
<path d="M100.626 70.1149C97.8233 76.7162 93.2019 82.3849 87.3004 86.46C81.3989 90.5351 74.4606 92.8488 67.2944 93.1312C60.0227 93.1687 52.8696 91.2868 46.5579 87.6754C40.2462 84.064 34.9993 78.851 31.3469 72.563C31.1903 72.2882 30.9812 72.047 30.7314 71.8531C30.4815 71.6591 30.1958 71.5163 29.8908 71.4328C29.5857 71.3492 29.2672 71.3265 28.9534 71.3661C28.6396 71.4056 28.3368 71.5066 28.062 71.6632C27.7872 71.8198 27.5458 72.029 27.3519 72.2789C27.158 72.5288 27.0153 72.8144 26.9318 73.1194C26.8482 73.4245 26.8255 73.743 26.8651 74.0568C26.9046 74.3706 27.0055 74.6735 27.1621 74.9483C35.5317 89.1766 51.7269 98.8644 68.5498 97.7763C76.494 97.212 84.1224 94.4386 90.5741 89.769C97.0257 85.0994 102.044 78.7195 105.062 71.3494C106.296 68.5665 101.756 67.332 100.626 70.1149Z" fill="#626262" stroke="#626262" stroke-width="1.39118"/>
<path d="M116.568 24.8769C108.17 15.2009 97.2238 8.07661 84.9762 4.31464C72.7285 0.552676 59.6708 0.304059 47.2888 3.59717C22.6613 10.3765 4.54116 32.6815 1.2561 57.5601L1.7792 57.3927C0.946775 66.2991 2.00783 75.2809 4.89276 83.7482C7.7777 92.2155 12.4212 99.9767 18.5184 106.522L18.3301 106.878C19.2926 107.694 20.2761 108.51 21.2805 109.305L21.7407 109.744C21.9822 109.988 22.2755 110.174 22.5987 110.288C29.7461 115.628 37.6151 119.925 45.9706 123.052C71.4141 132.468 101.335 121.818 117.698 100.852C126.158 89.9389 130.655 76.473 130.45 62.6663C130.244 48.8596 125.349 35.5333 116.568 24.8769ZM115.961 94.5955C101.67 115.896 72.7115 127.195 48.1467 118.553C39.9028 115.635 32.1441 111.495 25.1304 106.271C18.183 99.8515 12.9027 91.8372 9.74573 82.9203C6.58873 74.0034 5.64979 64.452 7.01019 55.0911C7.09603 54.7193 7.09603 54.3329 7.01019 53.9611C8.91252 44.7273 12.9477 36.0661 18.7932 28.6693C24.6387 21.2725 32.1326 15.345 40.6768 11.36C62.5004 1.46297 89.9528 6.58931 107.487 22.638C117.242 31.6549 123.456 43.8592 125.01 57.0521C126.564 70.245 123.355 83.5591 115.961 94.5955Z" fill="#626262" stroke="#626262" stroke-width="1.39118"/>
</svg>
