<svg width="131" height="131" viewBox="0 0 131 131" fill="none" xmlns="http://www.w3.org/2000/svg">
<mask id="mask0_2_8819" style="mask-type:alpha" maskUnits="userSpaceOnUse" x="3" y="3" width="126" height="126">
<path d="M128.206 65.6011C128.207 69.3358 127.875 73.0632 127.215 76.739C127.193 76.8638 127.171 76.985 127.145 77.1061C126.252 81.9303 124.79 86.6315 122.788 91.1108C122.446 91.8793 122.087 92.6416 121.713 93.3979C121.224 94.3768 120.705 95.3557 120.157 96.3346C119.738 97.0688 119.305 97.803 118.85 98.5372C116.292 102.667 113.263 106.486 109.824 109.917C108.902 110.835 107.952 111.726 106.976 112.59C103.183 115.934 98.9986 118.807 94.515 121.147C93.2194 121.822 91.8906 122.457 90.5399 123.045C82.6734 126.461 74.1867 128.218 65.6104 128.206C56.7945 128.218 48.0763 126.36 40.0311 122.755C39.877 122.689 39.7228 122.619 39.5723 122.545C36.3383 121.067 33.2376 119.314 30.3045 117.303C28.259 115.91 26.298 114.396 24.4318 112.77L24.3694 112.711C24.1529 112.524 23.94 112.344 23.7271 112.142C18.3157 107.272 13.7913 101.498 10.3556 95.0792C9.32576 93.1502 8.39708 91.1689 7.57342 89.1432C7.00818 87.7532 6.49311 86.3348 6.02819 84.8885C5.96946 84.7196 5.918 84.5508 5.86294 84.3819L5.57673 83.4495C5.39321 82.8254 5.21819 82.1977 5.05179 81.5663C3.68519 76.3561 2.99565 70.9914 3.00008 65.6049C2.97895 52.2078 7.27388 39.1603 15.2484 28.3959C15.7732 27.6911 16.3091 26.9935 16.8633 26.307C17.6635 25.3281 18.4918 24.3639 19.3482 23.4143C19.3768 23.3784 19.4075 23.3441 19.44 23.3116C19.6418 23.0877 19.8474 22.8674 20.0567 22.6471L20.0896 22.6142C25.9343 16.4091 32.988 11.4675 40.8158 8.09409C48.6436 4.72069 57.0795 2.98701 65.603 3.00007C74.0991 2.99033 82.5078 4.71515 90.3142 8.06882C98.1206 11.4225 105.16 16.3344 111.003 22.5039C113.147 24.7609 115.119 27.1745 116.905 29.7247C124.278 40.2333 128.225 52.7634 128.206 65.6011Z" fill="#E9AD62"/>
</mask>
<g mask="url(#mask0_2_8819)">
<path d="M128.211 65.6016C128.212 69.3363 127.88 73.0637 127.22 76.7395C127.198 76.8643 127.176 76.9855 127.151 77.1066C126.258 81.9308 124.795 86.632 122.794 91.1113C122.451 91.8798 122.093 92.6421 121.718 93.3983C121.229 94.3773 120.71 95.3562 120.162 96.3351C119.744 97.0693 119.311 97.8035 118.856 98.5377C116.297 102.668 113.269 106.486 109.83 109.918C108.907 110.835 107.958 111.726 106.982 112.59C103.188 115.935 99.0041 118.808 94.5205 121.147C93.2249 121.823 91.8961 122.458 90.5454 123.045C82.6789 126.462 74.1922 128.219 65.6159 128.206C56.8 128.218 48.0818 126.361 40.0366 122.755C39.8825 122.689 39.7283 122.619 39.5778 122.546C36.3438 121.068 33.2431 119.314 30.31 117.304C28.2645 115.91 26.3035 114.396 24.4373 112.77L24.3749 112.711C24.1584 112.524 23.9455 112.344 23.7326 112.142C18.3212 107.272 13.7968 101.499 10.3611 95.0797C9.33126 93.1507 8.40257 91.1694 7.57892 89.1437C7.01367 87.7537 6.4986 86.3353 6.03368 84.889C5.97495 84.7201 5.92349 84.5513 5.86844 84.3824L5.58222 83.45C5.3987 82.8259 5.22368 82.1982 5.05729 81.5668C3.69069 76.3566 3.00114 70.9919 3.00557 65.6054C2.98444 52.2083 7.27938 39.1608 15.2539 28.3964C15.7787 27.6916 16.3146 26.994 16.8688 26.3075C17.669 25.3286 18.4973 24.3644 19.3537 23.4148C19.3823 23.3788 19.413 23.3446 19.4455 23.3121C19.6473 23.0882 19.8529 22.8679 20.0622 22.6476L20.0951 22.6146C25.9398 16.4096 32.9935 11.468 40.8213 8.09458C48.6491 4.72118 57.085 2.9875 65.6085 3.00056C74.1046 2.99082 82.5133 4.71564 90.3197 8.0693C98.1261 11.423 105.166 16.3349 111.008 22.5044C113.152 24.7614 115.125 27.175 116.91 29.7252C124.283 40.2338 128.23 52.7639 128.211 65.6016Z" fill="#E9AD62"/>
<path d="M23.183 143.866C23.55 142.992 24.0968 142.471 24.5262 141.766C25.1355 140.764 25.2089 139.597 25.7888 138.851C26.3688 138.106 27.3121 137.515 27.9911 136.722C28.5527 136.072 29.0924 135.162 29.8742 134.604C30.065 134.472 30.2742 134.479 30.41 134.369C30.6596 134.175 30.6927 133.947 30.8835 133.87C31.8085 133.481 32.7921 134.7 33.5299 135.085C33.651 135.151 34.2162 135.324 34.5722 135.434C35.1485 135.61 35.644 135.434 36.2569 135.434C37.6407 135.434 38.8264 135.265 39.8981 133.91C40.3166 133.382 40.5368 132.442 41.3663 131.913C41.5962 131.806 41.8468 131.751 42.1004 131.751C42.354 131.751 42.6046 131.806 42.8345 131.913C43.2456 132.218 43.2418 132.691 43.4143 132.978C43.5868 133.264 43.8622 133.411 44.0347 133.664C44.3761 134.164 44.4678 134.722 44.677 135.107C44.7725 135.283 44.9999 135.415 45.0733 135.584C45.4403 136.41 45.4036 137.482 45.8074 138.378C45.8735 138.525 46.0865 138.646 46.1452 138.804C46.4609 139.644 46.402 140.599 46.6626 141.278C46.8315 141.715 47.3271 142.111 47.5216 142.607C47.7162 143.102 47.4848 144.413 47.7638 145.041C47.973 145.511 48.3952 145.823 48.9531 146.465C49.3201 146.884 49.5733 147.684 50.0284 147.787C50.1699 147.793 50.311 147.764 50.439 147.704C50.567 147.643 50.678 147.552 50.7625 147.438C51.0488 147.049 50.6781 146.45 50.4872 145.712C50.1605 144.453 49.6137 142.614 48.0464 142.482C48.2006 142.35 48.2519 142.221 48.0867 142.115C47.8922 141.263 47.3234 140.584 47.0885 139.817C46.9857 139.479 47.1068 139.101 47.0517 138.734C46.96 138.125 46.6114 137.541 46.5049 136.961C46.4499 136.667 46.6077 136.333 46.582 135.984C46.5199 135.656 46.4365 135.333 46.3323 135.015C45.9983 133.426 46.1746 132.207 45.4882 130.761C45.7378 128.639 48.1198 126.088 49.7898 124.498C49.9367 124.704 50.0836 124.707 50.2304 124.81C51.515 123.977 52.1242 122.516 53.0638 121.792C53.7979 122.193 53.5777 123.074 53.6144 123.676C53.9815 123.907 53.7576 124.439 53.9264 124.913C54.0953 125.386 54.778 126.084 55.1855 126.825C55.2809 126.998 55.2735 127.255 55.3652 127.413C55.457 127.571 55.7323 127.761 55.8755 127.993C56.0186 128.224 56.0149 128.51 56.114 128.635C56.5912 129.237 57.4281 129.648 57.8833 129.557C58.3384 129.465 58.3529 129.145 58.731 128.881C58.9512 128.72 59.2485 128.742 59.4651 128.422C59.7697 127.996 59.6559 127.108 59.4651 126.418C59.2408 125.548 58.883 124.718 58.4044 123.958C58.2903 123.17 58.1022 122.395 57.8428 121.642C57.6042 120.992 56.9508 119.825 57.439 119.27C57.9271 118.716 59.6818 119.124 60.1773 119.946C60.3938 120.313 60.012 120.783 60.2726 121.19C60.7314 121.925 61.873 122.259 62.585 122.2C62.9117 122.17 63.1833 121.936 63.4989 121.899C63.8146 121.862 64.1119 122.266 64.3101 121.822C64.2183 121.414 63.8073 121.568 63.576 121.245C63.3448 120.922 63.5467 120.541 63.3265 120.17C62.9888 119.601 62.4199 119.469 61.8583 118.808C61.8583 118.32 61.5426 117.839 61.649 117.34C60.915 116.701 60.4672 115.504 59.7221 115.016C59.355 114.763 58.8007 114.803 58.4007 114.513C57.3803 113.779 56.7785 112.083 57.0501 111.36C57.8135 109.326 59.968 109.954 61.2564 108.79C61.7849 108.808 62.0381 109.241 62.4712 109.403C62.7024 109.491 62.9263 109.377 63.1759 109.432C63.6658 109.58 64.1188 109.83 64.5046 110.166C65.0919 109.943 65.6975 110.137 66.3068 110.489C66.4646 110.335 66.6262 110.291 66.7987 110.53C67.4373 110.163 68.0944 110.31 68.7477 110.357C69.5992 109.873 70.4911 109.843 71.3794 109.462C71.985 109.201 72.3043 108.808 72.8659 108.441C73.2733 108.173 73.7541 108.041 74.1469 107.751C74.732 107.372 75.2483 106.897 75.6737 106.345C75.8573 106.382 76.0408 106.525 76.217 106.345C76.291 106.156 76.4128 105.988 76.5703 105.86C76.7278 105.731 76.9159 105.645 77.1163 105.611C77.2815 105.548 77.4833 105.299 77.5384 105.273C77.9494 105.126 78.3972 105.273 78.7276 105.126C79.3295 104.866 79.4397 104.432 79.9499 104.274C80.2981 104.202 80.6576 104.202 81.0057 104.275C81.3539 104.348 81.683 104.493 81.9723 104.7C82.1338 104.821 82.2292 105.104 82.4237 105.225C82.9706 105.567 83.8918 105.424 84.5672 105.96C85.3013 106.558 85.65 107.476 86.6924 107.843C86.758 107.862 86.8259 107.873 86.8943 107.876L94.7526 83.6987C94.4774 83.8197 94.1854 83.8977 93.8865 83.9299C93.2588 83.9777 92.5798 83.7134 91.9301 83.8823C91.5568 84.0381 91.2002 84.2311 90.8657 84.4585C89.2324 85.2588 88.1385 86.9659 87.5219 88.4636C87.0778 89.5319 87.1181 91.0333 85.8372 90.145L85.8152 90.2256L85.7345 90.255C85.4922 90.512 85.1839 90.4717 85.0774 90.167C85.2169 89.9321 85.36 89.9907 85.5069 89.9356L85.5839 89.91L85.6683 89.877C85.4098 89.4289 85.2626 88.9254 85.2389 88.4086C85.0848 88.2177 84.9453 88.3241 84.7911 88.1001C84.4902 87.4577 84.1635 86.3968 83.4037 85.4313C82.9963 84.9174 82.3026 84.6347 81.9355 84.1759C81.7357 83.7877 81.5947 83.3721 81.5171 82.9425C81.2125 81.8412 81.5171 81.6759 82.4934 81.2317C82.8605 81.1914 83.2752 81.3786 83.7413 81.2317C84.424 81.0409 85.36 80.0681 84.9379 79.6239C84.7874 79.4624 83.936 79.624 83.5322 79.7745C82.8137 80.0976 82.207 80.6263 81.7887 81.2941C81.385 81.2244 81.1464 81.7421 80.6619 81.7091C80.3646 81.687 80.1921 81.4117 79.8361 81.342C80.3352 81.9954 78.9185 81.9036 78.8597 81.375C79.0176 81.0079 79.6966 81.4411 79.5021 81.1364C78.3055 80.9271 76.9878 78.9888 78.4009 78.4088C77.2668 78.1959 76.0738 77.6269 75.9454 76.4265C75.7435 74.5727 77.3952 72.069 78.8817 69.8187C79.168 69.3856 79.48 68.912 79.7627 68.5412C80.4013 67.7043 81.2638 67.6418 81.8914 67.282C82.2585 67.0765 82.5558 66.7057 82.9008 66.5478C83.121 66.4451 83.3009 66.4891 83.4918 66.3643C84.2516 65.8724 84.9049 64.76 85.6536 64.4003C85.9803 64.2461 86.5199 64.1837 86.9456 64.0332C87.5975 63.811 88.2618 63.6271 88.9351 63.4825C89.17 63.4311 89.4526 63.4606 89.6398 63.4092C90.1536 63.2661 90.5867 62.9429 90.9794 62.8769C91.508 62.7888 91.9155 63.0017 92.3376 62.8769C92.6018 62.8071 92.8294 62.5685 93.1377 62.473C93.6589 62.3115 94.1066 62.1758 94.6462 61.9923C94.9031 61.9042 95.2555 61.9923 95.5638 61.9079C95.7216 61.8712 95.8538 61.6766 96.0446 61.6252C96.3676 61.5297 96.7787 61.5848 97.0687 61.4269C97.6552 61.1016 98.2693 60.8288 98.9039 60.6119C99.3921 60.443 99.7629 60.1825 100.24 59.9732C100.629 59.8044 101.04 59.8301 101.37 59.6685C101.943 59.3563 102.473 58.9698 102.945 58.5194L104.762 52.9211C104.505 52.6544 104.19 52.4509 103.841 52.3266C103.547 52.646 103.25 53.024 102.941 52.9505C102.651 52.7083 103.055 52.4403 103.022 52.1907C101.532 51.9337 100.354 53.3213 99.0728 54.2648C98.7755 54.4887 98.3828 54.5989 98.1148 54.8375C97.344 55.5166 96.4888 56.7647 95.7437 57.0401C94.6903 57.4072 93.5414 57.5063 92.4623 57.9578C91.7906 58.2405 91.2511 58.8463 90.5978 59.1546C90.205 59.3382 89.6508 59.2757 89.2543 59.5768C89.0795 59.4148 88.8534 59.319 88.6154 59.3063C88.3774 59.2935 88.1425 59.3646 87.9513 59.507C87.265 58.9894 86.608 59.4042 85.9363 59.4079C85.5068 59.0224 85.1031 59.3528 84.6773 59.0664C84.6283 59.1589 84.5602 59.2398 84.4773 59.3038C84.3945 59.3677 84.299 59.4131 84.1971 59.4371C84.0953 59.4611 83.9894 59.4631 83.8868 59.4429C83.7841 59.4226 83.687 59.3806 83.6019 59.3197C83.4698 58.4644 82.5852 58.692 82.0897 58.0128C81.5097 57.2162 82.1851 55.2377 83.0036 54.4594C83.6536 53.8938 84.3994 53.4487 85.2058 53.1452C85.7344 52.969 86.2336 53.0424 86.7144 52.7781C88.524 51.7612 89.3425 49.7532 87.566 48.9566C87.1696 48.7803 86.8319 48.9822 86.4171 48.7216C86.0501 49.0666 85.3895 49.019 84.916 49.3127C84.5489 49.5477 84.2699 50.0248 83.9175 50.2634C82.8861 50.9609 81.5355 51.2766 80.5004 50.4249C80.2802 50.2451 80.0416 49.6651 79.5938 49.2613C78.4743 48.2481 78.3642 47.5799 78.5771 46.4199C78.6725 45.8949 79.0799 45.2415 79.0102 44.7276C78.9588 44.3421 78.522 44.1329 78.5404 43.6557C77.6778 43.2666 76.8189 43.0389 75.9711 42.7085C75.7398 42.7085 75.8462 42.8922 75.6554 43.0427C75.604 42.6756 75.3397 42.8076 75.2149 42.8407C74.9764 42.9031 74.5543 42.7415 74.4516 42.7562C73.8386 42.8517 73.2807 43.5603 72.6787 43.4098C72.4365 43.2189 72.642 43.0133 72.6053 42.815C72.1355 43.094 72.0804 42.5434 71.9923 42.2387C71.533 42.0052 71.0359 41.8548 70.5241 41.7946C70.6122 41.2476 70.2085 40.6676 70.3076 40.1206C70.4544 39.3056 71.4858 38.2557 72.2859 37.5509C72.653 37.2242 73.2513 37.0333 73.6147 36.6955C74.0588 36.2844 74.2607 35.5758 74.547 35.2601C74.9931 34.8317 75.4689 34.4355 75.9711 34.0744C76.9254 33.3402 77.5457 32.1215 78.2761 31.5047C78.4119 31.3909 78.6798 31.3542 78.8633 31.2147C79.5424 30.7081 80.0012 30.018 80.4931 29.4857C81.9327 27.8853 83.4989 26.4036 85.1766 25.0549C85.4835 24.8257 85.8274 24.6506 86.1933 24.5372C86.4869 24.5372 86.7328 24.8493 87.0191 24.9043C87.6891 24.916 88.3591 24.8768 89.0232 24.7869C90.4253 24.6805 91.1997 24.6657 92.1907 23.6562C93.7947 22.03 94.0259 20.8443 94.1103 19.2511C94.2296 18.1599 94.1197 17.0557 93.7874 16.0096C93.3543 14.6696 92.9285 14.0749 91.6658 12.6616C91.3612 12.3202 91.0713 11.9274 90.7703 11.5603L86.6887 10.2351C85.5435 10.4627 84.5121 11.2556 83.455 12.3312C82.7983 13.0531 82.2906 13.8977 81.9612 14.8165C81.8438 15.1616 81.8988 15.5507 81.7814 15.9178C81.4144 17.0191 81.1244 18.2415 81.2969 19.3502C81.4694 20.4588 82.1447 21.3765 82.809 22.3346C82.6108 22.7752 82.8421 23.513 82.4824 24.0269C82.4384 24.093 82.1925 24.137 82.1154 24.2031C81.3813 24.7758 80.8527 25.6973 80.3389 26.3177C79.6525 27.1437 78.6248 27.8851 78.1366 28.5532C77.683 29.1783 77.1329 29.7273 76.5069 30.1796C75.9709 30.5776 75.4929 31.0484 75.0865 31.5782C74.7599 31.9453 74.2497 32.294 73.9854 32.6428C73.7211 32.9915 73.5669 33.5532 73.321 33.9093C73.0235 34.3904 72.6739 34.8373 72.2786 35.2418C72.1355 35.363 71.7648 35.44 71.4785 35.6493C70.8912 36.0678 70.4214 36.6992 69.8415 37.0553C69.2615 37.4114 68.4871 37.2791 67.742 37.6095C66.9969 37.9399 66.472 38.4026 65.8737 38.5898C65.2479 38.812 64.5756 38.8701 63.921 38.7587C63.0548 38.5714 62.0088 37.8923 61.7518 37.1471C61.3848 36.0458 63.3778 35.3116 63.8366 34.4783C63.8825 34.3361 63.9145 34.1898 63.932 34.0414C64.0422 33.4724 64.1009 33.197 63.7742 32.639C63.3558 33.0391 62.9153 32.8778 62.4786 32.786C61.8142 33.0723 60.7607 33.913 60.0083 33.7331C58.9328 33.4762 58.4741 31.5305 58.2833 30.7522C58.1915 30.3852 58.0191 30.018 57.9824 29.8381C57.7621 28.6524 58.3273 27.3859 58.5659 26.1892C58.6724 25.6569 58.676 24.9557 58.7751 24.2839C58.9696 22.9844 59.2375 21.6959 59.41 20.4698C59.5425 19.8232 59.6296 19.1682 59.6706 18.5095C59.6449 17.7753 58.9366 16.5125 58.7568 15.5727C58.7091 15.2864 58.8375 15.0662 58.7898 14.8679C58.7163 14.5412 58.4741 14.321 58.4227 14.1337C58.3493 13.6785 58.6063 13.2564 58.6503 12.7718C58.8228 10.8629 58.6944 8.84382 58.6797 7.02301C58.6797 6.3292 58.9073 5.55461 58.3971 5.08105C57.663 5.73082 57.6629 6.75868 57.4463 7.55161C57.2151 8.40695 56.9583 9.27335 56.7748 10.1727C56.5913 11.0721 56.7233 12.0081 56.481 12.8378C56.2902 13.5022 55.6295 14.0897 55.3505 14.8276C55.2477 15.1066 55.3286 15.4038 55.2149 15.6425C55.1378 15.8113 54.9212 15.9765 54.8478 16.1417C54.4587 17.0961 54.7706 17.9992 54.8293 18.8546C54.8991 19.8824 54.7377 20.925 54.7707 21.9455C54.7928 22.7715 55.0752 23.6048 55.0679 24.4308C55.0679 24.7318 54.9763 25.1283 54.9396 25.4623C54.8545 26.1598 54.732 26.8521 54.5725 27.5364C54.4954 27.8851 54.2824 28.2192 54.2273 28.5753C54.1906 28.8213 54.2972 29.0561 54.2532 29.3351C54.0446 30.3569 53.7117 31.3494 53.2621 32.2904C52.9681 32.9312 52.5865 33.528 52.128 34.0635C50.8286 35.5319 48.4905 35.4914 46.7177 34.6654C46.0033 34.2426 45.332 33.7508 44.7136 33.197C43.5427 32.2719 42.5114 31.6223 41.5828 30.4769C41.1424 29.9336 41.436 28.9461 41.2928 28.2082C41.2304 27.9072 41.0617 27.5218 40.9846 27.1877C40.9407 26.8427 40.8756 26.5006 40.7899 26.1635C40.4523 25.3412 39.7697 24.9337 39.2558 24.1004C39.0943 23.8361 39.0612 23.4323 38.8373 22.9735C38.4152 23.0616 38.4703 22.5255 38.1032 22.2905L38.0774 22.375L37.9968 22.4044L37.8903 22.5146C37.8169 22.4522 37.7472 22.5146 37.6738 22.4155C37.7252 22.32 37.6921 22.2318 37.8242 22.1364V22.0484L37.8756 21.9749C36.9323 21.0058 35.7798 20.5799 34.9943 21.7913C34.7924 22.0997 34.9393 22.5916 34.8146 22.9918C34.2566 24.7979 32.1571 25.6531 31.1 23.9204C30.8064 24.1811 31.1735 24.4272 30.9056 24.6878C30.1531 24.563 29.5145 23.6598 29.0704 22.955C28.9896 22.7458 29.4373 22.6613 29.3272 22.5879C28.7179 22.063 27.8591 21.0792 27.7343 20.3597C27.2534 19.7944 26.6038 19.3244 26.2661 18.671C25.9835 18.124 25.932 17.2725 25.8182 16.5713C25.7044 15.8702 25.7191 15.0515 25.5283 14.4091C25.3888 13.9355 25.1612 13.5317 25.0474 13.0177C24.8419 12.0082 24.5299 11.0721 24.3133 10.1139C24.2419 9.61751 24.1353 9.1268 23.9941 8.64556C23.8767 8.39593 23.5646 8.172 23.4251 7.91136C23.1902 7.4635 23.0581 6.84318 22.5075 6.42469C21.9716 6.50178 21.579 6.087 21.1422 6.19346C20.32 6.39904 19.5236 7.55527 19.4208 8.36288C19.4266 8.69169 19.4734 9.01845 19.5602 9.33566C19.5893 9.66118 19.6371 9.98481 19.7034 10.3048C19.7842 10.5324 20.0189 10.6719 20.0997 10.8885C20.1445 11.1569 20.1727 11.428 20.1841 11.6999C20.4026 12.3287 20.6767 12.9367 21.0028 13.5169C20.9455 14.1561 21.0229 14.8002 21.2302 15.4075C21.2999 15.5653 21.5312 15.6167 21.6193 15.7746C21.7074 15.9324 21.6193 16.1416 21.7478 16.3105C21.8762 16.4794 22.1149 16.5748 22.2507 16.7841C22.6911 17.4265 22.7571 18.2525 23.0801 18.8178C23.2012 19.0307 23.4801 19.1849 23.5866 19.3979C23.8508 19.9669 23.8142 20.7892 23.983 21.5528C24.0895 22.0447 24.4124 22.5695 24.4124 23.0027C24.4124 23.6818 24.0821 24.3978 24.0454 25.0769C24.0454 25.2788 24.1702 25.5321 24.1739 25.7229C24.1739 26.4278 23.9464 27.1179 23.9171 27.7897C23.9394 28.5952 24.0752 29.3935 24.3207 30.1611C24.5262 30.9467 24.7796 31.703 24.9411 32.5289C25.6936 33.5164 26.1634 34.5149 26.0202 35.5281C26.446 36.5486 26.6295 39.0632 25.2567 40.3774C24.8897 40.7445 23.6564 41.3944 23.0545 41.3687C22.8082 41.3111 22.5683 41.2288 22.3387 41.1228C22.0157 40.8621 22.1993 40.4435 21.7698 40.271C21.7692 39.6794 21.8596 39.0913 22.0378 38.5273C22.1956 37.9583 22.5663 37.3158 22.6324 36.7762C22.7352 35.8952 22.3571 35.0913 22.2654 34.2397C22.0708 33.9019 21.7221 33.5679 21.634 33.2302C20.7017 32.9475 19.2665 33.0649 18.6756 34.0267C18.4957 34.3131 18.6388 34.8968 18.5544 35.3851C18.4479 35.9762 18.4479 36.5815 18.5544 37.1727C18.6205 37.6389 18.8297 38.0171 18.9215 38.4613C18.9802 38.7476 18.8627 39.1515 18.8994 39.4929C18.9508 39.9187 19.1343 40.2271 19.0976 40.5171C18.996 40.8011 18.8733 41.0772 18.7306 41.343C18.4443 42.1213 18.4848 42.1505 17.7947 42.5653C16.9395 43.0719 16.3083 43.5015 15.4898 43.4501C15.0823 44.0668 14.2381 44.3532 13.7866 44.5881C13.3352 44.8231 13.0782 45.1718 12.6855 45.4361C11.9304 45.8754 11.119 46.21 10.2739 46.431C10.0794 47.5323 8.92333 47.3597 8.31037 47.7414C7.96535 47.9544 7.73042 48.4757 7.36337 48.7474C7.11011 48.9346 6.78338 48.9787 6.56315 49.1512C6.25851 49.3935 6.07497 49.8523 5.72261 50.0432C6.40164 51.4345 4.82347 53.1855 3.36264 52.5578C2.90383 52.0439 2.6065 51.4748 1.95683 51.1371C1.62649 50.9646 1.18971 51.0233 0.855701 50.8471C0.683191 50.7553 0.565659 50.5352 0.407829 50.4287C-0.414347 49.8671 -1.2622 50.1129 -2.05502 49.9073C-2.04135 50.1204 -2.07428 50.3341 -2.15162 50.5332C-2.22896 50.7323 -2.34874 50.912 -2.50271 51.06C-2.73028 50.9425 -2.48451 50.8067 -2.57261 50.6929C-3.07069 51.2208 -3.48966 51.8181 -3.81675 52.466C-4.07368 52.8772 -4.55086 53.2369 -4.7564 53.5673C-5.03903 54.0519 -4.91056 54.6906 -5.49049 54.6686C-6.01169 54.2391 -6.54755 54.0005 -6.93662 53.6297C-7.14951 53.4278 -7.23022 53.0277 -7.45045 52.8331C-7.7918 52.5284 -8.43412 52.4661 -8.45981 51.8898C-8.64701 51.7246 -8.82686 52.0291 -9.01038 51.6877C-9.01038 51.3574 -8.69112 51.7135 -8.52595 51.508C-8.74984 50.8031 -8.91862 50.278 -9.56094 49.8082C-9.7775 49.6503 -10.0455 49.7055 -10.2768 49.5586C-10.4618 49.4401 -10.6256 49.2911 -10.7612 49.1181L-17.5332 69.9508C-17.012 70.1307 -16.4321 70.6043 -15.8191 70.8209C-14.8832 71.1513 -13.8041 71.4781 -12.9672 71.7057C-12.3953 71.4315 -11.7437 71.3728 -11.132 71.5404C-10.4823 71.3642 -9.90612 70.9457 -9.25645 70.7768C-9.1133 70.7401 -8.97004 70.7438 -8.77184 70.7071C-8.32771 70.6263 -8.01216 70.4244 -7.59006 70.34C-7.38465 70.3068 -7.17429 70.3203 -6.97479 70.3794C-6.77529 70.4385 -6.59171 70.5418 -6.43749 70.6815C-6.13447 70.2699 -5.7499 69.9251 -5.30787 69.6687C-4.86583 69.4123 -4.37581 69.2497 -3.86819 69.191C-3.07905 69.147 -3.32129 69.1689 -2.76706 69.8076C-2.39971 70.2541 -2.07416 70.7335 -1.79443 71.2394C-1.49713 71.6763 -0.986963 72.0544 -0.722692 72.4546C-0.524488 72.7556 -0.5355 73.2401 -0.35565 73.42C-0.1134 73.6733 0.323402 73.6915 0.584003 73.8751C0.690445 74.2936 1.1676 74.7378 1.31809 75.3179C1.38416 75.5418 1.2815 75.8135 1.3439 76.0741C1.52375 76.8413 1.94218 77.9095 1.25949 78.5153C0.870419 78.8603 0.525414 78.5152 0.0812893 78.9851C-0.0435047 79.242 0.246359 79.4808 0.16194 79.7965C0.128906 79.9287 -0.0436268 79.9689 -0.0436268 80.1305C-0.0436268 80.3911 0.143608 80.5821 0.0922222 80.8831C-0.054594 81.7054 -0.880486 82.5056 -1.23652 83.4196C-1.55584 84.2309 -1.54479 84.9798 -1.92652 85.6222C-1.92652 85.7911 -2.23852 85.8572 -2.40002 86.1252C-2.01462 86.9034 -2.68632 87.6376 -2.86617 88.4195C-2.9616 88.8344 -2.74132 89.2124 -2.9909 89.5612C-2.25682 90.7469 -2.50274 91.9658 -3.35795 93.2029C-3.29358 93.7983 -3.29358 94.3989 -3.35795 94.9943C-3.42035 95.5707 -3.75807 96.29 -3.67732 96.7893C-3.54033 97.0834 -3.38598 97.369 -3.21493 97.6447C-3.14018 97.956 -3.03939 98.2605 -2.91384 98.5551C-2.59084 99.0286 -2.01466 99.3958 -1.61826 99.9795C-1.62322 100.14 -1.59295 100.3 -1.52954 100.448C-1.46613 100.596 -1.37112 100.728 -1.25121 100.835C-1.32829 100.982 -1.25114 101.125 -1.45301 101.275C-0.895109 101.407 -1.11903 101.944 -0.931843 102.289C-0.74465 102.634 -0.46944 102.656 -0.362997 103.023C-0.175804 103.228 0.00403976 102.946 0.18022 103.115C0.18022 103.294 0.349167 103.482 0.198679 103.654C0.646473 103.654 0.804295 104.164 1.2007 104.388C1.51269 104.561 1.9054 104.498 2.18803 104.686C3.22309 105.368 3.6929 106.44 4.02324 107.336C3.78099 107.509 3.83972 107.67 3.6562 107.835C3.80669 108.03 3.94256 107.784 4.09672 108.041C3.62324 108.617 4.07458 109.282 4.79765 109.535C4.99586 108.966 5.68966 109.245 6.08607 109.168C6.28427 108.907 6.14851 108.658 6.4972 108.393C7.16889 109.043 7.77812 107.685 8.45715 108.551C9.23896 108.085 9.78952 107.509 10.6594 107.343C10.9053 107.545 10.8099 107.622 11.0485 107.71C11.7312 107.531 12.4983 107.325 13.159 107.479C13.9298 107.663 13.9371 108.155 13.8563 108.76C13.7793 109.311 13.3792 109.932 13.6398 110.449C14.1537 111.481 15.2804 111.26 16.0145 111.727C16.3816 111.947 16.2642 112.222 16.8588 112.516C17.0497 112.688 16.6716 112.883 16.8588 113.055C17.3176 113.738 17.1708 114.421 17.2038 115.258C17.1715 115.727 17.1874 116.198 17.2515 116.664C17.3469 116.954 17.6919 117.152 17.7653 117.461C18.0773 118.793 15.8971 120.397 16.9836 121.77C18.4003 123.569 20.1254 121.326 21.689 121.132C22.056 121.4 22.4231 121.209 22.7278 121.37C23.0324 121.532 23.0949 121.829 23.3518 122.163C23.594 122.376 23.8215 122.163 24.0674 122.53C24.35 123.683 25.3154 124.659 25.587 125.735C25.6421 125.959 25.5429 126.238 25.6127 126.491C25.7411 126.979 26.1376 127.486 26.2588 128.044C26.2991 128.224 26.1449 128.411 26.1706 128.587C26.2813 129.008 26.4212 129.42 26.5891 129.821C26.824 130.32 27.5654 131.12 27.7343 131.521C28.083 132.358 27.481 133.639 26.9084 134.527C26.3909 135.331 25.5981 135.966 25.132 136.645C24.6658 137.324 24.552 138.231 24.1703 138.789C24.0932 138.899 23.884 138.969 23.8033 139.072C23.227 139.787 23.2784 140.54 22.9003 141.274C22.5609 141.853 22.1164 142.363 21.5899 142.779C21.2303 143.15 20.9516 143.591 20.7714 144.075L22.8892 144.765C22.9737 144.453 23.0692 144.134 23.183 143.866ZM48.8466 143.224C48.8833 143.279 48.8466 143.334 48.909 143.385L48.8025 143.495L48.6373 143.341C48.7033 143.223 48.7769 143.293 48.8466 143.224ZM89.3168 87.5826C89.6839 88.5555 88.9497 90.1082 88.0101 90.7653C88.0138 89.7191 88.546 88.6546 89.3168 87.5826ZM83.4221 17.5109C83.1358 17.0961 83.4 16.4097 83.8662 16.1454C83.93 16.2636 83.9693 16.3935 83.9814 16.5272C83.9936 16.661 83.9784 16.7956 83.9369 16.9234C83.8953 17.0511 83.8282 17.169 83.7397 17.27C83.6512 17.371 83.5432 17.453 83.4221 17.5109ZM88.2194 14.7615C88.535 15.0772 88.1496 15.5764 87.8156 15.7489C87.243 15.4296 87.8046 14.6293 88.2194 14.7615ZM37.3765 119.788C37.7252 119.832 37.27 120.364 37.1342 120.607C36.9727 120.342 37.4316 120.056 37.3765 119.788ZM60.7755 38.8246L61.2232 39.2432C61.1895 39.4888 61.0836 39.7188 60.9187 39.9039C60.7403 39.8538 60.5739 39.7678 60.43 39.651C60.2861 39.5342 60.1675 39.3892 60.0818 39.2249C60.1646 39.115 60.2687 39.0228 60.3879 38.954C60.507 38.8853 60.6389 38.8413 60.7755 38.8246ZM-11.3485 51.8163C-11.488 51.5666 -11.1319 51.3023 -11.1576 51.0527C-11.0879 50.9939 -11.0108 51.1004 -10.9374 51.1518C-11.0952 51.3831 -11.1136 51.5997 -11.3485 51.8163ZM-3.53789 54.8228C-3.58927 53.9381 -3.11578 53.0387 -2.70469 52.1393C-2.33031 52.778 -2.7414 54.162 -3.53789 54.8301V54.8228ZM22.7389 84.2456C22.6434 84.0327 22.8269 83.8087 22.9333 83.5885C23.1499 83.8051 22.7938 84.0327 22.7498 84.253L22.7389 84.2456ZM24.0345 83.9887L24.1886 83.8199L24.3574 83.9776C24.3434 84.0077 24.3216 84.0335 24.2941 84.0522C24.2667 84.0708 24.2346 84.0817 24.2015 84.0836C24.1683 84.0854 24.1352 84.0784 24.1058 84.063C24.0764 84.0475 24.0518 84.0244 24.0345 83.9961V83.9887ZM26.7029 84.2823C26.6662 84.2273 26.6295 84.2567 26.5928 84.2823L26.4826 84.1796C26.5377 84.1429 26.5083 84.1061 26.4826 84.0694L26.5855 83.9593C26.6258 84.0144 26.6588 83.985 26.6955 83.9593L26.8093 84.062C26.7543 84.0988 26.78 84.1356 26.8093 84.1723L26.7029 84.2823ZM43.1795 35.5758C43.3593 34.7241 44.0676 35.1207 44.5998 35.7484C44.5998 35.965 44.354 36.1888 44.4018 36.4018C43.965 36.4935 43.3336 36.031 43.1795 35.5831V35.5758ZM53.8053 33.344C53.53 32.4776 54.2237 31.3175 54.4476 30.5796C54.4464 30.5657 54.4482 30.5517 54.4526 30.5384C54.457 30.5252 54.4641 30.513 54.4734 30.5026L54.4476 30.5796C54.4476 30.6971 54.5578 30.888 54.5431 30.9908C54.5285 31.0936 54.3742 30.9467 54.3779 30.9394C54.1797 31.4974 54.5871 32.6392 53.8053 33.3513V33.344ZM58.6577 35.5758C58.4154 35.4473 58.4558 35.1756 58.1989 34.8416C57.7364 34.2175 56.9546 33.8761 57.4427 33.2961C57.8648 33.5825 58.1768 33.7073 58.4448 34.1294C58.5695 34.324 58.5366 34.6545 58.6871 34.7756C59.1716 35.1647 59.6414 34.6068 60.269 34.9959C59.924 35.363 59.1972 35.8731 58.6577 35.5831V35.5758Z" fill="#60C9EB"/>
<path d="M98.0621 170.675C97.8419 172.984 89.1981 171.589 84.9037 176.211C83.2924 177.94 80.69 182.452 80.2863 183.572C80.1584 183.958 79.9181 184.296 79.5962 184.544C79.2731 184.772 78.8902 184.9 78.4951 184.912C78.3112 184.909 78.1285 184.882 77.9518 184.831C77.0489 184.541 76.7186 182.628 76.6929 182.489C76.2488 179.809 76.9646 177.544 76.8324 175.954C76.4654 171.336 68.9079 172.115 62.6351 164.673C61.4202 163.234 59.7391 160.878 57.4561 160.889C56.6192 160.889 55.6209 161.215 53.4186 161.223C52.4496 161.223 51.7818 161.116 51.4624 161.146C49.374 161.329 48.0893 162.383 43.8866 162.691C37.768 163.135 35.9438 161.223 33.6094 162.959C33.6094 162.959 30.8565 165.015 28.7203 165.848C27.4246 166.355 27.4761 166.006 26.6759 166.432C25.2481 167.195 23.4569 171.3 23.4569 171.3C21.7942 175.084 20.605 175.338 21.0014 176.296C21.6731 177.929 25.039 176.835 27.667 179.53C28.0891 179.959 29.0948 180.998 28.7902 181.942C28.6422 182.294 28.3975 182.597 28.0844 182.816C27.7713 183.035 27.4025 183.161 27.0209 183.179C26.8014 183.183 26.5832 183.145 26.3786 183.065C25.9271 182.911 23.5377 182.103 23.0202 182.65C22.576 183.12 23.7909 184.262 24.0919 186.883C24.3011 188.74 23.8203 189.287 23.556 189.486C23.3742 189.616 23.1663 189.706 22.9467 189.75C22.9126 189.788 22.8699 189.818 22.8221 189.838C22.7743 189.857 22.7227 189.864 22.6714 189.86C22.1586 189.834 21.6675 189.645 21.2694 189.32C19.8379 188.102 16.7547 183.164 13.8697 181.476C10.4342 179.464 7.17855 181.986 5.46446 179.732C4.68633 178.708 4.45516 177.001 5.17089 175.98C6.48491 174.111 9.60111 176.219 13.6129 174.636C15.1875 174.016 16.6851 172.008 19.6838 167.988C20.561 166.81 21.6842 165.173 21.152 164.391C21.0893 164.304 21.0108 164.229 20.9206 164.171C19.7975 163.334 19.3681 161.645 19.28 161.377C18.6597 159.446 12.3759 157.177 10.5334 156.436C9.38451 155.973 -0.147549 151.763 -4.35753 143.955C-4.9081 142.934 -6.29934 140.122 -7.5326 140.324C-8.45021 140.478 -8.42815 142.159 -9.88164 142.805C-10.4667 143.031 -11.1018 143.093 -11.7195 142.987C-12.3373 142.88 -12.9149 142.608 -13.3906 142.2C-15.0533 140.691 -14.0402 137.997 -15.0459 137.593C-16.0516 137.189 -17.1821 140.07 -19.9312 140.871C-22.9997 141.755 -26.1012 139.435 -26.593 139.035C-29.8964 136.466 -30.6305 132.112 -30.8985 130.592C-31.4417 127.439 -30.77 125.912 -32.1611 124.12C-33.1778 122.821 -34.0697 122.946 -35.8315 121.822C-36.0701 121.672 -41.5061 118.089 -41.4547 112.77C-41.4217 108.904 -38.5183 106.209 -37.9934 105.729C-35.2663 103.203 -33.4384 104.201 -32.2125 102.461C-29.5221 98.6546 -37.1749 92.2451 -34.958 86.3385C-33.6146 82.7593 -29.1807 81.0338 -26.3619 80.6447C-18.9953 79.6315 -11.3718 86.2247 -8.2373 93.0013C-4.83847 100.343 -7.91063 105.336 -3.64925 108.853C0.20837 112.032 6.5143 111.085 6.75288 110.174C6.91071 109.557 4.29737 109.051 3.28066 106.532C2.81526 105.27 2.78555 103.889 3.19625 102.608C3.93033 100.251 5.89388 98.9373 6.71972 98.3977C13.7633 93.8273 31.7778 93.6254 39.3609 85.8099C47.8653 77.0399 45.3033 56.5595 51.209 51.7396C51.5577 51.4569 53.1325 50.2528 52.9233 49.0084C52.6627 47.4519 49.917 47.54 47.9901 45.7816C44.738 42.8117 44.7125 35.3963 47.8691 32.8376C50.6659 30.5763 54.7144 33.1203 55.867 31.3692C57.57 28.7995 48.9774 22.9701 50.5043 17.6839C51.4366 14.4534 56.0578 11.7809 59.8677 12.8455C63.1013 13.7486 65.2559 17.1405 65.4467 19.8974C65.5605 21.5237 65.0063 23.106 65.366 23.2345C65.7257 23.363 66.2542 21.7 67.5499 20.6354C69.4842 19.0459 72.6517 19.167 74.3915 19.9012C80.4845 22.4709 83.0941 36.1673 78.062 42.1106C76.436 44.0415 74.0245 45.1061 74.3181 46.6846C74.5751 48.131 76.7186 48.0061 79.3687 49.6617C84.8743 53.0941 84.0154 58.8392 89.2788 60.9426C89.4624 61.016 89.6753 61.0823 89.6753 61.0823C90.5825 61.3907 91.5128 61.6264 92.4574 61.7871C93.6576 61.9963 99.0165 62.9286 99.4312 64.9513C99.6257 65.9241 98.5797 66.9337 96.4949 68.949C94.322 71.0452 93.7751 70.8763 93.1218 71.8638C91.705 74.0113 92.9493 76.8636 94.4285 81.4083C95.5112 84.7526 96.1535 88.229 97.2143 91.5806C99.8423 99.9027 100.518 121.543 89.4183 135.093C85.3808 140.038 79.2585 147.504 74.4026 150.683C73.6171 151.197 71.8333 152.28 70.6698 154.439C70.3614 155.011 68.6364 157.798 69.1245 160.856C70.0091 166.41 77.7243 170.4 81.5673 168.667C84.944 167.133 85.5423 162.533 88.1299 162.768C89.4807 162.893 91.0443 164.361 90.9636 165.246C90.9508 165.629 90.8815 166.007 90.758 166.369C90.661 166.634 90.6029 166.911 90.5855 167.192C90.5955 167.239 90.6089 167.286 90.6259 167.331C90.8314 167.823 93.3457 167.441 94.957 167.874C96.4215 168.293 98.1613 169.655 98.0621 170.675Z" fill="#FFE600"/>
</g>
<path d="M65.5937 128.206C100.163 128.206 128.187 100.178 128.187 65.6029C128.187 31.0283 100.163 3 65.5937 3C31.0241 3 3 31.0283 3 65.6029C3 100.178 31.0241 128.206 65.5937 128.206Z" stroke="#FFE600" stroke-width="5.56471"/>
</svg>
