<svg width="131" height="131" viewBox="0 0 131 131" fill="none" xmlns="http://www.w3.org/2000/svg">
<mask id="mask0_2_8809" style="mask-type:alpha" maskUnits="userSpaceOnUse" x="3" y="3" width="126" height="126">
<path d="M128.206 65.5991C128.207 69.3348 127.875 73.0635 127.216 76.7404C127.194 76.8652 127.175 76.9863 127.15 77.1075C126.256 81.9305 124.793 86.6302 122.792 91.108C122.45 91.8789 122.091 92.6414 121.717 93.3951C121.228 94.3863 120.71 95.3652 120.162 96.3318C119.744 97.066 119.31 97.8002 118.86 98.5343C116.302 102.663 113.275 106.482 109.84 109.914C108.916 110.835 107.969 111.727 106.99 112.586C103.194 115.933 99.0066 118.807 94.5188 121.143C93.2252 121.821 91.901 122.455 90.5462 123.045C82.6843 126.459 74.2035 128.217 65.633 128.206C56.823 128.217 48.1106 126.359 40.0705 122.755C39.9165 122.688 39.7624 122.619 39.612 122.546C36.3809 121.066 33.2823 119.312 30.3502 117.303C28.3136 115.909 26.3611 114.395 24.5033 112.77C24.4777 112.77 24.4593 112.73 24.4373 112.711C24.2209 112.524 24.0082 112.344 23.7991 112.142C18.3899 107.273 13.8683 101.5 10.4365 95.08C9.40432 93.1526 8.47617 91.1712 7.6561 89.1442C7.08633 87.7542 6.57037 86.3361 6.1082 84.8898L5.94316 84.3793L5.65704 83.4469C5.47364 82.8265 5.29027 82.1987 5.13621 81.5673C3.76727 76.3566 3.07681 70.9909 3.08208 65.603C3.066 52.2042 7.36458 39.1567 15.3406 28.395C15.8651 27.6865 16.4007 26.9889 16.9546 26.3061C17.7542 25.3272 18.582 24.363 19.4379 23.4135C19.4677 23.3775 19.4996 23.3435 19.5332 23.311C19.735 23.0871 19.944 22.863 20.1494 22.6428L20.1825 22.6098C26.0247 16.407 33.0741 11.467 40.8966 8.09446C48.719 4.72191 57.1486 2.98826 65.6661 3.00006C74.1537 2.99249 82.5538 4.71761 90.3523 8.07044C98.1508 11.4233 105.184 16.3334 111.021 22.4997C113.163 24.7587 115.134 27.1733 116.919 29.7239C124.285 40.2331 128.227 52.7625 128.206 65.5991Z" fill="#60C9EB"/>
</mask>
<g mask="url(#mask0_2_8809)">
<path d="M128.207 65.5991C128.208 69.3348 127.877 73.0635 127.217 76.7404C127.195 76.8652 127.177 76.9863 127.151 77.1075C126.257 81.9305 124.795 86.6302 122.793 91.108C122.451 91.8789 122.093 92.6414 121.719 93.3951C121.23 94.3863 120.711 95.3652 120.163 96.3318C119.745 97.066 119.311 97.8002 118.861 98.5343C116.304 102.663 113.277 106.482 109.842 109.914C108.917 110.835 107.971 111.727 106.992 112.586C103.196 115.933 99.0081 118.807 94.5202 121.143C93.2266 121.821 91.9024 122.455 90.5477 123.045C82.6858 126.459 74.205 128.217 65.6345 128.206C56.8244 128.217 48.1121 126.359 40.072 122.755C39.9179 122.688 39.7639 122.619 39.6135 122.546C36.3823 121.066 33.2837 119.312 30.3517 117.303C28.315 115.909 26.3626 114.395 24.5048 112.77C24.4791 112.77 24.4608 112.73 24.4388 112.711C24.2224 112.524 24.0096 112.344 23.8006 112.142C18.3913 107.273 13.8697 101.5 10.438 95.08C9.40578 93.1526 8.47763 91.1712 7.65756 89.1442C7.0878 87.7542 6.57184 86.3361 6.10967 84.8898L5.94462 84.3793L5.65851 83.4469C5.4751 82.8265 5.29173 82.1987 5.13767 81.5673C3.76873 76.3566 3.07828 70.9909 3.08354 65.603C3.06747 52.2042 7.36604 39.1567 15.3421 28.395C15.8666 27.6865 16.4022 26.9889 16.9561 26.3061C17.7557 25.3272 18.5834 24.363 19.4393 23.4135C19.4692 23.3775 19.501 23.3435 19.5347 23.311C19.7364 23.0871 19.9455 22.863 20.1509 22.6428L20.1839 22.6098C26.0261 16.407 33.0756 11.467 40.898 8.09446C48.7204 4.72191 57.1501 2.98826 65.6675 3.00006C74.1552 2.99249 82.5552 4.71761 90.3538 8.07044C98.1523 11.4233 105.185 16.3334 111.023 22.4997C113.164 24.7587 115.136 27.1733 116.921 29.7239C124.286 40.2331 128.228 52.7625 128.207 65.5991Z" fill="#60C9EB"/>
<path d="M3.30144 -152.174C2.79158 -150.57 1.92592 -149.557 1.28402 -148.242C0.374344 -146.374 0.444038 -144.307 -0.454628 -142.894C-1.35329 -141.481 -2.91959 -140.284 -3.99433 -138.771C-4.882 -137.531 -5.66689 -135.835 -6.96171 -134.733C-7.27716 -134.465 -7.64771 -134.443 -7.87147 -134.23C-8.27495 -133.841 -8.29696 -133.438 -8.60507 -133.265C-10.1676 -132.432 -12.108 -134.414 -13.4688 -134.972C-13.6962 -135.064 -14.7233 -135.273 -15.3652 -135.409C-16.4069 -135.629 -17.2579 -135.247 -18.3363 -135.13C-20.7719 -134.873 -22.8333 -134.396 -24.5023 -131.826C-25.1478 -130.824 -25.3789 -129.157 -26.7288 -128.06C-27.235 -127.652 -28.7242 -127.476 -29.3184 -127.832C-30.0924 -128.298 -30.1621 -129.139 -30.5142 -129.616C-30.815 -130.017 -31.3761 -130.303 -31.7209 -130.718C-32.4068 -131.54 -32.6636 -132.509 -33.1001 -133.155C-33.2945 -133.449 -33.7164 -133.643 -33.8741 -133.93C-34.6517 -135.325 -34.7728 -137.233 -35.6531 -138.731C-35.7962 -138.977 -36.1923 -139.161 -36.3206 -139.421C-37.0139 -140.857 -37.0543 -142.549 -37.6448 -143.705C-38.0117 -144.439 -38.9507 -145.063 -39.3761 -145.908C-39.853 -146.844 -39.6146 -149.101 -40.2088 -150.155C-40.66 -150.952 -41.4522 -151.432 -42.5416 -152.475C-43.2495 -153.154 -43.8364 -154.523 -44.6544 -154.626C-44.9097 -154.618 -45.1591 -154.547 -45.38 -154.419C-45.601 -154.291 -45.7866 -154.11 -45.9199 -153.892C-46.3564 -153.158 -45.6045 -152.166 -45.146 -150.896C-44.3647 -148.731 -43.0919 -145.574 -40.3042 -145.607C-40.5536 -145.35 -40.6233 -145.111 -40.3042 -144.928C-39.8127 -143.459 -38.6975 -142.358 -38.1583 -141.036C-37.9199 -140.456 -38.074 -139.774 -37.9163 -139.135C-37.6522 -138.078 -36.9406 -137.101 -36.6582 -136.103C-36.5078 -135.593 -36.7315 -134.976 -36.6251 -134.363C-36.5371 -133.808 -36.2033 -133.261 -36.0236 -132.696C-35.1726 -129.947 -35.29 -127.774 -33.8228 -125.333C-33.9145 -121.552 -37.6852 -116.655 -40.3628 -113.586C-40.6599 -113.92 -40.9167 -113.901 -41.1955 -114.063C-43.3193 -112.378 -44.1482 -109.698 -45.6851 -108.267C-47.0276 -108.854 -46.8076 -110.44 -46.9689 -111.493C-47.6365 -111.842 -47.3358 -112.815 -47.7246 -113.622C-48.1134 -114.43 -49.4229 -115.546 -50.2628 -116.787C-50.4609 -117.077 -50.4903 -117.521 -50.681 -117.796C-50.9195 -118.119 -51.4146 -118.347 -51.6714 -118.736C-51.9282 -119.125 -52.0052 -119.624 -52.1996 -119.837C-53.1386 -120.817 -54.6828 -121.397 -55.4714 -121.166C-56.1867 -120.953 -56.2344 -120.358 -56.8506 -119.83C-57.2174 -119.51 -57.742 -119.496 -58.0868 -118.897C-58.5489 -118.093 -58.2005 -116.548 -57.72 -115.362C-57.1624 -113.945 -56.3628 -112.264 -55.4458 -111.203C-55.1099 -109.833 -54.647 -108.497 -54.063 -107.213C-53.5384 -106.112 -52.1923 -104.159 -52.9625 -103.098C-53.7328 -102.037 -56.891 -102.463 -57.8997 -103.832C-58.3435 -104.442 -57.7456 -105.337 -58.2665 -106.009C-59.1982 -107.202 -61.267 -107.628 -62.5141 -107.408C-63.0827 -107.305 -63.5192 -106.839 -64.073 -106.725C-64.6269 -106.611 -65.2174 -107.261 -65.4888 -106.449C-65.2578 -105.748 -64.5608 -106.082 -64.117 -105.558C-63.7502 -105.102 -63.9446 -104.32 -63.4934 -103.722C-62.8039 -102.775 -61.7804 -102.621 -60.6984 -101.56C-60.5883 -100.701 -59.9831 -99.9081 -60.0858 -99.0235C-58.6883 -98.025 -57.7016 -96.0097 -56.3077 -95.2461C-55.6108 -94.879 -54.6462 -95.0257 -53.8979 -94.5815C-51.9722 -93.4362 -50.6296 -90.5656 -50.9891 -89.244C-51.9905 -85.5328 -55.8933 -86.2782 -57.9584 -84.0059C-58.8937 -83.9472 -59.4256 -84.6702 -60.2032 -84.8831C-60.6287 -85.0006 -60.9992 -84.762 -61.454 -84.8207C-62.3384 -84.9898 -63.1764 -85.3464 -63.9116 -85.8668C-64.9129 -85.3749 -66.0134 -85.6173 -67.1431 -86.1349C-67.3962 -85.8376 -67.675 -85.7311 -68.0162 -86.1349C-69.0836 -85.4008 -70.2646 -85.5329 -71.4237 -85.5072C-72.8432 -84.5124 -74.4132 -84.3104 -75.9098 -83.4918C-76.9368 -82.9302 -77.4356 -82.1851 -78.36 -81.4399C-79.0312 -80.9003 -79.8602 -80.5881 -80.5021 -80.0081C-81.4594 -79.1491 -82.4131 -78.3124 -82.9633 -77.2772C-83.2898 -77.3139 -83.6382 -77.5303 -83.917 -77.1596C-84.3462 -76.0363 -84.812 -75.996 -85.3842 -75.717C-85.6703 -75.5739 -85.9528 -75.1076 -86.0775 -75.0488C-86.7745 -74.7258 -87.5887 -74.9056 -88.1499 -74.5936C-89.1623 -74.0319 -89.287 -73.2502 -90.16 -72.8904C-91.1981 -72.4573 -92.8487 -72.707 -93.7951 -73.298C-94.0995 -73.4889 -94.3158 -73.9735 -94.679 -74.1534C-95.695 -74.6636 -97.2834 -74.2598 -98.5782 -75.1152C-100.001 -76.0476 -100.739 -77.6113 -102.642 -78.0848C-102.764 -78.1058 -102.886 -78.1142 -103.009 -78.1103L-112.839 -34.1592C-112.372 -34.4162 -111.869 -34.6018 -111.347 -34.7098C-110.246 -34.9044 -109.01 -34.552 -107.895 -34.9522C-107.264 -35.1797 -106.688 -35.7891 -106.112 -36.1452C-103.365 -37.8301 -101.711 -41.0236 -100.885 -43.7694C-100.28 -45.726 -100.603 -48.3507 -98.2003 -47.0108L-98.1709 -47.1614L-98.0316 -47.2273C-97.6648 -47.7192 -97.0999 -47.6972 -96.8615 -47.1796C-97.0669 -46.7428 -97.3311 -46.8126 -97.5769 -46.7025L-97.7124 -46.6401L-97.852 -46.5702C-97.3326 -45.8298 -96.9911 -44.9795 -96.8542 -44.0852C-96.5571 -43.7695 -96.3224 -43.9861 -96.0179 -43.6117C-95.3797 -42.5104 -94.624 -40.7155 -93.1238 -39.1407C-92.3205 -38.3 -91.0697 -37.9143 -90.3508 -37.1654C-89.9546 -36.7506 -89.6575 -35.7193 -89.4044 -35.0622C-88.6708 -33.1827 -89.1844 -32.8267 -90.8386 -31.8796C-91.4952 -31.7511 -92.2472 -32.0117 -93.0395 -31.6996C-94.2059 -31.2481 -95.6951 -29.3798 -94.8735 -28.664C-94.5764 -28.407 -93.1018 -28.8032 -92.4196 -29.1666C-91.2065 -29.8555 -90.2249 -30.8893 -89.5989 -32.1366C-88.8653 -32.0816 -88.5387 -33.036 -87.6841 -33.0543C-87.1522 -33.0543 -86.8037 -32.6138 -86.1655 -32.5661C-87.1558 -33.6343 -84.6433 -33.7076 -84.4525 -32.7862C-84.6653 -32.0961 -85.9381 -32.7644 -85.5529 -32.2578C-83.4035 -32.0926 -80.7625 -28.8914 -83.1211 -27.6323C-81.089 -27.4451 -78.8955 -26.6448 -78.4664 -24.545C-77.8025 -21.311 -80.3003 -16.6196 -82.5342 -12.4312C-82.9707 -11.6199 -83.4365 -10.7318 -83.873 -10.0344C-84.867 -8.45221 -86.3747 -8.19893 -87.4201 -7.46475C-88.0217 -7.0426 -88.4947 -6.33412 -89.0743 -5.9964C-89.4411 -5.78349 -89.7711 -5.82732 -90.0866 -5.5777C-91.341 -4.58289 -92.3095 -2.50888 -93.5676 -1.75269C-94.1178 -1.42598 -95.0605 -1.2278 -95.7684 -0.893753C-96.8801 -0.39238 -98.0204 0.0426941 -99.1834 0.409332C-99.5906 0.541473 -100.097 0.541641 -100.416 0.662781C-101.3 0.996826 -102.008 1.63928 -102.69 1.82283C-103.607 2.06511 -104.359 1.75668 -105.085 2.02466C-105.54 2.19719 -105.9 2.65221 -106.428 2.87247C-107.319 3.23955 -108.086 3.56259 -108.995 3.97372C-109.436 4.17929 -110.07 4.09122 -110.602 4.27844C-110.877 4.37021 -111.075 4.73366 -111.402 4.85846C-111.956 5.08238 -112.678 5.04941 -113.17 5.37611C-114.142 6.0453 -115.17 6.62872 -116.243 7.11977C-117.08 7.48686 -117.685 8.0192 -118.492 8.46336C-119.152 8.83046 -119.882 8.85616 -120.436 9.19754C-121.39 9.8432 -122.253 10.6136 -123.004 11.4883L-125.278 21.6602C-124.781 22.0875 -124.192 22.3949 -123.557 22.5593C-123.084 21.9426 -122.63 21.2268 -122.068 21.3039C-121.522 21.671 -122.186 22.2217 -122.09 22.6622C-119.416 22.8641 -117.571 20.2175 -115.488 18.3417C-114.996 17.9012 -114.325 17.6367 -113.896 17.1741C-112.645 15.8453 -111.35 13.5033 -110.077 12.9197C-108.284 12.0937 -106.259 11.7341 -104.447 10.7577C-103.314 10.1483 -102.463 8.98836 -101.362 8.33861C-100.702 7.94215 -99.7117 7.9713 -99.0661 7.36928C-98.2335 7.83914 -97.4484 7.9054 -96.7551 7.27034C-95.4566 8.06691 -94.371 7.2298 -93.1899 7.10866C-92.3683 7.71802 -91.7225 7.07207 -90.9119 7.50156C-90.6771 6.70131 -89.7383 6.53604 -89.056 6.87744C-88.6892 8.34578 -87.1669 7.8174 -86.1802 8.93333C-85.0247 10.2365 -85.8832 13.8411 -87.2 15.3498C-88.2392 16.4541 -89.4677 17.3629 -90.8275 18.0331C-91.7299 18.4295 -92.6212 18.3821 -93.4245 18.94C-96.4396 21.0361 -97.5512 24.7143 -94.2903 25.8229C-93.5567 26.0689 -92.9954 25.6538 -92.2251 26.0466C-91.6015 25.3748 -90.4608 25.353 -89.6795 24.7546C-89.0522 24.2774 -88.6561 23.3891 -88.0729 22.9192C-86.3746 21.5206 -84.0382 20.7423 -82.0794 22.0674C-81.6576 22.3501 -81.1439 23.3305 -80.2893 23.9692C-78.1435 25.566 -77.8392 26.7258 -78.0226 28.8109C-78.1069 29.7506 -78.7122 30.973 -78.5031 31.8687C-78.349 32.5368 -77.5457 32.8377 -77.498 33.6783C-75.9134 34.2253 -74.3582 34.4822 -72.7846 34.9191C-72.3774 34.875 -72.6012 34.574 -72.2894 34.2767C-72.1353 34.886 -71.6915 34.6439 -71.4751 34.5595C-71.0643 34.4127 -70.2977 34.6254 -70.1143 34.5814C-69.0542 34.3097 -68.1812 32.97 -67.1028 33.1388C-66.637 33.4325 -66.9671 33.8291 -66.8754 34.1705C-66.0904 33.5979 -65.9033 34.5633 -65.6943 35.0883C-64.7589 35.5581 -63.9006 35.4881 -63.0092 35.6203C-63.0716 36.6004 -62.2756 37.5549 -62.3453 38.5351C-62.4664 40.0034 -64.1133 42.0224 -65.4081 43.3696C-66.0244 44.0083 -67.0258 44.4451 -67.609 45.0985C-68.3242 45.8988 -68.559 47.1835 -69.0102 47.7929C-69.7259 48.6224 -70.5007 49.399 -71.3284 50.1166C-72.8836 51.5849 -73.7713 53.8279 -74.9634 55.0246C-75.1835 55.2485 -75.6493 55.3587 -75.9501 55.634C-77.0505 56.6435 -77.7512 57.9355 -78.5178 58.9596C-80.6599 61.7715 -83.3742 65.0681 -86.0408 67.5496C-86.459 67.9387 -87.4531 68.5995 -87.7428 68.6509C-88.26 68.7133 -88.7478 68.1882 -89.2577 68.1662C-90.0683 68.1295 -91.6016 68.5078 -92.7717 68.7097C-95.2256 69.1281 -96.5828 69.2821 -98.1674 71.2276C-100.735 74.3589 -100.922 76.4917 -100.816 79.3036C-100.728 81.6125 -100.548 83.0114 -99.7152 84.9679C-98.7321 87.2586 -97.8812 88.2351 -95.4199 90.5183C-94.8294 91.069 -94.2462 91.7334 -93.6593 92.3244L-86.2425 93.987C-84.2654 93.3887 -82.5745 91.8213 -80.8982 89.7472C-79.8576 88.3672 -79.1019 86.7935 -78.6754 85.1181C-78.525 84.4868 -78.6753 83.7895 -78.5396 83.1655C-78.0555 81.1429 -77.7657 78.9587 -78.2572 77.0315C-78.7267 75.1961 -80.0912 73.5992 -81.4191 72.017C-81.1403 71.2094 -81.6722 69.9428 -81.1257 68.981C-81.056 68.8599 -80.6341 68.7388 -80.4947 68.614C-79.3099 67.4833 -78.5177 65.769 -77.7144 64.576C-76.6433 63.0049 -74.9524 61.5255 -74.2004 60.2627C-73.503 59.089 -72.6254 58.0325 -71.5998 57.1317C-70.4994 56.1479 -70.2426 55.7038 -69.3293 54.4227C-68.8157 53.7105 -67.9721 53.024 -67.5577 52.3632C-67.1432 51.7024 -66.9707 50.6891 -66.5966 50.0137C-66.1124 49.151 -65.5366 48.0608 -64.9827 47.4918C-64.7516 47.2568 -64.1096 47.0624 -63.6365 46.644C-62.6754 45.8033 -61.9528 44.614 -60.9882 43.8908C-60.0235 43.1676 -58.637 43.2704 -57.3789 42.5619C-56.0657 41.8277 -55.2734 40.9541 -54.2464 40.5247C-53.1834 40.0256 -52.0094 39.8105 -50.8387 39.9005C-49.2798 40.0841 -47.3211 41.1082 -46.7452 42.382C-45.8906 44.2724 -49.3128 45.8842 -49.973 47.4333C-50.0333 47.6909 -50.0653 47.9542 -50.0684 48.2188C-50.1711 49.243 -50.2262 49.7347 -49.5586 50.6708C-48.8874 49.8889 -48.0914 50.1019 -47.2991 50.1937C-46.1804 49.577 -44.46 47.9214 -43.1065 48.1123C-41.1698 48.3876 -40.0327 51.7465 -39.5669 53.0827C-39.3468 53.7177 -38.98 54.2977 -38.8846 54.6428C-38.2977 56.6948 -39.0901 59.0257 -39.3101 61.1769C-39.4055 62.1313 -39.3101 63.3795 -39.3578 64.5688C-39.4825 66.8962 -39.7246 69.2125 -39.842 71.404C-39.9007 72.6338 -40.0877 74.0178 -39.974 74.9025C-39.8089 76.1836 -38.3381 78.3015 -37.8759 79.9571C-37.7402 80.449 -37.9309 80.8639 -37.8136 81.2053C-37.6265 81.7706 -37.1643 82.1155 -37.08 82.4679C-36.8745 83.2571 -37.2597 84.0466 -37.2523 84.9056C-37.2523 88.3011 -36.6728 91.8395 -36.3463 95.0442C-36.2216 96.2739 -36.5041 97.6578 -35.5284 98.425C-34.3326 97.1549 -34.5087 95.3455 -34.2629 93.9139C-33.9988 92.3648 -33.687 90.7973 -33.5293 89.1747C-33.3716 87.5522 -33.7421 85.9515 -33.456 84.4281C-33.2322 83.2277 -32.1648 82.079 -31.798 80.7318C-31.6586 80.2252 -31.853 79.7113 -31.6916 79.2634C-31.5853 78.955 -31.2295 78.6281 -31.1378 78.3235C-30.6096 76.5725 -31.3101 75.0197 -31.5559 73.5513C-31.8493 71.7489 -31.7356 69.8805 -31.9631 68.0891C-32.1391 66.6208 -32.7774 65.2149 -32.9021 63.7576C-32.9461 63.2216 -32.858 62.5132 -32.847 61.9221C-32.8143 60.6793 -32.7139 59.4391 -32.5462 58.2072C-32.4655 57.5758 -32.1464 56.9517 -32.1097 56.313C-32.0877 55.8725 -32.3115 55.476 -32.2821 54.9805C-32.0852 53.1421 -31.6639 51.3348 -31.0277 49.5989C-30.616 48.4234 -30.0419 47.3114 -29.3221 46.2952C-27.2753 43.4869 -23.1524 43.1714 -19.8878 44.3314C-18.8204 44.6985 -17.4634 45.6933 -16.1172 46.5633C-13.8944 47.9949 -11.9686 48.9712 -10.142 50.8396C-9.27997 51.7243 -9.63203 53.5123 -9.25423 54.7898C-9.0965 55.3147 -8.73706 55.9644 -8.54266 56.537C-8.34824 57.1097 -8.25658 57.8732 -8.02549 58.3101C-7.29189 59.705 -6.0264 60.3105 -4.97734 61.6981C-4.65088 62.1349 -4.52617 62.8434 -4.05666 63.6106C-3.32305 63.3867 -3.35604 64.3448 -2.65912 64.6936L-2.62984 64.547L-2.4904 64.4771L-2.32536 64.2677C-2.18597 64.3668 -2.07223 64.2456 -1.92184 64.4072C-1.99887 64.5797 -1.92188 64.7303 -2.14563 64.9212L-2.12727 65.0789L-2.20428 65.2148C-0.37027 66.7639 1.72415 67.3257 2.90526 65.0571C3.2097 64.4808 2.87227 63.6365 3.02266 62.9134C3.70491 59.6353 7.26288 57.7741 9.41602 60.652C9.89285 60.1418 9.20329 59.7748 9.62878 59.2719C10.975 59.3673 12.2514 60.8502 13.1758 62.0175C13.3481 62.3846 12.5962 62.5938 12.7832 62.7517C13.946 63.5703 15.615 65.1634 15.9635 66.4225C16.9025 67.3403 18.1276 68.0598 18.8318 69.1574C19.4187 70.0715 19.6535 71.5691 19.9726 72.7842C20.2917 73.9992 20.3981 75.4492 20.8419 76.5468C21.1684 77.3581 21.6489 78.0334 21.9204 78.9218C22.4522 80.6691 23.1528 82.266 23.7213 83.9215C24.0111 84.7768 24.1871 85.8598 24.5246 86.4288C24.774 86.8509 25.3573 87.1922 25.6507 87.6401C26.1386 88.3743 26.4761 89.4756 27.5141 90.1143C28.4458 89.8867 29.205 90.555 29.9607 90.2907C31.3692 89.7951 32.5833 87.6218 32.631 86.1828C32.6493 85.6873 32.3779 85.0815 32.2201 84.4904C32.1191 83.9198 31.9831 83.356 31.813 82.802C31.6296 82.4129 31.1894 82.1963 31.0097 81.8366C30.7969 81.4181 30.8776 80.8013 30.7346 80.4195C30.2504 79.1714 29.5279 78.2869 28.985 77.3545C28.9043 76.323 28.8272 75.0345 28.2733 74.0507C28.1229 73.7864 27.7048 73.7351 27.5215 73.4671C27.3381 73.1991 27.4517 72.8282 27.2096 72.5419C26.9675 72.2555 26.5237 72.1344 26.2412 71.8077C25.3609 70.7468 25.1078 69.3117 24.4439 68.3573C24.1945 67.9902 23.6773 67.7991 23.4536 67.4173C22.8887 66.4629 22.819 65.0019 22.3935 63.6841C22.122 62.8361 21.4691 61.9663 21.3958 61.1991C21.2821 59.9987 21.7626 58.6845 21.7002 57.4841C21.7002 57.117 21.3995 56.6986 21.3628 56.3646C21.2234 55.1238 21.5316 53.8684 21.4692 52.6937C21.4032 51.3318 20.8126 49.8008 20.3688 48.5748C19.8736 47.2239 19.3087 45.9354 18.8795 44.5074C17.4123 42.8885 16.3999 41.2037 16.4843 39.394C15.5636 37.6687 14.819 33.2638 17.0235 30.7162C17.6141 30.0261 19.6719 28.6566 20.7209 28.6015C21.165 28.6619 21.6013 28.769 22.023 28.9209C22.6355 29.3284 22.3898 30.0919 23.1711 30.3269C23.2721 31.369 23.2102 32.4205 22.9877 33.4435C22.8043 34.4751 22.2541 35.6682 22.2321 36.6337C22.1954 38.2011 22.9987 39.5704 23.2812 41.0387C23.681 41.6004 24.3486 42.1398 24.5613 42.7125C26.2523 43.0539 28.7612 42.6097 29.6452 40.8147C29.9093 40.2787 29.5609 39.2729 29.6269 38.3992C29.7149 37.3383 29.6118 36.2704 29.3224 35.246C29.128 34.4311 28.6915 33.7997 28.4567 33.0435C28.31 32.5479 28.4568 31.8174 28.3247 31.208C28.1633 30.4739 27.7855 29.9269 27.8038 29.435C27.8038 29.0349 28.145 28.4696 28.2917 27.919C28.6585 26.4983 28.5851 26.4506 29.7369 25.61C31.1601 24.5748 32.2019 23.7085 33.6544 23.6645C34.267 22.5082 35.7085 21.8657 36.4604 21.3738C37.139 20.9369 37.6158 20.2247 38.2944 19.6961C39.5636 18.6866 41.1371 18.059 42.3806 17.5341C42.542 15.5665 44.6071 15.673 45.6268 14.8985C46.1953 14.4653 46.5255 13.5106 47.1234 12.9673C47.5415 12.6003 48.1137 12.4609 48.4695 12.1195C48.9684 11.6387 49.2032 10.8017 49.7974 10.4053C48.3705 8.0706 50.8685 4.71161 53.5424 5.57794C54.4338 6.40755 55.0573 7.36186 56.2531 7.84642C56.8693 8.09604 57.6286 7.92357 58.2302 8.18053C58.553 8.31267 58.7987 8.67996 59.0921 8.84515C60.6327 9.69679 62.0889 9.12418 63.5158 9.3481C63.5158 8.67267 63.4351 8.00449 64.1173 7.24094C64.5391 7.41347 64.1173 7.69247 64.3007 7.89804C65.3094 6.74171 65.768 5.43495 66.1972 4.56128C66.5823 3.78673 67.3746 3.09283 67.6644 2.43942C68.0825 1.53639 67.7487 0.431305 68.7648 0.365234C69.7551 1.037 70.7418 1.37108 71.4864 1.95474C71.8936 2.27779 72.1027 2.96812 72.5282 3.27647C73.1774 3.75369 74.3182 3.75372 74.4649 4.77422C74.8317 5.03117 75.0701 4.46585 75.4663 5.03484C75.5286 5.61484 74.8977 5.03487 74.6446 5.43132C75.1545 6.63904 75.536 7.5381 76.7501 8.2576C77.1572 8.49988 77.6194 8.35675 78.0486 8.57701C78.3958 8.75418 78.7097 8.9903 78.9765 9.27461L87.4424 -28.5941C86.496 -28.8217 85.381 -29.5634 84.2806 -29.8423C82.5749 -30.2718 80.6125 -30.6609 79.1049 -30.9436C78.1405 -30.3608 76.9974 -30.1479 75.8881 -30.3449C74.7693 -29.9265 73.823 -29.0897 72.7079 -28.6859C72.4621 -28.5941 72.2054 -28.5796 71.8642 -28.4805C71.0976 -28.2639 70.5694 -27.8562 69.8395 -27.647C69.483 -27.5557 69.1105 -27.5454 68.7495 -27.6165C68.3884 -27.6876 68.0478 -27.8385 67.7524 -28.0582C66.5566 -26.2411 64.9133 -25.2171 63.4938 -25.0078C62.0742 -24.7986 62.5365 -24.8754 61.4397 -25.9069C60.343 -26.9384 60.2659 -27.3386 59.492 -28.2747C58.8941 -29.0089 57.9331 -29.5742 57.4012 -30.2313C56.9977 -30.7305 56.9353 -31.586 56.6089 -31.876C56.1394 -32.2871 55.3691 -32.2429 54.8776 -32.5256C54.6208 -33.2598 53.7038 -33.9499 53.3113 -34.941C53.1573 -35.3081 53.293 -35.8258 53.1426 -36.2699C52.6951 -37.5951 51.7781 -39.4233 52.8822 -40.5943C53.5131 -41.2698 54.2027 -40.6971 54.8812 -41.6185C55.061 -42.0884 54.5144 -42.4626 54.6025 -43.0352C54.6391 -43.2738 54.9363 -43.3731 54.9106 -43.6558C54.8703 -44.1183 54.5071 -44.4191 54.5438 -44.966C54.6649 -46.4344 55.9853 -47.9872 56.4622 -49.6575C56.8877 -51.1258 56.7483 -52.4621 57.3132 -53.6331C57.2875 -53.9304 57.823 -54.0992 58.0468 -54.5985C57.2435 -55.9053 58.3035 -57.3111 58.4906 -58.7171C58.5896 -59.4512 58.1237 -60.0976 58.5199 -60.7547C57.0233 -62.7223 57.2581 -64.9135 58.564 -67.2371C58.3506 -68.2757 58.2473 -69.3341 58.2558 -70.3943C58.2558 -71.4258 58.7473 -72.7474 58.5236 -73.6174C58.4355 -73.9845 57.8414 -74.524 57.5663 -75.0453C57.2912 -75.5665 57.1994 -76.2346 56.8803 -76.6054C56.2311 -77.3836 55.1527 -77.9342 54.3604 -78.8997C54.3788 -79.4173 54.0743 -79.8945 53.5938 -80.368C53.7075 -80.6397 53.5644 -80.8782 53.8799 -81.1793C52.8712 -81.3187 53.1756 -82.3025 52.7795 -82.8788C52.4347 -83.3891 51.9028 -83.4294 51.657 -84.0901C51.2902 -84.4205 51.0335 -83.8921 50.6777 -84.16C50.6777 -84.4831 50.3109 -84.762 50.5566 -85.1107C49.7717 -85.0483 49.4049 -85.9073 48.6713 -86.212C48.0954 -86.4653 47.4168 -86.2854 46.8812 -86.5791C44.9445 -87.6143 43.9468 -89.424 43.2132 -90.9547C43.613 -91.2924 43.481 -91.568 43.7708 -91.8947C43.4736 -92.2067 43.2756 -91.7549 42.9601 -92.1807C43.6937 -93.282 42.7914 -94.3834 41.4746 -94.6991C41.2215 -93.6602 39.9487 -94.0347 39.2738 -93.8402C38.9693 -93.3519 39.2481 -92.9332 38.6796 -92.412C37.3848 -93.4435 36.5411 -90.9438 35.2023 -92.3571C33.9001 -91.4064 33.0235 -90.3014 31.5343 -89.8646C31.0647 -90.1803 31.2225 -90.3307 30.8007 -90.4482C29.6306 -90.0187 28.3137 -89.5233 27.1326 -89.6922C25.7461 -89.8867 25.6653 -90.749 25.6947 -91.8319C25.7387 -92.8157 26.3366 -93.9761 25.7974 -94.8461C24.697 -96.5824 22.7713 -96.0058 21.3958 -96.707C20.7465 -97.0373 20.8786 -97.5368 19.7819 -97.9516C19.4151 -98.2306 20.0459 -98.6306 19.6645 -98.9059C18.7401 -100.029 18.8905 -101.259 18.6888 -102.749C18.5788 -103.553 18.6154 -104.654 18.3696 -105.223C18.1569 -105.723 17.5114 -106.009 17.3316 -106.541C16.5614 -108.843 20.1413 -112.007 17.9918 -114.268C15.1968 -117.205 12.5302 -112.965 9.80852 -112.363C9.11526 -112.774 8.52467 -112.363 7.93411 -112.609C7.34357 -112.855 7.2299 -113.344 6.70538 -113.905C6.24321 -114.239 5.87636 -113.828 5.38118 -114.419C4.69159 -116.405 2.81355 -117.965 2.17165 -119.815C2.03593 -120.201 2.17166 -120.714 1.99927 -121.148C1.68748 -121.988 0.898834 -122.814 0.601723 -123.776C0.499016 -124.092 0.741081 -124.459 0.667725 -124.753C0.401505 -125.476 0.08535 -126.18 -0.278564 -126.86C-0.77375 -127.697 -2.21162 -128.985 -2.57476 -129.664C-3.33404 -131.081 -2.48311 -133.438 -1.62112 -135.104C-0.843506 -136.609 0.444 -137.861 1.1556 -139.142C1.8672 -140.424 1.91485 -142.038 2.49439 -143.085C2.6081 -143.294 2.9713 -143.452 3.09967 -143.646C3.99467 -145.005 3.77821 -146.348 4.32841 -147.684C4.87862 -149.021 5.70396 -149.777 6.38254 -150.555C6.95605 -151.268 7.3746 -152.093 7.61137 -152.978L3.75993 -153.841C3.5692 -153.242 3.45915 -152.666 3.30144 -152.174ZM-41.8153 -146.763C-41.8887 -146.851 -41.8411 -146.954 -41.9474 -147.035C-41.8961 -147.108 -41.8374 -147.178 -41.7824 -147.251L-41.4632 -147.001C-41.5733 -146.803 -41.7127 -146.895 -41.8227 -146.763H-41.8153ZM-103.882 -41.8899C-104.696 -43.5491 -103.673 -46.4052 -102.107 -47.7267C-101.945 -45.8766 -102.708 -43.9199 -103.89 -41.8899H-103.882ZM-81.8264 80.6988C-81.2541 81.3815 -81.6062 82.6478 -82.3801 83.1838C-82.978 82.5047 -82.6992 81.2567 -81.8335 80.6988H-81.8264ZM-89.8226 86.3517C-90.4315 85.8451 -89.8225 84.9018 -89.276 84.5421C-88.2196 85.0119 -89.078 86.5132 -89.8299 86.3517H-89.8226ZM-17.698 -107.338C-18.3179 -107.363 -17.6064 -108.38 -17.4047 -108.828C-17.0856 -108.388 -17.8191 -107.793 -17.7054 -107.338H-17.698ZM-45.4578 39.3427L-46.316 38.6745C-46.3031 38.2363 -46.1544 37.8131 -45.8906 37.4632C-45.322 37.4889 -44.6801 37.9955 -44.3023 38.5168C-44.4312 38.7252 -44.6005 38.9055 -44.8002 39.0473C-44.9999 39.1892 -45.226 39.2897 -45.4651 39.3427H-45.4578ZM79.4938 4.3996C79.7835 4.81441 79.1966 5.33926 79.281 5.77977C79.1673 5.89355 79.0169 5.71748 78.8775 5.63673C79.1049 5.22192 79.1049 4.83276 79.4717 4.3996H79.4938ZM65.2251 0.394638C65.4635 1.9474 64.7813 3.61417 64.2018 5.26605C63.4278 4.21619 63.9266 1.7088 65.2177 0.394638H65.2251ZM14.0194 -47.1137C14.2211 -46.7466 13.935 -46.3281 13.7809 -45.9207C13.3628 -46.2584 13.9497 -46.7172 14.0121 -47.1137H14.0194ZM11.7782 -46.4419L11.5288 -46.1225L11.206 -46.3684C11.2276 -46.4223 11.2632 -46.4694 11.309 -46.505C11.3549 -46.5406 11.4094 -46.5635 11.4669 -46.5709C11.5245 -46.5784 11.583 -46.5703 11.6364 -46.5476C11.6899 -46.525 11.7362 -46.4885 11.7709 -46.4419H11.7782ZM7.00977 -46.519C7.08313 -46.4272 7.14182 -46.4824 7.2005 -46.5448L7.41328 -46.3759C7.32158 -46.3025 7.37663 -46.2436 7.43898 -46.1849L7.27385 -45.9755C7.19682 -46.0636 7.13812 -46.0085 7.07944 -45.9461L6.86674 -46.1153C6.95479 -46.1887 6.90341 -46.2473 6.84105 -46.306C6.90707 -46.3758 6.95842 -46.4492 7.01711 -46.519H7.00977ZM-13.9237 42.1253C-14.0998 43.656 -15.4129 43.0721 -16.451 42.059C-16.4766 41.6919 -16.0842 41.2406 -16.2162 40.8699C-15.4496 40.6496 -14.2612 41.3507 -13.9164 42.1253H-13.9237ZM-32.2639 47.8334C-31.6366 49.3018 -32.6636 51.4747 -32.9387 52.8145C-32.9327 52.8379 -32.9322 52.8626 -32.9373 52.8862C-32.9424 52.9098 -32.9529 52.9316 -32.9681 52.9504C-32.9681 52.9063 -32.9681 52.8586 -32.9387 52.8145C-32.9607 52.6053 -33.1809 52.2897 -33.1699 52.1062C-33.1699 51.9814 -32.8691 52.1539 -32.8727 52.165C-32.6196 51.1555 -33.5293 49.2136 -32.2711 47.8517L-32.2639 47.8334ZM-41.1881 44.7056C-40.7406 44.8929 -40.7626 45.3775 -40.2528 45.9392C-39.3321 46.9633 -37.9053 47.4368 -38.6646 48.5453C-39.4569 48.1085 -40.0401 47.9361 -40.5719 47.2387C-40.8214 46.912 -40.814 46.332 -41.1001 46.1374C-42.0244 45.5317 -42.758 46.5963 -43.9281 46.0127C-43.3889 45.3005 -42.1932 44.2835 -41.2065 44.7056H-41.1881Z" fill="#FFE600"/>
<path d="M36.7771 83.1552H36.9167C36.8482 83.1514 36.7795 83.1514 36.7109 83.1552H36.7771Z" fill="#E96262"/>
<path d="M115.056 56.9285C114.385 63.9031 88.2612 59.696 75.269 73.6747C70.4051 78.9056 62.5371 92.5798 61.312 95.9386C60.921 97.1011 60.1964 98.1226 59.2286 98.8753C58.2418 99.569 57.0706 99.9524 55.8649 99.9766C55.3101 99.9716 54.7586 99.8912 54.2253 99.7378C51.4926 98.8605 50.4913 93.1302 50.4143 92.6567C49.0754 84.5441 51.2395 77.698 50.8397 72.8781C49.6769 58.9288 26.8764 61.2635 7.92358 38.739C4.25552 34.3854 -0.821014 27.2605 -7.72794 27.2898C-10.2626 27.2898 -13.3254 28.2772 -19.9462 28.3029C-22.8807 28.3029 -24.8944 27.9836 -25.8628 28.0681C-32.1718 28.6224 -36.0636 31.8159 -48.7697 32.7409C-67.2677 34.0918 -72.7771 28.3358 -79.8455 33.5522C-79.8455 33.5522 -88.172 39.7707 -94.6314 42.2963C-98.5489 43.8307 -98.3948 42.777 -100.805 44.0618C-105.133 46.3671 -110.547 58.7894 -110.547 58.7894C-115.568 70.2388 -119.16 71.0283 -117.971 73.9062C-115.932 78.8436 -105.79 75.5396 -97.8189 83.6853C-96.5424 84.9848 -93.4978 88.0904 -94.4148 90.9794C-95.0421 92.9506 -97.474 94.6502 -99.7629 94.7273C-100.427 94.7389 -101.087 94.6227 -101.707 94.3857C-103.072 93.9158 -110.294 91.4713 -111.864 93.1195C-113.206 94.5438 -109.535 98.0053 -108.621 105.927C-107.987 111.551 -109.443 113.203 -110.239 113.805C-110.786 114.198 -111.412 114.47 -112.073 114.601C-112.177 114.719 -112.308 114.811 -112.455 114.868C-112.602 114.925 -112.76 114.947 -112.916 114.932C-114.798 114.932 -116.53 113.83 -117.146 113.302C-121.481 109.631 -130.798 94.6833 -139.521 89.5698C-149.901 83.4872 -159.743 91.1188 -164.929 84.2983C-167.284 81.2001 -167.981 76.0352 -165.817 72.948C-161.848 67.2912 -152.418 73.6821 -140.313 68.8842C-135.545 67.0048 -131.033 60.9295 -121.973 48.7715C-119.314 45.2035 -115.917 40.248 -117.516 37.8877C-117.706 37.6208 -117.945 37.3928 -118.221 37.2159C-121.61 34.683 -122.919 29.5841 -123.18 28.7729C-125.054 22.9325 -144.051 16.0677 -149.626 13.8248C-153.1 12.4299 -181.905 -0.307709 -194.648 -23.9664C-196.306 -27.0536 -200.517 -35.5628 -204.236 -34.9461C-207.013 -34.4872 -206.943 -29.381 -211.345 -27.4391C-214.646 -25.9707 -219.249 -26.8113 -221.956 -29.2745C-226.985 -33.8411 -223.915 -41.9904 -226.964 -43.2238C-230.125 -44.4976 -233.412 -35.7206 -241.727 -33.3125C-251.008 -30.6254 -260.383 -37.6477 -261.872 -38.8188C-271.824 -46.5569 -274.098 -59.7613 -274.883 -64.3058C-276.522 -73.8501 -274.516 -78.468 -278.705 -83.8861C-281.779 -87.825 -284.471 -87.4467 -289.76 -90.8386C-290.494 -91.2938 -306.927 -102.134 -306.769 -118.227C-306.666 -129.919 -297.871 -138.072 -296.304 -139.518C-288.055 -147.157 -282.527 -144.14 -278.819 -149.4C-270.686 -160.919 -293.825 -180.305 -287.123 -198.179C-283.063 -209.008 -269.663 -214.228 -261.131 -215.402C-238.859 -218.471 -215.816 -198.516 -206.342 -178.022C-196.071 -155.795 -205.351 -140.711 -192.462 -130.073C-180.805 -120.448 -161.738 -123.311 -161.023 -126.075C-160.542 -127.933 -168.447 -129.475 -171.521 -137.088C-173.685 -142.444 -172.177 -147.631 -171.77 -148.952C-169.592 -156.081 -163.613 -160.079 -161.133 -161.697C-139.836 -175.518 -85.3732 -176.12 -62.4625 -199.775C-36.7495 -226.308 -44.4891 -288.262 -26.6331 -302.846C-25.584 -303.705 -20.8302 -307.343 -21.4574 -311.109C-22.2424 -315.811 -30.5469 -315.54 -36.3718 -320.866C-46.1985 -329.849 -46.2755 -352.285 -36.7386 -360.027C-28.3021 -366.866 -16.0471 -359.172 -12.5551 -364.476C-7.4198 -372.284 -33.3933 -389.886 -28.7752 -405.88C-25.9545 -415.655 -11.9865 -423.739 -0.46521 -420.516C9.31381 -417.784 15.8209 -407.528 16.4078 -399.184C16.7526 -394.262 15.0763 -389.478 16.1583 -389.093C17.2404 -388.707 18.8433 -393.733 22.7608 -396.952C28.6077 -401.754 38.185 -401.39 43.4376 -399.184C61.8659 -391.457 69.7486 -349.973 54.5739 -332.007C49.6624 -326.167 42.4033 -322.944 43.2579 -318.165C44.0319 -313.793 50.5133 -314.171 58.5207 -309.16C75.1406 -298.779 72.5692 -281.371 88.5179 -275.021C89.0681 -274.8 89.721 -274.595 89.721 -274.595C92.4612 -273.66 95.2729 -272.951 98.1282 -272.473C101.756 -271.838 117.936 -269.012 119.172 -262.9C119.759 -259.963 116.604 -256.901 110.266 -250.786C103.696 -244.453 102.042 -244.953 100.072 -241.976C95.7806 -235.471 99.5514 -226.848 104.023 -213.06C107.298 -202.947 109.235 -192.43 112.437 -182.291C120.39 -157.113 122.392 -91.6463 88.8701 -50.6537C76.6298 -35.6949 58.1575 -13.1119 43.4743 -3.4906C41.0974 -1.93048 35.6944 1.33664 32.1878 7.87079C31.2597 9.60712 26.0401 18.0318 27.5147 27.2787C30.1924 44.0803 53.5247 56.209 65.1414 50.9192C75.3496 46.2682 77.1543 32.3593 84.9783 33.0714C89.0645 33.4385 93.7816 37.884 93.5432 40.5637C93.3121 43.1333 92.9232 43.9593 92.9232 43.9593C92.5748 45.3909 92.3217 45.9305 92.3951 46.4518C92.4289 46.5943 92.4731 46.734 92.5271 46.8702C93.147 48.3569 100.751 47.2078 105.615 48.511C110.097 49.726 115.361 53.8229 115.056 56.9285Z" fill="#E9AD62"/>
<path d="M36.7771 83.1552H36.9167C36.8482 83.1514 36.7795 83.1514 36.7109 83.1552H36.7771Z" fill="#E96262"/>
</g>
<path d="M65.5546 128.207C100.103 128.207 128.109 100.179 128.109 65.6039C128.109 31.0293 100.103 3.00098 65.5546 3.00098C31.0066 3.00098 3 31.0293 3 65.6039C3 100.179 31.0066 128.207 65.5546 128.207Z" stroke="white" stroke-width="5.56471"/>
</svg>
