<svg width="131" height="131" viewBox="0 0 131 131" fill="none" xmlns="http://www.w3.org/2000/svg">
<mask id="mask0_2_8748" style="mask-type:alpha" maskUnits="userSpaceOnUse" x="3" y="3" width="126" height="126">
<path d="M128.206 65.5956C128.207 69.3316 127.876 73.0602 127.216 76.7374C127.194 76.8585 127.175 76.9796 127.15 77.1045C126.256 81.929 124.793 86.6304 122.792 91.1098C122.451 91.8807 122.092 92.6404 121.717 93.3967C121.228 94.3756 120.71 95.3546 120.162 96.3335C119.744 97.0678 119.31 97.802 118.86 98.5362C116.302 102.665 113.275 106.484 109.84 109.917C108.916 110.838 107.969 111.726 106.99 112.589C103.2 115.933 99.0195 118.806 94.5404 121.146C93.2419 121.822 91.9177 122.454 90.5678 123.044C82.7047 126.46 74.2225 128.218 65.6505 128.206C56.8405 128.219 48.128 126.362 40.0875 122.758L39.629 122.545C36.397 121.067 33.2983 119.313 30.367 117.303C28.3303 115.908 26.3777 114.395 24.5199 112.769C24.4962 112.752 24.4742 112.732 24.454 112.71C24.2376 112.527 24.0247 112.343 23.8157 112.141C18.4048 107.274 13.8829 101.499 10.4529 95.0781C9.42147 93.1501 8.49332 91.1686 7.67243 89.1419C7.10388 87.7506 6.59026 86.3299 6.12441 84.8908L5.95946 84.3807L5.67324 83.4482C5.48984 82.8241 5.30646 82.1964 5.1524 81.565C3.78342 76.3551 3.09296 70.9899 3.09823 65.6029C3.07609 52.2058 7.36994 39.1584 15.3425 28.3965C15.8634 27.6868 16.4 26.9894 16.9527 26.3041C17.7523 25.3251 18.5801 24.3609 19.436 23.4113L19.5314 23.3122C19.7332 23.0883 19.9421 22.868 20.1476 22.6477L20.1807 22.6145C26.0216 16.4093 33.0708 11.4675 40.8937 8.09406C48.7165 4.72056 57.147 2.98701 65.6652 3.00007C74.1559 2.99033 82.5591 4.71502 90.3606 8.06878C98.162 11.4225 105.197 16.3348 111.036 22.5045C113.179 24.7628 115.15 27.1778 116.934 29.7292V29.7292C124.292 40.238 128.229 52.7637 128.206 65.5956V65.5956Z" fill="#E96262"/>
</mask>
<g mask="url(#mask0_2_8748)">
<path d="M65.6501 128.199C100.197 128.199 128.202 100.17 128.202 65.5956C128.202 31.021 100.197 2.99268 65.6501 2.99268C31.1035 2.99268 3.0979 31.021 3.0979 65.5956C3.0979 100.17 31.1035 128.199 65.6501 128.199Z" fill="#FFE600"/>
<path d="M128.206 65.5956C128.207 69.3316 127.876 73.0602 127.216 76.7374C127.194 76.8585 127.175 76.9796 127.15 77.1045C126.256 81.929 124.793 86.6304 122.792 91.1098C122.451 91.8807 122.092 92.6404 121.717 93.3967C121.228 94.3756 120.71 95.3546 120.162 96.3335C119.744 97.0678 119.31 97.802 118.86 98.5362C116.302 102.665 113.275 106.484 109.84 109.917C108.916 110.838 107.969 111.726 106.99 112.589C103.2 115.933 99.0195 118.806 94.5404 121.146C93.2419 121.822 91.9177 122.454 90.5678 123.044C82.7047 126.46 74.2225 128.218 65.6505 128.206C56.8405 128.219 48.128 126.362 40.0875 122.758L39.629 122.545C36.397 121.067 33.2983 119.313 30.367 117.303C28.3303 115.908 26.3777 114.395 24.5199 112.769C24.4962 112.752 24.4742 112.732 24.454 112.71C24.2376 112.527 24.0247 112.343 23.8157 112.141C18.4048 107.274 13.8829 101.499 10.4529 95.0781C9.42147 93.1501 8.49332 91.1686 7.67243 89.1419C7.10388 87.7506 6.59026 86.3299 6.12441 84.8908L5.95946 84.3807L5.67324 83.4482C5.48984 82.8241 5.30646 82.1964 5.1524 81.565C3.78342 76.3551 3.09296 70.9899 3.09823 65.6029C3.07609 52.2058 7.36994 39.1584 15.3425 28.3965C15.8634 27.6868 16.4 26.9894 16.9527 26.3041C17.7523 25.3251 18.5801 24.3609 19.436 23.4113L19.5314 23.3122C19.7332 23.0883 19.9421 22.868 20.1476 22.6477L20.1807 22.6145C26.0216 16.4093 33.0708 11.4675 40.8937 8.09406C48.7165 4.72056 57.147 2.98701 65.6652 3.00007C74.1559 2.99033 82.5591 4.71502 90.3606 8.06878C98.162 11.4225 105.197 16.3348 111.036 22.5045C113.179 24.7628 115.15 27.1778 116.934 29.7292V29.7292C124.292 40.238 128.229 52.7637 128.206 65.5956V65.5956Z" fill="#E96262"/>
<path d="M130.532 123.474C130.015 123.815 129.483 124.238 129.083 124.032C128.764 123.602 129.409 123.371 129.45 123.011C127.48 122.163 125.396 123.683 123.32 124.557C122.836 124.762 122.256 124.788 121.813 125.027C120.521 125.706 118.93 127.141 117.818 127.251C116.248 127.409 114.62 127.156 112.995 127.42C111.982 127.589 111.036 128.243 110.034 128.448C109.433 128.577 108.685 128.302 108.046 128.584C107.536 128.012 106.946 127.758 106.271 128.055C105.497 127.116 104.437 127.464 103.531 127.248C103.069 126.576 102.401 126.881 101.91 126.359C101.524 126.903 100.769 126.785 100.343 126.359C100.446 125.141 99.1585 125.159 98.7 124.054C98.1681 122.769 99.7527 120.266 101.139 119.469C102.212 118.898 103.379 118.525 104.584 118.368C105.369 118.302 106.033 118.57 106.785 118.368C109.613 117.567 111.406 115.064 109.228 113.386C108.74 113.019 108.204 113.177 107.724 112.681C107.078 113.026 106.209 112.747 105.464 112.993C104.866 113.191 104.334 113.76 103.769 113.969C102.119 114.586 100.156 114.571 99.0007 113.055C98.7549 112.732 98.634 111.855 98.1424 111.15C96.932 109.384 97.0053 108.426 97.6839 106.899C97.992 106.209 98.7844 105.431 98.8431 104.696C98.9018 104.149 98.3699 103.712 98.5533 103.066C97.4969 102.237 96.3853 101.638 95.3106 100.901C94.9915 100.823 95.0795 101.114 94.7677 101.268C94.8117 100.765 94.4009 100.838 94.2248 100.838C93.8764 100.838 93.3519 100.471 93.2052 100.471C92.3285 100.405 91.3234 101.205 90.5458 100.779C90.2744 100.438 90.6265 100.221 90.6448 99.9387C89.9112 100.17 90.0102 99.3918 89.9918 98.9403C89.4049 98.3419 88.7374 98.1694 88.0954 97.839C88.3999 97.1047 88.0368 96.1795 88.3523 95.4599C88.8255 94.3806 90.5972 93.2794 91.9287 92.5966C92.5596 92.2735 93.4289 92.2074 94.0414 91.8623C94.775 91.4438 95.3034 90.5335 95.8022 90.1921C96.558 89.7497 97.345 89.3631 98.1571 89.0355C99.7197 88.3234 100.974 86.8659 102.192 86.2675C102.416 86.1574 102.797 86.1942 103.098 86.0657C104.199 85.5885 105.057 84.7918 105.912 84.2302C108.428 82.5053 111.079 80.9855 113.838 79.6854C114.337 79.4747 114.868 79.3506 115.408 79.3183C115.815 79.4027 116.046 79.9274 116.428 80.078C117.033 80.3166 118.291 80.4451 119.227 80.5809C121.193 80.904 122.26 81.1392 123.962 80.0819C126.71 78.3749 127.414 76.8144 128.067 74.6631C128.599 72.8937 128.826 71.7887 128.698 70.089C128.551 68.1029 128.158 67.1522 126.893 64.7697C126.589 64.2006 126.321 63.5472 126.027 62.9341L120.852 59.7477C119.201 59.6853 117.514 60.4342 115.716 61.5612C114.568 62.3366 113.587 63.3354 112.833 64.4981C112.551 64.935 112.492 65.5075 112.221 65.9407C111.329 67.3431 110.544 68.9218 110.412 70.5077C110.288 72.0202 110.907 73.5804 111.513 75.1259C111.095 75.6619 111.168 76.7596 110.504 77.3286C110.42 77.4057 110.067 77.3834 109.928 77.4458C108.74 77.9965 107.694 79.0868 106.781 79.7696C105.559 80.6801 103.898 81.3594 102.999 82.1193C102.165 82.826 101.226 83.3969 100.215 83.8114C99.3438 84.1863 98.529 84.6805 97.7939 85.2799C97.2217 85.6837 96.4037 85.9847 95.9195 86.3812C95.4353 86.7777 95.0428 87.4826 94.5843 87.9048C94.0135 88.4676 93.384 88.9675 92.7064 89.3955C92.4716 89.513 91.936 89.4943 91.4702 89.6852C90.5238 90.0706 89.6655 90.7868 88.7485 91.0804C87.8314 91.3741 86.808 90.9372 85.6709 91.1428C84.5338 91.3484 83.6608 91.811 82.7731 91.877C81.8393 91.9775 80.8953 91.8346 80.033 91.4623C78.8995 90.9189 77.6854 89.6267 77.579 88.5254C77.425 86.8734 80.4291 86.5429 81.3388 85.548C81.4498 85.367 81.542 85.1753 81.6139 84.9755C81.9587 84.2413 82.1275 83.8741 81.8634 82.9894C81.1518 83.4042 80.6016 83.0334 80.0294 82.7617C79.0243 82.9343 77.2893 83.742 76.3172 83.2464C74.9233 82.5306 74.9381 79.6962 74.9308 78.5618C74.9308 78.0222 74.8059 77.4898 74.8206 77.2035C74.9123 75.5001 76.1155 73.9439 76.8418 72.3726C77.1646 71.6751 77.3993 70.7096 77.7624 69.8029C78.4594 68.0775 79.2553 66.3924 79.9045 64.7587C80.2714 63.8446 80.7702 62.846 80.9133 62.1485C81.1224 61.1316 80.5465 59.1493 80.6382 57.7763C80.6638 57.3688 80.917 57.1045 80.917 56.8145C80.917 56.3409 80.6639 55.9591 80.6822 55.669C80.7299 55.0156 81.2252 54.5201 81.449 53.8667C82.3183 51.2969 82.8097 48.4702 83.3966 45.9591C83.6203 45.001 84.1964 44.0245 83.6572 43.1911C82.421 43.8409 82.0872 45.2542 81.526 46.2748C80.9208 47.3761 80.2787 48.4774 79.7285 49.6632C79.1783 50.849 79.0499 52.1595 78.4373 53.2352C77.9568 54.0868 76.8527 54.6779 76.2364 55.5993C76.0017 55.9664 76.0127 56.3886 75.7779 56.6786C75.6165 56.8842 75.2646 57.0458 75.1142 57.2477C74.2595 58.4298 74.3804 59.7771 74.186 60.9738C73.9403 62.4166 73.3717 63.7968 73.0856 65.2138C72.8398 66.3592 72.9536 67.6002 72.6711 68.7345C72.5648 69.153 72.3044 69.6669 72.1503 70.1148C71.7993 71.0466 71.4001 71.9595 70.9544 72.8498C70.7307 73.305 70.3273 73.6941 70.1328 74.1677C70.0008 74.4944 70.0704 74.8542 69.9163 75.2213C69.2884 76.5601 68.5001 77.8176 67.5688 78.9659C66.9509 79.7499 66.2261 80.4429 65.4155 81.0251C63.1413 82.6184 59.9392 81.7852 57.7677 80.0561C57.0597 79.4944 56.3005 78.3966 55.4972 77.387C54.1876 75.724 52.9845 74.4869 52.0895 72.6146C51.6676 71.7189 52.3976 70.4599 52.4563 69.3953C52.4746 68.9584 52.3718 68.3711 52.3755 67.8865C52.4286 67.3989 52.4519 66.9085 52.4452 66.4181C52.2581 65.1736 51.4511 64.3842 51.0182 63.0626C50.8862 62.6441 50.978 62.0788 50.8203 61.3739C50.2077 61.3556 50.4791 60.6398 50.0426 60.1919L49.9839 60.2946H49.8628L49.6794 60.412C49.5987 60.3019 49.4813 60.3644 49.4116 60.2029C49.5144 60.0927 49.4998 59.9569 49.7125 59.8725L49.7417 59.7477L49.8334 59.6633C48.8541 58.015 47.4125 57.0421 45.9269 58.4555C45.5601 58.8226 45.5858 59.5567 45.285 60.0449C43.9132 62.3467 40.7367 62.8277 39.8563 60.089C39.3648 60.3534 39.7902 60.8233 39.339 61.0803C38.345 60.6581 37.7654 59.2007 37.3692 58.0811C37.3289 57.7653 37.9562 57.7946 37.8535 57.6331C37.1896 56.708 36.3423 55.0634 36.3863 54.0355C35.9131 53.0957 35.1758 52.233 34.9191 51.2198C34.7136 50.3755 34.919 49.1787 34.9997 48.1765C35.0804 47.1743 35.3665 46.0509 35.3188 45.1037C35.2821 44.4062 35.0951 43.7711 35.1207 43.0259C35.1758 41.5574 35.0584 40.1771 35.0584 38.7747C35.0584 38.0405 35.2088 37.1852 35.1025 36.6676C35.0254 36.3005 34.6733 35.8746 34.5669 35.4598C34.3909 34.7623 34.4164 33.8629 33.8002 33.103C33.0335 33.0333 32.6338 32.3284 31.9955 32.332C30.7997 32.332 29.3178 33.6683 28.907 34.7439C28.8047 35.199 28.7604 35.6654 28.775 36.1316C28.7058 36.5901 28.6629 37.0522 28.6466 37.5157C28.6832 37.8571 28.962 38.136 29.0134 38.4517C29.0647 38.8188 28.8446 39.2741 28.8556 39.5971C28.8959 40.6691 29.2225 41.5281 29.3802 42.3725C29.1748 43.1728 28.896 44.1712 29.061 45.0523C29.1087 45.2909 29.4095 45.4414 29.4792 45.6874C29.5489 45.9334 29.3655 46.1904 29.4792 46.4731C29.5929 46.7557 29.89 46.9575 30.0148 47.2879C30.4072 48.3195 30.2238 49.4906 30.4769 50.368C30.5759 50.7021 30.9135 50.9922 30.9832 51.3372C31.1629 52.2036 30.8365 53.3269 30.8145 54.4392C30.8145 55.1477 31.0676 55.9774 30.9209 56.5795C30.6971 57.5119 30.0038 58.3894 29.7287 59.3071C29.6444 59.5825 29.7507 59.9789 29.692 60.2432C29.4719 61.2197 28.9143 62.0788 28.6501 63.0076C28.3494 64.0539 28.3972 65.3644 28.4155 66.4069C28.4412 67.5597 28.5329 68.683 28.4852 69.8724C29.1895 71.484 29.5049 73.015 28.9693 74.3659C29.2187 75.9114 28.6319 79.4393 26.3064 80.7939C25.6791 81.161 23.7642 81.6602 22.9572 81.4252C22.6371 81.2652 22.3347 81.0723 22.0549 80.8491C21.6881 80.3829 22.0881 79.8689 21.5525 79.4871C21.7487 78.672 22.0691 77.892 22.5025 77.1744C22.9097 76.4402 23.6322 75.684 23.9036 74.9718C24.3365 73.797 24.0797 72.5633 24.2705 71.3591C24.1164 70.8305 23.746 70.258 23.7387 69.7588C22.5502 69.0613 20.5364 68.7418 19.3993 69.8688C19.0582 70.2066 19.0618 71.0583 18.783 71.7044C18.4412 72.4849 18.2424 73.3204 18.1961 74.1712C18.13 74.8357 18.2953 75.4267 18.2733 76.0692C18.2733 76.4803 17.9615 76.9982 17.9064 77.4827C17.8331 78.0848 17.9796 78.5841 17.8366 78.9512C17.6094 79.3088 17.3557 79.6485 17.0774 79.9679C16.4244 80.9481 16.4722 81.0032 15.3791 81.341C14.0365 81.7558 13.0241 82.1374 11.9126 81.7923C11.179 82.4641 10.0492 82.6039 9.34497 82.7617C9.20217 83.9001 8.98164 85.0271 8.68478 86.1352C8.49404 86.8438 8.31788 87.5451 8.1308 88.2536C7.92172 92.5048 8.4133 96.9063 8.83147 101.077C9.32666 106.036 10.0199 110.989 10.5994 115.923C11.6999 125.181 12.03 134.513 13.1195 143.771C14.6857 153.845 17.7119 163.489 21.0829 173.107C22.7959 178 24.5346 182.89 26.0019 187.865C27.8103 193.977 28.9106 200.093 29.7653 206.4C30.6273 205.824 31.4784 205.298 32.2377 204.865C32.3734 205.196 32.5751 205.233 32.7438 205.442C34.7869 204.708 36.1111 202.909 37.6443 202.23C38.5063 203.019 37.9306 204.164 37.7765 205.001C38.1947 205.442 37.7215 206.103 37.7765 206.811C37.8315 207.52 38.5615 208.709 38.877 209.865C38.9503 210.137 38.8548 210.489 38.9282 210.739C39.0015 210.989 39.3318 211.341 39.4345 211.705C39.5372 212.068 39.4565 212.465 39.5518 212.67C40.0067 213.658 41.019 214.506 41.6793 214.528C42.2772 214.557 42.4642 214.117 43.0695 213.878C43.4363 213.731 43.8324 213.856 44.2469 213.511C44.8045 213.023 44.9439 211.764 44.8962 210.743C44.8776 209.471 44.6624 208.208 44.258 207.002C44.3645 205.879 44.3645 204.748 44.258 203.625C44.148 202.648 43.6344 200.827 44.4891 200.225C45.3437 199.623 47.6289 200.765 48.0361 202.061C48.2122 202.637 47.5262 203.162 47.7537 203.804C48.1461 204.95 49.5877 205.812 50.6038 205.967C51.0586 206.04 51.5098 205.802 51.9573 205.861C52.4048 205.919 52.691 206.562 53.1018 206.018C53.1018 205.427 52.493 205.508 52.2949 204.986C52.1262 204.542 52.4856 204.006 52.2949 203.419C52.0198 202.527 51.2823 202.153 50.7431 201.059C50.8825 200.38 50.6332 199.623 50.9376 198.981C50.1417 197.861 49.918 196.08 49.0633 195.137C48.6341 194.667 47.8601 194.539 47.4089 194.01C46.2534 192.641 45.9857 190.119 46.5982 189.212C48.3222 186.668 51.0806 188.247 53.2411 187.068C53.9747 187.266 54.1692 187.949 54.7084 188.316C54.9981 188.515 55.343 188.434 55.6695 188.595C56.2947 188.954 56.8362 189.442 57.2578 190.027C58.1454 189.913 58.9122 190.394 59.6311 191.07C59.9025 190.912 60.1408 190.901 60.2949 191.29C61.2963 191.007 62.1547 191.418 63.035 191.701C64.3702 191.334 65.6027 191.573 66.9562 191.334C67.8769 191.176 68.4491 190.739 69.3405 190.42C69.9897 190.185 70.6977 190.167 71.3359 189.895C72.2823 189.495 73.2213 189.109 73.9036 188.471C74.1457 188.581 74.3512 188.838 74.6556 188.628C75.2756 187.894 75.6387 187.982 76.1229 187.916C76.376 187.883 76.7134 187.604 76.8198 187.593C77.4324 187.527 78.001 187.879 78.5072 187.788C79.4205 187.622 79.7175 187.053 80.4694 187.02C80.9731 187.035 81.4685 187.154 81.9238 187.37C82.3791 187.586 82.7843 187.895 83.1141 188.276C83.2975 188.503 83.3343 188.922 83.5617 189.153C84.1963 189.803 85.5058 189.913 86.2614 190.897C87.0941 191.973 87.2445 193.346 88.5651 194.201C88.647 194.248 88.7345 194.285 88.8255 194.311L107.687 163.621C107.268 163.697 106.84 163.707 106.418 163.65C105.537 163.511 104.69 162.916 103.74 162.934C103.205 162.934 102.614 163.254 102.082 163.375C99.5694 163.933 97.4969 165.923 96.147 167.78C95.1823 169.102 94.7422 171.172 93.2713 169.531L93.2088 169.638H93.0914C92.6733 169.909 92.2625 169.751 92.2185 169.3C92.4826 169.021 92.666 169.15 92.8824 169.124H93.0035H93.1244C92.9234 168.43 92.8858 167.698 93.0144 166.987C92.8714 166.668 92.6476 166.771 92.5045 166.407C92.3028 165.423 92.2037 163.837 91.4811 162.274C91.0886 161.429 90.2451 160.805 89.893 160.071C89.7022 159.656 89.7461 158.797 89.7241 158.235C89.669 156.624 90.1386 156.484 91.6389 156.198C92.1671 156.275 92.6696 156.664 93.3519 156.639C94.3533 156.598 95.9673 155.574 95.5345 154.821C95.3804 154.55 94.1589 154.454 93.55 154.561C92.4539 154.768 91.4433 155.294 90.6448 156.073C90.1093 155.842 89.6068 156.477 88.9539 156.268C88.5504 156.139 88.4036 155.706 87.9341 155.504C88.4073 156.572 86.4889 155.974 86.5806 155.225C86.9217 154.759 87.7103 155.592 87.5452 155.111C85.9643 154.425 84.7978 151.316 86.9107 150.978C85.4177 150.31 83.9762 149.142 84.189 147.432C84.5301 144.81 87.637 141.925 90.4247 139.318C90.9676 138.819 91.5508 138.268 92.0607 137.85C93.2235 136.91 94.4302 137.116 95.417 136.826C95.9819 136.664 96.5176 136.249 97.0458 136.147C97.3869 136.084 97.6179 136.202 97.9223 136.095C99.1291 135.669 100.398 134.351 101.55 134.109C102.053 134.003 102.816 134.109 103.45 134.032C104.426 133.944 105.406 133.912 106.385 133.936C106.726 133.936 107.118 134.076 107.382 134.069C108.134 134.047 108.85 133.742 109.404 133.782C110.159 133.834 110.647 134.267 111.267 134.252C111.656 134.252 112.045 133.988 112.503 133.962C113.277 133.911 113.937 133.871 114.737 133.801C115.122 133.76 115.581 133.992 116.032 133.988C116.263 133.988 116.505 133.768 116.784 133.757C117.264 133.735 117.803 133.944 118.251 133.826C119.16 133.573 120.089 133.4 121.028 133.309C121.761 133.239 122.352 133.004 123.078 132.876C123.672 132.769 124.23 132.942 124.736 132.828C125.63 132.593 126.488 132.237 127.286 131.771L131.651 124.667C131.381 124.184 130.996 123.774 130.532 123.474ZM121.523 66.451C121.849 66.9907 121.156 67.5523 120.639 67.6771C119.975 67.0457 120.998 66.1317 121.523 66.451V66.451ZM115.071 66.9099C115.342 67.5781 114.799 68.4554 114.003 68.6463C113.739 67.9782 114.344 67.1008 115.071 66.9099V66.9099ZM13.8971 141.624L13.7137 141.741C13.6807 141.653 13.6256 141.679 13.5633 141.708L13.446 141.528C13.534 141.495 13.5084 141.437 13.4753 141.378L13.6587 141.26C13.6918 141.348 13.7503 141.319 13.809 141.29C13.8494 141.352 13.8898 141.411 13.9265 141.473C13.8421 141.521 13.8641 141.576 13.8971 141.624ZM54.0041 81.6751C53.3732 81.6457 52.6543 80.8051 52.5956 80.1296C53.1275 79.0283 53.9675 79.7992 54.492 80.8344C54.4076 81.1501 54.0115 81.3778 54.0041 81.6898V81.6751ZM69.777 77.5928C69.7403 77.6846 69.5605 77.479 69.5642 77.4716C69.1093 78.1581 69.2891 79.8726 67.9796 80.5885C67.8879 79.3036 69.2268 77.9378 69.7843 76.9981C69.7871 76.9785 69.7938 76.9599 69.8038 76.9428C69.8139 76.9258 69.8272 76.911 69.8431 76.8991L69.7843 76.9981C69.7219 77.1743 69.8173 77.4717 69.7623 77.6075L69.777 77.5928ZM75.5909 91.9835C75.3632 91.8544 75.1639 91.6805 75.0051 91.4723C74.8462 91.2641 74.731 91.026 74.6666 90.7721C74.8189 90.6471 74.9949 90.5537 75.184 90.4982C75.3731 90.4427 75.5713 90.4259 75.767 90.4488C75.9284 90.6911 76.0861 90.9333 76.2438 91.183C76.119 91.5176 75.8902 91.8036 75.5909 91.9982V91.9835ZM73.9183 85.2799C73.6285 85.0192 73.7715 84.6631 73.5515 84.1015C73.1186 83.0882 72.1613 82.358 73.0233 81.7192C73.5111 82.2552 73.9073 82.5342 74.1237 83.1876C74.2301 83.4997 74.0723 83.9401 74.241 84.1567C74.7802 84.8542 75.613 84.241 76.3466 84.9862C75.7157 85.4158 74.5455 85.8746 73.9036 85.2946L73.9183 85.2799ZM98.8358 167.116C99.0192 168.584 97.5005 170.478 95.9745 171.069C96.312 169.641 97.4015 168.353 98.8211 167.131L98.8358 167.116Z" fill="#60C9EB"/>
<path d="M86.702 246.694C86.3095 250.766 71.0869 248.31 63.5159 256.456C60.6805 259.503 56.0954 267.469 55.3802 269.429C55.1562 270.111 54.7333 270.709 54.166 271.148C53.5911 271.552 52.9096 271.777 52.2073 271.794C51.8834 271.79 51.5614 271.743 51.2498 271.654C49.6578 271.14 49.0747 267.796 49.0307 267.528C48.2493 262.799 49.5111 258.809 49.2764 256C48.6015 247.862 35.3155 249.231 24.2599 236.111C22.125 233.578 19.165 229.422 15.1374 229.44C13.6702 229.44 11.8764 230.017 8.01757 230.032C6.30824 230.032 5.13439 229.844 4.57317 229.896C0.905071 230.219 -1.37278 232.08 -8.77868 232.62C-19.5592 233.405 -22.7689 230.05 -26.8882 233.09C-26.8882 233.09 -31.741 236.713 -35.5044 238.189C-37.7897 239.081 -37.7053 238.464 -39.1029 239.216C-41.6228 240.556 -44.7775 247.796 -44.7775 247.796C-47.712 254.47 -49.7991 254.929 -49.1058 256.606C-47.9173 259.484 -42.008 257.561 -37.3679 262.304C-36.6342 263.064 -34.8516 264.874 -35.3871 266.559C-35.7539 267.704 -37.1697 268.702 -38.5012 268.739C-38.8884 268.748 -39.2736 268.681 -39.6348 268.541C-40.4308 268.269 -44.6416 266.845 -45.555 267.807C-46.3363 268.633 -44.1942 270.652 -43.666 275.27C-43.2992 278.545 -44.1429 279.506 -44.6088 279.859C-44.9291 280.088 -45.294 280.247 -45.6798 280.325C-45.7408 280.394 -45.8172 280.447 -45.9026 280.48C-45.9881 280.513 -46.0801 280.525 -46.1713 280.516C-47.0729 280.472 -47.9367 280.14 -48.6363 279.569C-51.1637 277.418 -56.5925 268.717 -61.6801 265.736C-67.7288 262.19 -73.462 266.639 -76.4846 262.664C-77.8564 260.857 -78.2635 257.847 -77.0016 256.056C-74.6907 252.752 -69.1961 256.474 -62.1387 253.688C-59.3692 252.586 -56.7317 249.051 -51.446 241.966C-49.8981 239.888 -47.9172 236.999 -48.8489 235.622C-48.9618 235.469 -49.101 235.338 -49.2598 235.233C-51.2369 233.765 -51.9962 230.784 -52.1502 230.31C-53.2507 226.907 -64.3137 222.906 -67.5563 221.599C-69.5811 220.784 -86.3736 213.361 -93.7906 199.572C-94.7589 197.773 -97.2093 192.81 -99.3808 193.17C-100.998 193.438 -100.958 196.415 -103.522 197.546C-105.441 198.394 -108.129 197.913 -109.707 196.478C-112.641 193.82 -110.847 189.069 -112.623 188.354C-114.457 187.619 -116.383 192.726 -121.228 194.132C-126.635 195.696 -132.097 191.602 -132.966 190.927C-138.765 186.415 -140.093 178.721 -140.552 176.074C-141.505 170.512 -140.324 167.821 -142.778 164.66C-144.568 162.366 -146.138 162.586 -149.219 160.622C-149.645 160.358 -159.222 154.044 -159.123 144.66C-159.065 137.847 -153.94 133.1 -153.023 132.248C-148.218 127.799 -144.997 129.558 -142.837 126.492C-138.098 119.778 -151.578 108.478 -147.675 98.0633C-145.309 91.7527 -137.5 88.7131 -132.53 88.0267C-119.548 86.2388 -106.119 97.8651 -100.599 109.811C-94.6122 122.766 -100.023 131.555 -92.5287 137.755C-85.7354 143.365 -74.6247 141.694 -74.1882 140.086C-73.9095 138.985 -78.5167 138.104 -80.3067 133.666C-81.5685 130.542 -80.6735 127.52 -80.4534 126.749C-79.1842 122.594 -75.685 120.266 -74.2434 119.323C-61.8342 111.268 -30.0941 110.916 -16.7385 97.1309C-1.75434 81.6683 -6.26596 45.5633 4.14045 37.0648C4.75303 36.5655 7.5261 34.4436 7.15929 32.2483C6.70078 29.506 1.86257 29.6784 -1.53042 26.5617C-7.26 21.3267 -7.30404 8.25046 -1.7432 3.74237C3.1794 -0.248093 10.3138 4.23785 12.3496 1.1468C15.3428 -3.40534 0.204528 -13.6623 2.89692 -22.9832C4.54023 -28.6807 12.6797 -33.3907 19.4034 -31.5111C25.0999 -29.9215 28.8927 -23.9449 29.2338 -19.0807C29.4319 -16.2136 28.4562 -13.4236 29.0871 -13.207C29.718 -12.9904 30.6534 -15.9127 32.9386 -17.7887C36.3463 -20.586 41.9255 -20.3583 44.9884 -19.0881C55.7286 -14.5836 60.321 9.59031 51.4772 20.0676C48.6161 23.4707 44.3868 25.3466 44.8747 28.1439C45.3258 30.6917 49.104 30.4715 53.7698 33.3937C63.4573 39.4436 61.9571 49.5868 71.252 53.2799C71.5712 53.4084 71.9525 53.5294 71.9525 53.5294C73.5501 54.0732 75.1891 54.487 76.8532 54.7666C78.9661 55.1337 88.404 56.7821 89.1156 60.3467C89.4567 62.0648 87.6117 63.8416 83.9253 67.3989C80.0958 71.07 79.1311 70.7981 77.9866 72.5382C75.485 76.3268 77.6822 81.3489 80.2865 89.3886C82.1976 95.2807 83.3238 101.411 85.1908 107.318C89.8237 122.002 90.9901 160.145 71.4575 184.044C64.323 192.759 53.5608 205.923 45.0031 211.529C43.6165 212.436 40.4656 214.341 38.4261 218.137C37.8832 219.15 34.8425 224.062 35.7008 229.448C37.2634 239.242 50.8573 246.309 57.6287 243.225C63.5783 240.516 64.6274 232.41 69.1905 232.825C71.5675 233.042 74.3259 235.63 74.1792 237.19C74.0325 238.75 73.8124 239.169 73.8124 239.169C73.6143 240.006 73.4639 240.321 73.5079 240.637C73.5272 240.721 73.553 240.803 73.5849 240.883C73.9517 241.749 78.3755 241.078 81.2109 241.838C83.8079 242.499 86.8744 244.885 86.702 246.694Z" fill="#FFE600"/>
</g>
<path d="M65.5522 128.207C100.099 128.207 128.104 100.179 128.104 65.6042C128.104 31.0295 100.099 3.00122 65.5522 3.00122C31.0056 3.00122 3 31.0295 3 65.6042C3 100.179 31.0056 128.207 65.5522 128.207Z" stroke="#60C9EB" stroke-width="5.56471"/>
</svg>
