<svg width="147" height="147" viewBox="0 0 147 147" fill="none" xmlns="http://www.w3.org/2000/svg">
<mask id="mask0_2_8799" style="mask-type:alpha" maskUnits="userSpaceOnUse" x="10" y="10" width="126" height="126">
<path d="M134.732 61.4884C135.434 65.1565 135.807 68.8798 135.849 72.6141C135.851 72.7409 135.856 72.8633 135.853 72.9871C135.88 77.8936 135.325 82.7861 134.199 87.5616C134.007 88.3807 133.798 89.1966 133.572 90.0096C133.278 91.0751 132.952 92.134 132.595 93.1864C132.322 93.9861 132.033 94.7887 131.729 95.5944C129.989 100.13 127.731 104.449 125 108.466C124.264 109.541 123.501 110.596 122.7 111.627C119.597 115.626 116.02 119.235 112.049 122.375C110.904 123.281 109.722 124.151 108.501 124.985C101.416 129.818 93.4097 133.137 84.9835 134.734C76.3265 136.401 67.4147 136.212 58.8357 134.182C58.6718 134.146 58.5073 134.106 58.3457 134.062C54.8917 133.218 51.5169 132.077 48.2585 130.653C45.995 129.666 43.7918 128.546 41.6608 127.299C41.6342 127.286 41.6088 127.27 41.5849 127.253C41.337 127.11 41.0942 126.973 40.8508 126.814C34.6196 123.049 29.0915 118.227 24.514 112.565C23.1377 110.866 21.8535 109.094 20.6669 107.257C19.8455 105.996 19.0722 104.7 18.3469 103.369L18.0895 102.902L17.6333 102.04C17.3359 101.461 17.0378 100.879 16.7679 100.288C14.4446 95.4281 12.7588 90.2882 11.7525 84.9962C9.21683 71.8412 10.9861 58.2197 16.7981 46.1497C17.1813 45.3588 17.5767 44.573 17.9922 43.7947C18.5943 42.683 19.2269 41.5804 19.8899 40.487C19.9125 40.446 19.9373 40.4062 19.9643 40.368C20.1205 40.1101 20.284 39.8511 20.4452 39.5998C20.4517 39.5855 20.4607 39.5725 20.4715 39.5612C25.0474 32.3693 31.0481 26.1913 38.1035 21.4084C45.1588 16.6255 53.1192 13.3389 61.4937 11.7516C69.837 10.1461 78.4204 10.2608 86.7181 12.0886C95.0158 13.9165 102.853 17.4191 109.75 22.3819C112.28 24.1962 114.671 26.1966 116.903 28.3663C126.116 37.3062 132.343 48.8744 134.732 61.4884Z" fill="#E9AD62"/>
</mask>
<g mask="url(#mask0_2_8799)">
<path d="M134.723 61.4875C135.425 65.1555 135.799 68.8788 135.841 72.6132C135.842 72.7399 135.847 72.8623 135.845 72.9861C135.872 77.8926 135.317 82.7851 134.191 87.5606C133.999 88.3797 133.789 89.1956 133.564 90.0087C133.269 91.0741 132.943 92.133 132.586 93.1854C132.313 93.9851 132.025 94.7877 131.72 95.5934C129.98 100.129 127.722 104.448 124.991 108.465C124.255 109.54 123.492 110.595 122.692 111.626C119.588 115.625 116.012 119.234 112.041 122.374C110.896 123.28 109.713 124.15 108.492 124.984C101.407 129.817 93.4011 133.136 84.9749 134.733C76.318 136.4 67.4061 136.211 58.8271 134.181C58.6633 134.145 58.4988 134.105 58.3372 134.061C54.8832 133.217 51.5083 132.076 48.25 130.652C45.9864 129.665 43.7833 128.545 41.6522 127.298C41.6256 127.285 41.6002 127.27 41.5763 127.252C41.3285 127.109 41.0856 126.972 40.8422 126.813C34.6111 123.048 29.0829 118.226 24.5054 112.564C23.1291 110.865 21.8449 109.093 20.6584 107.256C19.837 105.995 19.0636 104.699 18.3383 103.368L18.081 102.901L17.6247 102.039C17.3273 101.46 17.0293 100.878 16.7593 100.287C14.4361 95.4271 12.7503 90.2872 11.744 84.9952C9.20828 71.8403 10.9776 58.2187 16.7895 46.1487C17.1728 45.3579 17.5681 44.572 17.9836 43.7937C18.5858 42.682 19.2184 41.5794 19.8813 40.486C19.9039 40.445 19.9287 40.4052 19.9557 40.367C20.112 40.1092 20.2754 39.8501 20.4367 39.5988C20.4432 39.5845 20.4521 39.5715 20.463 39.5602C25.0389 32.3683 31.0396 26.1903 38.0949 21.4075C45.1503 16.6246 53.1107 13.3379 61.4851 11.7507C69.8285 10.1451 78.4118 10.2598 86.7095 12.0876C95.0072 13.9155 102.845 17.4181 109.742 22.3809C112.271 24.1953 114.662 26.1956 116.895 28.3653C126.108 37.3052 132.334 48.8734 134.723 61.4875Z" fill="#E9AD62"/>
<path d="M59.3453 118.121C59.0311 116.809 59.2071 115.755 59.101 114.594C58.9525 112.937 58.0516 111.547 58.0838 110.21C58.1161 108.874 58.6937 107.399 58.8071 105.92C58.8996 104.703 58.7387 103.216 59.1637 101.92C59.2679 101.605 59.5126 101.438 59.5794 101.201C59.6983 100.768 59.5389 100.462 59.6928 100.23C60.4202 99.0113 62.5562 99.5708 63.7319 99.3873C63.9266 99.3501 64.7187 99.0757 65.2125 98.9028C66.0183 98.6217 66.4425 98.0061 67.1344 97.4814C68.6987 96.3004 69.9165 95.1256 69.9979 92.677C70.0283 91.7219 69.4968 90.4855 69.9716 89.1764C70.147 88.6869 71.0971 87.9485 71.65 87.9475C72.3749 87.9472 72.7649 88.482 73.2052 88.6744C73.5782 88.8274 74.0795 88.7912 74.4915 88.933C75.2931 89.217 75.8808 89.7888 76.4431 90.0327C76.6976 90.1522 77.0672 90.1115 77.2943 90.2437C78.4018 90.8767 79.2652 92.1094 80.499 92.7968C80.696 92.9086 81.0433 92.8684 81.2395 92.9954C82.3069 93.6921 83.043 94.8259 83.915 95.3805C84.4764 95.7367 85.3758 95.7701 86.0131 96.1716C86.7256 96.6147 87.4962 98.2617 88.338 98.7361C88.9785 99.0958 89.7192 99.1 90.8989 99.3679C91.6786 99.5366 92.6307 100.237 93.237 99.9675C93.4065 99.8548 93.5456 99.702 93.6417 99.5226C93.7378 99.3431 93.788 99.1427 93.7878 98.9391C93.7879 98.2552 92.8617 97.8865 92.0217 97.2061C90.589 96.0448 88.4116 94.409 86.517 95.5822C86.5798 95.3048 86.5318 95.1119 86.2445 95.1145C85.3019 94.308 84.0793 94.0109 83.1658 93.3371C82.7652 93.0399 82.5883 92.5057 82.2142 92.1324C81.5969 91.5029 80.706 91.1425 80.1004 90.5743C79.7875 90.2865 79.6825 89.7761 79.3596 89.3968C79.0122 89.0691 78.6433 88.765 78.2552 88.4867C76.5334 86.947 75.7078 85.4227 73.7056 84.3515C72.2055 81.7231 72.7686 76.8091 73.3295 73.5849C73.6712 73.6915 73.8385 73.5702 74.0956 73.5659C74.8578 71.5515 74.315 69.3566 74.7801 67.7428C75.9389 67.5886 76.4444 68.7665 76.9916 69.4206C77.5938 69.384 77.7994 70.167 78.3913 70.5659C78.9833 70.9648 80.3477 71.1824 81.4377 71.6842C81.6915 71.8001 81.8912 72.102 82.1386 72.2043C82.4349 72.327 82.86 72.2831 83.2071 72.4373C83.5542 72.5915 83.8049 72.9061 84.0218 72.9656C85.0704 73.251 86.3696 73.0102 86.815 72.5251C87.2604 72.0401 87.0039 71.6555 87.2071 71.0374C87.3239 70.6712 87.68 70.4424 87.6681 69.8915C87.6529 69.147 86.776 68.2344 85.9636 67.6011C84.9753 66.8002 83.8691 66.1568 82.6843 65.6938C81.8893 64.8931 81.0203 64.1697 80.089 63.5327C79.2709 62.9865 77.5418 62.2106 77.6306 61.1696C77.7194 60.1286 80.0575 59.1061 81.3157 59.628C81.8723 59.8618 81.8348 60.721 82.472 60.9655C83.6043 61.3957 85.1979 60.8184 85.963 60.1676C86.3111 59.8582 86.4175 59.3593 86.752 59.0562C87.0864 58.7531 87.7557 58.9505 87.6052 58.2803C87.1578 57.8949 86.8228 58.4298 86.2968 58.2388C85.8446 58.0823 85.6663 57.4623 85.1011 57.2227C84.2397 56.8604 83.4796 57.1851 82.2928 56.8999C81.8641 56.3577 81.1201 56.0627 80.8247 55.4165C79.4544 55.3047 77.9465 54.3371 76.6748 54.3895C76.0411 54.4172 75.4436 54.9275 74.7496 54.933C72.9578 54.9429 70.8491 53.5295 70.5442 52.4815C69.702 49.5217 72.6823 48.4177 73.1658 46.0006C73.7827 45.5725 74.4383 45.8544 75.069 45.6741C75.4052 45.5762 75.562 45.2624 75.9002 45.1156C76.5761 44.8648 77.2977 44.7611 78.0169 44.8118C78.4977 44.0621 79.351 43.7758 80.3418 43.6612C80.3912 43.3527 80.5383 43.164 80.9331 43.2941C81.3609 42.3453 82.2266 41.948 83.0104 41.4543C83.5712 40.1848 84.5642 39.3969 85.2538 38.2148C85.7236 37.4075 85.7584 36.6907 86.0877 35.813C86.3373 35.1636 86.7616 34.6079 86.9638 33.9451C87.2652 32.9606 87.57 31.9944 87.5327 31.056C87.7733 30.9464 88.1023 30.9471 88.1344 30.5672C87.9538 29.6225 88.2839 29.3948 88.5395 28.9722C88.6781 28.7588 88.6761 28.3182 88.7381 28.2317C89.0815 27.7213 89.7203 27.5057 89.9718 27.0615C90.4307 26.2562 90.1953 25.6696 90.6439 25.0644C91.177 24.3346 92.4102 23.8261 93.3056 23.8381C93.5942 23.8427 93.9405 24.0905 94.2633 24.0587C95.1724 23.9859 96.0931 23.055 97.3344 23.098C98.6931 23.1485 99.8449 23.9151 101.345 23.4528C101.435 23.4201 101.521 23.3762 101.6 23.3219L90.1732 -10.8519C89.9619 -10.481 89.6947 -10.1451 89.3808 -9.85588C88.7114 -9.27197 87.7136 -8.99891 87.1148 -8.26033C86.7758 -7.84422 86.6356 -7.18952 86.3846 -6.70427C85.1997 -4.41849 85.3961 -1.55232 85.953 0.677129C86.3498 2.26445 87.6551 3.93232 85.4683 4.00643L85.5084 4.11848L85.442 4.22095C85.3831 4.71434 84.9983 4.92991 84.6204 4.67324C84.584 4.30647 84.794 4.23242 84.9128 4.05273L84.9792 3.95062L85.0456 3.84815C84.3845 3.55465 83.8 3.11253 83.3376 2.55626C83.0022 2.46338 82.9296 2.70896 82.5686 2.57987C81.6815 2.10285 80.4305 1.16839 78.7334 0.696664C77.835 0.453528 76.815 0.689689 76.0191 0.494233C75.5738 0.373779 74.9424 -0.211867 74.4991 -0.556935C73.2298 -1.54768 73.4243 -1.99629 74.167 -3.33048C74.5653 -3.69064 75.1942 -3.82204 75.6083 -4.35342C76.2046 -5.14386 76.4692 -7.0443 75.6146 -7.19491C75.3048 -7.25156 74.4607 -6.36896 74.1402 -5.83678C73.5939 -4.86365 73.3489 -3.75011 73.4363 -2.63749C72.9143 -2.37702 73.081 -1.5829 72.5013 -1.21421C72.1409 -0.988356 71.7168 -1.15411 71.2599 -0.924762C72.3794 -0.600539 70.6893 0.488649 70.1764 -0.0636405C70.0358 -0.623532 71.1773 -0.691998 70.7052 -0.874592C69.1675 -0.102313 66.0311 -1.20344 67.1301 -3.03927C65.6592 -2.32833 63.8255 -1.97042 62.6622 -3.22809C60.8705 -5.17295 60.6424 -9.41631 60.443 -13.2165C60.4025 -13.9563 60.3588 -14.7515 60.3709 -15.4116C60.3945 -16.9111 61.3234 -17.7016 61.734 -18.6621C61.9711 -19.2007 62.0021 -19.8791 62.2602 -20.347C62.4269 -20.648 62.6689 -20.7506 62.7824 -21.0563C63.2282 -22.2628 63.0314 -24.0937 63.5879 -25.112C63.8301 -25.5656 64.3909 -26.0916 64.7496 -26.6198C65.3043 -27.4233 65.9058 -28.1935 66.5509 -28.9262C66.7712 -29.1814 67.12 -29.3898 67.2882 -29.6051C67.7575 -30.1994 67.9762 -30.9325 68.3691 -31.3403C68.8963 -31.8858 69.5386 -31.9863 69.9278 -32.4718C70.1687 -32.7757 70.2266 -33.2353 70.4961 -33.6045C70.9557 -34.2306 71.3468 -34.7647 71.8074 -35.4246C72.0232 -35.7424 72.4958 -35.9486 72.7845 -36.2953C72.9336 -36.4733 72.9191 -36.8032 73.0901 -37.0227C73.39 -37.4089 73.8869 -37.6834 74.0892 -38.1108C74.4812 -38.972 74.9488 -39.7968 75.4866 -40.5754C75.9049 -41.1824 76.1031 -41.7884 76.4742 -42.4274C76.7738 -42.9518 77.266 -43.2701 77.5004 -43.7447C77.8938 -44.5814 78.1707 -45.468 78.3234 -46.3799L75.6906 -54.2896C75.1731 -54.3786 74.6419 -54.345 74.1398 -54.1913C74.0741 -53.5771 74.054 -52.9004 73.64 -52.7204C73.1062 -52.7566 73.3399 -53.4105 73.0872 -53.6575C71.172 -52.6897 71.0025 -50.116 70.3377 -47.9633C70.1837 -47.4592 69.8342 -46.9998 69.7278 -46.501C69.4205 -45.0782 69.5016 -42.9334 68.8711 -42.0094C67.9962 -40.7209 66.7457 -39.6187 65.9072 -38.1989C65.3814 -37.3136 65.2751 -36.1685 64.7895 -35.2684C64.5193 -34.7271 63.8134 -34.3341 63.6038 -33.6512C62.8384 -33.6282 62.2717 -33.3479 62.0618 -32.6276C60.8418 -32.6374 60.4393 -31.6149 59.6801 -31.0512C58.8659 -31.1273 58.6812 -30.4118 57.9589 -30.3784C58.1275 -29.7304 57.551 -29.2279 56.943 -29.1828C56.0722 -30.0441 55.258 -29.0439 54.1229 -29.3912C52.7911 -29.8094 51.8931 -32.6313 52.1707 -34.2093C52.4273 -35.3952 52.8932 -36.526 53.5467 -37.5483C54.0029 -38.1924 54.6334 -38.5298 54.9526 -39.2448C56.1553 -41.9265 55.3954 -44.9056 52.7017 -44.316C52.096 -44.2003 51.8842 -43.6662 51.1949 -43.6167C51.0484 -42.8973 50.2747 -42.4095 49.9848 -41.6777C49.7488 -41.0944 49.8479 -40.321 49.6479 -39.7446C49.0615 -38.0815 47.789 -36.5861 45.8916 -36.6795C45.4843 -36.6988 44.7273 -37.1597 43.8785 -37.2404C41.7495 -37.4502 41.0613 -38.1183 40.3261 -39.6185C39.9936 -40.3025 39.9021 -41.3876 39.3905 -41.9139C39.0087 -42.3081 38.3338 -42.183 37.9548 -42.7385C36.6408 -42.4575 35.4816 -41.993 34.2095 -41.6489C33.948 -41.4532 34.2242 -41.3376 34.1349 -41.0029C33.7788 -41.3609 33.5741 -41.0041 33.4571 -40.8733C33.236 -40.6031 32.6219 -40.4334 32.5166 -40.3198C31.8892 -39.6917 31.8568 -38.4147 31.0499 -38.081C30.6102 -38.0942 30.6705 -38.5019 30.4649 -38.6981C30.165 -37.9793 29.6387 -38.5626 29.2747 -38.8444C28.4427 -38.7788 27.8699 -38.374 27.2168 -38.0959C26.8513 -38.796 25.9009 -39.1151 25.557 -39.8193C25.0341 -40.8742 25.3338 -42.9424 25.6565 -44.4019C25.8157 -45.0938 26.3229 -45.8037 26.4526 -46.4937C26.6124 -47.339 26.2413 -48.322 26.299 -48.9198C26.4523 -49.7833 26.664 -50.6354 26.9326 -51.4702C27.3901 -53.1236 27.0759 -55.0221 27.3966 -56.3354C27.4548 -56.5783 27.7321 -56.848 27.8212 -57.164C28.165 -58.3174 28.1239 -59.4905 28.2168 -60.5099C28.5089 -63.5472 29.0461 -66.5558 29.8232 -69.5064C29.9791 -70.0262 30.2216 -70.516 30.5404 -70.9552C30.865 -71.2116 31.4223 -71.0527 31.781 -71.2484C32.3495 -71.5588 33.2439 -72.4512 33.9626 -73.0707C35.4696 -74.3753 36.3362 -75.0417 36.6216 -77.0285C37.0744 -80.232 36.331 -81.7754 35.0973 -83.655C34.0847 -85.1994 33.3853 -86.0824 31.9958 -87.0763C30.3802 -88.2364 29.3888 -88.5552 26.7508 -89.1012C26.117 -89.2305 25.4444 -89.4457 24.7863 -89.6039L19.0153 -87.675C17.9078 -86.4505 17.3982 -84.6788 17.1037 -82.5632C16.9604 -81.1867 17.0929 -79.7952 17.4936 -78.4704C17.6477 -77.9766 18.0408 -77.5622 18.2044 -77.0777C18.7092 -75.4923 19.4139 -73.8779 20.5468 -72.7602C21.629 -71.6926 23.224 -71.1677 24.788 -70.6294C24.9155 -69.9623 25.8135 -69.3305 25.8397 -68.431C25.8604 -68.3228 25.604 -68.0609 25.5646 -67.9151C25.2234 -66.6502 25.387 -65.1491 25.3248 -64.0085C25.2399 -62.4973 24.6904 -60.7777 24.6991 -59.5983C24.702 -58.5035 24.5317 -57.4151 24.1943 -56.3736C23.9213 -55.4669 23.774 -54.5271 23.7566 -53.5803C23.7002 -52.8781 23.4045 -52.0592 23.3964 -51.4373C23.3882 -50.8153 23.6883 -50.0466 23.7054 -49.4294C23.7726 -48.6309 23.752 -47.8274 23.644 -47.0333C23.5806 -46.7782 23.223 -46.3809 23.0721 -45.8998C22.7614 -44.9248 22.7576 -43.8104 22.3908 -42.9144C22.0239 -42.0183 21.0365 -41.5342 20.4692 -40.5138C19.9019 -39.4934 19.6907 -38.5452 19.1634 -37.824C18.6411 -37.0426 17.9252 -36.4097 17.0854 -35.9877C15.9407 -35.4662 14.1747 -35.3604 13.2523 -36.0026C11.8839 -36.9445 13.5589 -39.4622 13.3781 -40.7993C13.3124 -41.0008 13.2252 -41.1947 13.1181 -41.3776C12.7667 -42.1214 12.6006 -42.4821 11.7578 -42.8443C11.6177 -42.0327 10.9805 -41.8473 10.4031 -41.5837C9.89236 -40.6975 9.39652 -38.8535 8.39084 -38.4258C6.95019 -37.8104 4.79468 -39.6448 3.90964 -40.3651C3.49648 -40.7085 3.00758 -40.9402 2.79556 -41.15C1.54932 -42.3134 1.12584 -44.2358 0.3891 -45.803C0.0638032 -46.4883 -0.528206 -47.2983 -0.980155 -48.1575C-1.85877 -49.8022 -2.6383 -51.4957 -3.47169 -53.0407C-3.94373 -53.9072 -4.38639 -54.9326 -4.82939 -55.4908C-5.47035 -56.3027 -7.35351 -57.1425 -8.35546 -58.0835C-8.65251 -58.3668 -8.69189 -58.7292 -8.91419 -58.9147C-9.27512 -59.2195 -9.72963 -59.2709 -9.94249 -59.4656C-10.4036 -59.9232 -10.4733 -60.62 -10.8325 -61.2091C-12.2467 -63.5251 -14.0968 -65.7167 -15.6429 -67.7646C-16.2344 -68.5523 -16.6133 -69.616 -17.6013 -69.7411C-17.893 -68.3736 -17.0241 -67.2091 -16.6 -66.1241C-16.1449 -64.9553 -15.7095 -63.7529 -15.1726 -62.5661C-14.6356 -61.3793 -13.6947 -60.4453 -13.2597 -59.2839C-12.9169 -58.3702 -13.1751 -57.1399 -12.8696 -56.0696C-12.7543 -55.6618 -12.4111 -55.3909 -12.3372 -55.0238C-12.2876 -54.7642 -12.393 -54.3966 -12.3303 -54.147C-11.9681 -52.7212 -10.853 -51.9701 -10.0669 -51.044C-9.10741 -49.9342 -8.42762 -48.6064 -7.51586 -47.4726C-6.7938 -46.5492 -5.76904 -45.8407 -5.08026 -44.896C-4.83056 -44.5475 -4.59601 -44.0242 -4.35622 -43.6104C-3.8683 -42.744 -3.42482 -41.8531 -3.0277 -40.9415C-2.82222 -40.4725 -2.78313 -39.9156 -2.54297 -39.4607C-2.37932 -39.1519 -2.07562 -38.9708 -1.87776 -38.6199C-1.25281 -37.2791 -0.793446 -35.867 -0.509853 -34.4151C-0.308556 -33.437 -0.24299 -32.4361 -0.314959 -31.4401C-0.558855 -28.6689 -3.25238 -26.7487 -5.97101 -26.1918C-6.86148 -26.0216 -8.19954 -26.1209 -9.47768 -26.1606C-11.5899 -26.2241 -13.3144 -26.0965 -15.3392 -26.6215C-16.2988 -26.8716 -16.7924 -28.2421 -17.5796 -28.9587C-17.9081 -29.2697 -18.4385 -29.5421 -18.7886 -29.8489C-19.13 -30.2033 -19.492 -30.5374 -19.8728 -30.849C-20.9506 -31.5027 -22.0725 -31.3892 -23.3638 -31.9086C-23.7691 -32.074 -24.1469 -32.5062 -24.7855 -32.8364C-25.1961 -32.3842 -25.5755 -33.0592 -26.1921 -33.0011L-26.1694 -32.8821L-26.2358 -32.7798C-26.2234 -32.7149 -26.25 -32.6388 -26.2585 -32.5662C-26.3988 -32.5767 -26.4265 -32.4481 -26.5974 -32.5014C-26.6257 -32.6492 -26.7258 -32.7234 -26.6562 -32.946L-26.7346 -33.0433L-26.7364 -33.1699C-28.6299 -33.477 -30.3012 -32.9934 -30.1754 -30.9469C-30.1438 -30.4297 -29.5623 -29.9874 -29.3662 -29.4307C-28.48 -26.9054 -30.1519 -24.1564 -32.8176 -25.2391C-32.9303 -24.6943 -32.3088 -24.7271 -32.391 -24.1994C-33.3541 -23.7051 -34.8379 -24.1954 -35.953 -24.6139C-36.2208 -24.7832 -35.7972 -25.2453 -35.9885 -25.2685C-37.1258 -25.3538 -38.925 -25.7537 -39.6776 -26.4657C-40.7021 -26.7034 -41.8396 -26.6916 -42.7758 -27.1517C-43.555 -27.5335 -44.3346 -28.4648 -45.0549 -29.1643C-45.7753 -29.8638 -46.4468 -30.8155 -47.203 -31.3699C-47.7953 -31.7289 -48.3686 -32.1183 -48.9207 -32.5366C-50.008 -33.5135 -51.1292 -34.3159 -52.22 -35.2136C-52.7761 -35.6792 -53.3449 -36.3479 -53.8114 -36.5988C-54.1532 -36.7839 -54.6938 -36.7777 -55.081 -36.9653C-55.7269 -37.2754 -56.402 -37.8752 -57.3795 -37.8865C-57.9262 -37.3447 -58.7198 -37.4884 -59.13 -36.9952C-59.8922 -36.0758 -59.8249 -34.0817 -59.2633 -33.079C-58.9798 -32.7085 -58.6501 -32.3759 -58.282 -32.0893C-57.9754 -31.7406 -57.6489 -31.4098 -57.3042 -31.0987C-57.0215 -30.9098 -56.6282 -30.9439 -56.3561 -30.7717C-56.084 -30.5994 -55.8577 -30.1195 -55.5794 -29.9148C-54.7334 -29.2617 -53.8708 -28.952 -53.1156 -28.5394C-52.6354 -27.865 -52.0503 -27.0127 -51.2463 -26.5796C-51.0364 -26.459 -50.7264 -26.5968 -50.4818 -26.4903C-50.2373 -26.3838 -50.1685 -26.0829 -49.885 -25.9875C-49.6014 -25.8922 -49.2471 -25.9937 -48.9105 -25.8749C-47.8698 -25.5132 -47.1035 -24.6317 -46.2537 -24.2522C-45.936 -24.1149 -45.4941 -24.1882 -45.1853 -24.0192C-44.4064 -23.6 -43.7538 -22.6296 -42.912 -21.901C-42.3782 -21.4349 -41.5719 -21.1069 -41.2039 -20.6091C-40.6303 -19.8367 -40.4064 -18.7432 -39.8755 -17.9402C-39.7177 -17.7013 -39.3442 -17.526 -39.1861 -17.3245C-38.5781 -16.5288 -38.2697 -15.5413 -37.7337 -14.7505C-37.1245 -13.8503 -36.0883 -13.043 -35.2754 -12.3873C-34.3904 -11.667 -33.4557 -11.0198 -32.5742 -10.2202C-30.8839 -9.7248 -29.5131 -8.98503 -28.8163 -7.70544C-27.4749 -6.90414 -25.1556 -4.19324 -25.6008 -1.53681C-25.7221 -0.822221 -26.568 0.969111 -27.2739 1.44038C-27.6039 1.58248 -27.948 1.6896 -28.3003 1.75992C-28.8839 1.73692 -29.0261 1.11004 -29.6639 1.27304C-30.1671 0.602366 -30.5618 -0.143146 -30.8335 -0.936382C-31.1364 -1.71941 -31.2535 -2.76242 -31.6365 -3.43671C-32.2585 -4.52126 -33.3707 -5.11953 -34.1793 -6.02642C-34.6842 -6.24385 -35.3587 -6.33179 -35.7469 -6.64255C-37.0481 -6.1771 -38.5856 -4.83686 -38.4596 -3.23891C-38.4205 -2.76052 -37.7635 -2.2172 -37.4493 -1.58958C-37.0711 -0.827628 -36.5599 -0.139352 -35.9398 0.442838C-35.4745 0.922006 -34.9108 1.17311 -34.4329 1.60127C-34.1257 1.87893 -33.9218 2.43798 -33.5886 2.7929C-33.1713 3.23637 -32.6893 3.45081 -32.5 3.79585C-32.3725 4.20058 -32.2747 4.61408 -32.2075 5.03308C-31.8766 6.15834 -31.8018 6.15882 -32.247 7.2119C-32.7908 8.5118 -33.1479 9.537 -34.1265 10.165C-34.0685 11.2116 -34.79 12.2464 -35.1 12.8925C-35.3814 13.4732 -35.4145 14.16 -35.6517 14.7958C-36.1437 15.9324 -36.7844 16.9986 -37.5569 17.9666C-36.857 19.3802 -38.3179 20.1639 -38.6967 21.1146C-38.9056 21.6441 -38.7353 22.4375 -38.9234 23.0565C-39.0538 23.4888 -39.392 23.8114 -39.4982 24.1942C-39.6388 24.7293 -39.461 25.4054 -39.6993 25.9181C-37.7535 26.9291 -38.0777 30.2576 -40.2662 30.773C-41.2184 30.5813 -42.0399 30.174 -43.062 30.3395C-43.5848 30.4394 -44.0361 30.8546 -44.5557 30.9315C-44.8261 30.9832 -45.1487 30.8203 -45.4195 30.8309C-46.8294 30.8836 -47.5887 31.8773 -48.6599 32.3138C-48.3745 32.7712 -48.0499 33.1987 -48.2022 34.0052C-48.5627 34.0741 -48.3947 33.7018 -48.5985 33.6324C-48.8125 34.8394 -48.5864 35.9251 -48.5196 36.7047C-48.4628 37.3927 -48.7145 38.2067 -48.6523 38.7666C-48.5684 39.5579 -47.8825 40.1745 -48.5451 40.6375C-49.5 40.5883 -50.3142 40.7662 -51.0679 40.6747C-51.4784 40.6187 -51.8992 40.2357 -52.325 40.1975C-52.9674 40.1408 -53.7409 40.6101 -54.2696 39.9749C-54.6228 39.9452 -54.5557 40.4331 -55.0656 40.2092C-55.3497 39.8374 -54.682 39.9678 -54.6667 39.5986C-55.531 38.9864 -56.1498 38.5252 -57.2771 38.5314C-57.6508 38.5318 -57.9161 38.8254 -58.3 38.8502C-58.6104 38.8724 -58.9222 38.8411 -59.222 38.7575L-49.3797 68.1998C-48.6362 67.9643 -47.5482 68.0065 -46.6973 67.7467C-45.3484 67.3356 -43.8449 66.7943 -42.7002 66.3513C-42.2806 65.5522 -41.5848 64.933 -40.7425 64.6092C-40.1386 63.8584 -39.8446 62.894 -39.2488 62.1597C-39.1163 61.9924 -38.9476 61.8781 -38.7521 61.6688C-38.3163 61.2118 -38.1256 60.7043 -37.71 60.2586C-37.5034 60.0486 -37.2523 59.8877 -36.9753 59.7875C-36.6983 59.6874 -36.4023 59.6504 -36.1091 59.6797C-36.0418 57.9401 -35.341 56.5429 -34.4538 55.8277C-33.5666 55.1125 -33.8486 55.3383 -32.6709 55.5954C-31.4932 55.8524 -31.2784 56.0768 -30.3591 56.4094C-29.6557 56.6487 -28.7538 56.6557 -28.1158 56.8851C-27.6335 57.062 -27.2279 57.6198 -26.8945 57.6831C-26.4028 57.7723 -25.8945 57.421 -25.4524 57.4075C-24.9798 57.7881 -24.0636 57.8896 -23.3914 58.4151C-23.1289 58.6154 -23.0121 59.0116 -22.7263 59.256C-21.8744 59.9789 -20.4895 60.8506 -20.7608 62.1097C-20.9175 62.8348 -21.6257 62.727 -21.7097 63.6363C-21.6339 64.033 -21.105 64.0629 -20.933 64.4934C-20.8575 64.6733 -21.0232 64.862 -20.8873 65.0453C-20.6689 65.3474 -20.2922 65.4023 -20.0982 65.7913C-19.5703 66.8527 -19.8352 68.4581 -19.4772 69.7837C-19.1563 70.9744 -18.5121 71.8419 -18.4186 72.8593C-18.2734 73.052 -18.575 73.3899 -18.5313 73.8338C-17.4412 74.3954 -17.5849 75.7944 -17.1316 76.8365C-16.8908 77.3922 -16.3249 77.6353 -16.3099 78.2416C-14.4697 78.9737 -13.7268 80.5734 -13.6636 82.7029C-13.0902 83.3267 -12.5841 84.0091 -12.1534 84.7388C-11.737 85.4515 -11.5188 86.5535 -11.0041 87.0569C-10.7964 87.2638 -10.1619 87.3968 -9.77092 87.6435C-9.37998 87.8902 -9.02428 88.3043 -8.66037 88.4291C-7.89237 88.6934 -6.92647 88.6248 -5.98484 88.9568C-5.85602 89.1436 -5.68878 89.3006 -5.49437 89.4175C-5.29997 89.5344 -5.08293 89.6083 -4.85761 89.6345C-4.81351 89.8653 -4.63006 89.9648 -4.72873 90.3088C-3.9831 89.9869 -3.78475 90.7901 -3.28067 91.0226C-2.77659 91.2552 -2.45585 91.0369 -2.0111 91.3891C-1.62301 91.4645 -1.66793 90.9948 -1.33138 91.0351C-1.20229 91.2609 -0.837102 91.3142 -0.842732 91.6367C-0.330631 91.266 0.290617 91.7006 0.91039 91.6195C1.40981 91.554 1.79978 91.1505 2.28447 91.1251C4.04103 91.0286 5.47731 91.8566 6.59966 92.6063C6.46668 93.0055 6.67134 93.1382 6.60649 93.4832C6.94118 93.5725 6.88844 93.1789 7.28431 93.3537C7.23212 94.4101 8.30579 94.7879 9.3409 94.4556C9.08797 93.6406 10.1126 93.3701 10.5034 92.9515C10.5088 92.4908 10.1474 92.3207 10.318 91.7274C11.6331 91.9022 11.1799 89.8434 12.6816 90.2516C13.1791 89.0614 13.324 87.9426 14.1559 87.036C14.6049 87.0586 14.5654 87.2232 14.9197 87.1218C15.5411 86.3453 16.2426 85.46 17.1449 85.0782C18.1817 84.6371 18.5947 85.1749 19.0156 85.9503C19.3878 86.6267 19.4594 87.6854 20.1912 88.0539C21.6491 88.7993 22.7427 87.6 23.9773 87.5098C24.5593 87.4659 24.6769 87.8658 25.5976 87.6973C25.9774 87.7293 25.7064 88.2668 26.0855 88.2953C27.1807 88.6877 27.5884 89.589 28.3428 90.5249C28.7502 91.0338 29.1778 91.8044 29.5799 92.0901C29.982 92.3757 30.4996 92.2881 30.8399 92.5631C32.3171 93.8206 31.1724 97.4704 33.5812 98.1275C36.7089 98.9873 36.7834 94.9777 38.4025 93.4387C39.0483 93.4348 39.2859 92.9185 39.7819 92.8349C40.2778 92.7513 40.5718 93.0576 41.1622 93.2138C41.6175 93.2501 41.699 92.816 42.2798 93.0002C43.5693 94.0768 45.4945 94.3742 46.7091 95.3717C46.9621 95.5812 47.0875 95.9832 47.3749 96.216C47.9384 96.6615 48.8138 96.9018 49.4205 97.4361C49.622 97.6106 49.6068 97.9611 49.7781 98.1339C50.2609 98.5176 50.7687 98.8687 51.2981 99.185C51.9846 99.5509 53.5017 99.844 54.0324 100.157C55.1368 100.813 55.5276 102.779 55.6271 104.278C55.7135 105.629 55.3481 107.022 55.3872 108.184C55.4262 109.347 56.0616 110.481 56.0987 111.438C56.1057 111.631 55.9229 111.887 55.9134 112.072C55.8635 113.374 56.5649 114.19 56.7358 115.338C56.9067 116.486 56.6553 117.342 56.5261 118.151C56.4291 118.877 56.4835 119.615 56.686 120.318L59.682 119.316C59.6009 118.95 59.4405 118.521 59.3453 118.121ZM88.0402 95.7506C88.1242 95.7794 88.1343 95.8709 88.2407 95.8805C88.2538 95.949 88.2236 96.0259 88.2151 96.0985L87.8937 96.0589C87.8822 95.8817 88.0174 95.8857 88.0402 95.7506ZM87.2443 -1.75591C88.4843 -0.957638 88.973 1.42332 88.4364 2.97599C87.5576 1.7798 87.2694 0.115477 87.2443 -1.75591ZM21.47 -76.6105C20.7918 -76.8547 20.5153 -77.852 20.8242 -78.5427C21.5091 -78.3223 21.8347 -77.3418 21.47 -76.6105ZM24.6158 -83.7897C25.2398 -83.6922 25.2264 -82.7851 24.9899 -82.3213C24.0632 -82.204 24.0339 -83.5888 24.6158 -83.7897ZM55.2187 78.7172C55.6512 78.4776 55.583 79.4696 55.6315 79.8603C55.2262 79.6948 55.4891 78.9982 55.2187 78.7172ZM13.642 -33.2404L14.5057 -33.1401C14.6729 -32.8304 14.7405 -32.4767 14.6993 -32.1271C14.4544 -32.0404 14.1947 -32.003 13.9353 -32.0176C13.6759 -32.0322 13.422 -32.0984 13.1883 -32.2121C13.1948 -32.5992 13.354 -32.968 13.6311 -33.2383L13.642 -33.2404ZM-57.5849 42.3765C-57.9527 42.2114 -57.7691 41.6082 -58.0116 41.3368C-57.9802 41.2075 -57.8043 41.2673 -57.6726 41.2721C-57.6586 41.6581 -57.4974 41.915 -57.5849 42.3765ZM-46.1525 39.2159C-46.9541 38.2479 -47.1738 36.8247 -47.4616 35.4557C-46.499 35.8585 -45.7954 37.7798 -46.1417 39.2139L-46.1525 39.2159ZM8.57897 50.5822C8.29024 50.4206 8.31239 50.0088 8.25121 49.6692C8.68049 49.7254 8.46912 50.2816 8.59105 50.5871L8.57897 50.5822ZM9.83891 49.1975C9.85137 49.0867 9.86455 48.9797 9.8741 48.8732L10.1992 48.9119C10.205 49.1574 10.0826 49.2406 9.86056 49.1934L9.83891 49.1975ZM13.1278 47.2835C13.0395 47.2517 13.0196 47.3039 13.0075 47.3773L12.7939 47.3546C12.8249 47.2627 12.7725 47.2428 12.6956 47.2314L12.7218 47.0169C12.8137 47.0479 12.83 46.9965 12.8414 46.9196C12.9148 46.9317 12.9867 46.9365 13.0593 46.9451C13.0276 47.0333 13.08 47.0532 13.154 47.0689L13.1278 47.2835ZM-9.151 -22.0856C-9.66407 -23.206 -8.5219 -23.3496 -7.39179 -23.0872C-7.21615 -22.833 -7.29364 -22.3585 -7.05984 -22.1714C-7.48192 -21.7207 -8.58623 -21.7116 -9.14226 -22.0986L-9.151 -22.0856ZM1.07256 -33.585C0.0272976 -34.342 -0.160995 -36.2459 -0.525832 -37.2749C-0.536847 -37.2911 -0.544357 -37.3093 -0.548032 -37.3285C-0.551706 -37.3478 -0.551471 -37.3676 -0.5472 -37.3867C-0.540308 -37.3507 -0.532723 -37.311 -0.525832 -37.2749C-0.425473 -37.1409 -0.144345 -37.019 -0.0785008 -36.8896C-0.012657 -36.7602 -0.303818 -36.7978 -0.305195 -36.805C-0.0735837 -36.0233 1.37241 -35.0663 1.08131 -33.598L1.07256 -33.585ZM8.48224 -35.1322C8.10009 -35.0591 7.91172 -35.4193 7.3287 -35.5957C6.27754 -35.9143 5.0997 -35.6443 5.16288 -36.7216C5.88656 -36.7478 6.35623 -36.871 7.01056 -36.6148C7.31764 -36.4941 7.55463 -36.0947 7.82591 -36.083C8.71035 -36.0503 8.77462 -37.0828 9.81626 -37.166C9.74546 -36.4611 9.34578 -35.2674 8.49098 -35.1451L8.48224 -35.1322Z" fill="#60C9EB"/>
<path d="M104.427 86.1265C104.729 89.3465 92.5358 89.6998 87.8487 97.1436C86.098 99.9299 83.7151 106.799 83.4536 108.422C83.3792 108.985 83.1392 109.512 82.7641 109.937C82.3777 110.336 81.8816 110.612 81.3385 110.729C81.0866 110.774 80.83 110.785 80.5752 110.763C79.2628 110.603 78.3123 108.093 78.2392 107.886C76.9284 104.332 77.3063 101.05 76.7206 98.9044C74.9862 92.6842 64.8678 95.7204 54.3342 87.1792C52.2996 85.5274 49.3754 82.7413 46.2597 83.3517C45.1096 83.5715 43.8216 84.2812 40.8176 84.8703C39.4873 85.1245 38.5476 85.1547 38.1183 85.2741C35.3076 86.0729 33.8239 87.8515 28.1507 89.3731C19.8923 91.5831 16.8986 89.4493 14.1594 92.4209C14.1594 92.4209 10.9267 95.9576 8.22269 97.6667C6.58126 98.698 6.56239 98.2082 5.58097 98.9975C3.82252 100.414 2.44533 106.503 2.44533 106.503C1.16006 112.116 -0.397673 112.784 0.394633 113.996C1.74052 116.053 6.04484 113.664 10.3607 116.674C11.0505 117.155 12.6964 118.298 12.5313 119.682C12.4203 120.627 11.4645 121.609 10.436 121.839C10.1366 121.903 9.82788 121.907 9.52678 121.853C8.86604 121.758 5.38459 121.276 4.81702 122.159C4.3347 122.92 6.29575 124.167 7.39174 127.672C8.16668 130.163 7.66044 131.033 7.3523 131.376C7.1363 131.602 6.87465 131.78 6.58478 131.897C6.54745 131.959 6.49587 132.011 6.43436 132.05C6.37284 132.088 6.30321 132.111 6.23097 132.118C5.52653 132.222 4.80733 132.097 4.17877 131.762C1.89848 130.468 -3.61106 124.517 -8.00407 122.961C-13.2166 121.105 -17.0239 125.41 -19.9608 122.772C-21.3097 121.579 -22.0592 119.301 -21.3459 117.714C-20.0326 114.81 -15.2193 116.883 -10.1601 113.674C-8.15964 112.41 -6.64923 109.266 -3.60759 102.988C-2.70859 101.142 -1.6014 98.6059 -2.53002 97.6771C-2.63876 97.5735 -2.76606 97.4914 -2.9052 97.4349C-4.66015 96.5819 -5.69241 94.3873 -5.88167 94.0423C-7.23762 91.5619 -16.4293 90.1008 -19.1466 89.5699C-20.8397 89.2357 -34.9881 85.9674 -42.7945 76.3667C-43.8154 75.1117 -46.4549 71.6246 -48.0704 72.2248C-49.2886 72.6744 -48.8137 74.983 -50.6406 76.2367C-51.3828 76.6893 -52.2327 76.9346 -53.1019 76.9469C-53.9711 76.9592 -54.8276 76.7381 -55.5823 76.3066C-58.2521 74.6753 -57.5648 70.7244 -59.0524 70.4294C-60.54 70.1344 -61.3234 74.3842 -64.8791 76.1925C-68.8505 78.211 -73.6973 75.8446 -74.4757 75.4477C-79.6477 72.8071 -81.8207 67.0295 -82.5718 65.0353C-84.1378 60.8497 -83.6189 58.5979 -85.9947 56.5105C-87.7231 54.9946 -88.913 55.3975 -91.6004 54.319C-91.9678 54.1762 -100.346 50.6945 -101.666 43.3972C-102.629 38.1023 -99.3543 33.653 -98.7702 32.8575C-95.699 28.69 -92.9328 29.574 -91.7113 26.8738C-89.0262 20.9601 -101.176 14.1889 -99.6853 5.52478C-98.7868 0.273907 -93.1707 -3.24724 -89.4108 -4.51523C-79.5817 -7.83272 -67.4342 -0.799834 -61.3752 7.65478C-54.8025 16.8222 -57.6988 24.4469 -50.9449 28.1493C-44.8351 31.4927 -36.4518 28.5487 -36.3671 27.2319C-36.3114 26.3504 -40.0206 26.3383 -42.071 23.1572C-43.5154 20.9179 -43.2821 18.4438 -43.2126 17.8101C-42.8415 14.3942 -40.4821 12.0559 -39.4915 11.1191C-31.0462 3.02429 -6.44268 -1.96179 1.89128 -14.6472C11.2347 -28.8748 2.37519 -56.2251 9.20204 -64.3805C9.60418 -64.8573 11.4379 -66.9158 10.8272 -68.5669C10.06 -70.6253 6.33117 -69.7819 3.23476 -71.6905C-1.99069 -74.9038 -3.96671 -85.0469 -0.316849 -89.3735C2.91628 -93.2019 9.1304 -90.7792 10.2469 -93.4817C11.8969 -97.4597 -1.38484 -103.173 -0.68037 -110.828C-0.249014 -115.492 5.37499 -120.361 10.8708 -119.897C15.5343 -119.507 19.3661 -115.433 20.3508 -111.708C20.9353 -109.51 20.588 -107.201 21.1121 -107.118C21.6362 -107.035 21.9253 -109.453 23.4242 -111.249C25.657 -113.918 30.0243 -114.588 32.6047 -114.05C41.612 -112.146 48.7572 -94.0586 43.4614 -84.6185C41.7421 -81.5504 38.7361 -79.466 39.5354 -77.3763C40.2742 -75.4656 43.1643 -76.201 47.2253 -74.6226C55.6416 -71.3725 55.9878 -63.265 63.7532 -61.7779C64.0213 -61.7245 64.3348 -61.6872 64.3348 -61.6872C65.6564 -61.5011 66.991 -61.4238 68.3252 -61.4558C70.0207 -61.4809 77.5975 -61.606 78.677 -58.9494C79.1988 -57.6663 78.0315 -56.0116 75.6933 -52.7019C73.2662 -49.2705 72.4728 -49.3544 71.8401 -47.8357C70.4592 -44.522 72.9151 -40.9399 76.1429 -35.0986C78.5027 -30.8068 80.2884 -26.2149 82.6143 -21.9055C88.3964 -11.2041 94.9589 18.2445 83.3253 39.6895C79.0776 47.5164 72.6703 59.3331 66.8541 64.9558C65.9104 65.8836 63.7488 67.8104 62.7276 71.0703C62.456 71.9369 60.823 76.1993 62.29 80.258C64.954 87.6273 76.5661 91.0964 81.3684 87.6969C85.5878 84.7079 85.2001 78.2603 88.8061 77.9075C90.6872 77.7199 93.2068 79.3087 93.3287 80.5524C93.4125 81.0787 93.4167 81.6146 93.341 82.1421C93.3101 82.8207 93.2415 83.0882 93.3195 83.32C93.3459 83.3812 93.3772 83.44 93.413 83.4963C93.8224 84.1132 97.1661 82.9362 99.4819 83.1065C101.559 83.3 104.293 84.6983 104.427 86.1265Z" fill="#E96262"/>
</g>
<path d="M84.9852 134.734C118.94 128.244 141.205 95.4535 134.714 61.4936C128.224 27.5336 95.4359 5.26443 61.4809 11.754C27.526 18.2436 5.2616 51.0344 11.7521 84.9944C18.2426 118.954 51.0302 141.223 84.9852 134.734Z" stroke="#626262" stroke-width="5.56471"/>
</svg>
