<?xml version="1.0" encoding="utf-8"?>
<!-- Generator: Adobe Illustrator 25.4.1, SVG Export Plug-In . SVG Version: 6.00 Build 0)  -->
<svg version="1.1" id="Слой_1" xmlns="http://www.w3.org/2000/svg" xmlns:xlink="http://www.w3.org/1999/xlink" x="0px" y="0px"
	 viewBox="0 0 327 87" style="enable-background:new 0 0 327 87;" xml:space="preserve">
<style type="text/css">
	.st0{fill:#FFFFFF;}
	.st1{fill:#FFE600;}
	.st2{fill:#FFE600;stroke:#FFE600;stroke-width:1.7095;}
	.st3{fill:#FEFEFE;}
	.st4{fill:#FEFEFD;}
	.st5{fill:#F8E9D6;}
	.st6{fill:#FBF4EA;}
</style>
<path class="st0" d="M256.1,72.7c5.1,0,7.1,4.8,6.4,8.8c10-0.8,24.6-1.8,37.2-2.7c-0.2-0.4-0.4-0.8-0.6-1.3
	c-0.4-0.9-0.6-1.8-0.6-2.7c0-0.9,0.2-1.9,0.6-2.7c0.3-0.9,0.7-1.6,1.4-2.3l0.2-0.2c0.8-0.9,1.8-1.5,3-1.8l1.8-0.3
	c1.2,0,2.4,0.3,3.4,1l1.4,1.1c0.7,0.6,1.1,1.4,1.4,2.3c0.4,0.9,0.6,1.8,0.6,2.7c0,0.9-0.2,1.9-0.6,2.7c-0.1,0.2-0.2,0.5-0.3,0.7
	l13.7-0.9c0,0-9.6-10.5-10.8-12.2c-1.2-1.7-26.9-26.2-26.9-26.2L319,7.1l-33.7-2.9c-8-0.7-36.6-0.3-44.3,0c-3,0.1-14.3,0.4-27,0.7
	c0.5,3.9-1.6,8.3-6.4,8.3c-4.8,0-6.8-4.2-6.5-8c-15.7,0.4-30.4,0.7-32.2,0.7c-3.8,0-90.8,0.7-99.7,1C66.6,7,60.4,7.1,52.7,7.1
	c0.7,0.8,1.2,1.8,1.5,2.8l0.2,1.9c0,0.9-0.2,1.9-0.6,2.7c-0.3,0.9-0.7,1.7-1.4,2.3c-0.6,0.7-1.3,1.2-2.2,1.5
	c-0.8,0.4-1.7,0.6-2.5,0.6h-0.2c-1.2,0-2.4-0.3-3.4-1l-1.4-1.1c-0.8-0.9-1.4-2-1.7-3.1l-0.2-1.9c0-0.9,0.2-1.9,0.6-2.7
	c0.2-0.7,0.6-1.4,1.1-2C24.9,7.1,5.6,6.9,5.6,6.9s9.1,12.2,14.8,17.9c2.5,2.5,7.9,7.2,13.1,11.7l0.8-1.1c0.8-0.8,1.8-1.4,2.9-1.7
	l1.8-0.3c0.9,0,1.8,0.2,2.5,0.6c0.8,0.3,1.6,0.8,2.2,1.5c0.7,0.6,1.1,1.4,1.4,2.3c0.4,0.8,0.6,1.8,0.6,2.7v0.2
	c0,1.3-0.3,2.5-0.9,3.6L44,45.5l2.8,2.3l-2.4,2.8l-13.7,7.8L7.8,80.3c0,0,35.6,0.7,42,1c4.2,0.2,33.7,0.9,55.6,1.3
	c-0.1-3.6,2.1-7.3,6.5-7.3c4.4,0,6.6,3.8,6.5,7.5c5,0,8.7,0,10.3,0c3-0.1,18.4,0,37.4,0.2v-0.1c0-1.3,0.3-2.5,0.9-3.6
	c0.4-0.5,0.7-1,1.1-1.4c0.6-0.7,1.3-1.2,2.2-1.5c0.8-0.4,1.7-0.6,2.6-0.6s1.8,0.2,2.6,0.6c0.8,0.3,1.6,0.8,2.2,1.5l0.2,0.2
	c0.8,0.9,1.4,2,1.7,3.1l0.2,1.8c29.8,0.2,62.8,0.4,70.3-0.2C248.5,78.6,250.5,72.7,256.1,72.7z M282.2,13c8.7,0,8.7,14.2,0,14.2
	C273.5,27.2,273.5,13,282.2,13L282.2,13z M262.2,54.2c0-1.3,0.3-2.5,0.9-3.6c0.4-0.5,0.7-1,1.1-1.4c0.8-0.9,1.8-1.5,3-1.8l1.8-0.3
	c0.9,0,1.8,0.2,2.5,0.6c0.8,0.3,1.6,0.8,2.2,1.5c0.6,0.6,1.1,1.4,1.4,2.3c0.4,0.8,0.6,1.8,0.6,2.7v0.2c0,1.3-0.3,2.5-0.9,3.6
	c-0.4,0.5-0.7,1-1.1,1.4c-0.8,0.9-1.8,1.5-3,1.8l-1.8,0.3c-0.9,0-1.8-0.2-2.5-0.6c-0.8-0.3-1.6-0.8-2.2-1.5
	c-0.6-0.6-1.1-1.4-1.4-2.3c-0.4-0.8-0.6-1.8-0.6-2.7V54.2z M61.1,76.6c-8.7,0-8.7-14.2,0-14.2S69.8,76.6,61.1,76.6L61.1,76.6z
	 M86.8,38.9c-8.7,0-8.7-14.2,0-14.2S95.5,38.9,86.8,38.9L86.8,38.9z M122.4,22.6c-0.3,0.9-0.7,1.6-1.4,2.3c-1.3,1.3-3,2-4.8,2.1
	h-0.4c-1.2,0-2.4-0.3-3.4-1l-1.4-1.1c-0.8-0.9-1.4-2-1.7-3.1l-0.2-1.9c0-0.9,0.2-1.9,0.6-2.7c0.3-0.9,0.7-1.7,1.4-2.3
	c1.3-1.3,3-2,4.8-2.1h0.4c1.2,0,2.4,0.3,3.4,1l1.4,1.1c0.8,0.9,1.4,2,1.7,3.1l0.2,1.9C123,20.9,122.9,21.8,122.4,22.6L122.4,22.6z
	 M138.9,58.3c-0.3,0.9-0.7,1.6-1.4,2.3l-0.2,0.2c-0.8,0.9-1.8,1.5-3,1.8l-1.8,0.3c-1.2,0-2.4-0.3-3.4-1l-1.4-1.1
	c-0.6-0.6-1.1-1.4-1.4-2.3c-0.4-0.9-0.6-1.8-0.6-2.7c0-0.9,0.2-1.9,0.6-2.7c0.3-0.9,0.7-1.7,1.4-2.3l0.2-0.2c0.8-0.9,1.8-1.5,3-1.8
	l1.8-0.3c1.2,0,2.4,0.3,3.4,1c0.5,0.4,0.9,0.7,1.4,1.1c0.7,0.6,1.1,1.4,1.4,2.3c0.4,0.9,0.6,1.8,0.6,2.7
	C139.4,56.5,139.2,57.4,138.9,58.3L138.9,58.3z M168.1,29.7c-8.7,0-8.7-14.2,0-14.2C176.8,15.5,176.9,29.7,168.1,29.7L168.1,29.7z
	 M187.9,51.3c0,1.3-0.3,2.5-0.9,3.6l-1.1,1.4c-0.8,0.8-1.8,1.5-2.9,1.8l-1.8,0.3c-0.9,0-1.8-0.2-2.5-0.6c-0.8-0.3-1.6-0.8-2.2-1.5
	c-0.7-0.6-1.1-1.4-1.4-2.3c-0.4-0.8-0.6-1.8-0.6-2.7V51c0-1.3,0.3-2.5,0.9-3.6l1.1-1.4c0.8-0.9,1.8-1.5,3-1.8l1.8-0.3
	c0.9,0,1.8,0.2,2.5,0.6c0.8,0.3,1.6,0.8,2.2,1.5c0.7,0.6,1.1,1.4,1.4,2.3c0.4,0.8,0.6,1.8,0.6,2.7L187.9,51.3z M221.9,64.2
	c-8.7,0-8.7-14.2,0-14.2C230.6,50,230.6,64.2,221.9,64.2z M241.7,25.1c-0.3,0.9-0.7,1.6-1.4,2.3l-0.4,0.5c-0.8,0.9-1.8,1.5-3,1.8
	l-1.8,0.3c-1.2,0-2.4-0.3-3.4-1l-1.4-1.1c-0.6-0.6-1.1-1.4-1.4-2.3c-0.4-0.9-0.6-1.8-0.6-2.7c0-0.9,0.2-1.9,0.6-2.7
	c0.3-0.9,0.7-1.6,1.4-2.3l0.4-0.5c0.8-0.9,1.8-1.5,3-1.8l1.8-0.3c1.2,0,2.4,0.3,3.4,1l1.4,1.1c0.6,0.6,1.1,1.4,1.4,2.3
	c0.4,0.9,0.6,1.8,0.6,2.7C242.2,23.3,242,24.2,241.7,25.1L241.7,25.1z"/>
<path class="st1" d="M40.7,11.8l0.2,1.9c0.3,1.2,0.9,2.3,1.7,3.1l1.4,1.1c1,0.6,2.2,1,3.4,1h0.2c0.9,0,1.8-0.2,2.5-0.6
	c0.8-0.3,1.6-0.8,2.2-1.5c0.7-0.6,1.1-1.4,1.4-2.3c0.4-0.8,0.6-1.8,0.6-2.7l-0.2-1.9c-0.3-1-0.8-2-1.5-2.8H42.3
	c-0.5,0.6-0.9,1.2-1.1,2C40.8,9.9,40.7,10.9,40.7,11.8z"/>
<path class="st1" d="M86.8,24.7c-8.7,0-8.7,14.2,0,14.2S95.5,24.7,86.8,24.7z"/>
<path class="st1" d="M61.1,62.4c-8.7,0-8.7,14.2,0,14.2C69.8,76.6,69.8,62.4,61.1,62.4z"/>
<path class="st1" d="M112,75.2c-4.4,0-6.6,3.7-6.5,7.3c4.8,0.1,9.3,0.1,13,0.2C118.7,79,116.5,75.2,112,75.2z"/>
<path class="st1" d="M121.1,14.9l-1.4-1.1c-1-0.6-2.2-1-3.4-1h-0.4c-1.8,0.1-3.5,0.8-4.8,2.1c-0.7,0.6-1.1,1.4-1.4,2.3
	c-0.4,0.8-0.6,1.8-0.6,2.7l0.2,1.9c0.3,1.2,0.9,2.3,1.7,3.1l1.4,1.1c1,0.6,2.2,1,3.4,1h0.4c1.8-0.1,3.5-0.8,4.8-2.1
	c0.6-0.6,1.1-1.4,1.4-2.3c0.4-0.8,0.6-1.8,0.6-2.7l-0.2-1.9C122.5,16.9,121.9,15.8,121.1,14.9L121.1,14.9z"/>
<path class="st1" d="M168.2,15.5c-8.7,0-8.7,14.2,0,14.2C176.9,29.7,176.9,15.5,168.2,15.5z"/>
<path class="st1" d="M137.5,50.5c-0.4-0.4-0.9-0.8-1.4-1.1c-1-0.6-2.2-1-3.4-1l-1.8,0.3c-1.1,0.3-2.2,1-3,1.8l-0.2,0.2
	c-0.6,0.6-1.1,1.4-1.4,2.3c-0.4,0.9-0.6,1.8-0.6,2.7c0,0.9,0.2,1.9,0.6,2.7c0.3,0.9,0.7,1.7,1.4,2.3l1.4,1.1c1,0.6,2.2,1,3.4,1
	l1.8-0.3c1.1-0.3,2.2-1,3-1.8l0.2-0.2c0.7-0.6,1.1-1.4,1.4-2.3c0.4-0.9,0.6-1.8,0.6-2.7c0-0.9-0.2-1.9-0.6-2.7
	C138.6,51.9,138.2,51.1,137.5,50.5L137.5,50.5z"/>
<path class="st1" d="M177.9,78l-0.2-0.2c-0.6-0.7-1.3-1.2-2.2-1.5c-0.8-0.4-1.7-0.6-2.6-0.6s-1.8,0.2-2.6,0.6
	c-0.8,0.3-1.6,0.8-2.2,1.5c-0.4,0.5-0.7,1-1.1,1.4c-0.6,1.1-0.9,2.3-0.9,3.6v0.1l13.7,0.1l-0.2-1.8C179.4,79.9,178.8,78.9,177.9,78
	L177.9,78z"/>
<path class="st1" d="M221.9,50c-8.7,0-8.7,14.2,0,14.2C230.6,64.2,230.6,50,221.9,50z"/>
<path class="st1" d="M240.3,17.3l-1.4-1.1c-1-0.6-2.2-1-3.4-1l-1.8,0.3c-1.1,0.3-2.2,1-3,1.8l-0.4,0.5c-0.6,0.6-1.1,1.4-1.4,2.3
	c-0.4,0.9-0.6,1.8-0.6,2.7c0,0.9,0.2,1.9,0.6,2.7c0.3,0.9,0.7,1.6,1.4,2.3l1.4,1.1c1,0.6,2.2,1,3.4,1l1.8-0.3c1.1-0.3,2.2-1,3-1.8
	l0.4-0.5c0.6-0.6,1.1-1.4,1.4-2.3c0.4-0.9,0.6-1.8,0.6-2.7c0-0.9-0.2-1.9-0.6-2.7C241.4,18.7,241,17.9,240.3,17.3L240.3,17.3z"/>
<path class="st1" d="M282.2,27.3c8.7,0,8.7-14.2,0-14.2C273.5,13.1,273.5,27.3,282.2,27.3z"/>
<path class="st1" d="M207.6,13.3c4.8,0,7-4.4,6.4-8.3l-12.9,0.3C200.7,9.1,202.9,13.3,207.6,13.3z"/>
<path class="st1" d="M186,46c-0.6-0.7-1.3-1.2-2.2-1.5c-0.8-0.4-1.7-0.6-2.5-0.6l-1.8,0.3c-1.1,0.3-2.2,1-3,1.8l-1.1,1.4
	c-0.6,1.1-0.9,2.3-0.9,3.6v0.2c0,0.9,0.2,1.9,0.6,2.7c0.3,0.9,0.7,1.7,1.4,2.3c0.6,0.7,1.3,1.2,2.2,1.5c0.8,0.4,1.7,0.6,2.5,0.6
	l1.8-0.3c1.1-0.3,2.2-1,3-1.8l1.1-1.4c0.6-1.1,0.9-2.3,0.9-3.6V51c0-0.9-0.2-1.9-0.6-2.7C187.2,47.4,186.7,46.6,186,46L186,46z"/>
<path class="st1" d="M256.1,72.7c-5.6,0-7.6,5.9-6,10c0.4,0,0.8-0.1,1.2-0.1c1.5-0.3,5.6-0.7,11.1-1.1
	C263.2,77.5,261.1,72.7,256.1,72.7z"/>
<path class="st1" d="M264.2,59.4c0.6,0.7,1.3,1.2,2.2,1.5c0.8,0.4,1.7,0.6,2.5,0.6l1.8-0.3c1.1-0.3,2.2-1,3-1.8
	c0.4-0.5,0.7-1,1.1-1.4c0.6-1.1,0.9-2.3,0.9-3.6v-0.2c0-0.9-0.2-1.9-0.6-2.7c-0.3-0.9-0.7-1.7-1.4-2.3c-0.6-0.7-1.3-1.2-2.2-1.5
	c-0.8-0.4-1.7-0.6-2.5-0.6l-1.8,0.3c-1.1,0.3-2.2,1-3,1.8c-0.4,0.5-0.7,1-1.1,1.4c-0.6,1.1-0.9,2.3-0.9,3.6v0.2
	c0,0.9,0.2,1.9,0.6,2.7C263,58,263.5,58.8,264.2,59.4L264.2,59.4z"/>
<path class="st1" d="M312.2,74.6c0-0.9-0.2-1.9-0.6-2.7c-0.3-0.9-0.7-1.7-1.4-2.3l-1.4-1.1c-1-0.6-2.2-1-3.4-1l-1.8,0.3
	c-1.1,0.3-2.2,1-3,1.8l-0.2,0.2c-0.6,0.6-1.1,1.4-1.4,2.3c-0.4,0.9-0.6,1.8-0.6,2.7s0.2,1.9,0.6,2.7c0.1,0.4,0.3,0.9,0.6,1.3
	l11.7-0.8c0.1-0.2,0.2-0.5,0.3-0.7C312.1,76.6,312.3,75.6,312.2,74.6L312.2,74.6z"/>
<path class="st1" d="M45.9,40.6v-0.2c0-0.9-0.2-1.9-0.6-2.7c-0.3-0.9-0.7-1.7-1.4-2.3c-0.6-0.7-1.3-1.2-2.2-1.5
	c-0.8-0.4-1.7-0.6-2.5-0.6l-1.8,0.3c-1.1,0.3-2.2,1-3,1.8l-0.8,1.1c4,3.4,8,6.8,10.5,8.9l0.9-1.2C45.6,43.1,45.9,41.9,45.9,40.6
	L45.9,40.6z"/>
<g>
	<path class="st2" d="M325.7,74.6v3c-2.4,1.5-5,2.2-7.9,2.3c-18.2,0.8-36.4,2-54.6,2.6c-24.7,0.9-49.3,1.4-74,2.1c0,0.1,0,0.2,0,0.3
		H118c0,0,0,0,0,0c-0.2,0-0.3,0-0.5,0c0-0.1,0-0.2,0-0.3c-33.9-0.5-67.7-1.8-101.5-3.1c-3-0.1-6.4,0.3-7.7-3.2
		c-1.4-3.7,1.5-5.8,3.9-7.7C20.3,64.1,28.5,57.3,37,51c3.4-2.5,3.2-3.8,0.1-6.4C25.7,34.7,15.1,24,4.7,13.1C3,11.4,1,9.3,2.3,6.6
		c1.2-2.7,3.9-2.7,6.4-2.7C17.4,3.8,26,3.3,34.6,3.6c41.5,1.5,83,0.7,124.5-0.4c45-1.2,90-2.6,134.9-0.4c7.1,0.4,14.2,1.1,21.3,1.7
		c2.2,0.2,4.4,0.7,5.2,3.1c0.8,2.3-0.7,4.1-2.2,5.7c-0.9,1-1.9,1.8-2.9,2.7c-7.4,7.1-14.8,14.2-22.3,21.1c-2.2,2-2.1,3.3,0.1,5
		c1.1,0.8,2,1.8,3,2.7C306.5,54.3,316.9,63.7,325.7,74.6z"/>
	<path class="st3" d="M117.5,85.5c0-0.2,0-0.3,0-0.5c0-0.1,0-0.2,0-0.3c0.3,0.1,0.5,0.2,0.5,0.3C118,85.2,117.9,85.3,117.5,85.5z"/>
	<path class="st4" d="M189.2,84.7c0,0.1,0,0.2,0,0.3c0,0.2,0,0.3,0,0.5c-0.4-0.2-0.6-0.3-0.5-0.5C188.8,84.9,188.9,84.8,189.2,84.7z
		"/>
	<path class="st5" d="M128.4,84.7c16.6,0,33.3,0,49.9,0c0.7,0.3,0.7,0.6,0,0.8c-16.6,0-33.2,0-49.8,0
		C127.7,85.3,127.7,85,128.4,84.7z"/>
	<path class="st6" d="M128.4,85.5h-11c0-0.2,0-0.3,0-0.5c0-0.1,0-0.2,0-0.3h11c0,0.1,0,0.2,0,0.3C128.4,85.2,128.4,85.3,128.4,85.5z
		"/>
	<path class="st6" d="M189.2,84.7c0,0.1,0,0.2,0,0.3c0,0.2,0,0.3,0,0.5h-11c0-0.2,0-0.3,0-0.5c0-0.1,0-0.2,0-0.3
		C181.9,84.7,185.6,84.7,189.2,84.7z"/>
	<path class="st3" d="M13.5,76.6c10.1-9.2,19.7-16.7,29.5-24c2.5-1.9,6.3-3.3,3-7.6c-0.4-0.5,0.3-1.8,0.5-2.8c0.9-6.1-3.6-9.9-9.4-8
		c-1.5,0.5-2.5,1.1-4-0.2C25,26.3,16.8,18.7,8.8,9.8c6.1-1.3,11.6-1.2,17.1-1.3c2.7-0.1,5.3,0.1,8,0c4.2-0.1,8.5-0.9,8.2,6
		c-0.1,3,3.1,5,6.5,4.7c3.4-0.3,6.1-2.3,5.9-5.6c-0.2-4.6,2.3-4.5,5.6-4.4c32.9,0.6,65.7-0.4,98.6-1c12.8-0.2,25.6-0.6,38.3-1
		c2.4-0.1,4.1,0.2,5,2.8c0.9,2.7,3.2,3.6,5.9,3.5c2.8-0.1,4.8-1.5,5.6-4.1c0.6-2.1,1.7-2.8,3.9-2.8c30.9-0.5,61.7,0.1,92.6,2.2
		c1.2,0.1,2.5,0.5,2.1-0.4c-8.1,8.9-16,17.9-24.3,26.7c-4.2,4.5-4.5,4.7,0.1,8.8c10.6,9.5,20.8,19.3,30.5,29.8c-5,1.9-5,1.9-7.2-2.3
		c-1.3-2.6-3.4-4-6.4-3.9c-3.2,0.2-5.6,1.9-6.1,4.9c-0.5,3.2-2.2,3.9-5.1,4c-9.1,0.3-18.2,0.7-27.4,1.2c-2.2,0.1-3.8-0.2-5.4-2.3
		c-2.8-4-7.7-3.8-10.3,0.3c-1.5,2.4-3.3,2.8-5.7,2.9c-20.4,0.4-40.8,0.8-61.2,1.2c-2.4,0.1-4.3-0.3-6.1-2.2c-2.9-3-6.4-2.7-9.2,0.2
		c-1.6,1.6-3.2,2.1-5.2,2.1c-13.8-0.1-27.6-0.1-41.3-0.1c-2,0-3.2-0.6-4.6-2.2c-2.9-3.5-6.7-3.6-9.8-0.2c-1.7,1.9-3.4,2.2-5.6,2.2
		C73,78.5,44,77.6,13.5,76.6z"/>
	<path class="st2" d="M116.5,13.3c3.9,0,6.8,3,6.9,6.9c0,3.9-3,6.9-6.9,7c-3.7,0-6.9-3.2-6.9-7C109.6,16.3,112.6,13.4,116.5,13.3z"
		/>
	<path class="st2" d="M235.4,30.1c-3.4,0.1-6.5-2.9-6.7-6.5c-0.2-4.1,3.2-8,7.1-7.9c3.5,0,6.3,3,6.4,6.8
		C242.2,26.4,239.1,30,235.4,30.1z"/>
	<path class="st2" d="M268.7,47.1c3.6-0.1,7,3.2,6.8,7.1c-0.2,3.8-2.1,6.6-6.3,7c-3.7,0.3-6.9-2.8-7.1-6.7
		C262,50.6,265.1,47.2,268.7,47.1z"/>
	<path class="st2" d="M188.2,51.3c-0.2,4-3.2,7-7.1,6.6c-4.2-0.4-6-3.1-6.1-7c0-4.1,2.9-7.1,6.7-6.9
		C185.5,44.2,188.3,47.4,188.2,51.3z"/>
	<path class="st2" d="M133.7,48.5c3.7,0.3,6.4,3.8,6,7.7c-0.3,3.7-3.9,6.8-7.4,6.5c-3.7-0.4-6.4-3.8-6-7.7
		C126.8,51,130.1,48.1,133.7,48.5z"/>
	<path class="st2" d="M168.6,15.9c3.8,0.1,6.6,3.3,6.4,7.3c-0.1,3.7-3.1,6.7-6.6,6.7c-3.8,0-6.4-3.1-6.3-7.3
		C162.3,18.5,164.9,15.8,168.6,15.9z"/>
	<path class="st2" d="M282.1,27.4c-3.8,0-6.3-2.6-6.4-6.6c-0.1-4.3,2.5-7.2,6.3-7.2c3.6,0,6.4,2.9,6.5,6.7
		C288.7,24.3,286,27.3,282.1,27.4z"/>
	<path class="st2" d="M68.3,69.2c0,4.1-2.8,7.1-6.7,6.9c-4.3-0.3-6-3-6.1-6.9c-0.1-4.1,2.8-7.2,6.6-7C65.5,62.3,68.3,65.5,68.3,69.2
		z"/>
	<path class="st2" d="M93.7,31.8c0.1,4.3-2.5,7.2-6.4,7.2c-3.5,0-6.3-3-6.5-6.8c-0.1-4,2.7-7.1,6.6-7.1
		C91.2,25.1,93.6,27.7,93.7,31.8z"/>
	<path class="st2" d="M228.3,57.7c-0.3,3.2-1.9,6-6.3,6.1c-3.8,0.1-6.7-3-6.5-7c0.1-3.8,2.9-6.8,6.4-6.8
		C225.7,49.9,228.4,53,228.3,57.7z"/>
</g>
</svg>
