<svg width="367" height="104" viewBox="0 0 367 104" fill="none" xmlns="http://www.w3.org/2000/svg">
<path d="M33.5275 30.1234C26.8593 25.2843 22.1752 21.1712 15.4974 16.3612C36.7891 13.1352 58.1129 10.5317 79.4691 8.55098C91.9731 7.38961 104.484 6.42181 117.001 5.64756C142.744 4.11198 168.513 3.45065 194.309 3.66357C206.871 3.77325 219.423 4.09585 231.966 4.63137C255.426 5.57981 278.856 7.24447 302.258 9.62526C313.529 10.7544 324.798 12.0448 336.063 13.4965C343.676 14.4965 351.283 15.5643 358.884 16.6999C356.842 19.2936 353.774 22.3131 351.732 24.9069C355.1 26.9489 358.139 30.1911 361.41 32.6493C362.058 33.1529 362.734 33.6214 363.432 34.0526C358.516 38.9497 352.148 46.847 347.212 51.7537C351.499 54.8507 355.119 59.4091 359.126 63.0964C360.132 64.0381 361.196 64.9172 362.31 65.7288C356.503 71.284 350.696 76.3747 344.957 81.8912C352.961 85.0075 355.855 90.6014 361.139 97.376C343.073 98.0212 325.027 98.5406 307 98.9342C292.16 99.2761 277.32 99.5472 262.481 99.7472C246.08 99.9794 229.672 100.125 213.258 100.183C198.941 100.228 184.618 100.228 170.288 100.183C148.267 100.067 126.243 99.7988 104.216 99.3794C91.428 99.1342 78.6367 98.8406 65.8423 98.4987C54.8739 98.2083 43.9313 97.8857 33.0145 97.5309C35.2211 93.4467 37.4857 87.427 39.702 83.3332C36.5663 83.0913 33.2565 82.7525 29.8691 82.3654C21.217 81.3976 12.052 80.1975 4.05789 79.5684C15.1102 68.9226 29.1626 56.9606 40.2149 46.3244C39.402 46.0534 38.5698 45.7631 37.7181 45.4437C31.0113 43.0145 23.2978 39.5111 16.8813 37.3722C22.4946 35.0688 28.011 32.3493 33.5275 30.1234Z" fill="#FFE600"/>
<path d="M185.143 1.30948C243.433 1.3374 301.64 5.7111 359.28 14.3942C359.684 14.4559 360.066 14.6223 360.387 14.877C360.708 15.1316 360.957 15.4656 361.109 15.8459C361.262 16.227 361.311 16.6418 361.252 17.0481C361.192 17.4545 361.026 17.8378 360.77 18.159C359.696 19.5429 358.36 21.014 357.063 22.4366C356.454 23.1044 355.825 23.7819 355.244 24.4497C356.608 25.4852 357.915 26.6175 359.192 27.7402C360.901 29.3229 362.737 30.7633 364.68 32.0469C364.985 32.2297 365.244 32.4801 365.437 32.7787C365.63 33.0774 365.752 33.4164 365.793 33.7696C365.833 34.1224 365.794 34.4799 365.676 34.8151C365.559 35.1503 365.367 35.4546 365.115 35.7052C362.715 38.1053 359.87 41.3281 357.121 44.4154C354.973 46.8446 352.776 49.3415 350.734 51.4998C352.766 53.2224 354.605 55.1774 356.483 57.084C358.692 59.5297 361.111 61.7771 363.712 63.8006C363.988 64.0025 364.216 64.2621 364.381 64.5612C364.546 64.8603 364.644 65.1919 364.668 65.5327C364.692 65.8735 364.641 66.2155 364.52 66.5347C364.398 66.854 364.208 67.1429 363.964 67.3814C361.06 70.1881 358.099 72.8979 355.254 75.511C353.231 77.3595 351.16 79.2564 349.108 81.192C354.17 83.9889 357.083 87.9666 360.383 92.3701C361.215 93.5025 362.086 94.6735 363.035 95.8833C363.3 96.2244 363.466 96.6321 363.515 97.0615C363.564 97.4909 363.493 97.9255 363.311 98.3176C363.129 98.7096 362.843 99.0438 362.483 99.2836C362.124 99.5235 361.705 99.6596 361.273 99.6771C252.405 103.422 141.959 103.451 32.9942 99.7738C32.5978 99.7579 32.212 99.6412 31.8733 99.4345C31.5346 99.2279 31.2542 98.9383 31.0586 98.5932C30.8654 98.2435 30.7642 97.8506 30.7642 97.4512C30.7642 97.0517 30.8654 96.6588 31.0586 96.3092C32.1135 94.3735 33.2266 91.8475 34.3008 89.428C34.9202 88.0344 35.5492 86.6117 36.1783 85.2665C31.4845 84.831 26.5002 84.2406 21.6031 83.6599C15.6318 82.9535 9.46691 82.2276 3.97947 81.7921C3.52937 81.7559 3.09933 81.5904 2.74112 81.3155C2.38291 81.0405 2.1118 80.668 1.96045 80.2426C1.8091 79.8171 1.78406 79.357 1.88815 78.9176C1.99223 78.4782 2.22102 78.0783 2.54713 77.766C8.08297 72.4431 14.451 66.704 20.616 61.1585C25.7937 56.4937 31.1167 51.703 35.946 47.1447C33.2749 46.1769 30.4877 45.0155 27.7585 43.9026C23.8873 42.3154 19.7933 40.6701 16.2511 39.4894C15.7979 39.3344 15.4028 39.0447 15.1187 38.659C14.8345 38.2733 14.6749 37.8101 14.6612 37.3312C14.6475 36.8524 14.7804 36.3808 15.0421 35.9795C15.3038 35.5783 15.6818 35.2665 16.1254 35.0859C18.8643 33.9923 21.6613 32.7437 24.3615 31.534C25.8616 30.8662 27.3907 30.1888 28.9295 29.521C26.9164 28.0015 25.0583 26.5305 23.2195 25.0884C20.4322 22.8915 17.5579 20.6172 14.248 18.2267C13.8699 17.9584 13.5799 17.5839 13.4148 17.1507C13.2498 16.7175 13.2172 16.2451 13.3208 15.7932C13.4244 15.3414 13.6597 14.9305 13.997 14.6125C14.3344 14.2946 14.7586 14.0838 15.2158 14.0071C71.4601 5.52425 128.262 1.27977 185.143 1.30948V1.30948ZM354.373 18.4105C242.766 2.05466 130.81 1.87083 21.4484 17.8493C23.0452 19.0687 24.555 20.2591 26.0357 21.4301C28.794 23.6077 31.6489 25.853 34.9298 28.2047C35.27 28.4503 35.538 28.7828 35.7057 29.1673C35.8735 29.5519 35.9349 29.9745 35.8834 30.3909C35.832 30.8073 35.6697 31.2022 35.4135 31.5343C35.1572 31.8665 34.8162 32.1238 34.4265 32.2792C31.6876 33.3825 28.8907 34.6213 26.1905 35.831L23.2871 37.1182C25.3098 37.9022 27.381 38.7442 29.4134 39.5668C33.3523 41.1637 37.4171 42.8186 40.9689 43.9993C41.3516 44.1292 41.6947 44.3548 41.9658 44.6546C42.2368 44.9544 42.4267 45.3185 42.5175 45.7123C42.6079 46.1064 42.5937 46.5173 42.4766 46.9043C42.3595 47.2913 42.1435 47.6411 41.8497 47.919C36.2752 53.2806 29.8586 59.0584 23.6453 64.6523C18.874 68.9493 13.9673 73.3625 9.4477 77.6015C13.5512 78.008 17.8482 78.5693 22.0291 79.0144C28.0779 79.7209 34.3202 80.4661 39.8754 80.95C40.266 80.9778 40.6431 81.1042 40.9715 81.3175C41.2999 81.5308 41.5687 81.8239 41.7529 82.1695C41.9384 82.5129 42.0355 82.897 42.0355 83.2873C42.0355 83.6776 41.9384 84.0617 41.7529 84.4051C40.6883 86.3407 39.5561 88.9248 38.4624 91.383C37.8914 92.6799 37.3107 93.9961 36.7203 95.2542C142.879 98.7577 250.44 98.7383 356.512 95.1864C352.728 90.0861 349.979 86.3891 344.075 84.0954C343.708 83.9534 343.383 83.7212 343.129 83.4201C342.875 83.119 342.701 82.7587 342.624 82.3727C342.548 81.9858 342.569 81.5861 342.685 81.2094C342.802 80.8327 343.01 80.4908 343.291 80.2145C346.195 77.4176 349.156 74.7174 352.002 72.0946C354.208 70.0816 356.463 68.0202 358.699 65.9104C356.705 64.1974 354.828 62.2714 353.028 60.3842C350.818 57.9415 348.399 55.6973 345.798 53.6773C345.521 53.4776 345.292 53.22 345.124 52.9226C344.957 52.6251 344.857 52.2948 344.83 51.9547C344.802 51.6173 344.849 51.2779 344.966 50.9603C345.083 50.6426 345.268 50.3544 345.508 50.1158C347.918 47.706 350.773 44.4832 353.521 41.4056C355.621 39.0248 357.77 36.5666 359.773 34.4567C358.476 33.4889 357.237 32.3857 356.028 31.3308C354.306 29.7298 352.451 28.2792 350.482 26.995C350.198 26.8224 349.953 26.5913 349.764 26.3171C349.575 26.0429 349.447 25.7317 349.388 25.4042C349.328 25.0767 349.339 24.7403 349.419 24.4173C349.5 24.0942 349.647 23.7919 349.853 23.5303C350.927 22.1753 352.244 20.7333 353.511 19.33L354.373 18.4105Z" fill="#FFE600" stroke="#FFE600" stroke-width="2.3736"/>
<path d="M125.926 46.1492H118.017L105.957 79.2872L113.529 82.0553L116.119 74.9176H127.746L130.335 82.0157L137.908 79.2675L125.926 46.1492ZM119.164 66.8505L122.031 58.9417L124.918 66.8505H119.164Z" fill="white"/>
<path d="M214.53 46.1492H206.622L194.561 79.2872L202.133 82.0553L204.724 74.9176H216.35L218.94 82.0157L226.513 79.2675L214.53 46.1492ZM207.769 66.8505L210.635 58.9417L213.522 66.8505H207.769Z" fill="white"/>
<path d="M319.556 46.6326L319.556 81.9061H311.489L311.489 62.7864L300.476 81.8665L300.456 81.9061H292.409L292.409 46.6326H300.476L300.476 65.7522L311.489 46.6721L311.509 46.6326H319.556Z" fill="white"/>
<path d="M187.75 40.8633L187.75 76.1565H179.683L179.683 48.9501H167.088L167.088 76.1565H159.021L159.021 40.8633H187.75Z" fill="white"/>
<path d="M86.4186 43.9932H78.5097L66.4485 77.1313L74.0214 79.8993L76.6117 72.7616C77.5805 70.0726 78.5889 67.3835 79.5577 64.6945L82.4246 56.7857L85.3112 64.6945C86.2801 67.3835 87.2884 70.0726 88.2375 72.7616L90.8277 79.8599L98.4001 77.1115L86.4186 43.9932Z" fill="white"/>
<path d="M276.319 78.3364L268.41 79.7401L265.089 60.9566L259.355 76.7743V76.9127L258.307 79.7599L251.861 79.6413L250.912 77.0511L250.912 76.7743L244.98 60.6995L241.619 79.8587L233.71 78.4748L239.84 43.7351H247.432L255.163 64.9902L262.4 45.218V45.1192L262.815 43.9526L270.269 43.7153C272.246 55.1964 274.263 66.7367 276.319 78.3364Z" fill="white"/>
</svg>
