<svg width="29" height="59" viewBox="0 0 29 59" fill="none" xmlns="http://www.w3.org/2000/svg">
<path d="M20.2309 58.4292L20.2309 58.4655L20.21 58.4655L20.2309 58.4292Z" fill="white"/>
<path d="M21.7827 0.0583503L13.8676 0.0583496L13.8675 51.9819L21.7827 51.9819L21.7827 0.0583503Z" fill="#E96262"/>
<path d="M23.6518 30.824C22.683 30.0134 21.0812 28.8468 19.4797 27.4627L15.1101 23.9434L20.1521 17.8535L24.4227 21.2741L28.6933 24.7144L23.6518 30.824Z" fill="#E96262"/>
<path d="M7.69442 46.3058L0.774168 42.5094C2.35594 39.6029 5.04497 34.8972 7.71421 30.1914C10.3834 25.4856 12.9339 21.0171 14.4959 18.1699L21.436 21.9663C19.8542 24.8332 17.2245 29.4796 14.5751 34.1063C11.9256 38.7329 9.27619 43.4388 7.69442 46.3058Z" fill="#E96262"/>
</svg>
