<svg width="131" height="131" viewBox="0 0 131 131" fill="none" xmlns="http://www.w3.org/2000/svg">
<mask id="mask0_2_8778" style="mask-type:alpha" maskUnits="userSpaceOnUse" x="3" y="3" width="126" height="126">
<path d="M128.191 65.6048C128.193 69.3381 127.862 73.0642 127.204 76.7389C127.182 76.8637 127.16 76.9848 127.134 77.106C126.241 81.9308 124.777 86.6323 122.773 91.1109C122.433 91.8793 122.074 92.6415 121.697 93.3977C121.208 94.3889 120.69 95.3678 120.144 96.3345C119.726 97.0687 119.29 97.8029 118.837 98.5371C116.278 102.666 113.249 106.485 109.811 109.917C108.89 110.835 107.941 111.726 106.962 112.59C103.162 115.935 98.9713 118.809 94.4807 121.147C93.1811 121.822 91.8559 122.455 90.505 123.044C82.6373 126.461 74.1493 128.218 65.5718 128.206C56.7535 128.217 48.0331 126.359 39.9851 122.754C39.8309 122.688 39.6803 122.619 39.5298 122.545C36.3051 121.066 33.2138 119.312 30.29 117.303C28.2517 115.909 26.2978 114.395 24.4385 112.77L24.3724 112.711C24.1595 112.524 23.943 112.344 23.7337 112.142C18.3216 107.272 13.7965 101.498 10.3603 95.079C9.32882 93.1508 8.39997 91.1694 7.5777 89.1431C7.01237 87.7506 6.49609 86.3324 6.02865 84.8885C5.97359 84.7197 5.91854 84.5508 5.86715 84.382C5.76803 84.0699 5.67249 83.7616 5.58071 83.4495C5.39717 82.8255 5.22212 82.1978 5.0557 81.5664C3.68766 76.3563 2.99687 70.9915 3.0001 65.6048C2.97604 52.209 7.26758 39.1616 15.2391 28.3957C15.7603 27.6909 16.2987 26.9948 16.8542 26.3071C17.6521 25.3282 18.4805 24.364 19.3395 23.4145C19.3681 23.3785 19.3988 23.3441 19.4313 23.3116C19.6332 23.0876 19.8388 22.8639 20.0481 22.6473L20.0775 22.6139C25.9236 16.4098 32.9785 11.469 40.8073 8.09568C48.6361 4.72236 57.0728 2.98809 65.5974 3.00006C74.0942 2.99038 82.5035 4.71512 90.3105 8.0688C98.1174 11.4225 105.158 16.3344 111 22.5039C113.144 24.7617 115.119 27.1752 116.907 29.7247C124.275 40.2364 128.216 52.7678 128.191 65.6048Z" fill="#60C9EB"/>
</mask>
<g mask="url(#mask0_2_8778)">
<path d="M128.188 65.6043C128.19 69.3376 127.86 73.0637 127.201 76.7384C127.179 76.8632 127.157 76.9844 127.131 77.1055C126.238 81.9303 124.774 86.6318 122.77 91.1104C122.43 91.8789 122.071 92.641 121.694 93.3972C121.205 94.3884 120.687 95.3673 120.142 96.334C119.723 97.0682 119.288 97.8024 118.835 98.5366C116.275 102.666 113.246 106.484 109.808 109.917C108.888 110.834 107.938 111.725 106.959 112.589C103.16 115.935 98.9686 118.808 94.478 121.146C93.1784 121.821 91.8532 122.454 90.5023 123.044C82.6346 126.461 74.1467 128.218 65.5691 128.205C56.7508 128.217 48.0304 126.358 39.9824 122.754C39.8283 122.688 39.6777 122.618 39.5271 122.545C36.3024 121.066 33.2111 119.312 30.2873 117.303C28.249 115.908 26.2951 114.395 24.4358 112.769L24.3697 112.71C24.1568 112.523 23.9403 112.343 23.731 112.141C18.3189 107.271 13.7938 101.498 10.3576 95.0786C9.32614 93.1503 8.39728 91.1689 7.57501 89.1426C7.00968 87.7501 6.4934 86.3319 6.02597 84.888C5.9709 84.7192 5.91586 84.5503 5.86446 84.3815C5.76535 84.0695 5.6698 83.7611 5.57803 83.449C5.39448 82.825 5.21943 82.1973 5.05301 81.5659C3.68498 76.3558 2.99418 70.991 2.99742 65.6043C2.97336 52.2085 7.26489 39.1611 15.2364 28.3952C15.7576 27.6904 16.296 26.9943 16.8516 26.3067C17.6494 25.3277 18.4778 24.3635 19.3368 23.414C19.3654 23.378 19.3961 23.3436 19.4286 23.3111C19.6305 23.0872 19.8361 22.8634 20.0454 22.6468L20.0748 22.6135C25.9209 16.4093 32.9759 11.4685 40.8046 8.0952C48.6334 4.72187 57.0701 2.9876 65.5947 2.99957C74.0915 2.9899 82.5009 4.71464 90.3078 8.06831C98.1147 11.422 105.155 16.334 110.997 22.5034C113.142 24.7612 115.116 27.1747 116.904 29.7242C124.272 40.236 128.213 52.7673 128.188 65.6043Z" fill="#60C9EB"/>
<path d="M35.7944 147.956C36.0807 147.192 36.5287 146.722 36.8701 146.102C37.3546 145.221 37.373 144.218 37.8428 143.554C38.3127 142.89 39.1019 142.35 39.6599 141.645C40.1224 141.065 40.5411 140.265 41.1982 139.758C41.356 139.637 41.5359 139.634 41.6497 139.538C41.8589 139.358 41.8771 139.171 42.0386 139.09C42.8169 138.723 43.7054 139.733 44.3515 140.034C44.4616 140.085 44.9535 140.213 45.2619 140.294C45.7611 140.423 46.1833 140.261 46.7082 140.232C47.8939 140.166 48.9107 139.99 49.7771 138.789C50.1148 138.319 50.269 137.519 50.9481 137.02C51.1413 136.919 51.3546 136.862 51.5724 136.854C51.7902 136.846 52.007 136.886 52.2073 136.972C52.5744 137.218 52.5744 137.625 52.7433 137.864C52.9121 138.103 53.1434 138.231 53.3012 138.429C53.5321 138.82 53.7358 139.226 53.9107 139.645C53.9988 139.791 54.197 139.894 54.2778 140.037C54.6192 140.735 54.6449 141.652 55.012 142.409C55.0744 142.53 55.2616 142.629 55.3167 142.776C55.6177 143.488 55.603 144.31 55.8526 144.883C56.0105 145.25 56.4509 145.573 56.6381 145.984C56.8253 146.395 56.6749 147.537 56.9356 148.062C57.1338 148.459 57.5082 148.712 58.0111 149.24C58.3378 149.586 58.5874 150.265 58.9839 150.342C59.1076 150.345 59.2301 150.316 59.3398 150.259C59.4495 150.202 59.543 150.118 59.6116 150.015C59.8429 149.67 59.5016 149.171 59.3107 148.547C58.9876 147.479 58.448 145.922 57.1081 145.867C57.2329 145.749 57.2733 145.636 57.1301 145.54C56.9282 144.806 56.4142 144.251 56.1866 143.602C56.1411 143.295 56.1166 142.986 56.1133 142.677C56.0142 142.159 55.691 141.667 55.5809 141.175C55.5222 140.926 55.6434 140.632 55.6067 140.335C55.5428 140.055 55.4593 139.78 55.357 139.512C55.012 138.161 55.1147 137.108 54.4723 135.893C54.6118 134.057 56.5574 131.785 57.9304 130.361C58.0662 130.53 58.191 130.526 58.3232 130.61C59.3951 129.847 59.8613 128.569 60.6432 127.916C61.2783 128.232 61.1314 128.995 61.1828 129.509C61.4985 129.696 61.337 130.159 61.4986 130.559C61.6601 130.959 62.2731 131.532 62.6512 132.152C62.7393 132.299 62.743 132.519 62.8274 132.651C62.9118 132.783 63.1615 132.938 63.2863 133.132C63.4111 133.327 63.4258 133.569 63.5139 133.675C63.9434 134.171 64.6776 134.49 65.0667 134.41C65.4558 134.329 65.4558 134.043 65.7678 133.797C65.9514 133.65 66.2084 133.657 66.3883 133.375C66.6343 133.008 66.5021 132.24 66.3039 131.656C66.0799 130.919 65.743 130.221 65.3053 129.586C65.176 128.914 64.9843 128.255 64.7327 127.618C64.5051 127.068 63.8993 126.095 64.2995 125.599C64.6996 125.104 66.2195 125.387 66.6747 126.077C66.8729 126.381 66.5608 126.811 66.7994 127.141C67.2216 127.739 68.2164 127.997 68.8258 127.919C69.1048 127.886 69.3251 127.67 69.5967 127.629C69.8684 127.589 70.14 127.916 70.2905 127.53C70.1951 127.185 69.85 127.336 69.6481 127.064C69.4462 126.792 69.593 126.462 69.3911 126.15C69.0791 125.676 68.5872 125.581 68.0879 125.049C68.0586 124.63 67.7833 124.23 67.8567 123.804C67.2033 123.287 66.7738 122.284 66.1167 121.881C65.7899 121.679 65.3163 121.734 64.9639 121.514C64.0609 120.911 63.4955 119.487 63.6864 118.856C64.2664 117.083 66.1387 117.542 67.1996 116.492C67.6548 116.492 67.886 116.859 68.2641 116.972C68.4697 117.039 68.6533 116.932 68.8736 116.972C69.2971 117.076 69.6937 117.269 70.0372 117.538C70.2961 117.452 70.5711 117.427 70.8414 117.463C71.1117 117.499 71.3702 117.596 71.5974 117.747C71.7296 117.611 71.8653 117.564 72.0195 117.747C72.5555 117.413 73.1208 117.509 73.6862 117.527C74.3983 117.079 75.1546 117.02 75.9108 116.661C76.4211 116.415 76.6816 116.066 77.1479 115.728C77.4893 115.482 77.8821 115.361 78.2235 115.086C78.711 114.74 79.1367 114.314 79.4826 113.827C79.6405 113.852 79.802 113.962 79.9452 113.79C80.0019 113.627 80.0989 113.481 80.2273 113.365C80.3557 113.25 80.5112 113.168 80.6794 113.129C80.8225 113.067 80.9694 112.846 81.0465 112.821C81.3915 112.685 81.7807 112.791 82.0597 112.652C82.5663 112.406 82.647 112.031 83.0765 111.877C83.3723 111.801 83.6807 111.787 83.9822 111.836C84.2836 111.886 84.5715 111.997 84.8276 112.164C84.9708 112.266 85.0661 112.505 85.235 112.601C85.7159 112.872 86.4979 112.714 87.1036 113.162C87.768 113.65 88.0874 114.425 88.9978 114.7C89.0544 114.713 89.1122 114.721 89.1703 114.722L95.0145 93.6804C94.7835 93.7957 94.5357 93.8737 94.2803 93.9117C93.7444 93.9778 93.1496 93.7758 92.599 93.9447C92.2845 94.0916 91.9857 94.27 91.707 94.477C90.334 95.2112 89.4603 96.731 88.9867 98.0415C88.6453 98.9739 88.7371 100.244 87.6028 99.5429V99.6164L87.533 99.6458C87.3348 99.8734 87.0705 99.8475 86.9677 99.5942C87.0778 99.3849 87.2026 99.4289 87.3348 99.3812L87.4046 99.3518L87.4707 99.3224C87.2386 98.9514 87.0953 98.5318 87.0521 98.0964C86.9126 97.9348 86.7952 98.0342 86.6557 97.8433C86.3246 97.0448 85.8902 96.2932 85.3635 95.6077C84.9964 95.1819 84.3981 94.9653 84.0677 94.5835C83.8806 94.2586 83.7444 93.9067 83.6638 93.5406C83.3591 92.6119 83.6125 92.4395 84.4348 92.0357C84.7578 91.9916 85.1139 92.1348 85.5103 92.0027C86.0867 91.8118 86.854 90.9455 86.4758 90.5784C86.34 90.4463 85.6168 90.6041 85.2754 90.762C84.6704 91.0653 84.1694 91.5418 83.8364 92.131C83.4877 92.0833 83.3004 92.5385 82.8856 92.5275C82.625 92.5275 82.4671 92.2926 82.1514 92.2522C82.603 92.7955 81.3842 92.7701 81.3144 92.3185C81.4356 91.9881 82.0486 92.3442 81.8577 92.0909C80.8189 91.9551 79.6185 90.3396 80.7932 89.789C79.813 89.6495 78.7704 89.2054 78.6126 88.1812C78.3703 86.599 79.6956 84.3891 80.8813 82.4105C81.1126 82.0434 81.3622 81.6101 81.5898 81.2834C82.111 80.5492 82.8453 80.4574 83.3739 80.1233C83.6749 79.9324 83.9208 79.6023 84.2108 79.4554C84.398 79.36 84.5522 79.3893 84.7101 79.2755C85.3452 78.8239 85.8628 77.8436 86.4942 77.5095C86.7659 77.3627 87.2284 77.2929 87.5955 77.1424C88.1467 76.9293 88.7092 76.747 89.2804 76.5957C89.4823 76.5443 89.7283 76.5553 89.8862 76.5075C90.3194 76.368 90.6791 76.0744 91.0131 76.001C91.4646 75.9056 91.8208 76.0743 92.1805 75.9605C92.4045 75.8871 92.5916 75.6778 92.8523 75.5934C93.2928 75.4355 93.6709 75.3036 94.1261 75.1273C94.3427 75.0392 94.6511 75.0943 94.9117 75.0209C95.0476 74.9805 95.154 74.8114 95.3155 74.7563C95.6113 74.7152 95.9026 74.6465 96.1855 74.5509C96.6719 74.2501 97.1842 73.9933 97.7163 73.7837C98.1311 73.6185 98.4505 73.3836 98.8397 73.1854C99.1664 73.0239 99.5225 73.0312 99.7978 72.8807C100.28 72.5929 100.721 72.2407 101.108 71.8342L102.459 66.9666C102.229 66.747 101.952 66.5838 101.648 66.4895C101.406 66.7758 101.167 67.1098 100.895 67.0584C100.638 66.8601 100.976 66.6179 100.939 66.4013C99.6473 66.2397 98.6891 67.4731 97.6356 68.3321C97.3859 68.5303 97.0519 68.6444 96.8316 68.8573C96.1966 69.4704 95.5101 70.5714 94.8787 70.8247C93.9903 71.1918 92.9992 71.3059 92.0961 71.7317C91.5345 71.9997 91.0902 72.5393 90.5432 72.833C90.2128 73.0055 89.732 72.9725 89.4053 73.2442C89.2479 73.1137 89.0498 73.0424 88.8454 73.0424C88.641 73.0424 88.443 73.1137 88.2856 73.2442C87.6762 72.8257 87.1256 73.2075 86.5529 73.2442C86.1675 72.9285 85.8187 73.2439 85.4516 72.9979C85.4143 73.0803 85.3594 73.1537 85.2908 73.2126C85.2221 73.2716 85.1415 73.3147 85.0544 73.3392C84.9673 73.3637 84.8759 73.3688 84.7866 73.3542C84.6973 73.3397 84.6124 73.3058 84.5376 73.2549C84.3907 72.5207 83.6419 72.752 83.1903 72.1866C82.6654 71.5259 83.1682 69.8043 83.8437 69.1068C84.3776 68.5957 84.9994 68.1854 85.6792 67.8955C86.127 67.7266 86.5565 67.7706 86.9604 67.5284C88.4728 66.5849 89.1006 64.8339 87.5477 64.2245C87.2027 64.085 86.9164 64.2723 86.5529 64.0668C86.2372 64.3751 85.6829 64.3565 85.2865 64.6282C84.9744 64.8411 84.7578 65.2633 84.4642 65.4799C83.6088 66.1187 82.4598 66.4379 81.5274 65.7477C81.3328 65.6009 81.1052 65.1127 80.7088 64.7823C79.7066 63.9563 79.5891 63.3873 79.7286 62.3815C79.791 61.9263 80.114 61.3499 80.0369 60.9131C79.9782 60.5864 79.5965 60.4215 79.5928 60.014C78.8402 59.7093 78.0913 59.5441 77.3424 59.2798C77.1442 59.2798 77.2433 59.4447 77.0855 59.5806C77.0267 59.2796 76.8028 59.3898 76.6963 59.4228C76.4944 59.4852 76.1273 59.3604 76.0392 59.3787C75.5179 59.4852 75.0628 60.113 74.5415 60.0029C74.3249 59.8487 74.4938 59.6652 74.4571 59.4963C74.0643 59.757 73.9982 59.2834 73.9064 59.0228C73.5001 58.8416 73.0653 58.7323 72.6216 58.6998C72.673 58.2262 72.3058 57.7451 72.3719 57.2715C72.4674 56.5667 73.3117 55.627 73.9725 55.0066C74.2882 54.7129 74.7838 54.5257 75.0738 54.2247C75.4409 53.8576 75.5877 53.2372 75.808 52.9545C76.1755 52.5702 76.5706 52.2131 76.99 51.8862C77.7793 51.2108 78.2639 50.15 78.8733 49.5994C78.9834 49.4966 79.211 49.4525 79.3651 49.3277C79.8564 48.8551 80.3026 48.3377 80.6977 47.7822C81.873 46.355 83.1621 45.0254 84.5523 43.8065C84.8064 43.5976 85.0944 43.4335 85.4039 43.3218C85.6572 43.3218 85.8811 43.5715 86.1381 43.5936C86.7132 43.5789 87.2864 43.5202 87.8525 43.4175C89.0529 43.2744 89.7173 43.234 90.5323 42.3163C91.8465 40.8479 92.0007 39.8344 92.0007 38.4725C92.0641 37.5311 91.929 36.5869 91.6042 35.701C91.182 34.5703 90.7966 34.0746 89.6586 32.9072C89.3832 32.6282 89.1189 32.2905 88.8473 31.9895L85.2975 31.0058C84.3247 31.2444 83.462 31.9641 82.603 32.9259C82.0612 33.5718 81.6565 34.3212 81.4136 35.1285C81.3218 35.4295 81.3842 35.7707 81.2961 36.0681C80.9685 37.0192 80.8704 38.0344 81.0097 39.0307C81.1896 39.9337 81.8137 40.7377 82.4194 41.538C82.2652 41.9234 82.4891 42.5475 82.1991 43.0064C82.1661 43.0614 81.9569 43.1089 81.8871 43.1677C81.2851 43.689 80.8593 44.5002 80.4408 45.0508C79.8828 45.785 79.0274 46.4606 78.6309 47.0516C78.2659 47.6086 77.8149 48.1042 77.2947 48.52C76.8501 48.8832 76.4573 49.3055 76.1274 49.7754C75.8594 50.1095 75.4335 50.4217 75.2169 50.7301C75.0003 51.0385 74.8939 51.5267 74.6957 51.8314C74.4585 52.2561 74.174 52.6526 73.8477 53.0133C73.7339 53.1235 73.4182 53.2006 73.1759 53.3804C72.6914 53.7475 72.3095 54.3239 71.825 54.647C71.3404 54.97 70.6723 54.8929 70.0446 55.2012C69.4168 55.5096 68.9837 55.9352 68.4771 56.1114C67.9493 56.3252 67.3757 56.4013 66.8104 56.3319C66.0579 56.2034 65.1365 55.6602 64.8868 55.0288C64.5198 54.0927 66.2121 53.3951 66.5755 52.6609C66.6096 52.541 66.6317 52.4181 66.6416 52.2938C66.7037 52.0933 66.7191 51.8811 66.6867 51.6736C66.6542 51.4662 66.5748 51.2692 66.4544 51.0972C66.1093 51.4643 65.7202 51.332 65.3531 51.2696C64.7951 51.5413 63.9214 52.3011 63.2717 52.1763C62.3392 51.9964 61.8693 50.3408 61.6784 49.6801C61.5867 49.368 61.4251 49.0782 61.3847 48.9093C61.1535 47.9035 61.594 46.7909 61.7518 45.7556C61.8216 45.2968 61.7996 44.6948 61.862 44.1148C61.9758 42.9915 62.1594 41.8755 62.2621 40.8109C62.3507 40.2509 62.4009 39.6854 62.4126 39.1185C62.3649 38.4944 61.7041 37.4337 61.5206 36.6187C61.4655 36.3764 61.5683 36.1817 61.5206 36.0129C61.4435 35.7375 61.2269 35.5577 61.1902 35.3851C61.1094 34.996 61.315 34.6253 61.3371 34.2068C61.4141 32.5622 61.2269 30.8369 61.1462 29.2768C61.1168 28.6784 61.2856 28.0141 60.8304 27.6177C60.221 28.205 60.2614 29.0857 60.0962 29.7722C59.931 30.5064 59.7291 31.2664 59.6153 32.0483C59.5015 32.8302 59.641 33.6157 59.4648 34.3462C59.329 34.9226 58.782 35.4478 58.5691 36.0939C58.492 36.3362 58.5691 36.5894 58.4847 36.7987C58.4223 36.9455 58.2424 37.096 58.191 37.2429C57.8937 38.0762 58.191 38.836 58.2754 39.5702C58.3745 40.4476 58.2754 41.3471 58.3378 42.2245C58.3892 42.933 58.6645 43.634 58.7049 44.3425C58.7049 44.6031 58.6535 44.9444 58.6352 45.2344C58.5873 45.8353 58.5077 46.4333 58.3966 47.0258C58.3415 47.3305 58.1727 47.6244 58.1397 47.9328C58.1176 48.1457 58.2167 48.3437 58.191 48.5824C58.0507 49.4654 57.8042 50.3282 57.4568 51.152C57.2273 51.7111 56.9223 52.2361 56.5501 52.7122C55.4892 54.0227 53.4812 54.0741 51.9284 53.4464C51.3009 53.1129 50.707 52.7195 50.1553 52.2716C49.1164 51.5374 48.206 51.0051 47.3653 50.069C46.9689 49.6175 47.1854 48.7623 47.0312 48.1346C46.9688 47.8776 46.811 47.5547 46.7302 47.2721C46.6791 46.977 46.6105 46.6849 46.5247 46.3981C46.2053 45.7079 45.6033 45.3812 45.1298 44.6837C44.9829 44.4635 44.9387 44.1184 44.7295 43.7366C44.3624 43.8247 44.4101 43.3698 44.0797 43.1752L44.0614 43.2483L43.9953 43.2777L43.9073 43.377C43.8412 43.3256 43.7861 43.3771 43.7164 43.2964C43.7568 43.2156 43.7164 43.1421 43.8376 43.054V42.977L43.8815 42.9146C43.0335 42.118 42.0461 41.8131 41.4 42.863C41.2385 43.1346 41.3817 43.5532 41.2899 43.8983C40.8788 45.4695 39.1093 46.2843 38.1364 44.8379C37.8942 45.0728 38.2172 45.2677 38.0006 45.499C37.3508 45.4219 36.7671 44.6729 36.3486 44.0818C36.2752 43.9093 36.6423 43.8176 36.5542 43.7405C36.0146 43.3147 35.2437 42.5034 35.1079 41.9051C34.6747 41.4389 34.0984 41.0568 33.7827 40.5098C33.5221 40.0546 33.4449 39.3206 33.3201 38.7259C33.2462 38.1081 33.1359 37.4952 32.9897 36.8905C32.8502 36.4903 32.6227 36.1563 32.5273 35.7121C32.3107 34.8531 32.0097 34.0638 31.7931 33.2489C31.7139 32.8289 31.6035 32.4153 31.4627 32.0117C31.3526 31.8025 31.0955 31.6226 30.9487 31.3987C30.7284 31.0316 30.5816 30.4954 30.1044 30.154C29.6492 30.2421 29.2968 29.9008 28.926 30.011C28.2286 30.2166 27.5899 31.2372 27.5311 31.9347C27.5478 32.2165 27.5996 32.4952 27.6853 32.7642C27.7219 33.0424 27.7745 33.3181 27.843 33.5902C27.9201 33.7847 28.1294 33.8986 28.2101 34.0784C28.2909 34.2583 28.2506 34.5812 28.313 34.7721C28.5238 35.3032 28.7818 35.8144 29.084 36.2993C29.0573 36.8491 29.1473 37.3986 29.3482 37.9111C29.4142 38.0432 29.6162 38.0797 29.697 38.2119C29.7777 38.344 29.7154 38.5239 29.8255 38.6707C29.9356 38.8176 30.1485 38.8837 30.277 39.0378C30.6772 39.5738 30.7651 40.2749 31.0625 40.7522C31.1726 40.9284 31.4297 41.0421 31.5178 41.2293C31.7674 41.7065 31.7674 42.415 31.9399 43.0648C32.05 43.4833 32.3473 43.9203 32.362 44.2948C32.3877 44.8748 32.1308 45.5025 32.1234 46.0862C32.1234 46.2587 32.252 46.4534 32.2593 46.6332C32.296 47.2389 32.1161 47.8408 32.1161 48.4171C32.1659 49.1085 32.3129 49.7897 32.5529 50.4401C32.7585 51.1045 33.0008 51.7433 33.1733 52.4444C33.8524 53.2667 34.2747 54.1037 34.2086 54.9811C34.6124 55.8401 34.862 57.991 33.735 59.1694C33.4304 59.4888 32.3988 60.1018 31.8996 60.1018C31.6856 60.0611 31.4764 59.9985 31.2754 59.9147C30.9891 59.7054 31.1323 59.3421 30.7542 59.2063C30.7328 58.6989 30.7897 58.191 30.923 57.701C31.0368 57.2054 31.3306 56.644 31.3636 56.1778C31.4224 55.4179 31.0662 54.7423 30.9671 54.0117C30.7424 53.7545 30.5478 53.4724 30.3871 53.1711C29.5758 52.9618 28.3497 53.1161 27.8762 53.9641C27.733 54.2174 27.8761 54.6984 27.8247 55.1353C27.7592 55.6471 27.7841 56.1664 27.8982 56.6696C27.9717 57.0661 28.1662 57.3854 28.2653 57.7709C28.3241 58.0169 28.2396 58.3656 28.2836 58.6592C28.3776 58.9429 28.4475 59.234 28.4928 59.5293C28.4195 59.7801 28.3288 60.0254 28.2212 60.2635C28.0047 60.9426 28.0413 60.9683 27.4612 61.3648C26.7454 61.8347 26.2205 62.2273 25.5157 62.2126C25.189 62.7559 24.4769 63.0313 24.0988 63.2515C23.7206 63.4718 23.5113 63.7801 23.1772 64.0187C22.5455 64.4254 21.8613 64.7441 21.1435 64.9659C21.015 65.913 20.0202 65.8141 19.5063 66.1629C19.2199 66.3574 19.0364 66.8124 18.7318 67.0584C18.5188 67.2309 18.2398 67.2823 18.0599 67.4255C17.8066 67.6457 17.6671 68.0458 17.3734 68.2256C18.0085 69.3893 16.7163 70.9533 15.4388 70.4687C15.0277 70.0466 14.7524 69.5694 14.1834 69.3051C13.8897 69.1692 13.519 69.2315 13.2326 69.0957C13.0785 69.0223 12.9684 68.8389 12.8326 68.7508C12.0984 68.2993 11.3862 68.5416 10.6997 68.3837C10.7198 68.5665 10.6993 68.7512 10.6397 68.9251C10.58 69.0989 10.4827 69.2578 10.3547 69.3897C10.1564 69.2942 10.3545 69.1691 10.2848 69.0663C9.8773 69.5394 9.53982 70.0686 9.28259 70.6376C9.07701 71.0047 8.67693 71.3241 8.51541 71.6288C8.29148 72.0546 8.42728 72.598 7.93537 72.6053C7.47283 72.2383 7.00295 72.0693 6.65788 71.7683C6.46699 71.5994 6.38254 71.2616 6.18431 71.1C5.88329 70.8541 5.32908 70.8285 5.28503 70.3293C5.11983 70.1971 4.98399 70.465 4.80411 70.1787C4.80411 69.896 5.07938 70.1788 5.21154 70.0063C4.99495 69.4079 4.8445 68.9637 4.26081 68.5856C4.06992 68.4571 3.84234 68.5159 3.64044 68.3984C3.47581 68.3022 3.32916 68.1779 3.2072 68.0313L-1.82568 86.1621C-1.37415 86.2943 -0.849263 86.6796 -0.324314 86.8411C0.490641 87.0907 1.4305 87.3295 2.15735 87.4946C2.63878 87.2379 3.19662 87.1639 3.72845 87.2856C4.28277 87.1094 4.76369 86.7277 5.31066 86.5514C5.4318 86.5147 5.55657 86.5144 5.72544 86.474C6.09253 86.3859 6.36785 86.2024 6.7276 86.1069C6.90299 86.0723 7.08397 86.0775 7.25728 86.1213C7.43058 86.1651 7.59188 86.2466 7.72977 86.3604C7.97258 85.9971 8.28765 85.6878 8.65522 85.4516C9.02279 85.2154 9.43511 85.0573 9.86639 84.9873C10.5419 84.9176 10.3362 84.9471 10.8392 85.472C11.1734 85.8411 11.4709 86.2419 11.7275 86.6687C11.9992 87.0358 12.4617 87.3367 12.6929 87.6671C12.8765 87.9204 12.8839 88.3355 13.0344 88.4823C13.251 88.6915 13.6255 88.6915 13.8568 88.8494C13.9632 89.2165 14.3926 89.5836 14.5578 90.0572C14.6202 90.248 14.5578 90.4865 14.6055 90.7067C14.789 91.3602 15.1892 92.2668 14.6275 92.8064C14.3045 93.1185 13.9851 92.8067 13.6327 93.2546C13.5336 93.4785 13.7906 93.6729 13.7318 93.9482C13.7098 94.062 13.563 94.1024 13.5703 94.2383C13.5703 94.4659 13.7465 94.6054 13.7098 94.8807C13.618 95.5928 12.939 96.3089 12.6673 97.1055C12.425 97.814 12.458 98.4562 12.157 99.0105C12.157 99.1574 11.8964 99.2236 11.7716 99.4622C12.1387 100.112 11.5808 100.769 11.456 101.444C11.3862 101.811 11.588 102.12 11.3898 102.428C12.0689 103.42 11.9 104.477 11.2098 105.567C11.2872 106.076 11.3108 106.591 11.2798 107.105C11.2504 107.604 10.986 108.232 11.0704 108.658C11.2003 108.91 11.3437 109.155 11.4999 109.392C11.5784 109.656 11.6767 109.914 11.7937 110.163C12.091 110.556 12.5976 110.849 12.9573 111.338C12.9562 111.477 12.9859 111.616 13.0443 111.742C13.1026 111.869 13.1883 111.982 13.295 112.072C13.2326 112.2 13.295 112.321 13.1371 112.439C13.6217 112.531 13.4493 113.001 13.6218 113.291C13.7943 113.581 14.0329 113.577 14.1357 113.904C14.3046 114.073 14.4441 113.823 14.6093 113.963C14.6093 114.117 14.7635 114.263 14.646 114.425C15.0131 114.425 15.1818 114.84 15.5306 115.012C15.8022 115.148 16.1364 115.078 16.3897 115.229C17.3038 115.776 17.7443 116.697 18.0563 117.431C17.8544 117.589 17.9094 117.725 17.7626 117.876C17.8984 118.033 18.005 117.821 18.1481 118.034C17.7627 118.544 18.1775 119.098 18.8052 119.289C18.9557 118.793 19.5615 119.006 19.9065 118.922C20.0644 118.691 19.9395 118.481 20.2295 118.243C20.8316 118.775 21.3014 117.589 21.9145 118.301C22.5716 117.876 23.0157 117.362 23.7499 117.2C23.9665 117.365 23.8858 117.435 24.0988 117.501C24.6695 117.269 25.287 117.175 25.9011 117.226C26.5692 117.354 26.5949 117.777 26.5435 118.298C26.4921 118.819 26.1765 119.318 26.4225 119.766C26.9034 120.633 27.8615 120.401 28.5113 120.776C28.816 120.952 28.7425 121.191 29.2455 121.418C29.418 121.561 29.1021 121.741 29.282 121.881C29.7005 122.45 29.5977 123.041 29.6491 123.768C29.6387 124.171 29.6694 124.574 29.7409 124.972C29.8327 125.221 30.1375 125.375 30.2109 125.64C30.5303 126.77 28.7168 128.209 29.7043 129.362C30.9818 130.852 32.3804 128.866 33.7166 128.628C34.0396 128.844 34.3371 128.665 34.616 128.793C34.895 128.922 34.9391 129.16 35.1814 129.45C35.398 129.623 35.5852 129.45 35.8091 129.729C36.0954 130.709 36.9581 131.51 37.2334 132.424C37.2885 132.615 37.215 132.857 37.2811 133.073C37.4132 133.488 37.7695 133.907 37.8943 134.38C37.9383 134.534 37.8097 134.707 37.8391 134.85C37.9506 135.207 38.0869 135.555 38.2467 135.893C38.4669 136.311 39.1313 136.972 39.2892 137.31C39.6232 138.015 39.1533 139.145 38.6944 139.92C38.2796 140.628 37.6225 141.205 37.2481 141.803C36.8737 142.402 36.8076 143.183 36.5139 143.679C36.4552 143.778 36.2753 143.844 36.2092 143.932C35.7393 144.571 35.8128 145.224 35.5117 145.852C35.2422 146.36 34.8814 146.815 34.4472 147.192C34.1514 147.522 33.9286 147.911 33.7937 148.334L35.6291 148.848C35.6255 148.477 35.6916 148.202 35.7944 147.956ZM57.7945 146.447C57.8275 146.491 57.7946 146.539 57.8533 146.583L57.7689 146.682L57.6183 146.553C57.6587 146.487 57.7247 146.517 57.7798 146.458L57.7945 146.447ZM90.4661 97.1933C90.8332 98.0156 90.2532 99.3739 89.464 99.9759C89.3906 99.0876 89.8164 98.1515 90.4368 97.2044L90.4661 97.1933ZM82.7939 37.2905C82.6868 37.0876 82.6614 36.8513 82.7228 36.6302C82.7842 36.4091 82.9278 36.2197 83.1242 36.1011C83.1849 36.2012 83.2244 36.313 83.2401 36.4291C83.2557 36.5452 83.2472 36.6631 83.2152 36.7757C83.1831 36.8884 83.1283 36.9932 83.0538 37.0837C82.9795 37.1742 82.8872 37.2485 82.7828 37.3017L82.7939 37.2905ZM86.8099 34.7503C87.0889 35.0109 86.7768 35.4513 86.5015 35.6128C85.9655 35.3705 86.4207 34.6659 86.7805 34.7614L86.8099 34.7503ZM47.0644 126.774C47.3617 126.8 46.9945 127.277 46.8844 127.508C46.7376 127.266 47.1084 127.005 47.0644 126.774ZM64.1233 56.4309L64.5234 56.7761C64.5059 56.9877 64.4239 57.1889 64.2885 57.3525C64.1355 57.3147 63.9916 57.2464 63.8654 57.1518C63.7393 57.0572 63.6335 56.9382 63.5543 56.8019C63.688 56.6084 63.8923 56.475 64.1233 56.4309ZM2.71535 70.278C2.58319 70.0688 2.88041 69.8263 2.85104 69.6134C2.90977 69.562 2.97953 69.6501 3.04194 69.6904C2.91345 69.8887 2.90624 70.0761 2.71535 70.278ZM9.52869 72.5648C9.4516 71.8086 9.82593 71.0192 10.1453 70.23C10.4904 70.7586 10.1895 71.9665 9.52869 72.5648ZM33.1771 96.8302C33.0853 96.6503 33.2357 96.4628 33.3201 96.2609C33.511 96.4334 33.2248 96.6393 33.1771 96.8302ZM34.2783 96.562L34.4069 96.4114L34.5573 96.5401C34.546 96.5667 34.5276 96.5896 34.5042 96.6065C34.4808 96.6233 34.4532 96.6332 34.4244 96.6355C34.3957 96.6378 34.3669 96.632 34.3411 96.619C34.3153 96.6061 34.2937 96.5865 34.2783 96.562ZM36.5801 96.7162C36.547 96.6684 36.5176 96.6941 36.4883 96.7162L36.3892 96.628C36.4332 96.5949 36.4075 96.5656 36.3892 96.5362L36.4736 96.4373C36.5066 96.485 36.536 96.4593 36.5653 96.4373C36.5979 96.4674 36.6322 96.4954 36.6681 96.5215C36.6203 96.5582 36.646 96.5879 36.6681 96.6172L36.5801 96.7162ZM48.9034 54.3093C49.0282 53.5751 49.6376 53.8835 50.1295 54.4011C50.1295 54.5883 49.935 54.79 49.9827 54.9736C49.7571 54.9828 49.534 54.9245 49.3417 54.8062C49.1494 54.6878 48.9968 54.5149 48.9034 54.3093ZM57.9377 51.9963C57.6698 51.2621 58.2204 50.2418 58.3893 49.5994C58.3846 49.589 58.3822 49.5778 58.3822 49.5664C58.3822 49.555 58.3846 49.5435 58.3893 49.5331C58.3893 49.5551 58.3893 49.5774 58.3893 49.5994C58.3893 49.7022 58.492 49.86 58.4847 49.9665C58.4774 50.073 58.3378 49.9369 58.3415 49.9296C58.1873 50.3921 58.5838 51.3575 57.9377 51.9963ZM62.185 53.7292C61.9757 53.6265 61.9978 53.395 61.7665 53.1087C61.3444 52.5911 60.6653 52.3268 61.0581 51.8092C61.4047 51.9622 61.7103 52.1951 61.9501 52.4885C62.0639 52.6537 62.0455 52.9325 62.1813 53.0316C62.6108 53.3473 62.9963 52.8519 63.547 53.1639C63.2643 53.4943 62.6585 53.9789 62.185 53.7292Z" fill="#E9AD62"/>
<path d="M138.47 350.747C138 355.636 119.685 352.685 110.57 362.494C107.16 366.165 101.643 375.735 100.787 378.088C100.511 378.906 100 379.625 99.3189 380.155C98.6259 380.64 97.8043 380.908 96.9585 380.926C96.571 380.923 96.1856 380.867 95.8131 380.76C93.8968 380.144 93.1957 376.124 93.1406 375.801C92.2008 370.118 93.717 365.324 93.438 361.947C92.623 352.163 76.6433 353.812 63.336 338.045C60.7663 334.998 57.2055 330.006 52.3634 330.028C50.5867 330.028 48.4392 330.718 43.8028 330.736C41.7434 330.736 40.3336 330.516 39.6545 330.574C35.231 330.942 32.5036 333.199 23.5978 333.845C10.6319 334.789 6.77002 330.751 1.81789 334.414C1.81789 334.414 -4.01886 338.768 -8.54884 340.538C-11.2947 341.613 -11.1846 340.875 -12.8769 341.775C-15.9091 343.39 -19.7014 352.09 -19.7014 352.09C-23.2255 360.108 -25.74 360.662 -24.9067 362.677C-23.4787 366.135 -16.368 363.823 -10.7808 369.527C-9.8851 370.438 -7.75237 372.615 -8.39845 374.637C-8.8353 376.014 -10.5422 377.207 -12.1427 377.258C-12.6091 377.268 -13.073 377.187 -13.5084 377.02C-14.4629 376.693 -19.5289 374.979 -20.6265 376.135C-21.5699 377.13 -18.9927 379.556 -18.354 385.103C-17.9098 389.042 -18.9305 390.198 -19.4884 390.61C-19.8733 390.888 -20.3144 391.078 -20.7806 391.168C-20.8529 391.25 -20.9439 391.315 -21.0461 391.355C-21.1483 391.395 -21.2588 391.41 -21.368 391.399C-22.4531 391.347 -23.4926 390.948 -24.334 390.261C-27.3736 387.691 -33.9042 377.218 -40.0201 373.635C-47.2959 369.377 -54.1938 374.736 -57.828 369.964C-59.48 367.791 -59.9683 364.175 -58.4522 362.013C-55.6696 358.052 -49.0618 362.52 -40.5745 359.168C-37.2412 357.854 -34.0695 353.595 -27.7261 345.079C-25.8612 342.582 -23.4823 339.109 -24.602 337.458C-24.7361 337.272 -24.9029 337.113 -25.094 336.988C-27.4728 335.215 -28.3978 331.639 -28.5703 331.07C-29.8882 326.981 -43.2028 322.175 -47.1087 320.604C-49.5426 319.624 -69.7439 310.693 -78.6791 294.133C-79.8428 291.971 -82.7906 286.009 -85.4006 286.442C-87.3463 286.765 -87.2986 290.341 -90.3858 291.703C-92.6912 292.72 -95.9254 292.14 -97.8233 290.418C-101.347 287.22 -99.1924 281.512 -101.333 280.649C-103.535 279.757 -105.852 285.906 -111.681 287.595C-118.186 289.478 -124.754 284.559 -125.8 283.744C-132.775 278.322 -134.371 269.06 -134.922 265.892C-136.067 259.211 -134.65 255.98 -137.598 252.181C-139.753 249.42 -141.636 249.685 -145.348 247.31C-145.858 246.99 -157.381 239.399 -157.267 228.125C-157.197 219.939 -151.027 214.227 -149.925 213.206C-144.147 207.858 -140.271 209.972 -137.672 206.287C-131.971 198.211 -148.189 184.628 -143.494 172.124C-140.645 164.54 -131.255 160.884 -125.275 160.062C-109.662 157.911 -93.5098 171.882 -86.869 186.243C-79.6703 201.808 -86.1752 212.373 -77.141 219.825C-68.9694 226.565 -55.6034 224.561 -55.1151 222.626C-54.7774 221.323 -60.3207 220.244 -62.4755 214.917C-63.9916 211.165 -62.9344 207.531 -62.6517 206.606C-61.1209 201.613 -56.9287 198.812 -55.1813 197.682C-40.2551 188.001 -2.08072 187.576 13.9871 171.008C32.0116 152.426 26.5786 109.035 39.1003 98.819C39.8345 98.2206 43.1677 95.669 42.7271 93.0333C42.1765 89.7294 36.3581 89.9312 32.276 86.1979C25.3856 79.9095 25.3304 64.1941 32.019 58.7721C37.9439 53.9998 46.523 59.3707 48.9716 55.6557C52.5728 50.1859 34.3648 37.8588 37.5916 26.655C39.5665 19.805 49.3569 14.1441 57.4331 16.4017C64.2868 18.3143 68.8498 25.4985 69.2573 31.3427C69.4995 34.7897 68.3248 38.1413 69.0847 38.4093C69.8446 38.6773 70.9643 35.1605 73.7139 32.9028C77.8143 29.5402 84.5285 29.7972 88.2105 31.3427C101.125 36.7537 106.65 65.8093 96.015 78.3971C92.5716 82.4865 87.4836 84.7442 88.082 88.0921C88.6253 91.1537 93.17 90.8933 98.7829 94.3991C110.431 101.671 108.628 113.855 119.807 118.301C120.196 118.455 120.651 118.602 120.651 118.602C122.565 119.256 124.529 119.753 126.524 120.088C129.068 120.533 140.423 122.511 141.274 126.791C141.686 128.858 139.468 130.995 135.034 135.268C130.427 139.706 129.267 139.354 127.89 141.439C124.88 145.994 127.523 152.033 130.654 161.692C132.952 168.777 134.325 176.141 136.557 183.24C142.13 200.861 143.532 246.73 120.038 275.44C111.459 285.917 98.5113 301.736 88.2179 308.479C86.5513 309.58 82.7665 311.86 80.3106 316.438C79.6572 317.653 76.0009 323.556 77.0324 330.02C78.912 341.786 95.2624 350.284 103.405 346.576C110.563 343.32 111.826 333.577 117.314 334.095C120.174 334.356 123.485 337.465 123.316 339.341C123.151 341.151 122.879 341.72 122.879 341.72C122.637 342.722 122.457 343.104 122.512 343.467C122.534 343.567 122.565 343.666 122.604 343.761C123.037 344.799 128.367 343.995 131.781 344.91C134.99 345.702 138.679 348.57 138.47 350.747Z" fill="#FFE600"/>
</g>
<path d="M65.6029 128.206C100.178 128.206 128.206 100.178 128.206 65.6029C128.206 31.0283 100.178 3 65.6029 3C31.0283 3 3 31.0283 3 65.6029C3 100.178 31.0283 128.206 65.6029 128.206Z" stroke="#FFE600" stroke-width="5.56471"/>
</svg>
