<svg width="131" height="127" viewBox="0 0 131 127" fill="none" xmlns="http://www.w3.org/2000/svg">
<path d="M32.7238 11.7329C44.1701 4.52842 57.6729 1.29982 71.1401 2.54727C94.1565 4.43043 107.443 17.8636 114.264 24.2245C121.086 30.5854 127.467 46.1528 129.12 52.0324C130.773 57.9121 129.351 80.3216 123.45 87.3939C117.549 94.4662 101.543 123.216 75.3249 122.504C49.1072 121.793 33.6026 119.68 22.0526 104.593C10.5026 89.5073 3.91141 76.4089 4.14158 66.2189C4.37174 56.0289 7.44752 40.0221 14.0386 31.527C20.6296 23.0318 28.1624 14.4112 32.7238 11.7329Z" fill="#60C9EB"/>
<path d="M85.003 44.5605C74.4295 55.1899 63.6048 65.5403 52.529 75.6117C50.2971 72.5986 48.2047 69.474 46.2518 66.2377C42.7994 60.5464 33.8229 65.7565 37.3172 71.4687C40.6007 76.8565 44.2647 82.003 48.2814 86.8688C49.2592 87.8272 50.5738 88.3641 51.9431 88.3641C53.3123 88.3641 54.6269 87.8272 55.6048 86.8688C68.1591 75.5559 80.4138 63.8943 92.3683 51.8839C97.0134 47.1551 89.7109 39.8108 85.003 44.5605Z" fill="white"/>
<path d="M116.312 24.579C107.913 14.903 96.9678 7.77874 84.7201 4.01677C72.4724 0.254798 59.4147 0.00622845 47.0327 3.29934C22.4052 10.0787 4.28506 32.3837 1 57.2622L1.5231 57.0948C0.690671 66.0013 1.75173 74.9831 4.63666 83.4504C7.5216 91.9177 12.1651 99.6789 18.2623 106.224L18.074 106.58C19.0365 107.396 20.02 108.212 21.0244 109.007L21.4846 109.447C21.7261 109.69 22.0194 109.876 22.3426 109.991C29.49 115.33 37.359 119.627 45.7145 122.754C71.158 132.17 101.079 121.52 117.442 100.554C125.902 89.641 130.399 76.1751 130.194 62.3684C129.988 48.5617 125.093 35.2355 116.312 24.579ZM115.705 94.3186C101.414 115.598 72.4554 126.897 47.8907 118.256C39.6468 115.337 31.8881 111.197 24.8743 105.973C17.9269 99.5537 12.6466 91.5393 9.48963 82.6224C6.33263 73.7055 5.39368 64.1541 6.75409 54.7932C6.83993 54.4215 6.83993 54.0351 6.75409 53.6633C8.65951 44.4307 12.6958 35.7709 18.5409 28.3746C24.3861 20.9782 31.8784 15.0498 40.4207 11.0621C62.2443 1.1651 89.6967 6.29147 107.231 22.3401C116.984 31.3628 123.196 43.5704 124.75 56.7657C126.303 69.961 123.096 83.2775 115.705 94.3186Z" fill="white" stroke="white" stroke-width="1.39118"/>
</svg>
