<svg width="147" height="147" viewBox="0 0 147 147" fill="none" xmlns="http://www.w3.org/2000/svg">
<mask id="mask0_2_8856" style="mask-type:alpha" maskUnits="userSpaceOnUse" x="11" y="10" width="126" height="126">
<path d="M135.117 61.4862C135.821 65.155 136.196 68.8794 136.239 72.6148C136.241 72.7415 136.242 72.8646 136.239 72.9885C136.268 77.8933 135.713 82.784 134.588 87.5581C134.394 88.38 134.185 89.1963 133.961 90.0065C133.666 91.0719 133.34 92.1307 132.983 93.1831C132.71 93.9828 132.42 94.7857 132.113 95.5918C130.375 100.128 128.117 104.448 125.383 108.464C124.65 109.543 123.885 110.596 123.087 111.623C119.989 115.621 116.418 119.229 112.452 122.368C111.303 123.277 110.12 124.148 108.904 124.981C101.817 129.813 93.8105 133.132 85.3838 134.732C76.7247 136.398 67.8108 136.21 59.2295 134.18C59.0692 134.143 58.9047 134.104 58.7431 134.06C55.2887 133.216 51.9134 132.075 48.6549 130.651C46.3899 129.665 44.1855 128.545 42.0529 127.297L41.9807 127.252C41.7328 127.108 41.4899 126.971 41.2428 126.813C35.0135 123.045 29.4853 118.224 24.9046 112.565C23.5295 110.865 22.2452 109.093 21.0572 107.257C20.241 105.998 19.4677 104.702 18.7371 103.369C18.6513 103.213 18.5653 103.058 18.4825 102.898C18.3272 102.614 18.1786 102.324 18.0263 102.036C17.7298 101.462 17.4402 100.88 17.1578 100.288C14.8368 95.4262 13.1522 90.2856 12.1454 84.993C9.60949 71.8384 11.3793 58.2167 17.1925 46.1469C17.5751 45.3524 17.9705 44.5666 18.3868 43.7919C18.989 42.6802 19.6217 41.5776 20.2848 40.4842C20.3061 40.4435 20.3298 40.4043 20.3557 40.3663C20.5119 40.1084 20.6718 39.8498 20.836 39.5942L20.8622 39.5556C25.4403 32.3652 31.4422 26.1883 38.4985 21.4061C45.5547 16.6239 53.5156 13.3376 61.8905 11.7495C70.2338 10.1448 78.8167 10.2597 87.114 12.0876C95.4113 13.9154 103.248 17.4176 110.145 22.3795C112.677 24.1945 115.069 26.1957 117.303 28.3665C126.511 37.3076 132.733 48.8746 135.117 61.4862Z" fill="#E9AD62"/>
</mask>
<g mask="url(#mask0_2_8856)">
<path d="M135.116 61.4867C135.819 65.1555 136.195 68.8799 136.237 72.6153C136.239 72.742 136.24 72.8651 136.238 72.9889C136.266 77.8938 135.711 82.7845 134.586 87.5586C134.392 88.3805 134.183 89.1968 133.959 90.007C133.664 91.0723 133.339 92.1312 132.982 93.1836C132.708 93.9833 132.418 94.7862 132.112 95.5923C130.374 100.129 128.115 104.448 125.382 108.464C124.649 109.544 123.883 110.597 123.085 111.624C119.988 115.622 116.417 119.23 112.45 122.368C111.301 123.278 110.119 124.149 108.903 124.982C101.816 129.813 93.8089 133.132 85.3822 134.732C76.7231 136.398 67.8092 136.21 59.2279 134.181C59.0677 134.144 58.9031 134.105 58.7415 134.061C55.2871 133.216 51.9118 132.076 48.6533 130.652C46.3883 129.665 44.1839 128.545 42.0513 127.298L41.9791 127.252C41.7312 127.109 41.4883 126.972 41.2413 126.814C35.0119 123.045 29.4838 118.224 24.903 112.565C23.5279 110.865 22.2437 109.093 21.0557 107.258C20.2394 105.998 19.4661 104.702 18.7355 103.369C18.6497 103.214 18.5638 103.058 18.4809 102.898C18.3256 102.614 18.177 102.325 18.0247 102.036C17.7282 101.463 17.4386 100.88 17.1562 100.289C14.8352 95.4267 13.1506 90.2861 12.1438 84.9934C9.6079 71.8389 11.3777 58.2172 17.1909 46.1473C17.5735 45.3529 17.9689 44.5671 18.3852 43.7924C18.9874 42.6807 19.6201 41.5781 20.2832 40.4847C20.3045 40.444 20.3283 40.4048 20.3541 40.3668C20.5103 40.1089 20.6703 39.8503 20.8344 39.5946L20.8606 39.5561C25.4387 32.3657 31.4407 26.1888 38.4969 21.4066C45.5531 16.6244 53.5141 13.3381 61.8889 11.75C70.2322 10.1452 78.8152 10.2602 87.1125 12.088C95.4098 13.9159 103.247 17.4181 110.144 22.38C112.675 24.195 115.067 26.1961 117.301 28.367C126.51 37.3081 132.731 48.8751 135.116 61.4867Z" fill="#E9AD62"/>
<path d="M144.603 161.444C144.2 161.075 143.829 160.672 143.494 160.24C142.959 159.688 142.222 159.447 141.855 158.957C141.488 158.466 141.254 157.767 140.872 157.197C140.551 156.732 140.06 156.232 139.829 155.652C139.776 155.509 139.818 155.377 139.76 155.291C139.675 155.098 139.537 155.042 139.519 154.908C139.428 154.256 140.364 153.834 140.732 153.431C140.793 153.363 140.996 153.033 141.124 152.825C141.277 152.487 141.372 152.125 141.405 151.755C141.612 150.878 141.728 150.098 141.049 149.207C140.784 148.854 140.231 148.56 140.02 147.95C139.992 147.786 140 147.617 140.043 147.457C140.087 147.296 140.165 147.147 140.272 147.02C140.531 146.809 140.835 146.894 141.044 146.831C141.252 146.769 141.377 146.621 141.585 146.552C141.921 146.471 142.262 146.414 142.606 146.383C142.732 146.359 142.854 146.231 142.973 146.212C143.557 146.119 144.23 146.316 144.874 146.223C144.978 146.203 145.091 146.087 145.198 146.078C145.788 146.018 146.384 146.225 146.858 146.161C147.162 146.129 147.495 145.878 147.843 145.838C148.19 145.798 148.985 146.162 149.426 146.089C149.815 145.963 150.186 145.789 150.531 145.571C150.874 145.408 151.407 145.381 151.563 145.105C151.592 145.015 151.597 144.919 151.58 144.827C151.562 144.734 151.522 144.648 151.462 144.575C151.261 144.325 150.82 144.462 150.319 144.46C149.466 144.459 148.206 144.491 147.862 145.472C147.806 145.352 147.732 145.299 147.628 145.382C147.057 145.364 146.525 145.593 146.002 145.633C145.772 145.644 145.555 145.502 145.311 145.477C144.91 145.434 144.481 145.558 144.095 145.531C143.898 145.516 143.715 145.36 143.486 145.318C143.269 145.303 143.05 145.302 142.832 145.316C141.768 145.261 141.024 144.948 139.989 145.146C138.69 144.646 137.465 142.694 136.734 141.372C136.886 141.31 136.914 141.219 137.004 141.142C136.691 140.189 135.861 139.562 135.559 138.842C135.936 138.449 136.461 138.73 136.845 138.806C137.052 138.617 137.357 138.843 137.684 138.814C138.011 138.785 138.567 138.469 139.105 138.333C139.235 138.308 139.393 138.349 139.509 138.316C139.626 138.282 139.793 138.134 139.964 138.09C140.135 138.047 140.314 138.087 140.411 138.046C140.622 137.962 140.811 137.831 140.964 137.662C141.116 137.494 141.228 137.293 141.291 137.074C141.309 136.798 141.109 136.709 141.002 136.427C140.937 136.26 140.995 136.055 140.834 135.88C140.615 135.615 140.022 135.542 139.561 135.551C138.972 135.549 138.386 135.639 137.825 135.816C137.305 135.758 136.782 135.749 136.261 135.79C135.806 135.832 134.956 136.039 134.687 135.65C134.418 135.26 134.967 134.202 135.572 134.023C135.838 133.946 136.075 134.271 136.378 134.172C136.64 134.048 136.87 133.865 137.048 133.636C137.225 133.407 137.346 133.14 137.401 132.855C137.436 132.646 137.321 132.437 137.363 132.227C137.405 132.017 137.693 131.898 137.445 131.699C137.171 131.692 137.203 131.977 136.962 132.064C136.721 132.151 136.51 131.967 136.237 132.046C135.818 132.163 135.64 132.5 135.13 132.743C134.817 132.672 134.464 132.781 134.17 132.631C133.645 132.993 132.817 133.08 132.375 133.468C132.154 133.659 132.106 134.016 131.835 134.221C131.189 134.748 130.023 134.848 129.609 134.557C128.446 133.733 129.21 132.469 128.676 131.458C128.773 131.125 129.093 131.038 129.269 130.787C129.364 130.657 129.326 130.496 129.406 130.346C129.577 130.06 129.808 129.814 130.082 129.623C130.078 129.415 130.121 129.208 130.208 129.019C130.296 128.83 130.426 128.663 130.587 128.532C130.515 128.408 130.512 128.296 130.694 128.228C130.571 127.762 130.769 127.369 130.907 126.961C130.744 126.342 130.874 125.768 130.781 125.143C130.681 124.761 130.546 124.389 130.378 124.032C130.274 123.726 130.258 123.404 130.151 123.103C130.022 122.651 129.814 122.225 129.537 121.845C129.595 121.737 129.712 121.644 129.617 121.501C129.511 121.422 129.427 121.318 129.372 121.197C129.318 121.077 129.295 120.945 129.307 120.813C129.284 120.698 129.164 120.537 129.162 120.489C129.138 120.206 129.305 119.942 129.27 119.721C129.189 119.299 128.944 119.152 128.93 118.803C128.942 118.57 129.002 118.342 129.106 118.133C129.21 117.924 129.356 117.739 129.535 117.589C129.643 117.508 129.838 117.493 129.946 117.391C130.263 117.098 130.313 116.498 130.775 116.156C131.236 115.814 131.921 115.72 132.324 115.112C132.347 115.073 132.365 115.032 132.379 114.99L118.325 105.985C118.355 106.18 118.357 106.377 118.329 106.572C118.254 106.96 117.976 107.364 117.974 107.805C118.012 108.068 118.075 108.326 118.163 108.576C118.387 109.748 119.298 110.725 120.15 111.366C120.75 111.827 121.704 112.048 120.934 112.711L120.98 112.739L120.99 112.794C121.114 112.991 121.031 113.16 120.825 113.199C120.7 113.073 120.759 112.991 120.766 112.889L120.755 112.831L120.744 112.777C120.421 112.865 120.081 112.874 119.752 112.806C119.604 112.872 119.651 112.979 119.479 113.038C118.822 113.102 118.176 113.249 117.556 113.476C117.163 113.649 116.871 114.037 116.519 114.19C116.24 114.254 115.952 114.275 115.667 114.252C114.922 114.264 114.859 114.033 114.747 113.348C114.786 113.105 114.974 112.875 114.97 112.558C114.963 112.092 114.501 111.336 114.149 111.53C114.02 111.599 113.971 112.166 114.011 112.45C114.095 112.962 114.33 113.438 114.687 113.815C114.577 114.061 114.865 114.301 114.762 114.601C114.697 114.789 114.496 114.853 114.399 115.066C114.897 114.859 114.602 115.741 114.257 115.691C114.043 115.53 114.441 115.17 114.212 115.244C113.88 115.969 112.431 116.485 112.296 115.502C111.97 116.184 111.413 116.848 110.628 116.729C109.42 116.548 108.105 115.084 106.931 113.773C106.703 113.517 106.455 113.24 106.268 113.003C105.842 112.456 105.949 111.898 105.824 111.439C105.773 111.173 105.567 110.92 105.525 110.678C105.495 110.519 105.553 110.415 105.507 110.27C105.321 109.708 104.724 109.108 104.621 108.571C104.577 108.34 104.626 107.987 104.603 107.692C104.571 107.242 104.565 106.79 104.584 106.339C104.591 106.181 104.654 106.004 104.652 105.878C104.649 105.527 104.523 105.2 104.54 104.939C104.57 104.589 104.775 104.367 104.776 104.079C104.771 103.897 104.664 103.727 104.665 103.499C104.646 103.128 104.635 102.835 104.609 102.467C104.597 102.286 104.706 102.074 104.708 101.868C104.713 101.759 104.613 101.643 104.607 101.514C104.645 101.288 104.661 101.06 104.656 100.832C104.545 100.41 104.472 99.9782 104.439 99.5428C104.416 99.2035 104.321 98.9225 104.257 98.5871C104.204 98.3131 104.297 98.0563 104.252 97.8184C104.149 97.403 103.991 97.0033 103.782 96.6301L100.535 94.5446C100.324 94.6604 100.141 94.8231 100.002 95.0203C100.157 95.2635 100.346 95.5111 100.248 95.6982C100.047 95.8412 99.9444 95.5395 99.7797 95.5186C99.3695 96.423 100.054 97.4022 100.443 98.3818C100.531 98.6078 100.537 98.8757 100.646 99.0905C100.948 99.6942 101.599 100.444 101.643 100.963C101.701 101.699 101.552 102.445 101.677 103.199C101.745 103.672 102.04 104.116 102.125 104.582C102.178 104.86 102.045 105.203 102.17 105.504C102.039 105.589 101.941 105.716 101.894 105.865C101.847 106.014 101.853 106.175 101.911 106.32C101.466 106.67 101.619 107.156 101.513 107.58C101.198 107.79 101.337 108.103 101.087 108.323C101.139 108.369 101.18 108.426 101.208 108.49C101.235 108.553 101.249 108.622 101.247 108.692C101.245 108.761 101.229 108.829 101.198 108.891C101.167 108.953 101.123 109.008 101.069 109.052C100.505 108.991 100.5 109.59 99.9845 109.79C99.3871 110.027 98.2409 109.271 97.8923 108.62C97.6417 108.116 97.482 107.572 97.4208 107.013C97.3951 106.644 97.5245 106.343 97.4353 105.994C97.0902 104.677 95.9521 103.826 95.151 104.816C94.9734 105.04 95.0432 105.289 94.8124 105.509C94.9668 105.808 94.8266 106.209 94.9345 106.558C95.0214 106.837 95.2827 107.089 95.374 107.352C95.6446 108.123 95.6202 109.032 94.9074 109.545C94.7531 109.657 94.3488 109.712 94.0165 109.929C93.1876 110.461 92.748 110.429 92.0467 110.103C91.7298 109.951 91.3801 109.588 91.0436 109.548C90.7911 109.517 90.5832 109.759 90.2859 109.67C89.8959 110.152 89.6078 110.659 89.2573 111.152C89.2179 111.298 89.3528 111.261 89.4142 111.406C89.1848 111.379 89.2135 111.568 89.2113 111.654C89.2121 111.815 89.0421 112.06 89.0315 112.122C88.9928 112.526 89.3451 113 89.1513 113.355C88.9882 113.48 88.8932 113.315 88.7673 113.301C88.8723 113.655 88.5086 113.59 88.3004 113.596C88.0761 113.846 87.897 114.133 87.7712 114.445C87.4369 114.299 87.0038 114.457 86.6718 114.304C86.1762 114.077 85.6851 113.248 85.3787 112.622C85.2365 112.328 85.2118 111.926 85.0595 111.637C84.8752 111.299 84.4563 111.042 84.2992 110.807C84.1029 110.452 83.9314 110.084 83.7859 109.705C83.471 108.977 82.8108 108.396 82.5429 107.816C82.4927 107.71 82.5151 107.534 82.4623 107.394C82.2254 106.925 81.946 106.478 81.6277 106.059C80.8526 104.874 80.1736 103.629 79.5969 102.336C79.5035 102.108 79.4495 101.865 79.4375 101.619C79.4801 101.431 79.7258 101.329 79.8 101.15C79.9193 100.727 80.0056 100.296 80.058 99.8598C80.2249 98.9534 80.3436 98.4598 79.8681 97.6537C79.6187 97.1718 79.2689 96.7488 78.8425 96.4132C78.4161 96.0776 77.9229 95.8374 77.3959 95.7083C76.723 95.4476 76.003 95.3306 75.2822 95.3648C74.3617 95.4174 73.916 95.5884 72.8169 96.1535C72.5508 96.2866 72.2444 96.4049 71.9668 96.5364L70.4426 98.9059C70.3966 99.6621 70.7389 100.456 71.2378 101.306C71.585 101.845 72.037 102.307 72.5668 102.667C72.7643 102.801 73.0282 102.833 73.2251 102.963C73.8451 103.419 74.565 103.719 75.3248 103.84C76.0225 103.912 76.7513 103.639 77.4786 103.376C77.7223 103.576 78.2302 103.554 78.4953 103.866C78.5288 103.904 78.5332 104.064 78.5463 104.133C78.837 104.661 79.1823 105.157 79.5768 105.614C79.9895 106.189 80.2886 106.973 80.6292 107.386C80.9495 107.778 81.2064 108.218 81.3906 108.69C81.5531 109.097 81.7722 109.48 82.0412 109.826C82.2239 110.097 82.3561 110.476 82.5341 110.703C82.7121 110.931 83.0401 111.122 83.2269 111.337C83.4829 111.606 83.7088 111.903 83.9005 112.221C83.9514 112.331 83.9405 112.587 84.0107 112.798C84.1812 113.24 84.5046 113.642 84.6277 114.07C84.7507 114.499 84.545 114.968 84.6312 115.497C84.7174 116.026 84.922 116.432 84.9415 116.847C84.9794 117.28 84.9043 117.715 84.7234 118.111C84.4496 118.634 83.8589 119.18 83.3395 119.22C82.573 119.276 82.451 117.895 81.9968 117.455C81.9131 117.402 81.8244 117.358 81.7323 117.322C81.6 117.231 81.4489 117.172 81.2903 117.148C81.1317 117.125 80.9698 117.138 80.817 117.187C81.0049 117.524 80.8241 117.772 80.6951 118.036C80.7833 118.497 81.1221 119.311 80.8858 119.756C80.5412 120.397 79.2311 120.368 78.7063 120.359C78.4551 120.355 78.207 120.406 78.0746 120.398C77.286 120.339 76.5788 119.768 75.8583 119.42C75.537 119.264 75.0919 119.144 74.6844 118.968C73.8911 118.63 73.1188 118.247 72.3643 117.916C71.9712 117.727 71.5656 117.565 71.1503 117.431C70.6847 117.322 69.7597 117.566 69.1265 117.519C68.9366 117.503 68.8167 117.383 68.685 117.379C68.4633 117.372 68.2837 117.489 68.1513 117.481C67.8506 117.452 67.6245 117.208 67.333 117.11C66.1308 116.686 64.8486 116.43 63.6898 116.136C63.2459 116.023 62.8011 115.749 62.413 116.006C62.7026 116.582 63.3556 116.753 63.8213 117.019C64.2869 117.285 64.8326 117.618 65.3732 117.885C65.9137 118.151 66.5245 118.218 67.018 118.512C67.4062 118.745 67.6696 119.262 68.089 119.559C68.2486 119.671 68.4538 119.669 68.5875 119.782C68.7211 119.894 68.7496 120.024 68.8439 120.106C69.3847 120.511 70.0071 120.463 70.562 120.57C71.2247 120.694 71.8609 120.973 72.5134 121.121C73.0415 121.244 73.6169 121.205 74.1406 121.344C74.3302 121.398 74.5667 121.521 74.772 121.597C75.2 121.766 75.6185 121.958 76.0255 122.172C76.237 122.281 76.4117 122.472 76.6312 122.565C76.7783 122.63 76.9485 122.601 77.1156 122.674C77.7281 122.979 78.302 123.356 78.8252 123.797C79.184 124.09 79.5006 124.431 79.7662 124.81C80.4828 125.88 80.0683 127.368 79.2493 128.343C78.8651 128.727 78.444 129.071 77.9921 129.372C77.2117 129.962 76.629 130.511 75.7471 130.922C75.3308 131.11 74.7519 130.761 74.2604 130.732C74.0561 130.718 73.7843 130.763 73.562 130.753C73.3396 130.743 73.0594 130.685 72.8807 130.708C72.3012 130.785 71.9301 131.151 71.3122 131.34C71.1181 131.4 70.8586 131.352 70.5312 131.418C70.5144 131.702 70.1857 131.567 69.9774 131.767L70.0239 131.796L70.0342 131.85L70.0845 131.937C70.0353 131.973 70.0609 132.028 69.9843 132.057C69.9343 132.011 69.8716 132.015 69.8336 131.914L69.7789 131.902L69.7404 131.857C68.9685 132.296 68.5079 132.956 69.1463 133.656C69.3075 133.835 69.6459 133.826 69.8751 133.969C70.9307 134.623 71.1231 136.1 69.847 136.482C69.9659 136.714 70.1794 136.52 70.3022 136.732C70.0981 137.189 69.4177 137.443 68.8942 137.618C68.7536 137.644 68.767 137.343 68.6932 137.387C68.2572 137.687 67.493 138.068 67.0146 138.029C66.602 138.294 66.1611 138.513 65.7002 138.68C65.2295 138.722 64.7553 138.701 64.2902 138.617C63.8219 138.53 63.3489 138.47 62.8736 138.439C62.5466 138.449 62.2521 138.532 61.9082 138.512C61.2325 138.476 60.5898 138.517 59.9426 138.513C59.619 138.476 59.2931 138.463 58.9675 138.476C58.7908 138.51 58.5973 138.67 58.4039 138.714C58.0158 138.733 57.6383 138.847 57.3054 139.047C57.2685 139.402 56.9364 139.581 56.9311 139.866C56.9249 140.421 57.5433 141.114 58.0196 141.318C58.2297 141.368 58.4451 141.392 58.6611 141.389C58.8721 141.426 59.0852 141.45 59.299 141.462C59.4575 141.45 59.5903 141.324 59.7366 141.307C59.8829 141.291 60.1262 141.39 60.2644 141.39C60.7007 141.354 61.1334 141.282 61.5572 141.172C61.953 141.315 62.3738 141.373 62.7932 141.344C62.9014 141.323 62.9761 141.185 63.0901 141.156C63.2041 141.127 63.3214 141.213 63.4651 141.163C63.6088 141.113 63.6913 140.978 63.8487 140.921C64.3282 140.751 64.858 140.844 65.2744 140.735C65.433 140.704 65.5691 140.536 65.7284 140.51C66.1323 140.432 66.6492 140.595 67.1602 140.61C67.4895 140.571 67.8216 140.562 68.1525 140.581C68.585 140.693 68.9846 141.023 69.4068 141.16C69.5339 141.199 69.7157 141.153 69.8372 141.182C70.2883 141.294 70.6869 141.561 71.107 141.687C71.6226 141.806 72.1524 141.853 72.6811 141.827C73.2117 141.826 73.7318 141.791 74.2838 141.823C75.0352 141.512 75.7468 141.383 76.3681 141.642C77.0954 141.536 78.7119 141.84 79.3195 142.946C79.5479 143.431 79.6392 143.97 79.5834 144.503C79.5084 144.655 79.4165 144.798 79.3097 144.929C79.0902 145.091 78.8572 144.907 78.6758 145.151C78.3006 145.053 77.943 144.897 77.6157 144.689C77.2921 144.446 76.9536 144.223 76.6026 144.022C76.0609 143.808 75.4875 143.918 74.9318 143.826C74.6933 143.931 74.4437 144.009 74.1876 144.058C73.8547 144.604 73.6883 145.532 74.1985 146.07C74.3519 146.228 74.7457 146.235 75.0405 146.369C75.399 146.533 75.7836 146.633 76.1768 146.664C76.4868 146.702 76.7609 146.631 77.0589 146.645C77.2481 146.657 77.4845 146.799 77.7075 146.831C77.9367 146.826 78.1659 146.841 78.3925 146.876C78.5556 146.985 78.7109 147.105 78.8574 147.235C79.291 147.548 79.3264 147.519 79.4732 148.033C79.6529 148.66 79.8217 149.133 79.6539 149.643C79.9777 150.007 80.0181 150.59 80.0909 150.913C80.1637 151.235 80.3453 151.462 80.4435 151.761C80.5984 152.313 80.6774 152.884 80.6782 153.457C81.3386 153.765 81.0396 154.469 81.1789 154.924C81.2567 155.175 81.5484 155.41 81.6612 155.688C81.7395 155.882 81.7095 156.097 81.7721 156.268C81.8767 156.502 82.1372 156.692 82.1985 156.934C83.1936 156.744 84.0408 158.028 83.4016 158.849C83.0003 159.057 82.5883 159.151 82.2671 159.504C82.1007 159.689 82.0652 159.972 81.898 160.153C81.8109 160.245 81.6543 160.286 81.5651 160.367C81.0711 160.794 81.0849 161.374 80.8268 161.842C80.9645 161.868 81.0947 161.924 81.208 162.006C81.3214 162.089 81.415 162.195 81.4822 162.318C81.3681 162.445 81.3257 162.262 81.2318 162.299C81.4854 162.701 81.7941 163.066 82.1491 163.383C82.3688 163.614 82.5176 163.982 82.7025 164.167C82.9616 164.427 83.3883 164.451 83.2838 164.803C82.9223 165.063 82.6808 165.363 82.3833 165.547C82.219 165.646 81.9506 165.63 81.7891 165.743C81.5437 165.906 81.3956 166.304 81.0255 166.225C80.8893 166.315 81.0543 166.474 80.8053 166.54C80.597 166.486 80.8755 166.34 80.7708 166.203C80.3232 166.17 79.8791 166.303 79.5227 166.576C79.3836 166.689 79.377 166.869 79.2311 167.005C79.1254 167.103 79.0041 167.181 78.8721 167.238L90.9689 175.017C91.1659 174.718 91.5659 174.425 91.8057 174.076C92.1696 173.536 92.5573 172.905 92.8408 172.413C92.7617 172.003 92.833 171.578 93.0419 171.216C93.0392 170.772 92.8737 170.337 92.8688 169.9C92.8689 169.803 92.8963 169.712 92.9082 169.579C92.9266 169.284 92.8515 169.048 92.8726 168.767C92.887 168.632 92.9311 168.501 93.002 168.385C93.0728 168.269 93.1685 168.169 93.2822 168.094C93.072 167.835 92.9176 167.535 92.8284 167.213C92.7393 166.892 92.7174 166.555 92.7642 166.224C92.865 165.715 92.8391 165.873 93.3372 165.625C93.6815 165.465 94.0401 165.337 94.4082 165.245C94.7339 165.13 95.0615 164.869 95.3561 164.768C95.5806 164.692 95.8888 164.779 96.0269 164.7C96.2302 164.59 96.3268 164.314 96.4734 164.181C96.7578 164.183 97.1176 163.953 97.5158 163.944C97.6677 163.937 97.8236 164.05 98 164.053C98.5146 164.067 99.2677 163.979 99.5332 164.508C99.689 164.814 99.4032 164.981 99.6356 165.337C99.7786 165.459 99.9786 165.312 100.163 165.419C100.243 165.464 100.238 165.577 100.341 165.606C100.506 165.649 100.655 165.545 100.842 165.644C101.342 165.874 101.71 166.532 102.231 166.911C102.691 167.246 103.171 167.367 103.505 167.71C103.612 167.739 103.603 167.949 103.747 168.094C104.305 167.987 104.656 168.529 105.121 168.773C105.37 168.901 105.647 168.826 105.826 169.042C106.701 168.77 107.435 169.13 108.076 169.882C108.464 169.94 108.846 170.038 109.213 170.177C109.571 170.311 109.967 170.646 110.299 170.68C110.508 170.642 110.714 170.591 110.917 170.528C111.128 170.532 111.339 170.518 111.548 170.486C111.897 170.36 112.232 170.056 112.665 169.899C112.765 169.929 112.871 169.937 112.974 169.923C113.078 169.909 113.178 169.873 113.266 169.818C113.348 169.892 113.449 169.872 113.514 170.017C113.689 169.684 113.997 169.924 114.231 169.857C114.464 169.79 114.537 169.623 114.798 169.622C114.957 169.535 114.808 169.377 114.944 169.291C115.057 169.333 115.201 169.242 115.292 169.367C115.369 169.087 115.713 169.07 115.926 168.872C116.084 168.703 116.113 168.463 116.275 168.293C116.841 167.844 117.538 167.592 118.261 167.577C118.329 167.758 118.443 167.748 118.521 167.901C118.669 167.836 118.537 167.711 118.724 167.653C119.009 168.051 119.514 167.876 119.787 167.45C119.458 167.233 119.752 166.836 119.769 166.571C119.64 166.405 119.458 166.448 119.348 166.185C119.873 165.864 119.114 165.254 119.775 164.982C119.61 164.408 119.334 163.945 119.374 163.392C119.542 163.27 119.576 163.353 119.671 163.204C119.631 162.735 119.702 162.263 119.879 161.827C120.12 161.369 120.434 161.444 120.807 161.597C121.18 161.75 121.47 162.094 121.84 162.016C122.586 161.873 122.628 161.118 123.046 160.721C123.246 160.537 123.406 160.652 123.686 160.318C123.829 160.223 123.889 160.496 124.034 160.397C124.542 160.218 124.952 160.427 125.494 160.548C125.788 160.645 126.09 160.713 126.396 160.749C126.597 160.741 126.777 160.549 126.987 160.558C127.885 160.581 128.529 162.229 129.588 161.768C130.969 161.172 129.833 159.704 129.97 158.68C130.199 158.49 130.135 158.233 130.292 158.058C130.449 157.882 130.637 157.909 130.899 157.795C131.075 157.676 130.977 157.497 131.246 157.397C132.026 157.412 132.807 156.96 133.532 156.96C133.681 156.961 133.845 157.072 134.016 157.069C134.349 157.069 134.732 156.903 135.108 156.917C135.229 156.923 135.328 157.054 135.439 157.066C135.724 157.064 136.009 157.044 136.291 157.004C136.651 156.936 137.279 156.603 137.559 156.56C138.148 156.478 138.858 157.059 139.332 157.585C139.756 158.046 140.026 158.656 140.362 159.066C140.699 159.477 141.272 159.7 141.564 160.033C141.621 160.1 141.631 160.248 141.681 160.317C142.043 160.801 142.54 160.9 142.926 161.256C143.236 161.568 143.486 161.935 143.663 162.338C143.838 162.627 144.072 162.876 144.349 163.07L145.138 161.842C144.941 161.671 144.756 161.561 144.603 161.444ZM148.465 145.046C148.505 145.039 148.535 145.063 148.573 145.026C148.611 144.989 148.61 145.082 148.631 145.112L148.5 145.189C148.449 145.139 148.498 145.104 148.465 145.046ZM119.89 110.108C120.571 110.033 121.434 110.754 121.694 111.467C120.968 111.209 120.338 110.735 119.89 110.108ZM74.4491 102.191C74.2765 102.224 74.098 102.189 73.9501 102.094C73.8022 102 73.6958 101.852 73.6528 101.682C73.7386 101.661 73.8279 101.658 73.915 101.672C74.0022 101.687 74.0856 101.719 74.16 101.766C74.2344 101.814 74.2983 101.876 74.348 101.949C74.3977 102.022 74.4321 102.105 74.4491 102.191ZM73.4992 98.6877C73.7517 98.5423 74.0053 98.8714 74.058 99.108C73.7587 99.4193 73.3508 98.9478 73.4992 98.6877ZM131.684 148.43C131.77 148.215 132.034 148.594 132.164 148.712C131.972 148.778 131.864 148.448 131.684 148.43ZM84.2009 120.109L84.5346 119.9C84.6869 119.959 84.8168 120.065 84.9063 120.202C84.8443 120.307 84.7618 120.398 84.6639 120.47C84.5659 120.542 84.4545 120.593 84.3363 120.621C84.2811 120.549 84.2407 120.467 84.2174 120.379C84.1942 120.291 84.1886 120.199 84.2009 120.109ZM80.4396 168.049C80.2557 168.084 80.15 167.824 79.9882 167.799C79.9772 167.741 80.0429 167.713 80.0879 167.675C80.2113 167.812 80.3497 167.871 80.4396 168.049ZM83.6462 163.59C83.0791 163.478 82.5891 163.045 82.0845 162.614C82.5594 162.479 83.3672 162.971 83.6571 163.588L83.6462 163.59ZM106.689 151.809C106.537 151.838 106.428 151.679 106.304 151.576C106.486 151.474 106.57 151.734 106.699 151.807L106.689 151.809ZM106.741 150.947L106.663 150.816L106.79 150.736C106.864 150.824 106.851 150.893 106.751 150.945L106.741 150.947ZM107.375 149.301C107.332 149.309 107.345 149.34 107.358 149.367L107.271 149.422C107.264 149.382 107.232 149.392 107.205 149.408C107.178 149.424 107.168 149.348 107.151 149.321C107.135 149.294 107.18 149.278 107.164 149.251L107.251 149.197C107.259 149.241 107.294 149.227 107.321 149.214C107.341 149.243 107.363 149.271 107.386 149.299L107.375 149.301ZM79.2064 130.739C78.6974 130.482 79.0658 130.101 79.5516 129.866C79.6902 129.907 79.7937 130.097 79.9369 130.103C79.8933 130.268 79.8014 130.416 79.6733 130.529C79.5452 130.642 79.3866 130.715 79.2173 130.737L79.2064 130.739ZM79.5581 123.624C78.9625 123.655 78.3444 123.022 77.8981 122.76C77.8801 122.763 77.8622 122.748 77.8552 122.731L77.8981 122.76C77.9728 122.779 78.1114 122.742 78.1724 122.767C78.2333 122.793 78.1169 122.868 78.1162 122.864C78.4556 123.076 79.2503 123.01 79.569 123.622L79.5581 123.624ZM81.7837 120.915C81.6595 121.047 81.4952 120.97 81.2329 121.084C80.7611 121.275 80.4147 121.711 80.1223 121.296C80.3117 121.073 80.5513 120.9 80.8214 120.788C80.9692 120.76 81.1675 120.82 81.269 120.744C81.5964 120.502 81.3197 120.11 81.671 119.778C81.8657 120.073 82.0676 120.621 81.7944 120.913L81.7837 120.915Z" fill="#E96262"/>
<path d="M117.708 110.215C117.843 111.684 112.226 111.861 110.083 115.294C109.277 116.569 108.179 119.743 108.06 120.49C108.024 120.75 107.914 120.993 107.742 121.19C107.563 121.374 107.334 121.501 107.083 121.556C106.967 121.576 106.848 121.581 106.731 121.57C106.126 121.495 105.688 120.338 105.656 120.247C105.05 118.607 105.232 117.092 104.954 116.106C104.155 113.239 99.4933 114.638 94.6371 110.701C93.6991 109.938 92.3515 108.656 90.9142 108.938C90.3842 109.039 89.7853 109.367 88.4058 109.638C87.7928 109.755 87.3578 109.767 87.1594 109.824C85.8654 110.191 85.1817 111.013 82.5645 111.711C78.7602 112.73 77.3806 111.749 76.1068 113.121C75.283 114.021 74.3651 114.83 73.369 115.535C72.6119 116.012 72.6022 115.786 72.1506 116.142C71.3372 116.794 70.7043 119.602 70.7043 119.602C70.1113 122.19 69.3886 122.496 69.7561 123.05C70.3787 124 72.3628 122.903 74.3531 124.283C74.6687 124.507 75.4302 125.03 75.365 125.667C75.3146 125.907 75.1973 126.128 75.0266 126.304C74.8559 126.48 74.6389 126.604 74.4006 126.662C74.2618 126.691 74.1189 126.692 73.9794 126.668C73.6759 126.625 72.0607 126.407 71.8125 126.809C71.5643 127.212 72.4943 127.736 72.9974 129.352C73.3548 130.498 73.1173 130.899 72.9756 131.057C72.8774 131.162 72.7563 131.244 72.6215 131.296C72.6047 131.325 72.5811 131.35 72.5528 131.369C72.5244 131.387 72.4922 131.399 72.4586 131.402C72.1318 131.448 71.799 131.387 71.5098 131.228C70.4617 130.633 67.9199 127.893 65.8951 127.174C63.4891 126.318 61.7378 128.301 60.388 127.105C59.7707 126.554 59.4205 125.504 59.7485 124.776C60.3518 123.435 62.5748 124.389 64.9085 122.911C65.8285 122.328 66.5307 120.878 67.9356 117.983C68.3489 117.134 68.8614 115.963 68.4324 115.537C68.3823 115.49 68.3243 115.452 68.2612 115.424C67.4394 115.035 66.9766 114.021 66.8902 113.862C66.2642 112.718 62.0245 112.045 60.7739 111.798C59.997 111.644 53.472 110.14 49.8713 105.712C49.388 105.139 48.1872 103.53 47.4325 103.805C46.8706 104.014 47.0883 105.074 46.2504 105.657C45.9076 105.869 45.5139 105.985 45.1108 105.992C44.7077 105.999 44.3102 105.898 43.9599 105.699C42.7288 104.947 43.0453 103.123 42.3617 102.988C41.6782 102.853 41.316 104.81 39.6746 105.647C37.8452 106.576 35.6111 105.485 35.2512 105.303C32.8657 104.085 31.867 101.421 31.5206 100.508C30.7977 98.5831 31.0391 97.539 29.943 96.575C29.1441 95.8756 28.5966 96.0625 27.3596 95.5738C27.1903 95.509 23.3293 93.9037 22.7202 90.5407C22.276 88.0992 23.7867 86.0501 24.0562 85.6809C25.4722 83.7621 26.7567 84.1669 27.3079 82.9254C28.5472 80.1995 22.9462 77.0767 23.6333 73.0848C24.0493 70.6657 26.6355 69.0428 28.3526 68.4455C32.8776 66.9154 38.4827 70.1571 41.2759 74.0557C44.3067 78.2789 42.9714 81.7928 46.0712 83.5025C48.8845 85.0428 52.7514 83.6873 52.789 83.0821C52.8155 82.6734 51.1044 82.6566 50.1615 81.2036C49.7145 80.4636 49.5288 79.595 49.634 78.7369C49.8044 77.1645 50.8927 76.0931 51.3508 75.6543C55.2416 71.9208 66.583 69.6262 70.4263 63.7865C74.7343 57.2301 70.6498 44.6198 73.7964 40.8641C73.9826 40.6454 74.8288 39.6954 74.5487 38.9342C74.199 37.9845 72.4758 38.3734 71.0484 37.4951C68.6428 36.0152 67.7304 31.3388 69.4119 29.3431C70.9029 27.5819 73.7731 28.6963 74.2826 27.4516C75.0529 25.6151 68.922 22.9862 69.2472 19.467C69.4449 17.3139 72.04 15.0724 74.5731 15.2834C76.7228 15.463 78.4872 17.342 78.9427 19.06C79.2105 20.0702 79.0516 21.1359 79.2939 21.1718C79.5362 21.2077 79.668 20.0987 80.3583 19.2716C81.389 18.0356 83.401 17.7296 84.5961 17.9795C88.7477 18.8566 92.0487 27.1918 89.5954 31.5437C88.8043 32.9581 87.4326 33.9154 87.7851 34.8796C88.1217 35.7608 89.4585 35.423 91.3314 36.1489C95.2134 37.6493 95.3702 41.3826 98.9504 42.0662C99.0747 42.0911 99.2199 42.1082 99.2199 42.1082C99.8283 42.194 100.443 42.2305 101.057 42.2169C101.839 42.202 105.334 42.147 105.83 43.3716C106.07 43.9647 105.532 44.7254 104.455 46.2504C103.379 47.7754 102.972 47.7969 102.679 48.4957C102.041 50.023 103.174 51.6712 104.654 54.367C105.742 56.3454 106.557 58.4617 107.636 60.4493C110.302 65.3814 113.325 78.9533 107.964 88.8391C106.008 92.4458 103.053 97.8912 100.372 100.482C99.5001 101.237 98.844 102.21 98.47 103.301C98.3442 103.698 97.5916 105.666 98.2668 107.536C99.4948 110.931 104.85 112.531 107.062 110.964C109.007 109.587 108.828 106.617 110.49 106.452C111.359 106.365 112.52 107.103 112.591 107.669C112.63 107.916 112.633 108.167 112.599 108.415C112.57 108.595 112.566 108.778 112.587 108.959C112.6 108.987 112.615 109.014 112.633 109.04C112.822 109.325 114.362 108.781 115.427 108.861C116.387 108.913 117.643 109.544 117.708 110.215Z" fill="#60C9EB"/>
</g>
<path d="M84.9942 134.806C118.954 128.316 141.223 95.5241 134.732 61.5641C128.242 27.6041 95.4499 5.33573 61.49 11.8262C27.53 18.3168 5.2616 51.1084 11.7521 85.0683C18.2426 119.028 51.0342 141.297 84.9942 134.806Z" stroke="#FFE600" stroke-width="5.56471"/>
</svg>
