<svg width="1440" height="10910" viewBox="0 0 1440 10910" fill="none" xmlns="http://www.w3.org/2000/svg">
<path d="M-128.455 5280.39L1560.23 5306.14L1560.23 5302.14L-128.455 5276.1L-128.455 5280.39Z" fill="#EFEFEF"/>
<path d="M-128.455 5909.51L1560.23 5935.3L1560.23 5931.26L-128.455 5905.22L-128.455 5909.51Z" fill="#EFEFEF"/>
<path d="M-128.455 6234.63L1560.23 6260.37L1560.23 6256.38L-128.455 6230.34L-128.455 6234.63Z" fill="#EFEFEF"/>
<path d="M-128.455 6613.11L1560.23 6553.88L1560.23 6549.89L-128.455 6605.04L-128.455 6613.11Z" fill="#EFEFEF"/>
<path d="M-128.455 5624.33L1560.23 5616.98L1560.23 5607.33L-128.455 5622.16L-128.455 5624.33Z" fill="#EFEFEF"/>
<path d="M1255.93 5615.83C1255.93 5615.83 1104.47 5627.86 996.757 5666.48C889.04 5705.1 669.341 5917.54 669.341 5917.54L561.687 5917.54C561.687 5917.54 612.158 5921.45 683.801 5880.11C755.443 5838.77 888.554 5709.43 954.708 5676.17C1020.86 5642.9 1047.48 5619.19 1047.48 5619.19L1255.93 5615.83Z" fill="#EFEFEF"/>
<path d="M973.6 5620.08C973.6 5620.08 770.704 5786.72 677.931 5814.59C585.159 5842.46 298.251 5624.33 298.251 5624.33L332.362 5618.12C332.362 5618.12 512.651 5791.01 655.535 5791.01C798.419 5791.01 956.269 5619.61 956.269 5619.61L973.6 5620.08Z" fill="#EFEFEF"/>
<path d="M1571.14 5074.32C1571.14 5074.32 1368.14 5240.92 1275.43 5268.83C1182.72 5296.75 895.753 5078.53 895.753 5078.53L929.886 5072.32C929.886 5072.32 1110.15 5245.21 1253.04 5245.21C1395.92 5245.21 1553.9 5073.81 1553.9 5073.81L1571.14 5074.32Z" fill="#EFEFEF"/>
<path d="M635.589 5920.26C635.589 5920.26 429.147 5863.37 176.308 5624.33L139.98 5623.4L347.689 5771.85C492.473 5875.26 600.444 5919.71 600.444 5919.71L635.589 5920.26Z" fill="#EFEFEF"/>
<path d="M203.305 5624.33C203.305 5624.33 384.839 5774.99 500.071 5817.1C500.071 5817.1 357.672 5742.06 217.701 5624.33L203.305 5624.33Z" fill="#EFEFEF"/>
<path d="M807.855 5067.74C807.855 5067.74 989.389 5218.4 1104.6 5260.5C1104.6 5260.5 962.222 5185.47 822.251 5067.74L807.855 5067.74Z" fill="#EFEFEF"/>
<path d="M392.965 5624.33C392.965 5624.33 528.06 5690.1 610.384 5702.97C692.707 5715.85 847.222 5620.08 847.222 5620.08L392.965 5624.33Z" fill="#EFEFEF"/>
<path d="M1093.25 5084.26C1093.25 5084.26 1228.34 5150.03 1310.81 5162.91C1393.28 5175.78 1547.57 5080.01 1547.57 5080.01L1093.25 5084.26Z" fill="#EFEFEF"/>
<path d="M332.339 5618.13C332.339 5618.13 444.088 5748.1 590.941 5801.21C590.941 5801.21 435.138 5736.41 298.228 5624.33L332.339 5618.13Z" fill="#EFEFEF"/>
<path d="M1424.71 5615.83C1424.71 5615.83 1184.5 5631 1030.41 5685.26C876.313 5739.52 692.837 5917.63 692.837 5917.63L707.782 5920.26C707.782 5920.26 845.621 5757.74 1111.19 5675.61C1376.76 5593.48 1560.23 5662.1 1560.23 5662.1L1560.23 5616.98L1424.71 5615.83Z" fill="#EFEFEF"/>
<path d="M1560.23 6095.82C1560.23 6095.82 1314.32 6140.9 989.965 6076.53C665.61 6012.16 499.654 5936.02 195.479 6051.33C-108.696 6166.65 -128.453 6186.02 -128.453 6186.02L-128.453 6199.96C-128.453 6199.96 52.3419 6105.51 215.617 6058.26C378.892 6011.01 635.678 5986.37 788.758 6046.75C929.067 6101.98 1158.56 6130.19 1560.32 6113.03L1560.23 6095.82Z" fill="#EFEFEF"/>
<path d="M1560.23 5905.22C1560.23 5905.22 1420.72 5933.22 1262.33 5892.98C1103.93 5852.74 966.32 5831.46 959.164 5817.1C952.008 5802.74 1047.97 5691.84 1269.52 5691.84C1491.08 5691.84 1560.23 5704.16 1560.23 5704.16L1560.23 5717.59C1560.23 5717.59 1415.87 5690.1 1259.52 5699.75C1103.17 5709.39 983.967 5780.01 980.758 5803.2C977.55 5826.4 1227.56 5877.94 1345.11 5896.17C1416.7 5907.16 1488.59 5907.97 1560.23 5898.59L1560.23 5905.22Z" fill="#EFEFEF"/>
<path d="M1560.23 5871.48C1560.23 5871.48 1381.25 5901.56 1219.67 5843.61C1058.08 5785.66 1261.61 5699.75 1389.95 5733.14C1518.29 5766.54 1560.23 5749.12 1560.23 5749.12L1563.1 5758.8C1563.1 5758.8 1488.17 5758.25 1373.78 5738.41C1259.39 5718.57 1175.95 5775.16 1175.95 5802.14C1175.95 5829.12 1358.46 5901.56 1560.23 5864L1560.23 5871.48Z" fill="#EFEFEF"/>
<path d="M1559.09 6387.33C1559.09 6387.33 1308.39 6410.57 1082.04 6365.75C855.691 6320.92 1140.78 6254.56 1320.57 6280.3C1500.35 6306.05 1559.09 6292.75 1559.09 6292.75L1563.1 6300.19C1563.1 6300.19 1458.15 6299.81 1297.92 6284.42C1137.68 6269.04 1020.78 6312.89 1020.78 6333.71C1020.78 6354.53 1276.45 6410.57 1559.09 6381.51L1559.09 6387.33Z" fill="#EFEFEF"/>
<path d="M-128.143 5225.2C-128.143 5225.2 122.564 5248.44 348.912 5203.61C575.259 5158.79 290.188 5092.46 110.384 5118.17C-69.4187 5143.87 -128.143 5130.62 -128.143 5130.62L-132.175 5138.1C-132.175 5138.1 -27.2227 5137.67 133.013 5122.33C293.248 5106.99 410.148 5150.76 410.148 5171.58C410.148 5192.39 154.48 5248.44 -128.122 5219.42L-128.143 5225.2Z" fill="#EFEFEF"/>
<path d="M1102.34 5928.29C1102.34 5928.29 972.23 5849.05 908.778 5849.05C845.325 5849.05 779.213 5917.63 779.213 5917.63L794.665 5923.62C794.665 5923.62 839.943 5851.39 914.139 5860.78C988.336 5870.17 1082.65 5928.29 1082.65 5928.29L1102.34 5928.29Z" fill="#EFEFEF"/>
<path d="M-128.414 6131.25C-128.414 6131.25 169.217 6037.19 298.233 5991.64C427.249 5946.09 -52.1699 5902.41 -128.414 5928.29L-126.303 5946.09C-126.303 5946.09 -10.8815 5916.35 135.274 5935.3C281.43 5954.25 308.049 5972.22 308.049 5979.91C308.049 5987.6 111.527 6050.74 21.9424 6073.39C-67.6425 6096.03 -128.456 6095.9 -128.456 6095.9L-128.414 6131.25Z" fill="#EFEFEF"/>
<path d="M-128.414 6055.03C-128.414 6055.03 41.9747 6057.58 139.982 5986.37C139.982 5986.37 121.66 6018.53 -128.414 6043.26L-128.414 6055.03Z" fill="#EFEFEF"/>
<path d="M-71.8685 6230.34C-71.8685 6230.34 20.3339 6118.29 387.792 6095.82C755.251 6073.34 903.265 6250.35 903.265 6250.35L890.599 6246.1C890.599 6246.1 737.625 6081.33 387.792 6099.73C62.5089 6117.06 -65.4726 6231.44 -65.4726 6231.44L-71.8685 6230.34Z" fill="#EFEFEF"/>
<path d="M521.056 6589.57C521.056 6589.57 619.654 6417.84 987.113 6395.32C1354.57 6372.8 1502.61 6549.89 1502.61 6549.89L1489.94 6545.64C1489.94 6545.64 1336.9 6380.87 987.05 6399.4C661.766 6416.39 527.389 6590.59 527.389 6590.59L521.056 6589.57Z" fill="#EFEFEF"/>
<path d="M1560.23 6131.26C1560.23 6131.26 1345.51 6147.36 1183.4 6147.36C1021.29 6147.36 813.325 6093.82 790.929 6093.82C768.532 6093.82 919.965 6246.48 919.965 6246.48L927.966 6246.48C927.966 6246.48 802.665 6120.04 802.665 6107.63C802.665 6095.23 967.439 6142.01 1184.5 6155.94C1401.56 6169.88 1560.23 6143.19 1560.23 6143.19L1560.23 6131.26Z" fill="#EFEFEF"/>
<path d="M1560.23 6170.17C1560.23 6170.17 1510.31 6182.92 1310.33 6182.92C1110.34 6182.92 973.56 6251.41 973.56 6251.41L990.891 6251.41C990.891 6251.41 1107.96 6189.21 1315.12 6189.21C1522.28 6189.21 1560.23 6178.76 1560.23 6178.76L1560.23 6170.17Z" fill="#EFEFEF"/>
<path d="M1569.18 5306.9C1569.18 5306.9 1421.72 5319.65 831.1 5319.65C240.481 5319.65 -163.496 5388.14 -163.496 5388.14L-112.307 5388.14C-112.307 5388.14 233.409 5325.93 845.285 5325.94C1457.16 5325.94 1569.18 5315.48 1569.18 5315.48L1569.18 5306.9Z" fill="#EFEFEF"/>
<path d="M-128.456 6605.04C-128.456 6605.04 290.951 6570.5 486.522 6517.68C682.094 6464.87 1017.57 6252.09 1017.57 6252.09L1008.5 6252.09C1008.5 6252.09 735.815 6421.24 459.968 6508C184.12 6594.76 -128.456 6581.5 -128.456 6581.5L-128.456 6605.04Z" fill="#EFEFEF"/>
<path d="M-128.42 6523.04C-128.42 6523.04 141.242 6537.36 483.202 6445.75C825.161 6354.15 950.609 6252.09 950.609 6252.09L936.108 6252.09C936.108 6252.09 748.832 6367.4 479.508 6439.34C210.183 6511.27 -128.42 6510.16 -128.42 6510.16L-128.42 6523.04Z" fill="#EFEFEF"/>
<path d="M-128.417 6234.63C-128.417 6234.63 464.735 6266.88 608.716 6311.58C752.698 6356.27 361.746 6445.24 195.304 6462.92C28.863 6480.59 -128.417 6477.41 -128.417 6477.41L-128.67 6469.38C-128.67 6469.38 31.0584 6466.15 201.7 6454.33C372.342 6442.52 632.696 6356.23 626.849 6333.41C614.184 6283.75 -128.417 6239.94 -128.417 6239.94L-128.417 6234.63Z" fill="#EFEFEF"/>
<path d="M-128.417 6428.54C-128.417 6428.54 192.032 6432.2 241.659 6388.01C291.285 6343.82 -128.417 6295.47 -128.417 6295.47L-128.417 6428.54Z" fill="#EFEFEF"/>
<path d="M-128.71 6687.89C-128.71 6687.89 248.1 6579.84 648.023 6613.11C1047.95 6646.38 1181.42 6714.11 1361.81 6714.11C1542.2 6714.11 1560.23 6660.57 1560.23 6660.57L1560.23 6674.38C1560.23 6674.38 1511.28 6723.75 1320.42 6723.75C1129.55 6723.75 989.835 6626.03 608.677 6623.95C227.519 6621.86 -128.457 6699.06 -128.457 6699.06L-128.71 6687.89Z" fill="#EFEFEF"/>
<path d="M-128.419 6723.75C-128.419 6723.75 186.099 6615.36 527.489 6653.99C868.878 6692.61 966.949 6779.54 966.949 6779.54L951.328 6779.54C951.328 6779.54 741.108 6672.77 525.124 6657.22C309.141 6641.66 -128.419 6729.15 -128.419 6729.15L-128.419 6723.75Z" fill="#EFEFEF"/>
<path d="M144.707 6779.54C144.707 6779.54 308.763 6694.56 460.006 6694.56C611.249 6694.56 673.52 6779.54 673.52 6779.54L665.266 6779.33C665.266 6779.33 623.26 6702.04 456.08 6702.04C288.9 6702.04 157.71 6779.54 157.71 6779.54L144.707 6779.54Z" fill="#EFEFEF"/>
<path d="M1560.23 5454.63C1560.23 5454.63 1257.01 5534.76 1055.42 5454.63C853.832 5374.5 1023.42 5347.69 1214.35 5347.69C1405.27 5347.69 1560.23 5331.59 1560.23 5331.59L1560.23 5454.63Z" fill="#EFEFEF"/>
<path d="M1560.23 5490.24C1560.23 5490.24 1322.06 5563.06 1035.16 5490.24C748.247 5417.41 564.834 5393.83 580.792 5361.62C596.75 5329.42 1352.69 5331.59 1444.68 5331.59C1536.67 5331.59 1560.23 5324.62 1560.23 5324.62L1560.23 5319.77C1560.23 5319.77 1520.57 5328.91 1442.45 5328.91C1364.32 5328.91 639.896 5322.2 575.621 5352.79C511.345 5383.38 716.415 5424.17 943.375 5490.24C1170.33 5556.3 1350.18 5529.07 1560.23 5501.71L1560.23 5490.24Z" fill="#EFEFEF"/>
<path d="M1560.23 5531.32C1560.23 5531.32 1270.66 5604.23 958.805 5548.32C646.947 5492.4 521.055 5616.3 521.055 5616.3L531.609 5615.66C531.609 5615.66 597.046 5517.64 929.823 5549.29C1262.6 5580.95 1156.89 5592.42 1560.23 5538.89L1560.23 5531.32Z" fill="#EFEFEF"/>
<path d="M444.577 5615.83C444.577 5615.83 98.2053 5583.84 -128.417 5509.61L-128.67 5490.07C-128.67 5490.07 117.984 5578.02 479.511 5615.83L444.577 5615.83Z" fill="#EFEFEF"/>
<path d="M913.269 5291.09C913.269 5291.09 769.098 5306.14 597.147 5203.87C396.235 5084.26 266.755 5080.01 266.755 5080.01L337.152 5080.01C337.152 5080.01 459.434 5115.83 582.941 5188.1C706.447 5260.38 935.455 5291.09 935.455 5291.09L913.269 5291.09Z" fill="#EFEFEF"/>
<path d="M1349.55 6556.77C1349.55 6556.77 1195.05 6523.89 1087.95 6523.89C980.842 6523.89 875.173 6572.24 875.173 6572.24L1349.55 6556.77Z" fill="#EFEFEF"/>
<path d="M816.835 6245.33C816.835 6245.33 750.449 6294.62 561.674 6245.33L816.835 6245.33Z" fill="#EFEFEF"/>
<path d="M411.097 5849.05C411.097 5849.05 192.201 5712.7 5.8122 5695.03C5.76997 5694.94 242.946 5756.64 411.097 5849.05Z" fill="#EFEFEF"/>
<path d="M759.714 5490.24C759.714 5490.24 447.011 5340.72 139.986 5376.11C139.986 5376.11 484.204 5368.93 759.714 5490.24Z" fill="#EFEFEF"/>
<path d="M514.467 5080.01C514.467 5080.01 671.241 5199.32 867.213 5248.95C867.213 5248.95 709.637 5200.89 529.665 5080.01L514.467 5080.01Z" fill="#EFEFEF"/>
<path d="M1571.06 1499.95L-117.628 1474.2V1478.19L1571.06 1504.24V1499.95Z" fill="#EFEFEF"/>
<path d="M1571.06 870.825L-117.628 845.035V849.071L1571.06 875.116V870.825Z" fill="#EFEFEF"/>
<path d="M1571.06 545.707L-117.628 519.959V523.953L1571.06 549.998V545.707Z" fill="#EFEFEF"/>
<path d="M1571.06 167.223L-117.628 226.452V230.446L1571.06 175.296V167.223Z" fill="#EFEFEF"/>
<path d="M1571.06 1156.01L-117.628 1163.36V1173L1571.06 1158.17V1156.01Z" fill="#EFEFEF"/>
<path d="M186.678 1164.5C186.678 1164.5 338.132 1152.48 445.849 1113.86C553.566 1075.24 773.265 862.795 773.265 862.795H880.919C880.919 862.795 830.448 858.886 758.805 900.227C687.163 941.568 554.052 1070.9 487.897 1104.17C421.743 1137.44 395.125 1161.15 395.125 1161.15L186.678 1164.5Z" fill="#EFEFEF"/>
<path d="M469.044 1160.26C469.044 1160.26 671.94 993.617 764.712 965.745C857.485 937.873 1144.39 1156.01 1144.39 1156.01L1110.28 1162.21C1110.28 1162.21 929.993 989.326 787.108 989.326C644.224 989.326 486.374 1160.72 486.374 1160.72L469.044 1160.26Z" fill="#EFEFEF"/>
<path d="M-128.54 1706.02C-128.54 1706.02 74.4619 1539.42 167.171 1511.51C259.88 1483.59 546.852 1701.81 546.852 1701.81L512.719 1708.01C512.719 1708.01 332.451 1535.13 189.567 1535.13C46.683 1535.13 -111.294 1706.53 -111.294 1706.53L-128.54 1706.02Z" fill="#EFEFEF"/>
<path d="M807.064 860.076C807.064 860.076 1013.51 916.968 1266.34 1156.01L1302.67 1156.94L1094.96 1008.49C950.18 905.071 842.21 860.629 842.21 860.629L807.064 860.076Z" fill="#EFEFEF"/>
<path d="M1239.34 1156.01C1239.34 1156.01 1057.8 1005.34 942.569 963.238C942.569 963.238 1084.97 1038.27 1224.94 1156.01H1239.34Z" fill="#EFEFEF"/>
<path d="M634.75 1712.6C634.75 1712.6 453.216 1561.94 338.006 1519.83C338.006 1519.83 480.383 1594.87 620.354 1712.6H634.75Z" fill="#EFEFEF"/>
<path d="M1049.68 1156.01C1049.68 1156.01 914.583 1090.23 832.26 1077.36C749.936 1064.49 595.421 1160.25 595.421 1160.25L1049.68 1156.01Z" fill="#EFEFEF"/>
<path d="M349.359 1696.07C349.359 1696.07 214.264 1630.3 131.793 1617.43C49.3215 1604.55 -104.961 1700.32 -104.961 1700.32L349.359 1696.07Z" fill="#EFEFEF"/>
<path d="M1110.3 1162.21C1110.3 1162.21 998.55 1032.24 851.698 979.127C851.698 979.127 1007.5 1043.92 1144.41 1156.01L1110.3 1162.21Z" fill="#EFEFEF"/>
<path d="M17.8894 1164.5C17.8894 1164.5 258.105 1149.34 412.198 1095.08C566.291 1040.82 749.767 862.711 749.767 862.711L734.822 860.076C734.822 860.076 596.983 1022.59 331.415 1104.72C65.8482 1186.85 -117.628 1118.23 -117.628 1118.23V1163.36L17.8894 1164.5Z" fill="#EFEFEF"/>
<path d="M-117.629 684.517C-117.629 684.517 128.286 639.437 452.641 703.806C776.996 768.176 942.952 844.315 1247.13 729.002C1551.3 613.689 1571.06 594.315 1571.06 594.315V580.378C1571.06 580.378 1390.26 674.829 1226.99 722.076C1063.71 769.323 806.928 793.966 653.848 733.591C513.539 678.356 284.047 650.144 -117.713 667.309L-117.629 684.517Z" fill="#EFEFEF"/>
<path d="M-117.628 875.117C-117.628 875.117 21.879 847.118 180.278 887.354C338.677 927.59 476.284 948.877 483.44 963.238C490.596 977.599 394.636 1088.49 173.08 1088.49C-48.476 1088.49 -117.628 1076.17 -117.628 1076.17V1062.74C-117.628 1062.74 26.734 1090.23 183.085 1080.59C339.437 1070.95 458.637 1000.33 461.846 977.131C465.054 953.933 215.044 902.395 97.49 884.167C25.9016 873.177 -45.9828 872.368 -117.628 881.745L-117.628 875.117Z" fill="#EFEFEF"/>
<path d="M-117.631 908.852C-117.631 908.852 61.3493 878.771 222.936 936.724C384.522 994.678 180.993 1080.59 52.6525 1047.19C-75.6878 1013.8 -117.631 1031.22 -117.631 1031.22L-120.501 1021.53C-120.501 1021.53 -45.5658 1022.08 68.8217 1041.92C183.209 1061.77 266.652 1005.17 266.652 978.193C266.652 951.213 84.1466 878.771 -117.631 916.33V908.852Z" fill="#EFEFEF"/>
<path d="M-116.491 393.005C-116.491 393.005 134.216 369.764 360.564 414.589C586.911 459.414 301.818 525.78 122.037 500.032C-57.7455 474.284 -116.491 487.583 -116.491 487.583L-120.501 480.148C-120.501 480.148 -15.5494 480.53 144.686 495.911C304.921 511.292 421.821 467.444 421.821 446.625C421.821 425.806 166.153 369.764 -116.491 398.826V393.005Z" fill="#EFEFEF"/>
<path d="M1570.75 1555.14C1570.75 1555.14 1320.04 1531.9 1093.69 1576.72C867.345 1621.55 1152.42 1687.87 1332.22 1662.17C1512.02 1636.46 1570.75 1649.72 1570.75 1649.72L1574.78 1642.24C1574.78 1642.24 1469.83 1642.67 1309.59 1658C1149.36 1673.34 1032.46 1629.58 1032.46 1608.76C1032.46 1587.94 1288.12 1531.9 1570.73 1560.92L1570.75 1555.14Z" fill="#EFEFEF"/>
<path d="M340.257 852.045C340.257 852.045 470.371 931.286 533.823 931.286C597.276 931.286 663.388 862.71 663.388 862.71L647.936 856.719C647.936 856.719 602.658 928.949 528.462 919.559C454.265 910.169 359.952 852.045 359.952 852.045H340.257Z" fill="#EFEFEF"/>
<path d="M1571.02 649.081C1571.02 649.081 1273.39 743.149 1144.37 788.696C1015.36 834.244 1494.78 877.922 1571.02 852.046L1568.91 834.244C1568.91 834.244 1453.49 863.985 1307.33 845.036C1161.18 826.086 1134.56 808.114 1134.56 800.423C1134.56 792.733 1331.08 729.596 1420.66 706.949C1510.25 684.303 1571.06 684.431 1571.06 684.431L1571.02 649.081Z" fill="#EFEFEF"/>
<path d="M1571.02 725.304C1571.02 725.304 1400.63 722.755 1302.62 793.965C1302.62 793.965 1320.95 761.801 1571.02 737.073V725.304Z" fill="#EFEFEF"/>
<path d="M1514.51 549.998C1514.51 549.998 1422.31 662.039 1054.85 684.516C687.391 706.992 539.377 529.986 539.377 529.986L552.042 534.235C552.042 534.235 705.016 699.004 1054.85 680.607C1380.13 663.272 1508.11 548.894 1508.11 548.894L1514.51 549.998Z" fill="#EFEFEF"/>
<path d="M921.55 190.762C921.55 190.762 822.952 362.499 455.493 385.018C88.0343 407.536 -60.0004 230.446 -60.0004 230.446L-47.3352 234.695C-47.3352 234.695 105.702 399.464 455.556 380.939C780.84 363.944 915.217 189.742 915.217 189.742L921.55 190.762Z" fill="#EFEFEF"/>
<path d="M-117.628 649.08C-117.628 649.08 97.0889 632.977 259.203 632.977C421.317 632.977 629.279 686.512 651.675 686.512C674.072 686.512 522.638 533.852 522.638 533.852H514.638C514.638 533.852 639.939 660.297 639.939 672.703C639.939 685.11 475.165 638.33 258.105 624.394C41.0456 610.458 -117.628 637.141 -117.628 637.141V649.08Z" fill="#EFEFEF"/>
<path d="M-117.628 610.161C-117.628 610.161 -67.706 597.415 132.277 597.415C332.26 597.415 469.044 528.924 469.044 528.924H451.713C451.713 528.924 334.645 591.127 127.485 591.127C-79.6745 591.127 -117.628 601.579 -117.628 601.579V610.161Z" fill="#EFEFEF"/>
<path d="M-126.578 1473.43C-126.578 1473.43 20.8869 1460.69 611.506 1460.69C1202.12 1460.69 1606.1 1392.2 1606.1 1392.2H1554.91C1554.91 1392.2 1209.2 1454.4 597.321 1454.4C-14.5545 1454.4 -126.578 1464.85 -126.578 1464.85V1473.43Z" fill="#EFEFEF"/>
<path d="M1571.06 175.296C1571.06 175.296 1151.65 209.839 956.081 262.652C760.51 315.464 425.031 528.245 425.031 528.245H434.108C434.108 528.245 706.789 359.1 982.636 272.339C1258.48 185.578 1571.06 198.835 1571.06 198.835V175.296Z" fill="#EFEFEF"/>
<path d="M1571.06 257.298C1571.06 257.298 1301.4 242.98 959.441 334.584C617.482 426.188 492.033 528.245 492.033 528.245H506.535C506.535 528.245 693.81 412.932 963.135 341C1232.46 269.067 1571.06 270.172 1571.06 270.172V257.298Z" fill="#EFEFEF"/>
<path d="M1571.07 545.707C1571.07 545.707 977.919 513.459 833.937 468.761C689.955 424.064 1080.91 335.094 1247.35 317.419C1413.79 299.743 1571.07 302.93 1571.07 302.93L1571.32 310.96C1571.32 310.96 1411.59 314.189 1240.95 326.001C1070.31 337.813 809.958 424.106 815.805 446.922C828.47 496.591 1571.07 540.396 1571.07 540.396V545.707Z" fill="#EFEFEF"/>
<path d="M1571.02 351.792C1571.02 351.792 1250.57 348.138 1200.95 392.326C1151.32 436.513 1571.02 484.865 1571.02 484.865V351.792Z" fill="#EFEFEF"/>
<path d="M1571.31 92.4439C1571.31 92.4439 1194.5 200.491 794.581 167.223C394.657 133.955 261.187 66.2288 80.7931 66.2288C-99.6011 66.2288 -117.628 119.764 -117.628 119.764V105.955C-117.628 105.955 -68.6769 56.584 122.187 56.584C313.051 56.584 452.769 154.307 833.927 156.389C1215.09 158.47 1571.06 81.2696 1571.06 81.2696L1571.31 92.4439Z" fill="#EFEFEF"/>
<path d="M1571.06 56.584C1571.06 56.584 1256.54 164.971 915.153 126.349C573.764 87.7278 475.693 0.797119 475.693 0.797119H491.314C491.314 0.797119 701.534 107.57 917.517 123.12C1133.5 138.671 1571.06 51.188 1571.06 51.188V56.584Z" fill="#EFEFEF"/>
<path d="M1297.94 0.797119C1297.94 0.797119 1133.89 85.7733 982.644 85.7733C831.401 85.7733 769.131 0.797119 769.131 0.797119L777.384 1.00956C777.384 1.00956 819.39 78.2954 986.571 78.2954C1153.75 78.2954 1284.94 0.797119 1284.94 0.797119H1297.94Z" fill="#EFEFEF"/>
<path d="M-117.628 1325.7C-117.628 1325.7 185.597 1245.57 387.184 1325.7C588.772 1405.84 419.185 1432.65 228.258 1432.65C37.3305 1432.65 -117.628 1448.75 -117.628 1448.75V1325.7Z" fill="#EFEFEF"/>
<path d="M-117.628 1290.1C-117.628 1290.1 120.541 1217.28 407.449 1290.1C694.357 1362.92 877.77 1386.51 861.812 1418.71C845.853 1450.92 89.912 1448.75 -2.07929 1448.75C-94.0706 1448.75 -117.628 1455.72 -117.628 1455.72V1460.56C-117.628 1460.56 -77.9647 1451.43 0.158211 1451.43C78.2812 1451.43 802.707 1458.14 866.983 1427.55C931.259 1396.96 726.189 1356.17 499.229 1290.1C272.269 1224.03 92.4239 1251.27 -117.628 1278.63V1290.1Z" fill="#EFEFEF"/>
<path d="M-117.628 1249.01C-117.628 1249.01 171.94 1176.1 483.799 1232.02C795.657 1287.93 921.549 1164.04 921.549 1164.04L910.994 1164.67C910.994 1164.67 845.558 1262.69 512.781 1231.04C180.004 1199.39 285.715 1187.92 -117.628 1241.45V1249.01Z" fill="#EFEFEF"/>
<path d="M998.067 1164.5C998.067 1164.5 1344.44 1196.5 1571.06 1270.72L1571.31 1290.27C1571.31 1290.27 1324.66 1202.32 963.132 1164.5H998.067Z" fill="#EFEFEF"/>
<path d="M529.373 1489.24C529.373 1489.24 673.545 1474.2 845.496 1576.47C1046.41 1696.07 1175.89 1700.32 1175.89 1700.32H1105.49C1105.49 1700.32 983.208 1664.5 859.702 1592.23C736.195 1519.96 507.188 1489.24 507.188 1489.24H529.373Z" fill="#EFEFEF"/>
<path d="M93.0591 223.562C93.0591 223.562 247.553 256.448 354.658 256.448C461.763 256.448 567.433 208.096 567.433 208.096L93.0591 223.562Z" fill="#EFEFEF"/>
<path d="M625.816 535.001C625.816 535.001 692.203 485.714 880.977 535.001H625.816Z" fill="#EFEFEF"/>
<path d="M1031.51 931.287C1031.51 931.287 1250.4 1067.63 1436.79 1085.31C1436.83 1085.39 1199.66 1023.7 1031.51 931.287Z" fill="#EFEFEF"/>
<path d="M682.94 1290.1C682.94 1290.1 995.643 1439.61 1302.67 1404.22C1302.67 1404.22 958.45 1411.4 682.94 1290.1Z" fill="#EFEFEF"/>
<path d="M928.177 1700.32C928.177 1700.32 771.403 1581.02 575.431 1531.39C575.431 1531.39 733.006 1579.44 912.978 1700.32H928.177Z" fill="#EFEFEF"/>
<path d="M1571.06 4877.91L-117.628 4852.16V4856.15L1571.06 4882.2V4877.91Z" fill="#EFEFEF"/>
<path d="M1571.06 4248.78L-117.628 4222.99V4227.03L1571.06 4253.08V4248.78Z" fill="#EFEFEF"/>
<path d="M1571.06 3923.67L-117.628 3897.92V3901.91L1571.06 3927.96V3923.67Z" fill="#EFEFEF"/>
<path d="M1571.06 3545.18L-117.628 3604.41V3608.4L1571.06 3553.25V3545.18Z" fill="#EFEFEF"/>
<path d="M1571.06 4533.97L-117.628 4541.32V4550.96L1571.06 4536.13V4533.97Z" fill="#EFEFEF"/>
<path d="M186.678 4542.46C186.678 4542.46 338.132 4530.44 445.849 4491.82C553.566 4453.19 773.265 4240.75 773.265 4240.75H880.919C880.919 4240.75 830.448 4236.85 758.805 4278.19C687.163 4319.53 554.052 4448.86 487.897 4482.13C421.743 4515.4 395.125 4539.11 395.125 4539.11L186.678 4542.46Z" fill="#EFEFEF"/>
<path d="M469.044 4538.21C469.044 4538.21 671.94 4371.58 764.712 4343.7C857.485 4315.83 1144.39 4533.96 1144.39 4533.96L1110.28 4540.17C1110.28 4540.17 929.993 4367.28 787.108 4367.28C644.224 4367.28 486.374 4538.68 486.374 4538.68L469.044 4538.21Z" fill="#EFEFEF"/>
<path d="M-128.54 5083.97C-128.54 5083.97 74.4619 4917.38 167.171 4889.46C259.88 4861.55 546.852 5079.77 546.852 5079.77L512.719 5085.97C512.719 5085.97 332.451 4913.09 189.567 4913.09C46.683 4913.09 -111.294 5084.48 -111.294 5084.48L-128.54 5083.97Z" fill="#EFEFEF"/>
<path d="M807.064 4238.03C807.064 4238.03 1013.51 4294.93 1266.34 4533.96L1302.67 4534.9L1094.96 4386.45C950.18 4283.03 842.21 4238.59 842.21 4238.59L807.064 4238.03Z" fill="#EFEFEF"/>
<path d="M1239.33 4533.96C1239.33 4533.96 1057.8 4383.3 942.569 4341.2C942.569 4341.2 1084.97 4416.23 1224.94 4533.96H1239.33Z" fill="#EFEFEF"/>
<path d="M634.75 5090.56C634.75 5090.56 453.216 4939.9 338.006 4897.79C338.006 4897.79 480.383 4972.82 620.354 5090.56H634.75Z" fill="#EFEFEF"/>
<path d="M1049.68 4533.96C1049.68 4533.96 914.583 4468.19 832.26 4455.32C749.936 4442.44 595.421 4538.21 595.421 4538.21L1049.68 4533.96Z" fill="#EFEFEF"/>
<path d="M349.359 5074.03C349.359 5074.03 214.264 5008.26 131.793 4995.39C49.3215 4982.51 -104.961 5078.28 -104.961 5078.28L349.359 5074.03Z" fill="#EFEFEF"/>
<path d="M1110.3 4540.17C1110.3 4540.17 998.55 4410.2 851.698 4357.09C851.698 4357.09 1007.5 4421.88 1144.41 4533.96L1110.3 4540.17Z" fill="#EFEFEF"/>
<path d="M17.8894 4542.46C17.8894 4542.46 258.105 4527.29 412.198 4473.04C566.291 4418.78 749.767 4240.67 749.767 4240.67L734.822 4238.03C734.822 4238.03 596.983 4400.55 331.415 4482.68C65.8482 4564.81 -117.628 4496.19 -117.628 4496.19V4541.31L17.8894 4542.46Z" fill="#EFEFEF"/>
<path d="M-117.629 4062.48C-117.629 4062.48 128.286 4017.4 452.641 4081.77C776.996 4146.13 942.952 4222.27 1247.13 4106.96C1551.3 3991.65 1571.06 3972.27 1571.06 3972.27V3958.34C1571.06 3958.34 1390.26 4052.79 1226.99 4100.03C1063.71 4147.28 806.928 4171.92 653.848 4111.55C513.539 4056.31 284.047 4028.1 -117.713 4045.27L-117.629 4062.48Z" fill="#EFEFEF"/>
<path d="M-117.628 4253.08C-117.628 4253.08 21.879 4225.08 180.278 4265.31C338.677 4305.55 476.284 4326.83 483.44 4341.2C490.596 4355.56 394.636 4466.45 173.08 4466.45C-48.476 4466.45 -117.628 4454.13 -117.628 4454.13V4440.7C-117.628 4440.7 26.734 4468.19 183.085 4458.55C339.437 4448.9 458.637 4378.29 461.846 4355.09C465.054 4331.89 215.044 4280.35 97.49 4262.13C25.9016 4251.14 -45.9828 4250.33 -117.628 4259.7L-117.628 4253.08Z" fill="#EFEFEF"/>
<path d="M-117.631 4286.81C-117.631 4286.81 61.3493 4256.73 222.936 4314.68C384.522 4372.64 180.993 4458.55 52.6525 4425.15C-75.6878 4391.76 -117.631 4409.18 -117.631 4409.18L-120.501 4399.49C-120.501 4399.49 -45.5658 4400.04 68.8217 4419.88C183.209 4439.73 266.652 4383.13 266.652 4356.15C266.652 4329.17 84.1466 4256.73 -117.631 4294.29V4286.81Z" fill="#EFEFEF"/>
<path d="M-116.491 3770.96C-116.491 3770.96 134.216 3747.72 360.564 3792.55C586.911 3837.37 301.818 3903.74 122.037 3877.99C-57.7455 3852.24 -116.491 3865.54 -116.491 3865.54L-120.501 3858.11C-120.501 3858.11 -15.5494 3858.49 144.686 3873.87C304.921 3889.25 421.821 3845.4 421.821 3824.58C421.821 3803.76 166.153 3747.72 -116.491 3776.78V3770.96Z" fill="#EFEFEF"/>
<path d="M1570.75 4933.1C1570.75 4933.1 1320.04 4909.86 1093.69 4954.68C867.345 4999.51 1152.42 5065.83 1332.22 5040.13C1512.02 5014.42 1570.75 5027.68 1570.75 5027.68L1574.78 5020.2C1574.78 5020.2 1469.83 5020.62 1309.59 5035.96C1149.36 5051.3 1032.46 5007.54 1032.46 4986.72C1032.46 4965.9 1288.12 4909.86 1570.73 4938.88L1570.75 4933.1Z" fill="#EFEFEF"/>
<path d="M340.257 4230C340.257 4230 470.371 4309.24 533.823 4309.24C597.276 4309.24 663.388 4240.67 663.388 4240.67L647.936 4234.68C647.936 4234.68 602.658 4306.91 528.462 4297.52C454.265 4288.13 359.952 4230 359.952 4230H340.257Z" fill="#EFEFEF"/>
<path d="M1571.02 4027.04C1571.02 4027.04 1273.39 4121.11 1144.37 4166.66C1015.36 4212.2 1494.78 4255.88 1571.02 4230.01L1568.91 4212.2C1568.91 4212.2 1453.49 4241.94 1307.33 4222.99C1161.18 4204.04 1134.56 4186.07 1134.56 4178.38C1134.56 4170.69 1331.08 4107.55 1420.66 4084.91C1510.25 4062.26 1571.06 4062.39 1571.06 4062.39L1571.02 4027.04Z" fill="#EFEFEF"/>
<path d="M1571.02 4103.26C1571.02 4103.26 1400.63 4100.71 1302.62 4171.92C1302.62 4171.92 1320.95 4139.76 1571.02 4115.03V4103.26Z" fill="#EFEFEF"/>
<path d="M1514.51 3927.96C1514.51 3927.96 1422.31 4040 1054.85 4062.48C687.391 4084.95 539.377 3907.95 539.377 3907.95L552.042 3912.19C552.042 3912.19 705.016 4076.96 1054.85 4058.57C1380.13 4041.23 1508.11 3926.85 1508.11 3926.85L1514.51 3927.96Z" fill="#EFEFEF"/>
<path d="M921.55 3568.72C921.55 3568.72 822.952 3740.46 455.493 3762.98C88.0343 3785.49 -60.0004 3608.4 -60.0004 3608.4L-47.3352 3612.65C-47.3352 3612.65 105.702 3777.42 455.556 3758.9C780.84 3741.9 915.217 3567.7 915.217 3567.7L921.55 3568.72Z" fill="#EFEFEF"/>
<path d="M-117.628 4027.04C-117.628 4027.04 97.0889 4010.94 259.203 4010.94C421.317 4010.94 629.279 4064.47 651.675 4064.47C674.072 4064.47 522.638 3911.81 522.638 3911.81H514.638C514.638 3911.81 639.939 4038.26 639.939 4050.66C639.939 4063.07 475.165 4016.29 258.105 4002.35C41.0456 3988.42 -117.628 4015.1 -117.628 4015.1V4027.04Z" fill="#EFEFEF"/>
<path d="M-117.628 3988.12C-117.628 3988.12 -67.706 3975.37 132.277 3975.37C332.26 3975.37 469.044 3906.88 469.044 3906.88H451.713C451.713 3906.88 334.645 3969.09 127.485 3969.09C-79.6745 3969.09 -117.628 3979.54 -117.628 3979.54V3988.12Z" fill="#EFEFEF"/>
<path d="M-126.578 4851.39C-126.578 4851.39 20.8869 4838.65 611.506 4838.65C1202.12 4838.65 1606.1 4770.16 1606.1 4770.16H1554.91C1554.91 4770.16 1209.2 4832.36 597.321 4832.36C-14.5545 4832.36 -126.578 4842.81 -126.578 4842.81V4851.39Z" fill="#EFEFEF"/>
<path d="M1571.06 3553.25C1571.06 3553.25 1151.65 3587.8 956.081 3640.61C760.51 3693.42 425.031 3906.2 425.031 3906.2H434.108C434.108 3906.2 706.789 3737.06 982.636 3650.3C1258.48 3563.54 1571.06 3576.79 1571.06 3576.79V3553.25Z" fill="#EFEFEF"/>
<path d="M1571.06 3635.26C1571.06 3635.26 1301.4 3620.94 959.441 3712.54C617.482 3804.15 492.033 3906.2 492.033 3906.2H506.535C506.535 3906.2 693.81 3790.89 963.135 3718.96C1232.46 3647.03 1571.06 3648.13 1571.06 3648.13V3635.26Z" fill="#EFEFEF"/>
<path d="M1571.07 3923.67C1571.07 3923.67 977.919 3891.42 833.937 3846.72C689.955 3802.02 1080.91 3713.05 1247.35 3695.38C1413.79 3677.7 1571.07 3680.89 1571.07 3680.89L1571.32 3688.92C1571.32 3688.92 1411.59 3692.15 1240.95 3703.96C1070.31 3715.77 809.958 3802.06 815.805 3824.88C828.47 3874.55 1571.07 3918.35 1571.07 3918.35V3923.67Z" fill="#EFEFEF"/>
<path d="M1571.02 3729.75C1571.02 3729.75 1250.57 3726.1 1200.95 3770.28C1151.32 3814.47 1571.02 3862.82 1571.02 3862.82V3729.75Z" fill="#EFEFEF"/>
<path d="M1571.31 3470.4C1571.31 3470.4 1194.5 3578.45 794.581 3545.18C394.657 3511.91 261.187 3444.19 80.7931 3444.19C-99.6011 3444.19 -117.628 3497.72 -117.628 3497.72V3483.91C-117.628 3483.91 -68.6769 3434.54 122.187 3434.54C313.051 3434.54 452.769 3532.27 833.927 3534.35C1215.09 3536.43 1571.06 3459.23 1571.06 3459.23L1571.31 3470.4Z" fill="#EFEFEF"/>
<path d="M1571.06 3434.54C1571.06 3434.54 1256.54 3542.93 915.153 3504.31C573.764 3465.69 475.693 3378.76 475.693 3378.76H491.314C491.314 3378.76 701.534 3485.53 917.517 3501.08C1133.5 3516.63 1571.06 3429.15 1571.06 3429.15V3434.54Z" fill="#EFEFEF"/>
<path d="M1297.94 3378.76C1297.94 3378.76 1133.89 3463.73 982.644 3463.73C831.401 3463.73 769.131 3378.76 769.131 3378.76L777.384 3378.97C777.384 3378.97 819.39 3456.25 986.571 3456.25C1153.75 3456.25 1284.94 3378.76 1284.94 3378.76H1297.94Z" fill="#EFEFEF"/>
<path d="M-117.628 4703.66C-117.628 4703.66 185.597 4623.53 387.184 4703.66C588.772 4783.79 419.185 4810.6 228.258 4810.6C37.3305 4810.6 -117.628 4826.71 -117.628 4826.71V4703.66Z" fill="#EFEFEF"/>
<path d="M-117.628 4668.06C-117.628 4668.06 120.541 4595.23 407.449 4668.06C694.357 4740.88 877.77 4764.46 861.812 4796.67C845.853 4828.88 89.912 4826.71 -2.07929 4826.71C-94.0706 4826.71 -117.628 4833.68 -117.628 4833.68V4838.52C-117.628 4838.52 -77.9647 4829.39 0.158211 4829.39C78.2812 4829.39 802.707 4836.1 866.983 4805.51C931.259 4774.92 726.189 4734.13 499.229 4668.06C272.269 4601.99 92.4239 4629.22 -117.628 4656.59V4668.06Z" fill="#EFEFEF"/>
<path d="M-117.628 4626.97C-117.628 4626.97 171.94 4554.06 483.799 4609.98C795.657 4665.89 921.549 4542 921.549 4542L910.994 4542.63C910.994 4542.63 845.558 4640.65 512.781 4609C180.004 4577.35 285.715 4565.87 -117.628 4619.41V4626.97Z" fill="#EFEFEF"/>
<path d="M998.067 4542.46C998.067 4542.46 1344.44 4574.46 1571.06 4648.68L1571.31 4668.23C1571.31 4668.23 1324.66 4580.28 963.132 4542.46H998.067Z" fill="#EFEFEF"/>
<path d="M529.373 4867.2C529.373 4867.2 673.545 4852.16 845.496 4954.43C1046.41 5074.03 1175.89 5078.28 1175.89 5078.28H1105.49C1105.49 5078.28 983.208 5042.46 859.702 4970.19C736.195 4897.92 507.188 4867.2 507.188 4867.2H529.373Z" fill="#EFEFEF"/>
<path d="M93.0591 3601.52C93.0591 3601.52 247.553 3634.41 354.658 3634.41C461.763 3634.41 567.433 3586.05 567.433 3586.05L93.0591 3601.52Z" fill="#EFEFEF"/>
<path d="M625.816 3912.96C625.816 3912.96 692.203 3863.67 880.977 3912.96H625.816Z" fill="#EFEFEF"/>
<path d="M1031.51 4309.24C1031.51 4309.24 1250.4 4445.59 1436.79 4463.26C1436.83 4463.35 1199.66 4401.66 1031.51 4309.24Z" fill="#EFEFEF"/>
<path d="M682.94 4668.06C682.94 4668.06 995.643 4817.57 1302.67 4782.18C1302.67 4782.18 958.45 4789.36 682.94 4668.06Z" fill="#EFEFEF"/>
<path d="M928.177 5078.28C928.177 5078.28 771.403 4958.97 575.431 4909.35C575.431 4909.35 733.006 4957.4 912.978 5078.28H928.177Z" fill="#EFEFEF"/>
<path d="M-93.5759 1902.43L1595.11 1928.18L1595.11 1924.18L-93.5759 1898.14L-93.5759 1902.43Z" fill="#EFEFEF"/>
<path d="M-93.5759 2531.55L1595.11 2557.34L1595.11 2553.31L-93.5759 2527.26L-93.5759 2531.55Z" fill="#EFEFEF"/>
<path d="M-93.5759 2856.67L1595.11 2882.42L1595.11 2878.42L-93.5759 2852.38L-93.5759 2856.67Z" fill="#EFEFEF"/>
<path d="M-93.5759 3235.15L1595.11 3175.93L1595.11 3171.93L-93.5759 3227.08L-93.5759 3235.15Z" fill="#EFEFEF"/>
<path d="M-93.5759 2246.37L1595.11 2239.02L1595.11 2229.38L-93.5759 2244.2L-93.5759 2246.37Z" fill="#EFEFEF"/>
<path d="M1290.81 2237.87C1290.81 2237.87 1139.36 2249.9 1031.64 2288.52C923.921 2327.14 704.223 2539.58 704.223 2539.58L596.569 2539.58C596.569 2539.58 647.04 2543.49 718.682 2502.15C790.325 2460.81 923.436 2331.48 989.59 2298.21C1055.74 2264.94 1082.36 2241.23 1082.36 2241.23L1290.81 2237.87Z" fill="#EFEFEF"/>
<path d="M1008.44 2242.12C1008.44 2242.12 805.544 2408.76 712.772 2436.63C620 2464.5 333.092 2246.37 333.092 2246.37L367.203 2240.17C367.203 2240.17 547.492 2413.05 690.376 2413.05C833.26 2413.05 991.11 2241.65 991.11 2241.65L1008.44 2242.12Z" fill="#EFEFEF"/>
<path d="M1606.02 1696.36C1606.02 1696.36 1403.02 1862.96 1310.31 1890.87C1217.61 1918.79 930.634 1700.57 930.634 1700.57L964.766 1694.37C964.766 1694.37 1145.03 1867.25 1287.92 1867.25C1430.8 1867.25 1588.78 1695.85 1588.78 1695.85L1606.02 1696.36Z" fill="#EFEFEF"/>
<path d="M670.468 2542.3C670.468 2542.3 464.026 2485.41 211.187 2246.37L174.859 2245.44L382.568 2393.89C527.352 2497.31 635.322 2541.75 635.322 2541.75L670.468 2542.3Z" fill="#EFEFEF"/>
<path d="M238.187 2246.37C238.187 2246.37 419.721 2397.03 534.953 2439.14C534.953 2439.14 392.554 2364.11 252.583 2246.37L238.187 2246.37Z" fill="#EFEFEF"/>
<path d="M842.736 1689.78C842.736 1689.78 1024.27 1840.44 1139.48 1882.55C1139.48 1882.55 997.103 1807.51 857.132 1689.78L842.736 1689.78Z" fill="#EFEFEF"/>
<path d="M427.844 2246.37C427.844 2246.37 562.939 2312.14 645.262 2325.02C727.586 2337.89 882.101 2242.12 882.101 2242.12L427.844 2246.37Z" fill="#EFEFEF"/>
<path d="M1128.13 1706.3C1128.13 1706.3 1263.22 1772.08 1345.69 1784.95C1428.17 1797.82 1582.45 1702.06 1582.45 1702.06L1128.13 1706.3Z" fill="#EFEFEF"/>
<path d="M367.222 2240.17C367.222 2240.17 478.97 2370.14 625.823 2423.25C625.823 2423.25 470.02 2358.46 333.11 2246.37L367.222 2240.17Z" fill="#EFEFEF"/>
<path d="M1459.6 2237.87C1459.6 2237.87 1219.38 2253.04 1065.29 2307.3C911.194 2361.56 727.718 2539.67 727.718 2539.67L742.663 2542.3C742.663 2542.3 880.502 2379.78 1146.07 2297.65C1411.64 2215.52 1595.11 2284.14 1595.11 2284.14L1595.11 2239.02L1459.6 2237.87Z" fill="#EFEFEF"/>
<path d="M1595.11 2717.86C1595.11 2717.86 1349.2 2762.94 1024.84 2698.57C700.49 2634.2 534.534 2558.06 230.359 2673.38C-73.8158 2788.69 -93.5735 2808.06 -93.5735 2808.06L-93.5735 2822C-93.5735 2822 87.2218 2727.55 250.497 2680.3C413.772 2633.05 670.558 2608.41 823.638 2668.79C963.946 2724.02 1193.44 2752.23 1595.2 2735.07L1595.11 2717.86Z" fill="#EFEFEF"/>
<path d="M1595.11 2527.26C1595.11 2527.26 1455.61 2555.26 1297.21 2515.02C1138.81 2474.79 1001.2 2453.5 994.045 2439.14C986.889 2424.78 1082.85 2313.89 1304.4 2313.89C1525.96 2313.89 1595.11 2326.21 1595.11 2326.21L1595.11 2339.63C1595.11 2339.63 1450.75 2312.14 1294.4 2321.79C1138.05 2331.43 1018.85 2402.05 1015.64 2425.25C1012.43 2448.45 1262.44 2499.98 1379.99 2518.21C1451.58 2529.2 1523.47 2530.01 1595.11 2520.63L1595.11 2527.26Z" fill="#EFEFEF"/>
<path d="M1595.11 2493.53C1595.11 2493.53 1416.13 2523.61 1254.55 2465.65C1092.96 2407.7 1296.49 2321.79 1424.83 2355.18C1553.17 2388.58 1595.11 2371.16 1595.11 2371.16L1597.98 2380.85C1597.98 2380.85 1523.05 2380.29 1408.66 2360.45C1294.27 2340.61 1210.83 2397.2 1210.83 2424.18C1210.83 2451.16 1393.34 2523.61 1595.11 2486.05L1595.11 2493.53Z" fill="#EFEFEF"/>
<path d="M1593.97 3009.37C1593.97 3009.37 1343.27 3032.61 1116.92 2987.79C890.572 2942.96 1175.66 2876.6 1355.45 2902.35C1535.23 2928.09 1593.97 2914.79 1593.97 2914.79L1597.98 2922.23C1597.98 2922.23 1493.03 2921.85 1332.8 2906.47C1172.56 2891.09 1055.66 2934.93 1055.66 2955.75C1055.66 2976.57 1311.33 3032.61 1593.97 3003.55L1593.97 3009.37Z" fill="#EFEFEF"/>
<path d="M-93.2642 1847.24C-93.2642 1847.24 157.443 1870.48 383.79 1825.65C610.138 1780.83 325.066 1714.51 145.263 1740.21C-34.54 1765.92 -93.2642 1752.66 -93.2642 1752.66L-97.296 1760.14C-97.296 1760.14 7.65601 1759.71 167.891 1744.37C328.127 1729.04 445.026 1772.8 445.026 1793.62C445.026 1814.44 189.359 1870.48 -93.243 1841.46L-93.2642 1847.24Z" fill="#EFEFEF"/>
<path d="M1137.23 2550.33C1137.23 2550.33 1007.11 2471.09 943.66 2471.09C880.207 2471.09 814.095 2539.67 814.095 2539.67L829.547 2545.66C829.547 2545.66 874.825 2473.43 949.021 2482.82C1023.22 2492.21 1117.53 2550.33 1117.53 2550.33L1137.23 2550.33Z" fill="#EFEFEF"/>
<path d="M-93.5354 2753.3C-93.5354 2753.3 204.096 2659.23 333.112 2613.68C462.128 2568.13 -17.2911 2524.46 -93.5354 2550.33L-91.4245 2568.13C-91.4245 2568.13 23.9973 2538.39 170.153 2557.34C316.309 2576.29 342.927 2594.26 342.927 2601.95C342.927 2609.64 146.406 2672.78 56.8212 2695.43C-32.7638 2718.07 -93.5777 2717.95 -93.5777 2717.95L-93.5354 2753.3Z" fill="#EFEFEF"/>
<path d="M-93.5353 2677.07C-93.5353 2677.07 76.8533 2679.62 174.861 2608.41C174.861 2608.41 156.538 2640.58 -93.5353 2665.3L-93.5353 2677.07Z" fill="#EFEFEF"/>
<path d="M-36.9901 2852.38C-36.9901 2852.38 55.2123 2740.34 422.671 2717.86C790.13 2695.39 938.143 2872.39 938.143 2872.39L925.478 2868.14C925.478 2868.14 772.504 2703.37 422.671 2721.77C97.3873 2739.11 -30.5942 2853.48 -30.5942 2853.48L-36.9901 2852.38Z" fill="#EFEFEF"/>
<path d="M555.936 3211.62C555.936 3211.62 654.534 3039.88 1021.99 3017.36C1389.45 2994.84 1537.49 3171.93 1537.49 3171.93L1524.82 3167.68C1524.82 3167.68 1371.78 3002.91 1021.93 3021.44C696.646 3038.43 562.268 3212.63 562.268 3212.63L555.936 3211.62Z" fill="#EFEFEF"/>
<path d="M1595.11 2753.3C1595.11 2753.3 1380.4 2769.4 1218.28 2769.4C1056.17 2769.4 848.206 2715.86 825.809 2715.86C803.413 2715.86 954.846 2868.52 954.846 2868.52L962.846 2868.52C962.846 2868.52 837.546 2742.08 837.546 2729.67C837.546 2717.27 1002.32 2764.05 1219.38 2777.98C1436.44 2791.92 1595.11 2765.24 1595.11 2765.24L1595.11 2753.3Z" fill="#EFEFEF"/>
<path d="M1595.11 2792.22C1595.11 2792.22 1545.19 2804.96 1345.21 2804.96C1145.22 2804.96 1008.44 2873.45 1008.44 2873.45L1025.77 2873.45C1025.77 2873.45 1142.84 2811.25 1350 2811.25C1557.16 2811.25 1595.11 2800.8 1595.11 2800.8L1595.11 2792.22Z" fill="#EFEFEF"/>
<path d="M1604.06 1928.94C1604.06 1928.94 1456.6 1941.69 865.981 1941.69C275.362 1941.69 -128.614 2010.18 -128.614 2010.18L-77.4259 2010.18C-77.4259 2010.18 268.291 1947.98 880.166 1947.98C1492.04 1947.98 1604.06 1937.53 1604.06 1937.53L1604.06 1928.94Z" fill="#EFEFEF"/>
<path d="M-93.5751 3227.08C-93.5751 3227.08 325.832 3192.54 521.403 3139.73C716.974 3086.91 1052.45 2874.13 1052.45 2874.13L1043.38 2874.13C1043.38 2874.13 770.696 3043.28 494.849 3130.04C219.001 3216.8 -93.5751 3203.54 -93.5751 3203.54L-93.5751 3227.08Z" fill="#EFEFEF"/>
<path d="M-93.5403 3145.08C-93.5403 3145.08 176.122 3159.4 518.081 3067.79C860.041 2976.19 985.489 2874.13 985.489 2874.13L970.988 2874.13C970.988 2874.13 783.712 2989.44 514.387 3061.38C245.063 3133.31 -93.5403 3132.2 -93.5403 3132.2L-93.5403 3145.08Z" fill="#EFEFEF"/>
<path d="M-93.5384 2856.67C-93.5384 2856.67 499.613 2888.92 643.595 2933.62C787.577 2978.31 396.624 3067.28 230.183 3084.96C63.7417 3102.63 -93.5385 3099.45 -93.5385 3099.45L-93.7917 3091.42C-93.7917 3091.42 65.9371 3088.19 236.579 3076.38C407.221 3064.56 667.574 2978.27 661.727 2955.45C649.062 2905.79 -93.5384 2861.98 -93.5384 2861.98L-93.5384 2856.67Z" fill="#EFEFEF"/>
<path d="M-93.5387 3050.59C-93.5387 3050.59 226.911 3054.24 276.537 3010.05C326.164 2965.86 -93.5387 2917.51 -93.5387 2917.51L-93.5387 3050.59Z" fill="#EFEFEF"/>
<path d="M-93.8292 3309.93C-93.8292 3309.93 282.98 3201.89 682.904 3235.15C1082.83 3268.42 1216.3 3336.15 1396.69 3336.15C1577.09 3336.15 1595.11 3282.61 1595.11 3282.61L1595.11 3296.42C1595.11 3296.42 1546.16 3345.79 1355.3 3345.79C1164.43 3345.79 1024.72 3248.07 643.558 3245.99C262.4 3243.91 -93.5759 3321.11 -93.5759 3321.11L-93.8292 3309.93Z" fill="#EFEFEF"/>
<path d="M-93.5388 3345.79C-93.5388 3345.79 220.98 3237.41 562.369 3276.03C903.759 3314.65 1001.83 3401.58 1001.83 3401.58L986.209 3401.58C986.209 3401.58 775.988 3294.81 560.005 3279.26C344.022 3263.71 -93.5388 3351.19 -93.5388 3351.19L-93.5388 3345.79Z" fill="#EFEFEF"/>
<path d="M179.595 3401.58C179.595 3401.58 343.651 3316.6 494.894 3316.6C646.137 3316.6 708.408 3401.58 708.408 3401.58L700.154 3401.37C700.154 3401.37 658.148 3324.08 490.968 3324.08C323.788 3324.08 192.598 3401.58 192.598 3401.58L179.595 3401.58Z" fill="#EFEFEF"/>
<path d="M1595.11 2076.67C1595.11 2076.67 1291.89 2156.81 1090.3 2076.67C888.713 1996.54 1058.3 1969.73 1249.23 1969.73C1440.15 1969.73 1595.11 1953.63 1595.11 1953.63L1595.11 2076.67Z" fill="#EFEFEF"/>
<path d="M1595.11 2112.28C1595.11 2112.28 1356.94 2185.1 1070.04 2112.28C783.128 2039.45 599.715 2015.87 615.673 1983.67C631.631 1951.46 1387.57 1953.63 1479.56 1953.63C1571.56 1953.63 1595.11 1946.66 1595.11 1946.66L1595.11 1941.82C1595.11 1941.82 1555.45 1950.95 1477.33 1950.95C1399.2 1950.95 674.777 1944.24 610.502 1974.83C546.226 2005.42 751.296 2046.21 978.256 2112.28C1205.22 2178.35 1385.06 2151.11 1595.11 2123.75L1595.11 2112.28Z" fill="#EFEFEF"/>
<path d="M1595.11 2153.36C1595.11 2153.36 1305.54 2226.27 993.686 2170.36C681.828 2114.44 555.936 2238.34 555.936 2238.34L566.49 2237.7C566.49 2237.7 631.927 2139.68 964.704 2171.34C1297.48 2202.99 1191.77 2214.46 1595.11 2160.93L1595.11 2153.36Z" fill="#EFEFEF"/>
<path d="M479.455 2237.87C479.455 2237.87 133.084 2205.88 -93.5378 2131.65L-93.7911 2112.11C-93.7911 2112.11 152.863 2200.06 514.39 2237.87L479.455 2237.87Z" fill="#EFEFEF"/>
<path d="M948.148 1913.14C948.148 1913.14 803.976 1928.18 632.025 1825.91C431.114 1706.3 301.634 1702.06 301.634 1702.06L372.031 1702.06C372.031 1702.06 494.313 1737.87 617.819 1810.15C741.326 1882.42 970.333 1913.14 970.333 1913.14L948.148 1913.14Z" fill="#EFEFEF"/>
<path d="M1384.43 3178.82C1384.43 3178.82 1229.94 3145.93 1122.83 3145.93C1015.72 3145.93 910.055 3194.28 910.055 3194.28L1384.43 3178.82Z" fill="#EFEFEF"/>
<path d="M851.706 2867.38C851.706 2867.38 785.319 2916.66 596.545 2867.38L851.706 2867.38Z" fill="#EFEFEF"/>
<path d="M445.979 2471.09C445.979 2471.09 227.083 2334.75 40.6939 2317.07C40.6517 2316.99 277.828 2378.68 445.979 2471.09Z" fill="#EFEFEF"/>
<path d="M794.592 2112.28C794.592 2112.28 481.889 1962.76 174.865 1998.16C174.865 1998.16 519.083 1990.97 794.592 2112.28Z" fill="#EFEFEF"/>
<path d="M549.347 1702.06C549.347 1702.06 706.121 1821.36 902.093 1870.99C902.093 1870.99 744.518 1822.93 564.546 1702.06L549.347 1702.06Z" fill="#EFEFEF"/>
<path d="M1571.06 8278.69L-117.628 8252.94V8256.93L1571.06 8282.98V8278.69Z" fill="#EFEFEF"/>
<path d="M1571.06 7649.57L-117.628 7623.78V7627.81L1571.06 7653.86V7649.57Z" fill="#EFEFEF"/>
<path d="M1571.06 7324.45L-117.628 7298.7V7302.69L1571.06 7328.74V7324.45Z" fill="#EFEFEF"/>
<path d="M1571.06 6945.96L-117.628 7005.19V7009.19L1571.06 6954.04V6945.96Z" fill="#EFEFEF"/>
<path d="M1571.06 7934.75L-117.628 7942.1V7951.74L1571.06 7936.91V7934.75Z" fill="#EFEFEF"/>
<path d="M186.678 7943.24C186.678 7943.24 338.132 7931.22 445.849 7892.6C553.566 7853.98 773.265 7641.54 773.265 7641.54H880.919C880.919 7641.54 830.448 7637.63 758.805 7678.97C687.163 7720.31 554.052 7849.64 487.897 7882.91C421.743 7916.18 395.125 7939.89 395.125 7939.89L186.678 7943.24Z" fill="#EFEFEF"/>
<path d="M469.044 7939C469.044 7939 671.94 7772.36 764.712 7744.49C857.485 7716.61 1144.39 7934.75 1144.39 7934.75L1110.28 7940.95C1110.28 7940.95 929.993 7768.07 787.108 7768.07C644.224 7768.07 486.374 7939.46 486.374 7939.46L469.044 7939Z" fill="#EFEFEF"/>
<path d="M-128.54 8484.76C-128.54 8484.76 74.4619 8318.16 167.171 8290.25C259.88 8262.33 546.852 8480.55 546.852 8480.55L512.719 8486.75C512.719 8486.75 332.451 8313.87 189.567 8313.87C46.683 8313.87 -111.294 8485.27 -111.294 8485.27L-128.54 8484.76Z" fill="#EFEFEF"/>
<path d="M807.064 7638.82C807.064 7638.82 1013.51 7695.71 1266.35 7934.75L1302.67 7935.68L1094.96 7787.23C950.18 7683.81 842.21 7639.37 842.21 7639.37L807.064 7638.82Z" fill="#EFEFEF"/>
<path d="M1239.33 7934.75C1239.33 7934.75 1057.8 7784.08 942.569 7741.98C942.569 7741.98 1084.97 7817.01 1224.94 7934.75H1239.33Z" fill="#EFEFEF"/>
<path d="M634.75 8491.34C634.75 8491.34 453.216 8340.68 338.006 8298.57C338.006 8298.57 480.383 8373.61 620.354 8491.34H634.75Z" fill="#EFEFEF"/>
<path d="M1049.68 7934.75C1049.68 7934.75 914.583 7868.97 832.26 7856.1C749.936 7843.23 595.421 7939 595.421 7939L1049.68 7934.75Z" fill="#EFEFEF"/>
<path d="M349.359 8474.81C349.359 8474.81 214.264 8409.04 131.793 8396.17C49.3215 8383.3 -104.961 8479.06 -104.961 8479.06L349.359 8474.81Z" fill="#EFEFEF"/>
<path d="M1110.3 7940.95C1110.3 7940.95 998.55 7810.98 851.698 7757.87C851.698 7757.87 1007.5 7822.66 1144.41 7934.75L1110.3 7940.95Z" fill="#EFEFEF"/>
<path d="M17.8895 7943.25C17.8895 7943.25 258.105 7928.08 412.198 7873.82C566.291 7819.56 749.767 7641.45 749.767 7641.45L734.822 7638.82C734.822 7638.82 596.983 7801.34 331.416 7883.46C65.8483 7965.59 -117.628 7896.98 -117.628 7896.98V7942.1L17.8895 7943.25Z" fill="#EFEFEF"/>
<path d="M-117.629 7463.26C-117.629 7463.26 128.286 7418.18 452.641 7482.55C776.996 7546.92 942.952 7623.06 1247.13 7507.74C1551.3 7392.43 1571.06 7373.06 1571.06 7373.06V7359.12C1571.06 7359.12 1390.26 7453.57 1226.99 7500.82C1063.71 7548.06 806.928 7572.71 653.848 7512.33C513.539 7457.1 284.047 7428.89 -117.713 7446.05L-117.629 7463.26Z" fill="#EFEFEF"/>
<path d="M-117.628 7653.86C-117.628 7653.86 21.8791 7625.86 180.278 7666.1C338.677 7706.33 476.284 7727.62 483.44 7741.98C490.596 7756.34 394.636 7867.23 173.08 7867.23C-48.4759 7867.23 -117.628 7854.91 -117.628 7854.91V7841.49C-117.628 7841.49 26.7341 7868.98 183.086 7859.33C339.437 7849.69 458.637 7779.07 461.846 7755.87C465.054 7732.67 215.044 7681.14 97.4901 7662.91C25.9017 7651.92 -45.9827 7651.11 -117.628 7660.49L-117.628 7653.86Z" fill="#EFEFEF"/>
<path d="M-117.631 7687.59C-117.631 7687.59 61.3493 7657.51 222.936 7715.47C384.522 7773.42 180.993 7859.33 52.6525 7825.93C-75.6878 7792.54 -117.631 7809.96 -117.631 7809.96L-120.501 7800.27C-120.501 7800.27 -45.5658 7800.82 68.8217 7820.67C183.209 7840.51 266.652 7783.91 266.652 7756.93C266.652 7729.95 84.1466 7657.51 -117.631 7695.07V7687.59Z" fill="#EFEFEF"/>
<path d="M-116.491 7171.75C-116.491 7171.75 134.216 7148.51 360.564 7193.33C586.911 7238.16 301.818 7304.52 122.037 7278.77C-57.7455 7253.03 -116.491 7266.32 -116.491 7266.32L-120.501 7258.89C-120.501 7258.89 -15.5494 7259.27 144.686 7274.65C304.921 7290.03 421.821 7246.19 421.821 7225.37C421.821 7204.55 166.153 7148.51 -116.491 7177.57V7171.75Z" fill="#EFEFEF"/>
<path d="M1570.75 8333.88C1570.75 8333.88 1320.04 8310.64 1093.69 8355.47C867.345 8400.29 1152.42 8466.61 1332.22 8440.91C1512.02 8415.2 1570.75 8428.46 1570.75 8428.46L1574.78 8420.98C1574.78 8420.98 1469.83 8421.41 1309.59 8436.75C1149.36 8452.08 1032.46 8408.32 1032.46 8387.5C1032.46 8366.68 1288.12 8310.64 1570.73 8339.66L1570.75 8333.88Z" fill="#EFEFEF"/>
<path d="M340.257 7630.79C340.257 7630.79 470.371 7710.03 533.823 7710.03C597.276 7710.03 663.388 7641.45 663.388 7641.45L647.936 7635.46C647.936 7635.46 602.658 7707.69 528.462 7698.3C454.265 7688.91 359.952 7630.79 359.952 7630.79H340.257Z" fill="#EFEFEF"/>
<path d="M1571.02 7427.82C1571.02 7427.82 1273.39 7521.89 1144.37 7567.44C1015.36 7612.99 1494.78 7656.66 1571.02 7630.79L1568.91 7612.99C1568.91 7612.99 1453.49 7642.73 1307.33 7623.78C1161.18 7604.83 1134.56 7586.86 1134.56 7579.17C1134.56 7571.47 1331.08 7508.34 1420.66 7485.69C1510.25 7463.05 1571.06 7463.17 1571.06 7463.17L1571.02 7427.82Z" fill="#EFEFEF"/>
<path d="M1571.02 7504.05C1571.02 7504.05 1400.63 7501.5 1302.62 7572.71C1302.62 7572.71 1320.95 7540.54 1571.02 7515.81V7504.05Z" fill="#EFEFEF"/>
<path d="M1514.51 7328.74C1514.51 7328.74 1422.31 7440.78 1054.85 7463.26C687.391 7485.73 539.377 7308.73 539.377 7308.73L552.042 7312.98C552.042 7312.98 705.016 7477.75 1054.85 7459.35C1380.13 7442.01 1508.11 7327.64 1508.11 7327.64L1514.51 7328.74Z" fill="#EFEFEF"/>
<path d="M921.55 6969.5C921.55 6969.5 822.952 7141.24 455.493 7163.76C88.0344 7186.28 -60.0002 7009.19 -60.0002 7009.19L-47.3351 7013.44C-47.3351 7013.44 105.702 7178.2 455.556 7159.68C780.84 7142.68 915.217 6968.48 915.217 6968.48L921.55 6969.5Z" fill="#EFEFEF"/>
<path d="M-117.628 7427.82C-117.628 7427.82 97.0891 7411.72 259.203 7411.72C421.317 7411.72 629.279 7465.25 651.675 7465.25C674.072 7465.25 522.639 7312.59 522.639 7312.59H514.638C514.638 7312.59 639.939 7439.04 639.939 7451.44C639.939 7463.85 475.165 7417.07 258.105 7403.14C41.0457 7389.2 -117.628 7415.88 -117.628 7415.88V7427.82Z" fill="#EFEFEF"/>
<path d="M-117.628 7388.9C-117.628 7388.9 -67.7058 7376.16 132.277 7376.16C332.26 7376.16 469.044 7307.67 469.044 7307.67H451.714C451.714 7307.67 334.645 7369.87 127.485 7369.87C-79.6744 7369.87 -117.628 7380.32 -117.628 7380.32V7388.9Z" fill="#EFEFEF"/>
<path d="M-126.578 8252.18C-126.578 8252.18 20.887 8239.43 611.506 8239.43C1202.12 8239.43 1606.1 8170.94 1606.1 8170.94H1554.91C1554.91 8170.94 1209.2 8233.14 597.321 8233.14C-14.5544 8233.14 -126.578 8243.59 -126.578 8243.59V8252.18Z" fill="#EFEFEF"/>
<path d="M1571.06 6954.04C1571.06 6954.04 1151.65 6988.58 956.081 7041.39C760.51 7094.21 425.031 7306.99 425.031 7306.99H434.108C434.108 7306.99 706.789 7137.84 982.636 7051.08C1258.48 6964.32 1571.06 6977.58 1571.06 6977.58V6954.04Z" fill="#EFEFEF"/>
<path d="M1571.06 7036.04C1571.06 7036.04 1301.4 7021.72 959.441 7113.33C617.482 7204.93 492.033 7306.99 492.033 7306.99H506.535C506.535 7306.99 693.81 7191.67 963.135 7119.74C1232.46 7047.81 1571.06 7048.91 1571.06 7048.91V7036.04Z" fill="#EFEFEF"/>
<path d="M1571.07 7324.45C1571.07 7324.45 977.919 7292.2 833.937 7247.5C689.955 7202.81 1080.91 7113.84 1247.35 7096.16C1413.79 7078.48 1571.07 7081.67 1571.07 7081.67L1571.32 7089.7C1571.32 7089.7 1411.59 7092.93 1240.95 7104.74C1070.31 7116.55 809.958 7202.85 815.805 7225.66C828.47 7275.33 1571.07 7319.14 1571.07 7319.14V7324.45Z" fill="#EFEFEF"/>
<path d="M1571.02 7130.53C1571.02 7130.53 1250.57 7126.88 1200.95 7171.07C1151.32 7215.25 1571.02 7263.61 1571.02 7263.61V7130.53Z" fill="#EFEFEF"/>
<path d="M1571.31 6871.19C1571.31 6871.19 1194.5 6979.23 794.581 6945.96C394.657 6912.7 261.187 6844.97 80.7932 6844.97C-99.6009 6844.97 -117.628 6898.51 -117.628 6898.51V6884.7C-117.628 6884.7 -68.6768 6835.33 122.187 6835.33C313.051 6835.33 452.769 6933.05 833.927 6935.13C1215.09 6937.21 1571.06 6860.01 1571.06 6860.01L1571.31 6871.19Z" fill="#EFEFEF"/>
<path d="M1571.06 6835.33C1571.06 6835.33 1256.54 6943.71 915.153 6905.09C573.764 6866.47 475.693 6779.54 475.693 6779.54H491.314C491.314 6779.54 701.534 6886.31 917.518 6901.86C1133.5 6917.41 1571.06 6829.93 1571.06 6829.93V6835.33Z" fill="#EFEFEF"/>
<path d="M1297.94 6779.54C1297.94 6779.54 1133.89 6864.51 982.645 6864.51C831.401 6864.51 769.131 6779.54 769.131 6779.54L777.385 6779.75C777.385 6779.75 819.391 6857.04 986.571 6857.04C1153.75 6857.04 1284.94 6779.54 1284.94 6779.54H1297.94Z" fill="#EFEFEF"/>
<path d="M-117.628 8104.45C-117.628 8104.45 185.597 8024.31 387.185 8104.45C588.772 8184.58 419.185 8211.39 228.258 8211.39C37.3306 8211.39 -117.628 8227.49 -117.628 8227.49V8104.45Z" fill="#EFEFEF"/>
<path d="M-117.628 8068.84C-117.628 8068.84 120.541 7996.02 407.449 8068.84C694.357 8141.67 877.77 8165.25 861.812 8197.45C845.854 8229.66 89.9121 8227.49 -2.07917 8227.49C-94.0705 8227.49 -117.628 8234.46 -117.628 8234.46V8239.3C-117.628 8239.3 -77.9646 8230.17 0.158333 8230.17C78.2813 8230.17 802.708 8236.88 866.983 8206.29C931.259 8175.7 726.189 8134.91 499.229 8068.84C272.269 8002.77 92.4241 8030.01 -117.628 8057.37V8068.84Z" fill="#EFEFEF"/>
<path d="M-117.628 8027.75C-117.628 8027.75 171.94 7954.84 483.799 8010.76C795.657 8066.67 921.549 7942.78 921.549 7942.78L910.995 7943.42C910.995 7943.42 845.558 8041.44 512.781 8009.78C180.004 7978.13 285.716 7966.66 -117.628 8020.19V8027.75Z" fill="#EFEFEF"/>
<path d="M998.067 7943.25C998.067 7943.25 1344.44 7975.24 1571.06 8049.47L1571.31 8069.01C1571.31 8069.01 1324.66 7981.06 963.132 7943.25H998.067Z" fill="#EFEFEF"/>
<path d="M529.373 8267.98C529.373 8267.98 673.545 8252.94 845.496 8355.21C1046.41 8474.81 1175.89 8479.06 1175.89 8479.06H1105.49C1105.49 8479.06 983.208 8443.24 859.702 8370.97C736.195 8298.7 507.188 8267.98 507.188 8267.98H529.373Z" fill="#EFEFEF"/>
<path d="M93.0591 7002.3C93.0591 7002.3 247.553 7035.19 354.658 7035.19C461.763 7035.19 567.433 6986.84 567.433 6986.84L93.0591 7002.3Z" fill="#EFEFEF"/>
<path d="M625.817 7313.74C625.817 7313.74 692.203 7264.46 880.977 7313.74H625.817Z" fill="#EFEFEF"/>
<path d="M1031.51 7710.03C1031.51 7710.03 1250.4 7846.37 1436.79 7864.05C1436.83 7864.13 1199.66 7802.44 1031.51 7710.03Z" fill="#EFEFEF"/>
<path d="M682.94 8068.84C682.94 8068.84 995.643 8218.36 1302.67 8182.96C1302.67 8182.96 958.45 8190.14 682.94 8068.84Z" fill="#EFEFEF"/>
<path d="M928.177 8479.06C928.177 8479.06 771.403 8359.76 575.431 8310.13C575.431 8310.13 733.006 8358.18 912.978 8479.06H928.177Z" fill="#EFEFEF"/>
<path d="M1571.06 10702.4L-117.628 10676.7V10680.7L1571.06 10706.7V10702.4Z" fill="#EFEFEF"/>
<path d="M1571.06 10323.9L-117.628 10383.2V10387.1L1571.06 10332V10323.9Z" fill="#EFEFEF"/>
<path d="M-117.629 10841.2C-117.629 10841.2 128.286 10796.1 452.641 10860.5C776.996 10924.9 942.952 11001 1247.13 10885.7C1551.3 10770.4 1571.06 10751 1571.06 10751V10737.1C1571.06 10737.1 1390.26 10831.5 1226.99 10878.8C1063.71 10926 806.928 10950.7 653.848 10890.3C513.539 10835.1 284.047 10806.8 -117.713 10824L-117.629 10841.2Z" fill="#EFEFEF"/>
<path d="M-116.491 10549.7C-116.491 10549.7 134.216 10526.5 360.564 10571.3C586.911 10616.1 301.818 10682.5 122.037 10656.7C-57.7455 10631 -116.491 10644.3 -116.491 10644.3L-120.501 10636.8C-120.501 10636.8 -15.5494 10637.2 144.686 10652.6C304.921 10668 421.821 10624.1 421.821 10603.3C421.821 10582.5 166.153 10526.5 -116.491 10555.5V10549.7Z" fill="#EFEFEF"/>
<path d="M1571.02 10805.8C1571.02 10805.8 1273.39 10899.8 1144.37 10945.4C1015.36 10990.9 1494.78 11034.6 1571.02 11008.7L1568.91 10990.9C1568.91 10990.9 1453.49 11020.7 1307.33 11001.7C1161.18 10982.8 1134.56 10964.8 1134.56 10957.1C1134.56 10949.4 1331.08 10886.3 1420.66 10863.6C1510.25 10841 1571.06 10841.1 1571.06 10841.1L1571.02 10805.8Z" fill="#EFEFEF"/>
<path d="M1571.02 10882C1571.02 10882 1400.63 10879.5 1302.62 10950.7C1302.62 10950.7 1320.95 10918.5 1571.02 10893.8V10882Z" fill="#EFEFEF"/>
<path d="M1514.51 10706.7C1514.51 10706.7 1422.31 10818.7 1054.85 10841.2C687.391 10863.7 539.377 10686.7 539.377 10686.7L552.042 10690.9C552.042 10690.9 705.016 10855.7 1054.85 10837.3C1380.13 10820 1508.11 10705.6 1508.11 10705.6L1514.51 10706.7Z" fill="#EFEFEF"/>
<path d="M921.55 10347.5C921.55 10347.5 822.952 10519.2 455.493 10541.7C88.0344 10564.2 -60.0002 10387.1 -60.0002 10387.1L-47.3351 10391.4C-47.3351 10391.4 105.702 10556.2 455.556 10537.6C780.84 10520.6 915.217 10346.4 915.217 10346.4L921.55 10347.5Z" fill="#EFEFEF"/>
<path d="M-117.628 10805.8C-117.628 10805.8 97.0891 10789.7 259.203 10789.7C421.317 10789.7 629.279 10843.2 651.675 10843.2C674.072 10843.2 522.639 10690.6 522.639 10690.6H514.638C514.638 10690.6 639.939 10817 639.939 10829.4C639.939 10841.8 475.165 10795 258.105 10781.1C41.0457 10767.2 -117.628 10793.8 -117.628 10793.8V10805.8Z" fill="#EFEFEF"/>
<path d="M-117.628 10766.9C-117.628 10766.9 -67.7058 10754.1 132.277 10754.1C332.26 10754.1 469.044 10685.6 469.044 10685.6H451.714C451.714 10685.6 334.645 10747.8 127.485 10747.8C-79.6744 10747.8 -117.628 10758.3 -117.628 10758.3V10766.9Z" fill="#EFEFEF"/>
<path d="M1571.06 10332C1571.06 10332 1151.65 10366.5 956.081 10419.4C760.51 10472.2 425.031 10684.9 425.031 10684.9H434.108C434.108 10684.9 706.789 10515.8 982.636 10429C1258.48 10342.3 1571.06 10355.5 1571.06 10355.5V10332Z" fill="#EFEFEF"/>
<path d="M1571.06 10414C1571.06 10414 1301.4 10399.7 959.441 10491.3C617.482 10582.9 492.033 10684.9 492.033 10684.9H506.535C506.535 10684.9 693.81 10569.6 963.135 10497.7C1232.46 10425.8 1571.06 10426.9 1571.06 10426.9V10414Z" fill="#EFEFEF"/>
<path d="M1571.07 10702.4C1571.07 10702.4 977.919 10670.2 833.937 10625.5C689.955 10580.8 1080.91 10491.8 1247.35 10474.1C1413.79 10456.4 1571.07 10459.6 1571.07 10459.6L1571.32 10467.7C1571.32 10467.7 1411.59 10470.9 1240.95 10482.7C1070.31 10494.5 809.958 10580.8 815.805 10603.6C828.47 10653.3 1571.07 10697.1 1571.07 10697.1V10702.4Z" fill="#EFEFEF"/>
<path d="M1571.02 10508.5C1571.02 10508.5 1250.57 10504.8 1200.95 10549C1151.32 10593.2 1571.02 10641.6 1571.02 10641.6V10508.5Z" fill="#EFEFEF"/>
<path d="M1571.31 10249.1C1571.31 10249.1 1194.5 10357.2 794.581 10323.9C394.657 10290.7 261.187 10222.9 80.7932 10222.9C-99.6009 10222.9 -117.628 10276.5 -117.628 10276.5V10262.7C-117.628 10262.7 -68.6768 10213.3 122.187 10213.3C313.051 10213.3 452.769 10311 833.927 10313.1C1215.09 10315.2 1571.06 10238 1571.06 10238L1571.31 10249.1Z" fill="#EFEFEF"/>
<path d="M1571.06 10213.3C1571.06 10213.3 1256.54 10321.7 915.153 10283C573.764 10244.4 475.693 10157.5 475.693 10157.5H491.314C491.314 10157.5 701.534 10264.3 917.518 10279.8C1133.5 10295.4 1571.06 10207.9 1571.06 10207.9V10213.3Z" fill="#EFEFEF"/>
<path d="M1297.94 10157.5C1297.94 10157.5 1133.89 10242.5 982.645 10242.5C831.401 10242.5 769.131 10157.5 769.131 10157.5L777.385 10157.7C777.385 10157.7 819.391 10235 986.571 10235C1153.75 10235 1284.94 10157.5 1284.94 10157.5H1297.94Z" fill="#EFEFEF"/>
<path d="M93.0591 10380.3C93.0591 10380.3 247.553 10413.1 354.658 10413.1C461.763 10413.1 567.433 10364.8 567.433 10364.8L93.0591 10380.3Z" fill="#EFEFEF"/>
<path d="M625.817 10691.7C625.817 10691.7 692.203 10642.4 880.977 10691.7H625.817Z" fill="#EFEFEF"/>
<path d="M-93.5757 8681.17L1595.11 8706.92L1595.11 8702.93L-93.5757 8676.88L-93.5757 8681.17Z" fill="#EFEFEF"/>
<path d="M-93.5757 9310.29L1595.11 9336.08L1595.11 9332.05L-93.5757 9306L-93.5757 9310.29Z" fill="#EFEFEF"/>
<path d="M-93.5757 9635.41L1595.11 9661.16L1595.11 9657.17L-93.5757 9631.12L-93.5757 9635.41Z" fill="#EFEFEF"/>
<path d="M-93.5757 10013.9L1595.11 9954.67L1595.11 9950.67L-93.5757 10005.8L-93.5757 10013.9Z" fill="#EFEFEF"/>
<path d="M-93.5757 9025.11L1595.11 9017.76L1595.11 9008.12L-93.5757 9022.94L-93.5757 9025.11Z" fill="#EFEFEF"/>
<path d="M1290.81 9016.62C1290.81 9016.62 1139.36 9028.64 1031.64 9067.26C923.921 9105.88 704.223 9318.32 704.223 9318.32L596.569 9318.32C596.569 9318.32 647.04 9322.23 718.682 9280.89C790.325 9239.55 923.436 9110.22 989.59 9076.95C1055.74 9043.68 1082.36 9019.97 1082.36 9019.97L1290.81 9016.62Z" fill="#EFEFEF"/>
<path d="M1008.44 9020.86C1008.44 9020.86 805.544 9187.5 712.772 9215.37C620 9243.25 333.092 9025.11 333.092 9025.11L367.203 9018.91C367.203 9018.91 547.492 9191.79 690.376 9191.79C833.26 9191.79 991.11 9020.4 991.11 9020.4L1008.44 9020.86Z" fill="#EFEFEF"/>
<path d="M1606.03 8475.1C1606.03 8475.1 1403.02 8641.7 1310.31 8669.61C1217.61 8697.53 930.634 8479.31 930.634 8479.31L964.767 8473.11C964.767 8473.11 1145.03 8645.99 1287.92 8645.99C1430.8 8645.99 1588.78 8474.59 1588.78 8474.59L1606.03 8475.1Z" fill="#EFEFEF"/>
<path d="M670.468 9321.04C670.468 9321.04 464.026 9264.15 211.187 9025.11L174.859 9024.18L382.568 9172.63C527.352 9276.05 635.322 9320.49 635.322 9320.49L670.468 9321.04Z" fill="#EFEFEF"/>
<path d="M238.188 9025.11C238.188 9025.11 419.721 9175.78 534.953 9217.88C534.953 9217.88 392.555 9142.85 252.583 9025.11L238.188 9025.11Z" fill="#EFEFEF"/>
<path d="M842.736 8468.52C842.736 8468.52 1024.27 8619.18 1139.48 8661.29C1139.48 8661.29 997.103 8586.25 857.132 8468.52L842.736 8468.52Z" fill="#EFEFEF"/>
<path d="M427.844 9025.11C427.844 9025.11 562.939 9090.88 645.263 9103.76C727.586 9116.63 882.101 9020.86 882.101 9020.86L427.844 9025.11Z" fill="#EFEFEF"/>
<path d="M1128.13 8485.05C1128.13 8485.05 1263.22 8550.82 1345.69 8563.69C1428.17 8576.56 1582.45 8480.8 1582.45 8480.8L1128.13 8485.05Z" fill="#EFEFEF"/>
<path d="M367.222 9018.91C367.222 9018.91 478.971 9148.88 625.823 9201.99C625.823 9201.99 470.021 9137.2 333.11 9025.11L367.222 9018.91Z" fill="#EFEFEF"/>
<path d="M1459.6 9016.61C1459.6 9016.61 1219.38 9031.78 1065.29 9086.04C911.194 9140.3 727.718 9318.41 727.718 9318.41L742.663 9321.04C742.663 9321.04 880.502 9158.52 1146.07 9076.4C1411.64 8994.27 1595.11 9062.88 1595.11 9062.88L1595.11 9017.76L1459.6 9016.61Z" fill="#EFEFEF"/>
<path d="M1595.11 9496.6C1595.11 9496.6 1349.2 9541.68 1024.84 9477.31C700.49 9412.94 534.534 9336.8 230.359 9452.12C-73.8158 9567.43 -93.5735 9586.8 -93.5735 9586.8L-93.5735 9600.74C-93.5735 9600.74 87.2218 9506.29 250.497 9459.04C413.772 9411.8 670.558 9387.15 823.638 9447.53C963.946 9502.76 1193.44 9530.97 1595.2 9513.81L1595.11 9496.6Z" fill="#EFEFEF"/>
<path d="M1595.11 9306C1595.11 9306 1455.61 9334 1297.21 9293.77C1138.81 9253.53 1001.2 9232.24 994.045 9217.88C986.889 9203.52 1082.85 9092.63 1304.41 9092.63C1525.96 9092.63 1595.11 9104.95 1595.11 9104.95L1595.11 9118.37C1595.11 9118.37 1450.75 9090.88 1294.4 9100.53C1138.05 9110.17 1018.85 9180.79 1015.64 9203.99C1012.43 9227.19 1262.44 9278.72 1379.99 9296.95C1451.58 9307.94 1523.47 9308.75 1595.11 9299.37L1595.11 9306Z" fill="#EFEFEF"/>
<path d="M1595.11 9272.27C1595.11 9272.27 1416.13 9302.35 1254.55 9244.39C1092.96 9186.44 1296.49 9100.53 1424.83 9133.92C1553.17 9167.32 1595.11 9149.9 1595.11 9149.9L1597.98 9159.59C1597.98 9159.59 1523.05 9159.04 1408.66 9139.19C1294.27 9119.35 1210.83 9175.95 1210.83 9202.93C1210.83 9229.91 1393.34 9302.35 1595.11 9264.79L1595.11 9272.27Z" fill="#EFEFEF"/>
<path d="M1593.97 9788.11C1593.97 9788.11 1343.27 9811.35 1116.92 9766.53C890.572 9721.7 1175.66 9655.34 1355.45 9681.09C1535.23 9706.83 1593.97 9693.54 1593.97 9693.54L1597.98 9700.97C1597.98 9700.97 1493.03 9700.59 1332.8 9685.21C1172.56 9669.83 1055.66 9713.67 1055.66 9734.49C1055.66 9755.31 1311.33 9811.35 1593.97 9782.29L1593.97 9788.11Z" fill="#EFEFEF"/>
<path d="M-93.2642 8625.98C-93.2642 8625.98 157.443 8649.22 383.79 8604.39C610.138 8559.57 325.066 8493.25 145.263 8518.95C-34.54 8544.66 -93.2642 8531.4 -93.2642 8531.4L-97.296 8538.88C-97.296 8538.88 7.65601 8538.45 167.891 8523.12C328.127 8507.78 445.026 8551.54 445.026 8572.36C445.026 8593.18 189.359 8649.22 -93.243 8620.2L-93.2642 8625.98Z" fill="#EFEFEF"/>
<path d="M1137.23 9329.07C1137.23 9329.07 1007.11 9249.83 943.66 9249.83C880.207 9249.83 814.095 9318.41 814.095 9318.41L829.547 9324.4C829.547 9324.4 874.825 9252.17 949.021 9261.56C1023.22 9270.95 1117.53 9329.07 1117.53 9329.07L1137.23 9329.07Z" fill="#EFEFEF"/>
<path d="M-93.5354 9532.04C-93.5354 9532.04 204.096 9437.97 333.112 9392.42C462.128 9346.87 -17.2911 9303.2 -93.5354 9329.07L-91.4245 9346.87C-91.4245 9346.87 23.9973 9317.13 170.153 9336.08C316.309 9355.03 342.927 9373.01 342.927 9380.7C342.927 9388.39 146.406 9451.52 56.8212 9474.17C-32.7638 9496.82 -93.5777 9496.69 -93.5777 9496.69L-93.5354 9532.04Z" fill="#EFEFEF"/>
<path d="M-93.5353 9455.81C-93.5353 9455.81 76.8533 9458.36 174.861 9387.15C174.861 9387.15 156.538 9419.32 -93.5353 9444.04L-93.5353 9455.81Z" fill="#EFEFEF"/>
<path d="M-36.9901 9631.12C-36.9901 9631.12 55.2123 9519.08 422.671 9496.6C790.13 9474.13 938.143 9651.13 938.143 9651.13L925.478 9646.88C925.478 9646.88 772.504 9482.11 422.671 9500.51C97.3873 9517.85 -30.5942 9632.22 -30.5942 9632.22L-36.9901 9631.12Z" fill="#EFEFEF"/>
<path d="M555.936 9990.36C555.936 9990.36 654.534 9818.62 1021.99 9796.1C1389.45 9773.58 1537.49 9950.67 1537.49 9950.67L1524.82 9946.42C1524.82 9946.42 1371.78 9781.66 1021.93 9800.18C696.646 9817.18 562.269 9991.38 562.269 9991.38L555.936 9990.36Z" fill="#EFEFEF"/>
<path d="M1595.11 9532.04C1595.11 9532.04 1380.4 9548.14 1218.28 9548.14C1056.17 9548.14 848.206 9494.61 825.81 9494.61C803.413 9494.61 954.847 9647.27 954.847 9647.27L962.847 9647.27C962.847 9647.27 837.546 9520.82 837.546 9508.41C837.546 9496.01 1002.32 9542.79 1219.38 9556.72C1436.44 9570.66 1595.11 9543.98 1595.11 9543.98L1595.11 9532.04Z" fill="#EFEFEF"/>
<path d="M1595.11 9570.96C1595.11 9570.96 1545.19 9583.7 1345.21 9583.7C1145.23 9583.7 1008.44 9652.19 1008.44 9652.19L1025.77 9652.19C1025.77 9652.19 1142.84 9589.99 1350 9589.99C1557.16 9589.99 1595.11 9579.54 1595.11 9579.54L1595.11 9570.96Z" fill="#EFEFEF"/>
<path d="M1604.06 8707.68C1604.06 8707.68 1456.6 8720.43 865.981 8720.43C275.362 8720.43 -128.614 8788.92 -128.614 8788.92L-77.4259 8788.92C-77.4259 8788.92 268.291 8726.72 880.166 8726.72C1492.04 8726.72 1604.06 8716.27 1604.06 8716.27L1604.06 8707.68Z" fill="#EFEFEF"/>
<path d="M-93.5748 10005.8C-93.5748 10005.8 325.832 9971.28 521.403 9918.47C716.975 9865.65 1052.45 9652.87 1052.45 9652.87L1043.38 9652.87C1043.38 9652.87 770.696 9822.02 494.849 9908.78C219.002 9995.54 -93.5748 9982.28 -93.5748 9982.28L-93.5748 10005.8Z" fill="#EFEFEF"/>
<path d="M-93.5403 9923.82C-93.5403 9923.82 176.122 9938.14 518.081 9846.53C860.041 9754.93 985.489 9652.87 985.489 9652.87L970.988 9652.87C970.988 9652.87 783.712 9768.19 514.387 9840.12C245.063 9912.05 -93.5403 9910.95 -93.5403 9910.95L-93.5403 9923.82Z" fill="#EFEFEF"/>
<path d="M-93.5384 9635.41C-93.5384 9635.41 499.613 9667.66 643.595 9712.36C787.577 9757.05 396.624 9846.02 230.183 9863.7C63.7417 9881.37 -93.5385 9878.19 -93.5385 9878.19L-93.7917 9870.16C-93.7917 9870.16 65.9371 9866.93 236.579 9855.12C407.221 9843.31 667.574 9757.01 661.727 9734.2C649.062 9684.53 -93.5384 9640.72 -93.5384 9640.72L-93.5384 9635.41Z" fill="#EFEFEF"/>
<path d="M-93.5385 9829.33C-93.5385 9829.33 226.911 9832.98 276.538 9788.79C326.164 9744.61 -93.5385 9696.25 -93.5385 9696.25L-93.5385 9829.33Z" fill="#EFEFEF"/>
<path d="M-93.829 10088.7C-93.829 10088.7 282.981 9980.63 682.904 10013.9C1082.83 10047.2 1216.3 10114.9 1396.69 10114.9C1577.09 10114.9 1595.11 10061.4 1595.11 10061.4L1595.11 10075.2C1595.11 10075.2 1546.16 10124.5 1355.3 10124.5C1164.43 10124.5 1024.72 10026.8 643.558 10024.7C262.4 10022.6 -93.5757 10099.8 -93.5757 10099.8L-93.829 10088.7Z" fill="#EFEFEF"/>
<path d="M-93.5388 10124.5C-93.5388 10124.5 220.98 10016.1 562.369 10054.8C903.759 10093.4 1001.83 10180.3 1001.83 10180.3L986.209 10180.3C986.209 10180.3 775.988 10073.5 560.005 10058C344.022 10042.4 -93.5388 10129.9 -93.5388 10129.9L-93.5388 10124.5Z" fill="#EFEFEF"/>
<path d="M179.595 10180.3C179.595 10180.3 343.651 10095.3 494.894 10095.3C646.137 10095.3 708.408 10180.3 708.408 10180.3L700.154 10180.1C700.154 10180.1 658.148 10102.8 490.968 10102.8C323.788 10102.8 192.598 10180.3 192.598 10180.3L179.595 10180.3Z" fill="#EFEFEF"/>
<path d="M1595.11 8855.41C1595.11 8855.41 1291.89 8935.55 1090.3 8855.41C888.713 8775.28 1058.3 8748.47 1249.23 8748.47C1440.15 8748.47 1595.11 8732.37 1595.11 8732.37L1595.11 8855.41Z" fill="#EFEFEF"/>
<path d="M1595.11 8891.02C1595.11 8891.02 1356.94 8963.84 1070.04 8891.02C783.128 8818.2 599.715 8794.61 615.673 8762.41C631.632 8730.2 1387.57 8732.37 1479.56 8732.37C1571.56 8732.37 1595.11 8725.4 1595.11 8725.4L1595.11 8720.56C1595.11 8720.56 1555.45 8729.69 1477.33 8729.69C1399.2 8729.69 674.778 8722.98 610.502 8753.57C546.226 8784.16 751.296 8824.95 978.256 8891.02C1205.22 8957.09 1385.06 8929.85 1595.11 8902.49L1595.11 8891.02Z" fill="#EFEFEF"/>
<path d="M1595.11 8932.1C1595.11 8932.1 1305.54 9005.01 993.686 8949.1C681.828 8893.19 555.936 9017.08 555.936 9017.08L566.491 9016.44C566.491 9016.44 631.927 8918.42 964.704 8950.08C1297.48 8981.73 1191.77 8993.2 1595.11 8939.67L1595.11 8932.1Z" fill="#EFEFEF"/>
<path d="M479.455 9016.62C479.455 9016.62 133.084 8984.62 -93.5378 8910.39L-93.7911 8890.85C-93.7911 8890.85 152.863 8978.8 514.39 9016.62L479.455 9016.62Z" fill="#EFEFEF"/>
<path d="M948.148 8691.88C948.148 8691.88 803.976 8706.92 632.025 8604.65C431.114 8485.05 301.634 8480.8 301.634 8480.8L372.031 8480.8C372.031 8480.8 494.313 8516.61 617.819 8588.89C741.326 8661.16 970.333 8691.88 970.333 8691.88L948.148 8691.88Z" fill="#EFEFEF"/>
<path d="M1384.43 9957.56C1384.43 9957.56 1229.94 9924.67 1122.83 9924.67C1015.73 9924.67 910.055 9973.02 910.055 9973.02L1384.43 9957.56Z" fill="#EFEFEF"/>
<path d="M851.706 9646.12C851.706 9646.12 785.319 9695.4 596.545 9646.12L851.706 9646.12Z" fill="#EFEFEF"/>
<path d="M445.979 9249.83C445.979 9249.83 227.083 9113.49 40.694 9095.81C40.6518 9095.73 277.828 9157.42 445.979 9249.83Z" fill="#EFEFEF"/>
<path d="M794.592 8891.02C794.592 8891.02 481.889 8741.5 174.865 8776.9C174.865 8776.9 519.083 8769.72 794.592 8891.02Z" fill="#EFEFEF"/>
<path d="M549.347 8480.8C549.347 8480.8 706.121 8600.1 902.093 8649.73C902.093 8649.73 744.518 8601.68 564.546 8480.8L549.347 8480.8Z" fill="#EFEFEF"/>
</svg>
