<svg width="1440" height="10916" viewBox="0 0 1440 10916" fill="none" xmlns="http://www.w3.org/2000/svg">
<path d="M-63.6642 4783.02L1494.67 4806.78L1494.67 4803.09L-63.6642 4779.06L-63.6642 4783.02Z" fill="#EFEFEF"/>
<path d="M-63.6642 5363.58L1494.67 5387.38L1494.67 5383.65L-63.6642 5359.62L-63.6642 5363.58Z" fill="#EFEFEF"/>
<path d="M-63.6642 5663.6L1494.67 5687.36L1494.67 5683.67L-63.6642 5659.64L-63.6642 5663.6Z" fill="#EFEFEF"/>
<path d="M-63.6642 6012.87L1494.67 5958.21L1494.67 5954.52L-63.6642 6005.42L-63.6642 6012.87Z" fill="#EFEFEF"/>
<path d="M-63.6642 5100.41L1494.67 5093.63L1494.67 5084.73L-63.6642 5098.41L-63.6642 5100.41Z" fill="#EFEFEF"/>
<path d="M1213.86 5092.57C1213.86 5092.57 1074.09 5103.66 974.692 5139.31C875.29 5174.95 672.55 5370.99 672.55 5370.99L573.206 5370.99C573.206 5370.99 619.781 5374.59 685.893 5336.44C752.006 5298.3 874.842 5178.94 935.89 5148.24C996.937 5117.54 1021.5 5095.67 1021.5 5095.67L1213.86 5092.57Z" fill="#EFEFEF"/>
<path d="M953.322 5096.49C953.322 5096.49 766.088 5250.26 680.477 5275.98C594.866 5301.7 330.104 5100.41 330.104 5100.41L361.583 5094.68C361.583 5094.68 527.955 5254.22 659.809 5254.22C791.664 5254.22 937.33 5096.06 937.33 5096.06L953.322 5096.49Z" fill="#EFEFEF"/>
<path d="M1504.74 4592.86C1504.74 4592.86 1317.41 4746.59 1231.86 4772.35C1146.3 4798.11 881.485 4596.74 881.485 4596.74L912.983 4591.01C912.983 4591.01 1079.34 4750.55 1211.19 4750.55C1343.04 4750.55 1488.83 4592.39 1488.83 4592.39L1504.74 4592.86Z" fill="#EFEFEF"/>
<path d="M641.403 5373.5C641.403 5373.5 450.897 5321 217.575 5100.41L184.051 5099.55L375.726 5236.54C509.334 5331.98 608.97 5372.99 608.97 5372.99L641.403 5373.5Z" fill="#EFEFEF"/>
<path d="M242.487 5100.41C242.487 5100.41 410.009 5239.44 516.346 5278.3C516.346 5278.3 384.939 5209.06 255.772 5100.41L242.487 5100.41Z" fill="#EFEFEF"/>
<path d="M800.372 4586.78C800.372 4586.78 967.893 4725.81 1074.21 4764.67C1074.21 4764.67 942.823 4695.43 813.657 4586.78L800.372 4586.78Z" fill="#EFEFEF"/>
<path d="M417.507 5100.41C417.507 5100.41 542.174 5161.1 618.143 5172.98C694.112 5184.86 836.7 5096.49 836.7 5096.49L417.507 5100.41Z" fill="#EFEFEF"/>
<path d="M1063.73 4602.03C1063.73 4602.03 1188.4 4662.73 1264.51 4674.61C1340.61 4686.49 1482.98 4598.11 1482.98 4598.11L1063.73 4602.03Z" fill="#EFEFEF"/>
<path d="M361.561 5094.68C361.561 5094.68 464.684 5214.62 600.201 5263.63C600.201 5263.63 456.425 5203.84 330.083 5100.41L361.561 5094.68Z" fill="#EFEFEF"/>
<path d="M1369.62 5092.57C1369.62 5092.57 1147.94 5106.57 1005.74 5156.64C863.545 5206.7 694.232 5371.07 694.232 5371.07L708.023 5373.5C708.023 5373.5 835.222 5223.52 1080.29 5147.73C1325.36 5071.94 1494.67 5135.27 1494.67 5135.27L1494.67 5093.63L1369.62 5092.57Z" fill="#EFEFEF"/>
<path d="M1494.67 5535.5C1494.67 5535.5 1267.74 5577.1 968.424 5517.7C669.107 5458.3 515.961 5388.04 235.266 5494.45C-45.4299 5600.86 -63.6625 5618.74 -63.6625 5618.74L-63.6625 5631.6C-63.6625 5631.6 103.177 5544.44 253.849 5500.84C404.52 5457.24 641.485 5434.5 782.748 5490.22C912.227 5541.19 1124 5567.22 1494.75 5551.38L1494.67 5535.5Z" fill="#EFEFEF"/>
<path d="M1494.67 5359.62C1494.67 5359.62 1365.93 5385.45 1219.76 5348.32C1073.59 5311.19 946.604 5291.55 940.001 5278.3C933.398 5265.05 1021.95 5162.71 1226.4 5162.71C1430.86 5162.71 1494.67 5174.08 1494.67 5174.08L1494.67 5186.47C1494.67 5186.47 1361.45 5161.1 1217.17 5170C1072.89 5178.9 962.889 5244.07 959.928 5265.48C956.967 5286.88 1187.68 5334.44 1296.16 5351.26C1362.22 5361.41 1428.56 5362.15 1494.67 5353.5L1494.67 5359.62Z" fill="#EFEFEF"/>
<path d="M1494.67 5328.48C1494.67 5328.48 1329.51 5356.24 1180.4 5302.76C1031.28 5249.28 1219.1 5170 1337.53 5200.82C1455.97 5231.64 1494.67 5215.56 1494.67 5215.56L1497.32 5224.5C1497.32 5224.5 1428.17 5223.99 1322.61 5205.68C1217.06 5187.37 1140.05 5239.6 1140.05 5264.5C1140.05 5289.39 1308.47 5356.24 1494.67 5321.58L1494.67 5328.48Z" fill="#EFEFEF"/>
<path d="M1493.62 5804.51C1493.62 5804.51 1262.27 5825.96 1053.39 5784.6C844.515 5743.23 1107.6 5681.99 1273.51 5705.75C1439.41 5729.51 1493.62 5717.24 1493.62 5717.24L1497.32 5724.1C1497.32 5724.1 1400.47 5723.75 1252.6 5709.55C1104.74 5695.36 996.862 5735.82 996.862 5755.03C996.862 5774.25 1232.79 5825.96 1493.62 5799.14L1493.62 5804.51Z" fill="#EFEFEF"/>
<path d="M-63.3758 4732.09C-63.3758 4732.09 167.979 4753.53 376.854 4712.17C585.73 4670.8 322.663 4609.6 156.739 4633.32C-9.18465 4657.04 -63.3758 4644.81 -63.3758 4644.81L-67.0964 4651.71C-67.0964 4651.71 29.7542 4651.32 177.621 4637.16C325.488 4623.01 433.364 4663.39 433.364 4682.6C433.364 4701.82 197.431 4753.53 -63.3564 4726.75L-63.3758 4732.09Z" fill="#EFEFEF"/>
<path d="M1072.13 5380.91C1072.13 5380.91 952.059 5307.78 893.504 5307.78C834.95 5307.78 773.941 5371.07 773.941 5371.07L788.199 5376.59C788.199 5376.59 829.982 5309.94 898.452 5318.6C966.921 5327.27 1053.95 5380.91 1053.95 5380.91L1072.13 5380.91Z" fill="#EFEFEF"/>
<path d="M-63.6261 5568.2C-63.6261 5568.2 211.031 5481.4 330.088 5439.37C449.145 5397.33 6.73279 5357.03 -63.6261 5380.91L-61.6782 5397.33C-61.6782 5397.33 44.8341 5369.89 179.708 5387.38C314.582 5404.86 339.146 5421.45 339.146 5428.54C339.146 5435.64 157.794 5493.9 75.1243 5514.8C-7.54551 5535.7 -63.6651 5535.58 -63.6651 5535.58L-63.6261 5568.2Z" fill="#EFEFEF"/>
<path d="M-63.626 5497.86C-63.626 5497.86 93.6103 5500.22 184.052 5434.5C184.052 5434.5 167.144 5464.18 -63.626 5487L-63.626 5497.86Z" fill="#EFEFEF"/>
<path d="M-11.4453 5659.64C-11.4453 5659.64 73.6399 5556.25 412.734 5535.5C751.828 5514.76 888.417 5678.11 888.417 5678.11L876.729 5674.18C876.729 5674.18 735.563 5522.13 412.734 5539.11C112.559 5555.11 -5.54305 5660.66 -5.54305 5660.66L-11.4453 5659.64Z" fill="#EFEFEF"/>
<path d="M535.711 5991.15C535.711 5991.15 626.698 5832.67 965.793 5811.88C1304.89 5791.1 1441.49 5954.53 1441.49 5954.53L1429.81 5950.6C1429.81 5950.6 1288.58 5798.55 965.734 5815.65C665.56 5831.33 541.555 5992.09 541.555 5992.09L535.711 5991.15Z" fill="#EFEFEF"/>
<path d="M1494.67 5568.21C1494.67 5568.21 1296.53 5583.07 1146.93 5583.07C997.328 5583.07 805.419 5533.66 784.752 5533.66C764.084 5533.66 903.828 5674.54 903.828 5674.54L911.211 5674.54C911.211 5674.54 795.582 5557.85 795.582 5546.41C795.582 5534.96 947.637 5578.13 1147.94 5590.99C1348.25 5603.85 1494.67 5579.22 1494.67 5579.22L1494.67 5568.21Z" fill="#EFEFEF"/>
<path d="M1494.67 5604.12C1494.67 5604.12 1448.6 5615.88 1264.06 5615.88C1079.51 5615.88 953.286 5679.09 953.286 5679.09L969.278 5679.09C969.278 5679.09 1077.31 5621.69 1268.48 5621.69C1459.65 5621.69 1494.67 5612.04 1494.67 5612.04L1494.67 5604.12Z" fill="#EFEFEF"/>
<path d="M1502.93 4807.48C1502.93 4807.48 1366.85 4819.25 821.822 4819.25C276.794 4819.25 -95.9996 4882.45 -95.9996 4882.45L-48.7625 4882.45C-48.7625 4882.45 270.268 4825.05 834.912 4825.05C1399.56 4825.05 1502.93 4815.4 1502.93 4815.4L1502.93 4807.48Z" fill="#EFEFEF"/>
<path d="M-63.6649 6005.42C-63.6649 6005.42 323.368 5973.54 503.843 5924.8C684.318 5876.07 993.901 5679.71 993.901 5679.71L985.525 5679.71C985.525 5679.71 733.892 5835.8 479.338 5915.87C224.783 5995.93 -63.6649 5983.7 -63.6649 5983.7L-63.6649 6005.42Z" fill="#EFEFEF"/>
<path d="M-63.6316 5929.75C-63.6316 5929.75 185.215 5942.96 500.779 5858.43C816.342 5773.89 932.107 5679.71 932.107 5679.71L918.724 5679.71C918.724 5679.71 745.905 5786.13 497.37 5852.51C248.834 5918.89 -63.6316 5917.87 -63.6316 5917.87L-63.6316 5929.75Z" fill="#EFEFEF"/>
<path d="M-63.629 5663.6C-63.629 5663.6 483.737 5693.36 616.604 5734.61C749.472 5775.85 388.698 5857.96 235.104 5874.27C81.5105 5890.58 -63.629 5887.64 -63.629 5887.64L-63.8628 5880.23C-63.8628 5880.23 83.5364 5877.25 241.006 5866.35C398.476 5855.45 638.733 5775.81 633.337 5754.76C621.65 5708.92 -63.629 5668.5 -63.629 5668.5L-63.629 5663.6Z" fill="#EFEFEF"/>
<path d="M-63.6291 5842.55C-63.6291 5842.55 232.085 5845.92 277.881 5805.14C323.676 5764.37 -63.629 5719.75 -63.629 5719.75L-63.6291 5842.55Z" fill="#EFEFEF"/>
<path d="M-63.8993 6081.87C-63.8993 6081.87 283.824 5982.17 652.877 6012.87C1021.93 6043.57 1145.1 6106.06 1311.57 6106.06C1478.04 6106.06 1494.67 6056.66 1494.67 6056.66L1494.67 6069.4C1494.67 6069.4 1449.5 6114.96 1273.37 6114.96C1097.24 6114.96 968.304 6024.79 616.568 6022.86C264.832 6020.94 -63.6656 6092.18 -63.6656 6092.18L-63.8993 6081.87Z" fill="#EFEFEF"/>
<path d="M-63.6309 6114.97C-63.6309 6114.97 226.609 6014.95 541.647 6050.59C856.684 6086.23 947.185 6166.45 947.185 6166.45L932.77 6166.45C932.77 6166.45 738.776 6067.92 539.465 6053.57C340.154 6039.22 -63.6309 6119.95 -63.6309 6119.95L-63.6309 6114.97Z" fill="#EFEFEF"/>
<path d="M188.412 6166.45C188.412 6166.45 339.805 6088.03 479.373 6088.03C618.942 6088.03 676.406 6166.45 676.406 6166.45L668.789 6166.25C668.789 6166.25 630.026 6094.93 475.75 6094.93C321.475 6094.93 200.412 6166.45 200.412 6166.45L188.412 6166.45Z" fill="#EFEFEF"/>
<path d="M1494.67 4943.81C1494.67 4943.81 1214.85 5017.76 1028.83 4943.81C842.8 4869.86 999.296 4845.12 1175.49 4845.12C1351.67 4845.12 1494.67 4830.26 1494.67 4830.26L1494.67 4943.81Z" fill="#EFEFEF"/>
<path d="M1494.67 4976.67C1494.67 4976.67 1274.89 5043.87 1010.13 4976.67C745.365 4909.46 576.11 4887.7 590.836 4857.98C605.562 4828.26 1303.15 4830.26 1388.04 4830.26C1472.93 4830.26 1494.67 4823.83 1494.67 4823.83L1494.67 4819.36C1494.67 4819.36 1458.07 4827.79 1385.98 4827.79C1313.89 4827.79 645.378 4821.6 586.064 4849.83C526.749 4878.06 715.99 4915.7 925.431 4976.67C1134.87 5037.64 1300.83 5012.5 1494.67 4987.25L1494.67 4976.67Z" fill="#EFEFEF"/>
<path d="M1494.67 5014.58C1494.67 5014.58 1227.46 5081.86 939.67 5030.26C651.884 4978.67 535.71 5093 535.71 5093L545.45 5092.41C545.45 5092.41 605.835 5001.96 912.925 5031.17C1220.01 5060.38 1122.46 5070.96 1494.67 5021.56L1494.67 5014.58Z" fill="#EFEFEF"/>
<path d="M465.135 5092.57C465.135 5092.57 145.5 5063.04 -63.6286 4994.55L-63.8624 4976.51C-63.8624 4976.51 163.752 5057.67 497.373 5092.57L465.135 5092.57Z" fill="#EFEFEF"/>
<path d="M897.649 4792.9C897.649 4792.9 764.606 4806.78 605.928 4712.4C420.525 4602.03 301.04 4598.11 301.04 4598.11L366.003 4598.11C366.003 4598.11 478.846 4631.16 592.819 4697.86C706.792 4764.55 918.122 4792.9 918.122 4792.9L897.649 4792.9Z" fill="#EFEFEF"/>
<path d="M1300.25 5960.88C1300.25 5960.88 1157.68 5930.53 1058.84 5930.53C960.006 5930.53 862.493 5975.15 862.493 5975.15L1300.25 5960.88Z" fill="#EFEFEF"/>
<path d="M808.658 5673.48C808.658 5673.48 747.396 5718.96 573.194 5673.48L808.658 5673.48Z" fill="#EFEFEF"/>
<path d="M434.24 5307.78C434.24 5307.78 232.241 5181.96 60.2391 5165.65C60.2001 5165.57 279.069 5222.5 434.24 5307.78Z" fill="#EFEFEF"/>
<path d="M755.946 4976.67C755.946 4976.67 467.381 4838.69 184.056 4871.35C184.056 4871.35 501.704 4864.73 755.946 4976.67Z" fill="#EFEFEF"/>
<path d="M529.63 4598.11C529.63 4598.11 674.302 4708.21 855.147 4754C855.147 4754 709.735 4709.66 543.655 4598.11L529.63 4598.11Z" fill="#EFEFEF"/>
<path d="M1504.66 1294.39L-53.6724 1270.63V1274.32L1504.66 1298.35V1294.39Z" fill="#EFEFEF"/>
<path d="M1504.66 713.832L-53.6726 690.033V693.758L1504.66 717.793V713.832Z" fill="#EFEFEF"/>
<path d="M1504.66 413.811L-53.6726 390.05V393.736L1504.66 417.771V413.811Z" fill="#EFEFEF"/>
<path d="M1504.66 64.5422L-53.6726 119.199V122.884L1504.66 71.9918V64.5422Z" fill="#EFEFEF"/>
<path d="M1504.66 977L-53.6724 983.783V992.684L1504.66 979V977Z" fill="#EFEFEF"/>
<path d="M227.143 984.841C227.143 984.841 366.907 973.745 466.309 938.104C565.711 902.464 768.451 706.422 768.451 706.422H867.795C867.795 706.422 821.22 702.815 755.108 740.965C688.995 779.114 566.159 898.465 505.112 929.165C444.064 959.865 419.5 981.743 419.5 981.743L227.143 984.841Z" fill="#EFEFEF"/>
<path d="M487.713 980.922C487.713 980.922 674.948 827.146 760.559 801.425C846.17 775.705 1110.93 977.001 1110.93 977.001L1079.45 982.725C1079.45 982.725 913.081 823.186 781.226 823.186C649.371 823.186 503.706 981.353 503.706 981.353L487.713 980.922Z" fill="#EFEFEF"/>
<path d="M-63.7418 1484.55C-63.7418 1484.55 123.59 1330.82 209.142 1305.06C294.695 1279.3 559.515 1480.67 559.515 1480.67L528.017 1486.4C528.017 1486.4 361.665 1326.86 229.81 1326.86C97.9551 1326.86 -47.8273 1485.02 -47.8273 1485.02L-63.7418 1484.55Z" fill="#EFEFEF"/>
<path d="M799.641 703.914C799.641 703.914 990.148 756.414 1223.47 977L1256.99 977.863L1065.32 840.868C931.71 745.435 832.074 704.423 832.074 704.423L799.641 703.914Z" fill="#EFEFEF"/>
<path d="M1198.55 977C1198.55 977 1031.02 837.967 924.687 799.112C924.687 799.112 1056.09 868.354 1185.26 977H1198.55Z" fill="#EFEFEF"/>
<path d="M640.629 1490.63C640.629 1490.63 473.108 1351.6 366.79 1312.74C366.79 1312.74 498.178 1381.98 627.344 1490.63H640.629Z" fill="#EFEFEF"/>
<path d="M1023.53 977C1023.53 977 898.861 916.305 822.892 904.425C746.923 892.545 604.335 980.921 604.335 980.921L1023.53 977Z" fill="#EFEFEF"/>
<path d="M377.267 1475.38C377.267 1475.38 252.6 1414.68 176.495 1402.8C100.39 1390.92 -41.9836 1479.3 -41.9836 1479.3L377.267 1475.38Z" fill="#EFEFEF"/>
<path d="M1079.47 982.724C1079.47 982.724 976.346 862.785 840.83 813.775C840.83 813.775 984.606 873.568 1110.95 976.999L1079.47 982.724Z" fill="#EFEFEF"/>
<path d="M71.3839 984.842C71.3839 984.842 293.057 970.844 435.256 920.775C577.454 870.706 746.767 706.344 746.767 706.344L732.976 703.914C732.976 703.914 605.777 853.886 360.709 929.676C115.641 1005.47 -53.6726 942.144 -53.6726 942.144V983.783L71.3839 984.842Z" fill="#EFEFEF"/>
<path d="M-53.6738 541.906C-53.6738 541.906 173.259 500.306 472.577 559.706C771.894 619.107 925.04 689.369 1205.74 582.957C1486.43 476.545 1504.66 458.666 1504.66 458.666V445.806C1504.66 445.806 1337.82 532.966 1187.15 576.566C1036.48 620.166 799.516 642.907 658.253 587.191C528.774 536.22 316.996 510.186 -53.7517 526.026L-53.6738 541.906Z" fill="#EFEFEF"/>
<path d="M-53.6726 717.794C-53.6726 717.794 75.0655 691.955 221.238 729.086C367.41 766.216 494.395 785.86 500.998 799.112C507.601 812.364 419.049 914.698 214.595 914.698C10.1413 914.698 -53.6726 903.328 -53.6726 903.328V890.938C-53.6726 890.938 79.5458 916.306 223.828 907.406C368.111 898.505 478.11 833.341 481.071 811.933C484.032 790.525 253.32 742.966 144.84 726.145C78.7777 716.003 12.442 715.257 -53.6726 723.91L-53.6726 717.794Z" fill="#EFEFEF"/>
<path d="M-53.6753 748.925C-53.6753 748.925 111.489 721.165 260.602 774.645C409.716 828.126 221.897 907.405 103.464 876.587C-14.9701 845.769 -53.6753 861.845 -53.6753 861.845L-56.3245 852.905C-56.3245 852.905 12.8268 853.415 118.385 871.725C223.942 890.036 300.944 837.81 300.944 812.913C300.944 788.015 132.527 721.165 -53.6753 755.825V748.925Z" fill="#EFEFEF"/>
<path d="M-52.6234 272.896C-52.6234 272.896 178.731 251.449 387.607 292.813C596.482 334.178 333.396 395.422 167.492 371.662C1.58724 347.901 -52.6234 360.173 -52.6234 360.173L-56.3245 353.312C-56.3245 353.312 40.5262 353.665 188.393 367.858C336.26 382.052 444.135 341.589 444.135 322.377C444.135 303.164 208.203 251.449 -52.6234 278.267V272.896Z" fill="#EFEFEF"/>
<path d="M1504.38 1345.32C1504.38 1345.32 1273.02 1323.88 1064.14 1365.24C855.269 1406.61 1118.34 1467.81 1284.26 1444.09C1450.18 1420.37 1504.38 1432.6 1504.38 1432.6L1508.1 1425.7C1508.1 1425.7 1411.25 1426.09 1263.38 1440.25C1115.51 1454.4 1007.64 1414.02 1007.64 1394.81C1007.64 1375.59 1243.57 1323.88 1504.36 1350.66L1504.38 1345.32Z" fill="#EFEFEF"/>
<path d="M368.868 696.502C368.868 696.502 488.938 769.626 547.492 769.626C606.047 769.626 667.056 706.344 667.056 706.344L652.797 700.815C652.797 700.815 611.014 767.47 542.545 758.805C474.075 750.14 387.042 696.502 387.042 696.502H368.868Z" fill="#EFEFEF"/>
<path d="M1504.63 509.205C1504.63 509.205 1229.97 596.012 1110.91 638.044C991.856 680.075 1434.27 720.381 1504.63 696.503L1502.68 680.075C1502.68 680.075 1396.17 707.521 1261.29 690.034C1126.42 672.547 1101.86 655.962 1101.86 648.865C1101.86 641.768 1283.21 583.505 1365.88 562.607C1448.55 541.709 1504.67 541.826 1504.67 541.826L1504.63 509.205Z" fill="#EFEFEF"/>
<path d="M1504.63 579.544C1504.63 579.544 1347.39 577.192 1256.95 642.905C1256.95 642.905 1273.86 613.224 1504.63 590.405V579.544Z" fill="#EFEFEF"/>
<path d="M1452.48 417.77C1452.48 417.77 1367.39 521.163 1028.3 541.904C689.206 562.645 552.617 399.303 552.617 399.303L564.305 403.224C564.305 403.224 705.471 555.274 1028.3 538.297C1328.47 522.3 1446.58 416.751 1446.58 416.751L1452.48 417.77Z" fill="#EFEFEF"/>
<path d="M905.29 86.264C905.29 86.264 814.303 244.744 475.208 265.525C136.114 286.305 -0.49353 122.885 -0.49353 122.885L11.194 126.805C11.194 126.805 152.418 278.856 475.267 261.761C775.442 246.077 899.446 85.323 899.446 85.323L905.29 86.264Z" fill="#EFEFEF"/>
<path d="M-53.6726 509.204C-53.6726 509.204 144.47 494.344 294.07 494.344C443.671 494.344 635.58 543.746 656.247 543.746C676.915 543.746 537.171 402.871 537.171 402.871H529.788C529.788 402.871 645.417 519.555 645.417 531.004C645.417 542.453 493.362 499.284 293.057 486.424C92.7526 473.563 -53.6726 498.186 -53.6726 498.186V509.204Z" fill="#EFEFEF"/>
<path d="M-53.6726 473.289C-53.6726 473.289 -7.60427 461.527 176.942 461.527C361.488 461.527 487.713 398.323 487.713 398.323H471.721C471.721 398.323 363.689 455.724 172.52 455.724C-18.649 455.724 -53.6726 465.369 -53.6726 465.369V473.289Z" fill="#EFEFEF"/>
<path d="M-61.9316 1269.93C-61.9316 1269.93 74.1502 1258.16 619.179 1258.16C1164.21 1258.16 1537 1194.96 1537 1194.96H1489.76C1489.76 1194.96 1170.73 1252.36 606.089 1252.36C41.4446 1252.36 -61.9316 1262.01 -61.9316 1262.01V1269.93Z" fill="#EFEFEF"/>
<path d="M1504.66 71.9922C1504.66 71.9922 1117.63 103.869 937.156 152.605C756.681 201.341 447.098 397.696 447.098 397.696H455.474C455.474 397.696 707.106 241.608 961.661 161.544C1216.22 81.4806 1504.66 93.7137 1504.66 93.7137V71.9922Z" fill="#EFEFEF"/>
<path d="M1504.67 147.664C1504.67 147.664 1255.82 134.451 940.256 218.984C624.693 303.518 508.928 397.696 508.928 397.696H522.31C522.31 397.696 695.13 291.285 943.665 224.905C1192.2 158.525 1504.67 159.544 1504.67 159.544V147.664Z" fill="#EFEFEF"/>
<path d="M1504.67 413.811C1504.67 413.811 957.308 384.051 824.44 342.804C691.572 301.557 1052.35 219.454 1205.94 203.144C1359.53 186.833 1504.67 189.774 1504.67 189.774L1504.91 197.184C1504.91 197.184 1357.51 200.164 1200.04 211.064C1042.57 221.964 802.312 301.596 807.707 322.651C819.395 368.486 1504.67 408.909 1504.67 408.909V413.811Z" fill="#EFEFEF"/>
<path d="M1504.63 234.864C1504.63 234.864 1208.92 231.492 1163.12 272.269C1117.32 313.045 1504.63 357.665 1504.63 357.665V234.864Z" fill="#EFEFEF"/>
<path d="M1504.9 -4.46474C1504.9 -4.46474 1157.17 95.2422 788.122 64.5421C419.068 33.8419 295.901 -28.6563 129.432 -28.6563C-37.0374 -28.6563 -53.6726 20.7463 -53.6726 20.7463V8.00354C-53.6726 8.00354 -8.5003 -37.5566 167.631 -37.5566C343.762 -37.5566 472.695 52.6227 824.431 54.5439C1176.17 56.4651 1504.66 -14.7766 1504.66 -14.7766L1504.9 -4.46474Z" fill="#EFEFEF"/>
<path d="M1504.66 -37.5567C1504.66 -37.5567 1214.42 62.4639 899.387 26.8235C584.35 -8.81695 493.849 -89.0374 493.849 -89.0374H508.264C508.264 -89.0374 702.257 9.49338 901.569 23.8437C1100.88 38.1939 1504.66 -42.5362 1504.66 -42.5362V-37.5567Z" fill="#EFEFEF"/>
<path d="M-53.6724 1133.6C-53.6724 1133.6 226.146 1059.65 412.173 1133.6C598.199 1207.55 441.703 1232.29 265.514 1232.29C89.3245 1232.29 -53.6724 1247.15 -53.6724 1247.15V1133.6Z" fill="#EFEFEF"/>
<path d="M-53.6724 1100.74C-53.6724 1100.74 166.112 1033.54 430.873 1100.74C695.635 1167.95 864.889 1189.71 850.163 1219.43C835.437 1249.15 137.847 1247.15 52.9569 1247.15C-31.9336 1247.15 -53.6724 1253.58 -53.6724 1253.58V1258.05C-53.6724 1258.05 -17.0709 1249.62 55.0216 1249.62C127.114 1249.62 795.621 1255.81 854.936 1227.58C914.25 1199.35 725.009 1161.71 515.569 1100.74C306.128 1039.77 140.165 1064.91 -53.6724 1090.16V1100.74Z" fill="#EFEFEF"/>
<path d="M-53.6724 1062.83C-53.6724 1062.83 213.543 995.547 501.329 1047.14C789.115 1098.74 905.289 984.411 905.289 984.411L895.55 984.999C895.55 984.999 835.164 1075.45 528.074 1046.24C220.985 1017.03 318.536 1006.45 -53.6724 1055.85V1062.83Z" fill="#EFEFEF"/>
<path d="M975.901 984.841C975.901 984.841 1295.54 1014.37 1504.66 1082.86L1504.9 1100.9C1504.9 1100.9 1277.28 1019.74 943.663 984.841H975.901Z" fill="#EFEFEF"/>
<path d="M543.386 1284.51C543.386 1284.51 676.429 1270.63 835.107 1365.01C1020.51 1475.38 1140 1479.3 1140 1479.3H1075.03C1075.03 1479.3 962.189 1446.25 848.216 1379.55C734.243 1312.86 522.913 1284.51 522.913 1284.51H543.386Z" fill="#EFEFEF"/>
<path d="M140.751 116.532C140.751 116.532 283.319 146.879 382.157 146.879C480.995 146.879 578.507 102.26 578.507 102.26L140.751 116.532Z" fill="#EFEFEF"/>
<path d="M632.385 403.931C632.385 403.931 693.647 358.449 867.849 403.931H632.385Z" fill="#EFEFEF"/>
<path d="M1006.76 769.627C1006.76 769.627 1208.76 895.447 1380.76 911.758C1380.8 911.836 1161.93 854.906 1006.76 769.627Z" fill="#EFEFEF"/>
<path d="M685.099 1100.74C685.099 1100.74 973.664 1238.72 1256.99 1206.06C1256.99 1206.06 939.342 1212.68 685.099 1100.74Z" fill="#EFEFEF"/>
<path d="M911.406 1479.3C911.406 1479.3 766.733 1369.2 585.888 1323.41C585.888 1323.41 731.301 1367.75 897.381 1479.3H911.406Z" fill="#EFEFEF"/>
<path d="M1504.66 4411.6L-53.6724 4387.84V4391.53L1504.66 4415.56V4411.6Z" fill="#EFEFEF"/>
<path d="M1504.66 3831.04L-53.6724 3807.24V3810.97L1504.66 3835V3831.04Z" fill="#EFEFEF"/>
<path d="M1504.66 3531.02L-53.6724 3507.26V3510.95L1504.66 3534.98V3531.02Z" fill="#EFEFEF"/>
<path d="M1504.66 3181.75L-53.6724 3236.41V3240.1L1504.66 3189.2V3181.75Z" fill="#EFEFEF"/>
<path d="M1504.66 4094.21L-53.6724 4100.99V4109.9L1504.66 4096.21V4094.21Z" fill="#EFEFEF"/>
<path d="M227.143 4102.05C227.143 4102.05 366.907 4090.96 466.309 4055.32C565.712 4019.68 768.451 3823.63 768.451 3823.63H867.795C867.795 3823.63 821.221 3820.03 755.108 3858.18C688.996 3896.33 566.16 4015.68 505.112 4046.38C444.064 4077.08 419.501 4098.95 419.501 4098.95L227.143 4102.05Z" fill="#EFEFEF"/>
<path d="M487.714 4098.13C487.714 4098.13 674.948 3944.36 760.559 3918.64C846.17 3892.91 1110.93 4094.21 1110.93 4094.21L1079.45 4099.94C1079.45 4099.94 913.081 3940.4 781.226 3940.4C649.372 3940.4 503.706 4098.56 503.706 4098.56L487.714 4098.13Z" fill="#EFEFEF"/>
<path d="M-63.7418 4601.76C-63.7418 4601.76 123.59 4448.03 209.142 4422.27C294.695 4396.51 559.515 4597.88 559.515 4597.88L528.017 4603.61C528.017 4603.61 361.665 4444.07 229.81 4444.07C97.9551 4444.07 -47.8273 4602.23 -47.8273 4602.23L-63.7418 4601.76Z" fill="#EFEFEF"/>
<path d="M799.642 3821.12C799.642 3821.12 990.148 3873.62 1223.47 4094.21L1256.99 4095.07L1065.32 3958.08C931.711 3862.65 832.074 3821.63 832.074 3821.63L799.642 3821.12Z" fill="#EFEFEF"/>
<path d="M1198.55 4094.21C1198.55 4094.21 1031.02 3955.18 924.687 3916.32C924.687 3916.32 1056.09 3985.56 1185.26 4094.21H1198.55Z" fill="#EFEFEF"/>
<path d="M640.629 4607.84C640.629 4607.84 473.108 4468.81 366.79 4429.95C366.79 4429.95 498.178 4499.19 627.344 4607.84H640.629Z" fill="#EFEFEF"/>
<path d="M1023.53 4094.21C1023.53 4094.21 898.861 4033.52 822.892 4021.64C746.924 4009.76 604.336 4098.13 604.336 4098.13L1023.53 4094.21Z" fill="#EFEFEF"/>
<path d="M377.267 4592.59C377.267 4592.59 252.6 4531.9 176.495 4520.02C100.39 4508.13 -41.9836 4596.51 -41.9836 4596.51L377.267 4592.59Z" fill="#EFEFEF"/>
<path d="M1079.47 4099.93C1079.47 4099.93 976.347 3980 840.83 3930.99C840.83 3930.99 984.606 3990.78 1110.95 4094.21L1079.47 4099.93Z" fill="#EFEFEF"/>
<path d="M71.3842 4102.05C71.3842 4102.05 293.058 4088.05 435.256 4037.99C577.454 3987.92 746.767 3823.55 746.767 3823.55L732.976 3821.12C732.976 3821.12 605.777 3971.1 360.709 4046.89C115.641 4122.68 -53.6724 4059.35 -53.6724 4059.35V4100.99L71.3842 4102.05Z" fill="#EFEFEF"/>
<path d="M-53.6735 3659.12C-53.6735 3659.12 173.259 3617.52 472.577 3676.92C771.894 3736.32 925.04 3806.58 1205.74 3700.17C1486.43 3593.76 1504.66 3575.88 1504.66 3575.88V3563.02C1504.66 3563.02 1337.82 3650.18 1187.15 3693.78C1036.48 3737.38 799.516 3760.12 658.253 3704.4C528.774 3653.43 316.996 3627.4 -53.7515 3643.24L-53.6735 3659.12Z" fill="#EFEFEF"/>
<path d="M-53.6724 3835C-53.6724 3835 75.0658 3809.17 221.238 3846.3C367.41 3883.43 494.395 3903.07 500.998 3916.32C507.602 3929.57 419.049 4031.91 214.595 4031.91C10.1415 4031.91 -53.6724 4020.54 -53.6724 4020.54V4008.15C-53.6724 4008.15 79.546 4033.52 223.829 4024.62C368.111 4015.72 478.11 3950.55 481.071 3929.14C484.032 3907.73 253.32 3860.18 144.84 3843.35C78.7779 3833.21 12.4423 3832.47 -53.6724 3841.12L-53.6724 3835Z" fill="#EFEFEF"/>
<path d="M-53.675 3866.14C-53.675 3866.14 111.489 3838.38 260.603 3891.86C409.716 3945.34 221.897 4024.62 103.464 3993.8C-14.9698 3962.98 -53.675 3979.06 -53.675 3979.06L-56.3242 3970.12C-56.3242 3970.12 12.827 3970.63 118.385 3988.94C223.943 4007.25 300.944 3955.02 300.944 3930.12C300.944 3905.23 132.527 3838.38 -53.675 3873.04V3866.14Z" fill="#EFEFEF"/>
<path d="M-52.6232 3390.11C-52.6232 3390.11 178.731 3368.66 387.607 3410.02C596.483 3451.39 333.396 3512.63 167.492 3488.87C1.58749 3465.11 -52.6232 3477.38 -52.6232 3477.38L-56.3242 3470.52C-56.3242 3470.52 40.5264 3470.88 188.393 3485.07C336.26 3499.26 444.136 3458.8 444.136 3439.59C444.136 3420.38 208.203 3368.66 -52.6232 3395.48V3390.11Z" fill="#EFEFEF"/>
<path d="M1504.38 4462.53C1504.38 4462.53 1273.02 4441.09 1064.14 4482.45C855.269 4523.82 1118.34 4585.02 1284.26 4561.3C1450.18 4537.58 1504.38 4549.81 1504.38 4549.81L1508.1 4542.91C1508.1 4542.91 1411.25 4543.3 1263.38 4557.46C1115.51 4571.61 1007.64 4531.23 1007.64 4512.02C1007.64 4492.8 1243.57 4441.09 1504.36 4467.87L1504.38 4462.53Z" fill="#EFEFEF"/>
<path d="M368.868 3813.71C368.868 3813.71 488.938 3886.84 547.493 3886.84C606.047 3886.84 667.056 3823.55 667.056 3823.55L652.797 3818.03C652.797 3818.03 611.014 3884.68 542.545 3876.02C474.075 3867.35 387.042 3813.71 387.042 3813.71H368.868Z" fill="#EFEFEF"/>
<path d="M1504.63 3626.42C1504.63 3626.42 1229.97 3713.22 1110.91 3755.25C991.857 3797.29 1434.27 3837.59 1504.63 3813.71L1502.68 3797.29C1502.68 3797.29 1396.17 3824.73 1261.29 3807.24C1126.42 3789.76 1101.86 3773.17 1101.86 3766.08C1101.86 3758.98 1283.21 3700.72 1365.88 3679.82C1448.55 3658.92 1504.67 3659.04 1504.67 3659.04L1504.63 3626.42Z" fill="#EFEFEF"/>
<path d="M1504.63 3696.76C1504.63 3696.76 1347.39 3694.4 1256.95 3760.12C1256.95 3760.12 1273.86 3730.44 1504.63 3707.62V3696.76Z" fill="#EFEFEF"/>
<path d="M1452.48 3534.98C1452.48 3534.98 1367.39 3638.37 1028.3 3659.12C689.206 3679.86 552.618 3516.51 552.618 3516.51L564.305 3520.44C564.305 3520.44 705.471 3672.49 1028.3 3655.51C1328.47 3639.51 1446.58 3533.96 1446.58 3533.96L1452.48 3534.98Z" fill="#EFEFEF"/>
<path d="M905.29 3203.47C905.29 3203.47 814.303 3361.96 475.209 3382.74C136.114 3403.52 -0.493286 3240.1 -0.493286 3240.1L11.1942 3244.02C11.1942 3244.02 152.419 3396.07 475.267 3378.97C775.442 3363.29 899.447 3202.53 899.447 3202.53L905.29 3203.47Z" fill="#EFEFEF"/>
<path d="M-53.6724 3626.42C-53.6724 3626.42 144.47 3611.56 294.071 3611.56C443.671 3611.56 635.58 3660.96 656.248 3660.96C676.915 3660.96 537.171 3520.08 537.171 3520.08H529.789C529.789 3520.08 645.417 3636.77 645.417 3648.22C645.417 3659.66 493.362 3616.5 293.058 3603.64C92.7529 3590.78 -53.6724 3615.4 -53.6724 3615.4V3626.42Z" fill="#EFEFEF"/>
<path d="M-53.6724 3590.5C-53.6724 3590.5 -7.60403 3578.74 176.942 3578.74C361.488 3578.74 487.713 3515.53 487.713 3515.53H471.721C471.721 3515.53 363.689 3572.93 172.52 3572.93C-18.6487 3572.93 -53.6724 3582.58 -53.6724 3582.58V3590.5Z" fill="#EFEFEF"/>
<path d="M-61.9316 4387.14C-61.9316 4387.14 74.1502 4375.37 619.179 4375.37C1164.21 4375.37 1537 4312.17 1537 4312.17H1489.76C1489.76 4312.17 1170.73 4369.57 606.089 4369.57C41.4446 4369.57 -61.9316 4379.22 -61.9316 4379.22V4387.14Z" fill="#EFEFEF"/>
<path d="M1504.66 3189.2C1504.66 3189.2 1117.63 3221.08 937.156 3269.81C756.681 3318.55 447.098 3514.91 447.098 3514.91H455.474C455.474 3514.91 707.107 3358.82 961.661 3278.75C1216.22 3198.69 1504.66 3210.92 1504.66 3210.92V3189.2Z" fill="#EFEFEF"/>
<path d="M1504.67 3264.88C1504.67 3264.88 1255.82 3251.66 940.256 3336.2C624.693 3420.73 508.928 3514.91 508.928 3514.91H522.31C522.31 3514.91 695.13 3408.5 943.665 3342.12C1192.2 3275.74 1504.67 3276.76 1504.67 3276.76V3264.88Z" fill="#EFEFEF"/>
<path d="M1504.67 3531.02C1504.67 3531.02 957.308 3501.26 824.44 3460.02C691.573 3418.77 1052.35 3336.67 1205.94 3320.35C1359.53 3304.04 1504.67 3306.98 1504.67 3306.98L1504.91 3314.39C1504.91 3314.39 1357.51 3317.37 1200.04 3328.27C1042.57 3339.17 802.312 3418.81 807.708 3439.86C819.395 3485.7 1504.67 3526.12 1504.67 3526.12V3531.02Z" fill="#EFEFEF"/>
<path d="M1504.63 3352.07C1504.63 3352.07 1208.92 3348.7 1163.12 3389.48C1117.32 3430.26 1504.63 3474.88 1504.63 3474.88V3352.07Z" fill="#EFEFEF"/>
<path d="M1504.9 3112.75C1504.9 3112.75 1157.18 3212.45 788.122 3181.75C419.069 3151.05 295.902 3088.56 129.432 3088.56C-37.0371 3088.56 -53.6724 3137.96 -53.6724 3137.96V3125.21C-53.6724 3125.21 -8.50006 3079.65 167.631 3079.65C343.762 3079.65 472.695 3169.83 824.431 3171.76C1176.17 3173.68 1504.66 3102.43 1504.66 3102.43L1504.9 3112.75Z" fill="#EFEFEF"/>
<path d="M1504.67 3079.65C1504.67 3079.65 1214.42 3179.68 899.387 3144.03C584.35 3108.39 493.85 3028.17 493.85 3028.17H508.264C508.264 3028.17 702.258 3126.7 901.569 3141.05C1100.88 3155.41 1504.67 3074.68 1504.67 3074.68V3079.65Z" fill="#EFEFEF"/>
<path d="M1252.63 3028.17C1252.63 3028.17 1101.24 3106.59 961.669 3106.59C822.1 3106.59 764.637 3028.17 764.637 3028.17L772.253 3028.37C772.253 3028.37 811.017 3099.69 965.292 3099.69C1119.57 3099.69 1240.63 3028.17 1240.63 3028.17H1252.63Z" fill="#EFEFEF"/>
<path d="M-53.6724 4250.81C-53.6724 4250.81 226.146 4176.86 412.173 4250.81C598.199 4324.76 441.703 4349.5 265.514 4349.5C89.3245 4349.5 -53.6724 4364.36 -53.6724 4364.36V4250.81Z" fill="#EFEFEF"/>
<path d="M-53.6724 4217.95C-53.6724 4217.95 166.112 4150.75 430.873 4217.95C695.635 4285.16 864.889 4306.92 850.163 4336.64C835.437 4366.36 137.847 4364.36 52.9569 4364.36C-31.9336 4364.36 -53.6724 4370.79 -53.6724 4370.79V4375.26C-53.6724 4375.26 -17.0709 4366.83 55.0216 4366.83C127.114 4366.83 795.621 4373.02 854.936 4344.79C914.25 4316.56 725.009 4278.92 515.569 4217.95C306.128 4156.99 140.165 4182.12 -53.6724 4207.37V4217.95Z" fill="#EFEFEF"/>
<path d="M-53.6724 4180.04C-53.6724 4180.04 213.543 4112.76 501.329 4164.36C789.115 4215.95 905.289 4101.62 905.289 4101.62L895.55 4102.21C895.55 4102.21 835.164 4192.66 528.074 4163.45C220.985 4134.24 318.536 4123.66 -53.6724 4173.06V4180.04Z" fill="#EFEFEF"/>
<path d="M975.901 4102.05C975.901 4102.05 1295.54 4131.58 1504.66 4200.07L1504.9 4218.11C1504.9 4218.11 1277.28 4136.95 943.663 4102.05H975.901Z" fill="#EFEFEF"/>
<path d="M543.386 4401.72C543.386 4401.72 676.429 4387.84 835.107 4482.22C1020.51 4592.59 1140 4596.51 1140 4596.51H1075.03C1075.03 4596.51 962.189 4563.46 848.216 4496.76C734.243 4430.07 522.913 4401.72 522.913 4401.72H543.386Z" fill="#EFEFEF"/>
<path d="M140.751 3233.74C140.751 3233.74 283.32 3264.09 382.157 3264.09C480.995 3264.09 578.508 3219.47 578.508 3219.47L140.751 3233.74Z" fill="#EFEFEF"/>
<path d="M632.385 3521.14C632.385 3521.14 693.647 3475.66 867.849 3521.14H632.385Z" fill="#EFEFEF"/>
<path d="M1006.76 3886.84C1006.76 3886.84 1208.76 4012.66 1380.76 4028.97C1380.8 4029.05 1161.93 3972.12 1006.76 3886.84Z" fill="#EFEFEF"/>
<path d="M685.099 4217.95C685.099 4217.95 973.664 4355.93 1256.99 4323.27C1256.99 4323.27 939.342 4329.89 685.099 4217.95Z" fill="#EFEFEF"/>
<path d="M911.406 4596.51C911.406 4596.51 766.733 4486.41 585.888 4440.62C585.888 4440.62 731.301 4484.96 897.381 4596.51H911.406Z" fill="#EFEFEF"/>
<path d="M-31.4774 1665.81L1526.86 1689.57L1526.86 1685.88L-31.4774 1661.85L-31.4774 1665.81Z" fill="#EFEFEF"/>
<path d="M-31.4774 2246.37L1526.86 2270.17L1526.86 2266.44L-31.4774 2242.41L-31.4774 2246.37Z" fill="#EFEFEF"/>
<path d="M-31.4774 2546.39L1526.86 2570.15L1526.86 2566.46L-31.4774 2542.43L-31.4774 2546.39Z" fill="#EFEFEF"/>
<path d="M-31.4774 2895.66L1526.86 2841L1526.86 2837.31L-31.4774 2888.21L-31.4774 2895.66Z" fill="#EFEFEF"/>
<path d="M-31.4774 1983.2L1526.86 1976.42L1526.86 1967.52L-31.4774 1981.2L-31.4774 1983.2Z" fill="#EFEFEF"/>
<path d="M1246.05 1975.36C1246.05 1975.36 1106.28 1986.45 1006.88 2022.09C907.479 2057.73 704.739 2253.78 704.739 2253.78L605.395 2253.78C605.395 2253.78 651.97 2257.38 718.082 2219.23C784.195 2181.08 907.031 2061.73 968.079 2031.03C1029.13 2000.33 1053.69 1978.46 1053.69 1978.46L1246.05 1975.36Z" fill="#EFEFEF"/>
<path d="M985.474 1979.28C985.474 1979.28 798.239 2133.05 712.628 2158.77C627.017 2184.49 362.256 1983.2 362.256 1983.2L393.734 1977.47C393.734 1977.47 560.106 2137.01 691.961 2137.01C823.816 2137.01 969.481 1978.85 969.481 1978.85L985.474 1979.28Z" fill="#EFEFEF"/>
<path d="M1536.93 1475.65C1536.93 1475.65 1349.6 1629.38 1264.05 1655.14C1178.49 1680.9 913.673 1479.53 913.673 1479.53L945.171 1473.8C945.171 1473.8 1111.52 1633.34 1243.38 1633.34C1375.23 1633.34 1521.02 1475.18 1521.02 1475.18L1536.93 1475.65Z" fill="#EFEFEF"/>
<path d="M673.59 2256.28C673.59 2256.28 483.083 2203.78 249.761 1983.2L216.237 1982.34L407.913 2119.33C541.52 2214.76 641.157 2255.78 641.157 2255.78L673.59 2256.28Z" fill="#EFEFEF"/>
<path d="M274.677 1983.2C274.677 1983.2 442.198 2122.23 548.535 2161.09C548.535 2161.09 417.128 2091.85 287.962 1983.2L274.677 1983.2Z" fill="#EFEFEF"/>
<path d="M832.56 1469.57C832.56 1469.57 1000.08 1608.6 1106.4 1647.46C1106.4 1647.46 975.011 1578.22 845.845 1469.57L832.56 1469.57Z" fill="#EFEFEF"/>
<path d="M449.694 1983.2C449.694 1983.2 574.361 2043.89 650.33 2055.77C726.299 2067.65 868.887 1979.28 868.887 1979.28L449.694 1983.2Z" fill="#EFEFEF"/>
<path d="M1095.92 1484.82C1095.92 1484.82 1220.59 1545.51 1296.69 1557.39C1372.8 1569.27 1515.17 1480.9 1515.17 1480.9L1095.92 1484.82Z" fill="#EFEFEF"/>
<path d="M393.751 1977.47C393.751 1977.47 496.874 2097.41 632.391 2146.42C632.391 2146.42 488.615 2086.63 362.273 1983.2L393.751 1977.47Z" fill="#EFEFEF"/>
<path d="M1401.8 1975.36C1401.8 1975.36 1180.13 1989.35 1037.93 2039.42C895.733 2089.49 726.42 2253.85 726.42 2253.85L740.211 2256.28C740.211 2256.28 867.411 2106.31 1112.48 2030.52C1357.55 1954.73 1526.86 2018.05 1526.86 2018.05L1526.86 1976.42L1401.8 1975.36Z" fill="#EFEFEF"/>
<path d="M1526.86 2418.29C1526.86 2418.29 1299.93 2459.89 1000.61 2400.49C701.294 2341.09 548.149 2270.83 267.453 2377.24C-13.2424 2483.65 -31.475 2501.53 -31.475 2501.53L-31.475 2514.39C-31.475 2514.39 135.365 2427.23 286.036 2383.63C436.708 2340.03 673.672 2317.29 814.936 2373.01C944.414 2423.98 1156.19 2450.01 1526.94 2434.17L1526.86 2418.29Z" fill="#EFEFEF"/>
<path d="M1526.86 2242.41C1526.86 2242.41 1398.12 2268.24 1251.95 2231.11C1105.78 2193.98 978.793 2174.34 972.189 2161.09C965.586 2147.84 1054.14 2045.5 1258.59 2045.5C1463.05 2045.5 1526.86 2056.87 1526.86 2056.87L1526.86 2069.26C1526.86 2069.26 1393.64 2043.89 1249.36 2052.79C1105.08 2061.69 995.077 2126.86 992.116 2148.27C989.156 2169.67 1219.87 2217.23 1328.35 2234.05C1394.41 2244.2 1460.75 2244.94 1526.86 2236.29L1526.86 2242.41Z" fill="#EFEFEF"/>
<path d="M1526.86 2211.27C1526.86 2211.27 1361.7 2239.03 1212.58 2185.55C1063.47 2132.07 1251.29 2052.79 1369.72 2083.61C1488.16 2114.43 1526.86 2098.35 1526.86 2098.35L1529.51 2107.29C1529.51 2107.29 1460.36 2106.78 1354.8 2088.47C1249.24 2070.16 1172.24 2122.39 1172.24 2147.29C1172.24 2172.18 1340.66 2239.03 1526.86 2204.37L1526.86 2211.27Z" fill="#EFEFEF"/>
<path d="M1525.81 2687.3C1525.81 2687.3 1294.45 2708.75 1085.58 2667.39C876.703 2626.02 1139.79 2564.78 1305.69 2588.54C1471.6 2612.3 1525.81 2600.03 1525.81 2600.03L1529.51 2606.89C1529.51 2606.89 1432.66 2606.53 1284.79 2592.34C1136.93 2578.15 1029.05 2618.61 1029.05 2637.82C1029.05 2657.03 1264.98 2708.75 1525.81 2681.93L1525.81 2687.3Z" fill="#EFEFEF"/>
<path d="M-31.1896 1614.88C-31.1896 1614.88 200.165 1636.32 409.041 1594.96C617.916 1553.59 354.85 1492.39 188.926 1516.11C23.0016 1539.83 -31.1896 1527.6 -31.1896 1527.6L-34.9102 1534.5C-34.9102 1534.5 61.9405 1534.11 209.807 1519.95C357.674 1505.8 465.55 1546.18 465.55 1565.39C465.55 1584.61 229.618 1636.32 -31.1701 1609.54L-31.1896 1614.88Z" fill="#EFEFEF"/>
<path d="M1104.32 2263.7C1104.32 2263.7 984.248 2190.57 925.694 2190.57C867.139 2190.57 806.13 2253.85 806.13 2253.85L820.389 2259.38C820.389 2259.38 862.172 2192.73 930.641 2201.39C999.111 2210.06 1086.14 2263.7 1086.14 2263.7L1104.32 2263.7Z" fill="#EFEFEF"/>
<path d="M-31.4397 2450.99C-31.4397 2450.99 243.217 2364.19 362.274 2322.15C481.331 2280.12 38.9192 2239.82 -31.4397 2263.69L-29.4918 2280.12C-29.4918 2280.12 77.0205 2252.68 211.895 2270.16C346.769 2287.65 371.332 2304.24 371.332 2311.33C371.332 2318.43 189.98 2376.69 107.311 2397.59C24.6409 2418.49 -31.4787 2418.37 -31.4787 2418.37L-31.4397 2450.99Z" fill="#EFEFEF"/>
<path d="M-31.4397 2380.65C-31.4397 2380.65 125.797 2383.01 216.239 2317.29C216.239 2317.29 199.331 2346.97 -31.4397 2369.79L-31.4397 2380.65Z" fill="#EFEFEF"/>
<path d="M20.741 2542.43C20.741 2542.43 105.826 2439.04 444.92 2418.29C784.015 2397.55 920.603 2560.9 920.603 2560.9L908.915 2556.97C908.915 2556.97 767.749 2404.92 444.92 2421.9C144.746 2437.9 26.6432 2543.45 26.6432 2543.45L20.741 2542.43Z" fill="#EFEFEF"/>
<path d="M567.898 2873.93C567.898 2873.93 658.885 2715.45 997.98 2694.67C1337.07 2673.89 1473.68 2837.31 1473.68 2837.31L1461.99 2833.39C1461.99 2833.39 1320.77 2681.34 997.921 2698.44C697.747 2714.12 573.742 2874.88 573.742 2874.88L567.898 2873.93Z" fill="#EFEFEF"/>
<path d="M1526.86 2450.99C1526.86 2450.99 1328.72 2465.85 1179.12 2465.85C1029.52 2465.85 837.607 2416.45 816.94 2416.45C796.272 2416.45 936.016 2557.33 936.016 2557.33L943.399 2557.33C943.399 2557.33 827.77 2440.64 827.77 2429.19C827.77 2417.75 979.825 2460.91 1180.13 2473.77C1380.43 2486.63 1526.86 2462.01 1526.86 2462.01L1526.86 2450.99Z" fill="#EFEFEF"/>
<path d="M1526.86 2486.91C1526.86 2486.91 1480.79 2498.67 1296.25 2498.67C1111.7 2498.67 985.474 2561.88 985.474 2561.88L1001.47 2561.88C1001.47 2561.88 1109.5 2504.47 1300.67 2504.47C1491.84 2504.47 1526.86 2494.83 1526.86 2494.83L1526.86 2486.91Z" fill="#EFEFEF"/>
<path d="M1535.12 1690.27C1535.12 1690.27 1399.04 1702.04 854.011 1702.04C308.983 1702.04 -63.8106 1765.24 -63.8106 1765.24L-16.5735 1765.24C-16.5735 1765.24 302.457 1707.84 867.101 1707.84C1431.74 1707.84 1535.12 1698.19 1535.12 1698.19L1535.12 1690.27Z" fill="#EFEFEF"/>
<path d="M-31.4764 2888.21C-31.4764 2888.21 355.556 2856.33 536.031 2807.59C716.506 2758.86 1026.09 2562.5 1026.09 2562.5L1017.71 2562.5C1017.71 2562.5 766.081 2718.59 511.526 2798.66C256.972 2878.72 -31.4764 2866.49 -31.4764 2866.49L-31.4764 2888.21Z" fill="#EFEFEF"/>
<path d="M-31.4444 2812.53C-31.4444 2812.53 217.403 2825.75 532.966 2741.21C848.529 2656.68 964.294 2562.5 964.294 2562.5L950.912 2562.5C950.912 2562.5 778.092 2668.91 529.557 2735.29C281.022 2801.67 -31.4444 2800.65 -31.4444 2800.65L-31.4444 2812.53Z" fill="#EFEFEF"/>
<path d="M-31.4425 2546.39C-31.4425 2546.39 515.923 2576.15 648.791 2617.39C781.659 2658.64 420.884 2740.74 267.291 2757.05C113.697 2773.37 -31.4425 2770.42 -31.4425 2770.42L-31.6763 2763.01C-31.6763 2763.01 115.723 2760.03 273.193 2749.13C430.663 2738.23 670.919 2658.6 665.524 2637.55C653.836 2591.71 -31.4425 2551.29 -31.4425 2551.29L-31.4425 2546.39Z" fill="#EFEFEF"/>
<path d="M-31.4428 2725.34C-31.4428 2725.34 264.271 2728.71 310.067 2687.93C355.862 2647.15 -31.4428 2602.53 -31.4428 2602.53L-31.4428 2725.34Z" fill="#EFEFEF"/>
<path d="M-31.7111 2964.66C-31.7111 2964.66 316.012 2864.96 685.066 2895.66C1054.12 2926.36 1177.29 2988.86 1343.76 2988.86C1510.22 2988.86 1526.86 2939.45 1526.86 2939.45L1526.86 2952.2C1526.86 2952.2 1481.69 2997.76 1305.56 2997.76C1129.43 2997.76 1000.49 2907.58 648.756 2905.65C297.02 2903.73 -31.4773 2974.98 -31.4773 2974.98L-31.7111 2964.66Z" fill="#EFEFEF"/>
<path d="M-31.443 2997.76C-31.443 2997.76 258.797 2897.74 573.835 2933.38C888.872 2969.02 979.373 3049.24 979.373 3049.24L964.958 3049.24C964.958 3049.24 770.964 2950.71 571.653 2936.36C372.342 2922.01 -31.443 3002.74 -31.443 3002.74L-31.443 2997.76Z" fill="#EFEFEF"/>
<path d="M220.607 3049.24C220.607 3049.24 372 2970.82 511.568 2970.82C651.137 2970.82 708.601 3049.24 708.601 3049.24L700.984 3049.04C700.984 3049.04 662.221 2977.72 507.945 2977.72C353.67 2977.72 232.607 3049.24 232.607 3049.24L220.607 3049.24Z" fill="#EFEFEF"/>
<path d="M1526.86 1826.6C1526.86 1826.6 1247.04 1900.55 1061.01 1826.6C874.988 1752.65 1031.48 1727.91 1207.67 1727.91C1383.86 1727.91 1526.86 1713.05 1526.86 1713.05L1526.86 1826.6Z" fill="#EFEFEF"/>
<path d="M1526.86 1859.46C1526.86 1859.46 1307.08 1926.66 1042.31 1859.46C777.553 1792.25 608.298 1770.49 623.024 1740.77C637.751 1711.05 1335.34 1713.05 1420.23 1713.05C1505.12 1713.05 1526.86 1706.62 1526.86 1706.62L1526.86 1702.15C1526.86 1702.15 1490.26 1710.58 1418.17 1710.58C1346.07 1710.58 677.566 1704.39 618.252 1732.62C558.938 1760.85 748.178 1798.49 957.619 1859.46C1167.06 1920.43 1333.02 1895.29 1526.86 1870.04L1526.86 1859.46Z" fill="#EFEFEF"/>
<path d="M1526.86 1897.37C1526.86 1897.37 1259.64 1964.65 971.858 1913.05C684.072 1861.46 567.898 1975.79 567.898 1975.79L577.638 1975.2C577.638 1975.2 638.023 1884.75 945.113 1913.96C1252.2 1943.17 1154.65 1953.75 1526.86 1904.35L1526.86 1897.37Z" fill="#EFEFEF"/>
<path d="M497.321 1975.36C497.321 1975.36 177.687 1945.83 -31.4419 1877.34L-31.6756 1859.3C-31.6756 1859.3 195.939 1940.46 529.56 1975.36L497.321 1975.36Z" fill="#EFEFEF"/>
<path d="M929.835 1675.69C929.835 1675.69 796.792 1689.57 638.114 1595.19C452.711 1484.82 333.226 1480.9 333.226 1480.9L398.189 1480.9C398.189 1480.9 511.032 1513.95 625.005 1580.65C738.978 1647.34 950.308 1675.69 950.308 1675.69L929.835 1675.69Z" fill="#EFEFEF"/>
<path d="M1332.44 2843.67C1332.44 2843.67 1189.87 2813.32 1091.03 2813.32C992.196 2813.32 894.683 2857.94 894.683 2857.94L1332.44 2843.67Z" fill="#EFEFEF"/>
<path d="M840.837 2556.27C840.837 2556.27 779.575 2601.75 605.373 2556.27L840.837 2556.27Z" fill="#EFEFEF"/>
<path d="M466.429 2190.57C466.429 2190.57 264.43 2064.75 92.4283 2048.44C92.3893 2048.36 311.258 2105.29 466.429 2190.57Z" fill="#EFEFEF"/>
<path d="M788.133 1859.46C788.133 1859.46 499.568 1721.48 216.242 1754.14C216.242 1754.14 533.89 1747.52 788.133 1859.46Z" fill="#EFEFEF"/>
<path d="M561.818 1480.9C561.818 1480.9 706.49 1591 887.335 1636.79C887.335 1636.79 741.923 1592.45 575.843 1480.9L561.818 1480.9Z" fill="#EFEFEF"/>
<path d="M1504.74 10848.3C1504.74 10848.3 1317.41 11002.1 1231.86 11027.8C1146.3 11053.6 881.485 10852.2 881.485 10852.2L912.983 10846.5C912.983 10846.5 1079.34 11006 1211.19 11006C1343.04 11006 1488.83 10847.9 1488.83 10847.9L1504.74 10848.3Z" fill="#EFEFEF"/>
<path d="M800.372 10842.3C800.372 10842.3 967.893 10981.3 1074.21 11020.2C1074.21 11020.2 942.823 10950.9 813.657 10842.3L800.372 10842.3Z" fill="#EFEFEF"/>
<path d="M1063.73 10857.5C1063.73 10857.5 1188.4 10918.2 1264.51 10930.1C1340.61 10942 1482.98 10853.6 1482.98 10853.6L1063.73 10857.5Z" fill="#EFEFEF"/>
<path d="M-63.3761 10987.6C-63.3761 10987.6 167.979 11009 376.854 10967.7C585.73 10926.3 322.663 10865.1 156.739 10888.8C-9.18489 10912.5 -63.3761 10900.3 -63.3761 10900.3L-67.0967 10907.2C-67.0967 10907.2 29.754 10906.8 177.621 10892.6C325.487 10878.5 433.363 10918.9 433.363 10938.1C433.363 10957.3 197.431 11009 -63.3566 10982.2L-63.3761 10987.6Z" fill="#EFEFEF"/>
<path d="M897.649 11048.4C897.649 11048.4 764.606 11062.3 605.928 10967.9C420.525 10857.5 301.04 10853.6 301.04 10853.6L366.003 10853.6C366.003 10853.6 478.846 10886.6 592.819 10953.3C706.792 11020 918.122 11048.4 918.122 11048.4L897.649 11048.4Z" fill="#EFEFEF"/>
<path d="M529.63 10853.6C529.63 10853.6 674.302 10963.7 855.147 11009.5C855.147 11009.5 709.735 10965.1 543.655 10853.6L529.63 10853.6Z" fill="#EFEFEF"/>
<path d="M1504.66 7549.88L-53.6725 7526.12V7529.8L1504.66 7553.84V7549.88Z" fill="#EFEFEF"/>
<path d="M1504.66 6969.32L-53.6725 6945.52V6949.24L1504.66 6973.28V6969.32Z" fill="#EFEFEF"/>
<path d="M1504.66 6669.29L-53.6725 6645.53V6649.22L1504.66 6673.25V6669.29Z" fill="#EFEFEF"/>
<path d="M1504.66 6320.03L-53.6725 6374.68V6378.37L1504.66 6327.48V6320.03Z" fill="#EFEFEF"/>
<path d="M1504.66 7232.48L-53.6725 7239.27V7248.17L1504.66 7234.48V7232.48Z" fill="#EFEFEF"/>
<path d="M227.143 7240.33C227.143 7240.33 366.907 7229.23 466.309 7193.59C565.712 7157.95 768.451 6961.91 768.451 6961.91H867.795C867.795 6961.91 821.22 6958.3 755.108 6996.45C688.996 7034.6 566.16 7153.95 505.112 7184.65C444.064 7215.35 419.501 7237.23 419.501 7237.23L227.143 7240.33Z" fill="#EFEFEF"/>
<path d="M487.713 7236.41C487.713 7236.41 674.948 7082.63 760.559 7056.91C846.17 7031.19 1110.93 7232.49 1110.93 7232.49L1079.45 7238.21C1079.45 7238.21 913.081 7078.67 781.226 7078.67C649.371 7078.67 503.706 7236.84 503.706 7236.84L487.713 7236.41Z" fill="#EFEFEF"/>
<path d="M-63.7421 7740.04C-63.7421 7740.04 123.59 7586.3 209.142 7560.54C294.695 7534.78 559.515 7736.16 559.515 7736.16L528.017 7741.88C528.017 7741.88 361.665 7582.34 229.81 7582.34C97.9549 7582.34 -47.8275 7740.51 -47.8275 7740.51L-63.7421 7740.04Z" fill="#EFEFEF"/>
<path d="M799.641 6959.4C799.641 6959.4 990.148 7011.9 1223.47 7232.48L1256.99 7233.35L1065.32 7096.35C931.71 7000.92 832.074 6959.91 832.074 6959.91L799.641 6959.4Z" fill="#EFEFEF"/>
<path d="M1198.54 7232.48C1198.54 7232.48 1031.02 7093.45 924.687 7054.6C924.687 7054.6 1056.09 7123.84 1185.26 7232.48H1198.54Z" fill="#EFEFEF"/>
<path d="M640.629 7746.11C640.629 7746.11 473.108 7607.08 366.79 7568.23C366.79 7568.23 498.177 7637.47 627.344 7746.11H640.629Z" fill="#EFEFEF"/>
<path d="M1023.53 7232.48C1023.53 7232.48 898.861 7171.79 822.892 7159.91C746.923 7148.03 604.335 7236.4 604.335 7236.4L1023.53 7232.48Z" fill="#EFEFEF"/>
<path d="M377.267 7730.86C377.267 7730.86 252.6 7670.17 176.495 7658.29C100.39 7646.41 -41.9839 7734.78 -41.9839 7734.78L377.267 7730.86Z" fill="#EFEFEF"/>
<path d="M1079.47 7238.21C1079.47 7238.21 976.347 7118.27 840.83 7069.26C840.83 7069.26 984.606 7129.05 1110.95 7232.48L1079.47 7238.21Z" fill="#EFEFEF"/>
<path d="M71.3841 7240.33C71.3841 7240.33 293.058 7226.33 435.256 7176.26C577.454 7126.19 746.767 6961.83 746.767 6961.83L732.976 6959.4C732.976 6959.4 605.777 7109.37 360.709 7185.16C115.641 7260.95 -53.6725 7197.63 -53.6725 7197.63V7239.27L71.3841 7240.33Z" fill="#EFEFEF"/>
<path d="M-53.6738 6797.39C-53.6738 6797.39 173.259 6755.79 472.577 6815.19C771.894 6874.59 925.04 6944.85 1205.74 6838.44C1486.43 6732.03 1504.66 6714.15 1504.66 6714.15V6701.29C1504.66 6701.29 1337.82 6788.45 1187.15 6832.05C1036.48 6875.65 799.516 6898.39 658.253 6842.68C528.774 6791.7 316.996 6765.67 -53.7517 6781.51L-53.6738 6797.39Z" fill="#EFEFEF"/>
<path d="M-53.6725 6973.28C-53.6725 6973.28 75.0657 6947.44 221.238 6984.57C367.41 7021.7 494.395 7041.34 500.998 7054.6C507.602 7067.85 419.049 7170.18 214.595 7170.18C10.1414 7170.18 -53.6725 7158.81 -53.6725 7158.81V7146.42C-53.6725 7146.42 79.5459 7171.79 223.828 7162.89C368.111 7153.99 478.11 7088.83 481.071 7067.42C484.032 7046.01 253.32 6998.45 144.84 6981.63C78.7778 6971.49 12.4422 6970.74 -53.6725 6979.39L-53.6725 6973.28Z" fill="#EFEFEF"/>
<path d="M-53.6753 7004.41C-53.6753 7004.41 111.489 6976.65 260.602 7030.13C409.716 7083.61 221.897 7162.89 103.464 7132.07C-14.9701 7101.25 -53.6753 7117.33 -53.6753 7117.33L-56.3245 7108.39C-56.3245 7108.39 12.8268 7108.9 118.385 7127.21C223.942 7145.52 300.944 7093.29 300.944 7068.4C300.944 7043.5 132.527 6976.65 -53.6753 7011.31V7004.41Z" fill="#EFEFEF"/>
<path d="M-52.6234 6528.38C-52.6234 6528.38 178.731 6506.93 387.607 6548.3C596.482 6589.66 333.396 6650.91 167.492 6627.15C1.58724 6603.39 -52.6234 6615.66 -52.6234 6615.66L-56.3245 6608.8C-56.3245 6608.8 40.5262 6609.15 188.393 6623.34C336.26 6637.54 444.135 6597.07 444.135 6577.86C444.135 6558.65 208.203 6506.93 -52.6234 6533.75V6528.38Z" fill="#EFEFEF"/>
<path d="M1504.38 7600.81C1504.38 7600.81 1273.02 7579.36 1064.14 7620.73C855.269 7662.09 1118.34 7723.3 1284.26 7699.57C1450.18 7675.85 1504.38 7688.09 1504.38 7688.09L1508.1 7681.19C1508.1 7681.19 1411.25 7681.58 1263.38 7695.73C1115.51 7709.89 1007.64 7669.5 1007.64 7650.29C1007.64 7631.08 1243.57 7579.36 1504.36 7606.14L1504.38 7600.81Z" fill="#EFEFEF"/>
<path d="M368.868 6951.99C368.868 6951.99 488.938 7025.11 547.492 7025.11C606.047 7025.11 667.056 6961.83 667.056 6961.83L652.797 6956.3C652.797 6956.3 611.014 7022.95 542.545 7014.29C474.075 7005.62 387.042 6951.99 387.042 6951.99H368.868Z" fill="#EFEFEF"/>
<path d="M1504.63 6764.69C1504.63 6764.69 1229.97 6851.5 1110.91 6893.53C991.856 6935.56 1434.27 6975.87 1504.63 6951.99L1502.68 6935.56C1502.68 6935.56 1396.17 6963.01 1261.29 6945.52C1126.42 6928.03 1101.86 6911.45 1101.86 6904.35C1101.86 6897.25 1283.21 6838.99 1365.88 6818.09C1448.55 6797.19 1504.67 6797.31 1504.67 6797.31L1504.63 6764.69Z" fill="#EFEFEF"/>
<path d="M1504.63 6835.03C1504.63 6835.03 1347.39 6832.68 1256.95 6898.39C1256.95 6898.39 1273.86 6868.71 1504.63 6845.89V6835.03Z" fill="#EFEFEF"/>
<path d="M1452.48 6673.25C1452.48 6673.25 1367.39 6776.65 1028.3 6797.39C689.206 6818.13 552.617 6654.79 552.617 6654.79L564.305 6658.71C564.305 6658.71 705.471 6810.76 1028.3 6793.78C1328.47 6777.78 1446.58 6672.24 1446.58 6672.24L1452.48 6673.25Z" fill="#EFEFEF"/>
<path d="M905.29 6341.75C905.29 6341.75 814.303 6500.23 475.209 6521.01C136.114 6541.79 -0.493408 6378.37 -0.493408 6378.37L11.1941 6382.29C11.1941 6382.29 152.418 6534.34 475.267 6517.24C775.442 6501.56 899.446 6340.81 899.446 6340.81L905.29 6341.75Z" fill="#EFEFEF"/>
<path d="M-53.6725 6764.69C-53.6725 6764.69 144.47 6749.83 294.07 6749.83C443.671 6749.83 635.58 6799.23 656.248 6799.23C676.915 6799.23 537.171 6658.35 537.171 6658.35H529.788C529.788 6658.35 645.417 6775.04 645.417 6786.49C645.417 6797.94 493.362 6754.77 293.058 6741.91C92.7528 6729.05 -53.6725 6753.67 -53.6725 6753.67V6764.69Z" fill="#EFEFEF"/>
<path d="M-53.6725 6728.77C-53.6725 6728.77 -7.60415 6717.01 176.942 6717.01C361.488 6717.01 487.713 6653.81 487.713 6653.81H471.721C471.721 6653.81 363.689 6711.21 172.52 6711.21C-18.6489 6711.21 -53.6725 6720.85 -53.6725 6720.85V6728.77Z" fill="#EFEFEF"/>
<path d="M-61.9318 7525.41C-61.9318 7525.41 74.1501 7513.65 619.178 7513.65C1164.21 7513.65 1537 7450.44 1537 7450.44H1489.76C1489.76 7450.44 1170.73 7507.84 606.088 7507.84C41.4444 7507.84 -61.9318 7517.49 -61.9318 7517.49V7525.41Z" fill="#EFEFEF"/>
<path d="M1504.66 6327.48C1504.66 6327.48 1117.63 6359.35 937.156 6408.09C756.681 6456.82 447.098 6653.18 447.098 6653.18H455.474C455.474 6653.18 707.106 6497.09 961.661 6417.03C1216.22 6336.96 1504.66 6349.2 1504.66 6349.2V6327.48Z" fill="#EFEFEF"/>
<path d="M1504.67 6403.15C1504.67 6403.15 1255.82 6389.94 940.256 6474.47C624.693 6559 508.928 6653.18 508.928 6653.18H522.31C522.31 6653.18 695.13 6546.77 943.665 6480.39C1192.2 6414.01 1504.67 6415.03 1504.67 6415.03V6403.15Z" fill="#EFEFEF"/>
<path d="M1504.67 6669.29C1504.67 6669.29 957.308 6639.54 824.44 6598.29C691.572 6557.04 1052.35 6474.94 1205.94 6458.63C1359.53 6442.32 1504.67 6445.26 1504.67 6445.26L1504.91 6452.67C1504.91 6452.67 1357.51 6455.65 1200.04 6466.55C1042.57 6477.45 802.312 6557.08 807.707 6578.14C819.395 6623.97 1504.67 6664.39 1504.67 6664.39V6669.29Z" fill="#EFEFEF"/>
<path d="M1504.63 6490.35C1504.63 6490.35 1208.92 6486.98 1163.12 6527.75C1117.32 6568.53 1504.63 6613.15 1504.63 6613.15V6490.35Z" fill="#EFEFEF"/>
<path d="M1504.9 6251.02C1504.9 6251.02 1157.18 6350.73 788.122 6320.03C419.069 6289.33 295.902 6226.83 129.432 6226.83C-37.0372 6226.83 -53.6725 6276.23 -53.6725 6276.23V6263.49C-53.6725 6263.49 -8.50018 6217.93 167.631 6217.93C343.762 6217.93 472.695 6308.11 824.431 6310.03C1176.17 6311.95 1504.66 6240.71 1504.66 6240.71L1504.9 6251.02Z" fill="#EFEFEF"/>
<path d="M1504.67 6217.93C1504.67 6217.93 1214.42 6317.95 899.387 6282.31C584.35 6246.67 493.85 6166.45 493.85 6166.45H508.264C508.264 6166.45 702.258 6264.98 901.569 6279.33C1100.88 6293.68 1504.67 6212.95 1504.67 6212.95V6217.93Z" fill="#EFEFEF"/>
<path d="M1252.63 6166.45C1252.63 6166.45 1101.24 6244.86 961.669 6244.86C822.1 6244.86 764.636 6166.45 764.636 6166.45L772.253 6166.64C772.253 6166.64 811.016 6237.96 965.292 6237.96C1119.57 6237.96 1240.63 6166.45 1240.63 6166.45H1252.63Z" fill="#EFEFEF"/>
<path d="M-53.6725 7389.08C-53.6725 7389.08 226.146 7315.14 412.173 7389.08C598.199 7463.03 441.703 7487.77 265.514 7487.77C89.3244 7487.77 -53.6725 7502.63 -53.6725 7502.63V7389.08Z" fill="#EFEFEF"/>
<path d="M-53.6725 7356.23C-53.6725 7356.23 166.111 7289.02 430.873 7356.23C695.634 7423.43 864.889 7445.19 850.163 7474.91C835.437 7504.63 137.847 7502.63 52.9567 7502.63C-31.9337 7502.63 -53.6725 7509.06 -53.6725 7509.06V7513.53C-53.6725 7513.53 -17.071 7505.1 55.0215 7505.1C127.114 7505.1 795.621 7511.3 854.935 7483.07C914.25 7454.84 725.009 7417.2 515.569 7356.23C306.128 7295.26 140.165 7320.39 -53.6725 7345.64V7356.23Z" fill="#EFEFEF"/>
<path d="M-53.6725 7318.31C-53.6725 7318.31 213.543 7251.03 501.329 7302.63C789.115 7354.23 905.289 7239.9 905.289 7239.9L895.549 7240.48C895.549 7240.48 835.164 7330.94 528.074 7301.73C220.984 7272.52 318.536 7261.93 -53.6725 7311.33V7318.31Z" fill="#EFEFEF"/>
<path d="M975.901 7240.33C975.901 7240.33 1295.54 7269.85 1504.66 7338.35L1504.9 7356.38C1504.9 7356.38 1277.28 7275.22 943.663 7240.33H975.901Z" fill="#EFEFEF"/>
<path d="M543.386 7540C543.386 7540 676.429 7526.12 835.106 7620.49C1020.51 7730.86 1139.99 7734.78 1139.99 7734.78H1075.03C1075.03 7734.78 962.189 7701.73 848.216 7635.04C734.243 7568.34 522.913 7540 522.913 7540H543.386Z" fill="#EFEFEF"/>
<path d="M140.751 6372.02C140.751 6372.02 283.319 6402.36 382.157 6402.36C480.995 6402.36 578.507 6357.74 578.507 6357.74L140.751 6372.02Z" fill="#EFEFEF"/>
<path d="M632.385 6659.42C632.385 6659.42 693.647 6613.93 867.849 6659.42H632.385Z" fill="#EFEFEF"/>
<path d="M1006.76 7025.11C1006.76 7025.11 1208.76 7150.93 1380.76 7167.24C1380.8 7167.32 1161.93 7110.39 1006.76 7025.11Z" fill="#EFEFEF"/>
<path d="M685.099 7356.23C685.099 7356.23 973.664 7494.2 1256.99 7461.54C1256.99 7461.54 939.342 7468.17 685.099 7356.23Z" fill="#EFEFEF"/>
<path d="M911.405 7734.78C911.405 7734.78 766.733 7624.69 585.888 7578.89C585.888 7578.89 731.301 7623.24 897.38 7734.78H911.405Z" fill="#EFEFEF"/>
<path d="M1504.66 10667.1L-53.6725 10643.3V10647L1504.66 10671V10667.1Z" fill="#EFEFEF"/>
<path d="M1504.66 10086.5L-53.6725 10062.7V10066.5L1504.66 10090.5V10086.5Z" fill="#EFEFEF"/>
<path d="M1504.66 9786.51L-53.6725 9762.75V9766.43L1504.66 9790.47V9786.51Z" fill="#EFEFEF"/>
<path d="M1504.66 9437.24L-53.6725 9491.89V9495.58L1504.66 9444.69V9437.24Z" fill="#EFEFEF"/>
<path d="M1504.66 10349.7L-53.6725 10356.5V10365.4L1504.66 10351.7V10349.7Z" fill="#EFEFEF"/>
<path d="M227.143 10357.5C227.143 10357.5 366.907 10346.4 466.309 10310.8C565.712 10275.2 768.451 10079.1 768.451 10079.1H867.795C867.795 10079.1 821.22 10075.5 755.108 10113.7C688.996 10151.8 566.16 10271.2 505.112 10301.9C444.064 10332.6 419.501 10354.4 419.501 10354.4L227.143 10357.5Z" fill="#EFEFEF"/>
<path d="M487.713 10353.6C487.713 10353.6 674.948 10199.8 760.559 10174.1C846.17 10148.4 1110.93 10349.7 1110.93 10349.7L1079.45 10355.4C1079.45 10355.4 913.081 10195.9 781.226 10195.9C649.371 10195.9 503.706 10354 503.706 10354L487.713 10353.6Z" fill="#EFEFEF"/>
<path d="M-63.7421 10857.2C-63.7421 10857.2 123.59 10703.5 209.142 10677.8C294.695 10652 559.515 10853.4 559.515 10853.4L528.017 10859.1C528.017 10859.1 361.665 10699.6 229.81 10699.6C97.9549 10699.6 -47.8275 10857.7 -47.8275 10857.7L-63.7421 10857.2Z" fill="#EFEFEF"/>
<path d="M799.641 10076.6C799.641 10076.6 990.148 10129.1 1223.47 10349.7L1256.99 10350.6L1065.32 10213.6C931.71 10118.1 832.074 10077.1 832.074 10077.1L799.641 10076.6Z" fill="#EFEFEF"/>
<path d="M1198.55 10349.7C1198.55 10349.7 1031.02 10210.7 924.687 10171.8C924.687 10171.8 1056.09 10241 1185.26 10349.7H1198.55Z" fill="#EFEFEF"/>
<path d="M640.629 10863.3C640.629 10863.3 473.108 10724.3 366.79 10685.4C366.79 10685.4 498.177 10754.7 627.344 10863.3H640.629Z" fill="#EFEFEF"/>
<path d="M1023.53 10349.7C1023.53 10349.7 898.861 10289 822.892 10277.1C746.923 10265.2 604.335 10353.6 604.335 10353.6L1023.53 10349.7Z" fill="#EFEFEF"/>
<path d="M377.267 10848.1C377.267 10848.1 252.6 10787.4 176.495 10775.5C100.39 10763.6 -41.9839 10852 -41.9839 10852L377.267 10848.1Z" fill="#EFEFEF"/>
<path d="M1079.47 10355.4C1079.47 10355.4 976.347 10235.5 840.83 10186.5C840.83 10186.5 984.606 10246.3 1110.95 10349.7L1079.47 10355.4Z" fill="#EFEFEF"/>
<path d="M71.3841 10357.5C71.3841 10357.5 293.058 10343.5 435.256 10293.5C577.454 10243.4 746.767 10079 746.767 10079L732.976 10076.6C732.976 10076.6 605.777 10226.6 360.709 10302.4C115.641 10378.2 -53.6725 10314.8 -53.6725 10314.8V10356.5L71.3841 10357.5Z" fill="#EFEFEF"/>
<path d="M-53.6738 9914.6C-53.6738 9914.6 173.259 9873 472.577 9932.4C771.894 9991.8 925.04 10062.1 1205.74 9955.65C1486.43 9849.24 1504.66 9831.36 1504.66 9831.36V9818.5C1504.66 9818.5 1337.82 9905.66 1187.15 9949.26C1036.48 9992.86 799.516 10015.6 658.253 9959.89C528.774 9908.92 316.996 9882.88 -53.7517 9898.72L-53.6738 9914.6Z" fill="#EFEFEF"/>
<path d="M-53.6725 10090.5C-53.6725 10090.5 75.0657 10064.6 221.238 10101.8C367.41 10138.9 494.395 10158.6 500.998 10171.8C507.602 10185.1 419.049 10287.4 214.595 10287.4C10.1414 10287.4 -53.6725 10276 -53.6725 10276V10263.6C-53.6725 10263.6 79.5459 10289 223.828 10280.1C368.111 10271.2 478.11 10206 481.071 10184.6C484.032 10163.2 253.32 10115.7 144.84 10098.8C78.7778 10088.7 12.4422 10088 -53.6725 10096.6L-53.6725 10090.5Z" fill="#EFEFEF"/>
<path d="M-53.6753 10121.6C-53.6753 10121.6 111.489 10093.9 260.602 10147.3C409.716 10200.8 221.897 10280.1 103.464 10249.3C-14.9701 10218.5 -53.6753 10234.5 -53.6753 10234.5L-56.3245 10225.6C-56.3245 10225.6 12.8268 10226.1 118.385 10244.4C223.942 10262.7 300.944 10210.5 300.944 10185.6C300.944 10160.7 132.527 10093.9 -53.6753 10128.5V10121.6Z" fill="#EFEFEF"/>
<path d="M-52.6234 9645.59C-52.6234 9645.59 178.731 9624.14 387.607 9665.51C596.482 9706.87 333.396 9768.12 167.492 9744.36C1.58724 9720.6 -52.6234 9732.87 -52.6234 9732.87L-56.3245 9726.01C-56.3245 9726.01 40.5262 9726.36 188.393 9740.55C336.26 9754.75 444.135 9714.28 444.135 9695.07C444.135 9675.86 208.203 9624.14 -52.6234 9650.96V9645.59Z" fill="#EFEFEF"/>
<path d="M1504.38 10718C1504.38 10718 1273.02 10696.6 1064.14 10737.9C855.269 10779.3 1118.34 10840.5 1284.26 10816.8C1450.18 10793.1 1504.38 10805.3 1504.38 10805.3L1508.1 10798.4C1508.1 10798.4 1411.25 10798.8 1263.38 10812.9C1115.51 10827.1 1007.64 10786.7 1007.64 10767.5C1007.64 10748.3 1243.57 10696.6 1504.36 10723.4L1504.38 10718Z" fill="#EFEFEF"/>
<path d="M368.868 10069.2C368.868 10069.2 488.938 10142.3 547.492 10142.3C606.047 10142.3 667.056 10079 667.056 10079L652.797 10073.5C652.797 10073.5 611.014 10140.2 542.545 10131.5C474.075 10122.8 387.042 10069.2 387.042 10069.2H368.868Z" fill="#EFEFEF"/>
<path d="M1504.63 9881.9C1504.63 9881.9 1229.97 9968.71 1110.91 10010.7C991.856 10052.8 1434.27 10093.1 1504.63 10069.2L1502.68 10052.8C1502.68 10052.8 1396.17 10080.2 1261.29 10062.7C1126.42 10045.2 1101.86 10028.7 1101.86 10021.6C1101.86 10014.5 1283.21 9956.2 1365.88 9935.3C1448.55 9914.4 1504.67 9914.52 1504.67 9914.52L1504.63 9881.9Z" fill="#EFEFEF"/>
<path d="M1504.63 9952.24C1504.63 9952.24 1347.39 9949.89 1256.95 10015.6C1256.95 10015.6 1273.86 9985.92 1504.63 9963.1V9952.24Z" fill="#EFEFEF"/>
<path d="M1452.48 9790.47C1452.48 9790.47 1367.39 9893.86 1028.3 9914.6C689.206 9935.34 552.617 9772 552.617 9772L564.305 9775.92C564.305 9775.92 705.471 9927.97 1028.3 9910.99C1328.47 9895 1446.58 9789.45 1446.58 9789.45L1452.48 9790.47Z" fill="#EFEFEF"/>
<path d="M905.29 9458.96C905.29 9458.96 814.303 9617.44 475.209 9638.22C136.114 9659 -0.493408 9495.58 -0.493408 9495.58L11.1941 9499.5C11.1941 9499.5 152.418 9651.55 475.267 9634.46C775.442 9618.77 899.446 9458.02 899.446 9458.02L905.29 9458.96Z" fill="#EFEFEF"/>
<path d="M-53.6725 9881.9C-53.6725 9881.9 144.47 9867.04 294.07 9867.04C443.671 9867.04 635.58 9916.44 656.248 9916.44C676.915 9916.44 537.171 9775.57 537.171 9775.57H529.788C529.788 9775.57 645.417 9892.25 645.417 9903.7C645.417 9915.15 493.362 9871.98 293.058 9859.12C92.7528 9846.26 -53.6725 9870.88 -53.6725 9870.88V9881.9Z" fill="#EFEFEF"/>
<path d="M-53.6725 9845.98C-53.6725 9845.98 -7.60415 9834.22 176.942 9834.22C361.488 9834.22 487.713 9771.02 487.713 9771.02H471.721C471.721 9771.02 363.689 9828.42 172.52 9828.42C-18.6489 9828.42 -53.6725 9838.06 -53.6725 9838.06V9845.98Z" fill="#EFEFEF"/>
<path d="M-61.9318 10642.6C-61.9318 10642.6 74.1501 10630.9 619.178 10630.9C1164.21 10630.9 1537 10567.7 1537 10567.7H1489.76C1489.76 10567.7 1170.73 10625.1 606.088 10625.1C41.4444 10625.1 -61.9318 10634.7 -61.9318 10634.7V10642.6Z" fill="#EFEFEF"/>
<path d="M1504.66 9444.69C1504.66 9444.69 1117.63 9476.56 937.156 9525.3C756.681 9574.04 447.098 9770.39 447.098 9770.39H455.474C455.474 9770.39 707.106 9614.3 961.661 9534.24C1216.22 9454.18 1504.66 9466.41 1504.66 9466.41V9444.69Z" fill="#EFEFEF"/>
<path d="M1504.67 9520.36C1504.67 9520.36 1255.82 9507.15 940.256 9591.68C624.693 9676.21 508.928 9770.39 508.928 9770.39H522.31C522.31 9770.39 695.13 9663.98 943.665 9597.6C1192.2 9531.22 1504.67 9532.24 1504.67 9532.24V9520.36Z" fill="#EFEFEF"/>
<path d="M1504.67 9786.51C1504.67 9786.51 957.308 9756.75 824.44 9715.5C691.572 9674.25 1052.35 9592.15 1205.94 9575.84C1359.53 9559.53 1504.67 9562.47 1504.67 9562.47L1504.91 9569.88C1504.91 9569.88 1357.51 9572.86 1200.04 9583.76C1042.57 9594.66 802.312 9674.29 807.707 9695.35C819.395 9741.18 1504.67 9781.61 1504.67 9781.61V9786.51Z" fill="#EFEFEF"/>
<path d="M1504.63 9607.56C1504.63 9607.56 1208.92 9604.19 1163.12 9644.96C1117.32 9685.74 1504.63 9730.36 1504.63 9730.36V9607.56Z" fill="#EFEFEF"/>
<path d="M1504.9 9368.23C1504.9 9368.23 1157.18 9467.94 788.122 9437.24C419.069 9406.54 295.902 9344.04 129.432 9344.04C-37.0372 9344.04 -53.6725 9393.44 -53.6725 9393.44V9380.7C-53.6725 9380.7 -8.50018 9335.14 167.631 9335.14C343.762 9335.14 472.695 9425.32 824.431 9427.24C1176.17 9429.16 1504.66 9357.92 1504.66 9357.92L1504.9 9368.23Z" fill="#EFEFEF"/>
<path d="M1504.67 9335.14C1504.67 9335.14 1214.42 9435.16 899.387 9399.52C584.35 9363.88 493.85 9283.66 493.85 9283.66H508.264C508.264 9283.66 702.258 9382.19 901.569 9396.54C1100.88 9410.89 1504.67 9330.16 1504.67 9330.16V9335.14Z" fill="#EFEFEF"/>
<path d="M1252.63 9283.66C1252.63 9283.66 1101.24 9362.07 961.669 9362.07C822.1 9362.07 764.636 9283.66 764.636 9283.66L772.253 9283.85C772.253 9283.85 811.016 9355.17 965.292 9355.17C1119.57 9355.17 1240.63 9283.66 1240.63 9283.66H1252.63Z" fill="#EFEFEF"/>
<path d="M-53.6725 10506.3C-53.6725 10506.3 226.146 10432.3 412.173 10506.3C598.199 10580.2 441.703 10605 265.514 10605C89.3244 10605 -53.6725 10619.8 -53.6725 10619.8V10506.3Z" fill="#EFEFEF"/>
<path d="M-53.6725 10473.4C-53.6725 10473.4 166.111 10406.2 430.873 10473.4C695.634 10540.6 864.889 10562.4 850.163 10592.1C835.437 10621.8 137.847 10619.8 52.9567 10619.8C-31.9337 10619.8 -53.6725 10626.3 -53.6725 10626.3V10630.7C-53.6725 10630.7 -17.071 10622.3 55.0215 10622.3C127.114 10622.3 795.621 10628.5 854.935 10600.3C914.25 10572 725.009 10534.4 515.569 10473.4C306.128 10412.5 140.165 10437.6 -53.6725 10462.9V10473.4Z" fill="#EFEFEF"/>
<path d="M-53.6725 10435.5C-53.6725 10435.5 213.543 10368.2 501.329 10419.8C789.115 10471.4 905.289 10357.1 905.289 10357.1L895.549 10357.7C895.549 10357.7 835.164 10448.1 528.074 10418.9C220.984 10389.7 318.536 10379.1 -53.6725 10428.5V10435.5Z" fill="#EFEFEF"/>
<path d="M975.901 10357.5C975.901 10357.5 1295.54 10387.1 1504.66 10455.6L1504.9 10473.6C1504.9 10473.6 1277.28 10392.4 943.663 10357.5H975.901Z" fill="#EFEFEF"/>
<path d="M543.386 10657.2C543.386 10657.2 676.429 10643.3 835.106 10737.7C1020.51 10848.1 1139.99 10852 1139.99 10852H1075.03C1075.03 10852 962.189 10818.9 848.216 10752.2C734.243 10685.6 522.913 10657.2 522.913 10657.2H543.386Z" fill="#EFEFEF"/>
<path d="M140.751 9489.23C140.751 9489.23 283.319 9519.57 382.157 9519.57C480.995 9519.57 578.507 9474.96 578.507 9474.96L140.751 9489.23Z" fill="#EFEFEF"/>
<path d="M632.385 9776.63C632.385 9776.63 693.647 9731.14 867.849 9776.63H632.385Z" fill="#EFEFEF"/>
<path d="M1006.76 10142.3C1006.76 10142.3 1208.76 10268.1 1380.76 10284.5C1380.8 10284.5 1161.93 10227.6 1006.76 10142.3Z" fill="#EFEFEF"/>
<path d="M685.099 10473.4C685.099 10473.4 973.664 10611.4 1256.99 10578.8C1256.99 10578.8 939.342 10585.4 685.099 10473.4Z" fill="#EFEFEF"/>
<path d="M911.405 10852C911.405 10852 766.733 10741.9 585.888 10696.1C585.888 10696.1 731.301 10740.4 897.38 10852H911.405Z" fill="#EFEFEF"/>
<path d="M-31.4774 7921.29L1526.86 7945.05L1526.86 7941.37L-31.4774 7917.33L-31.4774 7921.29Z" fill="#EFEFEF"/>
<path d="M-31.4774 8501.85L1526.86 8525.65L1526.86 8521.93L-31.4774 8497.89L-31.4774 8501.85Z" fill="#EFEFEF"/>
<path d="M-31.4774 8801.87L1526.86 8825.63L1526.86 8821.95L-31.4774 8797.91L-31.4774 8801.87Z" fill="#EFEFEF"/>
<path d="M-31.4774 9151.14L1526.86 9096.48L1526.86 9092.8L-31.4774 9143.69L-31.4774 9151.14Z" fill="#EFEFEF"/>
<path d="M-31.4774 8238.68L1526.86 8231.9L1526.86 8223L-31.4774 8236.68L-31.4774 8238.68Z" fill="#EFEFEF"/>
<path d="M1246.05 8230.84C1246.05 8230.84 1106.28 8241.94 1006.88 8277.58C907.479 8313.22 704.739 8509.26 704.739 8509.26L605.395 8509.26C605.395 8509.26 651.97 8512.87 718.082 8474.72C784.195 8436.57 907.031 8317.22 968.079 8286.52C1029.13 8255.82 1053.69 8233.94 1053.69 8233.94L1246.05 8230.84Z" fill="#EFEFEF"/>
<path d="M985.474 8234.76C985.474 8234.76 798.239 8388.54 712.628 8414.26C627.017 8439.98 362.256 8238.68 362.256 8238.68L393.734 8232.96C393.734 8232.96 560.106 8392.5 691.961 8392.5C823.816 8392.5 969.481 8234.33 969.481 8234.33L985.474 8234.76Z" fill="#EFEFEF"/>
<path d="M1536.93 7731.13C1536.93 7731.13 1349.6 7884.87 1264.05 7910.63C1178.49 7936.39 913.673 7735.01 913.673 7735.01L945.171 7729.29C945.171 7729.29 1111.52 7888.83 1243.38 7888.83C1375.23 7888.83 1521.02 7730.66 1521.02 7730.66L1536.93 7731.13Z" fill="#EFEFEF"/>
<path d="M673.589 8511.77C673.589 8511.77 483.083 8459.27 249.761 8238.68L216.237 8237.82L407.912 8374.81C541.52 8470.25 641.156 8511.26 641.156 8511.26L673.589 8511.77Z" fill="#EFEFEF"/>
<path d="M274.677 8238.68C274.677 8238.68 442.198 8377.72 548.535 8416.57C548.535 8416.57 417.128 8347.33 287.962 8238.68L274.677 8238.68Z" fill="#EFEFEF"/>
<path d="M832.56 7725.05C832.56 7725.05 1000.08 7864.09 1106.4 7902.94C1106.4 7902.94 975.011 7833.7 845.845 7725.05L832.56 7725.05Z" fill="#EFEFEF"/>
<path d="M449.694 8238.68C449.694 8238.68 574.361 8299.38 650.33 8311.26C726.299 8323.14 868.886 8234.76 868.886 8234.76L449.694 8238.68Z" fill="#EFEFEF"/>
<path d="M1095.92 7740.3C1095.92 7740.3 1220.59 7801 1296.69 7812.88C1372.8 7824.76 1515.17 7736.38 1515.17 7736.38L1095.92 7740.3Z" fill="#EFEFEF"/>
<path d="M393.751 8232.96C393.751 8232.96 496.874 8352.9 632.391 8401.91C632.391 8401.91 488.615 8342.12 362.272 8238.68L393.751 8232.96Z" fill="#EFEFEF"/>
<path d="M1401.8 8230.84C1401.8 8230.84 1180.13 8244.84 1037.93 8294.91C895.733 8344.98 726.42 8509.34 726.42 8509.34L740.211 8511.77C740.211 8511.77 867.411 8361.8 1112.48 8286.01C1357.55 8210.22 1526.86 8273.54 1526.86 8273.54L1526.86 8231.9L1401.8 8230.84Z" fill="#EFEFEF"/>
<path d="M1526.86 8673.78C1526.86 8673.78 1299.93 8715.38 1000.61 8655.98C701.294 8596.58 548.149 8526.32 267.453 8632.73C-13.2424 8739.14 -31.475 8757.02 -31.475 8757.02L-31.475 8769.88C-31.475 8769.88 135.365 8682.72 286.036 8639.12C436.708 8595.52 673.672 8572.78 814.936 8628.49C944.414 8679.46 1156.19 8705.5 1526.94 8689.66L1526.86 8673.78Z" fill="#EFEFEF"/>
<path d="M1526.86 8497.89C1526.86 8497.89 1398.12 8523.73 1251.95 8486.6C1105.78 8449.47 978.793 8429.82 972.189 8416.57C965.586 8403.32 1054.14 8300.99 1258.59 8300.99C1463.05 8300.99 1526.86 8312.36 1526.86 8312.36L1526.86 8324.75C1526.86 8324.75 1393.64 8299.38 1249.36 8308.28C1105.08 8317.18 995.077 8382.34 992.116 8403.75C989.156 8425.16 1219.87 8472.72 1328.35 8489.54C1394.41 8499.68 1460.75 8500.43 1526.86 8491.77L1526.86 8497.89Z" fill="#EFEFEF"/>
<path d="M1526.86 8466.76C1526.86 8466.76 1361.7 8494.52 1212.58 8441.04C1063.47 8387.56 1251.29 8308.28 1369.72 8339.1C1488.16 8369.91 1526.86 8353.84 1526.86 8353.84L1529.51 8362.78C1529.51 8362.78 1460.36 8362.27 1354.8 8343.96C1249.24 8325.65 1172.24 8377.87 1172.24 8402.77C1172.24 8427.67 1340.66 8494.52 1526.86 8459.86L1526.86 8466.76Z" fill="#EFEFEF"/>
<path d="M1525.81 8942.79C1525.81 8942.79 1294.45 8964.23 1085.58 8922.87C876.703 8881.5 1139.79 8820.26 1305.69 8844.02C1471.6 8867.78 1525.81 8855.51 1525.81 8855.51L1529.51 8862.37C1529.51 8862.37 1432.66 8862.02 1284.79 8847.82C1136.93 8833.63 1029.05 8874.09 1029.05 8893.31C1029.05 8912.52 1264.98 8964.23 1525.81 8937.42L1525.81 8942.79Z" fill="#EFEFEF"/>
<path d="M-31.1896 7870.36C-31.1896 7870.36 200.165 7891.81 409.041 7850.44C617.916 7809.08 354.85 7747.87 188.926 7771.59C23.0016 7795.31 -31.1896 7783.08 -31.1896 7783.08L-34.9102 7789.98C-34.9102 7789.98 61.9405 7789.59 209.807 7775.44C357.674 7761.28 465.55 7801.67 465.55 7820.88C465.55 7840.09 229.618 7891.81 -31.1701 7865.03L-31.1896 7870.36Z" fill="#EFEFEF"/>
<path d="M1104.32 8519.18C1104.32 8519.18 984.248 8446.06 925.693 8446.06C867.139 8446.06 806.13 8509.34 806.13 8509.34L820.388 8514.87C820.388 8514.87 862.171 8448.21 930.641 8456.88C999.11 8465.54 1086.14 8519.18 1086.14 8519.18L1104.32 8519.18Z" fill="#EFEFEF"/>
<path d="M-31.44 8706.48C-31.44 8706.48 243.217 8619.67 362.274 8577.64C481.331 8535.61 38.9189 8495.3 -31.44 8519.18L-29.492 8535.61C-29.492 8535.61 77.0203 8508.16 211.894 8525.65C346.768 8543.14 371.332 8559.72 371.332 8566.82C371.332 8573.91 189.98 8632.18 107.31 8653.08C24.6406 8673.97 -31.479 8673.86 -31.479 8673.86L-31.44 8706.48Z" fill="#EFEFEF"/>
<path d="M-31.4399 8636.14C-31.4399 8636.14 125.796 8638.49 216.238 8572.78C216.238 8572.78 199.33 8602.46 -31.4399 8625.28L-31.4399 8636.14Z" fill="#EFEFEF"/>
<path d="M20.7407 8797.91C20.7407 8797.91 105.826 8694.52 444.92 8673.78C784.014 8653.04 920.603 8816.38 920.603 8816.38L908.915 8812.46C908.915 8812.46 767.749 8660.41 444.92 8677.39C144.745 8693.38 26.643 8798.93 26.643 8798.93L20.7407 8797.91Z" fill="#EFEFEF"/>
<path d="M567.898 9129.42C567.898 9129.42 658.885 8970.94 997.98 8950.16C1337.07 8929.38 1473.68 9092.8 1473.68 9092.8L1461.99 9088.88C1461.99 9088.88 1320.77 8936.83 997.921 8953.92C697.747 8969.61 573.742 9130.36 573.742 9130.36L567.898 9129.42Z" fill="#EFEFEF"/>
<path d="M1526.86 8706.48C1526.86 8706.48 1328.72 8721.34 1179.12 8721.34C1029.52 8721.34 837.607 8671.94 816.94 8671.94C796.272 8671.94 936.016 8812.81 936.016 8812.81L943.399 8812.81C943.399 8812.81 827.77 8696.13 827.77 8684.68C827.77 8673.23 979.825 8716.4 1180.13 8729.26C1380.43 8742.12 1526.86 8717.5 1526.86 8717.5L1526.86 8706.48Z" fill="#EFEFEF"/>
<path d="M1526.86 8742.39C1526.86 8742.39 1480.79 8754.16 1296.25 8754.16C1111.7 8754.16 985.474 8817.36 985.474 8817.36L1001.47 8817.36C1001.47 8817.36 1109.5 8759.96 1300.67 8759.96C1491.84 8759.96 1526.86 8750.31 1526.86 8750.31L1526.86 8742.39Z" fill="#EFEFEF"/>
<path d="M1535.12 7945.76C1535.12 7945.76 1399.04 7957.52 854.01 7957.52C308.982 7957.52 -63.8111 8020.72 -63.8111 8020.72L-16.574 8020.72C-16.574 8020.72 302.456 7963.32 867.1 7963.32C1431.74 7963.32 1535.12 7953.68 1535.12 7953.68L1535.12 7945.76Z" fill="#EFEFEF"/>
<path d="M-31.4762 9143.69C-31.4762 9143.69 355.556 9111.81 536.031 9063.08C716.506 9014.34 1026.09 8817.99 1026.09 8817.99L1017.71 8817.99C1017.71 8817.99 766.081 8974.08 511.527 9054.14C256.972 9134.2 -31.4762 9121.97 -31.4762 9121.97L-31.4762 9143.69Z" fill="#EFEFEF"/>
<path d="M-31.4444 9068.02C-31.4444 9068.02 217.403 9081.23 532.966 8996.7C848.529 8912.17 964.294 8817.99 964.294 8817.99L950.912 8817.99C950.912 8817.99 778.092 8924.4 529.557 8990.78C281.022 9057.16 -31.4444 9056.14 -31.4444 9056.14L-31.4444 9068.02Z" fill="#EFEFEF"/>
<path d="M-31.4428 8801.87C-31.4428 8801.87 515.923 8831.63 648.791 8872.88C781.658 8914.13 420.884 8996.23 267.29 9012.54C113.697 9028.85 -31.4428 9025.91 -31.4428 9025.91L-31.6765 9018.5C-31.6765 9018.5 115.723 9015.52 273.193 9004.62C430.663 8993.72 670.919 8914.09 665.523 8893.03C653.836 8847.2 -31.4428 8806.77 -31.4428 8806.77L-31.4428 8801.87Z" fill="#EFEFEF"/>
<path d="M-31.4429 8980.82C-31.4429 8980.82 264.271 8984.19 310.067 8943.41C355.862 8902.64 -31.4429 8858.02 -31.4429 8858.02L-31.4429 8980.82Z" fill="#EFEFEF"/>
<path d="M-31.7111 9220.15C-31.7111 9220.15 316.012 9120.44 685.066 9151.14C1054.12 9181.84 1177.29 9244.34 1343.76 9244.34C1510.22 9244.34 1526.86 9194.94 1526.86 9194.94L1526.86 9207.68C1526.86 9207.68 1481.69 9253.24 1305.56 9253.24C1129.43 9253.24 1000.49 9163.06 648.756 9161.14C297.02 9159.22 -31.4773 9230.46 -31.4773 9230.46L-31.7111 9220.15Z" fill="#EFEFEF"/>
<path d="M-31.443 9253.24C-31.443 9253.24 258.797 9153.22 573.835 9188.86C888.872 9224.5 979.373 9304.72 979.373 9304.72L964.958 9304.72C964.958 9304.72 770.964 9206.19 571.653 9191.84C372.342 9177.49 -31.443 9258.22 -31.443 9258.22L-31.443 9253.24Z" fill="#EFEFEF"/>
<path d="M220.607 9304.72C220.607 9304.72 372 9226.3 511.568 9226.3C651.137 9226.3 708.6 9304.72 708.6 9304.72L700.984 9304.52C700.984 9304.52 662.22 9233.2 507.945 9233.2C353.67 9233.2 232.606 9304.72 232.606 9304.72L220.607 9304.72Z" fill="#EFEFEF"/>
<path d="M1526.86 8082.08C1526.86 8082.08 1247.04 8156.03 1061.01 8082.08C874.988 8008.14 1031.48 7983.4 1207.67 7983.4C1383.86 7983.4 1526.86 7968.54 1526.86 7968.54L1526.86 8082.08Z" fill="#EFEFEF"/>
<path d="M1526.86 8114.94C1526.86 8114.94 1307.08 8182.14 1042.31 8114.94C777.553 8047.74 608.298 8025.98 623.024 7996.26C637.751 7966.54 1335.34 7968.54 1420.23 7968.54C1505.12 7968.54 1526.86 7962.11 1526.86 7962.11L1526.86 7957.64C1526.86 7957.64 1490.26 7966.07 1418.17 7966.07C1346.07 7966.07 677.566 7959.87 618.252 7988.1C558.938 8016.33 748.178 8053.97 957.619 8114.94C1167.06 8175.91 1333.02 8150.78 1526.86 8125.53L1526.86 8114.94Z" fill="#EFEFEF"/>
<path d="M1526.86 8152.85C1526.86 8152.85 1259.64 8220.14 971.858 8168.54C684.072 8116.94 567.898 8231.27 567.898 8231.27L577.638 8230.68C577.638 8230.68 638.023 8140.23 945.113 8169.44C1252.2 8198.65 1154.65 8209.24 1526.86 8159.83L1526.86 8152.85Z" fill="#EFEFEF"/>
<path d="M497.321 8230.84C497.321 8230.84 177.687 8201.32 -31.4421 8132.82L-31.6758 8114.78C-31.6758 8114.78 195.939 8195.95 529.559 8230.84L497.321 8230.84Z" fill="#EFEFEF"/>
<path d="M929.835 7931.17C929.835 7931.17 796.792 7945.05 638.114 7850.68C452.711 7740.3 333.225 7736.38 333.225 7736.38L398.189 7736.38C398.189 7736.38 511.032 7769.44 625.005 7836.13C738.977 7902.82 950.307 7931.17 950.307 7931.17L929.835 7931.17Z" fill="#EFEFEF"/>
<path d="M1332.44 9099.15C1332.44 9099.15 1189.87 9068.8 1091.03 9068.8C992.196 9068.8 894.683 9113.42 894.683 9113.42L1332.44 9099.15Z" fill="#EFEFEF"/>
<path d="M840.837 8811.75C840.837 8811.75 779.575 8857.23 605.372 8811.75L840.837 8811.75Z" fill="#EFEFEF"/>
<path d="M466.429 8446.06C466.429 8446.06 264.43 8320.24 92.4283 8303.93C92.3893 8303.85 311.258 8360.78 466.429 8446.06Z" fill="#EFEFEF"/>
<path d="M788.132 8114.94C788.132 8114.94 499.567 7976.97 216.242 8009.63C216.242 8009.63 533.89 8003 788.132 8114.94Z" fill="#EFEFEF"/>
<path d="M561.818 7736.38C561.818 7736.38 706.49 7846.48 887.335 7892.28C887.335 7892.28 741.923 7847.93 575.843 7736.38L561.818 7736.38Z" fill="#EFEFEF"/>
</svg>
