<svg width="43" height="90" viewBox="0 0 43 90" fill="none" xmlns="http://www.w3.org/2000/svg">
<path fill-rule="evenodd" clip-rule="evenodd" d="M4.7259 77.9152C4.79728 77.8778 4.78933 77.9931 4.76337 78.0142C4.73742 78.0353 4.39988 78.172 4.31876 78.2207C4.23764 78.2695 4.30097 78.2921 4.09653 78.393C4.04769 78.4122 3.99361 78.4134 3.94396 78.3964V78.3964L3.91625 78.3136L3.84307 78.1092C3.79348 77.9865 3.75583 77.8593 3.7307 77.7294L3.6736 77.3772L3.63758 77.1338C3.58385 76.7442 3.55274 76.3518 3.54415 75.9587C3.54552 75.6762 3.68482 75.3936 3.69916 75.0868C3.69916 75.0868 3.71995 74.8092 3.71341 74.7524C3.70686 74.6956 3.59318 74.6259 3.59804 74.6065C3.606 74.436 3.75036 74.2719 3.76159 74.1161C3.77281 73.9603 3.68008 73.7509 3.69778 73.5691C3.7091 73.5237 3.69604 73.3273 3.68146 73.3581C3.70087 73.2802 3.80794 73.2931 3.82409 73.2006C3.88555 72.9538 3.84292 72.5156 3.88964 72.1065C3.93635 71.6974 4.02053 71.3596 4.08829 70.8937C4.08532 70.7864 4.06778 70.6799 4.0361 70.5773C4.07492 70.4214 4.24687 70.3125 4.28083 70.1761C4.37141 69.8124 4.30423 69.1129 4.63667 68.7474C4.721 68.658 5.01806 68.7389 5.11212 68.6382L5.1558 68.4628C5.30516 68.5 5.78004 69.4184 5.83702 69.605C5.894 69.7916 5.88291 70.1406 5.9481 70.4327C5.95729 70.4972 5.95941 70.5625 5.95465 70.6275C5.95465 70.6275 5.96301 70.8158 5.96627 70.8304C5.96953 70.845 6.17739 71.0071 6.19859 71.1159C6.21979 71.2246 6.10325 71.499 6.15373 71.684C6.20138 71.8391 6.25782 71.9914 6.3229 72.14C6.34245 72.2276 6.27441 72.3349 6.30046 72.4241C6.32651 72.5134 6.43684 72.4581 6.45632 72.4629C6.4758 72.4678 6.38176 72.5961 6.41102 72.6448C6.47064 72.947 6.56118 73.2422 6.68124 73.5259C6.99915 73.2464 6.88192 72.8862 6.8881 72.529C6.89736 71.9934 6.90827 71.5341 6.91906 70.8815C6.91889 70.6883 6.90088 70.5114 6.92495 70.1933C6.94901 69.8751 6.91643 69.5911 6.95181 69.2274C6.96475 69.1755 6.90457 69.0846 6.94672 69.0261C6.98887 68.9677 6.99697 68.9628 7.03567 68.669C7.07437 68.3752 7.33561 68.2126 7.64907 68.4217C7.96254 68.6308 7.73136 69.6975 8.01382 69.7264C8.48136 69.7877 8.23518 68.6435 8.25288 68.4617C8.29316 68.2215 8.3521 67.9848 8.42918 67.7538C8.44697 67.6824 8.36251 67.6062 8.34783 67.5267C8.32813 66.98 8.34009 66.4326 8.3837 65.8872C8.38214 65.5496 8.40844 65.2124 8.46234 64.8791L8.9607 61.2995L13.806 64.9134L13.9424 65.0301L13.8241 65.0903C13.5385 65.2399 13.1849 65.4967 13.0129 65.578C12.797 65.7008 12.5975 65.8504 12.4192 66.0233C12.2822 66.113 12.1642 66.229 12.0721 66.3644C12.0485 66.4065 12.0202 66.4457 11.9877 66.4813C11.9719 66.5161 11.9626 66.5536 11.9602 66.5917C11.9505 66.6307 11.9602 66.5917 11.9602 66.5917C11.9374 66.4343 11.9603 66.5917 11.9359 66.4684C11.9114 66.3451 11.9017 66.4116 11.9359 66.4684C11.9562 66.4944 11.9675 66.5262 11.9683 66.5592C11.9538 66.6177 11.9554 66.6112 11.9554 66.6112C11.9554 66.6112 11.9845 66.4943 12.0575 66.4228C12.111 66.3309 12.1782 66.2476 12.2569 66.176C12.3366 66.12 12.412 66.058 12.4824 65.9907C12.4305 66.0605 12.3057 66.1191 12.1824 66.2539L12.0916 66.3693C12.0786 66.4212 12.0673 66.4667 12.0267 66.4635C12.0062 66.5014 11.9956 66.5438 11.996 66.5868L11.9862 66.6258C11.988 66.5834 11.9797 66.5411 11.9619 66.5025C11.9716 66.4635 11.9229 66.4928 11.9 66.3905C11.8657 66.3212 11.8272 66.254 11.7846 66.1893C11.7355 66.1295 11.6829 66.0727 11.627 66.0191C11.5539 65.925 11.4727 65.8358 11.3914 65.7466L11.2566 65.6233C11.2046 65.6104 11.2566 65.6233 11.2566 65.6233C11.2658 65.5981 11.2723 65.572 11.276 65.5454C11.2889 65.4934 11.2238 65.3944 11.227 65.3262C11.2302 65.2581 11.2691 65.1575 11.2917 65.0665C11.3144 64.9756 11.2541 64.7191 11.2735 64.5584C11.2928 64.3977 11.4436 64.1525 11.4742 63.9187C11.5048 63.6849 11.5095 63.4171 11.5255 63.1866C11.5094 62.9347 11.5283 62.6818 11.5817 62.4351C11.7665 62.1362 11.7489 62.5112 11.8754 62.3634C11.9936 62.0549 11.6546 62.3084 11.7225 61.8977C11.8798 61.5447 12.1044 61.2257 12.3838 60.9588C12.486 60.885 12.6001 60.8294 12.7213 60.7945C13.0069 60.7277 13.2783 61.0781 13.5981 61.0129C13.7555 60.9328 13.8955 60.8224 14.0101 60.6879C14.2637 60.5282 14.4469 60.2779 14.5224 59.9879C14.5693 59.7996 14.4265 59.9019 14.5935 59.7021C14.6649 59.6095 14.7747 58.9747 14.8345 58.7345C14.8944 58.4942 15.0031 58.3902 15.0679 58.1856C15.0808 58.1337 15.0205 57.96 15.0351 57.9292C15.0497 57.8983 15.1745 57.757 15.2036 57.6677C15.3067 57.407 15.4274 57.1537 15.5649 56.9094C15.6514 56.7654 15.7374 56.6144 15.8227 56.4563C15.8818 56.3608 15.9321 56.2602 15.9734 56.1558C15.9831 56.1168 15.9197 55.9838 15.918 55.9627C15.9164 55.9416 16.0397 55.7792 16.0411 55.6071C16.0426 55.4351 16.1967 55.3424 16.2922 55.042C16.3148 54.9511 16.2789 54.7904 16.2935 54.732C16.3986 54.3098 16.6775 53.9378 16.9011 53.3728C16.9285 53.2624 16.8975 53.1098 16.9347 52.9881C17.1062 52.2997 17.5682 51.6354 18.1122 51.8329C18.2887 51.9309 18.4319 52.0794 18.5232 52.2595C18.6257 52.4298 18.5904 52.9038 18.9359 52.6795C19.3918 52.2287 19.722 51.6666 19.8938 51.049C19.9326 50.8931 19.8968 50.7876 19.9648 50.5701C19.9648 50.5701 20.0947 50.6025 20.0784 50.5294C19.9727 50.2341 20.415 49.3993 20.6191 48.8846C20.6191 48.8846 20.5476 48.8668 20.5946 48.7613C20.6416 48.6557 20.726 48.6767 20.7163 48.7156C20.7793 48.4623 20.7322 48.292 20.8392 48.0565C20.9813 47.8151 21.1422 47.5855 21.3206 47.3695C21.6848 46.6514 22.2199 46.0339 22.8788 45.5712C23.0171 45.5147 23.1614 45.4743 23.3089 45.4507C23.3884 45.4269 23.4642 45.3924 23.5345 45.3483C23.6267 45.2947 23.7122 45.2304 23.7892 45.1565C23.8524 45.0964 23.8361 44.9681 23.9497 44.955C24.0633 44.942 24.5421 44.9578 24.6331 44.9804L24.7629 45.0128C25.2793 45.2655 25.5852 46.0039 25.9677 45.3543C25.9903 45.2633 25.9269 45.1579 25.9739 45.0799C26.0209 45.0019 26.2222 44.9141 26.2611 44.841C26.3 44.7679 26.2137 44.6154 26.225 44.5976C26.25 44.5562 26.2825 44.5199 26.3208 44.4904L26.3825 44.4367L26.3305 44.5066C26.2971 44.5633 26.2474 44.6086 26.1879 44.6366C26.1132 44.6594 26.0677 44.5652 26.0368 44.5231C26.0059 44.4809 25.8743 44.3999 25.8483 44.3658C25.8223 44.3318 25.7896 44.1029 25.7082 43.9033C25.6269 43.7037 25.5783 43.6778 25.5327 43.5561C25.5099 43.4909 25.5058 43.4206 25.5211 43.3532C25.4121 43.0709 25.1914 42.9883 25.274 42.8226C25.3788 42.7845 25.4935 42.7838 25.5987 42.8207C25.8029 42.4992 25.4365 42.9735 25.6326 42.6844C25.6536 42.6 25.7591 42.5917 25.7899 42.4959C25.8206 42.4001 25.9637 42.6013 26.1147 42.6872C26.2509 42.7249 26.3843 42.772 26.514 42.8281C26.722 42.9902 26.8002 43.3407 26.9106 43.3406C26.905 43.2634 26.9105 43.1858 26.9267 43.1101C27.0289 43.0045 27.2739 42.9069 27.1585 42.7333C27.0755 42.4708 26.9733 42.2148 26.8527 41.9674C26.6655 41.4449 26.592 40.9921 26.4356 40.4013C26.3656 40.1011 26.1884 39.788 26.0988 39.3726C26.0662 39.2265 26.0595 39.1697 26.0383 39.0886C25.9652 38.7514 25.9098 38.4107 25.872 38.0677C25.8524 37.9249 25.8409 37.7496 25.8294 37.6019C25.8294 37.6019 25.6929 37.5679 25.7562 37.5078C25.9703 37.3404 25.7999 37.3324 25.7055 37.1296C25.6112 36.9268 25.7409 36.7936 25.6871 36.4836C25.6984 36.4382 25.5506 36.3117 25.544 36.2825C25.5179 36.0828 25.5421 35.875 25.5272 35.6299C25.5124 35.3848 25.5317 35.1966 25.5169 34.9791C25.4288 34.3251 25.3996 33.6645 25.4293 33.0053C25.4979 32.8957 25.5426 32.7729 25.5604 32.6449C25.5935 32.1082 25.7245 31.5822 25.947 31.0927C26.0384 30.8933 26.181 30.7218 26.3605 30.5956C26.5273 30.51 26.7173 30.4806 26.9022 30.5117C27.0871 30.5429 27.2569 30.6329 27.3865 30.7684C27.4206 30.8252 27.4582 31.0346 27.4988 31.0654C27.5394 31.0962 27.7909 31.083 27.8883 31.1624C27.9858 31.2419 28.0282 31.4042 28.0964 31.3797C28.4583 31.2561 28.4122 30.5549 28.4021 30.1523C28.392 29.7498 28.5231 29.3065 28.3328 28.935C28.3221 28.5592 28.3396 28.1831 28.3853 27.81C28.4128 27.6996 28.3543 27.5471 28.3493 27.401C28.3443 27.2549 28.4514 27.2126 28.4514 27.1298C28.4513 27.0471 28.3376 27.005 28.3376 26.9774C28.3977 26.8091 28.4771 26.6483 28.5741 26.4983L28.6332 27.2028L28.5438 27.0908C28.3748 26.8832 28.2058 26.7308 28.1683 26.4938C28.1307 26.2568 28.2378 26.049 28.296 25.7876C28.3523 25.4051 28.4349 25.027 28.5433 24.656C28.6978 24.3517 28.8682 24.0557 29.0538 23.7693C29.2414 23.2309 29.5073 22.7231 29.843 22.2623C29.9533 22.1794 30.0443 22.3124 30.1677 22.3431C30.2911 22.3739 30.4581 22.1464 30.6432 22.2615C30.8284 22.3766 30.9438 22.6054 31.0835 22.654C31.0835 22.654 31.1987 22.5791 31.2669 22.6375C31.3351 22.6959 31.5383 23.0707 31.6293 23.2037C31.7067 23.3 31.7783 23.4007 31.8438 23.5054C31.9852 23.7407 32.0454 23.8591 32.4932 23.6672C32.654 23.6157 32.8069 23.5424 32.9476 23.4493C33.0985 23.2014 33.2359 22.9455 33.3593 22.6828C33.489 22.4944 33.643 22.4017 33.6965 22.2977C33.9729 21.7456 34.2159 21.1774 34.4239 20.596C34.4773 20.3817 34.4771 20.1885 34.5662 20.0245C35.146 18.4722 35.7026 16.5417 35.5454 15.0404C35.5257 14.8148 35.6555 14.5988 35.6519 14.1978C35.6483 13.7969 35.5813 13.3457 35.5793 12.9383C35.5773 12.5308 35.7021 12.2792 35.6743 12.0033C35.6904 11.9383 35.6059 11.8897 35.6269 11.8052C35.6479 11.7208 35.721 11.6769 35.7227 11.7256C35.7046 11.4383 35.5763 11.3443 35.5794 11.1381C35.5983 10.4622 35.6758 9.78921 35.8113 9.12674C35.8693 9.1048 35.9262 9.07988 35.9816 9.05197C35.9816 9.05197 36.1326 8.9723 36.0774 8.97235C36.1943 9.00147 36.2366 9.21891 36.2853 9.18965C36.8077 8.91974 36.7511 7.31933 36.5947 6.70102C36.5518 5.92632 36.5494 5.14989 36.5878 4.37495C36.501 3.8007 36.4588 3.22058 36.4614 2.63982L33.3531 2.96237C33.357 3.00174 33.3587 3.04126 33.3581 3.08082C33.3697 3.3665 33.0081 3.68341 33.0034 3.92365C33.0071 4.40737 33.384 4.85989 33.563 5.44246C33.6054 5.57715 33.5683 5.75408 33.596 5.89203C33.77 6.39684 33.8991 6.91605 33.982 7.44353C34.0084 7.86391 33.8221 8.30717 33.8598 8.73729C33.8994 9.43686 34.2426 10.3293 34.3781 11.2252C34.5137 12.1211 34.6297 12.9846 34.8122 13.8025C34.8856 14.2001 35.0402 14.549 35.1104 14.9872C35.2719 15.9171 35.2337 16.9008 35.3561 17.6555C35.3855 17.8146 35.5318 17.9752 35.5417 18.157C35.4828 18.6074 35.455 19.0614 35.4585 19.5157C35.49 20.3581 35.6923 21.5672 35.6803 22.5849C35.6788 22.8122 35.6174 22.9762 35.6224 23.1775C35.6275 23.3788 35.7057 23.7569 35.6962 24.0442C35.6655 24.1676 35.5731 24.317 35.5927 24.4598C35.5768 24.8835 35.6632 25.2844 35.623 25.6675C35.594 25.9223 35.4984 26.1676 35.4824 26.4257C35.4509 26.9659 35.3704 27.5022 35.242 28.0279C35.2341 28.1151 35.2129 28.2005 35.1789 28.2812L34.9988 28.3122C35.0253 28.4639 35.0401 28.6175 35.043 28.7716C34.9437 29.2105 34.7915 29.6358 34.5896 30.0381C34.4897 30.396 34.3569 30.7439 34.1929 31.0773C33.8087 31.5954 33.3788 31.9091 32.8802 31.5849C32.9321 31.5978 32.6982 31.4016 32.6966 31.4081C32.6949 31.4146 32.7451 31.2133 32.758 31.1614C32.771 31.1094 32.524 30.8824 32.4963 30.772C32.4686 30.6617 32.613 30.5251 32.5934 30.3823C32.5934 30.3823 32.4748 30.277 32.4683 30.2478C32.4618 30.2185 32.5364 30.1406 32.5071 30.0919C32.4778 30.0432 32.3544 29.9021 32.2958 29.7496C32.2373 29.597 32.2955 29.5012 32.2516 29.4006C32.1019 29.0323 31.879 28.4595 31.6765 28.9401C31.662 28.9986 31.7125 29.1284 31.6493 29.2437C31.5861 29.359 31.3654 29.5247 31.3152 29.6709C31.265 29.817 31.3204 29.9825 31.28 30.1449C31.1902 30.3504 31.1165 30.5627 31.0597 30.7797C31.0769 30.9376 31.0373 31.0965 30.9481 31.2279C30.8282 31.4325 30.9014 31.6369 30.7767 31.9162C30.652 32.1955 30.4527 32.5253 30.3377 32.8208C30.2305 33.182 30.1051 33.5374 29.962 33.8859C29.8664 34.0759 29.7545 34.2757 29.6314 34.4933L29.458 34.8019C29.4467 34.8473 29.4289 34.9188 29.3867 34.9496L29.3641 35.0406C29.3446 35.1185 29.4 35.2288 29.3855 35.2873C29.3709 35.3457 29.2767 35.3913 29.2443 35.466C29.1976 35.6275 29.1678 35.7935 29.1555 35.9611C29.1282 36.1164 29.0768 36.2665 29.0033 36.406C28.8672 36.7032 28.5883 36.9923 28.4052 37.4502C28.3777 37.5606 28.334 37.736 28.2773 37.8254C28.2206 37.9147 28.1281 37.9537 28.0568 38.0463C27.9854 38.1388 27.7781 38.5839 27.6614 38.6927C27.4571 39.0143 27.5844 38.0321 27.5293 38.1149C27.4742 38.1978 27.4803 37.6475 27.321 37.3733C27.2771 37.3003 27.2494 37.3555 27.2169 37.2923C27.1844 37.229 27.0982 36.9937 27.0218 36.9402C26.9699 36.9272 26.9002 37.0133 26.8482 36.9728C26.7962 36.9322 26.7213 36.7619 26.6352 36.7198C26.5727 36.695 26.5073 36.6787 26.4405 36.6713L25.9761 36.4867C25.6774 36.4123 25.4353 36.3037 25.2112 36.2065C24.9261 36.0581 24.6492 35.8947 24.3814 35.717C23.9835 35.4869 23.5354 35.3201 23.3956 35.0508C23.3547 34.957 23.3327 34.8561 23.3309 34.7539C23.3292 34.6516 23.3477 34.5501 23.3853 34.4551C23.4664 34.3235 23.815 34.0861 23.8523 34.0196C23.9121 33.9033 23.9589 33.7808 23.9916 33.6543C24.0466 33.5536 24.0695 33.4386 24.0572 33.3246C24.0449 33.2105 23.9981 33.103 23.923 33.0164C23.923 33.0164 23.8124 32.9889 23.7977 32.9094C23.7831 32.8298 23.8089 32.7259 23.8382 32.747C23.8674 32.7681 23.6434 32.6985 23.6206 32.5962C23.5978 32.494 23.5766 32.3576 23.5246 32.2619C23.4725 32.1662 23.3605 32.09 23.2955 31.9911C23.2305 31.8921 23.2838 31.8158 23.2416 31.7363C23.1993 31.6568 23.084 31.5108 23.0271 31.4069C22.9737 31.275 22.9338 31.138 22.9082 30.998C22.8779 30.7487 22.821 30.5033 22.7387 30.266C22.7127 30.1768 22.573 30.0455 22.5616 30.0082C22.5095 29.8021 22.5417 29.5066 22.509 29.3053C22.4629 29.1277 22.3997 28.9548 22.3203 28.7893C22.291 28.6854 22.3379 28.4695 22.3021 28.3641C22.2663 28.2586 22.1462 28.3252 22.1333 28.322C22.1116 28.2346 22.0968 28.1456 22.0891 28.0558C21.8931 27.8612 21.6776 27.6873 21.4459 27.537C20.7281 27.0685 19.6465 26.675 19.2857 26.0747C19.3146 25.7371 19.6691 26.3082 19.7663 26.1393C19.5989 25.8976 19.4446 25.9074 19.2886 25.6755C19.1326 25.4435 19.2639 25.2762 19.0494 25.0848C18.835 24.8935 18.5623 24.9083 18.4259 24.8191C18.1417 24.6587 17.8818 24.4009 17.5748 24.221C17.3621 24.1059 17.0958 24.0672 16.9042 23.9504C16.199 23.5761 15.5686 23.0754 15.0443 22.4733C14.9663 22.3711 15.0116 22.2721 14.9434 22.1585C14.8751 22.045 14.6558 21.8455 14.5891 21.6702C14.5224 21.495 14.5805 21.0957 14.504 20.849C14.3689 20.3946 13.9367 19.9697 13.722 19.4748C13.6683 19.3579 13.6746 19.1664 13.6112 19.061C13.5342 18.9263 13.4462 18.7983 13.348 18.6782C13.3162 18.6534 13.2909 18.621 13.2748 18.584C13.213 18.4721 13.3508 18.2788 13.3816 18.1555C13.3654 17.9852 13.336 17.8163 13.2934 17.6507C13.2477 17.481 13.2332 17.3045 13.2508 17.1296C13.3171 16.8634 13.5605 16.5791 13.6056 16.2593C13.6508 15.9395 13.5317 15.2271 13.5132 14.5811C13.5132 14.5811 13.4222 14.5583 13.4271 14.5113C13.4658 14.1252 13.4633 13.7362 13.4196 13.3507C13.3932 12.9303 13.3652 12.5164 13.3406 12.1999C13.3762 12.0571 13.4395 12.0245 13.4231 11.8687C13.411 11.6534 13.4141 11.4375 13.4323 11.2226C13.437 11.0652 13.3525 10.9338 13.3621 10.8121C13.3935 10.4553 13.4067 10.0971 13.4017 9.73902C13.3967 9.59293 13.5022 9.50194 13.502 9.33638C13.5019 9.17081 13.4512 8.87545 13.4672 8.58975C13.4672 8.58975 13.3374 8.55744 13.3925 8.5022C13.6748 8.31041 13.1468 7.79956 13.1563 7.48465C13.1658 7.16974 13.3588 7.05916 13.4722 6.77013C13.7423 5.84873 13.9593 4.91252 14.1222 3.96623C14.161 3.81036 14.0942 3.41446 14.3961 3.42069C14.2304 4.14435 14.132 4.88176 14.1026 5.62358C14.0501 5.74996 14.0042 5.87893 13.9649 6.01C13.9553 6.18694 14.061 6.34436 14.0677 6.51154C14.0743 6.67873 13.951 6.73077 13.969 6.90768C13.987 7.0846 14.0324 7.09589 14.0163 7.24362C14.0002 7.39134 13.8949 7.56511 13.8966 7.72419C13.8712 8.35239 14.0163 9.04382 14.0055 9.61357C14.0176 9.7229 14.0132 9.83338 13.9927 9.94144C13.9749 10.0129 13.837 9.98536 13.8225 10.099C13.8079 10.2126 13.9654 10.2174 13.9801 10.2693C13.9947 10.3213 13.8909 10.4058 13.8925 10.4269C13.9662 11.1832 13.834 12.102 13.9631 13.0791C13.9909 13.355 14.1356 13.6049 14.1553 13.8581C14.163 14.2075 14.1519 14.557 14.1222 14.9052C14.0817 15.189 14.089 15.4775 14.144 15.7589C14.1733 15.8628 14.3748 16.1337 14.3684 16.2424C14.362 16.3512 14.2273 16.3107 14.2127 16.3416C14.169 16.5169 14.26 16.5948 14.106 16.7702C13.9519 16.9456 13.8498 17.0237 13.8629 17.2477C13.8761 17.4717 13.9703 17.6192 13.9916 17.8384C13.9958 17.9045 13.9794 17.9703 13.9447 18.0267C13.9214 18.0472 13.8996 18.0694 13.8798 18.0933C13.8731 18.1029 13.8684 18.1138 13.866 18.1253C13.8635 18.1368 13.8634 18.1486 13.8657 18.1602C13.868 18.1717 13.8726 18.1826 13.8792 18.1923C13.8859 18.202 13.8944 18.2104 13.9043 18.2167L13.9563 18.2296L13.9806 18.2701C14.0668 18.4226 14.0801 18.6466 14.176 18.8154C14.2719 18.9841 14.5594 19.2971 14.7366 19.555C14.8065 19.6621 14.8327 19.8894 14.8929 20.0079C15.0993 20.3696 15.2729 20.3094 15.1985 20.6082C15.1985 20.6082 15.1191 20.7607 15.124 20.7688C15.1288 20.777 15.3464 20.9277 15.3628 21.0284C15.3791 21.129 15.2315 21.1957 15.2332 21.2444C15.2622 21.4048 15.3036 21.5627 15.357 21.7166C15.4058 21.8254 15.586 21.9047 15.7079 22.0523C15.8297 22.1999 15.8852 22.4758 16.2327 22.7141C16.2782 22.7255 16.3512 22.6816 16.3886 22.753C16.5709 22.9747 16.7857 23.1676 17.0255 23.3254C17.1635 23.4081 17.3695 23.4111 17.5319 23.4515C17.6943 23.492 17.9835 23.7985 18.2839 23.9768C18.669 24.1758 19.0642 24.3549 19.4678 24.5131C19.9285 24.7275 20.3218 25.064 20.6049 25.486C20.6911 25.6385 20.7575 25.5929 20.7771 25.7358C20.7967 25.8786 20.7139 25.7959 20.7757 25.9355C20.9353 26.2471 21.1927 26.4978 21.5085 26.6491C21.5929 26.6701 21.7227 26.7024 21.7975 26.79C21.8722 26.8776 21.7066 26.8501 21.8446 26.9327C22.1012 27.0932 22.4699 27.192 22.7411 27.3768C22.8283 27.4304 22.9071 27.4964 22.975 27.5729C23.029 28.1037 23.0133 28.6653 23.1046 29.0743C23.16 29.3226 23.35 29.5562 23.3973 29.7818C23.4383 30.0171 23.4668 30.2544 23.4824 30.4927L23.5168 30.853C23.523 30.9184 23.5424 30.9819 23.5737 31.0396C23.6689 31.2446 23.7788 31.4425 23.9022 31.6318C23.9591 31.7081 23.9769 31.8021 24.0468 31.9092C24.1167 32.0163 24.2256 32.0503 24.2549 32.0989C24.3589 32.2628 24.3217 32.495 24.416 32.615C24.1937 32.7321 24.2212 32.5665 24.0038 32.6641C24.116 32.8506 24.4467 32.5744 24.5782 32.6003C24.6337 32.8762 24.7636 33.0189 24.7621 33.1634C24.7606 33.3078 24.6698 33.3403 24.5483 33.5514C24.439 33.7443 24.3188 33.9309 24.1884 34.1102C24.1028 34.2182 24.0258 34.3327 23.9582 34.4529C23.934 34.5503 24.0947 34.5972 24.2068 34.7562C24.319 34.9151 24.2817 34.9818 24.3321 35.0288C24.8748 35.3105 25.445 35.5357 26.0337 35.7009C26.2585 35.7914 26.4763 35.8986 26.685 36.0217L26.823 36.1044L26.9205 36.1286C27.0115 36.1513 27.1444 36.0879 27.1964 36.1284C27.2223 36.1595 27.2393 36.1971 27.2453 36.2371C27.2678 36.3215 27.2955 36.4044 27.3283 36.4854C27.39 36.5973 27.4794 36.7369 27.5297 36.7287C27.58 36.7205 27.5621 36.5988 27.5946 36.6345C27.6271 36.6702 27.6094 37.0176 27.6143 37.0533C27.6192 37.089 27.6484 36.9169 27.689 36.9753C27.7296 37.0337 27.6551 37.1117 27.6893 37.2237C27.7539 37.1952 27.82 37.1702 27.8873 37.1488C27.9855 37.1006 28.0703 37.0291 28.1345 36.9404C28.1986 36.8518 28.2401 36.7488 28.2552 36.6404C28.2956 36.478 28.6299 36.382 28.5988 36.0363C28.584 35.8188 28.5678 35.9113 28.6489 35.835C28.73 35.7586 28.7558 35.5719 28.767 35.3609C28.7782 35.1499 28.8254 35.3754 28.8919 35.3299C28.9137 35.2369 28.9214 35.1412 28.9145 35.0459C28.9274 34.9939 28.8477 34.8982 28.8558 34.8657C28.8639 34.8333 28.963 34.7958 28.9872 34.6708C28.9872 34.6708 29.0309 34.4955 29.0567 34.3916C29.0668 34.2821 29.0935 34.1748 29.136 34.0734C29.1683 33.9435 29.35 33.9336 29.4684 33.7354C29.5867 33.5373 29.4505 33.5585 29.5136 33.3881C29.6048 33.2656 29.6856 33.1358 29.7551 32.9999C29.7884 32.8646 29.8088 32.7266 29.8164 32.5875C29.8479 32.3332 29.9212 32.0857 30.0333 31.8553C30.0689 31.7124 30.1514 31.5743 30.2244 31.4201C30.2973 31.2658 30.3052 31.0954 30.3473 30.9265C30.3893 30.7576 30.3228 30.6927 30.3584 30.5223C30.3939 30.3518 30.6678 29.8614 30.7794 29.4409C30.8109 29.1785 30.875 28.9211 30.9703 28.6746C31.0088 28.586 31.0429 28.4954 31.0724 28.4034C31.0918 28.3254 31.2346 28.3611 31.2719 28.3221C31.4357 28.1629 31.3789 28.1418 31.632 28.0669C31.6645 28.075 31.8267 27.9774 31.8349 27.9725C32.1635 28.0041 32.4749 28.1345 32.7279 28.3467C32.7734 28.358 32.6015 28.5773 32.6145 28.6357C32.6275 28.6942 32.8517 28.8466 32.9135 28.9861C32.9753 29.1257 32.8699 29.1615 32.9073 29.2329C32.9447 29.3043 32.9723 29.3594 33.0016 29.4357C33.0863 29.7327 33.1044 30.0199 33.1891 30.2893C33.2737 30.5587 33.4151 30.8215 33.4819 31.0519C33.7918 30.8601 33.7606 30.4317 33.9324 30.1572C34.0005 30.0224 34.1982 29.8924 34.2549 29.7478C34.3116 29.6033 34.2628 29.3566 34.3145 29.1488C34.397 28.8176 34.598 28.4814 34.7048 28.1356C34.8116 27.7898 34.8843 27.4147 34.9213 27.0722C34.9249 26.8716 34.915 26.6709 34.8916 26.4716C34.9369 26.2897 35.0569 26.1679 35.0649 25.9974C35.0758 25.8548 35.0747 25.7114 35.0613 25.5689C35.0466 25.4618 34.954 25.3353 34.9636 25.2136C34.9732 25.0918 35.1368 24.7946 35.1707 24.5754C35.2046 24.3563 35.0748 24.2688 35.0583 24.0578C35.0222 23.566 35.2555 23.0447 35.1205 22.6455C35.0911 22.5416 34.9986 22.4979 34.9855 22.3843C34.9674 22.1246 35.0434 21.847 35.0269 21.5532C35.0104 21.2594 34.9048 21.24 34.8771 21.0468C34.8493 20.8537 34.9613 20.9023 34.9401 20.7935C34.919 20.6848 34.7938 20.4399 34.7904 20.2873C34.787 20.1347 34.8893 20.1395 34.8535 20.034C34.8177 19.9285 34.7087 19.7565 34.7005 19.6234C34.6923 19.4903 34.7637 19.3702 34.7652 19.1981C34.7666 19.026 34.6675 18.8979 34.6625 18.7794C34.6428 18.4986 34.7123 18.2194 34.7007 17.9337C34.6892 17.7584 34.5949 17.6107 34.5963 17.4387C34.5978 17.2666 34.6821 17.0945 34.6479 16.9273C34.5129 16.3472 34.4293 15.7563 34.398 15.1615C34.4059 15.0449 34.4209 14.9288 34.4431 14.8141C34.4219 14.6501 34.2855 14.561 34.2334 14.4101C34.1358 13.9914 34.0735 13.5652 34.0472 13.1361C33.9933 12.7157 33.8256 12.2808 33.7473 11.875C33.6691 11.4693 33.6299 11.1561 33.5906 10.7325C33.5512 10.3088 33.4665 9.95668 33.385 9.56394C33.1929 9.04417 33.0706 8.50116 33.0216 7.94917C33.0343 7.67646 33.2743 7.43279 33.2367 7.08546C33.2056 6.87772 32.7827 5.91713 32.6769 5.56661C32.5711 5.21609 32.5482 5.03106 32.4554 4.71137C32.2992 4.20344 31.9544 3.59338 32.0159 3.37419L37.9435 2.78137C37.7958 2.90324 37.2926 2.8745 37.2051 2.97684C37.1063 3.52812 37.0893 4.0909 37.1546 4.64714C37.2229 4.81589 37.1404 5.0367 37.1618 5.39378C37.17 5.52688 37.2788 5.67123 37.2854 5.78323C37.3117 6.20362 37.2018 6.67288 37.2282 7.09326C37.243 7.36595 37.3618 7.60929 37.3815 7.86249C37.3713 8.01951 37.3508 8.17572 37.3201 8.33005C37.3203 8.5784 37.4228 8.77632 37.4099 8.91106C37.3759 9.13201 37.3218 9.34939 37.2482 9.56048L37.026 9.76033C36.9507 9.8368 36.8687 9.90641 36.781 9.96832C36.5084 10.0384 36.4464 9.70571 36.3021 9.89738C36.1535 10.1774 36.0758 10.4896 36.0757 10.8066C36.071 10.9916 36.2106 11.0677 36.2352 11.3015C36.2482 11.4151 36.1446 11.6651 36.1189 11.9622C36.1158 12.1408 36.2052 12.2803 36.1957 12.4573C36.1208 12.8281 36.0755 13.2042 36.0603 13.5822C36.0506 13.6212 36.1789 13.7704 36.179 13.798C36.1759 13.949 36.1013 14.1097 36.0641 14.2591C36.0269 14.4085 36.131 14.6 36.1198 14.7558C36.0749 15.4343 35.9538 16.0318 35.9057 16.6681C35.9102 16.9322 35.8974 17.1963 35.8674 17.4587C35.8108 17.686 35.6696 17.8095 35.6308 17.9929C35.5402 18.3566 35.6459 18.4864 35.599 18.6747C35.5521 18.8631 35.4093 19.0206 35.3559 19.2073C35.3025 19.394 35.3076 19.5953 35.251 19.795C35.1943 19.9947 35.0565 20.1328 34.9885 20.3228C34.9205 20.5128 35.0081 20.5484 34.9384 20.7172C34.8688 20.8861 34.6483 21.1347 34.5187 21.4059C34.4831 21.5488 34.4752 21.7468 34.399 21.8865C34.2921 22.1495 34.0035 22.4777 33.8464 22.8317C33.8043 23.0006 33.798 23.1921 33.7267 23.3123C33.6088 23.4761 33.4821 23.6333 33.3472 23.7833C33.1624 24.0269 32.9792 24.3193 33.0376 24.2787C32.8598 24.3711 32.662 24.4184 32.4617 24.4166C32.2613 24.4148 32.0645 24.3639 31.8884 24.2683C31.7114 24.1759 31.6576 23.9764 31.5 23.7785C31.3424 23.5806 31.3181 23.6504 31.245 23.5563C31.0764 23.3329 30.85 23.1597 30.5903 23.0553C30.2931 22.8916 30.3304 22.7975 30.0822 23.0184C29.8341 23.2394 30.0954 23.1872 29.9496 23.5509C29.8443 23.7523 29.6708 23.9229 29.5671 24.1454C29.4634 24.3679 29.4555 24.5935 29.3599 24.7835C29.2643 24.9735 29.0711 25.0012 29.0241 25.1344C28.9057 25.4762 28.8715 25.8415 28.9244 26.1993C28.9618 26.2983 28.9635 26.347 29.0058 26.4816C29.0256 26.6338 29.065 26.7828 29.1231 26.9248L29.1393 26.8597C29.0986 26.9114 29.0638 26.9676 29.0357 27.0271C28.9904 27.2118 28.9708 27.4019 28.9776 27.592C28.9571 27.779 28.954 27.9676 28.9684 28.1553C28.9944 28.2721 29.1747 28.4066 29.1797 28.5803C29.1948 29.1289 28.9013 29.4214 29.0154 29.9878C29.0366 30.0966 28.9686 30.1762 29.0433 30.2638C29.1181 30.3514 29.1781 30.3594 29.1798 30.3805C29.2075 30.5185 29.0484 30.5202 29.0501 30.624C29.0518 30.7279 29.1849 30.7197 29.1785 30.8285C29.1241 31.7115 28.7922 32.629 27.9007 32.1655L27.6765 32.0407C27.599 32.0029 27.5247 31.959 27.4541 31.9095C27.4005 31.8479 27.3806 31.4842 27.2863 31.4194C27.1772 31.4476 27.0648 31.4614 26.952 31.4603C26.9001 31.4474 26.7749 31.2575 26.65 31.316C26.5251 31.3746 26.6127 31.4654 26.5284 31.5824C26.5284 31.5824 26.358 31.6296 26.3532 31.6491C26.2405 32.0376 26.1557 32.4337 26.0994 32.8342C26.0509 33.0291 26.1193 33.2807 26.0806 33.5745C26.0055 34.0008 25.9809 34.4345 26.0072 34.8666C26.0154 34.9997 26.0155 35.1929 26.0351 35.3357C26.0547 35.4785 26.1474 35.6051 26.1605 35.7187C26.2277 36.501 26.1553 37.2348 26.2254 37.5626C26.2955 37.8904 26.5262 38.1272 26.5638 38.3366C26.5305 38.5148 26.5154 38.6958 26.5187 38.8771C26.4993 38.955 26.657 39.1253 26.6619 39.161C26.6685 39.3006 26.5419 39.3381 26.5923 39.4403C26.6427 39.5425 26.7238 39.5213 26.8181 39.7241C26.9125 39.927 26.8022 40.0374 26.8689 40.1851C26.9328 40.3174 27.0072 40.4444 27.0916 40.5647C27.1736 40.6537 27.2492 40.7487 27.3175 40.8487C27.355 40.9476 27.256 41.0954 27.2966 41.209C27.3373 41.3226 27.4461 41.3566 27.451 41.3923C27.4934 41.5546 27.4579 41.7802 27.5149 41.9393C27.6353 42.2865 27.8613 42.6532 27.9688 43.0524C27.9688 43.0524 28.0012 43.0605 27.9574 43.0979L27.8194 43.1255L27.5338 43.1648L27.2401 43.2088L27.0906 43.2268C27.0581 43.2188 26.9576 43.2351 26.9885 43.2496C26.9626 43.3536 26.9839 43.4623 26.9888 43.5532L26.994 44.0028C26.994 44.0028 26.9811 44.0547 26.973 44.0872L26.9846 44.2625L26.9959 44.2171C26.9959 44.2171 27.0055 44.1781 26.934 44.1327C26.7524 43.9747 26.5566 43.8336 26.3493 43.7112C26.3383 44.0602 26.6617 44.4787 26.8194 44.787C26.8674 44.9233 26.9324 45.0531 27.0129 45.1731C27.073 45.2364 27.1427 45.2055 27.1849 45.147L27.3178 45.0283L27.3308 44.9764L27.3211 45.0153C27.3167 45.032 27.3084 45.0473 27.2968 45.0601C27.2852 45.0728 27.2708 45.0825 27.2547 45.0885L27.073 45.1812L26.7305 45.3649L26.4922 45.4918C26.437 45.5194 26.3753 45.5454 26.3721 45.6136C26.3391 45.7063 26.3153 45.802 26.3009 45.8993C26.3027 46.086 26.3108 46.0259 26.329 46.4236C26.329 46.4236 26.3047 46.521 26.2837 46.6054C26.2753 46.6653 26.2607 46.724 26.24 46.7808C26.2149 46.8108 26.1873 46.8385 26.1574 46.8637C26.1204 46.9011 26.0776 46.9323 26.0308 46.9563C25.948 46.9839 25.8717 46.958 25.7125 46.877C25.4268 46.8058 24.853 45.925 24.5202 45.9318C24.1875 45.9385 24.1895 46.346 23.9024 46.6124C23.9024 46.6124 23.7531 46.5752 23.7012 46.6727C23.6493 46.7701 23.6494 46.8805 23.4206 46.9407C23.1918 47.001 23.2289 46.7412 22.7825 46.7335C22.3993 47.1178 22.049 47.5335 21.7351 47.9762C21.6541 48.1078 21.6688 48.2425 21.6316 48.3919C21.5247 48.6549 21.3122 48.9262 21.1908 49.2477C20.951 49.8225 20.8298 50.4475 20.4945 51.1848C20.4945 51.1848 20.5514 51.3162 20.4801 51.3812C20.4087 51.4462 20.3957 51.3602 20.3665 51.4219C20.3374 51.4836 20.3781 51.6799 20.3425 51.8228C20.1492 52.3943 19.8881 52.9406 19.5647 53.45C19.5567 53.4824 19.3863 53.5021 19.3312 53.5298C19.097 53.6044 18.8443 53.5962 18.6154 53.5065C18.3866 53.4169 18.1955 53.2513 18.0744 53.0374C17.9054 52.8022 17.8159 52.7454 17.5565 53.1498C17.5404 53.2148 17.5762 53.3203 17.4902 53.4161C17.3561 53.5751 17.2523 53.7573 17.1839 53.9537C17.1063 54.2654 17.1276 54.5121 17.0807 54.6177C16.8263 55.113 16.696 54.7219 16.7241 55.2186C16.7076 55.4858 16.6423 55.7476 16.5316 55.9914L16.4004 56.3518C16.3697 56.4752 16.2822 56.5776 16.2287 56.7091C16.0393 57.097 15.8711 57.4949 15.7249 57.901C15.6306 58.0775 15.5463 58.259 15.4722 58.445C15.4367 58.5878 15.6314 58.5536 15.6283 58.6494C15.5336 58.8193 15.4606 59.0004 15.4112 59.1885C15.3384 59.5638 15.235 59.9325 15.1021 60.2909C15.0195 60.4841 14.8864 60.5476 14.8265 60.6775C14.6239 61.1029 14.5919 61.4812 14.1116 61.665C14.1116 61.665 13.9363 61.6765 13.9265 61.6879C13.7433 61.8698 13.8145 61.7497 13.5224 61.8149C13.4705 61.8019 13.331 61.9189 13.2969 61.9173C12.9625 61.9306 12.7254 61.6922 12.5243 61.8904C12.3232 62.0886 12.2268 63.3613 12.159 63.7997C12.0913 64.238 11.9567 64.3631 12.0284 64.6844C12.1001 65.0057 11.9702 64.9182 11.9251 65.2656C11.9122 65.3176 11.9804 65.4311 11.9594 65.5432C11.9384 65.6552 12.0001 65.7671 11.9888 65.8126C11.9774 65.858 11.8283 65.9864 11.817 66.0595C11.8057 66.1325 11.869 66.1828 11.8723 66.2526C11.8756 66.3224 11.8723 66.2526 11.9178 66.2639C11.9634 66.3245 12.0052 66.3879 12.0429 66.4537C12.1015 66.5787 12.1323 66.5932 12.1373 66.7117C12.1526 66.6472 12.1864 66.5885 12.2346 66.5428C12.3383 66.3755 12.254 66.4649 12.2556 66.4584C12.2572 66.4519 12.2231 66.4503 12.2101 66.447C12.1971 66.4438 12.2377 66.3367 12.1922 66.2701C12.1467 66.2036 11.8381 65.975 12.1284 65.7508L12.1737 65.7069L12.3328 65.5672L10.411 65.6955C10.2568 65.7054 10.1675 65.759 10.109 65.7444C10.0363 65.7237 9.96921 65.6871 9.91245 65.6372C9.85569 65.5873 9.81079 65.5253 9.78098 65.4558L9.53704 64.9675L12.805 65.471C12.9219 65.5001 13.0647 65.5356 13.253 65.5826L13.3441 65.6052L13.4235 65.5906L13.4625 65.6003L13.4219 65.6246C13.3229 65.6896 13.2645 65.7027 13.1899 65.7531C12.9464 65.9016 12.7203 66.0766 12.5152 66.2747C12.7403 66.1194 13.0171 66.0579 13.2868 66.1035C13.5565 66.149 13.7979 66.2979 13.9595 66.5185C14.1212 66.7392 14.1904 67.0141 14.1525 67.285C14.1147 67.5559 13.9726 67.8013 13.7567 67.9692C13.5407 68.137 13.2678 68.2141 12.996 68.1839C12.7241 68.1538 12.4749 68.0188 12.301 67.8077C12.127 67.5966 12.0422 67.326 12.0647 67.0534C12.0871 66.7808 12.215 66.5277 12.4211 66.3479C12.4903 66.2995 12.5564 66.2468 12.6189 66.1902C12.7153 66.099 12.8172 66.0138 12.9239 65.9351C13.046 65.8507 13.1733 65.7741 13.3052 65.7059C13.4479 65.6311 13.6653 65.4784 13.8583 65.3678C13.8583 65.3678 13.7886 65.4263 13.7237 65.3825L13.5028 65.3275L8.87142 63.098L9.01458 65.2925C9.02001 65.348 9.02227 65.4039 9.02127 65.4597C9.00708 65.932 8.73169 66.6222 8.94465 66.9856C9.08282 67.2063 8.8492 67.3688 8.90635 67.7486L8.98785 67.9757C8.95711 68.0991 8.81923 68.2648 8.82746 68.3979C8.8357 68.531 8.99806 68.5162 8.98519 68.651C8.97233 68.7857 8.93181 69.0033 8.92857 69.0162C8.86387 69.276 8.67752 69.5537 8.66304 69.695C8.64856 69.8362 8.84493 69.7403 8.85478 69.8669C8.86463 69.9935 8.73994 70.328 8.69303 70.5163C8.74313 70.6047 8.76564 70.7061 8.75763 70.8073C8.74962 70.9086 8.71139 71.0051 8.64802 71.0845C8.57238 71.1096 8.49204 71.1171 8.41306 71.1064C8.33408 71.0956 8.2585 71.0669 8.19233 71.0224C8.12616 70.978 8.07119 70.919 8.03136 70.85C7.99153 70.7809 7.96801 70.7037 7.96266 70.6241C7.97884 70.5592 7.8522 70.4862 7.88134 70.3969C7.91048 70.3076 8.03378 70.3108 8.01913 70.2588C8.00447 70.2069 7.85503 70.1421 7.82739 70.0869C7.79975 70.0317 7.76209 69.6017 7.54285 69.485C7.46649 69.6645 7.45065 69.8639 7.49784 70.0531C7.48814 70.0921 7.41679 70.1847 7.45417 70.2285C7.49154 70.2723 7.60369 70.3761 7.61678 70.4897C7.62987 70.6033 7.50504 70.7998 7.50516 70.9378C7.54278 71.2576 7.80111 71.5771 7.7057 71.9878C7.66203 72.1632 7.46414 72.2932 7.46259 72.3825C7.46105 72.4718 7.63008 72.707 7.679 72.9537C7.72791 73.2004 7.69671 74.6272 7.36261 74.944C7.1865 75.0018 7.00386 75.0374 6.81893 75.05C6.63709 75.0047 6.72459 74.8747 6.64822 74.7936C6.57186 74.7125 6.64831 74.7937 6.57687 74.7759C6.25385 74.7713 6.50347 74.4886 6.42858 74.2354C6.40253 74.1462 6.17367 74.0409 6.11351 73.9225C6.05334 73.8041 6.11493 73.7504 6.10192 73.7196C5.9685 73.3691 5.98246 72.7035 5.87333 72.2832C5.8277 72.0787 5.70919 71.8906 5.65871 71.7056C5.60822 71.5206 5.70378 71.303 5.5998 71.1943C5.5998 71.1943 5.45693 71.1587 5.44394 71.1555C5.40152 70.9104 5.53909 70.6067 5.4837 70.386C5.42832 70.1653 5.2449 70.0989 5.16354 69.8718C4.85672 69.8298 5.04851 70.1673 4.85216 70.2356C4.74176 70.2081 4.91852 69.9693 4.79837 69.9256C4.62797 69.9729 4.72068 70.2374 4.85216 70.2356C5.19305 70.2516 4.77803 70.7552 4.76842 70.9045C4.75881 71.0538 4.87075 71.0197 4.85462 71.1398C4.8385 71.2599 4.70874 71.4207 4.68614 71.5668C4.62144 71.8266 4.69647 72.1902 4.6627 72.5473C4.49441 73.0352 4.39337 73.5436 4.3622 74.0587C4.3866 74.1269 4.5602 74.1495 4.56028 74.2323C4.56035 74.3151 4.40807 74.5392 4.36609 74.7909C4.32411 75.0425 4.47528 75.3491 4.44626 75.5764C4.41725 75.8037 4.21943 75.9613 4.21631 76.1123C4.22543 76.2584 4.24453 76.4037 4.27351 76.5472C4.26219 76.5927 4.24265 76.6706 4.26708 76.7664C4.25905 76.8739 4.2576 76.9817 4.26257 77.0894C4.27078 77.1949 4.391 77.2662 4.39756 77.3506C4.40413 77.435 4.39118 77.5697 4.38804 77.6931C4.38537 77.8763 4.40963 78.059 4.45997 78.2352L4.54946 78.485L4.57062 78.5386L4.64213 78.5565L4.74108 78.5466C4.85178 78.5112 4.95706 78.4609 5.05415 78.397C5.39637 78.1828 5.72632 77.9495 6.04219 77.6982C6.44121 77.3699 6.77363 77.032 6.48964 77.1199C6.11291 77.2474 5.76144 77.4399 5.45127 77.6889C5.33608 77.7637 5.43998 77.7343 5.28421 77.8059C5.15683 77.9048 5.02175 77.9934 4.88027 78.0709C4.83638 77.9979 5.32623 77.6923 5.64416 77.4404C5.79664 77.3266 6.00759 77.1723 6.15681 77.0439L7.17536 76.1664C7.33269 76.0332 7.60691 75.8187 7.7318 75.705C7.85669 75.5912 7.7982 75.5767 7.91497 75.4678C8.03175 75.3589 8.23933 75.2175 8.25717 75.2013C8.42745 75.0161 8.42581 74.9398 8.59608 74.7546C8.12563 75.065 7.8304 75.2536 7.20746 75.6779L7.35013 75.5479L7.467 75.439C7.51079 75.4016 7.52538 75.4535 7.5789 75.4048C7.63242 75.3561 7.86932 75.2633 7.9521 75.2633C8.03489 75.2632 7.91336 75.4191 7.98641 75.4304C8.05947 75.4417 8.28173 75.3247 8.3353 75.3311C8.48467 75.3683 8.53833 75.4299 8.6812 75.4655C8.82408 75.5011 9.11134 75.483 9.13577 75.5787C9.1602 75.6745 8.94117 75.8889 8.94774 75.9733C8.95431 76.0577 9.35179 75.8464 9.07121 76.1144C8.79779 76.3525 8.47634 76.5288 8.12863 76.6314C7.64506 76.8007 7.85905 76.385 7.3658 76.6208C7.21329 76.7069 7.2912 76.6988 7.33992 76.7247C7.35259 76.7589 7.37002 76.7911 7.39185 76.8204C7.50056 76.8621 7.61399 76.8904 7.72957 76.9045C7.78802 76.9191 7.71671 76.9565 7.79626 76.9694C7.89318 76.9822 7.98571 77.0175 8.06663 77.0724C8.14754 77.1273 8.21447 77.2002 8.26227 77.2855C8.29941 77.3493 8.31731 77.4226 8.31363 77.4964C8.30995 77.5701 8.28492 77.6412 8.24161 77.701C8.12812 77.8521 8.17844 77.8164 7.87508 78.0098C7.73556 78.0992 7.62187 78.1123 7.55381 78.2471C7.39663 78.5459 7.81211 78.539 7.89186 78.7727C7.88215 78.8117 7.8759 79.0032 7.88573 79.1022C7.89556 79.2012 7.9752 79.4073 7.68156 79.5894C7.62477 79.6235 7.43501 79.6658 7.41396 79.7227C7.35573 79.9565 7.53284 80.2972 7.57214 80.6932C7.59948 80.8813 7.61215 81.0712 7.61 81.2613C7.60855 81.461 7.5439 81.6932 7.54567 81.8522C7.56218 82.1736 7.67942 82.6442 7.72035 83.0338C7.6977 83.1247 7.67505 83.2156 7.65564 83.2936C7.71429 83.5289 7.69526 83.9932 7.79453 84.2869C7.61786 84.5808 7.72943 84.1327 7.51713 84.5143C7.44096 84.654 7.36314 84.6346 7.54677 84.8665C7.69942 84.9459 7.68286 84.6246 7.76719 84.5352C7.97028 84.7445 7.84224 85.0092 7.89765 85.2575C7.95306 85.5058 8.29587 85.8187 8.25379 85.9599C8.21171 86.1012 8.14978 85.9341 8.2766 86.1726C8.32699 86.2472 8.39041 86.2975 8.46841 86.3997C8.55148 86.5247 8.62483 86.656 8.68787 86.7923C8.7737 86.9248 8.87223 87.0487 8.98203 87.1621C9.03726 87.2173 9.1606 87.2756 9.20609 87.3145C9.25157 87.3534 9.1851 87.3989 9.21111 87.433C9.23711 87.467 9.49039 87.5025 9.36229 87.6569C9.25605 87.6777 9.14605 87.6671 9.04576 87.6263C8.99381 87.6133 8.88994 87.6978 8.7974 87.6817C8.70486 87.6655 8.49369 87.3784 8.32959 87.2065C8.28413 87.1952 8.21269 87.1774 8.18176 87.08L7.91676 86.6485L8.22197 86.7246C8.37278 86.5621 7.92975 86.6518 7.78355 86.5188C7.86964 86.5885 7.55111 86.1505 7.54459 86.1213C7.53807 86.0921 7.57501 85.6944 7.45804 85.5825C7.21437 85.3701 7.45807 85.5824 7.3961 85.2497C7.37493 85.1686 7.29364 85.0794 7.25132 84.9447C7.209 84.81 7.20888 84.5893 7.14376 84.38C7.14376 84.38 7.14519 84.2079 7.13543 84.1917C6.92583 83.9532 7.13551 84.1917 7.13193 83.8183C7.14164 83.7794 7.02621 83.7161 7.02292 83.6739C7.04598 83.5222 7.0611 83.3695 7.06805 83.2162C7.04678 83.0247 6.88588 82.8121 6.84836 82.6027C6.81084 82.3934 6.92272 82.304 6.92581 82.1255C6.9289 81.9469 6.84768 81.8853 6.83947 81.7798C6.83126 81.6743 6.93189 81.6028 6.93353 81.6239C6.95456 81.5395 6.83448 81.5509 6.82306 81.486C6.83902 81.1454 6.82229 80.8041 6.77334 80.4667C6.71962 80.2947 6.54756 80.1552 6.49548 80.0043C6.44341 79.8534 6.54239 79.816 6.55533 79.764C6.56827 79.7121 6.35046 79.4509 6.26756 79.313C6.18465 79.1751 6.25274 79.068 6.1926 78.9771C6.13246 78.8863 6.03024 78.9367 6.02374 78.9351C6.01725 78.9335 6.02519 78.763 5.88068 78.7063C5.76137 78.6396 5.63777 78.5812 5.51052 78.5314C5.38163 78.4793 5.24603 78.4456 5.1078 78.4311C5.02948 78.4232 4.95045 78.4243 4.87239 78.4345C4.80095 78.4167 4.74582 78.4443 4.74253 78.4021C4.73925 78.3599 5.0476 78.1746 5.09299 78.1031C5.19347 77.9212 4.62534 78.0419 4.29592 78.1461C4.25696 78.1364 4.25702 78.1364 4.19857 78.1218L3.83999 78.2601L3.33851 78.4732C3.25901 78.5154 3.29961 78.4635 3.21687 78.5187C3.13414 78.574 2.67505 78.839 2.67991 78.8195C2.81458 78.7063 2.95775 78.6036 3.10817 78.5124L3.7116 78.0833C3.86734 77.9842 4.04409 77.8833 4.41071 77.6298L4.15286 77.7794C4.05552 77.8379 3.94351 77.9273 3.82509 78.015C3.70668 78.1028 3.29471 78.4278 3.03516 78.6115L2.75283 78.8032C2.67171 78.852 2.74316 78.8422 2.58416 78.9267C2.42516 79.0113 2.12668 79.2128 2.18995 79.1803L2.43985 79.0356C2.43985 79.0356 2.57443 78.9657 2.54037 78.9917C3.24124 78.5869 3.57537 78.3529 4.12371 78.0066C4.53418 77.7709 3.934 78.187 3.73934 78.3316L3.32727 78.6014C3.23643 78.6616 3.26243 78.6681 3.14886 78.7363L2.91361 78.8777C2.76272 78.9574 2.58273 79.0712 2.43346 79.1444C2.28419 79.2176 1.87196 79.4045 1.90929 79.3931L2.26301 79.2744L2.64595 79.1215C3.09541 78.923 2.8683 79.0319 3.07921 78.9051L3.29988 78.7946L3.57085 78.6207C3.80609 78.4793 4.14679 78.2744 4.38203 78.133C4.61727 77.9916 4.67715 77.8892 4.90426 77.7251L5.32604 77.4439C5.45871 77.3257 5.60461 77.2232 5.7608 77.1384C5.93119 77.0912 5.53052 77.3707 5.32613 77.5267L5.00341 77.7705L4.85082 77.8842L4.6027 78.0224C4.52646 78.0793 4.59132 78.0679 4.52158 78.1264C4.45183 78.1849 4.29929 78.2434 4.28956 78.2548C4.27983 78.2662 4.19225 78.3409 4.09167 78.4125L3.80935 78.6042C3.67413 78.7058 3.53149 78.7971 3.38266 78.8773L3.0712 79.0204C2.90733 79.0969 2.92188 79.1212 2.78719 79.1636C2.75089 79.1792 2.71145 79.1859 2.67202 79.1831C2.67202 79.1831 2.67202 79.1831 2.67202 79.1831L2.62492 79.0403L2.53525 78.7628C2.47491 78.5941 2.43293 78.4195 2.40988 78.2419C2.3854 78.0909 2.36248 77.8783 2.3494 77.7647L2.32971 77.4563C2.29819 76.6967 2.31412 76.3834 2.32189 75.9922C2.32662 75.8347 2.26795 75.5719 2.27925 75.4988C2.34071 75.252 2.41534 75.2016 2.4038 74.9987C2.35231 74.5092 2.37309 74.0147 2.46569 73.5313C2.53656 73.4076 2.62082 73.2921 2.71697 73.1869C2.82399 73.0618 2.92469 72.9628 2.92469 72.9628C3.09511 72.9431 3.26599 73.4478 3.36869 73.9493C3.4267 74.3643 3.45139 74.7833 3.44274 75.2023L3.44178 75.9539C3.43722 76.3045 3.44898 76.6454 3.43959 77.043L3.45103 77.2459L3.46755 77.4845L3.49531 77.7604C3.50678 77.8806 3.52965 78.038 3.55736 78.1759C3.58956 78.3258 3.63373 78.4728 3.6893 78.6157L3.77062 78.8429C3.76092 78.8818 3.77062 78.8429 3.77062 78.8429L3.84863 78.8623C3.96997 78.8278 4.08535 78.7752 4.19095 78.7062C4.13863 78.2793 4.6124 78.0663 4.7259 77.9152Z" fill="white" stroke="white" stroke-width="3.10104"/>
</svg>
