<svg width="65" height="104" viewBox="0 0 65 104" fill="none" xmlns="http://www.w3.org/2000/svg">
<path fill-rule="evenodd" clip-rule="evenodd" d="M30.2466 94.2302C30.1679 94.2302 30.002 94.5165 30.0195 94.5434C30.037 94.5702 30.5087 94.5432 30.5787 94.5969C30.6486 94.6505 30.4913 94.7133 30.6312 94.7938C30.6521 94.8073 30.6764 94.8144 30.7012 94.8144C30.7259 94.8144 30.7502 94.8073 30.7712 94.7938H30.8762H30.9287L30.8147 94.8384C30.6314 94.9055 30.4533 94.9862 30.2816 95.0799L30.002 95.2321L29.8009 95.3214C29.6438 95.3916 29.4941 95.4786 29.3549 95.5809L29.1188 95.7597L29.0403 95.8045L31.2433 94.0155C31.2403 93.9679 31.2403 93.9202 31.2433 93.8725C31.2433 93.8725 31.4091 93.6755 31.4353 93.6845C31.4616 93.6934 31.4357 93.8009 31.5493 93.783C31.663 93.7651 31.8552 93.5772 31.9514 93.5414L32.0824 93.4609C32.0824 93.4609 32.0038 93.5952 32.0824 93.5773C32.2797 93.4708 32.4643 93.3418 32.6331 93.1927C32.7744 93.0888 32.9088 92.9751 33.0352 92.8527C33.086 92.7827 33.1298 92.7078 33.1662 92.6291C33.1662 92.6291 33.1662 92.7544 33.1662 92.7186C33.1662 92.6828 33.4025 92.2356 33.4112 92.4592C33.4025 92.6141 33.4025 92.7694 33.4112 92.9243C33.4112 92.9243 33.4112 92.9243 33.4112 92.9243C33.3442 93.3881 33.2054 93.8379 33.0002 94.2571C32.8718 94.4694 32.7255 94.6699 32.5631 94.8563C32.5268 94.9024 32.4861 94.9445 32.441 94.9816C32.4024 95.0256 32.3614 95.0673 32.3185 95.1068C32.2311 95.2231 32.1522 95.4645 32.0735 95.5451C31.9948 95.6256 31.8115 95.6793 31.6629 95.8224C31.5142 95.9655 31.3656 96.1534 31.2258 96.2875C31.0859 96.4217 31.0682 96.3411 30.9808 96.4127C30.8933 96.4842 30.9022 96.5915 30.8672 96.6273C30.8322 96.6631 30.7713 96.6273 30.7276 96.6273C30.3954 96.8957 30.0456 97.0836 29.6959 97.3698C29.8358 97.665 30.3252 97.3698 30.6487 97.1462C31.162 96.8719 31.6504 96.5516 32.1085 96.189L32.607 95.7687C32.8169 95.5898 33.0004 95.3752 33.2102 95.1963C33.2102 95.1963 33.2802 95.062 33.3152 95.062C33.3502 95.062 33.3589 95.0621 33.5162 94.9011C33.6736 94.7401 33.8046 94.9011 33.7958 95.3483C33.7871 95.7955 33.0179 96.2428 33.0266 96.547C33.0354 96.8511 33.28 96.6632 33.5073 96.4574C33.7346 96.2517 33.9182 95.9833 33.9794 95.9296C34.2067 95.7328 34.4165 95.724 34.4865 95.6525C34.5564 95.5809 34.4863 95.5004 34.565 95.4378C34.7311 95.1427 35.1248 94.8296 35.2996 94.5434C35.3085 94.5213 35.3236 94.5025 35.3432 94.4896C35.4339 94.3385 35.5533 94.2076 35.6944 94.1046C35.8356 94.0017 35.9956 93.9289 36.1648 93.8904C36.3659 94.0156 36.5672 94.2212 36.8294 94.4091C37.4414 94.8295 37.2053 94.8563 37.4501 95.3035C37.5686 95.3592 37.6956 95.3926 37.8257 95.402C37.9568 95.402 37.8258 95.2946 37.8782 95.2946H38.0618L38.2103 95.3662C38.2103 95.3662 38.1407 95.3662 38.1582 95.3662C38.1891 95.4051 38.21 95.4511 38.2193 95.5003V95.5003C38.2193 95.5003 38.2193 95.5004 38.2193 95.4378C38.1893 95.3509 38.169 95.2609 38.1582 95.1694C38.1533 95.1428 38.1533 95.1155 38.1582 95.0889C38.1737 95.0165 38.2002 94.9471 38.2368 94.8832C38.3021 94.7821 38.3496 94.6702 38.3768 94.5523C38.4292 94.3019 38.4641 93.8993 38.5078 93.5952C38.5515 93.291 38.5078 92.7543 38.6739 92.6201C38.9886 92.316 38.9272 92.808 39.137 92.6738C39.3468 92.3429 38.805 92.477 38.9449 91.9851C39.2495 91.5881 39.6504 91.2798 40.1076 91.0906C40.2871 91.0604 40.4699 91.0604 40.6493 91.0906C41.1126 91.1622 41.4538 91.7884 41.9696 91.851C42.2116 91.849 42.4492 91.7844 42.6602 91.6632C42.8875 91.5737 43.4121 91.5288 43.6044 91.0369C43.7006 90.7775 43.4907 90.8491 43.7704 90.6702C43.9367 90.5023 44.0804 90.3128 44.1986 90.1066C44.2892 89.9661 44.3888 89.8317 44.4961 89.7041C44.6085 89.5855 44.7314 89.4778 44.8632 89.3823C45.0214 89.2511 45.1945 89.1398 45.3788 89.0512C45.5536 88.9886 45.7198 88.9439 45.9034 88.8634C46.087 88.7829 46.1481 88.5415 46.218 88.5146C46.2879 88.4878 46.3843 88.5146 46.4455 88.5146C46.7107 88.4333 46.9931 88.4333 47.2582 88.5146C47.2582 88.5146 47.2582 88.3 47.2582 88.3C47.2582 88.3 47.4508 88.4966 47.4682 88.4072C47.4857 88.3178 47.6169 88.5413 47.7043 88.5502C47.7917 88.5592 47.7043 88.3535 47.7043 88.3445C47.7043 88.3356 48.0451 88.613 48.2199 88.6756C48.2199 88.6756 48.1762 88.4788 48.2199 88.443C48.3773 87.8348 48.6834 87.6379 49.5052 88.7828C49.7753 89.1932 50.0036 89.631 50.1868 90.0889C50.3792 90.5093 50.3792 91.2249 50.8425 91.4127C51.3058 91.6006 51.7165 90.7687 51.7602 90.0531C51.7602 89.8742 51.6467 89.6416 51.6467 89.3823C51.6467 89.3823 51.8477 89.552 51.7952 89.4447C51.5067 88.8633 51.6993 88.1031 51.6031 87.5575C51.6031 87.5575 51.4808 87.4413 51.4896 87.3697C51.4983 87.2981 51.6204 87.3697 51.6292 87.3697C51.5592 87.0835 51.3406 86.815 51.3056 86.6183C51.2706 86.4215 51.3844 86.2427 51.3756 86.0549C51.3756 85.4377 51.0347 84.7757 51.3756 84.4269C51.5417 84.248 51.8914 84.3373 51.8127 83.8453C51.8127 83.738 51.6207 83.595 51.6906 83.5145C51.7606 83.434 52.2762 83.1567 52.3898 83.121C53.1853 82.9689 54.8201 83.8274 54.1382 82.7451C54.0508 82.611 53.8235 82.5395 53.7361 82.4143C53.6487 82.2891 53.6837 82.0475 53.6051 81.9313C53.5264 81.815 53.2292 81.6539 53.203 81.6091C53.0543 81.3408 53.0805 80.9293 52.9494 80.7147C52.9494 80.661 52.6958 80.6432 52.6784 80.6075C52.6609 80.5717 52.6784 80.2318 52.5473 79.9814C52.4162 79.7309 52.3547 79.713 52.2848 79.552C52.2149 79.391 52.2848 79.2121 52.2848 79.2389C52.11 78.8632 51.7341 78.8005 51.8827 78.5054C52.0532 78.419 52.2443 78.3849 52.4333 78.4071C52.7918 77.8794 52.1624 78.6755 52.4333 78.2014C52.512 78.0672 52.6609 78.0313 52.7134 77.8882C52.9232 77.8077 53.0015 78.0224 53.255 78.1029C53.5085 78.1834 53.7798 78.103 53.9371 78.2193C54.2956 78.3892 54.418 78.7827 54.6103 78.7558C55.7205 78.6127 54.6628 77.4857 54.4967 77.1905C54.1645 76.5823 54.0158 76.0635 53.7186 75.4016C53.5787 75.0706 53.2638 74.7038 53.0715 74.2298C53.0103 74.0688 52.9931 73.9973 52.9494 73.9079C52.8027 73.5205 52.6828 73.1229 52.5909 72.7182C52.5437 72.5415 52.5059 72.3624 52.4773 72.1816C52.4773 72.1816 52.2501 72.1278 52.3463 72.0742C52.6872 71.8774 52.3459 71.8595 52.2323 71.6359C52.1187 71.4123 52.2324 71.2422 52.1363 70.8755C52.1363 70.8308 51.8829 70.6877 51.8742 70.6519C51.8217 70.4193 51.8304 70.169 51.7867 69.8828C51.743 69.5965 51.7868 69.3818 51.7081 69.1224C51.4982 68.3624 51.3862 67.5776 51.3756 66.7879C51.3756 66.7879 51.5681 66.5465 51.5506 66.3676C51.5649 65.7387 51.7332 65.1236 52.0402 64.5786C52.1924 64.327 52.4146 64.1275 52.6784 64.006C52.9687 63.9024 53.2789 63.872 53.5833 63.9172C53.8876 63.9623 54.1771 64.0817 54.4267 64.2655C54.4967 64.337 54.5839 64.5785 54.6538 64.6232C54.7238 64.6679 55.1434 64.6233 55.327 64.7217C55.5105 64.8201 55.5981 65.0079 55.703 64.9811C56.3149 64.8469 56.1138 64.0866 56.0701 63.6036C56.0264 63.1206 56.245 62.6553 55.9391 62.1634C55.9128 61.7185 55.9304 61.272 55.9916 60.8306C55.9916 60.6875 55.9126 60.4999 55.8951 60.3299C55.8776 60.16 56.0351 60.142 56.0176 60.0347C56.0001 59.9273 55.7991 59.8647 55.7991 59.8379C55.7991 59.8111 56.0001 59.5069 56.0176 59.328C56.0351 59.1491 55.8689 59.0328 55.8951 58.9076C55.9213 58.7824 56.1052 58.7109 56.1751 58.5231C56.245 58.3352 56.1051 57.8431 56.1226 57.5122C56.1401 57.1812 56.2712 56.8683 56.2712 56.5463C56.2712 55.9649 55.9041 55.276 56.1401 54.8288C56.2275 54.6767 56.4896 54.7483 56.6557 54.6231C56.8218 54.4979 56.9005 54.2295 57.2589 54.1848C57.585 54.2028 57.9119 54.2028 58.2381 54.1848C58.2381 54.1848 58.3345 54.0149 58.4831 54.0149C58.6317 54.0149 59.2608 54.2207 59.5144 54.2833C59.7132 54.314 59.9091 54.3618 60.1 54.4263C60.5196 54.5873 60.7119 54.6856 61.1577 54.1042C61.3229 53.9145 61.4639 53.7041 61.5773 53.4781C61.562 53.0971 61.5214 52.7175 61.4552 52.3421C61.4552 52.0649 61.5948 51.8592 61.5773 51.7161C61.4874 51.0522 61.3562 50.3949 61.1842 49.7483L55.292 50.6427C55.3762 50.6642 55.4585 50.6943 55.537 50.7323C56.1227 51.1079 55.9303 51.1974 55.9566 50.938C55.9685 50.8429 55.9921 50.7497 56.0266 50.6606C56.0626 50.5006 56.1213 50.3469 56.2011 50.2045C56.2011 50.1329 56.2799 50.0882 56.3237 49.9898C56.3674 49.8914 56.4285 49.784 56.4897 49.6856C56.5998 49.4882 56.7286 49.3026 56.8743 49.1311C57.196 48.6653 57.5528 48.2257 57.941 47.8163C58.0543 47.7114 58.1594 47.5977 58.2556 47.4763V47.4226L57.766 46.8681C57.2854 46.2968 56.7189 45.8075 56.0876 45.419C55.8865 45.3027 55.8778 45.0522 55.598 44.775C55.3183 44.4977 54.8811 44.2562 54.6188 43.9521C54.3566 43.648 54.3655 43.4064 54.1557 43.1917C54.1032 43.1917 53.9719 43.1918 53.9632 43.0756C53.9544 42.9593 54.0247 42.9144 54.0596 42.9502C53.8673 42.7534 53.6135 42.7625 53.5086 42.6104C53.3441 42.3555 53.2147 42.0786 53.124 41.7876C53.124 41.7876 53.124 41.698 53.124 41.6622H52.5909C52.2154 41.6753 51.8399 41.6424 51.4721 41.564L51.236 41.5013L51.0525 41.4117L51.236 41.5013C51.3018 41.5332 51.3729 41.5515 51.4456 41.555C51.263 41.5187 51.0884 41.449 50.93 41.3493C50.8426 41.242 50.93 41.3493 50.93 41.3493C50.93 41.3493 50.93 41.4655 50.93 41.5281C50.9426 41.6021 50.9426 41.6778 50.93 41.7518L54.2867 38.5316C53.8422 37.8674 53.2408 37.3289 52.5384 36.9663C51.9526 36.6711 51.122 35.6515 50.1954 35.0164C49.2687 34.3813 48.3948 34.2293 48.0014 33.7463C47.7479 33.4332 47.8263 32.5834 47.5728 32.333C47.221 32.0318 46.7945 31.8366 46.3405 31.7693L45.4663 31.6173L44.8717 31.5547H44.4521H43.954H43.6565H43.4994L43.2194 31.6084C42.914 31.6797 42.6198 31.7942 42.3452 31.9484C42.1035 32.0686 41.8893 32.239 41.716 32.4491L41.1039 33.46C41.0602 33.5226 41.1039 33.4601 41.1039 33.5048H41.1914C41.5693 33.5955 41.9594 33.6195 42.3452 33.5762C42.5288 33.5046 42.258 33.2632 42.4067 33.1827C42.4914 33.1392 42.5833 33.1118 42.6777 33.1021L42.3192 33.2274C42.0744 33.3169 41.847 33.4689 41.576 33.5851C41.0438 33.8139 40.5442 34.1148 40.0901 34.4796L40.0376 34.5423C39.9072 34.751 39.7639 34.951 39.6091 35.1415C39.1108 35.5887 38.3766 35.6603 37.9657 36.036C37.8783 36.1165 37.8435 36.376 37.7211 36.4297C37.4239 36.5102 37.109 36.2598 36.6544 36.4297C36.3572 36.5549 35.9375 36.6532 35.4917 36.7964C35.0007 36.9095 34.5 36.9724 33.9969 36.9842C33.7696 36.9842 33.6208 36.9036 33.4198 36.9215H33.3237L30.9897 43.2813C31.288 43.3411 31.5806 43.428 31.8639 43.5407C31.995 43.6123 32.0476 43.8537 32.1875 43.9253C32.6245 44.131 33.1401 44.1399 33.5073 44.3456C33.8744 44.5514 33.9444 44.7124 34.1804 44.8555C34.6787 45.1078 35.153 45.4072 35.5967 45.75C35.5967 45.75 35.7454 45.8394 35.7367 45.893C35.6894 45.9769 35.6366 46.0576 35.5792 46.1346C35.6874 46.2422 35.8013 46.3438 35.9203 46.4388C36.2331 46.6756 36.5896 46.8453 36.9682 46.9375C37.3468 47.0298 37.7396 47.0425 38.1232 46.9753C38.2924 46.9435 38.4588 46.8987 38.6214 46.8412L38.8139 46.7517L38.8574 46.6355C38.9011 46.4924 38.9537 46.3404 38.9974 46.1883L39.1545 45.7321L39.2245 45.5174L39.181 45.4458C39.1155 45.3583 39.0568 45.2656 39.0059 45.1685C38.8337 44.7978 38.7557 44.3888 38.7789 43.979C38.7263 43.6505 38.747 43.314 38.8399 42.995C38.8907 42.8986 38.9749 42.8253 39.076 42.7893C39.2945 42.7088 39.6005 42.9592 40.0026 43.6837C39.9502 43.5943 40.2299 44.1489 40.2212 44.131C40.2649 44.2472 40.2212 44.301 40.2212 44.4173C40.2212 44.5335 40.4571 44.8823 40.5358 45.0523L40.5968 45.1864C40.5968 45.2758 40.5968 45.3475 40.5968 45.5174C40.5968 45.6874 40.7458 45.759 40.7633 45.7858C40.7808 45.8127 40.7633 45.7857 40.7633 45.8662C40.8595 46.055 40.9672 46.2373 41.0864 46.4119C41.1563 46.5371 41.1652 46.6354 41.2439 46.7517C41.5324 47.2347 41.9783 47.7983 42.0046 47.7178C42.0308 47.6373 41.8994 47.5479 41.9256 47.5389C41.9518 47.53 42.1006 47.673 42.1006 47.6283C42.1006 47.5835 41.987 47.3869 41.9521 47.2885C41.9485 47.2678 41.9485 47.2465 41.9521 47.2258C41.9521 47.1542 41.9521 47.1632 41.9521 46.9843C41.9521 46.8054 41.8994 46.8054 41.9956 46.8323C42.0918 46.8591 41.9959 46.6265 42.0746 46.5549C42.1532 46.4834 42.2755 46.5013 42.3542 46.403C42.4328 46.3046 42.494 46.0988 42.7562 45.9557H42.7998L43.0358 45.893L43.5429 45.7679L43.7965 45.6963L44.1025 45.6068C44.3473 45.5292 44.5919 45.44 44.8367 45.3386C45.4298 45.1054 45.9958 44.8054 46.524 44.4441C47.1018 44.0284 47.6223 43.5349 48.0714 42.9771C48.4389 42.4583 48.7332 41.8893 48.9456 41.2866C49.2865 40.571 49.4526 40.3921 49.6187 39.8912C49.6748 39.65 49.7127 39.4048 49.7322 39.1577C49.7458 38.9372 49.7458 38.7162 49.7322 38.4958C49.7195 38.1657 49.7458 37.8355 49.8108 37.512C49.8443 37.2916 49.8911 37.0736 49.9508 36.859L45.2478 33.2006C45.2548 33.1245 45.2788 33.0511 45.3178 32.9859C45.3548 32.887 45.4048 32.7937 45.4663 32.7086C45.5188 32.6281 45.571 32.5922 45.6759 32.4223C45.7723 32.2873 45.8807 32.1616 45.9994 32.0467C46.1218 31.9125 46.2092 31.8768 46.384 31.689C46.673 31.3948 46.9928 31.1337 47.3372 30.9107C47.4039 30.87 47.4679 30.8253 47.5293 30.7766L47.6428 30.6871H47.5643H47.4418C47.3718 30.6871 47.3807 30.4992 47.3107 30.4366C47.1709 30.2398 46.8388 30.052 46.7601 29.7926C46.6814 29.5332 46.9351 28.7641 46.463 28.3795C46.2095 28.1738 46.148 27.4313 45.9119 26.7783C45.8508 26.5905 45.7284 26.5546 45.6934 26.4294C45.6584 26.3042 45.7458 25.9106 45.6934 25.7227C45.6409 25.5349 45.3877 25.535 45.3353 25.3919C45.2828 25.2488 45.3965 24.9536 45.3353 24.7658C45.1517 24.1665 44.837 23.6297 44.6971 23.093C44.6097 22.7352 44.6358 22.2881 44.5571 21.805C44.3367 21.0935 44.1645 20.3673 44.0415 19.6315C44.068 19.198 44.1967 18.7773 44.4171 18.406C44.6182 18.2003 45.2912 18.093 45.4223 17.9588C45.586 17.6691 45.682 17.3445 45.7024 17.0106C45.7776 16.6884 45.7922 16.3547 45.7459 16.0268C45.6324 15.474 45.4221 14.9467 45.1253 14.4704C45.0822 14.4028 45.029 14.3425 44.9678 14.2916C44.8585 14.1742 44.7622 14.0451 44.6796 13.9068C44.5507 13.674 44.4536 13.4244 44.3911 13.1645C44.0414 12.7173 43.6653 12.592 43.3244 12.2253C43.1702 12.0494 43.0067 11.8821 42.8348 11.7244L42.2581 11.1965C42.0566 11.0166 41.84 10.8552 41.611 10.7137C41.3298 10.5368 41.0378 10.3784 40.7368 10.2396C40.1816 9.99281 39.5913 9.83878 38.9884 9.78343C38.3201 9.71187 37.6464 9.71187 36.978 9.78343C36.5374 9.83469 36.0997 9.90933 35.6667 10.007C35.4417 10.0518 35.2195 10.1115 35.0021 10.1859L34.6875 10.2931L34.4865 10.3916C33.9854 10.6776 33.519 11.0228 33.0966 11.4202L41.4189 20.678C41.4189 20.5886 41.48 20.517 41.515 20.4454C41.6898 20.1055 41.882 19.8461 42.0656 19.551C42.2563 19.2354 42.3978 18.8915 42.4852 18.5314C42.4852 18.3883 42.4242 18.0662 42.4417 18.0036C42.5378 17.6905 42.8001 17.3507 42.8963 16.966C42.9463 16.6257 42.9608 16.2808 42.9398 15.9373C42.9398 15.7226 43.1146 15.4097 43.1058 15.1861C43.0971 14.9624 42.8788 14.9355 42.8788 14.8729C42.9224 14.1466 42.8872 13.4177 42.7737 12.6994C42.5486 11.8591 42.1751 11.0678 41.672 10.3647C41.4448 10.007 41.2002 9.72961 41.0079 9.4076C40.8159 9.13424 40.6658 8.83265 40.5622 8.51313C40.7283 7.92278 41.0864 9.04987 41.2875 8.79047C41.1214 8.28957 40.8681 8.25372 40.6933 7.82437C40.5184 7.39503 40.7718 7.15364 40.4833 6.82268C40.1948 6.49173 39.5567 6.33072 39.242 6.14288C38.7238 5.76469 38.1806 5.42406 37.6161 5.12328C37.1965 4.95333 36.7418 4.96221 36.3484 4.83699C34.8294 4.35943 33.2819 3.98296 31.7154 3.70995C31.4444 3.65628 31.348 3.48625 31.0333 3.40575C30.487 3.35449 29.9381 3.33951 29.3899 3.36098C29.0971 3.34759 28.8053 3.31786 28.5157 3.27166L27.598 3.2269L24.8094 12.7708C24.7353 12.8513 24.6681 12.9382 24.6083 13.0302C24.4947 13.1823 24.4856 13.2629 24.5118 13.3344C24.5217 13.4467 24.507 13.5597 24.4683 13.6653C24.4683 13.7279 24.2758 13.8442 24.2758 13.8799C24.2758 14.0499 24.3808 14.1751 24.3808 14.3451C24.3662 14.4874 24.3216 14.6247 24.2498 14.7476C24.1833 14.8911 24.1305 15.0409 24.0923 15.1948C24.1083 15.4963 24.076 15.7985 23.9962 16.0893C23.8913 16.295 23.3142 16.5544 23.1656 16.8228C23.0748 17.0379 23.0245 17.2685 23.017 17.5026C23.017 17.8067 22.947 18.1377 22.8945 18.4508C22.8945 18.4508 23.0522 18.4507 23.026 18.5491C22.7999 19.3617 22.6735 20.2001 22.6499 21.0447C22.6499 21.2057 22.4576 21.2058 22.4489 21.3757C22.4367 21.6287 22.3895 21.8787 22.3089 22.1182C22.2564 22.2971 22.3878 22.4848 22.3528 22.6189C22.2246 23.0289 22.1396 23.4518 22.0993 23.8803C22.0993 24.0681 21.8895 24.1486 21.8632 24.3544C21.837 24.5601 21.863 24.9267 21.8018 25.3023C21.8018 25.3023 22.0119 25.4009 21.9158 25.4366C21.4262 25.6245 22.2303 26.4114 22.1953 26.8229C22.1604 27.2344 21.8107 27.3775 21.5922 27.7621C20.9581 29.2903 20.6025 30.9244 20.543 32.5834C20.543 32.977 20.7444 33.8624 20.2374 34.0145C20.2374 33.5851 20.2895 33.12 20.307 32.7265C20.3244 32.3329 20.307 31.8321 20.307 31.5101C20.3158 30.8195 20.36 30.1298 20.4384 29.4438C20.4384 29.265 20.657 29.0233 20.6745 28.8355C20.692 28.6476 20.5345 28.272 20.5345 28.0395C20.5345 27.8069 20.7441 27.7353 20.7791 27.4937C20.814 27.2522 20.6918 27.2166 20.7355 27.0109C20.7792 26.8052 20.9626 26.5548 20.9976 26.358C21.1287 25.5351 20.9977 24.569 21.0851 23.8803C21.0851 23.7819 21.0852 23.567 21.1726 23.4865C21.26 23.406 21.4349 23.4866 21.4787 23.3435C21.5224 23.2004 21.2599 23.1467 21.2511 23.0841C21.2424 23.0215 21.4262 22.95 21.4262 22.9231C21.4489 22.4312 21.519 21.9428 21.6357 21.465C21.7526 20.951 21.823 20.427 21.8457 19.8997C21.8457 19.6135 21.662 19.3004 21.6882 19.0052C21.7446 18.6451 21.8447 18.2937 21.9858 17.9588C22.1222 17.7114 22.1828 17.428 22.1603 17.1449C22.1603 17.0465 21.8631 16.7692 21.9068 16.6708C21.9505 16.5724 22.1604 16.6707 22.1778 16.6171C22.3352 16.465 22.1777 16.3756 22.4749 16.2325C22.7721 16.0894 22.9646 16.0624 22.9995 15.8836C23.0345 15.7047 22.9471 15.5527 22.9995 15.3649C23.052 15.1771 23.1833 15.1412 23.227 15.0249C23.2757 14.8861 23.2757 14.7343 23.227 14.5956C23.1658 14.5151 23.1045 14.4435 23.122 14.3451C23.1395 14.2467 23.3318 14.1214 23.3406 14.0946C23.3493 14.0678 23.2356 14.0231 23.2881 13.9247C23.3584 13.8854 23.4256 13.8406 23.4891 13.7906C23.5678 13.7101 23.4104 13.7905 23.6202 13.6384L27.1169 1.7153H27.423C27.4842 1.7153 27.8076 1.87624 27.8601 1.87624L28.2796 1.78671L28.6907 1.67053C28.9121 1.59087 29.1475 1.56029 29.3813 1.581C29.5125 1.581 29.5473 1.92105 29.6784 1.96577C29.8096 2.0105 30.8236 2.26087 31.0072 2.33243C31.3307 2.40399 31.82 2.33251 32.3095 2.41301C33.0439 2.56507 33.2977 2.86019 34.2244 3.03014C34.338 3.03014 34.4339 2.90486 34.565 2.97642C34.6961 3.04798 35.6666 3.47732 36.2173 3.64727C36.5233 3.73672 36.9166 3.64739 37.2401 3.77262C37.7777 4.01711 38.3003 4.29485 38.8049 4.60442C40.4484 5.49888 42.1967 6.03555 42.7387 7.94077C42.8262 8.28067 42.9575 8.23585 42.9313 8.51313C42.905 8.79042 42.7998 8.60274 42.8348 8.89791C42.8707 9.20427 42.9441 9.50479 43.0533 9.79238C43.1757 10.0965 43.3333 10.4274 43.5169 10.8747C43.5868 11.0535 43.7792 11.1966 43.8054 11.447C43.8054 11.5365 43.6303 11.4471 43.7265 11.796C43.9989 12.3957 44.19 13.0306 44.2946 13.6832C44.2892 14.8617 44.1067 16.0323 43.7529 17.1538C43.6655 17.6279 43.753 18.1467 43.6219 18.4866C43.507 18.8181 43.3573 19.136 43.1758 19.4348C43.0185 19.721 42.8349 20.043 42.7037 20.3293C42.5726 20.6155 42.3978 20.9821 42.2491 21.313L32.4145 10.3827C32.9177 9.96246 33.4558 9.58833 34.0229 9.26457C34.1107 9.21457 34.2012 9.16986 34.294 9.13048L34.696 8.96932C34.967 8.87093 35.2643 8.78166 35.5702 8.70116C36.2869 8.51334 37.0249 8.42307 37.7647 8.43277C38.4172 8.42764 39.069 8.47542 39.7141 8.57581C40.2245 8.66181 40.7235 8.8089 41.2004 9.01409C41.5527 9.17273 41.8943 9.35509 42.2231 9.55981C42.3559 9.63902 42.4842 9.72565 42.6077 9.81924L42.9313 10.0695C43.3466 10.4042 43.735 10.7721 44.0936 11.1697C44.3296 11.4559 44.5484 11.7421 44.7582 12.0642L45.0728 12.4937L45.2828 12.8066C45.1604 13.0124 45.003 12.8871 44.8457 12.7619C44.6883 12.6366 44.452 12.4221 44.3646 12.6725L44.5482 12.8872C44.5815 12.9303 44.62 12.9692 44.6621 13.0034C44.7143 13.0618 44.7804 13.1051 44.8542 13.1287C44.9032 13.149 44.9565 13.1554 45.0087 13.1475C45.061 13.1397 45.1105 13.1178 45.1517 13.084C45.3266 12.9766 45.4573 12.762 45.6584 12.9051C46.2848 13.9641 46.7451 15.1169 47.0222 16.3218C47.1183 16.8675 46.9609 17.0465 46.7161 17.6369C46.5602 18.0837 46.249 18.4562 45.8419 18.6834C45.6933 18.7996 45.265 19.059 45.2388 19.1037C45.1514 19.3363 45.3615 19.703 45.3703 20.1681C45.3703 20.3917 45.2128 20.6332 45.2303 20.7852C45.4333 21.6311 45.7082 22.4572 46.052 23.254C46.1918 23.6923 46.1916 24.1485 46.314 24.4705C46.4364 24.7926 46.6901 24.9177 46.7251 25.0966C46.7601 25.2755 46.5853 25.5976 46.6115 25.8391C46.627 26.1689 46.7501 26.4838 46.9611 26.7336C47.0486 26.8141 47.2495 26.823 47.2932 26.9393C47.3369 27.0556 47.101 27.4133 47.1622 27.5385C47.3195 27.8516 47.7917 28.0395 47.9403 28.2989C48.0991 28.6778 48.1822 29.0853 48.1849 29.4976C48.1907 29.6408 48.2266 29.7811 48.2899 29.909C48.3168 29.9454 48.3532 29.9732 48.3949 29.9894C48.3949 29.9894 48.3948 29.9894 48.456 29.9894L48.1674 30.1684L47.7218 30.4814L47.4068 30.7229C47.2931 30.8123 47.2146 30.8481 47.1097 30.9196C46.889 31.0718 46.6786 31.2393 46.4801 31.4206C46.3664 31.519 46.2619 31.6264 46.157 31.7337C46.0521 31.8411 45.9906 31.8679 45.9119 31.9484C45.7589 32.1041 45.6215 32.2747 45.5013 32.4581C45.4193 32.5522 45.3461 32.6541 45.2828 32.7623C45.236 32.8549 45.195 32.9506 45.1603 33.0486C45.1543 33.0751 45.1543 33.1025 45.1603 33.129L51.0175 37.2794C51.0175 37.2794 50.9559 37.3689 50.8685 37.5299C50.7923 37.7122 50.7533 37.9085 50.7533 38.1068C50.7533 38.3052 50.7923 38.5012 50.8685 38.6836C50.9472 39.0682 50.7025 38.8446 50.5539 39.1219C50.5539 39.1219 50.5541 39.283 50.5104 39.5245C50.4667 39.766 50.4579 40.0254 50.4404 40.1864C50.4339 40.4861 50.4078 40.7849 50.3618 41.0809C50.286 41.2728 50.1954 41.4582 50.0908 41.6354C49.9684 41.859 49.8371 42.0736 49.6972 42.2883C49.5574 42.503 49.2777 42.8787 49.0591 43.1828C48.8414 43.4704 48.6081 43.7453 48.3599 44.0058C47.9172 44.541 47.4317 45.0376 46.9086 45.4906C46.628 45.7062 46.3361 45.9062 46.0344 46.0898C45.7966 46.2318 45.548 46.3546 45.2913 46.4567C44.9875 46.5831 44.6659 46.6586 44.3386 46.6803C44.0212 46.6918 43.7053 46.7306 43.3944 46.7965C43.3101 46.8139 43.2282 46.841 43.1498 46.8771C43.1448 46.9036 43.1448 46.9308 43.1498 46.9574C43.141 47.0192 43.1169 47.0779 43.0798 47.1275C43.0798 47.1275 43.0098 47.1275 42.9748 47.1275C42.9398 47.1275 42.931 47.1275 42.9223 47.1275C42.9082 47.2194 42.9082 47.3128 42.9223 47.4046C42.9223 47.7267 42.8436 47.7446 42.8698 47.9504C42.8698 47.9951 42.9573 48.1562 42.9748 48.2277C42.9852 48.2657 42.9852 48.3059 42.9748 48.3439C42.9705 48.3735 42.9705 48.4038 42.9748 48.4334C42.9748 48.4871 43.0796 48.6033 43.0533 48.5765C43.0271 48.5496 43.0533 48.5765 43.0533 48.5765C43.0025 48.5154 42.947 48.4586 42.8873 48.4066L42.6427 48.1919L42.4852 48.0578C42.1967 47.7984 41.6109 47.2617 41.506 47.1007C41.4011 46.9397 41.506 47.0379 41.506 46.9843C41.506 46.9306 41.1915 46.6177 41.0779 46.4477C41.0403 46.3789 41.0083 46.3071 40.9818 46.2331L40.8068 45.9647C40.6261 45.6247 40.4627 45.2755 40.3172 44.9182C40.1424 44.5246 39.9502 44.0952 39.8016 43.7106C39.5743 43.7106 39.6878 44.1578 39.6266 44.3546C39.5654 44.5514 39.4605 44.4351 39.4605 44.5603C39.5212 44.7744 39.5974 44.9836 39.6881 45.1864C39.7298 45.3082 39.7587 45.4342 39.7751 45.5622C39.7887 45.6171 39.8062 45.6709 39.8276 45.7231V45.7231L39.382 47.0469L39.312 47.2527C39.1991 47.3267 39.0751 47.381 38.9449 47.4136C38.6133 47.533 38.2647 47.5966 37.9132 47.6016C37.135 47.6211 36.3717 47.3826 35.7367 46.9218C35.6099 46.8298 35.49 46.7281 35.3782 46.6176L35.2206 46.4656L35.1156 46.3492C34.8827 46.1441 34.6279 45.9672 34.3554 45.8216C34.1631 45.7232 33.8834 45.7589 33.7173 45.6605C33.5512 45.5621 33.5596 45.3027 33.3848 45.2222C33.2429 45.1529 33.0933 45.1019 32.9391 45.0702C32.8168 45.0702 32.6069 45.1328 32.4845 45.0702C32.3622 45.0076 32.1785 44.6587 31.9599 44.5245C31.7414 44.3903 31.5753 44.5246 31.3393 44.4441C31.0512 44.3162 30.7855 44.1409 30.5526 43.9253L33.5687 35.732C33.662 35.7584 33.7591 35.7655 33.8552 35.7532C33.9512 35.7409 34.0439 35.7094 34.1279 35.6604C34.2328 35.5978 34.2855 35.4457 34.3904 35.4188C34.6352 35.3652 34.8623 35.5083 35.1071 35.4188C35.3519 35.3294 35.3608 35.2131 35.5182 35.1594C35.6755 35.1057 35.6316 35.3027 35.7102 35.2937C35.7889 35.2848 35.9549 35.0074 36.0598 34.9985C36.1647 34.9895 36.1824 35.1594 36.2523 35.1236C36.3223 35.0878 36.4007 34.8375 36.4794 34.8107C36.5581 34.7838 36.6543 34.9179 36.768 34.9089C36.8816 34.9 36.9081 34.7211 36.978 34.7122C37.0479 34.7032 37.3277 34.7748 37.4676 34.7122C37.6075 34.6496 37.581 34.5065 37.6772 34.4886C37.7733 34.4707 37.9045 34.5422 37.9832 34.4886C38.2804 34.3276 38.394 33.8804 38.7524 33.8893H38.9974C39.0673 33.8357 38.9974 33.6477 38.9974 33.5583C39.0172 33.4934 39.057 33.437 39.111 33.3973C39.2508 33.3126 39.4004 33.2465 39.5566 33.2006C39.7664 33.1022 39.819 32.8875 39.9851 32.7892C40.3827 32.622 40.7957 32.4959 41.2179 32.4133H41.27H40.7893C40.6232 32.4133 40.5008 32.4134 40.5008 32.485C40.5008 32.5565 40.9202 32.7892 40.7979 32.825C40.6207 32.8246 40.4447 32.8004 40.2737 32.7533L39.9151 32.6459H39.8451C40.0549 32.2971 40.2647 31.9572 40.4658 31.6084L40.8504 30.9823C40.9666 30.8734 41.0896 30.7718 41.2179 30.6781C41.48 30.4995 41.7546 30.341 42.0396 30.204L42.2581 30.1057L42.4152 30.0431L42.5902 29.9894C42.7038 29.9894 42.8261 29.9179 42.9398 29.8821L43.2894 29.8105H43.4819H43.814H44.0675H44.5396C45.0896 29.8305 45.6341 29.93 46.157 30.1057C46.5503 30.231 46.9 30.374 47.2322 30.5082C48.3074 30.9286 49.4349 31.3491 49.6097 31.7158C49.7846 32.0826 49.1729 32.7891 49.2516 32.9949C49.8206 33.5527 50.4545 34.0363 51.1396 34.4348C51.3931 34.4885 51.5416 34.7839 51.9438 35.0701C52.0924 35.1685 52.3635 35.1506 52.4859 35.2489C52.9404 35.5978 53.2813 36.1433 53.7096 36.4922C53.9981 36.7247 54.3743 36.8143 54.6278 37.02C54.8813 37.2257 54.8552 37.3778 54.9863 37.5209C55.0952 37.6193 55.2153 37.7035 55.3445 37.7714L50.9735 41.707C50.995 41.6219 50.995 41.5326 50.9735 41.4476C50.9735 41.3581 50.9298 41.2866 50.9735 41.3045C50.9803 41.2873 50.9803 41.268 50.9735 41.2508C51.0258 41.3213 51.0999 41.3716 51.1835 41.3938C51.3389 41.4824 51.5129 41.5316 51.6906 41.5371C51.8625 41.5827 52.0377 41.6125 52.2148 41.6264C52.2148 41.6264 52.6171 41.6264 53.264 41.6264C53.5305 41.6165 53.7964 41.5897 54.0596 41.546C54.2161 41.5223 54.3737 41.5073 54.5317 41.5013C54.8727 41.5013 54.5317 41.5013 54.3132 41.5013H54.1032H54.1907C54.2519 41.5013 54.2344 41.5013 54.1907 41.5013C54.077 41.5013 53.9984 41.6802 54.1907 41.9843C54.2606 42.1006 54.5315 42.0648 54.6888 42.199C54.8462 42.3332 54.689 42.5119 54.8638 42.7176C55.0387 42.9234 55.1785 42.8787 55.2659 43.0039C55.3533 43.1292 55.4669 43.6122 55.7991 43.8984C55.7991 43.8984 56.1051 43.8984 56.1226 43.8984C56.1401 43.8984 56.2185 44.1756 56.3147 44.2919C56.4109 44.4082 56.6471 44.444 56.7432 44.5513C57.1025 44.9926 57.494 45.4054 57.9145 45.7858C58.1156 45.9379 58.3869 46.0272 58.4656 46.1346C58.5443 46.2419 58.4653 46.4476 58.5877 46.546C58.71 46.6444 58.9461 46.5997 59.0073 46.6266C59.0186 46.6421 59.0248 46.6609 59.0248 46.6803C59.0248 46.6996 59.0186 46.7183 59.0073 46.7338V46.7338L58.7712 46.9843L58.4656 47.3153C58.2733 47.5479 58.1071 47.7088 57.941 47.8877C57.7749 48.0666 57.6087 48.2635 57.4514 48.4603C57.1279 48.9254 56.8658 49.1937 56.6472 49.5694C56.5685 49.6946 56.4811 49.9183 56.4112 50.0166C56.3282 50.1373 56.2632 50.2699 56.2186 50.4102L56.1661 50.6248C56.1427 50.6628 56.128 50.7054 56.1226 50.75C56.1183 50.7946 56.1183 50.8396 56.1226 50.8843V50.9648C56.1226 51.0632 56.1663 50.9647 55.9041 50.7858C55.772 50.6736 55.6164 50.594 55.4495 50.5532L62.0759 49.4351C62.049 49.6639 62.049 49.8951 62.0759 50.1239C62.0759 50.3028 62.3118 50.4549 62.3555 50.6248C62.4429 50.9289 62.3555 51.5193 62.408 51.9218C62.4517 52.1364 62.6701 52.2707 62.6876 52.4675C62.6788 52.7674 62.6499 53.0662 62.6005 53.362C62.6005 53.7734 62.6005 54.3548 62.6005 54.2564C62.4292 54.5456 62.1879 54.7848 61.9 54.9509C61.6121 55.1169 61.2871 55.2044 60.9567 55.2046C60.6157 55.2046 60.3625 55.0167 59.9429 54.9183C59.7069 54.8557 59.5669 54.9183 59.3833 54.8646C58.9261 54.7561 58.4507 54.7561 57.9935 54.8646C57.4165 54.9183 57.3987 54.8647 57.2239 55.1867C57.049 55.5087 57.3987 55.3297 57.4599 55.768C57.4599 56.0274 57.3727 56.2778 57.3989 56.573C57.4251 56.8681 57.5913 57.0918 57.5389 57.2886C57.4864 57.4854 57.2328 57.6017 57.2153 57.7537C57.227 58.141 57.268 58.5268 57.3378 58.9076C57.3657 59.0131 57.3657 59.1243 57.3378 59.2297C57.2854 59.516 57.0232 59.6054 56.9358 59.8558C56.906 60.0814 56.906 60.31 56.9358 60.5356C56.9127 60.7616 56.9127 60.9894 56.9358 61.2154C56.9882 61.3675 57.2854 61.591 57.3028 61.7967C57.3466 62.4497 56.848 62.6912 57.0578 63.3889C57.1015 63.5052 57.0581 63.5768 57.1193 63.6752C57.1805 63.7736 57.3466 63.8093 57.3553 63.8272C57.3641 63.8451 57.1366 63.9435 57.1628 64.0508C57.1891 64.1582 57.3987 64.1671 57.4074 64.2744C57.4511 65.1689 56.9793 66.305 55.432 65.7057L55.0384 65.5445C55.0384 65.5445 54.6803 65.4194 54.6453 65.3925C54.6103 65.3657 54.4703 64.8917 54.3042 64.8112C54.1181 64.8285 53.9307 64.8285 53.7446 64.8112C53.6572 64.8112 53.4215 64.5695 53.2205 64.6321C53.0194 64.6947 53.2203 64.8022 53.0455 64.9363C52.8706 65.0705 52.7659 64.9901 52.7659 65.008C52.6153 65.4575 52.5127 65.9224 52.4598 66.3944C52.4598 66.627 52.5471 66.9222 52.5034 67.2889C52.4154 67.7888 52.4154 68.3006 52.5034 68.8005C52.5227 68.9845 52.5547 69.1667 52.5994 69.346C52.6431 69.4891 52.8092 69.6591 52.8354 69.7932C53.0278 70.6877 52.9668 71.5823 53.1155 71.9491C53.2641 72.3158 53.6747 72.5931 53.7621 72.8435C53.7302 73.051 53.7302 73.2622 53.7621 73.4696C53.7621 73.568 54.0159 73.7557 54.0246 73.8004C54.0334 73.8452 53.8324 73.9973 53.8761 74.1136C53.9198 74.2299 54.0944 74.2031 54.2692 74.4357C54.4441 74.6683 54.2693 74.7934 54.3917 74.9633C54.512 75.1193 54.6466 75.2631 54.7938 75.3926C54.9319 75.494 55.0635 75.6047 55.1874 75.7237C55.2573 75.831 55.1349 76.0188 55.1874 76.1351C55.2398 76.2514 55.4405 76.314 55.458 76.3498C55.5279 76.5376 55.4581 76.797 55.5805 76.9759C55.7991 77.4141 56.1926 77.763 56.3762 78.1387C56.6472 78.6843 56.857 79.1494 56.6297 79.3909C56.4024 79.6324 56.2887 79.391 56.0876 79.4894C55.8865 79.5878 56.0003 79.6682 55.808 79.6951C55.0656 79.6506 54.3327 79.5001 53.6311 79.2478C53.6311 79.7219 54.1296 80.0529 54.2957 80.4017C54.4618 80.7506 54.4179 80.992 54.5578 81.2425C54.8028 81.5839 55.0715 81.9068 55.362 82.2086C55.4494 82.3249 55.4143 82.4411 55.493 82.5573C55.5717 82.6736 55.7031 82.7273 55.7555 82.8078C55.808 82.8883 55.7554 83.0671 55.8866 83.1745C56.0701 83.4249 56.0876 83.2909 56.2712 83.9528C56.4547 84.6147 56.4461 84.5431 55.9741 84.6147C55.502 84.6862 53.8583 84.0602 53.5261 84.2659C53.1939 84.4716 53.7186 84.8562 53.7536 85.3034C53.7536 85.3034 53.5701 85.3033 53.6051 85.4375C53.64 85.5717 53.8061 85.697 53.6051 85.8133C53.404 85.9296 53.1414 85.6076 52.6519 85.6166C52.6519 86.1443 52.4948 86.511 52.5298 86.9493C52.5298 87.0924 52.7134 87.307 52.7484 87.4769C52.7703 87.7985 52.7703 88.1214 52.7484 88.443C52.8721 89.2551 52.8721 90.0818 52.7484 90.8939C52.7484 90.8939 52.8881 91.1802 52.8094 91.216C52.7307 91.2517 52.6694 91.037 52.6519 91.1622C52.6344 91.2875 52.7571 91.6095 52.7484 91.8152C52.7023 92.165 52.605 92.5056 52.4598 92.8258C52.285 93.2552 52.0051 93.622 51.8477 93.622C51.73 93.5542 51.6161 93.4795 51.5067 93.3984C51.0259 93.2285 50.2393 91.8867 49.7147 90.4287C49.4612 89.7579 49.3476 89.5342 49.0416 89.6773C49.0416 89.6773 49.0416 89.7579 49.0416 89.8295C49.0416 89.901 49.0418 89.9814 48.9981 89.9098C48.9544 89.8383 48.753 89.588 48.683 89.5969C48.6131 89.6059 48.6834 89.8474 48.596 89.8026C48.325 89.5522 48.1937 89.0513 48.2199 89.4091C48.2461 89.7669 47.7742 89.2123 47.4682 89.1944C47.2396 89.213 47.0138 89.2579 46.7951 89.3285C46.7225 89.3379 46.6491 89.3379 46.5765 89.3285C46.4449 89.3566 46.3181 89.4048 46.2005 89.4716C45.9907 89.5878 46.2793 89.7936 46.157 89.9009C46.0505 89.917 45.9472 89.9503 45.8509 89.9994C45.6716 90.1086 45.5046 90.2375 45.3528 90.3839C45.1755 90.5651 45.0226 90.7698 44.8982 90.9923C44.7496 91.207 44.5745 91.4394 44.3996 91.6719C44.2248 91.9045 44.0239 91.8688 43.9015 91.994C43.5343 92.4323 43.4382 92.8885 42.6777 92.8885C42.6777 92.8885 42.4152 92.799 42.3977 92.8079C42.1005 92.9421 42.2231 92.8081 41.7685 92.7365C41.6811 92.7365 41.4626 92.7365 41.4189 92.7365C40.9032 92.5666 40.5444 92.1104 40.2297 92.2714C39.915 92.4324 39.6179 94.0602 39.478 94.579C39.4262 94.789 39.3529 94.993 39.2595 95.1874C39.2338 95.2627 39.2161 95.3407 39.207 95.4199C39.2189 95.5006 39.2426 95.5789 39.277 95.6525C39.2948 95.7199 39.2948 95.7908 39.277 95.8582C39.277 95.9029 39.2769 95.9386 39.2245 96.0012C39.222 96.037 39.222 96.0729 39.2245 96.1087V96.1801C39.2245 96.1801 39.2245 96.2338 39.2245 96.1801C39.2245 96.1264 39.3207 96.1801 39.312 96.1801C39.3033 96.1801 39.382 96.1801 39.3645 96.1801C39.2756 96.0714 39.1653 95.983 39.0409 95.9207C39.0409 95.9207 39.0409 95.9207 39.0409 95.9207C39.0409 95.9207 38.8748 95.8759 38.8049 95.9207C38.7073 95.9661 38.6139 96.0201 38.5253 96.0818C38.3942 96.0818 38.2802 96.0012 38.1753 96.0102C38.0704 96.0191 37.826 96.2248 37.4326 95.9475C37.2315 95.7955 37.074 95.742 37.0215 95.6883C36.768 95.42 36.8644 95.2678 36.8119 94.9011C36.8119 94.9011 36.8904 94.4539 36.6369 94.3197C36.1736 94.0156 36.3921 94.4359 36.1823 94.6685C36.0753 94.7693 35.9545 94.8537 35.8238 94.919C35.7347 94.9652 35.6576 95.0321 35.5984 95.1144C35.5392 95.1968 35.4998 95.2922 35.4832 95.3931C35.4832 95.6435 35.2122 95.5093 35.0461 95.8224L34.9496 96.0371C34.9496 96.0371 34.6787 96.037 34.6 96.1711C34.5213 96.3053 34.5999 96.3948 34.495 96.4843C34.3901 96.5737 34.2156 96.6721 34.2069 96.681C33.9883 96.8152 33.6995 96.8242 33.5858 96.9047C33.4722 96.9852 33.5862 97.1284 33.4987 97.2178C33.4113 97.3073 33.0705 97.4055 32.9131 97.5128C32.7557 97.6202 32.677 97.9244 32.371 97.8708C32.3393 97.6801 32.3562 97.4842 32.4205 97.3023C32.4849 97.1205 32.5944 96.9587 32.7381 96.833C32.7993 96.7615 32.8344 96.6273 32.9131 96.5915C32.9918 96.5557 33.0002 96.6899 33.0352 96.6363C33.0754 96.5338 33.1105 96.4295 33.1402 96.3233C33.3144 96.1304 33.4403 95.8971 33.5073 95.6435C33.3412 95.6883 33.2628 95.8134 33.1316 95.9654C33.0005 96.1175 33.0354 95.9654 33.0091 95.9654C32.9585 96.0843 32.897 96.1983 32.8256 96.3054C32.7294 96.4038 32.5896 96.3949 32.476 96.5022C32.2137 96.7526 31.9077 97.2535 31.5143 97.3967C31.3482 97.4593 31.2607 97.3251 31.1733 97.3967C31.0858 97.4682 30.7976 97.7902 30.5091 97.9869C30.1635 98.1865 29.7927 98.3369 29.4074 98.4342C28.8741 98.5773 28.3148 98.5416 28.2186 98.318C28.2186 98.318 28.2185 98.1748 28.3146 98.0048C28.3558 97.8549 28.421 97.7129 28.5072 97.5845C28.6995 97.343 28.7692 97.4503 28.9178 97.3519C29.0664 97.2535 28.9179 97.352 29.0053 97.2536C29.2501 96.8332 29.3725 97.1194 29.6959 96.9584C29.8096 96.9137 30.0717 96.5737 30.2291 96.4574C30.3864 96.3411 30.3864 96.4037 30.4301 96.3768C30.9167 96.0994 31.379 95.7793 31.8114 95.4199C31.9842 95.2411 32.1477 95.0529 32.301 94.8563C32.4286 94.7547 32.5405 94.6342 32.6331 94.4986C32.6331 94.4986 32.6941 94.3108 32.7116 94.2929C32.8602 94.105 32.9742 94.0959 33.0791 93.9081C33.1855 93.7051 33.2732 93.4926 33.3412 93.2731C33.4199 92.9063 33.2712 93.2731 33.2887 93.1032C33.3062 92.9332 33.3586 93.0495 33.4023 92.8885C33.446 92.7275 33.3412 92.8885 33.2887 93.1032C33.2013 93.5057 33.1226 93.291 33.0702 93.3447C33.0177 93.3984 32.9916 93.5325 32.9391 93.5683C32.8867 93.6041 32.8691 93.5683 32.8166 93.5683C32.6517 93.7292 32.4764 93.8786 32.292 94.0155C32.1609 94.1139 31.8116 94.0155 31.5318 94.2302C31.4619 94.2749 31.2868 94.5076 31.2343 94.5255C31.1818 94.5433 31.1471 94.418 31.0247 94.3912C30.9184 94.3939 30.8153 94.4282 30.7276 94.4896L30.5351 94.6774L29.1803 95.7597C29.1803 95.7597 29.2327 95.7598 29.3113 95.6704C29.4144 95.582 29.5256 95.5041 29.6434 95.4378C29.7777 95.3528 29.918 95.2781 30.063 95.2142C30.063 95.2142 30.6049 94.9368 30.3951 95.0351L30.1416 95.1336C29.9405 95.1784 29.9492 95.1337 29.687 95.0175C29.4452 94.9045 29.2261 94.7468 29.0403 94.5523C28.7693 94.3032 28.593 93.9643 28.5422 93.5952L28.2361 85.196L22.6499 91.7704C22.597 91.8406 22.5228 91.8908 22.4391 91.9135C22.3553 91.9361 22.2667 91.9298 22.1868 91.8955C21.6011 91.6988 21.5137 91.5379 21.3126 90.9476C21.3126 90.8581 21.3126 90.858 21.3126 90.8222L22.0553 83.765L30.063 93.5325L30.1416 93.5773C30.2902 93.5773 30.2379 93.783 30.5701 93.8188C30.6042 93.7758 30.6226 93.7222 30.6226 93.6668C30.6226 93.6114 30.6042 93.5576 30.5701 93.5146L22.7024 81.6808L20.9101 90.5272C20.896 90.8264 20.9136 91.1263 20.9626 91.4217C20.9626 91.6095 20.9626 91.8599 20.9626 92.0567C20.9189 92.4771 20.8142 92.8169 20.788 93.2999C20.8055 93.4903 20.8055 93.6821 20.788 93.8725C20.788 94.0156 20.5432 94.0244 20.4995 94.1496C20.4558 94.2749 20.5692 94.4538 20.5605 94.4717C20.4294 94.6685 20.1674 94.7401 20.0013 94.9279C19.6812 94.5925 19.3888 94.2305 19.1271 93.8456C19.0488 93.9746 19.0064 94.1231 19.0046 94.275C19.0046 94.4091 19.0834 94.597 19.0571 94.7401C19.0309 94.8832 18.8646 94.9099 18.8296 95.0441C18.7947 95.1783 18.8733 95.4109 18.8296 95.5182C18.751 95.7955 18.6287 95.9924 18.5325 96.2875C18.4662 96.5917 18.3788 96.8907 18.2705 97.182C18.2005 97.2714 17.912 97.2356 17.7984 97.3429C17.6847 97.4503 17.7983 97.8529 17.5448 97.7009C17.2913 97.5488 17.1952 97.1642 17.1602 96.8064C17.099 96.225 17.6234 96.0728 17.4748 95.554C17.4049 95.4109 17.3875 95.554 17.3438 95.554L17.1948 95.7508C17.0902 95.9589 17 96.174 16.9242 96.3948C16.8717 96.5021 16.8452 96.4486 16.8102 96.5559C16.6874 96.881 16.5133 97.1832 16.2946 97.4504C16.0323 97.7724 15.7 98.0138 15.4989 97.978C15.2979 97.9422 15.3506 97.9781 15.1583 97.7009C15.0709 97.5756 15.0969 97.4146 14.9133 97.4146C14.4937 97.4146 14.345 98.0228 13.9516 98.309C13.8817 98.3627 13.6021 98.4342 13.4535 98.5148C13.1475 98.6668 12.9554 98.8457 12.7718 98.5148C12.7718 98.4611 12.719 98.2016 12.6403 98.2016C12.3169 98.2016 11.7662 98.6936 11.2155 98.953C10.9665 99.0806 10.7096 99.1911 10.4463 99.2839C10.1928 99.3644 9.91319 99.3645 9.71213 99.445C9.23403 99.7161 8.74033 99.9578 8.23437 100.169C8.0945 100.214 7.99841 100.098 7.86728 100.169C7.53509 100.321 6.92326 100.366 6.44246 100.545C6.05782 100.277 6.67844 100.447 6.17141 100.089C5.98783 99.9549 6.04042 99.8386 5.65578 100.089C5.49842 100.348 5.97026 100.339 6.08391 100.483C5.73423 100.813 5.36705 100.581 4.97367 100.67C4.58029 100.76 3.97718 101.198 3.74989 101.1C3.5226 101.001 3.79371 100.921 3.4178 101.1C3.26919 101.153 3.15574 101.234 2.95467 101.314C2.75361 101.395 2.48234 101.44 2.23757 101.511C2.12074 101.542 2.00898 101.591 1.90548 101.654C1.85644 101.679 1.81213 101.712 1.77443 101.753L1.73047 101.815L1.87944 101.475C2.47389 100.205 2.91098 99.105 3.19072 98.3804C3.43438 97.7514 3.62441 97.102 3.75886 96.4395C3.76512 96.3472 3.76512 96.2545 3.75886 96.1622C3.76366 96.0997 3.76366 96.0369 3.75886 95.9744C3.76273 95.9238 3.76273 95.873 3.75886 95.8224C3.75886 95.7061 3.70641 95.6704 3.75886 95.6794C3.81131 95.6883 3.95987 95.7866 4.362 95.7866C4.55432 95.7866 4.4669 95.7866 4.362 95.7866C4.25716 95.7921 4.15224 95.7921 4.04741 95.7866C4.04741 95.7866 4.1694 95.7866 4.30053 95.7866C4.43166 95.7866 4.51064 95.7866 4.397 95.7866C4.23257 95.7953 4.06771 95.7802 3.9074 95.7418C3.75005 95.7418 3.78515 95.5898 3.82886 95.8224C3.83936 96.257 3.77406 96.6901 3.63635 97.1014C3.54019 97.4682 3.44413 97.7277 3.30426 98.1212C3.16439 98.5148 3.02432 98.8994 2.87571 99.2304L2.46508 100.232L2.26403 100.679C2.26403 100.679 2.26403 100.679 2.26403 100.617C2.4376 100.461 2.64873 100.356 2.87571 100.313L2.61362 100.805C2.76223 101.091 2.91095 100.357 3.15572 100.152C2.99837 100.259 3.80243 99.8923 3.8374 99.9012C3.87236 99.9102 4.45807 100.08 4.71159 99.9012C5.11371 99.5434 4.71165 99.9638 5.21868 99.9012C5.34107 99.9012 5.49825 99.7581 5.69931 99.6866C5.90038 99.615 6.21526 99.6238 6.52996 99.5075C6.6144 99.5125 6.69908 99.5125 6.78351 99.5075C7.15941 99.1497 6.78338 99.5077 7.29915 99.454C7.36034 99.454 7.46524 99.2662 7.51769 99.2572C7.71853 99.2709 7.91999 99.2709 8.12083 99.2572C8.37435 99.1767 8.66278 98.8457 8.94252 98.7205C9.22226 98.5952 9.31003 98.7204 9.52858 98.6757C9.74713 98.631 9.8258 98.461 9.96567 98.4073C10.1055 98.3536 10.1842 98.4789 10.1492 98.4879C10.2629 98.4879 10.2626 98.3001 10.3413 98.2643C10.8273 98.1304 11.3013 97.9538 11.7576 97.7365C12.0286 97.5755 12.2735 97.2445 12.5182 97.0835C12.763 96.9225 12.7892 97.0835 12.8853 97.0387C13.1751 96.8363 13.4497 96.612 13.707 96.3679C13.8993 96.2158 14.1091 96.1981 14.2926 96.0371C14.2926 96.0371 14.3712 95.7866 14.4062 95.7687C14.5892 95.6937 14.7452 95.5625 14.8522 95.3931C14.9309 95.2589 15.193 94.9548 15.3154 94.7133C15.4676 94.489 15.602 94.2527 15.7175 94.0066C15.8399 93.6935 15.8398 93.4968 15.901 93.4253C15.9622 93.3537 16.1459 93.6668 16.2421 93.6578C16.4781 93.6578 16.5392 92.8527 16.5392 92.4234C16.5392 92.3607 16.5919 92.3429 16.5831 92.2624C16.5744 92.1819 16.5829 91.9851 16.5392 91.8241C16.4954 91.6631 16.5395 91.4394 16.4871 91.2336C16.4346 91.0279 16.4871 91.1622 16.4871 91.0727C16.4871 90.9833 16.3121 90.5182 16.3646 90.5003C16.417 90.4824 16.6353 90.6792 16.7752 90.715C17.0637 91.1801 16.9152 91.2696 17.3173 91.8599C17.2299 91.6721 17.2474 91.511 17.1688 91.2874C17.0901 91.0637 17.1687 90.7239 17.0988 90.4556C17.0988 90.393 16.985 90.214 16.9762 90.1872C16.9675 90.1604 17.125 90.0531 17.0988 89.8743C17.0725 89.6954 16.7841 89.5075 16.9677 89.4181L17.1688 89.6148C17.1688 89.6148 17.4308 89.6147 17.4308 89.5253C17.7983 89.9931 18.0637 90.536 18.209 91.1175C18.6111 91.3948 18.4102 90.7776 18.4015 90.5093C18.3928 90.241 18.2788 90.1604 18.2875 90.0083C18.2963 89.8563 18.4275 89.7937 18.41 89.6417C18.3926 89.4896 18.314 89.4627 18.279 89.3733C18.244 89.2839 18.1916 88.8544 18.1304 88.6398L17.4223 86.2158L33.9708 93.5504C34.2681 93.6756 34.6962 93.7652 34.6525 93.8725C34.4807 93.936 34.3055 93.9897 34.1279 94.0334C33.9449 94.055 33.7602 94.055 33.5773 94.0334C32.9479 94.0334 33.2537 94.0961 33.0177 93.8725C33.0177 93.8725 32.7731 93.8188 32.7381 93.7919C32.7031 93.7651 32.5632 93.6399 32.467 93.5773L18.7246 84.2122L19.3542 89.5074C19.4154 89.8383 19.5988 90.241 19.6338 90.5093C19.6688 90.7776 19.5116 91.0011 19.5553 91.2605C19.5553 91.3589 19.6864 91.5467 19.7213 91.6988C19.7563 91.8508 19.6428 92.0029 19.8788 92.1371C20.1149 92.2712 20.0709 91.7704 20.0534 91.5199C20.0607 91.3859 20.0607 91.2515 20.0534 91.1175C20.0573 91.049 20.0573 90.9803 20.0534 90.9118C20.0534 90.9118 19.8788 90.706 19.8788 90.6881C19.8788 90.6703 20.0621 90.5629 20.0534 90.4556C20.0447 90.3482 19.8788 90.2498 19.8788 90.232C19.8788 90.2141 19.9574 90.0351 19.9749 89.9098L21.2951 82.3337L31.7854 93.5683C31.8815 93.6578 31.9863 93.7293 32.0824 93.8277C32.1494 93.898 32.2083 93.976 32.2575 94.0603C32.3342 94.1249 32.4288 94.1624 32.5281 94.1675C32.633 94.1675 32.8779 94.1675 32.9391 94.1675H33.0527H33.0966H32.9477L32.6245 94.2571C32.4147 94.3107 32.205 94.3823 32.0039 94.4538L31.6629 94.579L31.4003 94.6506L30.9112 94.8205C30.7451 94.892 30.5702 94.9636 30.3866 95.062L30.1066 95.2142L29.888 95.3125C29.7412 95.3796 29.6008 95.4605 29.4684 95.554L29.1978 95.7508L29.1363 95.7955L33.3848 92.4055C33.3749 92.3073 33.3749 92.2086 33.3848 92.1104C33.3848 92.0389 33.3848 92.0119 33.3848 91.994L33.4723 91.9135L33.6558 91.7346C33.5717 91.8345 33.4929 91.9391 33.4198 92.0478C33.1701 92.3858 32.8759 92.6868 32.5456 92.9422C32.4264 93.0394 32.2975 93.1234 32.161 93.1927L31.9774 93.291C31.9578 93.3553 31.9434 93.4211 31.9339 93.4877V93.5773L29.1188 95.8224H29.1713C29.3005 95.7228 29.4347 95.6302 29.5734 95.5451C29.7067 95.4583 29.8471 95.3834 29.993 95.3214C30.1329 95.2678 30.3866 95.1067 30.5876 95.0262L31.1383 94.8026L31.4003 94.7222C31.4003 94.7222 31.348 94.7222 31.3393 94.7222C31.3306 94.7222 31.1644 94.7222 31.0508 94.7222C30.9371 94.7222 30.2291 94.5075 30.2466 94.2302Z" fill="white" stroke="white" stroke-width="3.10104" stroke-linecap="round" stroke-linejoin="round"/>
</svg>
